<?xml version="1.0" encoding="UTF-8" standalone="no"?>
<!DOCTYPE svg PUBLIC "-//W3C//DTD SVG 1.1//EN"
 "http://www.w3.org/Graphics/SVG/1.1/DTD/svg11.dtd">
<!-- Generated by graphviz version 2.36.0 (20140111.2315)
 -->
<!-- Title: view.View Pages: 1 -->
<!--zoomable 347 -->
<svg id="main" version="1.1" xmlns="http://www.w3.org/2000/svg" xmlns:xlink="http://www.w3.org/1999/xlink" xml:space="preserve" onload="init(evt)">
<style type="text/css"><![CDATA[
.edge:hover path { stroke: red; }
.edge:hover polygon { stroke: red; fill: red; }
]]></style>
<script type="text/javascript"><![CDATA[
var edges = document.getElementsByTagName('g');
if (edges && edges.length) {
  for (var i=0;i<edges.length;i++) {
    if (edges[i].id.substr(0,4)=='edge') {
      edges[i].setAttribute('class','edge');
    }
  }
}
]]></script>
        <defs>
                <circle id="rim" cx="0" cy="0" r="7"/>
                <circle id="rim2" cx="0" cy="0" r="3.5"/>
                <g id="zoomPlus">
                        <use xlink:href="#rim" fill="#404040">
                                <set attributeName="fill" to="#808080" begin="zoomplus.mouseover" end="zoomplus.mouseout"/>
                        </use>
                        <path d="M-4,0h8M0,-4v8" fill="none" stroke="white" stroke-width="1.5" pointer-events="none"/>
                </g>
                <g id="zoomMin">
                        <use xlink:href="#rim" fill="#404040">
                                <set attributeName="fill" to="#808080" begin="zoomminus.mouseover" end="zoomminus.mouseout"/>
                        </use>
                        <path d="M-4,0h8" fill="none" stroke="white" stroke-width="1.5" pointer-events="none"/>
                </g>
                <g id="dirArrow">
                        <path fill="none" stroke="white" stroke-width="1.5" d="M0,-3.0v7 M-2.5,-0.5L0,-3.0L2.5,-0.5"/>
                </g>
               <g id="resetDef">
                       <use xlink:href="#rim2" fill="#404040">
                               <set attributeName="fill" to="#808080" begin="reset.mouseover" end="reset.mouseout"/>
                       </use>
               </g>
        </defs>

<script type="text/javascript">
var viewWidth = 1684;
var viewHeight = 347;
var sectionId = 'dynsection-0';
</script>
<script xlink:href="../../svgpan.js"/>
<svg id="graph" class="graph">
<g id="viewport">
<title>view.View</title>
<polygon fill="white" stroke="none" points="-4,4 -4,-342.993 1680,-342.993 1680,4 -4,4"/>
<!-- Node1 -->
<g id="node1" class="node"><title>Node1</title>
<polygon fill="#bfbfbf" stroke="black" points="1340.5,-168.5 1340.5,-187.5 1401.5,-187.5 1401.5,-168.5 1340.5,-168.5"/>
<text text-anchor="middle" x="1371" y="-175.5" font-family="Helvetica,sans-Serif" font-size="10.00">view.View</text>
</g>
<!-- Node1&#45;&gt;Node1 -->
<g id="edge19" class="edge"><title>Node1&#45;&gt;Node1</title>
<path fill="none" stroke="#9a32cd" stroke-dasharray="5,2" d="M1356.27,-197.766C1357.42,-202.497 1362.34,-206 1371,-206 1385.22,-206 1389.33,-196.565 1383.33,-187.757"/>
<polygon fill="#9a32cd" stroke="#9a32cd" points="1359.74,-198.298 1358.67,-187.757 1352.93,-196.664 1359.74,-198.298"/>
<text text-anchor="middle" x="1371" y="-209" font-family="Helvetica,sans-Serif" font-size="10.00"> instance</text>
</g>
<!-- Node13 -->
<g id="node13" class="node"><title>Node13</title>
<g id="a_node13"><a xlink:href="../../da/da8/classview_1_1components_1_1_s_logo_menu_bar.html" target="_top" xlink:title="view.components.SLogoMenuBar">
<polygon fill="white" stroke="black" points="1500.5,-117.5 1500.5,-136.5 1675.5,-136.5 1675.5,-117.5 1500.5,-117.5"/>
<text text-anchor="middle" x="1588" y="-124.5" font-family="Helvetica,sans-Serif" font-size="10.00">view.components.SLogoMenuBar</text>
</a>
</g>
</g>
<!-- Node1&#45;&gt;Node13 -->
<g id="edge17" class="edge"><title>Node1&#45;&gt;Node13</title>
<path fill="none" stroke="#9a32cd" stroke-dasharray="5,2" d="M1411.41,-170.832C1432.44,-166.827 1458.72,-161.536 1482,-156 1506.47,-150.182 1533.86,-142.582 1554.52,-136.621"/>
<polygon fill="#9a32cd" stroke="#9a32cd" points="1410.72,-167.4 1401.54,-172.69 1412.01,-174.279 1410.72,-167.4"/>
<text text-anchor="middle" x="1451" y="-171" font-family="Helvetica,sans-Serif" font-size="10.00"> myView</text>
</g>
<!-- Node2 -->
<g id="node2" class="node"><title>Node2</title>
<polygon fill="white" stroke="#bfbfbf" points="13.5,-194.5 13.5,-213.5 58.5,-213.5 58.5,-194.5 13.5,-194.5"/>
<text text-anchor="middle" x="36" y="-201.5" font-family="Helvetica,sans-Serif" font-size="10.00">Stage</text>
</g>
<!-- Node2&#45;&gt;Node1 -->
<g id="edge1" class="edge"><title>Node2&#45;&gt;Node1</title>
<path fill="none" stroke="#9a32cd" stroke-dasharray="5,2" d="M58.762,-218.977C67.9996,-224.613 79.1308,-230.499 90,-234 144.893,-251.68 161.33,-248 219,-248 219,-248 219,-248 1105,-248 1203.15,-248 1230.32,-242.045 1322,-207 1334.55,-202.203 1347.52,-194.15 1356.81,-187.746"/>
<polygon fill="#9a32cd" stroke="#9a32cd" points="60.5453,-215.963 50.2354,-213.522 56.7729,-221.859 60.5453,-215.963"/>
<text text-anchor="middle" x="643" y="-251" font-family="Helvetica,sans-Serif" font-size="10.00"> myStage</text>
</g>
<!-- Node6 -->
<g id="node6" class="node"><title>Node6</title>
<g id="a_node6"><a xlink:href="../../d2/d9f/classview_1_1dialogs_1_1_dialog_box.html" target="_top" xlink:title="view.dialogs.DialogBox">
<polygon fill="white" stroke="black" points="158,-178.5 158,-197.5 282,-197.5 282,-178.5 158,-178.5"/>
<text text-anchor="middle" x="220" y="-185.5" font-family="Helvetica,sans-Serif" font-size="10.00">view.dialogs.DialogBox</text>
</a>
</g>
</g>
<!-- Node2&#45;&gt;Node6 -->
<g id="edge6" class="edge"><title>Node2&#45;&gt;Node6</title>
<path fill="none" stroke="#9a32cd" stroke-dasharray="5,2" d="M68.4893,-193.596C75.4952,-191.701 82.9398,-190.008 90,-189 111.95,-185.867 136.215,-185.008 157.722,-185.132"/>
<polygon fill="#9a32cd" stroke="#9a32cd" points="67.2614,-190.308 58.6347,-196.458 69.2141,-197.03 67.2614,-190.308"/>
<text text-anchor="middle" x="115" y="-192" font-family="Helvetica,sans-Serif" font-size="10.00"> myStage</text>
</g>
<!-- Node3 -->
<g id="node3" class="node"><title>Node3</title>
<g id="a_node3"><a xlink:href="../../d5/d77/classview_1_1dialogs_1_1_languages_dialog_box.html" target="_top" xlink:title="view.dialogs.LanguagesDialogBox">
<polygon fill="white" stroke="black" points="1016,-143.5 1016,-162.5 1192,-162.5 1192,-143.5 1016,-143.5"/>
<text text-anchor="middle" x="1104" y="-150.5" font-family="Helvetica,sans-Serif" font-size="10.00">view.dialogs.LanguagesDialogBox</text>
</a>
</g>
</g>
<!-- Node3&#45;&gt;Node1 -->
<g id="edge2" class="edge"><title>Node3&#45;&gt;Node1</title>
<path fill="none" stroke="#9a32cd" stroke-dasharray="5,2" d="M1202.14,-162.165C1251.08,-166.782 1306.97,-172.054 1340.32,-175.2"/>
<polygon fill="#9a32cd" stroke="#9a32cd" points="1202.42,-158.675 1192.14,-161.221 1201.76,-165.644 1202.42,-158.675"/>
<text text-anchor="middle" x="1266" y="-176" font-family="Helvetica,sans-Serif" font-size="10.00"> myLanguagesBox</text>
</g>
<!-- Node4 -->
<g id="node4" class="node"><title>Node4</title>
<g id="a_node4"><a xlink:href="../../d0/de5/classview_1_1dialogs_1_1_input_dialog_box.html" target="_top" xlink:title="view.dialogs.InputDialogBox">
<polygon fill="white" stroke="black" points="734,-124.5 734,-143.5 882,-143.5 882,-124.5 734,-124.5"/>
<text text-anchor="middle" x="808" y="-131.5" font-family="Helvetica,sans-Serif" font-size="10.00">view.dialogs.InputDialogBox</text>
</a>
</g>
</g>
<!-- Node4&#45;&gt;Node3 -->
<g id="edge3" class="edge"><title>Node4&#45;&gt;Node3</title>
<path fill="none" stroke="midnightblue" d="M892.228,-139.379C930.878,-141.876 976.823,-144.846 1015.94,-147.373"/>
<polygon fill="midnightblue" stroke="midnightblue" points="892.257,-135.873 882.052,-138.721 891.805,-142.859 892.257,-135.873"/>
</g>
<!-- Node5 -->
<g id="node5" class="node"><title>Node5</title>
<g id="a_node5"><a xlink:href="../../d2/dee/classview_1_1dialogs_1_1_message_dialog_box.html" target="_top" xlink:title="view.dialogs.MessageDialogBox">
<polygon fill="white" stroke="black" points="384.5,-136.5 384.5,-155.5 551.5,-155.5 551.5,-136.5 384.5,-136.5"/>
<text text-anchor="middle" x="468" y="-143.5" font-family="Helvetica,sans-Serif" font-size="10.00">view.dialogs.MessageDialogBox</text>
</a>
</g>
</g>
<!-- Node5&#45;&gt;Node4 -->
<g id="edge4" class="edge"><title>Node5&#45;&gt;Node4</title>
<path fill="none" stroke="midnightblue" d="M561.981,-142.699C616.129,-140.776 683.429,-138.387 733.788,-136.599"/>
<polygon fill="midnightblue" stroke="midnightblue" points="561.554,-139.212 551.684,-143.064 561.802,-146.207 561.554,-139.212"/>
</g>
<!-- Node6&#45;&gt;Node5 -->
<g id="edge5" class="edge"><title>Node6&#45;&gt;Node5</title>
<path fill="none" stroke="midnightblue" d="M286.956,-176.739C325.685,-170.127 374.105,-161.86 410.974,-155.565"/>
<polygon fill="midnightblue" stroke="midnightblue" points="286.09,-173.336 276.821,-178.47 287.268,-180.237 286.09,-173.336"/>
</g>
<!-- Node12 -->
<g id="node12" class="node"><title>Node12</title>
<g id="a_node12"><a xlink:href="../../dc/d6d/classview_1_1dialogs_1_1_help_dialog_box.html" target="_top" xlink:title="view.dialogs.HelpDialogBox">
<polygon fill="white" stroke="black" points="570,-196.5 570,-215.5 716,-215.5 716,-196.5 570,-196.5"/>
<text text-anchor="middle" x="643" y="-203.5" font-family="Helvetica,sans-Serif" font-size="10.00">view.dialogs.HelpDialogBox</text>
</a>
</g>
</g>
<!-- Node6&#45;&gt;Node12 -->
<g id="edge13" class="edge"><title>Node6&#45;&gt;Node12</title>
<path fill="none" stroke="midnightblue" d="M292.341,-191.05C369.597,-194.353 492.159,-199.593 569.763,-202.911"/>
<polygon fill="midnightblue" stroke="midnightblue" points="292.357,-187.548 282.217,-190.617 292.058,-194.541 292.357,-187.548"/>
</g>
<!-- Node7 -->
<g id="node7" class="node"><title>Node7</title>
<polygon fill="white" stroke="#bfbfbf" points="12.5,-126.5 12.5,-145.5 59.5,-145.5 59.5,-126.5 12.5,-126.5"/>
<text text-anchor="middle" x="36" y="-133.5" font-family="Helvetica,sans-Serif" font-size="10.00">Scene</text>
</g>
<!-- Node7&#45;&gt;Node1 -->
<g id="edge14" class="edge"><title>Node7&#45;&gt;Node1</title>
<path fill="none" stroke="#9a32cd" stroke-dasharray="5,2" d="M57.7111,-120.52C90.2548,-97.7765 156.155,-58 219,-58 219,-58 219,-58 1105,-58 1211.82,-58 1323.01,-139.907 1358.44,-168.383"/>
<polygon fill="#9a32cd" stroke="#9a32cd" points="55.541,-117.769 49.4469,-126.436 59.6155,-123.461 55.541,-117.769"/>
<text text-anchor="middle" x="643" y="-61" font-family="Helvetica,sans-Serif" font-size="10.00"> myScene</text>
</g>
<!-- Node7&#45;&gt;Node6 -->
<g id="edge7" class="edge"><title>Node7&#45;&gt;Node6</title>
<path fill="none" stroke="#9a32cd" stroke-dasharray="5,2" d="M69.6498,-145.329C102.368,-154.676 152.488,-168.997 185.502,-178.429"/>
<polygon fill="#9a32cd" stroke="#9a32cd" points="70.2592,-141.863 59.6824,-142.481 68.3361,-148.593 70.2592,-141.863"/>
<text text-anchor="middle" x="115" y="-168" font-family="Helvetica,sans-Serif" font-size="10.00"> myScene</text>
</g>
<!-- Node8 -->
<g id="node8" class="node"><title>Node8</title>
<polygon fill="white" stroke="#bfbfbf" points="0,-281.5 0,-300.5 72,-300.5 72,-281.5 0,-281.5"/>
<text text-anchor="middle" x="36" y="-288.5" font-family="Helvetica,sans-Serif" font-size="10.00">BorderPane</text>
</g>
<!-- Node8&#45;&gt;Node1 -->
<g id="edge22" class="edge"><title>Node8&#45;&gt;Node1</title>
<path fill="none" stroke="#9a32cd" stroke-dasharray="5,2" d="M79.3955,-303.134C116.033,-312.546 170.568,-324 219,-324 219,-324 219,-324 1105,-324 1201.71,-324 1244.74,-366.166 1322,-308 1361.59,-278.19 1368.55,-212.178 1369.75,-187.529"/>
<polygon fill="#9a32cd" stroke="#9a32cd" points="80.118,-299.705 69.5565,-300.545 78.3365,-306.475 80.118,-299.705"/>
<text text-anchor="middle" x="643" y="-327" font-family="Helvetica,sans-Serif" font-size="10.00"> myBorderPane</text>
</g>
<!-- Node8&#45;&gt;Node6 -->
<g id="edge8" class="edge"><title>Node8&#45;&gt;Node6</title>
<path fill="none" stroke="#9a32cd" stroke-dasharray="5,2" d="M62.6695,-276.473C100.427,-255.104 169.923,-215.774 201.98,-197.632"/>
<polygon fill="#9a32cd" stroke="#9a32cd" points="60.775,-273.523 53.7959,-281.495 64.2227,-279.615 60.775,-273.523"/>
<text text-anchor="middle" x="115" y="-263" font-family="Helvetica,sans-Serif" font-size="10.00"> myPane</text>
</g>
<!-- Node9 -->
<g id="node9" class="node"><title>Node9</title>
<polygon fill="white" stroke="#bfbfbf" points="197.5,-136.5 197.5,-155.5 242.5,-155.5 242.5,-136.5 197.5,-136.5"/>
<text text-anchor="middle" x="220" y="-143.5" font-family="Helvetica,sans-Serif" font-size="10.00">Insets</text>
</g>
<!-- Node9&#45;&gt;Node5 -->
<g id="edge9" class="edge"><title>Node9&#45;&gt;Node5</title>
<path fill="none" stroke="#9a32cd" stroke-dasharray="5,2" d="M252.841,-146C285.957,-146 339.167,-146 384.262,-146"/>
<polygon fill="#9a32cd" stroke="#9a32cd" points="252.831,-142.5 242.831,-146 252.831,-149.5 252.831,-142.5"/>
<text text-anchor="middle" x="333" y="-149" font-family="Helvetica,sans-Serif" font-size="10.00"> TEXT_INSETS</text>
</g>
<!-- Node10 -->
<g id="node10" class="node"><title>Node10</title>
<polygon fill="white" stroke="#bfbfbf" points="749,-86.5 749,-105.5 867,-105.5 867,-86.5 749,-86.5"/>
<text text-anchor="middle" x="808" y="-93.5" font-family="Helvetica,sans-Serif" font-size="10.00">ChoiceBox&lt; String &gt;</text>
</g>
<!-- Node10&#45;&gt;Node3 -->
<g id="edge10" class="edge"><title>Node10&#45;&gt;Node3</title>
<path fill="none" stroke="#9a32cd" stroke-dasharray="5,2" d="M877.129,-104.636C913.222,-109.668 958.203,-116.666 998,-125 1022.56,-130.143 1049.94,-137.5 1070.58,-143.382"/>
<polygon fill="#9a32cd" stroke="#9a32cd" points="877.58,-101.165 867.196,-103.269 876.625,-108.1 877.58,-101.165"/>
<text text-anchor="middle" x="949" y="-128" font-family="Helvetica,sans-Serif" font-size="10.00"> langChoiceBox</text>
</g>
<!-- Node11 -->
<g id="node11" class="node"><title>Node11</title>
<polygon fill="white" stroke="#bfbfbf" points="766,-162.5 766,-181.5 850,-181.5 850,-162.5 766,-162.5"/>
<text text-anchor="middle" x="808" y="-169.5" font-family="Helvetica,sans-Serif" font-size="10.00">List&lt; String &gt;</text>
</g>
<!-- Node11&#45;&gt;Node3 -->
<g id="edge11" class="edge"><title>Node11&#45;&gt;Node3</title>
<path fill="none" stroke="#9a32cd" stroke-dasharray="5,2" d="M860.383,-168.679C903.241,-165.91 965.253,-161.902 1015.85,-158.632"/>
<polygon fill="#9a32cd" stroke="#9a32cd" points="859.942,-165.2 850.189,-169.338 860.394,-172.186 859.942,-165.2"/>
<text text-anchor="middle" x="949" y="-168" font-family="Helvetica,sans-Serif" font-size="10.00"> availableLanguages</text>
</g>
<!-- Node12&#45;&gt;Node1 -->
<g id="edge12" class="edge"><title>Node12&#45;&gt;Node1</title>
<path fill="none" stroke="#9a32cd" stroke-dasharray="5,2" d="M726.159,-208.536C854.032,-211.421 1108.2,-212.906 1322,-188 1328,-187.301 1334.37,-186.22 1340.43,-185.023"/>
<polygon fill="#9a32cd" stroke="#9a32cd" points="726.131,-205.034 716.051,-208.299 725.967,-212.032 726.131,-205.034"/>
<text text-anchor="middle" x="949" y="-212" font-family="Helvetica,sans-Serif" font-size="10.00"> myHelpBox</text>
</g>
<!-- Node13&#45;&gt;Node1 -->
<g id="edge15" class="edge"><title>Node13&#45;&gt;Node1</title>
<path fill="none" stroke="#9a32cd" stroke-dasharray="5,2" d="M1490.19,-129.281C1466.69,-132.038 1442.01,-136.844 1420,-145 1405.78,-150.27 1391.74,-160.694 1382.56,-168.423"/>
<polygon fill="#9a32cd" stroke="#9a32cd" points="1490.6,-132.757 1500.18,-128.221 1489.86,-125.796 1490.6,-132.757"/>
<text text-anchor="middle" x="1451" y="-148" font-family="Helvetica,sans-Serif" font-size="10.00"> myMenuBar</text>
</g>
<!-- Node14 -->
<g id="node14" class="node"><title>Node14</title>
<polygon fill="white" stroke="#bfbfbf" points="1341.5,-101.5 1341.5,-120.5 1400.5,-120.5 1400.5,-101.5 1341.5,-101.5"/>
<text text-anchor="middle" x="1371" y="-108.5" font-family="Helvetica,sans-Serif" font-size="10.00">MenuBar</text>
</g>
<!-- Node14&#45;&gt;Node13 -->
<g id="edge16" class="edge"><title>Node14&#45;&gt;Node13</title>
<path fill="none" stroke="midnightblue" d="M1410.69,-113.879C1435.64,-115.736 1469.12,-118.227 1500.2,-120.54"/>
<polygon fill="midnightblue" stroke="midnightblue" points="1410.78,-110.377 1400.55,-113.125 1410.26,-117.357 1410.78,-110.377"/>
</g>
<!-- Node15 -->
<g id="node15" class="node"><title>Node15</title>
<polygon fill="white" stroke="#bfbfbf" points="1083.5,-0.5 1083.5,-19.5 1124.5,-19.5 1124.5,-0.5 1083.5,-0.5"/>
<text text-anchor="middle" x="1104" y="-7.5" font-family="Helvetica,sans-Serif" font-size="10.00">Color</text>
</g>
<!-- Node15&#45;&gt;Node1 -->
<g id="edge21" class="edge"><title>Node15&#45;&gt;Node1</title>
<path fill="none" stroke="#9a32cd" stroke-dasharray="5,2" d="M1134.65,-11.1984C1190.85,-13.7483 1308.51,-20.5234 1322,-33 1354.19,-62.774 1324.1,-89.1367 1340,-130 1345.56,-144.287 1355.48,-158.986 1362.39,-168.289"/>
<polygon fill="#9a32cd" stroke="#9a32cd" points="1134.74,-7.69893 1124.59,-10.7576 1134.43,-14.6922 1134.74,-7.69893"/>
<text text-anchor="middle" x="1266" y="-36" font-family="Helvetica,sans-Serif" font-size="10.00"> BACKGROUND_COLOR</text>
</g>
<!-- Node15&#45;&gt;Node13 -->
<g id="edge18" class="edge"><title>Node15&#45;&gt;Node13</title>
<path fill="none" stroke="#9a32cd" stroke-dasharray="5,2" d="M1134.89,-6.77176C1177.12,-3.02888 1256.41,0.983504 1322,-13 1421.92,-34.3024 1530.87,-94.0452 1571.01,-117.437"/>
<polygon fill="#9a32cd" stroke="#9a32cd" points="1134.36,-3.30568 1124.74,-7.73102 1135.02,-10.2746 1134.36,-3.30568"/>
<text text-anchor="middle" x="1371" y="-40" font-family="Helvetica,sans-Serif" font-size="10.00"> BAR_COLOR</text>
</g>
<!-- Node16 -->
<g id="node16" class="node"><title>Node16</title>
<polygon fill="white" stroke="#bfbfbf" points="1076,-276.5 1076,-295.5 1132,-295.5 1132,-276.5 1076,-276.5"/>
<text text-anchor="middle" x="1104" y="-283.5" font-family="Helvetica,sans-Serif" font-size="10.00">TabPane</text>
</g>
<!-- Node16&#45;&gt;Node1 -->
<g id="edge20" class="edge"><title>Node16&#45;&gt;Node1</title>
<path fill="none" stroke="#9a32cd" stroke-dasharray="5,2" d="M1142.45,-291.531C1188.62,-296.319 1267.62,-297.7 1322,-262 1349.1,-244.21 1362.62,-205.501 1367.63,-187.526"/>
<polygon fill="#9a32cd" stroke="#9a32cd" points="1142.62,-288.027 1132.29,-290.366 1141.83,-294.982 1142.62,-288.027"/>
<text text-anchor="middle" x="1266" y="-296" font-family="Helvetica,sans-Serif" font-size="10.00"> myTabPane</text>
</g>
</g>
</svg>
        <g id="navigator" transform="translate(0 0)" fill="#404254">
                <rect fill="#f2f5e9" fill-opacity="0.5" stroke="#606060" stroke-width=".5" x="0" y="0" width="60" height="60"/>
                <use id="zoomplus" xlink:href="#zoomPlus" x="17" y="9" onmousedown="handleZoom(evt,'in')"/>
                <use id="zoomminus" xlink:href="#zoomMin" x="42" y="9" onmousedown="handleZoom(evt,'out')"/>
                <use id="reset" xlink:href="#resetDef" x="30" y="36" onmousedown="handleReset()"/>
                <g id="arrowUp" xlink:href="#dirArrow" transform="translate(30 24)" onmousedown="handlePan(0,-1)">
                  <use xlink:href="#rim" fill="#404040">
                        <set attributeName="fill" to="#808080" begin="arrowUp.mouseover" end="arrowUp.mouseout"/>
                  </use>
                  <path fill="none" stroke="white" stroke-width="1.5" d="M0,-3.0v7 M-2.5,-0.5L0,-3.0L2.5,-0.5"/>
                </g>
                <g id="arrowRight" xlink:href="#dirArrow" transform="rotate(90) translate(36 -43)" onmousedown="handlePan(1,0)">
                  <use xlink:href="#rim" fill="#404040">
                        <set attributeName="fill" to="#808080" begin="arrowRight.mouseover" end="arrowRight.mouseout"/>
                  </use>
                  <path fill="none" stroke="white" stroke-width="1.5" d="M0,-3.0v7 M-2.5,-0.5L0,-3.0L2.5,-0.5"/>
                </g>
                <g id="arrowDown" xlink:href="#dirArrow" transform="rotate(180) translate(-30 -48)" onmousedown="handlePan(0,1)">
                  <use xlink:href="#rim" fill="#404040">
                        <set attributeName="fill" to="#808080" begin="arrowDown.mouseover" end="arrowDown.mouseout"/>
                  </use>
                  <path fill="none" stroke="white" stroke-width="1.5" d="M0,-3.0v7 M-2.5,-0.5L0,-3.0L2.5,-0.5"/>
                </g>
                <g id="arrowLeft" xlink:href="#dirArrow" transform="rotate(270) translate(-36 17)" onmousedown="handlePan(-1,0)">
                  <use xlink:href="#rim" fill="#404040">
                        <set attributeName="fill" to="#808080" begin="arrowLeft.mouseover" end="arrowLeft.mouseout"/>
                  </use>
                  <path fill="none" stroke="white" stroke-width="1.5" d="M0,-3.0v7 M-2.5,-0.5L0,-3.0L2.5,-0.5"/>
                </g>
        </g>
        <svg viewBox="0 0 15 15" width="100%" height="30px" preserveAspectRatio="xMaxYMin meet">
         <g id="arrow_out" transform="scale(0.3 0.3)">
          <a xlink:href="classview_1_1_view__coll__graph_org.svg" target="_base">
           <rect id="button" ry="5" rx="5" y="6" x="6" height="38" width="38"
                fill="#f2f5e9" fill-opacity="0.5" stroke="#606060" stroke-width="1.0"/>
           <path id="arrow"
             d="M 11.500037,31.436501 C 11.940474,20.09759 22.043105,11.32322 32.158766,21.979434 L 37.068811,17.246167 C 37.068811,17.246167 37.088388,32 37.088388,32 L 22.160133,31.978069 C 22.160133,31.978069 26.997745,27.140456 26.997745,27.140456 C 18.528582,18.264221 13.291696,25.230495 11.500037,31.436501 z"
             style="fill:#404040;"/>
          </a>
         </g>
        </svg>
</svg>
