<?xml version="1.0" encoding="UTF-8" standalone="no"?>
<!DOCTYPE svg PUBLIC "-//W3C//DTD SVG 1.1//EN"
 "http://www.w3.org/Graphics/SVG/1.1/DTD/svg11.dtd">
<!-- Generated by graphviz version 2.36.0 (20140111.2315)
 -->
<!-- Title: model.ViewOptions Pages: 1 -->
<svg width="448pt" height="180pt"
 viewBox="0.00 0.00 448.00 180.00" xmlns="http://www.w3.org/2000/svg" xmlns:xlink="http://www.w3.org/1999/xlink">
<g id="graph0" class="graph" transform="scale(1 1) rotate(0) translate(4 176)">
<title>model.ViewOptions</title>
<polygon fill="white" stroke="none" points="-4,4 -4,-176 444,-176 444,4 -4,4"/>
<!-- Node1 -->
<g id="node1" class="node"><title>Node1</title>
<polygon fill="#bfbfbf" stroke="black" points="332,-76.5 332,-95.5 440,-95.5 440,-76.5 332,-76.5"/>
<text text-anchor="middle" x="386" y="-83.5" font-family="Helvetica,sans-Serif" font-size="10.00">model.ViewOptions</text>
</g>
<!-- Node2 -->
<g id="node2" class="node"><title>Node2</title>
<g id="a_node2"><a xlink:href="../../d7/d16/interfacemodel_1_1_view_update.html" target="_top" xlink:title="model.ViewUpdate">
<polygon fill="white" stroke="black" points="39.5,-152.5 39.5,-171.5 146.5,-171.5 146.5,-152.5 39.5,-152.5"/>
<text text-anchor="middle" x="93" y="-159.5" font-family="Helvetica,sans-Serif" font-size="10.00">model.ViewUpdate</text>
</a>
</g>
</g>
<!-- Node2&#45;&gt;Node1 -->
<g id="edge1" class="edge"><title>Node2&#45;&gt;Node1</title>
<path fill="none" stroke="midnightblue" d="M156.638,-154.429C201.261,-147.982 262.253,-137.012 314,-120 333.345,-113.64 354.223,-103.166 368.297,-95.5209"/>
<polygon fill="midnightblue" stroke="midnightblue" points="155.934,-150.993 146.52,-155.854 156.911,-157.925 155.934,-150.993"/>
</g>
<!-- Node3 -->
<g id="node3" class="node"><title>Node3</title>
<g id="a_node3"><a xlink:href="../../df/d1e/interfacemodel_1_1_view_initializer.html" target="_top" xlink:title="model.ViewInitializer">
<polygon fill="white" stroke="black" points="36.5,-114.5 36.5,-133.5 149.5,-133.5 149.5,-114.5 36.5,-114.5"/>
<text text-anchor="middle" x="93" y="-121.5" font-family="Helvetica,sans-Serif" font-size="10.00">model.ViewInitializer</text>
</a>
</g>
</g>
<!-- Node3&#45;&gt;Node1 -->
<g id="edge2" class="edge"><title>Node3&#45;&gt;Node1</title>
<path fill="none" stroke="midnightblue" d="M159.737,-118.32C203.561,-114.167 262.38,-107.89 314,-100 322.321,-98.7281 331.15,-97.1631 339.651,-95.5454"/>
<polygon fill="midnightblue" stroke="midnightblue" points="159.409,-114.835 149.779,-119.251 160.061,-121.805 159.409,-114.835"/>
</g>
<!-- Node4 -->
<g id="node4" class="node"><title>Node4</title>
<g id="a_node4"><a xlink:href="../../dc/ddc/interfacemodel_1_1_observable.html" target="_top" xlink:title="model.Observable">
<polygon fill="white" stroke="black" points="41,-76.5 41,-95.5 145,-95.5 145,-76.5 41,-76.5"/>
<text text-anchor="middle" x="93" y="-83.5" font-family="Helvetica,sans-Serif" font-size="10.00">model.Observable</text>
</a>
</g>
</g>
<!-- Node4&#45;&gt;Node1 -->
<g id="edge3" class="edge"><title>Node4&#45;&gt;Node1</title>
<path fill="none" stroke="midnightblue" d="M155.155,-86C207.367,-86 281.712,-86 331.573,-86"/>
<polygon fill="midnightblue" stroke="midnightblue" points="155.021,-82.5001 145.021,-86 155.021,-89.5001 155.021,-82.5001"/>
</g>
<!-- Node5 -->
<g id="node5" class="node"><title>Node5</title>
<polygon fill="white" stroke="#bfbfbf" points="47.5,-38.5 47.5,-57.5 138.5,-57.5 138.5,-38.5 47.5,-38.5"/>
<text text-anchor="middle" x="93" y="-45.5" font-family="Helvetica,sans-Serif" font-size="10.00">IntegerProperty</text>
</g>
<!-- Node5&#45;&gt;Node1 -->
<g id="edge4" class="edge"><title>Node5&#45;&gt;Node1</title>
<path fill="none" stroke="#9a32cd" stroke-dasharray="5,2" d="M148.896,-52.1434C193.527,-55.895 258.042,-62.1883 314,-71 323.583,-72.509 333.824,-74.4673 343.461,-76.468"/>
<polygon fill="#9a32cd" stroke="#9a32cd" points="149.095,-48.6481 138.841,-51.313 148.519,-55.6244 149.095,-48.6481"/>
<text text-anchor="middle" x="259" y="-74" font-family="Helvetica,sans-Serif" font-size="10.00"> backgroundIDProperty</text>
</g>
<!-- Node6 -->
<g id="node6" class="node"><title>Node6</title>
<polygon fill="white" stroke="#bfbfbf" points="0.5,-0.5 0.5,-19.5 185.5,-19.5 185.5,-0.5 0.5,-0.5"/>
<text text-anchor="middle" x="93" y="-7.5" font-family="Helvetica,sans-Serif" font-size="10.00">List&lt; view.components.Observer &gt;</text>
</g>
<!-- Node6&#45;&gt;Node1 -->
<g id="edge5" class="edge"><title>Node6&#45;&gt;Node1</title>
<path fill="none" stroke="#9a32cd" stroke-dasharray="5,2" d="M195.748,-16.0303C233.707,-20.5365 276.635,-28.3771 314,-42 336.344,-50.1464 359.198,-65.9128 372.739,-76.1929"/>
<polygon fill="#9a32cd" stroke="#9a32cd" points="196.026,-12.5397 185.698,-14.9004 195.244,-19.4959 196.026,-12.5397"/>
<text text-anchor="middle" x="259" y="-45" font-family="Helvetica,sans-Serif" font-size="10.00"> myObservers</text>
</g>
</g>
</svg>
