<?xml version="1.0" encoding="UTF-8" standalone="no"?>
<!DOCTYPE svg PUBLIC "-//W3C//DTD SVG 1.1//EN"
 "http://www.w3.org/Graphics/SVG/1.1/DTD/svg11.dtd">
<!-- Generated by graphviz version 2.36.0 (20140111.2315)
 -->
<!-- Title: model.ViewOptions Pages: 1 -->
<svg width="368pt" height="84pt"
 viewBox="0.00 0.00 368.00 84.00" xmlns="http://www.w3.org/2000/svg" xmlns:xlink="http://www.w3.org/1999/xlink">
<g id="graph0" class="graph" transform="scale(1 1) rotate(0) translate(4 80)">
<title>model.ViewOptions</title>
<polygon fill="white" stroke="none" points="-4,4 -4,-80 364,-80 364,4 -4,4"/>
<!-- Node1 -->
<g id="node1" class="node"><title>Node1</title>
<polygon fill="#bfbfbf" stroke="black" points="127,-0.5 127,-19.5 235,-19.5 235,-0.5 127,-0.5"/>
<text text-anchor="middle" x="181" y="-7.5" font-family="Helvetica,sans-Serif" font-size="10.00">model.ViewOptions</text>
</g>
<!-- Node2 -->
<g id="node2" class="node"><title>Node2</title>
<g id="a_node2"><a xlink:href="../../d7/d16/interfacemodel_1_1_view_update.html" target="_top" xlink:title="model.ViewUpdate">
<polygon fill="white" stroke="black" points="-0.5,-56.5 -0.5,-75.5 106.5,-75.5 106.5,-56.5 -0.5,-56.5"/>
<text text-anchor="middle" x="53" y="-63.5" font-family="Helvetica,sans-Serif" font-size="10.00">model.ViewUpdate</text>
</a>
</g>
</g>
<!-- Node2&#45;&gt;Node1 -->
<g id="edge1" class="edge"><title>Node2&#45;&gt;Node1</title>
<path fill="none" stroke="midnightblue" d="M82.6226,-52.503C106.619,-42.3795 139.784,-28.388 160.813,-19.5164"/>
<polygon fill="midnightblue" stroke="midnightblue" points="81.1352,-49.3317 73.282,-56.4435 83.8561,-55.7813 81.1352,-49.3317"/>
</g>
<!-- Node3 -->
<g id="node3" class="node"><title>Node3</title>
<g id="a_node3"><a xlink:href="../../df/d1e/interfacemodel_1_1_view_initializer.html" target="_top" xlink:title="model.ViewInitializer">
<polygon fill="white" stroke="black" points="124.5,-56.5 124.5,-75.5 237.5,-75.5 237.5,-56.5 124.5,-56.5"/>
<text text-anchor="middle" x="181" y="-63.5" font-family="Helvetica,sans-Serif" font-size="10.00">model.ViewInitializer</text>
</a>
</g>
</g>
<!-- Node3&#45;&gt;Node1 -->
<g id="edge2" class="edge"><title>Node3&#45;&gt;Node1</title>
<path fill="none" stroke="midnightblue" d="M181,-45.8045C181,-36.9102 181,-26.7798 181,-19.7511"/>
<polygon fill="midnightblue" stroke="midnightblue" points="177.5,-46.083 181,-56.083 184.5,-46.083 177.5,-46.083"/>
</g>
<!-- Node4 -->
<g id="node4" class="node"><title>Node4</title>
<g id="a_node4"><a xlink:href="../../dc/ddc/interfacemodel_1_1_observable.html" target="_top" xlink:title="model.Observable">
<polygon fill="white" stroke="black" points="256,-56.5 256,-75.5 360,-75.5 360,-56.5 256,-56.5"/>
<text text-anchor="middle" x="308" y="-63.5" font-family="Helvetica,sans-Serif" font-size="10.00">model.Observable</text>
</a>
</g>
</g>
<!-- Node4&#45;&gt;Node1 -->
<g id="edge3" class="edge"><title>Node4&#45;&gt;Node1</title>
<path fill="none" stroke="midnightblue" d="M278.609,-52.503C254.8,-42.3795 221.894,-28.388 201.029,-19.5164"/>
<polygon fill="midnightblue" stroke="midnightblue" points="277.304,-55.7515 287.876,-56.4435 280.043,-49.3096 277.304,-55.7515"/>
</g>
</g>
</svg>
