<?xml version="1.0" encoding="UTF-8" standalone="no"?>
<!DOCTYPE svg PUBLIC "-//W3C//DTD SVG 1.1//EN"
 "http://www.w3.org/Graphics/SVG/1.1/DTD/svg11.dtd">
<!-- Generated by graphviz version 2.36.0 (20140111.2315)
 -->
<!-- Title: model.IVariablesCollection Pages: 1 -->
<svg width="342pt" height="140pt"
 viewBox="0.00 0.00 342.00 140.00" xmlns="http://www.w3.org/2000/svg" xmlns:xlink="http://www.w3.org/1999/xlink">
<g id="graph0" class="graph" transform="scale(1 1) rotate(0) translate(4 136)">
<title>model.IVariablesCollection</title>
<polygon fill="white" stroke="none" points="-4,4 -4,-136 338,-136 338,4 -4,4"/>
<!-- Node1 -->
<g id="node1" class="node"><title>Node1</title>
<polygon fill="#bfbfbf" stroke="black" points="105,-56.5 105,-75.5 247,-75.5 247,-56.5 105,-56.5"/>
<text text-anchor="middle" x="176" y="-63.5" font-family="Helvetica,sans-Serif" font-size="10.00">model.IVariablesCollection</text>
</g>
<!-- Node3 -->
<g id="node3" class="node"><title>Node3</title>
<g id="a_node3"><a xlink:href="../../d1/dfc/classmodel_1_1_scoped_variables_collection.html" target="_top" xlink:title="model.ScopedVariablesCollection">
<polygon fill="white" stroke="black" points="0,-0.5 0,-19.5 176,-19.5 176,-0.5 0,-0.5"/>
<text text-anchor="middle" x="88" y="-7.5" font-family="Helvetica,sans-Serif" font-size="10.00">model.ScopedVariablesCollection</text>
</a>
</g>
</g>
<!-- Node1&#45;&gt;Node3 -->
<g id="edge2" class="edge"><title>Node1&#45;&gt;Node3</title>
<path fill="none" stroke="midnightblue" d="M153.023,-50.9005C136.887,-40.9986 115.819,-28.0705 102.104,-19.6545"/>
<polygon fill="midnightblue" stroke="midnightblue" points="151.507,-54.0769 161.861,-56.324 155.169,-48.1106 151.507,-54.0769"/>
</g>
<!-- Node4 -->
<g id="node4" class="node"><title>Node4</title>
<g id="a_node4"><a xlink:href="../../d6/d00/classmodel_1_1_variables_collection.html" target="_top" xlink:title="model.VariablesCollection">
<polygon fill="white" stroke="black" points="194,-0.5 194,-19.5 334,-19.5 334,-0.5 194,-0.5"/>
<text text-anchor="middle" x="264" y="-7.5" font-family="Helvetica,sans-Serif" font-size="10.00">model.VariablesCollection</text>
</a>
</g>
</g>
<!-- Node1&#45;&gt;Node4 -->
<g id="edge3" class="edge"><title>Node1&#45;&gt;Node4</title>
<path fill="none" stroke="midnightblue" d="M198.977,-50.9005C215.113,-40.9986 236.181,-28.0705 249.896,-19.6545"/>
<polygon fill="midnightblue" stroke="midnightblue" points="196.831,-48.1106 190.139,-56.324 200.493,-54.0769 196.831,-48.1106"/>
</g>
<!-- Node2 -->
<g id="node2" class="node"><title>Node2</title>
<g id="a_node2"><a xlink:href="../../dc/ddc/interfacemodel_1_1_observable.html" target="_top" xlink:title="model.Observable">
<polygon fill="white" stroke="black" points="124,-112.5 124,-131.5 228,-131.5 228,-112.5 124,-112.5"/>
<text text-anchor="middle" x="176" y="-119.5" font-family="Helvetica,sans-Serif" font-size="10.00">model.Observable</text>
</a>
</g>
</g>
<!-- Node2&#45;&gt;Node1 -->
<g id="edge1" class="edge"><title>Node2&#45;&gt;Node1</title>
<path fill="none" stroke="midnightblue" d="M176,-101.805C176,-92.9102 176,-82.7798 176,-75.7511"/>
<polygon fill="midnightblue" stroke="midnightblue" points="172.5,-102.083 176,-112.083 179.5,-102.083 172.5,-102.083"/>
</g>
</g>
</svg>
