<?xml version="1.0" encoding="UTF-8" standalone="no"?>
<!DOCTYPE svg PUBLIC "-//W3C//DTD SVG 1.1//EN"
 "http://www.w3.org/Graphics/SVG/1.1/DTD/svg11.dtd">
<!-- Generated by graphviz version 2.36.0 (20140111.2315)
 -->
<!-- Title: view.dialogs.MessageDialogBox Pages: 1 -->
<svg width="261pt" height="164pt"
 viewBox="0.00 0.00 261.00 164.00" xmlns="http://www.w3.org/2000/svg" xmlns:xlink="http://www.w3.org/1999/xlink">
<g id="graph0" class="graph" transform="scale(1 1) rotate(0) translate(4 160)">
<title>view.dialogs.MessageDialogBox</title>
<polygon fill="white" stroke="none" points="-4,4 -4,-160 257,-160 257,4 -4,4"/>
<!-- Node1 -->
<g id="node1" class="node"><title>Node1</title>
<polygon fill="#bfbfbf" stroke="black" points="85.5,-0.5 85.5,-19.5 252.5,-19.5 252.5,-0.5 85.5,-0.5"/>
<text text-anchor="middle" x="169" y="-7.5" font-family="Helvetica,sans-Serif" font-size="10.00">view.dialogs.MessageDialogBox</text>
</g>
<!-- Node2 -->
<g id="node2" class="node"><title>Node2</title>
<g id="a_node2"><a xlink:href="../../d2/d9f/classview_1_1dialogs_1_1_dialog_box.html" target="_top" xlink:title="view.dialogs.DialogBox">
<polygon fill="white" stroke="black" points="30,-68.5 30,-87.5 154,-87.5 154,-68.5 30,-68.5"/>
<text text-anchor="middle" x="92" y="-75.5" font-family="Helvetica,sans-Serif" font-size="10.00">view.dialogs.DialogBox</text>
</a>
</g>
</g>
<!-- Node2&#45;&gt;Node1 -->
<g id="edge1" class="edge"><title>Node2&#45;&gt;Node1</title>
<path fill="none" stroke="midnightblue" d="M109.763,-61.7744C124.919,-48.7837 146.186,-30.5551 158.685,-19.8411"/>
<polygon fill="midnightblue" stroke="midnightblue" points="107.381,-59.2063 102.066,-68.3717 111.937,-64.5211 107.381,-59.2063"/>
</g>
<!-- Node3 -->
<g id="node3" class="node"><title>Node3</title>
<polygon fill="white" stroke="#bfbfbf" points="-0.5,-136.5 -0.5,-155.5 44.5,-155.5 44.5,-136.5 -0.5,-136.5"/>
<text text-anchor="middle" x="22" y="-143.5" font-family="Helvetica,sans-Serif" font-size="10.00">Stage</text>
</g>
<!-- Node3&#45;&gt;Node2 -->
<g id="edge2" class="edge"><title>Node3&#45;&gt;Node2</title>
<path fill="none" stroke="#9a32cd" stroke-dasharray="5,2" d="M28.0812,-126.731C31.1201,-119.63 35.3718,-111.82 41,-106 48.6607,-98.0778 59.1541,-91.9787 68.6316,-87.5987"/>
<polygon fill="#9a32cd" stroke="#9a32cd" points="24.7211,-125.723 24.4777,-136.315 31.2733,-128.186 24.7211,-125.723"/>
<text text-anchor="middle" x="64.5" y="-109.5" font-family="Helvetica,sans-Serif" font-size="10.00"> myStage</text>
</g>
<!-- Node4 -->
<g id="node4" class="node"><title>Node4</title>
<polygon fill="white" stroke="#bfbfbf" points="68.5,-136.5 68.5,-155.5 115.5,-155.5 115.5,-136.5 68.5,-136.5"/>
<text text-anchor="middle" x="92" y="-143.5" font-family="Helvetica,sans-Serif" font-size="10.00">Scene</text>
</g>
<!-- Node4&#45;&gt;Node2 -->
<g id="edge3" class="edge"><title>Node4&#45;&gt;Node2</title>
<path fill="none" stroke="#9a32cd" stroke-dasharray="5,2" d="M92,-126.041C92,-113.472 92,-97.5631 92,-87.8411"/>
<polygon fill="#9a32cd" stroke="#9a32cd" points="88.5001,-126.372 92,-136.372 95.5001,-126.372 88.5001,-126.372"/>
<text text-anchor="middle" x="116.5" y="-109.5" font-family="Helvetica,sans-Serif" font-size="10.00"> myScene</text>
</g>
<!-- Node5 -->
<g id="node5" class="node"><title>Node5</title>
<polygon fill="white" stroke="#bfbfbf" points="134,-136.5 134,-155.5 206,-155.5 206,-136.5 134,-136.5"/>
<text text-anchor="middle" x="170" y="-143.5" font-family="Helvetica,sans-Serif" font-size="10.00">BorderPane</text>
</g>
<!-- Node5&#45;&gt;Node2 -->
<g id="edge4" class="edge"><title>Node5&#45;&gt;Node2</title>
<path fill="none" stroke="#9a32cd" stroke-dasharray="5,2" d="M161.279,-127.209C157.095,-119.975 151.557,-111.939 145,-106 136.351,-98.1666 125.011,-91.9879 115.041,-87.5295"/>
<polygon fill="#9a32cd" stroke="#9a32cd" points="158.329,-129.117 166.114,-136.304 164.511,-125.832 158.329,-129.117"/>
<text text-anchor="middle" x="176" y="-109.5" font-family="Helvetica,sans-Serif" font-size="10.00"> myPane</text>
</g>
<!-- Node6 -->
<g id="node6" class="node"><title>Node6</title>
<polygon fill="white" stroke="#bfbfbf" points="172.5,-68.5 172.5,-87.5 217.5,-87.5 217.5,-68.5 172.5,-68.5"/>
<text text-anchor="middle" x="195" y="-75.5" font-family="Helvetica,sans-Serif" font-size="10.00">Insets</text>
</g>
<!-- Node6&#45;&gt;Node1 -->
<g id="edge5" class="edge"><title>Node6&#45;&gt;Node1</title>
<path fill="none" stroke="#9a32cd" stroke-dasharray="5,2" d="M187.833,-58.8066C182.837,-46.1244 176.391,-29.7615 172.483,-19.8411"/>
<polygon fill="#9a32cd" stroke="#9a32cd" points="184.679,-60.3504 191.601,-68.3717 191.192,-57.7847 184.679,-60.3504"/>
<text text-anchor="middle" x="218" y="-41.5" font-family="Helvetica,sans-Serif" font-size="10.00"> TEXT_INSETS</text>
</g>
</g>
</svg>
