<?xml version="1.0" encoding="UTF-8" standalone="no"?>
<!DOCTYPE svg PUBLIC "-//W3C//DTD SVG 1.1//EN"
 "http://www.w3.org/Graphics/SVG/1.1/DTD/svg11.dtd">
<!-- Generated by graphviz version 2.36.0 (20140111.2315)
 -->
<!-- Title: view.turtle.TurtleImage Pages: 1 -->
<!--zoomable 441 -->
<svg id="main" version="1.1" xmlns="http://www.w3.org/2000/svg" xmlns:xlink="http://www.w3.org/1999/xlink" xml:space="preserve" onload="init(evt)">
<style type="text/css"><![CDATA[
.edge:hover path { stroke: red; }
.edge:hover polygon { stroke: red; fill: red; }
]]></style>
<script type="text/javascript"><![CDATA[
var edges = document.getElementsByTagName('g');
if (edges && edges.length) {
  for (var i=0;i<edges.length;i++) {
    if (edges[i].id.substr(0,4)=='edge') {
      edges[i].setAttribute('class','edge');
    }
  }
}
]]></script>
        <defs>
                <circle id="rim" cx="0" cy="0" r="7"/>
                <circle id="rim2" cx="0" cy="0" r="3.5"/>
                <g id="zoomPlus">
                        <use xlink:href="#rim" fill="#404040">
                                <set attributeName="fill" to="#808080" begin="zoomplus.mouseover" end="zoomplus.mouseout"/>
                        </use>
                        <path d="M-4,0h8M0,-4v8" fill="none" stroke="white" stroke-width="1.5" pointer-events="none"/>
                </g>
                <g id="zoomMin">
                        <use xlink:href="#rim" fill="#404040">
                                <set attributeName="fill" to="#808080" begin="zoomminus.mouseover" end="zoomminus.mouseout"/>
                        </use>
                        <path d="M-4,0h8" fill="none" stroke="white" stroke-width="1.5" pointer-events="none"/>
                </g>
                <g id="dirArrow">
                        <path fill="none" stroke="white" stroke-width="1.5" d="M0,-3.0v7 M-2.5,-0.5L0,-3.0L2.5,-0.5"/>
                </g>
               <g id="resetDef">
                       <use xlink:href="#rim2" fill="#404040">
                               <set attributeName="fill" to="#808080" begin="reset.mouseover" end="reset.mouseout"/>
                       </use>
               </g>
        </defs>

<script type="text/javascript">
var viewWidth = 682;
var viewHeight = 441;
var sectionId = 'dynsection-1';
</script>
<script xlink:href="../../svgpan.js"/>
<svg id="graph" class="graph">
<g id="viewport">
<title>view.turtle.TurtleImage</title>
<polygon fill="white" stroke="none" points="-4,4 -4,-437.115 678,-437.115 678,4 -4,4"/>
<!-- Node1 -->
<g id="node1" class="node"><title>Node1</title>
<polygon fill="#bfbfbf" stroke="black" points="550.5,-201.615 550.5,-220.615 673.5,-220.615 673.5,-201.615 550.5,-201.615"/>
<text text-anchor="middle" x="612" y="-208.615" font-family="Helvetica,sans-Serif" font-size="10.00">view.turtle.TurtleImage</text>
</g>
<!-- Node2 -->
<g id="node2" class="node"><title>Node2</title>
<polygon fill="white" stroke="#bfbfbf" points="322,-367.615 322,-386.615 390,-386.615 390,-367.615 322,-367.615"/>
<text text-anchor="middle" x="356" y="-374.615" font-family="Helvetica,sans-Serif" font-size="10.00">ImageView</text>
</g>
<!-- Node2&#45;&gt;Node1 -->
<g id="edge1" class="edge"><title>Node2&#45;&gt;Node1</title>
<path fill="none" stroke="midnightblue" d="M400.306,-380.161C438.253,-380.661 493.247,-375.899 532,-349.115 579.01,-316.624 601.648,-246.449 608.592,-220.776"/>
<polygon fill="midnightblue" stroke="midnightblue" points="400.17,-376.657 390.082,-379.895 399.988,-383.654 400.17,-376.657"/>
</g>
<!-- Node3 -->
<g id="node3" class="node"><title>Node3</title>
<polygon fill="white" stroke="#bfbfbf" points="316,-329.615 316,-348.615 396,-348.615 396,-329.615 316,-329.615"/>
<text text-anchor="middle" x="356" y="-336.615" font-family="Helvetica,sans-Serif" font-size="10.00">ContextMenu</text>
</g>
<!-- Node3&#45;&gt;Node1 -->
<g id="edge2" class="edge"><title>Node3&#45;&gt;Node1</title>
<path fill="none" stroke="#9a32cd" stroke-dasharray="5,2" d="M406.171,-338.653C443.076,-336.304 493.635,-328.683 532,-306.115 568.238,-284.797 595.295,-240.435 605.987,-220.811"/>
<polygon fill="#9a32cd" stroke="#9a32cd" points="405.947,-335.16 396.146,-339.183 406.317,-342.15 405.947,-335.16"/>
<text text-anchor="middle" x="491" y="-337.115" font-family="Helvetica,sans-Serif" font-size="10.00"> contextMenu</text>
</g>
<!-- Node4 -->
<g id="node4" class="node"><title>Node4</title>
<g id="a_node4"><a xlink:href="../../d5/d46/classview_1_1components_1_1_palette.html" target="_top" xlink:title="view.components.Palette">
<polygon fill="white" stroke="black" points="288.5,-291.615 288.5,-310.615 423.5,-310.615 423.5,-291.615 288.5,-291.615"/>
<text text-anchor="middle" x="356" y="-298.615" font-family="Helvetica,sans-Serif" font-size="10.00">view.components.Palette</text>
</a>
</g>
</g>
<!-- Node4&#45;&gt;Node1 -->
<g id="edge3" class="edge"><title>Node4&#45;&gt;Node1</title>
<path fill="none" stroke="#9a32cd" stroke-dasharray="5,2" d="M433.834,-294.03C465.192,-289.266 501.24,-281.327 532,-268.115 559.35,-256.367 586.434,-233.831 600.69,-220.893"/>
<polygon fill="#9a32cd" stroke="#9a32cd" points="433.23,-290.58 423.83,-295.467 434.226,-297.509 433.23,-290.58"/>
<text text-anchor="middle" x="491" y="-294.115" font-family="Helvetica,sans-Serif" font-size="10.00"> myPalette</text>
</g>
<!-- Node5 -->
<g id="node5" class="node"><title>Node5</title>
<polygon fill="white" stroke="#bfbfbf" points="0.5,-403.115 0.5,-433.115 155.5,-433.115 155.5,-403.115 0.5,-403.115"/>
<text text-anchor="start" x="8.5" y="-421.115" font-family="Helvetica,sans-Serif" font-size="10.00">ArrayList&lt; view.components.</text>
<text text-anchor="middle" x="78" y="-410.115" font-family="Helvetica,sans-Serif" font-size="10.00">ImageIndex &gt;</text>
</g>
<!-- Node5&#45;&gt;Node4 -->
<g id="edge4" class="edge"><title>Node5&#45;&gt;Node4</title>
<path fill="none" stroke="#9a32cd" stroke-dasharray="5,2" d="M166.231,-414.238C199.735,-408.607 236.107,-396.864 262,-373.115 280.333,-356.299 261.726,-336.994 280,-320.115 284.144,-316.287 288.947,-313.203 294.081,-310.723"/>
<polygon fill="#9a32cd" stroke="#9a32cd" points="165.304,-410.838 155.94,-415.795 166.352,-417.759 165.304,-410.838"/>
<text text-anchor="middle" x="218" y="-415.115" font-family="Helvetica,sans-Serif" font-size="10.00"> myImagePalettes</text>
</g>
<!-- Node6 -->
<g id="node6" class="node"><title>Node6</title>
<polygon fill="white" stroke="#bfbfbf" points="0.5,-354.115 0.5,-384.115 155.5,-384.115 155.5,-354.115 0.5,-354.115"/>
<text text-anchor="start" x="8.5" y="-372.115" font-family="Helvetica,sans-Serif" font-size="10.00">ArrayList&lt; view.components.</text>
<text text-anchor="middle" x="78" y="-361.115" font-family="Helvetica,sans-Serif" font-size="10.00">ColorIndex &gt;</text>
</g>
<!-- Node6&#45;&gt;Node4 -->
<g id="edge5" class="edge"><title>Node6&#45;&gt;Node4</title>
<path fill="none" stroke="#9a32cd" stroke-dasharray="5,2" d="M165.715,-358.671C196.862,-353.094 231.749,-344.682 262,-332.115 270.879,-328.426 271.213,-324.018 280,-320.115 288.47,-316.352 297.823,-313.237 306.967,-310.695"/>
<polygon fill="#9a32cd" stroke="#9a32cd" points="165.007,-355.242 155.744,-360.385 166.192,-362.141 165.007,-355.242"/>
<text text-anchor="middle" x="218" y="-361.115" font-family="Helvetica,sans-Serif" font-size="10.00"> myColorPalettes</text>
</g>
<!-- Node7 -->
<g id="node7" class="node"><title>Node7</title>
<g id="a_node7"><a xlink:href="../../d4/d93/classview_1_1turtle_1_1_turtle_pen.html" target="_top" xlink:title="view.turtle.TurtlePen">
<polygon fill="white" stroke="black" points="300.5,-253.615 300.5,-272.615 411.5,-272.615 411.5,-253.615 300.5,-253.615"/>
<text text-anchor="middle" x="356" y="-260.615" font-family="Helvetica,sans-Serif" font-size="10.00">view.turtle.TurtlePen</text>
</a>
</g>
</g>
<!-- Node7&#45;&gt;Node1 -->
<g id="edge6" class="edge"><title>Node7&#45;&gt;Node1</title>
<path fill="none" stroke="#9a32cd" stroke-dasharray="5,2" d="M421.933,-256.776C455.138,-252.796 496.03,-246.75 532,-238.115 550.745,-233.615 571.336,-226.503 586.795,-220.707"/>
<polygon fill="#9a32cd" stroke="#9a32cd" points="421.416,-253.312 411.888,-257.946 422.226,-260.265 421.416,-253.312"/>
<text text-anchor="middle" x="491" y="-256.115" font-family="Helvetica,sans-Serif" font-size="10.00"> myPen</text>
</g>
<!-- Node8 -->
<g id="node8" class="node"><title>Node8</title>
<polygon fill="white" stroke="#bfbfbf" points="32.5,-315.615 32.5,-334.615 123.5,-334.615 123.5,-315.615 32.5,-315.615"/>
<text text-anchor="middle" x="78" y="-322.615" font-family="Helvetica,sans-Serif" font-size="10.00">DoubleProperty</text>
</g>
<!-- Node8&#45;&gt;Node7 -->
<g id="edge7" class="edge"><title>Node8&#45;&gt;Node7</title>
<path fill="none" stroke="#9a32cd" stroke-dasharray="5,2" d="M133.807,-321.851C171.034,-318.2 220.799,-310.471 262,-294.115 270.936,-290.567 271.213,-286.018 280,-282.115 288.47,-278.352 297.823,-275.237 306.967,-272.695"/>
<polygon fill="#9a32cd" stroke="#9a32cd" points="133.298,-318.383 123.657,-322.776 133.934,-325.354 133.298,-318.383"/>
<text text-anchor="middle" x="218" y="-320.115" font-family="Helvetica,sans-Serif" font-size="10.00"> penSize</text>
</g>
<!-- Node9 -->
<g id="node9" class="node"><title>Node9</title>
<polygon fill="white" stroke="#bfbfbf" points="32.5,-277.615 32.5,-296.615 123.5,-296.615 123.5,-277.615 32.5,-277.615"/>
<text text-anchor="middle" x="78" y="-284.615" font-family="Helvetica,sans-Serif" font-size="10.00">IntegerProperty</text>
</g>
<!-- Node9&#45;&gt;Node7 -->
<g id="edge8" class="edge"><title>Node9&#45;&gt;Node7</title>
<path fill="none" stroke="#9a32cd" stroke-dasharray="5,2" d="M133.618,-282.365C181.955,-278.162 252.125,-272.06 300.443,-267.859"/>
<polygon fill="#9a32cd" stroke="#9a32cd" points="133.31,-278.879 123.651,-283.232 133.917,-285.852 133.31,-278.879"/>
<text text-anchor="middle" x="218" y="-282.115" font-family="Helvetica,sans-Serif" font-size="10.00"> penColorIndex</text>
</g>
<!-- Node10 -->
<g id="node10" class="node"><title>Node10</title>
<polygon fill="white" stroke="#bfbfbf" points="30,-226.615 30,-245.615 126,-245.615 126,-226.615 30,-226.615"/>
<text text-anchor="middle" x="78" y="-233.615" font-family="Helvetica,sans-Serif" font-size="10.00">GraphicsContext</text>
</g>
<!-- Node10&#45;&gt;Node1 -->
<g id="edge10" class="edge"><title>Node10&#45;&gt;Node1</title>
<path fill="none" stroke="#9a32cd" stroke-dasharray="5,2" d="M136.237,-233.425C237.345,-228.674 446.637,-218.838 550.216,-213.971"/>
<polygon fill="#9a32cd" stroke="#9a32cd" points="136.036,-229.93 126.211,-233.896 136.365,-236.923 136.036,-229.93"/>
<text text-anchor="middle" x="356" y="-230.115" font-family="Helvetica,sans-Serif" font-size="10.00"> gc</text>
</g>
<!-- Node10&#45;&gt;Node7 -->
<g id="edge9" class="edge"><title>Node10&#45;&gt;Node7</title>
<path fill="none" stroke="#9a32cd" stroke-dasharray="5,2" d="M136.103,-241.701C184.348,-246.42 252.983,-253.135 300.48,-257.781"/>
<polygon fill="#9a32cd" stroke="#9a32cd" points="136.426,-238.216 126.132,-240.725 135.744,-245.182 136.426,-238.216"/>
<text text-anchor="middle" x="218" y="-257.115" font-family="Helvetica,sans-Serif" font-size="10.00"> gc</text>
</g>
<!-- Node11 -->
<g id="node11" class="node"><title>Node11</title>
<polygon fill="white" stroke="#bfbfbf" points="280.5,-157.115 280.5,-187.115 431.5,-187.115 431.5,-157.115 280.5,-157.115"/>
<text text-anchor="start" x="288.5" y="-175.115" font-family="Helvetica,sans-Serif" font-size="10.00">PriorityQueue&lt; model.Turtle</text>
<text text-anchor="middle" x="356" y="-164.115" font-family="Helvetica,sans-Serif" font-size="10.00">Update &gt;</text>
</g>
<!-- Node11&#45;&gt;Node1 -->
<g id="edge11" class="edge"><title>Node11&#45;&gt;Node1</title>
<path fill="none" stroke="#9a32cd" stroke-dasharray="5,2" d="M441.722,-185.123C477.286,-190.584 517.844,-196.811 550.342,-201.801"/>
<polygon fill="#9a32cd" stroke="#9a32cd" points="442.25,-181.663 431.835,-183.605 441.188,-188.582 442.25,-181.663"/>
<text text-anchor="middle" x="491" y="-202.115" font-family="Helvetica,sans-Serif" font-size="10.00"> pendingUpdates</text>
</g>
<!-- Node12 -->
<g id="node12" class="node"><title>Node12</title>
<polygon fill="white" stroke="#bfbfbf" points="334.5,-118.615 334.5,-137.615 377.5,-137.615 377.5,-118.615 334.5,-118.615"/>
<text text-anchor="middle" x="356" y="-125.615" font-family="Helvetica,sans-Serif" font-size="10.00">Menu</text>
</g>
<!-- Node12&#45;&gt;Node1 -->
<g id="edge12" class="edge"><title>Node12&#45;&gt;Node1</title>
<path fill="none" stroke="#9a32cd" stroke-dasharray="5,2" d="M387.908,-130.403C423.657,-133.846 483.773,-142.113 532,-161.115 557.824,-171.289 584.397,-190.18 599.196,-201.603"/>
<polygon fill="#9a32cd" stroke="#9a32cd" points="387.909,-126.89 377.636,-129.483 387.284,-133.862 387.909,-126.89"/>
<text text-anchor="middle" x="491" y="-175.115" font-family="Helvetica,sans-Serif" font-size="10.00"> lineWidth</text>
<text text-anchor="middle" x="491" y="-164.115" font-family="Helvetica,sans-Serif" font-size="10.00">lineStyle</text>
</g>
<!-- Node13 -->
<g id="node13" class="node"><title>Node13</title>
<polygon fill="white" stroke="#bfbfbf" points="323.5,-78.6146 323.5,-97.6146 388.5,-97.6146 388.5,-78.6146 323.5,-78.6146"/>
<text text-anchor="middle" x="356" y="-85.6146" font-family="Helvetica,sans-Serif" font-size="10.00">MenuItem</text>
</g>
<!-- Node13&#45;&gt;Node1 -->
<g id="edge13" class="edge"><title>Node13&#45;&gt;Node1</title>
<path fill="none" stroke="#9a32cd" stroke-dasharray="5,2" d="M398.673,-78.7558C435.997,-72.6641 491.009,-69.5187 532,-92.1146 576.302,-116.536 600.164,-177.602 608.029,-201.402"/>
<polygon fill="#9a32cd" stroke="#9a32cd" points="397.877,-75.3423 388.641,-80.5332 399.098,-82.2349 397.877,-75.3423"/>
<text text-anchor="middle" x="491" y="-128.115" font-family="Helvetica,sans-Serif" font-size="10.00"> changeImage</text>
<text text-anchor="middle" x="491" y="-117.115" font-family="Helvetica,sans-Serif" font-size="10.00">penColor</text>
<text text-anchor="middle" x="491" y="-106.115" font-family="Helvetica,sans-Serif" font-size="10.00">toggle</text>
<text text-anchor="middle" x="491" y="-95.1146" font-family="Helvetica,sans-Serif" font-size="10.00">penUpDown</text>
</g>
<!-- Node14 -->
<g id="node14" class="node"><title>Node14</title>
<polygon fill="white" stroke="#bfbfbf" points="332.5,-40.6146 332.5,-59.6146 379.5,-59.6146 379.5,-40.6146 332.5,-40.6146"/>
<text text-anchor="middle" x="356" y="-47.6146" font-family="Helvetica,sans-Serif" font-size="10.00">Image</text>
</g>
<!-- Node14&#45;&gt;Node1 -->
<g id="edge14" class="edge"><title>Node14&#45;&gt;Node1</title>
<path fill="none" stroke="#9a32cd" stroke-dasharray="5,2" d="M389.465,-43.0435C426.96,-36.7639 488.991,-32.369 532,-60.1146 584.21,-93.7957 603.923,-173.829 609.322,-201.503"/>
<polygon fill="#9a32cd" stroke="#9a32cd" points="388.79,-39.6088 379.576,-44.8395 390.04,-46.4961 388.79,-39.6088"/>
<text text-anchor="middle" x="491" y="-63.1146" font-family="Helvetica,sans-Serif" font-size="10.00"> myImage</text>
</g>
<!-- Node15 -->
<g id="node15" class="node"><title>Node15</title>
<polygon fill="white" stroke="#bfbfbf" points="333,-2.61459 333,-21.6146 379,-21.6146 379,-2.61459 333,-2.61459"/>
<text text-anchor="middle" x="356" y="-9.61459" font-family="Helvetica,sans-Serif" font-size="10.00">Group</text>
</g>
<!-- Node15&#45;&gt;Node1 -->
<g id="edge15" class="edge"><title>Node15&#45;&gt;Node1</title>
<path fill="none" stroke="#9a32cd" stroke-dasharray="5,2" d="M389.007,-5.03624C426.843,1.40458 489.968,5.87825 532,-24.1146 593.394,-67.9229 607.349,-169.163 610.276,-201.204"/>
<polygon fill="#9a32cd" stroke="#9a32cd" points="388.241,-1.61841 379.044,-6.87803 389.513,-8.50177 388.241,-1.61841"/>
<text text-anchor="middle" x="491" y="-27.1146" font-family="Helvetica,sans-Serif" font-size="10.00"> myStamps</text>
</g>
</g>
</svg>
        <g id="navigator" transform="translate(0 0)" fill="#404254">
                <rect fill="#f2f5e9" fill-opacity="0.5" stroke="#606060" stroke-width=".5" x="0" y="0" width="60" height="60"/>
                <use id="zoomplus" xlink:href="#zoomPlus" x="17" y="9" onmousedown="handleZoom(evt,'in')"/>
                <use id="zoomminus" xlink:href="#zoomMin" x="42" y="9" onmousedown="handleZoom(evt,'out')"/>
                <use id="reset" xlink:href="#resetDef" x="30" y="36" onmousedown="handleReset()"/>
                <g id="arrowUp" xlink:href="#dirArrow" transform="translate(30 24)" onmousedown="handlePan(0,-1)">
                  <use xlink:href="#rim" fill="#404040">
                        <set attributeName="fill" to="#808080" begin="arrowUp.mouseover" end="arrowUp.mouseout"/>
                  </use>
                  <path fill="none" stroke="white" stroke-width="1.5" d="M0,-3.0v7 M-2.5,-0.5L0,-3.0L2.5,-0.5"/>
                </g>
                <g id="arrowRight" xlink:href="#dirArrow" transform="rotate(90) translate(36 -43)" onmousedown="handlePan(1,0)">
                  <use xlink:href="#rim" fill="#404040">
                        <set attributeName="fill" to="#808080" begin="arrowRight.mouseover" end="arrowRight.mouseout"/>
                  </use>
                  <path fill="none" stroke="white" stroke-width="1.5" d="M0,-3.0v7 M-2.5,-0.5L0,-3.0L2.5,-0.5"/>
                </g>
                <g id="arrowDown" xlink:href="#dirArrow" transform="rotate(180) translate(-30 -48)" onmousedown="handlePan(0,1)">
                  <use xlink:href="#rim" fill="#404040">
                        <set attributeName="fill" to="#808080" begin="arrowDown.mouseover" end="arrowDown.mouseout"/>
                  </use>
                  <path fill="none" stroke="white" stroke-width="1.5" d="M0,-3.0v7 M-2.5,-0.5L0,-3.0L2.5,-0.5"/>
                </g>
                <g id="arrowLeft" xlink:href="#dirArrow" transform="rotate(270) translate(-36 17)" onmousedown="handlePan(-1,0)">
                  <use xlink:href="#rim" fill="#404040">
                        <set attributeName="fill" to="#808080" begin="arrowLeft.mouseover" end="arrowLeft.mouseout"/>
                  </use>
                  <path fill="none" stroke="white" stroke-width="1.5" d="M0,-3.0v7 M-2.5,-0.5L0,-3.0L2.5,-0.5"/>
                </g>
        </g>
        <svg viewBox="0 0 15 15" width="100%" height="30px" preserveAspectRatio="xMaxYMin meet">
         <g id="arrow_out" transform="scale(0.3 0.3)">
          <a xlink:href="classview_1_1turtle_1_1_turtle_image__coll__graph_org.svg" target="_base">
           <rect id="button" ry="5" rx="5" y="6" x="6" height="38" width="38"
                fill="#f2f5e9" fill-opacity="0.5" stroke="#606060" stroke-width="1.0"/>
           <path id="arrow"
             d="M 11.500037,31.436501 C 11.940474,20.09759 22.043105,11.32322 32.158766,21.979434 L 37.068811,17.246167 C 37.068811,17.246167 37.088388,32 37.088388,32 L 22.160133,31.978069 C 22.160133,31.978069 26.997745,27.140456 26.997745,27.140456 C 18.528582,18.264221 13.291696,25.230495 11.500037,31.436501 z"
             style="fill:#404040;"/>
          </a>
         </g>
        </svg>
</svg>
