<?xml version="1.0" encoding="UTF-8" standalone="no"?>
<!DOCTYPE svg PUBLIC "-//W3C//DTD SVG 1.1//EN"
 "http://www.w3.org/Graphics/SVG/1.1/DTD/svg11.dtd">
<!-- Generated by graphviz version 2.36.0 (20140111.2315)
 -->
<!-- Title: parser.commands.AskWith.createNewActiveStack Pages: 1 -->
<svg width="740pt" height="197pt"
 viewBox="0.00 0.00 740.00 197.00" xmlns="http://www.w3.org/2000/svg" xmlns:xlink="http://www.w3.org/1999/xlink">
<g id="graph0" class="graph" transform="scale(1 1) rotate(0) translate(4 193)">
<title>parser.commands.AskWith.createNewActiveStack</title>
<polygon fill="white" stroke="none" points="-4,4 -4,-193 736,-193 736,4 -4,4"/>
<!-- Node1 -->
<g id="node1" class="node"><title>Node1</title>
<polygon fill="#bfbfbf" stroke="black" points="0,-88 0,-118 178,-118 178,-88 0,-88"/>
<text text-anchor="start" x="8" y="-106" font-family="Helvetica,sans-Serif" font-size="10.00">parser.commands.AskWith.create</text>
<text text-anchor="middle" x="89" y="-95" font-family="Helvetica,sans-Serif" font-size="10.00">NewActiveStack</text>
</g>
<!-- Node2 -->
<g id="node2" class="node"><title>Node2</title>
<g id="a_node2"><a xlink:href="../../d9/dea/classmodel_1_1_turtle_multiple.html#a5d8a36f60191801dfdcfe491f5b62966" target="_top" xlink:title="model.TurtleMultiple.deactiveAll">
<polygon fill="white" stroke="black" points="221.5,-169.5 221.5,-188.5 388.5,-188.5 388.5,-169.5 221.5,-169.5"/>
<text text-anchor="middle" x="305" y="-176.5" font-family="Helvetica,sans-Serif" font-size="10.00">model.TurtleMultiple.deactiveAll</text>
</a>
</g>
</g>
<!-- Node1&#45;&gt;Node2 -->
<g id="edge1" class="edge"><title>Node1&#45;&gt;Node2</title>
<path fill="none" stroke="midnightblue" d="M118.326,-118.23C142.995,-130.952 180.033,-148.764 214,-160 222.064,-162.668 230.662,-165.047 239.224,-167.142"/>
<polygon fill="midnightblue" stroke="midnightblue" points="238.691,-170.612 249.225,-169.472 240.28,-163.795 238.691,-170.612"/>
</g>
<!-- Node5 -->
<g id="node5" class="node"><title>Node5</title>
<g id="a_node5"><a xlink:href="../../da/d96/classparser_1_1nodes_1_1_syntax_node.html#a21b459bd103a7f1f3a1a5f52bb3b3132" target="_top" xlink:title="parser.nodes.SyntaxNode.execute">
<polygon fill="white" stroke="black" points="214,-131.5 214,-150.5 396,-150.5 396,-131.5 214,-131.5"/>
<text text-anchor="middle" x="305" y="-138.5" font-family="Helvetica,sans-Serif" font-size="10.00">parser.nodes.SyntaxNode.execute</text>
</a>
</g>
</g>
<!-- Node1&#45;&gt;Node5 -->
<g id="edge4" class="edge"><title>Node1&#45;&gt;Node5</title>
<path fill="none" stroke="midnightblue" d="M174.578,-118.019C196.566,-121.923 219.876,-126.062 240.566,-129.736"/>
<polygon fill="midnightblue" stroke="midnightblue" points="240.037,-133.197 250.495,-131.499 241.261,-126.305 240.037,-133.197"/>
</g>
<!-- Node6 -->
<g id="node6" class="node"><title>Node6</title>
<g id="a_node6"><a xlink:href="../../d9/dea/classmodel_1_1_turtle_multiple.html#a87c4dc38e39d840acf71714c258ed332" target="_top" xlink:title="model.TurtleMultiple.get\lTurtleSingle">
<polygon fill="white" stroke="black" points="433.5,-95 433.5,-125 564.5,-125 564.5,-95 433.5,-95"/>
<text text-anchor="start" x="441.5" y="-113" font-family="Helvetica,sans-Serif" font-size="10.00">model.TurtleMultiple.get</text>
<text text-anchor="middle" x="499" y="-102" font-family="Helvetica,sans-Serif" font-size="10.00">TurtleSingle</text>
</a>
</g>
</g>
<!-- Node1&#45;&gt;Node6 -->
<g id="edge5" class="edge"><title>Node1&#45;&gt;Node6</title>
<path fill="none" stroke="midnightblue" d="M178.028,-104.51C251.113,-105.764 353.936,-107.528 423.119,-108.715"/>
<polygon fill="midnightblue" stroke="midnightblue" points="423.44,-112.221 433.499,-108.893 423.561,-105.222 423.44,-112.221"/>
</g>
<!-- Node7 -->
<g id="node7" class="node"><title>Node7</title>
<g id="a_node7"><a xlink:href="../../d9/dea/classmodel_1_1_turtle_multiple.html#a104d2342357e3c2b6b29d18ec859544e" target="_top" xlink:title="model.TurtleMultiple.num\lTurtles">
<polygon fill="white" stroke="black" points="236.5,-44 236.5,-74 373.5,-74 373.5,-44 236.5,-44"/>
<text text-anchor="start" x="244.5" y="-62" font-family="Helvetica,sans-Serif" font-size="10.00">model.TurtleMultiple.num</text>
<text text-anchor="middle" x="305" y="-51" font-family="Helvetica,sans-Serif" font-size="10.00">Turtles</text>
</a>
</g>
</g>
<!-- Node1&#45;&gt;Node7 -->
<g id="edge7" class="edge"><title>Node1&#45;&gt;Node7</title>
<path fill="none" stroke="midnightblue" d="M163.048,-87.9808C183.443,-83.7874 205.674,-79.2166 226.325,-74.9705"/>
<polygon fill="midnightblue" stroke="midnightblue" points="227.231,-78.3576 236.321,-72.9153 225.821,-71.501 227.231,-78.3576"/>
</g>
<!-- Node8 -->
<g id="node8" class="node"><title>Node8</title>
<g id="a_node8"><a xlink:href="../../da/d88/classmodel_1_1_turtle_single.html#a2bfc7a50935a0b27a7a8950f724c5564" target="_top" xlink:title="model.TurtleSingle.setInactive">
<polygon fill="white" stroke="black" points="225.5,-5.5 225.5,-24.5 384.5,-24.5 384.5,-5.5 225.5,-5.5"/>
<text text-anchor="middle" x="305" y="-12.5" font-family="Helvetica,sans-Serif" font-size="10.00">model.TurtleSingle.setInactive</text>
</a>
</g>
</g>
<!-- Node1&#45;&gt;Node8 -->
<g id="edge8" class="edge"><title>Node1&#45;&gt;Node8</title>
<path fill="none" stroke="midnightblue" d="M112.313,-87.8676C136.401,-72.1947 176.388,-48.0681 214,-34 221.072,-31.3549 228.602,-29.0387 236.179,-27.0202"/>
<polygon fill="midnightblue" stroke="midnightblue" points="237.278,-30.3533 246.133,-24.5355 235.583,-23.5617 237.278,-30.3533"/>
</g>
<!-- Node3 -->
<g id="node3" class="node"><title>Node3</title>
<g id="a_node3"><a xlink:href="../../d9/dea/classmodel_1_1_turtle_multiple.html#a39a093480efa352c2066e4ef8534f26e" target="_top" xlink:title="model.TurtleMultiple.get\lStream">
<polygon fill="white" stroke="black" points="433.5,-157 433.5,-187 564.5,-187 564.5,-157 433.5,-157"/>
<text text-anchor="start" x="441.5" y="-175" font-family="Helvetica,sans-Serif" font-size="10.00">model.TurtleMultiple.get</text>
<text text-anchor="middle" x="499" y="-164" font-family="Helvetica,sans-Serif" font-size="10.00">Stream</text>
</a>
</g>
</g>
<!-- Node2&#45;&gt;Node3 -->
<g id="edge2" class="edge"><title>Node2&#45;&gt;Node3</title>
<path fill="none" stroke="midnightblue" d="M388.54,-175.991C400.056,-175.571 411.837,-175.141 423.2,-174.727"/>
<polygon fill="midnightblue" stroke="midnightblue" points="423.633,-178.214 433.499,-174.352 423.378,-171.218 423.633,-178.214"/>
</g>
<!-- Node4 -->
<g id="node4" class="node"><title>Node4</title>
<g id="a_node4"><a xlink:href="../../d9/dea/classmodel_1_1_turtle_multiple.html#a47e5a06bab25ead16ef3098a4257aa4b" target="_top" xlink:title="model.TurtleMultiple.set\lLastTurtle">
<polygon fill="white" stroke="black" points="602,-126 602,-156 732,-156 732,-126 602,-126"/>
<text text-anchor="start" x="610" y="-144" font-family="Helvetica,sans-Serif" font-size="10.00">model.TurtleMultiple.set</text>
<text text-anchor="middle" x="667" y="-133" font-family="Helvetica,sans-Serif" font-size="10.00">LastTurtle</text>
</a>
</g>
</g>
<!-- Node3&#45;&gt;Node4 -->
<g id="edge3" class="edge"><title>Node3&#45;&gt;Node4</title>
<path fill="none" stroke="midnightblue" d="M564.655,-159.926C573.518,-158.271 582.675,-156.561 591.694,-154.876"/>
<polygon fill="midnightblue" stroke="midnightblue" points="592.607,-158.267 601.794,-152.99 591.321,-151.386 592.607,-158.267"/>
</g>
<!-- Node6&#45;&gt;Node4 -->
<g id="edge6" class="edge"><title>Node6&#45;&gt;Node4</title>
<path fill="none" stroke="midnightblue" d="M564.655,-122.074C573.518,-123.729 582.675,-125.439 591.694,-127.124"/>
<polygon fill="midnightblue" stroke="midnightblue" points="591.321,-130.614 601.794,-129.01 592.607,-123.733 591.321,-130.614"/>
</g>
<!-- Node9 -->
<g id="node9" class="node"><title>Node9</title>
<g id="a_node9"><a xlink:href="../../da/d88/classmodel_1_1_turtle_single.html#a40853b6f8c9ba455489ad8ea9535e99d" target="_top" xlink:title="model.TurtleSingle.notify\lObservers">
<polygon fill="white" stroke="black" points="432,-0 432,-30 566,-30 566,-0 432,-0"/>
<text text-anchor="start" x="440" y="-18" font-family="Helvetica,sans-Serif" font-size="10.00">model.TurtleSingle.notify</text>
<text text-anchor="middle" x="499" y="-7" font-family="Helvetica,sans-Serif" font-size="10.00">Observers</text>
</a>
</g>
</g>
<!-- Node8&#45;&gt;Node9 -->
<g id="edge9" class="edge"><title>Node8&#45;&gt;Node9</title>
<path fill="none" stroke="midnightblue" d="M384.648,-15C396.865,-15 409.47,-15 421.635,-15"/>
<polygon fill="midnightblue" stroke="midnightblue" points="421.732,-18.5001 431.732,-15 421.732,-11.5001 421.732,-18.5001"/>
</g>
</g>
</svg>
