<?xml version="1.0" encoding="UTF-8" standalone="no"?>
<!DOCTYPE svg PUBLIC "-//W3C//DTD SVG 1.1//EN"
 "http://www.w3.org/Graphics/SVG/1.1/DTD/svg11.dtd">
<!-- Generated by graphviz version 2.36.0 (20140111.2315)
 -->
<!-- Title: parser.parser.GeneralType.findType Pages: 1 -->
<!--zoomable 224 -->
<svg id="main" version="1.1" xmlns="http://www.w3.org/2000/svg" xmlns:xlink="http://www.w3.org/1999/xlink" xml:space="preserve" onload="init(evt)">
<style type="text/css"><![CDATA[
.edge:hover path { stroke: red; }
.edge:hover polygon { stroke: red; fill: red; }
]]></style>
<script type="text/javascript"><![CDATA[
var edges = document.getElementsByTagName('g');
if (edges && edges.length) {
  for (var i=0;i<edges.length;i++) {
    if (edges[i].id.substr(0,4)=='edge') {
      edges[i].setAttribute('class','edge');
    }
  }
}
]]></script>
        <defs>
                <circle id="rim" cx="0" cy="0" r="7"/>
                <circle id="rim2" cx="0" cy="0" r="3.5"/>
                <g id="zoomPlus">
                        <use xlink:href="#rim" fill="#404040">
                                <set attributeName="fill" to="#808080" begin="zoomplus.mouseover" end="zoomplus.mouseout"/>
                        </use>
                        <path d="M-4,0h8M0,-4v8" fill="none" stroke="white" stroke-width="1.5" pointer-events="none"/>
                </g>
                <g id="zoomMin">
                        <use xlink:href="#rim" fill="#404040">
                                <set attributeName="fill" to="#808080" begin="zoomminus.mouseover" end="zoomminus.mouseout"/>
                        </use>
                        <path d="M-4,0h8" fill="none" stroke="white" stroke-width="1.5" pointer-events="none"/>
                </g>
                <g id="dirArrow">
                        <path fill="none" stroke="white" stroke-width="1.5" d="M0,-3.0v7 M-2.5,-0.5L0,-3.0L2.5,-0.5"/>
                </g>
               <g id="resetDef">
                       <use xlink:href="#rim2" fill="#404040">
                               <set attributeName="fill" to="#808080" begin="reset.mouseover" end="reset.mouseout"/>
                       </use>
               </g>
        </defs>

<script type="text/javascript">
var viewWidth = 1244;
var viewHeight = 224;
var sectionId = 'dynsection-0';
</script>
<script xlink:href="../../svgpan.js"/>
<svg id="graph" class="graph">
<g id="viewport">
<title>parser.parser.GeneralType.findType</title>
<polygon fill="white" stroke="none" points="-4,4 -4,-220 1240,-220 1240,4 -4,4"/>
<!-- Node1 -->
<g id="node1" class="node"><title>Node1</title>
<polygon fill="#bfbfbf" stroke="black" points="0,-111.5 0,-130.5 182,-130.5 182,-111.5 0,-111.5"/>
<text text-anchor="middle" x="91" y="-118.5" font-family="Helvetica,sans-Serif" font-size="10.00">parser.parser.GeneralType.findType</text>
</g>
<!-- Node2 -->
<g id="node2" class="node"><title>Node2</title>
<g id="a_node2"><a xlink:href="../../de/d16/classparser_1_1parser_1_1_regex.html#a5d526d752521b953619721c6d3e930bd" target="_top" xlink:title="parser.parser.Regex.getType">
<polygon fill="white" stroke="black" points="218.5,-111.5 218.5,-130.5 369.5,-130.5 369.5,-111.5 218.5,-111.5"/>
<text text-anchor="middle" x="294" y="-118.5" font-family="Helvetica,sans-Serif" font-size="10.00">parser.parser.Regex.getType</text>
</a>
</g>
</g>
<!-- Node1&#45;&gt;Node2 -->
<g id="edge1" class="edge"><title>Node1&#45;&gt;Node2</title>
<path fill="none" stroke="midnightblue" d="M192.457,-121C201.2,-121 209.942,-121 218.421,-121"/>
<polygon fill="midnightblue" stroke="midnightblue" points="192.211,-117.5 182.211,-121 192.211,-124.5 192.211,-117.5"/>
</g>
<!-- Node3 -->
<g id="node3" class="node"><title>Node3</title>
<g id="a_node3"><a xlink:href="../../d8/da2/classmodel_1_1_variable_factory.html#a73fd0c25fff2bd36a01fbdeadbaab5ec" target="_top" xlink:title="model.VariableFactory.create\lVariable">
<polygon fill="white" stroke="black" points="408.5,-182 408.5,-212 563.5,-212 563.5,-182 408.5,-182"/>
<text text-anchor="start" x="416.5" y="-200" font-family="Helvetica,sans-Serif" font-size="10.00">model.VariableFactory.create</text>
<text text-anchor="middle" x="486" y="-189" font-family="Helvetica,sans-Serif" font-size="10.00">Variable</text>
</a>
</g>
</g>
<!-- Node2&#45;&gt;Node3 -->
<g id="edge2" class="edge"><title>Node2&#45;&gt;Node3</title>
<path fill="none" stroke="midnightblue" d="M326.713,-134.438C348.859,-143.75 379.147,-156.34 406,-167 418.545,-171.98 432.276,-177.255 444.721,-181.97"/>
<polygon fill="midnightblue" stroke="midnightblue" points="328.029,-131.195 317.454,-130.537 325.311,-137.645 328.029,-131.195"/>
</g>
<!-- Node6 -->
<g id="node6" class="node"><title>Node6</title>
<g id="a_node6"><a xlink:href="../../d2/d1d/classmodel_1_1_variable_string.html#a10995e85337a47efad5c2591eeda95bd" target="_top" xlink:title="model.VariableString.set\lValue">
<polygon fill="white" stroke="black" points="419,-128 419,-158 553,-158 553,-128 419,-128"/>
<text text-anchor="start" x="427" y="-146" font-family="Helvetica,sans-Serif" font-size="10.00">model.VariableString.set</text>
<text text-anchor="middle" x="486" y="-135" font-family="Helvetica,sans-Serif" font-size="10.00">Value</text>
</a>
</g>
</g>
<!-- Node2&#45;&gt;Node6 -->
<g id="edge5" class="edge"><title>Node2&#45;&gt;Node6</title>
<path fill="none" stroke="midnightblue" d="M379.582,-130.794C392.795,-132.324 406.28,-133.885 418.998,-135.358"/>
<polygon fill="midnightblue" stroke="midnightblue" points="379.884,-127.305 369.548,-129.632 379.079,-134.259 379.884,-127.305"/>
</g>
<!-- Node7 -->
<g id="node7" class="node"><title>Node7</title>
<g id="a_node7"><a xlink:href="../../d4/d3a/classparser_1_1parser_1_1_parser.html#a51f4baa200eb0c94b804119b1439a1aa" target="_top" xlink:title="parser.parser.Parser.parse">
<polygon fill="white" stroke="black" points="415,-89.5 415,-108.5 557,-108.5 557,-89.5 415,-89.5"/>
<text text-anchor="middle" x="486" y="-96.5" font-family="Helvetica,sans-Serif" font-size="10.00">parser.parser.Parser.parse</text>
</a>
</g>
</g>
<!-- Node2&#45;&gt;Node7 -->
<g id="edge6" class="edge"><title>Node2&#45;&gt;Node7</title>
<path fill="none" stroke="midnightblue" d="M379.743,-111.188C391.425,-109.835 403.318,-108.458 414.701,-107.14"/>
<polygon fill="midnightblue" stroke="midnightblue" points="379.079,-107.741 369.548,-112.368 379.884,-114.695 379.079,-107.741"/>
</g>
<!-- Node17 -->
<g id="node17" class="node"><title>Node17</title>
<g id="a_node17"><a xlink:href="../../dc/d09/classparser_1_1parser_1_1_to_factory.html#aa6f21d062bb4f3ba4d708d0a5b450a4b" target="_top" xlink:title="parser.parser.ToFactory.isolate\lToDeclaration">
<polygon fill="white" stroke="black" points="406,-30 406,-60 566,-60 566,-30 406,-30"/>
<text text-anchor="start" x="414" y="-48" font-family="Helvetica,sans-Serif" font-size="10.00">parser.parser.ToFactory.isolate</text>
<text text-anchor="middle" x="486" y="-37" font-family="Helvetica,sans-Serif" font-size="10.00">ToDeclaration</text>
</a>
</g>
</g>
<!-- Node2&#45;&gt;Node17 -->
<g id="edge16" class="edge"><title>Node2&#45;&gt;Node17</title>
<path fill="none" stroke="midnightblue" d="M328.369,-107.653C361.654,-94.3385 412.698,-73.9208 447.398,-60.0407"/>
<polygon fill="midnightblue" stroke="midnightblue" points="327.049,-104.411 319.064,-111.375 329.648,-110.91 327.049,-104.411"/>
</g>
<!-- Node4 -->
<g id="node4" class="node"><title>Node4</title>
<g id="a_node4"><a xlink:href="../../d6/d00/classmodel_1_1_variables_collection.html#add84dfc7ce130a9bde135a9bf1d080ff" target="_top" xlink:title="model.VariablesCollection.add\lVariable">
<polygon fill="white" stroke="black" points="610.5,-184 610.5,-214 771.5,-214 771.5,-184 610.5,-184"/>
<text text-anchor="start" x="618.5" y="-202" font-family="Helvetica,sans-Serif" font-size="10.00">model.VariablesCollection.add</text>
<text text-anchor="middle" x="691" y="-191" font-family="Helvetica,sans-Serif" font-size="10.00">Variable</text>
</a>
</g>
</g>
<!-- Node3&#45;&gt;Node4 -->
<g id="edge3" class="edge"><title>Node3&#45;&gt;Node4</title>
<path fill="none" stroke="midnightblue" d="M573.865,-197.856C586.01,-197.975 598.441,-198.098 610.443,-198.216"/>
<polygon fill="midnightblue" stroke="midnightblue" points="573.78,-194.355 563.746,-197.756 573.711,-201.355 573.78,-194.355"/>
</g>
<!-- Node5 -->
<g id="node5" class="node"><title>Node5</title>
<g id="a_node5"><a xlink:href="../../d6/d00/classmodel_1_1_variables_collection.html#a9060d5c67d836153c2e0daff3b92c297" target="_top" xlink:title="model.VariablesCollection.get\lVariableValue">
<polygon fill="white" stroke="black" points="833,-186 833,-216 991,-216 991,-186 833,-186"/>
<text text-anchor="start" x="841" y="-204" font-family="Helvetica,sans-Serif" font-size="10.00">model.VariablesCollection.get</text>
<text text-anchor="middle" x="912" y="-193" font-family="Helvetica,sans-Serif" font-size="10.00">VariableValue</text>
</a>
</g>
</g>
<!-- Node4&#45;&gt;Node5 -->
<g id="edge4" class="edge"><title>Node4&#45;&gt;Node5</title>
<path fill="none" stroke="midnightblue" d="M782.074,-199.823C798.917,-199.976 816.394,-200.136 832.841,-200.286"/>
<polygon fill="midnightblue" stroke="midnightblue" points="781.715,-196.319 771.684,-199.728 781.651,-203.319 781.715,-196.319"/>
</g>
<!-- Node8 -->
<g id="node8" class="node"><title>Node8</title>
<g id="a_node8"><a xlink:href="../../d3/d42/classmodel_1_1_model.html#a8a07e7f2040e8a2ab50ec2955504f6c4" target="_top" xlink:title="model.Model.parse">
<polygon fill="white" stroke="black" points="637,-104.5 637,-123.5 745,-123.5 745,-104.5 637,-104.5"/>
<text text-anchor="middle" x="691" y="-111.5" font-family="Helvetica,sans-Serif" font-size="10.00">model.Model.parse</text>
</a>
</g>
</g>
<!-- Node7&#45;&gt;Node8 -->
<g id="edge7" class="edge"><title>Node7&#45;&gt;Node8</title>
<path fill="none" stroke="midnightblue" d="M567.386,-104.94C590.723,-106.664 615.618,-108.504 636.836,-110.072"/>
<polygon fill="midnightblue" stroke="midnightblue" points="567.376,-101.43 557.145,-104.183 566.86,-108.411 567.376,-101.43"/>
</g>
<!-- Node16 -->
<g id="node16" class="node"><title>Node16</title>
<g id="a_node16"><a xlink:href="../../d5/dc1/classparser_1_1commands_1_1_parser_test.html#a6a3cc2c0d6ca8b502de3cad94a6ad0a5" target="_top" xlink:title="parser.commands.ParserTest.test\lParse">
<polygon fill="white" stroke="black" points="602.5,-55 602.5,-85 779.5,-85 779.5,-55 602.5,-55"/>
<text text-anchor="start" x="610.5" y="-73" font-family="Helvetica,sans-Serif" font-size="10.00">parser.commands.ParserTest.test</text>
<text text-anchor="middle" x="691" y="-62" font-family="Helvetica,sans-Serif" font-size="10.00">Parse</text>
</a>
</g>
</g>
<!-- Node7&#45;&gt;Node16 -->
<g id="edge15" class="edge"><title>Node7&#45;&gt;Node16</title>
<path fill="none" stroke="midnightblue" d="M563.698,-88.0432C576.265,-86.2478 589.373,-84.3753 602.185,-82.5451"/>
<polygon fill="midnightblue" stroke="midnightblue" points="563.155,-84.585 553.751,-89.4641 564.145,-91.5147 563.155,-84.585"/>
</g>
<!-- Node9 -->
<g id="node9" class="node"><title>Node9</title>
<g id="a_node9"><a xlink:href="../../d3/dbe/classview_1_1_view.html#ab8b25d25b79752feed7b786ed496f642" target="_top" xlink:title="view.View.loadLibrary">
<polygon fill="white" stroke="black" points="854,-147.5 854,-166.5 970,-166.5 970,-147.5 854,-147.5"/>
<text text-anchor="middle" x="912" y="-154.5" font-family="Helvetica,sans-Serif" font-size="10.00">view.View.loadLibrary</text>
</a>
</g>
</g>
<!-- Node8&#45;&gt;Node9 -->
<g id="edge8" class="edge"><title>Node8&#45;&gt;Node9</title>
<path fill="none" stroke="midnightblue" d="M750.683,-125.522C785.662,-132.39 829.531,-141.004 862.533,-147.484"/>
<polygon fill="midnightblue" stroke="midnightblue" points="751.09,-122.035 740.603,-123.543 749.741,-128.904 751.09,-122.035"/>
</g>
<!-- Node10 -->
<g id="node10" class="node"><title>Node10</title>
<g id="a_node10"><a xlink:href="../../da/df5/classview_1_1listwindows_1_1_commands_list_window.html#a3611428a65d6e7a436971f1b237e644e" target="_top" xlink:title="view.listwindows.Commands\lListWindow.parseCommand">
<polygon fill="white" stroke="black" points="837,-98 837,-128 987,-128 987,-98 837,-98"/>
<text text-anchor="start" x="845" y="-116" font-family="Helvetica,sans-Serif" font-size="10.00">view.listwindows.Commands</text>
<text text-anchor="middle" x="912" y="-105" font-family="Helvetica,sans-Serif" font-size="10.00">ListWindow.parseCommand</text>
</a>
</g>
</g>
<!-- Node8&#45;&gt;Node10 -->
<g id="edge9" class="edge"><title>Node8&#45;&gt;Node10</title>
<path fill="none" stroke="midnightblue" d="M755.31,-113.711C780.831,-113.594 810.451,-113.459 836.962,-113.338"/>
<polygon fill="midnightblue" stroke="midnightblue" points="754.998,-110.212 745.014,-113.758 755.03,-117.212 754.998,-110.212"/>
</g>
<!-- Node13 -->
<g id="node13" class="node"><title>Node13</title>
<g id="a_node13"><a xlink:href="../../db/d98/classview_1_1components_1_1_command_port.html#a687e2098038140e833e1bac1a759b587" target="_top" xlink:title="view.components.CommandPort.run\lCommand">
<polygon fill="white" stroke="black" points="816.5,-49 816.5,-79 1007.5,-79 1007.5,-49 816.5,-49"/>
<text text-anchor="start" x="824.5" y="-67" font-family="Helvetica,sans-Serif" font-size="10.00">view.components.CommandPort.run</text>
<text text-anchor="middle" x="912" y="-56" font-family="Helvetica,sans-Serif" font-size="10.00">Command</text>
</a>
</g>
</g>
<!-- Node8&#45;&gt;Node13 -->
<g id="edge12" class="edge"><title>Node8&#45;&gt;Node13</title>
<path fill="none" stroke="midnightblue" d="M743.858,-102.229C755.734,-99.5291 768.305,-96.6681 780,-94 801.269,-89.1477 824.476,-83.838 845.369,-79.0523"/>
<polygon fill="midnightblue" stroke="midnightblue" points="743.055,-98.8223 734.079,-104.451 744.606,-105.648 743.055,-98.8223"/>
</g>
<!-- Node11 -->
<g id="node11" class="node"><title>Node11</title>
<g id="a_node11"><a xlink:href="../../df/d26/classview_1_1listwindows_1_1_commands_history_window.html#af341417d427f8b0548670f1efbb3acac" target="_top" xlink:title="view.listwindows.Commands\lHistoryWindow.setButtonAction">
<polygon fill="white" stroke="black" points="1057.5,-147 1057.5,-177 1222.5,-177 1222.5,-147 1057.5,-147"/>
<text text-anchor="start" x="1065.5" y="-165" font-family="Helvetica,sans-Serif" font-size="10.00">view.listwindows.Commands</text>
<text text-anchor="middle" x="1140" y="-154" font-family="Helvetica,sans-Serif" font-size="10.00">HistoryWindow.setButtonAction</text>
</a>
</g>
</g>
<!-- Node10&#45;&gt;Node11 -->
<g id="edge10" class="edge"><title>Node10&#45;&gt;Node11</title>
<path fill="none" stroke="midnightblue" d="M992.263,-130.185C1017.54,-135.665 1045.29,-141.682 1069.79,-146.994"/>
<polygon fill="midnightblue" stroke="midnightblue" points="992.858,-126.733 982.343,-128.035 991.375,-133.574 992.858,-126.733"/>
</g>
<!-- Node12 -->
<g id="node12" class="node"><title>Node12</title>
<g id="a_node12"><a xlink:href="../../d7/dc7/classview_1_1listwindows_1_1_user_defined_commands_window.html#adaf32233789f6a07c42b4e459699bf53" target="_top" xlink:title="view.listwindows.UserDefined\lCommandsWindow.setButtonAction">
<polygon fill="white" stroke="black" points="1046.5,-98 1046.5,-128 1233.5,-128 1233.5,-98 1046.5,-98"/>
<text text-anchor="start" x="1054.5" y="-116" font-family="Helvetica,sans-Serif" font-size="10.00">view.listwindows.UserDefined</text>
<text text-anchor="middle" x="1140" y="-105" font-family="Helvetica,sans-Serif" font-size="10.00">CommandsWindow.setButtonAction</text>
</a>
</g>
</g>
<!-- Node10&#45;&gt;Node12 -->
<g id="edge11" class="edge"><title>Node10&#45;&gt;Node12</title>
<path fill="none" stroke="midnightblue" d="M997.348,-113C1013.3,-113 1030.06,-113 1046.25,-113"/>
<polygon fill="midnightblue" stroke="midnightblue" points="997.001,-109.5 987.001,-113 997.001,-116.5 997.001,-109.5"/>
</g>
<!-- Node14 -->
<g id="node14" class="node"><title>Node14</title>
<g id="a_node14"><a xlink:href="../../db/d98/classview_1_1components_1_1_command_port.html#a37ae451233579691839c4a52072c94e9" target="_top" xlink:title="view.components.CommandPort.\lCommandPort">
<polygon fill="white" stroke="black" points="1052.5,-49 1052.5,-79 1227.5,-79 1227.5,-49 1052.5,-49"/>
<text text-anchor="start" x="1060.5" y="-67" font-family="Helvetica,sans-Serif" font-size="10.00">view.components.CommandPort.</text>
<text text-anchor="middle" x="1140" y="-56" font-family="Helvetica,sans-Serif" font-size="10.00">CommandPort</text>
</a>
</g>
</g>
<!-- Node13&#45;&gt;Node14 -->
<g id="edge13" class="edge"><title>Node13&#45;&gt;Node14</title>
<path fill="none" stroke="midnightblue" d="M1017.7,-64C1029.32,-64 1041.06,-64 1052.42,-64"/>
<polygon fill="midnightblue" stroke="midnightblue" points="1017.53,-60.5001 1007.53,-64 1017.53,-67.5001 1017.53,-60.5001"/>
</g>
<!-- Node15 -->
<g id="node15" class="node"><title>Node15</title>
<g id="a_node15"><a xlink:href="../../db/d98/classview_1_1components_1_1_command_port.html#afcdcfbfa864e7438dc0f0a3f1c541294" target="_top" xlink:title="view.components.CommandPort.run\lCommand">
<polygon fill="white" stroke="black" points="1044.5,-0 1044.5,-30 1235.5,-30 1235.5,-0 1044.5,-0"/>
<text text-anchor="start" x="1052.5" y="-18" font-family="Helvetica,sans-Serif" font-size="10.00">view.components.CommandPort.run</text>
<text text-anchor="middle" x="1140" y="-7" font-family="Helvetica,sans-Serif" font-size="10.00">Command</text>
</a>
</g>
</g>
<!-- Node13&#45;&gt;Node15 -->
<g id="edge14" class="edge"><title>Node13&#45;&gt;Node15</title>
<path fill="none" stroke="midnightblue" d="M992.263,-46.8146C1017.54,-41.3353 1045.29,-35.3185 1069.79,-30.0062"/>
<polygon fill="midnightblue" stroke="midnightblue" points="991.375,-43.4259 982.343,-48.9654 992.858,-50.2669 991.375,-43.4259"/>
</g>
<!-- Node18 -->
<g id="node18" class="node"><title>Node18</title>
<g id="a_node18"><a xlink:href="../../dc/d09/classparser_1_1parser_1_1_to_factory.html#a623e33082dd154838b16f7a12dcf334d" target="_top" xlink:title="parser.parser.ToFactory.createTo">
<polygon fill="white" stroke="black" points="606.5,-16.5 606.5,-35.5 775.5,-35.5 775.5,-16.5 606.5,-16.5"/>
<text text-anchor="middle" x="691" y="-23.5" font-family="Helvetica,sans-Serif" font-size="10.00">parser.parser.ToFactory.createTo</text>
</a>
</g>
</g>
<!-- Node17&#45;&gt;Node18 -->
<g id="edge17" class="edge"><title>Node17&#45;&gt;Node18</title>
<path fill="none" stroke="midnightblue" d="M576.088,-36.6617C586.18,-35.7172 596.438,-34.7571 606.455,-33.8195"/>
<polygon fill="midnightblue" stroke="midnightblue" points="575.697,-33.183 566.066,-37.5997 576.349,-40.1525 575.697,-33.183"/>
</g>
</g>
</svg>
        <g id="navigator" transform="translate(0 0)" fill="#404254">
                <rect fill="#f2f5e9" fill-opacity="0.5" stroke="#606060" stroke-width=".5" x="0" y="0" width="60" height="60"/>
                <use id="zoomplus" xlink:href="#zoomPlus" x="17" y="9" onmousedown="handleZoom(evt,'in')"/>
                <use id="zoomminus" xlink:href="#zoomMin" x="42" y="9" onmousedown="handleZoom(evt,'out')"/>
                <use id="reset" xlink:href="#resetDef" x="30" y="36" onmousedown="handleReset()"/>
                <g id="arrowUp" xlink:href="#dirArrow" transform="translate(30 24)" onmousedown="handlePan(0,-1)">
                  <use xlink:href="#rim" fill="#404040">
                        <set attributeName="fill" to="#808080" begin="arrowUp.mouseover" end="arrowUp.mouseout"/>
                  </use>
                  <path fill="none" stroke="white" stroke-width="1.5" d="M0,-3.0v7 M-2.5,-0.5L0,-3.0L2.5,-0.5"/>
                </g>
                <g id="arrowRight" xlink:href="#dirArrow" transform="rotate(90) translate(36 -43)" onmousedown="handlePan(1,0)">
                  <use xlink:href="#rim" fill="#404040">
                        <set attributeName="fill" to="#808080" begin="arrowRight.mouseover" end="arrowRight.mouseout"/>
                  </use>
                  <path fill="none" stroke="white" stroke-width="1.5" d="M0,-3.0v7 M-2.5,-0.5L0,-3.0L2.5,-0.5"/>
                </g>
                <g id="arrowDown" xlink:href="#dirArrow" transform="rotate(180) translate(-30 -48)" onmousedown="handlePan(0,1)">
                  <use xlink:href="#rim" fill="#404040">
                        <set attributeName="fill" to="#808080" begin="arrowDown.mouseover" end="arrowDown.mouseout"/>
                  </use>
                  <path fill="none" stroke="white" stroke-width="1.5" d="M0,-3.0v7 M-2.5,-0.5L0,-3.0L2.5,-0.5"/>
                </g>
                <g id="arrowLeft" xlink:href="#dirArrow" transform="rotate(270) translate(-36 17)" onmousedown="handlePan(-1,0)">
                  <use xlink:href="#rim" fill="#404040">
                        <set attributeName="fill" to="#808080" begin="arrowLeft.mouseover" end="arrowLeft.mouseout"/>
                  </use>
                  <path fill="none" stroke="white" stroke-width="1.5" d="M0,-3.0v7 M-2.5,-0.5L0,-3.0L2.5,-0.5"/>
                </g>
        </g>
        <svg viewBox="0 0 15 15" width="100%" height="30px" preserveAspectRatio="xMaxYMin meet">
         <g id="arrow_out" transform="scale(0.3 0.3)">
          <a xlink:href="enumparser_1_1parser_1_1_general_type_af35aa06f434667ca22f66abcc181eb30_icgraph_org.svg" target="_base">
           <rect id="button" ry="5" rx="5" y="6" x="6" height="38" width="38"
                fill="#f2f5e9" fill-opacity="0.5" stroke="#606060" stroke-width="1.0"/>
           <path id="arrow"
             d="M 11.500037,31.436501 C 11.940474,20.09759 22.043105,11.32322 32.158766,21.979434 L 37.068811,17.246167 C 37.068811,17.246167 37.088388,32 37.088388,32 L 22.160133,31.978069 C 22.160133,31.978069 26.997745,27.140456 26.997745,27.140456 C 18.528582,18.264221 13.291696,25.230495 11.500037,31.436501 z"
             style="fill:#404040;"/>
          </a>
         </g>
        </svg>
</svg>
