<?xml version="1.0" encoding="UTF-8" standalone="no"?>
<!DOCTYPE svg PUBLIC "-//W3C//DTD SVG 1.1//EN"
 "http://www.w3.org/Graphics/SVG/1.1/DTD/svg11.dtd">
<!-- Generated by graphviz version 2.36.0 (20140111.2315)
 -->
<!-- Title: view.dialogs.TextInputDialogBox Pages: 1 -->
<svg width="351pt" height="290pt"
 viewBox="0.00 0.00 351.00 290.00" xmlns="http://www.w3.org/2000/svg" xmlns:xlink="http://www.w3.org/1999/xlink">
<g id="graph0" class="graph" transform="scale(1 1) rotate(0) translate(4 286)">
<title>view.dialogs.TextInputDialogBox</title>
<polygon fill="white" stroke="none" points="-4,4 -4,-286 347,-286 347,4 -4,4"/>
<!-- Node1 -->
<g id="node1" class="node"><title>Node1</title>
<polygon fill="#bfbfbf" stroke="black" points="175.5,-0.5 175.5,-19.5 342.5,-19.5 342.5,-0.5 175.5,-0.5"/>
<text text-anchor="middle" x="259" y="-7.5" font-family="Helvetica,sans-Serif" font-size="10.00">view.dialogs.TextInputDialogBox</text>
</g>
<!-- Node2 -->
<g id="node2" class="node"><title>Node2</title>
<g id="a_node2"><a xlink:href="../../d0/de5/classview_1_1dialogs_1_1_input_dialog_box.html" target="_top" xlink:title="view.dialogs.InputDialogBox">
<polygon fill="white" stroke="black" points="95,-68.5 95,-87.5 243,-87.5 243,-68.5 95,-68.5"/>
<text text-anchor="middle" x="169" y="-75.5" font-family="Helvetica,sans-Serif" font-size="10.00">view.dialogs.InputDialogBox</text>
</a>
</g>
</g>
<!-- Node2&#45;&gt;Node1 -->
<g id="edge1" class="edge"><title>Node2&#45;&gt;Node1</title>
<path fill="none" stroke="midnightblue" d="M188.834,-62.4551C206.714,-49.3431 232.407,-30.5016 247.231,-19.6305"/>
<polygon fill="midnightblue" stroke="midnightblue" points="186.76,-59.6356 180.766,-68.3717 190.9,-65.2804 186.76,-59.6356"/>
</g>
<!-- Node3 -->
<g id="node3" class="node"><title>Node3</title>
<g id="a_node3"><a xlink:href="../../d2/dee/classview_1_1dialogs_1_1_message_dialog_box.html" target="_top" xlink:title="view.dialogs.MessageDialogBox">
<polygon fill="white" stroke="black" points="85.5,-126.5 85.5,-145.5 252.5,-145.5 252.5,-126.5 85.5,-126.5"/>
<text text-anchor="middle" x="169" y="-133.5" font-family="Helvetica,sans-Serif" font-size="10.00">view.dialogs.MessageDialogBox</text>
</a>
</g>
</g>
<!-- Node3&#45;&gt;Node2 -->
<g id="edge2" class="edge"><title>Node3&#45;&gt;Node2</title>
<path fill="none" stroke="midnightblue" d="M169,-115.953C169,-106.287 169,-95.0312 169,-87.5052"/>
<polygon fill="midnightblue" stroke="midnightblue" points="165.5,-116.25 169,-126.25 172.5,-116.25 165.5,-116.25"/>
</g>
<!-- Node4 -->
<g id="node4" class="node"><title>Node4</title>
<g id="a_node4"><a xlink:href="../../d2/d9f/classview_1_1dialogs_1_1_dialog_box.html" target="_top" xlink:title="view.dialogs.DialogBox">
<polygon fill="white" stroke="black" points="30,-194.5 30,-213.5 154,-213.5 154,-194.5 30,-194.5"/>
<text text-anchor="middle" x="92" y="-201.5" font-family="Helvetica,sans-Serif" font-size="10.00">view.dialogs.DialogBox</text>
</a>
</g>
</g>
<!-- Node4&#45;&gt;Node3 -->
<g id="edge3" class="edge"><title>Node4&#45;&gt;Node3</title>
<path fill="none" stroke="midnightblue" d="M109.763,-187.774C124.919,-174.784 146.186,-156.555 158.685,-145.841"/>
<polygon fill="midnightblue" stroke="midnightblue" points="107.381,-185.206 102.066,-194.372 111.937,-190.521 107.381,-185.206"/>
</g>
<!-- Node5 -->
<g id="node5" class="node"><title>Node5</title>
<polygon fill="white" stroke="#bfbfbf" points="-0.5,-262.5 -0.5,-281.5 44.5,-281.5 44.5,-262.5 -0.5,-262.5"/>
<text text-anchor="middle" x="22" y="-269.5" font-family="Helvetica,sans-Serif" font-size="10.00">Stage</text>
</g>
<!-- Node5&#45;&gt;Node4 -->
<g id="edge4" class="edge"><title>Node5&#45;&gt;Node4</title>
<path fill="none" stroke="#9a32cd" stroke-dasharray="5,2" d="M28.0812,-252.731C31.1201,-245.63 35.3718,-237.82 41,-232 48.6607,-224.078 59.1541,-217.979 68.6316,-213.599"/>
<polygon fill="#9a32cd" stroke="#9a32cd" points="24.7211,-251.723 24.4777,-262.315 31.2733,-254.186 24.7211,-251.723"/>
<text text-anchor="middle" x="64.5" y="-235.5" font-family="Helvetica,sans-Serif" font-size="10.00"> myStage</text>
</g>
<!-- Node6 -->
<g id="node6" class="node"><title>Node6</title>
<polygon fill="white" stroke="#bfbfbf" points="68.5,-262.5 68.5,-281.5 115.5,-281.5 115.5,-262.5 68.5,-262.5"/>
<text text-anchor="middle" x="92" y="-269.5" font-family="Helvetica,sans-Serif" font-size="10.00">Scene</text>
</g>
<!-- Node6&#45;&gt;Node4 -->
<g id="edge5" class="edge"><title>Node6&#45;&gt;Node4</title>
<path fill="none" stroke="#9a32cd" stroke-dasharray="5,2" d="M92,-252.041C92,-239.472 92,-223.563 92,-213.841"/>
<polygon fill="#9a32cd" stroke="#9a32cd" points="88.5001,-252.372 92,-262.372 95.5001,-252.372 88.5001,-252.372"/>
<text text-anchor="middle" x="116.5" y="-235.5" font-family="Helvetica,sans-Serif" font-size="10.00"> myScene</text>
</g>
<!-- Node7 -->
<g id="node7" class="node"><title>Node7</title>
<polygon fill="white" stroke="#bfbfbf" points="134,-262.5 134,-281.5 206,-281.5 206,-262.5 134,-262.5"/>
<text text-anchor="middle" x="170" y="-269.5" font-family="Helvetica,sans-Serif" font-size="10.00">BorderPane</text>
</g>
<!-- Node7&#45;&gt;Node4 -->
<g id="edge6" class="edge"><title>Node7&#45;&gt;Node4</title>
<path fill="none" stroke="#9a32cd" stroke-dasharray="5,2" d="M161.279,-253.209C157.095,-245.975 151.557,-237.939 145,-232 136.351,-224.167 125.011,-217.988 115.041,-213.529"/>
<polygon fill="#9a32cd" stroke="#9a32cd" points="158.329,-255.117 166.114,-262.304 164.511,-251.832 158.329,-255.117"/>
<text text-anchor="middle" x="176" y="-235.5" font-family="Helvetica,sans-Serif" font-size="10.00"> myPane</text>
</g>
<!-- Node8 -->
<g id="node8" class="node"><title>Node8</title>
<polygon fill="white" stroke="#bfbfbf" points="172.5,-194.5 172.5,-213.5 217.5,-213.5 217.5,-194.5 172.5,-194.5"/>
<text text-anchor="middle" x="195" y="-201.5" font-family="Helvetica,sans-Serif" font-size="10.00">Insets</text>
</g>
<!-- Node8&#45;&gt;Node3 -->
<g id="edge7" class="edge"><title>Node8&#45;&gt;Node3</title>
<path fill="none" stroke="#9a32cd" stroke-dasharray="5,2" d="M187.833,-184.807C182.837,-172.124 176.391,-155.762 172.483,-145.841"/>
<polygon fill="#9a32cd" stroke="#9a32cd" points="184.679,-186.35 191.601,-194.372 191.192,-183.785 184.679,-186.35"/>
<text text-anchor="middle" x="218" y="-167.5" font-family="Helvetica,sans-Serif" font-size="10.00"> TEXT_INSETS</text>
</g>
<!-- Node9 -->
<g id="node9" class="node"><title>Node9</title>
<polygon fill="white" stroke="#bfbfbf" points="261,-68.5 261,-87.5 317,-87.5 317,-68.5 261,-68.5"/>
<text text-anchor="middle" x="289" y="-75.5" font-family="Helvetica,sans-Serif" font-size="10.00">TextField</text>
</g>
<!-- Node9&#45;&gt;Node1 -->
<g id="edge8" class="edge"><title>Node9&#45;&gt;Node1</title>
<path fill="none" stroke="#9a32cd" stroke-dasharray="5,2" d="M280.903,-59.1859C275.115,-46.4523 267.573,-29.8607 263.019,-19.8411"/>
<polygon fill="#9a32cd" stroke="#9a32cd" points="277.754,-60.7163 285.078,-68.3717 284.126,-57.8196 277.754,-60.7163"/>
<text text-anchor="middle" x="306" y="-41.5" font-family="Helvetica,sans-Serif" font-size="10.00"> myTextField</text>
</g>
</g>
</svg>
