<?xml version="1.0" encoding="UTF-8" standalone="no"?>
<!DOCTYPE svg PUBLIC "-//W3C//DTD SVG 1.1//EN"
 "http://www.w3.org/Graphics/SVG/1.1/DTD/svg11.dtd">
<!-- Generated by graphviz version 2.36.0 (20140111.2315)
 -->
<!-- Title: parser.nodes.UnaryNode Pages: 1 -->
<!--zoomable 686 -->
<svg id="main" version="1.1" xmlns="http://www.w3.org/2000/svg" xmlns:xlink="http://www.w3.org/1999/xlink" xml:space="preserve" onload="init(evt)">
<style type="text/css"><![CDATA[
.edge:hover path { stroke: red; }
.edge:hover polygon { stroke: red; fill: red; }
]]></style>
<script type="text/javascript"><![CDATA[
var edges = document.getElementsByTagName('g');
if (edges && edges.length) {
  for (var i=0;i<edges.length;i++) {
    if (edges[i].id.substr(0,4)=='edge') {
      edges[i].setAttribute('class','edge');
    }
  }
}
]]></script>
        <defs>
                <circle id="rim" cx="0" cy="0" r="7"/>
                <circle id="rim2" cx="0" cy="0" r="3.5"/>
                <g id="zoomPlus">
                        <use xlink:href="#rim" fill="#404040">
                                <set attributeName="fill" to="#808080" begin="zoomplus.mouseover" end="zoomplus.mouseout"/>
                        </use>
                        <path d="M-4,0h8M0,-4v8" fill="none" stroke="white" stroke-width="1.5" pointer-events="none"/>
                </g>
                <g id="zoomMin">
                        <use xlink:href="#rim" fill="#404040">
                                <set attributeName="fill" to="#808080" begin="zoomminus.mouseover" end="zoomminus.mouseout"/>
                        </use>
                        <path d="M-4,0h8" fill="none" stroke="white" stroke-width="1.5" pointer-events="none"/>
                </g>
                <g id="dirArrow">
                        <path fill="none" stroke="white" stroke-width="1.5" d="M0,-3.0v7 M-2.5,-0.5L0,-3.0L2.5,-0.5"/>
                </g>
               <g id="resetDef">
                       <use xlink:href="#rim2" fill="#404040">
                               <set attributeName="fill" to="#808080" begin="reset.mouseover" end="reset.mouseout"/>
                       </use>
               </g>
        </defs>

<script type="text/javascript">
var viewWidth = 536;
var viewHeight = 686;
var sectionId = 'dynsection-0';
</script>
<script xlink:href="../../svgpan.js"/>
<svg id="graph" class="graph">
<g id="viewport">
<title>parser.nodes.UnaryNode</title>
<polygon fill="white" stroke="none" points="-4,4 -4,-682 532,-682 532,4 -4,4"/>
<!-- Node1 -->
<g id="node1" class="node"><title>Node1</title>
<polygon fill="#bfbfbf" stroke="black" points="176,-335.5 176,-354.5 312,-354.5 312,-335.5 176,-335.5"/>
<text text-anchor="middle" x="244" y="-342.5" font-family="Helvetica,sans-Serif" font-size="10.00">parser.nodes.UnaryNode</text>
</g>
<!-- Node3 -->
<g id="node3" class="node"><title>Node3</title>
<g id="a_node3"><a xlink:href="../../d9/da9/classparser_1_1commands_1_1_arc_tangent.html" target="_top" xlink:title="parser.commands.ArcTangent">
<polygon fill="white" stroke="black" points="358,-658.5 358,-677.5 518,-677.5 518,-658.5 358,-658.5"/>
<text text-anchor="middle" x="438" y="-665.5" font-family="Helvetica,sans-Serif" font-size="10.00">parser.commands.ArcTangent</text>
</a>
</g>
</g>
<!-- Node1&#45;&gt;Node3 -->
<g id="edge2" class="edge"><title>Node1&#45;&gt;Node3</title>
<path fill="none" stroke="midnightblue" d="M245.367,-364.778C247.509,-419.136 261.335,-571.874 348,-649 352.249,-652.781 357.063,-655.875 362.199,-658.399"/>
<polygon fill="midnightblue" stroke="midnightblue" points="248.864,-364.624 245.066,-354.734 241.868,-364.835 248.864,-364.624"/>
</g>
<!-- Node4 -->
<g id="node4" class="node"><title>Node4</title>
<g id="a_node4"><a xlink:href="../../dd/da8/classparser_1_1commands_1_1_backward.html" target="_top" xlink:title="parser.commands.Backward">
<polygon fill="white" stroke="black" points="362,-620.5 362,-639.5 514,-639.5 514,-620.5 362,-620.5"/>
<text text-anchor="middle" x="438" y="-627.5" font-family="Helvetica,sans-Serif" font-size="10.00">parser.commands.Backward</text>
</a>
</g>
</g>
<!-- Node1&#45;&gt;Node4 -->
<g id="edge3" class="edge"><title>Node1&#45;&gt;Node4</title>
<path fill="none" stroke="midnightblue" d="M246.434,-364.603C251.161,-414.152 270.726,-545.137 348,-611 352.449,-614.792 357.471,-617.885 362.808,-620.401"/>
<polygon fill="midnightblue" stroke="midnightblue" points="249.916,-364.242 245.579,-354.576 242.941,-364.837 249.916,-364.242"/>
</g>
<!-- Node5 -->
<g id="node5" class="node"><title>Node5</title>
<g id="a_node5"><a xlink:href="../../d3/d32/classparser_1_1commands_1_1_cosine.html" target="_top" xlink:title="parser.commands.Cosine">
<polygon fill="white" stroke="black" points="368.5,-582.5 368.5,-601.5 507.5,-601.5 507.5,-582.5 368.5,-582.5"/>
<text text-anchor="middle" x="438" y="-589.5" font-family="Helvetica,sans-Serif" font-size="10.00">parser.commands.Cosine</text>
</a>
</g>
</g>
<!-- Node1&#45;&gt;Node5 -->
<g id="edge4" class="edge"><title>Node1&#45;&gt;Node5</title>
<path fill="none" stroke="midnightblue" d="M247.859,-364.767C255.409,-409.4 280.182,-518.336 348,-573 354.028,-577.858 361.008,-581.553 368.357,-584.351"/>
<polygon fill="midnightblue" stroke="midnightblue" points="251.278,-363.983 246.262,-354.652 244.364,-365.075 251.278,-363.983"/>
</g>
<!-- Node6 -->
<g id="node6" class="node"><title>Node6</title>
<g id="a_node6"><a xlink:href="../../d1/dfa/classparser_1_1commands_1_1_forward.html" target="_top" xlink:title="parser.commands.Forward">
<polygon fill="white" stroke="black" points="366,-544.5 366,-563.5 510,-563.5 510,-544.5 366,-544.5"/>
<text text-anchor="middle" x="438" y="-551.5" font-family="Helvetica,sans-Serif" font-size="10.00">parser.commands.Forward</text>
</a>
</g>
</g>
<!-- Node1&#45;&gt;Node6 -->
<g id="edge5" class="edge"><title>Node1&#45;&gt;Node6</title>
<path fill="none" stroke="midnightblue" d="M249.746,-364.643C260.258,-403.703 289.351,-491.134 348,-535 353.44,-539.069 359.564,-542.307 365.988,-544.879"/>
<polygon fill="midnightblue" stroke="midnightblue" points="253.091,-363.597 247.215,-354.781 246.311,-365.337 253.091,-363.597"/>
</g>
<!-- Node7 -->
<g id="node7" class="node"><title>Node7</title>
<g id="a_node7"><a xlink:href="../../d7/d13/classparser_1_1commands_1_1_left.html" target="_top" xlink:title="parser.commands.Left">
<polygon fill="white" stroke="black" points="375.5,-506.5 375.5,-525.5 500.5,-525.5 500.5,-506.5 375.5,-506.5"/>
<text text-anchor="middle" x="438" y="-513.5" font-family="Helvetica,sans-Serif" font-size="10.00">parser.commands.Left</text>
</a>
</g>
</g>
<!-- Node1&#45;&gt;Node7 -->
<g id="edge6" class="edge"><title>Node1&#45;&gt;Node7</title>
<path fill="none" stroke="midnightblue" d="M252.293,-364.081C265.844,-396.823 298.14,-463.415 348,-497 356.124,-502.473 365.534,-506.409 375.129,-509.232"/>
<polygon fill="midnightblue" stroke="midnightblue" points="255.515,-362.712 248.553,-354.725 249.015,-365.31 255.515,-362.712"/>
</g>
<!-- Node8 -->
<g id="node8" class="node"><title>Node8</title>
<g id="a_node8"><a xlink:href="../../db/d9e/classparser_1_1commands_1_1_minus.html" target="_top" xlink:title="parser.commands.Minus">
<polygon fill="white" stroke="black" points="371,-468.5 371,-487.5 505,-487.5 505,-468.5 371,-468.5"/>
<text text-anchor="middle" x="438" y="-475.5" font-family="Helvetica,sans-Serif" font-size="10.00">parser.commands.Minus</text>
</a>
</g>
</g>
<!-- Node1&#45;&gt;Node8 -->
<g id="edge7" class="edge"><title>Node1&#45;&gt;Node8</title>
<path fill="none" stroke="midnightblue" d="M256.34,-363.594C273.054,-389.311 306.819,-435.247 348,-459 354.98,-463.026 362.711,-466.202 370.617,-468.707"/>
<polygon fill="midnightblue" stroke="midnightblue" points="259.092,-361.397 250.789,-354.816 253.176,-365.138 259.092,-361.397"/>
</g>
<!-- Node9 -->
<g id="node9" class="node"><title>Node9</title>
<g id="a_node9"><a xlink:href="../../d6/dbc/classparser_1_1commands_1_1_natural_log.html" target="_top" xlink:title="parser.commands.NaturalLog">
<polygon fill="white" stroke="black" points="358.5,-430.5 358.5,-449.5 517.5,-449.5 517.5,-430.5 358.5,-430.5"/>
<text text-anchor="middle" x="438" y="-437.5" font-family="Helvetica,sans-Serif" font-size="10.00">parser.commands.NaturalLog</text>
</a>
</g>
</g>
<!-- Node1&#45;&gt;Node9 -->
<g id="edge8" class="edge"><title>Node1&#45;&gt;Node9</title>
<path fill="none" stroke="midnightblue" d="M262.293,-361.435C281.642,-378.892 314.665,-405.993 348,-421 356.644,-424.891 366.125,-428.003 375.576,-430.485"/>
<polygon fill="midnightblue" stroke="midnightblue" points="264.605,-358.806 254.877,-354.608 259.864,-363.956 264.605,-358.806"/>
</g>
<!-- Node10 -->
<g id="node10" class="node"><title>Node10</title>
<g id="a_node10"><a xlink:href="../../d0/d09/classparser_1_1commands_1_1_not.html" target="_top" xlink:title="parser.commands.Not">
<polygon fill="white" stroke="black" points="376,-392.5 376,-411.5 500,-411.5 500,-392.5 376,-392.5"/>
<text text-anchor="middle" x="438" y="-399.5" font-family="Helvetica,sans-Serif" font-size="10.00">parser.commands.Not</text>
</a>
</g>
</g>
<!-- Node1&#45;&gt;Node10 -->
<g id="edge9" class="edge"><title>Node1&#45;&gt;Node10</title>
<path fill="none" stroke="midnightblue" d="M277.313,-358.277C297.412,-366.194 323.928,-376.029 348,-383 360.293,-386.56 373.716,-389.769 386.325,-392.493"/>
<polygon fill="midnightblue" stroke="midnightblue" points="278.586,-355.016 268.001,-354.565 275.994,-361.519 278.586,-355.016"/>
</g>
<!-- Node11 -->
<g id="node11" class="node"><title>Node11</title>
<g id="a_node11"><a xlink:href="../../dc/d24/classparser_1_1commands_1_1_right.html" target="_top" xlink:title="parser.commands.Right">
<polygon fill="white" stroke="black" points="372.5,-354.5 372.5,-373.5 503.5,-373.5 503.5,-354.5 372.5,-354.5"/>
<text text-anchor="middle" x="438" y="-361.5" font-family="Helvetica,sans-Serif" font-size="10.00">parser.commands.Right</text>
</a>
</g>
</g>
<!-- Node1&#45;&gt;Node11 -->
<g id="edge10" class="edge"><title>Node1&#45;&gt;Node11</title>
<path fill="none" stroke="midnightblue" d="M322.382,-352.658C339.003,-354.302 356.398,-356.024 372.47,-357.614"/>
<polygon fill="midnightblue" stroke="midnightblue" points="322.448,-349.147 312.152,-351.645 321.759,-356.113 322.448,-349.147"/>
</g>
<!-- Node12 -->
<g id="node12" class="node"><title>Node12</title>
<g id="a_node12"><a xlink:href="../../df/d11/classparser_1_1commands_1_1_set_background.html" target="_top" xlink:title="parser.commands.SetBackground">
<polygon fill="white" stroke="black" points="348,-316.5 348,-335.5 528,-335.5 528,-316.5 348,-316.5"/>
<text text-anchor="middle" x="438" y="-323.5" font-family="Helvetica,sans-Serif" font-size="10.00">parser.commands.SetBackground</text>
</a>
</g>
</g>
<!-- Node1&#45;&gt;Node12 -->
<g id="edge11" class="edge"><title>Node1&#45;&gt;Node12</title>
<path fill="none" stroke="midnightblue" d="M322.322,-337.348C330.757,-336.514 339.391,-335.659 347.951,-334.812"/>
<polygon fill="midnightblue" stroke="midnightblue" points="321.759,-333.887 312.152,-338.355 322.448,-340.853 321.759,-333.887"/>
</g>
<!-- Node13 -->
<g id="node13" class="node"><title>Node13</title>
<g id="a_node13"><a xlink:href="../../d4/d47/classparser_1_1commands_1_1_set_heading.html" target="_top" xlink:title="parser.commands.SetHeading">
<polygon fill="white" stroke="black" points="356.5,-278.5 356.5,-297.5 519.5,-297.5 519.5,-278.5 356.5,-278.5"/>
<text text-anchor="middle" x="438" y="-285.5" font-family="Helvetica,sans-Serif" font-size="10.00">parser.commands.SetHeading</text>
</a>
</g>
</g>
<!-- Node1&#45;&gt;Node13 -->
<g id="edge12" class="edge"><title>Node1&#45;&gt;Node13</title>
<path fill="none" stroke="midnightblue" d="M277.313,-331.723C297.412,-323.806 323.928,-313.971 348,-307 360.293,-303.44 373.716,-300.231 386.325,-297.507"/>
<polygon fill="midnightblue" stroke="midnightblue" points="275.994,-328.481 268.001,-335.435 278.586,-334.984 275.994,-328.481"/>
</g>
<!-- Node14 -->
<g id="node14" class="node"><title>Node14</title>
<g id="a_node14"><a xlink:href="../../d3/d41/classparser_1_1commands_1_1_set_pen_color.html" target="_top" xlink:title="parser.commands.SetPenColor">
<polygon fill="white" stroke="black" points="355,-240.5 355,-259.5 521,-259.5 521,-240.5 355,-240.5"/>
<text text-anchor="middle" x="438" y="-247.5" font-family="Helvetica,sans-Serif" font-size="10.00">parser.commands.SetPenColor</text>
</a>
</g>
</g>
<!-- Node1&#45;&gt;Node14 -->
<g id="edge13" class="edge"><title>Node1&#45;&gt;Node14</title>
<path fill="none" stroke="midnightblue" d="M262.293,-328.565C281.642,-311.108 314.665,-284.007 348,-269 356.644,-265.109 366.125,-261.997 375.576,-259.515"/>
<polygon fill="midnightblue" stroke="midnightblue" points="259.864,-326.044 254.877,-335.392 264.605,-331.194 259.864,-326.044"/>
</g>
<!-- Node15 -->
<g id="node15" class="node"><title>Node15</title>
<g id="a_node15"><a xlink:href="../../d4/d07/classparser_1_1commands_1_1_set_pen_size.html" target="_top" xlink:title="parser.commands.SetPenSize">
<polygon fill="white" stroke="black" points="357.5,-202.5 357.5,-221.5 518.5,-221.5 518.5,-202.5 357.5,-202.5"/>
<text text-anchor="middle" x="438" y="-209.5" font-family="Helvetica,sans-Serif" font-size="10.00">parser.commands.SetPenSize</text>
</a>
</g>
</g>
<!-- Node1&#45;&gt;Node15 -->
<g id="edge14" class="edge"><title>Node1&#45;&gt;Node15</title>
<path fill="none" stroke="midnightblue" d="M256.34,-326.406C273.054,-300.689 306.819,-254.753 348,-231 354.706,-227.132 362.106,-224.048 369.688,-221.591"/>
<polygon fill="midnightblue" stroke="midnightblue" points="253.176,-324.862 250.789,-335.184 259.092,-328.603 253.176,-324.862"/>
</g>
<!-- Node16 -->
<g id="node16" class="node"><title>Node16</title>
<g id="a_node16"><a xlink:href="../../d0/dd3/classparser_1_1commands_1_1_set_shape.html" target="_top" xlink:title="parser.commands.SetShape">
<polygon fill="white" stroke="black" points="361,-164.5 361,-183.5 515,-183.5 515,-164.5 361,-164.5"/>
<text text-anchor="middle" x="438" y="-171.5" font-family="Helvetica,sans-Serif" font-size="10.00">parser.commands.SetShape</text>
</a>
</g>
</g>
<!-- Node1&#45;&gt;Node16 -->
<g id="edge15" class="edge"><title>Node1&#45;&gt;Node16</title>
<path fill="none" stroke="midnightblue" d="M252.293,-325.919C265.844,-293.177 298.14,-226.585 348,-193 353.766,-189.116 360.179,-186.006 366.846,-183.519"/>
<polygon fill="midnightblue" stroke="midnightblue" points="249.015,-324.69 248.553,-335.275 255.515,-327.288 249.015,-324.69"/>
</g>
<!-- Node17 -->
<g id="node17" class="node"><title>Node17</title>
<g id="a_node17"><a xlink:href="../../df/d13/classparser_1_1commands_1_1_simple_turtle_command.html" target="_top" xlink:title="parser.commands.SimpleTurtle\lCommand">
<polygon fill="white" stroke="black" points="355.5,-115 355.5,-145 520.5,-145 520.5,-115 355.5,-115"/>
<text text-anchor="start" x="363.5" y="-133" font-family="Helvetica,sans-Serif" font-size="10.00">parser.commands.SimpleTurtle</text>
<text text-anchor="middle" x="438" y="-122" font-family="Helvetica,sans-Serif" font-size="10.00">Command</text>
</a>
</g>
</g>
<!-- Node1&#45;&gt;Node17 -->
<g id="edge16" class="edge"><title>Node1&#45;&gt;Node17</title>
<path fill="none" stroke="midnightblue" d="M250.058,-325.421C261.062,-286.801 290.896,-200.608 348,-155 352.891,-151.094 358.357,-147.798 364.11,-145.016"/>
<polygon fill="midnightblue" stroke="midnightblue" points="246.596,-324.813 247.341,-335.382 253.349,-326.655 246.596,-324.813"/>
</g>
<!-- Node18 -->
<g id="node18" class="node"><title>Node18</title>
<g id="a_node18"><a xlink:href="../../dc/d54/classparser_1_1commands_1_1_sine.html" target="_top" xlink:title="parser.commands.Sine">
<polygon fill="white" stroke="black" points="374,-76.5 374,-95.5 502,-95.5 502,-76.5 374,-76.5"/>
<text text-anchor="middle" x="438" y="-83.5" font-family="Helvetica,sans-Serif" font-size="10.00">parser.commands.Sine</text>
</a>
</g>
</g>
<!-- Node1&#45;&gt;Node18 -->
<g id="edge17" class="edge"><title>Node1&#45;&gt;Node18</title>
<path fill="none" stroke="midnightblue" d="M247.38,-325.156C254.042,-278.835 277.275,-163.118 348,-105 355.446,-98.8811 364.397,-94.5995 373.713,-91.6269"/>
<polygon fill="midnightblue" stroke="midnightblue" points="243.872,-324.986 246.025,-335.36 250.811,-325.908 243.872,-324.986"/>
</g>
<!-- Node19 -->
<g id="node19" class="node"><title>Node19</title>
<g id="a_node19"><a xlink:href="../../d8/d5f/classparser_1_1commands_1_1_tangent.html" target="_top" xlink:title="parser.commands.Tangent">
<polygon fill="white" stroke="black" points="366,-38.5 366,-57.5 510,-57.5 510,-38.5 366,-38.5"/>
<text text-anchor="middle" x="438" y="-45.5" font-family="Helvetica,sans-Serif" font-size="10.00">parser.commands.Tangent</text>
</a>
</g>
</g>
<!-- Node1&#45;&gt;Node19 -->
<g id="edge18" class="edge"><title>Node1&#45;&gt;Node19</title>
<path fill="none" stroke="midnightblue" d="M246.08,-325.211C249.994,-274.008 267.839,-136.341 348,-67 353.258,-62.452 359.337,-58.9061 365.801,-56.1522"/>
<polygon fill="midnightblue" stroke="midnightblue" points="242.582,-325.067 245.41,-335.278 249.566,-325.532 242.582,-325.067"/>
</g>
<!-- Node20 -->
<g id="node20" class="node"><title>Node20</title>
<g id="a_node20"><a xlink:href="../../dc/dd6/classparser_1_1commands_1_1_tell.html" target="_top" xlink:title="parser.commands.Tell">
<polygon fill="white" stroke="black" points="377.5,-0.5 377.5,-19.5 498.5,-19.5 498.5,-0.5 377.5,-0.5"/>
<text text-anchor="middle" x="438" y="-7.5" font-family="Helvetica,sans-Serif" font-size="10.00">parser.commands.Tell</text>
</a>
</g>
</g>
<!-- Node1&#45;&gt;Node20 -->
<g id="edge19" class="edge"><title>Node1&#45;&gt;Node20</title>
<path fill="none" stroke="midnightblue" d="M245.075,-325.217C246.426,-269.44 258.324,-109.741 348,-29 356.219,-21.5998 366.598,-16.826 377.34,-13.7956"/>
<polygon fill="midnightblue" stroke="midnightblue" points="241.572,-325.425 244.923,-335.476 248.571,-325.529 241.572,-325.425"/>
</g>
<!-- Node2 -->
<g id="node2" class="node"><title>Node2</title>
<g id="a_node2"><a xlink:href="../../da/d96/classparser_1_1nodes_1_1_syntax_node.html" target="_top" xlink:title="parser.nodes.SyntaxNode">
<polygon fill="white" stroke="black" points="0,-335.5 0,-354.5 140,-354.5 140,-335.5 0,-335.5"/>
<text text-anchor="middle" x="70" y="-342.5" font-family="Helvetica,sans-Serif" font-size="10.00">parser.nodes.SyntaxNode</text>
</a>
</g>
</g>
<!-- Node2&#45;&gt;Node1 -->
<g id="edge1" class="edge"><title>Node2&#45;&gt;Node1</title>
<path fill="none" stroke="midnightblue" d="M150.654,-345C159.059,-345 167.545,-345 175.789,-345"/>
<polygon fill="midnightblue" stroke="midnightblue" points="150.463,-341.5 140.463,-345 150.463,-348.5 150.463,-341.5"/>
</g>
</g>
</svg>
        <g id="navigator" transform="translate(0 0)" fill="#404254">
                <rect fill="#f2f5e9" fill-opacity="0.5" stroke="#606060" stroke-width=".5" x="0" y="0" width="60" height="60"/>
                <use id="zoomplus" xlink:href="#zoomPlus" x="17" y="9" onmousedown="handleZoom(evt,'in')"/>
                <use id="zoomminus" xlink:href="#zoomMin" x="42" y="9" onmousedown="handleZoom(evt,'out')"/>
                <use id="reset" xlink:href="#resetDef" x="30" y="36" onmousedown="handleReset()"/>
                <g id="arrowUp" xlink:href="#dirArrow" transform="translate(30 24)" onmousedown="handlePan(0,-1)">
                  <use xlink:href="#rim" fill="#404040">
                        <set attributeName="fill" to="#808080" begin="arrowUp.mouseover" end="arrowUp.mouseout"/>
                  </use>
                  <path fill="none" stroke="white" stroke-width="1.5" d="M0,-3.0v7 M-2.5,-0.5L0,-3.0L2.5,-0.5"/>
                </g>
                <g id="arrowRight" xlink:href="#dirArrow" transform="rotate(90) translate(36 -43)" onmousedown="handlePan(1,0)">
                  <use xlink:href="#rim" fill="#404040">
                        <set attributeName="fill" to="#808080" begin="arrowRight.mouseover" end="arrowRight.mouseout"/>
                  </use>
                  <path fill="none" stroke="white" stroke-width="1.5" d="M0,-3.0v7 M-2.5,-0.5L0,-3.0L2.5,-0.5"/>
                </g>
                <g id="arrowDown" xlink:href="#dirArrow" transform="rotate(180) translate(-30 -48)" onmousedown="handlePan(0,1)">
                  <use xlink:href="#rim" fill="#404040">
                        <set attributeName="fill" to="#808080" begin="arrowDown.mouseover" end="arrowDown.mouseout"/>
                  </use>
                  <path fill="none" stroke="white" stroke-width="1.5" d="M0,-3.0v7 M-2.5,-0.5L0,-3.0L2.5,-0.5"/>
                </g>
                <g id="arrowLeft" xlink:href="#dirArrow" transform="rotate(270) translate(-36 17)" onmousedown="handlePan(-1,0)">
                  <use xlink:href="#rim" fill="#404040">
                        <set attributeName="fill" to="#808080" begin="arrowLeft.mouseover" end="arrowLeft.mouseout"/>
                  </use>
                  <path fill="none" stroke="white" stroke-width="1.5" d="M0,-3.0v7 M-2.5,-0.5L0,-3.0L2.5,-0.5"/>
                </g>
        </g>
        <svg viewBox="0 0 15 15" width="100%" height="30px" preserveAspectRatio="xMaxYMin meet">
         <g id="arrow_out" transform="scale(0.3 0.3)">
          <a xlink:href="classparser_1_1nodes_1_1_unary_node__inherit__graph_org.svg" target="_base">
           <rect id="button" ry="5" rx="5" y="6" x="6" height="38" width="38"
                fill="#f2f5e9" fill-opacity="0.5" stroke="#606060" stroke-width="1.0"/>
           <path id="arrow"
             d="M 11.500037,31.436501 C 11.940474,20.09759 22.043105,11.32322 32.158766,21.979434 L 37.068811,17.246167 C 37.068811,17.246167 37.088388,32 37.088388,32 L 22.160133,31.978069 C 22.160133,31.978069 26.997745,27.140456 26.997745,27.140456 C 18.528582,18.264221 13.291696,25.230495 11.500037,31.436501 z"
             style="fill:#404040;"/>
          </a>
         </g>
        </svg>
</svg>
