<?xml version="1.0" encoding="UTF-8" standalone="no"?>
<!DOCTYPE svg PUBLIC "-//W3C//DTD SVG 1.1//EN"
 "http://www.w3.org/Graphics/SVG/1.1/DTD/svg11.dtd">
<!-- Generated by graphviz version 2.36.0 (20140111.2315)
 -->
<!-- Title: parser.parser.CommandFactory.CommandFactory Pages: 1 -->
<svg width="1248pt" height="185pt"
 viewBox="0.00 0.00 1248.00 185.00" xmlns="http://www.w3.org/2000/svg" xmlns:xlink="http://www.w3.org/1999/xlink">
<g id="graph0" class="graph" transform="scale(1 1) rotate(0) translate(4 181)">
<title>parser.parser.CommandFactory.CommandFactory</title>
<polygon fill="white" stroke="none" points="-4,4 -4,-181 1244,-181 1244,4 -4,4"/>
<!-- Node1 -->
<g id="node1" class="node"><title>Node1</title>
<polygon fill="#bfbfbf" stroke="black" points="0.5,-76 0.5,-106 169.5,-106 169.5,-76 0.5,-76"/>
<text text-anchor="start" x="8.5" y="-94" font-family="Helvetica,sans-Serif" font-size="10.00">parser.parser.CommandFactory.</text>
<text text-anchor="middle" x="85" y="-83" font-family="Helvetica,sans-Serif" font-size="10.00">CommandFactory</text>
</g>
<!-- Node2 -->
<g id="node2" class="node"><title>Node2</title>
<g id="a_node2"><a xlink:href="../../d2/d66/classparser_1_1parser_1_1_command_factory.html#a2c91b8ed8cbfcb588f6e32f7363eefd9" target="_top" xlink:title="parser.parser.CommandFactory.get\lInstance">
<polygon fill="white" stroke="black" points="206.5,-76 206.5,-106 391.5,-106 391.5,-76 206.5,-76"/>
<text text-anchor="start" x="214.5" y="-94" font-family="Helvetica,sans-Serif" font-size="10.00">parser.parser.CommandFactory.get</text>
<text text-anchor="middle" x="299" y="-83" font-family="Helvetica,sans-Serif" font-size="10.00">Instance</text>
</a>
</g>
</g>
<!-- Node1&#45;&gt;Node2 -->
<g id="edge1" class="edge"><title>Node1&#45;&gt;Node2</title>
<path fill="none" stroke="midnightblue" d="M180.024,-91C188.8,-91 197.686,-91 206.439,-91"/>
<polygon fill="midnightblue" stroke="midnightblue" points="179.788,-87.5001 169.788,-91 179.788,-94.5001 179.788,-87.5001"/>
</g>
<!-- Node3 -->
<g id="node3" class="node"><title>Node3</title>
<g id="a_node3"><a xlink:href="../../d4/d3a/classparser_1_1parser_1_1_parser.html#a51f4baa200eb0c94b804119b1439a1aa" target="_top" xlink:title="parser.parser.Parser.parse">
<polygon fill="white" stroke="black" points="428,-81.5 428,-100.5 570,-100.5 570,-81.5 428,-81.5"/>
<text text-anchor="middle" x="499" y="-88.5" font-family="Helvetica,sans-Serif" font-size="10.00">parser.parser.Parser.parse</text>
</a>
</g>
</g>
<!-- Node2&#45;&gt;Node3 -->
<g id="edge2" class="edge"><title>Node2&#45;&gt;Node3</title>
<path fill="none" stroke="midnightblue" d="M402.015,-91C410.758,-91 419.468,-91 427.875,-91"/>
<polygon fill="midnightblue" stroke="midnightblue" points="401.755,-87.5001 391.755,-91 401.755,-94.5001 401.755,-87.5001"/>
</g>
<!-- Node4 -->
<g id="node4" class="node"><title>Node4</title>
<g id="a_node4"><a xlink:href="../../d3/d42/classmodel_1_1_model.html#a8a07e7f2040e8a2ab50ec2955504f6c4" target="_top" xlink:title="model.Model.parse">
<polygon fill="white" stroke="black" points="641,-103.5 641,-122.5 749,-122.5 749,-103.5 641,-103.5"/>
<text text-anchor="middle" x="695" y="-110.5" font-family="Helvetica,sans-Serif" font-size="10.00">model.Model.parse</text>
</a>
</g>
</g>
<!-- Node3&#45;&gt;Node4 -->
<g id="edge3" class="edge"><title>Node3&#45;&gt;Node4</title>
<path fill="none" stroke="midnightblue" d="M580,-100.072C600.498,-102.397 622.041,-104.84 640.812,-106.968"/>
<polygon fill="midnightblue" stroke="midnightblue" points="580.369,-96.5917 570.038,-98.9425 579.58,-103.547 580.369,-96.5917"/>
</g>
<!-- Node12 -->
<g id="node12" class="node"><title>Node12</title>
<g id="a_node12"><a xlink:href="../../d5/dc1/classparser_1_1commands_1_1_parser_test.html#a6a3cc2c0d6ca8b502de3cad94a6ad0a5" target="_top" xlink:title="parser.commands.ParserTest.test\lParse">
<polygon fill="white" stroke="black" points="606.5,-54 606.5,-84 783.5,-84 783.5,-54 606.5,-54"/>
<text text-anchor="start" x="614.5" y="-72" font-family="Helvetica,sans-Serif" font-size="10.00">parser.commands.ParserTest.test</text>
<text text-anchor="middle" x="695" y="-61" font-family="Helvetica,sans-Serif" font-size="10.00">Parse</text>
</a>
</g>
</g>
<!-- Node3&#45;&gt;Node12 -->
<g id="edge11" class="edge"><title>Node3&#45;&gt;Node12</title>
<path fill="none" stroke="midnightblue" d="M580.141,-81.9119C588.834,-80.9261 597.714,-79.9191 606.489,-78.924"/>
<polygon fill="midnightblue" stroke="midnightblue" points="579.58,-78.4529 570.038,-83.0575 580.369,-85.4083 579.58,-78.4529"/>
</g>
<!-- Node5 -->
<g id="node5" class="node"><title>Node5</title>
<g id="a_node5"><a xlink:href="../../d3/dbe/classview_1_1_view.html#ab8b25d25b79752feed7b786ed496f642" target="_top" xlink:title="view.View.loadLibrary">
<polygon fill="white" stroke="black" points="858,-147.5 858,-166.5 974,-166.5 974,-147.5 858,-147.5"/>
<text text-anchor="middle" x="916" y="-154.5" font-family="Helvetica,sans-Serif" font-size="10.00">view.View.loadLibrary</text>
</a>
</g>
</g>
<!-- Node4&#45;&gt;Node5 -->
<g id="edge4" class="edge"><title>Node4&#45;&gt;Node5</title>
<path fill="none" stroke="midnightblue" d="M753.736,-124.6C789.235,-131.732 834.161,-140.758 867.573,-147.471"/>
<polygon fill="midnightblue" stroke="midnightblue" points="754.013,-121.086 743.52,-122.547 752.634,-127.949 754.013,-121.086"/>
</g>
<!-- Node6 -->
<g id="node6" class="node"><title>Node6</title>
<g id="a_node6"><a xlink:href="../../da/df5/classview_1_1listwindows_1_1_commands_list_window.html#a3611428a65d6e7a436971f1b237e644e" target="_top" xlink:title="view.listwindows.Commands\lListWindow.parseCommand">
<polygon fill="white" stroke="black" points="841,-98 841,-128 991,-128 991,-98 841,-98"/>
<text text-anchor="start" x="849" y="-116" font-family="Helvetica,sans-Serif" font-size="10.00">view.listwindows.Commands</text>
<text text-anchor="middle" x="916" y="-105" font-family="Helvetica,sans-Serif" font-size="10.00">ListWindow.parseCommand</text>
</a>
</g>
</g>
<!-- Node4&#45;&gt;Node6 -->
<g id="edge5" class="edge"><title>Node4&#45;&gt;Node6</title>
<path fill="none" stroke="midnightblue" d="M759.31,-113C784.831,-113 814.451,-113 840.962,-113"/>
<polygon fill="midnightblue" stroke="midnightblue" points="759.014,-109.5 749.014,-113 759.014,-116.5 759.014,-109.5"/>
</g>
<!-- Node9 -->
<g id="node9" class="node"><title>Node9</title>
<g id="a_node9"><a xlink:href="../../db/d98/classview_1_1components_1_1_command_port.html#a687e2098038140e833e1bac1a759b587" target="_top" xlink:title="view.components.CommandPort.run\lCommand">
<polygon fill="white" stroke="black" points="820.5,-49 820.5,-79 1011.5,-79 1011.5,-49 820.5,-49"/>
<text text-anchor="start" x="828.5" y="-67" font-family="Helvetica,sans-Serif" font-size="10.00">view.components.CommandPort.run</text>
<text text-anchor="middle" x="916" y="-56" font-family="Helvetica,sans-Serif" font-size="10.00">Command</text>
</a>
</g>
</g>
<!-- Node4&#45;&gt;Node9 -->
<g id="edge8" class="edge"><title>Node4&#45;&gt;Node9</title>
<path fill="none" stroke="midnightblue" d="M748.262,-101.307C778.037,-94.6446 815.667,-86.2251 847.641,-79.0713"/>
<polygon fill="midnightblue" stroke="midnightblue" points="747.48,-97.8951 738.485,-103.494 749.008,-104.726 747.48,-97.8951"/>
</g>
<!-- Node7 -->
<g id="node7" class="node"><title>Node7</title>
<g id="a_node7"><a xlink:href="../../df/d26/classview_1_1listwindows_1_1_commands_history_window.html#af341417d427f8b0548670f1efbb3acac" target="_top" xlink:title="view.listwindows.Commands\lHistoryWindow.setButtonAction">
<polygon fill="white" stroke="black" points="1061.5,-147 1061.5,-177 1226.5,-177 1226.5,-147 1061.5,-147"/>
<text text-anchor="start" x="1069.5" y="-165" font-family="Helvetica,sans-Serif" font-size="10.00">view.listwindows.Commands</text>
<text text-anchor="middle" x="1144" y="-154" font-family="Helvetica,sans-Serif" font-size="10.00">HistoryWindow.setButtonAction</text>
</a>
</g>
</g>
<!-- Node6&#45;&gt;Node7 -->
<g id="edge6" class="edge"><title>Node6&#45;&gt;Node7</title>
<path fill="none" stroke="midnightblue" d="M996.263,-130.185C1021.54,-135.665 1049.29,-141.682 1073.79,-146.994"/>
<polygon fill="midnightblue" stroke="midnightblue" points="996.858,-126.733 986.343,-128.035 995.375,-133.574 996.858,-126.733"/>
</g>
<!-- Node8 -->
<g id="node8" class="node"><title>Node8</title>
<g id="a_node8"><a xlink:href="../../d7/dc7/classview_1_1listwindows_1_1_user_defined_commands_window.html#adaf32233789f6a07c42b4e459699bf53" target="_top" xlink:title="view.listwindows.UserDefined\lCommandsWindow.setButtonAction">
<polygon fill="white" stroke="black" points="1050.5,-98 1050.5,-128 1237.5,-128 1237.5,-98 1050.5,-98"/>
<text text-anchor="start" x="1058.5" y="-116" font-family="Helvetica,sans-Serif" font-size="10.00">view.listwindows.UserDefined</text>
<text text-anchor="middle" x="1144" y="-105" font-family="Helvetica,sans-Serif" font-size="10.00">CommandsWindow.setButtonAction</text>
</a>
</g>
</g>
<!-- Node6&#45;&gt;Node8 -->
<g id="edge7" class="edge"><title>Node6&#45;&gt;Node8</title>
<path fill="none" stroke="midnightblue" d="M1001.35,-113C1017.3,-113 1034.06,-113 1050.25,-113"/>
<polygon fill="midnightblue" stroke="midnightblue" points="1001,-109.5 991.001,-113 1001,-116.5 1001,-109.5"/>
</g>
<!-- Node10 -->
<g id="node10" class="node"><title>Node10</title>
<g id="a_node10"><a xlink:href="../../db/d98/classview_1_1components_1_1_command_port.html#a37ae451233579691839c4a52072c94e9" target="_top" xlink:title="view.components.CommandPort.\lCommandPort">
<polygon fill="white" stroke="black" points="1056.5,-49 1056.5,-79 1231.5,-79 1231.5,-49 1056.5,-49"/>
<text text-anchor="start" x="1064.5" y="-67" font-family="Helvetica,sans-Serif" font-size="10.00">view.components.CommandPort.</text>
<text text-anchor="middle" x="1144" y="-56" font-family="Helvetica,sans-Serif" font-size="10.00">CommandPort</text>
</a>
</g>
</g>
<!-- Node9&#45;&gt;Node10 -->
<g id="edge9" class="edge"><title>Node9&#45;&gt;Node10</title>
<path fill="none" stroke="midnightblue" d="M1021.7,-64C1033.32,-64 1045.06,-64 1056.42,-64"/>
<polygon fill="midnightblue" stroke="midnightblue" points="1021.53,-60.5001 1011.53,-64 1021.53,-67.5001 1021.53,-60.5001"/>
</g>
<!-- Node11 -->
<g id="node11" class="node"><title>Node11</title>
<g id="a_node11"><a xlink:href="../../db/d98/classview_1_1components_1_1_command_port.html#afcdcfbfa864e7438dc0f0a3f1c541294" target="_top" xlink:title="view.components.CommandPort.run\lCommand">
<polygon fill="white" stroke="black" points="1048.5,-0 1048.5,-30 1239.5,-30 1239.5,-0 1048.5,-0"/>
<text text-anchor="start" x="1056.5" y="-18" font-family="Helvetica,sans-Serif" font-size="10.00">view.components.CommandPort.run</text>
<text text-anchor="middle" x="1144" y="-7" font-family="Helvetica,sans-Serif" font-size="10.00">Command</text>
</a>
</g>
</g>
<!-- Node9&#45;&gt;Node11 -->
<g id="edge10" class="edge"><title>Node9&#45;&gt;Node11</title>
<path fill="none" stroke="midnightblue" d="M996.263,-46.8146C1021.54,-41.3353 1049.29,-35.3185 1073.79,-30.0062"/>
<polygon fill="midnightblue" stroke="midnightblue" points="995.375,-43.4259 986.343,-48.9654 996.858,-50.2669 995.375,-43.4259"/>
</g>
</g>
</svg>
