<?xml version="1.0" encoding="UTF-8" standalone="no"?>
<!DOCTYPE svg PUBLIC "-//W3C//DTD SVG 1.1//EN"
 "http://www.w3.org/Graphics/SVG/1.1/DTD/svg11.dtd">
<!-- Generated by graphviz version 2.36.0 (20140111.2315)
 -->
<!-- Title: parser.commands.BinaryTurtleCommand Pages: 1 -->
<svg width="347pt" height="208pt"
 viewBox="0.00 0.00 347.00 208.00" xmlns="http://www.w3.org/2000/svg" xmlns:xlink="http://www.w3.org/1999/xlink">
<g id="graph0" class="graph" transform="scale(1 1) rotate(0) translate(4 204)">
<title>parser.commands.BinaryTurtleCommand</title>
<polygon fill="white" stroke="none" points="-4,4 -4,-204 343,-204 343,4 -4,4"/>
<!-- Node1 -->
<g id="node1" class="node"><title>Node1</title>
<polygon fill="#bfbfbf" stroke="black" points="88,-57 88,-87 250,-87 250,-57 88,-57"/>
<text text-anchor="start" x="96" y="-75" font-family="Helvetica,sans-Serif" font-size="10.00">parser.commands.BinaryTurtle</text>
<text text-anchor="middle" x="169" y="-64" font-family="Helvetica,sans-Serif" font-size="10.00">Command</text>
</g>
<!-- Node4 -->
<g id="node4" class="node"><title>Node4</title>
<g id="a_node4"><a xlink:href="../../df/d76/classparser_1_1commands_1_1_set_position.html" target="_top" xlink:title="parser.commands.SetPosition">
<polygon fill="white" stroke="black" points="-0.5,-0.5 -0.5,-19.5 160.5,-19.5 160.5,-0.5 -0.5,-0.5"/>
<text text-anchor="middle" x="80" y="-7.5" font-family="Helvetica,sans-Serif" font-size="10.00">parser.commands.SetPosition</text>
</a>
</g>
</g>
<!-- Node1&#45;&gt;Node4 -->
<g id="edge3" class="edge"><title>Node1&#45;&gt;Node4</title>
<path fill="none" stroke="midnightblue" d="M139.445,-51.075C123.57,-40.3732 104.825,-27.736 92.6909,-19.5557"/>
<polygon fill="midnightblue" stroke="midnightblue" points="137.66,-54.093 147.908,-56.7808 141.573,-48.2888 137.66,-54.093"/>
</g>
<!-- Node5 -->
<g id="node5" class="node"><title>Node5</title>
<g id="a_node5"><a xlink:href="../../d7/d12/classparser_1_1commands_1_1_set_towards.html" target="_top" xlink:title="parser.commands.SetTowards">
<polygon fill="white" stroke="black" points="178.5,-0.5 178.5,-19.5 339.5,-19.5 339.5,-0.5 178.5,-0.5"/>
<text text-anchor="middle" x="259" y="-7.5" font-family="Helvetica,sans-Serif" font-size="10.00">parser.commands.SetTowards</text>
</a>
</g>
</g>
<!-- Node1&#45;&gt;Node5 -->
<g id="edge4" class="edge"><title>Node1&#45;&gt;Node5</title>
<path fill="none" stroke="midnightblue" d="M198.887,-51.075C214.94,-40.3732 233.896,-27.736 246.166,-19.5557"/>
<polygon fill="midnightblue" stroke="midnightblue" points="196.708,-48.3216 190.329,-56.7808 200.591,-54.146 196.708,-48.3216"/>
</g>
<!-- Node2 -->
<g id="node2" class="node"><title>Node2</title>
<g id="a_node2"><a xlink:href="../../db/d11/classparser_1_1nodes_1_1_binary_node.html" target="_top" xlink:title="parser.nodes.BinaryNode">
<polygon fill="white" stroke="black" points="100.5,-124.5 100.5,-143.5 237.5,-143.5 237.5,-124.5 100.5,-124.5"/>
<text text-anchor="middle" x="169" y="-131.5" font-family="Helvetica,sans-Serif" font-size="10.00">parser.nodes.BinaryNode</text>
</a>
</g>
</g>
<!-- Node2&#45;&gt;Node1 -->
<g id="edge1" class="edge"><title>Node2&#45;&gt;Node1</title>
<path fill="none" stroke="midnightblue" d="M169,-114.371C169,-105.585 169,-95.2721 169,-87.1408"/>
<polygon fill="midnightblue" stroke="midnightblue" points="165.5,-114.403 169,-124.403 172.5,-114.403 165.5,-114.403"/>
</g>
<!-- Node3 -->
<g id="node3" class="node"><title>Node3</title>
<g id="a_node3"><a xlink:href="../../da/d96/classparser_1_1nodes_1_1_syntax_node.html" target="_top" xlink:title="parser.nodes.SyntaxNode">
<polygon fill="white" stroke="black" points="99,-180.5 99,-199.5 239,-199.5 239,-180.5 99,-180.5"/>
<text text-anchor="middle" x="169" y="-187.5" font-family="Helvetica,sans-Serif" font-size="10.00">parser.nodes.SyntaxNode</text>
</a>
</g>
</g>
<!-- Node3&#45;&gt;Node2 -->
<g id="edge2" class="edge"><title>Node3&#45;&gt;Node2</title>
<path fill="none" stroke="midnightblue" d="M169,-169.805C169,-160.91 169,-150.78 169,-143.751"/>
<polygon fill="midnightblue" stroke="midnightblue" points="165.5,-170.083 169,-180.083 172.5,-170.083 165.5,-170.083"/>
</g>
</g>
</svg>
