<?xml version="1.0" encoding="UTF-8" standalone="no"?>
<!DOCTYPE svg PUBLIC "-//W3C//DTD SVG 1.1//EN"
 "http://www.w3.org/Graphics/SVG/1.1/DTD/svg11.dtd">
<!-- Generated by graphviz version 2.36.0 (20140111.2315)
 -->
<!-- Title: parser.commands.PenUp.execute Pages: 1 -->
<svg width="688pt" height="77pt"
 viewBox="0.00 0.00 688.00 77.00" xmlns="http://www.w3.org/2000/svg" xmlns:xlink="http://www.w3.org/1999/xlink">
<g id="graph0" class="graph" transform="scale(1 1) rotate(0) translate(4 73)">
<title>parser.commands.PenUp.execute</title>
<polygon fill="white" stroke="none" points="-4,4 -4,-73 684,-73 684,4 -4,4"/>
<!-- Node1 -->
<g id="node1" class="node"><title>Node1</title>
<polygon fill="#bfbfbf" stroke="black" points="0.5,-27.5 0.5,-46.5 179.5,-46.5 179.5,-27.5 0.5,-27.5"/>
<text text-anchor="middle" x="90" y="-34.5" font-family="Helvetica,sans-Serif" font-size="10.00">parser.commands.PenUp.execute</text>
</g>
<!-- Node2 -->
<g id="node2" class="node"><title>Node2</title>
<g id="a_node2"><a xlink:href="../../d7/dab/classmodel_1_1_state.html#a212cf725afb88937ea4ac5e10167d4a7" target="_top" xlink:title="model.State.getTurtle">
<polygon fill="white" stroke="black" points="221,-49.5 221,-68.5 341,-68.5 341,-49.5 221,-49.5"/>
<text text-anchor="middle" x="281" y="-56.5" font-family="Helvetica,sans-Serif" font-size="10.00">model.State.getTurtle</text>
</a>
</g>
</g>
<!-- Node1&#45;&gt;Node2 -->
<g id="edge1" class="edge"><title>Node1&#45;&gt;Node2</title>
<path fill="none" stroke="midnightblue" d="M172.799,-46.5216C185.425,-47.9913 198.36,-49.4969 210.679,-50.9309"/>
<polygon fill="midnightblue" stroke="midnightblue" points="210.524,-54.4364 220.861,-52.1161 211.333,-47.4833 210.524,-54.4364"/>
</g>
<!-- Node3 -->
<g id="node3" class="node"><title>Node3</title>
<g id="a_node3"><a xlink:href="../../d9/dea/classmodel_1_1_turtle_multiple.html#a6a540c1e091febf099dcf3db988e4d62" target="_top" xlink:title="model.TurtleMultiple.set\lPenUp">
<polygon fill="white" stroke="black" points="216,-0 216,-30 346,-30 346,-0 216,-0"/>
<text text-anchor="start" x="224" y="-18" font-family="Helvetica,sans-Serif" font-size="10.00">model.TurtleMultiple.set</text>
<text text-anchor="middle" x="281" y="-7" font-family="Helvetica,sans-Serif" font-size="10.00">PenUp</text>
</a>
</g>
</g>
<!-- Node1&#45;&gt;Node3 -->
<g id="edge2" class="edge"><title>Node1&#45;&gt;Node3</title>
<path fill="none" stroke="midnightblue" d="M172.799,-27.4784C183.686,-26.2112 194.802,-24.9173 205.554,-23.6656"/>
<polygon fill="midnightblue" stroke="midnightblue" points="206.205,-27.1136 215.733,-22.4808 205.395,-20.1606 206.205,-27.1136"/>
</g>
<!-- Node4 -->
<g id="node4" class="node"><title>Node4</title>
<g id="a_node4"><a xlink:href="../../d9/dea/classmodel_1_1_turtle_multiple.html#a39a093480efa352c2066e4ef8534f26e" target="_top" xlink:title="model.TurtleMultiple.get\lStream">
<polygon fill="white" stroke="black" points="382.5,-0 382.5,-30 513.5,-30 513.5,-0 382.5,-0"/>
<text text-anchor="start" x="390.5" y="-18" font-family="Helvetica,sans-Serif" font-size="10.00">model.TurtleMultiple.get</text>
<text text-anchor="middle" x="448" y="-7" font-family="Helvetica,sans-Serif" font-size="10.00">Stream</text>
</a>
</g>
</g>
<!-- Node3&#45;&gt;Node4 -->
<g id="edge3" class="edge"><title>Node3&#45;&gt;Node4</title>
<path fill="none" stroke="midnightblue" d="M346.266,-15C354.786,-15 363.579,-15 372.256,-15"/>
<polygon fill="midnightblue" stroke="midnightblue" points="372.367,-18.5001 382.367,-15 372.367,-11.5001 372.367,-18.5001"/>
</g>
<!-- Node5 -->
<g id="node5" class="node"><title>Node5</title>
<g id="a_node5"><a xlink:href="../../d9/dea/classmodel_1_1_turtle_multiple.html#a47e5a06bab25ead16ef3098a4257aa4b" target="_top" xlink:title="model.TurtleMultiple.set\lLastTurtle">
<polygon fill="white" stroke="black" points="550,-0 550,-30 680,-30 680,-0 550,-0"/>
<text text-anchor="start" x="558" y="-18" font-family="Helvetica,sans-Serif" font-size="10.00">model.TurtleMultiple.set</text>
<text text-anchor="middle" x="615" y="-7" font-family="Helvetica,sans-Serif" font-size="10.00">LastTurtle</text>
</a>
</g>
</g>
<!-- Node4&#45;&gt;Node5 -->
<g id="edge4" class="edge"><title>Node4&#45;&gt;Node5</title>
<path fill="none" stroke="midnightblue" d="M513.739,-15C522.305,-15 531.138,-15 539.847,-15"/>
<polygon fill="midnightblue" stroke="midnightblue" points="539.989,-18.5001 549.989,-15 539.989,-11.5001 539.989,-18.5001"/>
</g>
</g>
</svg>
