<?xml version="1.0" encoding="UTF-8" standalone="no"?>
<!DOCTYPE svg PUBLIC "-//W3C//DTD SVG 1.1//EN"
 "http://www.w3.org/Graphics/SVG/1.1/DTD/svg11.dtd">
<!-- Generated by graphviz version 2.36.0 (20140111.2315)
 -->
<!-- Title: parser.commands.PenDown.execute Pages: 1 -->
<svg width="700pt" height="77pt"
 viewBox="0.00 0.00 700.00 77.00" xmlns="http://www.w3.org/2000/svg" xmlns:xlink="http://www.w3.org/1999/xlink">
<g id="graph0" class="graph" transform="scale(1 1) rotate(0) translate(4 73)">
<title>parser.commands.PenDown.execute</title>
<polygon fill="white" stroke="none" points="-4,4 -4,-73 696,-73 696,4 -4,4"/>
<!-- Node1 -->
<g id="node1" class="node"><title>Node1</title>
<polygon fill="#bfbfbf" stroke="black" points="0,-27.5 0,-46.5 192,-46.5 192,-27.5 0,-27.5"/>
<text text-anchor="middle" x="96" y="-34.5" font-family="Helvetica,sans-Serif" font-size="10.00">parser.commands.PenDown.execute</text>
</g>
<!-- Node2 -->
<g id="node2" class="node"><title>Node2</title>
<g id="a_node2"><a xlink:href="../../d7/dab/classmodel_1_1_state.html#a212cf725afb88937ea4ac5e10167d4a7" target="_top" xlink:title="model.State.getTurtle">
<polygon fill="white" stroke="black" points="233,-49.5 233,-68.5 353,-68.5 353,-49.5 233,-49.5"/>
<text text-anchor="middle" x="293" y="-56.5" font-family="Helvetica,sans-Serif" font-size="10.00">model.State.getTurtle</text>
</a>
</g>
</g>
<!-- Node1&#45;&gt;Node2 -->
<g id="edge1" class="edge"><title>Node1&#45;&gt;Node2</title>
<path fill="none" stroke="midnightblue" d="M181.396,-46.5216C195.176,-48.0762 209.311,-49.671 222.675,-51.1787"/>
<polygon fill="midnightblue" stroke="midnightblue" points="222.395,-54.6692 232.724,-52.3125 223.18,-47.7134 222.395,-54.6692"/>
</g>
<!-- Node3 -->
<g id="node3" class="node"><title>Node3</title>
<g id="a_node3"><a xlink:href="../../d9/dea/classmodel_1_1_turtle_multiple.html#a6a540c1e091febf099dcf3db988e4d62" target="_top" xlink:title="model.TurtleMultiple.set\lPenUp">
<polygon fill="white" stroke="black" points="228,-0 228,-30 358,-30 358,-0 228,-0"/>
<text text-anchor="start" x="236" y="-18" font-family="Helvetica,sans-Serif" font-size="10.00">model.TurtleMultiple.set</text>
<text text-anchor="middle" x="293" y="-7" font-family="Helvetica,sans-Serif" font-size="10.00">PenUp</text>
</a>
</g>
</g>
<!-- Node1&#45;&gt;Node3 -->
<g id="edge2" class="edge"><title>Node1&#45;&gt;Node3</title>
<path fill="none" stroke="midnightblue" d="M181.396,-27.4784C193.417,-26.1222 205.709,-24.7354 217.523,-23.4026"/>
<polygon fill="midnightblue" stroke="midnightblue" points="218.218,-26.8464 227.762,-22.2473 217.433,-19.8906 218.218,-26.8464"/>
</g>
<!-- Node4 -->
<g id="node4" class="node"><title>Node4</title>
<g id="a_node4"><a xlink:href="../../d9/dea/classmodel_1_1_turtle_multiple.html#a39a093480efa352c2066e4ef8534f26e" target="_top" xlink:title="model.TurtleMultiple.get\lStream">
<polygon fill="white" stroke="black" points="394.5,-0 394.5,-30 525.5,-30 525.5,-0 394.5,-0"/>
<text text-anchor="start" x="402.5" y="-18" font-family="Helvetica,sans-Serif" font-size="10.00">model.TurtleMultiple.get</text>
<text text-anchor="middle" x="460" y="-7" font-family="Helvetica,sans-Serif" font-size="10.00">Stream</text>
</a>
</g>
</g>
<!-- Node3&#45;&gt;Node4 -->
<g id="edge3" class="edge"><title>Node3&#45;&gt;Node4</title>
<path fill="none" stroke="midnightblue" d="M358.266,-15C366.786,-15 375.579,-15 384.256,-15"/>
<polygon fill="midnightblue" stroke="midnightblue" points="384.367,-18.5001 394.367,-15 384.367,-11.5001 384.367,-18.5001"/>
</g>
<!-- Node5 -->
<g id="node5" class="node"><title>Node5</title>
<g id="a_node5"><a xlink:href="../../d9/dea/classmodel_1_1_turtle_multiple.html#a47e5a06bab25ead16ef3098a4257aa4b" target="_top" xlink:title="model.TurtleMultiple.set\lLastTurtle">
<polygon fill="white" stroke="black" points="562,-0 562,-30 692,-30 692,-0 562,-0"/>
<text text-anchor="start" x="570" y="-18" font-family="Helvetica,sans-Serif" font-size="10.00">model.TurtleMultiple.set</text>
<text text-anchor="middle" x="627" y="-7" font-family="Helvetica,sans-Serif" font-size="10.00">LastTurtle</text>
</a>
</g>
</g>
<!-- Node4&#45;&gt;Node5 -->
<g id="edge4" class="edge"><title>Node4&#45;&gt;Node5</title>
<path fill="none" stroke="midnightblue" d="M525.739,-15C534.305,-15 543.138,-15 551.847,-15"/>
<polygon fill="midnightblue" stroke="midnightblue" points="551.989,-18.5001 561.989,-15 551.989,-11.5001 551.989,-18.5001"/>
</g>
</g>
</svg>
