<?xml version="1.0" encoding="UTF-8" standalone="no"?>
<!DOCTYPE svg PUBLIC "-//W3C//DTD SVG 1.1//EN"
 "http://www.w3.org/Graphics/SVG/1.1/DTD/svg11.dtd">
<!-- Generated by graphviz version 2.36.0 (20140111.2315)
 -->
<!-- Title: view.toolbar.Toolbar Pages: 1 -->
<!--zoomable 452 -->
<svg id="main" version="1.1" xmlns="http://www.w3.org/2000/svg" xmlns:xlink="http://www.w3.org/1999/xlink" xml:space="preserve" onload="init(evt)">
<style type="text/css"><![CDATA[
.edge:hover path { stroke: red; }
.edge:hover polygon { stroke: red; fill: red; }
]]></style>
<script type="text/javascript"><![CDATA[
var edges = document.getElementsByTagName('g');
if (edges && edges.length) {
  for (var i=0;i<edges.length;i++) {
    if (edges[i].id.substr(0,4)=='edge') {
      edges[i].setAttribute('class','edge');
    }
  }
}
]]></script>
        <defs>
                <circle id="rim" cx="0" cy="0" r="7"/>
                <circle id="rim2" cx="0" cy="0" r="3.5"/>
                <g id="zoomPlus">
                        <use xlink:href="#rim" fill="#404040">
                                <set attributeName="fill" to="#808080" begin="zoomplus.mouseover" end="zoomplus.mouseout"/>
                        </use>
                        <path d="M-4,0h8M0,-4v8" fill="none" stroke="white" stroke-width="1.5" pointer-events="none"/>
                </g>
                <g id="zoomMin">
                        <use xlink:href="#rim" fill="#404040">
                                <set attributeName="fill" to="#808080" begin="zoomminus.mouseover" end="zoomminus.mouseout"/>
                        </use>
                        <path d="M-4,0h8" fill="none" stroke="white" stroke-width="1.5" pointer-events="none"/>
                </g>
                <g id="dirArrow">
                        <path fill="none" stroke="white" stroke-width="1.5" d="M0,-3.0v7 M-2.5,-0.5L0,-3.0L2.5,-0.5"/>
                </g>
               <g id="resetDef">
                       <use xlink:href="#rim2" fill="#404040">
                               <set attributeName="fill" to="#808080" begin="reset.mouseover" end="reset.mouseout"/>
                       </use>
               </g>
        </defs>

<script type="text/javascript">
var viewWidth = 974;
var viewHeight = 452;
var sectionId = 'dynsection-1';
</script>
<script xlink:href="../../svgpan.js"/>
<svg id="graph" class="graph">
<g id="viewport">
<title>view.toolbar.Toolbar</title>
<polygon fill="white" stroke="none" points="-4,4 -4,-448.23 970,-448.23 970,4 -4,4"/>
<!-- Node1 -->
<g id="node1" class="node"><title>Node1</title>
<polygon fill="#bfbfbf" stroke="black" points="856.5,-250.71 856.5,-269.71 965.5,-269.71 965.5,-250.71 856.5,-250.71"/>
<text text-anchor="middle" x="911" y="-257.71" font-family="Helvetica,sans-Serif" font-size="10.00">view.toolbar.Toolbar</text>
</g>
<!-- Node2 -->
<g id="node2" class="node"><title>Node2</title>
<polygon fill="white" stroke="#bfbfbf" points="339,-416.71 339,-435.71 385,-435.71 385,-416.71 339,-416.71"/>
<text text-anchor="middle" x="362" y="-423.71" font-family="Helvetica,sans-Serif" font-size="10.00">Group</text>
</g>
<!-- Node2&#45;&gt;Node1 -->
<g id="edge1" class="edge"><title>Node2&#45;&gt;Node1</title>
<path fill="none" stroke="midnightblue" d="M395.234,-433.603C434.314,-441.298 501.908,-450.518 558,-437.21 701.092,-403.259 852.113,-301.49 896.817,-269.763"/>
<polygon fill="midnightblue" stroke="midnightblue" points="395.502,-430.085 385.002,-431.493 394.089,-436.94 395.502,-430.085"/>
</g>
<!-- Node3 -->
<g id="node3" class="node"><title>Node3</title>
<g id="a_node3"><a xlink:href="../../d5/d4b/classview_1_1components_1_1_turtle_window.html" target="_top" xlink:title="view.components.TurtleWindow">
<polygon fill="white" stroke="black" points="576.5,-250.71 576.5,-269.71 739.5,-269.71 739.5,-250.71 576.5,-250.71"/>
<text text-anchor="middle" x="658" y="-257.71" font-family="Helvetica,sans-Serif" font-size="10.00">view.components.TurtleWindow</text>
</a>
</g>
</g>
<!-- Node2&#45;&gt;Node3 -->
<g id="edge3" class="edge"><title>Node2&#45;&gt;Node3</title>
<path fill="none" stroke="midnightblue" d="M394.963,-432.11C435.812,-437.917 507.296,-442.094 558,-412.21 614.975,-378.629 645.094,-297.859 654.078,-269.916"/>
<polygon fill="midnightblue" stroke="midnightblue" points="395.442,-428.643 385.026,-430.578 394.376,-435.561 395.442,-428.643"/>
</g>
<!-- Node2&#45;&gt;Node3 -->
<g id="edge15" class="edge"><title>Node2&#45;&gt;Node3</title>
<path fill="none" stroke="#9a32cd" stroke-dasharray="5,2" d="M395.44,-422.061C410.931,-419.047 429.259,-413.907 444,-405.21 454.018,-399.299 451.814,-391.826 462,-386.21 500.088,-365.208 520.036,-388.435 558,-367.21 602.18,-342.509 637.753,-291.095 651.203,-269.784"/>
<polygon fill="#9a32cd" stroke="#9a32cd" points="394.503,-418.671 385.247,-423.826 395.697,-425.569 394.503,-418.671"/>
<text text-anchor="middle" x="510" y="-400.21" font-family="Helvetica,sans-Serif" font-size="10.00"> myTImages</text>
<text text-anchor="middle" x="510" y="-389.21" font-family="Helvetica,sans-Serif" font-size="10.00">myLayers</text>
</g>
<!-- Node3&#45;&gt;Node1 -->
<g id="edge2" class="edge"><title>Node3&#45;&gt;Node1</title>
<path fill="none" stroke="#9a32cd" stroke-dasharray="5,2" d="M750.215,-260.21C785.822,-260.21 825.417,-260.21 856.284,-260.21"/>
<polygon fill="#9a32cd" stroke="#9a32cd" points="749.8,-256.71 739.8,-260.21 749.8,-263.71 749.8,-256.71"/>
<text text-anchor="middle" x="798" y="-263.21" font-family="Helvetica,sans-Serif" font-size="10.00"> myTurtleWindow</text>
</g>
<!-- Node4 -->
<g id="node4" class="node"><title>Node4</title>
<g id="a_node4"><a xlink:href="../../dd/db2/interfaceview_1_1components_1_1_observer.html" target="_top" xlink:title="view.components.Observer">
<polygon fill="white" stroke="black" points="289,-376.71 289,-395.71 435,-395.71 435,-376.71 289,-376.71"/>
<text text-anchor="middle" x="362" y="-383.71" font-family="Helvetica,sans-Serif" font-size="10.00">view.components.Observer</text>
</a>
</g>
</g>
<!-- Node4&#45;&gt;Node3 -->
<g id="edge4" class="edge"><title>Node4&#45;&gt;Node3</title>
<path fill="none" stroke="midnightblue" d="M426.443,-374.81C474.148,-365.636 535.069,-352.464 558,-341.21 595.878,-322.619 632.064,-287.006 648.205,-269.878"/>
<polygon fill="midnightblue" stroke="midnightblue" points="425.652,-371.397 416.482,-376.704 426.96,-378.274 425.652,-371.397"/>
</g>
<!-- Node5 -->
<g id="node5" class="node"><title>Node5</title>
<polygon fill="white" stroke="#bfbfbf" points="280,-327.21 280,-357.21 444,-357.21 444,-327.21 280,-327.21"/>
<text text-anchor="start" x="288" y="-345.21" font-family="Helvetica,sans-Serif" font-size="10.00">HashMap&lt; Integer, view.turtle.</text>
<text text-anchor="middle" x="362" y="-334.21" font-family="Helvetica,sans-Serif" font-size="10.00">TurtleImage &gt;</text>
</g>
<!-- Node5&#45;&gt;Node3 -->
<g id="edge5" class="edge"><title>Node5&#45;&gt;Node3</title>
<path fill="none" stroke="#9a32cd" stroke-dasharray="5,2" d="M454.193,-327.394C487.255,-321.006 524.657,-312.589 558,-302.21 586.522,-293.331 618.064,-279.144 637.709,-269.753"/>
<polygon fill="#9a32cd" stroke="#9a32cd" points="453.254,-324.009 444.081,-329.311 454.558,-330.887 453.254,-324.009"/>
<text text-anchor="middle" x="510" y="-329.21" font-family="Helvetica,sans-Serif" font-size="10.00"> myTurtles</text>
</g>
<!-- Node6 -->
<g id="node6" class="node"><title>Node6</title>
<polygon fill="white" stroke="#bfbfbf" points="322,-288.71 322,-307.71 402,-307.71 402,-288.71 322,-288.71"/>
<text text-anchor="middle" x="362" y="-295.71" font-family="Helvetica,sans-Serif" font-size="10.00">ContextMenu</text>
</g>
<!-- Node6&#45;&gt;Node3 -->
<g id="edge6" class="edge"><title>Node6&#45;&gt;Node3</title>
<path fill="none" stroke="#9a32cd" stroke-dasharray="5,2" d="M412.387,-292.38C451.826,-287.665 508.489,-280.757 558,-274.21 568.669,-272.799 579.978,-271.25 590.989,-269.713"/>
<polygon fill="#9a32cd" stroke="#9a32cd" points="411.759,-288.93 402.244,-293.59 412.588,-295.881 411.759,-288.93"/>
<text text-anchor="middle" x="510" y="-290.21" font-family="Helvetica,sans-Serif" font-size="10.00"> contextMenu</text>
</g>
<!-- Node7 -->
<g id="node7" class="node"><title>Node7</title>
<g id="a_node7"><a xlink:href="../../d5/d46/classview_1_1components_1_1_palette.html" target="_top" xlink:title="view.components.Palette">
<polygon fill="white" stroke="black" points="294.5,-250.71 294.5,-269.71 429.5,-269.71 429.5,-250.71 294.5,-250.71"/>
<text text-anchor="middle" x="362" y="-257.71" font-family="Helvetica,sans-Serif" font-size="10.00">view.components.Palette</text>
</a>
</g>
</g>
<!-- Node7&#45;&gt;Node3 -->
<g id="edge7" class="edge"><title>Node7&#45;&gt;Node3</title>
<path fill="none" stroke="#9a32cd" stroke-dasharray="5,2" d="M439.888,-260.21C481.888,-260.21 533.86,-260.21 576.423,-260.21"/>
<polygon fill="#9a32cd" stroke="#9a32cd" points="439.713,-256.71 429.713,-260.21 439.713,-263.71 439.713,-256.71"/>
<text text-anchor="middle" x="510" y="-263.21" font-family="Helvetica,sans-Serif" font-size="10.00"> myPalette</text>
</g>
<!-- Node8 -->
<g id="node8" class="node"><title>Node8</title>
<polygon fill="white" stroke="#bfbfbf" points="0.5,-270.21 0.5,-300.21 155.5,-300.21 155.5,-270.21 0.5,-270.21"/>
<text text-anchor="start" x="8.5" y="-288.21" font-family="Helvetica,sans-Serif" font-size="10.00">ArrayList&lt; view.components.</text>
<text text-anchor="middle" x="78" y="-277.21" font-family="Helvetica,sans-Serif" font-size="10.00">ImageIndex &gt;</text>
</g>
<!-- Node8&#45;&gt;Node7 -->
<g id="edge8" class="edge"><title>Node8&#45;&gt;Node7</title>
<path fill="none" stroke="#9a32cd" stroke-dasharray="5,2" d="M165.769,-277.517C207.183,-273.846 255.961,-269.522 294.4,-266.114"/>
<polygon fill="#9a32cd" stroke="#9a32cd" points="165.337,-274.042 155.685,-278.411 165.955,-281.014 165.337,-274.042"/>
<text text-anchor="middle" x="218" y="-280.21" font-family="Helvetica,sans-Serif" font-size="10.00"> myImagePalettes</text>
</g>
<!-- Node9 -->
<g id="node9" class="node"><title>Node9</title>
<polygon fill="white" stroke="#bfbfbf" points="0.5,-221.21 0.5,-251.21 155.5,-251.21 155.5,-221.21 0.5,-221.21"/>
<text text-anchor="start" x="8.5" y="-239.21" font-family="Helvetica,sans-Serif" font-size="10.00">ArrayList&lt; view.components.</text>
<text text-anchor="middle" x="78" y="-228.21" font-family="Helvetica,sans-Serif" font-size="10.00">ColorIndex &gt;</text>
</g>
<!-- Node9&#45;&gt;Node7 -->
<g id="edge9" class="edge"><title>Node9&#45;&gt;Node7</title>
<path fill="none" stroke="#9a32cd" stroke-dasharray="5,2" d="M165.769,-243.594C207.183,-247.119 255.961,-251.27 294.4,-254.541"/>
<polygon fill="#9a32cd" stroke="#9a32cd" points="165.946,-240.097 155.685,-242.736 165.352,-247.071 165.946,-240.097"/>
<text text-anchor="middle" x="218" y="-255.21" font-family="Helvetica,sans-Serif" font-size="10.00"> myColorPalettes</text>
</g>
<!-- Node10 -->
<g id="node10" class="node"><title>Node10</title>
<polygon fill="white" stroke="#bfbfbf" points="316.5,-212.71 316.5,-231.71 407.5,-231.71 407.5,-212.71 316.5,-212.71"/>
<text text-anchor="middle" x="362" y="-219.71" font-family="Helvetica,sans-Serif" font-size="10.00">IntegerProperty</text>
</g>
<!-- Node10&#45;&gt;Node3 -->
<g id="edge10" class="edge"><title>Node10&#45;&gt;Node3</title>
<path fill="none" stroke="#9a32cd" stroke-dasharray="5,2" d="M417.704,-228.174C456.825,-232.558 510.706,-238.839 558,-245.21 570.404,-246.88 583.662,-248.798 596.312,-250.691"/>
<polygon fill="#9a32cd" stroke="#9a32cd" points="417.911,-224.675 407.585,-227.045 417.135,-231.632 417.911,-224.675"/>
<text text-anchor="middle" x="510" y="-248.21" font-family="Helvetica,sans-Serif" font-size="10.00"> bgColorID</text>
</g>
<!-- Node11 -->
<g id="node11" class="node"><title>Node11</title>
<polygon fill="white" stroke="#bfbfbf" points="314,-174.71 314,-193.71 410,-193.71 410,-174.71 314,-174.71"/>
<text text-anchor="middle" x="362" y="-181.71" font-family="Helvetica,sans-Serif" font-size="10.00">GraphicsContext</text>
</g>
<!-- Node11&#45;&gt;Node3 -->
<g id="edge11" class="edge"><title>Node11&#45;&gt;Node3</title>
<path fill="none" stroke="#9a32cd" stroke-dasharray="5,2" d="M420.345,-184.174C461.244,-186.51 516.175,-194.629 558,-219.21 568.892,-225.611 565.281,-234.523 576,-241.21 582.25,-245.108 589.225,-248.208 596.387,-250.672"/>
<polygon fill="#9a32cd" stroke="#9a32cd" points="420.419,-180.674 410.265,-183.699 420.089,-187.666 420.419,-180.674"/>
<text text-anchor="middle" x="510" y="-222.21" font-family="Helvetica,sans-Serif" font-size="10.00"> mainGC</text>
</g>
<!-- Node12 -->
<g id="node12" class="node"><title>Node12</title>
<polygon fill="white" stroke="#bfbfbf" points="340.5,-136.71 340.5,-155.71 383.5,-155.71 383.5,-136.71 340.5,-136.71"/>
<text text-anchor="middle" x="362" y="-143.71" font-family="Helvetica,sans-Serif" font-size="10.00">Menu</text>
</g>
<!-- Node12&#45;&gt;Node3 -->
<g id="edge12" class="edge"><title>Node12&#45;&gt;Node3</title>
<path fill="none" stroke="#9a32cd" stroke-dasharray="5,2" d="M393.617,-138.921C435.971,-130.805 512.364,-123.547 558,-163.21 584.853,-186.548 550.888,-216.007 576,-241.21 579.772,-244.995 584.146,-248.084 588.869,-250.597"/>
<polygon fill="#9a32cd" stroke="#9a32cd" points="392.713,-135.533 383.622,-140.975 394.122,-142.39 392.713,-135.533"/>
<text text-anchor="middle" x="510" y="-177.21" font-family="Helvetica,sans-Serif" font-size="10.00"> imagePalettes</text>
<text text-anchor="middle" x="510" y="-166.21" font-family="Helvetica,sans-Serif" font-size="10.00">colorPalettes</text>
</g>
<!-- Node13 -->
<g id="node13" class="node"><title>Node13</title>
<polygon fill="white" stroke="#bfbfbf" points="324,-95.7096 324,-114.71 400,-114.71 400,-95.7096 324,-95.7096"/>
<text text-anchor="middle" x="362" y="-102.71" font-family="Helvetica,sans-Serif" font-size="10.00">ToggleGroup</text>
</g>
<!-- Node13&#45;&gt;Node3 -->
<g id="edge13" class="edge"><title>Node13&#45;&gt;Node3</title>
<path fill="none" stroke="#9a32cd" stroke-dasharray="5,2" d="M410.496,-98.8836C461.149,-93.288 536.936,-88.5946 558,-107.21 603.027,-147.002 535.617,-196.712 576,-241.21 579.397,-244.953 583.38,-248.028 587.724,-250.548"/>
<polygon fill="#9a32cd" stroke="#9a32cd" points="409.944,-95.4239 400.411,-100.046 410.746,-102.378 409.944,-95.4239"/>
<text text-anchor="middle" x="510" y="-121.21" font-family="Helvetica,sans-Serif" font-size="10.00"> imagePaletteGroup</text>
<text text-anchor="middle" x="510" y="-110.21" font-family="Helvetica,sans-Serif" font-size="10.00">colorPaletteGroup</text>
</g>
<!-- Node14 -->
<g id="node14" class="node"><title>Node14</title>
<polygon fill="white" stroke="#bfbfbf" points="284.5,-46.2096 284.5,-76.2096 439.5,-76.2096 439.5,-46.2096 284.5,-46.2096"/>
<text text-anchor="start" x="292.5" y="-64.2096" font-family="Helvetica,sans-Serif" font-size="10.00">HashMap&lt; Integer, Graphics</text>
<text text-anchor="middle" x="362" y="-53.2096" font-family="Helvetica,sans-Serif" font-size="10.00">Context &gt;</text>
</g>
<!-- Node14&#45;&gt;Node3 -->
<g id="edge14" class="edge"><title>Node14&#45;&gt;Node3</title>
<path fill="none" stroke="#9a32cd" stroke-dasharray="5,2" d="M449.706,-46.6575C487.763,-45.3849 530.048,-51.7729 558,-79.2096 609.699,-129.956 527.932,-187.011 576,-241.21 579.354,-244.992 583.306,-248.095 587.628,-250.634"/>
<polygon fill="#9a32cd" stroke="#9a32cd" points="449.426,-43.1671 439.618,-47.1726 449.783,-50.158 449.426,-43.1671"/>
<text text-anchor="middle" x="510" y="-82.2096" font-family="Helvetica,sans-Serif" font-size="10.00"> gc</text>
</g>
<!-- Node15 -->
<g id="node15" class="node"><title>Node15</title>
<polygon fill="white" stroke="#bfbfbf" points="336,-7.70957 336,-26.7096 388,-26.7096 388,-7.70957 336,-7.70957"/>
<text text-anchor="middle" x="362" y="-14.7096" font-family="Helvetica,sans-Serif" font-size="10.00">Canvas</text>
</g>
<!-- Node15&#45;&gt;Node3 -->
<g id="edge16" class="edge"><title>Node15&#45;&gt;Node3</title>
<path fill="none" stroke="#9a32cd" stroke-dasharray="5,2" d="M397.952,-7.89852C441.787,1.43996 516.245,9.16508 558,-32.2096 591.113,-65.0213 545.503,-205.953 576,-241.21 579.213,-244.924 583.001,-247.987 587.155,-250.505"/>
<polygon fill="#9a32cd" stroke="#9a32cd" points="397.009,-4.52344 388.033,-10.1511 398.559,-11.3496 397.009,-4.52344"/>
<text text-anchor="middle" x="510" y="-35.2096" font-family="Helvetica,sans-Serif" font-size="10.00"> mainCanvas</text>
</g>
<!-- Node16 -->
<g id="node16" class="node"><title>Node16</title>
<polygon fill="white" stroke="#bfbfbf" points="637,-212.71 637,-231.71 679,-231.71 679,-212.71 637,-212.71"/>
<text text-anchor="middle" x="658" y="-219.71" font-family="Helvetica,sans-Serif" font-size="10.00">HBox</text>
</g>
<!-- Node16&#45;&gt;Node1 -->
<g id="edge17" class="edge"><title>Node16&#45;&gt;Node1</title>
<path fill="none" stroke="#9a32cd" stroke-dasharray="5,2" d="M689.442,-225.393C725.145,-229.294 786.057,-236.475 838,-245.21 847.444,-246.798 857.534,-248.743 867.081,-250.699"/>
<polygon fill="#9a32cd" stroke="#9a32cd" points="689.526,-221.882 679.208,-224.289 688.776,-228.841 689.526,-221.882"/>
<text text-anchor="middle" x="798" y="-248.21" font-family="Helvetica,sans-Serif" font-size="10.00"> myToolbar</text>
</g>
</g>
</svg>
        <g id="navigator" transform="translate(0 0)" fill="#404254">
                <rect fill="#f2f5e9" fill-opacity="0.5" stroke="#606060" stroke-width=".5" x="0" y="0" width="60" height="60"/>
                <use id="zoomplus" xlink:href="#zoomPlus" x="17" y="9" onmousedown="handleZoom(evt,'in')"/>
                <use id="zoomminus" xlink:href="#zoomMin" x="42" y="9" onmousedown="handleZoom(evt,'out')"/>
                <use id="reset" xlink:href="#resetDef" x="30" y="36" onmousedown="handleReset()"/>
                <g id="arrowUp" xlink:href="#dirArrow" transform="translate(30 24)" onmousedown="handlePan(0,-1)">
                  <use xlink:href="#rim" fill="#404040">
                        <set attributeName="fill" to="#808080" begin="arrowUp.mouseover" end="arrowUp.mouseout"/>
                  </use>
                  <path fill="none" stroke="white" stroke-width="1.5" d="M0,-3.0v7 M-2.5,-0.5L0,-3.0L2.5,-0.5"/>
                </g>
                <g id="arrowRight" xlink:href="#dirArrow" transform="rotate(90) translate(36 -43)" onmousedown="handlePan(1,0)">
                  <use xlink:href="#rim" fill="#404040">
                        <set attributeName="fill" to="#808080" begin="arrowRight.mouseover" end="arrowRight.mouseout"/>
                  </use>
                  <path fill="none" stroke="white" stroke-width="1.5" d="M0,-3.0v7 M-2.5,-0.5L0,-3.0L2.5,-0.5"/>
                </g>
                <g id="arrowDown" xlink:href="#dirArrow" transform="rotate(180) translate(-30 -48)" onmousedown="handlePan(0,1)">
                  <use xlink:href="#rim" fill="#404040">
                        <set attributeName="fill" to="#808080" begin="arrowDown.mouseover" end="arrowDown.mouseout"/>
                  </use>
                  <path fill="none" stroke="white" stroke-width="1.5" d="M0,-3.0v7 M-2.5,-0.5L0,-3.0L2.5,-0.5"/>
                </g>
                <g id="arrowLeft" xlink:href="#dirArrow" transform="rotate(270) translate(-36 17)" onmousedown="handlePan(-1,0)">
                  <use xlink:href="#rim" fill="#404040">
                        <set attributeName="fill" to="#808080" begin="arrowLeft.mouseover" end="arrowLeft.mouseout"/>
                  </use>
                  <path fill="none" stroke="white" stroke-width="1.5" d="M0,-3.0v7 M-2.5,-0.5L0,-3.0L2.5,-0.5"/>
                </g>
        </g>
        <svg viewBox="0 0 15 15" width="100%" height="30px" preserveAspectRatio="xMaxYMin meet">
         <g id="arrow_out" transform="scale(0.3 0.3)">
          <a xlink:href="classview_1_1toolbar_1_1_toolbar__coll__graph_org.svg" target="_base">
           <rect id="button" ry="5" rx="5" y="6" x="6" height="38" width="38"
                fill="#f2f5e9" fill-opacity="0.5" stroke="#606060" stroke-width="1.0"/>
           <path id="arrow"
             d="M 11.500037,31.436501 C 11.940474,20.09759 22.043105,11.32322 32.158766,21.979434 L 37.068811,17.246167 C 37.068811,17.246167 37.088388,32 37.088388,32 L 22.160133,31.978069 C 22.160133,31.978069 26.997745,27.140456 26.997745,27.140456 C 18.528582,18.264221 13.291696,25.230495 11.500037,31.436501 z"
             style="fill:#404040;"/>
          </a>
         </g>
        </svg>
</svg>
