<?xml version="1.0" encoding="UTF-8" standalone="no"?>
<!DOCTYPE svg PUBLIC "-//W3C//DTD SVG 1.1//EN"
 "http://www.w3.org/Graphics/SVG/1.1/DTD/svg11.dtd">
<!-- Generated by graphviz version 2.36.0 (20140111.2315)
 -->
<!-- Title: view.dialogs.TextInputDialogBox Pages: 1 -->
<svg width="174pt" height="196pt"
 viewBox="0.00 0.00 174.00 196.00" xmlns="http://www.w3.org/2000/svg" xmlns:xlink="http://www.w3.org/1999/xlink">
<g id="graph0" class="graph" transform="scale(1 1) rotate(0) translate(4 192)">
<title>view.dialogs.TextInputDialogBox</title>
<polygon fill="white" stroke="none" points="-4,4 -4,-192 170,-192 170,4 -4,4"/>
<!-- Node1 -->
<g id="node1" class="node"><title>Node1</title>
<polygon fill="#bfbfbf" stroke="black" points="-0.5,-0.5 -0.5,-19.5 166.5,-19.5 166.5,-0.5 -0.5,-0.5"/>
<text text-anchor="middle" x="83" y="-7.5" font-family="Helvetica,sans-Serif" font-size="10.00">view.dialogs.TextInputDialogBox</text>
</g>
<!-- Node2 -->
<g id="node2" class="node"><title>Node2</title>
<g id="a_node2"><a xlink:href="../../d0/de5/classview_1_1dialogs_1_1_input_dialog_box.html" target="_top" xlink:title="view.dialogs.InputDialogBox">
<polygon fill="white" stroke="black" points="9,-56.5 9,-75.5 157,-75.5 157,-56.5 9,-56.5"/>
<text text-anchor="middle" x="83" y="-63.5" font-family="Helvetica,sans-Serif" font-size="10.00">view.dialogs.InputDialogBox</text>
</a>
</g>
</g>
<!-- Node2&#45;&gt;Node1 -->
<g id="edge1" class="edge"><title>Node2&#45;&gt;Node1</title>
<path fill="none" stroke="midnightblue" d="M83,-45.8045C83,-36.9102 83,-26.7798 83,-19.7511"/>
<polygon fill="midnightblue" stroke="midnightblue" points="79.5001,-46.083 83,-56.083 86.5001,-46.083 79.5001,-46.083"/>
</g>
<!-- Node3 -->
<g id="node3" class="node"><title>Node3</title>
<g id="a_node3"><a xlink:href="../../d2/dee/classview_1_1dialogs_1_1_message_dialog_box.html" target="_top" xlink:title="view.dialogs.MessageDialogBox">
<polygon fill="white" stroke="black" points="-0.5,-112.5 -0.5,-131.5 166.5,-131.5 166.5,-112.5 -0.5,-112.5"/>
<text text-anchor="middle" x="83" y="-119.5" font-family="Helvetica,sans-Serif" font-size="10.00">view.dialogs.MessageDialogBox</text>
</a>
</g>
</g>
<!-- Node3&#45;&gt;Node2 -->
<g id="edge2" class="edge"><title>Node3&#45;&gt;Node2</title>
<path fill="none" stroke="midnightblue" d="M83,-101.805C83,-92.9102 83,-82.7798 83,-75.7511"/>
<polygon fill="midnightblue" stroke="midnightblue" points="79.5001,-102.083 83,-112.083 86.5001,-102.083 79.5001,-102.083"/>
</g>
<!-- Node4 -->
<g id="node4" class="node"><title>Node4</title>
<g id="a_node4"><a xlink:href="../../d2/d9f/classview_1_1dialogs_1_1_dialog_box.html" target="_top" xlink:title="view.dialogs.DialogBox">
<polygon fill="white" stroke="black" points="21,-168.5 21,-187.5 145,-187.5 145,-168.5 21,-168.5"/>
<text text-anchor="middle" x="83" y="-175.5" font-family="Helvetica,sans-Serif" font-size="10.00">view.dialogs.DialogBox</text>
</a>
</g>
</g>
<!-- Node4&#45;&gt;Node3 -->
<g id="edge3" class="edge"><title>Node4&#45;&gt;Node3</title>
<path fill="none" stroke="midnightblue" d="M83,-157.805C83,-148.91 83,-138.78 83,-131.751"/>
<polygon fill="midnightblue" stroke="midnightblue" points="79.5001,-158.083 83,-168.083 86.5001,-158.083 79.5001,-158.083"/>
</g>
</g>
</svg>
