<?xml version="1.0" encoding="UTF-8" standalone="no"?>
<!DOCTYPE svg PUBLIC "-//W3C//DTD SVG 1.1//EN"
 "http://www.w3.org/Graphics/SVG/1.1/DTD/svg11.dtd">
<!-- Generated by graphviz version 2.36.0 (20140111.2315)
 -->
<!-- Title: model.TurtleSingle Pages: 1 -->
<!--zoomable 185 -->
<svg id="main" version="1.1" xmlns="http://www.w3.org/2000/svg" xmlns:xlink="http://www.w3.org/1999/xlink" xml:space="preserve" onload="init(evt)">
<style type="text/css"><![CDATA[
.edge:hover path { stroke: red; }
.edge:hover polygon { stroke: red; fill: red; }
]]></style>
<script type="text/javascript"><![CDATA[
var edges = document.getElementsByTagName('g');
if (edges && edges.length) {
  for (var i=0;i<edges.length;i++) {
    if (edges[i].id.substr(0,4)=='edge') {
      edges[i].setAttribute('class','edge');
    }
  }
}
]]></script>
        <defs>
                <circle id="rim" cx="0" cy="0" r="7"/>
                <circle id="rim2" cx="0" cy="0" r="3.5"/>
                <g id="zoomPlus">
                        <use xlink:href="#rim" fill="#404040">
                                <set attributeName="fill" to="#808080" begin="zoomplus.mouseover" end="zoomplus.mouseout"/>
                        </use>
                        <path d="M-4,0h8M0,-4v8" fill="none" stroke="white" stroke-width="1.5" pointer-events="none"/>
                </g>
                <g id="zoomMin">
                        <use xlink:href="#rim" fill="#404040">
                                <set attributeName="fill" to="#808080" begin="zoomminus.mouseover" end="zoomminus.mouseout"/>
                        </use>
                        <path d="M-4,0h8" fill="none" stroke="white" stroke-width="1.5" pointer-events="none"/>
                </g>
                <g id="dirArrow">
                        <path fill="none" stroke="white" stroke-width="1.5" d="M0,-3.0v7 M-2.5,-0.5L0,-3.0L2.5,-0.5"/>
                </g>
               <g id="resetDef">
                       <use xlink:href="#rim2" fill="#404040">
                               <set attributeName="fill" to="#808080" begin="reset.mouseover" end="reset.mouseout"/>
                       </use>
               </g>
        </defs>

<script type="text/javascript">
var viewWidth = 622;
var viewHeight = 185;
var sectionId = 'dynsection-1';
</script>
<script xlink:href="../../svgpan.js"/>
<svg id="graph" class="graph">
<g id="viewport">
<title>model.TurtleSingle</title>
<polygon fill="white" stroke="none" points="-4,4 -4,-181 618,-181 618,4 -4,4"/>
<!-- Node1 -->
<g id="node1" class="node"><title>Node1</title>
<polygon fill="#bfbfbf" stroke="black" points="510,-83.5 510,-102.5 614,-102.5 614,-83.5 510,-83.5"/>
<text text-anchor="middle" x="562" y="-90.5" font-family="Helvetica,sans-Serif" font-size="10.00">model.TurtleSingle</text>
</g>
<!-- Node2 -->
<g id="node2" class="node"><title>Node2</title>
<g id="a_node2"><a xlink:href="../../d8/d18/interfacemodel_1_1_turtle.html" target="_top" xlink:title="model.Turtle">
<polygon fill="white" stroke="black" points="251.5,-157.5 251.5,-176.5 326.5,-176.5 326.5,-157.5 251.5,-157.5"/>
<text text-anchor="middle" x="289" y="-164.5" font-family="Helvetica,sans-Serif" font-size="10.00">model.Turtle</text>
</a>
</g>
</g>
<!-- Node2&#45;&gt;Node1 -->
<g id="edge1" class="edge"><title>Node2&#45;&gt;Node1</title>
<path fill="none" stroke="midnightblue" d="M336.903,-163.882C378.633,-159.999 440.804,-151.46 492,-133 512.711,-125.532 534.312,-111.911 547.708,-102.66"/>
<polygon fill="midnightblue" stroke="midnightblue" points="336.409,-160.412 326.753,-164.773 337.021,-167.385 336.409,-160.412"/>
</g>
<!-- Node3 -->
<g id="node3" class="node"><title>Node3</title>
<g id="a_node3"><a xlink:href="../../dc/ddc/interfacemodel_1_1_observable.html" target="_top" xlink:title="model.Observable">
<polygon fill="white" stroke="black" points="0,-157.5 0,-176.5 104,-176.5 104,-157.5 0,-157.5"/>
<text text-anchor="middle" x="52" y="-164.5" font-family="Helvetica,sans-Serif" font-size="10.00">model.Observable</text>
</a>
</g>
</g>
<!-- Node3&#45;&gt;Node2 -->
<g id="edge2" class="edge"><title>Node3&#45;&gt;Node2</title>
<path fill="none" stroke="midnightblue" d="M114.467,-167C157.962,-167 214.833,-167 251.396,-167"/>
<polygon fill="midnightblue" stroke="midnightblue" points="114.281,-163.5 104.281,-167 114.281,-170.5 114.281,-163.5"/>
</g>
<!-- Node4 -->
<g id="node4" class="node"><title>Node4</title>
<g id="a_node4"><a xlink:href="../../de/dfa/classmodel_1_1_angle.html" target="_top" xlink:title="model.Angle">
<polygon fill="white" stroke="black" points="250.5,-119.5 250.5,-138.5 327.5,-138.5 327.5,-119.5 250.5,-119.5"/>
<text text-anchor="middle" x="289" y="-126.5" font-family="Helvetica,sans-Serif" font-size="10.00">model.Angle</text>
</a>
</g>
</g>
<!-- Node4&#45;&gt;Node1 -->
<g id="edge3" class="edge"><title>Node4&#45;&gt;Node1</title>
<path fill="none" stroke="#9a32cd" stroke-dasharray="5,2" d="M337.729,-125.045C378.764,-121.349 439.46,-115.174 492,-107 500.092,-105.741 508.675,-104.182 516.937,-102.567"/>
<polygon fill="#9a32cd" stroke="#9a32cd" points="337.389,-121.562 327.737,-125.932 338.008,-128.534 337.389,-121.562"/>
<text text-anchor="middle" x="446" y="-121" font-family="Helvetica,sans-Serif" font-size="10.00"> myAngle</text>
</g>
<!-- Node5 -->
<g id="node5" class="node"><title>Node5</title>
<g id="a_node5"><a xlink:href="../../de/ded/classmodel_1_1_pen.html" target="_top" xlink:title="model.Pen">
<polygon fill="white" stroke="black" points="255,-81.5 255,-100.5 323,-100.5 323,-81.5 255,-81.5"/>
<text text-anchor="middle" x="289" y="-88.5" font-family="Helvetica,sans-Serif" font-size="10.00">model.Pen</text>
</a>
</g>
</g>
<!-- Node5&#45;&gt;Node1 -->
<g id="edge4" class="edge"><title>Node5&#45;&gt;Node1</title>
<path fill="none" stroke="#9a32cd" stroke-dasharray="5,2" d="M333.315,-91.3197C381.39,-91.6745 458.906,-92.2465 509.908,-92.6229"/>
<polygon fill="#9a32cd" stroke="#9a32cd" points="333.256,-87.8192 323.23,-91.2452 333.204,-94.819 333.256,-87.8192"/>
<text text-anchor="middle" x="446" y="-95" font-family="Helvetica,sans-Serif" font-size="10.00"> myPen</text>
</g>
<!-- Node6 -->
<g id="node6" class="node"><title>Node6</title>
<g id="a_node6"><a xlink:href="../../da/d87/interfacemodel_1_1_pen_update.html" target="_top" xlink:title="model.PenUpdate">
<polygon fill="white" stroke="black" points="0.5,-119.5 0.5,-138.5 103.5,-138.5 103.5,-119.5 0.5,-119.5"/>
<text text-anchor="middle" x="52" y="-126.5" font-family="Helvetica,sans-Serif" font-size="10.00">model.PenUpdate</text>
</a>
</g>
</g>
<!-- Node6&#45;&gt;Node5 -->
<g id="edge5" class="edge"><title>Node6&#45;&gt;Node5</title>
<path fill="none" stroke="midnightblue" d="M113.634,-119.195C158.588,-111.926 218.174,-102.291 254.762,-96.3746"/>
<polygon fill="midnightblue" stroke="midnightblue" points="113.015,-115.75 103.702,-120.801 114.133,-122.66 113.015,-115.75"/>
</g>
<!-- Node7 -->
<g id="node7" class="node"><title>Node7</title>
<polygon fill="white" stroke="#bfbfbf" points="6.5,-81.5 6.5,-100.5 97.5,-100.5 97.5,-81.5 6.5,-81.5"/>
<text text-anchor="middle" x="52" y="-88.5" font-family="Helvetica,sans-Serif" font-size="10.00">DoubleProperty</text>
</g>
<!-- Node7&#45;&gt;Node5 -->
<g id="edge6" class="edge"><title>Node7&#45;&gt;Node5</title>
<path fill="none" stroke="#9a32cd" stroke-dasharray="5,2" d="M107.76,-91C153.284,-91 216.587,-91 254.79,-91"/>
<polygon fill="#9a32cd" stroke="#9a32cd" points="107.755,-87.5001 97.7548,-91 107.755,-94.5001 107.755,-87.5001"/>
<text text-anchor="middle" x="150" y="-94" font-family="Helvetica,sans-Serif" font-size="10.00"> penSize</text>
</g>
<!-- Node8 -->
<g id="node8" class="node"><title>Node8</title>
<polygon fill="white" stroke="#bfbfbf" points="6.5,-43.5 6.5,-62.5 97.5,-62.5 97.5,-43.5 6.5,-43.5"/>
<text text-anchor="middle" x="52" y="-50.5" font-family="Helvetica,sans-Serif" font-size="10.00">IntegerProperty</text>
</g>
<!-- Node8&#45;&gt;Node5 -->
<g id="edge7" class="edge"><title>Node8&#45;&gt;Node5</title>
<path fill="none" stroke="#9a32cd" stroke-dasharray="5,2" d="M107.76,-61.8548C153.284,-69.2162 216.587,-79.4524 254.79,-85.6298"/>
<polygon fill="#9a32cd" stroke="#9a32cd" points="108.185,-58.3782 97.7548,-60.237 107.068,-65.2884 108.185,-58.3782"/>
<text text-anchor="middle" x="150" y="-76" font-family="Helvetica,sans-Serif" font-size="10.00"> penColorID</text>
</g>
<!-- Node9 -->
<g id="node9" class="node"><title>Node9</title>
<g id="a_node9"><a xlink:href="../../d8/d6a/classmodel_1_1_coordinates.html" target="_top" xlink:title="model.Coordinates">
<polygon fill="white" stroke="black" points="235.5,-38.5 235.5,-57.5 342.5,-57.5 342.5,-38.5 235.5,-38.5"/>
<text text-anchor="middle" x="289" y="-45.5" font-family="Helvetica,sans-Serif" font-size="10.00">model.Coordinates</text>
</a>
</g>
</g>
<!-- Node9&#45;&gt;Node1 -->
<g id="edge8" class="edge"><title>Node9&#45;&gt;Node1</title>
<path fill="none" stroke="#9a32cd" stroke-dasharray="5,2" d="M352.79,-48.4347C393.059,-49.8976 446.186,-54.0442 492,-65 509.477,-69.1794 528.317,-77.075 541.888,-83.4192"/>
<polygon fill="#9a32cd" stroke="#9a32cd" points="352.686,-44.9298 342.58,-48.111 352.464,-51.9262 352.686,-44.9298"/>
<text text-anchor="middle" x="446" y="-79" font-family="Helvetica,sans-Serif" font-size="10.00"> myOldCoordinates</text>
<text text-anchor="middle" x="446" y="-68" font-family="Helvetica,sans-Serif" font-size="10.00">myCoordinates</text>
</g>
<!-- Node10 -->
<g id="node10" class="node"><title>Node10</title>
<polygon fill="white" stroke="#bfbfbf" points="25,-5.5 25,-24.5 79,-24.5 79,-5.5 25,-5.5"/>
<text text-anchor="middle" x="52" y="-12.5" font-family="Helvetica,sans-Serif" font-size="10.00">Point2D</text>
</g>
<!-- Node10&#45;&gt;Node9 -->
<g id="edge9" class="edge"><title>Node10&#45;&gt;Node9</title>
<path fill="none" stroke="#9a32cd" stroke-dasharray="5,2" d="M89.5524,-12.452C114.794,-11.6596 148.921,-12.5187 178,-20 186.662,-22.2286 187.549,-26.0708 196,-29 208.482,-33.3264 222.276,-36.8171 235.301,-39.5679"/>
<polygon fill="#9a32cd" stroke="#9a32cd" points="89.1647,-8.96503 79.3191,-12.8783 89.4561,-15.959 89.1647,-8.96503"/>
<text text-anchor="middle" x="150" y="-23" font-family="Helvetica,sans-Serif" font-size="10.00"> myPoint</text>
</g>
<!-- Node11 -->
<g id="node11" class="node"><title>Node11</title>
<polygon fill="white" stroke="#bfbfbf" points="196.5,-0.5 196.5,-19.5 381.5,-19.5 381.5,-0.5 196.5,-0.5"/>
<text text-anchor="middle" x="289" y="-7.5" font-family="Helvetica,sans-Serif" font-size="10.00">List&lt; view.components.Observer &gt;</text>
</g>
<!-- Node11&#45;&gt;Node1 -->
<g id="edge10" class="edge"><title>Node11&#45;&gt;Node1</title>
<path fill="none" stroke="#9a32cd" stroke-dasharray="5,2" d="M391.762,-11.9635C424.79,-15.4847 460.912,-22.5166 492,-36 517.374,-47.005 540.821,-70.2633 552.753,-83.4148"/>
<polygon fill="#9a32cd" stroke="#9a32cd" points="391.911,-8.46167 381.619,-10.9802 391.235,-15.429 391.911,-8.46167"/>
<text text-anchor="middle" x="446" y="-39" font-family="Helvetica,sans-Serif" font-size="10.00"> myObservers</text>
</g>
</g>
</svg>
        <g id="navigator" transform="translate(0 0)" fill="#404254">
                <rect fill="#f2f5e9" fill-opacity="0.5" stroke="#606060" stroke-width=".5" x="0" y="0" width="60" height="60"/>
                <use id="zoomplus" xlink:href="#zoomPlus" x="17" y="9" onmousedown="handleZoom(evt,'in')"/>
                <use id="zoomminus" xlink:href="#zoomMin" x="42" y="9" onmousedown="handleZoom(evt,'out')"/>
                <use id="reset" xlink:href="#resetDef" x="30" y="36" onmousedown="handleReset()"/>
                <g id="arrowUp" xlink:href="#dirArrow" transform="translate(30 24)" onmousedown="handlePan(0,-1)">
                  <use xlink:href="#rim" fill="#404040">
                        <set attributeName="fill" to="#808080" begin="arrowUp.mouseover" end="arrowUp.mouseout"/>
                  </use>
                  <path fill="none" stroke="white" stroke-width="1.5" d="M0,-3.0v7 M-2.5,-0.5L0,-3.0L2.5,-0.5"/>
                </g>
                <g id="arrowRight" xlink:href="#dirArrow" transform="rotate(90) translate(36 -43)" onmousedown="handlePan(1,0)">
                  <use xlink:href="#rim" fill="#404040">
                        <set attributeName="fill" to="#808080" begin="arrowRight.mouseover" end="arrowRight.mouseout"/>
                  </use>
                  <path fill="none" stroke="white" stroke-width="1.5" d="M0,-3.0v7 M-2.5,-0.5L0,-3.0L2.5,-0.5"/>
                </g>
                <g id="arrowDown" xlink:href="#dirArrow" transform="rotate(180) translate(-30 -48)" onmousedown="handlePan(0,1)">
                  <use xlink:href="#rim" fill="#404040">
                        <set attributeName="fill" to="#808080" begin="arrowDown.mouseover" end="arrowDown.mouseout"/>
                  </use>
                  <path fill="none" stroke="white" stroke-width="1.5" d="M0,-3.0v7 M-2.5,-0.5L0,-3.0L2.5,-0.5"/>
                </g>
                <g id="arrowLeft" xlink:href="#dirArrow" transform="rotate(270) translate(-36 17)" onmousedown="handlePan(-1,0)">
                  <use xlink:href="#rim" fill="#404040">
                        <set attributeName="fill" to="#808080" begin="arrowLeft.mouseover" end="arrowLeft.mouseout"/>
                  </use>
                  <path fill="none" stroke="white" stroke-width="1.5" d="M0,-3.0v7 M-2.5,-0.5L0,-3.0L2.5,-0.5"/>
                </g>
        </g>
        <svg viewBox="0 0 15 15" width="100%" height="30px" preserveAspectRatio="xMaxYMin meet">
         <g id="arrow_out" transform="scale(0.3 0.3)">
          <a xlink:href="classmodel_1_1_turtle_single__coll__graph_org.svg" target="_base">
           <rect id="button" ry="5" rx="5" y="6" x="6" height="38" width="38"
                fill="#f2f5e9" fill-opacity="0.5" stroke="#606060" stroke-width="1.0"/>
           <path id="arrow"
             d="M 11.500037,31.436501 C 11.940474,20.09759 22.043105,11.32322 32.158766,21.979434 L 37.068811,17.246167 C 37.068811,17.246167 37.088388,32 37.088388,32 L 22.160133,31.978069 C 22.160133,31.978069 26.997745,27.140456 26.997745,27.140456 C 18.528582,18.264221 13.291696,25.230495 11.500037,31.436501 z"
             style="fill:#404040;"/>
          </a>
         </g>
        </svg>
</svg>
