<?xml version="1.0" encoding="UTF-8" standalone="no"?>
<!DOCTYPE svg PUBLIC "-//W3C//DTD SVG 1.1//EN"
 "http://www.w3.org/Graphics/SVG/1.1/DTD/svg11.dtd">
<!-- Generated by graphviz version 2.36.0 (20140111.2315)
 -->
<!-- Title: parser.nodes.GroupNode Pages: 1 -->
<svg width="309pt" height="166pt"
 viewBox="0.00 0.00 309.00 166.00" xmlns="http://www.w3.org/2000/svg" xmlns:xlink="http://www.w3.org/1999/xlink">
<g id="graph0" class="graph" transform="scale(1 1) rotate(0) translate(4 162)">
<title>parser.nodes.GroupNode</title>
<polygon fill="white" stroke="none" points="-4,4 -4,-162 305,-162 305,4 -4,4"/>
<!-- Node1 -->
<g id="node1" class="node"><title>Node1</title>
<polygon fill="#bfbfbf" stroke="black" points="81.5,-0.5 81.5,-19.5 218.5,-19.5 218.5,-0.5 81.5,-0.5"/>
<text text-anchor="middle" x="150" y="-7.5" font-family="Helvetica,sans-Serif" font-size="10.00">parser.nodes.GroupNode</text>
</g>
<!-- Node2 -->
<g id="node2" class="node"><title>Node2</title>
<g id="a_node2"><a xlink:href="../../d4/d1c/classparser_1_1nodes_1_1_list_node.html" target="_top" xlink:title="parser.nodes.ListNode">
<polygon fill="white" stroke="black" points="88,-58.5 88,-77.5 212,-77.5 212,-58.5 88,-58.5"/>
<text text-anchor="middle" x="150" y="-65.5" font-family="Helvetica,sans-Serif" font-size="10.00">parser.nodes.ListNode</text>
</a>
</g>
</g>
<!-- Node2&#45;&gt;Node1 -->
<g id="edge1" class="edge"><title>Node2&#45;&gt;Node1</title>
<path fill="none" stroke="midnightblue" d="M150,-47.953C150,-38.2875 150,-27.0312 150,-19.5052"/>
<polygon fill="midnightblue" stroke="midnightblue" points="146.5,-48.25 150,-58.25 153.5,-48.25 146.5,-48.25"/>
</g>
<!-- Node3 -->
<g id="node3" class="node"><title>Node3</title>
<g id="a_node3"><a xlink:href="../../da/d96/classparser_1_1nodes_1_1_syntax_node.html" target="_top" xlink:title="parser.nodes.SyntaxNode">
<polygon fill="white" stroke="black" points="0,-132.5 0,-151.5 140,-151.5 140,-132.5 0,-132.5"/>
<text text-anchor="middle" x="70" y="-139.5" font-family="Helvetica,sans-Serif" font-size="10.00">parser.nodes.SyntaxNode</text>
</a>
</g>
</g>
<!-- Node3&#45;&gt;Node2 -->
<g id="edge2" class="edge"><title>Node3&#45;&gt;Node2</title>
<path fill="none" stroke="midnightblue" d="M87.2319,-125.491C103.539,-110.815 127.417,-89.325 140.521,-77.531"/>
<polygon fill="midnightblue" stroke="midnightblue" points="84.5828,-123.167 79.4912,-132.458 89.2656,-128.37 84.5828,-123.167"/>
</g>
<!-- Node4 -->
<g id="node4" class="node"><title>Node4</title>
<polygon fill="white" stroke="#bfbfbf" points="158.5,-127 158.5,-157 301.5,-157 301.5,-127 158.5,-127"/>
<text text-anchor="start" x="166.5" y="-145" font-family="Helvetica,sans-Serif" font-size="10.00">List&lt; parser.nodes.Syntax</text>
<text text-anchor="middle" x="230" y="-134" font-family="Helvetica,sans-Serif" font-size="10.00">Node &gt;</text>
</g>
<!-- Node4&#45;&gt;Node2 -->
<g id="edge3" class="edge"><title>Node4&#45;&gt;Node2</title>
<path fill="none" stroke="#9a32cd" stroke-dasharray="5,2" d="M206.479,-119.831C190.896,-105.806 171.27,-88.1426 159.732,-77.7589"/>
<polygon fill="#9a32cd" stroke="#9a32cd" points="204.42,-122.687 214.195,-126.775 209.103,-117.484 204.42,-122.687"/>
<text text-anchor="middle" x="210.5" y="-99.5" font-family="Helvetica,sans-Serif" font-size="10.00"> myList</text>
</g>
</g>
</svg>
