<?xml version="1.0" encoding="UTF-8" standalone="no"?>
<!DOCTYPE svg PUBLIC "-//W3C//DTD SVG 1.1//EN"
 "http://www.w3.org/Graphics/SVG/1.1/DTD/svg11.dtd">
<!-- Generated by graphviz version 2.36.0 (20140111.2315)
 -->
<!-- Title: model.Observable Pages: 1 -->
<!--zoomable 142 -->
<svg id="main" version="1.1" xmlns="http://www.w3.org/2000/svg" xmlns:xlink="http://www.w3.org/1999/xlink" xml:space="preserve" onload="init(evt)">
<style type="text/css"><![CDATA[
.edge:hover path { stroke: red; }
.edge:hover polygon { stroke: red; fill: red; }
]]></style>
<script type="text/javascript"><![CDATA[
var edges = document.getElementsByTagName('g');
if (edges && edges.length) {
  for (var i=0;i<edges.length;i++) {
    if (edges[i].id.substr(0,4)=='edge') {
      edges[i].setAttribute('class','edge');
    }
  }
}
]]></script>
        <defs>
                <circle id="rim" cx="0" cy="0" r="7"/>
                <circle id="rim2" cx="0" cy="0" r="3.5"/>
                <g id="zoomPlus">
                        <use xlink:href="#rim" fill="#404040">
                                <set attributeName="fill" to="#808080" begin="zoomplus.mouseover" end="zoomplus.mouseout"/>
                        </use>
                        <path d="M-4,0h8M0,-4v8" fill="none" stroke="white" stroke-width="1.5" pointer-events="none"/>
                </g>
                <g id="zoomMin">
                        <use xlink:href="#rim" fill="#404040">
                                <set attributeName="fill" to="#808080" begin="zoomminus.mouseover" end="zoomminus.mouseout"/>
                        </use>
                        <path d="M-4,0h8" fill="none" stroke="white" stroke-width="1.5" pointer-events="none"/>
                </g>
                <g id="dirArrow">
                        <path fill="none" stroke="white" stroke-width="1.5" d="M0,-3.0v7 M-2.5,-0.5L0,-3.0L2.5,-0.5"/>
                </g>
               <g id="resetDef">
                       <use xlink:href="#rim2" fill="#404040">
                               <set attributeName="fill" to="#808080" begin="reset.mouseover" end="reset.mouseout"/>
                       </use>
               </g>
        </defs>

<script type="text/javascript">
var viewWidth = 502;
var viewHeight = 142;
var sectionId = 'dynsection-0';
</script>
<script xlink:href="../../svgpan.js"/>
<svg id="graph" class="graph">
<g id="viewport">
<title>model.Observable</title>
<polygon fill="white" stroke="none" points="-4,4 -4,-138 498,-138 498,4 -4,4"/>
<!-- Node1 -->
<g id="node1" class="node"><title>Node1</title>
<polygon fill="#bfbfbf" stroke="black" points="0,-57.5 0,-76.5 104,-76.5 104,-57.5 0,-57.5"/>
<text text-anchor="middle" x="52" y="-64.5" font-family="Helvetica,sans-Serif" font-size="10.00">model.Observable</text>
</g>
<!-- Node2 -->
<g id="node2" class="node"><title>Node2</title>
<g id="a_node2"><a xlink:href="../../db/df9/classmodel_1_1_command_history.html" target="_top" xlink:title="model.CommandHistory">
<polygon fill="white" stroke="black" points="144,-114.5 144,-133.5 278,-133.5 278,-114.5 144,-114.5"/>
<text text-anchor="middle" x="211" y="-121.5" font-family="Helvetica,sans-Serif" font-size="10.00">model.CommandHistory</text>
</a>
</g>
</g>
<!-- Node1&#45;&gt;Node2 -->
<g id="edge1" class="edge"><title>Node1&#45;&gt;Node2</title>
<path fill="none" stroke="midnightblue" d="M81.9441,-80.9173C98.6681,-88.6348 120.245,-98.047 140,-105 149.859,-108.47 160.683,-111.687 170.811,-114.451"/>
<polygon fill="midnightblue" stroke="midnightblue" points="83.2498,-77.6643 72.7085,-76.6007 80.2858,-84.0058 83.2498,-77.6643"/>
</g>
<!-- Node3 -->
<g id="node3" class="node"><title>Node3</title>
<g id="a_node3"><a xlink:href="../../df/d15/interfacemodel_1_1_i_variables_collection.html" target="_top" xlink:title="model.IVariablesCollection">
<polygon fill="white" stroke="black" points="140,-76.5 140,-95.5 282,-95.5 282,-76.5 140,-76.5"/>
<text text-anchor="middle" x="211" y="-83.5" font-family="Helvetica,sans-Serif" font-size="10.00">model.IVariablesCollection</text>
</a>
</g>
</g>
<!-- Node1&#45;&gt;Node3 -->
<g id="edge2" class="edge"><title>Node1&#45;&gt;Node3</title>
<path fill="none" stroke="midnightblue" d="M114.446,-74.4361C122.808,-75.4481 131.441,-76.4929 139.941,-77.5215"/>
<polygon fill="midnightblue" stroke="midnightblue" points="114.756,-70.9482 104.408,-73.2213 113.915,-77.8975 114.756,-70.9482"/>
</g>
<!-- Node6 -->
<g id="node6" class="node"><title>Node6</title>
<g id="a_node6"><a xlink:href="../../d8/d18/interfacemodel_1_1_turtle.html" target="_top" xlink:title="model.Turtle">
<polygon fill="white" stroke="black" points="173.5,-38.5 173.5,-57.5 248.5,-57.5 248.5,-38.5 173.5,-38.5"/>
<text text-anchor="middle" x="211" y="-45.5" font-family="Helvetica,sans-Serif" font-size="10.00">model.Turtle</text>
</a>
</g>
</g>
<!-- Node1&#45;&gt;Node6 -->
<g id="edge5" class="edge"><title>Node1&#45;&gt;Node6</title>
<path fill="none" stroke="midnightblue" d="M114.365,-59.5736C134.327,-57.1579 155.842,-54.5541 173.401,-52.4292"/>
<polygon fill="midnightblue" stroke="midnightblue" points="113.915,-56.1025 104.408,-60.7787 114.756,-63.0518 113.915,-56.1025"/>
</g>
<!-- Node9 -->
<g id="node9" class="node"><title>Node9</title>
<g id="a_node9"><a xlink:href="../../d3/d73/classmodel_1_1_view_options.html" target="_top" xlink:title="model.ViewOptions">
<polygon fill="white" stroke="black" points="157,-0.5 157,-19.5 265,-19.5 265,-0.5 157,-0.5"/>
<text text-anchor="middle" x="211" y="-7.5" font-family="Helvetica,sans-Serif" font-size="10.00">model.ViewOptions</text>
</a>
</g>
</g>
<!-- Node1&#45;&gt;Node9 -->
<g id="edge8" class="edge"><title>Node1&#45;&gt;Node9</title>
<path fill="none" stroke="midnightblue" d="M81.9441,-53.0827C98.6681,-45.3652 120.245,-35.953 140,-29 149.859,-25.53 160.683,-22.3128 170.811,-19.5493"/>
<polygon fill="midnightblue" stroke="midnightblue" points="80.2858,-49.9942 72.7085,-57.3993 83.2498,-56.3357 80.2858,-49.9942"/>
</g>
<!-- Node4 -->
<g id="node4" class="node"><title>Node4</title>
<g id="a_node4"><a xlink:href="../../d1/dfc/classmodel_1_1_scoped_variables_collection.html" target="_top" xlink:title="model.ScopedVariablesCollection">
<polygon fill="white" stroke="black" points="318,-114.5 318,-133.5 494,-133.5 494,-114.5 318,-114.5"/>
<text text-anchor="middle" x="406" y="-121.5" font-family="Helvetica,sans-Serif" font-size="10.00">model.ScopedVariablesCollection</text>
</a>
</g>
</g>
<!-- Node3&#45;&gt;Node4 -->
<g id="edge3" class="edge"><title>Node3&#45;&gt;Node4</title>
<path fill="none" stroke="midnightblue" d="M270.602,-97.5381C298.129,-102.958 330.548,-109.341 356.648,-114.48"/>
<polygon fill="midnightblue" stroke="midnightblue" points="271.19,-94.0868 260.702,-95.589 269.838,-100.955 271.19,-94.0868"/>
</g>
<!-- Node5 -->
<g id="node5" class="node"><title>Node5</title>
<g id="a_node5"><a xlink:href="../../d6/d00/classmodel_1_1_variables_collection.html" target="_top" xlink:title="model.VariablesCollection">
<polygon fill="white" stroke="black" points="336,-76.5 336,-95.5 476,-95.5 476,-76.5 336,-76.5"/>
<text text-anchor="middle" x="406" y="-83.5" font-family="Helvetica,sans-Serif" font-size="10.00">model.VariablesCollection</text>
</a>
</g>
</g>
<!-- Node3&#45;&gt;Node5 -->
<g id="edge4" class="edge"><title>Node3&#45;&gt;Node5</title>
<path fill="none" stroke="midnightblue" d="M292.577,-86C306.94,-86 321.787,-86 335.797,-86"/>
<polygon fill="midnightblue" stroke="midnightblue" points="292.223,-82.5001 282.223,-86 292.223,-89.5001 292.223,-82.5001"/>
</g>
<!-- Node7 -->
<g id="node7" class="node"><title>Node7</title>
<g id="a_node7"><a xlink:href="../../d9/dea/classmodel_1_1_turtle_multiple.html" target="_top" xlink:title="model.TurtleMultiple">
<polygon fill="white" stroke="black" points="350,-38.5 350,-57.5 462,-57.5 462,-38.5 350,-38.5"/>
<text text-anchor="middle" x="406" y="-45.5" font-family="Helvetica,sans-Serif" font-size="10.00">model.TurtleMultiple</text>
</a>
</g>
</g>
<!-- Node6&#45;&gt;Node7 -->
<g id="edge6" class="edge"><title>Node6&#45;&gt;Node7</title>
<path fill="none" stroke="midnightblue" d="M258.872,-48C286.276,-48 321.016,-48 349.747,-48"/>
<polygon fill="midnightblue" stroke="midnightblue" points="258.756,-44.5001 248.756,-48 258.756,-51.5001 258.756,-44.5001"/>
</g>
<!-- Node8 -->
<g id="node8" class="node"><title>Node8</title>
<g id="a_node8"><a xlink:href="../../da/d88/classmodel_1_1_turtle_single.html" target="_top" xlink:title="model.TurtleSingle">
<polygon fill="white" stroke="black" points="354,-0.5 354,-19.5 458,-19.5 458,-0.5 354,-0.5"/>
<text text-anchor="middle" x="406" y="-7.5" font-family="Helvetica,sans-Serif" font-size="10.00">model.TurtleSingle</text>
</a>
</g>
</g>
<!-- Node6&#45;&gt;Node8 -->
<g id="edge7" class="edge"><title>Node6&#45;&gt;Node8</title>
<path fill="none" stroke="midnightblue" d="M258.859,-38.7738C288.515,-32.9349 326.766,-25.4037 356.695,-19.5109"/>
<polygon fill="midnightblue" stroke="midnightblue" points="257.892,-35.3971 248.756,-40.763 259.244,-42.2652 257.892,-35.3971"/>
</g>
</g>
</svg>
        <g id="navigator" transform="translate(0 0)" fill="#404254">
                <rect fill="#f2f5e9" fill-opacity="0.5" stroke="#606060" stroke-width=".5" x="0" y="0" width="60" height="60"/>
                <use id="zoomplus" xlink:href="#zoomPlus" x="17" y="9" onmousedown="handleZoom(evt,'in')"/>
                <use id="zoomminus" xlink:href="#zoomMin" x="42" y="9" onmousedown="handleZoom(evt,'out')"/>
                <use id="reset" xlink:href="#resetDef" x="30" y="36" onmousedown="handleReset()"/>
                <g id="arrowUp" xlink:href="#dirArrow" transform="translate(30 24)" onmousedown="handlePan(0,-1)">
                  <use xlink:href="#rim" fill="#404040">
                        <set attributeName="fill" to="#808080" begin="arrowUp.mouseover" end="arrowUp.mouseout"/>
                  </use>
                  <path fill="none" stroke="white" stroke-width="1.5" d="M0,-3.0v7 M-2.5,-0.5L0,-3.0L2.5,-0.5"/>
                </g>
                <g id="arrowRight" xlink:href="#dirArrow" transform="rotate(90) translate(36 -43)" onmousedown="handlePan(1,0)">
                  <use xlink:href="#rim" fill="#404040">
                        <set attributeName="fill" to="#808080" begin="arrowRight.mouseover" end="arrowRight.mouseout"/>
                  </use>
                  <path fill="none" stroke="white" stroke-width="1.5" d="M0,-3.0v7 M-2.5,-0.5L0,-3.0L2.5,-0.5"/>
                </g>
                <g id="arrowDown" xlink:href="#dirArrow" transform="rotate(180) translate(-30 -48)" onmousedown="handlePan(0,1)">
                  <use xlink:href="#rim" fill="#404040">
                        <set attributeName="fill" to="#808080" begin="arrowDown.mouseover" end="arrowDown.mouseout"/>
                  </use>
                  <path fill="none" stroke="white" stroke-width="1.5" d="M0,-3.0v7 M-2.5,-0.5L0,-3.0L2.5,-0.5"/>
                </g>
                <g id="arrowLeft" xlink:href="#dirArrow" transform="rotate(270) translate(-36 17)" onmousedown="handlePan(-1,0)">
                  <use xlink:href="#rim" fill="#404040">
                        <set attributeName="fill" to="#808080" begin="arrowLeft.mouseover" end="arrowLeft.mouseout"/>
                  </use>
                  <path fill="none" stroke="white" stroke-width="1.5" d="M0,-3.0v7 M-2.5,-0.5L0,-3.0L2.5,-0.5"/>
                </g>
        </g>
        <svg viewBox="0 0 15 15" width="100%" height="30px" preserveAspectRatio="xMaxYMin meet">
         <g id="arrow_out" transform="scale(0.3 0.3)">
          <a xlink:href="interfacemodel_1_1_observable__inherit__graph_org.svg" target="_base">
           <rect id="button" ry="5" rx="5" y="6" x="6" height="38" width="38"
                fill="#f2f5e9" fill-opacity="0.5" stroke="#606060" stroke-width="1.0"/>
           <path id="arrow"
             d="M 11.500037,31.436501 C 11.940474,20.09759 22.043105,11.32322 32.158766,21.979434 L 37.068811,17.246167 C 37.068811,17.246167 37.088388,32 37.088388,32 L 22.160133,31.978069 C 22.160133,31.978069 26.997745,27.140456 26.997745,27.140456 C 18.528582,18.264221 13.291696,25.230495 11.500037,31.436501 z"
             style="fill:#404040;"/>
          </a>
         </g>
        </svg>
</svg>
