<?xml version="1.0" encoding="UTF-8" standalone="no"?>
<!DOCTYPE svg PUBLIC "-//W3C//DTD SVG 1.1//EN"
 "http://www.w3.org/Graphics/SVG/1.1/DTD/svg11.dtd">
<!-- Generated by graphviz version 2.36.0 (20140111.2315)
 -->
<!-- Title: model.TurtleUpdate Pages: 1 -->
<svg width="381pt" height="174pt"
 viewBox="0.00 0.00 381.00 174.00" xmlns="http://www.w3.org/2000/svg" xmlns:xlink="http://www.w3.org/1999/xlink">
<g id="graph0" class="graph" transform="scale(1 1) rotate(0) translate(4 170)">
<title>model.TurtleUpdate</title>
<polygon fill="white" stroke="none" points="-4,4 -4,-170 377,-170 377,4 -4,4"/>
<!-- Node1 -->
<g id="node1" class="node"><title>Node1</title>
<polygon fill="#bfbfbf" stroke="black" points="130,-0.5 130,-19.5 240,-19.5 240,-0.5 130,-0.5"/>
<text text-anchor="middle" x="185" y="-7.5" font-family="Helvetica,sans-Serif" font-size="10.00">model.TurtleUpdate</text>
</g>
<!-- Node2 -->
<g id="node2" class="node"><title>Node2</title>
<polygon fill="white" stroke="#bfbfbf" points="0,-78.5 0,-97.5 128,-97.5 128,-78.5 0,-78.5"/>
<text text-anchor="middle" x="64" y="-85.5" font-family="Helvetica,sans-Serif" font-size="10.00">Comparable&lt; Object &gt;</text>
</g>
<!-- Node2&#45;&gt;Node1 -->
<g id="edge1" class="edge"><title>Node2&#45;&gt;Node1</title>
<path fill="none" stroke="midnightblue" d="M86.6482,-72.7747C111.528,-57.1479 150.682,-32.5551 171.282,-19.6165"/>
<polygon fill="midnightblue" stroke="midnightblue" points="84.4868,-69.9991 77.8802,-78.2818 88.21,-75.9268 84.4868,-69.9991"/>
</g>
<!-- Node3 -->
<g id="node3" class="node"><title>Node3</title>
<g id="a_node3"><a xlink:href="../../de/dfa/classmodel_1_1_angle.html" target="_top" xlink:title="model.Angle">
<polygon fill="white" stroke="black" points="146.5,-78.5 146.5,-97.5 223.5,-97.5 223.5,-78.5 146.5,-78.5"/>
<text text-anchor="middle" x="185" y="-85.5" font-family="Helvetica,sans-Serif" font-size="10.00">model.Angle</text>
</a>
</g>
</g>
<!-- Node3&#45;&gt;Node1 -->
<g id="edge2" class="edge"><title>Node3&#45;&gt;Node1</title>
<path fill="none" stroke="#9a32cd" stroke-dasharray="5,2" d="M185,-68.2239C185,-52.6974 185,-31.3582 185,-19.6165"/>
<polygon fill="#9a32cd" stroke="#9a32cd" points="181.5,-68.2818 185,-78.2818 188.5,-68.2819 181.5,-68.2818"/>
<text text-anchor="middle" x="213" y="-46.5" font-family="Helvetica,sans-Serif" font-size="10.00"> turtleAngle</text>
</g>
<!-- Node4 -->
<g id="node4" class="node"><title>Node4</title>
<g id="a_node4"><a xlink:href="../../d8/d6a/classmodel_1_1_coordinates.html" target="_top" xlink:title="model.Coordinates">
<polygon fill="white" stroke="black" points="241.5,-78.5 241.5,-97.5 348.5,-97.5 348.5,-78.5 241.5,-78.5"/>
<text text-anchor="middle" x="295" y="-85.5" font-family="Helvetica,sans-Serif" font-size="10.00">model.Coordinates</text>
</a>
</g>
</g>
<!-- Node4&#45;&gt;Node1 -->
<g id="edge3" class="edge"><title>Node4&#45;&gt;Node1</title>
<path fill="none" stroke="#9a32cd" stroke-dasharray="5,2" d="M281.281,-70.8735C271.854,-60.5124 258.623,-47.3013 245,-38 233.963,-30.464 220.482,-24.1766 209.096,-19.5707"/>
<polygon fill="#9a32cd" stroke="#9a32cd" points="278.719,-73.2599 287.959,-78.4427 283.967,-68.6286 278.719,-73.2599"/>
<text text-anchor="middle" x="321" y="-52" font-family="Helvetica,sans-Serif" font-size="10.00"> turtleOldCoordinates</text>
<text text-anchor="middle" x="321" y="-41" font-family="Helvetica,sans-Serif" font-size="10.00">turtleNewCoordinates</text>
</g>
<!-- Node5 -->
<g id="node5" class="node"><title>Node5</title>
<polygon fill="white" stroke="#bfbfbf" points="268,-146.5 268,-165.5 322,-165.5 322,-146.5 268,-146.5"/>
<text text-anchor="middle" x="295" y="-153.5" font-family="Helvetica,sans-Serif" font-size="10.00">Point2D</text>
</g>
<!-- Node5&#45;&gt;Node4 -->
<g id="edge4" class="edge"><title>Node5&#45;&gt;Node4</title>
<path fill="none" stroke="#9a32cd" stroke-dasharray="5,2" d="M295,-136.041C295,-123.472 295,-107.563 295,-97.8411"/>
<polygon fill="#9a32cd" stroke="#9a32cd" points="291.5,-136.372 295,-146.372 298.5,-136.372 291.5,-136.372"/>
<text text-anchor="middle" x="316.5" y="-119.5" font-family="Helvetica,sans-Serif" font-size="10.00"> myPoint</text>
</g>
</g>
</svg>
