<?xml version="1.0" encoding="UTF-8" standalone="no"?>
<!DOCTYPE svg PUBLIC "-//W3C//DTD SVG 1.1//EN"
 "http://www.w3.org/Graphics/SVG/1.1/DTD/svg11.dtd">
<!-- Generated by graphviz version 2.36.0 (20140111.2315)
 -->
<!-- Title: view.components.TurtleWindow.stepDebug Pages: 1 -->
<svg width="966pt" height="38pt"
 viewBox="0.00 0.00 966.00 38.00" xmlns="http://www.w3.org/2000/svg" xmlns:xlink="http://www.w3.org/1999/xlink">
<g id="graph0" class="graph" transform="scale(1 1) rotate(0) translate(4 34)">
<title>view.components.TurtleWindow.stepDebug</title>
<polygon fill="white" stroke="none" points="-4,4 -4,-34 962,-34 962,4 -4,4"/>
<!-- Node1 -->
<g id="node1" class="node"><title>Node1</title>
<polygon fill="#bfbfbf" stroke="black" points="0,-0 0,-30 186,-30 186,-0 0,-0"/>
<text text-anchor="start" x="8" y="-18" font-family="Helvetica,sans-Serif" font-size="10.00">view.components.TurtleWindow.step</text>
<text text-anchor="middle" x="93" y="-7" font-family="Helvetica,sans-Serif" font-size="10.00">Debug</text>
</g>
<!-- Node2 -->
<g id="node2" class="node"><title>Node2</title>
<g id="a_node2"><a xlink:href="../../de/d30/classview_1_1components_1_1_s_logo_workspace.html#ad2141a5cca8101b3d22b2cf7b7473281" target="_top" xlink:title="view.components.SLogoWorkspace.run\lDebugger">
<polygon fill="white" stroke="black" points="222,-0 222,-30 424,-30 424,-0 222,-0"/>
<text text-anchor="start" x="230" y="-18" font-family="Helvetica,sans-Serif" font-size="10.00">view.components.SLogoWorkspace.run</text>
<text text-anchor="middle" x="323" y="-7" font-family="Helvetica,sans-Serif" font-size="10.00">Debugger</text>
</a>
</g>
</g>
<!-- Node1&#45;&gt;Node2 -->
<g id="edge1" class="edge"><title>Node1&#45;&gt;Node2</title>
<path fill="none" stroke="midnightblue" d="M196.329,-15C204.778,-15 213.313,-15 221.746,-15"/>
<polygon fill="midnightblue" stroke="midnightblue" points="196.079,-11.5001 186.079,-15 196.079,-18.5001 196.079,-11.5001"/>
</g>
<!-- Node3 -->
<g id="node3" class="node"><title>Node3</title>
<g id="a_node3"><a xlink:href="../../d3/dbe/classview_1_1_view.html#af4860035310eeafc92cf78cbbc53290a" target="_top" xlink:title="view.View.runDebugger">
<polygon fill="white" stroke="black" points="460,-5.5 460,-24.5 586,-24.5 586,-5.5 460,-5.5"/>
<text text-anchor="middle" x="523" y="-12.5" font-family="Helvetica,sans-Serif" font-size="10.00">view.View.runDebugger</text>
</a>
</g>
</g>
<!-- Node2&#45;&gt;Node3 -->
<g id="edge2" class="edge"><title>Node2&#45;&gt;Node3</title>
<path fill="none" stroke="midnightblue" d="M434.416,-15C443.121,-15 451.705,-15 459.897,-15"/>
<polygon fill="midnightblue" stroke="midnightblue" points="434.16,-11.5001 424.16,-15 434.16,-18.5001 434.16,-11.5001"/>
</g>
<!-- Node4 -->
<g id="node4" class="node"><title>Node4</title>
<g id="a_node4"><a xlink:href="../../d4/d6b/classview_1_1components_1_1_debugger_port.html#a6dd594b7c6572e0f4ef2ab7d8845f2ce" target="_top" xlink:title="view.components.Debugger\lPort.stepDebug">
<polygon fill="white" stroke="black" points="622.5,-0 622.5,-30 771.5,-30 771.5,-0 622.5,-0"/>
<text text-anchor="start" x="630.5" y="-18" font-family="Helvetica,sans-Serif" font-size="10.00">view.components.Debugger</text>
<text text-anchor="middle" x="697" y="-7" font-family="Helvetica,sans-Serif" font-size="10.00">Port.stepDebug</text>
</a>
</g>
</g>
<!-- Node3&#45;&gt;Node4 -->
<g id="edge3" class="edge"><title>Node3&#45;&gt;Node4</title>
<path fill="none" stroke="midnightblue" d="M596.133,-15C604.776,-15 613.611,-15 622.277,-15"/>
<polygon fill="midnightblue" stroke="midnightblue" points="596.096,-11.5001 586.096,-15 596.096,-18.5001 596.096,-11.5001"/>
</g>
<!-- Node5 -->
<g id="node5" class="node"><title>Node5</title>
<g id="a_node5"><a xlink:href="../../d4/d6b/classview_1_1components_1_1_debugger_port.html#a7055f8fe86c7e1078dc9909a7f000b8b" target="_top" xlink:title="view.components.Debugger\lPort.DebuggerPort">
<polygon fill="white" stroke="black" points="808.5,-0 808.5,-30 957.5,-30 957.5,-0 808.5,-0"/>
<text text-anchor="start" x="816.5" y="-18" font-family="Helvetica,sans-Serif" font-size="10.00">view.components.Debugger</text>
<text text-anchor="middle" x="883" y="-7" font-family="Helvetica,sans-Serif" font-size="10.00">Port.DebuggerPort</text>
</a>
</g>
</g>
<!-- Node4&#45;&gt;Node5 -->
<g id="edge4" class="edge"><title>Node4&#45;&gt;Node5</title>
<path fill="none" stroke="midnightblue" d="M781.533,-15C790.462,-15 799.498,-15 808.302,-15"/>
<polygon fill="midnightblue" stroke="midnightblue" points="781.515,-11.5001 771.515,-15 781.515,-18.5001 781.515,-11.5001"/>
</g>
</g>
</svg>
