<?xml version="1.0" encoding="UTF-8" standalone="no"?>
<!DOCTYPE svg PUBLIC "-//W3C//DTD SVG 1.1//EN"
 "http://www.w3.org/Graphics/SVG/1.1/DTD/svg11.dtd">
<!-- Generated by graphviz version 2.36.0 (20140111.2315)
 -->
<!-- Title: view.components.TurtleWindow.exitDebugMode Pages: 1 -->
<svg width="798pt" height="38pt"
 viewBox="0.00 0.00 798.00 38.00" xmlns="http://www.w3.org/2000/svg" xmlns:xlink="http://www.w3.org/1999/xlink">
<g id="graph0" class="graph" transform="scale(1 1) rotate(0) translate(4 34)">
<title>view.components.TurtleWindow.exitDebugMode</title>
<polygon fill="white" stroke="none" points="-4,4 -4,-34 794,-34 794,4 -4,4"/>
<!-- Node1 -->
<g id="node1" class="node"><title>Node1</title>
<polygon fill="#bfbfbf" stroke="black" points="0,-0 0,-30 182,-30 182,-0 0,-0"/>
<text text-anchor="start" x="8" y="-18" font-family="Helvetica,sans-Serif" font-size="10.00">view.components.TurtleWindow.exit</text>
<text text-anchor="middle" x="91" y="-7" font-family="Helvetica,sans-Serif" font-size="10.00">DebugMode</text>
</g>
<!-- Node2 -->
<g id="node2" class="node"><title>Node2</title>
<g id="a_node2"><a xlink:href="../../de/d30/classview_1_1components_1_1_s_logo_workspace.html#a18de98d8715eaf2d6a0d1d43f499a28e" target="_top" xlink:title="view.components.SLogoWorkspace.stop\lDebugger">
<polygon fill="white" stroke="black" points="218.5,-0 218.5,-30 425.5,-30 425.5,-0 218.5,-0"/>
<text text-anchor="start" x="226.5" y="-18" font-family="Helvetica,sans-Serif" font-size="10.00">view.components.SLogoWorkspace.stop</text>
<text text-anchor="middle" x="322" y="-7" font-family="Helvetica,sans-Serif" font-size="10.00">Debugger</text>
</a>
</g>
</g>
<!-- Node1&#45;&gt;Node2 -->
<g id="edge1" class="edge"><title>Node1&#45;&gt;Node2</title>
<path fill="none" stroke="midnightblue" d="M192.286,-15C200.949,-15 209.723,-15 218.404,-15"/>
<polygon fill="midnightblue" stroke="midnightblue" points="192.178,-11.5001 182.178,-15 192.178,-18.5001 192.178,-11.5001"/>
</g>
<!-- Node3 -->
<g id="node3" class="node"><title>Node3</title>
<g id="a_node3"><a xlink:href="../../d3/dbe/classview_1_1_view.html#ac7c7e9f35d78a83a1b6da5a0614c5b7a" target="_top" xlink:title="view.View.removeDebuger">
<polygon fill="white" stroke="black" points="462.5,-5.5 462.5,-24.5 603.5,-24.5 603.5,-5.5 462.5,-5.5"/>
<text text-anchor="middle" x="533" y="-12.5" font-family="Helvetica,sans-Serif" font-size="10.00">view.View.removeDebuger</text>
</a>
</g>
</g>
<!-- Node2&#45;&gt;Node3 -->
<g id="edge2" class="edge"><title>Node2&#45;&gt;Node3</title>
<path fill="none" stroke="midnightblue" d="M435.819,-15C444.795,-15 453.689,-15 462.234,-15"/>
<polygon fill="midnightblue" stroke="midnightblue" points="435.663,-11.5001 425.663,-15 435.663,-18.5001 435.663,-11.5001"/>
</g>
<!-- Node4 -->
<g id="node4" class="node"><title>Node4</title>
<g id="a_node4"><a xlink:href="../../d4/d6b/classview_1_1components_1_1_debugger_port.html#a18fd0abad345eed2738b7e156ac1fbe1" target="_top" xlink:title="view.components.Debugger\lPort.exitDebugMode">
<polygon fill="white" stroke="black" points="640.5,-0 640.5,-30 789.5,-30 789.5,-0 640.5,-0"/>
<text text-anchor="start" x="648.5" y="-18" font-family="Helvetica,sans-Serif" font-size="10.00">view.components.Debugger</text>
<text text-anchor="middle" x="715" y="-7" font-family="Helvetica,sans-Serif" font-size="10.00">Port.exitDebugMode</text>
</a>
</g>
</g>
<!-- Node3&#45;&gt;Node4 -->
<g id="edge3" class="edge"><title>Node3&#45;&gt;Node4</title>
<path fill="none" stroke="midnightblue" d="M613.878,-15C622.709,-15 631.672,-15 640.42,-15"/>
<polygon fill="midnightblue" stroke="midnightblue" points="613.593,-11.5001 603.593,-15 613.593,-18.5001 613.593,-11.5001"/>
</g>
</g>
</svg>
