<?xml version="1.0" encoding="UTF-8" standalone="no"?>
<!DOCTYPE svg PUBLIC "-//W3C//DTD SVG 1.1//EN"
 "http://www.w3.org/Graphics/SVG/1.1/DTD/svg11.dtd">
<!-- Generated by graphviz version 2.36.0 (20140111.2315)
 -->
<!-- Title: view.components.TurtleWindow.exitDebugMode Pages: 1 -->
<svg width="368pt" height="38pt"
 viewBox="0.00 0.00 368.00 38.00" xmlns="http://www.w3.org/2000/svg" xmlns:xlink="http://www.w3.org/1999/xlink">
<g id="graph0" class="graph" transform="scale(1 1) rotate(0) translate(4 34)">
<title>view.components.TurtleWindow.exitDebugMode</title>
<polygon fill="white" stroke="none" points="-4,4 -4,-34 364,-34 364,4 -4,4"/>
<!-- Node1 -->
<g id="node1" class="node"><title>Node1</title>
<polygon fill="#bfbfbf" stroke="black" points="0,-0 0,-30 182,-30 182,-0 0,-0"/>
<text text-anchor="start" x="8" y="-18" font-family="Helvetica,sans-Serif" font-size="10.00">view.components.TurtleWindow.exit</text>
<text text-anchor="middle" x="91" y="-7" font-family="Helvetica,sans-Serif" font-size="10.00">DebugMode</text>
</g>
<!-- Node2 -->
<g id="node2" class="node"><title>Node2</title>
<g id="a_node2"><a xlink:href="../../dd/ddc/classview_1_1turtle_1_1_turtle_image.html#aa4659cd85d2c53df2a990b1a140af98d" target="_top" xlink:title="view.turtle.TurtleImage.set\lRunMode">
<polygon fill="white" stroke="black" points="218.5,-0 218.5,-30 359.5,-30 359.5,-0 218.5,-0"/>
<text text-anchor="start" x="226.5" y="-18" font-family="Helvetica,sans-Serif" font-size="10.00">view.turtle.TurtleImage.set</text>
<text text-anchor="middle" x="289" y="-7" font-family="Helvetica,sans-Serif" font-size="10.00">RunMode</text>
</a>
</g>
</g>
<!-- Node1&#45;&gt;Node2 -->
<g id="edge1" class="edge"><title>Node1&#45;&gt;Node2</title>
<path fill="none" stroke="midnightblue" d="M182.255,-15C190.993,-15 199.813,-15 208.436,-15"/>
<polygon fill="midnightblue" stroke="midnightblue" points="208.451,-18.5001 218.451,-15 208.451,-11.5001 208.451,-18.5001"/>
</g>
</g>
</svg>
