<?xml version="1.0" encoding="UTF-8" standalone="no"?>
<!DOCTYPE svg PUBLIC "-//W3C//DTD SVG 1.1//EN"
 "http://www.w3.org/Graphics/SVG/1.1/DTD/svg11.dtd">
<!-- Generated by graphviz version 2.36.0 (20140111.2315)
 -->
<!-- Title: view.components.TurtleWindow.popMyMenu Pages: 1 -->
<svg width="660pt" height="38pt"
 viewBox="0.00 0.00 660.00 38.00" xmlns="http://www.w3.org/2000/svg" xmlns:xlink="http://www.w3.org/1999/xlink">
<g id="graph0" class="graph" transform="scale(1 1) rotate(0) translate(4 34)">
<title>view.components.TurtleWindow.popMyMenu</title>
<polygon fill="white" stroke="none" points="-4,4 -4,-34 656,-34 656,4 -4,4"/>
<!-- Node1 -->
<g id="node1" class="node"><title>Node1</title>
<polygon fill="#bfbfbf" stroke="black" points="0.5,-0 0.5,-30 183.5,-30 183.5,-0 0.5,-0"/>
<text text-anchor="start" x="8.5" y="-18" font-family="Helvetica,sans-Serif" font-size="10.00">view.components.TurtleWindow.pop</text>
<text text-anchor="middle" x="92" y="-7" font-family="Helvetica,sans-Serif" font-size="10.00">MyMenu</text>
</g>
<!-- Node2 -->
<g id="node2" class="node"><title>Node2</title>
<g id="a_node2"><a xlink:href="../../d5/d4b/classview_1_1components_1_1_turtle_window.html#a680c6f84b0535cd3f58ad6c00670bfc6" target="_top" xlink:title="view.components.TurtleWindow.initializeMenu">
<polygon fill="white" stroke="black" points="220,-5.5 220,-24.5 450,-24.5 450,-5.5 220,-5.5"/>
<text text-anchor="middle" x="335" y="-12.5" font-family="Helvetica,sans-Serif" font-size="10.00">view.components.TurtleWindow.initializeMenu</text>
</a>
</g>
</g>
<!-- Node1&#45;&gt;Node2 -->
<g id="edge1" class="edge"><title>Node1&#45;&gt;Node2</title>
<path fill="none" stroke="midnightblue" d="M194.04,-15C202.524,-15 211.14,-15 219.714,-15"/>
<polygon fill="midnightblue" stroke="midnightblue" points="193.768,-11.5001 183.768,-15 193.768,-18.5001 193.768,-11.5001"/>
</g>
<!-- Node3 -->
<g id="node3" class="node"><title>Node3</title>
<g id="a_node3"><a xlink:href="../../d5/d4b/classview_1_1components_1_1_turtle_window.html#a2ada09496415192344bae7c5289dd3c6" target="_top" xlink:title="view.components.TurtleWindow.\lTurtleWindow">
<polygon fill="white" stroke="black" points="486.5,-0 486.5,-30 651.5,-30 651.5,-0 486.5,-0"/>
<text text-anchor="start" x="494.5" y="-18" font-family="Helvetica,sans-Serif" font-size="10.00">view.components.TurtleWindow.</text>
<text text-anchor="middle" x="569" y="-7" font-family="Helvetica,sans-Serif" font-size="10.00">TurtleWindow</text>
</a>
</g>
</g>
<!-- Node2&#45;&gt;Node3 -->
<g id="edge2" class="edge"><title>Node2&#45;&gt;Node3</title>
<path fill="none" stroke="midnightblue" d="M460.524,-15C469.218,-15 477.848,-15 486.217,-15"/>
<polygon fill="midnightblue" stroke="midnightblue" points="460.301,-11.5001 450.301,-15 460.301,-18.5001 460.301,-11.5001"/>
</g>
</g>
</svg>
