<?xml version="1.0" encoding="UTF-8" standalone="no"?>
<!DOCTYPE svg PUBLIC "-//W3C//DTD SVG 1.1//EN"
 "http://www.w3.org/Graphics/SVG/1.1/DTD/svg11.dtd">
<!-- Generated by graphviz version 2.36.0 (20140111.2315)
 -->
<!-- Title: view.components.TurtleWindow.changeBackground Pages: 1 -->
<svg width="604pt" height="136pt"
 viewBox="0.00 0.00 604.00 136.00" xmlns="http://www.w3.org/2000/svg" xmlns:xlink="http://www.w3.org/1999/xlink">
<g id="graph0" class="graph" transform="scale(1 1) rotate(0) translate(4 132)">
<title>view.components.TurtleWindow.changeBackground</title>
<polygon fill="white" stroke="none" points="-4,4 -4,-132 600,-132 600,4 -4,4"/>
<!-- Node1 -->
<g id="node1" class="node"><title>Node1</title>
<polygon fill="#bfbfbf" stroke="black" points="0,-49 0,-79 200,-79 200,-49 0,-49"/>
<text text-anchor="start" x="8" y="-67" font-family="Helvetica,sans-Serif" font-size="10.00">view.components.TurtleWindow.change</text>
<text text-anchor="middle" x="100" y="-56" font-family="Helvetica,sans-Serif" font-size="10.00">Background</text>
</g>
<!-- Node2 -->
<g id="node2" class="node"><title>Node2</title>
<g id="a_node2"><a xlink:href="../../dc/d2a/classview_1_1toolbar_1_1_background_color_toolbar_item.html#a1e98ce959666bf3b044b1f3a1021d6da" target="_top" xlink:title="view.toolbar.BackgroundColor\lToolbarItem.createNode">
<polygon fill="white" stroke="black" points="240.5,-98 240.5,-128 397.5,-128 397.5,-98 240.5,-98"/>
<text text-anchor="start" x="248.5" y="-116" font-family="Helvetica,sans-Serif" font-size="10.00">view.toolbar.BackgroundColor</text>
<text text-anchor="middle" x="319" y="-105" font-family="Helvetica,sans-Serif" font-size="10.00">ToolbarItem.createNode</text>
</a>
</g>
</g>
<!-- Node1&#45;&gt;Node2 -->
<g id="edge1" class="edge"><title>Node1&#45;&gt;Node2</title>
<path fill="none" stroke="midnightblue" d="M177.429,-81.2581C201.608,-86.718 228.122,-92.705 251.544,-97.9938"/>
<polygon fill="midnightblue" stroke="midnightblue" points="178.107,-77.8233 167.582,-79.0346 176.565,-84.6513 178.107,-77.8233"/>
</g>
<!-- Node3 -->
<g id="node3" class="node"><title>Node3</title>
<g id="a_node3"><a xlink:href="../../da/da8/classview_1_1components_1_1_s_logo_menu_bar.html#a8e395aa3dd6b23abf4e158d4a2f19d10" target="_top" xlink:title="view.components.SLogoMenu\lBar.makePreferencesMenu">
<polygon fill="white" stroke="black" points="240,-49 240,-79 398,-79 398,-49 240,-49"/>
<text text-anchor="start" x="248" y="-67" font-family="Helvetica,sans-Serif" font-size="10.00">view.components.SLogoMenu</text>
<text text-anchor="middle" x="319" y="-56" font-family="Helvetica,sans-Serif" font-size="10.00">Bar.makePreferencesMenu</text>
</a>
</g>
</g>
<!-- Node1&#45;&gt;Node3 -->
<g id="edge2" class="edge"><title>Node1&#45;&gt;Node3</title>
<path fill="none" stroke="midnightblue" d="M210.586,-64C220.474,-64 230.35,-64 239.885,-64"/>
<polygon fill="midnightblue" stroke="midnightblue" points="210.292,-60.5001 200.292,-64 210.292,-67.5001 210.292,-60.5001"/>
</g>
<!-- Node5 -->
<g id="node5" class="node"><title>Node5</title>
<g id="a_node5"><a xlink:href="../../d5/d4b/classview_1_1components_1_1_turtle_window.html#a2ada09496415192344bae7c5289dd3c6" target="_top" xlink:title="view.components.TurtleWindow.\lTurtleWindow">
<polygon fill="white" stroke="black" points="236.5,-0 236.5,-30 401.5,-30 401.5,-0 236.5,-0"/>
<text text-anchor="start" x="244.5" y="-18" font-family="Helvetica,sans-Serif" font-size="10.00">view.components.TurtleWindow.</text>
<text text-anchor="middle" x="319" y="-7" font-family="Helvetica,sans-Serif" font-size="10.00">TurtleWindow</text>
</a>
</g>
</g>
<!-- Node1&#45;&gt;Node5 -->
<g id="edge4" class="edge"><title>Node1&#45;&gt;Node5</title>
<path fill="none" stroke="midnightblue" d="M177.429,-46.7419C201.608,-41.282 228.122,-35.295 251.544,-30.0062"/>
<polygon fill="midnightblue" stroke="midnightblue" points="176.565,-43.3487 167.582,-48.9654 178.107,-50.1767 176.565,-43.3487"/>
</g>
<!-- Node4 -->
<g id="node4" class="node"><title>Node4</title>
<g id="a_node4"><a xlink:href="../../da/da8/classview_1_1components_1_1_s_logo_menu_bar.html#afbe8434fba1476e5cbe7401c6bc158ec" target="_top" xlink:title="view.components.SLogoMenu\lBar.SLogoMenuBar">
<polygon fill="white" stroke="black" points="438,-49 438,-79 596,-79 596,-49 438,-49"/>
<text text-anchor="start" x="446" y="-67" font-family="Helvetica,sans-Serif" font-size="10.00">view.components.SLogoMenu</text>
<text text-anchor="middle" x="517" y="-56" font-family="Helvetica,sans-Serif" font-size="10.00">Bar.SLogoMenuBar</text>
</a>
</g>
</g>
<!-- Node3&#45;&gt;Node4 -->
<g id="edge3" class="edge"><title>Node3&#45;&gt;Node4</title>
<path fill="none" stroke="midnightblue" d="M408.266,-64C418.153,-64 428.174,-64 437.921,-64"/>
<polygon fill="midnightblue" stroke="midnightblue" points="408.028,-60.5001 398.028,-64 408.028,-67.5001 408.028,-60.5001"/>
</g>
</g>
</svg>
