<?xml version="1.0" encoding="UTF-8" standalone="no"?>
<!DOCTYPE svg PUBLIC "-//W3C//DTD SVG 1.1//EN"
 "http://www.w3.org/Graphics/SVG/1.1/DTD/svg11.dtd">
<!-- Generated by graphviz version 2.36.0 (20140111.2315)
 -->
<!-- Title: view.components.TurtleWindow.TurtleWindow Pages: 1 -->
<svg width="660pt" height="234pt"
 viewBox="0.00 0.00 660.00 234.00" xmlns="http://www.w3.org/2000/svg" xmlns:xlink="http://www.w3.org/1999/xlink">
<g id="graph0" class="graph" transform="scale(1 1) rotate(0) translate(4 230)">
<title>view.components.TurtleWindow.TurtleWindow</title>
<polygon fill="white" stroke="none" points="-4,4 -4,-230 656,-230 656,4 -4,4"/>
<!-- Node1 -->
<g id="node1" class="node"><title>Node1</title>
<polygon fill="#bfbfbf" stroke="black" points="0.5,-142 0.5,-172 165.5,-172 165.5,-142 0.5,-142"/>
<text text-anchor="start" x="8.5" y="-160" font-family="Helvetica,sans-Serif" font-size="10.00">view.components.TurtleWindow.</text>
<text text-anchor="middle" x="83" y="-149" font-family="Helvetica,sans-Serif" font-size="10.00">TurtleWindow</text>
</g>
<!-- Node2 -->
<g id="node2" class="node"><title>Node2</title>
<g id="a_node2"><a xlink:href="../../d5/d4b/classview_1_1components_1_1_turtle_window.html#a1a607039481873f2affd1fc050225ffb" target="_top" xlink:title="view.components.TurtleWindow.add\lTurtle">
<polygon fill="white" stroke="black" points="225.5,-191 225.5,-221 408.5,-221 408.5,-191 225.5,-191"/>
<text text-anchor="start" x="233.5" y="-209" font-family="Helvetica,sans-Serif" font-size="10.00">view.components.TurtleWindow.add</text>
<text text-anchor="middle" x="317" y="-198" font-family="Helvetica,sans-Serif" font-size="10.00">Turtle</text>
</a>
</g>
</g>
<!-- Node1&#45;&gt;Node2 -->
<g id="edge1" class="edge"><title>Node1&#45;&gt;Node2</title>
<path fill="none" stroke="midnightblue" d="M155.184,-172.035C180.46,-177.373 209.09,-183.42 235.115,-188.917"/>
<polygon fill="midnightblue" stroke="midnightblue" points="234.443,-192.352 244.95,-190.994 235.889,-185.503 234.443,-192.352"/>
</g>
<!-- Node3 -->
<g id="node3" class="node"><title>Node3</title>
<g id="a_node3"><a xlink:href="../../d5/d4b/classview_1_1components_1_1_turtle_window.html#ad4f625758c236a2e57e44a7c201e21d2" target="_top" xlink:title="view.components.TurtleWindow.change\lBackground">
<polygon fill="white" stroke="black" points="217,-142 217,-172 417,-172 417,-142 217,-142"/>
<text text-anchor="start" x="225" y="-160" font-family="Helvetica,sans-Serif" font-size="10.00">view.components.TurtleWindow.change</text>
<text text-anchor="middle" x="317" y="-149" font-family="Helvetica,sans-Serif" font-size="10.00">Background</text>
</a>
</g>
</g>
<!-- Node1&#45;&gt;Node3 -->
<g id="edge2" class="edge"><title>Node1&#45;&gt;Node3</title>
<path fill="none" stroke="midnightblue" d="M165.795,-157C178.893,-157 192.631,-157 206.254,-157"/>
<polygon fill="midnightblue" stroke="midnightblue" points="206.636,-160.5 216.636,-157 206.636,-153.5 206.636,-160.5"/>
</g>
<!-- Node4 -->
<g id="node4" class="node"><title>Node4</title>
<g id="a_node4"><a xlink:href="../../d5/d4b/classview_1_1components_1_1_turtle_window.html#a680c6f84b0535cd3f58ad6c00670bfc6" target="_top" xlink:title="view.components.TurtleWindow.initializeMenu">
<polygon fill="white" stroke="black" points="202,-103.5 202,-122.5 432,-122.5 432,-103.5 202,-103.5"/>
<text text-anchor="middle" x="317" y="-110.5" font-family="Helvetica,sans-Serif" font-size="10.00">view.components.TurtleWindow.initializeMenu</text>
</a>
</g>
</g>
<!-- Node1&#45;&gt;Node4 -->
<g id="edge3" class="edge"><title>Node1&#45;&gt;Node4</title>
<path fill="none" stroke="midnightblue" d="M156.328,-141.968C171.407,-138.925 187.211,-135.801 202,-133 217.467,-130.071 234.143,-127.062 249.84,-124.296"/>
<polygon fill="midnightblue" stroke="midnightblue" points="250.746,-127.69 259.991,-122.516 249.537,-120.795 250.746,-127.69"/>
</g>
<!-- Node5 -->
<g id="node5" class="node"><title>Node5</title>
<g id="a_node5"><a xlink:href="../../d5/d4b/classview_1_1components_1_1_turtle_window.html#a8b03eaae70dcae6eef8205ac391ea985" target="_top" xlink:title="view.components.TurtleWindow.set\lDefaultImagePalette">
<polygon fill="white" stroke="black" points="470,-196 470,-226 650,-226 650,-196 470,-196"/>
<text text-anchor="start" x="478" y="-214" font-family="Helvetica,sans-Serif" font-size="10.00">view.components.TurtleWindow.set</text>
<text text-anchor="middle" x="560" y="-203" font-family="Helvetica,sans-Serif" font-size="10.00">DefaultImagePalette</text>
</a>
</g>
</g>
<!-- Node4&#45;&gt;Node5 -->
<g id="edge4" class="edge"><title>Node4&#45;&gt;Node5</title>
<path fill="none" stroke="midnightblue" d="M410.683,-122.578C418.197,-125.323 425.419,-128.745 432,-133 455.914,-148.46 444.843,-169.429 468,-186 470.731,-187.955 473.609,-189.756 476.592,-191.418"/>
<polygon fill="midnightblue" stroke="midnightblue" points="475.3,-194.684 485.814,-195.99 478.41,-188.412 475.3,-194.684"/>
</g>
<!-- Node6 -->
<g id="node6" class="node"><title>Node6</title>
<g id="a_node6"><a xlink:href="../../d5/d4b/classview_1_1components_1_1_turtle_window.html#a8693833628c43ffe3d2dc9d8ca0e07c1" target="_top" xlink:title="view.components.TurtleWindow.set\lImagePaletteMenu">
<polygon fill="white" stroke="black" points="470,-147 470,-177 650,-177 650,-147 470,-147"/>
<text text-anchor="start" x="478" y="-165" font-family="Helvetica,sans-Serif" font-size="10.00">view.components.TurtleWindow.set</text>
<text text-anchor="middle" x="560" y="-154" font-family="Helvetica,sans-Serif" font-size="10.00">ImagePaletteMenu</text>
</a>
</g>
</g>
<!-- Node4&#45;&gt;Node6 -->
<g id="edge5" class="edge"><title>Node4&#45;&gt;Node6</title>
<path fill="none" stroke="midnightblue" d="M375.517,-122.504C393.628,-125.654 413.682,-129.304 432,-133 449.513,-136.533 468.311,-140.647 485.933,-144.648"/>
<polygon fill="midnightblue" stroke="midnightblue" points="485.625,-148.167 496.154,-146.984 487.185,-141.344 485.625,-148.167"/>
</g>
<!-- Node7 -->
<g id="node7" class="node"><title>Node7</title>
<g id="a_node7"><a xlink:href="../../d5/d4b/classview_1_1components_1_1_turtle_window.html#afd6f13b04109b0f2b591626e5346065c" target="_top" xlink:title="view.components.TurtleWindow.set\lDefaultColorPalette">
<polygon fill="white" stroke="black" points="470,-98 470,-128 650,-128 650,-98 470,-98"/>
<text text-anchor="start" x="478" y="-116" font-family="Helvetica,sans-Serif" font-size="10.00">view.components.TurtleWindow.set</text>
<text text-anchor="middle" x="560" y="-105" font-family="Helvetica,sans-Serif" font-size="10.00">DefaultColorPalette</text>
</a>
</g>
</g>
<!-- Node4&#45;&gt;Node7 -->
<g id="edge6" class="edge"><title>Node4&#45;&gt;Node7</title>
<path fill="none" stroke="midnightblue" d="M432.148,-113C441.341,-113 450.584,-113 459.661,-113"/>
<polygon fill="midnightblue" stroke="midnightblue" points="459.828,-116.5 469.828,-113 459.828,-109.5 459.828,-116.5"/>
</g>
<!-- Node8 -->
<g id="node8" class="node"><title>Node8</title>
<g id="a_node8"><a xlink:href="../../d5/d4b/classview_1_1components_1_1_turtle_window.html#a31c7742f40dc77cd7f7c211c24b5d2be" target="_top" xlink:title="view.components.TurtleWindow.set\lColorPaletteMenu">
<polygon fill="white" stroke="black" points="470,-49 470,-79 650,-79 650,-49 470,-49"/>
<text text-anchor="start" x="478" y="-67" font-family="Helvetica,sans-Serif" font-size="10.00">view.components.TurtleWindow.set</text>
<text text-anchor="middle" x="560" y="-56" font-family="Helvetica,sans-Serif" font-size="10.00">ColorPaletteMenu</text>
</a>
</g>
</g>
<!-- Node4&#45;&gt;Node8 -->
<g id="edge7" class="edge"><title>Node4&#45;&gt;Node8</title>
<path fill="none" stroke="midnightblue" d="M364.753,-103.494C395.908,-97.1598 437.749,-88.6527 474.619,-81.1562"/>
<polygon fill="midnightblue" stroke="midnightblue" points="475.772,-84.4936 484.874,-79.0713 474.377,-77.634 475.772,-84.4936"/>
</g>
<!-- Node9 -->
<g id="node9" class="node"><title>Node9</title>
<g id="a_node9"><a xlink:href="../../d5/d4b/classview_1_1components_1_1_turtle_window.html#a8054a28718caed4dc748aa1c05e20067" target="_top" xlink:title="view.components.TurtleWindow.pop\lMyMenu">
<polygon fill="white" stroke="black" points="468.5,-0 468.5,-30 651.5,-30 651.5,-0 468.5,-0"/>
<text text-anchor="start" x="476.5" y="-18" font-family="Helvetica,sans-Serif" font-size="10.00">view.components.TurtleWindow.pop</text>
<text text-anchor="middle" x="560" y="-7" font-family="Helvetica,sans-Serif" font-size="10.00">MyMenu</text>
</a>
</g>
</g>
<!-- Node4&#45;&gt;Node9 -->
<g id="edge8" class="edge"><title>Node4&#45;&gt;Node9</title>
<path fill="none" stroke="midnightblue" d="M335.089,-103.386C362.461,-88.286 418.136,-58.7984 468,-40 474.386,-37.5924 481.104,-35.3065 487.875,-33.1662"/>
<polygon fill="midnightblue" stroke="midnightblue" points="489.259,-36.4033 497.803,-30.1376 487.217,-29.7079 489.259,-36.4033"/>
</g>
</g>
</svg>
