<?xml version="1.0" encoding="UTF-8" standalone="no"?>
<!DOCTYPE svg PUBLIC "-//W3C//DTD SVG 1.1//EN"
 "http://www.w3.org/Graphics/SVG/1.1/DTD/svg11.dtd">
<!-- Generated by graphviz version 2.36.0 (20140111.2315)
 -->
<!-- Title: view.components.TurtleWindow.initializeMenu Pages: 1 -->
<svg width="458pt" height="234pt"
 viewBox="0.00 0.00 458.00 234.00" xmlns="http://www.w3.org/2000/svg" xmlns:xlink="http://www.w3.org/1999/xlink">
<g id="graph0" class="graph" transform="scale(1 1) rotate(0) translate(4 230)">
<title>view.components.TurtleWindow.initializeMenu</title>
<polygon fill="white" stroke="none" points="-4,4 -4,-230 454,-230 454,4 -4,4"/>
<!-- Node1 -->
<g id="node1" class="node"><title>Node1</title>
<polygon fill="#bfbfbf" stroke="black" points="0,-103.5 0,-122.5 230,-122.5 230,-103.5 0,-103.5"/>
<text text-anchor="middle" x="115" y="-110.5" font-family="Helvetica,sans-Serif" font-size="10.00">view.components.TurtleWindow.initializeMenu</text>
</g>
<!-- Node2 -->
<g id="node2" class="node"><title>Node2</title>
<g id="a_node2"><a xlink:href="../../d5/d4b/classview_1_1components_1_1_turtle_window.html#a8054a28718caed4dc748aa1c05e20067" target="_top" xlink:title="view.components.TurtleWindow.pop\lMyMenu">
<polygon fill="white" stroke="black" points="266.5,-196 266.5,-226 449.5,-226 449.5,-196 266.5,-196"/>
<text text-anchor="start" x="274.5" y="-214" font-family="Helvetica,sans-Serif" font-size="10.00">view.components.TurtleWindow.pop</text>
<text text-anchor="middle" x="358" y="-203" font-family="Helvetica,sans-Serif" font-size="10.00">MyMenu</text>
</a>
</g>
</g>
<!-- Node1&#45;&gt;Node2 -->
<g id="edge1" class="edge"><title>Node1&#45;&gt;Node2</title>
<path fill="none" stroke="midnightblue" d="M133.089,-122.614C160.461,-137.714 216.136,-167.202 266,-186 272.386,-188.408 279.104,-190.694 285.875,-192.834"/>
<polygon fill="midnightblue" stroke="midnightblue" points="285.217,-196.292 295.803,-195.862 287.259,-189.597 285.217,-196.292"/>
</g>
<!-- Node3 -->
<g id="node3" class="node"><title>Node3</title>
<g id="a_node3"><a xlink:href="../../d5/d4b/classview_1_1components_1_1_turtle_window.html#a31c7742f40dc77cd7f7c211c24b5d2be" target="_top" xlink:title="view.components.TurtleWindow.set\lColorPaletteMenu">
<polygon fill="white" stroke="black" points="268,-147 268,-177 448,-177 448,-147 268,-147"/>
<text text-anchor="start" x="276" y="-165" font-family="Helvetica,sans-Serif" font-size="10.00">view.components.TurtleWindow.set</text>
<text text-anchor="middle" x="358" y="-154" font-family="Helvetica,sans-Serif" font-size="10.00">ColorPaletteMenu</text>
</a>
</g>
</g>
<!-- Node1&#45;&gt;Node3 -->
<g id="edge2" class="edge"><title>Node1&#45;&gt;Node3</title>
<path fill="none" stroke="midnightblue" d="M162.753,-122.506C193.908,-128.84 235.749,-137.347 272.619,-144.844"/>
<polygon fill="midnightblue" stroke="midnightblue" points="272.377,-148.366 282.874,-146.929 273.772,-141.506 272.377,-148.366"/>
</g>
<!-- Node4 -->
<g id="node4" class="node"><title>Node4</title>
<g id="a_node4"><a xlink:href="../../d5/d4b/classview_1_1components_1_1_turtle_window.html#afd6f13b04109b0f2b591626e5346065c" target="_top" xlink:title="view.components.TurtleWindow.set\lDefaultColorPalette">
<polygon fill="white" stroke="black" points="268,-98 268,-128 448,-128 448,-98 268,-98"/>
<text text-anchor="start" x="276" y="-116" font-family="Helvetica,sans-Serif" font-size="10.00">view.components.TurtleWindow.set</text>
<text text-anchor="middle" x="358" y="-105" font-family="Helvetica,sans-Serif" font-size="10.00">DefaultColorPalette</text>
</a>
</g>
</g>
<!-- Node1&#45;&gt;Node4 -->
<g id="edge3" class="edge"><title>Node1&#45;&gt;Node4</title>
<path fill="none" stroke="midnightblue" d="M230.148,-113C239.341,-113 248.584,-113 257.661,-113"/>
<polygon fill="midnightblue" stroke="midnightblue" points="257.828,-116.5 267.828,-113 257.828,-109.5 257.828,-116.5"/>
</g>
<!-- Node5 -->
<g id="node5" class="node"><title>Node5</title>
<g id="a_node5"><a xlink:href="../../d5/d4b/classview_1_1components_1_1_turtle_window.html#a8b03eaae70dcae6eef8205ac391ea985" target="_top" xlink:title="view.components.TurtleWindow.set\lDefaultImagePalette">
<polygon fill="white" stroke="black" points="268,-49 268,-79 448,-79 448,-49 268,-49"/>
<text text-anchor="start" x="276" y="-67" font-family="Helvetica,sans-Serif" font-size="10.00">view.components.TurtleWindow.set</text>
<text text-anchor="middle" x="358" y="-56" font-family="Helvetica,sans-Serif" font-size="10.00">DefaultImagePalette</text>
</a>
</g>
</g>
<!-- Node1&#45;&gt;Node5 -->
<g id="edge4" class="edge"><title>Node1&#45;&gt;Node5</title>
<path fill="none" stroke="midnightblue" d="M162.753,-103.494C193.908,-97.1598 235.749,-88.6527 272.619,-81.1562"/>
<polygon fill="midnightblue" stroke="midnightblue" points="273.772,-84.4936 282.874,-79.0713 272.377,-77.634 273.772,-84.4936"/>
</g>
<!-- Node6 -->
<g id="node6" class="node"><title>Node6</title>
<g id="a_node6"><a xlink:href="../../d5/d4b/classview_1_1components_1_1_turtle_window.html#a8693833628c43ffe3d2dc9d8ca0e07c1" target="_top" xlink:title="view.components.TurtleWindow.set\lImagePaletteMenu">
<polygon fill="white" stroke="black" points="268,-0 268,-30 448,-30 448,-0 268,-0"/>
<text text-anchor="start" x="276" y="-18" font-family="Helvetica,sans-Serif" font-size="10.00">view.components.TurtleWindow.set</text>
<text text-anchor="middle" x="358" y="-7" font-family="Helvetica,sans-Serif" font-size="10.00">ImagePaletteMenu</text>
</a>
</g>
</g>
<!-- Node1&#45;&gt;Node6 -->
<g id="edge5" class="edge"><title>Node1&#45;&gt;Node6</title>
<path fill="none" stroke="midnightblue" d="M133.089,-103.386C160.461,-88.286 216.136,-58.7984 266,-40 272.386,-37.5924 279.104,-35.3065 285.875,-33.1662"/>
<polygon fill="midnightblue" stroke="midnightblue" points="287.259,-36.4033 295.803,-30.1376 285.217,-29.7079 287.259,-36.4033"/>
</g>
</g>
</svg>
