<?xml version="1.0" encoding="UTF-8" standalone="no"?>
<!DOCTYPE svg PUBLIC "-//W3C//DTD SVG 1.1//EN"
 "http://www.w3.org/Graphics/SVG/1.1/DTD/svg11.dtd">
<!-- Generated by graphviz version 2.36.0 (20140111.2315)
 -->
<!-- Title: view.components.TurtleWindow.setDefaultColorPalette Pages: 1 -->
<svg width="656pt" height="38pt"
 viewBox="0.00 0.00 656.00 38.00" xmlns="http://www.w3.org/2000/svg" xmlns:xlink="http://www.w3.org/1999/xlink">
<g id="graph0" class="graph" transform="scale(1 1) rotate(0) translate(4 34)">
<title>view.components.TurtleWindow.setDefaultColorPalette</title>
<polygon fill="white" stroke="none" points="-4,4 -4,-34 652,-34 652,4 -4,4"/>
<!-- Node1 -->
<g id="node1" class="node"><title>Node1</title>
<polygon fill="#bfbfbf" stroke="black" points="0,-0 0,-30 180,-30 180,-0 0,-0"/>
<text text-anchor="start" x="8" y="-18" font-family="Helvetica,sans-Serif" font-size="10.00">view.components.TurtleWindow.set</text>
<text text-anchor="middle" x="90" y="-7" font-family="Helvetica,sans-Serif" font-size="10.00">DefaultColorPalette</text>
</g>
<!-- Node2 -->
<g id="node2" class="node"><title>Node2</title>
<g id="a_node2"><a xlink:href="../../d5/d4b/classview_1_1components_1_1_turtle_window.html#a680c6f84b0535cd3f58ad6c00670bfc6" target="_top" xlink:title="view.components.TurtleWindow.initializeMenu">
<polygon fill="white" stroke="black" points="216,-5.5 216,-24.5 446,-24.5 446,-5.5 216,-5.5"/>
<text text-anchor="middle" x="331" y="-12.5" font-family="Helvetica,sans-Serif" font-size="10.00">view.components.TurtleWindow.initializeMenu</text>
</a>
</g>
</g>
<!-- Node1&#45;&gt;Node2 -->
<g id="edge1" class="edge"><title>Node1&#45;&gt;Node2</title>
<path fill="none" stroke="midnightblue" d="M190.427,-15C198.765,-15 207.237,-15 215.674,-15"/>
<polygon fill="midnightblue" stroke="midnightblue" points="190.335,-11.5001 180.335,-15 190.335,-18.5001 190.335,-11.5001"/>
</g>
<!-- Node3 -->
<g id="node3" class="node"><title>Node3</title>
<g id="a_node3"><a xlink:href="../../d5/d4b/classview_1_1components_1_1_turtle_window.html#a2ada09496415192344bae7c5289dd3c6" target="_top" xlink:title="view.components.TurtleWindow.\lTurtleWindow">
<polygon fill="white" stroke="black" points="482.5,-0 482.5,-30 647.5,-30 647.5,-0 482.5,-0"/>
<text text-anchor="start" x="490.5" y="-18" font-family="Helvetica,sans-Serif" font-size="10.00">view.components.TurtleWindow.</text>
<text text-anchor="middle" x="565" y="-7" font-family="Helvetica,sans-Serif" font-size="10.00">TurtleWindow</text>
</a>
</g>
</g>
<!-- Node2&#45;&gt;Node3 -->
<g id="edge2" class="edge"><title>Node2&#45;&gt;Node3</title>
<path fill="none" stroke="midnightblue" d="M456.524,-15C465.218,-15 473.848,-15 482.217,-15"/>
<polygon fill="midnightblue" stroke="midnightblue" points="456.301,-11.5001 446.301,-15 456.301,-18.5001 456.301,-11.5001"/>
</g>
</g>
</svg>
