<?xml version="1.0" encoding="UTF-8" standalone="no"?>
<!DOCTYPE svg PUBLIC "-//W3C//DTD SVG 1.1//EN"
 "http://www.w3.org/Graphics/SVG/1.1/DTD/svg11.dtd">
<!-- Generated by graphviz version 2.36.0 (20140111.2315)
 -->
<!-- Title: view.components.TurtleWindow.update Pages: 1 -->
<svg width="410pt" height="377pt"
 viewBox="0.00 0.00 410.00 377.00" xmlns="http://www.w3.org/2000/svg" xmlns:xlink="http://www.w3.org/1999/xlink">
<g id="graph0" class="graph" transform="scale(1 1) rotate(0) translate(4 373)">
<title>view.components.TurtleWindow.update</title>
<polygon fill="white" stroke="none" points="-4,4 -4,-373 406,-373 406,4 -4,4"/>
<!-- Node1 -->
<g id="node1" class="node"><title>Node1</title>
<polygon fill="#bfbfbf" stroke="black" points="0.5,-174.5 0.5,-193.5 199.5,-193.5 199.5,-174.5 0.5,-174.5"/>
<text text-anchor="middle" x="100" y="-181.5" font-family="Helvetica,sans-Serif" font-size="10.00">view.components.TurtleWindow.update</text>
</g>
<!-- Node2 -->
<g id="node2" class="node"><title>Node2</title>
<g id="a_node2"><a xlink:href="../../df/d1e/interfacemodel_1_1_view_initializer.html#ac7062d006f5bb45b2d8936d1ef9fb121" target="_top" xlink:title="model.ViewInitializer.get\lBackgroundID">
<polygon fill="white" stroke="black" points="253.5,-339 253.5,-369 384.5,-369 384.5,-339 253.5,-339"/>
<text text-anchor="start" x="261.5" y="-357" font-family="Helvetica,sans-Serif" font-size="10.00">model.ViewInitializer.get</text>
<text text-anchor="middle" x="319" y="-346" font-family="Helvetica,sans-Serif" font-size="10.00">BackgroundID</text>
</a>
</g>
</g>
<!-- Node1&#45;&gt;Node2 -->
<g id="edge1" class="edge"><title>Node1&#45;&gt;Node2</title>
<path fill="none" stroke="midnightblue" d="M107.308,-193.756C124.62,-219.752 175.621,-291.27 236,-329 239.382,-331.113 242.955,-333.058 246.641,-334.847"/>
<polygon fill="midnightblue" stroke="midnightblue" points="245.432,-338.139 255.993,-338.977 248.26,-331.736 245.432,-338.139"/>
</g>
<!-- Node3 -->
<g id="node3" class="node"><title>Node3</title>
<g id="a_node3"><a xlink:href="../../d7/d16/interfacemodel_1_1_view_update.html#acd9e9e824ea983b3edfbfac3e55c999c" target="_top" xlink:title="model.ViewUpdate.getPaletteB">
<polygon fill="white" stroke="black" points="236.5,-300.5 236.5,-319.5 401.5,-319.5 401.5,-300.5 236.5,-300.5"/>
<text text-anchor="middle" x="319" y="-307.5" font-family="Helvetica,sans-Serif" font-size="10.00">model.ViewUpdate.getPaletteB</text>
</a>
</g>
</g>
<!-- Node1&#45;&gt;Node3 -->
<g id="edge2" class="edge"><title>Node1&#45;&gt;Node3</title>
<path fill="none" stroke="midnightblue" d="M110.124,-193.71C130.548,-214.841 182.384,-265.17 236,-291 241.019,-293.418 246.362,-295.537 251.821,-297.393"/>
<polygon fill="midnightblue" stroke="midnightblue" points="251.14,-300.846 261.727,-300.457 253.208,-294.158 251.14,-300.846"/>
</g>
<!-- Node4 -->
<g id="node4" class="node"><title>Node4</title>
<g id="a_node4"><a xlink:href="../../d7/d16/interfacemodel_1_1_view_update.html#a806f76caac0efd95fd5202ec0165a4e9" target="_top" xlink:title="model.ViewUpdate.getPaletteG">
<polygon fill="white" stroke="black" points="236,-262.5 236,-281.5 402,-281.5 402,-262.5 236,-262.5"/>
<text text-anchor="middle" x="319" y="-269.5" font-family="Helvetica,sans-Serif" font-size="10.00">model.ViewUpdate.getPaletteG</text>
</a>
</g>
</g>
<!-- Node1&#45;&gt;Node4 -->
<g id="edge3" class="edge"><title>Node1&#45;&gt;Node4</title>
<path fill="none" stroke="midnightblue" d="M117.085,-193.623C141.856,-208.087 191.182,-235.492 236,-252 244.005,-254.949 252.61,-257.591 261.128,-259.913"/>
<polygon fill="midnightblue" stroke="midnightblue" points="260.488,-263.362 271.047,-262.491 262.249,-256.588 260.488,-263.362"/>
</g>
<!-- Node5 -->
<g id="node5" class="node"><title>Node5</title>
<g id="a_node5"><a xlink:href="../../d7/d16/interfacemodel_1_1_view_update.html#a456d1d69e0419ba06d395378882a73d8" target="_top" xlink:title="model.ViewUpdate.getPalette\lIndex">
<polygon fill="white" stroke="black" points="240,-213 240,-243 398,-243 398,-213 240,-213"/>
<text text-anchor="start" x="248" y="-231" font-family="Helvetica,sans-Serif" font-size="10.00">model.ViewUpdate.getPalette</text>
<text text-anchor="middle" x="319" y="-220" font-family="Helvetica,sans-Serif" font-size="10.00">Index</text>
</a>
</g>
</g>
<!-- Node1&#45;&gt;Node5 -->
<g id="edge4" class="edge"><title>Node1&#45;&gt;Node5</title>
<path fill="none" stroke="midnightblue" d="M148.086,-193.547C173.063,-198.612 204.514,-204.989 233.547,-210.876"/>
<polygon fill="midnightblue" stroke="midnightblue" points="233.204,-214.378 243.7,-212.935 234.595,-207.517 233.204,-214.378"/>
</g>
<!-- Node6 -->
<g id="node6" class="node"><title>Node6</title>
<g id="a_node6"><a xlink:href="../../d7/d16/interfacemodel_1_1_view_update.html#aaf0b6c79a11cb77948521a788f1255a2" target="_top" xlink:title="model.ViewUpdate.getPaletteR">
<polygon fill="white" stroke="black" points="237,-174.5 237,-193.5 401,-193.5 401,-174.5 237,-174.5"/>
<text text-anchor="middle" x="319" y="-181.5" font-family="Helvetica,sans-Serif" font-size="10.00">model.ViewUpdate.getPaletteR</text>
</a>
</g>
</g>
<!-- Node1&#45;&gt;Node6 -->
<g id="edge5" class="edge"><title>Node1&#45;&gt;Node6</title>
<path fill="none" stroke="midnightblue" d="M199.658,-184C208.687,-184 217.809,-184 226.768,-184"/>
<polygon fill="midnightblue" stroke="midnightblue" points="226.802,-187.5 236.802,-184 226.802,-180.5 226.802,-187.5"/>
</g>
<!-- Node7 -->
<g id="node7" class="node"><title>Node7</title>
<g id="a_node7"><a xlink:href="../../da/d87/interfacemodel_1_1_pen_update.html#a6f70341b8b9fa5e0802f7d36c0831621" target="_top" xlink:title="model.PenUpdate.getTurtleID">
<polygon fill="white" stroke="black" points="240.5,-136.5 240.5,-155.5 397.5,-155.5 397.5,-136.5 240.5,-136.5"/>
<text text-anchor="middle" x="319" y="-143.5" font-family="Helvetica,sans-Serif" font-size="10.00">model.PenUpdate.getTurtleID</text>
</a>
</g>
</g>
<!-- Node1&#45;&gt;Node7 -->
<g id="edge6" class="edge"><title>Node1&#45;&gt;Node7</title>
<path fill="none" stroke="midnightblue" d="M155.478,-174.46C185.272,-169.243 222.363,-162.747 253.585,-157.28"/>
<polygon fill="midnightblue" stroke="midnightblue" points="254.253,-160.716 263.499,-155.544 253.046,-153.821 254.253,-160.716"/>
</g>
<!-- Node8 -->
<g id="node8" class="node"><title>Node8</title>
<g id="a_node8"><a xlink:href="../../db/dce/classmodel_1_1_turtle_update.html#afaed2299ec5333a45c5388dfa143a733" target="_top" xlink:title="model.TurtleUpdate.getTurtleID">
<polygon fill="white" stroke="black" points="237,-98.5 237,-117.5 401,-117.5 401,-98.5 237,-98.5"/>
<text text-anchor="middle" x="319" y="-105.5" font-family="Helvetica,sans-Serif" font-size="10.00">model.TurtleUpdate.getTurtleID</text>
</a>
</g>
</g>
<!-- Node1&#45;&gt;Node8 -->
<g id="edge7" class="edge"><title>Node1&#45;&gt;Node8</title>
<path fill="none" stroke="midnightblue" d="M120.719,-174.405C146.658,-162.081 193.892,-140.656 236,-127 243.807,-124.468 252.135,-122.133 260.381,-120.029"/>
<polygon fill="midnightblue" stroke="midnightblue" points="261.478,-123.364 270.356,-117.581 259.81,-116.566 261.478,-123.364"/>
</g>
<!-- Node9 -->
<g id="node9" class="node"><title>Node9</title>
<g id="a_node9"><a xlink:href="../../d7/d16/interfacemodel_1_1_view_update.html#a379c333e12c114c4cd33c992efd856a8" target="_top" xlink:title="model.ViewUpdate.isClear\lStamps">
<polygon fill="white" stroke="black" points="248,-49 248,-79 390,-79 390,-49 248,-49"/>
<text text-anchor="start" x="256" y="-67" font-family="Helvetica,sans-Serif" font-size="10.00">model.ViewUpdate.isClear</text>
<text text-anchor="middle" x="319" y="-56" font-family="Helvetica,sans-Serif" font-size="10.00">Stamps</text>
</a>
</g>
</g>
<!-- Node1&#45;&gt;Node9 -->
<g id="edge8" class="edge"><title>Node1&#45;&gt;Node9</title>
<path fill="none" stroke="midnightblue" d="M112.13,-174.278C134.276,-155.381 186.048,-113.412 236,-89 240.645,-86.7302 245.538,-84.6161 250.528,-82.6572"/>
<polygon fill="midnightblue" stroke="midnightblue" points="252.036,-85.8315 260.202,-79.0814 249.609,-79.2656 252.036,-85.8315"/>
</g>
<!-- Node10 -->
<g id="node10" class="node"><title>Node10</title>
<g id="a_node10"><a xlink:href="../../dd/ddc/classview_1_1turtle_1_1_turtle_image.html#a4e45cd3928280f9d0641e26af09b444d" target="_top" xlink:title="view.turtle.TurtleImage.update\lPalette">
<polygon fill="white" stroke="black" points="239,-0 239,-30 399,-30 399,-0 239,-0"/>
<text text-anchor="start" x="247" y="-18" font-family="Helvetica,sans-Serif" font-size="10.00">view.turtle.TurtleImage.update</text>
<text text-anchor="middle" x="319" y="-7" font-family="Helvetica,sans-Serif" font-size="10.00">Palette</text>
</a>
</g>
</g>
<!-- Node1&#45;&gt;Node10 -->
<g id="edge9" class="edge"><title>Node1&#45;&gt;Node10</title>
<path fill="none" stroke="midnightblue" d="M107.326,-174.313C124.68,-148.501 175.779,-77.4865 236,-40 239.386,-37.8924 242.961,-35.9521 246.65,-34.1672"/>
<polygon fill="midnightblue" stroke="midnightblue" points="248.267,-37.2792 256.006,-30.0436 245.444,-30.8737 248.267,-37.2792"/>
</g>
</g>
</svg>
