<?xml version="1.0" encoding="UTF-8" standalone="no"?>
<!DOCTYPE svg PUBLIC "-//W3C//DTD SVG 1.1//EN"
 "http://www.w3.org/Graphics/SVG/1.1/DTD/svg11.dtd">
<!-- Generated by graphviz version 2.36.0 (20140111.2315)
 -->
<!-- Title: view.dialogs.HelpDialogBox Pages: 1 -->
<svg width="214pt" height="154pt"
 viewBox="0.00 0.00 214.00 154.00" xmlns="http://www.w3.org/2000/svg" xmlns:xlink="http://www.w3.org/1999/xlink">
<g id="graph0" class="graph" transform="scale(1 1) rotate(0) translate(4 150)">
<title>view.dialogs.HelpDialogBox</title>
<polygon fill="white" stroke="none" points="-4,4 -4,-150 210,-150 210,4 -4,4"/>
<!-- Node1 -->
<g id="node1" class="node"><title>Node1</title>
<polygon fill="#bfbfbf" stroke="black" points="19,-0.5 19,-19.5 165,-19.5 165,-0.5 19,-0.5"/>
<text text-anchor="middle" x="92" y="-7.5" font-family="Helvetica,sans-Serif" font-size="10.00">view.dialogs.HelpDialogBox</text>
</g>
<!-- Node2 -->
<g id="node2" class="node"><title>Node2</title>
<g id="a_node2"><a xlink:href="../../d2/d9f/classview_1_1dialogs_1_1_dialog_box.html" target="_top" xlink:title="view.dialogs.DialogBox">
<polygon fill="white" stroke="black" points="30,-58.5 30,-77.5 154,-77.5 154,-58.5 30,-58.5"/>
<text text-anchor="middle" x="92" y="-65.5" font-family="Helvetica,sans-Serif" font-size="10.00">view.dialogs.DialogBox</text>
</a>
</g>
</g>
<!-- Node2&#45;&gt;Node1 -->
<g id="edge1" class="edge"><title>Node2&#45;&gt;Node1</title>
<path fill="none" stroke="midnightblue" d="M92,-47.953C92,-38.2875 92,-27.0312 92,-19.5052"/>
<polygon fill="midnightblue" stroke="midnightblue" points="88.5001,-48.25 92,-58.25 95.5001,-48.25 88.5001,-48.25"/>
</g>
<!-- Node3 -->
<g id="node3" class="node"><title>Node3</title>
<polygon fill="white" stroke="#bfbfbf" points="-0.5,-126.5 -0.5,-145.5 44.5,-145.5 44.5,-126.5 -0.5,-126.5"/>
<text text-anchor="middle" x="22" y="-133.5" font-family="Helvetica,sans-Serif" font-size="10.00">Stage</text>
</g>
<!-- Node3&#45;&gt;Node2 -->
<g id="edge2" class="edge"><title>Node3&#45;&gt;Node2</title>
<path fill="none" stroke="#9a32cd" stroke-dasharray="5,2" d="M28.0812,-116.731C31.1201,-109.63 35.3718,-101.82 41,-96 48.6607,-88.0778 59.1541,-81.9787 68.6316,-77.5987"/>
<polygon fill="#9a32cd" stroke="#9a32cd" points="24.7211,-115.723 24.4777,-126.315 31.2733,-118.186 24.7211,-115.723"/>
<text text-anchor="middle" x="64.5" y="-99.5" font-family="Helvetica,sans-Serif" font-size="10.00"> myStage</text>
</g>
<!-- Node4 -->
<g id="node4" class="node"><title>Node4</title>
<polygon fill="white" stroke="#bfbfbf" points="68.5,-126.5 68.5,-145.5 115.5,-145.5 115.5,-126.5 68.5,-126.5"/>
<text text-anchor="middle" x="92" y="-133.5" font-family="Helvetica,sans-Serif" font-size="10.00">Scene</text>
</g>
<!-- Node4&#45;&gt;Node2 -->
<g id="edge3" class="edge"><title>Node4&#45;&gt;Node2</title>
<path fill="none" stroke="#9a32cd" stroke-dasharray="5,2" d="M92,-116.041C92,-103.472 92,-87.5631 92,-77.8411"/>
<polygon fill="#9a32cd" stroke="#9a32cd" points="88.5001,-116.372 92,-126.372 95.5001,-116.372 88.5001,-116.372"/>
<text text-anchor="middle" x="116.5" y="-99.5" font-family="Helvetica,sans-Serif" font-size="10.00"> myScene</text>
</g>
<!-- Node5 -->
<g id="node5" class="node"><title>Node5</title>
<polygon fill="white" stroke="#bfbfbf" points="134,-126.5 134,-145.5 206,-145.5 206,-126.5 134,-126.5"/>
<text text-anchor="middle" x="170" y="-133.5" font-family="Helvetica,sans-Serif" font-size="10.00">BorderPane</text>
</g>
<!-- Node5&#45;&gt;Node2 -->
<g id="edge4" class="edge"><title>Node5&#45;&gt;Node2</title>
<path fill="none" stroke="#9a32cd" stroke-dasharray="5,2" d="M161.279,-117.209C157.095,-109.975 151.557,-101.939 145,-96 136.351,-88.1666 125.011,-81.9879 115.041,-77.5295"/>
<polygon fill="#9a32cd" stroke="#9a32cd" points="158.329,-119.117 166.114,-126.304 164.511,-115.832 158.329,-119.117"/>
<text text-anchor="middle" x="176" y="-99.5" font-family="Helvetica,sans-Serif" font-size="10.00"> myPane</text>
</g>
</g>
</svg>
