<?xml version="1.0" encoding="UTF-8" standalone="no"?>
<!DOCTYPE svg PUBLIC "-//W3C//DTD SVG 1.1//EN"
 "http://www.w3.org/Graphics/SVG/1.1/DTD/svg11.dtd">
<!-- Generated by graphviz version 2.36.0 (20140111.2315)
 -->
<!-- Title: model.State.State Pages: 1 -->
<!--zoomable 371 -->
<svg id="main" version="1.1" xmlns="http://www.w3.org/2000/svg" xmlns:xlink="http://www.w3.org/1999/xlink" xml:space="preserve" onload="init(evt)">
<style type="text/css"><![CDATA[
.edge:hover path { stroke: red; }
.edge:hover polygon { stroke: red; fill: red; }
]]></style>
<script type="text/javascript"><![CDATA[
var edges = document.getElementsByTagName('g');
if (edges && edges.length) {
  for (var i=0;i<edges.length;i++) {
    if (edges[i].id.substr(0,4)=='edge') {
      edges[i].setAttribute('class','edge');
    }
  }
}
]]></script>
        <defs>
                <circle id="rim" cx="0" cy="0" r="7"/>
                <circle id="rim2" cx="0" cy="0" r="3.5"/>
                <g id="zoomPlus">
                        <use xlink:href="#rim" fill="#404040">
                                <set attributeName="fill" to="#808080" begin="zoomplus.mouseover" end="zoomplus.mouseout"/>
                        </use>
                        <path d="M-4,0h8M0,-4v8" fill="none" stroke="white" stroke-width="1.5" pointer-events="none"/>
                </g>
                <g id="zoomMin">
                        <use xlink:href="#rim" fill="#404040">
                                <set attributeName="fill" to="#808080" begin="zoomminus.mouseover" end="zoomminus.mouseout"/>
                        </use>
                        <path d="M-4,0h8" fill="none" stroke="white" stroke-width="1.5" pointer-events="none"/>
                </g>
                <g id="dirArrow">
                        <path fill="none" stroke="white" stroke-width="1.5" d="M0,-3.0v7 M-2.5,-0.5L0,-3.0L2.5,-0.5"/>
                </g>
               <g id="resetDef">
                       <use xlink:href="#rim2" fill="#404040">
                               <set attributeName="fill" to="#808080" begin="reset.mouseover" end="reset.mouseout"/>
                       </use>
               </g>
        </defs>

<script type="text/javascript">
var viewWidth = 510;
var viewHeight = 371;
var sectionId = 'dynsection-1';
</script>
<script xlink:href="../../svgpan.js"/>
<svg id="graph" class="graph">
<g id="viewport">
<title>model.State.State</title>
<polygon fill="white" stroke="none" points="-4,4 -4,-367 506,-367 506,4 -4,4"/>
<!-- Node1 -->
<g id="node1" class="node"><title>Node1</title>
<polygon fill="#bfbfbf" stroke="black" points="0.5,-157.5 0.5,-176.5 105.5,-176.5 105.5,-157.5 0.5,-157.5"/>
<text text-anchor="middle" x="53" y="-164.5" font-family="Helvetica,sans-Serif" font-size="10.00">model.State.State</text>
</g>
<!-- Node2 -->
<g id="node2" class="node"><title>Node2</title>
<g id="a_node2"><a xlink:href="../../df/d15/interfacemodel_1_1_i_variables_collection.html#ae9ef6ed4d4040cb1faefd2fe459162c0" target="_top" xlink:title="model.IVariablesCollection.add\lObserver">
<polygon fill="white" stroke="black" points="153.5,-333 153.5,-363 316.5,-363 316.5,-333 153.5,-333"/>
<text text-anchor="start" x="161.5" y="-351" font-family="Helvetica,sans-Serif" font-size="10.00">model.IVariablesCollection.add</text>
<text text-anchor="middle" x="235" y="-340" font-family="Helvetica,sans-Serif" font-size="10.00">Observer</text>
</a>
</g>
</g>
<!-- Node1&#45;&gt;Node2 -->
<g id="edge1" class="edge"><title>Node1&#45;&gt;Node2</title>
<path fill="none" stroke="midnightblue" d="M56.6229,-176.808C64.513,-204.368 90.7094,-283.089 142,-323 144.327,-324.811 146.775,-326.49 149.317,-328.048"/>
<polygon fill="midnightblue" stroke="midnightblue" points="147.817,-331.216 158.278,-332.892 151.145,-325.058 147.817,-331.216"/>
</g>
<!-- Node3 -->
<g id="node3" class="node"><title>Node3</title>
<g id="a_node3"><a xlink:href="../../d3/d73/classmodel_1_1_view_options.html#af9d84002f3ccfc85303fea4083033d0c" target="_top" xlink:title="model.ViewOptions.addObserver">
<polygon fill="white" stroke="black" points="148.5,-294.5 148.5,-313.5 321.5,-313.5 321.5,-294.5 148.5,-294.5"/>
<text text-anchor="middle" x="235" y="-301.5" font-family="Helvetica,sans-Serif" font-size="10.00">model.ViewOptions.addObserver</text>
</a>
</g>
</g>
<!-- Node1&#45;&gt;Node3 -->
<g id="edge2" class="edge"><title>Node1&#45;&gt;Node3</title>
<path fill="none" stroke="midnightblue" d="M58.3249,-176.723C68.974,-199.465 98.7752,-256.295 142,-284 145.898,-286.499 150.06,-288.689 154.38,-290.609"/>
<polygon fill="midnightblue" stroke="midnightblue" points="153.46,-294.008 164.047,-294.395 156.012,-287.49 153.46,-294.008"/>
</g>
<!-- Node4 -->
<g id="node4" class="node"><title>Node4</title>
<g id="a_node4"><a xlink:href="../../db/df9/classmodel_1_1_command_history.html#a9239d5b4f6556e0fa367b2bdd903ac27" target="_top" xlink:title="model.CommandHistory.add\lObserver">
<polygon fill="white" stroke="black" points="158.5,-245 158.5,-275 311.5,-275 311.5,-245 158.5,-245"/>
<text text-anchor="start" x="166.5" y="-263" font-family="Helvetica,sans-Serif" font-size="10.00">model.CommandHistory.add</text>
<text text-anchor="middle" x="235" y="-252" font-family="Helvetica,sans-Serif" font-size="10.00">Observer</text>
</a>
</g>
</g>
<!-- Node1&#45;&gt;Node4 -->
<g id="edge3" class="edge"><title>Node1&#45;&gt;Node4</title>
<path fill="none" stroke="midnightblue" d="M63.6689,-176.596C78.9902,-191.277 110.365,-219.263 142,-235 146.816,-237.396 151.892,-239.586 157.085,-241.585"/>
<polygon fill="midnightblue" stroke="midnightblue" points="155.931,-244.889 166.526,-244.978 158.299,-238.302 155.931,-244.889"/>
</g>
<!-- Node5 -->
<g id="node5" class="node"><title>Node5</title>
<g id="a_node5"><a xlink:href="../../d3/dbe/classview_1_1_view.html#ac6e2538aa85cbb6f86ba52d1c255e0d7" target="_top" xlink:title="view.View.getCommandHistory\lWindow">
<polygon fill="white" stroke="black" points="153.5,-196 153.5,-226 316.5,-226 316.5,-196 153.5,-196"/>
<text text-anchor="start" x="161.5" y="-214" font-family="Helvetica,sans-Serif" font-size="10.00">view.View.getCommandHistory</text>
<text text-anchor="middle" x="235" y="-203" font-family="Helvetica,sans-Serif" font-size="10.00">Window</text>
</a>
</g>
</g>
<!-- Node1&#45;&gt;Node5 -->
<g id="edge4" class="edge"><title>Node1&#45;&gt;Node5</title>
<path fill="none" stroke="midnightblue" d="M93.0573,-176.547C113.323,-181.501 138.728,-187.711 162.366,-193.49"/>
<polygon fill="midnightblue" stroke="midnightblue" points="161.824,-196.96 172.369,-195.935 163.486,-190.16 161.824,-196.96"/>
</g>
<!-- Node6 -->
<g id="node6" class="node"><title>Node6</title>
<g id="a_node6"><a xlink:href="../../d3/dbe/classview_1_1_view.html#a6950e4055440ab5672a2453b149f41d0" target="_top" xlink:title="view.View.getInstance">
<polygon fill="white" stroke="black" points="175.5,-157.5 175.5,-176.5 294.5,-176.5 294.5,-157.5 175.5,-157.5"/>
<text text-anchor="middle" x="235" y="-164.5" font-family="Helvetica,sans-Serif" font-size="10.00">view.View.getInstance</text>
</a>
</g>
</g>
<!-- Node1&#45;&gt;Node6 -->
<g id="edge5" class="edge"><title>Node1&#45;&gt;Node6</title>
<path fill="none" stroke="midnightblue" d="M105.581,-167C124.159,-167 145.425,-167 165.236,-167"/>
<polygon fill="midnightblue" stroke="midnightblue" points="165.441,-170.5 175.441,-167 165.441,-163.5 165.441,-170.5"/>
</g>
<!-- Node7 -->
<g id="node7" class="node"><title>Node7</title>
<g id="a_node7"><a xlink:href="../../d3/dbe/classview_1_1_view.html#a4dc01ce59b5abd00927536703b9fc8b5" target="_top" xlink:title="view.View.getTurtleWindow">
<polygon fill="white" stroke="black" points="165,-119.5 165,-138.5 305,-138.5 305,-119.5 165,-119.5"/>
<text text-anchor="middle" x="235" y="-126.5" font-family="Helvetica,sans-Serif" font-size="10.00">view.View.getTurtleWindow</text>
</a>
</g>
</g>
<!-- Node1&#45;&gt;Node7 -->
<g id="edge6" class="edge"><title>Node1&#45;&gt;Node7</title>
<path fill="none" stroke="midnightblue" d="M97.8496,-157.451C111.942,-154.404 127.625,-151.036 142,-148 153.355,-145.602 165.505,-143.069 177.131,-140.661"/>
<polygon fill="midnightblue" stroke="midnightblue" points="178.096,-144.036 187.18,-138.585 176.679,-137.181 178.096,-144.036"/>
</g>
<!-- Node8 -->
<g id="node8" class="node"><title>Node8</title>
<g id="a_node8"><a xlink:href="../../d3/dbe/classview_1_1_view.html#a95326d18982b188c4bca57562e40c374" target="_top" xlink:title="view.View.getUDCommandsWindow">
<polygon fill="white" stroke="black" points="142.5,-81.5 142.5,-100.5 327.5,-100.5 327.5,-81.5 142.5,-81.5"/>
<text text-anchor="middle" x="235" y="-88.5" font-family="Helvetica,sans-Serif" font-size="10.00">view.View.getUDCommandsWindow</text>
</a>
</g>
</g>
<!-- Node1&#45;&gt;Node8 -->
<g id="edge7" class="edge"><title>Node1&#45;&gt;Node8</title>
<path fill="none" stroke="midnightblue" d="M65.7264,-157.341C81.8809,-144.539 112.359,-122.157 142,-110 148.286,-107.422 154.962,-105.18 161.735,-103.233"/>
<polygon fill="midnightblue" stroke="midnightblue" points="162.927,-106.537 171.693,-100.586 161.129,-99.7721 162.927,-106.537"/>
</g>
<!-- Node9 -->
<g id="node9" class="node"><title>Node9</title>
<g id="a_node9"><a xlink:href="../../d3/dbe/classview_1_1_view.html#a11d86d0748c928c04004517570f49f77" target="_top" xlink:title="view.View.getVariablesWindow">
<polygon fill="white" stroke="black" points="156,-43.5 156,-62.5 314,-62.5 314,-43.5 156,-43.5"/>
<text text-anchor="middle" x="235" y="-50.5" font-family="Helvetica,sans-Serif" font-size="10.00">view.View.getVariablesWindow</text>
</a>
</g>
</g>
<!-- Node1&#45;&gt;Node9 -->
<g id="edge8" class="edge"><title>Node1&#45;&gt;Node9</title>
<path fill="none" stroke="midnightblue" d="M59.9115,-157.359C72.4262,-137.836 103.622,-93.6512 142,-72 145.942,-69.7762 150.11,-67.8113 154.409,-66.0752"/>
<polygon fill="midnightblue" stroke="midnightblue" points="155.768,-69.3062 163.994,-62.6286 153.399,-62.7191 155.768,-69.3062"/>
</g>
<!-- Node10 -->
<g id="node10" class="node"><title>Node10</title>
<g id="a_node10"><a xlink:href="../../d3/d73/classmodel_1_1_view_options.html#ac7f15ec7293495db247cf7ca92b18c46" target="_top" xlink:title="model.ViewOptions.initialize">
<polygon fill="white" stroke="black" points="160.5,-5.5 160.5,-24.5 309.5,-24.5 309.5,-5.5 160.5,-5.5"/>
<text text-anchor="middle" x="235" y="-12.5" font-family="Helvetica,sans-Serif" font-size="10.00">model.ViewOptions.initialize</text>
</a>
</g>
</g>
<!-- Node1&#45;&gt;Node10 -->
<g id="edge9" class="edge"><title>Node1&#45;&gt;Node10</title>
<path fill="none" stroke="midnightblue" d="M57.3539,-157.42C66.567,-132.608 94.7652,-65.9671 142,-34 144.925,-32.0204 148.014,-30.2398 151.217,-28.6386"/>
<polygon fill="midnightblue" stroke="midnightblue" points="152.743,-31.7917 160.509,-24.5851 149.944,-25.3756 152.743,-31.7917"/>
</g>
<!-- Node11 -->
<g id="node11" class="node"><title>Node11</title>
<g id="a_node11"><a xlink:href="../../d3/d73/classmodel_1_1_view_options.html#abef1fb93bd57c31edcdd2c55565c1219" target="_top" xlink:title="model.ViewOptions.notify\lObservers">
<polygon fill="white" stroke="black" points="364.5,-0 364.5,-30 501.5,-30 501.5,-0 364.5,-0"/>
<text text-anchor="start" x="372.5" y="-18" font-family="Helvetica,sans-Serif" font-size="10.00">model.ViewOptions.notify</text>
<text text-anchor="middle" x="433" y="-7" font-family="Helvetica,sans-Serif" font-size="10.00">Observers</text>
</a>
</g>
</g>
<!-- Node10&#45;&gt;Node11 -->
<g id="edge10" class="edge"><title>Node10&#45;&gt;Node11</title>
<path fill="none" stroke="midnightblue" d="M309.541,-15C324.103,-15 339.436,-15 354.136,-15"/>
<polygon fill="midnightblue" stroke="midnightblue" points="354.195,-18.5001 364.195,-15 354.195,-11.5001 354.195,-18.5001"/>
</g>
</g>
</svg>
        <g id="navigator" transform="translate(0 0)" fill="#404254">
                <rect fill="#f2f5e9" fill-opacity="0.5" stroke="#606060" stroke-width=".5" x="0" y="0" width="60" height="60"/>
                <use id="zoomplus" xlink:href="#zoomPlus" x="17" y="9" onmousedown="handleZoom(evt,'in')"/>
                <use id="zoomminus" xlink:href="#zoomMin" x="42" y="9" onmousedown="handleZoom(evt,'out')"/>
                <use id="reset" xlink:href="#resetDef" x="30" y="36" onmousedown="handleReset()"/>
                <g id="arrowUp" xlink:href="#dirArrow" transform="translate(30 24)" onmousedown="handlePan(0,-1)">
                  <use xlink:href="#rim" fill="#404040">
                        <set attributeName="fill" to="#808080" begin="arrowUp.mouseover" end="arrowUp.mouseout"/>
                  </use>
                  <path fill="none" stroke="white" stroke-width="1.5" d="M0,-3.0v7 M-2.5,-0.5L0,-3.0L2.5,-0.5"/>
                </g>
                <g id="arrowRight" xlink:href="#dirArrow" transform="rotate(90) translate(36 -43)" onmousedown="handlePan(1,0)">
                  <use xlink:href="#rim" fill="#404040">
                        <set attributeName="fill" to="#808080" begin="arrowRight.mouseover" end="arrowRight.mouseout"/>
                  </use>
                  <path fill="none" stroke="white" stroke-width="1.5" d="M0,-3.0v7 M-2.5,-0.5L0,-3.0L2.5,-0.5"/>
                </g>
                <g id="arrowDown" xlink:href="#dirArrow" transform="rotate(180) translate(-30 -48)" onmousedown="handlePan(0,1)">
                  <use xlink:href="#rim" fill="#404040">
                        <set attributeName="fill" to="#808080" begin="arrowDown.mouseover" end="arrowDown.mouseout"/>
                  </use>
                  <path fill="none" stroke="white" stroke-width="1.5" d="M0,-3.0v7 M-2.5,-0.5L0,-3.0L2.5,-0.5"/>
                </g>
                <g id="arrowLeft" xlink:href="#dirArrow" transform="rotate(270) translate(-36 17)" onmousedown="handlePan(-1,0)">
                  <use xlink:href="#rim" fill="#404040">
                        <set attributeName="fill" to="#808080" begin="arrowLeft.mouseover" end="arrowLeft.mouseout"/>
                  </use>
                  <path fill="none" stroke="white" stroke-width="1.5" d="M0,-3.0v7 M-2.5,-0.5L0,-3.0L2.5,-0.5"/>
                </g>
        </g>
        <svg viewBox="0 0 15 15" width="100%" height="30px" preserveAspectRatio="xMaxYMin meet">
         <g id="arrow_out" transform="scale(0.3 0.3)">
          <a xlink:href="classmodel_1_1_state_a6cbe1c79ce98503fbe2e49e81735a587_cgraph_org.svg" target="_base">
           <rect id="button" ry="5" rx="5" y="6" x="6" height="38" width="38"
                fill="#f2f5e9" fill-opacity="0.5" stroke="#606060" stroke-width="1.0"/>
           <path id="arrow"
             d="M 11.500037,31.436501 C 11.940474,20.09759 22.043105,11.32322 32.158766,21.979434 L 37.068811,17.246167 C 37.068811,17.246167 37.088388,32 37.088388,32 L 22.160133,31.978069 C 22.160133,31.978069 26.997745,27.140456 26.997745,27.140456 C 18.528582,18.264221 13.291696,25.230495 11.500037,31.436501 z"
             style="fill:#404040;"/>
          </a>
         </g>
        </svg>
</svg>
