<?xml version="1.0" encoding="UTF-8" standalone="no"?>
<!DOCTYPE svg PUBLIC "-//W3C//DTD SVG 1.1//EN"
 "http://www.w3.org/Graphics/SVG/1.1/DTD/svg11.dtd">
<!-- Generated by graphviz version 2.36.0 (20140111.2315)
 -->
<!-- Title: model.State.getTurtle Pages: 1 -->
<svg width="356pt" height="115pt"
 viewBox="0.00 0.00 356.00 115.00" xmlns="http://www.w3.org/2000/svg" xmlns:xlink="http://www.w3.org/1999/xlink">
<g id="graph0" class="graph" transform="scale(1 1) rotate(0) translate(4 111)">
<title>model.State.getTurtle</title>
<polygon fill="white" stroke="none" points="-4,4 -4,-111 352,-111 352,4 -4,4"/>
<!-- Node1 -->
<g id="node1" class="node"><title>Node1</title>
<polygon fill="#bfbfbf" stroke="black" points="0,-49.5 0,-68.5 120,-68.5 120,-49.5 0,-49.5"/>
<text text-anchor="middle" x="60" y="-56.5" font-family="Helvetica,sans-Serif" font-size="10.00">model.State.getTurtle</text>
</g>
<!-- Node2 -->
<g id="node2" class="node"><title>Node2</title>
<g id="a_node2"><a xlink:href="../../d7/d3b/classparser_1_1commands_1_1_pen_down.html#a3e16164bf1598a341653d51d0cb0b989" target="_top" xlink:title="parser.commands.PenDown.execute">
<polygon fill="white" stroke="black" points="156,-87.5 156,-106.5 348,-106.5 348,-87.5 156,-87.5"/>
<text text-anchor="middle" x="252" y="-94.5" font-family="Helvetica,sans-Serif" font-size="10.00">parser.commands.PenDown.execute</text>
</a>
</g>
</g>
<!-- Node1&#45;&gt;Node2 -->
<g id="edge1" class="edge"><title>Node1&#45;&gt;Node2</title>
<path fill="none" stroke="midnightblue" d="M119.048,-70.6095C146.07,-76.014 177.818,-82.3635 203.4,-87.4799"/>
<polygon fill="midnightblue" stroke="midnightblue" points="119.437,-67.1182 108.945,-68.589 118.064,-73.9823 119.437,-67.1182"/>
</g>
<!-- Node3 -->
<g id="node3" class="node"><title>Node3</title>
<g id="a_node3"><a xlink:href="../../de/d75/classparser_1_1commands_1_1_pen_up.html#ab2cc693085c58ad98ad75023de1bf949" target="_top" xlink:title="parser.commands.PenUp.execute">
<polygon fill="white" stroke="black" points="162.5,-49.5 162.5,-68.5 341.5,-68.5 341.5,-49.5 162.5,-49.5"/>
<text text-anchor="middle" x="252" y="-56.5" font-family="Helvetica,sans-Serif" font-size="10.00">parser.commands.PenUp.execute</text>
</a>
</g>
</g>
<!-- Node1&#45;&gt;Node3 -->
<g id="edge2" class="edge"><title>Node1&#45;&gt;Node3</title>
<path fill="none" stroke="midnightblue" d="M130.314,-59C140.721,-59 151.573,-59 162.317,-59"/>
<polygon fill="midnightblue" stroke="midnightblue" points="130.076,-55.5001 120.076,-59 130.076,-62.5001 130.076,-55.5001"/>
</g>
<!-- Node4 -->
<g id="node4" class="node"><title>Node4</title>
<g id="a_node4"><a xlink:href="../../d5/dc1/classparser_1_1commands_1_1_parser_test.html#a6a3cc2c0d6ca8b502de3cad94a6ad0a5" target="_top" xlink:title="parser.commands.ParserTest.test\lParse">
<polygon fill="white" stroke="black" points="163.5,-0 163.5,-30 340.5,-30 340.5,-0 163.5,-0"/>
<text text-anchor="start" x="171.5" y="-18" font-family="Helvetica,sans-Serif" font-size="10.00">parser.commands.ParserTest.test</text>
<text text-anchor="middle" x="252" y="-7" font-family="Helvetica,sans-Serif" font-size="10.00">Parse</text>
</a>
</g>
</g>
<!-- Node1&#45;&gt;Node4 -->
<g id="edge3" class="edge"><title>Node1&#45;&gt;Node4</title>
<path fill="none" stroke="midnightblue" d="M112.011,-47.1868C134.741,-41.9231 161.783,-35.6609 185.945,-30.0654"/>
<polygon fill="midnightblue" stroke="midnightblue" points="111.18,-43.7867 102.227,-49.4527 112.759,-50.6063 111.18,-43.7867"/>
</g>
</g>
</svg>
