<?xml version="1.0" encoding="UTF-8" standalone="no"?>
<!DOCTYPE svg PUBLIC "-//W3C//DTD SVG 1.1//EN"
 "http://www.w3.org/Graphics/SVG/1.1/DTD/svg11.dtd">
<!-- Generated by graphviz version 2.36.0 (20140111.2315)
 -->
<!-- Title: model.State.getCommandHistory Pages: 1 -->
<svg width="862pt" height="185pt"
 viewBox="0.00 0.00 862.00 185.00" xmlns="http://www.w3.org/2000/svg" xmlns:xlink="http://www.w3.org/1999/xlink">
<g id="graph0" class="graph" transform="scale(1 1) rotate(0) translate(4 181)">
<title>model.State.getCommandHistory</title>
<polygon fill="white" stroke="none" points="-4,4 -4,-181 858,-181 858,4 -4,4"/>
<!-- Node1 -->
<g id="node1" class="node"><title>Node1</title>
<polygon fill="#bfbfbf" stroke="black" points="0.5,-122.5 0.5,-141.5 179.5,-141.5 179.5,-122.5 0.5,-122.5"/>
<text text-anchor="middle" x="90" y="-129.5" font-family="Helvetica,sans-Serif" font-size="10.00">model.State.getCommandHistory</text>
</g>
<!-- Node2 -->
<g id="node2" class="node"><title>Node2</title>
<g id="a_node2"><a xlink:href="../../db/d3e/classparser_1_1commands_1_1_to_data.html#ae215dd6a8577cd4ed2cb893aa11d9910" target="_top" xlink:title="parser.commands.ToData.execute">
<polygon fill="white" stroke="black" points="216.5,-141.5 216.5,-160.5 397.5,-160.5 397.5,-141.5 216.5,-141.5"/>
<text text-anchor="middle" x="307" y="-148.5" font-family="Helvetica,sans-Serif" font-size="10.00">parser.commands.ToData.execute</text>
</a>
</g>
</g>
<!-- Node1&#45;&gt;Node2 -->
<g id="edge1" class="edge"><title>Node1&#45;&gt;Node2</title>
<path fill="none" stroke="midnightblue" d="M189.714,-140.724C198.635,-141.512 207.637,-142.307 216.472,-143.088"/>
<polygon fill="midnightblue" stroke="midnightblue" points="189.959,-137.232 179.69,-139.838 189.343,-144.205 189.959,-137.232"/>
</g>
<!-- Node3 -->
<g id="node3" class="node"><title>Node3</title>
<g id="a_node3"><a xlink:href="../../d3/d42/classmodel_1_1_model.html#a8a07e7f2040e8a2ab50ec2955504f6c4" target="_top" xlink:title="model.Model.parse">
<polygon fill="white" stroke="black" points="253,-103.5 253,-122.5 361,-122.5 361,-103.5 253,-103.5"/>
<text text-anchor="middle" x="307" y="-110.5" font-family="Helvetica,sans-Serif" font-size="10.00">model.Model.parse</text>
</a>
</g>
</g>
<!-- Node1&#45;&gt;Node3 -->
<g id="edge2" class="edge"><title>Node1&#45;&gt;Node3</title>
<path fill="none" stroke="midnightblue" d="M189.659,-123.281C211.46,-121.355 233.75,-119.385 252.908,-117.692"/>
<polygon fill="midnightblue" stroke="midnightblue" points="189.343,-119.795 179.69,-124.162 189.959,-126.768 189.343,-119.795"/>
</g>
<!-- Node4 -->
<g id="node4" class="node"><title>Node4</title>
<g id="a_node4"><a xlink:href="../../d3/dbe/classview_1_1_view.html#ab8b25d25b79752feed7b786ed496f642" target="_top" xlink:title="view.View.loadLibrary">
<polygon fill="white" stroke="black" points="472,-147.5 472,-166.5 588,-166.5 588,-147.5 472,-147.5"/>
<text text-anchor="middle" x="530" y="-154.5" font-family="Helvetica,sans-Serif" font-size="10.00">view.View.loadLibrary</text>
</a>
</g>
</g>
<!-- Node3&#45;&gt;Node4 -->
<g id="edge3" class="edge"><title>Node3&#45;&gt;Node4</title>
<path fill="none" stroke="midnightblue" d="M365.803,-124.508C401.697,-131.655 447.278,-140.73 481.14,-147.471"/>
<polygon fill="midnightblue" stroke="midnightblue" points="366.445,-121.067 355.954,-122.547 365.078,-127.933 366.445,-121.067"/>
</g>
<!-- Node5 -->
<g id="node5" class="node"><title>Node5</title>
<g id="a_node5"><a xlink:href="../../da/df5/classview_1_1listwindows_1_1_commands_list_window.html#a3611428a65d6e7a436971f1b237e644e" target="_top" xlink:title="view.listwindows.Commands\lListWindow.parseCommand">
<polygon fill="white" stroke="black" points="455,-98 455,-128 605,-128 605,-98 455,-98"/>
<text text-anchor="start" x="463" y="-116" font-family="Helvetica,sans-Serif" font-size="10.00">view.listwindows.Commands</text>
<text text-anchor="middle" x="530" y="-105" font-family="Helvetica,sans-Serif" font-size="10.00">ListWindow.parseCommand</text>
</a>
</g>
</g>
<!-- Node3&#45;&gt;Node5 -->
<g id="edge4" class="edge"><title>Node3&#45;&gt;Node5</title>
<path fill="none" stroke="midnightblue" d="M371.358,-113C397.444,-113 427.843,-113 454.947,-113"/>
<polygon fill="midnightblue" stroke="midnightblue" points="371.216,-109.5 361.216,-113 371.216,-116.5 371.216,-109.5"/>
</g>
<!-- Node8 -->
<g id="node8" class="node"><title>Node8</title>
<g id="a_node8"><a xlink:href="../../db/d98/classview_1_1components_1_1_command_port.html#a687e2098038140e833e1bac1a759b587" target="_top" xlink:title="view.components.CommandPort.run\lCommand">
<polygon fill="white" stroke="black" points="434.5,-49 434.5,-79 625.5,-79 625.5,-49 434.5,-49"/>
<text text-anchor="start" x="442.5" y="-67" font-family="Helvetica,sans-Serif" font-size="10.00">view.components.CommandPort.run</text>
<text text-anchor="middle" x="530" y="-56" font-family="Helvetica,sans-Serif" font-size="10.00">Command</text>
</a>
</g>
</g>
<!-- Node3&#45;&gt;Node8 -->
<g id="edge7" class="edge"><title>Node3&#45;&gt;Node8</title>
<path fill="none" stroke="midnightblue" d="M360.739,-101.307C390.787,-94.6446 428.76,-86.2251 461.025,-79.0713"/>
<polygon fill="midnightblue" stroke="midnightblue" points="359.878,-97.9125 350.873,-103.494 361.394,-104.747 359.878,-97.9125"/>
</g>
<!-- Node6 -->
<g id="node6" class="node"><title>Node6</title>
<g id="a_node6"><a xlink:href="../../df/d26/classview_1_1listwindows_1_1_commands_history_window.html#af341417d427f8b0548670f1efbb3acac" target="_top" xlink:title="view.listwindows.Commands\lHistoryWindow.setButtonAction">
<polygon fill="white" stroke="black" points="675.5,-147 675.5,-177 840.5,-177 840.5,-147 675.5,-147"/>
<text text-anchor="start" x="683.5" y="-165" font-family="Helvetica,sans-Serif" font-size="10.00">view.listwindows.Commands</text>
<text text-anchor="middle" x="758" y="-154" font-family="Helvetica,sans-Serif" font-size="10.00">HistoryWindow.setButtonAction</text>
</a>
</g>
</g>
<!-- Node5&#45;&gt;Node6 -->
<g id="edge5" class="edge"><title>Node5&#45;&gt;Node6</title>
<path fill="none" stroke="midnightblue" d="M610.263,-130.185C635.535,-135.665 663.286,-141.682 687.788,-146.994"/>
<polygon fill="midnightblue" stroke="midnightblue" points="610.858,-126.733 600.343,-128.035 609.375,-133.574 610.858,-126.733"/>
</g>
<!-- Node7 -->
<g id="node7" class="node"><title>Node7</title>
<g id="a_node7"><a xlink:href="../../d7/dc7/classview_1_1listwindows_1_1_user_defined_commands_window.html#adaf32233789f6a07c42b4e459699bf53" target="_top" xlink:title="view.listwindows.UserDefined\lCommandsWindow.setButtonAction">
<polygon fill="white" stroke="black" points="664.5,-98 664.5,-128 851.5,-128 851.5,-98 664.5,-98"/>
<text text-anchor="start" x="672.5" y="-116" font-family="Helvetica,sans-Serif" font-size="10.00">view.listwindows.UserDefined</text>
<text text-anchor="middle" x="758" y="-105" font-family="Helvetica,sans-Serif" font-size="10.00">CommandsWindow.setButtonAction</text>
</a>
</g>
</g>
<!-- Node5&#45;&gt;Node7 -->
<g id="edge6" class="edge"><title>Node5&#45;&gt;Node7</title>
<path fill="none" stroke="midnightblue" d="M615.348,-113C631.295,-113 648.058,-113 664.247,-113"/>
<polygon fill="midnightblue" stroke="midnightblue" points="615.001,-109.5 605.001,-113 615.001,-116.5 615.001,-109.5"/>
</g>
<!-- Node9 -->
<g id="node9" class="node"><title>Node9</title>
<g id="a_node9"><a xlink:href="../../db/d98/classview_1_1components_1_1_command_port.html#a37ae451233579691839c4a52072c94e9" target="_top" xlink:title="view.components.CommandPort.\lCommandPort">
<polygon fill="white" stroke="black" points="670.5,-49 670.5,-79 845.5,-79 845.5,-49 670.5,-49"/>
<text text-anchor="start" x="678.5" y="-67" font-family="Helvetica,sans-Serif" font-size="10.00">view.components.CommandPort.</text>
<text text-anchor="middle" x="758" y="-56" font-family="Helvetica,sans-Serif" font-size="10.00">CommandPort</text>
</a>
</g>
</g>
<!-- Node8&#45;&gt;Node9 -->
<g id="edge8" class="edge"><title>Node8&#45;&gt;Node9</title>
<path fill="none" stroke="midnightblue" d="M635.702,-64C647.321,-64 659.056,-64 670.415,-64"/>
<polygon fill="midnightblue" stroke="midnightblue" points="635.535,-60.5001 625.535,-64 635.535,-67.5001 635.535,-60.5001"/>
</g>
<!-- Node10 -->
<g id="node10" class="node"><title>Node10</title>
<g id="a_node10"><a xlink:href="../../db/d98/classview_1_1components_1_1_command_port.html#afcdcfbfa864e7438dc0f0a3f1c541294" target="_top" xlink:title="view.components.CommandPort.run\lCommand">
<polygon fill="white" stroke="black" points="662.5,-0 662.5,-30 853.5,-30 853.5,-0 662.5,-0"/>
<text text-anchor="start" x="670.5" y="-18" font-family="Helvetica,sans-Serif" font-size="10.00">view.components.CommandPort.run</text>
<text text-anchor="middle" x="758" y="-7" font-family="Helvetica,sans-Serif" font-size="10.00">Command</text>
</a>
</g>
</g>
<!-- Node8&#45;&gt;Node10 -->
<g id="edge9" class="edge"><title>Node8&#45;&gt;Node10</title>
<path fill="none" stroke="midnightblue" d="M610.263,-46.8146C635.535,-41.3353 663.286,-35.3185 687.788,-30.0062"/>
<polygon fill="midnightblue" stroke="midnightblue" points="609.375,-43.4259 600.343,-48.9654 610.858,-50.2669 609.375,-43.4259"/>
</g>
</g>
</svg>
