<?xml version="1.0" encoding="UTF-8" standalone="no"?>
<!DOCTYPE svg PUBLIC "-//W3C//DTD SVG 1.1//EN"
 "http://www.w3.org/Graphics/SVG/1.1/DTD/svg11.dtd">
<!-- Generated by graphviz version 2.36.0 (20140111.2315)
 -->
<!-- Title: view.turtle.TurtleImage.hide Pages: 1 -->
<svg width="1600pt" height="214pt"
 viewBox="0.00 0.00 1600.00 214.00" xmlns="http://www.w3.org/2000/svg" xmlns:xlink="http://www.w3.org/1999/xlink">
<g id="graph0" class="graph" transform="scale(1 1) rotate(0) translate(4 210)">
<title>view.turtle.TurtleImage.hide</title>
<polygon fill="white" stroke="none" points="-4,4 -4,-210 1596,-210 1596,4 -4,4"/>
<!-- Node1 -->
<g id="node1" class="node"><title>Node1</title>
<polygon fill="#bfbfbf" stroke="black" points="0,-55.5 0,-74.5 146,-74.5 146,-55.5 0,-55.5"/>
<text text-anchor="middle" x="73" y="-62.5" font-family="Helvetica,sans-Serif" font-size="10.00">view.turtle.TurtleImage.hide</text>
</g>
<!-- Node2 -->
<g id="node2" class="node"><title>Node2</title>
<g id="a_node2"><a xlink:href="../../dd/ddc/classview_1_1turtle_1_1_turtle_image.html#afd9abc603b052b7c9c14108400109917" target="_top" xlink:title="view.turtle.TurtleImage.process\lUpdate">
<polygon fill="white" stroke="black" points="182,-79 182,-109 346,-109 346,-79 182,-79"/>
<text text-anchor="start" x="190" y="-97" font-family="Helvetica,sans-Serif" font-size="10.00">view.turtle.TurtleImage.process</text>
<text text-anchor="middle" x="264" y="-86" font-family="Helvetica,sans-Serif" font-size="10.00">Update</text>
</a>
</g>
</g>
<!-- Node1&#45;&gt;Node2 -->
<g id="edge1" class="edge"><title>Node1&#45;&gt;Node2</title>
<path fill="none" stroke="midnightblue" d="M146.255,-76.0867C157.919,-77.8764 170.062,-79.7396 181.917,-81.5587"/>
<polygon fill="midnightblue" stroke="midnightblue" points="146.563,-72.5931 136.147,-74.5359 145.501,-79.5121 146.563,-72.5931"/>
</g>
<!-- Node12 -->
<g id="node12" class="node"><title>Node12</title>
<g id="a_node12"><a xlink:href="../../dd/ddc/classview_1_1turtle_1_1_turtle_image.html#a9466dd0cc8b23a1f7f1c660dda958c88" target="_top" xlink:title="view.turtle.TurtleImage.toggle\lTurtle">
<polygon fill="white" stroke="black" points="186,-21 186,-51 342,-51 342,-21 186,-21"/>
<text text-anchor="start" x="194" y="-39" font-family="Helvetica,sans-Serif" font-size="10.00">view.turtle.TurtleImage.toggle</text>
<text text-anchor="middle" x="264" y="-28" font-family="Helvetica,sans-Serif" font-size="10.00">Turtle</text>
</a>
</g>
</g>
<!-- Node1&#45;&gt;Node12 -->
<g id="edge13" class="edge"><title>Node1&#45;&gt;Node12</title>
<path fill="none" stroke="midnightblue" d="M146.39,-53.8925C159.343,-51.905 172.884,-49.8273 185.962,-47.8206"/>
<polygon fill="midnightblue" stroke="midnightblue" points="145.501,-50.4879 136.147,-55.4641 146.563,-57.4069 145.501,-50.4879"/>
</g>
<!-- Node3 -->
<g id="node3" class="node"><title>Node3</title>
<g id="a_node3"><a xlink:href="../../dd/ddc/classview_1_1turtle_1_1_turtle_image.html#a68a832da6825e57061dbc49b30098291" target="_top" xlink:title="view.turtle.TurtleImage.pop\lUpdate">
<polygon fill="white" stroke="black" points="406,-88 406,-118 550,-118 550,-88 406,-88"/>
<text text-anchor="start" x="414" y="-106" font-family="Helvetica,sans-Serif" font-size="10.00">view.turtle.TurtleImage.pop</text>
<text text-anchor="middle" x="478" y="-95" font-family="Helvetica,sans-Serif" font-size="10.00">Update</text>
</a>
</g>
</g>
<!-- Node2&#45;&gt;Node3 -->
<g id="edge2" class="edge"><title>Node2&#45;&gt;Node3</title>
<path fill="none" stroke="midnightblue" d="M356.274,-97.8748C372.81,-98.5768 389.834,-99.2995 405.693,-99.9728"/>
<polygon fill="midnightblue" stroke="midnightblue" points="356.195,-94.3684 346.056,-97.441 355.898,-101.362 356.195,-94.3684"/>
</g>
<!-- Node4 -->
<g id="node4" class="node"><title>Node4</title>
<g id="a_node4"><a xlink:href="../../d5/d4b/classview_1_1components_1_1_turtle_window.html#a84744ff6c257318689fc0e014350fb05" target="_top" xlink:title="view.components.TurtleWindow.step\lDebug">
<polygon fill="white" stroke="black" points="622,-137 622,-167 808,-167 808,-137 622,-137"/>
<text text-anchor="start" x="630" y="-155" font-family="Helvetica,sans-Serif" font-size="10.00">view.components.TurtleWindow.step</text>
<text text-anchor="middle" x="715" y="-144" font-family="Helvetica,sans-Serif" font-size="10.00">Debug</text>
</a>
</g>
</g>
<!-- Node3&#45;&gt;Node4 -->
<g id="edge3" class="edge"><title>Node3&#45;&gt;Node4</title>
<path fill="none" stroke="midnightblue" d="M560.176,-119.926C586.734,-125.464 616.036,-131.574 641.879,-136.962"/>
<polygon fill="midnightblue" stroke="midnightblue" points="560.649,-116.45 550.145,-117.835 559.22,-123.302 560.649,-116.45"/>
</g>
<!-- Node9 -->
<g id="node9" class="node"><title>Node9</title>
<g id="a_node9"><a xlink:href="../../dd/ddc/classview_1_1turtle_1_1_turtle_image.html#a02651da4da9b4b48bd91656f734ccb03" target="_top" xlink:title="view.turtle.TurtleImage.add\lUpdate">
<polygon fill="white" stroke="black" points="643,-88 643,-118 787,-118 787,-88 643,-88"/>
<text text-anchor="start" x="651" y="-106" font-family="Helvetica,sans-Serif" font-size="10.00">view.turtle.TurtleImage.add</text>
<text text-anchor="middle" x="715" y="-95" font-family="Helvetica,sans-Serif" font-size="10.00">Update</text>
</a>
</g>
</g>
<!-- Node3&#45;&gt;Node9 -->
<g id="edge8" class="edge"><title>Node3&#45;&gt;Node9</title>
<path fill="none" stroke="midnightblue" d="M560.271,-103C587.082,-103 616.682,-103 642.691,-103"/>
<polygon fill="midnightblue" stroke="midnightblue" points="560.146,-99.5001 550.145,-103 560.145,-106.5 560.146,-99.5001"/>
</g>
<!-- Node10 -->
<g id="node10" class="node"><title>Node10</title>
<g id="a_node10"><a xlink:href="../../dd/ddc/classview_1_1turtle_1_1_turtle_image.html#a958417ed4561c0b910f80944a5110ec7" target="_top" xlink:title="view.turtle.TurtleImage.animatedMove">
<polygon fill="white" stroke="black" points="616.5,-49.5 616.5,-68.5 813.5,-68.5 813.5,-49.5 616.5,-49.5"/>
<text text-anchor="middle" x="715" y="-56.5" font-family="Helvetica,sans-Serif" font-size="10.00">view.turtle.TurtleImage.animatedMove</text>
</a>
</g>
</g>
<!-- Node3&#45;&gt;Node10 -->
<g id="edge9" class="edge"><title>Node3&#45;&gt;Node10</title>
<path fill="none" stroke="midnightblue" d="M560.179,-87.4047C576.663,-84.267 593.885,-81.0097 610,-78 626.689,-74.8831 644.896,-71.538 661.345,-68.5366"/>
<polygon fill="midnightblue" stroke="midnightblue" points="559.195,-84.0291 550.028,-89.3396 560.506,-90.9053 559.195,-84.0291"/>
</g>
<!-- Node11 -->
<g id="node11" class="node"><title>Node11</title>
<g id="a_node11"><a xlink:href="../../dd/ddc/classview_1_1turtle_1_1_turtle_image.html#aca0a62f113534161f725da472e1f4d9f" target="_top" xlink:title="view.turtle.TurtleImage.unanimatedMove">
<polygon fill="white" stroke="black" points="610.5,-186.5 610.5,-205.5 819.5,-205.5 819.5,-186.5 610.5,-186.5"/>
<text text-anchor="middle" x="715" y="-193.5" font-family="Helvetica,sans-Serif" font-size="10.00">view.turtle.TurtleImage.unanimatedMove</text>
</a>
</g>
</g>
<!-- Node3&#45;&gt;Node11 -->
<g id="edge11" class="edge"><title>Node3&#45;&gt;Node11</title>
<path fill="none" stroke="midnightblue" d="M514.658,-123.237C551.686,-144.196 604.94,-174.157 610,-176 621.835,-180.309 634.782,-183.744 647.399,-186.464"/>
<polygon fill="midnightblue" stroke="midnightblue" points="516.058,-120.008 505.632,-118.125 512.609,-126.099 516.058,-120.008"/>
</g>
<!-- Node5 -->
<g id="node5" class="node"><title>Node5</title>
<g id="a_node5"><a xlink:href="../../de/d30/classview_1_1components_1_1_s_logo_workspace.html#ad2141a5cca8101b3d22b2cf7b7473281" target="_top" xlink:title="view.components.SLogoWorkspace.run\lDebugger">
<polygon fill="white" stroke="black" points="856,-137 856,-167 1058,-167 1058,-137 856,-137"/>
<text text-anchor="start" x="864" y="-155" font-family="Helvetica,sans-Serif" font-size="10.00">view.components.SLogoWorkspace.run</text>
<text text-anchor="middle" x="957" y="-144" font-family="Helvetica,sans-Serif" font-size="10.00">Debugger</text>
</a>
</g>
</g>
<!-- Node4&#45;&gt;Node5 -->
<g id="edge4" class="edge"><title>Node4&#45;&gt;Node5</title>
<path fill="none" stroke="midnightblue" d="M818.424,-152C830.795,-152 843.421,-152 855.761,-152"/>
<polygon fill="midnightblue" stroke="midnightblue" points="818.104,-148.5 808.104,-152 818.104,-155.5 818.104,-148.5"/>
</g>
<!-- Node6 -->
<g id="node6" class="node"><title>Node6</title>
<g id="a_node6"><a xlink:href="../../d3/dbe/classview_1_1_view.html#af4860035310eeafc92cf78cbbc53290a" target="_top" xlink:title="view.View.runDebugger">
<polygon fill="white" stroke="black" points="1094,-142.5 1094,-161.5 1220,-161.5 1220,-142.5 1094,-142.5"/>
<text text-anchor="middle" x="1157" y="-149.5" font-family="Helvetica,sans-Serif" font-size="10.00">view.View.runDebugger</text>
</a>
</g>
</g>
<!-- Node5&#45;&gt;Node6 -->
<g id="edge5" class="edge"><title>Node5&#45;&gt;Node6</title>
<path fill="none" stroke="midnightblue" d="M1068.42,-152C1077.12,-152 1085.71,-152 1093.9,-152"/>
<polygon fill="midnightblue" stroke="midnightblue" points="1068.16,-148.5 1058.16,-152 1068.16,-155.5 1068.16,-148.5"/>
</g>
<!-- Node7 -->
<g id="node7" class="node"><title>Node7</title>
<g id="a_node7"><a xlink:href="../../d4/d6b/classview_1_1components_1_1_debugger_port.html#a6dd594b7c6572e0f4ef2ab7d8845f2ce" target="_top" xlink:title="view.components.Debugger\lPort.stepDebug">
<polygon fill="white" stroke="black" points="1256.5,-137 1256.5,-167 1405.5,-167 1405.5,-137 1256.5,-137"/>
<text text-anchor="start" x="1264.5" y="-155" font-family="Helvetica,sans-Serif" font-size="10.00">view.components.Debugger</text>
<text text-anchor="middle" x="1331" y="-144" font-family="Helvetica,sans-Serif" font-size="10.00">Port.stepDebug</text>
</a>
</g>
</g>
<!-- Node6&#45;&gt;Node7 -->
<g id="edge6" class="edge"><title>Node6&#45;&gt;Node7</title>
<path fill="none" stroke="midnightblue" d="M1230.13,-152C1238.78,-152 1247.61,-152 1256.28,-152"/>
<polygon fill="midnightblue" stroke="midnightblue" points="1230.1,-148.5 1220.1,-152 1230.1,-155.5 1230.1,-148.5"/>
</g>
<!-- Node8 -->
<g id="node8" class="node"><title>Node8</title>
<g id="a_node8"><a xlink:href="../../d4/d6b/classview_1_1components_1_1_debugger_port.html#a7055f8fe86c7e1078dc9909a7f000b8b" target="_top" xlink:title="view.components.Debugger\lPort.DebuggerPort">
<polygon fill="white" stroke="black" points="1442.5,-137 1442.5,-167 1591.5,-167 1591.5,-137 1442.5,-137"/>
<text text-anchor="start" x="1450.5" y="-155" font-family="Helvetica,sans-Serif" font-size="10.00">view.components.Debugger</text>
<text text-anchor="middle" x="1517" y="-144" font-family="Helvetica,sans-Serif" font-size="10.00">Port.DebuggerPort</text>
</a>
</g>
</g>
<!-- Node7&#45;&gt;Node8 -->
<g id="edge7" class="edge"><title>Node7&#45;&gt;Node8</title>
<path fill="none" stroke="midnightblue" d="M1415.53,-152C1424.46,-152 1433.5,-152 1442.3,-152"/>
<polygon fill="midnightblue" stroke="midnightblue" points="1415.51,-148.5 1405.51,-152 1415.51,-155.5 1415.51,-148.5"/>
</g>
<!-- Node10&#45;&gt;Node2 -->
<g id="edge10" class="edge"><title>Node10&#45;&gt;Node2</title>
<path fill="none" stroke="midnightblue" d="M605.889,-63.0332C540.898,-65.9935 456.592,-70.7766 382,-78 370.369,-79.1264 358.116,-80.5444 346.096,-82.0683"/>
<polygon fill="midnightblue" stroke="midnightblue" points="606.316,-66.5177 616.15,-62.5736 606.003,-59.5247 606.316,-66.5177"/>
</g>
<!-- Node11&#45;&gt;Node2 -->
<g id="edge12" class="edge"><title>Node11&#45;&gt;Node2</title>
<path fill="none" stroke="midnightblue" d="M653.052,-184.509C638.906,-181.778 623.918,-178.833 610,-176 508.436,-155.323 482.594,-151.969 382,-127 360.185,-121.585 336.272,-114.964 315.782,-109.078"/>
<polygon fill="midnightblue" stroke="midnightblue" points="652.694,-188.004 663.175,-186.455 654.016,-181.13 652.694,-188.004"/>
</g>
<!-- Node13 -->
<g id="node13" class="node"><title>Node13</title>
<g id="a_node13"><a xlink:href="../../dd/ddc/classview_1_1turtle_1_1_turtle_image.html#a04e2f41614019a2728c46bfbeeafeaf5" target="_top" xlink:title="view.turtle.TurtleImage.initializeMenu">
<polygon fill="white" stroke="black" points="382.5,-8.5 382.5,-27.5 573.5,-27.5 573.5,-8.5 382.5,-8.5"/>
<text text-anchor="middle" x="478" y="-15.5" font-family="Helvetica,sans-Serif" font-size="10.00">view.turtle.TurtleImage.initializeMenu</text>
</a>
</g>
</g>
<!-- Node12&#45;&gt;Node13 -->
<g id="edge14" class="edge"><title>Node12&#45;&gt;Node13</title>
<path fill="none" stroke="midnightblue" d="M352.32,-28.5861C362.183,-27.7486 372.269,-26.8923 382.222,-26.0472"/>
<polygon fill="midnightblue" stroke="midnightblue" points="351.805,-25.1171 342.137,-29.4507 352.397,-32.092 351.805,-25.1171"/>
</g>
<!-- Node14 -->
<g id="node14" class="node"><title>Node14</title>
<g id="a_node14"><a xlink:href="../../dd/ddc/classview_1_1turtle_1_1_turtle_image.html#a263168e1587bc3c507af040a4b17c308" target="_top" xlink:title="view.turtle.TurtleImage.\lTurtleImage">
<polygon fill="white" stroke="black" points="652,-0 652,-30 778,-30 778,-0 652,-0"/>
<text text-anchor="start" x="660" y="-18" font-family="Helvetica,sans-Serif" font-size="10.00">view.turtle.TurtleImage.</text>
<text text-anchor="middle" x="715" y="-7" font-family="Helvetica,sans-Serif" font-size="10.00">TurtleImage</text>
</a>
</g>
</g>
<!-- Node13&#45;&gt;Node14 -->
<g id="edge15" class="edge"><title>Node13&#45;&gt;Node14</title>
<path fill="none" stroke="midnightblue" d="M583.845,-16.6615C607.123,-16.3644 631.07,-16.0587 651.976,-15.7918"/>
<polygon fill="midnightblue" stroke="midnightblue" points="583.522,-13.1653 573.568,-16.7928 583.612,-20.1647 583.522,-13.1653"/>
</g>
</g>
</svg>
