<?xml version="1.0" encoding="UTF-8" standalone="no"?>
<!DOCTYPE svg PUBLIC "-//W3C//DTD SVG 1.1//EN"
 "http://www.w3.org/Graphics/SVG/1.1/DTD/svg11.dtd">
<!-- Generated by graphviz version 2.36.0 (20140111.2315)
 -->
<!-- Title: view.turtle.TurtleImage.popUpdate Pages: 1 -->
<svg width="1170pt" height="202pt"
 viewBox="0.00 0.00 1170.00 202.00" xmlns="http://www.w3.org/2000/svg" xmlns:xlink="http://www.w3.org/1999/xlink">
<g id="graph0" class="graph" transform="scale(1 1) rotate(0) translate(4 198)">
<title>view.turtle.TurtleImage.popUpdate</title>
<polygon fill="white" stroke="none" points="-4,4 -4,-198 1166,-198 1166,4 -4,4"/>
<!-- Node1 -->
<g id="node1" class="node"><title>Node1</title>
<polygon fill="#bfbfbf" stroke="black" points="0,-82 0,-112 144,-112 144,-82 0,-82"/>
<text text-anchor="start" x="8" y="-100" font-family="Helvetica,sans-Serif" font-size="10.00">view.turtle.TurtleImage.pop</text>
<text text-anchor="middle" x="72" y="-89" font-family="Helvetica,sans-Serif" font-size="10.00">Update</text>
</g>
<!-- Node2 -->
<g id="node2" class="node"><title>Node2</title>
<g id="a_node2"><a xlink:href="../../dd/ddc/classview_1_1turtle_1_1_turtle_image.html#a02651da4da9b4b48bd91656f734ccb03" target="_top" xlink:title="view.turtle.TurtleImage.add\lUpdate">
<polygon fill="white" stroke="black" points="213,-164 213,-194 357,-194 357,-164 213,-164"/>
<text text-anchor="start" x="221" y="-182" font-family="Helvetica,sans-Serif" font-size="10.00">view.turtle.TurtleImage.add</text>
<text text-anchor="middle" x="285" y="-171" font-family="Helvetica,sans-Serif" font-size="10.00">Update</text>
</a>
</g>
</g>
<!-- Node1&#45;&gt;Node2 -->
<g id="edge1" class="edge"><title>Node1&#45;&gt;Node2</title>
<path fill="none" stroke="midnightblue" d="M105.929,-117.354C126.583,-129.401 154.116,-144.178 180,-154 190.417,-157.953 201.664,-161.426 212.78,-164.428"/>
<polygon fill="midnightblue" stroke="midnightblue" points="107.627,-114.292 97.2388,-112.21 104.061,-120.316 107.627,-114.292"/>
</g>
<!-- Node3 -->
<g id="node3" class="node"><title>Node3</title>
<g id="a_node3"><a xlink:href="../../dd/ddc/classview_1_1turtle_1_1_turtle_image.html#a958417ed4561c0b910f80944a5110ec7" target="_top" xlink:title="view.turtle.TurtleImage.animatedMove">
<polygon fill="white" stroke="black" points="186.5,-125.5 186.5,-144.5 383.5,-144.5 383.5,-125.5 186.5,-125.5"/>
<text text-anchor="middle" x="285" y="-132.5" font-family="Helvetica,sans-Serif" font-size="10.00">view.turtle.TurtleImage.animatedMove</text>
</a>
</g>
</g>
<!-- Node1&#45;&gt;Node3 -->
<g id="edge2" class="edge"><title>Node1&#45;&gt;Node3</title>
<path fill="none" stroke="midnightblue" d="M154.29,-111.64C180.086,-116.286 207.924,-121.299 231.172,-125.486"/>
<polygon fill="midnightblue" stroke="midnightblue" points="154.603,-108.14 144.141,-109.812 153.362,-115.029 154.603,-108.14"/>
</g>
<!-- Node5 -->
<g id="node5" class="node"><title>Node5</title>
<g id="a_node5"><a xlink:href="../../d5/d4b/classview_1_1components_1_1_turtle_window.html#a84744ff6c257318689fc0e014350fb05" target="_top" xlink:title="view.components.TurtleWindow.step\lDebug">
<polygon fill="white" stroke="black" points="192,-0 192,-30 378,-30 378,-0 192,-0"/>
<text text-anchor="start" x="200" y="-18" font-family="Helvetica,sans-Serif" font-size="10.00">view.components.TurtleWindow.step</text>
<text text-anchor="middle" x="285" y="-7" font-family="Helvetica,sans-Serif" font-size="10.00">Debug</text>
</a>
</g>
</g>
<!-- Node1&#45;&gt;Node5 -->
<g id="edge5" class="edge"><title>Node1&#45;&gt;Node5</title>
<path fill="none" stroke="midnightblue" d="M109.508,-77.3244C129.875,-66.8436 155.922,-54.2449 180,-45 194.473,-39.4429 210.419,-34.3519 225.385,-30.0037"/>
<polygon fill="midnightblue" stroke="midnightblue" points="107.833,-74.2505 100.578,-81.9712 111.064,-80.4601 107.833,-74.2505"/>
</g>
<!-- Node10 -->
<g id="node10" class="node"><title>Node10</title>
<g id="a_node10"><a xlink:href="../../dd/ddc/classview_1_1turtle_1_1_turtle_image.html#aca0a62f113534161f725da472e1f4d9f" target="_top" xlink:title="view.turtle.TurtleImage.unanimatedMove">
<polygon fill="white" stroke="black" points="180.5,-87.5 180.5,-106.5 389.5,-106.5 389.5,-87.5 180.5,-87.5"/>
<text text-anchor="middle" x="285" y="-94.5" font-family="Helvetica,sans-Serif" font-size="10.00">view.turtle.TurtleImage.unanimatedMove</text>
</a>
</g>
</g>
<!-- Node1&#45;&gt;Node10 -->
<g id="edge10" class="edge"><title>Node1&#45;&gt;Node10</title>
<path fill="none" stroke="midnightblue" d="M154.345,-97C162.813,-97 171.5,-97 180.172,-97"/>
<polygon fill="midnightblue" stroke="midnightblue" points="154.141,-93.5001 144.141,-97 154.141,-100.5 154.141,-93.5001"/>
</g>
<!-- Node4 -->
<g id="node4" class="node"><title>Node4</title>
<g id="a_node4"><a xlink:href="../../dd/ddc/classview_1_1turtle_1_1_turtle_image.html#afd9abc603b052b7c9c14108400109917" target="_top" xlink:title="view.turtle.TurtleImage.process\lUpdate">
<polygon fill="white" stroke="black" points="445,-82 445,-112 609,-112 609,-82 445,-82"/>
<text text-anchor="start" x="453" y="-100" font-family="Helvetica,sans-Serif" font-size="10.00">view.turtle.TurtleImage.process</text>
<text text-anchor="middle" x="527" y="-89" font-family="Helvetica,sans-Serif" font-size="10.00">Update</text>
</a>
</g>
</g>
<!-- Node3&#45;&gt;Node4 -->
<g id="edge3" class="edge"><title>Node3&#45;&gt;Node4</title>
<path fill="none" stroke="midnightblue" d="M356.272,-123.874C384.035,-119.478 416.113,-114.399 444.856,-109.848"/>
<polygon fill="midnightblue" stroke="midnightblue" points="355.582,-120.439 346.252,-125.46 356.677,-127.353 355.582,-120.439"/>
</g>
<!-- Node4&#45;&gt;Node1 -->
<g id="edge4" class="edge"><title>Node4&#45;&gt;Node1</title>
<path fill="none" stroke="midnightblue" d="M434.692,-82.472C419.792,-80.6119 404.493,-79.0075 390,-78 296.891,-71.5275 272.973,-69.8094 180,-78 168.348,-79.0265 156.063,-80.6703 144.137,-82.5721"/>
<polygon fill="midnightblue" stroke="midnightblue" points="434.563,-85.9843 444.929,-83.7964 435.461,-79.0422 434.563,-85.9843"/>
</g>
<!-- Node6 -->
<g id="node6" class="node"><title>Node6</title>
<g id="a_node6"><a xlink:href="../../de/d30/classview_1_1components_1_1_s_logo_workspace.html#ad2141a5cca8101b3d22b2cf7b7473281" target="_top" xlink:title="view.components.SLogoWorkspace.run\lDebugger">
<polygon fill="white" stroke="black" points="426,-0 426,-30 628,-30 628,-0 426,-0"/>
<text text-anchor="start" x="434" y="-18" font-family="Helvetica,sans-Serif" font-size="10.00">view.components.SLogoWorkspace.run</text>
<text text-anchor="middle" x="527" y="-7" font-family="Helvetica,sans-Serif" font-size="10.00">Debugger</text>
</a>
</g>
</g>
<!-- Node5&#45;&gt;Node6 -->
<g id="edge6" class="edge"><title>Node5&#45;&gt;Node6</title>
<path fill="none" stroke="midnightblue" d="M388.424,-15C400.795,-15 413.421,-15 425.761,-15"/>
<polygon fill="midnightblue" stroke="midnightblue" points="388.104,-11.5001 378.104,-15 388.104,-18.5001 388.104,-11.5001"/>
</g>
<!-- Node7 -->
<g id="node7" class="node"><title>Node7</title>
<g id="a_node7"><a xlink:href="../../d3/dbe/classview_1_1_view.html#af4860035310eeafc92cf78cbbc53290a" target="_top" xlink:title="view.View.runDebugger">
<polygon fill="white" stroke="black" points="664,-5.5 664,-24.5 790,-24.5 790,-5.5 664,-5.5"/>
<text text-anchor="middle" x="727" y="-12.5" font-family="Helvetica,sans-Serif" font-size="10.00">view.View.runDebugger</text>
</a>
</g>
</g>
<!-- Node6&#45;&gt;Node7 -->
<g id="edge7" class="edge"><title>Node6&#45;&gt;Node7</title>
<path fill="none" stroke="midnightblue" d="M638.416,-15C647.121,-15 655.705,-15 663.897,-15"/>
<polygon fill="midnightblue" stroke="midnightblue" points="638.16,-11.5001 628.16,-15 638.16,-18.5001 638.16,-11.5001"/>
</g>
<!-- Node8 -->
<g id="node8" class="node"><title>Node8</title>
<g id="a_node8"><a xlink:href="../../d4/d6b/classview_1_1components_1_1_debugger_port.html#a6dd594b7c6572e0f4ef2ab7d8845f2ce" target="_top" xlink:title="view.components.Debugger\lPort.stepDebug">
<polygon fill="white" stroke="black" points="826.5,-0 826.5,-30 975.5,-30 975.5,-0 826.5,-0"/>
<text text-anchor="start" x="834.5" y="-18" font-family="Helvetica,sans-Serif" font-size="10.00">view.components.Debugger</text>
<text text-anchor="middle" x="901" y="-7" font-family="Helvetica,sans-Serif" font-size="10.00">Port.stepDebug</text>
</a>
</g>
</g>
<!-- Node7&#45;&gt;Node8 -->
<g id="edge8" class="edge"><title>Node7&#45;&gt;Node8</title>
<path fill="none" stroke="midnightblue" d="M800.133,-15C808.776,-15 817.611,-15 826.277,-15"/>
<polygon fill="midnightblue" stroke="midnightblue" points="800.096,-11.5001 790.096,-15 800.096,-18.5001 800.096,-11.5001"/>
</g>
<!-- Node9 -->
<g id="node9" class="node"><title>Node9</title>
<g id="a_node9"><a xlink:href="../../d4/d6b/classview_1_1components_1_1_debugger_port.html#a7055f8fe86c7e1078dc9909a7f000b8b" target="_top" xlink:title="view.components.Debugger\lPort.DebuggerPort">
<polygon fill="white" stroke="black" points="1012.5,-0 1012.5,-30 1161.5,-30 1161.5,-0 1012.5,-0"/>
<text text-anchor="start" x="1020.5" y="-18" font-family="Helvetica,sans-Serif" font-size="10.00">view.components.Debugger</text>
<text text-anchor="middle" x="1087" y="-7" font-family="Helvetica,sans-Serif" font-size="10.00">Port.DebuggerPort</text>
</a>
</g>
</g>
<!-- Node8&#45;&gt;Node9 -->
<g id="edge9" class="edge"><title>Node8&#45;&gt;Node9</title>
<path fill="none" stroke="midnightblue" d="M985.533,-15C994.462,-15 1003.5,-15 1012.3,-15"/>
<polygon fill="midnightblue" stroke="midnightblue" points="985.515,-11.5001 975.515,-15 985.515,-18.5001 985.515,-11.5001"/>
</g>
<!-- Node10&#45;&gt;Node4 -->
<g id="edge11" class="edge"><title>Node10&#45;&gt;Node4</title>
<path fill="none" stroke="midnightblue" d="M399.549,-97C414.853,-97 430.297,-97 444.882,-97"/>
<polygon fill="midnightblue" stroke="midnightblue" points="399.523,-93.5001 389.523,-97 399.523,-100.5 399.523,-93.5001"/>
</g>
</g>
</svg>
