<?xml version="1.0" encoding="UTF-8" standalone="no"?>
<!DOCTYPE svg PUBLIC "-//W3C//DTD SVG 1.1//EN"
 "http://www.w3.org/Graphics/SVG/1.1/DTD/svg11.dtd">
<!-- Generated by graphviz version 2.36.0 (20140111.2315)
 -->
<!-- Title: view.turtle.TurtleImage.setRunMode Pages: 1 -->
<svg width="976pt" height="38pt"
 viewBox="0.00 0.00 976.00 38.00" xmlns="http://www.w3.org/2000/svg" xmlns:xlink="http://www.w3.org/1999/xlink">
<g id="graph0" class="graph" transform="scale(1 1) rotate(0) translate(4 34)">
<title>view.turtle.TurtleImage.setRunMode</title>
<polygon fill="white" stroke="none" points="-4,4 -4,-34 972,-34 972,4 -4,4"/>
<!-- Node1 -->
<g id="node1" class="node"><title>Node1</title>
<polygon fill="#bfbfbf" stroke="black" points="0.5,-0 0.5,-30 141.5,-30 141.5,-0 0.5,-0"/>
<text text-anchor="start" x="8.5" y="-18" font-family="Helvetica,sans-Serif" font-size="10.00">view.turtle.TurtleImage.set</text>
<text text-anchor="middle" x="71" y="-7" font-family="Helvetica,sans-Serif" font-size="10.00">RunMode</text>
</g>
<!-- Node2 -->
<g id="node2" class="node"><title>Node2</title>
<g id="a_node2"><a xlink:href="../../d5/d4b/classview_1_1components_1_1_turtle_window.html#a62cb84bc01e37c12c7e650318e43c1fb" target="_top" xlink:title="view.components.TurtleWindow.exit\lDebugMode">
<polygon fill="white" stroke="black" points="178,-0 178,-30 360,-30 360,-0 178,-0"/>
<text text-anchor="start" x="186" y="-18" font-family="Helvetica,sans-Serif" font-size="10.00">view.components.TurtleWindow.exit</text>
<text text-anchor="middle" x="269" y="-7" font-family="Helvetica,sans-Serif" font-size="10.00">DebugMode</text>
</a>
</g>
</g>
<!-- Node1&#45;&gt;Node2 -->
<g id="edge1" class="edge"><title>Node1&#45;&gt;Node2</title>
<path fill="none" stroke="midnightblue" d="M151.897,-15C160.386,-15 169.062,-15 177.66,-15"/>
<polygon fill="midnightblue" stroke="midnightblue" points="151.654,-11.5001 141.654,-15 151.654,-18.5001 151.654,-11.5001"/>
</g>
<!-- Node3 -->
<g id="node3" class="node"><title>Node3</title>
<g id="a_node3"><a xlink:href="../../de/d30/classview_1_1components_1_1_s_logo_workspace.html#a18de98d8715eaf2d6a0d1d43f499a28e" target="_top" xlink:title="view.components.SLogoWorkspace.stop\lDebugger">
<polygon fill="white" stroke="black" points="396.5,-0 396.5,-30 603.5,-30 603.5,-0 396.5,-0"/>
<text text-anchor="start" x="404.5" y="-18" font-family="Helvetica,sans-Serif" font-size="10.00">view.components.SLogoWorkspace.stop</text>
<text text-anchor="middle" x="500" y="-7" font-family="Helvetica,sans-Serif" font-size="10.00">Debugger</text>
</a>
</g>
</g>
<!-- Node2&#45;&gt;Node3 -->
<g id="edge2" class="edge"><title>Node2&#45;&gt;Node3</title>
<path fill="none" stroke="midnightblue" d="M370.286,-15C378.949,-15 387.723,-15 396.404,-15"/>
<polygon fill="midnightblue" stroke="midnightblue" points="370.178,-11.5001 360.178,-15 370.178,-18.5001 370.178,-11.5001"/>
</g>
<!-- Node4 -->
<g id="node4" class="node"><title>Node4</title>
<g id="a_node4"><a xlink:href="../../d3/dbe/classview_1_1_view.html#ac7c7e9f35d78a83a1b6da5a0614c5b7a" target="_top" xlink:title="view.View.removeDebuger">
<polygon fill="white" stroke="black" points="640.5,-5.5 640.5,-24.5 781.5,-24.5 781.5,-5.5 640.5,-5.5"/>
<text text-anchor="middle" x="711" y="-12.5" font-family="Helvetica,sans-Serif" font-size="10.00">view.View.removeDebuger</text>
</a>
</g>
</g>
<!-- Node3&#45;&gt;Node4 -->
<g id="edge3" class="edge"><title>Node3&#45;&gt;Node4</title>
<path fill="none" stroke="midnightblue" d="M613.819,-15C622.795,-15 631.689,-15 640.234,-15"/>
<polygon fill="midnightblue" stroke="midnightblue" points="613.663,-11.5001 603.663,-15 613.663,-18.5001 613.663,-11.5001"/>
</g>
<!-- Node5 -->
<g id="node5" class="node"><title>Node5</title>
<g id="a_node5"><a xlink:href="../../d4/d6b/classview_1_1components_1_1_debugger_port.html#a18fd0abad345eed2738b7e156ac1fbe1" target="_top" xlink:title="view.components.Debugger\lPort.exitDebugMode">
<polygon fill="white" stroke="black" points="818.5,-0 818.5,-30 967.5,-30 967.5,-0 818.5,-0"/>
<text text-anchor="start" x="826.5" y="-18" font-family="Helvetica,sans-Serif" font-size="10.00">view.components.Debugger</text>
<text text-anchor="middle" x="893" y="-7" font-family="Helvetica,sans-Serif" font-size="10.00">Port.exitDebugMode</text>
</a>
</g>
</g>
<!-- Node4&#45;&gt;Node5 -->
<g id="edge4" class="edge"><title>Node4&#45;&gt;Node5</title>
<path fill="none" stroke="midnightblue" d="M791.878,-15C800.709,-15 809.672,-15 818.42,-15"/>
<polygon fill="midnightblue" stroke="midnightblue" points="791.593,-11.5001 781.593,-15 791.593,-18.5001 791.593,-11.5001"/>
</g>
</g>
</svg>
