<?xml version="1.0" encoding="UTF-8" standalone="no"?>
<!DOCTYPE svg PUBLIC "-//W3C//DTD SVG 1.1//EN"
 "http://www.w3.org/Graphics/SVG/1.1/DTD/svg11.dtd">
<!-- Generated by graphviz version 2.36.0 (20140111.2315)
 -->
<!-- Title: view.turtle.TurtleImage.canvasCoordsToMathCoords Pages: 1 -->
<svg width="520pt" height="38pt"
 viewBox="0.00 0.00 520.00 38.00" xmlns="http://www.w3.org/2000/svg" xmlns:xlink="http://www.w3.org/1999/xlink">
<g id="graph0" class="graph" transform="scale(1 1) rotate(0) translate(4 34)">
<title>view.turtle.TurtleImage.canvasCoordsToMathCoords</title>
<polygon fill="white" stroke="none" points="-4,4 -4,-34 516,-34 516,4 -4,4"/>
<!-- Node1 -->
<g id="node1" class="node"><title>Node1</title>
<polygon fill="#bfbfbf" stroke="black" points="0,-0 0,-30 160,-30 160,-0 0,-0"/>
<text text-anchor="start" x="8" y="-18" font-family="Helvetica,sans-Serif" font-size="10.00">view.turtle.TurtleImage.canvas</text>
<text text-anchor="middle" x="80" y="-7" font-family="Helvetica,sans-Serif" font-size="10.00">CoordsToMathCoords</text>
</g>
<!-- Node2 -->
<g id="node2" class="node"><title>Node2</title>
<g id="a_node2"><a xlink:href="../../dd/ddc/classview_1_1turtle_1_1_turtle_image.html#a7d8d2dd43811b2ccb02a7f489eb48e24" target="_top" xlink:title="view.turtle.TurtleImage.install\lStateTooltip">
<polygon fill="white" stroke="black" points="196,-0 196,-30 350,-30 350,-0 196,-0"/>
<text text-anchor="start" x="204" y="-18" font-family="Helvetica,sans-Serif" font-size="10.00">view.turtle.TurtleImage.install</text>
<text text-anchor="middle" x="273" y="-7" font-family="Helvetica,sans-Serif" font-size="10.00">StateTooltip</text>
</a>
</g>
</g>
<!-- Node1&#45;&gt;Node2 -->
<g id="edge1" class="edge"><title>Node1&#45;&gt;Node2</title>
<path fill="none" stroke="midnightblue" d="M170.089,-15C178.669,-15 187.318,-15 195.758,-15"/>
<polygon fill="midnightblue" stroke="midnightblue" points="170.066,-11.5001 160.066,-15 170.066,-18.5001 170.066,-11.5001"/>
</g>
<!-- Node3 -->
<g id="node3" class="node"><title>Node3</title>
<g id="a_node3"><a xlink:href="../../dd/ddc/classview_1_1turtle_1_1_turtle_image.html#a263168e1587bc3c507af040a4b17c308" target="_top" xlink:title="view.turtle.TurtleImage.\lTurtleImage">
<polygon fill="white" stroke="black" points="386,-0 386,-30 512,-30 512,-0 386,-0"/>
<text text-anchor="start" x="394" y="-18" font-family="Helvetica,sans-Serif" font-size="10.00">view.turtle.TurtleImage.</text>
<text text-anchor="middle" x="449" y="-7" font-family="Helvetica,sans-Serif" font-size="10.00">TurtleImage</text>
</a>
</g>
</g>
<!-- Node2&#45;&gt;Node3 -->
<g id="edge2" class="edge"><title>Node2&#45;&gt;Node3</title>
<path fill="none" stroke="midnightblue" d="M360.22,-15C368.891,-15 377.572,-15 385.919,-15"/>
<polygon fill="midnightblue" stroke="midnightblue" points="360.066,-11.5001 350.066,-15 360.066,-18.5001 360.066,-11.5001"/>
</g>
</g>
</svg>
