<?xml version="1.0" encoding="UTF-8" standalone="no"?>
<!DOCTYPE svg PUBLIC "-//W3C//DTD SVG 1.1//EN"
 "http://www.w3.org/Graphics/SVG/1.1/DTD/svg11.dtd">
<!-- Generated by graphviz version 2.36.0 (20140111.2315)
 -->
<!-- Title: view.turtle.TurtleImage.setPenProperties Pages: 1 -->
<svg width="352pt" height="273pt"
 viewBox="0.00 0.00 352.00 273.00" xmlns="http://www.w3.org/2000/svg" xmlns:xlink="http://www.w3.org/1999/xlink">
<g id="graph0" class="graph" transform="scale(1 1) rotate(0) translate(4 269)">
<title>view.turtle.TurtleImage.setPenProperties</title>
<polygon fill="white" stroke="none" points="-4,4 -4,-269 348,-269 348,4 -4,4"/>
<!-- Node1 -->
<g id="node1" class="node"><title>Node1</title>
<polygon fill="#bfbfbf" stroke="black" points="0.5,-112 0.5,-142 141.5,-142 141.5,-112 0.5,-112"/>
<text text-anchor="start" x="8.5" y="-130" font-family="Helvetica,sans-Serif" font-size="10.00">view.turtle.TurtleImage.set</text>
<text text-anchor="middle" x="71" y="-119" font-family="Helvetica,sans-Serif" font-size="10.00">PenProperties</text>
</g>
<!-- Node2 -->
<g id="node2" class="node"><title>Node2</title>
<g id="a_node2"><a xlink:href="../../d5/d46/classview_1_1components_1_1_palette.html#acf5106175f97e28619e7ed993b9fce93" target="_top" xlink:title="view.components.Palette.get\lColor">
<polygon fill="white" stroke="black" points="184,-235 184,-265 338,-265 338,-235 184,-235"/>
<text text-anchor="start" x="192" y="-253" font-family="Helvetica,sans-Serif" font-size="10.00">view.components.Palette.get</text>
<text text-anchor="middle" x="261" y="-242" font-family="Helvetica,sans-Serif" font-size="10.00">Color</text>
</a>
</g>
</g>
<!-- Node1&#45;&gt;Node2 -->
<g id="edge1" class="edge"><title>Node1&#45;&gt;Node2</title>
<path fill="none" stroke="midnightblue" d="M84.4404,-142.203C102.77,-163.653 139.092,-202.668 178,-225 181.703,-227.125 185.606,-229.088 189.617,-230.899"/>
<polygon fill="midnightblue" stroke="midnightblue" points="188.553,-234.247 199.131,-234.85 191.238,-227.782 188.553,-234.247"/>
</g>
<!-- Node3 -->
<g id="node3" class="node"><title>Node3</title>
<g id="a_node3"><a xlink:href="../../d4/d93/classview_1_1turtle_1_1_turtle_pen.html#ab0c25ebb2a0dd4243c58a4c57f4413b6" target="_top" xlink:title="view.turtle.TurtlePen.get\lColorIndex">
<polygon fill="white" stroke="black" points="196,-186 196,-216 326,-216 326,-186 196,-186"/>
<text text-anchor="start" x="204" y="-204" font-family="Helvetica,sans-Serif" font-size="10.00">view.turtle.TurtlePen.get</text>
<text text-anchor="middle" x="261" y="-193" font-family="Helvetica,sans-Serif" font-size="10.00">ColorIndex</text>
</a>
</g>
</g>
<!-- Node1&#45;&gt;Node3 -->
<g id="edge2" class="edge"><title>Node1&#45;&gt;Node3</title>
<path fill="none" stroke="midnightblue" d="M101.686,-142.055C122.683,-152.372 151.67,-165.955 178,-176 184.166,-178.352 190.657,-180.64 197.174,-182.815"/>
<polygon fill="midnightblue" stroke="midnightblue" points="196.115,-186.151 206.707,-185.914 198.279,-179.494 196.115,-186.151"/>
</g>
<!-- Node4 -->
<g id="node4" class="node"><title>Node4</title>
<g id="a_node4"><a xlink:href="../../da/d87/interfacemodel_1_1_pen_update.html#af78331b08d2c0383a311d1c83ced5a25" target="_top" xlink:title="model.PenUpdate.getPenColor\lIDProperty">
<polygon fill="white" stroke="black" points="179,-137 179,-167 343,-167 343,-137 179,-137"/>
<text text-anchor="start" x="187" y="-155" font-family="Helvetica,sans-Serif" font-size="10.00">model.PenUpdate.getPenColor</text>
<text text-anchor="middle" x="261" y="-144" font-family="Helvetica,sans-Serif" font-size="10.00">IDProperty</text>
</a>
</g>
</g>
<!-- Node1&#45;&gt;Node4 -->
<g id="edge3" class="edge"><title>Node1&#45;&gt;Node4</title>
<path fill="none" stroke="midnightblue" d="M141.737,-136.274C150.639,-137.457 159.853,-138.683 169.028,-139.903"/>
<polygon fill="midnightblue" stroke="midnightblue" points="168.578,-143.374 178.952,-141.222 169.5,-136.435 168.578,-143.374"/>
</g>
<!-- Node5 -->
<g id="node5" class="node"><title>Node5</title>
<g id="a_node5"><a xlink:href="../../da/d87/interfacemodel_1_1_pen_update.html#a88522e239a5ec0a9f34750d844141907" target="_top" xlink:title="model.PenUpdate.getPenSize\lProperty">
<polygon fill="white" stroke="black" points="181,-88 181,-118 341,-118 341,-88 181,-88"/>
<text text-anchor="start" x="189" y="-106" font-family="Helvetica,sans-Serif" font-size="10.00">model.PenUpdate.getPenSize</text>
<text text-anchor="middle" x="261" y="-95" font-family="Helvetica,sans-Serif" font-size="10.00">Property</text>
</a>
</g>
</g>
<!-- Node1&#45;&gt;Node5 -->
<g id="edge4" class="edge"><title>Node1&#45;&gt;Node5</title>
<path fill="none" stroke="midnightblue" d="M141.737,-118.097C151.199,-116.889 161.013,-115.637 170.759,-114.393"/>
<polygon fill="midnightblue" stroke="midnightblue" points="171.396,-117.84 180.872,-113.101 170.51,-110.896 171.396,-117.84"/>
</g>
<!-- Node6 -->
<g id="node6" class="node"><title>Node6</title>
<g id="a_node6"><a xlink:href="../../d4/d93/classview_1_1turtle_1_1_turtle_pen.html#a1029f25ff2fee222cf224f0343029437" target="_top" xlink:title="view.turtle.TurtlePen.set\lProperties">
<polygon fill="white" stroke="black" points="196.5,-39 196.5,-69 325.5,-69 325.5,-39 196.5,-39"/>
<text text-anchor="start" x="204.5" y="-57" font-family="Helvetica,sans-Serif" font-size="10.00">view.turtle.TurtlePen.set</text>
<text text-anchor="middle" x="261" y="-46" font-family="Helvetica,sans-Serif" font-size="10.00">Properties</text>
</a>
</g>
</g>
<!-- Node1&#45;&gt;Node6 -->
<g id="edge5" class="edge"><title>Node1&#45;&gt;Node6</title>
<path fill="none" stroke="midnightblue" d="M102.632,-111.857C123.567,-101.825 152.103,-88.7643 178,-79 184.269,-76.6363 190.869,-74.3309 197.489,-72.1363"/>
<polygon fill="midnightblue" stroke="midnightblue" points="198.729,-75.4138 207.167,-69.0065 196.575,-68.7534 198.729,-75.4138"/>
</g>
<!-- Node7 -->
<g id="node7" class="node"><title>Node7</title>
<g id="a_node7"><a xlink:href="../../d4/d93/classview_1_1turtle_1_1_turtle_pen.html#ae7dfe008f68eef44da5ee831b062952a" target="_top" xlink:title="view.turtle.TurtlePen.updatePen">
<polygon fill="white" stroke="black" points="178,-0.5 178,-19.5 344,-19.5 344,-0.5 178,-0.5"/>
<text text-anchor="middle" x="261" y="-7.5" font-family="Helvetica,sans-Serif" font-size="10.00">view.turtle.TurtlePen.updatePen</text>
</a>
</g>
</g>
<!-- Node1&#45;&gt;Node7 -->
<g id="edge6" class="edge"><title>Node1&#45;&gt;Node7</title>
<path fill="none" stroke="midnightblue" d="M84.3085,-111.658C102.478,-90.0692 138.606,-51.0206 178,-30 183.218,-27.2159 188.828,-24.8125 194.578,-22.739"/>
<polygon fill="midnightblue" stroke="midnightblue" points="195.921,-25.9824 204.342,-19.552 193.749,-19.3279 195.921,-25.9824"/>
</g>
</g>
</svg>
