<?xml version="1.0" encoding="UTF-8" standalone="no"?>
<!DOCTYPE svg PUBLIC "-//W3C//DTD SVG 1.1//EN"
 "http://www.w3.org/Graphics/SVG/1.1/DTD/svg11.dtd">
<!-- Generated by graphviz version 2.36.0 (20140111.2315)
 -->
<!-- Title: view.turtle.TurtleImage.setDebugMode Pages: 1 -->
<svg width="1230pt" height="38pt"
 viewBox="0.00 0.00 1230.00 38.00" xmlns="http://www.w3.org/2000/svg" xmlns:xlink="http://www.w3.org/1999/xlink">
<g id="graph0" class="graph" transform="scale(1 1) rotate(0) translate(4 34)">
<title>view.turtle.TurtleImage.setDebugMode</title>
<polygon fill="white" stroke="none" points="-4,4 -4,-34 1226,-34 1226,4 -4,4"/>
<!-- Node1 -->
<g id="node1" class="node"><title>Node1</title>
<polygon fill="#bfbfbf" stroke="black" points="0.5,-0 0.5,-30 141.5,-30 141.5,-0 0.5,-0"/>
<text text-anchor="start" x="8.5" y="-18" font-family="Helvetica,sans-Serif" font-size="10.00">view.turtle.TurtleImage.set</text>
<text text-anchor="middle" x="71" y="-7" font-family="Helvetica,sans-Serif" font-size="10.00">DebugMode</text>
</g>
<!-- Node2 -->
<g id="node2" class="node"><title>Node2</title>
<g id="a_node2"><a xlink:href="../../d5/d4b/classview_1_1components_1_1_turtle_window.html#a16e7723d456ac7fa532544e477e43728" target="_top" xlink:title="view.components.TurtleWindow.enter\lDebugMode">
<polygon fill="white" stroke="black" points="178.5,-0 178.5,-30 369.5,-30 369.5,-0 178.5,-0"/>
<text text-anchor="start" x="186.5" y="-18" font-family="Helvetica,sans-Serif" font-size="10.00">view.components.TurtleWindow.enter</text>
<text text-anchor="middle" x="274" y="-7" font-family="Helvetica,sans-Serif" font-size="10.00">DebugMode</text>
</a>
</g>
</g>
<!-- Node1&#45;&gt;Node2 -->
<g id="edge1" class="edge"><title>Node1&#45;&gt;Node2</title>
<path fill="none" stroke="midnightblue" d="M151.817,-15C160.504,-15 169.406,-15 178.248,-15"/>
<polygon fill="midnightblue" stroke="midnightblue" points="151.736,-11.5001 141.736,-15 151.736,-18.5001 151.736,-11.5001"/>
</g>
<!-- Node3 -->
<g id="node3" class="node"><title>Node3</title>
<g id="a_node3"><a xlink:href="../../de/d30/classview_1_1components_1_1_s_logo_workspace.html#a101f8c1f0ab5d6096b14ba2350d145bb" target="_top" xlink:title="view.components.SLogoWorkspace.start\lDebugger">
<polygon fill="white" stroke="black" points="406.5,-0 406.5,-30 615.5,-30 615.5,-0 406.5,-0"/>
<text text-anchor="start" x="414.5" y="-18" font-family="Helvetica,sans-Serif" font-size="10.00">view.components.SLogoWorkspace.start</text>
<text text-anchor="middle" x="511" y="-7" font-family="Helvetica,sans-Serif" font-size="10.00">Debugger</text>
</a>
</g>
</g>
<!-- Node2&#45;&gt;Node3 -->
<g id="edge2" class="edge"><title>Node2&#45;&gt;Node3</title>
<path fill="none" stroke="midnightblue" d="M379.572,-15C388.48,-15 397.488,-15 406.389,-15"/>
<polygon fill="midnightblue" stroke="midnightblue" points="379.568,-11.5001 369.568,-15 379.568,-18.5001 379.568,-11.5001"/>
</g>
<!-- Node4 -->
<g id="node4" class="node"><title>Node4</title>
<g id="a_node4"><a xlink:href="../../d3/dbe/classview_1_1_view.html#af73241772a154fae88c348f602b25216" target="_top" xlink:title="view.View.addDebuger">
<polygon fill="white" stroke="black" points="652,-5.5 652,-24.5 774,-24.5 774,-5.5 652,-5.5"/>
<text text-anchor="middle" x="713" y="-12.5" font-family="Helvetica,sans-Serif" font-size="10.00">view.View.addDebuger</text>
</a>
</g>
</g>
<!-- Node3&#45;&gt;Node4 -->
<g id="edge3" class="edge"><title>Node3&#45;&gt;Node4</title>
<path fill="none" stroke="midnightblue" d="M625.725,-15C634.726,-15 643.575,-15 651.974,-15"/>
<polygon fill="midnightblue" stroke="midnightblue" points="625.515,-11.5001 615.515,-15 625.515,-18.5001 625.515,-11.5001"/>
</g>
<!-- Node5 -->
<g id="node5" class="node"><title>Node5</title>
<g id="a_node5"><a xlink:href="../../db/d98/classview_1_1components_1_1_command_port.html#a5963d9acc7cb5497eeda04b2a6666592" target="_top" xlink:title="view.components.CommandPort.enter\lDebugMode">
<polygon fill="white" stroke="black" points="810,-0 810,-30 1010,-30 1010,-0 810,-0"/>
<text text-anchor="start" x="818" y="-18" font-family="Helvetica,sans-Serif" font-size="10.00">view.components.CommandPort.enter</text>
<text text-anchor="middle" x="910" y="-7" font-family="Helvetica,sans-Serif" font-size="10.00">DebugMode</text>
</a>
</g>
</g>
<!-- Node4&#45;&gt;Node5 -->
<g id="edge4" class="edge"><title>Node4&#45;&gt;Node5</title>
<path fill="none" stroke="midnightblue" d="M784.179,-15C792.58,-15 801.274,-15 809.985,-15"/>
<polygon fill="midnightblue" stroke="midnightblue" points="784.098,-11.5001 774.098,-15 784.098,-18.5001 784.098,-11.5001"/>
</g>
<!-- Node6 -->
<g id="node6" class="node"><title>Node6</title>
<g id="a_node6"><a xlink:href="../../db/d98/classview_1_1components_1_1_command_port.html#a37ae451233579691839c4a52072c94e9" target="_top" xlink:title="view.components.CommandPort.\lCommandPort">
<polygon fill="white" stroke="black" points="1046.5,-0 1046.5,-30 1221.5,-30 1221.5,-0 1046.5,-0"/>
<text text-anchor="start" x="1054.5" y="-18" font-family="Helvetica,sans-Serif" font-size="10.00">view.components.CommandPort.</text>
<text text-anchor="middle" x="1134" y="-7" font-family="Helvetica,sans-Serif" font-size="10.00">CommandPort</text>
</a>
</g>
</g>
<!-- Node5&#45;&gt;Node6 -->
<g id="edge5" class="edge"><title>Node5&#45;&gt;Node6</title>
<path fill="none" stroke="midnightblue" d="M1020.47,-15C1029.15,-15 1037.83,-15 1046.31,-15"/>
<polygon fill="midnightblue" stroke="midnightblue" points="1020.31,-11.5001 1010.31,-15 1020.31,-18.5001 1020.31,-11.5001"/>
</g>
</g>
</svg>
