<?xml version="1.0" encoding="UTF-8" standalone="no"?>
<!DOCTYPE svg PUBLIC "-//W3C//DTD SVG 1.1//EN"
 "http://www.w3.org/Graphics/SVG/1.1/DTD/svg11.dtd">
<!-- Generated by graphviz version 2.36.0 (20140111.2315)
 -->
<!-- Title: view.turtle.TurtleImage.TurtleImage Pages: 1 -->
<!--zoomable 442 -->
<svg id="main" version="1.1" xmlns="http://www.w3.org/2000/svg" xmlns:xlink="http://www.w3.org/1999/xlink" xml:space="preserve" onload="init(evt)">
<style type="text/css"><![CDATA[
.edge:hover path { stroke: red; }
.edge:hover polygon { stroke: red; fill: red; }
]]></style>
<script type="text/javascript"><![CDATA[
var edges = document.getElementsByTagName('g');
if (edges && edges.length) {
  for (var i=0;i<edges.length;i++) {
    if (edges[i].id.substr(0,4)=='edge') {
      edges[i].setAttribute('class','edge');
    }
  }
}
]]></script>
        <defs>
                <circle id="rim" cx="0" cy="0" r="7"/>
                <circle id="rim2" cx="0" cy="0" r="3.5"/>
                <g id="zoomPlus">
                        <use xlink:href="#rim" fill="#404040">
                                <set attributeName="fill" to="#808080" begin="zoomplus.mouseover" end="zoomplus.mouseout"/>
                        </use>
                        <path d="M-4,0h8M0,-4v8" fill="none" stroke="white" stroke-width="1.5" pointer-events="none"/>
                </g>
                <g id="zoomMin">
                        <use xlink:href="#rim" fill="#404040">
                                <set attributeName="fill" to="#808080" begin="zoomminus.mouseover" end="zoomminus.mouseout"/>
                        </use>
                        <path d="M-4,0h8" fill="none" stroke="white" stroke-width="1.5" pointer-events="none"/>
                </g>
                <g id="dirArrow">
                        <path fill="none" stroke="white" stroke-width="1.5" d="M0,-3.0v7 M-2.5,-0.5L0,-3.0L2.5,-0.5"/>
                </g>
               <g id="resetDef">
                       <use xlink:href="#rim2" fill="#404040">
                               <set attributeName="fill" to="#808080" begin="reset.mouseover" end="reset.mouseout"/>
                       </use>
               </g>
        </defs>

<script type="text/javascript">
var viewWidth = 740;
var viewHeight = 442;
var sectionId = 'dynsection-2';
</script>
<script xlink:href="../../svgpan.js"/>
<svg id="graph" class="graph">
<g id="viewport">
<title>view.turtle.TurtleImage.TurtleImage</title>
<polygon fill="white" stroke="none" points="-4,4 -4,-438 736,-438 736,4 -4,4"/>
<!-- Node1 -->
<g id="node1" class="node"><title>Node1</title>
<polygon fill="#bfbfbf" stroke="black" points="0,-63 0,-93 126,-93 126,-63 0,-63"/>
<text text-anchor="start" x="8" y="-81" font-family="Helvetica,sans-Serif" font-size="10.00">view.turtle.TurtleImage.</text>
<text text-anchor="middle" x="63" y="-70" font-family="Helvetica,sans-Serif" font-size="10.00">TurtleImage</text>
</g>
<!-- Node2 -->
<g id="node2" class="node"><title>Node2</title>
<g id="a_node2"><a xlink:href="../../dd/ddc/classview_1_1turtle_1_1_turtle_image.html#a04e2f41614019a2728c46bfbeeafeaf5" target="_top" xlink:title="view.turtle.TurtleImage.initializeMenu">
<polygon fill="white" stroke="black" points="162.5,-213.5 162.5,-232.5 353.5,-232.5 353.5,-213.5 162.5,-213.5"/>
<text text-anchor="middle" x="258" y="-220.5" font-family="Helvetica,sans-Serif" font-size="10.00">view.turtle.TurtleImage.initializeMenu</text>
</a>
</g>
</g>
<!-- Node1&#45;&gt;Node2 -->
<g id="edge1" class="edge"><title>Node1&#45;&gt;Node2</title>
<path fill="none" stroke="midnightblue" d="M84.2896,-93.2435C121.025,-120.843 198.214,-178.834 235.687,-206.987"/>
<polygon fill="midnightblue" stroke="midnightblue" points="233.795,-209.944 243.892,-213.152 237.999,-204.347 233.795,-209.944"/>
</g>
<!-- Node16 -->
<g id="node16" class="node"><title>Node16</title>
<g id="a_node16"><a xlink:href="../../dd/ddc/classview_1_1turtle_1_1_turtle_image.html#a7d8d2dd43811b2ccb02a7f489eb48e24" target="_top" xlink:title="view.turtle.TurtleImage.install\lStateTooltip">
<polygon fill="white" stroke="black" points="181,-88 181,-118 335,-118 335,-88 181,-88"/>
<text text-anchor="start" x="189" y="-106" font-family="Helvetica,sans-Serif" font-size="10.00">view.turtle.TurtleImage.install</text>
<text text-anchor="middle" x="258" y="-95" font-family="Helvetica,sans-Serif" font-size="10.00">StateTooltip</text>
</a>
</g>
</g>
<!-- Node1&#45;&gt;Node16 -->
<g id="edge15" class="edge"><title>Node1&#45;&gt;Node16</title>
<path fill="none" stroke="midnightblue" d="M126.129,-86.0478C140.275,-87.8802 155.555,-89.8595 170.511,-91.7967"/>
<polygon fill="midnightblue" stroke="midnightblue" points="170.428,-95.3152 180.795,-93.1289 171.327,-88.3732 170.428,-95.3152"/>
</g>
<!-- Node18 -->
<g id="node18" class="node"><title>Node18</title>
<g id="a_node18"><a xlink:href="../../dd/ddc/classview_1_1turtle_1_1_turtle_image.html#a86b462f57b86f6c0a72357fdc2655aa1" target="_top" xlink:title="view.turtle.TurtleImage.math\lCoordsToCanvasCoords">
<polygon fill="white" stroke="black" points="182,-39 182,-69 334,-69 334,-39 182,-39"/>
<text text-anchor="start" x="190" y="-57" font-family="Helvetica,sans-Serif" font-size="10.00">view.turtle.TurtleImage.math</text>
<text text-anchor="middle" x="258" y="-46" font-family="Helvetica,sans-Serif" font-size="10.00">CoordsToCanvasCoords</text>
</a>
</g>
</g>
<!-- Node1&#45;&gt;Node18 -->
<g id="edge17" class="edge"><title>Node1&#45;&gt;Node18</title>
<path fill="none" stroke="midnightblue" d="M126.129,-70.2741C140.682,-68.4644 156.436,-66.5054 171.801,-64.5947"/>
<polygon fill="midnightblue" stroke="midnightblue" points="172.335,-68.0554 181.826,-63.348 171.471,-61.1089 172.335,-68.0554"/>
</g>
<!-- Node19 -->
<g id="node19" class="node"><title>Node19</title>
<g id="a_node19"><a xlink:href="../../dd/ddc/classview_1_1turtle_1_1_turtle_image.html#a8d0b6c792a667b46764ad2eec6f7359e" target="_top" xlink:title="view.turtle.TurtleImage.resize">
<polygon fill="white" stroke="black" points="180.5,-0.5 180.5,-19.5 335.5,-19.5 335.5,-0.5 180.5,-0.5"/>
<text text-anchor="middle" x="258" y="-7.5" font-family="Helvetica,sans-Serif" font-size="10.00">view.turtle.TurtleImage.resize</text>
</a>
</g>
</g>
<!-- Node1&#45;&gt;Node19 -->
<g id="edge18" class="edge"><title>Node1&#45;&gt;Node19</title>
<path fill="none" stroke="midnightblue" d="M89.3869,-62.947C108.707,-52.0827 136.271,-37.8279 162,-29 169.947,-26.2733 178.41,-23.8872 186.885,-21.8127"/>
<polygon fill="midnightblue" stroke="midnightblue" points="187.854,-25.1811 196.809,-19.5189 186.277,-18.3609 187.854,-25.1811"/>
</g>
<!-- Node3 -->
<g id="node3" class="node"><title>Node3</title>
<g id="a_node3"><a xlink:href="../../dd/ddc/classview_1_1turtle_1_1_turtle_image.html#a90023b9af10fa08debafd5c787806382" target="_top" xlink:title="view.turtle.TurtleImage.make\lMenuItem">
<polygon fill="white" stroke="black" points="393.5,-404 393.5,-434 546.5,-434 546.5,-404 393.5,-404"/>
<text text-anchor="start" x="401.5" y="-422" font-family="Helvetica,sans-Serif" font-size="10.00">view.turtle.TurtleImage.make</text>
<text text-anchor="middle" x="470" y="-411" font-family="Helvetica,sans-Serif" font-size="10.00">MenuItem</text>
</a>
</g>
</g>
<!-- Node2&#45;&gt;Node3 -->
<g id="edge2" class="edge"><title>Node2&#45;&gt;Node3</title>
<path fill="none" stroke="midnightblue" d="M263.732,-232.793C278.297,-261.901 325.403,-348.68 390,-394 392.854,-396.002 395.876,-397.849 399.007,-399.553"/>
<polygon fill="midnightblue" stroke="midnightblue" points="397.557,-402.74 408.078,-403.983 400.629,-396.45 397.557,-402.74"/>
</g>
<!-- Node4 -->
<g id="node4" class="node"><title>Node4</title>
<g id="a_node4"><a xlink:href="../../dd/ddc/classview_1_1turtle_1_1_turtle_image.html#aef5a93a2c3465ac4261bf52b9f9c36de" target="_top" xlink:title="view.turtle.TurtleImage.select\lImageFile">
<polygon fill="white" stroke="black" points="392.5,-355 392.5,-385 547.5,-385 547.5,-355 392.5,-355"/>
<text text-anchor="start" x="400.5" y="-373" font-family="Helvetica,sans-Serif" font-size="10.00">view.turtle.TurtleImage.select</text>
<text text-anchor="middle" x="470" y="-362" font-family="Helvetica,sans-Serif" font-size="10.00">ImageFile</text>
</a>
</g>
</g>
<!-- Node2&#45;&gt;Node4 -->
<g id="edge3" class="edge"><title>Node2&#45;&gt;Node4</title>
<path fill="none" stroke="midnightblue" d="M266.789,-232.772C285.561,-255.694 335.776,-313.363 390,-345 393.634,-347.121 397.47,-349.083 401.412,-350.895"/>
<polygon fill="midnightblue" stroke="midnightblue" points="400.19,-354.179 410.763,-354.857 402.921,-347.733 400.19,-354.179"/>
</g>
<!-- Node5 -->
<g id="node5" class="node"><title>Node5</title>
<g id="a_node5"><a xlink:href="../../dd/ddc/classview_1_1turtle_1_1_turtle_image.html#a9466dd0cc8b23a1f7f1c660dda958c88" target="_top" xlink:title="view.turtle.TurtleImage.toggle\lTurtle">
<polygon fill="white" stroke="black" points="392,-306 392,-336 548,-336 548,-306 392,-306"/>
<text text-anchor="start" x="400" y="-324" font-family="Helvetica,sans-Serif" font-size="10.00">view.turtle.TurtleImage.toggle</text>
<text text-anchor="middle" x="470" y="-313" font-family="Helvetica,sans-Serif" font-size="10.00">Turtle</text>
</a>
</g>
</g>
<!-- Node2&#45;&gt;Node5 -->
<g id="edge4" class="edge"><title>Node2&#45;&gt;Node5</title>
<path fill="none" stroke="midnightblue" d="M273.82,-232.57C297.584,-247.61 346.016,-277.017 390,-296 395.331,-298.301 400.944,-300.497 406.619,-302.565"/>
<polygon fill="midnightblue" stroke="midnightblue" points="405.592,-305.914 416.187,-305.921 407.908,-299.309 405.592,-305.914"/>
</g>
<!-- Node7 -->
<g id="node7" class="node"><title>Node7</title>
<g id="a_node7"><a xlink:href="../../dd/ddc/classview_1_1turtle_1_1_turtle_image.html#a861a4cd4d81b8040540d27bb17172a52" target="_top" xlink:title="view.turtle.TurtleImage.set\lPenUpDown">
<polygon fill="white" stroke="black" points="399.5,-257 399.5,-287 540.5,-287 540.5,-257 399.5,-257"/>
<text text-anchor="start" x="407.5" y="-275" font-family="Helvetica,sans-Serif" font-size="10.00">view.turtle.TurtleImage.set</text>
<text text-anchor="middle" x="470" y="-264" font-family="Helvetica,sans-Serif" font-size="10.00">PenUpDown</text>
</a>
</g>
</g>
<!-- Node2&#45;&gt;Node7 -->
<g id="edge6" class="edge"><title>Node2&#45;&gt;Node7</title>
<path fill="none" stroke="midnightblue" d="M299.739,-232.506C326.654,-238.786 362.723,-247.202 394.649,-254.651"/>
<polygon fill="midnightblue" stroke="midnightblue" points="393.875,-258.065 404.409,-256.929 395.466,-251.248 393.875,-258.065"/>
</g>
<!-- Node8 -->
<g id="node8" class="node"><title>Node8</title>
<g id="a_node8"><a xlink:href="../../dd/ddc/classview_1_1turtle_1_1_turtle_image.html#afb36381593a3955aefeb6a61b7c9a709" target="_top" xlink:title="view.turtle.TurtleImage.select\lPenColor">
<polygon fill="white" stroke="black" points="392.5,-208 392.5,-238 547.5,-238 547.5,-208 392.5,-208"/>
<text text-anchor="start" x="400.5" y="-226" font-family="Helvetica,sans-Serif" font-size="10.00">view.turtle.TurtleImage.select</text>
<text text-anchor="middle" x="470" y="-215" font-family="Helvetica,sans-Serif" font-size="10.00">PenColor</text>
</a>
</g>
</g>
<!-- Node2&#45;&gt;Node8 -->
<g id="edge7" class="edge"><title>Node2&#45;&gt;Node8</title>
<path fill="none" stroke="midnightblue" d="M353.556,-223C363.07,-223 372.7,-223 382.128,-223"/>
<polygon fill="midnightblue" stroke="midnightblue" points="382.265,-226.5 392.265,-223 382.265,-219.5 382.265,-226.5"/>
</g>
<!-- Node9 -->
<g id="node9" class="node"><title>Node9</title>
<g id="a_node9"><a xlink:href="../../dd/ddc/classview_1_1turtle_1_1_turtle_image.html#a46a855e3a400fc5f6050cad58859cf76" target="_top" xlink:title="view.turtle.TurtleImage.set\lLineStyleMenu">
<polygon fill="white" stroke="black" points="399.5,-159 399.5,-189 540.5,-189 540.5,-159 399.5,-159"/>
<text text-anchor="start" x="407.5" y="-177" font-family="Helvetica,sans-Serif" font-size="10.00">view.turtle.TurtleImage.set</text>
<text text-anchor="middle" x="470" y="-166" font-family="Helvetica,sans-Serif" font-size="10.00">LineStyleMenu</text>
</a>
</g>
</g>
<!-- Node2&#45;&gt;Node9 -->
<g id="edge8" class="edge"><title>Node2&#45;&gt;Node9</title>
<path fill="none" stroke="midnightblue" d="M299.739,-213.494C326.654,-207.214 362.723,-198.798 394.649,-191.349"/>
<polygon fill="midnightblue" stroke="midnightblue" points="395.466,-194.752 404.409,-189.071 393.875,-187.935 395.466,-194.752"/>
</g>
<!-- Node14 -->
<g id="node14" class="node"><title>Node14</title>
<g id="a_node14"><a xlink:href="../../dd/ddc/classview_1_1turtle_1_1_turtle_image.html#afa13a52ae70e4fdfa1070b099d85b54d" target="_top" xlink:title="view.turtle.TurtleImage.set\lLineWidthMenu">
<polygon fill="white" stroke="black" points="399.5,-110 399.5,-140 540.5,-140 540.5,-110 399.5,-110"/>
<text text-anchor="start" x="407.5" y="-128" font-family="Helvetica,sans-Serif" font-size="10.00">view.turtle.TurtleImage.set</text>
<text text-anchor="middle" x="470" y="-117" font-family="Helvetica,sans-Serif" font-size="10.00">LineWidthMenu</text>
</a>
</g>
</g>
<!-- Node2&#45;&gt;Node14 -->
<g id="edge13" class="edge"><title>Node2&#45;&gt;Node14</title>
<path fill="none" stroke="midnightblue" d="M273.389,-213.47C296.947,-198.196 345.578,-168.021 390,-149 394.46,-147.09 399.121,-145.266 403.852,-143.538"/>
<polygon fill="midnightblue" stroke="midnightblue" points="405.332,-146.729 413.621,-140.13 403.026,-140.12 405.332,-146.729"/>
</g>
<!-- Node15 -->
<g id="node15" class="node"><title>Node15</title>
<g id="a_node15"><a xlink:href="../../dd/ddc/classview_1_1turtle_1_1_turtle_image.html#ad597408f95d6d36d8756c4990a2343fe" target="_top" xlink:title="view.turtle.TurtleImage.pop\lMyMenu">
<polygon fill="white" stroke="black" points="398,-61 398,-91 542,-91 542,-61 398,-61"/>
<text text-anchor="start" x="406" y="-79" font-family="Helvetica,sans-Serif" font-size="10.00">view.turtle.TurtleImage.pop</text>
<text text-anchor="middle" x="470" y="-68" font-family="Helvetica,sans-Serif" font-size="10.00">MyMenu</text>
</a>
</g>
</g>
<!-- Node2&#45;&gt;Node15 -->
<g id="edge14" class="edge"><title>Node2&#45;&gt;Node15</title>
<path fill="none" stroke="midnightblue" d="M268.127,-213.362C292.988,-187.291 361.915,-116.246 390,-100 393.007,-98.2606 396.153,-96.6355 399.384,-95.1185"/>
<polygon fill="midnightblue" stroke="midnightblue" points="400.867,-98.2905 408.672,-91.1249 398.102,-91.8597 400.867,-98.2905"/>
</g>
<!-- Node6 -->
<g id="node6" class="node"><title>Node6</title>
<g id="a_node6"><a xlink:href="../../dd/ddc/classview_1_1turtle_1_1_turtle_image.html#a6798d71b6457a6b70b472171e64f11f2" target="_top" xlink:title="view.turtle.TurtleImage.hide">
<polygon fill="white" stroke="black" points="586,-311.5 586,-330.5 732,-330.5 732,-311.5 586,-311.5"/>
<text text-anchor="middle" x="659" y="-318.5" font-family="Helvetica,sans-Serif" font-size="10.00">view.turtle.TurtleImage.hide</text>
</a>
</g>
</g>
<!-- Node5&#45;&gt;Node6 -->
<g id="edge5" class="edge"><title>Node5&#45;&gt;Node6</title>
<path fill="none" stroke="midnightblue" d="M548.14,-321C557.204,-321 566.48,-321 575.612,-321"/>
<polygon fill="midnightblue" stroke="midnightblue" points="575.843,-324.5 585.843,-321 575.843,-317.5 575.843,-324.5"/>
</g>
<!-- Node10 -->
<g id="node10" class="node"><title>Node10</title>
<g id="a_node10"><a xlink:href="../../d4/d93/classview_1_1turtle_1_1_turtle_pen.html#a242aa76ca677c1f6fc0737bf8b7e8efa" target="_top" xlink:title="view.turtle.TurtlePen.set\lSolid">
<polygon fill="white" stroke="black" points="594.5,-233 594.5,-263 723.5,-263 723.5,-233 594.5,-233"/>
<text text-anchor="start" x="602.5" y="-251" font-family="Helvetica,sans-Serif" font-size="10.00">view.turtle.TurtlePen.set</text>
<text text-anchor="middle" x="659" y="-240" font-family="Helvetica,sans-Serif" font-size="10.00">Solid</text>
</a>
</g>
</g>
<!-- Node9&#45;&gt;Node10 -->
<g id="edge9" class="edge"><title>Node9&#45;&gt;Node10</title>
<path fill="none" stroke="midnightblue" d="M528.345,-189.094C535.77,-191.72 543.162,-194.689 550,-198 567.532,-206.49 568.638,-214.168 586,-223 590.272,-225.173 594.776,-227.232 599.361,-229.164"/>
<polygon fill="midnightblue" stroke="midnightblue" points="598.254,-232.491 608.838,-232.952 600.851,-225.991 598.254,-232.491"/>
</g>
<!-- Node11 -->
<g id="node11" class="node"><title>Node11</title>
<g id="a_node11"><a xlink:href="../../d4/d93/classview_1_1turtle_1_1_turtle_pen.html#acc40539aea0be30a2f367149d938817b" target="_top" xlink:title="view.turtle.TurtlePen.set\lDashed">
<polygon fill="white" stroke="black" points="594.5,-184 594.5,-214 723.5,-214 723.5,-184 594.5,-184"/>
<text text-anchor="start" x="602.5" y="-202" font-family="Helvetica,sans-Serif" font-size="10.00">view.turtle.TurtlePen.set</text>
<text text-anchor="middle" x="659" y="-191" font-family="Helvetica,sans-Serif" font-size="10.00">Dashed</text>
</a>
</g>
</g>
<!-- Node9&#45;&gt;Node11 -->
<g id="edge10" class="edge"><title>Node9&#45;&gt;Node11</title>
<path fill="none" stroke="midnightblue" d="M540.632,-183.309C554.837,-185.208 569.83,-187.213 584.176,-189.13"/>
<polygon fill="midnightblue" stroke="midnightblue" points="584.111,-192.653 594.486,-190.509 585.038,-185.715 584.111,-192.653"/>
</g>
<!-- Node12 -->
<g id="node12" class="node"><title>Node12</title>
<g id="a_node12"><a xlink:href="../../d4/d93/classview_1_1turtle_1_1_turtle_pen.html#a7f86c7b312b141e82c695363ce59acce" target="_top" xlink:title="view.turtle.TurtlePen.set\lDotted">
<polygon fill="white" stroke="black" points="594.5,-135 594.5,-165 723.5,-165 723.5,-135 594.5,-135"/>
<text text-anchor="start" x="602.5" y="-153" font-family="Helvetica,sans-Serif" font-size="10.00">view.turtle.TurtlePen.set</text>
<text text-anchor="middle" x="659" y="-142" font-family="Helvetica,sans-Serif" font-size="10.00">Dotted</text>
</a>
</g>
</g>
<!-- Node9&#45;&gt;Node12 -->
<g id="edge11" class="edge"><title>Node9&#45;&gt;Node12</title>
<path fill="none" stroke="midnightblue" d="M540.632,-165.063C554.837,-163.24 569.83,-161.316 584.176,-159.475"/>
<polygon fill="midnightblue" stroke="midnightblue" points="585.013,-162.896 594.486,-158.151 584.122,-155.953 585.013,-162.896"/>
</g>
<!-- Node13 -->
<g id="node13" class="node"><title>Node13</title>
<g id="a_node13"><a xlink:href="../../d4/d93/classview_1_1turtle_1_1_turtle_pen.html#a3fdf6ec7e6ebd59e5e0ef1ef501d0a6c" target="_top" xlink:title="view.turtle.TurtlePen.set\lDashDot">
<polygon fill="white" stroke="black" points="594.5,-86 594.5,-116 723.5,-116 723.5,-86 594.5,-86"/>
<text text-anchor="start" x="602.5" y="-104" font-family="Helvetica,sans-Serif" font-size="10.00">view.turtle.TurtlePen.set</text>
<text text-anchor="middle" x="659" y="-93" font-family="Helvetica,sans-Serif" font-size="10.00">DashDot</text>
</a>
</g>
</g>
<!-- Node9&#45;&gt;Node13 -->
<g id="edge12" class="edge"><title>Node9&#45;&gt;Node13</title>
<path fill="none" stroke="midnightblue" d="M525.75,-158.893C534.026,-155.977 542.347,-152.671 550,-149 567.338,-140.684 568.726,-133.449 586,-125 589.728,-123.176 593.629,-121.438 597.604,-119.792"/>
<polygon fill="midnightblue" stroke="midnightblue" points="598.934,-123.03 606.965,-116.121 596.378,-116.514 598.934,-123.03"/>
</g>
<!-- Node17 -->
<g id="node17" class="node"><title>Node17</title>
<g id="a_node17"><a xlink:href="../../dd/ddc/classview_1_1turtle_1_1_turtle_image.html#acae06290cfd1daeb79bceac499b30e55" target="_top" xlink:title="view.turtle.TurtleImage.canvas\lCoordsToMathCoords">
<polygon fill="white" stroke="black" points="390,-12 390,-42 550,-42 550,-12 390,-12"/>
<text text-anchor="start" x="398" y="-30" font-family="Helvetica,sans-Serif" font-size="10.00">view.turtle.TurtleImage.canvas</text>
<text text-anchor="middle" x="470" y="-19" font-family="Helvetica,sans-Serif" font-size="10.00">CoordsToMathCoords</text>
</a>
</g>
</g>
<!-- Node16&#45;&gt;Node17 -->
<g id="edge16" class="edge"><title>Node16&#45;&gt;Node17</title>
<path fill="none" stroke="midnightblue" d="M328.876,-87.948C337.522,-85.1206 346.093,-81.8236 354,-78 372.005,-69.2933 372.162,-60.0438 390,-51 393.74,-49.1041 397.656,-47.3281 401.66,-45.6694"/>
<polygon fill="midnightblue" stroke="midnightblue" points="403.055,-48.8824 411.119,-42.0106 400.53,-42.3537 403.055,-48.8824"/>
</g>
</g>
</svg>
        <g id="navigator" transform="translate(0 0)" fill="#404254">
                <rect fill="#f2f5e9" fill-opacity="0.5" stroke="#606060" stroke-width=".5" x="0" y="0" width="60" height="60"/>
                <use id="zoomplus" xlink:href="#zoomPlus" x="17" y="9" onmousedown="handleZoom(evt,'in')"/>
                <use id="zoomminus" xlink:href="#zoomMin" x="42" y="9" onmousedown="handleZoom(evt,'out')"/>
                <use id="reset" xlink:href="#resetDef" x="30" y="36" onmousedown="handleReset()"/>
                <g id="arrowUp" xlink:href="#dirArrow" transform="translate(30 24)" onmousedown="handlePan(0,-1)">
                  <use xlink:href="#rim" fill="#404040">
                        <set attributeName="fill" to="#808080" begin="arrowUp.mouseover" end="arrowUp.mouseout"/>
                  </use>
                  <path fill="none" stroke="white" stroke-width="1.5" d="M0,-3.0v7 M-2.5,-0.5L0,-3.0L2.5,-0.5"/>
                </g>
                <g id="arrowRight" xlink:href="#dirArrow" transform="rotate(90) translate(36 -43)" onmousedown="handlePan(1,0)">
                  <use xlink:href="#rim" fill="#404040">
                        <set attributeName="fill" to="#808080" begin="arrowRight.mouseover" end="arrowRight.mouseout"/>
                  </use>
                  <path fill="none" stroke="white" stroke-width="1.5" d="M0,-3.0v7 M-2.5,-0.5L0,-3.0L2.5,-0.5"/>
                </g>
                <g id="arrowDown" xlink:href="#dirArrow" transform="rotate(180) translate(-30 -48)" onmousedown="handlePan(0,1)">
                  <use xlink:href="#rim" fill="#404040">
                        <set attributeName="fill" to="#808080" begin="arrowDown.mouseover" end="arrowDown.mouseout"/>
                  </use>
                  <path fill="none" stroke="white" stroke-width="1.5" d="M0,-3.0v7 M-2.5,-0.5L0,-3.0L2.5,-0.5"/>
                </g>
                <g id="arrowLeft" xlink:href="#dirArrow" transform="rotate(270) translate(-36 17)" onmousedown="handlePan(-1,0)">
                  <use xlink:href="#rim" fill="#404040">
                        <set attributeName="fill" to="#808080" begin="arrowLeft.mouseover" end="arrowLeft.mouseout"/>
                  </use>
                  <path fill="none" stroke="white" stroke-width="1.5" d="M0,-3.0v7 M-2.5,-0.5L0,-3.0L2.5,-0.5"/>
                </g>
        </g>
        <svg viewBox="0 0 15 15" width="100%" height="30px" preserveAspectRatio="xMaxYMin meet">
         <g id="arrow_out" transform="scale(0.3 0.3)">
          <a xlink:href="classview_1_1turtle_1_1_turtle_image_a263168e1587bc3c507af040a4b17c308_cgraph_org.svg" target="_base">
           <rect id="button" ry="5" rx="5" y="6" x="6" height="38" width="38"
                fill="#f2f5e9" fill-opacity="0.5" stroke="#606060" stroke-width="1.0"/>
           <path id="arrow"
             d="M 11.500037,31.436501 C 11.940474,20.09759 22.043105,11.32322 32.158766,21.979434 L 37.068811,17.246167 C 37.068811,17.246167 37.088388,32 37.088388,32 L 22.160133,31.978069 C 22.160133,31.978069 26.997745,27.140456 26.997745,27.140456 C 18.528582,18.264221 13.291696,25.230495 11.500037,31.436501 z"
             style="fill:#404040;"/>
          </a>
         </g>
        </svg>
</svg>
