<?xml version="1.0" encoding="UTF-8" standalone="no"?>
<!DOCTYPE svg PUBLIC "-//W3C//DTD SVG 1.1//EN"
 "http://www.w3.org/Graphics/SVG/1.1/DTD/svg11.dtd">
<!-- Generated by graphviz version 2.36.0 (20140111.2315)
 -->
<!-- Title: view.turtle.TurtleImage.unanimatedMove Pages: 1 -->
<svg width="1604pt" height="131pt"
 viewBox="0.00 0.00 1604.00 131.00" xmlns="http://www.w3.org/2000/svg" xmlns:xlink="http://www.w3.org/1999/xlink">
<g id="graph0" class="graph" transform="scale(1 1) rotate(0) translate(4 127)">
<title>view.turtle.TurtleImage.unanimatedMove</title>
<polygon fill="white" stroke="none" points="-4,4 -4,-127 1600,-127 1600,4 -4,4"/>
<!-- Node1 -->
<g id="node1" class="node"><title>Node1</title>
<polygon fill="#bfbfbf" stroke="black" points="0.5,-27.5 0.5,-46.5 209.5,-46.5 209.5,-27.5 0.5,-27.5"/>
<text text-anchor="middle" x="105" y="-34.5" font-family="Helvetica,sans-Serif" font-size="10.00">view.turtle.TurtleImage.unanimatedMove</text>
</g>
<!-- Node2 -->
<g id="node2" class="node"><title>Node2</title>
<g id="a_node2"><a xlink:href="../../dd/ddc/classview_1_1turtle_1_1_turtle_image.html#afd9abc603b052b7c9c14108400109917" target="_top" xlink:title="view.turtle.TurtleImage.process\lUpdate">
<polygon fill="white" stroke="black" points="246,-0 246,-30 410,-30 410,-0 246,-0"/>
<text text-anchor="start" x="254" y="-18" font-family="Helvetica,sans-Serif" font-size="10.00">view.turtle.TurtleImage.process</text>
<text text-anchor="middle" x="328" y="-7" font-family="Helvetica,sans-Serif" font-size="10.00">Update</text>
</a>
</g>
</g>
<!-- Node1&#45;&gt;Node2 -->
<g id="edge1" class="edge"><title>Node1&#45;&gt;Node2</title>
<path fill="none" stroke="midnightblue" d="M211.682,-26.4797C223.133,-25.3397 234.653,-24.1929 245.75,-23.0883"/>
<polygon fill="midnightblue" stroke="midnightblue" points="211.253,-23.005 201.648,-27.4784 211.946,-29.9706 211.253,-23.005"/>
</g>
<!-- Node3 -->
<g id="node3" class="node"><title>Node3</title>
<g id="a_node3"><a xlink:href="../../dd/ddc/classview_1_1turtle_1_1_turtle_image.html#a68a832da6825e57061dbc49b30098291" target="_top" xlink:title="view.turtle.TurtleImage.pop\lUpdate">
<polygon fill="white" stroke="black" points="446,-44 446,-74 590,-74 590,-44 446,-44"/>
<text text-anchor="start" x="454" y="-62" font-family="Helvetica,sans-Serif" font-size="10.00">view.turtle.TurtleImage.pop</text>
<text text-anchor="middle" x="518" y="-51" font-family="Helvetica,sans-Serif" font-size="10.00">Update</text>
</a>
</g>
</g>
<!-- Node2&#45;&gt;Node3 -->
<g id="edge2" class="edge"><title>Node2&#45;&gt;Node3</title>
<path fill="none" stroke="midnightblue" d="M403.247,-32.3769C419.63,-36.2112 436.851,-40.2418 452.797,-43.9738"/>
<polygon fill="midnightblue" stroke="midnightblue" points="403.708,-28.8902 393.173,-30.0192 402.112,-35.7061 403.708,-28.8902"/>
</g>
<!-- Node3&#45;&gt;Node1 -->
<g id="edge11" class="edge"><title>Node3&#45;&gt;Node1</title>
<path fill="none" stroke="midnightblue" d="M435.823,-54.6547C371.023,-51.1862 279.801,-46.3032 209.713,-42.5515"/>
<polygon fill="midnightblue" stroke="midnightblue" points="435.815,-58.1593 445.988,-55.1989 436.19,-51.1693 435.815,-58.1593"/>
</g>
<!-- Node4 -->
<g id="node4" class="node"><title>Node4</title>
<g id="a_node4"><a xlink:href="../../dd/ddc/classview_1_1turtle_1_1_turtle_image.html#a02651da4da9b4b48bd91656f734ccb03" target="_top" xlink:title="view.turtle.TurtleImage.add\lUpdate">
<polygon fill="white" stroke="black" points="653,-93 653,-123 797,-123 797,-93 653,-93"/>
<text text-anchor="start" x="661" y="-111" font-family="Helvetica,sans-Serif" font-size="10.00">view.turtle.TurtleImage.add</text>
<text text-anchor="middle" x="725" y="-100" font-family="Helvetica,sans-Serif" font-size="10.00">Update</text>
</a>
</g>
</g>
<!-- Node3&#45;&gt;Node4 -->
<g id="edge3" class="edge"><title>Node3&#45;&gt;Node4</title>
<path fill="none" stroke="midnightblue" d="M591.812,-76.4038C614.49,-81.8243 639.289,-87.752 661.219,-92.9938"/>
<polygon fill="midnightblue" stroke="midnightblue" points="592.44,-72.9553 581.9,-74.0346 590.812,-79.7636 592.44,-72.9553"/>
</g>
<!-- Node5 -->
<g id="node5" class="node"><title>Node5</title>
<g id="a_node5"><a xlink:href="../../dd/ddc/classview_1_1turtle_1_1_turtle_image.html#a958417ed4561c0b910f80944a5110ec7" target="_top" xlink:title="view.turtle.TurtleImage.animatedMove">
<polygon fill="white" stroke="black" points="626.5,-5.5 626.5,-24.5 823.5,-24.5 823.5,-5.5 626.5,-5.5"/>
<text text-anchor="middle" x="725" y="-12.5" font-family="Helvetica,sans-Serif" font-size="10.00">view.turtle.TurtleImage.animatedMove</text>
</a>
</g>
</g>
<!-- Node3&#45;&gt;Node5 -->
<g id="edge4" class="edge"><title>Node3&#45;&gt;Node5</title>
<path fill="none" stroke="midnightblue" d="M591.472,-41.6745C603.006,-39.0306 614.818,-36.3895 626,-34 641.169,-30.7588 657.709,-27.4616 672.809,-24.5437"/>
<polygon fill="midnightblue" stroke="midnightblue" points="590.387,-38.3327 581.431,-43.9924 591.962,-45.1534 590.387,-38.3327"/>
</g>
<!-- Node6 -->
<g id="node6" class="node"><title>Node6</title>
<g id="a_node6"><a xlink:href="../../d5/d4b/classview_1_1components_1_1_turtle_window.html#a84744ff6c257318689fc0e014350fb05" target="_top" xlink:title="view.components.TurtleWindow.step\lDebug">
<polygon fill="white" stroke="black" points="632,-44 632,-74 818,-74 818,-44 632,-44"/>
<text text-anchor="start" x="640" y="-62" font-family="Helvetica,sans-Serif" font-size="10.00">view.components.TurtleWindow.step</text>
<text text-anchor="middle" x="725" y="-51" font-family="Helvetica,sans-Serif" font-size="10.00">Debug</text>
</a>
</g>
</g>
<!-- Node3&#45;&gt;Node6 -->
<g id="edge6" class="edge"><title>Node3&#45;&gt;Node6</title>
<path fill="none" stroke="midnightblue" d="M600.317,-59C610.626,-59 621.235,-59 631.7,-59"/>
<polygon fill="midnightblue" stroke="midnightblue" points="600.124,-55.5001 590.124,-59 600.124,-62.5001 600.124,-55.5001"/>
</g>
<!-- Node5&#45;&gt;Node2 -->
<g id="edge5" class="edge"><title>Node5&#45;&gt;Node2</title>
<path fill="none" stroke="midnightblue" d="M616.059,-15C551.145,-15 469.854,-15 410.365,-15"/>
<polygon fill="midnightblue" stroke="midnightblue" points="616.331,-18.5001 626.331,-15 616.331,-11.5001 616.331,-18.5001"/>
</g>
<!-- Node7 -->
<g id="node7" class="node"><title>Node7</title>
<g id="a_node7"><a xlink:href="../../de/d30/classview_1_1components_1_1_s_logo_workspace.html#ad2141a5cca8101b3d22b2cf7b7473281" target="_top" xlink:title="view.components.SLogoWorkspace.run\lDebugger">
<polygon fill="white" stroke="black" points="860,-44 860,-74 1062,-74 1062,-44 860,-44"/>
<text text-anchor="start" x="868" y="-62" font-family="Helvetica,sans-Serif" font-size="10.00">view.components.SLogoWorkspace.run</text>
<text text-anchor="middle" x="961" y="-51" font-family="Helvetica,sans-Serif" font-size="10.00">Debugger</text>
</a>
</g>
</g>
<!-- Node6&#45;&gt;Node7 -->
<g id="edge7" class="edge"><title>Node6&#45;&gt;Node7</title>
<path fill="none" stroke="midnightblue" d="M828.162,-59C838.672,-59 849.344,-59 859.832,-59"/>
<polygon fill="midnightblue" stroke="midnightblue" points="828.147,-55.5001 818.147,-59 828.147,-62.5001 828.147,-55.5001"/>
</g>
<!-- Node8 -->
<g id="node8" class="node"><title>Node8</title>
<g id="a_node8"><a xlink:href="../../d3/dbe/classview_1_1_view.html#af4860035310eeafc92cf78cbbc53290a" target="_top" xlink:title="view.View.runDebugger">
<polygon fill="white" stroke="black" points="1098,-49.5 1098,-68.5 1224,-68.5 1224,-49.5 1098,-49.5"/>
<text text-anchor="middle" x="1161" y="-56.5" font-family="Helvetica,sans-Serif" font-size="10.00">view.View.runDebugger</text>
</a>
</g>
</g>
<!-- Node7&#45;&gt;Node8 -->
<g id="edge8" class="edge"><title>Node7&#45;&gt;Node8</title>
<path fill="none" stroke="midnightblue" d="M1072.42,-59C1081.12,-59 1089.71,-59 1097.9,-59"/>
<polygon fill="midnightblue" stroke="midnightblue" points="1072.16,-55.5001 1062.16,-59 1072.16,-62.5001 1072.16,-55.5001"/>
</g>
<!-- Node9 -->
<g id="node9" class="node"><title>Node9</title>
<g id="a_node9"><a xlink:href="../../d4/d6b/classview_1_1components_1_1_debugger_port.html#a6dd594b7c6572e0f4ef2ab7d8845f2ce" target="_top" xlink:title="view.components.Debugger\lPort.stepDebug">
<polygon fill="white" stroke="black" points="1260.5,-44 1260.5,-74 1409.5,-74 1409.5,-44 1260.5,-44"/>
<text text-anchor="start" x="1268.5" y="-62" font-family="Helvetica,sans-Serif" font-size="10.00">view.components.Debugger</text>
<text text-anchor="middle" x="1335" y="-51" font-family="Helvetica,sans-Serif" font-size="10.00">Port.stepDebug</text>
</a>
</g>
</g>
<!-- Node8&#45;&gt;Node9 -->
<g id="edge9" class="edge"><title>Node8&#45;&gt;Node9</title>
<path fill="none" stroke="midnightblue" d="M1234.13,-59C1242.78,-59 1251.61,-59 1260.28,-59"/>
<polygon fill="midnightblue" stroke="midnightblue" points="1234.1,-55.5001 1224.1,-59 1234.1,-62.5001 1234.1,-55.5001"/>
</g>
<!-- Node10 -->
<g id="node10" class="node"><title>Node10</title>
<g id="a_node10"><a xlink:href="../../d4/d6b/classview_1_1components_1_1_debugger_port.html#a7055f8fe86c7e1078dc9909a7f000b8b" target="_top" xlink:title="view.components.Debugger\lPort.DebuggerPort">
<polygon fill="white" stroke="black" points="1446.5,-44 1446.5,-74 1595.5,-74 1595.5,-44 1446.5,-44"/>
<text text-anchor="start" x="1454.5" y="-62" font-family="Helvetica,sans-Serif" font-size="10.00">view.components.Debugger</text>
<text text-anchor="middle" x="1521" y="-51" font-family="Helvetica,sans-Serif" font-size="10.00">Port.DebuggerPort</text>
</a>
</g>
</g>
<!-- Node9&#45;&gt;Node10 -->
<g id="edge10" class="edge"><title>Node9&#45;&gt;Node10</title>
<path fill="none" stroke="midnightblue" d="M1419.53,-59C1428.46,-59 1437.5,-59 1446.3,-59"/>
<polygon fill="midnightblue" stroke="midnightblue" points="1419.51,-55.5001 1409.51,-59 1419.51,-62.5001 1419.51,-55.5001"/>
</g>
</g>
</svg>
