<?xml version="1.0" encoding="UTF-8" standalone="no"?>
<!DOCTYPE svg PUBLIC "-//W3C//DTD SVG 1.1//EN"
 "http://www.w3.org/Graphics/SVG/1.1/DTD/svg11.dtd">
<!-- Generated by graphviz version 2.36.0 (20140111.2315)
 -->
<!-- Title: view.turtle.TurtleImage.animatedMove Pages: 1 -->
<!--zoomable 887 -->
<svg id="main" version="1.1" xmlns="http://www.w3.org/2000/svg" xmlns:xlink="http://www.w3.org/1999/xlink" xml:space="preserve" onload="init(evt)">
<style type="text/css"><![CDATA[
.edge:hover path { stroke: red; }
.edge:hover polygon { stroke: red; fill: red; }
]]></style>
<script type="text/javascript"><![CDATA[
var edges = document.getElementsByTagName('g');
if (edges && edges.length) {
  for (var i=0;i<edges.length;i++) {
    if (edges[i].id.substr(0,4)=='edge') {
      edges[i].setAttribute('class','edge');
    }
  }
}
]]></script>
        <defs>
                <circle id="rim" cx="0" cy="0" r="7"/>
                <circle id="rim2" cx="0" cy="0" r="3.5"/>
                <g id="zoomPlus">
                        <use xlink:href="#rim" fill="#404040">
                                <set attributeName="fill" to="#808080" begin="zoomplus.mouseover" end="zoomplus.mouseout"/>
                        </use>
                        <path d="M-4,0h8M0,-4v8" fill="none" stroke="white" stroke-width="1.5" pointer-events="none"/>
                </g>
                <g id="zoomMin">
                        <use xlink:href="#rim" fill="#404040">
                                <set attributeName="fill" to="#808080" begin="zoomminus.mouseover" end="zoomminus.mouseout"/>
                        </use>
                        <path d="M-4,0h8" fill="none" stroke="white" stroke-width="1.5" pointer-events="none"/>
                </g>
                <g id="dirArrow">
                        <path fill="none" stroke="white" stroke-width="1.5" d="M0,-3.0v7 M-2.5,-0.5L0,-3.0L2.5,-0.5"/>
                </g>
               <g id="resetDef">
                       <use xlink:href="#rim2" fill="#404040">
                               <set attributeName="fill" to="#808080" begin="reset.mouseover" end="reset.mouseout"/>
                       </use>
               </g>
        </defs>

<script type="text/javascript">
var viewWidth = 1380;
var viewHeight = 887;
var sectionId = 'dynsection-4';
</script>
<script xlink:href="../../svgpan.js"/>
<svg id="graph" class="graph">
<g id="viewport">
<title>view.turtle.TurtleImage.animatedMove</title>
<polygon fill="white" stroke="none" points="-4,4 -4,-883 1376,-883 1376,4 -4,4"/>
<!-- Node1 -->
<g id="node1" class="node"><title>Node1</title>
<polygon fill="#bfbfbf" stroke="black" points="0.5,-417.5 0.5,-436.5 197.5,-436.5 197.5,-417.5 0.5,-417.5"/>
<text text-anchor="middle" x="99" y="-424.5" font-family="Helvetica,sans-Serif" font-size="10.00">view.turtle.TurtleImage.animatedMove</text>
</g>
<!-- Node2 -->
<g id="node2" class="node"><title>Node2</title>
<g id="a_node2"><a xlink:href="../../dd/ddc/classview_1_1turtle_1_1_turtle_image.html#afad70374651ad6165f7d48b7bf268d71" target="_top" xlink:title="view.turtle.TurtleImage.create\lRotateTransition">
<polygon fill="white" stroke="black" points="234.5,-483 234.5,-513 391.5,-513 391.5,-483 234.5,-483"/>
<text text-anchor="start" x="242.5" y="-501" font-family="Helvetica,sans-Serif" font-size="10.00">view.turtle.TurtleImage.create</text>
<text text-anchor="middle" x="313" y="-490" font-family="Helvetica,sans-Serif" font-size="10.00">RotateTransition</text>
</a>
</g>
</g>
<!-- Node1&#45;&gt;Node2 -->
<g id="edge1" class="edge"><title>Node1&#45;&gt;Node2</title>
<path fill="none" stroke="midnightblue" d="M127.149,-436.502C154.18,-445.92 196.882,-460.682 234,-473 240.774,-475.248 247.889,-477.575 254.952,-479.864"/>
<polygon fill="midnightblue" stroke="midnightblue" points="253.922,-483.21 264.514,-482.952 256.073,-476.548 253.922,-483.21"/>
</g>
<!-- Node3 -->
<g id="node3" class="node"><title>Node3</title>
<g id="a_node3"><a xlink:href="../../dd/ddc/classview_1_1turtle_1_1_turtle_image.html#a579bab57c4e802a8a119ba0253b58ed9" target="_top" xlink:title="view.turtle.TurtleImage.create\lTranslateTransition">
<polygon fill="white" stroke="black" points="234.5,-434 234.5,-464 391.5,-464 391.5,-434 234.5,-434"/>
<text text-anchor="start" x="242.5" y="-452" font-family="Helvetica,sans-Serif" font-size="10.00">view.turtle.TurtleImage.create</text>
<text text-anchor="middle" x="313" y="-441" font-family="Helvetica,sans-Serif" font-size="10.00">TranslateTransition</text>
</a>
</g>
</g>
<!-- Node1&#45;&gt;Node3 -->
<g id="edge2" class="edge"><title>Node1&#45;&gt;Node3</title>
<path fill="none" stroke="midnightblue" d="M191.753,-436.522C202.523,-437.639 213.493,-438.778 224.207,-439.889"/>
<polygon fill="midnightblue" stroke="midnightblue" points="224.078,-443.395 234.386,-440.946 224.801,-436.432 224.078,-443.395"/>
</g>
<!-- Node4 -->
<g id="node4" class="node"><title>Node4</title>
<g id="a_node4"><a xlink:href="../../dd/ddc/classview_1_1turtle_1_1_turtle_image.html#a68a832da6825e57061dbc49b30098291" target="_top" xlink:title="view.turtle.TurtleImage.pop\lUpdate">
<polygon fill="white" stroke="black" points="241,-346 241,-376 385,-376 385,-346 241,-346"/>
<text text-anchor="start" x="249" y="-364" font-family="Helvetica,sans-Serif" font-size="10.00">view.turtle.TurtleImage.pop</text>
<text text-anchor="middle" x="313" y="-353" font-family="Helvetica,sans-Serif" font-size="10.00">Update</text>
</a>
</g>
</g>
<!-- Node1&#45;&gt;Node4 -->
<g id="edge3" class="edge"><title>Node1&#45;&gt;Node4</title>
<path fill="none" stroke="midnightblue" d="M130.827,-417.403C162.972,-407.395 214.122,-391.472 253.887,-379.092"/>
<polygon fill="midnightblue" stroke="midnightblue" points="254.966,-382.422 263.474,-376.107 252.886,-375.738 254.966,-382.422"/>
</g>
<!-- Node5 -->
<g id="node5" class="node"><title>Node5</title>
<g id="a_node5"><a xlink:href="../../dd/ddc/classview_1_1turtle_1_1_turtle_image.html#afd9abc603b052b7c9c14108400109917" target="_top" xlink:title="view.turtle.TurtleImage.process\lUpdate">
<polygon fill="white" stroke="black" points="428,-390 428,-420 592,-420 592,-390 428,-390"/>
<text text-anchor="start" x="436" y="-408" font-family="Helvetica,sans-Serif" font-size="10.00">view.turtle.TurtleImage.process</text>
<text text-anchor="middle" x="510" y="-397" font-family="Helvetica,sans-Serif" font-size="10.00">Update</text>
</a>
</g>
</g>
<!-- Node4&#45;&gt;Node5 -->
<g id="edge4" class="edge"><title>Node4&#45;&gt;Node5</title>
<path fill="none" stroke="midnightblue" d="M380.563,-376.019C397.256,-379.786 415.3,-383.857 432.438,-387.724"/>
<polygon fill="midnightblue" stroke="midnightblue" points="431.881,-391.187 442.407,-389.974 433.422,-384.358 431.881,-391.187"/>
</g>
<!-- Node5&#45;&gt;Node1 -->
<g id="edge29" class="edge"><title>Node5&#45;&gt;Node1</title>
<path fill="none" stroke="midnightblue" d="M427.885,-409.363C364.812,-412.756 276.73,-417.494 207.741,-421.205"/>
<polygon fill="midnightblue" stroke="midnightblue" points="207.503,-417.712 197.706,-421.744 207.879,-424.702 207.503,-417.712"/>
</g>
<!-- Node6 -->
<g id="node6" class="node"><title>Node6</title>
<g id="a_node6"><a xlink:href="../../db/dce/classmodel_1_1_turtle_update.html#a7ebfc78794f604d565e22150004b8325" target="_top" xlink:title="model.TurtleUpdate.isTurtle\lInactive">
<polygon fill="white" stroke="black" points="660,-849 660,-879 806,-879 806,-849 660,-849"/>
<text text-anchor="start" x="668" y="-867" font-family="Helvetica,sans-Serif" font-size="10.00">model.TurtleUpdate.isTurtle</text>
<text text-anchor="middle" x="733" y="-856" font-family="Helvetica,sans-Serif" font-size="10.00">Inactive</text>
</a>
</g>
</g>
<!-- Node5&#45;&gt;Node6 -->
<g id="edge5" class="edge"><title>Node5&#45;&gt;Node6</title>
<path fill="none" stroke="midnightblue" d="M513.027,-420.321C522.571,-490.201 565.217,-777.915 628,-839 634.431,-845.257 642.139,-850.042 650.413,-853.689"/>
<polygon fill="midnightblue" stroke="midnightblue" points="649.366,-857.036 659.957,-857.34 651.867,-850.498 649.366,-857.036"/>
</g>
<!-- Node7 -->
<g id="node7" class="node"><title>Node7</title>
<g id="a_node7"><a xlink:href="../../db/dce/classmodel_1_1_turtle_update.html#a6c2e9c2e4216253c37801998a329455b" target="_top" xlink:title="model.TurtleUpdate.isTurtle\lPenUp">
<polygon fill="white" stroke="black" points="660,-800 660,-830 806,-830 806,-800 660,-800"/>
<text text-anchor="start" x="668" y="-818" font-family="Helvetica,sans-Serif" font-size="10.00">model.TurtleUpdate.isTurtle</text>
<text text-anchor="middle" x="733" y="-807" font-family="Helvetica,sans-Serif" font-size="10.00">PenUp</text>
</a>
</g>
</g>
<!-- Node5&#45;&gt;Node7 -->
<g id="edge6" class="edge"><title>Node5&#45;&gt;Node7</title>
<path fill="none" stroke="midnightblue" d="M510.649,-420.226C510.195,-477.914 516.67,-685.064 628,-790 634.48,-796.108 642.182,-800.805 650.42,-804.405"/>
<polygon fill="midnightblue" stroke="midnightblue" points="649.321,-807.732 659.912,-808.02 651.813,-801.19 649.321,-807.732"/>
</g>
<!-- Node8 -->
<g id="node8" class="node"><title>Node8</title>
<g id="a_node8"><a xlink:href="../../d5/d46/classview_1_1components_1_1_palette.html#af6c1989fcbc763b66af3fc609fa59ff9" target="_top" xlink:title="view.components.Palette.get\lImage">
<polygon fill="white" stroke="black" points="656,-751 656,-781 810,-781 810,-751 656,-751"/>
<text text-anchor="start" x="664" y="-769" font-family="Helvetica,sans-Serif" font-size="10.00">view.components.Palette.get</text>
<text text-anchor="middle" x="733" y="-758" font-family="Helvetica,sans-Serif" font-size="10.00">Image</text>
</a>
</g>
</g>
<!-- Node5&#45;&gt;Node8 -->
<g id="edge7" class="edge"><title>Node5&#45;&gt;Node8</title>
<path fill="none" stroke="midnightblue" d="M511.417,-420.119C513.729,-472.99 528.868,-651.242 628,-741 633.489,-745.97 639.791,-749.998 646.52,-753.258"/>
<polygon fill="midnightblue" stroke="midnightblue" points="645.351,-756.563 655.925,-757.242 648.082,-750.118 645.351,-756.563"/>
</g>
<!-- Node9 -->
<g id="node9" class="node"><title>Node9</title>
<g id="a_node9"><a xlink:href="../../db/dce/classmodel_1_1_turtle_update.html#a36b8205a61dd875ac4521cf51906c275" target="_top" xlink:title="model.TurtleUpdate.getShapeID">
<polygon fill="white" stroke="black" points="648,-712.5 648,-731.5 818,-731.5 818,-712.5 648,-712.5"/>
<text text-anchor="middle" x="733" y="-719.5" font-family="Helvetica,sans-Serif" font-size="10.00">model.TurtleUpdate.getShapeID</text>
</a>
</g>
</g>
<!-- Node5&#45;&gt;Node9 -->
<g id="edge8" class="edge"><title>Node5&#45;&gt;Node9</title>
<path fill="none" stroke="midnightblue" d="M511.999,-420.328C516.108,-469.957 536.166,-627.409 628,-703 631.348,-705.756 634.964,-708.165 638.769,-710.267"/>
<polygon fill="midnightblue" stroke="midnightblue" points="637.423,-713.503 647.957,-714.637 640.429,-707.181 637.423,-713.503"/>
</g>
<!-- Node10 -->
<g id="node10" class="node"><title>Node10</title>
<g id="a_node10"><a xlink:href="../../db/dce/classmodel_1_1_turtle_update.html#a5e88189d0b5f21c9474b5617cb396b13" target="_top" xlink:title="model.TurtleUpdate.isStamp">
<polygon fill="white" stroke="black" points="656.5,-674.5 656.5,-693.5 809.5,-693.5 809.5,-674.5 656.5,-674.5"/>
<text text-anchor="middle" x="733" y="-681.5" font-family="Helvetica,sans-Serif" font-size="10.00">model.TurtleUpdate.isStamp</text>
</a>
</g>
</g>
<!-- Node5&#45;&gt;Node10 -->
<g id="edge9" class="edge"><title>Node5&#45;&gt;Node10</title>
<path fill="none" stroke="midnightblue" d="M513,-420.216C519.789,-465.374 546.284,-599.494 628,-664 633.705,-668.504 640.128,-672.093 646.911,-674.944"/>
<polygon fill="midnightblue" stroke="midnightblue" points="645.757,-678.248 656.351,-678.389 648.157,-671.672 645.757,-678.248"/>
</g>
<!-- Node11 -->
<g id="node11" class="node"><title>Node11</title>
<g id="a_node11"><a xlink:href="../../dd/ddc/classview_1_1turtle_1_1_turtle_image.html#aa1a5f2d4c96c64f526f4df58fd5e77d6" target="_top" xlink:title="view.turtle.TurtleImage.leave\lStamp">
<polygon fill="white" stroke="black" points="657,-625 657,-655 809,-655 809,-625 657,-625"/>
<text text-anchor="start" x="665" y="-643" font-family="Helvetica,sans-Serif" font-size="10.00">view.turtle.TurtleImage.leave</text>
<text text-anchor="middle" x="733" y="-632" font-family="Helvetica,sans-Serif" font-size="10.00">Stamp</text>
</a>
</g>
</g>
<!-- Node5&#45;&gt;Node11 -->
<g id="edge10" class="edge"><title>Node5&#45;&gt;Node11</title>
<path fill="none" stroke="midnightblue" d="M514.887,-420.239C525.654,-459.224 559.682,-563.151 628,-615 633.898,-619.477 640.483,-623.165 647.396,-626.202"/>
<polygon fill="midnightblue" stroke="midnightblue" points="646.405,-629.573 656.993,-629.954 648.953,-623.053 646.405,-629.573"/>
</g>
<!-- Node12 -->
<g id="node12" class="node"><title>Node12</title>
<g id="a_node12"><a xlink:href="../../db/dce/classmodel_1_1_turtle_update.html#ab56febaad846cad5592395c3a67a68db" target="_top" xlink:title="model.TurtleUpdate.isTurtle\lClear">
<polygon fill="white" stroke="black" points="660,-576 660,-606 806,-606 806,-576 660,-576"/>
<text text-anchor="start" x="668" y="-594" font-family="Helvetica,sans-Serif" font-size="10.00">model.TurtleUpdate.isTurtle</text>
<text text-anchor="middle" x="733" y="-583" font-family="Helvetica,sans-Serif" font-size="10.00">Clear</text>
</a>
</g>
</g>
<!-- Node5&#45;&gt;Node12 -->
<g id="edge11" class="edge"><title>Node5&#45;&gt;Node12</title>
<path fill="none" stroke="midnightblue" d="M517.537,-420.194C532.236,-452.464 571.119,-527.986 628,-566 634.805,-570.548 642.35,-574.271 650.179,-577.318"/>
<polygon fill="midnightblue" stroke="midnightblue" points="649.242,-580.699 659.837,-580.71 651.562,-574.095 649.242,-580.699"/>
</g>
<!-- Node13 -->
<g id="node13" class="node"><title>Node13</title>
<g id="a_node13"><a xlink:href="../../d4/d93/classview_1_1turtle_1_1_turtle_pen.html#ae7dfe008f68eef44da5ee831b062952a" target="_top" xlink:title="view.turtle.TurtlePen.updatePen">
<polygon fill="white" stroke="black" points="650,-537.5 650,-556.5 816,-556.5 816,-537.5 650,-537.5"/>
<text text-anchor="middle" x="733" y="-544.5" font-family="Helvetica,sans-Serif" font-size="10.00">view.turtle.TurtlePen.updatePen</text>
</a>
</g>
</g>
<!-- Node5&#45;&gt;Node13 -->
<g id="edge12" class="edge"><title>Node5&#45;&gt;Node13</title>
<path fill="none" stroke="midnightblue" d="M520.835,-420.25C538.724,-446.631 579.276,-500.499 628,-527 633.122,-529.786 638.571,-532.188 644.187,-534.26"/>
<polygon fill="midnightblue" stroke="midnightblue" points="643.174,-537.612 653.768,-537.443 645.381,-530.969 643.174,-537.612"/>
</g>
<!-- Node14 -->
<g id="node14" class="node"><title>Node14</title>
<g id="a_node14"><a xlink:href="../../d5/d46/classview_1_1components_1_1_palette.html#acf5106175f97e28619e7ed993b9fce93" target="_top" xlink:title="view.components.Palette.get\lColor">
<polygon fill="white" stroke="black" points="656,-488 656,-518 810,-518 810,-488 656,-488"/>
<text text-anchor="start" x="664" y="-506" font-family="Helvetica,sans-Serif" font-size="10.00">view.components.Palette.get</text>
<text text-anchor="middle" x="733" y="-495" font-family="Helvetica,sans-Serif" font-size="10.00">Color</text>
</a>
</g>
</g>
<!-- Node5&#45;&gt;Node14 -->
<g id="edge13" class="edge"><title>Node5&#45;&gt;Node14</title>
<path fill="none" stroke="midnightblue" d="M530.623,-420.027C553.032,-436.504 591.345,-462.638 628,-478 634.099,-480.556 640.513,-482.885 647.037,-485"/>
<polygon fill="midnightblue" stroke="midnightblue" points="646.063,-488.362 656.65,-487.947 648.116,-481.67 646.063,-488.362"/>
</g>
<!-- Node15 -->
<g id="node15" class="node"><title>Node15</title>
<g id="a_node15"><a xlink:href="../../d4/d93/classview_1_1turtle_1_1_turtle_pen.html#ab0c25ebb2a0dd4243c58a4c57f4413b6" target="_top" xlink:title="view.turtle.TurtlePen.get\lColorIndex">
<polygon fill="white" stroke="black" points="668,-439 668,-469 798,-469 798,-439 668,-439"/>
<text text-anchor="start" x="676" y="-457" font-family="Helvetica,sans-Serif" font-size="10.00">view.turtle.TurtlePen.get</text>
<text text-anchor="middle" x="733" y="-446" font-family="Helvetica,sans-Serif" font-size="10.00">ColorIndex</text>
</a>
</g>
</g>
<!-- Node5&#45;&gt;Node15 -->
<g id="edge14" class="edge"><title>Node5&#45;&gt;Node15</title>
<path fill="none" stroke="midnightblue" d="M578.809,-420.035C603.788,-425.573 632.207,-431.874 657.726,-437.532"/>
<polygon fill="midnightblue" stroke="midnightblue" points="657.2,-441 667.721,-439.748 658.716,-434.166 657.2,-441"/>
</g>
<!-- Node16 -->
<g id="node16" class="node"><title>Node16</title>
<g id="a_node16"><a xlink:href="../../dd/ddc/classview_1_1turtle_1_1_turtle_image.html#a86b462f57b86f6c0a72357fdc2655aa1" target="_top" xlink:title="view.turtle.TurtleImage.math\lCoordsToCanvasCoords">
<polygon fill="white" stroke="black" points="657,-390 657,-420 809,-420 809,-390 657,-390"/>
<text text-anchor="start" x="665" y="-408" font-family="Helvetica,sans-Serif" font-size="10.00">view.turtle.TurtleImage.math</text>
<text text-anchor="middle" x="733" y="-397" font-family="Helvetica,sans-Serif" font-size="10.00">CoordsToCanvasCoords</text>
</a>
</g>
</g>
<!-- Node5&#45;&gt;Node16 -->
<g id="edge15" class="edge"><title>Node5&#45;&gt;Node16</title>
<path fill="none" stroke="midnightblue" d="M592.037,-405C609.833,-405 628.727,-405 646.685,-405"/>
<polygon fill="midnightblue" stroke="midnightblue" points="646.842,-408.5 656.842,-405 646.842,-401.5 646.842,-408.5"/>
</g>
<!-- Node17 -->
<g id="node17" class="node"><title>Node17</title>
<g id="a_node17"><a xlink:href="../../db/dce/classmodel_1_1_turtle_update.html#a4a8bce496fed0074bb206694b80de851" target="_top" xlink:title="model.TurtleUpdate.getTurtle\lOldCoordinates">
<polygon fill="white" stroke="black" points="655.5,-341 655.5,-371 810.5,-371 810.5,-341 655.5,-341"/>
<text text-anchor="start" x="663.5" y="-359" font-family="Helvetica,sans-Serif" font-size="10.00">model.TurtleUpdate.getTurtle</text>
<text text-anchor="middle" x="733" y="-348" font-family="Helvetica,sans-Serif" font-size="10.00">OldCoordinates</text>
</a>
</g>
</g>
<!-- Node5&#45;&gt;Node17 -->
<g id="edge16" class="edge"><title>Node5&#45;&gt;Node17</title>
<path fill="none" stroke="midnightblue" d="M578.809,-389.965C602.674,-384.674 629.678,-378.687 654.295,-373.229"/>
<polygon fill="midnightblue" stroke="midnightblue" points="655.314,-376.588 664.319,-371.006 653.798,-369.754 655.314,-376.588"/>
</g>
<!-- Node18 -->
<g id="node18" class="node"><title>Node18</title>
<g id="a_node18"><a xlink:href="../../d8/d6a/classmodel_1_1_coordinates.html#a52f6ed56424da9a52c598f9c94f2c8ff" target="_top" xlink:title="model.Coordinates.getY">
<polygon fill="white" stroke="black" points="667.5,-302.5 667.5,-321.5 798.5,-321.5 798.5,-302.5 667.5,-302.5"/>
<text text-anchor="middle" x="733" y="-309.5" font-family="Helvetica,sans-Serif" font-size="10.00">model.Coordinates.getY</text>
</a>
</g>
</g>
<!-- Node5&#45;&gt;Node18 -->
<g id="edge17" class="edge"><title>Node5&#45;&gt;Node18</title>
<path fill="none" stroke="midnightblue" d="M529.638,-389.986C551.755,-372.968 590.389,-345.689 628,-331 637.296,-327.369 647.336,-324.424 657.383,-322.036"/>
<polygon fill="midnightblue" stroke="midnightblue" points="658.391,-325.398 667.405,-319.83 656.886,-318.562 658.391,-325.398"/>
</g>
<!-- Node19 -->
<g id="node19" class="node"><title>Node19</title>
<g id="a_node19"><a xlink:href="../../db/dce/classmodel_1_1_turtle_update.html#a2b6573ce1d167dd921e9abc9fff7c1dd" target="_top" xlink:title="model.TurtleUpdate.getTurtle\lNewCoordinates">
<polygon fill="white" stroke="black" points="655.5,-253 655.5,-283 810.5,-283 810.5,-253 655.5,-253"/>
<text text-anchor="start" x="663.5" y="-271" font-family="Helvetica,sans-Serif" font-size="10.00">model.TurtleUpdate.getTurtle</text>
<text text-anchor="middle" x="733" y="-260" font-family="Helvetica,sans-Serif" font-size="10.00">NewCoordinates</text>
</a>
</g>
</g>
<!-- Node5&#45;&gt;Node19 -->
<g id="edge18" class="edge"><title>Node5&#45;&gt;Node19</title>
<path fill="none" stroke="midnightblue" d="M522.471,-389.686C541.573,-365.317 582.341,-317.928 628,-293 633.562,-289.963 639.489,-287.292 645.585,-284.943"/>
<polygon fill="midnightblue" stroke="midnightblue" points="647.019,-288.148 655.276,-281.509 644.681,-281.55 647.019,-288.148"/>
</g>
<!-- Node20 -->
<g id="node20" class="node"><title>Node20</title>
<g id="a_node20"><a xlink:href="../../dd/ddc/classview_1_1turtle_1_1_turtle_image.html#a6798d71b6457a6b70b472171e64f11f2" target="_top" xlink:title="view.turtle.TurtleImage.hide">
<polygon fill="white" stroke="black" points="660,-214.5 660,-233.5 806,-233.5 806,-214.5 660,-214.5"/>
<text text-anchor="middle" x="733" y="-221.5" font-family="Helvetica,sans-Serif" font-size="10.00">view.turtle.TurtleImage.hide</text>
</a>
</g>
</g>
<!-- Node5&#45;&gt;Node20 -->
<g id="edge19" class="edge"><title>Node5&#45;&gt;Node20</title>
<path fill="none" stroke="midnightblue" d="M517.135,-389.963C531.302,-357.3 569.617,-279.848 628,-243 634.842,-238.682 642.41,-235.288 650.253,-232.627"/>
<polygon fill="midnightblue" stroke="midnightblue" points="651.348,-235.953 659.925,-229.732 649.341,-229.246 651.348,-235.953"/>
</g>
<!-- Node21 -->
<g id="node21" class="node"><title>Node21</title>
<g id="a_node21"><a xlink:href="../../db/dce/classmodel_1_1_turtle_update.html#a7288583a573d839635a8773a01563300" target="_top" xlink:title="model.TurtleUpdate.isTurtle\lHidden">
<polygon fill="white" stroke="black" points="660,-165 660,-195 806,-195 806,-165 660,-165"/>
<text text-anchor="start" x="668" y="-183" font-family="Helvetica,sans-Serif" font-size="10.00">model.TurtleUpdate.isTurtle</text>
<text text-anchor="middle" x="733" y="-172" font-family="Helvetica,sans-Serif" font-size="10.00">Hidden</text>
</a>
</g>
</g>
<!-- Node5&#45;&gt;Node21 -->
<g id="edge20" class="edge"><title>Node5&#45;&gt;Node21</title>
<path fill="none" stroke="midnightblue" d="M515.281,-389.929C526.765,-352.357 561.952,-254.042 628,-205 634.751,-199.987 642.368,-195.966 650.333,-192.741"/>
<polygon fill="midnightblue" stroke="midnightblue" points="651.599,-196.005 659.811,-189.311 649.217,-189.423 651.599,-196.005"/>
</g>
<!-- Node22 -->
<g id="node22" class="node"><title>Node22</title>
<g id="a_node22"><a xlink:href="../../d4/d93/classview_1_1turtle_1_1_turtle_pen.html#aeb591e6c3666a998228a86dbe9121c35" target="_top" xlink:title="view.turtle.TurtlePen.drawLine">
<polygon fill="white" stroke="black" points="655,-126.5 655,-145.5 811,-145.5 811,-126.5 655,-126.5"/>
<text text-anchor="middle" x="733" y="-133.5" font-family="Helvetica,sans-Serif" font-size="10.00">view.turtle.TurtlePen.drawLine</text>
</a>
</g>
</g>
<!-- Node5&#45;&gt;Node22 -->
<g id="edge21" class="edge"><title>Node5&#45;&gt;Node22</title>
<path fill="none" stroke="midnightblue" d="M516.019,-389.895C532.663,-340.691 587.3,-186.385 628,-155 633.198,-150.991 638.974,-147.732 645.065,-145.091"/>
<polygon fill="midnightblue" stroke="midnightblue" points="646.715,-148.21 654.857,-141.43 644.264,-141.653 646.715,-148.21"/>
</g>
<!-- Node26 -->
<g id="node26" class="node"><title>Node26</title>
<g id="a_node26"><a xlink:href="../../dd/ddc/classview_1_1turtle_1_1_turtle_image.html#aca0a62f113534161f725da472e1f4d9f" target="_top" xlink:title="view.turtle.TurtleImage.unanimatedMove">
<polygon fill="white" stroke="black" points="628.5,-0.5 628.5,-19.5 837.5,-19.5 837.5,-0.5 628.5,-0.5"/>
<text text-anchor="middle" x="733" y="-7.5" font-family="Helvetica,sans-Serif" font-size="10.00">view.turtle.TurtleImage.unanimatedMove</text>
</a>
</g>
</g>
<!-- Node5&#45;&gt;Node26 -->
<g id="edge25" class="edge"><title>Node5&#45;&gt;Node26</title>
<path fill="none" stroke="midnightblue" d="M517.999,-389.884C533.296,-356.351 570.086,-272.932 592,-200 614.35,-125.619 572.351,-83.1774 628,-29 629.311,-27.7237 630.678,-26.5179 632.094,-25.3792"/>
<polygon fill="midnightblue" stroke="midnightblue" points="634.371,-28.0642 640.698,-19.5655 630.452,-22.2641 634.371,-28.0642"/>
</g>
<!-- Node27 -->
<g id="node27" class="node"><title>Node27</title>
<g id="a_node27"><a xlink:href="../../db/dce/classmodel_1_1_turtle_update.html#aff8157b2082cdae408655d87ed85b74e" target="_top" xlink:title="model.TurtleUpdate.getTurtle\lAngle">
<polygon fill="white" stroke="black" points="655.5,-77 655.5,-107 810.5,-107 810.5,-77 655.5,-77"/>
<text text-anchor="start" x="663.5" y="-95" font-family="Helvetica,sans-Serif" font-size="10.00">model.TurtleUpdate.getTurtle</text>
<text text-anchor="middle" x="733" y="-84" font-family="Helvetica,sans-Serif" font-size="10.00">Angle</text>
</a>
</g>
</g>
<!-- Node5&#45;&gt;Node27 -->
<g id="edge27" class="edge"><title>Node5&#45;&gt;Node27</title>
<path fill="none" stroke="midnightblue" d="M516.957,-389.803C540.01,-331.056 622.374,-121.839 628,-117 633.344,-112.403 639.39,-108.619 645.812,-105.509"/>
<polygon fill="midnightblue" stroke="midnightblue" points="647.615,-108.547 655.453,-101.418 644.88,-102.103 647.615,-108.547"/>
</g>
<!-- Node28 -->
<g id="node28" class="node"><title>Node28</title>
<g id="a_node28"><a xlink:href="../../de/dfa/classmodel_1_1_angle.html#aa1b069cc47fadd893fe8527c356dd8fd" target="_top" xlink:title="model.Angle.getAngleValue">
<polygon fill="white" stroke="black" points="658.5,-38.5 658.5,-57.5 807.5,-57.5 807.5,-38.5 658.5,-38.5"/>
<text text-anchor="middle" x="733" y="-45.5" font-family="Helvetica,sans-Serif" font-size="10.00">model.Angle.getAngleValue</text>
</a>
</g>
</g>
<!-- Node5&#45;&gt;Node28 -->
<g id="edge28" class="edge"><title>Node5&#45;&gt;Node28</title>
<path fill="none" stroke="midnightblue" d="M517.692,-389.787C532.377,-356.061 568.022,-272.279 592,-200 611.282,-141.877 582.925,-108.454 628,-67 634.051,-61.4352 641.168,-57.2359 648.793,-54.0949"/>
<polygon fill="midnightblue" stroke="midnightblue" points="650.024,-57.3723 658.308,-50.7675 647.713,-50.7647 650.024,-57.3723"/>
</g>
<!-- Node23 -->
<g id="node23" class="node"><title>Node23</title>
<g id="a_node23"><a xlink:href="../../d4/d93/classview_1_1turtle_1_1_turtle_pen.html#a3eea64b5d17767f655096870f4a5850d" target="_top" xlink:title="view.turtle.TurtlePen.draw\lGappedLine">
<polygon fill="white" stroke="black" points="874.5,-121 874.5,-151 1011.5,-151 1011.5,-121 874.5,-121"/>
<text text-anchor="start" x="882.5" y="-139" font-family="Helvetica,sans-Serif" font-size="10.00">view.turtle.TurtlePen.draw</text>
<text text-anchor="middle" x="943" y="-128" font-family="Helvetica,sans-Serif" font-size="10.00">GappedLine</text>
</a>
</g>
</g>
<!-- Node22&#45;&gt;Node23 -->
<g id="edge22" class="edge"><title>Node22&#45;&gt;Node23</title>
<path fill="none" stroke="midnightblue" d="M811.156,-136C828.456,-136 846.819,-136 864.147,-136"/>
<polygon fill="midnightblue" stroke="midnightblue" points="864.214,-139.5 874.214,-136 864.214,-132.5 864.214,-139.5"/>
</g>
<!-- Node24 -->
<g id="node24" class="node"><title>Node24</title>
<g id="a_node24"><a xlink:href="../../d4/d93/classview_1_1turtle_1_1_turtle_pen.html#a78a412ae5c294fd37981146020ea4009" target="_top" xlink:title="view.turtle.TurtlePen.generate\lDashVectorArray">
<polygon fill="white" stroke="black" points="1048,-121 1048,-151 1206,-151 1206,-121 1048,-121"/>
<text text-anchor="start" x="1056" y="-139" font-family="Helvetica,sans-Serif" font-size="10.00">view.turtle.TurtlePen.generate</text>
<text text-anchor="middle" x="1127" y="-128" font-family="Helvetica,sans-Serif" font-size="10.00">DashVectorArray</text>
</a>
</g>
</g>
<!-- Node23&#45;&gt;Node24 -->
<g id="edge23" class="edge"><title>Node23&#45;&gt;Node24</title>
<path fill="none" stroke="midnightblue" d="M1011.51,-136C1020.02,-136 1028.82,-136 1037.59,-136"/>
<polygon fill="midnightblue" stroke="midnightblue" points="1037.85,-139.5 1047.85,-136 1037.85,-132.5 1037.85,-139.5"/>
</g>
<!-- Node25 -->
<g id="node25" class="node"><title>Node25</title>
<g id="a_node25"><a xlink:href="../../d4/d93/classview_1_1turtle_1_1_turtle_pen.html#a1553953625d014db95e9af6faa83e667" target="_top" xlink:title="view.turtle.TurtlePen.get\lUnitVector">
<polygon fill="white" stroke="black" points="1242,-121 1242,-151 1372,-151 1372,-121 1242,-121"/>
<text text-anchor="start" x="1250" y="-139" font-family="Helvetica,sans-Serif" font-size="10.00">view.turtle.TurtlePen.get</text>
<text text-anchor="middle" x="1307" y="-128" font-family="Helvetica,sans-Serif" font-size="10.00">UnitVector</text>
</a>
</g>
</g>
<!-- Node24&#45;&gt;Node25 -->
<g id="edge24" class="edge"><title>Node24&#45;&gt;Node25</title>
<path fill="none" stroke="midnightblue" d="M1206.07,-136C1214.57,-136 1223.21,-136 1231.66,-136"/>
<polygon fill="midnightblue" stroke="midnightblue" points="1231.86,-139.5 1241.86,-136 1231.86,-132.5 1231.86,-139.5"/>
</g>
<!-- Node26&#45;&gt;Node4 -->
<g id="edge26" class="edge"><title>Node26&#45;&gt;Node4</title>
<path fill="none" stroke="midnightblue" d="M651.037,-19.5034C643.006,-21.9915 635.18,-25.1059 628,-29 484.059,-107.071 368.107,-275.072 328.582,-337.236"/>
<polygon fill="midnightblue" stroke="midnightblue" points="325.465,-335.618 323.106,-345.947 331.391,-339.344 325.465,-335.618"/>
</g>
</g>
</svg>
        <g id="navigator" transform="translate(0 0)" fill="#404254">
                <rect fill="#f2f5e9" fill-opacity="0.5" stroke="#606060" stroke-width=".5" x="0" y="0" width="60" height="60"/>
                <use id="zoomplus" xlink:href="#zoomPlus" x="17" y="9" onmousedown="handleZoom(evt,'in')"/>
                <use id="zoomminus" xlink:href="#zoomMin" x="42" y="9" onmousedown="handleZoom(evt,'out')"/>
                <use id="reset" xlink:href="#resetDef" x="30" y="36" onmousedown="handleReset()"/>
                <g id="arrowUp" xlink:href="#dirArrow" transform="translate(30 24)" onmousedown="handlePan(0,-1)">
                  <use xlink:href="#rim" fill="#404040">
                        <set attributeName="fill" to="#808080" begin="arrowUp.mouseover" end="arrowUp.mouseout"/>
                  </use>
                  <path fill="none" stroke="white" stroke-width="1.5" d="M0,-3.0v7 M-2.5,-0.5L0,-3.0L2.5,-0.5"/>
                </g>
                <g id="arrowRight" xlink:href="#dirArrow" transform="rotate(90) translate(36 -43)" onmousedown="handlePan(1,0)">
                  <use xlink:href="#rim" fill="#404040">
                        <set attributeName="fill" to="#808080" begin="arrowRight.mouseover" end="arrowRight.mouseout"/>
                  </use>
                  <path fill="none" stroke="white" stroke-width="1.5" d="M0,-3.0v7 M-2.5,-0.5L0,-3.0L2.5,-0.5"/>
                </g>
                <g id="arrowDown" xlink:href="#dirArrow" transform="rotate(180) translate(-30 -48)" onmousedown="handlePan(0,1)">
                  <use xlink:href="#rim" fill="#404040">
                        <set attributeName="fill" to="#808080" begin="arrowDown.mouseover" end="arrowDown.mouseout"/>
                  </use>
                  <path fill="none" stroke="white" stroke-width="1.5" d="M0,-3.0v7 M-2.5,-0.5L0,-3.0L2.5,-0.5"/>
                </g>
                <g id="arrowLeft" xlink:href="#dirArrow" transform="rotate(270) translate(-36 17)" onmousedown="handlePan(-1,0)">
                  <use xlink:href="#rim" fill="#404040">
                        <set attributeName="fill" to="#808080" begin="arrowLeft.mouseover" end="arrowLeft.mouseout"/>
                  </use>
                  <path fill="none" stroke="white" stroke-width="1.5" d="M0,-3.0v7 M-2.5,-0.5L0,-3.0L2.5,-0.5"/>
                </g>
        </g>
        <svg viewBox="0 0 15 15" width="100%" height="30px" preserveAspectRatio="xMaxYMin meet">
         <g id="arrow_out" transform="scale(0.3 0.3)">
          <a xlink:href="classview_1_1turtle_1_1_turtle_image_a958417ed4561c0b910f80944a5110ec7_cgraph_org.svg" target="_base">
           <rect id="button" ry="5" rx="5" y="6" x="6" height="38" width="38"
                fill="#f2f5e9" fill-opacity="0.5" stroke="#606060" stroke-width="1.0"/>
           <path id="arrow"
             d="M 11.500037,31.436501 C 11.940474,20.09759 22.043105,11.32322 32.158766,21.979434 L 37.068811,17.246167 C 37.068811,17.246167 37.088388,32 37.088388,32 L 22.160133,31.978069 C 22.160133,31.978069 26.997745,27.140456 26.997745,27.140456 C 18.528582,18.264221 13.291696,25.230495 11.500037,31.436501 z"
             style="fill:#404040;"/>
          </a>
         </g>
        </svg>
</svg>
