<?xml version="1.0" encoding="UTF-8" standalone="no"?>
<!DOCTYPE svg PUBLIC "-//W3C//DTD SVG 1.1//EN"
 "http://www.w3.org/Graphics/SVG/1.1/DTD/svg11.dtd">
<!-- Generated by graphviz version 2.36.0 (20140111.2315)
 -->
<!-- Title: view.turtle.TurtleImage.unanimatedMove Pages: 1 -->
<svg width="1386pt" height="940pt"
 viewBox="0.00 0.00 1386.00 940.00" xmlns="http://www.w3.org/2000/svg" xmlns:xlink="http://www.w3.org/1999/xlink">
<g id="graph0" class="graph" transform="scale(1 1) rotate(0) translate(4 936)">
<title>view.turtle.TurtleImage.unanimatedMove</title>
<polygon fill="white" stroke="none" points="-4,4 -4,-936 1382,-936 1382,4 -4,4"/>
<!-- Node1 -->
<g id="node1" class="node"><title>Node1</title>
<polygon fill="#bfbfbf" stroke="black" points="0.5,-475.5 0.5,-494.5 209.5,-494.5 209.5,-475.5 0.5,-475.5"/>
<text text-anchor="middle" x="105" y="-482.5" font-family="Helvetica,sans-Serif" font-size="10.00">view.turtle.TurtleImage.unanimatedMove</text>
</g>
<!-- Node2 -->
<g id="node2" class="node"><title>Node2</title>
<g id="a_node2"><a xlink:href="../../dd/ddc/classview_1_1turtle_1_1_turtle_image.html#a68a832da6825e57061dbc49b30098291" target="_top" xlink:title="view.turtle.TurtleImage.pop\lUpdate">
<polygon fill="white" stroke="black" points="246,-492 246,-522 390,-522 390,-492 246,-492"/>
<text text-anchor="start" x="254" y="-510" font-family="Helvetica,sans-Serif" font-size="10.00">view.turtle.TurtleImage.pop</text>
<text text-anchor="middle" x="318" y="-499" font-family="Helvetica,sans-Serif" font-size="10.00">Update</text>
</a>
</g>
</g>
<!-- Node1&#45;&gt;Node2 -->
<g id="edge1" class="edge"><title>Node1&#45;&gt;Node2</title>
<path fill="none" stroke="midnightblue" d="M197.32,-494.522C210.152,-495.859 223.268,-497.227 235.891,-498.543"/>
<polygon fill="midnightblue" stroke="midnightblue" points="235.585,-502.03 245.894,-499.586 236.311,-495.068 235.585,-502.03"/>
</g>
<!-- Node3 -->
<g id="node3" class="node"><title>Node3</title>
<g id="a_node3"><a xlink:href="../../dd/ddc/classview_1_1turtle_1_1_turtle_image.html#afd9abc603b052b7c9c14108400109917" target="_top" xlink:title="view.turtle.TurtleImage.process\lUpdate">
<polygon fill="white" stroke="black" points="426,-448 426,-478 590,-478 590,-448 426,-448"/>
<text text-anchor="start" x="434" y="-466" font-family="Helvetica,sans-Serif" font-size="10.00">view.turtle.TurtleImage.process</text>
<text text-anchor="middle" x="508" y="-455" font-family="Helvetica,sans-Serif" font-size="10.00">Update</text>
</a>
</g>
</g>
<!-- Node2&#45;&gt;Node3 -->
<g id="edge2" class="edge"><title>Node2&#45;&gt;Node3</title>
<path fill="none" stroke="midnightblue" d="M383.173,-491.981C399.117,-488.249 416.338,-484.219 432.723,-480.384"/>
<polygon fill="midnightblue" stroke="midnightblue" points="433.858,-483.713 442.797,-478.026 432.263,-476.897 433.858,-483.713"/>
</g>
<!-- Node3&#45;&gt;Node1 -->
<g id="edge28" class="edge"><title>Node3&#45;&gt;Node1</title>
<path fill="none" stroke="midnightblue" d="M425.999,-467.444C366.665,-470.699 285.348,-475.16 219.536,-478.771"/>
<polygon fill="midnightblue" stroke="midnightblue" points="219.321,-475.278 209.528,-479.32 219.705,-482.267 219.321,-475.278"/>
</g>
<!-- Node4 -->
<g id="node4" class="node"><title>Node4</title>
<g id="a_node4"><a xlink:href="../../dd/ddc/classview_1_1turtle_1_1_turtle_image.html#a958417ed4561c0b910f80944a5110ec7" target="_top" xlink:title="view.turtle.TurtleImage.animatedMove">
<polygon fill="white" stroke="black" points="626.5,-857.5 626.5,-876.5 823.5,-876.5 823.5,-857.5 626.5,-857.5"/>
<text text-anchor="middle" x="725" y="-864.5" font-family="Helvetica,sans-Serif" font-size="10.00">view.turtle.TurtleImage.animatedMove</text>
</a>
</g>
</g>
<!-- Node3&#45;&gt;Node4 -->
<g id="edge3" class="edge"><title>Node3&#45;&gt;Node4</title>
<path fill="none" stroke="midnightblue" d="M515.886,-478.241C531.117,-512.448 568.044,-598.198 590,-673 612.364,-749.192 569.533,-792.172 626,-848 627.271,-849.257 628.599,-850.443 629.976,-851.562"/>
<polygon fill="midnightblue" stroke="midnightblue" points="628.129,-854.539 638.367,-857.268 632.066,-848.751 628.129,-854.539"/>
</g>
<!-- Node7 -->
<g id="node7" class="node"><title>Node7</title>
<g id="a_node7"><a xlink:href="../../d4/d93/classview_1_1turtle_1_1_turtle_pen.html#aeb591e6c3666a998228a86dbe9121c35" target="_top" xlink:title="view.turtle.TurtlePen.drawLine">
<polygon fill="white" stroke="black" points="647,-819.5 647,-838.5 803,-838.5 803,-819.5 647,-819.5"/>
<text text-anchor="middle" x="725" y="-826.5" font-family="Helvetica,sans-Serif" font-size="10.00">view.turtle.TurtlePen.drawLine</text>
</a>
</g>
</g>
<!-- Node3&#45;&gt;Node7 -->
<g id="edge7" class="edge"><title>Node3&#45;&gt;Node7</title>
<path fill="none" stroke="midnightblue" d="M515.482,-478.074C530.048,-512.291 565.969,-598.633 590,-673 609.358,-732.906 580.05,-766.964 626,-810 629.437,-813.219 633.248,-815.969 637.316,-818.313"/>
<polygon fill="midnightblue" stroke="midnightblue" points="636.061,-821.594 646.584,-822.82 639.122,-815.299 636.061,-821.594"/>
</g>
<!-- Node11 -->
<g id="node11" class="node"><title>Node11</title>
<g id="a_node11"><a xlink:href="../../de/dfa/classmodel_1_1_angle.html#aa1b069cc47fadd893fe8527c356dd8fd" target="_top" xlink:title="model.Angle.getAngleValue">
<polygon fill="white" stroke="black" points="650.5,-781.5 650.5,-800.5 799.5,-800.5 799.5,-781.5 650.5,-781.5"/>
<text text-anchor="middle" x="725" y="-788.5" font-family="Helvetica,sans-Serif" font-size="10.00">model.Angle.getAngleValue</text>
</a>
</g>
</g>
<!-- Node3&#45;&gt;Node11 -->
<g id="edge11" class="edge"><title>Node3&#45;&gt;Node11</title>
<path fill="none" stroke="midnightblue" d="M514.979,-478.25C528.514,-512.827 562.462,-599.859 590,-673 606.35,-716.425 590.812,-740.753 626,-771 630.471,-774.843 635.48,-778.019 640.805,-780.636"/>
<polygon fill="midnightblue" stroke="midnightblue" points="639.454,-783.865 650.028,-784.534 642.179,-777.417 639.454,-783.865"/>
</g>
<!-- Node12 -->
<g id="node12" class="node"><title>Node12</title>
<g id="a_node12"><a xlink:href="../../d5/d46/classview_1_1components_1_1_palette.html#acf5106175f97e28619e7ed993b9fce93" target="_top" xlink:title="view.components.Palette.get\lColor">
<polygon fill="white" stroke="black" points="648,-732 648,-762 802,-762 802,-732 648,-732"/>
<text text-anchor="start" x="656" y="-750" font-family="Helvetica,sans-Serif" font-size="10.00">view.components.Palette.get</text>
<text text-anchor="middle" x="725" y="-739" font-family="Helvetica,sans-Serif" font-size="10.00">Color</text>
</a>
</g>
</g>
<!-- Node3&#45;&gt;Node12 -->
<g id="edge12" class="edge"><title>Node3&#45;&gt;Node12</title>
<path fill="none" stroke="midnightblue" d="M513.915,-478.179C530.461,-528.397 585.368,-687.906 626,-722 629.934,-725.301 634.249,-728.175 638.806,-730.675"/>
<polygon fill="midnightblue" stroke="midnightblue" points="637.304,-733.836 647.831,-735.036 640.35,-727.534 637.304,-733.836"/>
</g>
<!-- Node13 -->
<g id="node13" class="node"><title>Node13</title>
<g id="a_node13"><a xlink:href="../../d4/d93/classview_1_1turtle_1_1_turtle_pen.html#ab0c25ebb2a0dd4243c58a4c57f4413b6" target="_top" xlink:title="view.turtle.TurtlePen.get\lColorIndex">
<polygon fill="white" stroke="black" points="660,-683 660,-713 790,-713 790,-683 660,-683"/>
<text text-anchor="start" x="668" y="-701" font-family="Helvetica,sans-Serif" font-size="10.00">view.turtle.TurtlePen.get</text>
<text text-anchor="middle" x="725" y="-690" font-family="Helvetica,sans-Serif" font-size="10.00">ColorIndex</text>
</a>
</g>
</g>
<!-- Node3&#45;&gt;Node13 -->
<g id="edge13" class="edge"><title>Node3&#45;&gt;Node13</title>
<path fill="none" stroke="midnightblue" d="M512.929,-478.183C523.796,-517.037 558.043,-620.678 626,-673 633.254,-678.585 641.619,-682.932 650.341,-686.314"/>
<polygon fill="midnightblue" stroke="midnightblue" points="649.314,-689.662 659.909,-689.618 651.599,-683.046 649.314,-689.662"/>
</g>
<!-- Node14 -->
<g id="node14" class="node"><title>Node14</title>
<g id="a_node14"><a xlink:href="../../d5/d46/classview_1_1components_1_1_palette.html#af6c1989fcbc763b66af3fc609fa59ff9" target="_top" xlink:title="view.components.Palette.get\lImage">
<polygon fill="white" stroke="black" points="648,-634 648,-664 802,-664 802,-634 648,-634"/>
<text text-anchor="start" x="656" y="-652" font-family="Helvetica,sans-Serif" font-size="10.00">view.components.Palette.get</text>
<text text-anchor="middle" x="725" y="-641" font-family="Helvetica,sans-Serif" font-size="10.00">Image</text>
</a>
</g>
</g>
<!-- Node3&#45;&gt;Node14 -->
<g id="edge14" class="edge"><title>Node3&#45;&gt;Node14</title>
<path fill="none" stroke="midnightblue" d="M515.577,-478.134C530.356,-510.286 569.384,-585.593 626,-624 629.969,-626.692 634.206,-629.095 638.61,-631.238"/>
<polygon fill="midnightblue" stroke="midnightblue" points="637.285,-634.479 647.849,-635.285 640.093,-628.067 637.285,-634.479"/>
</g>
<!-- Node15 -->
<g id="node15" class="node"><title>Node15</title>
<g id="a_node15"><a xlink:href="../../db/dce/classmodel_1_1_turtle_update.html#a36b8205a61dd875ac4521cf51906c275" target="_top" xlink:title="model.TurtleUpdate.getShapeID">
<polygon fill="white" stroke="black" points="640,-595.5 640,-614.5 810,-614.5 810,-595.5 640,-595.5"/>
<text text-anchor="middle" x="725" y="-602.5" font-family="Helvetica,sans-Serif" font-size="10.00">model.TurtleUpdate.getShapeID</text>
</a>
</g>
</g>
<!-- Node3&#45;&gt;Node15 -->
<g id="edge15" class="edge"><title>Node3&#45;&gt;Node15</title>
<path fill="none" stroke="midnightblue" d="M518.866,-478.193C536.803,-504.487 577.427,-558.223 626,-585 631.066,-587.793 636.473,-590.197 642.046,-592.267"/>
<polygon fill="midnightblue" stroke="midnightblue" points="640.958,-595.594 651.552,-595.445 643.177,-588.955 640.958,-595.594"/>
</g>
<!-- Node16 -->
<g id="node16" class="node"><title>Node16</title>
<g id="a_node16"><a xlink:href="../../db/dce/classmodel_1_1_turtle_update.html#aff8157b2082cdae408655d87ed85b74e" target="_top" xlink:title="model.TurtleUpdate.getTurtle\lAngle">
<polygon fill="white" stroke="black" points="647.5,-546 647.5,-576 802.5,-576 802.5,-546 647.5,-546"/>
<text text-anchor="start" x="655.5" y="-564" font-family="Helvetica,sans-Serif" font-size="10.00">model.TurtleUpdate.getTurtle</text>
<text text-anchor="middle" x="725" y="-553" font-family="Helvetica,sans-Serif" font-size="10.00">Angle</text>
</a>
</g>
</g>
<!-- Node3&#45;&gt;Node16 -->
<g id="edge16" class="edge"><title>Node3&#45;&gt;Node16</title>
<path fill="none" stroke="midnightblue" d="M529.071,-478.231C551.57,-494.639 589.673,-520.478 626,-536 631.828,-538.49 637.961,-540.775 644.196,-542.863"/>
<polygon fill="midnightblue" stroke="midnightblue" points="643.461,-546.302 654.051,-545.984 645.574,-539.628 643.461,-546.302"/>
</g>
<!-- Node17 -->
<g id="node17" class="node"><title>Node17</title>
<g id="a_node17"><a xlink:href="../../db/dce/classmodel_1_1_turtle_update.html#a2b6573ce1d167dd921e9abc9fff7c1dd" target="_top" xlink:title="model.TurtleUpdate.getTurtle\lNewCoordinates">
<polygon fill="white" stroke="black" points="647.5,-497 647.5,-527 802.5,-527 802.5,-497 647.5,-497"/>
<text text-anchor="start" x="655.5" y="-515" font-family="Helvetica,sans-Serif" font-size="10.00">model.TurtleUpdate.getTurtle</text>
<text text-anchor="middle" x="725" y="-504" font-family="Helvetica,sans-Serif" font-size="10.00">NewCoordinates</text>
</a>
</g>
</g>
<!-- Node3&#45;&gt;Node17 -->
<g id="edge17" class="edge"><title>Node3&#45;&gt;Node17</title>
<path fill="none" stroke="midnightblue" d="M574.968,-478.035C598.185,-483.326 624.456,-489.313 648.404,-494.771"/>
<polygon fill="midnightblue" stroke="midnightblue" points="647.629,-498.184 658.157,-496.994 649.184,-491.359 647.629,-498.184"/>
</g>
<!-- Node18 -->
<g id="node18" class="node"><title>Node18</title>
<g id="a_node18"><a xlink:href="../../db/dce/classmodel_1_1_turtle_update.html#a4a8bce496fed0074bb206694b80de851" target="_top" xlink:title="model.TurtleUpdate.getTurtle\lOldCoordinates">
<polygon fill="white" stroke="black" points="647.5,-448 647.5,-478 802.5,-478 802.5,-448 647.5,-448"/>
<text text-anchor="start" x="655.5" y="-466" font-family="Helvetica,sans-Serif" font-size="10.00">model.TurtleUpdate.getTurtle</text>
<text text-anchor="middle" x="725" y="-455" font-family="Helvetica,sans-Serif" font-size="10.00">OldCoordinates</text>
</a>
</g>
</g>
<!-- Node3&#45;&gt;Node18 -->
<g id="edge18" class="edge"><title>Node3&#45;&gt;Node18</title>
<path fill="none" stroke="midnightblue" d="M590.282,-463C605.597,-463 621.668,-463 637.146,-463"/>
<polygon fill="midnightblue" stroke="midnightblue" points="637.217,-466.5 647.217,-463 637.217,-459.5 637.217,-466.5"/>
</g>
<!-- Node19 -->
<g id="node19" class="node"><title>Node19</title>
<g id="a_node19"><a xlink:href="../../d8/d6a/classmodel_1_1_coordinates.html#a52f6ed56424da9a52c598f9c94f2c8ff" target="_top" xlink:title="model.Coordinates.getY">
<polygon fill="white" stroke="black" points="659.5,-409.5 659.5,-428.5 790.5,-428.5 790.5,-409.5 659.5,-409.5"/>
<text text-anchor="middle" x="725" y="-416.5" font-family="Helvetica,sans-Serif" font-size="10.00">model.Coordinates.getY</text>
</a>
</g>
</g>
<!-- Node3&#45;&gt;Node19 -->
<g id="edge19" class="edge"><title>Node3&#45;&gt;Node19</title>
<path fill="none" stroke="midnightblue" d="M578.246,-447.976C593.936,-444.636 610.532,-441.152 626,-438 638.261,-435.502 651.401,-432.901 663.949,-430.455"/>
<polygon fill="midnightblue" stroke="midnightblue" points="664.707,-433.873 673.857,-428.531 663.373,-427.002 664.707,-433.873"/>
</g>
<!-- Node20 -->
<g id="node20" class="node"><title>Node20</title>
<g id="a_node20"><a xlink:href="../../dd/ddc/classview_1_1turtle_1_1_turtle_image.html#a6798d71b6457a6b70b472171e64f11f2" target="_top" xlink:title="view.turtle.TurtleImage.hide">
<polygon fill="white" stroke="black" points="652,-371.5 652,-390.5 798,-390.5 798,-371.5 652,-371.5"/>
<text text-anchor="middle" x="725" y="-378.5" font-family="Helvetica,sans-Serif" font-size="10.00">view.turtle.TurtleImage.hide</text>
</a>
</g>
</g>
<!-- Node3&#45;&gt;Node20 -->
<g id="edge20" class="edge"><title>Node3&#45;&gt;Node20</title>
<path fill="none" stroke="midnightblue" d="M532.217,-447.757C555.148,-433.376 591.669,-412.249 626,-400 633.659,-397.267 641.803,-394.898 649.996,-392.851"/>
<polygon fill="midnightblue" stroke="midnightblue" points="651.047,-396.199 659.985,-390.51 649.451,-389.384 651.047,-396.199"/>
</g>
<!-- Node21 -->
<g id="node21" class="node"><title>Node21</title>
<g id="a_node21"><a xlink:href="../../db/dce/classmodel_1_1_turtle_update.html#a5e88189d0b5f21c9474b5617cb396b13" target="_top" xlink:title="model.TurtleUpdate.isStamp">
<polygon fill="white" stroke="black" points="648.5,-333.5 648.5,-352.5 801.5,-352.5 801.5,-333.5 648.5,-333.5"/>
<text text-anchor="middle" x="725" y="-340.5" font-family="Helvetica,sans-Serif" font-size="10.00">model.TurtleUpdate.isStamp</text>
</a>
</g>
</g>
<!-- Node3&#45;&gt;Node21 -->
<g id="edge21" class="edge"><title>Node3&#45;&gt;Node21</title>
<path fill="none" stroke="midnightblue" d="M521.663,-447.906C541.463,-425.376 582.063,-383.323 626,-362 631.019,-359.564 636.324,-357.441 641.766,-355.59"/>
<polygon fill="midnightblue" stroke="midnightblue" points="643.145,-358.827 651.674,-352.543 641.087,-352.137 643.145,-358.827"/>
</g>
<!-- Node22 -->
<g id="node22" class="node"><title>Node22</title>
<g id="a_node22"><a xlink:href="../../db/dce/classmodel_1_1_turtle_update.html#ab56febaad846cad5592395c3a67a68db" target="_top" xlink:title="model.TurtleUpdate.isTurtle\lClear">
<polygon fill="white" stroke="black" points="652,-284 652,-314 798,-314 798,-284 652,-284"/>
<text text-anchor="start" x="660" y="-302" font-family="Helvetica,sans-Serif" font-size="10.00">model.TurtleUpdate.isTurtle</text>
<text text-anchor="middle" x="725" y="-291" font-family="Helvetica,sans-Serif" font-size="10.00">Clear</text>
</a>
</g>
</g>
<!-- Node3&#45;&gt;Node22 -->
<g id="edge22" class="edge"><title>Node3&#45;&gt;Node22</title>
<path fill="none" stroke="midnightblue" d="M517.401,-447.768C534.121,-418.932 574.436,-356.361 626,-324 631.097,-320.801 636.586,-318.011 642.271,-315.576"/>
<polygon fill="midnightblue" stroke="midnightblue" points="643.93,-318.687 651.987,-311.807 641.398,-312.161 643.93,-318.687"/>
</g>
<!-- Node23 -->
<g id="node23" class="node"><title>Node23</title>
<g id="a_node23"><a xlink:href="../../db/dce/classmodel_1_1_turtle_update.html#a7288583a573d839635a8773a01563300" target="_top" xlink:title="model.TurtleUpdate.isTurtle\lHidden">
<polygon fill="white" stroke="black" points="652,-235 652,-265 798,-265 798,-235 652,-235"/>
<text text-anchor="start" x="660" y="-253" font-family="Helvetica,sans-Serif" font-size="10.00">model.TurtleUpdate.isTurtle</text>
<text text-anchor="middle" x="725" y="-242" font-family="Helvetica,sans-Serif" font-size="10.00">Hidden</text>
</a>
</g>
</g>
<!-- Node3&#45;&gt;Node23 -->
<g id="edge23" class="edge"><title>Node3&#45;&gt;Node23</title>
<path fill="none" stroke="midnightblue" d="M513.819,-447.973C526.188,-411.91 562.623,-320.048 626,-274 631.068,-270.318 636.633,-267.196 642.457,-264.549"/>
<polygon fill="midnightblue" stroke="midnightblue" points="643.833,-267.768 651.788,-260.77 641.206,-261.28 643.833,-267.768"/>
</g>
<!-- Node24 -->
<g id="node24" class="node"><title>Node24</title>
<g id="a_node24"><a xlink:href="../../db/dce/classmodel_1_1_turtle_update.html#a7ebfc78794f604d565e22150004b8325" target="_top" xlink:title="model.TurtleUpdate.isTurtle\lInactive">
<polygon fill="white" stroke="black" points="652,-186 652,-216 798,-216 798,-186 652,-186"/>
<text text-anchor="start" x="660" y="-204" font-family="Helvetica,sans-Serif" font-size="10.00">model.TurtleUpdate.isTurtle</text>
<text text-anchor="middle" x="725" y="-193" font-family="Helvetica,sans-Serif" font-size="10.00">Inactive</text>
</a>
</g>
</g>
<!-- Node3&#45;&gt;Node24 -->
<g id="edge24" class="edge"><title>Node3&#45;&gt;Node24</title>
<path fill="none" stroke="midnightblue" d="M511.799,-447.975C520.477,-405.768 550.996,-285.285 626,-225 630.973,-221.003 636.514,-217.658 642.362,-214.859"/>
<polygon fill="midnightblue" stroke="midnightblue" points="643.909,-218.006 651.765,-210.897 641.191,-211.555 643.909,-218.006"/>
</g>
<!-- Node25 -->
<g id="node25" class="node"><title>Node25</title>
<g id="a_node25"><a xlink:href="../../db/dce/classmodel_1_1_turtle_update.html#a6c2e9c2e4216253c37801998a329455b" target="_top" xlink:title="model.TurtleUpdate.isTurtle\lPenUp">
<polygon fill="white" stroke="black" points="652,-137 652,-167 798,-167 798,-137 652,-137"/>
<text text-anchor="start" x="660" y="-155" font-family="Helvetica,sans-Serif" font-size="10.00">model.TurtleUpdate.isTurtle</text>
<text text-anchor="middle" x="725" y="-144" font-family="Helvetica,sans-Serif" font-size="10.00">PenUp</text>
</a>
</g>
</g>
<!-- Node3&#45;&gt;Node25 -->
<g id="edge25" class="edge"><title>Node3&#45;&gt;Node25</title>
<path fill="none" stroke="midnightblue" d="M510.45,-447.766C515.854,-399.837 539.229,-250.875 626,-176 630.917,-171.757 636.466,-168.239 642.36,-165.326"/>
<polygon fill="midnightblue" stroke="midnightblue" points="644.068,-168.402 651.865,-161.229 641.296,-161.974 644.068,-168.402"/>
</g>
<!-- Node26 -->
<g id="node26" class="node"><title>Node26</title>
<g id="a_node26"><a xlink:href="../../dd/ddc/classview_1_1turtle_1_1_turtle_image.html#aa1a5f2d4c96c64f526f4df58fd5e77d6" target="_top" xlink:title="view.turtle.TurtleImage.leave\lStamp">
<polygon fill="white" stroke="black" points="649,-88 649,-118 801,-118 801,-88 649,-88"/>
<text text-anchor="start" x="657" y="-106" font-family="Helvetica,sans-Serif" font-size="10.00">view.turtle.TurtleImage.leave</text>
<text text-anchor="middle" x="725" y="-95" font-family="Helvetica,sans-Serif" font-size="10.00">Stamp</text>
</a>
</g>
</g>
<!-- Node3&#45;&gt;Node26 -->
<g id="edge26" class="edge"><title>Node3&#45;&gt;Node26</title>
<path fill="none" stroke="midnightblue" d="M509.43,-447.896C511.788,-395.076 527.06,-216.969 626,-127 630.131,-123.244 634.752,-120.051 639.678,-117.339"/>
<polygon fill="midnightblue" stroke="midnightblue" points="641.323,-120.432 648.834,-112.96 638.302,-114.117 641.323,-120.432"/>
</g>
<!-- Node27 -->
<g id="node27" class="node"><title>Node27</title>
<g id="a_node27"><a xlink:href="../../dd/ddc/classview_1_1turtle_1_1_turtle_image.html#a86b462f57b86f6c0a72357fdc2655aa1" target="_top" xlink:title="view.turtle.TurtleImage.math\lCoordsToCanvasCoords">
<polygon fill="white" stroke="black" points="649,-39 649,-69 801,-69 801,-39 649,-39"/>
<text text-anchor="start" x="657" y="-57" font-family="Helvetica,sans-Serif" font-size="10.00">view.turtle.TurtleImage.math</text>
<text text-anchor="middle" x="725" y="-46" font-family="Helvetica,sans-Serif" font-size="10.00">CoordsToCanvasCoords</text>
</a>
</g>
</g>
<!-- Node3&#45;&gt;Node27 -->
<g id="edge27" class="edge"><title>Node3&#45;&gt;Node27</title>
<path fill="none" stroke="midnightblue" d="M508.663,-447.789C508.26,-390.155 514.893,-183.173 626,-78 630.055,-74.1617 634.619,-70.9071 639.504,-68.1504"/>
<polygon fill="midnightblue" stroke="midnightblue" points="641.15,-71.2414 648.6,-63.7076 638.078,-64.9516 641.15,-71.2414"/>
</g>
<!-- Node28 -->
<g id="node28" class="node"><title>Node28</title>
<g id="a_node28"><a xlink:href="../../d4/d93/classview_1_1turtle_1_1_turtle_pen.html#ae7dfe008f68eef44da5ee831b062952a" target="_top" xlink:title="view.turtle.TurtlePen.updatePen">
<polygon fill="white" stroke="black" points="642,-0.5 642,-19.5 808,-19.5 808,-0.5 642,-0.5"/>
<text text-anchor="middle" x="725" y="-7.5" font-family="Helvetica,sans-Serif" font-size="10.00">view.turtle.TurtlePen.updatePen</text>
</a>
</g>
</g>
<!-- Node3&#45;&gt;Node28 -->
<g id="edge29" class="edge"><title>Node3&#45;&gt;Node28</title>
<path fill="none" stroke="midnightblue" d="M510.966,-447.615C520.241,-377.452 561.876,-88.6764 626,-29 628.2,-26.9523 630.552,-25.0948 633.025,-23.4112"/>
<polygon fill="midnightblue" stroke="midnightblue" points="634.932,-26.3525 641.855,-18.3331 631.442,-20.2844 634.932,-26.3525"/>
</g>
<!-- Node4&#45;&gt;Node2 -->
<g id="edge6" class="edge"><title>Node4&#45;&gt;Node2</title>
<path fill="none" stroke="midnightblue" d="M648.11,-857.46C640.384,-854.984 632.864,-851.882 626,-848 482.55,-766.88 370.46,-594.175 332.726,-530.886"/>
<polygon fill="midnightblue" stroke="midnightblue" points="335.601,-528.87 327.509,-522.031 329.57,-532.423 335.601,-528.87"/>
</g>
<!-- Node5 -->
<g id="node5" class="node"><title>Node5</title>
<g id="a_node5"><a xlink:href="../../dd/ddc/classview_1_1turtle_1_1_turtle_image.html#afad70374651ad6165f7d48b7bf268d71" target="_top" xlink:title="view.turtle.TurtleImage.create\lRotateTransition">
<polygon fill="white" stroke="black" points="860.5,-901 860.5,-931 1017.5,-931 1017.5,-901 860.5,-901"/>
<text text-anchor="start" x="868.5" y="-919" font-family="Helvetica,sans-Serif" font-size="10.00">view.turtle.TurtleImage.create</text>
<text text-anchor="middle" x="939" y="-908" font-family="Helvetica,sans-Serif" font-size="10.00">RotateTransition</text>
</a>
</g>
</g>
<!-- Node4&#45;&gt;Node5 -->
<g id="edge4" class="edge"><title>Node4&#45;&gt;Node5</title>
<path fill="none" stroke="midnightblue" d="M767.127,-876.506C794.299,-882.786 830.711,-891.202 862.941,-898.651"/>
<polygon fill="midnightblue" stroke="midnightblue" points="862.262,-902.087 872.794,-900.929 863.839,-895.267 862.262,-902.087"/>
</g>
<!-- Node6 -->
<g id="node6" class="node"><title>Node6</title>
<g id="a_node6"><a xlink:href="../../dd/ddc/classview_1_1turtle_1_1_turtle_image.html#a579bab57c4e802a8a119ba0253b58ed9" target="_top" xlink:title="view.turtle.TurtleImage.create\lTranslateTransition">
<polygon fill="white" stroke="black" points="860.5,-852 860.5,-882 1017.5,-882 1017.5,-852 860.5,-852"/>
<text text-anchor="start" x="868.5" y="-870" font-family="Helvetica,sans-Serif" font-size="10.00">view.turtle.TurtleImage.create</text>
<text text-anchor="middle" x="939" y="-859" font-family="Helvetica,sans-Serif" font-size="10.00">TranslateTransition</text>
</a>
</g>
</g>
<!-- Node4&#45;&gt;Node6 -->
<g id="edge5" class="edge"><title>Node4&#45;&gt;Node6</title>
<path fill="none" stroke="midnightblue" d="M823.623,-867C832.449,-867 841.353,-867 850.088,-867"/>
<polygon fill="midnightblue" stroke="midnightblue" points="850.251,-870.5 860.25,-867 850.25,-863.5 850.251,-870.5"/>
</g>
<!-- Node8 -->
<g id="node8" class="node"><title>Node8</title>
<g id="a_node8"><a xlink:href="../../d4/d93/classview_1_1turtle_1_1_turtle_pen.html#a3eea64b5d17767f655096870f4a5850d" target="_top" xlink:title="view.turtle.TurtlePen.draw\lGappedLine">
<polygon fill="white" stroke="black" points="870.5,-803 870.5,-833 1007.5,-833 1007.5,-803 870.5,-803"/>
<text text-anchor="start" x="878.5" y="-821" font-family="Helvetica,sans-Serif" font-size="10.00">view.turtle.TurtlePen.draw</text>
<text text-anchor="middle" x="939" y="-810" font-family="Helvetica,sans-Serif" font-size="10.00">GappedLine</text>
</a>
</g>
</g>
<!-- Node7&#45;&gt;Node8 -->
<g id="edge8" class="edge"><title>Node7&#45;&gt;Node8</title>
<path fill="none" stroke="midnightblue" d="M803.137,-824.998C821.717,-824.034 841.577,-823.003 860.188,-822.037"/>
<polygon fill="midnightblue" stroke="midnightblue" points="860.577,-825.522 870.382,-821.508 860.214,-818.531 860.577,-825.522"/>
</g>
<!-- Node9 -->
<g id="node9" class="node"><title>Node9</title>
<g id="a_node9"><a xlink:href="../../d4/d93/classview_1_1turtle_1_1_turtle_pen.html#a78a412ae5c294fd37981146020ea4009" target="_top" xlink:title="view.turtle.TurtlePen.generate\lDashVectorArray">
<polygon fill="white" stroke="black" points="1054,-803 1054,-833 1212,-833 1212,-803 1054,-803"/>
<text text-anchor="start" x="1062" y="-821" font-family="Helvetica,sans-Serif" font-size="10.00">view.turtle.TurtlePen.generate</text>
<text text-anchor="middle" x="1133" y="-810" font-family="Helvetica,sans-Serif" font-size="10.00">DashVectorArray</text>
</a>
</g>
</g>
<!-- Node8&#45;&gt;Node9 -->
<g id="edge9" class="edge"><title>Node8&#45;&gt;Node9</title>
<path fill="none" stroke="midnightblue" d="M1007.69,-818C1019.33,-818 1031.58,-818 1043.67,-818"/>
<polygon fill="midnightblue" stroke="midnightblue" points="1043.77,-821.5 1053.77,-818 1043.77,-814.5 1043.77,-821.5"/>
</g>
<!-- Node10 -->
<g id="node10" class="node"><title>Node10</title>
<g id="a_node10"><a xlink:href="../../d4/d93/classview_1_1turtle_1_1_turtle_pen.html#a1553953625d014db95e9af6faa83e667" target="_top" xlink:title="view.turtle.TurtlePen.get\lUnitVector">
<polygon fill="white" stroke="black" points="1248,-803 1248,-833 1378,-833 1378,-803 1248,-803"/>
<text text-anchor="start" x="1256" y="-821" font-family="Helvetica,sans-Serif" font-size="10.00">view.turtle.TurtlePen.get</text>
<text text-anchor="middle" x="1313" y="-810" font-family="Helvetica,sans-Serif" font-size="10.00">UnitVector</text>
</a>
</g>
</g>
<!-- Node9&#45;&gt;Node10 -->
<g id="edge10" class="edge"><title>Node9&#45;&gt;Node10</title>
<path fill="none" stroke="midnightblue" d="M1212.07,-818C1220.57,-818 1229.21,-818 1237.66,-818"/>
<polygon fill="midnightblue" stroke="midnightblue" points="1237.86,-821.5 1247.86,-818 1237.86,-814.5 1237.86,-821.5"/>
</g>
</g>
</svg>
