<?xml version="1.0" encoding="UTF-8" standalone="no"?>
<!DOCTYPE svg PUBLIC "-//W3C//DTD SVG 1.1//EN"
 "http://www.w3.org/Graphics/SVG/1.1/DTD/svg11.dtd">
<!-- Generated by graphviz version 2.36.0 (20140111.2315)
 -->
<!-- Title: view.turtle.TurtleImage.setLineStyleMenu Pages: 1 -->
<svg width="316pt" height="185pt"
 viewBox="0.00 0.00 316.00 185.00" xmlns="http://www.w3.org/2000/svg" xmlns:xlink="http://www.w3.org/1999/xlink">
<g id="graph0" class="graph" transform="scale(1 1) rotate(0) translate(4 181)">
<title>view.turtle.TurtleImage.setLineStyleMenu</title>
<polygon fill="white" stroke="none" points="-4,4 -4,-181 312,-181 312,4 -4,4"/>
<!-- Node1 -->
<g id="node1" class="node"><title>Node1</title>
<polygon fill="#bfbfbf" stroke="black" points="0.5,-73 0.5,-103 141.5,-103 141.5,-73 0.5,-73"/>
<text text-anchor="start" x="8.5" y="-91" font-family="Helvetica,sans-Serif" font-size="10.00">view.turtle.TurtleImage.set</text>
<text text-anchor="middle" x="71" y="-80" font-family="Helvetica,sans-Serif" font-size="10.00">LineStyleMenu</text>
</g>
<!-- Node2 -->
<g id="node2" class="node"><title>Node2</title>
<g id="a_node2"><a xlink:href="../../d4/d93/classview_1_1turtle_1_1_turtle_pen.html#a3fdf6ec7e6ebd59e5e0ef1ef501d0a6c" target="_top" xlink:title="view.turtle.TurtlePen.set\lDashDot">
<polygon fill="white" stroke="black" points="178.5,-147 178.5,-177 307.5,-177 307.5,-147 178.5,-147"/>
<text text-anchor="start" x="186.5" y="-165" font-family="Helvetica,sans-Serif" font-size="10.00">view.turtle.TurtlePen.set</text>
<text text-anchor="middle" x="243" y="-154" font-family="Helvetica,sans-Serif" font-size="10.00">DashDot</text>
</a>
</g>
</g>
<!-- Node1&#45;&gt;Node2 -->
<g id="edge1" class="edge"><title>Node1&#45;&gt;Node2</title>
<path fill="none" stroke="midnightblue" d="M103.316,-103.083C124.303,-113.04 152.633,-126.194 178,-137 182.748,-139.023 187.719,-141.076 192.703,-143.091"/>
<polygon fill="midnightblue" stroke="midnightblue" points="191.661,-146.444 202.245,-146.902 194.257,-139.943 191.661,-146.444"/>
</g>
<!-- Node3 -->
<g id="node3" class="node"><title>Node3</title>
<g id="a_node3"><a xlink:href="../../d4/d93/classview_1_1turtle_1_1_turtle_pen.html#acc40539aea0be30a2f367149d938817b" target="_top" xlink:title="view.turtle.TurtlePen.set\lDashed">
<polygon fill="white" stroke="black" points="178.5,-98 178.5,-128 307.5,-128 307.5,-98 178.5,-98"/>
<text text-anchor="start" x="186.5" y="-116" font-family="Helvetica,sans-Serif" font-size="10.00">view.turtle.TurtlePen.set</text>
<text text-anchor="middle" x="243" y="-105" font-family="Helvetica,sans-Serif" font-size="10.00">Dashed</text>
</a>
</g>
</g>
<!-- Node1&#45;&gt;Node3 -->
<g id="edge2" class="edge"><title>Node1&#45;&gt;Node3</title>
<path fill="none" stroke="midnightblue" d="M141.636,-98.2406C150.497,-99.5436 159.588,-100.881 168.507,-102.192"/>
<polygon fill="midnightblue" stroke="midnightblue" points="168.079,-105.667 178.482,-103.659 169.098,-98.7413 168.079,-105.667"/>
</g>
<!-- Node4 -->
<g id="node4" class="node"><title>Node4</title>
<g id="a_node4"><a xlink:href="../../d4/d93/classview_1_1turtle_1_1_turtle_pen.html#a7f86c7b312b141e82c695363ce59acce" target="_top" xlink:title="view.turtle.TurtlePen.set\lDotted">
<polygon fill="white" stroke="black" points="178.5,-49 178.5,-79 307.5,-79 307.5,-49 178.5,-49"/>
<text text-anchor="start" x="186.5" y="-67" font-family="Helvetica,sans-Serif" font-size="10.00">view.turtle.TurtlePen.set</text>
<text text-anchor="middle" x="243" y="-56" font-family="Helvetica,sans-Serif" font-size="10.00">Dotted</text>
</a>
</g>
</g>
<!-- Node1&#45;&gt;Node4 -->
<g id="edge3" class="edge"><title>Node1&#45;&gt;Node4</title>
<path fill="none" stroke="midnightblue" d="M141.636,-78.169C150.497,-76.9181 159.588,-75.6346 168.507,-74.3755"/>
<polygon fill="midnightblue" stroke="midnightblue" points="169.07,-77.8309 178.482,-72.9672 168.091,-70.8996 169.07,-77.8309"/>
</g>
<!-- Node5 -->
<g id="node5" class="node"><title>Node5</title>
<g id="a_node5"><a xlink:href="../../d4/d93/classview_1_1turtle_1_1_turtle_pen.html#a242aa76ca677c1f6fc0737bf8b7e8efa" target="_top" xlink:title="view.turtle.TurtlePen.set\lSolid">
<polygon fill="white" stroke="black" points="178.5,-0 178.5,-30 307.5,-30 307.5,-0 178.5,-0"/>
<text text-anchor="start" x="186.5" y="-18" font-family="Helvetica,sans-Serif" font-size="10.00">view.turtle.TurtlePen.set</text>
<text text-anchor="middle" x="243" y="-7" font-family="Helvetica,sans-Serif" font-size="10.00">Solid</text>
</a>
</g>
</g>
<!-- Node1&#45;&gt;Node5 -->
<g id="edge4" class="edge"><title>Node1&#45;&gt;Node5</title>
<path fill="none" stroke="midnightblue" d="M104.28,-72.8483C125.181,-63.1704 153.054,-50.5118 178,-40 182.823,-37.9677 187.873,-35.8976 192.93,-33.8625"/>
<polygon fill="midnightblue" stroke="midnightblue" points="194.609,-36.9611 202.606,-30.011 192.021,-30.4573 194.609,-36.9611"/>
</g>
</g>
</svg>
