<?xml version="1.0" encoding="UTF-8" standalone="no"?>
<!DOCTYPE svg PUBLIC "-//W3C//DTD SVG 1.1//EN"
 "http://www.w3.org/Graphics/SVG/1.1/DTD/svg11.dtd">
<!-- Generated by graphviz version 2.36.0 (20140111.2315)
 -->
<!-- Title: view.turtle.TurtleImage.leaveStamp Pages: 1 -->
<svg width="1558pt" height="164pt"
 viewBox="0.00 0.00 1558.00 164.00" xmlns="http://www.w3.org/2000/svg" xmlns:xlink="http://www.w3.org/1999/xlink">
<g id="graph0" class="graph" transform="scale(1 1) rotate(0) translate(4 160)">
<title>view.turtle.TurtleImage.leaveStamp</title>
<polygon fill="white" stroke="none" points="-4,4 -4,-160 1554,-160 1554,4 -4,4"/>
<!-- Node1 -->
<g id="node1" class="node"><title>Node1</title>
<polygon fill="#bfbfbf" stroke="black" points="0,-33 0,-63 152,-63 152,-33 0,-33"/>
<text text-anchor="start" x="8" y="-51" font-family="Helvetica,sans-Serif" font-size="10.00">view.turtle.TurtleImage.leave</text>
<text text-anchor="middle" x="76" y="-40" font-family="Helvetica,sans-Serif" font-size="10.00">Stamp</text>
</g>
<!-- Node2 -->
<g id="node2" class="node"><title>Node2</title>
<g id="a_node2"><a xlink:href="../../dd/ddc/classview_1_1turtle_1_1_turtle_image.html#afd9abc603b052b7c9c14108400109917" target="_top" xlink:title="view.turtle.TurtleImage.process\lUpdate">
<polygon fill="white" stroke="black" points="188,-33 188,-63 352,-63 352,-33 188,-33"/>
<text text-anchor="start" x="196" y="-51" font-family="Helvetica,sans-Serif" font-size="10.00">view.turtle.TurtleImage.process</text>
<text text-anchor="middle" x="270" y="-40" font-family="Helvetica,sans-Serif" font-size="10.00">Update</text>
</a>
</g>
</g>
<!-- Node1&#45;&gt;Node2 -->
<g id="edge1" class="edge"><title>Node1&#45;&gt;Node2</title>
<path fill="none" stroke="midnightblue" d="M162.084,-48C170.687,-48 179.408,-48 187.966,-48"/>
<polygon fill="midnightblue" stroke="midnightblue" points="162.057,-44.5001 152.057,-48 162.057,-51.5001 162.057,-44.5001"/>
</g>
<!-- Node3 -->
<g id="node3" class="node"><title>Node3</title>
<g id="a_node3"><a xlink:href="../../dd/ddc/classview_1_1turtle_1_1_turtle_image.html#a68a832da6825e57061dbc49b30098291" target="_top" xlink:title="view.turtle.TurtleImage.pop\lUpdate">
<polygon fill="white" stroke="black" points="388,-77 388,-107 532,-107 532,-77 388,-77"/>
<text text-anchor="start" x="396" y="-95" font-family="Helvetica,sans-Serif" font-size="10.00">view.turtle.TurtleImage.pop</text>
<text text-anchor="middle" x="460" y="-84" font-family="Helvetica,sans-Serif" font-size="10.00">Update</text>
</a>
</g>
</g>
<!-- Node2&#45;&gt;Node3 -->
<g id="edge2" class="edge"><title>Node2&#45;&gt;Node3</title>
<path fill="none" stroke="midnightblue" d="M345.247,-65.3769C361.63,-69.2112 378.851,-73.2418 394.797,-76.9738"/>
<polygon fill="midnightblue" stroke="midnightblue" points="345.708,-61.8902 335.173,-63.0192 344.112,-68.7061 345.708,-61.8902"/>
</g>
<!-- Node4 -->
<g id="node4" class="node"><title>Node4</title>
<g id="a_node4"><a xlink:href="../../d5/d4b/classview_1_1components_1_1_turtle_window.html#a84744ff6c257318689fc0e014350fb05" target="_top" xlink:title="view.components.TurtleWindow.step\lDebug">
<polygon fill="white" stroke="black" points="580,-126 580,-156 766,-156 766,-126 580,-126"/>
<text text-anchor="start" x="588" y="-144" font-family="Helvetica,sans-Serif" font-size="10.00">view.components.TurtleWindow.step</text>
<text text-anchor="middle" x="673" y="-133" font-family="Helvetica,sans-Serif" font-size="10.00">Debug</text>
</a>
</g>
</g>
<!-- Node3&#45;&gt;Node4 -->
<g id="edge3" class="edge"><title>Node3&#45;&gt;Node4</title>
<path fill="none" stroke="midnightblue" d="M535.629,-109.331C559.055,-114.771 584.709,-120.729 607.382,-125.994"/>
<polygon fill="midnightblue" stroke="midnightblue" points="536.273,-105.887 525.741,-107.035 534.69,-112.706 536.273,-105.887"/>
</g>
<!-- Node9 -->
<g id="node9" class="node"><title>Node9</title>
<g id="a_node9"><a xlink:href="../../dd/ddc/classview_1_1turtle_1_1_turtle_image.html#a02651da4da9b4b48bd91656f734ccb03" target="_top" xlink:title="view.turtle.TurtleImage.add\lUpdate">
<polygon fill="white" stroke="black" points="601,-77 601,-107 745,-107 745,-77 601,-77"/>
<text text-anchor="start" x="609" y="-95" font-family="Helvetica,sans-Serif" font-size="10.00">view.turtle.TurtleImage.add</text>
<text text-anchor="middle" x="673" y="-84" font-family="Helvetica,sans-Serif" font-size="10.00">Update</text>
</a>
</g>
</g>
<!-- Node3&#45;&gt;Node9 -->
<g id="edge8" class="edge"><title>Node3&#45;&gt;Node9</title>
<path fill="none" stroke="midnightblue" d="M542.398,-92C561.656,-92 582.045,-92 600.809,-92"/>
<polygon fill="midnightblue" stroke="midnightblue" points="542.141,-88.5001 532.141,-92 542.141,-95.5001 542.141,-88.5001"/>
</g>
<!-- Node10 -->
<g id="node10" class="node"><title>Node10</title>
<g id="a_node10"><a xlink:href="../../dd/ddc/classview_1_1turtle_1_1_turtle_image.html#a958417ed4561c0b910f80944a5110ec7" target="_top" xlink:title="view.turtle.TurtleImage.animatedMove">
<polygon fill="white" stroke="black" points="574.5,-38.5 574.5,-57.5 771.5,-57.5 771.5,-38.5 574.5,-38.5"/>
<text text-anchor="middle" x="673" y="-45.5" font-family="Helvetica,sans-Serif" font-size="10.00">view.turtle.TurtleImage.animatedMove</text>
</a>
</g>
</g>
<!-- Node3&#45;&gt;Node10 -->
<g id="edge9" class="edge"><title>Node3&#45;&gt;Node10</title>
<path fill="none" stroke="midnightblue" d="M532.875,-74.6993C544.593,-72.0248 556.619,-69.3677 568,-67 583.903,-63.6915 601.24,-60.3998 617.118,-57.5088"/>
<polygon fill="midnightblue" stroke="midnightblue" points="532.084,-71.2896 523.124,-76.944 533.655,-78.1112 532.084,-71.2896"/>
</g>
<!-- Node11 -->
<g id="node11" class="node"><title>Node11</title>
<g id="a_node11"><a xlink:href="../../dd/ddc/classview_1_1turtle_1_1_turtle_image.html#aca0a62f113534161f725da472e1f4d9f" target="_top" xlink:title="view.turtle.TurtleImage.unanimatedMove">
<polygon fill="white" stroke="black" points="568.5,-0.5 568.5,-19.5 777.5,-19.5 777.5,-0.5 568.5,-0.5"/>
<text text-anchor="middle" x="673" y="-7.5" font-family="Helvetica,sans-Serif" font-size="10.00">view.turtle.TurtleImage.unanimatedMove</text>
</a>
</g>
</g>
<!-- Node3&#45;&gt;Node11 -->
<g id="edge11" class="edge"><title>Node3&#45;&gt;Node11</title>
<path fill="none" stroke="midnightblue" d="M489.968,-71.1398C510.734,-57.1618 539.893,-39.4645 568,-29 578.407,-25.1255 589.703,-22.0211 600.887,-19.5393"/>
<polygon fill="midnightblue" stroke="midnightblue" points="487.878,-68.3291 481.609,-76.8707 491.836,-74.1025 487.878,-68.3291"/>
</g>
<!-- Node5 -->
<g id="node5" class="node"><title>Node5</title>
<g id="a_node5"><a xlink:href="../../de/d30/classview_1_1components_1_1_s_logo_workspace.html#ad2141a5cca8101b3d22b2cf7b7473281" target="_top" xlink:title="view.components.SLogoWorkspace.run\lDebugger">
<polygon fill="white" stroke="black" points="814,-126 814,-156 1016,-156 1016,-126 814,-126"/>
<text text-anchor="start" x="822" y="-144" font-family="Helvetica,sans-Serif" font-size="10.00">view.components.SLogoWorkspace.run</text>
<text text-anchor="middle" x="915" y="-133" font-family="Helvetica,sans-Serif" font-size="10.00">Debugger</text>
</a>
</g>
</g>
<!-- Node4&#45;&gt;Node5 -->
<g id="edge4" class="edge"><title>Node4&#45;&gt;Node5</title>
<path fill="none" stroke="midnightblue" d="M776.424,-141C788.795,-141 801.421,-141 813.761,-141"/>
<polygon fill="midnightblue" stroke="midnightblue" points="776.104,-137.5 766.104,-141 776.104,-144.5 776.104,-137.5"/>
</g>
<!-- Node6 -->
<g id="node6" class="node"><title>Node6</title>
<g id="a_node6"><a xlink:href="../../d3/dbe/classview_1_1_view.html#af4860035310eeafc92cf78cbbc53290a" target="_top" xlink:title="view.View.runDebugger">
<polygon fill="white" stroke="black" points="1052,-131.5 1052,-150.5 1178,-150.5 1178,-131.5 1052,-131.5"/>
<text text-anchor="middle" x="1115" y="-138.5" font-family="Helvetica,sans-Serif" font-size="10.00">view.View.runDebugger</text>
</a>
</g>
</g>
<!-- Node5&#45;&gt;Node6 -->
<g id="edge5" class="edge"><title>Node5&#45;&gt;Node6</title>
<path fill="none" stroke="midnightblue" d="M1026.42,-141C1035.12,-141 1043.71,-141 1051.9,-141"/>
<polygon fill="midnightblue" stroke="midnightblue" points="1026.16,-137.5 1016.16,-141 1026.16,-144.5 1026.16,-137.5"/>
</g>
<!-- Node7 -->
<g id="node7" class="node"><title>Node7</title>
<g id="a_node7"><a xlink:href="../../d4/d6b/classview_1_1components_1_1_debugger_port.html#a6dd594b7c6572e0f4ef2ab7d8845f2ce" target="_top" xlink:title="view.components.Debugger\lPort.stepDebug">
<polygon fill="white" stroke="black" points="1214.5,-126 1214.5,-156 1363.5,-156 1363.5,-126 1214.5,-126"/>
<text text-anchor="start" x="1222.5" y="-144" font-family="Helvetica,sans-Serif" font-size="10.00">view.components.Debugger</text>
<text text-anchor="middle" x="1289" y="-133" font-family="Helvetica,sans-Serif" font-size="10.00">Port.stepDebug</text>
</a>
</g>
</g>
<!-- Node6&#45;&gt;Node7 -->
<g id="edge6" class="edge"><title>Node6&#45;&gt;Node7</title>
<path fill="none" stroke="midnightblue" d="M1188.13,-141C1196.78,-141 1205.61,-141 1214.28,-141"/>
<polygon fill="midnightblue" stroke="midnightblue" points="1188.1,-137.5 1178.1,-141 1188.1,-144.5 1188.1,-137.5"/>
</g>
<!-- Node8 -->
<g id="node8" class="node"><title>Node8</title>
<g id="a_node8"><a xlink:href="../../d4/d6b/classview_1_1components_1_1_debugger_port.html#a7055f8fe86c7e1078dc9909a7f000b8b" target="_top" xlink:title="view.components.Debugger\lPort.DebuggerPort">
<polygon fill="white" stroke="black" points="1400.5,-126 1400.5,-156 1549.5,-156 1549.5,-126 1400.5,-126"/>
<text text-anchor="start" x="1408.5" y="-144" font-family="Helvetica,sans-Serif" font-size="10.00">view.components.Debugger</text>
<text text-anchor="middle" x="1475" y="-133" font-family="Helvetica,sans-Serif" font-size="10.00">Port.DebuggerPort</text>
</a>
</g>
</g>
<!-- Node7&#45;&gt;Node8 -->
<g id="edge7" class="edge"><title>Node7&#45;&gt;Node8</title>
<path fill="none" stroke="midnightblue" d="M1373.53,-141C1382.46,-141 1391.5,-141 1400.3,-141"/>
<polygon fill="midnightblue" stroke="midnightblue" points="1373.51,-137.5 1363.51,-141 1373.51,-144.5 1373.51,-137.5"/>
</g>
<!-- Node10&#45;&gt;Node2 -->
<g id="edge10" class="edge"><title>Node10&#45;&gt;Node2</title>
<path fill="none" stroke="midnightblue" d="M564.203,-48C497.485,-48 413.208,-48 352.148,-48"/>
<polygon fill="midnightblue" stroke="midnightblue" points="564.333,-51.5001 574.333,-48 564.333,-44.5001 564.333,-51.5001"/>
</g>
<!-- Node11&#45;&gt;Node2 -->
<g id="edge12" class="edge"><title>Node11&#45;&gt;Node2</title>
<path fill="none" stroke="midnightblue" d="M561.338,-20.4867C495.086,-26.7649 412.337,-34.6065 352.148,-40.3101"/>
<polygon fill="midnightblue" stroke="midnightblue" points="561.78,-23.9606 571.405,-19.5327 561.12,-16.9918 561.78,-23.9606"/>
</g>
</g>
</svg>
