<?xml version="1.0" encoding="UTF-8" standalone="no"?>
<!DOCTYPE svg PUBLIC "-//W3C//DTD SVG 1.1//EN"
 "http://www.w3.org/Graphics/SVG/1.1/DTD/svg11.dtd">
<!-- Generated by graphviz version 2.36.0 (20140111.2315)
 -->
<!-- Title: view.turtle.TurtleImage.addUpdate Pages: 1 -->
<!--zoomable 954 -->
<svg id="main" version="1.1" xmlns="http://www.w3.org/2000/svg" xmlns:xlink="http://www.w3.org/1999/xlink" xml:space="preserve" onload="init(evt)">
<style type="text/css"><![CDATA[
.edge:hover path { stroke: red; }
.edge:hover polygon { stroke: red; fill: red; }
]]></style>
<script type="text/javascript"><![CDATA[
var edges = document.getElementsByTagName('g');
if (edges && edges.length) {
  for (var i=0;i<edges.length;i++) {
    if (edges[i].id.substr(0,4)=='edge') {
      edges[i].setAttribute('class','edge');
    }
  }
}
]]></script>
        <defs>
                <circle id="rim" cx="0" cy="0" r="7"/>
                <circle id="rim2" cx="0" cy="0" r="3.5"/>
                <g id="zoomPlus">
                        <use xlink:href="#rim" fill="#404040">
                                <set attributeName="fill" to="#808080" begin="zoomplus.mouseover" end="zoomplus.mouseout"/>
                        </use>
                        <path d="M-4,0h8M0,-4v8" fill="none" stroke="white" stroke-width="1.5" pointer-events="none"/>
                </g>
                <g id="zoomMin">
                        <use xlink:href="#rim" fill="#404040">
                                <set attributeName="fill" to="#808080" begin="zoomminus.mouseover" end="zoomminus.mouseout"/>
                        </use>
                        <path d="M-4,0h8" fill="none" stroke="white" stroke-width="1.5" pointer-events="none"/>
                </g>
                <g id="dirArrow">
                        <path fill="none" stroke="white" stroke-width="1.5" d="M0,-3.0v7 M-2.5,-0.5L0,-3.0L2.5,-0.5"/>
                </g>
               <g id="resetDef">
                       <use xlink:href="#rim2" fill="#404040">
                               <set attributeName="fill" to="#808080" begin="reset.mouseover" end="reset.mouseout"/>
                       </use>
               </g>
        </defs>

<script type="text/javascript">
var viewWidth = 1332;
var viewHeight = 954;
var sectionId = 'dynsection-3';
</script>
<script xlink:href="../../svgpan.js"/>
<svg id="graph" class="graph">
<g id="viewport">
<title>view.turtle.TurtleImage.addUpdate</title>
<polygon fill="white" stroke="none" points="-4,4 -4,-950 1328,-950 1328,4 -4,4"/>
<!-- Node1 -->
<g id="node1" class="node"><title>Node1</title>
<polygon fill="#bfbfbf" stroke="black" points="0,-62 0,-92 144,-92 144,-62 0,-62"/>
<text text-anchor="start" x="8" y="-80" font-family="Helvetica,sans-Serif" font-size="10.00">view.turtle.TurtleImage.add</text>
<text text-anchor="middle" x="72" y="-69" font-family="Helvetica,sans-Serif" font-size="10.00">Update</text>
</g>
<!-- Node2 -->
<g id="node2" class="node"><title>Node2</title>
<g id="a_node2"><a xlink:href="../../dd/ddc/classview_1_1turtle_1_1_turtle_image.html#a68a832da6825e57061dbc49b30098291" target="_top" xlink:title="view.turtle.TurtleImage.pop\lUpdate">
<polygon fill="white" stroke="black" points="180,-62 180,-92 324,-92 324,-62 180,-62"/>
<text text-anchor="start" x="188" y="-80" font-family="Helvetica,sans-Serif" font-size="10.00">view.turtle.TurtleImage.pop</text>
<text text-anchor="middle" x="252" y="-69" font-family="Helvetica,sans-Serif" font-size="10.00">Update</text>
</a>
</g>
</g>
<!-- Node1&#45;&gt;Node2 -->
<g id="edge1" class="edge"><title>Node1&#45;&gt;Node2</title>
<path fill="none" stroke="midnightblue" d="M144.118,-77C152.609,-77 161.327,-77 169.944,-77"/>
<polygon fill="midnightblue" stroke="midnightblue" points="169.995,-80.5001 179.995,-77 169.995,-73.5001 169.995,-80.5001"/>
</g>
<!-- Node3 -->
<g id="node3" class="node"><title>Node3</title>
<g id="a_node3"><a xlink:href="../../dd/ddc/classview_1_1turtle_1_1_turtle_image.html#afd9abc603b052b7c9c14108400109917" target="_top" xlink:title="view.turtle.TurtleImage.process\lUpdate">
<polygon fill="white" stroke="black" points="360,-450 360,-480 524,-480 524,-450 360,-450"/>
<text text-anchor="start" x="368" y="-468" font-family="Helvetica,sans-Serif" font-size="10.00">view.turtle.TurtleImage.process</text>
<text text-anchor="middle" x="442" y="-457" font-family="Helvetica,sans-Serif" font-size="10.00">Update</text>
</a>
</g>
</g>
<!-- Node2&#45;&gt;Node3 -->
<g id="edge2" class="edge"><title>Node2&#45;&gt;Node3</title>
<path fill="none" stroke="midnightblue" d="M260.37,-92.2101C289.093,-151.49 393.693,-367.367 429.152,-440.547"/>
<polygon fill="midnightblue" stroke="midnightblue" points="426.171,-442.422 433.681,-449.895 432.47,-439.37 426.171,-442.422"/>
</g>
<!-- Node4 -->
<g id="node4" class="node"><title>Node4</title>
<g id="a_node4"><a xlink:href="../../db/dce/classmodel_1_1_turtle_update.html#a7ebfc78794f604d565e22150004b8325" target="_top" xlink:title="model.TurtleUpdate.isTurtle\lInactive">
<polygon fill="white" stroke="black" points="592,-652 592,-682 738,-682 738,-652 592,-652"/>
<text text-anchor="start" x="600" y="-670" font-family="Helvetica,sans-Serif" font-size="10.00">model.TurtleUpdate.isTurtle</text>
<text text-anchor="middle" x="665" y="-659" font-family="Helvetica,sans-Serif" font-size="10.00">Inactive</text>
</a>
</g>
</g>
<!-- Node3&#45;&gt;Node4 -->
<g id="edge3" class="edge"><title>Node3&#45;&gt;Node4</title>
<path fill="none" stroke="midnightblue" d="M448.485,-480.115C461.821,-514.625 499.369,-599.505 560,-642 566.831,-646.788 574.467,-650.665 582.416,-653.804"/>
<polygon fill="midnightblue" stroke="midnightblue" points="581.265,-657.11 591.86,-657.16 583.609,-650.514 581.265,-657.11"/>
</g>
<!-- Node5 -->
<g id="node5" class="node"><title>Node5</title>
<g id="a_node5"><a xlink:href="../../db/dce/classmodel_1_1_turtle_update.html#a6c2e9c2e4216253c37801998a329455b" target="_top" xlink:title="model.TurtleUpdate.isTurtle\lPenUp">
<polygon fill="white" stroke="black" points="592,-603 592,-633 738,-633 738,-603 592,-603"/>
<text text-anchor="start" x="600" y="-621" font-family="Helvetica,sans-Serif" font-size="10.00">model.TurtleUpdate.isTurtle</text>
<text text-anchor="middle" x="665" y="-610" font-family="Helvetica,sans-Serif" font-size="10.00">PenUp</text>
</a>
</g>
</g>
<!-- Node3&#45;&gt;Node5 -->
<g id="edge4" class="edge"><title>Node3&#45;&gt;Node5</title>
<path fill="none" stroke="midnightblue" d="M452.496,-480.34C470.149,-507.503 510.734,-563.93 560,-593 566.936,-597.093 574.506,-600.516 582.297,-603.38"/>
<polygon fill="midnightblue" stroke="midnightblue" points="581.288,-606.733 591.882,-606.602 583.519,-600.098 581.288,-606.733"/>
</g>
<!-- Node6 -->
<g id="node6" class="node"><title>Node6</title>
<g id="a_node6"><a xlink:href="../../d5/d46/classview_1_1components_1_1_palette.html#af6c1989fcbc763b66af3fc609fa59ff9" target="_top" xlink:title="view.components.Palette.get\lImage">
<polygon fill="white" stroke="black" points="588,-554 588,-584 742,-584 742,-554 588,-554"/>
<text text-anchor="start" x="596" y="-572" font-family="Helvetica,sans-Serif" font-size="10.00">view.components.Palette.get</text>
<text text-anchor="middle" x="665" y="-561" font-family="Helvetica,sans-Serif" font-size="10.00">Image</text>
</a>
</g>
</g>
<!-- Node3&#45;&gt;Node6 -->
<g id="edge5" class="edge"><title>Node3&#45;&gt;Node6</title>
<path fill="none" stroke="midnightblue" d="M460.831,-480.07C482.786,-497.878 521.869,-527.204 560,-544 565.799,-546.554 571.901,-548.872 578.12,-550.971"/>
<polygon fill="midnightblue" stroke="midnightblue" points="577.375,-554.406 587.965,-554.091 579.489,-547.733 577.375,-554.406"/>
</g>
<!-- Node7 -->
<g id="node7" class="node"><title>Node7</title>
<g id="a_node7"><a xlink:href="../../db/dce/classmodel_1_1_turtle_update.html#a36b8205a61dd875ac4521cf51906c275" target="_top" xlink:title="model.TurtleUpdate.getShapeID">
<polygon fill="white" stroke="black" points="580,-515.5 580,-534.5 750,-534.5 750,-515.5 580,-515.5"/>
<text text-anchor="middle" x="665" y="-522.5" font-family="Helvetica,sans-Serif" font-size="10.00">model.TurtleUpdate.getShapeID</text>
</a>
</g>
</g>
<!-- Node3&#45;&gt;Node7 -->
<g id="edge6" class="edge"><title>Node3&#45;&gt;Node7</title>
<path fill="none" stroke="midnightblue" d="M480.998,-480.012C503.661,-488.537 533.16,-498.892 560,-506 570.528,-508.788 581.763,-511.304 592.811,-513.525"/>
<polygon fill="midnightblue" stroke="midnightblue" points="592.395,-517.01 602.879,-515.481 593.73,-510.138 592.395,-517.01"/>
</g>
<!-- Node8 -->
<g id="node8" class="node"><title>Node8</title>
<g id="a_node8"><a xlink:href="../../db/dce/classmodel_1_1_turtle_update.html#a5e88189d0b5f21c9474b5617cb396b13" target="_top" xlink:title="model.TurtleUpdate.isStamp">
<polygon fill="white" stroke="black" points="588.5,-477.5 588.5,-496.5 741.5,-496.5 741.5,-477.5 588.5,-477.5"/>
<text text-anchor="middle" x="665" y="-484.5" font-family="Helvetica,sans-Serif" font-size="10.00">model.TurtleUpdate.isStamp</text>
</a>
</g>
</g>
<!-- Node3&#45;&gt;Node8 -->
<g id="edge7" class="edge"><title>Node3&#45;&gt;Node8</title>
<path fill="none" stroke="midnightblue" d="M524.037,-473.067C541.647,-474.82 560.333,-476.68 578.122,-478.451"/>
<polygon fill="midnightblue" stroke="midnightblue" points="578.18,-481.974 588.478,-479.482 578.874,-475.009 578.18,-481.974"/>
</g>
<!-- Node9 -->
<g id="node9" class="node"><title>Node9</title>
<g id="a_node9"><a xlink:href="../../dd/ddc/classview_1_1turtle_1_1_turtle_image.html#aa1a5f2d4c96c64f526f4df58fd5e77d6" target="_top" xlink:title="view.turtle.TurtleImage.leave\lStamp">
<polygon fill="white" stroke="black" points="589,-428 589,-458 741,-458 741,-428 589,-428"/>
<text text-anchor="start" x="597" y="-446" font-family="Helvetica,sans-Serif" font-size="10.00">view.turtle.TurtleImage.leave</text>
<text text-anchor="middle" x="665" y="-435" font-family="Helvetica,sans-Serif" font-size="10.00">Stamp</text>
</a>
</g>
</g>
<!-- Node3&#45;&gt;Node9 -->
<g id="edge8" class="edge"><title>Node3&#45;&gt;Node9</title>
<path fill="none" stroke="midnightblue" d="M524.037,-456.933C541.833,-455.161 560.727,-453.281 578.685,-451.493"/>
<polygon fill="midnightblue" stroke="midnightblue" points="579.238,-454.955 588.842,-450.482 578.545,-447.99 579.238,-454.955"/>
</g>
<!-- Node10 -->
<g id="node10" class="node"><title>Node10</title>
<g id="a_node10"><a xlink:href="../../db/dce/classmodel_1_1_turtle_update.html#ab56febaad846cad5592395c3a67a68db" target="_top" xlink:title="model.TurtleUpdate.isTurtle\lClear">
<polygon fill="white" stroke="black" points="592,-379 592,-409 738,-409 738,-379 592,-379"/>
<text text-anchor="start" x="600" y="-397" font-family="Helvetica,sans-Serif" font-size="10.00">model.TurtleUpdate.isTurtle</text>
<text text-anchor="middle" x="665" y="-386" font-family="Helvetica,sans-Serif" font-size="10.00">Clear</text>
</a>
</g>
</g>
<!-- Node3&#45;&gt;Node10 -->
<g id="edge9" class="edge"><title>Node3&#45;&gt;Node10</title>
<path fill="none" stroke="midnightblue" d="M477.615,-449.927C500.668,-440.254 531.793,-427.888 560,-419 568.236,-416.405 576.911,-413.928 585.594,-411.611"/>
<polygon fill="midnightblue" stroke="midnightblue" points="586.581,-414.971 595.378,-409.066 584.819,-408.196 586.581,-414.971"/>
</g>
<!-- Node11 -->
<g id="node11" class="node"><title>Node11</title>
<g id="a_node11"><a xlink:href="../../d4/d93/classview_1_1turtle_1_1_turtle_pen.html#ae7dfe008f68eef44da5ee831b062952a" target="_top" xlink:title="view.turtle.TurtlePen.updatePen">
<polygon fill="white" stroke="black" points="582,-340.5 582,-359.5 748,-359.5 748,-340.5 582,-340.5"/>
<text text-anchor="middle" x="665" y="-347.5" font-family="Helvetica,sans-Serif" font-size="10.00">view.turtle.TurtlePen.updatePen</text>
</a>
</g>
</g>
<!-- Node3&#45;&gt;Node11 -->
<g id="edge10" class="edge"><title>Node3&#45;&gt;Node11</title>
<path fill="none" stroke="midnightblue" d="M456.865,-449.755C477.259,-428.345 517.546,-389.779 560,-370 566.474,-366.984 573.377,-364.423 580.431,-362.248"/>
<polygon fill="midnightblue" stroke="midnightblue" points="581.444,-365.599 590.117,-359.515 579.543,-358.862 581.444,-365.599"/>
</g>
<!-- Node12 -->
<g id="node12" class="node"><title>Node12</title>
<g id="a_node12"><a xlink:href="../../d5/d46/classview_1_1components_1_1_palette.html#acf5106175f97e28619e7ed993b9fce93" target="_top" xlink:title="view.components.Palette.get\lColor">
<polygon fill="white" stroke="black" points="588,-291 588,-321 742,-321 742,-291 588,-291"/>
<text text-anchor="start" x="596" y="-309" font-family="Helvetica,sans-Serif" font-size="10.00">view.components.Palette.get</text>
<text text-anchor="middle" x="665" y="-298" font-family="Helvetica,sans-Serif" font-size="10.00">Color</text>
</a>
</g>
</g>
<!-- Node3&#45;&gt;Node12 -->
<g id="edge11" class="edge"><title>Node3&#45;&gt;Node12</title>
<path fill="none" stroke="midnightblue" d="M451.771,-449.821C468.826,-421.732 509.277,-361.713 560,-331 565.763,-327.51 571.982,-324.508 578.411,-321.924"/>
<polygon fill="midnightblue" stroke="midnightblue" points="579.765,-325.155 587.952,-318.431 577.358,-318.582 579.765,-325.155"/>
</g>
<!-- Node13 -->
<g id="node13" class="node"><title>Node13</title>
<g id="a_node13"><a xlink:href="../../d4/d93/classview_1_1turtle_1_1_turtle_pen.html#ab0c25ebb2a0dd4243c58a4c57f4413b6" target="_top" xlink:title="view.turtle.TurtlePen.get\lColorIndex">
<polygon fill="white" stroke="black" points="600,-242 600,-272 730,-272 730,-242 600,-242"/>
<text text-anchor="start" x="608" y="-260" font-family="Helvetica,sans-Serif" font-size="10.00">view.turtle.TurtlePen.get</text>
<text text-anchor="middle" x="665" y="-249" font-family="Helvetica,sans-Serif" font-size="10.00">ColorIndex</text>
</a>
</g>
</g>
<!-- Node3&#45;&gt;Node13 -->
<g id="edge12" class="edge"><title>Node3&#45;&gt;Node13</title>
<path fill="none" stroke="midnightblue" d="M448.14,-449.907C460.979,-414.583 497.957,-326.192 560,-282 568.975,-275.607 579.376,-270.835 590.061,-267.275"/>
<polygon fill="midnightblue" stroke="midnightblue" points="591.337,-270.547 599.92,-264.336 589.337,-263.839 591.337,-270.547"/>
</g>
<!-- Node14 -->
<g id="node14" class="node"><title>Node14</title>
<g id="a_node14"><a xlink:href="../../dd/ddc/classview_1_1turtle_1_1_turtle_image.html#a86b462f57b86f6c0a72357fdc2655aa1" target="_top" xlink:title="view.turtle.TurtleImage.math\lCoordsToCanvasCoords">
<polygon fill="white" stroke="black" points="589,-193 589,-223 741,-223 741,-193 589,-193"/>
<text text-anchor="start" x="597" y="-211" font-family="Helvetica,sans-Serif" font-size="10.00">view.turtle.TurtleImage.math</text>
<text text-anchor="middle" x="665" y="-200" font-family="Helvetica,sans-Serif" font-size="10.00">CoordsToCanvasCoords</text>
</a>
</g>
</g>
<!-- Node3&#45;&gt;Node14 -->
<g id="edge13" class="edge"><title>Node3&#45;&gt;Node14</title>
<path fill="none" stroke="midnightblue" d="M446.04,-449.734C455.178,-408.001 486.444,-291.252 560,-233 565.805,-228.403 572.325,-224.631 579.196,-221.54"/>
<polygon fill="midnightblue" stroke="midnightblue" points="580.756,-224.686 588.749,-217.732 578.164,-218.183 580.756,-224.686"/>
</g>
<!-- Node15 -->
<g id="node15" class="node"><title>Node15</title>
<g id="a_node15"><a xlink:href="../../db/dce/classmodel_1_1_turtle_update.html#a4a8bce496fed0074bb206694b80de851" target="_top" xlink:title="model.TurtleUpdate.getTurtle\lOldCoordinates">
<polygon fill="white" stroke="black" points="587.5,-144 587.5,-174 742.5,-174 742.5,-144 587.5,-144"/>
<text text-anchor="start" x="595.5" y="-162" font-family="Helvetica,sans-Serif" font-size="10.00">model.TurtleUpdate.getTurtle</text>
<text text-anchor="middle" x="665" y="-151" font-family="Helvetica,sans-Serif" font-size="10.00">OldCoordinates</text>
</a>
</g>
</g>
<!-- Node3&#45;&gt;Node15 -->
<g id="edge14" class="edge"><title>Node3&#45;&gt;Node15</title>
<path fill="none" stroke="midnightblue" d="M444.585,-449.728C450.345,-402.379 474.554,-256.863 560,-184 565.316,-179.466 571.317,-175.726 577.685,-172.642"/>
<polygon fill="midnightblue" stroke="midnightblue" points="579.408,-175.713 587.241,-168.579 576.669,-169.271 579.408,-175.713"/>
</g>
<!-- Node16 -->
<g id="node16" class="node"><title>Node16</title>
<g id="a_node16"><a xlink:href="../../d8/d6a/classmodel_1_1_coordinates.html#a52f6ed56424da9a52c598f9c94f2c8ff" target="_top" xlink:title="model.Coordinates.getY">
<polygon fill="white" stroke="black" points="599.5,-105.5 599.5,-124.5 730.5,-124.5 730.5,-105.5 599.5,-105.5"/>
<text text-anchor="middle" x="665" y="-112.5" font-family="Helvetica,sans-Serif" font-size="10.00">model.Coordinates.getY</text>
</a>
</g>
</g>
<!-- Node3&#45;&gt;Node16 -->
<g id="edge15" class="edge"><title>Node3&#45;&gt;Node16</title>
<path fill="none" stroke="midnightblue" d="M443.369,-449.982C445.523,-397.493 460.201,-220.786 560,-135 568.433,-127.751 578.687,-122.811 589.431,-119.493"/>
<polygon fill="midnightblue" stroke="midnightblue" points="590.609,-122.802 599.396,-116.883 588.836,-116.031 590.609,-122.802"/>
</g>
<!-- Node17 -->
<g id="node17" class="node"><title>Node17</title>
<g id="a_node17"><a xlink:href="../../db/dce/classmodel_1_1_turtle_update.html#a2b6573ce1d167dd921e9abc9fff7c1dd" target="_top" xlink:title="model.TurtleUpdate.getTurtle\lNewCoordinates">
<polygon fill="white" stroke="black" points="587.5,-916 587.5,-946 742.5,-946 742.5,-916 587.5,-916"/>
<text text-anchor="start" x="595.5" y="-934" font-family="Helvetica,sans-Serif" font-size="10.00">model.TurtleUpdate.getTurtle</text>
<text text-anchor="middle" x="665" y="-923" font-family="Helvetica,sans-Serif" font-size="10.00">NewCoordinates</text>
</a>
</g>
</g>
<!-- Node3&#45;&gt;Node17 -->
<g id="edge16" class="edge"><title>Node3&#45;&gt;Node17</title>
<path fill="none" stroke="midnightblue" d="M444.927,-480.095C454.182,-550.257 496.254,-843.73 560,-906 565.297,-911.174 571.467,-915.343 578.11,-918.694"/>
<polygon fill="midnightblue" stroke="midnightblue" points="576.859,-921.968 587.423,-922.775 579.668,-915.556 576.859,-921.968"/>
</g>
<!-- Node18 -->
<g id="node18" class="node"><title>Node18</title>
<g id="a_node18"><a xlink:href="../../dd/ddc/classview_1_1turtle_1_1_turtle_image.html#a6798d71b6457a6b70b472171e64f11f2" target="_top" xlink:title="view.turtle.TurtleImage.hide">
<polygon fill="white" stroke="black" points="592,-877.5 592,-896.5 738,-896.5 738,-877.5 592,-877.5"/>
<text text-anchor="middle" x="665" y="-884.5" font-family="Helvetica,sans-Serif" font-size="10.00">view.turtle.TurtleImage.hide</text>
</a>
</g>
</g>
<!-- Node3&#45;&gt;Node18 -->
<g id="edge17" class="edge"><title>Node3&#45;&gt;Node18</title>
<path fill="none" stroke="midnightblue" d="M445.275,-480.147C455.574,-546.703 499.949,-812.302 560,-867 566.518,-872.937 574.244,-877.352 582.495,-880.606"/>
<polygon fill="midnightblue" stroke="midnightblue" points="581.405,-883.932 591.999,-883.806 583.639,-877.298 581.405,-883.932"/>
</g>
<!-- Node19 -->
<g id="node19" class="node"><title>Node19</title>
<g id="a_node19"><a xlink:href="../../db/dce/classmodel_1_1_turtle_update.html#a7288583a573d839635a8773a01563300" target="_top" xlink:title="model.TurtleUpdate.isTurtle\lHidden">
<polygon fill="white" stroke="black" points="592,-828 592,-858 738,-858 738,-828 592,-828"/>
<text text-anchor="start" x="600" y="-846" font-family="Helvetica,sans-Serif" font-size="10.00">model.TurtleUpdate.isTurtle</text>
<text text-anchor="middle" x="665" y="-835" font-family="Helvetica,sans-Serif" font-size="10.00">Hidden</text>
</a>
</g>
</g>
<!-- Node3&#45;&gt;Node19 -->
<g id="edge18" class="edge"><title>Node3&#45;&gt;Node19</title>
<path fill="none" stroke="midnightblue" d="M443.128,-480.102C444.449,-534.608 456.616,-722.969 560,-818 566.506,-823.981 574.188,-828.602 582.382,-832.162"/>
<polygon fill="midnightblue" stroke="midnightblue" points="581.226,-835.467 591.817,-835.747 583.712,-828.923 581.226,-835.467"/>
</g>
<!-- Node20 -->
<g id="node20" class="node"><title>Node20</title>
<g id="a_node20"><a xlink:href="../../d4/d93/classview_1_1turtle_1_1_turtle_pen.html#aeb591e6c3666a998228a86dbe9121c35" target="_top" xlink:title="view.turtle.TurtlePen.drawLine">
<polygon fill="white" stroke="black" points="587,-789.5 587,-808.5 743,-808.5 743,-789.5 587,-789.5"/>
<text text-anchor="middle" x="665" y="-796.5" font-family="Helvetica,sans-Serif" font-size="10.00">view.turtle.TurtlePen.drawLine</text>
</a>
</g>
</g>
<!-- Node3&#45;&gt;Node20 -->
<g id="edge19" class="edge"><title>Node3&#45;&gt;Node20</title>
<path fill="none" stroke="midnightblue" d="M443.671,-480.011C446.805,-530.876 464.28,-698.039 560,-779 565.235,-783.428 571.151,-786.99 577.439,-789.844"/>
<polygon fill="midnightblue" stroke="midnightblue" points="576.295,-793.155 586.882,-793.539 578.845,-786.636 576.295,-793.155"/>
</g>
<!-- Node24 -->
<g id="node24" class="node"><title>Node24</title>
<g id="a_node24"><a xlink:href="../../dd/ddc/classview_1_1turtle_1_1_turtle_image.html#aca0a62f113534161f725da472e1f4d9f" target="_top" xlink:title="view.turtle.TurtleImage.unanimatedMove">
<polygon fill="white" stroke="black" points="560.5,-67.5 560.5,-86.5 769.5,-86.5 769.5,-67.5 560.5,-67.5"/>
<text text-anchor="middle" x="665" y="-74.5" font-family="Helvetica,sans-Serif" font-size="10.00">view.turtle.TurtleImage.unanimatedMove</text>
</a>
</g>
</g>
<!-- Node3&#45;&gt;Node24 -->
<g id="edge23" class="edge"><title>Node3&#45;&gt;Node24</title>
<path fill="none" stroke="midnightblue" d="M442.703,-449.815C442.487,-393.252 449.817,-193.072 560,-96 561.734,-94.472 563.55,-93.0483 565.434,-91.7224"/>
<polygon fill="midnightblue" stroke="midnightblue" points="567.331,-94.666 574.1,-86.5151 563.725,-88.666 567.331,-94.666"/>
</g>
<!-- Node25 -->
<g id="node25" class="node"><title>Node25</title>
<g id="a_node25"><a xlink:href="../../db/dce/classmodel_1_1_turtle_update.html#aff8157b2082cdae408655d87ed85b74e" target="_top" xlink:title="model.TurtleUpdate.getTurtle\lAngle">
<polygon fill="white" stroke="black" points="587.5,-740 587.5,-770 742.5,-770 742.5,-740 587.5,-740"/>
<text text-anchor="start" x="595.5" y="-758" font-family="Helvetica,sans-Serif" font-size="10.00">model.TurtleUpdate.getTurtle</text>
<text text-anchor="middle" x="665" y="-747" font-family="Helvetica,sans-Serif" font-size="10.00">Angle</text>
</a>
</g>
</g>
<!-- Node3&#45;&gt;Node25 -->
<g id="edge25" class="edge"><title>Node3&#45;&gt;Node25</title>
<path fill="none" stroke="midnightblue" d="M444.974,-480.06C451.75,-525.428 478.337,-661.846 560,-730 565.364,-734.477 571.398,-738.178 577.789,-741.234"/>
<polygon fill="midnightblue" stroke="midnightblue" points="576.797,-744.614 587.372,-745.266 579.512,-738.162 576.797,-744.614"/>
</g>
<!-- Node26 -->
<g id="node26" class="node"><title>Node26</title>
<g id="a_node26"><a xlink:href="../../de/dfa/classmodel_1_1_angle.html#aa1b069cc47fadd893fe8527c356dd8fd" target="_top" xlink:title="model.Angle.getAngleValue">
<polygon fill="white" stroke="black" points="590.5,-701.5 590.5,-720.5 739.5,-720.5 739.5,-701.5 590.5,-701.5"/>
<text text-anchor="middle" x="665" y="-708.5" font-family="Helvetica,sans-Serif" font-size="10.00">model.Angle.getAngleValue</text>
</a>
</g>
</g>
<!-- Node3&#45;&gt;Node26 -->
<g id="edge26" class="edge"><title>Node3&#45;&gt;Node26</title>
<path fill="none" stroke="midnightblue" d="M446.032,-480.056C455.151,-521.182 486.373,-636.005 560,-691 566.266,-695.681 573.322,-699.358 580.731,-702.236"/>
<polygon fill="midnightblue" stroke="midnightblue" points="579.678,-705.575 590.273,-705.47 581.925,-698.945 579.678,-705.575"/>
</g>
<!-- Node27 -->
<g id="node27" class="node"><title>Node27</title>
<g id="a_node27"><a xlink:href="../../dd/ddc/classview_1_1turtle_1_1_turtle_image.html#a958417ed4561c0b910f80944a5110ec7" target="_top" xlink:title="view.turtle.TurtleImage.animatedMove">
<polygon fill="white" stroke="black" points="566.5,-29.5 566.5,-48.5 763.5,-48.5 763.5,-29.5 566.5,-29.5"/>
<text text-anchor="middle" x="665" y="-36.5" font-family="Helvetica,sans-Serif" font-size="10.00">view.turtle.TurtleImage.animatedMove</text>
</a>
</g>
</g>
<!-- Node3&#45;&gt;Node27 -->
<g id="edge27" class="edge"><title>Node3&#45;&gt;Node27</title>
<path fill="none" stroke="midnightblue" d="M445.233,-449.653C455.357,-382.221 499.094,-113.144 560,-58 561.531,-56.6141 563.128,-55.3134 564.782,-54.0929"/>
<polygon fill="midnightblue" stroke="midnightblue" points="566.876,-56.9115 573.494,-48.6376 563.161,-50.9788 566.876,-56.9115"/>
</g>
<!-- Node21 -->
<g id="node21" class="node"><title>Node21</title>
<g id="a_node21"><a xlink:href="../../d4/d93/classview_1_1turtle_1_1_turtle_pen.html#a3eea64b5d17767f655096870f4a5850d" target="_top" xlink:title="view.turtle.TurtlePen.draw\lGappedLine">
<polygon fill="white" stroke="black" points="816.5,-784 816.5,-814 953.5,-814 953.5,-784 816.5,-784"/>
<text text-anchor="start" x="824.5" y="-802" font-family="Helvetica,sans-Serif" font-size="10.00">view.turtle.TurtlePen.draw</text>
<text text-anchor="middle" x="885" y="-791" font-family="Helvetica,sans-Serif" font-size="10.00">GappedLine</text>
</a>
</g>
</g>
<!-- Node20&#45;&gt;Node21 -->
<g id="edge20" class="edge"><title>Node20&#45;&gt;Node21</title>
<path fill="none" stroke="midnightblue" d="M743.165,-799C763.598,-799 785.666,-799 806.135,-799"/>
<polygon fill="midnightblue" stroke="midnightblue" points="806.358,-802.5 816.358,-799 806.358,-795.5 806.358,-802.5"/>
</g>
<!-- Node22 -->
<g id="node22" class="node"><title>Node22</title>
<g id="a_node22"><a xlink:href="../../d4/d93/classview_1_1turtle_1_1_turtle_pen.html#a78a412ae5c294fd37981146020ea4009" target="_top" xlink:title="view.turtle.TurtlePen.generate\lDashVectorArray">
<polygon fill="white" stroke="black" points="1000,-784 1000,-814 1158,-814 1158,-784 1000,-784"/>
<text text-anchor="start" x="1008" y="-802" font-family="Helvetica,sans-Serif" font-size="10.00">view.turtle.TurtlePen.generate</text>
<text text-anchor="middle" x="1079" y="-791" font-family="Helvetica,sans-Serif" font-size="10.00">DashVectorArray</text>
</a>
</g>
</g>
<!-- Node21&#45;&gt;Node22 -->
<g id="edge21" class="edge"><title>Node21&#45;&gt;Node22</title>
<path fill="none" stroke="midnightblue" d="M953.692,-799C965.332,-799 977.582,-799 989.668,-799"/>
<polygon fill="midnightblue" stroke="midnightblue" points="989.766,-802.5 999.766,-799 989.766,-795.5 989.766,-802.5"/>
</g>
<!-- Node23 -->
<g id="node23" class="node"><title>Node23</title>
<g id="a_node23"><a xlink:href="../../d4/d93/classview_1_1turtle_1_1_turtle_pen.html#a1553953625d014db95e9af6faa83e667" target="_top" xlink:title="view.turtle.TurtlePen.get\lUnitVector">
<polygon fill="white" stroke="black" points="1194,-784 1194,-814 1324,-814 1324,-784 1194,-784"/>
<text text-anchor="start" x="1202" y="-802" font-family="Helvetica,sans-Serif" font-size="10.00">view.turtle.TurtlePen.get</text>
<text text-anchor="middle" x="1259" y="-791" font-family="Helvetica,sans-Serif" font-size="10.00">UnitVector</text>
</a>
</g>
</g>
<!-- Node22&#45;&gt;Node23 -->
<g id="edge22" class="edge"><title>Node22&#45;&gt;Node23</title>
<path fill="none" stroke="midnightblue" d="M1158.07,-799C1166.57,-799 1175.21,-799 1183.66,-799"/>
<polygon fill="midnightblue" stroke="midnightblue" points="1183.86,-802.5 1193.86,-799 1183.86,-795.5 1183.86,-802.5"/>
</g>
<!-- Node24&#45;&gt;Node2 -->
<g id="edge24" class="edge"><title>Node24&#45;&gt;Node2</title>
<path fill="none" stroke="midnightblue" d="M560.258,-77C490.212,-77 399.069,-77 334.285,-77"/>
<polygon fill="midnightblue" stroke="midnightblue" points="334.122,-73.5001 324.122,-77 334.121,-80.5001 334.122,-73.5001"/>
</g>
<!-- Node27&#45;&gt;Node2 -->
<g id="edge30" class="edge"><title>Node27&#45;&gt;Node2</title>
<path fill="none" stroke="midnightblue" d="M566.448,-48.0194C495.613,-54.5686 400.883,-63.3271 334.168,-69.4955"/>
<polygon fill="midnightblue" stroke="midnightblue" points="333.757,-66.0184 324.122,-70.4243 334.401,-72.9887 333.757,-66.0184"/>
</g>
<!-- Node28 -->
<g id="node28" class="node"><title>Node28</title>
<g id="a_node28"><a xlink:href="../../dd/ddc/classview_1_1turtle_1_1_turtle_image.html#afad70374651ad6165f7d48b7bf268d71" target="_top" xlink:title="view.turtle.TurtleImage.create\lRotateTransition">
<polygon fill="white" stroke="black" points="806.5,-0 806.5,-30 963.5,-30 963.5,-0 806.5,-0"/>
<text text-anchor="start" x="814.5" y="-18" font-family="Helvetica,sans-Serif" font-size="10.00">view.turtle.TurtleImage.create</text>
<text text-anchor="middle" x="885" y="-7" font-family="Helvetica,sans-Serif" font-size="10.00">RotateTransition</text>
</a>
</g>
</g>
<!-- Node27&#45;&gt;Node28 -->
<g id="edge28" class="edge"><title>Node27&#45;&gt;Node28</title>
<path fill="none" stroke="midnightblue" d="M752.472,-29.4801C766.96,-27.8851 782.004,-26.229 796.517,-24.6312"/>
<polygon fill="midnightblue" stroke="midnightblue" points="796.909,-28.1092 806.466,-23.5358 796.143,-21.1512 796.909,-28.1092"/>
</g>
<!-- Node29 -->
<g id="node29" class="node"><title>Node29</title>
<g id="a_node29"><a xlink:href="../../dd/ddc/classview_1_1turtle_1_1_turtle_image.html#a579bab57c4e802a8a119ba0253b58ed9" target="_top" xlink:title="view.turtle.TurtleImage.create\lTranslateTransition">
<polygon fill="white" stroke="black" points="806.5,-49 806.5,-79 963.5,-79 963.5,-49 806.5,-49"/>
<text text-anchor="start" x="814.5" y="-67" font-family="Helvetica,sans-Serif" font-size="10.00">view.turtle.TurtleImage.create</text>
<text text-anchor="middle" x="885" y="-56" font-family="Helvetica,sans-Serif" font-size="10.00">TranslateTransition</text>
</a>
</g>
</g>
<!-- Node27&#45;&gt;Node29 -->
<g id="edge29" class="edge"><title>Node27&#45;&gt;Node29</title>
<path fill="none" stroke="midnightblue" d="M749.038,-48.5227C764.436,-50.2886 780.568,-52.1385 796.105,-53.9203"/>
<polygon fill="midnightblue" stroke="midnightblue" points="795.882,-57.4176 806.215,-55.0798 796.679,-50.4631 795.882,-57.4176"/>
</g>
</g>
</svg>
        <g id="navigator" transform="translate(0 0)" fill="#404254">
                <rect fill="#f2f5e9" fill-opacity="0.5" stroke="#606060" stroke-width=".5" x="0" y="0" width="60" height="60"/>
                <use id="zoomplus" xlink:href="#zoomPlus" x="17" y="9" onmousedown="handleZoom(evt,'in')"/>
                <use id="zoomminus" xlink:href="#zoomMin" x="42" y="9" onmousedown="handleZoom(evt,'out')"/>
                <use id="reset" xlink:href="#resetDef" x="30" y="36" onmousedown="handleReset()"/>
                <g id="arrowUp" xlink:href="#dirArrow" transform="translate(30 24)" onmousedown="handlePan(0,-1)">
                  <use xlink:href="#rim" fill="#404040">
                        <set attributeName="fill" to="#808080" begin="arrowUp.mouseover" end="arrowUp.mouseout"/>
                  </use>
                  <path fill="none" stroke="white" stroke-width="1.5" d="M0,-3.0v7 M-2.5,-0.5L0,-3.0L2.5,-0.5"/>
                </g>
                <g id="arrowRight" xlink:href="#dirArrow" transform="rotate(90) translate(36 -43)" onmousedown="handlePan(1,0)">
                  <use xlink:href="#rim" fill="#404040">
                        <set attributeName="fill" to="#808080" begin="arrowRight.mouseover" end="arrowRight.mouseout"/>
                  </use>
                  <path fill="none" stroke="white" stroke-width="1.5" d="M0,-3.0v7 M-2.5,-0.5L0,-3.0L2.5,-0.5"/>
                </g>
                <g id="arrowDown" xlink:href="#dirArrow" transform="rotate(180) translate(-30 -48)" onmousedown="handlePan(0,1)">
                  <use xlink:href="#rim" fill="#404040">
                        <set attributeName="fill" to="#808080" begin="arrowDown.mouseover" end="arrowDown.mouseout"/>
                  </use>
                  <path fill="none" stroke="white" stroke-width="1.5" d="M0,-3.0v7 M-2.5,-0.5L0,-3.0L2.5,-0.5"/>
                </g>
                <g id="arrowLeft" xlink:href="#dirArrow" transform="rotate(270) translate(-36 17)" onmousedown="handlePan(-1,0)">
                  <use xlink:href="#rim" fill="#404040">
                        <set attributeName="fill" to="#808080" begin="arrowLeft.mouseover" end="arrowLeft.mouseout"/>
                  </use>
                  <path fill="none" stroke="white" stroke-width="1.5" d="M0,-3.0v7 M-2.5,-0.5L0,-3.0L2.5,-0.5"/>
                </g>
        </g>
        <svg viewBox="0 0 15 15" width="100%" height="30px" preserveAspectRatio="xMaxYMin meet">
         <g id="arrow_out" transform="scale(0.3 0.3)">
          <a xlink:href="classview_1_1turtle_1_1_turtle_image_a02651da4da9b4b48bd91656f734ccb03_cgraph_org.svg" target="_base">
           <rect id="button" ry="5" rx="5" y="6" x="6" height="38" width="38"
                fill="#f2f5e9" fill-opacity="0.5" stroke="#606060" stroke-width="1.0"/>
           <path id="arrow"
             d="M 11.500037,31.436501 C 11.940474,20.09759 22.043105,11.32322 32.158766,21.979434 L 37.068811,17.246167 C 37.068811,17.246167 37.088388,32 37.088388,32 L 22.160133,31.978069 C 22.160133,31.978069 26.997745,27.140456 26.997745,27.140456 C 18.528582,18.264221 13.291696,25.230495 11.500037,31.436501 z"
             style="fill:#404040;"/>
          </a>
         </g>
        </svg>
</svg>
