<?xml version="1.0" encoding="UTF-8" standalone="no"?>
<!DOCTYPE svg PUBLIC "-//W3C//DTD SVG 1.1//EN"
 "http://www.w3.org/Graphics/SVG/1.1/DTD/svg11.dtd">
<!-- Generated by graphviz version 2.36.0 (20140111.2315)
 -->
<!-- Title: view.turtle.TurtleImage.processUpdate Pages: 1 -->
<svg width="972pt" height="1015pt"
 viewBox="0.00 0.00 972.00 1015.00" xmlns="http://www.w3.org/2000/svg" xmlns:xlink="http://www.w3.org/1999/xlink">
<g id="graph0" class="graph" transform="scale(1 1) rotate(0) translate(4 1011)">
<title>view.turtle.TurtleImage.processUpdate</title>
<polygon fill="white" stroke="none" points="-4,4 -4,-1011 968,-1011 968,4 -4,4"/>
<!-- Node1 -->
<g id="node1" class="node"><title>Node1</title>
<polygon fill="#bfbfbf" stroke="black" points="0,-472 0,-502 164,-502 164,-472 0,-472"/>
<text text-anchor="start" x="8" y="-490" font-family="Helvetica,sans-Serif" font-size="10.00">view.turtle.TurtleImage.process</text>
<text text-anchor="middle" x="82" y="-479" font-family="Helvetica,sans-Serif" font-size="10.00">Update</text>
</g>
<!-- Node2 -->
<g id="node2" class="node"><title>Node2</title>
<g id="a_node2"><a xlink:href="../../dd/ddc/classview_1_1turtle_1_1_turtle_image.html#a958417ed4561c0b910f80944a5110ec7" target="_top" xlink:title="view.turtle.TurtleImage.animatedMove">
<polygon fill="white" stroke="black" points="206.5,-933.5 206.5,-952.5 403.5,-952.5 403.5,-933.5 206.5,-933.5"/>
<text text-anchor="middle" x="305" y="-940.5" font-family="Helvetica,sans-Serif" font-size="10.00">view.turtle.TurtleImage.animatedMove</text>
</a>
</g>
</g>
<!-- Node1&#45;&gt;Node2 -->
<g id="edge1" class="edge"><title>Node1&#45;&gt;Node2</title>
<path fill="none" stroke="midnightblue" d="M85.0248,-502.264C94.5606,-571.883 137.175,-858.499 200,-919 204.004,-922.856 208.498,-926.138 213.312,-928.927"/>
<polygon fill="midnightblue" stroke="midnightblue" points="211.779,-932.074 222.286,-933.434 214.92,-925.818 211.779,-932.074"/>
</g>
<!-- Node6 -->
<g id="node6" class="node"><title>Node6</title>
<g id="a_node6"><a xlink:href="../../d4/d93/classview_1_1turtle_1_1_turtle_pen.html#aeb591e6c3666a998228a86dbe9121c35" target="_top" xlink:title="view.turtle.TurtlePen.drawLine">
<polygon fill="white" stroke="black" points="227,-819.5 227,-838.5 383,-838.5 383,-819.5 227,-819.5"/>
<text text-anchor="middle" x="305" y="-826.5" font-family="Helvetica,sans-Serif" font-size="10.00">view.turtle.TurtlePen.drawLine</text>
</a>
</g>
</g>
<!-- Node1&#45;&gt;Node6 -->
<g id="edge6" class="edge"><title>Node1&#45;&gt;Node6</title>
<path fill="none" stroke="midnightblue" d="M83.4721,-502.1C85.9663,-554.056 101.633,-726.812 200,-810 205.226,-814.42 211.136,-817.955 217.42,-820.769"/>
<polygon fill="midnightblue" stroke="midnightblue" points="216.268,-824.076 226.858,-824.397 218.78,-817.542 216.268,-824.076"/>
</g>
<!-- Node10 -->
<g id="node10" class="node"><title>Node10</title>
<g id="a_node10"><a xlink:href="../../de/dfa/classmodel_1_1_angle.html#aa1b069cc47fadd893fe8527c356dd8fd" target="_top" xlink:title="model.Angle.getAngleValue">
<polygon fill="white" stroke="black" points="230.5,-781.5 230.5,-800.5 379.5,-800.5 379.5,-781.5 230.5,-781.5"/>
<text text-anchor="middle" x="305" y="-788.5" font-family="Helvetica,sans-Serif" font-size="10.00">model.Angle.getAngleValue</text>
</a>
</g>
</g>
<!-- Node1&#45;&gt;Node10 -->
<g id="edge10" class="edge"><title>Node1&#45;&gt;Node10</title>
<path fill="none" stroke="midnightblue" d="M84.3489,-502.264C89.4541,-550.253 112.039,-699.139 200,-771 206.157,-776.03 213.202,-779.932 220.658,-782.942"/>
<polygon fill="midnightblue" stroke="midnightblue" points="219.692,-786.312 230.287,-786.297 221.995,-779.702 219.692,-786.312"/>
</g>
<!-- Node11 -->
<g id="node11" class="node"><title>Node11</title>
<g id="a_node11"><a xlink:href="../../d5/d46/classview_1_1components_1_1_palette.html#acf5106175f97e28619e7ed993b9fce93" target="_top" xlink:title="view.components.Palette.get\lColor">
<polygon fill="white" stroke="black" points="228,-732 228,-762 382,-762 382,-732 228,-732"/>
<text text-anchor="start" x="236" y="-750" font-family="Helvetica,sans-Serif" font-size="10.00">view.components.Palette.get</text>
<text text-anchor="middle" x="305" y="-739" font-family="Helvetica,sans-Serif" font-size="10.00">Color</text>
</a>
</g>
</g>
<!-- Node1&#45;&gt;Node11 -->
<g id="edge11" class="edge"><title>Node1&#45;&gt;Node11</title>
<path fill="none" stroke="midnightblue" d="M85.9111,-502.156C94.8021,-544.153 125.658,-662.814 200,-722 205.643,-726.493 211.968,-730.198 218.638,-733.25"/>
<polygon fill="midnightblue" stroke="midnightblue" points="217.334,-736.498 227.916,-737.022 219.97,-730.014 217.334,-736.498"/>
</g>
<!-- Node12 -->
<g id="node12" class="node"><title>Node12</title>
<g id="a_node12"><a xlink:href="../../d4/d93/classview_1_1turtle_1_1_turtle_pen.html#ab0c25ebb2a0dd4243c58a4c57f4413b6" target="_top" xlink:title="view.turtle.TurtlePen.get\lColorIndex">
<polygon fill="white" stroke="black" points="240,-683 240,-713 370,-713 370,-683 240,-683"/>
<text text-anchor="start" x="248" y="-701" font-family="Helvetica,sans-Serif" font-size="10.00">view.turtle.TurtlePen.get</text>
<text text-anchor="middle" x="305" y="-690" font-family="Helvetica,sans-Serif" font-size="10.00">ColorIndex</text>
</a>
</g>
</g>
<!-- Node1&#45;&gt;Node12 -->
<g id="edge12" class="edge"><title>Node1&#45;&gt;Node12</title>
<path fill="none" stroke="midnightblue" d="M87.9714,-502.072C100.562,-537.789 137.244,-627.95 200,-673 208.951,-679.426 219.34,-684.216 230.019,-687.783"/>
<polygon fill="midnightblue" stroke="midnightblue" points="229.292,-691.218 239.875,-690.727 231.296,-684.511 229.292,-691.218"/>
</g>
<!-- Node13 -->
<g id="node13" class="node"><title>Node13</title>
<g id="a_node13"><a xlink:href="../../d5/d46/classview_1_1components_1_1_palette.html#af6c1989fcbc763b66af3fc609fa59ff9" target="_top" xlink:title="view.components.Palette.get\lImage">
<polygon fill="white" stroke="black" points="228,-634 228,-664 382,-664 382,-634 228,-634"/>
<text text-anchor="start" x="236" y="-652" font-family="Helvetica,sans-Serif" font-size="10.00">view.components.Palette.get</text>
<text text-anchor="middle" x="305" y="-641" font-family="Helvetica,sans-Serif" font-size="10.00">Image</text>
</a>
</g>
</g>
<!-- Node1&#45;&gt;Node13 -->
<g id="edge13" class="edge"><title>Node1&#45;&gt;Node13</title>
<path fill="none" stroke="midnightblue" d="M91.4192,-502.075C108.169,-530.604 148.534,-592.45 200,-624 205.744,-627.521 211.949,-630.546 218.368,-633.146"/>
<polygon fill="midnightblue" stroke="midnightblue" points="217.305,-636.484 227.899,-636.657 219.725,-629.916 217.305,-636.484"/>
</g>
<!-- Node14 -->
<g id="node14" class="node"><title>Node14</title>
<g id="a_node14"><a xlink:href="../../db/dce/classmodel_1_1_turtle_update.html#a36b8205a61dd875ac4521cf51906c275" target="_top" xlink:title="model.TurtleUpdate.getShapeID">
<polygon fill="white" stroke="black" points="220,-595.5 220,-614.5 390,-614.5 390,-595.5 220,-595.5"/>
<text text-anchor="middle" x="305" y="-602.5" font-family="Helvetica,sans-Serif" font-size="10.00">model.TurtleUpdate.getShapeID</text>
</a>
</g>
</g>
<!-- Node1&#45;&gt;Node14 -->
<g id="edge14" class="edge"><title>Node1&#45;&gt;Node14</title>
<path fill="none" stroke="midnightblue" d="M96.0888,-502.005C116.132,-523.949 156.683,-564.415 200,-585 206.192,-587.943 212.787,-590.453 219.536,-592.593"/>
<polygon fill="midnightblue" stroke="midnightblue" points="218.927,-596.06 229.506,-595.472 220.869,-589.335 218.927,-596.06"/>
</g>
<!-- Node15 -->
<g id="node15" class="node"><title>Node15</title>
<g id="a_node15"><a xlink:href="../../db/dce/classmodel_1_1_turtle_update.html#aff8157b2082cdae408655d87ed85b74e" target="_top" xlink:title="model.TurtleUpdate.getTurtle\lAngle">
<polygon fill="white" stroke="black" points="227.5,-546 227.5,-576 382.5,-576 382.5,-546 227.5,-546"/>
<text text-anchor="start" x="235.5" y="-564" font-family="Helvetica,sans-Serif" font-size="10.00">model.TurtleUpdate.getTurtle</text>
<text text-anchor="middle" x="305" y="-553" font-family="Helvetica,sans-Serif" font-size="10.00">Angle</text>
</a>
</g>
</g>
<!-- Node1&#45;&gt;Node15 -->
<g id="edge15" class="edge"><title>Node1&#45;&gt;Node15</title>
<path fill="none" stroke="midnightblue" d="M115.249,-502.158C138.454,-512.656 170.698,-526.411 200,-536 207.928,-538.594 216.276,-541.048 224.653,-543.331"/>
<polygon fill="midnightblue" stroke="midnightblue" points="223.913,-546.755 234.476,-545.93 225.704,-539.988 223.913,-546.755"/>
</g>
<!-- Node16 -->
<g id="node16" class="node"><title>Node16</title>
<g id="a_node16"><a xlink:href="../../db/dce/classmodel_1_1_turtle_update.html#a2b6573ce1d167dd921e9abc9fff7c1dd" target="_top" xlink:title="model.TurtleUpdate.getTurtle\lNewCoordinates">
<polygon fill="white" stroke="black" points="227.5,-497 227.5,-527 382.5,-527 382.5,-497 227.5,-497"/>
<text text-anchor="start" x="235.5" y="-515" font-family="Helvetica,sans-Serif" font-size="10.00">model.TurtleUpdate.getTurtle</text>
<text text-anchor="middle" x="305" y="-504" font-family="Helvetica,sans-Serif" font-size="10.00">NewCoordinates</text>
</a>
</g>
</g>
<!-- Node1&#45;&gt;Node16 -->
<g id="edge16" class="edge"><title>Node1&#45;&gt;Node16</title>
<path fill="none" stroke="midnightblue" d="M164.037,-496.167C181.338,-498.124 199.678,-500.199 217.185,-502.179"/>
<polygon fill="midnightblue" stroke="midnightblue" points="217.053,-505.687 227.383,-503.333 217.84,-498.731 217.053,-505.687"/>
</g>
<!-- Node17 -->
<g id="node17" class="node"><title>Node17</title>
<g id="a_node17"><a xlink:href="../../db/dce/classmodel_1_1_turtle_update.html#a4a8bce496fed0074bb206694b80de851" target="_top" xlink:title="model.TurtleUpdate.getTurtle\lOldCoordinates">
<polygon fill="white" stroke="black" points="227.5,-448 227.5,-478 382.5,-478 382.5,-448 227.5,-448"/>
<text text-anchor="start" x="235.5" y="-466" font-family="Helvetica,sans-Serif" font-size="10.00">model.TurtleUpdate.getTurtle</text>
<text text-anchor="middle" x="305" y="-455" font-family="Helvetica,sans-Serif" font-size="10.00">OldCoordinates</text>
</a>
</g>
</g>
<!-- Node1&#45;&gt;Node17 -->
<g id="edge17" class="edge"><title>Node1&#45;&gt;Node17</title>
<path fill="none" stroke="midnightblue" d="M164.037,-478.2C181.338,-476.321 199.678,-474.329 217.185,-472.428"/>
<polygon fill="midnightblue" stroke="midnightblue" points="217.82,-475.88 227.383,-471.32 217.064,-468.921 217.82,-475.88"/>
</g>
<!-- Node18 -->
<g id="node18" class="node"><title>Node18</title>
<g id="a_node18"><a xlink:href="../../d8/d6a/classmodel_1_1_coordinates.html#a52f6ed56424da9a52c598f9c94f2c8ff" target="_top" xlink:title="model.Coordinates.getY">
<polygon fill="white" stroke="black" points="239.5,-409.5 239.5,-428.5 370.5,-428.5 370.5,-409.5 239.5,-409.5"/>
<text text-anchor="middle" x="305" y="-416.5" font-family="Helvetica,sans-Serif" font-size="10.00">model.Coordinates.getY</text>
</a>
</g>
</g>
<!-- Node1&#45;&gt;Node18 -->
<g id="edge18" class="edge"><title>Node1&#45;&gt;Node18</title>
<path fill="none" stroke="midnightblue" d="M114.658,-471.997C137.852,-461.505 170.332,-447.842 200,-439 210.766,-435.791 222.318,-432.975 233.667,-430.546"/>
<polygon fill="midnightblue" stroke="midnightblue" points="234.472,-433.954 243.563,-428.512 233.063,-427.097 234.472,-433.954"/>
</g>
<!-- Node19 -->
<g id="node19" class="node"><title>Node19</title>
<g id="a_node19"><a xlink:href="../../dd/ddc/classview_1_1turtle_1_1_turtle_image.html#a6798d71b6457a6b70b472171e64f11f2" target="_top" xlink:title="view.turtle.TurtleImage.hide">
<polygon fill="white" stroke="black" points="232,-371.5 232,-390.5 378,-390.5 378,-371.5 232,-371.5"/>
<text text-anchor="middle" x="305" y="-378.5" font-family="Helvetica,sans-Serif" font-size="10.00">view.turtle.TurtleImage.hide</text>
</a>
</g>
</g>
<!-- Node1&#45;&gt;Node19 -->
<g id="edge19" class="edge"><title>Node1&#45;&gt;Node19</title>
<path fill="none" stroke="midnightblue" d="M98.5261,-471.686C119.618,-451.83 159.375,-417.659 200,-400 207.042,-396.939 214.56,-394.371 222.21,-392.216"/>
<polygon fill="midnightblue" stroke="midnightblue" points="223.138,-395.592 231.945,-389.703 221.388,-388.814 223.138,-395.592"/>
</g>
<!-- Node20 -->
<g id="node20" class="node"><title>Node20</title>
<g id="a_node20"><a xlink:href="../../db/dce/classmodel_1_1_turtle_update.html#a5e88189d0b5f21c9474b5617cb396b13" target="_top" xlink:title="model.TurtleUpdate.isStamp">
<polygon fill="white" stroke="black" points="228.5,-333.5 228.5,-352.5 381.5,-352.5 381.5,-333.5 228.5,-333.5"/>
<text text-anchor="middle" x="305" y="-340.5" font-family="Helvetica,sans-Serif" font-size="10.00">model.TurtleUpdate.isStamp</text>
</a>
</g>
</g>
<!-- Node1&#45;&gt;Node20 -->
<g id="edge20" class="edge"><title>Node1&#45;&gt;Node20</title>
<path fill="none" stroke="midnightblue" d="M92.4349,-471.754C109.99,-444.806 150.426,-389.055 200,-362 205.899,-358.78 212.239,-356.093 218.772,-353.852"/>
<polygon fill="midnightblue" stroke="midnightblue" points="219.923,-357.16 228.454,-350.877 217.867,-350.468 219.923,-357.16"/>
</g>
<!-- Node21 -->
<g id="node21" class="node"><title>Node21</title>
<g id="a_node21"><a xlink:href="../../db/dce/classmodel_1_1_turtle_update.html#ab56febaad846cad5592395c3a67a68db" target="_top" xlink:title="model.TurtleUpdate.isTurtle\lClear">
<polygon fill="white" stroke="black" points="232,-284 232,-314 378,-314 378,-284 232,-284"/>
<text text-anchor="start" x="240" y="-302" font-family="Helvetica,sans-Serif" font-size="10.00">model.TurtleUpdate.isTurtle</text>
<text text-anchor="middle" x="305" y="-291" font-family="Helvetica,sans-Serif" font-size="10.00">Clear</text>
</a>
</g>
</g>
<!-- Node1&#45;&gt;Node21 -->
<g id="edge21" class="edge"><title>Node1&#45;&gt;Node21</title>
<path fill="none" stroke="midnightblue" d="M89.4825,-471.618C104.077,-438.949 142.768,-362.491 200,-324 206.792,-319.432 214.328,-315.696 222.151,-312.641"/>
<polygon fill="midnightblue" stroke="midnightblue" points="223.535,-315.864 231.805,-309.241 221.21,-309.261 223.535,-315.864"/>
</g>
<!-- Node22 -->
<g id="node22" class="node"><title>Node22</title>
<g id="a_node22"><a xlink:href="../../db/dce/classmodel_1_1_turtle_update.html#a7288583a573d839635a8773a01563300" target="_top" xlink:title="model.TurtleUpdate.isTurtle\lHidden">
<polygon fill="white" stroke="black" points="232,-235 232,-265 378,-265 378,-235 232,-235"/>
<text text-anchor="start" x="240" y="-253" font-family="Helvetica,sans-Serif" font-size="10.00">model.TurtleUpdate.isTurtle</text>
<text text-anchor="middle" x="305" y="-242" font-family="Helvetica,sans-Serif" font-size="10.00">Hidden</text>
</a>
</g>
</g>
<!-- Node1&#45;&gt;Node22 -->
<g id="edge22" class="edge"><title>Node1&#45;&gt;Node22</title>
<path fill="none" stroke="midnightblue" d="M86.7638,-471.905C97.3348,-432.779 131.123,-327.492 200,-275 206.741,-269.863 214.384,-265.762 222.393,-262.493"/>
<polygon fill="midnightblue" stroke="midnightblue" points="223.73,-265.731 231.931,-259.024 221.337,-259.153 223.73,-265.731"/>
</g>
<!-- Node23 -->
<g id="node23" class="node"><title>Node23</title>
<g id="a_node23"><a xlink:href="../../db/dce/classmodel_1_1_turtle_update.html#a7ebfc78794f604d565e22150004b8325" target="_top" xlink:title="model.TurtleUpdate.isTurtle\lInactive">
<polygon fill="white" stroke="black" points="232,-186 232,-216 378,-216 378,-186 232,-186"/>
<text text-anchor="start" x="240" y="-204" font-family="Helvetica,sans-Serif" font-size="10.00">model.TurtleUpdate.isTurtle</text>
<text text-anchor="middle" x="305" y="-193" font-family="Helvetica,sans-Serif" font-size="10.00">Inactive</text>
</a>
</g>
</g>
<!-- Node1&#45;&gt;Node23 -->
<g id="edge23" class="edge"><title>Node1&#45;&gt;Node23</title>
<path fill="none" stroke="midnightblue" d="M85.1003,-471.843C92.1705,-426.829 119.368,-292.907 200,-226 206.625,-220.503 214.261,-216.176 222.325,-212.778"/>
<polygon fill="midnightblue" stroke="midnightblue" points="223.799,-215.964 231.953,-209.199 221.36,-209.402 223.799,-215.964"/>
</g>
<!-- Node24 -->
<g id="node24" class="node"><title>Node24</title>
<g id="a_node24"><a xlink:href="../../db/dce/classmodel_1_1_turtle_update.html#a6c2e9c2e4216253c37801998a329455b" target="_top" xlink:title="model.TurtleUpdate.isTurtle\lPenUp">
<polygon fill="white" stroke="black" points="232,-137 232,-167 378,-167 378,-137 232,-137"/>
<text text-anchor="start" x="240" y="-155" font-family="Helvetica,sans-Serif" font-size="10.00">model.TurtleUpdate.isTurtle</text>
<text text-anchor="middle" x="305" y="-144" font-family="Helvetica,sans-Serif" font-size="10.00">PenUp</text>
</a>
</g>
</g>
<!-- Node1&#45;&gt;Node24 -->
<g id="edge24" class="edge"><title>Node1&#45;&gt;Node24</title>
<path fill="none" stroke="midnightblue" d="M83.9052,-471.989C87.7681,-421.863 107.255,-258.822 200,-177 206.576,-171.198 214.266,-166.686 222.434,-163.185"/>
<polygon fill="midnightblue" stroke="midnightblue" points="223.701,-166.448 231.825,-159.648 221.233,-159.898 223.701,-166.448"/>
</g>
<!-- Node25 -->
<g id="node25" class="node"><title>Node25</title>
<g id="a_node25"><a xlink:href="../../dd/ddc/classview_1_1turtle_1_1_turtle_image.html#aa1a5f2d4c96c64f526f4df58fd5e77d6" target="_top" xlink:title="view.turtle.TurtleImage.leave\lStamp">
<polygon fill="white" stroke="black" points="229,-88 229,-118 381,-118 381,-88 229,-88"/>
<text text-anchor="start" x="237" y="-106" font-family="Helvetica,sans-Serif" font-size="10.00">view.turtle.TurtleImage.leave</text>
<text text-anchor="middle" x="305" y="-95" font-family="Helvetica,sans-Serif" font-size="10.00">Stamp</text>
</a>
</g>
</g>
<!-- Node1&#45;&gt;Node25 -->
<g id="edge25" class="edge"><title>Node1&#45;&gt;Node25</title>
<path fill="none" stroke="midnightblue" d="M83.0368,-471.648C84.0453,-416.24 95.273,-224.75 200,-128 205.754,-122.684 212.437,-118.441 219.584,-115.062"/>
<polygon fill="midnightblue" stroke="midnightblue" points="220.95,-118.285 228.853,-111.228 218.274,-111.816 220.95,-118.285"/>
</g>
<!-- Node26 -->
<g id="node26" class="node"><title>Node26</title>
<g id="a_node26"><a xlink:href="../../dd/ddc/classview_1_1turtle_1_1_turtle_image.html#a86b462f57b86f6c0a72357fdc2655aa1" target="_top" xlink:title="view.turtle.TurtleImage.math\lCoordsToCanvasCoords">
<polygon fill="white" stroke="black" points="229,-39 229,-69 381,-69 381,-39 229,-39"/>
<text text-anchor="start" x="237" y="-57" font-family="Helvetica,sans-Serif" font-size="10.00">view.turtle.TurtleImage.math</text>
<text text-anchor="middle" x="305" y="-46" font-family="Helvetica,sans-Serif" font-size="10.00">CoordsToCanvasCoords</text>
</a>
</g>
</g>
<!-- Node1&#45;&gt;Node26 -->
<g id="edge26" class="edge"><title>Node1&#45;&gt;Node26</title>
<path fill="none" stroke="midnightblue" d="M82.3439,-471.716C80.6609,-411.852 82.9098,-191.12 200,-79 205.706,-73.5366 212.387,-69.1987 219.561,-65.7629"/>
<polygon fill="midnightblue" stroke="midnightblue" points="220.996,-68.957 228.877,-61.8767 218.3,-62.4966 220.996,-68.957"/>
</g>
<!-- Node27 -->
<g id="node27" class="node"><title>Node27</title>
<g id="a_node27"><a xlink:href="../../dd/ddc/classview_1_1turtle_1_1_turtle_image.html#aca0a62f113534161f725da472e1f4d9f" target="_top" xlink:title="view.turtle.TurtleImage.unanimatedMove">
<polygon fill="white" stroke="black" points="200.5,-857.5 200.5,-876.5 409.5,-876.5 409.5,-857.5 200.5,-857.5"/>
<text text-anchor="middle" x="305" y="-864.5" font-family="Helvetica,sans-Serif" font-size="10.00">view.turtle.TurtleImage.unanimatedMove</text>
</a>
</g>
</g>
<!-- Node1&#45;&gt;Node27 -->
<g id="edge27" class="edge"><title>Node1&#45;&gt;Node27</title>
<path fill="none" stroke="midnightblue" d="M82.825,-502.248C83.0734,-558.133 91.9309,-753.4 200,-848 201.739,-849.523 203.559,-850.941 205.447,-852.263"/>
<polygon fill="midnightblue" stroke="midnightblue" points="203.748,-855.325 214.127,-857.453 207.341,-849.317 203.748,-855.325"/>
</g>
<!-- Node28 -->
<g id="node28" class="node"><title>Node28</title>
<g id="a_node28"><a xlink:href="../../d4/d93/classview_1_1turtle_1_1_turtle_pen.html#ae7dfe008f68eef44da5ee831b062952a" target="_top" xlink:title="view.turtle.TurtlePen.updatePen">
<polygon fill="white" stroke="black" points="222,-0.5 222,-19.5 388,-19.5 388,-0.5 222,-0.5"/>
<text text-anchor="middle" x="305" y="-7.5" font-family="Helvetica,sans-Serif" font-size="10.00">view.turtle.TurtlePen.updatePen</text>
</a>
</g>
</g>
<!-- Node1&#45;&gt;Node28 -->
<g id="edge29" class="edge"><title>Node1&#45;&gt;Node28</title>
<path fill="none" stroke="midnightblue" d="M84.723,-471.78C93.195,-399.672 132.755,-93.2855 200,-30 203.835,-26.391 208.113,-23.3392 212.688,-20.7651"/>
<polygon fill="midnightblue" stroke="midnightblue" points="214.314,-23.8672 221.812,-16.3828 211.283,-17.5573 214.314,-23.8672"/>
</g>
<!-- Node3 -->
<g id="node3" class="node"><title>Node3</title>
<g id="a_node3"><a xlink:href="../../dd/ddc/classview_1_1turtle_1_1_turtle_image.html#afad70374651ad6165f7d48b7bf268d71" target="_top" xlink:title="view.turtle.TurtleImage.create\lRotateTransition">
<polygon fill="white" stroke="black" points="446.5,-977 446.5,-1007 603.5,-1007 603.5,-977 446.5,-977"/>
<text text-anchor="start" x="454.5" y="-995" font-family="Helvetica,sans-Serif" font-size="10.00">view.turtle.TurtleImage.create</text>
<text text-anchor="middle" x="525" y="-984" font-family="Helvetica,sans-Serif" font-size="10.00">RotateTransition</text>
</a>
</g>
</g>
<!-- Node2&#45;&gt;Node3 -->
<g id="edge2" class="edge"><title>Node2&#45;&gt;Node3</title>
<path fill="none" stroke="midnightblue" d="M348.291,-952.506C376.232,-958.786 413.675,-967.202 446.816,-974.651"/>
<polygon fill="midnightblue" stroke="midnightblue" points="446.424,-978.15 456.948,-976.929 447.959,-971.321 446.424,-978.15"/>
</g>
<!-- Node4 -->
<g id="node4" class="node"><title>Node4</title>
<g id="a_node4"><a xlink:href="../../dd/ddc/classview_1_1turtle_1_1_turtle_image.html#a579bab57c4e802a8a119ba0253b58ed9" target="_top" xlink:title="view.turtle.TurtleImage.create\lTranslateTransition">
<polygon fill="white" stroke="black" points="446.5,-928 446.5,-958 603.5,-958 603.5,-928 446.5,-928"/>
<text text-anchor="start" x="454.5" y="-946" font-family="Helvetica,sans-Serif" font-size="10.00">view.turtle.TurtleImage.create</text>
<text text-anchor="middle" x="525" y="-935" font-family="Helvetica,sans-Serif" font-size="10.00">TranslateTransition</text>
</a>
</g>
</g>
<!-- Node2&#45;&gt;Node4 -->
<g id="edge3" class="edge"><title>Node2&#45;&gt;Node4</title>
<path fill="none" stroke="midnightblue" d="M403.523,-943C414.348,-943 425.325,-943 436.022,-943"/>
<polygon fill="midnightblue" stroke="midnightblue" points="436.177,-946.5 446.177,-943 436.177,-939.5 436.177,-946.5"/>
</g>
<!-- Node5 -->
<g id="node5" class="node"><title>Node5</title>
<g id="a_node5"><a xlink:href="../../dd/ddc/classview_1_1turtle_1_1_turtle_image.html#a68a832da6825e57061dbc49b30098291" target="_top" xlink:title="view.turtle.TurtleImage.pop\lUpdate">
<polygon fill="white" stroke="black" points="453,-879 453,-909 597,-909 597,-879 453,-879"/>
<text text-anchor="start" x="461" y="-897" font-family="Helvetica,sans-Serif" font-size="10.00">view.turtle.TurtleImage.pop</text>
<text text-anchor="middle" x="525" y="-886" font-family="Helvetica,sans-Serif" font-size="10.00">Update</text>
</a>
</g>
</g>
<!-- Node2&#45;&gt;Node5 -->
<g id="edge4" class="edge"><title>Node2&#45;&gt;Node5</title>
<path fill="none" stroke="midnightblue" d="M348.291,-933.494C376.232,-927.214 413.675,-918.798 446.816,-911.349"/>
<polygon fill="midnightblue" stroke="midnightblue" points="447.959,-914.679 456.948,-909.071 446.424,-907.85 447.959,-914.679"/>
</g>
<!-- Node5&#45;&gt;Node1 -->
<g id="edge5" class="edge"><title>Node5&#45;&gt;Node1</title>
<path fill="none" stroke="midnightblue" d="M452.813,-901.666C369.511,-909.052 238.093,-915.268 200,-886 138.905,-839.059 98.3489,-592.987 86.5574,-512.503"/>
<polygon fill="midnightblue" stroke="midnightblue" points="89.9754,-511.682 85.0853,-502.283 83.0469,-512.68 89.9754,-511.682"/>
</g>
<!-- Node7 -->
<g id="node7" class="node"><title>Node7</title>
<g id="a_node7"><a xlink:href="../../d4/d93/classview_1_1turtle_1_1_turtle_pen.html#a3eea64b5d17767f655096870f4a5850d" target="_top" xlink:title="view.turtle.TurtlePen.draw\lGappedLine">
<polygon fill="white" stroke="black" points="456.5,-814 456.5,-844 593.5,-844 593.5,-814 456.5,-814"/>
<text text-anchor="start" x="464.5" y="-832" font-family="Helvetica,sans-Serif" font-size="10.00">view.turtle.TurtlePen.draw</text>
<text text-anchor="middle" x="525" y="-821" font-family="Helvetica,sans-Serif" font-size="10.00">GappedLine</text>
</a>
</g>
</g>
<!-- Node6&#45;&gt;Node7 -->
<g id="edge7" class="edge"><title>Node6&#45;&gt;Node7</title>
<path fill="none" stroke="midnightblue" d="M383.165,-829C403.598,-829 425.666,-829 446.135,-829"/>
<polygon fill="midnightblue" stroke="midnightblue" points="446.358,-832.5 456.358,-829 446.358,-825.5 446.358,-832.5"/>
</g>
<!-- Node8 -->
<g id="node8" class="node"><title>Node8</title>
<g id="a_node8"><a xlink:href="../../d4/d93/classview_1_1turtle_1_1_turtle_pen.html#a78a412ae5c294fd37981146020ea4009" target="_top" xlink:title="view.turtle.TurtlePen.generate\lDashVectorArray">
<polygon fill="white" stroke="black" points="640,-814 640,-844 798,-844 798,-814 640,-814"/>
<text text-anchor="start" x="648" y="-832" font-family="Helvetica,sans-Serif" font-size="10.00">view.turtle.TurtlePen.generate</text>
<text text-anchor="middle" x="719" y="-821" font-family="Helvetica,sans-Serif" font-size="10.00">DashVectorArray</text>
</a>
</g>
</g>
<!-- Node7&#45;&gt;Node8 -->
<g id="edge8" class="edge"><title>Node7&#45;&gt;Node8</title>
<path fill="none" stroke="midnightblue" d="M593.692,-829C605.332,-829 617.582,-829 629.668,-829"/>
<polygon fill="midnightblue" stroke="midnightblue" points="629.766,-832.5 639.766,-829 629.766,-825.5 629.766,-832.5"/>
</g>
<!-- Node9 -->
<g id="node9" class="node"><title>Node9</title>
<g id="a_node9"><a xlink:href="../../d4/d93/classview_1_1turtle_1_1_turtle_pen.html#a1553953625d014db95e9af6faa83e667" target="_top" xlink:title="view.turtle.TurtlePen.get\lUnitVector">
<polygon fill="white" stroke="black" points="834,-814 834,-844 964,-844 964,-814 834,-814"/>
<text text-anchor="start" x="842" y="-832" font-family="Helvetica,sans-Serif" font-size="10.00">view.turtle.TurtlePen.get</text>
<text text-anchor="middle" x="899" y="-821" font-family="Helvetica,sans-Serif" font-size="10.00">UnitVector</text>
</a>
</g>
</g>
<!-- Node8&#45;&gt;Node9 -->
<g id="edge9" class="edge"><title>Node8&#45;&gt;Node9</title>
<path fill="none" stroke="midnightblue" d="M798.073,-829C806.574,-829 815.209,-829 823.663,-829"/>
<polygon fill="midnightblue" stroke="midnightblue" points="823.864,-832.5 833.864,-829 823.864,-825.5 823.864,-832.5"/>
</g>
<!-- Node27&#45;&gt;Node5 -->
<g id="edge28" class="edge"><title>Node27&#45;&gt;Node5</title>
<path fill="none" stroke="midnightblue" d="M382.859,-876.519C402.275,-878.924 423.186,-881.514 442.808,-883.944"/>
<polygon fill="midnightblue" stroke="midnightblue" points="442.582,-887.443 452.937,-885.199 443.443,-880.496 442.582,-887.443"/>
</g>
</g>
</svg>
