<?xml version="1.0" encoding="UTF-8" standalone="no"?>
<!DOCTYPE svg PUBLIC "-//W3C//DTD SVG 1.1//EN"
 "http://www.w3.org/Graphics/SVG/1.1/DTD/svg11.dtd">
<!-- Generated by graphviz version 2.36.0 (20140111.2315)
 -->
<!-- Title: view.turtle.TurtleImage.setPenUpDown Pages: 1 -->
<svg width="540pt" height="38pt"
 viewBox="0.00 0.00 540.00 38.00" xmlns="http://www.w3.org/2000/svg" xmlns:xlink="http://www.w3.org/1999/xlink">
<g id="graph0" class="graph" transform="scale(1 1) rotate(0) translate(4 34)">
<title>view.turtle.TurtleImage.setPenUpDown</title>
<polygon fill="white" stroke="none" points="-4,4 -4,-34 536,-34 536,4 -4,4"/>
<!-- Node1 -->
<g id="node1" class="node"><title>Node1</title>
<polygon fill="#bfbfbf" stroke="black" points="0.5,-0 0.5,-30 141.5,-30 141.5,-0 0.5,-0"/>
<text text-anchor="start" x="8.5" y="-18" font-family="Helvetica,sans-Serif" font-size="10.00">view.turtle.TurtleImage.set</text>
<text text-anchor="middle" x="71" y="-7" font-family="Helvetica,sans-Serif" font-size="10.00">PenUpDown</text>
</g>
<!-- Node2 -->
<g id="node2" class="node"><title>Node2</title>
<g id="a_node2"><a xlink:href="../../dd/ddc/classview_1_1turtle_1_1_turtle_image.html#a04e2f41614019a2728c46bfbeeafeaf5" target="_top" xlink:title="view.turtle.TurtleImage.initializeMenu">
<polygon fill="white" stroke="black" points="178.5,-5.5 178.5,-24.5 369.5,-24.5 369.5,-5.5 178.5,-5.5"/>
<text text-anchor="middle" x="274" y="-12.5" font-family="Helvetica,sans-Serif" font-size="10.00">view.turtle.TurtleImage.initializeMenu</text>
</a>
</g>
</g>
<!-- Node1&#45;&gt;Node2 -->
<g id="edge1" class="edge"><title>Node1&#45;&gt;Node2</title>
<path fill="none" stroke="midnightblue" d="M151.817,-15C160.504,-15 169.406,-15 178.248,-15"/>
<polygon fill="midnightblue" stroke="midnightblue" points="151.736,-11.5001 141.736,-15 151.736,-18.5001 151.736,-11.5001"/>
</g>
<!-- Node3 -->
<g id="node3" class="node"><title>Node3</title>
<g id="a_node3"><a xlink:href="../../dd/ddc/classview_1_1turtle_1_1_turtle_image.html#a263168e1587bc3c507af040a4b17c308" target="_top" xlink:title="view.turtle.TurtleImage.\lTurtleImage">
<polygon fill="white" stroke="black" points="406,-0 406,-30 532,-30 532,-0 406,-0"/>
<text text-anchor="start" x="414" y="-18" font-family="Helvetica,sans-Serif" font-size="10.00">view.turtle.TurtleImage.</text>
<text text-anchor="middle" x="469" y="-7" font-family="Helvetica,sans-Serif" font-size="10.00">TurtleImage</text>
</a>
</g>
</g>
<!-- Node2&#45;&gt;Node3 -->
<g id="edge2" class="edge"><title>Node2&#45;&gt;Node3</title>
<path fill="none" stroke="midnightblue" d="M379.621,-15C388.546,-15 397.378,-15 405.808,-15"/>
<polygon fill="midnightblue" stroke="midnightblue" points="379.521,-11.5001 369.521,-15 379.521,-18.5001 379.521,-11.5001"/>
</g>
</g>
</svg>
