<?xml version="1.0" encoding="UTF-8" standalone="no"?>
<!DOCTYPE svg PUBLIC "-//W3C//DTD SVG 1.1//EN"
 "http://www.w3.org/Graphics/SVG/1.1/DTD/svg11.dtd">
<!-- Generated by graphviz version 2.36.0 (20140111.2315)
 -->
<!-- Title: view.turtle.TurtleImage.initializeMenu Pages: 1 -->
<!--zoomable 381 -->
<svg id="main" version="1.1" xmlns="http://www.w3.org/2000/svg" xmlns:xlink="http://www.w3.org/1999/xlink" xml:space="preserve" onload="init(evt)">
<style type="text/css"><![CDATA[
.edge:hover path { stroke: red; }
.edge:hover polygon { stroke: red; fill: red; }
]]></style>
<script type="text/javascript"><![CDATA[
var edges = document.getElementsByTagName('g');
if (edges && edges.length) {
  for (var i=0;i<edges.length;i++) {
    if (edges[i].id.substr(0,4)=='edge') {
      edges[i].setAttribute('class','edge');
    }
  }
}
]]></script>
        <defs>
                <circle id="rim" cx="0" cy="0" r="7"/>
                <circle id="rim2" cx="0" cy="0" r="3.5"/>
                <g id="zoomPlus">
                        <use xlink:href="#rim" fill="#404040">
                                <set attributeName="fill" to="#808080" begin="zoomplus.mouseover" end="zoomplus.mouseout"/>
                        </use>
                        <path d="M-4,0h8M0,-4v8" fill="none" stroke="white" stroke-width="1.5" pointer-events="none"/>
                </g>
                <g id="zoomMin">
                        <use xlink:href="#rim" fill="#404040">
                                <set attributeName="fill" to="#808080" begin="zoomminus.mouseover" end="zoomminus.mouseout"/>
                        </use>
                        <path d="M-4,0h8" fill="none" stroke="white" stroke-width="1.5" pointer-events="none"/>
                </g>
                <g id="dirArrow">
                        <path fill="none" stroke="white" stroke-width="1.5" d="M0,-3.0v7 M-2.5,-0.5L0,-3.0L2.5,-0.5"/>
                </g>
               <g id="resetDef">
                       <use xlink:href="#rim2" fill="#404040">
                               <set attributeName="fill" to="#808080" begin="reset.mouseover" end="reset.mouseout"/>
                       </use>
               </g>
        </defs>

<script type="text/javascript">
var viewWidth = 574;
var viewHeight = 381;
var sectionId = 'dynsection-10';
</script>
<script xlink:href="../../svgpan.js"/>
<svg id="graph" class="graph">
<g id="viewport">
<title>view.turtle.TurtleImage.initializeMenu</title>
<polygon fill="white" stroke="none" points="-4,4 -4,-377 570,-377 570,4 -4,4"/>
<!-- Node1 -->
<g id="node1" class="node"><title>Node1</title>
<polygon fill="#bfbfbf" stroke="black" points="0.5,-176.5 0.5,-195.5 191.5,-195.5 191.5,-176.5 0.5,-176.5"/>
<text text-anchor="middle" x="96" y="-183.5" font-family="Helvetica,sans-Serif" font-size="10.00">view.turtle.TurtleImage.initializeMenu</text>
</g>
<!-- Node2 -->
<g id="node2" class="node"><title>Node2</title>
<g id="a_node2"><a xlink:href="../../dd/ddc/classview_1_1turtle_1_1_turtle_image.html#a90023b9af10fa08debafd5c787806382" target="_top" xlink:title="view.turtle.TurtleImage.make\lMenuItem">
<polygon fill="white" stroke="black" points="229.5,-343 229.5,-373 382.5,-373 382.5,-343 229.5,-343"/>
<text text-anchor="start" x="237.5" y="-361" font-family="Helvetica,sans-Serif" font-size="10.00">view.turtle.TurtleImage.make</text>
<text text-anchor="middle" x="306" y="-350" font-family="Helvetica,sans-Serif" font-size="10.00">MenuItem</text>
</a>
</g>
</g>
<!-- Node1&#45;&gt;Node2 -->
<g id="edge1" class="edge"><title>Node1&#45;&gt;Node2</title>
<path fill="none" stroke="midnightblue" d="M103.049,-195.843C119.667,-222.079 168.749,-294.315 228,-333 231.126,-335.041 234.432,-336.928 237.848,-338.67"/>
<polygon fill="midnightblue" stroke="midnightblue" points="236.55,-341.926 247.095,-342.952 239.491,-335.574 236.55,-341.926"/>
</g>
<!-- Node3 -->
<g id="node3" class="node"><title>Node3</title>
<g id="a_node3"><a xlink:href="../../dd/ddc/classview_1_1turtle_1_1_turtle_image.html#ad597408f95d6d36d8756c4990a2343fe" target="_top" xlink:title="view.turtle.TurtleImage.pop\lMyMenu">
<polygon fill="white" stroke="black" points="234,-294 234,-324 378,-324 378,-294 234,-294"/>
<text text-anchor="start" x="242" y="-312" font-family="Helvetica,sans-Serif" font-size="10.00">view.turtle.TurtleImage.pop</text>
<text text-anchor="middle" x="306" y="-301" font-family="Helvetica,sans-Serif" font-size="10.00">MyMenu</text>
</a>
</g>
</g>
<!-- Node1&#45;&gt;Node3 -->
<g id="edge2" class="edge"><title>Node1&#45;&gt;Node3</title>
<path fill="none" stroke="midnightblue" d="M107.393,-195.7C128.557,-214.995 178.825,-258.517 228,-284 232.297,-286.227 236.832,-288.307 241.462,-290.24"/>
<polygon fill="midnightblue" stroke="midnightblue" points="240.468,-293.609 251.055,-293.999 243.022,-287.092 240.468,-293.609"/>
</g>
<!-- Node4 -->
<g id="node4" class="node"><title>Node4</title>
<g id="a_node4"><a xlink:href="../../dd/ddc/classview_1_1turtle_1_1_turtle_image.html#aef5a93a2c3465ac4261bf52b9f9c36de" target="_top" xlink:title="view.turtle.TurtleImage.select\lImageFile">
<polygon fill="white" stroke="black" points="228.5,-245 228.5,-275 383.5,-275 383.5,-245 228.5,-245"/>
<text text-anchor="start" x="236.5" y="-263" font-family="Helvetica,sans-Serif" font-size="10.00">view.turtle.TurtleImage.select</text>
<text text-anchor="middle" x="306" y="-252" font-family="Helvetica,sans-Serif" font-size="10.00">ImageFile</text>
</a>
</g>
</g>
<!-- Node1&#45;&gt;Node4 -->
<g id="edge3" class="edge"><title>Node1&#45;&gt;Node4</title>
<path fill="none" stroke="midnightblue" d="M121.51,-195.536C147.742,-205.655 190.633,-221.952 228,-235 234.419,-237.241 241.162,-239.528 247.876,-241.764"/>
<polygon fill="midnightblue" stroke="midnightblue" points="247.06,-245.18 257.653,-244.99 249.254,-238.533 247.06,-245.18"/>
</g>
<!-- Node5 -->
<g id="node5" class="node"><title>Node5</title>
<g id="a_node5"><a xlink:href="../../dd/ddc/classview_1_1turtle_1_1_turtle_image.html#afb36381593a3955aefeb6a61b7c9a709" target="_top" xlink:title="view.turtle.TurtleImage.select\lPenColor">
<polygon fill="white" stroke="black" points="228.5,-196 228.5,-226 383.5,-226 383.5,-196 228.5,-196"/>
<text text-anchor="start" x="236.5" y="-214" font-family="Helvetica,sans-Serif" font-size="10.00">view.turtle.TurtleImage.select</text>
<text text-anchor="middle" x="306" y="-203" font-family="Helvetica,sans-Serif" font-size="10.00">PenColor</text>
</a>
</g>
</g>
<!-- Node1&#45;&gt;Node5 -->
<g id="edge4" class="edge"><title>Node1&#45;&gt;Node5</title>
<path fill="none" stroke="midnightblue" d="M176.229,-195.523C189.994,-197.177 204.374,-198.906 218.326,-200.582"/>
<polygon fill="midnightblue" stroke="midnightblue" points="218.048,-204.074 228.394,-201.793 218.883,-197.124 218.048,-204.074"/>
</g>
<!-- Node6 -->
<g id="node6" class="node"><title>Node6</title>
<g id="a_node6"><a xlink:href="../../dd/ddc/classview_1_1turtle_1_1_turtle_image.html#a46a855e3a400fc5f6050cad58859cf76" target="_top" xlink:title="view.turtle.TurtleImage.set\lLineStyleMenu">
<polygon fill="white" stroke="black" points="235.5,-147 235.5,-177 376.5,-177 376.5,-147 235.5,-147"/>
<text text-anchor="start" x="243.5" y="-165" font-family="Helvetica,sans-Serif" font-size="10.00">view.turtle.TurtleImage.set</text>
<text text-anchor="middle" x="306" y="-154" font-family="Helvetica,sans-Serif" font-size="10.00">LineStyleMenu</text>
</a>
</g>
</g>
<!-- Node1&#45;&gt;Node6 -->
<g id="edge5" class="edge"><title>Node1&#45;&gt;Node6</title>
<path fill="none" stroke="midnightblue" d="M179.506,-176.48C194.527,-174.747 210.174,-172.941 225.118,-171.217"/>
<polygon fill="midnightblue" stroke="midnightblue" points="225.802,-174.662 235.335,-170.038 225,-167.708 225.802,-174.662"/>
</g>
<!-- Node11 -->
<g id="node11" class="node"><title>Node11</title>
<g id="a_node11"><a xlink:href="../../dd/ddc/classview_1_1turtle_1_1_turtle_image.html#afa13a52ae70e4fdfa1070b099d85b54d" target="_top" xlink:title="view.turtle.TurtleImage.set\lLineWidthMenu">
<polygon fill="white" stroke="black" points="235.5,-98 235.5,-128 376.5,-128 376.5,-98 235.5,-98"/>
<text text-anchor="start" x="243.5" y="-116" font-family="Helvetica,sans-Serif" font-size="10.00">view.turtle.TurtleImage.set</text>
<text text-anchor="middle" x="306" y="-105" font-family="Helvetica,sans-Serif" font-size="10.00">LineWidthMenu</text>
</a>
</g>
</g>
<!-- Node1&#45;&gt;Node11 -->
<g id="edge10" class="edge"><title>Node1&#45;&gt;Node11</title>
<path fill="none" stroke="midnightblue" d="M121.48,-176.377C147.686,-166.185 190.556,-149.827 228,-137 233.601,-135.081 239.452,-133.142 245.318,-131.241"/>
<polygon fill="midnightblue" stroke="midnightblue" points="246.707,-134.471 255.163,-128.088 244.572,-127.805 246.707,-134.471"/>
</g>
<!-- Node12 -->
<g id="node12" class="node"><title>Node12</title>
<g id="a_node12"><a xlink:href="../../dd/ddc/classview_1_1turtle_1_1_turtle_image.html#a861a4cd4d81b8040540d27bb17172a52" target="_top" xlink:title="view.turtle.TurtleImage.set\lPenUpDown">
<polygon fill="white" stroke="black" points="235.5,-49 235.5,-79 376.5,-79 376.5,-49 235.5,-49"/>
<text text-anchor="start" x="243.5" y="-67" font-family="Helvetica,sans-Serif" font-size="10.00">view.turtle.TurtleImage.set</text>
<text text-anchor="middle" x="306" y="-56" font-family="Helvetica,sans-Serif" font-size="10.00">PenUpDown</text>
</a>
</g>
</g>
<!-- Node1&#45;&gt;Node12 -->
<g id="edge11" class="edge"><title>Node1&#45;&gt;Node12</title>
<path fill="none" stroke="midnightblue" d="M107.368,-176.25C128.486,-156.867 178.676,-113.192 228,-88 231.546,-86.1888 235.255,-84.4838 239.046,-82.8839"/>
<polygon fill="midnightblue" stroke="midnightblue" points="240.572,-86.0443 248.593,-79.1223 238.006,-79.5315 240.572,-86.0443"/>
</g>
<!-- Node13 -->
<g id="node13" class="node"><title>Node13</title>
<g id="a_node13"><a xlink:href="../../dd/ddc/classview_1_1turtle_1_1_turtle_image.html#a9466dd0cc8b23a1f7f1c660dda958c88" target="_top" xlink:title="view.turtle.TurtleImage.toggle\lTurtle">
<polygon fill="white" stroke="black" points="228,-0 228,-30 384,-30 384,-0 228,-0"/>
<text text-anchor="start" x="236" y="-18" font-family="Helvetica,sans-Serif" font-size="10.00">view.turtle.TurtleImage.toggle</text>
<text text-anchor="middle" x="306" y="-7" font-family="Helvetica,sans-Serif" font-size="10.00">Turtle</text>
</a>
</g>
</g>
<!-- Node1&#45;&gt;Node13 -->
<g id="edge12" class="edge"><title>Node1&#45;&gt;Node13</title>
<path fill="none" stroke="midnightblue" d="M102.786,-176.497C119.108,-150.488 168.235,-77.5201 228,-39 230.565,-37.3465 233.252,-35.8007 236.021,-34.356"/>
<polygon fill="midnightblue" stroke="midnightblue" points="237.542,-37.5086 245.095,-30.079 234.557,-31.1767 237.542,-37.5086"/>
</g>
<!-- Node7 -->
<g id="node7" class="node"><title>Node7</title>
<g id="a_node7"><a xlink:href="../../d4/d93/classview_1_1turtle_1_1_turtle_pen.html#a242aa76ca677c1f6fc0737bf8b7e8efa" target="_top" xlink:title="view.turtle.TurtlePen.set\lSolid">
<polygon fill="white" stroke="black" points="428.5,-220 428.5,-250 557.5,-250 557.5,-220 428.5,-220"/>
<text text-anchor="start" x="436.5" y="-238" font-family="Helvetica,sans-Serif" font-size="10.00">view.turtle.TurtlePen.set</text>
<text text-anchor="middle" x="493" y="-227" font-family="Helvetica,sans-Serif" font-size="10.00">Solid</text>
</a>
</g>
</g>
<!-- Node6&#45;&gt;Node7 -->
<g id="edge6" class="edge"><title>Node6&#45;&gt;Node7</title>
<path fill="none" stroke="midnightblue" d="M359.474,-177.045C367.818,-180.003 376.248,-183.339 384,-187 401.168,-195.108 402.915,-201.718 420,-210 424.571,-212.216 429.39,-214.329 434.281,-216.321"/>
<polygon fill="midnightblue" stroke="midnightblue" points="433.137,-219.632 443.726,-219.997 435.676,-213.109 433.137,-219.632"/>
</g>
<!-- Node8 -->
<g id="node8" class="node"><title>Node8</title>
<g id="a_node8"><a xlink:href="../../d4/d93/classview_1_1turtle_1_1_turtle_pen.html#acc40539aea0be30a2f367149d938817b" target="_top" xlink:title="view.turtle.TurtlePen.set\lDashed">
<polygon fill="white" stroke="black" points="428.5,-171 428.5,-201 557.5,-201 557.5,-171 428.5,-171"/>
<text text-anchor="start" x="436.5" y="-189" font-family="Helvetica,sans-Serif" font-size="10.00">view.turtle.TurtlePen.set</text>
<text text-anchor="middle" x="493" y="-178" font-family="Helvetica,sans-Serif" font-size="10.00">Dashed</text>
</a>
</g>
</g>
<!-- Node6&#45;&gt;Node8 -->
<g id="edge7" class="edge"><title>Node6&#45;&gt;Node8</title>
<path fill="none" stroke="midnightblue" d="M376.677,-171.039C390.359,-172.814 404.751,-174.681 418.552,-176.472"/>
<polygon fill="midnightblue" stroke="midnightblue" points="418.111,-179.944 428.478,-177.759 419.012,-173.002 418.111,-179.944"/>
</g>
<!-- Node9 -->
<g id="node9" class="node"><title>Node9</title>
<g id="a_node9"><a xlink:href="../../d4/d93/classview_1_1turtle_1_1_turtle_pen.html#a7f86c7b312b141e82c695363ce59acce" target="_top" xlink:title="view.turtle.TurtlePen.set\lDotted">
<polygon fill="white" stroke="black" points="428.5,-122 428.5,-152 557.5,-152 557.5,-122 428.5,-122"/>
<text text-anchor="start" x="436.5" y="-140" font-family="Helvetica,sans-Serif" font-size="10.00">view.turtle.TurtlePen.set</text>
<text text-anchor="middle" x="493" y="-129" font-family="Helvetica,sans-Serif" font-size="10.00">Dotted</text>
</a>
</g>
</g>
<!-- Node6&#45;&gt;Node9 -->
<g id="edge8" class="edge"><title>Node6&#45;&gt;Node9</title>
<path fill="none" stroke="midnightblue" d="M376.677,-152.584C390.359,-150.735 404.751,-148.79 418.552,-146.925"/>
<polygon fill="midnightblue" stroke="midnightblue" points="419.037,-150.392 428.478,-145.584 418.099,-143.455 419.037,-150.392"/>
</g>
<!-- Node10 -->
<g id="node10" class="node"><title>Node10</title>
<g id="a_node10"><a xlink:href="../../d4/d93/classview_1_1turtle_1_1_turtle_pen.html#a3fdf6ec7e6ebd59e5e0ef1ef501d0a6c" target="_top" xlink:title="view.turtle.TurtlePen.set\lDashDot">
<polygon fill="white" stroke="black" points="428.5,-73 428.5,-103 557.5,-103 557.5,-73 428.5,-73"/>
<text text-anchor="start" x="436.5" y="-91" font-family="Helvetica,sans-Serif" font-size="10.00">view.turtle.TurtlePen.set</text>
<text text-anchor="middle" x="493" y="-80" font-family="Helvetica,sans-Serif" font-size="10.00">DashDot</text>
</a>
</g>
</g>
<!-- Node6&#45;&gt;Node10 -->
<g id="edge9" class="edge"><title>Node6&#45;&gt;Node10</title>
<path fill="none" stroke="midnightblue" d="M360.418,-146.918C368.477,-143.999 376.571,-140.685 384,-137 401.451,-128.344 402.583,-120.724 420,-112 423.711,-110.141 427.599,-108.376 431.564,-106.711"/>
<polygon fill="midnightblue" stroke="midnightblue" points="432.902,-109.945 440.909,-103.006 430.323,-103.438 432.902,-109.945"/>
</g>
<!-- Node14 -->
<g id="node14" class="node"><title>Node14</title>
<g id="a_node14"><a xlink:href="../../dd/ddc/classview_1_1turtle_1_1_turtle_image.html#a6798d71b6457a6b70b472171e64f11f2" target="_top" xlink:title="view.turtle.TurtleImage.hide">
<polygon fill="white" stroke="black" points="420,-5.5 420,-24.5 566,-24.5 566,-5.5 420,-5.5"/>
<text text-anchor="middle" x="493" y="-12.5" font-family="Helvetica,sans-Serif" font-size="10.00">view.turtle.TurtleImage.hide</text>
</a>
</g>
</g>
<!-- Node13&#45;&gt;Node14 -->
<g id="edge13" class="edge"><title>Node13&#45;&gt;Node14</title>
<path fill="none" stroke="midnightblue" d="M384.117,-15C392.505,-15 401.066,-15 409.515,-15"/>
<polygon fill="midnightblue" stroke="midnightblue" points="409.745,-18.5001 419.745,-15 409.745,-11.5001 409.745,-18.5001"/>
</g>
</g>
</svg>
        <g id="navigator" transform="translate(0 0)" fill="#404254">
                <rect fill="#f2f5e9" fill-opacity="0.5" stroke="#606060" stroke-width=".5" x="0" y="0" width="60" height="60"/>
                <use id="zoomplus" xlink:href="#zoomPlus" x="17" y="9" onmousedown="handleZoom(evt,'in')"/>
                <use id="zoomminus" xlink:href="#zoomMin" x="42" y="9" onmousedown="handleZoom(evt,'out')"/>
                <use id="reset" xlink:href="#resetDef" x="30" y="36" onmousedown="handleReset()"/>
                <g id="arrowUp" xlink:href="#dirArrow" transform="translate(30 24)" onmousedown="handlePan(0,-1)">
                  <use xlink:href="#rim" fill="#404040">
                        <set attributeName="fill" to="#808080" begin="arrowUp.mouseover" end="arrowUp.mouseout"/>
                  </use>
                  <path fill="none" stroke="white" stroke-width="1.5" d="M0,-3.0v7 M-2.5,-0.5L0,-3.0L2.5,-0.5"/>
                </g>
                <g id="arrowRight" xlink:href="#dirArrow" transform="rotate(90) translate(36 -43)" onmousedown="handlePan(1,0)">
                  <use xlink:href="#rim" fill="#404040">
                        <set attributeName="fill" to="#808080" begin="arrowRight.mouseover" end="arrowRight.mouseout"/>
                  </use>
                  <path fill="none" stroke="white" stroke-width="1.5" d="M0,-3.0v7 M-2.5,-0.5L0,-3.0L2.5,-0.5"/>
                </g>
                <g id="arrowDown" xlink:href="#dirArrow" transform="rotate(180) translate(-30 -48)" onmousedown="handlePan(0,1)">
                  <use xlink:href="#rim" fill="#404040">
                        <set attributeName="fill" to="#808080" begin="arrowDown.mouseover" end="arrowDown.mouseout"/>
                  </use>
                  <path fill="none" stroke="white" stroke-width="1.5" d="M0,-3.0v7 M-2.5,-0.5L0,-3.0L2.5,-0.5"/>
                </g>
                <g id="arrowLeft" xlink:href="#dirArrow" transform="rotate(270) translate(-36 17)" onmousedown="handlePan(-1,0)">
                  <use xlink:href="#rim" fill="#404040">
                        <set attributeName="fill" to="#808080" begin="arrowLeft.mouseover" end="arrowLeft.mouseout"/>
                  </use>
                  <path fill="none" stroke="white" stroke-width="1.5" d="M0,-3.0v7 M-2.5,-0.5L0,-3.0L2.5,-0.5"/>
                </g>
        </g>
        <svg viewBox="0 0 15 15" width="100%" height="30px" preserveAspectRatio="xMaxYMin meet">
         <g id="arrow_out" transform="scale(0.3 0.3)">
          <a xlink:href="classview_1_1turtle_1_1_turtle_image_a04e2f41614019a2728c46bfbeeafeaf5_cgraph_org.svg" target="_base">
           <rect id="button" ry="5" rx="5" y="6" x="6" height="38" width="38"
                fill="#f2f5e9" fill-opacity="0.5" stroke="#606060" stroke-width="1.0"/>
           <path id="arrow"
             d="M 11.500037,31.436501 C 11.940474,20.09759 22.043105,11.32322 32.158766,21.979434 L 37.068811,17.246167 C 37.068811,17.246167 37.088388,32 37.088388,32 L 22.160133,31.978069 C 22.160133,31.978069 26.997745,27.140456 26.997745,27.140456 C 18.528582,18.264221 13.291696,25.230495 11.500037,31.436501 z"
             style="fill:#404040;"/>
          </a>
         </g>
        </svg>
</svg>
