<?xml version="1.0" encoding="UTF-8" standalone="no"?>
<!DOCTYPE svg PUBLIC "-//W3C//DTD SVG 1.1//EN"
 "http://www.w3.org/Graphics/SVG/1.1/DTD/svg11.dtd">
<!-- Generated by graphviz version 2.36.0 (20140111.2315)
 -->
<!-- Title: view.turtle.TurtleImage.animatedMove Pages: 1 -->
<svg width="1604pt" height="131pt"
 viewBox="0.00 0.00 1604.00 131.00" xmlns="http://www.w3.org/2000/svg" xmlns:xlink="http://www.w3.org/1999/xlink">
<g id="graph0" class="graph" transform="scale(1 1) rotate(0) translate(4 127)">
<title>view.turtle.TurtleImage.animatedMove</title>
<polygon fill="white" stroke="none" points="-4,4 -4,-127 1600,-127 1600,4 -4,4"/>
<!-- Node1 -->
<g id="node1" class="node"><title>Node1</title>
<polygon fill="#bfbfbf" stroke="black" points="0.5,-27.5 0.5,-46.5 197.5,-46.5 197.5,-27.5 0.5,-27.5"/>
<text text-anchor="middle" x="99" y="-34.5" font-family="Helvetica,sans-Serif" font-size="10.00">view.turtle.TurtleImage.animatedMove</text>
</g>
<!-- Node2 -->
<g id="node2" class="node"><title>Node2</title>
<g id="a_node2"><a xlink:href="../../dd/ddc/classview_1_1turtle_1_1_turtle_image.html#afd9abc603b052b7c9c14108400109917" target="_top" xlink:title="view.turtle.TurtleImage.process\lUpdate">
<polygon fill="white" stroke="black" points="234,-0 234,-30 398,-30 398,-0 234,-0"/>
<text text-anchor="start" x="242" y="-18" font-family="Helvetica,sans-Serif" font-size="10.00">view.turtle.TurtleImage.process</text>
<text text-anchor="middle" x="316" y="-7" font-family="Helvetica,sans-Serif" font-size="10.00">Update</text>
</a>
</g>
</g>
<!-- Node1&#45;&gt;Node2 -->
<g id="edge1" class="edge"><title>Node1&#45;&gt;Node2</title>
<path fill="none" stroke="midnightblue" d="M203.311,-26.4287C213.601,-25.3757 223.942,-24.3175 233.957,-23.2928"/>
<polygon fill="midnightblue" stroke="midnightblue" points="202.643,-22.9786 193.052,-27.4784 203.356,-29.9422 202.643,-22.9786"/>
</g>
<!-- Node3 -->
<g id="node3" class="node"><title>Node3</title>
<g id="a_node3"><a xlink:href="../../dd/ddc/classview_1_1turtle_1_1_turtle_image.html#a68a832da6825e57061dbc49b30098291" target="_top" xlink:title="view.turtle.TurtleImage.pop\lUpdate">
<polygon fill="white" stroke="black" points="434,-44 434,-74 578,-74 578,-44 434,-44"/>
<text text-anchor="start" x="442" y="-62" font-family="Helvetica,sans-Serif" font-size="10.00">view.turtle.TurtleImage.pop</text>
<text text-anchor="middle" x="506" y="-51" font-family="Helvetica,sans-Serif" font-size="10.00">Update</text>
</a>
</g>
</g>
<!-- Node2&#45;&gt;Node3 -->
<g id="edge2" class="edge"><title>Node2&#45;&gt;Node3</title>
<path fill="none" stroke="midnightblue" d="M391.247,-32.3769C407.63,-36.2112 424.851,-40.2418 440.797,-43.9738"/>
<polygon fill="midnightblue" stroke="midnightblue" points="391.708,-28.8902 381.173,-30.0192 390.112,-35.7061 391.708,-28.8902"/>
</g>
<!-- Node3&#45;&gt;Node1 -->
<g id="edge9" class="edge"><title>Node3&#45;&gt;Node1</title>
<path fill="none" stroke="midnightblue" d="M423.468,-54.5711C358.255,-51.0287 266.619,-46.0509 197.523,-42.2975"/>
<polygon fill="midnightblue" stroke="midnightblue" points="423.525,-58.0792 433.7,-55.1269 423.904,-51.0896 423.525,-58.0792"/>
</g>
<!-- Node4 -->
<g id="node4" class="node"><title>Node4</title>
<g id="a_node4"><a xlink:href="../../d5/d4b/classview_1_1components_1_1_turtle_window.html#a84744ff6c257318689fc0e014350fb05" target="_top" xlink:title="view.components.TurtleWindow.step\lDebug">
<polygon fill="white" stroke="black" points="626,-93 626,-123 812,-123 812,-93 626,-93"/>
<text text-anchor="start" x="634" y="-111" font-family="Helvetica,sans-Serif" font-size="10.00">view.components.TurtleWindow.step</text>
<text text-anchor="middle" x="719" y="-100" font-family="Helvetica,sans-Serif" font-size="10.00">Debug</text>
</a>
</g>
</g>
<!-- Node3&#45;&gt;Node4 -->
<g id="edge3" class="edge"><title>Node3&#45;&gt;Node4</title>
<path fill="none" stroke="midnightblue" d="M581.629,-76.3309C605.055,-81.7712 630.709,-87.7285 653.382,-92.9938"/>
<polygon fill="midnightblue" stroke="midnightblue" points="582.273,-72.8875 571.741,-74.0346 580.69,-79.706 582.273,-72.8875"/>
</g>
<!-- Node9 -->
<g id="node9" class="node"><title>Node9</title>
<g id="a_node9"><a xlink:href="../../dd/ddc/classview_1_1turtle_1_1_turtle_image.html#a02651da4da9b4b48bd91656f734ccb03" target="_top" xlink:title="view.turtle.TurtleImage.add\lUpdate">
<polygon fill="white" stroke="black" points="647,-44 647,-74 791,-74 791,-44 647,-44"/>
<text text-anchor="start" x="655" y="-62" font-family="Helvetica,sans-Serif" font-size="10.00">view.turtle.TurtleImage.add</text>
<text text-anchor="middle" x="719" y="-51" font-family="Helvetica,sans-Serif" font-size="10.00">Update</text>
</a>
</g>
</g>
<!-- Node3&#45;&gt;Node9 -->
<g id="edge8" class="edge"><title>Node3&#45;&gt;Node9</title>
<path fill="none" stroke="midnightblue" d="M588.398,-59C607.656,-59 628.045,-59 646.809,-59"/>
<polygon fill="midnightblue" stroke="midnightblue" points="588.141,-55.5001 578.141,-59 588.141,-62.5001 588.141,-55.5001"/>
</g>
<!-- Node10 -->
<g id="node10" class="node"><title>Node10</title>
<g id="a_node10"><a xlink:href="../../dd/ddc/classview_1_1turtle_1_1_turtle_image.html#aca0a62f113534161f725da472e1f4d9f" target="_top" xlink:title="view.turtle.TurtleImage.unanimatedMove">
<polygon fill="white" stroke="black" points="614.5,-5.5 614.5,-24.5 823.5,-24.5 823.5,-5.5 614.5,-5.5"/>
<text text-anchor="middle" x="719" y="-12.5" font-family="Helvetica,sans-Serif" font-size="10.00">view.turtle.TurtleImage.unanimatedMove</text>
</a>
</g>
</g>
<!-- Node3&#45;&gt;Node10 -->
<g id="edge10" class="edge"><title>Node3&#45;&gt;Node10</title>
<path fill="none" stroke="midnightblue" d="M578.875,-41.6993C590.593,-39.0248 602.619,-36.3677 614,-34 629.903,-30.6915 647.24,-27.3998 663.118,-24.5088"/>
<polygon fill="midnightblue" stroke="midnightblue" points="578.084,-38.2896 569.124,-43.944 579.655,-45.1112 578.084,-38.2896"/>
</g>
<!-- Node5 -->
<g id="node5" class="node"><title>Node5</title>
<g id="a_node5"><a xlink:href="../../de/d30/classview_1_1components_1_1_s_logo_workspace.html#ad2141a5cca8101b3d22b2cf7b7473281" target="_top" xlink:title="view.components.SLogoWorkspace.run\lDebugger">
<polygon fill="white" stroke="black" points="860,-93 860,-123 1062,-123 1062,-93 860,-93"/>
<text text-anchor="start" x="868" y="-111" font-family="Helvetica,sans-Serif" font-size="10.00">view.components.SLogoWorkspace.run</text>
<text text-anchor="middle" x="961" y="-100" font-family="Helvetica,sans-Serif" font-size="10.00">Debugger</text>
</a>
</g>
</g>
<!-- Node4&#45;&gt;Node5 -->
<g id="edge4" class="edge"><title>Node4&#45;&gt;Node5</title>
<path fill="none" stroke="midnightblue" d="M822.424,-108C834.795,-108 847.421,-108 859.761,-108"/>
<polygon fill="midnightblue" stroke="midnightblue" points="822.104,-104.5 812.104,-108 822.104,-111.5 822.104,-104.5"/>
</g>
<!-- Node6 -->
<g id="node6" class="node"><title>Node6</title>
<g id="a_node6"><a xlink:href="../../d3/dbe/classview_1_1_view.html#af4860035310eeafc92cf78cbbc53290a" target="_top" xlink:title="view.View.runDebugger">
<polygon fill="white" stroke="black" points="1098,-98.5 1098,-117.5 1224,-117.5 1224,-98.5 1098,-98.5"/>
<text text-anchor="middle" x="1161" y="-105.5" font-family="Helvetica,sans-Serif" font-size="10.00">view.View.runDebugger</text>
</a>
</g>
</g>
<!-- Node5&#45;&gt;Node6 -->
<g id="edge5" class="edge"><title>Node5&#45;&gt;Node6</title>
<path fill="none" stroke="midnightblue" d="M1072.42,-108C1081.12,-108 1089.71,-108 1097.9,-108"/>
<polygon fill="midnightblue" stroke="midnightblue" points="1072.16,-104.5 1062.16,-108 1072.16,-111.5 1072.16,-104.5"/>
</g>
<!-- Node7 -->
<g id="node7" class="node"><title>Node7</title>
<g id="a_node7"><a xlink:href="../../d4/d6b/classview_1_1components_1_1_debugger_port.html#a6dd594b7c6572e0f4ef2ab7d8845f2ce" target="_top" xlink:title="view.components.Debugger\lPort.stepDebug">
<polygon fill="white" stroke="black" points="1260.5,-93 1260.5,-123 1409.5,-123 1409.5,-93 1260.5,-93"/>
<text text-anchor="start" x="1268.5" y="-111" font-family="Helvetica,sans-Serif" font-size="10.00">view.components.Debugger</text>
<text text-anchor="middle" x="1335" y="-100" font-family="Helvetica,sans-Serif" font-size="10.00">Port.stepDebug</text>
</a>
</g>
</g>
<!-- Node6&#45;&gt;Node7 -->
<g id="edge6" class="edge"><title>Node6&#45;&gt;Node7</title>
<path fill="none" stroke="midnightblue" d="M1234.13,-108C1242.78,-108 1251.61,-108 1260.28,-108"/>
<polygon fill="midnightblue" stroke="midnightblue" points="1234.1,-104.5 1224.1,-108 1234.1,-111.5 1234.1,-104.5"/>
</g>
<!-- Node8 -->
<g id="node8" class="node"><title>Node8</title>
<g id="a_node8"><a xlink:href="../../d4/d6b/classview_1_1components_1_1_debugger_port.html#a7055f8fe86c7e1078dc9909a7f000b8b" target="_top" xlink:title="view.components.Debugger\lPort.DebuggerPort">
<polygon fill="white" stroke="black" points="1446.5,-93 1446.5,-123 1595.5,-123 1595.5,-93 1446.5,-93"/>
<text text-anchor="start" x="1454.5" y="-111" font-family="Helvetica,sans-Serif" font-size="10.00">view.components.Debugger</text>
<text text-anchor="middle" x="1521" y="-100" font-family="Helvetica,sans-Serif" font-size="10.00">Port.DebuggerPort</text>
</a>
</g>
</g>
<!-- Node7&#45;&gt;Node8 -->
<g id="edge7" class="edge"><title>Node7&#45;&gt;Node8</title>
<path fill="none" stroke="midnightblue" d="M1419.53,-108C1428.46,-108 1437.5,-108 1446.3,-108"/>
<polygon fill="midnightblue" stroke="midnightblue" points="1419.51,-104.5 1409.51,-108 1419.51,-111.5 1419.51,-104.5"/>
</g>
<!-- Node10&#45;&gt;Node2 -->
<g id="edge11" class="edge"><title>Node10&#45;&gt;Node2</title>
<path fill="none" stroke="midnightblue" d="M604.047,-15C538.363,-15 457.344,-15 398.148,-15"/>
<polygon fill="midnightblue" stroke="midnightblue" points="604.452,-18.5001 614.452,-15 604.451,-11.5001 604.452,-18.5001"/>
</g>
</g>
</svg>
