<?xml version="1.0" encoding="UTF-8" standalone="no"?>
<!DOCTYPE svg PUBLIC "-//W3C//DTD SVG 1.1//EN"
 "http://www.w3.org/Graphics/SVG/1.1/DTD/svg11.dtd">
<!-- Generated by graphviz version 2.36.0 (20140111.2315)
 -->
<!-- Title: parser.commands.LoopingNode Pages: 1 -->
<svg width="309pt" height="186pt"
 viewBox="0.00 0.00 309.00 186.00" xmlns="http://www.w3.org/2000/svg" xmlns:xlink="http://www.w3.org/1999/xlink">
<g id="graph0" class="graph" transform="scale(1 1) rotate(0) translate(4 182)">
<title>parser.commands.LoopingNode</title>
<polygon fill="white" stroke="none" points="-4,4 -4,-182 305,-182 305,4 -4,4"/>
<!-- Node1 -->
<g id="node1" class="node"><title>Node1</title>
<polygon fill="#bfbfbf" stroke="black" points="74,-0.5 74,-19.5 244,-19.5 244,-0.5 74,-0.5"/>
<text text-anchor="middle" x="159" y="-7.5" font-family="Helvetica,sans-Serif" font-size="10.00">parser.commands.LoopingNode</text>
</g>
<!-- Node2 -->
<g id="node2" class="node"><title>Node2</title>
<g id="a_node2"><a xlink:href="../../db/d11/classparser_1_1nodes_1_1_binary_node.html" target="_top" xlink:title="parser.nodes.BinaryNode">
<polygon fill="white" stroke="black" points="1.5,-68.5 1.5,-87.5 138.5,-87.5 138.5,-68.5 1.5,-68.5"/>
<text text-anchor="middle" x="70" y="-75.5" font-family="Helvetica,sans-Serif" font-size="10.00">parser.nodes.BinaryNode</text>
</a>
</g>
</g>
<!-- Node2&#45;&gt;Node1 -->
<g id="edge1" class="edge"><title>Node2&#45;&gt;Node1</title>
<path fill="none" stroke="midnightblue" d="M90.0977,-62.0961C107.756,-49.0012 132.836,-30.4028 147.362,-19.6305"/>
<polygon fill="midnightblue" stroke="midnightblue" points="87.5828,-59.6037 81.6352,-68.3717 91.7524,-65.2264 87.5828,-59.6037"/>
</g>
<!-- Node3 -->
<g id="node3" class="node"><title>Node3</title>
<g id="a_node3"><a xlink:href="../../da/d96/classparser_1_1nodes_1_1_syntax_node.html" target="_top" xlink:title="parser.nodes.SyntaxNode">
<polygon fill="white" stroke="black" points="0,-152.5 0,-171.5 140,-171.5 140,-152.5 0,-152.5"/>
<text text-anchor="middle" x="70" y="-159.5" font-family="Helvetica,sans-Serif" font-size="10.00">parser.nodes.SyntaxNode</text>
</a>
</g>
</g>
<!-- Node3&#45;&gt;Node2 -->
<g id="edge2" class="edge"><title>Node3&#45;&gt;Node2</title>
<path fill="none" stroke="midnightblue" d="M70,-141.759C70,-124.676 70,-100.498 70,-87.7123"/>
<polygon fill="midnightblue" stroke="midnightblue" points="66.5001,-142.225 70,-152.225 73.5001,-142.225 66.5001,-142.225"/>
</g>
<!-- Node3&#45;&gt;Node2 -->
<g id="edge3" class="edge"><title>Node3&#45;&gt;Node2</title>
<path fill="none" stroke="#9a32cd" stroke-dasharray="5,2" d="M70,-141.759C70,-124.676 70,-100.498 70,-87.7123"/>
<polygon fill="#9a32cd" stroke="#9a32cd" points="66.5001,-142.225 70,-152.225 73.5001,-142.225 66.5001,-142.225"/>
<text text-anchor="middle" x="93.5" y="-120" font-family="Helvetica,sans-Serif" font-size="10.00"> nodeOne</text>
<text text-anchor="middle" x="93.5" y="-109" font-family="Helvetica,sans-Serif" font-size="10.00">nodeTwo</text>
</g>
<!-- Node4 -->
<g id="node4" class="node"><title>Node4</title>
<g id="a_node4"><a xlink:href="../../d4/d1c/classparser_1_1nodes_1_1_list_node.html" target="_top" xlink:title="parser.nodes.ListNode">
<polygon fill="white" stroke="black" points="157,-68.5 157,-87.5 281,-87.5 281,-68.5 157,-68.5"/>
<text text-anchor="middle" x="219" y="-75.5" font-family="Helvetica,sans-Serif" font-size="10.00">parser.nodes.ListNode</text>
</a>
</g>
</g>
<!-- Node3&#45;&gt;Node4 -->
<g id="edge5" class="edge"><title>Node3&#45;&gt;Node4</title>
<path fill="none" stroke="midnightblue" d="M94.5235,-147.504C125.446,-130.486 177.686,-101.736 203.546,-87.505"/>
<polygon fill="midnightblue" stroke="midnightblue" points="92.7374,-144.492 85.664,-152.38 96.1124,-150.624 92.7374,-144.492"/>
</g>
<!-- Node4&#45;&gt;Node1 -->
<g id="edge4" class="edge"><title>Node4&#45;&gt;Node1</title>
<path fill="none" stroke="#9a32cd" stroke-dasharray="5,2" d="M204.164,-60.68C192.433,-47.7768 176.507,-30.2575 167.037,-19.8411"/>
<polygon fill="#9a32cd" stroke="#9a32cd" points="201.839,-63.3266 211.156,-68.3717 207.019,-58.6179 201.839,-63.3266"/>
<text text-anchor="middle" x="227" y="-41.5" font-family="Helvetica,sans-Serif" font-size="10.00"> listReference</text>
</g>
<!-- Node5 -->
<g id="node5" class="node"><title>Node5</title>
<polygon fill="white" stroke="#bfbfbf" points="158.5,-147 158.5,-177 301.5,-177 301.5,-147 158.5,-147"/>
<text text-anchor="start" x="166.5" y="-165" font-family="Helvetica,sans-Serif" font-size="10.00">List&lt; parser.nodes.Syntax</text>
<text text-anchor="middle" x="230" y="-154" font-family="Helvetica,sans-Serif" font-size="10.00">Node &gt;</text>
</g>
<!-- Node5&#45;&gt;Node4 -->
<g id="edge6" class="edge"><title>Node5&#45;&gt;Node4</title>
<path fill="none" stroke="#9a32cd" stroke-dasharray="5,2" d="M226.727,-136.6C224.504,-120.031 221.698,-99.1113 220.153,-87.5915"/>
<polygon fill="#9a32cd" stroke="#9a32cd" points="223.285,-137.271 228.084,-146.717 230.223,-136.34 223.285,-137.271"/>
<text text-anchor="middle" x="243.5" y="-114.5" font-family="Helvetica,sans-Serif" font-size="10.00"> myList</text>
</g>
</g>
</svg>
