<?xml version="1.0" encoding="UTF-8" standalone="no"?>
<!DOCTYPE svg PUBLIC "-//W3C//DTD SVG 1.1//EN"
 "http://www.w3.org/Graphics/SVG/1.1/DTD/svg11.dtd">
<!-- Generated by graphviz version 2.36.0 (20140111.2315)
 -->
<!-- Title: view.toolbar.TurtlePenColorToolbarItem.createNode Pages: 1 -->
<svg width="1000pt" height="121pt"
 viewBox="0.00 0.00 1000.00 121.00" xmlns="http://www.w3.org/2000/svg" xmlns:xlink="http://www.w3.org/1999/xlink">
<g id="graph0" class="graph" transform="scale(1 1) rotate(0) translate(4 117)">
<title>view.toolbar.TurtlePenColorToolbarItem.createNode</title>
<polygon fill="white" stroke="none" points="-4,4 -4,-117 996,-117 996,4 -4,4"/>
<!-- Node1 -->
<g id="node1" class="node"><title>Node1</title>
<polygon fill="#bfbfbf" stroke="black" points="0.5,-24 0.5,-54 143.5,-54 143.5,-24 0.5,-24"/>
<text text-anchor="start" x="8.5" y="-42" font-family="Helvetica,sans-Serif" font-size="10.00">view.toolbar.TurtlePenColor</text>
<text text-anchor="middle" x="72" y="-31" font-family="Helvetica,sans-Serif" font-size="10.00">ToolbarItem.createNode</text>
</g>
<!-- Node2 -->
<g id="node2" class="node"><title>Node2</title>
<g id="a_node2"><a xlink:href="../../d2/d72/classview_1_1toolbar_1_1_turtle_specific_toolbar_item.html#a681453ed9b710bab03151e682b577843" target="_top" xlink:title="view.toolbar.TurtleSpecific\lToolbarItem.getAndModifyTurtles">
<polygon fill="white" stroke="black" points="180.5,-24 180.5,-54 351.5,-54 351.5,-24 180.5,-24"/>
<text text-anchor="start" x="188.5" y="-42" font-family="Helvetica,sans-Serif" font-size="10.00">view.toolbar.TurtleSpecific</text>
<text text-anchor="middle" x="266" y="-31" font-family="Helvetica,sans-Serif" font-size="10.00">ToolbarItem.getAndModifyTurtles</text>
</a>
</g>
</g>
<!-- Node1&#45;&gt;Node2 -->
<g id="edge1" class="edge"><title>Node1&#45;&gt;Node2</title>
<path fill="none" stroke="midnightblue" d="M143.676,-39C152.377,-39 161.377,-39 170.361,-39"/>
<polygon fill="midnightblue" stroke="midnightblue" points="170.48,-42.5001 180.48,-39 170.48,-35.5001 170.48,-42.5001"/>
</g>
<!-- Node3 -->
<g id="node3" class="node"><title>Node3</title>
<g id="a_node3"><a xlink:href="../../d2/d72/classview_1_1toolbar_1_1_turtle_specific_toolbar_item.html#a22d6ddd39dd881cc916afab2c6f6e050" target="_top" xlink:title="view.toolbar.TurtleSpecific\lToolbarItem.getUserInput">
<polygon fill="white" stroke="black" points="412.5,-49 412.5,-79 549.5,-79 549.5,-49 412.5,-49"/>
<text text-anchor="start" x="420.5" y="-67" font-family="Helvetica,sans-Serif" font-size="10.00">view.toolbar.TurtleSpecific</text>
<text text-anchor="middle" x="481" y="-56" font-family="Helvetica,sans-Serif" font-size="10.00">ToolbarItem.getUserInput</text>
</a>
</g>
</g>
<!-- Node2&#45;&gt;Node3 -->
<g id="edge2" class="edge"><title>Node2&#45;&gt;Node3</title>
<path fill="none" stroke="midnightblue" d="M351.795,-48.9525C368.416,-50.9033 385.773,-52.9405 402.154,-54.8631"/>
<polygon fill="midnightblue" stroke="midnightblue" points="401.871,-58.3539 412.211,-56.0435 402.687,-51.4016 401.871,-58.3539"/>
</g>
<!-- Node7 -->
<g id="node7" class="node"><title>Node7</title>
<g id="a_node7"><a xlink:href="../../d2/d72/classview_1_1toolbar_1_1_turtle_specific_toolbar_item.html#aca2dc6e061991957002113af853e76a4" target="_top" xlink:title="view.toolbar.TurtleSpecific\lToolbarItem.changeTurtleProperties">
<polygon fill="white" stroke="black" points="388.5,-0 388.5,-30 573.5,-30 573.5,-0 388.5,-0"/>
<text text-anchor="start" x="396.5" y="-18" font-family="Helvetica,sans-Serif" font-size="10.00">view.toolbar.TurtleSpecific</text>
<text text-anchor="middle" x="481" y="-7" font-family="Helvetica,sans-Serif" font-size="10.00">ToolbarItem.changeTurtleProperties</text>
</a>
</g>
</g>
<!-- Node2&#45;&gt;Node7 -->
<g id="edge8" class="edge"><title>Node2&#45;&gt;Node7</title>
<path fill="none" stroke="midnightblue" d="M351.795,-29.4456C360.477,-28.4674 369.36,-27.4665 378.2,-26.4704"/>
<polygon fill="midnightblue" stroke="midnightblue" points="378.604,-29.9472 388.149,-25.3494 377.82,-22.9912 378.604,-29.9472"/>
</g>
<!-- Node4 -->
<g id="node4" class="node"><title>Node4</title>
<g id="a_node4"><a xlink:href="../../d2/d72/classview_1_1toolbar_1_1_turtle_specific_toolbar_item.html#aff87aa6f38bcdb6418b027d88c6bd90c" target="_top" xlink:title="view.toolbar.TurtleSpecific\lToolbarItem.getAvailableTurtles">
<polygon fill="white" stroke="black" points="610,-49 610,-79 774,-79 774,-49 610,-49"/>
<text text-anchor="start" x="618" y="-67" font-family="Helvetica,sans-Serif" font-size="10.00">view.toolbar.TurtleSpecific</text>
<text text-anchor="middle" x="692" y="-56" font-family="Helvetica,sans-Serif" font-size="10.00">ToolbarItem.getAvailableTurtles</text>
</a>
</g>
</g>
<!-- Node3&#45;&gt;Node4 -->
<g id="edge3" class="edge"><title>Node3&#45;&gt;Node4</title>
<path fill="none" stroke="midnightblue" d="M549.568,-64C565.469,-64 582.679,-64 599.438,-64"/>
<polygon fill="midnightblue" stroke="midnightblue" points="599.8,-67.5001 609.8,-64 599.8,-60.5001 599.8,-67.5001"/>
</g>
<!-- Node5 -->
<g id="node5" class="node"><title>Node5</title>
<g id="a_node5"><a xlink:href="../../df/dd6/classview_1_1toolbar_1_1_toolbar.html#af475087a1d6bd9a705ed213f676f3339" target="_top" xlink:title="view.toolbar.Toolbar.get\lTurtleWindow">
<polygon fill="white" stroke="black" points="837.5,-83 837.5,-113 964.5,-113 964.5,-83 837.5,-83"/>
<text text-anchor="start" x="845.5" y="-101" font-family="Helvetica,sans-Serif" font-size="10.00">view.toolbar.Toolbar.get</text>
<text text-anchor="middle" x="901" y="-90" font-family="Helvetica,sans-Serif" font-size="10.00">TurtleWindow</text>
</a>
</g>
</g>
<!-- Node3&#45;&gt;Node5 -->
<g id="edge6" class="edge"><title>Node3&#45;&gt;Node5</title>
<path fill="none" stroke="midnightblue" d="M549.804,-78.6849C569.161,-82.3396 590.336,-85.83 610,-88 683.572,-96.1189 768.22,-98.2123 826.995,-98.5224"/>
<polygon fill="midnightblue" stroke="midnightblue" points="827.281,-102.023 837.294,-98.5599 827.307,-95.0234 827.281,-102.023"/>
</g>
<!-- Node6 -->
<g id="node6" class="node"><title>Node6</title>
<g id="a_node6"><a xlink:href="../../d5/d4b/classview_1_1components_1_1_turtle_window.html#a56c45ccd42635856219886f438d1a12c" target="_top" xlink:title="view.components.TurtleWindow.get\lAvailableTurtles">
<polygon fill="white" stroke="black" points="810.5,-24 810.5,-54 991.5,-54 991.5,-24 810.5,-24"/>
<text text-anchor="start" x="818.5" y="-42" font-family="Helvetica,sans-Serif" font-size="10.00">view.components.TurtleWindow.get</text>
<text text-anchor="middle" x="901" y="-31" font-family="Helvetica,sans-Serif" font-size="10.00">AvailableTurtles</text>
</a>
</g>
</g>
<!-- Node3&#45;&gt;Node6 -->
<g id="edge7" class="edge"><title>Node3&#45;&gt;Node6</title>
<path fill="none" stroke="midnightblue" d="M546.104,-48.9669C566.417,-44.8814 589.041,-41.0277 610,-39 672.981,-32.9071 744.017,-32.7965 800.02,-34.263"/>
<polygon fill="midnightblue" stroke="midnightblue" points="800.201,-37.7694 810.297,-34.5541 800.4,-30.7722 800.201,-37.7694"/>
</g>
<!-- Node4&#45;&gt;Node5 -->
<g id="edge4" class="edge"><title>Node4&#45;&gt;Node5</title>
<path fill="none" stroke="midnightblue" d="M774.218,-77.3401C791.734,-80.2172 810.144,-83.2411 827.311,-86.0607"/>
<polygon fill="midnightblue" stroke="midnightblue" points="826.823,-89.5274 837.258,-87.6945 827.957,-82.6199 826.823,-89.5274"/>
</g>
<!-- Node4&#45;&gt;Node6 -->
<g id="edge5" class="edge"><title>Node4&#45;&gt;Node6</title>
<path fill="none" stroke="midnightblue" d="M774.218,-54.1911C782.766,-53.1587 791.527,-52.1006 800.252,-51.0469"/>
<polygon fill="midnightblue" stroke="midnightblue" points="800.955,-54.4874 810.464,-49.8136 800.116,-47.5379 800.955,-54.4874"/>
</g>
</g>
</svg>
