<?xml version="1.0" encoding="UTF-8" standalone="no"?>
<!DOCTYPE svg PUBLIC "-//W3C//DTD SVG 1.1//EN"
 "http://www.w3.org/Graphics/SVG/1.1/DTD/svg11.dtd">
<!-- Generated by graphviz version 2.36.0 (20140111.2315)
 -->
<!-- Title: view.View.runDebugger Pages: 1 -->
<svg width="506pt" height="38pt"
 viewBox="0.00 0.00 506.00 38.00" xmlns="http://www.w3.org/2000/svg" xmlns:xlink="http://www.w3.org/1999/xlink">
<g id="graph0" class="graph" transform="scale(1 1) rotate(0) translate(4 34)">
<title>view.View.runDebugger</title>
<polygon fill="white" stroke="none" points="-4,4 -4,-34 502,-34 502,4 -4,4"/>
<!-- Node1 -->
<g id="node1" class="node"><title>Node1</title>
<polygon fill="#bfbfbf" stroke="black" points="0,-5.5 0,-24.5 126,-24.5 126,-5.5 0,-5.5"/>
<text text-anchor="middle" x="63" y="-12.5" font-family="Helvetica,sans-Serif" font-size="10.00">view.View.runDebugger</text>
</g>
<!-- Node2 -->
<g id="node2" class="node"><title>Node2</title>
<g id="a_node2"><a xlink:href="../../d4/d6b/classview_1_1components_1_1_debugger_port.html#a6dd594b7c6572e0f4ef2ab7d8845f2ce" target="_top" xlink:title="view.components.Debugger\lPort.stepDebug">
<polygon fill="white" stroke="black" points="162.5,-0 162.5,-30 311.5,-30 311.5,-0 162.5,-0"/>
<text text-anchor="start" x="170.5" y="-18" font-family="Helvetica,sans-Serif" font-size="10.00">view.components.Debugger</text>
<text text-anchor="middle" x="237" y="-7" font-family="Helvetica,sans-Serif" font-size="10.00">Port.stepDebug</text>
</a>
</g>
</g>
<!-- Node1&#45;&gt;Node2 -->
<g id="edge1" class="edge"><title>Node1&#45;&gt;Node2</title>
<path fill="none" stroke="midnightblue" d="M136.133,-15C144.776,-15 153.611,-15 162.277,-15"/>
<polygon fill="midnightblue" stroke="midnightblue" points="136.096,-11.5001 126.096,-15 136.096,-18.5001 136.096,-11.5001"/>
</g>
<!-- Node3 -->
<g id="node3" class="node"><title>Node3</title>
<g id="a_node3"><a xlink:href="../../d4/d6b/classview_1_1components_1_1_debugger_port.html#a7055f8fe86c7e1078dc9909a7f000b8b" target="_top" xlink:title="view.components.Debugger\lPort.DebuggerPort">
<polygon fill="white" stroke="black" points="348.5,-0 348.5,-30 497.5,-30 497.5,-0 348.5,-0"/>
<text text-anchor="start" x="356.5" y="-18" font-family="Helvetica,sans-Serif" font-size="10.00">view.components.Debugger</text>
<text text-anchor="middle" x="423" y="-7" font-family="Helvetica,sans-Serif" font-size="10.00">Port.DebuggerPort</text>
</a>
</g>
</g>
<!-- Node2&#45;&gt;Node3 -->
<g id="edge2" class="edge"><title>Node2&#45;&gt;Node3</title>
<path fill="none" stroke="midnightblue" d="M321.533,-15C330.462,-15 339.498,-15 348.302,-15"/>
<polygon fill="midnightblue" stroke="midnightblue" points="321.515,-11.5001 311.515,-15 321.515,-18.5001 321.515,-11.5001"/>
</g>
</g>
</svg>
