<?xml version="1.0" encoding="UTF-8" standalone="no"?>
<!DOCTYPE svg PUBLIC "-//W3C//DTD SVG 1.1//EN"
 "http://www.w3.org/Graphics/SVG/1.1/DTD/svg11.dtd">
<!-- Generated by graphviz version 2.36.0 (20140111.2315)
 -->
<!-- Title: view.View.showAndChangeLanguage Pages: 1 -->
<svg width="802pt" height="175pt"
 viewBox="0.00 0.00 802.00 175.00" xmlns="http://www.w3.org/2000/svg" xmlns:xlink="http://www.w3.org/1999/xlink">
<g id="graph0" class="graph" transform="scale(1 1) rotate(0) translate(4 171)">
<title>view.View.showAndChangeLanguage</title>
<polygon fill="white" stroke="none" points="-4,4 -4,-171 798,-171 798,4 -4,4"/>
<!-- Node1 -->
<g id="node1" class="node"><title>Node1</title>
<polygon fill="#bfbfbf" stroke="black" points="0,-49.5 0,-68.5 190,-68.5 190,-49.5 0,-49.5"/>
<text text-anchor="middle" x="95" y="-56.5" font-family="Helvetica,sans-Serif" font-size="10.00">view.View.showAndChangeLanguage</text>
</g>
<!-- Node2 -->
<g id="node2" class="node"><title>Node2</title>
<g id="a_node2"><a xlink:href="../../de/d16/classparser_1_1parser_1_1_regex.html#a59c7e0d8366fc8c3e94d909f9fc27a14" target="_top" xlink:title="parser.parser.Regex.change\lLanguage">
<polygon fill="white" stroke="black" points="236.5,-88 236.5,-118 385.5,-118 385.5,-88 236.5,-88"/>
<text text-anchor="start" x="244.5" y="-106" font-family="Helvetica,sans-Serif" font-size="10.00">parser.parser.Regex.change</text>
<text text-anchor="middle" x="311" y="-95" font-family="Helvetica,sans-Serif" font-size="10.00">Language</text>
</a>
</g>
</g>
<!-- Node1&#45;&gt;Node2 -->
<g id="edge1" class="edge"><title>Node1&#45;&gt;Node2</title>
<path fill="none" stroke="midnightblue" d="M142.435,-68.5473C167.067,-73.6118 198.083,-79.989 226.714,-85.8758"/>
<polygon fill="midnightblue" stroke="midnightblue" points="226.228,-89.3489 236.728,-87.9346 227.637,-82.4923 226.228,-89.3489"/>
</g>
<!-- Node5 -->
<g id="node5" class="node"><title>Node5</title>
<g id="a_node5"><a xlink:href="../../de/d16/classparser_1_1parser_1_1_regex.html#a9da6d787de06ba7ea76d52326b532bd1" target="_top" xlink:title="parser.parser.Regex.getInstance">
<polygon fill="white" stroke="black" points="226,-49.5 226,-68.5 396,-68.5 396,-49.5 226,-49.5"/>
<text text-anchor="middle" x="311" y="-56.5" font-family="Helvetica,sans-Serif" font-size="10.00">parser.parser.Regex.getInstance</text>
</a>
</g>
</g>
<!-- Node1&#45;&gt;Node5 -->
<g id="edge4" class="edge"><title>Node1&#45;&gt;Node5</title>
<path fill="none" stroke="midnightblue" d="M190.175,-59C198.625,-59 207.184,-59 215.636,-59"/>
<polygon fill="midnightblue" stroke="midnightblue" points="215.879,-62.5001 225.879,-59 215.879,-55.5001 215.879,-62.5001"/>
</g>
<!-- Node7 -->
<g id="node7" class="node"><title>Node7</title>
<g id="a_node7"><a xlink:href="../../d0/de5/classview_1_1dialogs_1_1_input_dialog_box.html#a47a0db1150edb25d69f50d7d199e0d20" target="_top" xlink:title="view.dialogs.InputDialog\lBox.showInputDialog">
<polygon fill="white" stroke="black" points="246,-0 246,-30 376,-30 376,-0 246,-0"/>
<text text-anchor="start" x="254" y="-18" font-family="Helvetica,sans-Serif" font-size="10.00">view.dialogs.InputDialog</text>
<text text-anchor="middle" x="311" y="-7" font-family="Helvetica,sans-Serif" font-size="10.00">Box.showInputDialog</text>
</a>
</g>
</g>
<!-- Node1&#45;&gt;Node7 -->
<g id="edge7" class="edge"><title>Node1&#45;&gt;Node7</title>
<path fill="none" stroke="midnightblue" d="M142.435,-49.4527C169.722,-43.8422 204.845,-36.6207 235.88,-30.2397"/>
<polygon fill="midnightblue" stroke="midnightblue" points="236.707,-33.6428 245.797,-28.2005 235.297,-26.7863 236.707,-33.6428"/>
</g>
<!-- Node3 -->
<g id="node3" class="node"><title>Node3</title>
<g id="a_node3"><a xlink:href="../../d7/dd7/classview_1_1components_1_1_language_controller.html#ac2d831466c4813fceca89979e7d838ed" target="_top" xlink:title="view.components.Language\lController.getCommandLanguages\lFilePath">
<polygon fill="white" stroke="black" points="432,-125.5 432,-166.5 616,-166.5 616,-125.5 432,-125.5"/>
<text text-anchor="start" x="440" y="-154.5" font-family="Helvetica,sans-Serif" font-size="10.00">view.components.Language</text>
<text text-anchor="start" x="440" y="-143.5" font-family="Helvetica,sans-Serif" font-size="10.00">Controller.getCommandLanguages</text>
<text text-anchor="middle" x="524" y="-132.5" font-family="Helvetica,sans-Serif" font-size="10.00">FilePath</text>
</a>
</g>
</g>
<!-- Node2&#45;&gt;Node3 -->
<g id="edge2" class="edge"><title>Node2&#45;&gt;Node3</title>
<path fill="none" stroke="midnightblue" d="M385.501,-117.979C397.326,-120.389 409.743,-122.919 422.077,-125.433"/>
<polygon fill="midnightblue" stroke="midnightblue" points="421.439,-128.875 431.937,-127.442 422.837,-122.016 421.439,-128.875"/>
</g>
<!-- Node4 -->
<g id="node4" class="node"><title>Node4</title>
<g id="a_node4"><a xlink:href="../../de/d16/classparser_1_1parser_1_1_regex.html#a413da3364c9c07a315222d34d7f0fc56" target="_top" xlink:title="parser.parser.Regex.make\lPatterns">
<polygon fill="white" stroke="black" points="652.5,-63 652.5,-93 793.5,-93 793.5,-63 652.5,-63"/>
<text text-anchor="start" x="660.5" y="-81" font-family="Helvetica,sans-Serif" font-size="10.00">parser.parser.Regex.make</text>
<text text-anchor="middle" x="723" y="-70" font-family="Helvetica,sans-Serif" font-size="10.00">Patterns</text>
</a>
</g>
</g>
<!-- Node2&#45;&gt;Node4 -->
<g id="edge3" class="edge"><title>Node2&#45;&gt;Node4</title>
<path fill="none" stroke="midnightblue" d="M385.773,-98.5016C457.997,-94.0978 567.709,-87.408 641.999,-82.8781"/>
<polygon fill="midnightblue" stroke="midnightblue" points="642.47,-86.356 652.239,-82.2537 642.044,-79.3689 642.47,-86.356"/>
</g>
<!-- Node6 -->
<g id="node6" class="node"><title>Node6</title>
<g id="a_node6"><a xlink:href="../../de/d16/classparser_1_1parser_1_1_regex.html#a1fd187b9f2b45d0707cb10057e80d7ff" target="_top" xlink:title="parser.parser.Regex.Regex">
<polygon fill="white" stroke="black" points="452.5,-49.5 452.5,-68.5 595.5,-68.5 595.5,-49.5 452.5,-49.5"/>
<text text-anchor="middle" x="524" y="-56.5" font-family="Helvetica,sans-Serif" font-size="10.00">parser.parser.Regex.Regex</text>
</a>
</g>
</g>
<!-- Node5&#45;&gt;Node6 -->
<g id="edge5" class="edge"><title>Node5&#45;&gt;Node6</title>
<path fill="none" stroke="midnightblue" d="M396.302,-59C411.411,-59 427.126,-59 442.135,-59"/>
<polygon fill="midnightblue" stroke="midnightblue" points="442.397,-62.5001 452.397,-59 442.397,-55.5001 442.397,-62.5001"/>
</g>
<!-- Node6&#45;&gt;Node4 -->
<g id="edge6" class="edge"><title>Node6&#45;&gt;Node4</title>
<path fill="none" stroke="midnightblue" d="M595.565,-65.8058C610.69,-67.2645 626.772,-68.8156 642.217,-70.3052"/>
<polygon fill="midnightblue" stroke="midnightblue" points="641.968,-73.7974 652.258,-71.2736 642.64,-66.8297 641.968,-73.7974"/>
</g>
<!-- Node8 -->
<g id="node8" class="node"><title>Node8</title>
<g id="a_node8"><a xlink:href="../../d0/de5/classview_1_1dialogs_1_1_input_dialog_box.html#a92b4c523eacf67cc2aa16970380cdb01" target="_top" xlink:title="view.dialogs.InputDialog\lBox.updateUserInput">
<polygon fill="white" stroke="black" points="459,-0 459,-30 589,-30 589,-0 459,-0"/>
<text text-anchor="start" x="467" y="-18" font-family="Helvetica,sans-Serif" font-size="10.00">view.dialogs.InputDialog</text>
<text text-anchor="middle" x="524" y="-7" font-family="Helvetica,sans-Serif" font-size="10.00">Box.updateUserInput</text>
</a>
</g>
</g>
<!-- Node7&#45;&gt;Node8 -->
<g id="edge8" class="edge"><title>Node7&#45;&gt;Node8</title>
<path fill="none" stroke="midnightblue" d="M376.166,-15C398.979,-15 424.855,-15 448.462,-15"/>
<polygon fill="midnightblue" stroke="midnightblue" points="448.775,-18.5001 458.775,-15 448.775,-11.5001 448.775,-18.5001"/>
</g>
</g>
</svg>
