<?xml version="1.0" encoding="UTF-8" standalone="no"?>
<!DOCTYPE svg PUBLIC "-//W3C//DTD SVG 1.1//EN"
 "http://www.w3.org/Graphics/SVG/1.1/DTD/svg11.dtd">
<!-- Generated by graphviz version 2.36.0 (20140111.2315)
 -->
<!-- Title: view.View.removeDebuger Pages: 1 -->
<svg width="790pt" height="38pt"
 viewBox="0.00 0.00 790.00 38.00" xmlns="http://www.w3.org/2000/svg" xmlns:xlink="http://www.w3.org/1999/xlink">
<g id="graph0" class="graph" transform="scale(1 1) rotate(0) translate(4 34)">
<title>view.View.removeDebuger</title>
<polygon fill="white" stroke="none" points="-4,4 -4,-34 786,-34 786,4 -4,4"/>
<!-- Node1 -->
<g id="node1" class="node"><title>Node1</title>
<polygon fill="#bfbfbf" stroke="black" points="0.5,-5.5 0.5,-24.5 141.5,-24.5 141.5,-5.5 0.5,-5.5"/>
<text text-anchor="middle" x="71" y="-12.5" font-family="Helvetica,sans-Serif" font-size="10.00">view.View.removeDebuger</text>
</g>
<!-- Node2 -->
<g id="node2" class="node"><title>Node2</title>
<g id="a_node2"><a xlink:href="../../de/d30/classview_1_1components_1_1_s_logo_workspace.html#a18de98d8715eaf2d6a0d1d43f499a28e" target="_top" xlink:title="view.components.SLogoWorkspace.stop\lDebugger">
<polygon fill="white" stroke="black" points="178.5,-0 178.5,-30 385.5,-30 385.5,-0 178.5,-0"/>
<text text-anchor="start" x="186.5" y="-18" font-family="Helvetica,sans-Serif" font-size="10.00">view.components.SLogoWorkspace.stop</text>
<text text-anchor="middle" x="282" y="-7" font-family="Helvetica,sans-Serif" font-size="10.00">Debugger</text>
</a>
</g>
</g>
<!-- Node1&#45;&gt;Node2 -->
<g id="edge1" class="edge"><title>Node1&#45;&gt;Node2</title>
<path fill="none" stroke="midnightblue" d="M141.594,-15C150.135,-15 159.028,-15 168.005,-15"/>
<polygon fill="midnightblue" stroke="midnightblue" points="168.162,-18.5001 178.162,-15 168.162,-11.5001 168.162,-18.5001"/>
</g>
<!-- Node3 -->
<g id="node3" class="node"><title>Node3</title>
<g id="a_node3"><a xlink:href="../../d5/d4b/classview_1_1components_1_1_turtle_window.html#a62cb84bc01e37c12c7e650318e43c1fb" target="_top" xlink:title="view.components.TurtleWindow.exit\lDebugMode">
<polygon fill="white" stroke="black" points="422,-0 422,-30 604,-30 604,-0 422,-0"/>
<text text-anchor="start" x="430" y="-18" font-family="Helvetica,sans-Serif" font-size="10.00">view.components.TurtleWindow.exit</text>
<text text-anchor="middle" x="513" y="-7" font-family="Helvetica,sans-Serif" font-size="10.00">DebugMode</text>
</a>
</g>
</g>
<!-- Node2&#45;&gt;Node3 -->
<g id="edge2" class="edge"><title>Node2&#45;&gt;Node3</title>
<path fill="none" stroke="midnightblue" d="M385.778,-15C394.409,-15 403.13,-15 411.743,-15"/>
<polygon fill="midnightblue" stroke="midnightblue" points="411.79,-18.5001 421.79,-15 411.79,-11.5001 411.79,-18.5001"/>
</g>
<!-- Node4 -->
<g id="node4" class="node"><title>Node4</title>
<g id="a_node4"><a xlink:href="../../dd/ddc/classview_1_1turtle_1_1_turtle_image.html#aa4659cd85d2c53df2a990b1a140af98d" target="_top" xlink:title="view.turtle.TurtleImage.set\lRunMode">
<polygon fill="white" stroke="black" points="640.5,-0 640.5,-30 781.5,-30 781.5,-0 640.5,-0"/>
<text text-anchor="start" x="648.5" y="-18" font-family="Helvetica,sans-Serif" font-size="10.00">view.turtle.TurtleImage.set</text>
<text text-anchor="middle" x="711" y="-7" font-family="Helvetica,sans-Serif" font-size="10.00">RunMode</text>
</a>
</g>
</g>
<!-- Node3&#45;&gt;Node4 -->
<g id="edge3" class="edge"><title>Node3&#45;&gt;Node4</title>
<path fill="none" stroke="midnightblue" d="M604.255,-15C612.993,-15 621.813,-15 630.436,-15"/>
<polygon fill="midnightblue" stroke="midnightblue" points="630.451,-18.5001 640.451,-15 630.451,-11.5001 630.451,-18.5001"/>
</g>
</g>
</svg>
