<?xml version="1.0" encoding="UTF-8" standalone="no"?>
<!DOCTYPE svg PUBLIC "-//W3C//DTD SVG 1.1//EN"
 "http://www.w3.org/Graphics/SVG/1.1/DTD/svg11.dtd">
<!-- Generated by graphviz version 2.36.0 (20140111.2315)
 -->
<!-- Title: view.View.addNewTab Pages: 1 -->
<svg width="1084pt" height="189pt"
 viewBox="0.00 0.00 1084.00 189.20" xmlns="http://www.w3.org/2000/svg" xmlns:xlink="http://www.w3.org/1999/xlink">
<g id="graph0" class="graph" transform="scale(1 1) rotate(0) translate(4 185.202)">
<title>view.View.addNewTab</title>
<polygon fill="white" stroke="none" points="-4,4 -4,-185.202 1080,-185.202 1080,4 -4,4"/>
<!-- Node1 -->
<g id="node1" class="node"><title>Node1</title>
<polygon fill="#bfbfbf" stroke="black" points="0.5,-51.702 0.5,-70.702 117.5,-70.702 117.5,-51.702 0.5,-51.702"/>
<text text-anchor="middle" x="59" y="-58.702" font-family="Helvetica,sans-Serif" font-size="10.00">view.View.addNewTab</text>
</g>
<!-- Node2 -->
<g id="node2" class="node"><title>Node2</title>
<g id="a_node2"><a xlink:href="../../d3/dbe/classview_1_1_view.html#a43a4310c3789a93e0fa6b98b0bb4f8aa" target="_top" xlink:title="view.View.tabChangeUpdate">
<polygon fill="white" stroke="black" points="154.5,-51.702 154.5,-70.702 305.5,-70.702 305.5,-51.702 154.5,-51.702"/>
<text text-anchor="middle" x="230" y="-58.702" font-family="Helvetica,sans-Serif" font-size="10.00">view.View.tabChangeUpdate</text>
</a>
</g>
</g>
<!-- Node1&#45;&gt;Node2 -->
<g id="edge1" class="edge"><title>Node1&#45;&gt;Node2</title>
<path fill="none" stroke="midnightblue" d="M117.688,-61.202C126.233,-61.202 135.186,-61.202 144.145,-61.202"/>
<polygon fill="midnightblue" stroke="midnightblue" points="144.241,-64.7021 154.241,-61.202 144.241,-57.7021 144.241,-64.7021"/>
</g>
<!-- Node3 -->
<g id="node3" class="node"><title>Node3</title>
<g id="a_node3"><a xlink:href="../../de/d16/classparser_1_1parser_1_1_regex.html#a9da6d787de06ba7ea76d52326b532bd1" target="_top" xlink:title="parser.parser.Regex.getInstance">
<polygon fill="white" stroke="black" points="342,-139.702 342,-158.702 512,-158.702 512,-139.702 342,-139.702"/>
<text text-anchor="middle" x="427" y="-146.702" font-family="Helvetica,sans-Serif" font-size="10.00">parser.parser.Regex.getInstance</text>
</a>
</g>
</g>
<!-- Node2&#45;&gt;Node3 -->
<g id="edge2" class="edge"><title>Node2&#45;&gt;Node3</title>
<path fill="none" stroke="midnightblue" d="M252.24,-70.787C286.892,-86.4252 355.714,-117.483 395.557,-135.464"/>
<polygon fill="midnightblue" stroke="midnightblue" points="394.232,-138.706 404.787,-139.629 397.111,-132.325 394.232,-138.706"/>
</g>
<!-- Node6 -->
<g id="node6" class="node"><title>Node6</title>
<g id="a_node6"><a xlink:href="../../de/d16/classparser_1_1parser_1_1_regex.html#a59c7e0d8366fc8c3e94d909f9fc27a14" target="_top" xlink:title="parser.parser.Regex.change\lLanguage">
<polygon fill="white" stroke="black" points="352.5,-69.202 352.5,-99.202 501.5,-99.202 501.5,-69.202 352.5,-69.202"/>
<text text-anchor="start" x="360.5" y="-87.202" font-family="Helvetica,sans-Serif" font-size="10.00">parser.parser.Regex.change</text>
<text text-anchor="middle" x="427" y="-76.202" font-family="Helvetica,sans-Serif" font-size="10.00">Language</text>
</a>
</g>
</g>
<!-- Node2&#45;&gt;Node6 -->
<g id="edge5" class="edge"><title>Node2&#45;&gt;Node6</title>
<path fill="none" stroke="midnightblue" d="M305.556,-69.9957C317.568,-71.4125 330.072,-72.8874 342.282,-74.3275"/>
<polygon fill="midnightblue" stroke="midnightblue" points="342.111,-77.8315 352.452,-75.5271 342.931,-70.8797 342.111,-77.8315"/>
</g>
<!-- Node8 -->
<g id="node8" class="node"><title>Node8</title>
<g id="a_node8"><a xlink:href="../../d3/d42/classmodel_1_1_model.html#a58696dcb49d5de7290734289922cd126" target="_top" xlink:title="model.Model.getInstance">
<polygon fill="white" stroke="black" points="358.5,-28.702 358.5,-47.702 495.5,-47.702 495.5,-28.702 358.5,-28.702"/>
<text text-anchor="middle" x="427" y="-35.702" font-family="Helvetica,sans-Serif" font-size="10.00">model.Model.getInstance</text>
</a>
</g>
</g>
<!-- Node2&#45;&gt;Node8 -->
<g id="edge8" class="edge"><title>Node2&#45;&gt;Node8</title>
<path fill="none" stroke="midnightblue" d="M305.556,-52.4082C319.485,-50.7652 334.077,-49.0442 348.104,-47.3897"/>
<polygon fill="midnightblue" stroke="midnightblue" points="348.68,-50.8461 358.201,-46.1988 347.86,-43.8943 348.68,-50.8461"/>
</g>
<!-- Node10 -->
<g id="node10" class="node"><title>Node10</title>
<g id="a_node10"><a xlink:href="../../d3/d42/classmodel_1_1_model.html#a068261e6e8761ccabf6d227ee17732ea" target="_top" xlink:title="model.Model.setState">
<polygon fill="white" stroke="black" points="778,-6.70197 778,-25.702 900,-25.702 900,-6.70197 778,-6.70197"/>
<text text-anchor="middle" x="839" y="-13.702" font-family="Helvetica,sans-Serif" font-size="10.00">model.Model.setState</text>
</a>
</g>
</g>
<!-- Node2&#45;&gt;Node10 -->
<g id="edge12" class="edge"><title>Node2&#45;&gt;Node10</title>
<path fill="none" stroke="midnightblue" d="M250.053,-51.6508C271.703,-41.3598 308.401,-25.5992 342,-19.202 491.514,9.26515 671.003,-0.145736 767.808,-8.7012"/>
<polygon fill="midnightblue" stroke="midnightblue" points="767.495,-12.1871 777.77,-9.60459 768.127,-5.21567 767.495,-12.1871"/>
</g>
<!-- Node4 -->
<g id="node4" class="node"><title>Node4</title>
<g id="a_node4"><a xlink:href="../../de/d16/classparser_1_1parser_1_1_regex.html#a1fd187b9f2b45d0707cb10057e80d7ff" target="_top" xlink:title="parser.parser.Regex.Regex">
<polygon fill="white" stroke="black" points="568.5,-161.702 568.5,-180.702 711.5,-180.702 711.5,-161.702 568.5,-161.702"/>
<text text-anchor="middle" x="640" y="-168.702" font-family="Helvetica,sans-Serif" font-size="10.00">parser.parser.Regex.Regex</text>
</a>
</g>
</g>
<!-- Node3&#45;&gt;Node4 -->
<g id="edge3" class="edge"><title>Node3&#45;&gt;Node4</title>
<path fill="none" stroke="midnightblue" d="M512.302,-157.992C527.411,-159.567 543.126,-161.206 558.135,-162.771"/>
<polygon fill="midnightblue" stroke="midnightblue" points="558.088,-166.285 568.397,-163.841 558.814,-159.322 558.088,-166.285"/>
</g>
<!-- Node5 -->
<g id="node5" class="node"><title>Node5</title>
<g id="a_node5"><a xlink:href="../../de/d16/classparser_1_1parser_1_1_regex.html#a413da3364c9c07a315222d34d7f0fc56" target="_top" xlink:title="parser.parser.Regex.make\lPatterns">
<polygon fill="white" stroke="black" points="768.5,-137.202 768.5,-167.202 909.5,-167.202 909.5,-137.202 768.5,-137.202"/>
<text text-anchor="start" x="776.5" y="-155.202" font-family="Helvetica,sans-Serif" font-size="10.00">parser.parser.Regex.make</text>
<text text-anchor="middle" x="839" y="-144.202" font-family="Helvetica,sans-Serif" font-size="10.00">Patterns</text>
</a>
</g>
</g>
<!-- Node4&#45;&gt;Node5 -->
<g id="edge4" class="edge"><title>Node4&#45;&gt;Node5</title>
<path fill="none" stroke="midnightblue" d="M711.565,-164.396C726.69,-162.937 742.772,-161.386 758.217,-159.897"/>
<polygon fill="midnightblue" stroke="midnightblue" points="758.64,-163.372 768.258,-158.928 757.968,-156.405 758.64,-163.372"/>
</g>
<!-- Node6&#45;&gt;Node5 -->
<g id="edge7" class="edge"><title>Node6&#45;&gt;Node5</title>
<path fill="none" stroke="midnightblue" d="M484.813,-99.2067C504.703,-104.12 527.25,-109.31 548,-113.202 618.535,-126.431 699.533,-136.936 757.967,-143.695"/>
<polygon fill="midnightblue" stroke="midnightblue" points="757.908,-147.211 768.241,-144.871 758.705,-140.256 757.908,-147.211"/>
</g>
<!-- Node7 -->
<g id="node7" class="node"><title>Node7</title>
<g id="a_node7"><a xlink:href="../../d7/dd7/classview_1_1components_1_1_language_controller.html#ac2d831466c4813fceca89979e7d838ed" target="_top" xlink:title="view.components.Language\lController.getCommandLanguages\lFilePath">
<polygon fill="white" stroke="black" points="548,-63.702 548,-104.702 732,-104.702 732,-63.702 548,-63.702"/>
<text text-anchor="start" x="556" y="-92.702" font-family="Helvetica,sans-Serif" font-size="10.00">view.components.Language</text>
<text text-anchor="start" x="556" y="-81.702" font-family="Helvetica,sans-Serif" font-size="10.00">Controller.getCommandLanguages</text>
<text text-anchor="middle" x="640" y="-70.702" font-family="Helvetica,sans-Serif" font-size="10.00">FilePath</text>
</a>
</g>
</g>
<!-- Node6&#45;&gt;Node7 -->
<g id="edge6" class="edge"><title>Node6&#45;&gt;Node7</title>
<path fill="none" stroke="midnightblue" d="M501.501,-84.202C513.209,-84.202 525.497,-84.202 537.71,-84.202"/>
<polygon fill="midnightblue" stroke="midnightblue" points="537.937,-87.7021 547.937,-84.202 537.937,-80.7021 537.937,-87.7021"/>
</g>
<!-- Node9 -->
<g id="node9" class="node"><title>Node9</title>
<g id="a_node9"><a xlink:href="../../d3/d42/classmodel_1_1_model.html#af870d64d87a18f6cd1a84a77ff6dc3a1" target="_top" xlink:title="model.Model.Model">
<polygon fill="white" stroke="black" points="585,-25.702 585,-44.702 695,-44.702 695,-25.702 585,-25.702"/>
<text text-anchor="middle" x="640" y="-32.702" font-family="Helvetica,sans-Serif" font-size="10.00">model.Model.Model</text>
</a>
</g>
</g>
<!-- Node8&#45;&gt;Node9 -->
<g id="edge9" class="edge"><title>Node8&#45;&gt;Node9</title>
<path fill="none" stroke="midnightblue" d="M495.632,-37.2404C520.953,-36.8804 549.629,-36.4727 574.645,-36.117"/>
<polygon fill="midnightblue" stroke="midnightblue" points="574.809,-39.6151 584.758,-35.9732 574.709,-32.6158 574.809,-39.6151"/>
</g>
<!-- Node9&#45;&gt;Node10 -->
<g id="edge10" class="edge"><title>Node9&#45;&gt;Node10</title>
<path fill="none" stroke="midnightblue" d="M695.092,-29.985C717.517,-27.8222 743.826,-25.2847 767.717,-22.9806"/>
<polygon fill="midnightblue" stroke="midnightblue" points="768.171,-26.4531 777.789,-22.0091 767.499,-19.4854 768.171,-26.4531"/>
</g>
<!-- Node11 -->
<g id="node11" class="node"><title>Node11</title>
<g id="a_node11"><a xlink:href="../../d4/d3a/classparser_1_1parser_1_1_parser.html#a6e5a4c214fd0af163bdf2f1f5ad84505" target="_top" xlink:title="parser.parser.Parser.set\lActiveState">
<polygon fill="white" stroke="black" points="946,-1.20197 946,-31.202 1076,-31.202 1076,-1.20197 946,-1.20197"/>
<text text-anchor="start" x="954" y="-19.202" font-family="Helvetica,sans-Serif" font-size="10.00">parser.parser.Parser.set</text>
<text text-anchor="middle" x="1011" y="-8.20197" font-family="Helvetica,sans-Serif" font-size="10.00">ActiveState</text>
</a>
</g>
</g>
<!-- Node10&#45;&gt;Node11 -->
<g id="edge11" class="edge"><title>Node10&#45;&gt;Node11</title>
<path fill="none" stroke="midnightblue" d="M900.414,-16.202C911.782,-16.202 923.791,-16.202 935.528,-16.202"/>
<polygon fill="midnightblue" stroke="midnightblue" points="935.749,-19.7021 945.749,-16.202 935.749,-12.7021 935.749,-19.7021"/>
</g>
</g>
</svg>
