<?xml version="1.0" encoding="UTF-8" standalone="no"?>
<!DOCTYPE svg PUBLIC "-//W3C//DTD SVG 1.1//EN"
 "http://www.w3.org/Graphics/SVG/1.1/DTD/svg11.dtd">
<!-- Generated by graphviz version 2.36.0 (20140111.2315)
 -->
<!-- Title: view.View.tabChangeUpdate Pages: 1 -->
<svg width="930pt" height="188pt"
 viewBox="0.00 0.00 930.00 187.64" xmlns="http://www.w3.org/2000/svg" xmlns:xlink="http://www.w3.org/1999/xlink">
<g id="graph0" class="graph" transform="scale(1 1) rotate(0) translate(4 183.64)">
<title>view.View.tabChangeUpdate</title>
<polygon fill="white" stroke="none" points="-4,4 -4,-183.64 926,-183.64 926,4 -4,4"/>
<!-- Node1 -->
<g id="node1" class="node"><title>Node1</title>
<polygon fill="#bfbfbf" stroke="black" points="0.5,-43.1399 0.5,-62.1399 151.5,-62.1399 151.5,-43.1399 0.5,-43.1399"/>
<text text-anchor="middle" x="76" y="-50.1399" font-family="Helvetica,sans-Serif" font-size="10.00">view.View.tabChangeUpdate</text>
</g>
<!-- Node2 -->
<g id="node2" class="node"><title>Node2</title>
<g id="a_node2"><a xlink:href="../../de/d16/classparser_1_1parser_1_1_regex.html#a59c7e0d8366fc8c3e94d909f9fc27a14" target="_top" xlink:title="parser.parser.Regex.change\lLanguage">
<polygon fill="white" stroke="black" points="198.5,-100.64 198.5,-130.64 347.5,-130.64 347.5,-100.64 198.5,-100.64"/>
<text text-anchor="start" x="206.5" y="-118.64" font-family="Helvetica,sans-Serif" font-size="10.00">parser.parser.Regex.change</text>
<text text-anchor="middle" x="273" y="-107.64" font-family="Helvetica,sans-Serif" font-size="10.00">Language</text>
</a>
</g>
</g>
<!-- Node1&#45;&gt;Node2 -->
<g id="edge1" class="edge"><title>Node1&#45;&gt;Node2</title>
<path fill="none" stroke="midnightblue" d="M103.814,-62.1605C126.233,-70.0383 159.093,-81.3944 188,-90.6399 195.337,-92.9864 203.057,-95.3826 210.721,-97.7169"/>
<polygon fill="midnightblue" stroke="midnightblue" points="209.782,-101.089 220.367,-100.632 211.808,-94.3888 209.782,-101.089"/>
</g>
<!-- Node5 -->
<g id="node5" class="node"><title>Node5</title>
<g id="a_node5"><a xlink:href="../../de/d16/classparser_1_1parser_1_1_regex.html#a9da6d787de06ba7ea76d52326b532bd1" target="_top" xlink:title="parser.parser.Regex.getInstance">
<polygon fill="white" stroke="black" points="188,-62.1399 188,-81.1399 358,-81.1399 358,-62.1399 188,-62.1399"/>
<text text-anchor="middle" x="273" y="-69.1399" font-family="Helvetica,sans-Serif" font-size="10.00">parser.parser.Regex.getInstance</text>
</a>
</g>
</g>
<!-- Node1&#45;&gt;Node5 -->
<g id="edge4" class="edge"><title>Node1&#45;&gt;Node5</title>
<path fill="none" stroke="midnightblue" d="M151.556,-59.9043C160.056,-60.7326 168.804,-61.5849 177.519,-62.434"/>
<polygon fill="midnightblue" stroke="midnightblue" points="177.426,-65.9415 187.718,-63.4278 178.105,-58.9745 177.426,-65.9415"/>
</g>
<!-- Node7 -->
<g id="node7" class="node"><title>Node7</title>
<g id="a_node7"><a xlink:href="../../d3/d42/classmodel_1_1_model.html#a58696dcb49d5de7290734289922cd126" target="_top" xlink:title="model.Model.getInstance">
<polygon fill="white" stroke="black" points="204.5,-24.1399 204.5,-43.1399 341.5,-43.1399 341.5,-24.1399 204.5,-24.1399"/>
<text text-anchor="middle" x="273" y="-31.1399" font-family="Helvetica,sans-Serif" font-size="10.00">model.Model.getInstance</text>
</a>
</g>
</g>
<!-- Node1&#45;&gt;Node7 -->
<g id="edge7" class="edge"><title>Node1&#45;&gt;Node7</title>
<path fill="none" stroke="midnightblue" d="M151.556,-45.3755C165.485,-44.0182 180.077,-42.5965 194.104,-41.2297"/>
<polygon fill="midnightblue" stroke="midnightblue" points="194.588,-44.6993 204.201,-40.2459 193.909,-37.7323 194.588,-44.6993"/>
</g>
<!-- Node9 -->
<g id="node9" class="node"><title>Node9</title>
<g id="a_node9"><a xlink:href="../../d3/d42/classmodel_1_1_model.html#a068261e6e8761ccabf6d227ee17732ea" target="_top" xlink:title="model.Model.setState">
<polygon fill="white" stroke="black" points="624,-13.1399 624,-32.1399 746,-32.1399 746,-13.1399 624,-13.1399"/>
<text text-anchor="middle" x="685" y="-20.1399" font-family="Helvetica,sans-Serif" font-size="10.00">model.Model.setState</text>
</a>
</g>
</g>
<!-- Node1&#45;&gt;Node9 -->
<g id="edge11" class="edge"><title>Node1&#45;&gt;Node9</title>
<path fill="none" stroke="midnightblue" d="M98.1483,-43.049C120.088,-33.6655 155.651,-20.0237 188,-14.6399 338.152,10.3499 517.397,-2.9801 613.991,-13.6289"/>
<polygon fill="midnightblue" stroke="midnightblue" points="613.602,-17.1071 623.931,-14.7475 614.385,-10.151 613.602,-17.1071"/>
</g>
<!-- Node3 -->
<g id="node3" class="node"><title>Node3</title>
<g id="a_node3"><a xlink:href="../../d7/dd7/classview_1_1components_1_1_language_controller.html#ac2d831466c4813fceca89979e7d838ed" target="_top" xlink:title="view.components.Language\lController.getCommandLanguages\lFilePath">
<polygon fill="white" stroke="black" points="394,-138.14 394,-179.14 578,-179.14 578,-138.14 394,-138.14"/>
<text text-anchor="start" x="402" y="-167.14" font-family="Helvetica,sans-Serif" font-size="10.00">view.components.Language</text>
<text text-anchor="start" x="402" y="-156.14" font-family="Helvetica,sans-Serif" font-size="10.00">Controller.getCommandLanguages</text>
<text text-anchor="middle" x="486" y="-145.14" font-family="Helvetica,sans-Serif" font-size="10.00">FilePath</text>
</a>
</g>
</g>
<!-- Node2&#45;&gt;Node3 -->
<g id="edge2" class="edge"><title>Node2&#45;&gt;Node3</title>
<path fill="none" stroke="midnightblue" d="M347.501,-130.619C359.326,-133.029 371.743,-135.559 384.077,-138.073"/>
<polygon fill="midnightblue" stroke="midnightblue" points="383.439,-141.515 393.937,-140.082 384.837,-134.656 383.439,-141.515"/>
</g>
<!-- Node4 -->
<g id="node4" class="node"><title>Node4</title>
<g id="a_node4"><a xlink:href="../../de/d16/classparser_1_1parser_1_1_regex.html#a413da3364c9c07a315222d34d7f0fc56" target="_top" xlink:title="parser.parser.Regex.make\lPatterns">
<polygon fill="white" stroke="black" points="614.5,-67.6399 614.5,-97.6399 755.5,-97.6399 755.5,-67.6399 614.5,-67.6399"/>
<text text-anchor="start" x="622.5" y="-85.6399" font-family="Helvetica,sans-Serif" font-size="10.00">parser.parser.Regex.make</text>
<text text-anchor="middle" x="685" y="-74.6399" font-family="Helvetica,sans-Serif" font-size="10.00">Patterns</text>
</a>
</g>
</g>
<!-- Node2&#45;&gt;Node4 -->
<g id="edge3" class="edge"><title>Node2&#45;&gt;Node4</title>
<path fill="none" stroke="midnightblue" d="M347.773,-109.702C419.997,-103.889 529.709,-95.0584 603.999,-89.079"/>
<polygon fill="midnightblue" stroke="midnightblue" points="604.552,-92.5459 614.239,-88.2548 603.99,-85.5685 604.552,-92.5459"/>
</g>
<!-- Node6 -->
<g id="node6" class="node"><title>Node6</title>
<g id="a_node6"><a xlink:href="../../de/d16/classparser_1_1parser_1_1_regex.html#a1fd187b9f2b45d0707cb10057e80d7ff" target="_top" xlink:title="parser.parser.Regex.Regex">
<polygon fill="white" stroke="black" points="414.5,-62.1399 414.5,-81.1399 557.5,-81.1399 557.5,-62.1399 414.5,-62.1399"/>
<text text-anchor="middle" x="486" y="-69.1399" font-family="Helvetica,sans-Serif" font-size="10.00">parser.parser.Regex.Regex</text>
</a>
</g>
</g>
<!-- Node5&#45;&gt;Node6 -->
<g id="edge5" class="edge"><title>Node5&#45;&gt;Node6</title>
<path fill="none" stroke="midnightblue" d="M358.302,-71.6399C373.411,-71.6399 389.126,-71.6399 404.135,-71.6399"/>
<polygon fill="midnightblue" stroke="midnightblue" points="404.397,-75.14 414.397,-71.6399 404.397,-68.14 404.397,-75.14"/>
</g>
<!-- Node6&#45;&gt;Node4 -->
<g id="edge6" class="edge"><title>Node6&#45;&gt;Node4</title>
<path fill="none" stroke="midnightblue" d="M557.565,-75.5801C572.69,-76.4246 588.772,-77.3226 604.217,-78.185"/>
<polygon fill="midnightblue" stroke="midnightblue" points="604.079,-81.6826 614.258,-78.7457 604.469,-74.6935 604.079,-81.6826"/>
</g>
<!-- Node8 -->
<g id="node8" class="node"><title>Node8</title>
<g id="a_node8"><a xlink:href="../../d3/d42/classmodel_1_1_model.html#af870d64d87a18f6cd1a84a77ff6dc3a1" target="_top" xlink:title="model.Model.Model">
<polygon fill="white" stroke="black" points="431,-24.1399 431,-43.1399 541,-43.1399 541,-24.1399 431,-24.1399"/>
<text text-anchor="middle" x="486" y="-31.1399" font-family="Helvetica,sans-Serif" font-size="10.00">model.Model.Model</text>
</a>
</g>
</g>
<!-- Node7&#45;&gt;Node8 -->
<g id="edge8" class="edge"><title>Node7&#45;&gt;Node8</title>
<path fill="none" stroke="midnightblue" d="M341.632,-33.6399C366.953,-33.6399 395.629,-33.6399 420.645,-33.6399"/>
<polygon fill="midnightblue" stroke="midnightblue" points="420.758,-37.14 430.758,-33.6399 420.758,-30.14 420.758,-37.14"/>
</g>
<!-- Node8&#45;&gt;Node9 -->
<g id="edge9" class="edge"><title>Node8&#45;&gt;Node9</title>
<path fill="none" stroke="midnightblue" d="M541.092,-30.6195C563.517,-29.3674 589.826,-27.8983 613.717,-26.5643"/>
<polygon fill="midnightblue" stroke="midnightblue" points="614,-30.0541 623.789,-26.0019 613.609,-23.065 614,-30.0541"/>
</g>
<!-- Node10 -->
<g id="node10" class="node"><title>Node10</title>
<g id="a_node10"><a xlink:href="../../d4/d3a/classparser_1_1parser_1_1_parser.html#a6e5a4c214fd0af163bdf2f1f5ad84505" target="_top" xlink:title="parser.parser.Parser.set\lActiveState">
<polygon fill="white" stroke="black" points="792,-7.63987 792,-37.6399 922,-37.6399 922,-7.63987 792,-7.63987"/>
<text text-anchor="start" x="800" y="-25.6399" font-family="Helvetica,sans-Serif" font-size="10.00">parser.parser.Parser.set</text>
<text text-anchor="middle" x="857" y="-14.6399" font-family="Helvetica,sans-Serif" font-size="10.00">ActiveState</text>
</a>
</g>
</g>
<!-- Node9&#45;&gt;Node10 -->
<g id="edge10" class="edge"><title>Node9&#45;&gt;Node10</title>
<path fill="none" stroke="midnightblue" d="M746.414,-22.6399C757.782,-22.6399 769.791,-22.6399 781.528,-22.6399"/>
<polygon fill="midnightblue" stroke="midnightblue" points="781.749,-26.14 791.749,-22.6399 781.749,-19.14 781.749,-26.14"/>
</g>
</g>
</svg>
