<?xml version="1.0" encoding="UTF-8" standalone="no"?>
<!DOCTYPE svg PUBLIC "-//W3C//DTD SVG 1.1//EN"
 "http://www.w3.org/Graphics/SVG/1.1/DTD/svg11.dtd">
<!-- Generated by graphviz version 2.36.0 (20140111.2315)
 -->
<!-- Title: view.View.getTurtleWindow Pages: 1 -->
<svg width="536pt" height="126pt"
 viewBox="0.00 0.00 536.00 126.00" xmlns="http://www.w3.org/2000/svg" xmlns:xlink="http://www.w3.org/1999/xlink">
<g id="graph0" class="graph" transform="scale(1 1) rotate(0) translate(4 122)">
<title>view.View.getTurtleWindow</title>
<polygon fill="white" stroke="none" points="-4,4 -4,-122 532,-122 532,4 -4,4"/>
<!-- Node1 -->
<g id="node1" class="node"><title>Node1</title>
<polygon fill="#bfbfbf" stroke="black" points="0,-44.5 0,-63.5 140,-63.5 140,-44.5 0,-44.5"/>
<text text-anchor="middle" x="70" y="-51.5" font-family="Helvetica,sans-Serif" font-size="10.00">view.View.getTurtleWindow</text>
</g>
<!-- Node2 -->
<g id="node2" class="node"><title>Node2</title>
<g id="a_node2"><a xlink:href="../../d9/dea/classmodel_1_1_turtle_multiple.html#aa13efbce628306faad5ba5a2ace04658" target="_top" xlink:title="model.TurtleMultiple.add\lNewTurtle">
<polygon fill="white" stroke="black" points="188.5,-88 188.5,-118 321.5,-118 321.5,-88 188.5,-88"/>
<text text-anchor="start" x="196.5" y="-106" font-family="Helvetica,sans-Serif" font-size="10.00">model.TurtleMultiple.add</text>
<text text-anchor="middle" x="255" y="-95" font-family="Helvetica,sans-Serif" font-size="10.00">NewTurtle</text>
</a>
</g>
</g>
<!-- Node1&#45;&gt;Node2 -->
<g id="edge1" class="edge"><title>Node1&#45;&gt;Node2</title>
<path fill="none" stroke="midnightblue" d="M116.524,-66.1896C141.141,-72.7808 171.755,-80.9782 197.842,-87.963"/>
<polygon fill="midnightblue" stroke="midnightblue" points="117.284,-62.7697 106.719,-63.564 115.473,-69.5315 117.284,-62.7697"/>
</g>
<!-- Node4 -->
<g id="node4" class="node"><title>Node4</title>
<g id="a_node4"><a xlink:href="../../da/da8/classview_1_1components_1_1_s_logo_menu_bar.html#a8e395aa3dd6b23abf4e158d4a2f19d10" target="_top" xlink:title="view.components.SLogoMenu\lBar.makePreferencesMenu">
<polygon fill="white" stroke="black" points="176,-39 176,-69 334,-69 334,-39 176,-39"/>
<text text-anchor="start" x="184" y="-57" font-family="Helvetica,sans-Serif" font-size="10.00">view.components.SLogoMenu</text>
<text text-anchor="middle" x="255" y="-46" font-family="Helvetica,sans-Serif" font-size="10.00">Bar.makePreferencesMenu</text>
</a>
</g>
</g>
<!-- Node1&#45;&gt;Node4 -->
<g id="edge3" class="edge"><title>Node1&#45;&gt;Node4</title>
<path fill="none" stroke="midnightblue" d="M150.387,-54C158.825,-54 167.402,-54 175.825,-54"/>
<polygon fill="midnightblue" stroke="midnightblue" points="150.184,-50.5001 140.184,-54 150.184,-57.5001 150.184,-50.5001"/>
</g>
<!-- Node6 -->
<g id="node6" class="node"><title>Node6</title>
<g id="a_node6"><a xlink:href="../../d7/dab/classmodel_1_1_state.html#a6cbe1c79ce98503fbe2e49e81735a587" target="_top" xlink:title="model.State.State">
<polygon fill="white" stroke="black" points="202.5,-0.5 202.5,-19.5 307.5,-19.5 307.5,-0.5 202.5,-0.5"/>
<text text-anchor="middle" x="255" y="-7.5" font-family="Helvetica,sans-Serif" font-size="10.00">model.State.State</text>
</a>
</g>
</g>
<!-- Node1&#45;&gt;Node6 -->
<g id="edge5" class="edge"><title>Node1&#45;&gt;Node6</title>
<path fill="none" stroke="midnightblue" d="M120.78,-42.031C150.195,-34.9586 186.929,-26.1264 214.369,-19.5287"/>
<polygon fill="midnightblue" stroke="midnightblue" points="119.613,-38.7118 110.708,-44.4527 121.249,-45.5179 119.613,-38.7118"/>
</g>
<!-- Node3 -->
<g id="node3" class="node"><title>Node3</title>
<g id="a_node3"><a xlink:href="../../d9/dea/classmodel_1_1_turtle_multiple.html#a6068e4774b6c15ea02445e207fd22395" target="_top" xlink:title="model.TurtleMultiple.Turtle\lMultiple">
<polygon fill="white" stroke="black" points="379,-88 379,-118 519,-118 519,-88 379,-88"/>
<text text-anchor="start" x="387" y="-106" font-family="Helvetica,sans-Serif" font-size="10.00">model.TurtleMultiple.Turtle</text>
<text text-anchor="middle" x="449" y="-95" font-family="Helvetica,sans-Serif" font-size="10.00">Multiple</text>
</a>
</g>
</g>
<!-- Node2&#45;&gt;Node3 -->
<g id="edge2" class="edge"><title>Node2&#45;&gt;Node3</title>
<path fill="none" stroke="midnightblue" d="M331.638,-103C347.199,-103 363.508,-103 378.826,-103"/>
<polygon fill="midnightblue" stroke="midnightblue" points="331.539,-99.5001 321.539,-103 331.538,-106.5 331.539,-99.5001"/>
</g>
<!-- Node5 -->
<g id="node5" class="node"><title>Node5</title>
<g id="a_node5"><a xlink:href="../../da/da8/classview_1_1components_1_1_s_logo_menu_bar.html#afbe8434fba1476e5cbe7401c6bc158ec" target="_top" xlink:title="view.components.SLogoMenu\lBar.SLogoMenuBar">
<polygon fill="white" stroke="black" points="370,-39 370,-69 528,-69 528,-39 370,-39"/>
<text text-anchor="start" x="378" y="-57" font-family="Helvetica,sans-Serif" font-size="10.00">view.components.SLogoMenu</text>
<text text-anchor="middle" x="449" y="-46" font-family="Helvetica,sans-Serif" font-size="10.00">Bar.SLogoMenuBar</text>
</a>
</g>
</g>
<!-- Node4&#45;&gt;Node5 -->
<g id="edge4" class="edge"><title>Node4&#45;&gt;Node5</title>
<path fill="none" stroke="midnightblue" d="M344.153,-54C352.769,-54 361.47,-54 369.975,-54"/>
<polygon fill="midnightblue" stroke="midnightblue" points="344.094,-50.5001 334.094,-54 344.094,-57.5001 344.094,-50.5001"/>
</g>
</g>
</svg>
