<?xml version="1.0" encoding="UTF-8" standalone="no"?>
<!DOCTYPE svg PUBLIC "-//W3C//DTD SVG 1.1//EN"
 "http://www.w3.org/Graphics/SVG/1.1/DTD/svg11.dtd">
<!-- Generated by graphviz version 2.36.0 (20140111.2315)
 -->
<!-- Title: view.View.runDebugger Pages: 1 -->
<svg width="1774pt" height="954pt"
 viewBox="0.00 0.00 1774.00 954.00" xmlns="http://www.w3.org/2000/svg" xmlns:xlink="http://www.w3.org/1999/xlink">
<g id="graph0" class="graph" transform="scale(1 1) rotate(0) translate(4 950)">
<title>view.View.runDebugger</title>
<polygon fill="white" stroke="none" points="-4,4 -4,-950 1770,-950 1770,4 -4,4"/>
<!-- Node1 -->
<g id="node1" class="node"><title>Node1</title>
<polygon fill="#bfbfbf" stroke="black" points="0,-67.5 0,-86.5 126,-86.5 126,-67.5 0,-67.5"/>
<text text-anchor="middle" x="63" y="-74.5" font-family="Helvetica,sans-Serif" font-size="10.00">view.View.runDebugger</text>
</g>
<!-- Node2 -->
<g id="node2" class="node"><title>Node2</title>
<g id="a_node2"><a xlink:href="../../de/d30/classview_1_1components_1_1_s_logo_workspace.html#ad2141a5cca8101b3d22b2cf7b7473281" target="_top" xlink:title="view.components.SLogoWorkspace.run\lDebugger">
<polygon fill="white" stroke="black" points="162,-62 162,-92 364,-92 364,-62 162,-62"/>
<text text-anchor="start" x="170" y="-80" font-family="Helvetica,sans-Serif" font-size="10.00">view.components.SLogoWorkspace.run</text>
<text text-anchor="middle" x="263" y="-69" font-family="Helvetica,sans-Serif" font-size="10.00">Debugger</text>
</a>
</g>
</g>
<!-- Node1&#45;&gt;Node2 -->
<g id="edge1" class="edge"><title>Node1&#45;&gt;Node2</title>
<path fill="none" stroke="midnightblue" d="M126.105,-77C134.257,-77 142.798,-77 151.458,-77"/>
<polygon fill="midnightblue" stroke="midnightblue" points="151.663,-80.5001 161.663,-77 151.663,-73.5001 151.663,-80.5001"/>
</g>
<!-- Node3 -->
<g id="node3" class="node"><title>Node3</title>
<g id="a_node3"><a xlink:href="../../d5/d4b/classview_1_1components_1_1_turtle_window.html#a84744ff6c257318689fc0e014350fb05" target="_top" xlink:title="view.components.TurtleWindow.step\lDebug">
<polygon fill="white" stroke="black" points="400,-62 400,-92 586,-92 586,-62 400,-62"/>
<text text-anchor="start" x="408" y="-80" font-family="Helvetica,sans-Serif" font-size="10.00">view.components.TurtleWindow.step</text>
<text text-anchor="middle" x="493" y="-69" font-family="Helvetica,sans-Serif" font-size="10.00">Debug</text>
</a>
</g>
</g>
<!-- Node2&#45;&gt;Node3 -->
<g id="edge2" class="edge"><title>Node2&#45;&gt;Node3</title>
<path fill="none" stroke="midnightblue" d="M364.004,-77C372.604,-77 381.312,-77 389.928,-77"/>
<polygon fill="midnightblue" stroke="midnightblue" points="389.988,-80.5001 399.988,-77 389.988,-73.5001 389.988,-80.5001"/>
</g>
<!-- Node4 -->
<g id="node4" class="node"><title>Node4</title>
<g id="a_node4"><a xlink:href="../../dd/ddc/classview_1_1turtle_1_1_turtle_image.html#a68a832da6825e57061dbc49b30098291" target="_top" xlink:title="view.turtle.TurtleImage.pop\lUpdate">
<polygon fill="white" stroke="black" points="622,-62 622,-92 766,-92 766,-62 622,-62"/>
<text text-anchor="start" x="630" y="-80" font-family="Helvetica,sans-Serif" font-size="10.00">view.turtle.TurtleImage.pop</text>
<text text-anchor="middle" x="694" y="-69" font-family="Helvetica,sans-Serif" font-size="10.00">Update</text>
</a>
</g>
</g>
<!-- Node3&#45;&gt;Node4 -->
<g id="edge3" class="edge"><title>Node3&#45;&gt;Node4</title>
<path fill="none" stroke="midnightblue" d="M586.218,-77C594.747,-77 603.348,-77 611.768,-77"/>
<polygon fill="midnightblue" stroke="midnightblue" points="611.932,-80.5001 621.932,-77 611.932,-73.5001 611.932,-80.5001"/>
</g>
<!-- Node5 -->
<g id="node5" class="node"><title>Node5</title>
<g id="a_node5"><a xlink:href="../../dd/ddc/classview_1_1turtle_1_1_turtle_image.html#afd9abc603b052b7c9c14108400109917" target="_top" xlink:title="view.turtle.TurtleImage.process\lUpdate">
<polygon fill="white" stroke="black" points="802,-450 802,-480 966,-480 966,-450 802,-450"/>
<text text-anchor="start" x="810" y="-468" font-family="Helvetica,sans-Serif" font-size="10.00">view.turtle.TurtleImage.process</text>
<text text-anchor="middle" x="884" y="-457" font-family="Helvetica,sans-Serif" font-size="10.00">Update</text>
</a>
</g>
</g>
<!-- Node4&#45;&gt;Node5 -->
<g id="edge4" class="edge"><title>Node4&#45;&gt;Node5</title>
<path fill="none" stroke="midnightblue" d="M702.37,-92.2101C731.093,-151.49 835.693,-367.367 871.152,-440.547"/>
<polygon fill="midnightblue" stroke="midnightblue" points="868.171,-442.422 875.681,-449.895 874.47,-439.37 868.171,-442.422"/>
</g>
<!-- Node6 -->
<g id="node6" class="node"><title>Node6</title>
<g id="a_node6"><a xlink:href="../../db/dce/classmodel_1_1_turtle_update.html#a7ebfc78794f604d565e22150004b8325" target="_top" xlink:title="model.TurtleUpdate.isTurtle\lInactive">
<polygon fill="white" stroke="black" points="1034,-652 1034,-682 1180,-682 1180,-652 1034,-652"/>
<text text-anchor="start" x="1042" y="-670" font-family="Helvetica,sans-Serif" font-size="10.00">model.TurtleUpdate.isTurtle</text>
<text text-anchor="middle" x="1107" y="-659" font-family="Helvetica,sans-Serif" font-size="10.00">Inactive</text>
</a>
</g>
</g>
<!-- Node5&#45;&gt;Node6 -->
<g id="edge5" class="edge"><title>Node5&#45;&gt;Node6</title>
<path fill="none" stroke="midnightblue" d="M890.485,-480.115C903.821,-514.625 941.369,-599.505 1002,-642 1008.83,-646.788 1016.47,-650.665 1024.42,-653.804"/>
<polygon fill="midnightblue" stroke="midnightblue" points="1023.27,-657.11 1033.86,-657.16 1025.61,-650.514 1023.27,-657.11"/>
</g>
<!-- Node7 -->
<g id="node7" class="node"><title>Node7</title>
<g id="a_node7"><a xlink:href="../../db/dce/classmodel_1_1_turtle_update.html#a6c2e9c2e4216253c37801998a329455b" target="_top" xlink:title="model.TurtleUpdate.isTurtle\lPenUp">
<polygon fill="white" stroke="black" points="1034,-603 1034,-633 1180,-633 1180,-603 1034,-603"/>
<text text-anchor="start" x="1042" y="-621" font-family="Helvetica,sans-Serif" font-size="10.00">model.TurtleUpdate.isTurtle</text>
<text text-anchor="middle" x="1107" y="-610" font-family="Helvetica,sans-Serif" font-size="10.00">PenUp</text>
</a>
</g>
</g>
<!-- Node5&#45;&gt;Node7 -->
<g id="edge6" class="edge"><title>Node5&#45;&gt;Node7</title>
<path fill="none" stroke="midnightblue" d="M894.496,-480.34C912.149,-507.503 952.734,-563.93 1002,-593 1008.94,-597.093 1016.51,-600.516 1024.3,-603.38"/>
<polygon fill="midnightblue" stroke="midnightblue" points="1023.29,-606.733 1033.88,-606.602 1025.52,-600.098 1023.29,-606.733"/>
</g>
<!-- Node8 -->
<g id="node8" class="node"><title>Node8</title>
<g id="a_node8"><a xlink:href="../../d5/d46/classview_1_1components_1_1_palette.html#af6c1989fcbc763b66af3fc609fa59ff9" target="_top" xlink:title="view.components.Palette.get\lImage">
<polygon fill="white" stroke="black" points="1030,-554 1030,-584 1184,-584 1184,-554 1030,-554"/>
<text text-anchor="start" x="1038" y="-572" font-family="Helvetica,sans-Serif" font-size="10.00">view.components.Palette.get</text>
<text text-anchor="middle" x="1107" y="-561" font-family="Helvetica,sans-Serif" font-size="10.00">Image</text>
</a>
</g>
</g>
<!-- Node5&#45;&gt;Node8 -->
<g id="edge7" class="edge"><title>Node5&#45;&gt;Node8</title>
<path fill="none" stroke="midnightblue" d="M902.831,-480.07C924.786,-497.878 963.869,-527.204 1002,-544 1007.8,-546.554 1013.9,-548.872 1020.12,-550.971"/>
<polygon fill="midnightblue" stroke="midnightblue" points="1019.37,-554.406 1029.96,-554.091 1021.49,-547.733 1019.37,-554.406"/>
</g>
<!-- Node9 -->
<g id="node9" class="node"><title>Node9</title>
<g id="a_node9"><a xlink:href="../../db/dce/classmodel_1_1_turtle_update.html#a36b8205a61dd875ac4521cf51906c275" target="_top" xlink:title="model.TurtleUpdate.getShapeID">
<polygon fill="white" stroke="black" points="1022,-515.5 1022,-534.5 1192,-534.5 1192,-515.5 1022,-515.5"/>
<text text-anchor="middle" x="1107" y="-522.5" font-family="Helvetica,sans-Serif" font-size="10.00">model.TurtleUpdate.getShapeID</text>
</a>
</g>
</g>
<!-- Node5&#45;&gt;Node9 -->
<g id="edge8" class="edge"><title>Node5&#45;&gt;Node9</title>
<path fill="none" stroke="midnightblue" d="M922.998,-480.012C945.661,-488.537 975.16,-498.892 1002,-506 1012.53,-508.788 1023.76,-511.304 1034.81,-513.525"/>
<polygon fill="midnightblue" stroke="midnightblue" points="1034.4,-517.01 1044.88,-515.481 1035.73,-510.138 1034.4,-517.01"/>
</g>
<!-- Node10 -->
<g id="node10" class="node"><title>Node10</title>
<g id="a_node10"><a xlink:href="../../db/dce/classmodel_1_1_turtle_update.html#a5e88189d0b5f21c9474b5617cb396b13" target="_top" xlink:title="model.TurtleUpdate.isStamp">
<polygon fill="white" stroke="black" points="1030.5,-477.5 1030.5,-496.5 1183.5,-496.5 1183.5,-477.5 1030.5,-477.5"/>
<text text-anchor="middle" x="1107" y="-484.5" font-family="Helvetica,sans-Serif" font-size="10.00">model.TurtleUpdate.isStamp</text>
</a>
</g>
</g>
<!-- Node5&#45;&gt;Node10 -->
<g id="edge9" class="edge"><title>Node5&#45;&gt;Node10</title>
<path fill="none" stroke="midnightblue" d="M966.037,-473.067C983.647,-474.82 1002.33,-476.68 1020.12,-478.451"/>
<polygon fill="midnightblue" stroke="midnightblue" points="1020.18,-481.974 1030.48,-479.482 1020.87,-475.009 1020.18,-481.974"/>
</g>
<!-- Node11 -->
<g id="node11" class="node"><title>Node11</title>
<g id="a_node11"><a xlink:href="../../dd/ddc/classview_1_1turtle_1_1_turtle_image.html#aa1a5f2d4c96c64f526f4df58fd5e77d6" target="_top" xlink:title="view.turtle.TurtleImage.leave\lStamp">
<polygon fill="white" stroke="black" points="1031,-428 1031,-458 1183,-458 1183,-428 1031,-428"/>
<text text-anchor="start" x="1039" y="-446" font-family="Helvetica,sans-Serif" font-size="10.00">view.turtle.TurtleImage.leave</text>
<text text-anchor="middle" x="1107" y="-435" font-family="Helvetica,sans-Serif" font-size="10.00">Stamp</text>
</a>
</g>
</g>
<!-- Node5&#45;&gt;Node11 -->
<g id="edge10" class="edge"><title>Node5&#45;&gt;Node11</title>
<path fill="none" stroke="midnightblue" d="M966.037,-456.933C983.833,-455.161 1002.73,-453.281 1020.69,-451.493"/>
<polygon fill="midnightblue" stroke="midnightblue" points="1021.24,-454.955 1030.84,-450.482 1020.54,-447.99 1021.24,-454.955"/>
</g>
<!-- Node12 -->
<g id="node12" class="node"><title>Node12</title>
<g id="a_node12"><a xlink:href="../../db/dce/classmodel_1_1_turtle_update.html#ab56febaad846cad5592395c3a67a68db" target="_top" xlink:title="model.TurtleUpdate.isTurtle\lClear">
<polygon fill="white" stroke="black" points="1034,-379 1034,-409 1180,-409 1180,-379 1034,-379"/>
<text text-anchor="start" x="1042" y="-397" font-family="Helvetica,sans-Serif" font-size="10.00">model.TurtleUpdate.isTurtle</text>
<text text-anchor="middle" x="1107" y="-386" font-family="Helvetica,sans-Serif" font-size="10.00">Clear</text>
</a>
</g>
</g>
<!-- Node5&#45;&gt;Node12 -->
<g id="edge11" class="edge"><title>Node5&#45;&gt;Node12</title>
<path fill="none" stroke="midnightblue" d="M919.615,-449.927C942.668,-440.254 973.793,-427.888 1002,-419 1010.24,-416.405 1018.91,-413.928 1027.59,-411.611"/>
<polygon fill="midnightblue" stroke="midnightblue" points="1028.58,-414.971 1037.38,-409.066 1026.82,-408.196 1028.58,-414.971"/>
</g>
<!-- Node13 -->
<g id="node13" class="node"><title>Node13</title>
<g id="a_node13"><a xlink:href="../../d4/d93/classview_1_1turtle_1_1_turtle_pen.html#ae7dfe008f68eef44da5ee831b062952a" target="_top" xlink:title="view.turtle.TurtlePen.updatePen">
<polygon fill="white" stroke="black" points="1024,-340.5 1024,-359.5 1190,-359.5 1190,-340.5 1024,-340.5"/>
<text text-anchor="middle" x="1107" y="-347.5" font-family="Helvetica,sans-Serif" font-size="10.00">view.turtle.TurtlePen.updatePen</text>
</a>
</g>
</g>
<!-- Node5&#45;&gt;Node13 -->
<g id="edge12" class="edge"><title>Node5&#45;&gt;Node13</title>
<path fill="none" stroke="midnightblue" d="M898.865,-449.755C919.259,-428.345 959.546,-389.779 1002,-370 1008.47,-366.984 1015.38,-364.423 1022.43,-362.248"/>
<polygon fill="midnightblue" stroke="midnightblue" points="1023.44,-365.599 1032.12,-359.515 1021.54,-358.862 1023.44,-365.599"/>
</g>
<!-- Node14 -->
<g id="node14" class="node"><title>Node14</title>
<g id="a_node14"><a xlink:href="../../d5/d46/classview_1_1components_1_1_palette.html#acf5106175f97e28619e7ed993b9fce93" target="_top" xlink:title="view.components.Palette.get\lColor">
<polygon fill="white" stroke="black" points="1030,-291 1030,-321 1184,-321 1184,-291 1030,-291"/>
<text text-anchor="start" x="1038" y="-309" font-family="Helvetica,sans-Serif" font-size="10.00">view.components.Palette.get</text>
<text text-anchor="middle" x="1107" y="-298" font-family="Helvetica,sans-Serif" font-size="10.00">Color</text>
</a>
</g>
</g>
<!-- Node5&#45;&gt;Node14 -->
<g id="edge13" class="edge"><title>Node5&#45;&gt;Node14</title>
<path fill="none" stroke="midnightblue" d="M893.771,-449.821C910.826,-421.732 951.277,-361.713 1002,-331 1007.76,-327.51 1013.98,-324.508 1020.41,-321.924"/>
<polygon fill="midnightblue" stroke="midnightblue" points="1021.77,-325.155 1029.95,-318.431 1019.36,-318.582 1021.77,-325.155"/>
</g>
<!-- Node15 -->
<g id="node15" class="node"><title>Node15</title>
<g id="a_node15"><a xlink:href="../../d4/d93/classview_1_1turtle_1_1_turtle_pen.html#ab0c25ebb2a0dd4243c58a4c57f4413b6" target="_top" xlink:title="view.turtle.TurtlePen.get\lColorIndex">
<polygon fill="white" stroke="black" points="1042,-242 1042,-272 1172,-272 1172,-242 1042,-242"/>
<text text-anchor="start" x="1050" y="-260" font-family="Helvetica,sans-Serif" font-size="10.00">view.turtle.TurtlePen.get</text>
<text text-anchor="middle" x="1107" y="-249" font-family="Helvetica,sans-Serif" font-size="10.00">ColorIndex</text>
</a>
</g>
</g>
<!-- Node5&#45;&gt;Node15 -->
<g id="edge14" class="edge"><title>Node5&#45;&gt;Node15</title>
<path fill="none" stroke="midnightblue" d="M890.14,-449.907C902.979,-414.583 939.957,-326.192 1002,-282 1010.97,-275.607 1021.38,-270.835 1032.06,-267.275"/>
<polygon fill="midnightblue" stroke="midnightblue" points="1033.34,-270.547 1041.92,-264.336 1031.34,-263.839 1033.34,-270.547"/>
</g>
<!-- Node16 -->
<g id="node16" class="node"><title>Node16</title>
<g id="a_node16"><a xlink:href="../../dd/ddc/classview_1_1turtle_1_1_turtle_image.html#a86b462f57b86f6c0a72357fdc2655aa1" target="_top" xlink:title="view.turtle.TurtleImage.math\lCoordsToCanvasCoords">
<polygon fill="white" stroke="black" points="1031,-193 1031,-223 1183,-223 1183,-193 1031,-193"/>
<text text-anchor="start" x="1039" y="-211" font-family="Helvetica,sans-Serif" font-size="10.00">view.turtle.TurtleImage.math</text>
<text text-anchor="middle" x="1107" y="-200" font-family="Helvetica,sans-Serif" font-size="10.00">CoordsToCanvasCoords</text>
</a>
</g>
</g>
<!-- Node5&#45;&gt;Node16 -->
<g id="edge15" class="edge"><title>Node5&#45;&gt;Node16</title>
<path fill="none" stroke="midnightblue" d="M888.04,-449.734C897.178,-408.001 928.444,-291.252 1002,-233 1007.8,-228.403 1014.32,-224.631 1021.2,-221.54"/>
<polygon fill="midnightblue" stroke="midnightblue" points="1022.76,-224.686 1030.75,-217.732 1020.16,-218.183 1022.76,-224.686"/>
</g>
<!-- Node17 -->
<g id="node17" class="node"><title>Node17</title>
<g id="a_node17"><a xlink:href="../../db/dce/classmodel_1_1_turtle_update.html#a4a8bce496fed0074bb206694b80de851" target="_top" xlink:title="model.TurtleUpdate.getTurtle\lOldCoordinates">
<polygon fill="white" stroke="black" points="1029.5,-144 1029.5,-174 1184.5,-174 1184.5,-144 1029.5,-144"/>
<text text-anchor="start" x="1037.5" y="-162" font-family="Helvetica,sans-Serif" font-size="10.00">model.TurtleUpdate.getTurtle</text>
<text text-anchor="middle" x="1107" y="-151" font-family="Helvetica,sans-Serif" font-size="10.00">OldCoordinates</text>
</a>
</g>
</g>
<!-- Node5&#45;&gt;Node17 -->
<g id="edge16" class="edge"><title>Node5&#45;&gt;Node17</title>
<path fill="none" stroke="midnightblue" d="M886.585,-449.728C892.345,-402.379 916.554,-256.863 1002,-184 1007.32,-179.466 1013.32,-175.726 1019.68,-172.642"/>
<polygon fill="midnightblue" stroke="midnightblue" points="1021.41,-175.713 1029.24,-168.579 1018.67,-169.271 1021.41,-175.713"/>
</g>
<!-- Node18 -->
<g id="node18" class="node"><title>Node18</title>
<g id="a_node18"><a xlink:href="../../d8/d6a/classmodel_1_1_coordinates.html#a52f6ed56424da9a52c598f9c94f2c8ff" target="_top" xlink:title="model.Coordinates.getY">
<polygon fill="white" stroke="black" points="1041.5,-105.5 1041.5,-124.5 1172.5,-124.5 1172.5,-105.5 1041.5,-105.5"/>
<text text-anchor="middle" x="1107" y="-112.5" font-family="Helvetica,sans-Serif" font-size="10.00">model.Coordinates.getY</text>
</a>
</g>
</g>
<!-- Node5&#45;&gt;Node18 -->
<g id="edge17" class="edge"><title>Node5&#45;&gt;Node18</title>
<path fill="none" stroke="midnightblue" d="M885.369,-449.982C887.523,-397.493 902.201,-220.786 1002,-135 1010.43,-127.751 1020.69,-122.811 1031.43,-119.493"/>
<polygon fill="midnightblue" stroke="midnightblue" points="1032.61,-122.802 1041.4,-116.883 1030.84,-116.031 1032.61,-122.802"/>
</g>
<!-- Node19 -->
<g id="node19" class="node"><title>Node19</title>
<g id="a_node19"><a xlink:href="../../db/dce/classmodel_1_1_turtle_update.html#a2b6573ce1d167dd921e9abc9fff7c1dd" target="_top" xlink:title="model.TurtleUpdate.getTurtle\lNewCoordinates">
<polygon fill="white" stroke="black" points="1029.5,-916 1029.5,-946 1184.5,-946 1184.5,-916 1029.5,-916"/>
<text text-anchor="start" x="1037.5" y="-934" font-family="Helvetica,sans-Serif" font-size="10.00">model.TurtleUpdate.getTurtle</text>
<text text-anchor="middle" x="1107" y="-923" font-family="Helvetica,sans-Serif" font-size="10.00">NewCoordinates</text>
</a>
</g>
</g>
<!-- Node5&#45;&gt;Node19 -->
<g id="edge18" class="edge"><title>Node5&#45;&gt;Node19</title>
<path fill="none" stroke="midnightblue" d="M886.927,-480.095C896.182,-550.257 938.254,-843.73 1002,-906 1007.3,-911.174 1013.47,-915.343 1020.11,-918.694"/>
<polygon fill="midnightblue" stroke="midnightblue" points="1018.86,-921.968 1029.42,-922.775 1021.67,-915.556 1018.86,-921.968"/>
</g>
<!-- Node20 -->
<g id="node20" class="node"><title>Node20</title>
<g id="a_node20"><a xlink:href="../../dd/ddc/classview_1_1turtle_1_1_turtle_image.html#a6798d71b6457a6b70b472171e64f11f2" target="_top" xlink:title="view.turtle.TurtleImage.hide">
<polygon fill="white" stroke="black" points="1034,-877.5 1034,-896.5 1180,-896.5 1180,-877.5 1034,-877.5"/>
<text text-anchor="middle" x="1107" y="-884.5" font-family="Helvetica,sans-Serif" font-size="10.00">view.turtle.TurtleImage.hide</text>
</a>
</g>
</g>
<!-- Node5&#45;&gt;Node20 -->
<g id="edge19" class="edge"><title>Node5&#45;&gt;Node20</title>
<path fill="none" stroke="midnightblue" d="M887.275,-480.147C897.574,-546.703 941.949,-812.302 1002,-867 1008.52,-872.937 1016.24,-877.352 1024.5,-880.606"/>
<polygon fill="midnightblue" stroke="midnightblue" points="1023.4,-883.932 1034,-883.806 1025.64,-877.298 1023.4,-883.932"/>
</g>
<!-- Node21 -->
<g id="node21" class="node"><title>Node21</title>
<g id="a_node21"><a xlink:href="../../db/dce/classmodel_1_1_turtle_update.html#a7288583a573d839635a8773a01563300" target="_top" xlink:title="model.TurtleUpdate.isTurtle\lHidden">
<polygon fill="white" stroke="black" points="1034,-828 1034,-858 1180,-858 1180,-828 1034,-828"/>
<text text-anchor="start" x="1042" y="-846" font-family="Helvetica,sans-Serif" font-size="10.00">model.TurtleUpdate.isTurtle</text>
<text text-anchor="middle" x="1107" y="-835" font-family="Helvetica,sans-Serif" font-size="10.00">Hidden</text>
</a>
</g>
</g>
<!-- Node5&#45;&gt;Node21 -->
<g id="edge20" class="edge"><title>Node5&#45;&gt;Node21</title>
<path fill="none" stroke="midnightblue" d="M885.128,-480.102C886.449,-534.608 898.616,-722.969 1002,-818 1008.51,-823.981 1016.19,-828.602 1024.38,-832.162"/>
<polygon fill="midnightblue" stroke="midnightblue" points="1023.23,-835.467 1033.82,-835.747 1025.71,-828.923 1023.23,-835.467"/>
</g>
<!-- Node22 -->
<g id="node22" class="node"><title>Node22</title>
<g id="a_node22"><a xlink:href="../../d4/d93/classview_1_1turtle_1_1_turtle_pen.html#aeb591e6c3666a998228a86dbe9121c35" target="_top" xlink:title="view.turtle.TurtlePen.drawLine">
<polygon fill="white" stroke="black" points="1029,-789.5 1029,-808.5 1185,-808.5 1185,-789.5 1029,-789.5"/>
<text text-anchor="middle" x="1107" y="-796.5" font-family="Helvetica,sans-Serif" font-size="10.00">view.turtle.TurtlePen.drawLine</text>
</a>
</g>
</g>
<!-- Node5&#45;&gt;Node22 -->
<g id="edge21" class="edge"><title>Node5&#45;&gt;Node22</title>
<path fill="none" stroke="midnightblue" d="M885.671,-480.011C888.805,-530.876 906.28,-698.039 1002,-779 1007.23,-783.428 1013.15,-786.99 1019.44,-789.844"/>
<polygon fill="midnightblue" stroke="midnightblue" points="1018.29,-793.155 1028.88,-793.539 1020.85,-786.636 1018.29,-793.155"/>
</g>
<!-- Node26 -->
<g id="node26" class="node"><title>Node26</title>
<g id="a_node26"><a xlink:href="../../dd/ddc/classview_1_1turtle_1_1_turtle_image.html#aca0a62f113534161f725da472e1f4d9f" target="_top" xlink:title="view.turtle.TurtleImage.unanimatedMove">
<polygon fill="white" stroke="black" points="1002.5,-67.5 1002.5,-86.5 1211.5,-86.5 1211.5,-67.5 1002.5,-67.5"/>
<text text-anchor="middle" x="1107" y="-74.5" font-family="Helvetica,sans-Serif" font-size="10.00">view.turtle.TurtleImage.unanimatedMove</text>
</a>
</g>
</g>
<!-- Node5&#45;&gt;Node26 -->
<g id="edge25" class="edge"><title>Node5&#45;&gt;Node26</title>
<path fill="none" stroke="midnightblue" d="M884.703,-449.815C884.487,-393.252 891.817,-193.072 1002,-96 1003.73,-94.472 1005.55,-93.0483 1007.43,-91.7224"/>
<polygon fill="midnightblue" stroke="midnightblue" points="1009.33,-94.666 1016.1,-86.5151 1005.73,-88.666 1009.33,-94.666"/>
</g>
<!-- Node27 -->
<g id="node27" class="node"><title>Node27</title>
<g id="a_node27"><a xlink:href="../../db/dce/classmodel_1_1_turtle_update.html#aff8157b2082cdae408655d87ed85b74e" target="_top" xlink:title="model.TurtleUpdate.getTurtle\lAngle">
<polygon fill="white" stroke="black" points="1029.5,-740 1029.5,-770 1184.5,-770 1184.5,-740 1029.5,-740"/>
<text text-anchor="start" x="1037.5" y="-758" font-family="Helvetica,sans-Serif" font-size="10.00">model.TurtleUpdate.getTurtle</text>
<text text-anchor="middle" x="1107" y="-747" font-family="Helvetica,sans-Serif" font-size="10.00">Angle</text>
</a>
</g>
</g>
<!-- Node5&#45;&gt;Node27 -->
<g id="edge27" class="edge"><title>Node5&#45;&gt;Node27</title>
<path fill="none" stroke="midnightblue" d="M886.974,-480.06C893.75,-525.428 920.337,-661.846 1002,-730 1007.36,-734.477 1013.4,-738.178 1019.79,-741.234"/>
<polygon fill="midnightblue" stroke="midnightblue" points="1018.8,-744.614 1029.37,-745.266 1021.51,-738.162 1018.8,-744.614"/>
</g>
<!-- Node28 -->
<g id="node28" class="node"><title>Node28</title>
<g id="a_node28"><a xlink:href="../../de/dfa/classmodel_1_1_angle.html#aa1b069cc47fadd893fe8527c356dd8fd" target="_top" xlink:title="model.Angle.getAngleValue">
<polygon fill="white" stroke="black" points="1032.5,-701.5 1032.5,-720.5 1181.5,-720.5 1181.5,-701.5 1032.5,-701.5"/>
<text text-anchor="middle" x="1107" y="-708.5" font-family="Helvetica,sans-Serif" font-size="10.00">model.Angle.getAngleValue</text>
</a>
</g>
</g>
<!-- Node5&#45;&gt;Node28 -->
<g id="edge28" class="edge"><title>Node5&#45;&gt;Node28</title>
<path fill="none" stroke="midnightblue" d="M888.032,-480.056C897.151,-521.182 928.373,-636.005 1002,-691 1008.27,-695.681 1015.32,-699.358 1022.73,-702.236"/>
<polygon fill="midnightblue" stroke="midnightblue" points="1021.68,-705.575 1032.27,-705.47 1023.93,-698.945 1021.68,-705.575"/>
</g>
<!-- Node29 -->
<g id="node29" class="node"><title>Node29</title>
<g id="a_node29"><a xlink:href="../../dd/ddc/classview_1_1turtle_1_1_turtle_image.html#a958417ed4561c0b910f80944a5110ec7" target="_top" xlink:title="view.turtle.TurtleImage.animatedMove">
<polygon fill="white" stroke="black" points="1008.5,-29.5 1008.5,-48.5 1205.5,-48.5 1205.5,-29.5 1008.5,-29.5"/>
<text text-anchor="middle" x="1107" y="-36.5" font-family="Helvetica,sans-Serif" font-size="10.00">view.turtle.TurtleImage.animatedMove</text>
</a>
</g>
</g>
<!-- Node5&#45;&gt;Node29 -->
<g id="edge29" class="edge"><title>Node5&#45;&gt;Node29</title>
<path fill="none" stroke="midnightblue" d="M887.233,-449.653C897.357,-382.221 941.094,-113.144 1002,-58 1003.53,-56.6141 1005.13,-55.3134 1006.78,-54.0929"/>
<polygon fill="midnightblue" stroke="midnightblue" points="1008.88,-56.9115 1015.49,-48.6376 1005.16,-50.9788 1008.88,-56.9115"/>
</g>
<!-- Node23 -->
<g id="node23" class="node"><title>Node23</title>
<g id="a_node23"><a xlink:href="../../d4/d93/classview_1_1turtle_1_1_turtle_pen.html#a3eea64b5d17767f655096870f4a5850d" target="_top" xlink:title="view.turtle.TurtlePen.draw\lGappedLine">
<polygon fill="white" stroke="black" points="1258.5,-784 1258.5,-814 1395.5,-814 1395.5,-784 1258.5,-784"/>
<text text-anchor="start" x="1266.5" y="-802" font-family="Helvetica,sans-Serif" font-size="10.00">view.turtle.TurtlePen.draw</text>
<text text-anchor="middle" x="1327" y="-791" font-family="Helvetica,sans-Serif" font-size="10.00">GappedLine</text>
</a>
</g>
</g>
<!-- Node22&#45;&gt;Node23 -->
<g id="edge22" class="edge"><title>Node22&#45;&gt;Node23</title>
<path fill="none" stroke="midnightblue" d="M1185.17,-799C1205.6,-799 1227.67,-799 1248.14,-799"/>
<polygon fill="midnightblue" stroke="midnightblue" points="1248.36,-802.5 1258.36,-799 1248.36,-795.5 1248.36,-802.5"/>
</g>
<!-- Node24 -->
<g id="node24" class="node"><title>Node24</title>
<g id="a_node24"><a xlink:href="../../d4/d93/classview_1_1turtle_1_1_turtle_pen.html#a78a412ae5c294fd37981146020ea4009" target="_top" xlink:title="view.turtle.TurtlePen.generate\lDashVectorArray">
<polygon fill="white" stroke="black" points="1442,-784 1442,-814 1600,-814 1600,-784 1442,-784"/>
<text text-anchor="start" x="1450" y="-802" font-family="Helvetica,sans-Serif" font-size="10.00">view.turtle.TurtlePen.generate</text>
<text text-anchor="middle" x="1521" y="-791" font-family="Helvetica,sans-Serif" font-size="10.00">DashVectorArray</text>
</a>
</g>
</g>
<!-- Node23&#45;&gt;Node24 -->
<g id="edge23" class="edge"><title>Node23&#45;&gt;Node24</title>
<path fill="none" stroke="midnightblue" d="M1395.69,-799C1407.33,-799 1419.58,-799 1431.67,-799"/>
<polygon fill="midnightblue" stroke="midnightblue" points="1431.77,-802.5 1441.77,-799 1431.77,-795.5 1431.77,-802.5"/>
</g>
<!-- Node25 -->
<g id="node25" class="node"><title>Node25</title>
<g id="a_node25"><a xlink:href="../../d4/d93/classview_1_1turtle_1_1_turtle_pen.html#a1553953625d014db95e9af6faa83e667" target="_top" xlink:title="view.turtle.TurtlePen.get\lUnitVector">
<polygon fill="white" stroke="black" points="1636,-784 1636,-814 1766,-814 1766,-784 1636,-784"/>
<text text-anchor="start" x="1644" y="-802" font-family="Helvetica,sans-Serif" font-size="10.00">view.turtle.TurtlePen.get</text>
<text text-anchor="middle" x="1701" y="-791" font-family="Helvetica,sans-Serif" font-size="10.00">UnitVector</text>
</a>
</g>
</g>
<!-- Node24&#45;&gt;Node25 -->
<g id="edge24" class="edge"><title>Node24&#45;&gt;Node25</title>
<path fill="none" stroke="midnightblue" d="M1600.07,-799C1608.57,-799 1617.21,-799 1625.66,-799"/>
<polygon fill="midnightblue" stroke="midnightblue" points="1625.86,-802.5 1635.86,-799 1625.86,-795.5 1625.86,-802.5"/>
</g>
<!-- Node26&#45;&gt;Node4 -->
<g id="edge26" class="edge"><title>Node26&#45;&gt;Node4</title>
<path fill="none" stroke="midnightblue" d="M1002.26,-77C932.212,-77 841.069,-77 776.285,-77"/>
<polygon fill="midnightblue" stroke="midnightblue" points="776.122,-73.5001 766.122,-77 776.121,-80.5001 776.122,-73.5001"/>
</g>
<!-- Node29&#45;&gt;Node4 -->
<g id="edge32" class="edge"><title>Node29&#45;&gt;Node4</title>
<path fill="none" stroke="midnightblue" d="M1008.45,-48.0194C937.613,-54.5686 842.883,-63.3271 776.168,-69.4955"/>
<polygon fill="midnightblue" stroke="midnightblue" points="775.757,-66.0184 766.122,-70.4243 776.401,-72.9887 775.757,-66.0184"/>
</g>
<!-- Node30 -->
<g id="node30" class="node"><title>Node30</title>
<g id="a_node30"><a xlink:href="../../dd/ddc/classview_1_1turtle_1_1_turtle_image.html#afad70374651ad6165f7d48b7bf268d71" target="_top" xlink:title="view.turtle.TurtleImage.create\lRotateTransition">
<polygon fill="white" stroke="black" points="1248.5,-0 1248.5,-30 1405.5,-30 1405.5,-0 1248.5,-0"/>
<text text-anchor="start" x="1256.5" y="-18" font-family="Helvetica,sans-Serif" font-size="10.00">view.turtle.TurtleImage.create</text>
<text text-anchor="middle" x="1327" y="-7" font-family="Helvetica,sans-Serif" font-size="10.00">RotateTransition</text>
</a>
</g>
</g>
<!-- Node29&#45;&gt;Node30 -->
<g id="edge30" class="edge"><title>Node29&#45;&gt;Node30</title>
<path fill="none" stroke="midnightblue" d="M1194.47,-29.4801C1208.96,-27.8851 1224,-26.229 1238.52,-24.6312"/>
<polygon fill="midnightblue" stroke="midnightblue" points="1238.91,-28.1092 1248.47,-23.5358 1238.14,-21.1512 1238.91,-28.1092"/>
</g>
<!-- Node31 -->
<g id="node31" class="node"><title>Node31</title>
<g id="a_node31"><a xlink:href="../../dd/ddc/classview_1_1turtle_1_1_turtle_image.html#a579bab57c4e802a8a119ba0253b58ed9" target="_top" xlink:title="view.turtle.TurtleImage.create\lTranslateTransition">
<polygon fill="white" stroke="black" points="1248.5,-49 1248.5,-79 1405.5,-79 1405.5,-49 1248.5,-49"/>
<text text-anchor="start" x="1256.5" y="-67" font-family="Helvetica,sans-Serif" font-size="10.00">view.turtle.TurtleImage.create</text>
<text text-anchor="middle" x="1327" y="-56" font-family="Helvetica,sans-Serif" font-size="10.00">TranslateTransition</text>
</a>
</g>
</g>
<!-- Node29&#45;&gt;Node31 -->
<g id="edge31" class="edge"><title>Node29&#45;&gt;Node31</title>
<path fill="none" stroke="midnightblue" d="M1191.04,-48.5227C1206.44,-50.2886 1222.57,-52.1385 1238.11,-53.9203"/>
<polygon fill="midnightblue" stroke="midnightblue" points="1237.88,-57.4176 1248.22,-55.0798 1238.68,-50.4631 1237.88,-57.4176"/>
</g>
</g>
</svg>
