<?xml version="1.0" encoding="UTF-8" standalone="no"?>
<!DOCTYPE svg PUBLIC "-//W3C//DTD SVG 1.1//EN"
 "http://www.w3.org/Graphics/SVG/1.1/DTD/svg11.dtd">
<!-- Generated by graphviz version 2.36.0 (20140111.2315)
 -->
<!-- Title: view.View.setTabTitle Pages: 1 -->
<svg width="510pt" height="38pt"
 viewBox="0.00 0.00 510.00 38.00" xmlns="http://www.w3.org/2000/svg" xmlns:xlink="http://www.w3.org/1999/xlink">
<g id="graph0" class="graph" transform="scale(1 1) rotate(0) translate(4 34)">
<title>view.View.setTabTitle</title>
<polygon fill="white" stroke="none" points="-4,4 -4,-34 506,-34 506,4 -4,4"/>
<!-- Node1 -->
<g id="node1" class="node"><title>Node1</title>
<polygon fill="#bfbfbf" stroke="black" points="0.5,-5.5 0.5,-24.5 113.5,-24.5 113.5,-5.5 0.5,-5.5"/>
<text text-anchor="middle" x="57" y="-12.5" font-family="Helvetica,sans-Serif" font-size="10.00">view.View.setTabTitle</text>
</g>
<!-- Node2 -->
<g id="node2" class="node"><title>Node2</title>
<g id="a_node2"><a xlink:href="../../da/da8/classview_1_1components_1_1_s_logo_menu_bar.html#a8e395aa3dd6b23abf4e158d4a2f19d10" target="_top" xlink:title="view.components.SLogoMenu\lBar.makePreferencesMenu">
<polygon fill="white" stroke="black" points="150,-0 150,-30 308,-30 308,-0 150,-0"/>
<text text-anchor="start" x="158" y="-18" font-family="Helvetica,sans-Serif" font-size="10.00">view.components.SLogoMenu</text>
<text text-anchor="middle" x="229" y="-7" font-family="Helvetica,sans-Serif" font-size="10.00">Bar.makePreferencesMenu</text>
</a>
</g>
</g>
<!-- Node1&#45;&gt;Node2 -->
<g id="edge1" class="edge"><title>Node1&#45;&gt;Node2</title>
<path fill="none" stroke="midnightblue" d="M123.925,-15C132.468,-15 141.282,-15 149.997,-15"/>
<polygon fill="midnightblue" stroke="midnightblue" points="123.664,-11.5001 113.664,-15 123.664,-18.5001 123.664,-11.5001"/>
</g>
<!-- Node3 -->
<g id="node3" class="node"><title>Node3</title>
<g id="a_node3"><a xlink:href="../../da/da8/classview_1_1components_1_1_s_logo_menu_bar.html#afbe8434fba1476e5cbe7401c6bc158ec" target="_top" xlink:title="view.components.SLogoMenu\lBar.SLogoMenuBar">
<polygon fill="white" stroke="black" points="344,-0 344,-30 502,-30 502,-0 344,-0"/>
<text text-anchor="start" x="352" y="-18" font-family="Helvetica,sans-Serif" font-size="10.00">view.components.SLogoMenu</text>
<text text-anchor="middle" x="423" y="-7" font-family="Helvetica,sans-Serif" font-size="10.00">Bar.SLogoMenuBar</text>
</a>
</g>
</g>
<!-- Node2&#45;&gt;Node3 -->
<g id="edge2" class="edge"><title>Node2&#45;&gt;Node3</title>
<path fill="none" stroke="midnightblue" d="M318.153,-15C326.769,-15 335.47,-15 343.975,-15"/>
<polygon fill="midnightblue" stroke="midnightblue" points="318.094,-11.5001 308.094,-15 318.094,-18.5001 318.094,-11.5001"/>
</g>
</g>
</svg>
