<?xml version="1.0" encoding="UTF-8" standalone="no"?>
<!DOCTYPE svg PUBLIC "-//W3C//DTD SVG 1.1//EN"
 "http://www.w3.org/Graphics/SVG/1.1/DTD/svg11.dtd">
<!-- Generated by graphviz version 2.36.0 (20140111.2315)
 -->
<!-- Title: view.View.getInstance Pages: 1 -->
<svg width="592pt" height="371pt"
 viewBox="0.00 0.00 592.00 371.00" xmlns="http://www.w3.org/2000/svg" xmlns:xlink="http://www.w3.org/1999/xlink">
<g id="graph0" class="graph" transform="scale(1 1) rotate(0) translate(4 367)">
<title>view.View.getInstance</title>
<polygon fill="white" stroke="none" points="-4,4 -4,-367 588,-367 588,4 -4,4"/>
<!-- Node1 -->
<g id="node1" class="node"><title>Node1</title>
<polygon fill="#bfbfbf" stroke="black" points="0.5,-166.5 0.5,-185.5 119.5,-185.5 119.5,-166.5 0.5,-166.5"/>
<text text-anchor="middle" x="60" y="-173.5" font-family="Helvetica,sans-Serif" font-size="10.00">view.View.getInstance</text>
</g>
<!-- Node2 -->
<g id="node2" class="node"><title>Node2</title>
<g id="a_node2"><a xlink:href="../../d9/dea/classmodel_1_1_turtle_multiple.html#aa13efbce628306faad5ba5a2ace04658" target="_top" xlink:title="model.TurtleMultiple.add\lNewTurtle">
<polygon fill="white" stroke="black" points="189.5,-333 189.5,-363 322.5,-363 322.5,-333 189.5,-333"/>
<text text-anchor="start" x="197.5" y="-351" font-family="Helvetica,sans-Serif" font-size="10.00">model.TurtleMultiple.add</text>
<text text-anchor="middle" x="256" y="-340" font-family="Helvetica,sans-Serif" font-size="10.00">NewTurtle</text>
</a>
</g>
</g>
<!-- Node1&#45;&gt;Node2 -->
<g id="edge1" class="edge"><title>Node1&#45;&gt;Node2</title>
<path fill="none" stroke="midnightblue" d="M67.946,-195.126C80.4582,-226.795 109.857,-289.904 156,-323 165.867,-330.077 177.542,-335.157 189.351,-338.802"/>
<polygon fill="midnightblue" stroke="midnightblue" points="71.1791,-193.781 64.3503,-185.681 64.637,-196.272 71.1791,-193.781"/>
</g>
<!-- Node4 -->
<g id="node4" class="node"><title>Node4</title>
<g id="a_node4"><a xlink:href="../../db/d98/classview_1_1components_1_1_command_port.html#a5963d9acc7cb5497eeda04b2a6666592" target="_top" xlink:title="view.components.CommandPort.enter\lDebugMode">
<polygon fill="white" stroke="black" points="156,-284 156,-314 356,-314 356,-284 156,-284"/>
<text text-anchor="start" x="164" y="-302" font-family="Helvetica,sans-Serif" font-size="10.00">view.components.CommandPort.enter</text>
<text text-anchor="middle" x="256" y="-291" font-family="Helvetica,sans-Serif" font-size="10.00">DebugMode</text>
</a>
</g>
</g>
<!-- Node1&#45;&gt;Node4 -->
<g id="edge3" class="edge"><title>Node1&#45;&gt;Node4</title>
<path fill="none" stroke="midnightblue" d="M73.4996,-194.038C89.8645,-216.26 120.66,-253.571 156,-274 162.753,-277.904 170.109,-281.204 177.661,-283.993"/>
<polygon fill="midnightblue" stroke="midnightblue" points="76.2579,-191.879 67.5831,-185.796 70.5713,-195.961 76.2579,-191.879"/>
</g>
<!-- Node6 -->
<g id="node6" class="node"><title>Node6</title>
<g id="a_node6"><a xlink:href="../../d4/d6b/classview_1_1components_1_1_debugger_port.html#a18fd0abad345eed2738b7e156ac1fbe1" target="_top" xlink:title="view.components.Debugger\lPort.exitDebugMode">
<polygon fill="white" stroke="black" points="181.5,-235 181.5,-265 330.5,-265 330.5,-235 181.5,-235"/>
<text text-anchor="start" x="189.5" y="-253" font-family="Helvetica,sans-Serif" font-size="10.00">view.components.Debugger</text>
<text text-anchor="middle" x="256" y="-242" font-family="Helvetica,sans-Serif" font-size="10.00">Port.exitDebugMode</text>
</a>
</g>
</g>
<!-- Node1&#45;&gt;Node6 -->
<g id="edge5" class="edge"><title>Node1&#45;&gt;Node6</title>
<path fill="none" stroke="midnightblue" d="M85.7349,-190.754C104.497,-201.446 131.204,-215.616 156,-225 165.782,-228.702 176.313,-232.025 186.73,-234.948"/>
<polygon fill="midnightblue" stroke="midnightblue" points="87.3612,-187.651 76.9529,-185.672 83.8553,-193.71 87.3612,-187.651"/>
</g>
<!-- Node7 -->
<g id="node7" class="node"><title>Node7</title>
<g id="a_node7"><a xlink:href="../../da/df5/classview_1_1listwindows_1_1_commands_list_window.html#a3611428a65d6e7a436971f1b237e644e" target="_top" xlink:title="view.listwindows.Commands\lListWindow.parseCommand">
<polygon fill="white" stroke="black" points="181,-137 181,-167 331,-167 331,-137 181,-137"/>
<text text-anchor="start" x="189" y="-155" font-family="Helvetica,sans-Serif" font-size="10.00">view.listwindows.Commands</text>
<text text-anchor="middle" x="256" y="-144" font-family="Helvetica,sans-Serif" font-size="10.00">ListWindow.parseCommand</text>
</a>
</g>
</g>
<!-- Node1&#45;&gt;Node7 -->
<g id="edge6" class="edge"><title>Node1&#45;&gt;Node7</title>
<path fill="none" stroke="midnightblue" d="M129.815,-167.487C146.285,-165.449 163.942,-163.265 180.649,-161.198"/>
<polygon fill="midnightblue" stroke="midnightblue" points="129.227,-164.033 119.733,-168.734 130.087,-170.98 129.227,-164.033"/>
</g>
<!-- Node10 -->
<g id="node10" class="node"><title>Node10</title>
<g id="a_node10"><a xlink:href="../../db/d98/classview_1_1components_1_1_command_port.html#a687e2098038140e833e1bac1a759b587" target="_top" xlink:title="view.components.CommandPort.run\lCommand">
<polygon fill="white" stroke="black" points="160.5,-186 160.5,-216 351.5,-216 351.5,-186 160.5,-186"/>
<text text-anchor="start" x="168.5" y="-204" font-family="Helvetica,sans-Serif" font-size="10.00">view.components.CommandPort.run</text>
<text text-anchor="middle" x="256" y="-193" font-family="Helvetica,sans-Serif" font-size="10.00">Command</text>
</a>
</g>
</g>
<!-- Node1&#45;&gt;Node10 -->
<g id="edge9" class="edge"><title>Node1&#45;&gt;Node10</title>
<path fill="none" stroke="midnightblue" d="M129.845,-184.872C139.715,-186.144 150.01,-187.47 160.272,-188.793"/>
<polygon fill="midnightblue" stroke="midnightblue" points="130.098,-181.376 119.733,-183.569 129.203,-188.318 130.098,-181.376"/>
</g>
<!-- Node12 -->
<g id="node12" class="node"><title>Node12</title>
<g id="a_node12"><a xlink:href="../../d2/d1d/classmodel_1_1_variable_string.html#a10995e85337a47efad5c2591eeda95bd" target="_top" xlink:title="model.VariableString.set\lValue">
<polygon fill="white" stroke="black" points="189,-88 189,-118 323,-118 323,-88 189,-88"/>
<text text-anchor="start" x="197" y="-106" font-family="Helvetica,sans-Serif" font-size="10.00">model.VariableString.set</text>
<text text-anchor="middle" x="256" y="-95" font-family="Helvetica,sans-Serif" font-size="10.00">Value</text>
</a>
</g>
</g>
<!-- Node1&#45;&gt;Node12 -->
<g id="edge12" class="edge"><title>Node1&#45;&gt;Node12</title>
<path fill="none" stroke="midnightblue" d="M85.3729,-161.37C104.138,-150.62 131.011,-136.321 156,-127 166.439,-123.106 177.736,-119.675 188.836,-116.715"/>
<polygon fill="midnightblue" stroke="midnightblue" points="83.4863,-158.418 76.6041,-166.473 87.0074,-164.468 83.4863,-158.418"/>
</g>
<!-- Node13 -->
<g id="node13" class="node"><title>Node13</title>
<g id="a_node13"><a xlink:href="../../d7/dab/classmodel_1_1_state.html#a6cbe1c79ce98503fbe2e49e81735a587" target="_top" xlink:title="model.State.State">
<polygon fill="white" stroke="black" points="203.5,-49.5 203.5,-68.5 308.5,-68.5 308.5,-49.5 203.5,-49.5"/>
<text text-anchor="middle" x="256" y="-56.5" font-family="Helvetica,sans-Serif" font-size="10.00">model.State.State</text>
</a>
</g>
</g>
<!-- Node1&#45;&gt;Node13 -->
<g id="edge13" class="edge"><title>Node1&#45;&gt;Node13</title>
<path fill="none" stroke="midnightblue" d="M73.0687,-157.976C89.1763,-135.452 119.902,-97.4996 156,-78 170.397,-70.2228 187.484,-65.5921 203.375,-62.8468"/>
<polygon fill="midnightblue" stroke="midnightblue" points="70.1029,-156.11 67.2675,-166.319 75.8501,-160.107 70.1029,-156.11"/>
</g>
<!-- Node14 -->
<g id="node14" class="node"><title>Node14</title>
<g id="a_node14"><a xlink:href="../../d4/d6b/classview_1_1components_1_1_debugger_port.html#a6dd594b7c6572e0f4ef2ab7d8845f2ce" target="_top" xlink:title="view.components.Debugger\lPort.stepDebug">
<polygon fill="white" stroke="black" points="181.5,-0 181.5,-30 330.5,-30 330.5,-0 181.5,-0"/>
<text text-anchor="start" x="189.5" y="-18" font-family="Helvetica,sans-Serif" font-size="10.00">view.components.Debugger</text>
<text text-anchor="middle" x="256" y="-7" font-family="Helvetica,sans-Serif" font-size="10.00">Port.stepDebug</text>
</a>
</g>
</g>
<!-- Node1&#45;&gt;Node14 -->
<g id="edge14" class="edge"><title>Node1&#45;&gt;Node14</title>
<path fill="none" stroke="midnightblue" d="M68.908,-157.055C82.3022,-127.362 112.324,-70.1512 156,-40 163.659,-34.7128 172.34,-30.5427 181.302,-27.254"/>
<polygon fill="midnightblue" stroke="midnightblue" points="65.6567,-155.754 64.8686,-166.32 72.0734,-158.552 65.6567,-155.754"/>
</g>
<!-- Node3 -->
<g id="node3" class="node"><title>Node3</title>
<g id="a_node3"><a xlink:href="../../d9/dea/classmodel_1_1_turtle_multiple.html#a6068e4774b6c15ea02445e207fd22395" target="_top" xlink:title="model.TurtleMultiple.Turtle\lMultiple">
<polygon fill="white" stroke="black" points="418,-333 418,-363 558,-363 558,-333 418,-333"/>
<text text-anchor="start" x="426" y="-351" font-family="Helvetica,sans-Serif" font-size="10.00">model.TurtleMultiple.Turtle</text>
<text text-anchor="middle" x="488" y="-340" font-family="Helvetica,sans-Serif" font-size="10.00">Multiple</text>
</a>
</g>
</g>
<!-- Node2&#45;&gt;Node3 -->
<g id="edge2" class="edge"><title>Node2&#45;&gt;Node3</title>
<path fill="none" stroke="midnightblue" d="M332.903,-348C360.25,-348 390.946,-348 417.7,-348"/>
<polygon fill="midnightblue" stroke="midnightblue" points="332.601,-344.5 322.601,-348 332.601,-351.5 332.601,-344.5"/>
</g>
<!-- Node5 -->
<g id="node5" class="node"><title>Node5</title>
<g id="a_node5"><a xlink:href="../../db/d98/classview_1_1components_1_1_command_port.html#a37ae451233579691839c4a52072c94e9" target="_top" xlink:title="view.components.CommandPort.\lCommandPort">
<polygon fill="white" stroke="black" points="400.5,-260 400.5,-290 575.5,-290 575.5,-260 400.5,-260"/>
<text text-anchor="start" x="408.5" y="-278" font-family="Helvetica,sans-Serif" font-size="10.00">view.components.CommandPort.</text>
<text text-anchor="middle" x="488" y="-267" font-family="Helvetica,sans-Serif" font-size="10.00">CommandPort</text>
</a>
</g>
</g>
<!-- Node4&#45;&gt;Node5 -->
<g id="edge4" class="edge"><title>Node4&#45;&gt;Node5</title>
<path fill="none" stroke="midnightblue" d="M366.251,-287.6C377.713,-286.404 389.252,-285.2 400.41,-284.035"/>
<polygon fill="midnightblue" stroke="midnightblue" points="365.792,-284.129 356.21,-288.648 366.519,-291.091 365.792,-284.129"/>
</g>
<!-- Node8 -->
<g id="node8" class="node"><title>Node8</title>
<g id="a_node8"><a xlink:href="../../df/d26/classview_1_1listwindows_1_1_commands_history_window.html#af341417d427f8b0548670f1efbb3acac" target="_top" xlink:title="view.listwindows.Commands\lHistoryWindow.setButtonAction">
<polygon fill="white" stroke="black" points="405.5,-137 405.5,-167 570.5,-167 570.5,-137 405.5,-137"/>
<text text-anchor="start" x="413.5" y="-155" font-family="Helvetica,sans-Serif" font-size="10.00">view.listwindows.Commands</text>
<text text-anchor="middle" x="488" y="-144" font-family="Helvetica,sans-Serif" font-size="10.00">HistoryWindow.setButtonAction</text>
</a>
</g>
</g>
<!-- Node7&#45;&gt;Node8 -->
<g id="edge7" class="edge"><title>Node7&#45;&gt;Node8</title>
<path fill="none" stroke="midnightblue" d="M341.156,-152C362.03,-152 384.368,-152 405.131,-152"/>
<polygon fill="midnightblue" stroke="midnightblue" points="341.04,-148.5 331.039,-152 341.039,-155.5 341.04,-148.5"/>
</g>
<!-- Node9 -->
<g id="node9" class="node"><title>Node9</title>
<g id="a_node9"><a xlink:href="../../d7/dc7/classview_1_1listwindows_1_1_user_defined_commands_window.html#adaf32233789f6a07c42b4e459699bf53" target="_top" xlink:title="view.listwindows.UserDefined\lCommandsWindow.setButtonAction">
<polygon fill="white" stroke="black" points="394.5,-88 394.5,-118 581.5,-118 581.5,-88 394.5,-88"/>
<text text-anchor="start" x="402.5" y="-106" font-family="Helvetica,sans-Serif" font-size="10.00">view.listwindows.UserDefined</text>
<text text-anchor="middle" x="488" y="-95" font-family="Helvetica,sans-Serif" font-size="10.00">CommandsWindow.setButtonAction</text>
</a>
</g>
</g>
<!-- Node7&#45;&gt;Node9 -->
<g id="edge8" class="edge"><title>Node7&#45;&gt;Node9</title>
<path fill="none" stroke="midnightblue" d="M337.666,-134.815C363.385,-129.335 391.627,-123.318 416.563,-118.006"/>
<polygon fill="midnightblue" stroke="midnightblue" points="336.622,-131.458 327.571,-136.965 338.08,-138.305 336.622,-131.458"/>
</g>
<!-- Node10&#45;&gt;Node5 -->
<g id="edge10" class="edge"><title>Node10&#45;&gt;Node5</title>
<path fill="none" stroke="midnightblue" d="M333.974,-218.644C341.452,-220.663 348.895,-222.793 356,-225 388.779,-235.184 425.19,-249.317 451.288,-259.961"/>
<polygon fill="midnightblue" stroke="midnightblue" points="334.71,-215.219 324.149,-216.058 332.928,-221.988 334.71,-215.219"/>
</g>
<!-- Node11 -->
<g id="node11" class="node"><title>Node11</title>
<g id="a_node11"><a xlink:href="../../db/d98/classview_1_1components_1_1_command_port.html#afcdcfbfa864e7438dc0f0a3f1c541294" target="_top" xlink:title="view.components.CommandPort.run\lCommand">
<polygon fill="white" stroke="black" points="392.5,-186 392.5,-216 583.5,-216 583.5,-186 392.5,-186"/>
<text text-anchor="start" x="400.5" y="-204" font-family="Helvetica,sans-Serif" font-size="10.00">view.components.CommandPort.run</text>
<text text-anchor="middle" x="488" y="-193" font-family="Helvetica,sans-Serif" font-size="10.00">Command</text>
</a>
</g>
</g>
<!-- Node10&#45;&gt;Node11 -->
<g id="edge11" class="edge"><title>Node10&#45;&gt;Node11</title>
<path fill="none" stroke="midnightblue" d="M361.735,-201C371.973,-201 382.321,-201 392.45,-201"/>
<polygon fill="midnightblue" stroke="midnightblue" points="361.546,-197.5 351.545,-201 361.545,-204.5 361.546,-197.5"/>
</g>
<!-- Node15 -->
<g id="node15" class="node"><title>Node15</title>
<g id="a_node15"><a xlink:href="../../d4/d6b/classview_1_1components_1_1_debugger_port.html#a7055f8fe86c7e1078dc9909a7f000b8b" target="_top" xlink:title="view.components.Debugger\lPort.DebuggerPort">
<polygon fill="white" stroke="black" points="413.5,-0 413.5,-30 562.5,-30 562.5,-0 413.5,-0"/>
<text text-anchor="start" x="421.5" y="-18" font-family="Helvetica,sans-Serif" font-size="10.00">view.components.Debugger</text>
<text text-anchor="middle" x="488" y="-7" font-family="Helvetica,sans-Serif" font-size="10.00">Port.DebuggerPort</text>
</a>
</g>
</g>
<!-- Node14&#45;&gt;Node15 -->
<g id="edge15" class="edge"><title>Node14&#45;&gt;Node15</title>
<path fill="none" stroke="midnightblue" d="M340.77,-15C364.52,-15 390.193,-15 413.3,-15"/>
<polygon fill="midnightblue" stroke="midnightblue" points="340.723,-11.5001 330.722,-15 340.722,-18.5001 340.723,-11.5001"/>
</g>
</g>
</svg>
