<?xml version="1.0" encoding="UTF-8" standalone="no"?>
<!DOCTYPE svg PUBLIC "-//W3C//DTD SVG 1.1//EN"
 "http://www.w3.org/Graphics/SVG/1.1/DTD/svg11.dtd">
<!-- Generated by graphviz version 2.36.0 (20140111.2315)
 -->
<!-- Title: view.View.addDebuger Pages: 1 -->
<svg width="782pt" height="38pt"
 viewBox="0.00 0.00 782.00 38.00" xmlns="http://www.w3.org/2000/svg" xmlns:xlink="http://www.w3.org/1999/xlink">
<g id="graph0" class="graph" transform="scale(1 1) rotate(0) translate(4 34)">
<title>view.View.addDebuger</title>
<polygon fill="white" stroke="none" points="-4,4 -4,-34 778,-34 778,4 -4,4"/>
<!-- Node1 -->
<g id="node1" class="node"><title>Node1</title>
<polygon fill="#bfbfbf" stroke="black" points="0,-5.5 0,-24.5 122,-24.5 122,-5.5 0,-5.5"/>
<text text-anchor="middle" x="61" y="-12.5" font-family="Helvetica,sans-Serif" font-size="10.00">view.View.addDebuger</text>
</g>
<!-- Node2 -->
<g id="node2" class="node"><title>Node2</title>
<g id="a_node2"><a xlink:href="../../de/d30/classview_1_1components_1_1_s_logo_workspace.html#a101f8c1f0ab5d6096b14ba2350d145bb" target="_top" xlink:title="view.components.SLogoWorkspace.start\lDebugger">
<polygon fill="white" stroke="black" points="158.5,-0 158.5,-30 367.5,-30 367.5,-0 158.5,-0"/>
<text text-anchor="start" x="166.5" y="-18" font-family="Helvetica,sans-Serif" font-size="10.00">view.components.SLogoWorkspace.start</text>
<text text-anchor="middle" x="263" y="-7" font-family="Helvetica,sans-Serif" font-size="10.00">Debugger</text>
</a>
</g>
</g>
<!-- Node1&#45;&gt;Node2 -->
<g id="edge1" class="edge"><title>Node1&#45;&gt;Node2</title>
<path fill="none" stroke="midnightblue" d="M122.007,-15C130.366,-15 139.173,-15 148.131,-15"/>
<polygon fill="midnightblue" stroke="midnightblue" points="148.293,-18.5001 158.293,-15 148.293,-11.5001 148.293,-18.5001"/>
</g>
<!-- Node3 -->
<g id="node3" class="node"><title>Node3</title>
<g id="a_node3"><a xlink:href="../../d5/d4b/classview_1_1components_1_1_turtle_window.html#a16e7723d456ac7fa532544e477e43728" target="_top" xlink:title="view.components.TurtleWindow.enter\lDebugMode">
<polygon fill="white" stroke="black" points="404.5,-0 404.5,-30 595.5,-30 595.5,-0 404.5,-0"/>
<text text-anchor="start" x="412.5" y="-18" font-family="Helvetica,sans-Serif" font-size="10.00">view.components.TurtleWindow.enter</text>
<text text-anchor="middle" x="500" y="-7" font-family="Helvetica,sans-Serif" font-size="10.00">DebugMode</text>
</a>
</g>
</g>
<!-- Node2&#45;&gt;Node3 -->
<g id="edge2" class="edge"><title>Node2&#45;&gt;Node3</title>
<path fill="none" stroke="midnightblue" d="M367.758,-15C376.508,-15 385.36,-15 394.117,-15"/>
<polygon fill="midnightblue" stroke="midnightblue" points="394.342,-18.5001 404.342,-15 394.342,-11.5001 394.342,-18.5001"/>
</g>
<!-- Node4 -->
<g id="node4" class="node"><title>Node4</title>
<g id="a_node4"><a xlink:href="../../dd/ddc/classview_1_1turtle_1_1_turtle_image.html#a723e55da67cc30beb0210960bbc4403b" target="_top" xlink:title="view.turtle.TurtleImage.set\lDebugMode">
<polygon fill="white" stroke="black" points="632.5,-0 632.5,-30 773.5,-30 773.5,-0 632.5,-0"/>
<text text-anchor="start" x="640.5" y="-18" font-family="Helvetica,sans-Serif" font-size="10.00">view.turtle.TurtleImage.set</text>
<text text-anchor="middle" x="703" y="-7" font-family="Helvetica,sans-Serif" font-size="10.00">DebugMode</text>
</a>
</g>
</g>
<!-- Node3&#45;&gt;Node4 -->
<g id="edge3" class="edge"><title>Node3&#45;&gt;Node4</title>
<path fill="none" stroke="midnightblue" d="M595.614,-15C604.543,-15 613.534,-15 622.303,-15"/>
<polygon fill="midnightblue" stroke="midnightblue" points="622.48,-18.5001 632.48,-15 622.48,-11.5001 622.48,-18.5001"/>
</g>
</g>
</svg>
