<?xml version="1.0" encoding="UTF-8" standalone="no"?>
<!DOCTYPE svg PUBLIC "-//W3C//DTD SVG 1.1//EN"
 "http://www.w3.org/Graphics/SVG/1.1/DTD/svg11.dtd">
<!-- Generated by graphviz version 2.36.0 (20140111.2315)
 -->
<!-- Title: view.listwindows.CommandsListWindow Pages: 1 -->
<svg width="330pt" height="220pt"
 viewBox="0.00 0.00 330.00 220.00" xmlns="http://www.w3.org/2000/svg" xmlns:xlink="http://www.w3.org/1999/xlink">
<g id="graph0" class="graph" transform="scale(1 1) rotate(0) translate(4 216)">
<title>view.listwindows.CommandsListWindow</title>
<polygon fill="white" stroke="none" points="-4,4 -4,-216 326,-216 326,4 -4,4"/>
<!-- Node1 -->
<g id="node1" class="node"><title>Node1</title>
<polygon fill="#bfbfbf" stroke="black" points="85,-69 85,-99 235,-99 235,-69 85,-69"/>
<text text-anchor="start" x="93" y="-87" font-family="Helvetica,sans-Serif" font-size="10.00">view.listwindows.Commands</text>
<text text-anchor="middle" x="160" y="-76" font-family="Helvetica,sans-Serif" font-size="10.00">ListWindow</text>
</g>
<!-- Node5 -->
<g id="node5" class="node"><title>Node5</title>
<g id="a_node5"><a xlink:href="../../df/d26/classview_1_1listwindows_1_1_commands_history_window.html" target="_top" xlink:title="view.listwindows.Commands\lHistoryWindow">
<polygon fill="white" stroke="black" points="0,-1 0,-31 150,-31 150,-1 0,-1"/>
<text text-anchor="start" x="8" y="-19" font-family="Helvetica,sans-Serif" font-size="10.00">view.listwindows.Commands</text>
<text text-anchor="middle" x="75" y="-8" font-family="Helvetica,sans-Serif" font-size="10.00">HistoryWindow</text>
</a>
</g>
</g>
<!-- Node1&#45;&gt;Node5 -->
<g id="edge4" class="edge"><title>Node1&#45;&gt;Node5</title>
<path fill="none" stroke="midnightblue" d="M133.353,-62.3094C120.259,-52.1426 104.822,-40.1562 93.1157,-31.0663"/>
<polygon fill="midnightblue" stroke="midnightblue" points="131.511,-65.3105 141.556,-68.679 135.804,-59.7815 131.511,-65.3105"/>
</g>
<!-- Node6 -->
<g id="node6" class="node"><title>Node6</title>
<g id="a_node6"><a xlink:href="../../d7/dc7/classview_1_1listwindows_1_1_user_defined_commands_window.html" target="_top" xlink:title="view.listwindows.UserDefined\lCommandsWindow">
<polygon fill="white" stroke="black" points="168,-1 168,-31 322,-31 322,-1 168,-1"/>
<text text-anchor="start" x="176" y="-19" font-family="Helvetica,sans-Serif" font-size="10.00">view.listwindows.UserDefined</text>
<text text-anchor="middle" x="245" y="-8" font-family="Helvetica,sans-Serif" font-size="10.00">CommandsWindow</text>
</a>
</g>
</g>
<!-- Node1&#45;&gt;Node6 -->
<g id="edge5" class="edge"><title>Node1&#45;&gt;Node6</title>
<path fill="none" stroke="midnightblue" d="M186.647,-62.3094C199.741,-52.1426 215.178,-40.1562 226.884,-31.0663"/>
<polygon fill="midnightblue" stroke="midnightblue" points="184.196,-59.7815 178.444,-68.679 188.489,-65.3105 184.196,-59.7815"/>
</g>
<!-- Node2 -->
<g id="node2" class="node"><title>Node2</title>
<g id="a_node2"><a xlink:href="../../da/d76/classview_1_1listwindows_1_1_list_window.html" target="_top" xlink:title="view.listwindows.ListWindow">
<polygon fill="white" stroke="black" points="5,-136.5 5,-155.5 151,-155.5 151,-136.5 5,-136.5"/>
<text text-anchor="middle" x="78" y="-143.5" font-family="Helvetica,sans-Serif" font-size="10.00">view.listwindows.ListWindow</text>
</a>
</g>
</g>
<!-- Node2&#45;&gt;Node1 -->
<g id="edge1" class="edge"><title>Node2&#45;&gt;Node1</title>
<path fill="none" stroke="midnightblue" d="M98.0273,-130.346C111.01,-120.846 127.833,-108.537 140.674,-99.1408"/>
<polygon fill="midnightblue" stroke="midnightblue" points="95.7521,-127.674 89.7486,-136.403 99.8857,-133.323 95.7521,-127.674"/>
</g>
<!-- Node3 -->
<g id="node3" class="node"><title>Node3</title>
<polygon fill="white" stroke="#bfbfbf" points="55,-192.5 55,-211.5 101,-211.5 101,-192.5 55,-192.5"/>
<text text-anchor="middle" x="78" y="-199.5" font-family="Helvetica,sans-Serif" font-size="10.00">Group</text>
</g>
<!-- Node3&#45;&gt;Node2 -->
<g id="edge2" class="edge"><title>Node3&#45;&gt;Node2</title>
<path fill="none" stroke="midnightblue" d="M78,-181.805C78,-172.91 78,-162.78 78,-155.751"/>
<polygon fill="midnightblue" stroke="midnightblue" points="74.5001,-182.083 78,-192.083 81.5001,-182.083 74.5001,-182.083"/>
</g>
<!-- Node4 -->
<g id="node4" class="node"><title>Node4</title>
<g id="a_node4"><a xlink:href="../../dd/db2/interfaceview_1_1components_1_1_observer.html" target="_top" xlink:title="view.components.Observer">
<polygon fill="white" stroke="black" points="169,-136.5 169,-155.5 315,-155.5 315,-136.5 169,-136.5"/>
<text text-anchor="middle" x="242" y="-143.5" font-family="Helvetica,sans-Serif" font-size="10.00">view.components.Observer</text>
</a>
</g>
</g>
<!-- Node4&#45;&gt;Node1 -->
<g id="edge3" class="edge"><title>Node4&#45;&gt;Node1</title>
<path fill="none" stroke="midnightblue" d="M221.973,-130.346C208.99,-120.846 192.167,-108.537 179.326,-99.1408"/>
<polygon fill="midnightblue" stroke="midnightblue" points="220.114,-133.323 230.251,-136.403 224.248,-127.674 220.114,-133.323"/>
</g>
</g>
</svg>
