<?xml version="1.0" encoding="UTF-8" standalone="no"?>
<!DOCTYPE svg PUBLIC "-//W3C//DTD SVG 1.1//EN"
 "http://www.w3.org/Graphics/SVG/1.1/DTD/svg11.dtd">
<!-- Generated by graphviz version 2.36.0 (20140111.2315)
 -->
<!-- Title: parser.commands.BinaryTurtleCommand Pages: 1 -->
<svg width="170pt" height="176pt"
 viewBox="0.00 0.00 170.00 176.00" xmlns="http://www.w3.org/2000/svg" xmlns:xlink="http://www.w3.org/1999/xlink">
<g id="graph0" class="graph" transform="scale(1 1) rotate(0) translate(4 172)">
<title>parser.commands.BinaryTurtleCommand</title>
<polygon fill="white" stroke="none" points="-4,4 -4,-172 166,-172 166,4 -4,4"/>
<!-- Node1 -->
<g id="node1" class="node"><title>Node1</title>
<polygon fill="#bfbfbf" stroke="black" points="0,-1 0,-31 162,-31 162,-1 0,-1"/>
<text text-anchor="start" x="8" y="-19" font-family="Helvetica,sans-Serif" font-size="10.00">parser.commands.BinaryTurtle</text>
<text text-anchor="middle" x="81" y="-8" font-family="Helvetica,sans-Serif" font-size="10.00">Command</text>
</g>
<!-- Node2 -->
<g id="node2" class="node"><title>Node2</title>
<g id="a_node2"><a xlink:href="../../db/d11/classparser_1_1nodes_1_1_binary_node.html" target="_top" xlink:title="parser.nodes.BinaryNode">
<polygon fill="white" stroke="black" points="12.5,-70.5 12.5,-89.5 149.5,-89.5 149.5,-70.5 12.5,-70.5"/>
<text text-anchor="middle" x="81" y="-77.5" font-family="Helvetica,sans-Serif" font-size="10.00">parser.nodes.BinaryNode</text>
</a>
</g>
</g>
<!-- Node2&#45;&gt;Node1 -->
<g id="edge1" class="edge"><title>Node2&#45;&gt;Node1</title>
<path fill="none" stroke="midnightblue" d="M81,-60.1826C81,-50.8859 81,-39.8507 81,-31.263"/>
<polygon fill="midnightblue" stroke="midnightblue" points="77.5001,-60.3791 81,-70.3792 84.5001,-60.3792 77.5001,-60.3791"/>
</g>
<!-- Node3 -->
<g id="node3" class="node"><title>Node3</title>
<g id="a_node3"><a xlink:href="../../da/d96/classparser_1_1nodes_1_1_syntax_node.html" target="_top" xlink:title="parser.nodes.SyntaxNode">
<polygon fill="white" stroke="black" points="11,-148.5 11,-167.5 151,-167.5 151,-148.5 11,-148.5"/>
<text text-anchor="middle" x="81" y="-155.5" font-family="Helvetica,sans-Serif" font-size="10.00">parser.nodes.SyntaxNode</text>
</a>
</g>
</g>
<!-- Node3&#45;&gt;Node2 -->
<g id="edge2" class="edge"><title>Node3&#45;&gt;Node2</title>
<path fill="none" stroke="midnightblue" d="M79.4399,-138.382C79.2572,-135.575 79.1003,-132.713 79,-130 78.6386,-120.229 78.6386,-117.771 79,-108 79.2293,-101.8 79.7539,-94.8151 80.2083,-89.5033"/>
<polygon fill="midnightblue" stroke="midnightblue" points="75.9607,-138.791 80.2083,-148.497 82.9406,-138.26 75.9607,-138.791"/>
</g>
<!-- Node3&#45;&gt;Node2 -->
<g id="edge3" class="edge"><title>Node3&#45;&gt;Node2</title>
<path fill="none" stroke="#9a32cd" stroke-dasharray="5,2" d="M81,-138.224C81,-122.697 81,-101.358 81,-89.6165"/>
<polygon fill="#9a32cd" stroke="#9a32cd" points="77.5001,-138.282 81,-148.282 84.5001,-138.282 77.5001,-138.282"/>
<text text-anchor="middle" x="104.5" y="-122" font-family="Helvetica,sans-Serif" font-size="10.00"> nodeOne</text>
<text text-anchor="middle" x="104.5" y="-111" font-family="Helvetica,sans-Serif" font-size="10.00">nodeTwo</text>
</g>
</g>
</svg>
