<?xml version="1.0" encoding="UTF-8" standalone="no"?>
<!DOCTYPE svg PUBLIC "-//W3C//DTD SVG 1.1//EN"
 "http://www.w3.org/Graphics/SVG/1.1/DTD/svg11.dtd">
<!-- Generated by graphviz version 2.36.0 (20140111.2315)
 -->
<!-- Title: view.toolbar.Toolbar.getTurtleWindow Pages: 1 -->
<svg width="920pt" height="329pt"
 viewBox="0.00 0.00 920.00 329.00" xmlns="http://www.w3.org/2000/svg" xmlns:xlink="http://www.w3.org/1999/xlink">
<g id="graph0" class="graph" transform="scale(1 1) rotate(0) translate(4 325)">
<title>view.toolbar.Toolbar.getTurtleWindow</title>
<polygon fill="white" stroke="none" points="-4,4 -4,-325 916,-325 916,4 -4,4"/>
<!-- Node1 -->
<g id="node1" class="node"><title>Node1</title>
<polygon fill="#bfbfbf" stroke="black" points="0.5,-144 0.5,-174 127.5,-174 127.5,-144 0.5,-144"/>
<text text-anchor="start" x="8.5" y="-162" font-family="Helvetica,sans-Serif" font-size="10.00">view.toolbar.Toolbar.get</text>
<text text-anchor="middle" x="64" y="-151" font-family="Helvetica,sans-Serif" font-size="10.00">TurtleWindow</text>
</g>
<!-- Node2 -->
<g id="node2" class="node"><title>Node2</title>
<g id="a_node2"><a xlink:href="../../d7/d7b/classview_1_1toolbar_1_1_turtle_pen_color_toolbar_item.html#a0b353c165297fdad8db40a26504130c3" target="_top" xlink:title="view.toolbar.TurtlePenColor\lToolbarItem.changeTurtleProperties">
<polygon fill="white" stroke="black" points="164.5,-291 164.5,-321 349.5,-321 349.5,-291 164.5,-291"/>
<text text-anchor="start" x="172.5" y="-309" font-family="Helvetica,sans-Serif" font-size="10.00">view.toolbar.TurtlePenColor</text>
<text text-anchor="middle" x="257" y="-298" font-family="Helvetica,sans-Serif" font-size="10.00">ToolbarItem.changeTurtleProperties</text>
</a>
</g>
</g>
<!-- Node1&#45;&gt;Node2 -->
<g id="edge1" class="edge"><title>Node1&#45;&gt;Node2</title>
<path fill="none" stroke="midnightblue" d="M78.1732,-183.024C94.6334,-210.784 125.392,-255.859 164,-281 169.964,-284.884 176.52,-288.168 183.301,-290.945"/>
<polygon fill="midnightblue" stroke="midnightblue" points="81.1819,-181.235 73.1485,-174.328 75.1208,-184.737 81.1819,-181.235"/>
</g>
<!-- Node3 -->
<g id="node3" class="node"><title>Node3</title>
<g id="a_node3"><a xlink:href="../../d5/d89/classview_1_1toolbar_1_1_turtle_image_toolbar_item.html#aa29e6598c29bec8407b001e330dfd233" target="_top" xlink:title="view.toolbar.TurtleImage\lToolbarItem.changeTurtleProperties">
<polygon fill="white" stroke="black" points="164.5,-242 164.5,-272 349.5,-272 349.5,-242 164.5,-242"/>
<text text-anchor="start" x="172.5" y="-260" font-family="Helvetica,sans-Serif" font-size="10.00">view.toolbar.TurtleImage</text>
<text text-anchor="middle" x="257" y="-249" font-family="Helvetica,sans-Serif" font-size="10.00">ToolbarItem.changeTurtleProperties</text>
</a>
</g>
</g>
<!-- Node1&#45;&gt;Node3 -->
<g id="edge2" class="edge"><title>Node1&#45;&gt;Node3</title>
<path fill="none" stroke="midnightblue" d="M88.8749,-180.585C107.968,-196.818 136.075,-218.498 164,-232 171.898,-235.818 180.468,-239.127 189.095,-241.974"/>
<polygon fill="midnightblue" stroke="midnightblue" points="91.1222,-177.902 81.271,-174.002 86.5404,-183.194 91.1222,-177.902"/>
</g>
<!-- Node4 -->
<g id="node4" class="node"><title>Node4</title>
<g id="a_node4"><a xlink:href="../../da/de9/classview_1_1toolbar_1_1_add_turtle_toolbar_item.html#a501da263ffe5c70a1aa6dbf7f61f5687" target="_top" xlink:title="view.toolbar.AddTurtleToolbar\lItem.createNode">
<polygon fill="white" stroke="black" points="180.5,-193 180.5,-223 333.5,-223 333.5,-193 180.5,-193"/>
<text text-anchor="start" x="188.5" y="-211" font-family="Helvetica,sans-Serif" font-size="10.00">view.toolbar.AddTurtleToolbar</text>
<text text-anchor="middle" x="257" y="-200" font-family="Helvetica,sans-Serif" font-size="10.00">Item.createNode</text>
</a>
</g>
</g>
<!-- Node1&#45;&gt;Node4 -->
<g id="edge3" class="edge"><title>Node1&#45;&gt;Node4</title>
<path fill="none" stroke="midnightblue" d="M133.408,-176.55C154.383,-181.931 177.257,-187.799 197.506,-192.994"/>
<polygon fill="midnightblue" stroke="midnightblue" points="134.16,-173.129 123.604,-174.035 132.421,-179.91 134.16,-173.129"/>
</g>
<!-- Node5 -->
<g id="node5" class="node"><title>Node5</title>
<g id="a_node5"><a xlink:href="../../dc/d2a/classview_1_1toolbar_1_1_background_color_toolbar_item.html#a1e98ce959666bf3b044b1f3a1021d6da" target="_top" xlink:title="view.toolbar.BackgroundColor\lToolbarItem.createNode">
<polygon fill="white" stroke="black" points="178.5,-144 178.5,-174 335.5,-174 335.5,-144 178.5,-144"/>
<text text-anchor="start" x="186.5" y="-162" font-family="Helvetica,sans-Serif" font-size="10.00">view.toolbar.BackgroundColor</text>
<text text-anchor="middle" x="257" y="-151" font-family="Helvetica,sans-Serif" font-size="10.00">ToolbarItem.createNode</text>
</a>
</g>
</g>
<!-- Node1&#45;&gt;Node5 -->
<g id="edge4" class="edge"><title>Node1&#45;&gt;Node5</title>
<path fill="none" stroke="midnightblue" d="M137.579,-159C150.892,-159 164.836,-159 178.291,-159"/>
<polygon fill="midnightblue" stroke="midnightblue" points="137.541,-155.5 127.541,-159 137.541,-162.5 137.541,-155.5"/>
</g>
<!-- Node6 -->
<g id="node6" class="node"><title>Node6</title>
<g id="a_node6"><a xlink:href="../../d3/d76/classview_1_1toolbar_1_1_show_turtles_toolbar_item.html#ad379d72325d5d4ea31211bb97b8d1d44" target="_top" xlink:title="view.toolbar.ShowTurtles\lToolbarItem.createNode">
<polygon fill="white" stroke="black" points="191.5,-95 191.5,-125 322.5,-125 322.5,-95 191.5,-95"/>
<text text-anchor="start" x="199.5" y="-113" font-family="Helvetica,sans-Serif" font-size="10.00">view.toolbar.ShowTurtles</text>
<text text-anchor="middle" x="257" y="-102" font-family="Helvetica,sans-Serif" font-size="10.00">ToolbarItem.createNode</text>
</a>
</g>
</g>
<!-- Node1&#45;&gt;Node6 -->
<g id="edge5" class="edge"><title>Node1&#45;&gt;Node6</title>
<path fill="none" stroke="midnightblue" d="M133.408,-141.45C154.383,-136.069 177.257,-130.201 197.506,-125.006"/>
<polygon fill="midnightblue" stroke="midnightblue" points="132.421,-138.09 123.604,-143.965 134.16,-144.871 132.421,-138.09"/>
</g>
<!-- Node7 -->
<g id="node7" class="node"><title>Node7</title>
<g id="a_node7"><a xlink:href="../../d2/d72/classview_1_1toolbar_1_1_turtle_specific_toolbar_item.html#aff87aa6f38bcdb6418b027d88c6bd90c" target="_top" xlink:title="view.toolbar.TurtleSpecific\lToolbarItem.getAvailableTurtles">
<polygon fill="white" stroke="black" points="175,-46 175,-76 339,-76 339,-46 175,-46"/>
<text text-anchor="start" x="183" y="-64" font-family="Helvetica,sans-Serif" font-size="10.00">view.toolbar.TurtleSpecific</text>
<text text-anchor="middle" x="257" y="-53" font-family="Helvetica,sans-Serif" font-size="10.00">ToolbarItem.getAvailableTurtles</text>
</a>
</g>
</g>
<!-- Node1&#45;&gt;Node7 -->
<g id="edge6" class="edge"><title>Node1&#45;&gt;Node7</title>
<path fill="none" stroke="midnightblue" d="M88.8749,-137.415C107.968,-121.182 136.075,-99.5016 164,-86 171.898,-82.1816 180.468,-78.8727 189.095,-76.026"/>
<polygon fill="midnightblue" stroke="midnightblue" points="86.5404,-134.806 81.271,-143.998 91.1222,-140.098 86.5404,-134.806"/>
</g>
<!-- Node8 -->
<g id="node8" class="node"><title>Node8</title>
<g id="a_node8"><a xlink:href="../../d2/d72/classview_1_1toolbar_1_1_turtle_specific_toolbar_item.html#a22d6ddd39dd881cc916afab2c6f6e050" target="_top" xlink:title="view.toolbar.TurtleSpecific\lToolbarItem.getUserInput">
<polygon fill="white" stroke="black" points="386.5,-24 386.5,-54 523.5,-54 523.5,-24 386.5,-24"/>
<text text-anchor="start" x="394.5" y="-42" font-family="Helvetica,sans-Serif" font-size="10.00">view.toolbar.TurtleSpecific</text>
<text text-anchor="middle" x="455" y="-31" font-family="Helvetica,sans-Serif" font-size="10.00">ToolbarItem.getUserInput</text>
</a>
</g>
</g>
<!-- Node1&#45;&gt;Node8 -->
<g id="edge11" class="edge"><title>Node1&#45;&gt;Node8</title>
<path fill="none" stroke="midnightblue" d="M76.4069,-134.526C91.6533,-105.091 121.742,-57.1296 164,-37 237.182,-2.1397 333.017,-11.9182 394.066,-23.9763"/>
<polygon fill="midnightblue" stroke="midnightblue" points="73.1463,-133.222 71.8092,-143.732 79.4087,-136.349 73.1463,-133.222"/>
</g>
<!-- Node7&#45;&gt;Node8 -->
<g id="edge7" class="edge"><title>Node7&#45;&gt;Node8</title>
<path fill="none" stroke="midnightblue" d="M349.129,-50.7712C361.65,-49.3658 374.321,-47.9435 386.32,-46.5967"/>
<polygon fill="midnightblue" stroke="midnightblue" points="348.683,-47.2993 339.136,-51.893 349.464,-54.2556 348.683,-47.2993"/>
</g>
<!-- Node9 -->
<g id="node9" class="node"><title>Node9</title>
<g id="a_node9"><a xlink:href="../../d2/d72/classview_1_1toolbar_1_1_turtle_specific_toolbar_item.html#a681453ed9b710bab03151e682b577843" target="_top" xlink:title="view.toolbar.TurtleSpecific\lToolbarItem.getAndModifyTurtles">
<polygon fill="white" stroke="black" points="560.5,-24 560.5,-54 731.5,-54 731.5,-24 560.5,-24"/>
<text text-anchor="start" x="568.5" y="-42" font-family="Helvetica,sans-Serif" font-size="10.00">view.toolbar.TurtleSpecific</text>
<text text-anchor="middle" x="646" y="-31" font-family="Helvetica,sans-Serif" font-size="10.00">ToolbarItem.getAndModifyTurtles</text>
</a>
</g>
</g>
<!-- Node8&#45;&gt;Node9 -->
<g id="edge8" class="edge"><title>Node8&#45;&gt;Node9</title>
<path fill="none" stroke="midnightblue" d="M533.836,-39C542.564,-39 551.487,-39 560.295,-39"/>
<polygon fill="midnightblue" stroke="midnightblue" points="533.7,-35.5001 523.7,-39 533.699,-42.5001 533.7,-35.5001"/>
</g>
<!-- Node10 -->
<g id="node10" class="node"><title>Node10</title>
<g id="a_node10"><a xlink:href="../../d5/d89/classview_1_1toolbar_1_1_turtle_image_toolbar_item.html#ac34cf24ff2eb07189d3d9a56ccf6abf5" target="_top" xlink:title="view.toolbar.TurtleImage\lToolbarItem.createNode">
<polygon fill="white" stroke="black" points="774.5,-49 774.5,-79 905.5,-79 905.5,-49 774.5,-49"/>
<text text-anchor="start" x="782.5" y="-67" font-family="Helvetica,sans-Serif" font-size="10.00">view.toolbar.TurtleImage</text>
<text text-anchor="middle" x="840" y="-56" font-family="Helvetica,sans-Serif" font-size="10.00">ToolbarItem.createNode</text>
</a>
</g>
</g>
<!-- Node9&#45;&gt;Node10 -->
<g id="edge9" class="edge"><title>Node9&#45;&gt;Node10</title>
<path fill="none" stroke="midnightblue" d="M741.842,-51.3492C752.83,-52.7799 763.838,-54.2133 774.29,-55.5743"/>
<polygon fill="midnightblue" stroke="midnightblue" points="742.141,-47.8587 731.773,-50.0381 741.237,-54.8001 742.141,-47.8587"/>
</g>
<!-- Node11 -->
<g id="node11" class="node"><title>Node11</title>
<g id="a_node11"><a xlink:href="../../d7/d7b/classview_1_1toolbar_1_1_turtle_pen_color_toolbar_item.html#a7445747077b71eb93827e3ce5e6c1eb2" target="_top" xlink:title="view.toolbar.TurtlePenColor\lToolbarItem.createNode">
<polygon fill="white" stroke="black" points="768.5,-0 768.5,-30 911.5,-30 911.5,-0 768.5,-0"/>
<text text-anchor="start" x="776.5" y="-18" font-family="Helvetica,sans-Serif" font-size="10.00">view.toolbar.TurtlePenColor</text>
<text text-anchor="middle" x="840" y="-7" font-family="Helvetica,sans-Serif" font-size="10.00">ToolbarItem.createNode</text>
</a>
</g>
</g>
<!-- Node9&#45;&gt;Node11 -->
<g id="edge10" class="edge"><title>Node9&#45;&gt;Node11</title>
<path fill="none" stroke="midnightblue" d="M741.865,-27.1418C750.824,-26.022 759.796,-24.9005 768.469,-23.8164"/>
<polygon fill="midnightblue" stroke="midnightblue" points="741.262,-23.69 731.773,-28.4034 742.13,-30.6359 741.262,-23.69"/>
</g>
</g>
</svg>
