<?xml version="1.0" encoding="UTF-8" standalone="no"?>
<!DOCTYPE svg PUBLIC "-//W3C//DTD SVG 1.1//EN"
 "http://www.w3.org/Graphics/SVG/1.1/DTD/svg11.dtd">
<!-- Generated by graphviz version 2.36.0 (20140111.2315)
 -->
<!-- Title: view.toolbar.ShowTurtlesToolbarItem.createNode Pages: 1 -->
<svg width="372pt" height="136pt"
 viewBox="0.00 0.00 372.00 136.00" xmlns="http://www.w3.org/2000/svg" xmlns:xlink="http://www.w3.org/1999/xlink">
<g id="graph0" class="graph" transform="scale(1 1) rotate(0) translate(4 132)">
<title>view.toolbar.ShowTurtlesToolbarItem.createNode</title>
<polygon fill="white" stroke="none" points="-4,4 -4,-132 368,-132 368,4 -4,4"/>
<!-- Node1 -->
<g id="node1" class="node"><title>Node1</title>
<polygon fill="#bfbfbf" stroke="black" points="0.5,-49 0.5,-79 131.5,-79 131.5,-49 0.5,-49"/>
<text text-anchor="start" x="8.5" y="-67" font-family="Helvetica,sans-Serif" font-size="10.00">view.toolbar.ShowTurtles</text>
<text text-anchor="middle" x="66" y="-56" font-family="Helvetica,sans-Serif" font-size="10.00">ToolbarItem.createNode</text>
</g>
<!-- Node2 -->
<g id="node2" class="node"><title>Node2</title>
<g id="a_node2"><a xlink:href="../../df/dd6/classview_1_1toolbar_1_1_toolbar.html#af475087a1d6bd9a705ed213f676f3339" target="_top" xlink:title="view.toolbar.Toolbar.get\lTurtleWindow">
<polygon fill="white" stroke="black" points="202.5,-98 202.5,-128 329.5,-128 329.5,-98 202.5,-98"/>
<text text-anchor="start" x="210.5" y="-116" font-family="Helvetica,sans-Serif" font-size="10.00">view.toolbar.Toolbar.get</text>
<text text-anchor="middle" x="266" y="-105" font-family="Helvetica,sans-Serif" font-size="10.00">TurtleWindow</text>
</a>
</g>
</g>
<!-- Node1&#45;&gt;Node2 -->
<g id="edge1" class="edge"><title>Node1&#45;&gt;Node2</title>
<path fill="none" stroke="midnightblue" d="M127.752,-79.0346C148.848,-84.2554 172.682,-90.1537 194.498,-95.5526"/>
<polygon fill="midnightblue" stroke="midnightblue" points="193.815,-98.989 204.363,-97.9938 195.496,-92.194 193.815,-98.989"/>
</g>
<!-- Node3 -->
<g id="node3" class="node"><title>Node3</title>
<g id="a_node3"><a xlink:href="../../dc/de6/classview_1_1toolbar_1_1_toolbar_item.html#a9894c0b88f523491c2d748dbaac57ceb" target="_top" xlink:title="view.toolbar.ToolbarItem.set\lLabel">
<polygon fill="white" stroke="black" points="191.5,-49 191.5,-79 340.5,-79 340.5,-49 191.5,-49"/>
<text text-anchor="start" x="199.5" y="-67" font-family="Helvetica,sans-Serif" font-size="10.00">view.toolbar.ToolbarItem.set</text>
<text text-anchor="middle" x="266" y="-56" font-family="Helvetica,sans-Serif" font-size="10.00">Label</text>
</a>
</g>
</g>
<!-- Node1&#45;&gt;Node3 -->
<g id="edge2" class="edge"><title>Node1&#45;&gt;Node3</title>
<path fill="none" stroke="midnightblue" d="M131.559,-64C147.353,-64 164.483,-64 181.038,-64"/>
<polygon fill="midnightblue" stroke="midnightblue" points="181.255,-67.5001 191.255,-64 181.255,-60.5001 181.255,-67.5001"/>
</g>
<!-- Node4 -->
<g id="node4" class="node"><title>Node4</title>
<g id="a_node4"><a xlink:href="../../d5/d4b/classview_1_1components_1_1_turtle_window.html#a271ae7340dd14e919cecb8596690b2dc" target="_top" xlink:title="view.components.TurtleWindow.toggle\lInactiveTurtles">
<polygon fill="white" stroke="black" points="168.5,-0 168.5,-30 363.5,-30 363.5,-0 168.5,-0"/>
<text text-anchor="start" x="176.5" y="-18" font-family="Helvetica,sans-Serif" font-size="10.00">view.components.TurtleWindow.toggle</text>
<text text-anchor="middle" x="266" y="-7" font-family="Helvetica,sans-Serif" font-size="10.00">InactiveTurtles</text>
</a>
</g>
</g>
<!-- Node1&#45;&gt;Node4 -->
<g id="edge3" class="edge"><title>Node1&#45;&gt;Node4</title>
<path fill="none" stroke="midnightblue" d="M127.752,-48.9654C148.848,-43.7446 172.682,-37.8463 194.498,-32.4474"/>
<polygon fill="midnightblue" stroke="midnightblue" points="195.496,-35.806 204.363,-30.0062 193.815,-29.011 195.496,-35.806"/>
</g>
</g>
</svg>
