<?xml version="1.0" encoding="UTF-8" standalone="no"?>
<!DOCTYPE svg PUBLIC "-//W3C//DTD SVG 1.1//EN"
 "http://www.w3.org/Graphics/SVG/1.1/DTD/svg11.dtd">
<!-- Generated by graphviz version 2.36.0 (20140111.2315)
 -->
<!-- Title: view.toolbar.TurtleSpecificToolbarItem Pages: 1 -->
<svg width="299pt" height="220pt"
 viewBox="0.00 0.00 299.00 220.00" xmlns="http://www.w3.org/2000/svg" xmlns:xlink="http://www.w3.org/1999/xlink">
<g id="graph0" class="graph" transform="scale(1 1) rotate(0) translate(4 216)">
<title>view.toolbar.TurtleSpecificToolbarItem</title>
<polygon fill="white" stroke="none" points="-4,4 -4,-216 295,-216 295,4 -4,4"/>
<!-- Node1 -->
<g id="node1" class="node"><title>Node1</title>
<polygon fill="#bfbfbf" stroke="black" points="73.5,-69 73.5,-99 210.5,-99 210.5,-69 73.5,-69"/>
<text text-anchor="start" x="81.5" y="-87" font-family="Helvetica,sans-Serif" font-size="10.00">view.toolbar.TurtleSpecific</text>
<text text-anchor="middle" x="142" y="-76" font-family="Helvetica,sans-Serif" font-size="10.00">ToolbarItem</text>
</g>
<!-- Node4 -->
<g id="node4" class="node"><title>Node4</title>
<g id="a_node4"><a xlink:href="../../d5/d89/classview_1_1toolbar_1_1_turtle_image_toolbar_item.html" target="_top" xlink:title="view.toolbar.TurtleImage\lToolbarItem">
<polygon fill="white" stroke="black" points="-0.5,-1 -0.5,-31 130.5,-31 130.5,-1 -0.5,-1"/>
<text text-anchor="start" x="7.5" y="-19" font-family="Helvetica,sans-Serif" font-size="10.00">view.toolbar.TurtleImage</text>
<text text-anchor="middle" x="65" y="-8" font-family="Helvetica,sans-Serif" font-size="10.00">ToolbarItem</text>
</a>
</g>
</g>
<!-- Node1&#45;&gt;Node4 -->
<g id="edge3" class="edge"><title>Node1&#45;&gt;Node4</title>
<path fill="none" stroke="midnightblue" d="M117.522,-62.0184C105.734,-51.9145 91.9146,-40.0696 81.4107,-31.0663"/>
<polygon fill="midnightblue" stroke="midnightblue" points="115.422,-64.8284 125.292,-68.679 119.977,-59.5136 115.422,-64.8284"/>
</g>
<!-- Node5 -->
<g id="node5" class="node"><title>Node5</title>
<g id="a_node5"><a xlink:href="../../d7/d7b/classview_1_1toolbar_1_1_turtle_pen_color_toolbar_item.html" target="_top" xlink:title="view.toolbar.TurtlePenColor\lToolbarItem">
<polygon fill="white" stroke="black" points="148.5,-1 148.5,-31 291.5,-31 291.5,-1 148.5,-1"/>
<text text-anchor="start" x="156.5" y="-19" font-family="Helvetica,sans-Serif" font-size="10.00">view.toolbar.TurtlePenColor</text>
<text text-anchor="middle" x="220" y="-8" font-family="Helvetica,sans-Serif" font-size="10.00">ToolbarItem</text>
</a>
</g>
</g>
<!-- Node1&#45;&gt;Node5 -->
<g id="edge4" class="edge"><title>Node1&#45;&gt;Node5</title>
<path fill="none" stroke="midnightblue" d="M166.796,-62.0184C178.737,-51.9145 192.736,-40.0696 203.376,-31.0663"/>
<polygon fill="midnightblue" stroke="midnightblue" points="164.298,-59.5477 158.925,-68.679 168.82,-64.8914 164.298,-59.5477"/>
</g>
<!-- Node2 -->
<g id="node2" class="node"><title>Node2</title>
<g id="a_node2"><a xlink:href="../../dc/de6/classview_1_1toolbar_1_1_toolbar_item.html" target="_top" xlink:title="view.toolbar.ToolbarItem">
<polygon fill="white" stroke="black" points="76.5,-136.5 76.5,-155.5 207.5,-155.5 207.5,-136.5 76.5,-136.5"/>
<text text-anchor="middle" x="142" y="-143.5" font-family="Helvetica,sans-Serif" font-size="10.00">view.toolbar.ToolbarItem</text>
</a>
</g>
</g>
<!-- Node2&#45;&gt;Node1 -->
<g id="edge1" class="edge"><title>Node2&#45;&gt;Node1</title>
<path fill="none" stroke="midnightblue" d="M142,-126.371C142,-117.585 142,-107.272 142,-99.1408"/>
<polygon fill="midnightblue" stroke="midnightblue" points="138.5,-126.403 142,-136.403 145.5,-126.403 138.5,-126.403"/>
</g>
<!-- Node3 -->
<g id="node3" class="node"><title>Node3</title>
<polygon fill="white" stroke="#bfbfbf" points="121,-192.5 121,-211.5 163,-211.5 163,-192.5 121,-192.5"/>
<text text-anchor="middle" x="142" y="-199.5" font-family="Helvetica,sans-Serif" font-size="10.00">HBox</text>
</g>
<!-- Node3&#45;&gt;Node2 -->
<g id="edge2" class="edge"><title>Node3&#45;&gt;Node2</title>
<path fill="none" stroke="midnightblue" d="M142,-181.805C142,-172.91 142,-162.78 142,-155.751"/>
<polygon fill="midnightblue" stroke="midnightblue" points="138.5,-182.083 142,-192.083 145.5,-182.083 138.5,-182.083"/>
</g>
</g>
</svg>
