<?xml version="1.0" encoding="UTF-8" standalone="no"?>
<!DOCTYPE svg PUBLIC "-//W3C//DTD SVG 1.1//EN"
 "http://www.w3.org/Graphics/SVG/1.1/DTD/svg11.dtd">
<!-- Generated by graphviz version 2.36.0 (20140111.2315)
 -->
<!-- Title: view.components.DebuggerPort.DebuggerPort Pages: 1 -->
<svg width="2146pt" height="954pt"
 viewBox="0.00 0.00 2146.00 954.00" xmlns="http://www.w3.org/2000/svg" xmlns:xlink="http://www.w3.org/1999/xlink">
<g id="graph0" class="graph" transform="scale(1 1) rotate(0) translate(4 950)">
<title>view.components.DebuggerPort.DebuggerPort</title>
<polygon fill="white" stroke="none" points="-4,4 -4,-950 2142,-950 2142,4 -4,4"/>
<!-- Node1 -->
<g id="node1" class="node"><title>Node1</title>
<polygon fill="#bfbfbf" stroke="black" points="0.5,-81 0.5,-111 149.5,-111 149.5,-81 0.5,-81"/>
<text text-anchor="start" x="8.5" y="-99" font-family="Helvetica,sans-Serif" font-size="10.00">view.components.Debugger</text>
<text text-anchor="middle" x="75" y="-88" font-family="Helvetica,sans-Serif" font-size="10.00">Port.DebuggerPort</text>
</g>
<!-- Node2 -->
<g id="node2" class="node"><title>Node2</title>
<g id="a_node2"><a xlink:href="../../d4/d6b/classview_1_1components_1_1_debugger_port.html#a6dd594b7c6572e0f4ef2ab7d8845f2ce" target="_top" xlink:title="view.components.Debugger\lPort.stepDebug">
<polygon fill="white" stroke="black" points="186.5,-81 186.5,-111 335.5,-111 335.5,-81 186.5,-81"/>
<text text-anchor="start" x="194.5" y="-99" font-family="Helvetica,sans-Serif" font-size="10.00">view.components.Debugger</text>
<text text-anchor="middle" x="261" y="-88" font-family="Helvetica,sans-Serif" font-size="10.00">Port.stepDebug</text>
</a>
</g>
</g>
<!-- Node1&#45;&gt;Node2 -->
<g id="edge1" class="edge"><title>Node1&#45;&gt;Node2</title>
<path fill="none" stroke="midnightblue" d="M149.515,-96C158.315,-96 167.351,-96 176.281,-96"/>
<polygon fill="midnightblue" stroke="midnightblue" points="176.302,-99.5001 186.302,-96 176.302,-92.5001 176.302,-99.5001"/>
</g>
<!-- Node3 -->
<g id="node3" class="node"><title>Node3</title>
<g id="a_node3"><a xlink:href="../../d3/dbe/classview_1_1_view.html#a6950e4055440ab5672a2453b149f41d0" target="_top" xlink:title="view.View.getInstance">
<polygon fill="white" stroke="black" points="375.5,-105.5 375.5,-124.5 494.5,-124.5 494.5,-105.5 375.5,-105.5"/>
<text text-anchor="middle" x="435" y="-112.5" font-family="Helvetica,sans-Serif" font-size="10.00">view.View.getInstance</text>
</a>
</g>
</g>
<!-- Node2&#45;&gt;Node3 -->
<g id="edge2" class="edge"><title>Node2&#45;&gt;Node3</title>
<path fill="none" stroke="midnightblue" d="M335.942,-104.168C345.74,-105.25 355.752,-106.356 365.454,-107.428"/>
<polygon fill="midnightblue" stroke="midnightblue" points="365.107,-110.911 375.431,-108.53 365.876,-103.953 365.107,-110.911"/>
</g>
<!-- Node4 -->
<g id="node4" class="node"><title>Node4</title>
<g id="a_node4"><a xlink:href="../../d3/dbe/classview_1_1_view.html#af4860035310eeafc92cf78cbbc53290a" target="_top" xlink:title="view.View.runDebugger">
<polygon fill="white" stroke="black" points="372,-67.5 372,-86.5 498,-86.5 498,-67.5 372,-67.5"/>
<text text-anchor="middle" x="435" y="-74.5" font-family="Helvetica,sans-Serif" font-size="10.00">view.View.runDebugger</text>
</a>
</g>
</g>
<!-- Node2&#45;&gt;Node4 -->
<g id="edge3" class="edge"><title>Node2&#45;&gt;Node4</title>
<path fill="none" stroke="midnightblue" d="M335.942,-87.832C344.58,-86.8778 353.384,-85.9052 361.996,-84.954"/>
<polygon fill="midnightblue" stroke="midnightblue" points="362.44,-88.4263 371.995,-83.8494 361.671,-81.4686 362.44,-88.4263"/>
</g>
<!-- Node5 -->
<g id="node5" class="node"><title>Node5</title>
<g id="a_node5"><a xlink:href="../../de/d30/classview_1_1components_1_1_s_logo_workspace.html#ad2141a5cca8101b3d22b2cf7b7473281" target="_top" xlink:title="view.components.SLogoWorkspace.run\lDebugger">
<polygon fill="white" stroke="black" points="534,-62 534,-92 736,-92 736,-62 534,-62"/>
<text text-anchor="start" x="542" y="-80" font-family="Helvetica,sans-Serif" font-size="10.00">view.components.SLogoWorkspace.run</text>
<text text-anchor="middle" x="635" y="-69" font-family="Helvetica,sans-Serif" font-size="10.00">Debugger</text>
</a>
</g>
</g>
<!-- Node4&#45;&gt;Node5 -->
<g id="edge4" class="edge"><title>Node4&#45;&gt;Node5</title>
<path fill="none" stroke="midnightblue" d="M498.105,-77C506.257,-77 514.798,-77 523.458,-77"/>
<polygon fill="midnightblue" stroke="midnightblue" points="523.663,-80.5001 533.663,-77 523.663,-73.5001 523.663,-80.5001"/>
</g>
<!-- Node6 -->
<g id="node6" class="node"><title>Node6</title>
<g id="a_node6"><a xlink:href="../../d5/d4b/classview_1_1components_1_1_turtle_window.html#a84744ff6c257318689fc0e014350fb05" target="_top" xlink:title="view.components.TurtleWindow.step\lDebug">
<polygon fill="white" stroke="black" points="772,-62 772,-92 958,-92 958,-62 772,-62"/>
<text text-anchor="start" x="780" y="-80" font-family="Helvetica,sans-Serif" font-size="10.00">view.components.TurtleWindow.step</text>
<text text-anchor="middle" x="865" y="-69" font-family="Helvetica,sans-Serif" font-size="10.00">Debug</text>
</a>
</g>
</g>
<!-- Node5&#45;&gt;Node6 -->
<g id="edge5" class="edge"><title>Node5&#45;&gt;Node6</title>
<path fill="none" stroke="midnightblue" d="M736.004,-77C744.604,-77 753.312,-77 761.928,-77"/>
<polygon fill="midnightblue" stroke="midnightblue" points="761.988,-80.5001 771.988,-77 761.988,-73.5001 761.988,-80.5001"/>
</g>
<!-- Node7 -->
<g id="node7" class="node"><title>Node7</title>
<g id="a_node7"><a xlink:href="../../dd/ddc/classview_1_1turtle_1_1_turtle_image.html#a68a832da6825e57061dbc49b30098291" target="_top" xlink:title="view.turtle.TurtleImage.pop\lUpdate">
<polygon fill="white" stroke="black" points="994,-62 994,-92 1138,-92 1138,-62 994,-62"/>
<text text-anchor="start" x="1002" y="-80" font-family="Helvetica,sans-Serif" font-size="10.00">view.turtle.TurtleImage.pop</text>
<text text-anchor="middle" x="1066" y="-69" font-family="Helvetica,sans-Serif" font-size="10.00">Update</text>
</a>
</g>
</g>
<!-- Node6&#45;&gt;Node7 -->
<g id="edge6" class="edge"><title>Node6&#45;&gt;Node7</title>
<path fill="none" stroke="midnightblue" d="M958.218,-77C966.747,-77 975.348,-77 983.768,-77"/>
<polygon fill="midnightblue" stroke="midnightblue" points="983.932,-80.5001 993.932,-77 983.932,-73.5001 983.932,-80.5001"/>
</g>
<!-- Node8 -->
<g id="node8" class="node"><title>Node8</title>
<g id="a_node8"><a xlink:href="../../dd/ddc/classview_1_1turtle_1_1_turtle_image.html#afd9abc603b052b7c9c14108400109917" target="_top" xlink:title="view.turtle.TurtleImage.process\lUpdate">
<polygon fill="white" stroke="black" points="1174,-450 1174,-480 1338,-480 1338,-450 1174,-450"/>
<text text-anchor="start" x="1182" y="-468" font-family="Helvetica,sans-Serif" font-size="10.00">view.turtle.TurtleImage.process</text>
<text text-anchor="middle" x="1256" y="-457" font-family="Helvetica,sans-Serif" font-size="10.00">Update</text>
</a>
</g>
</g>
<!-- Node7&#45;&gt;Node8 -->
<g id="edge7" class="edge"><title>Node7&#45;&gt;Node8</title>
<path fill="none" stroke="midnightblue" d="M1074.37,-92.2101C1103.09,-151.49 1207.69,-367.367 1243.15,-440.547"/>
<polygon fill="midnightblue" stroke="midnightblue" points="1240.17,-442.422 1247.68,-449.895 1246.47,-439.37 1240.17,-442.422"/>
</g>
<!-- Node9 -->
<g id="node9" class="node"><title>Node9</title>
<g id="a_node9"><a xlink:href="../../db/dce/classmodel_1_1_turtle_update.html#a7ebfc78794f604d565e22150004b8325" target="_top" xlink:title="model.TurtleUpdate.isTurtle\lInactive">
<polygon fill="white" stroke="black" points="1406,-652 1406,-682 1552,-682 1552,-652 1406,-652"/>
<text text-anchor="start" x="1414" y="-670" font-family="Helvetica,sans-Serif" font-size="10.00">model.TurtleUpdate.isTurtle</text>
<text text-anchor="middle" x="1479" y="-659" font-family="Helvetica,sans-Serif" font-size="10.00">Inactive</text>
</a>
</g>
</g>
<!-- Node8&#45;&gt;Node9 -->
<g id="edge8" class="edge"><title>Node8&#45;&gt;Node9</title>
<path fill="none" stroke="midnightblue" d="M1262.49,-480.115C1275.82,-514.625 1313.37,-599.505 1374,-642 1380.83,-646.788 1388.47,-650.665 1396.42,-653.804"/>
<polygon fill="midnightblue" stroke="midnightblue" points="1395.27,-657.11 1405.86,-657.16 1397.61,-650.514 1395.27,-657.11"/>
</g>
<!-- Node10 -->
<g id="node10" class="node"><title>Node10</title>
<g id="a_node10"><a xlink:href="../../db/dce/classmodel_1_1_turtle_update.html#a6c2e9c2e4216253c37801998a329455b" target="_top" xlink:title="model.TurtleUpdate.isTurtle\lPenUp">
<polygon fill="white" stroke="black" points="1406,-603 1406,-633 1552,-633 1552,-603 1406,-603"/>
<text text-anchor="start" x="1414" y="-621" font-family="Helvetica,sans-Serif" font-size="10.00">model.TurtleUpdate.isTurtle</text>
<text text-anchor="middle" x="1479" y="-610" font-family="Helvetica,sans-Serif" font-size="10.00">PenUp</text>
</a>
</g>
</g>
<!-- Node8&#45;&gt;Node10 -->
<g id="edge9" class="edge"><title>Node8&#45;&gt;Node10</title>
<path fill="none" stroke="midnightblue" d="M1266.5,-480.34C1284.15,-507.503 1324.73,-563.93 1374,-593 1380.94,-597.093 1388.51,-600.516 1396.3,-603.38"/>
<polygon fill="midnightblue" stroke="midnightblue" points="1395.29,-606.733 1405.88,-606.602 1397.52,-600.098 1395.29,-606.733"/>
</g>
<!-- Node11 -->
<g id="node11" class="node"><title>Node11</title>
<g id="a_node11"><a xlink:href="../../d5/d46/classview_1_1components_1_1_palette.html#af6c1989fcbc763b66af3fc609fa59ff9" target="_top" xlink:title="view.components.Palette.get\lImage">
<polygon fill="white" stroke="black" points="1402,-554 1402,-584 1556,-584 1556,-554 1402,-554"/>
<text text-anchor="start" x="1410" y="-572" font-family="Helvetica,sans-Serif" font-size="10.00">view.components.Palette.get</text>
<text text-anchor="middle" x="1479" y="-561" font-family="Helvetica,sans-Serif" font-size="10.00">Image</text>
</a>
</g>
</g>
<!-- Node8&#45;&gt;Node11 -->
<g id="edge10" class="edge"><title>Node8&#45;&gt;Node11</title>
<path fill="none" stroke="midnightblue" d="M1274.83,-480.07C1296.79,-497.878 1335.87,-527.204 1374,-544 1379.8,-546.554 1385.9,-548.872 1392.12,-550.971"/>
<polygon fill="midnightblue" stroke="midnightblue" points="1391.37,-554.406 1401.96,-554.091 1393.49,-547.733 1391.37,-554.406"/>
</g>
<!-- Node12 -->
<g id="node12" class="node"><title>Node12</title>
<g id="a_node12"><a xlink:href="../../db/dce/classmodel_1_1_turtle_update.html#a36b8205a61dd875ac4521cf51906c275" target="_top" xlink:title="model.TurtleUpdate.getShapeID">
<polygon fill="white" stroke="black" points="1394,-515.5 1394,-534.5 1564,-534.5 1564,-515.5 1394,-515.5"/>
<text text-anchor="middle" x="1479" y="-522.5" font-family="Helvetica,sans-Serif" font-size="10.00">model.TurtleUpdate.getShapeID</text>
</a>
</g>
</g>
<!-- Node8&#45;&gt;Node12 -->
<g id="edge11" class="edge"><title>Node8&#45;&gt;Node12</title>
<path fill="none" stroke="midnightblue" d="M1295,-480.012C1317.66,-488.537 1347.16,-498.892 1374,-506 1384.53,-508.788 1395.76,-511.304 1406.81,-513.525"/>
<polygon fill="midnightblue" stroke="midnightblue" points="1406.4,-517.01 1416.88,-515.481 1407.73,-510.138 1406.4,-517.01"/>
</g>
<!-- Node13 -->
<g id="node13" class="node"><title>Node13</title>
<g id="a_node13"><a xlink:href="../../db/dce/classmodel_1_1_turtle_update.html#a5e88189d0b5f21c9474b5617cb396b13" target="_top" xlink:title="model.TurtleUpdate.isStamp">
<polygon fill="white" stroke="black" points="1402.5,-477.5 1402.5,-496.5 1555.5,-496.5 1555.5,-477.5 1402.5,-477.5"/>
<text text-anchor="middle" x="1479" y="-484.5" font-family="Helvetica,sans-Serif" font-size="10.00">model.TurtleUpdate.isStamp</text>
</a>
</g>
</g>
<!-- Node8&#45;&gt;Node13 -->
<g id="edge12" class="edge"><title>Node8&#45;&gt;Node13</title>
<path fill="none" stroke="midnightblue" d="M1338.04,-473.067C1355.65,-474.82 1374.33,-476.68 1392.12,-478.451"/>
<polygon fill="midnightblue" stroke="midnightblue" points="1392.18,-481.974 1402.48,-479.482 1392.87,-475.009 1392.18,-481.974"/>
</g>
<!-- Node14 -->
<g id="node14" class="node"><title>Node14</title>
<g id="a_node14"><a xlink:href="../../dd/ddc/classview_1_1turtle_1_1_turtle_image.html#aa1a5f2d4c96c64f526f4df58fd5e77d6" target="_top" xlink:title="view.turtle.TurtleImage.leave\lStamp">
<polygon fill="white" stroke="black" points="1403,-428 1403,-458 1555,-458 1555,-428 1403,-428"/>
<text text-anchor="start" x="1411" y="-446" font-family="Helvetica,sans-Serif" font-size="10.00">view.turtle.TurtleImage.leave</text>
<text text-anchor="middle" x="1479" y="-435" font-family="Helvetica,sans-Serif" font-size="10.00">Stamp</text>
</a>
</g>
</g>
<!-- Node8&#45;&gt;Node14 -->
<g id="edge13" class="edge"><title>Node8&#45;&gt;Node14</title>
<path fill="none" stroke="midnightblue" d="M1338.04,-456.933C1355.83,-455.161 1374.73,-453.281 1392.69,-451.493"/>
<polygon fill="midnightblue" stroke="midnightblue" points="1393.24,-454.955 1402.84,-450.482 1392.54,-447.99 1393.24,-454.955"/>
</g>
<!-- Node15 -->
<g id="node15" class="node"><title>Node15</title>
<g id="a_node15"><a xlink:href="../../db/dce/classmodel_1_1_turtle_update.html#ab56febaad846cad5592395c3a67a68db" target="_top" xlink:title="model.TurtleUpdate.isTurtle\lClear">
<polygon fill="white" stroke="black" points="1406,-379 1406,-409 1552,-409 1552,-379 1406,-379"/>
<text text-anchor="start" x="1414" y="-397" font-family="Helvetica,sans-Serif" font-size="10.00">model.TurtleUpdate.isTurtle</text>
<text text-anchor="middle" x="1479" y="-386" font-family="Helvetica,sans-Serif" font-size="10.00">Clear</text>
</a>
</g>
</g>
<!-- Node8&#45;&gt;Node15 -->
<g id="edge14" class="edge"><title>Node8&#45;&gt;Node15</title>
<path fill="none" stroke="midnightblue" d="M1291.62,-449.927C1314.67,-440.254 1345.79,-427.888 1374,-419 1382.24,-416.405 1390.91,-413.928 1399.59,-411.611"/>
<polygon fill="midnightblue" stroke="midnightblue" points="1400.58,-414.971 1409.38,-409.066 1398.82,-408.196 1400.58,-414.971"/>
</g>
<!-- Node16 -->
<g id="node16" class="node"><title>Node16</title>
<g id="a_node16"><a xlink:href="../../d4/d93/classview_1_1turtle_1_1_turtle_pen.html#ae7dfe008f68eef44da5ee831b062952a" target="_top" xlink:title="view.turtle.TurtlePen.updatePen">
<polygon fill="white" stroke="black" points="1396,-340.5 1396,-359.5 1562,-359.5 1562,-340.5 1396,-340.5"/>
<text text-anchor="middle" x="1479" y="-347.5" font-family="Helvetica,sans-Serif" font-size="10.00">view.turtle.TurtlePen.updatePen</text>
</a>
</g>
</g>
<!-- Node8&#45;&gt;Node16 -->
<g id="edge15" class="edge"><title>Node8&#45;&gt;Node16</title>
<path fill="none" stroke="midnightblue" d="M1270.86,-449.755C1291.26,-428.345 1331.55,-389.779 1374,-370 1380.47,-366.984 1387.38,-364.423 1394.43,-362.248"/>
<polygon fill="midnightblue" stroke="midnightblue" points="1395.44,-365.599 1404.12,-359.515 1393.54,-358.862 1395.44,-365.599"/>
</g>
<!-- Node17 -->
<g id="node17" class="node"><title>Node17</title>
<g id="a_node17"><a xlink:href="../../d5/d46/classview_1_1components_1_1_palette.html#acf5106175f97e28619e7ed993b9fce93" target="_top" xlink:title="view.components.Palette.get\lColor">
<polygon fill="white" stroke="black" points="1402,-291 1402,-321 1556,-321 1556,-291 1402,-291"/>
<text text-anchor="start" x="1410" y="-309" font-family="Helvetica,sans-Serif" font-size="10.00">view.components.Palette.get</text>
<text text-anchor="middle" x="1479" y="-298" font-family="Helvetica,sans-Serif" font-size="10.00">Color</text>
</a>
</g>
</g>
<!-- Node8&#45;&gt;Node17 -->
<g id="edge16" class="edge"><title>Node8&#45;&gt;Node17</title>
<path fill="none" stroke="midnightblue" d="M1265.77,-449.821C1282.83,-421.732 1323.28,-361.713 1374,-331 1379.76,-327.51 1385.98,-324.508 1392.41,-321.924"/>
<polygon fill="midnightblue" stroke="midnightblue" points="1393.77,-325.155 1401.95,-318.431 1391.36,-318.582 1393.77,-325.155"/>
</g>
<!-- Node18 -->
<g id="node18" class="node"><title>Node18</title>
<g id="a_node18"><a xlink:href="../../d4/d93/classview_1_1turtle_1_1_turtle_pen.html#ab0c25ebb2a0dd4243c58a4c57f4413b6" target="_top" xlink:title="view.turtle.TurtlePen.get\lColorIndex">
<polygon fill="white" stroke="black" points="1414,-242 1414,-272 1544,-272 1544,-242 1414,-242"/>
<text text-anchor="start" x="1422" y="-260" font-family="Helvetica,sans-Serif" font-size="10.00">view.turtle.TurtlePen.get</text>
<text text-anchor="middle" x="1479" y="-249" font-family="Helvetica,sans-Serif" font-size="10.00">ColorIndex</text>
</a>
</g>
</g>
<!-- Node8&#45;&gt;Node18 -->
<g id="edge17" class="edge"><title>Node8&#45;&gt;Node18</title>
<path fill="none" stroke="midnightblue" d="M1262.14,-449.907C1274.98,-414.583 1311.96,-326.192 1374,-282 1382.97,-275.607 1393.38,-270.835 1404.06,-267.275"/>
<polygon fill="midnightblue" stroke="midnightblue" points="1405.34,-270.547 1413.92,-264.336 1403.34,-263.839 1405.34,-270.547"/>
</g>
<!-- Node19 -->
<g id="node19" class="node"><title>Node19</title>
<g id="a_node19"><a xlink:href="../../dd/ddc/classview_1_1turtle_1_1_turtle_image.html#a86b462f57b86f6c0a72357fdc2655aa1" target="_top" xlink:title="view.turtle.TurtleImage.math\lCoordsToCanvasCoords">
<polygon fill="white" stroke="black" points="1403,-193 1403,-223 1555,-223 1555,-193 1403,-193"/>
<text text-anchor="start" x="1411" y="-211" font-family="Helvetica,sans-Serif" font-size="10.00">view.turtle.TurtleImage.math</text>
<text text-anchor="middle" x="1479" y="-200" font-family="Helvetica,sans-Serif" font-size="10.00">CoordsToCanvasCoords</text>
</a>
</g>
</g>
<!-- Node8&#45;&gt;Node19 -->
<g id="edge18" class="edge"><title>Node8&#45;&gt;Node19</title>
<path fill="none" stroke="midnightblue" d="M1260.04,-449.734C1269.18,-408.001 1300.44,-291.252 1374,-233 1379.8,-228.403 1386.32,-224.631 1393.2,-221.54"/>
<polygon fill="midnightblue" stroke="midnightblue" points="1394.76,-224.686 1402.75,-217.732 1392.16,-218.183 1394.76,-224.686"/>
</g>
<!-- Node20 -->
<g id="node20" class="node"><title>Node20</title>
<g id="a_node20"><a xlink:href="../../db/dce/classmodel_1_1_turtle_update.html#a4a8bce496fed0074bb206694b80de851" target="_top" xlink:title="model.TurtleUpdate.getTurtle\lOldCoordinates">
<polygon fill="white" stroke="black" points="1401.5,-144 1401.5,-174 1556.5,-174 1556.5,-144 1401.5,-144"/>
<text text-anchor="start" x="1409.5" y="-162" font-family="Helvetica,sans-Serif" font-size="10.00">model.TurtleUpdate.getTurtle</text>
<text text-anchor="middle" x="1479" y="-151" font-family="Helvetica,sans-Serif" font-size="10.00">OldCoordinates</text>
</a>
</g>
</g>
<!-- Node8&#45;&gt;Node20 -->
<g id="edge19" class="edge"><title>Node8&#45;&gt;Node20</title>
<path fill="none" stroke="midnightblue" d="M1258.59,-449.728C1264.35,-402.379 1288.55,-256.863 1374,-184 1379.32,-179.466 1385.32,-175.726 1391.68,-172.642"/>
<polygon fill="midnightblue" stroke="midnightblue" points="1393.41,-175.713 1401.24,-168.579 1390.67,-169.271 1393.41,-175.713"/>
</g>
<!-- Node21 -->
<g id="node21" class="node"><title>Node21</title>
<g id="a_node21"><a xlink:href="../../d8/d6a/classmodel_1_1_coordinates.html#a52f6ed56424da9a52c598f9c94f2c8ff" target="_top" xlink:title="model.Coordinates.getY">
<polygon fill="white" stroke="black" points="1413.5,-105.5 1413.5,-124.5 1544.5,-124.5 1544.5,-105.5 1413.5,-105.5"/>
<text text-anchor="middle" x="1479" y="-112.5" font-family="Helvetica,sans-Serif" font-size="10.00">model.Coordinates.getY</text>
</a>
</g>
</g>
<!-- Node8&#45;&gt;Node21 -->
<g id="edge20" class="edge"><title>Node8&#45;&gt;Node21</title>
<path fill="none" stroke="midnightblue" d="M1257.37,-449.982C1259.52,-397.493 1274.2,-220.786 1374,-135 1382.43,-127.751 1392.69,-122.811 1403.43,-119.493"/>
<polygon fill="midnightblue" stroke="midnightblue" points="1404.61,-122.802 1413.4,-116.883 1402.84,-116.031 1404.61,-122.802"/>
</g>
<!-- Node22 -->
<g id="node22" class="node"><title>Node22</title>
<g id="a_node22"><a xlink:href="../../db/dce/classmodel_1_1_turtle_update.html#a2b6573ce1d167dd921e9abc9fff7c1dd" target="_top" xlink:title="model.TurtleUpdate.getTurtle\lNewCoordinates">
<polygon fill="white" stroke="black" points="1401.5,-916 1401.5,-946 1556.5,-946 1556.5,-916 1401.5,-916"/>
<text text-anchor="start" x="1409.5" y="-934" font-family="Helvetica,sans-Serif" font-size="10.00">model.TurtleUpdate.getTurtle</text>
<text text-anchor="middle" x="1479" y="-923" font-family="Helvetica,sans-Serif" font-size="10.00">NewCoordinates</text>
</a>
</g>
</g>
<!-- Node8&#45;&gt;Node22 -->
<g id="edge21" class="edge"><title>Node8&#45;&gt;Node22</title>
<path fill="none" stroke="midnightblue" d="M1258.93,-480.095C1268.18,-550.257 1310.25,-843.73 1374,-906 1379.3,-911.174 1385.47,-915.343 1392.11,-918.694"/>
<polygon fill="midnightblue" stroke="midnightblue" points="1390.86,-921.968 1401.42,-922.775 1393.67,-915.556 1390.86,-921.968"/>
</g>
<!-- Node23 -->
<g id="node23" class="node"><title>Node23</title>
<g id="a_node23"><a xlink:href="../../dd/ddc/classview_1_1turtle_1_1_turtle_image.html#a6798d71b6457a6b70b472171e64f11f2" target="_top" xlink:title="view.turtle.TurtleImage.hide">
<polygon fill="white" stroke="black" points="1406,-877.5 1406,-896.5 1552,-896.5 1552,-877.5 1406,-877.5"/>
<text text-anchor="middle" x="1479" y="-884.5" font-family="Helvetica,sans-Serif" font-size="10.00">view.turtle.TurtleImage.hide</text>
</a>
</g>
</g>
<!-- Node8&#45;&gt;Node23 -->
<g id="edge22" class="edge"><title>Node8&#45;&gt;Node23</title>
<path fill="none" stroke="midnightblue" d="M1259.27,-480.147C1269.57,-546.703 1313.95,-812.302 1374,-867 1380.52,-872.937 1388.24,-877.352 1396.5,-880.606"/>
<polygon fill="midnightblue" stroke="midnightblue" points="1395.4,-883.932 1406,-883.806 1397.64,-877.298 1395.4,-883.932"/>
</g>
<!-- Node24 -->
<g id="node24" class="node"><title>Node24</title>
<g id="a_node24"><a xlink:href="../../db/dce/classmodel_1_1_turtle_update.html#a7288583a573d839635a8773a01563300" target="_top" xlink:title="model.TurtleUpdate.isTurtle\lHidden">
<polygon fill="white" stroke="black" points="1406,-828 1406,-858 1552,-858 1552,-828 1406,-828"/>
<text text-anchor="start" x="1414" y="-846" font-family="Helvetica,sans-Serif" font-size="10.00">model.TurtleUpdate.isTurtle</text>
<text text-anchor="middle" x="1479" y="-835" font-family="Helvetica,sans-Serif" font-size="10.00">Hidden</text>
</a>
</g>
</g>
<!-- Node8&#45;&gt;Node24 -->
<g id="edge23" class="edge"><title>Node8&#45;&gt;Node24</title>
<path fill="none" stroke="midnightblue" d="M1257.13,-480.102C1258.45,-534.608 1270.62,-722.969 1374,-818 1380.51,-823.981 1388.19,-828.602 1396.38,-832.162"/>
<polygon fill="midnightblue" stroke="midnightblue" points="1395.23,-835.467 1405.82,-835.747 1397.71,-828.923 1395.23,-835.467"/>
</g>
<!-- Node25 -->
<g id="node25" class="node"><title>Node25</title>
<g id="a_node25"><a xlink:href="../../d4/d93/classview_1_1turtle_1_1_turtle_pen.html#aeb591e6c3666a998228a86dbe9121c35" target="_top" xlink:title="view.turtle.TurtlePen.drawLine">
<polygon fill="white" stroke="black" points="1401,-789.5 1401,-808.5 1557,-808.5 1557,-789.5 1401,-789.5"/>
<text text-anchor="middle" x="1479" y="-796.5" font-family="Helvetica,sans-Serif" font-size="10.00">view.turtle.TurtlePen.drawLine</text>
</a>
</g>
</g>
<!-- Node8&#45;&gt;Node25 -->
<g id="edge24" class="edge"><title>Node8&#45;&gt;Node25</title>
<path fill="none" stroke="midnightblue" d="M1257.67,-480.011C1260.8,-530.876 1278.28,-698.039 1374,-779 1379.23,-783.428 1385.15,-786.99 1391.44,-789.844"/>
<polygon fill="midnightblue" stroke="midnightblue" points="1390.29,-793.155 1400.88,-793.539 1392.85,-786.636 1390.29,-793.155"/>
</g>
<!-- Node29 -->
<g id="node29" class="node"><title>Node29</title>
<g id="a_node29"><a xlink:href="../../dd/ddc/classview_1_1turtle_1_1_turtle_image.html#aca0a62f113534161f725da472e1f4d9f" target="_top" xlink:title="view.turtle.TurtleImage.unanimatedMove">
<polygon fill="white" stroke="black" points="1374.5,-67.5 1374.5,-86.5 1583.5,-86.5 1583.5,-67.5 1374.5,-67.5"/>
<text text-anchor="middle" x="1479" y="-74.5" font-family="Helvetica,sans-Serif" font-size="10.00">view.turtle.TurtleImage.unanimatedMove</text>
</a>
</g>
</g>
<!-- Node8&#45;&gt;Node29 -->
<g id="edge28" class="edge"><title>Node8&#45;&gt;Node29</title>
<path fill="none" stroke="midnightblue" d="M1256.7,-449.815C1256.49,-393.252 1263.82,-193.072 1374,-96 1375.73,-94.472 1377.55,-93.0483 1379.43,-91.7224"/>
<polygon fill="midnightblue" stroke="midnightblue" points="1381.33,-94.666 1388.1,-86.5151 1377.73,-88.666 1381.33,-94.666"/>
</g>
<!-- Node30 -->
<g id="node30" class="node"><title>Node30</title>
<g id="a_node30"><a xlink:href="../../db/dce/classmodel_1_1_turtle_update.html#aff8157b2082cdae408655d87ed85b74e" target="_top" xlink:title="model.TurtleUpdate.getTurtle\lAngle">
<polygon fill="white" stroke="black" points="1401.5,-740 1401.5,-770 1556.5,-770 1556.5,-740 1401.5,-740"/>
<text text-anchor="start" x="1409.5" y="-758" font-family="Helvetica,sans-Serif" font-size="10.00">model.TurtleUpdate.getTurtle</text>
<text text-anchor="middle" x="1479" y="-747" font-family="Helvetica,sans-Serif" font-size="10.00">Angle</text>
</a>
</g>
</g>
<!-- Node8&#45;&gt;Node30 -->
<g id="edge30" class="edge"><title>Node8&#45;&gt;Node30</title>
<path fill="none" stroke="midnightblue" d="M1258.97,-480.06C1265.75,-525.428 1292.34,-661.846 1374,-730 1379.36,-734.477 1385.4,-738.178 1391.79,-741.234"/>
<polygon fill="midnightblue" stroke="midnightblue" points="1390.8,-744.614 1401.37,-745.266 1393.51,-738.162 1390.8,-744.614"/>
</g>
<!-- Node31 -->
<g id="node31" class="node"><title>Node31</title>
<g id="a_node31"><a xlink:href="../../de/dfa/classmodel_1_1_angle.html#aa1b069cc47fadd893fe8527c356dd8fd" target="_top" xlink:title="model.Angle.getAngleValue">
<polygon fill="white" stroke="black" points="1404.5,-701.5 1404.5,-720.5 1553.5,-720.5 1553.5,-701.5 1404.5,-701.5"/>
<text text-anchor="middle" x="1479" y="-708.5" font-family="Helvetica,sans-Serif" font-size="10.00">model.Angle.getAngleValue</text>
</a>
</g>
</g>
<!-- Node8&#45;&gt;Node31 -->
<g id="edge31" class="edge"><title>Node8&#45;&gt;Node31</title>
<path fill="none" stroke="midnightblue" d="M1260.03,-480.056C1269.15,-521.182 1300.37,-636.005 1374,-691 1380.27,-695.681 1387.32,-699.358 1394.73,-702.236"/>
<polygon fill="midnightblue" stroke="midnightblue" points="1393.68,-705.575 1404.27,-705.47 1395.93,-698.945 1393.68,-705.575"/>
</g>
<!-- Node32 -->
<g id="node32" class="node"><title>Node32</title>
<g id="a_node32"><a xlink:href="../../dd/ddc/classview_1_1turtle_1_1_turtle_image.html#a958417ed4561c0b910f80944a5110ec7" target="_top" xlink:title="view.turtle.TurtleImage.animatedMove">
<polygon fill="white" stroke="black" points="1380.5,-29.5 1380.5,-48.5 1577.5,-48.5 1577.5,-29.5 1380.5,-29.5"/>
<text text-anchor="middle" x="1479" y="-36.5" font-family="Helvetica,sans-Serif" font-size="10.00">view.turtle.TurtleImage.animatedMove</text>
</a>
</g>
</g>
<!-- Node8&#45;&gt;Node32 -->
<g id="edge32" class="edge"><title>Node8&#45;&gt;Node32</title>
<path fill="none" stroke="midnightblue" d="M1259.23,-449.653C1269.36,-382.221 1313.09,-113.144 1374,-58 1375.53,-56.6141 1377.13,-55.3134 1378.78,-54.0929"/>
<polygon fill="midnightblue" stroke="midnightblue" points="1380.88,-56.9115 1387.49,-48.6376 1377.16,-50.9788 1380.88,-56.9115"/>
</g>
<!-- Node26 -->
<g id="node26" class="node"><title>Node26</title>
<g id="a_node26"><a xlink:href="../../d4/d93/classview_1_1turtle_1_1_turtle_pen.html#a3eea64b5d17767f655096870f4a5850d" target="_top" xlink:title="view.turtle.TurtlePen.draw\lGappedLine">
<polygon fill="white" stroke="black" points="1630.5,-784 1630.5,-814 1767.5,-814 1767.5,-784 1630.5,-784"/>
<text text-anchor="start" x="1638.5" y="-802" font-family="Helvetica,sans-Serif" font-size="10.00">view.turtle.TurtlePen.draw</text>
<text text-anchor="middle" x="1699" y="-791" font-family="Helvetica,sans-Serif" font-size="10.00">GappedLine</text>
</a>
</g>
</g>
<!-- Node25&#45;&gt;Node26 -->
<g id="edge25" class="edge"><title>Node25&#45;&gt;Node26</title>
<path fill="none" stroke="midnightblue" d="M1557.17,-799C1577.6,-799 1599.67,-799 1620.14,-799"/>
<polygon fill="midnightblue" stroke="midnightblue" points="1620.36,-802.5 1630.36,-799 1620.36,-795.5 1620.36,-802.5"/>
</g>
<!-- Node27 -->
<g id="node27" class="node"><title>Node27</title>
<g id="a_node27"><a xlink:href="../../d4/d93/classview_1_1turtle_1_1_turtle_pen.html#a78a412ae5c294fd37981146020ea4009" target="_top" xlink:title="view.turtle.TurtlePen.generate\lDashVectorArray">
<polygon fill="white" stroke="black" points="1814,-784 1814,-814 1972,-814 1972,-784 1814,-784"/>
<text text-anchor="start" x="1822" y="-802" font-family="Helvetica,sans-Serif" font-size="10.00">view.turtle.TurtlePen.generate</text>
<text text-anchor="middle" x="1893" y="-791" font-family="Helvetica,sans-Serif" font-size="10.00">DashVectorArray</text>
</a>
</g>
</g>
<!-- Node26&#45;&gt;Node27 -->
<g id="edge26" class="edge"><title>Node26&#45;&gt;Node27</title>
<path fill="none" stroke="midnightblue" d="M1767.69,-799C1779.33,-799 1791.58,-799 1803.67,-799"/>
<polygon fill="midnightblue" stroke="midnightblue" points="1803.77,-802.5 1813.77,-799 1803.77,-795.5 1803.77,-802.5"/>
</g>
<!-- Node28 -->
<g id="node28" class="node"><title>Node28</title>
<g id="a_node28"><a xlink:href="../../d4/d93/classview_1_1turtle_1_1_turtle_pen.html#a1553953625d014db95e9af6faa83e667" target="_top" xlink:title="view.turtle.TurtlePen.get\lUnitVector">
<polygon fill="white" stroke="black" points="2008,-784 2008,-814 2138,-814 2138,-784 2008,-784"/>
<text text-anchor="start" x="2016" y="-802" font-family="Helvetica,sans-Serif" font-size="10.00">view.turtle.TurtlePen.get</text>
<text text-anchor="middle" x="2073" y="-791" font-family="Helvetica,sans-Serif" font-size="10.00">UnitVector</text>
</a>
</g>
</g>
<!-- Node27&#45;&gt;Node28 -->
<g id="edge27" class="edge"><title>Node27&#45;&gt;Node28</title>
<path fill="none" stroke="midnightblue" d="M1972.07,-799C1980.57,-799 1989.21,-799 1997.66,-799"/>
<polygon fill="midnightblue" stroke="midnightblue" points="1997.86,-802.5 2007.86,-799 1997.86,-795.5 1997.86,-802.5"/>
</g>
<!-- Node29&#45;&gt;Node7 -->
<g id="edge29" class="edge"><title>Node29&#45;&gt;Node7</title>
<path fill="none" stroke="midnightblue" d="M1374.26,-77C1304.21,-77 1213.07,-77 1148.29,-77"/>
<polygon fill="midnightblue" stroke="midnightblue" points="1148.12,-73.5001 1138.12,-77 1148.12,-80.5001 1148.12,-73.5001"/>
</g>
<!-- Node32&#45;&gt;Node7 -->
<g id="edge35" class="edge"><title>Node32&#45;&gt;Node7</title>
<path fill="none" stroke="midnightblue" d="M1380.45,-48.0194C1309.61,-54.5686 1214.88,-63.3271 1148.17,-69.4955"/>
<polygon fill="midnightblue" stroke="midnightblue" points="1147.76,-66.0184 1138.12,-70.4243 1148.4,-72.9887 1147.76,-66.0184"/>
</g>
<!-- Node33 -->
<g id="node33" class="node"><title>Node33</title>
<g id="a_node33"><a xlink:href="../../dd/ddc/classview_1_1turtle_1_1_turtle_image.html#afad70374651ad6165f7d48b7bf268d71" target="_top" xlink:title="view.turtle.TurtleImage.create\lRotateTransition">
<polygon fill="white" stroke="black" points="1620.5,-0 1620.5,-30 1777.5,-30 1777.5,-0 1620.5,-0"/>
<text text-anchor="start" x="1628.5" y="-18" font-family="Helvetica,sans-Serif" font-size="10.00">view.turtle.TurtleImage.create</text>
<text text-anchor="middle" x="1699" y="-7" font-family="Helvetica,sans-Serif" font-size="10.00">RotateTransition</text>
</a>
</g>
</g>
<!-- Node32&#45;&gt;Node33 -->
<g id="edge33" class="edge"><title>Node32&#45;&gt;Node33</title>
<path fill="none" stroke="midnightblue" d="M1566.47,-29.4801C1580.96,-27.8851 1596,-26.229 1610.52,-24.6312"/>
<polygon fill="midnightblue" stroke="midnightblue" points="1610.91,-28.1092 1620.47,-23.5358 1610.14,-21.1512 1610.91,-28.1092"/>
</g>
<!-- Node34 -->
<g id="node34" class="node"><title>Node34</title>
<g id="a_node34"><a xlink:href="../../dd/ddc/classview_1_1turtle_1_1_turtle_image.html#a579bab57c4e802a8a119ba0253b58ed9" target="_top" xlink:title="view.turtle.TurtleImage.create\lTranslateTransition">
<polygon fill="white" stroke="black" points="1620.5,-49 1620.5,-79 1777.5,-79 1777.5,-49 1620.5,-49"/>
<text text-anchor="start" x="1628.5" y="-67" font-family="Helvetica,sans-Serif" font-size="10.00">view.turtle.TurtleImage.create</text>
<text text-anchor="middle" x="1699" y="-56" font-family="Helvetica,sans-Serif" font-size="10.00">TranslateTransition</text>
</a>
</g>
</g>
<!-- Node32&#45;&gt;Node34 -->
<g id="edge34" class="edge"><title>Node32&#45;&gt;Node34</title>
<path fill="none" stroke="midnightblue" d="M1563.04,-48.5227C1578.44,-50.2886 1594.57,-52.1385 1610.11,-53.9203"/>
<polygon fill="midnightblue" stroke="midnightblue" points="1609.88,-57.4176 1620.22,-55.0798 1610.68,-50.4631 1609.88,-57.4176"/>
</g>
</g>
</svg>
