<?xml version="1.0" encoding="UTF-8" standalone="no"?>
<!DOCTYPE svg PUBLIC "-//W3C//DTD SVG 1.1//EN"
 "http://www.w3.org/Graphics/SVG/1.1/DTD/svg11.dtd">
<!-- Generated by graphviz version 2.36.0 (20140111.2315)
 -->
<!-- Title: view.components.DebuggerPort.exitDebugMode Pages: 1 -->
<svg width="976pt" height="71pt"
 viewBox="0.00 0.00 976.00 71.00" xmlns="http://www.w3.org/2000/svg" xmlns:xlink="http://www.w3.org/1999/xlink">
<g id="graph0" class="graph" transform="scale(1 1) rotate(0) translate(4 67)">
<title>view.components.DebuggerPort.exitDebugMode</title>
<polygon fill="white" stroke="none" points="-4,4 -4,-67 972,-67 972,4 -4,4"/>
<!-- Node1 -->
<g id="node1" class="node"><title>Node1</title>
<polygon fill="#bfbfbf" stroke="black" points="0.5,-19 0.5,-49 149.5,-49 149.5,-19 0.5,-19"/>
<text text-anchor="start" x="8.5" y="-37" font-family="Helvetica,sans-Serif" font-size="10.00">view.components.Debugger</text>
<text text-anchor="middle" x="75" y="-26" font-family="Helvetica,sans-Serif" font-size="10.00">Port.exitDebugMode</text>
</g>
<!-- Node2 -->
<g id="node2" class="node"><title>Node2</title>
<g id="a_node2"><a xlink:href="../../d3/dbe/classview_1_1_view.html#a6950e4055440ab5672a2453b149f41d0" target="_top" xlink:title="view.View.getInstance">
<polygon fill="white" stroke="black" points="197.5,-43.5 197.5,-62.5 316.5,-62.5 316.5,-43.5 197.5,-43.5"/>
<text text-anchor="middle" x="257" y="-50.5" font-family="Helvetica,sans-Serif" font-size="10.00">view.View.getInstance</text>
</a>
</g>
</g>
<!-- Node1&#45;&gt;Node2 -->
<g id="edge1" class="edge"><title>Node1&#45;&gt;Node2</title>
<path fill="none" stroke="midnightblue" d="M149.732,-41.7828C162.096,-43.0879 174.883,-44.4377 187.119,-45.7292"/>
<polygon fill="midnightblue" stroke="midnightblue" points="186.933,-49.229 197.245,-46.7981 187.668,-42.2676 186.933,-49.229"/>
</g>
<!-- Node3 -->
<g id="node3" class="node"><title>Node3</title>
<g id="a_node3"><a xlink:href="../../d3/dbe/classview_1_1_view.html#ac7c7e9f35d78a83a1b6da5a0614c5b7a" target="_top" xlink:title="view.View.removeDebuger">
<polygon fill="white" stroke="black" points="186.5,-5.5 186.5,-24.5 327.5,-24.5 327.5,-5.5 186.5,-5.5"/>
<text text-anchor="middle" x="257" y="-12.5" font-family="Helvetica,sans-Serif" font-size="10.00">view.View.removeDebuger</text>
</a>
</g>
</g>
<!-- Node1&#45;&gt;Node3 -->
<g id="edge2" class="edge"><title>Node1&#45;&gt;Node3</title>
<path fill="none" stroke="midnightblue" d="M149.732,-26.2172C158.55,-25.2864 167.583,-24.3329 176.478,-23.394"/>
<polygon fill="midnightblue" stroke="midnightblue" points="176.865,-26.8727 186.443,-22.3422 176.13,-19.9113 176.865,-26.8727"/>
</g>
<!-- Node4 -->
<g id="node4" class="node"><title>Node4</title>
<g id="a_node4"><a xlink:href="../../de/d30/classview_1_1components_1_1_s_logo_workspace.html#a18de98d8715eaf2d6a0d1d43f499a28e" target="_top" xlink:title="view.components.SLogoWorkspace.stop\lDebugger">
<polygon fill="white" stroke="black" points="364.5,-0 364.5,-30 571.5,-30 571.5,-0 364.5,-0"/>
<text text-anchor="start" x="372.5" y="-18" font-family="Helvetica,sans-Serif" font-size="10.00">view.components.SLogoWorkspace.stop</text>
<text text-anchor="middle" x="468" y="-7" font-family="Helvetica,sans-Serif" font-size="10.00">Debugger</text>
</a>
</g>
</g>
<!-- Node3&#45;&gt;Node4 -->
<g id="edge3" class="edge"><title>Node3&#45;&gt;Node4</title>
<path fill="none" stroke="midnightblue" d="M327.594,-15C336.135,-15 345.028,-15 354.005,-15"/>
<polygon fill="midnightblue" stroke="midnightblue" points="354.162,-18.5001 364.162,-15 354.162,-11.5001 354.162,-18.5001"/>
</g>
<!-- Node5 -->
<g id="node5" class="node"><title>Node5</title>
<g id="a_node5"><a xlink:href="../../d5/d4b/classview_1_1components_1_1_turtle_window.html#a62cb84bc01e37c12c7e650318e43c1fb" target="_top" xlink:title="view.components.TurtleWindow.exit\lDebugMode">
<polygon fill="white" stroke="black" points="608,-0 608,-30 790,-30 790,-0 608,-0"/>
<text text-anchor="start" x="616" y="-18" font-family="Helvetica,sans-Serif" font-size="10.00">view.components.TurtleWindow.exit</text>
<text text-anchor="middle" x="699" y="-7" font-family="Helvetica,sans-Serif" font-size="10.00">DebugMode</text>
</a>
</g>
</g>
<!-- Node4&#45;&gt;Node5 -->
<g id="edge4" class="edge"><title>Node4&#45;&gt;Node5</title>
<path fill="none" stroke="midnightblue" d="M571.778,-15C580.409,-15 589.13,-15 597.743,-15"/>
<polygon fill="midnightblue" stroke="midnightblue" points="597.79,-18.5001 607.79,-15 597.79,-11.5001 597.79,-18.5001"/>
</g>
<!-- Node6 -->
<g id="node6" class="node"><title>Node6</title>
<g id="a_node6"><a xlink:href="../../dd/ddc/classview_1_1turtle_1_1_turtle_image.html#aa4659cd85d2c53df2a990b1a140af98d" target="_top" xlink:title="view.turtle.TurtleImage.set\lRunMode">
<polygon fill="white" stroke="black" points="826.5,-0 826.5,-30 967.5,-30 967.5,-0 826.5,-0"/>
<text text-anchor="start" x="834.5" y="-18" font-family="Helvetica,sans-Serif" font-size="10.00">view.turtle.TurtleImage.set</text>
<text text-anchor="middle" x="897" y="-7" font-family="Helvetica,sans-Serif" font-size="10.00">RunMode</text>
</a>
</g>
</g>
<!-- Node5&#45;&gt;Node6 -->
<g id="edge5" class="edge"><title>Node5&#45;&gt;Node6</title>
<path fill="none" stroke="midnightblue" d="M790.255,-15C798.993,-15 807.813,-15 816.436,-15"/>
<polygon fill="midnightblue" stroke="midnightblue" points="816.451,-18.5001 826.451,-15 816.451,-11.5001 816.451,-18.5001"/>
</g>
</g>
</svg>
