<?xml version="1.0" encoding="UTF-8" standalone="no"?>
<!DOCTYPE svg PUBLIC "-//W3C//DTD SVG 1.1//EN"
 "http://www.w3.org/Graphics/SVG/1.1/DTD/svg11.dtd">
<!-- Generated by graphviz version 2.36.0 (20140111.2315)
 -->
<!-- Title: view.components.DebuggerPort.stepDebug Pages: 1 -->
<!--zoomable 954 -->
<svg id="main" version="1.1" xmlns="http://www.w3.org/2000/svg" xmlns:xlink="http://www.w3.org/1999/xlink" xml:space="preserve" onload="init(evt)">
<style type="text/css"><![CDATA[
.edge:hover path { stroke: red; }
.edge:hover polygon { stroke: red; fill: red; }
]]></style>
<script type="text/javascript"><![CDATA[
var edges = document.getElementsByTagName('g');
if (edges && edges.length) {
  for (var i=0;i<edges.length;i++) {
    if (edges[i].id.substr(0,4)=='edge') {
      edges[i].setAttribute('class','edge');
    }
  }
}
]]></script>
        <defs>
                <circle id="rim" cx="0" cy="0" r="7"/>
                <circle id="rim2" cx="0" cy="0" r="3.5"/>
                <g id="zoomPlus">
                        <use xlink:href="#rim" fill="#404040">
                                <set attributeName="fill" to="#808080" begin="zoomplus.mouseover" end="zoomplus.mouseout"/>
                        </use>
                        <path d="M-4,0h8M0,-4v8" fill="none" stroke="white" stroke-width="1.5" pointer-events="none"/>
                </g>
                <g id="zoomMin">
                        <use xlink:href="#rim" fill="#404040">
                                <set attributeName="fill" to="#808080" begin="zoomminus.mouseover" end="zoomminus.mouseout"/>
                        </use>
                        <path d="M-4,0h8" fill="none" stroke="white" stroke-width="1.5" pointer-events="none"/>
                </g>
                <g id="dirArrow">
                        <path fill="none" stroke="white" stroke-width="1.5" d="M0,-3.0v7 M-2.5,-0.5L0,-3.0L2.5,-0.5"/>
                </g>
               <g id="resetDef">
                       <use xlink:href="#rim2" fill="#404040">
                               <set attributeName="fill" to="#808080" begin="reset.mouseover" end="reset.mouseout"/>
                       </use>
               </g>
        </defs>

<script type="text/javascript">
var viewWidth = 1960;
var viewHeight = 954;
var sectionId = 'dynsection-4';
</script>
<script xlink:href="../../svgpan.js"/>
<svg id="graph" class="graph">
<g id="viewport">
<title>view.components.DebuggerPort.stepDebug</title>
<polygon fill="white" stroke="none" points="-4,4 -4,-950 1956,-950 1956,4 -4,4"/>
<!-- Node1 -->
<g id="node1" class="node"><title>Node1</title>
<polygon fill="#bfbfbf" stroke="black" points="0.5,-81 0.5,-111 149.5,-111 149.5,-81 0.5,-81"/>
<text text-anchor="start" x="8.5" y="-99" font-family="Helvetica,sans-Serif" font-size="10.00">view.components.Debugger</text>
<text text-anchor="middle" x="75" y="-88" font-family="Helvetica,sans-Serif" font-size="10.00">Port.stepDebug</text>
</g>
<!-- Node2 -->
<g id="node2" class="node"><title>Node2</title>
<g id="a_node2"><a xlink:href="../../d3/dbe/classview_1_1_view.html#a6950e4055440ab5672a2453b149f41d0" target="_top" xlink:title="view.View.getInstance">
<polygon fill="white" stroke="black" points="189.5,-105.5 189.5,-124.5 308.5,-124.5 308.5,-105.5 189.5,-105.5"/>
<text text-anchor="middle" x="249" y="-112.5" font-family="Helvetica,sans-Serif" font-size="10.00">view.View.getInstance</text>
</a>
</g>
</g>
<!-- Node1&#45;&gt;Node2 -->
<g id="edge1" class="edge"><title>Node1&#45;&gt;Node2</title>
<path fill="none" stroke="midnightblue" d="M149.942,-104.168C159.74,-105.25 169.752,-106.356 179.454,-107.428"/>
<polygon fill="midnightblue" stroke="midnightblue" points="179.107,-110.911 189.431,-108.53 179.876,-103.953 179.107,-110.911"/>
</g>
<!-- Node3 -->
<g id="node3" class="node"><title>Node3</title>
<g id="a_node3"><a xlink:href="../../d3/dbe/classview_1_1_view.html#af4860035310eeafc92cf78cbbc53290a" target="_top" xlink:title="view.View.runDebugger">
<polygon fill="white" stroke="black" points="186,-67.5 186,-86.5 312,-86.5 312,-67.5 186,-67.5"/>
<text text-anchor="middle" x="249" y="-74.5" font-family="Helvetica,sans-Serif" font-size="10.00">view.View.runDebugger</text>
</a>
</g>
</g>
<!-- Node1&#45;&gt;Node3 -->
<g id="edge2" class="edge"><title>Node1&#45;&gt;Node3</title>
<path fill="none" stroke="midnightblue" d="M149.942,-87.832C158.58,-86.8778 167.384,-85.9052 175.996,-84.954"/>
<polygon fill="midnightblue" stroke="midnightblue" points="176.44,-88.4263 185.995,-83.8494 175.671,-81.4686 176.44,-88.4263"/>
</g>
<!-- Node4 -->
<g id="node4" class="node"><title>Node4</title>
<g id="a_node4"><a xlink:href="../../de/d30/classview_1_1components_1_1_s_logo_workspace.html#ad2141a5cca8101b3d22b2cf7b7473281" target="_top" xlink:title="view.components.SLogoWorkspace.run\lDebugger">
<polygon fill="white" stroke="black" points="348,-62 348,-92 550,-92 550,-62 348,-62"/>
<text text-anchor="start" x="356" y="-80" font-family="Helvetica,sans-Serif" font-size="10.00">view.components.SLogoWorkspace.run</text>
<text text-anchor="middle" x="449" y="-69" font-family="Helvetica,sans-Serif" font-size="10.00">Debugger</text>
</a>
</g>
</g>
<!-- Node3&#45;&gt;Node4 -->
<g id="edge3" class="edge"><title>Node3&#45;&gt;Node4</title>
<path fill="none" stroke="midnightblue" d="M312.105,-77C320.257,-77 328.798,-77 337.458,-77"/>
<polygon fill="midnightblue" stroke="midnightblue" points="337.663,-80.5001 347.663,-77 337.663,-73.5001 337.663,-80.5001"/>
</g>
<!-- Node5 -->
<g id="node5" class="node"><title>Node5</title>
<g id="a_node5"><a xlink:href="../../d5/d4b/classview_1_1components_1_1_turtle_window.html#a84744ff6c257318689fc0e014350fb05" target="_top" xlink:title="view.components.TurtleWindow.step\lDebug">
<polygon fill="white" stroke="black" points="586,-62 586,-92 772,-92 772,-62 586,-62"/>
<text text-anchor="start" x="594" y="-80" font-family="Helvetica,sans-Serif" font-size="10.00">view.components.TurtleWindow.step</text>
<text text-anchor="middle" x="679" y="-69" font-family="Helvetica,sans-Serif" font-size="10.00">Debug</text>
</a>
</g>
</g>
<!-- Node4&#45;&gt;Node5 -->
<g id="edge4" class="edge"><title>Node4&#45;&gt;Node5</title>
<path fill="none" stroke="midnightblue" d="M550.004,-77C558.604,-77 567.312,-77 575.928,-77"/>
<polygon fill="midnightblue" stroke="midnightblue" points="575.988,-80.5001 585.988,-77 575.988,-73.5001 575.988,-80.5001"/>
</g>
<!-- Node6 -->
<g id="node6" class="node"><title>Node6</title>
<g id="a_node6"><a xlink:href="../../dd/ddc/classview_1_1turtle_1_1_turtle_image.html#a68a832da6825e57061dbc49b30098291" target="_top" xlink:title="view.turtle.TurtleImage.pop\lUpdate">
<polygon fill="white" stroke="black" points="808,-62 808,-92 952,-92 952,-62 808,-62"/>
<text text-anchor="start" x="816" y="-80" font-family="Helvetica,sans-Serif" font-size="10.00">view.turtle.TurtleImage.pop</text>
<text text-anchor="middle" x="880" y="-69" font-family="Helvetica,sans-Serif" font-size="10.00">Update</text>
</a>
</g>
</g>
<!-- Node5&#45;&gt;Node6 -->
<g id="edge5" class="edge"><title>Node5&#45;&gt;Node6</title>
<path fill="none" stroke="midnightblue" d="M772.218,-77C780.747,-77 789.348,-77 797.768,-77"/>
<polygon fill="midnightblue" stroke="midnightblue" points="797.932,-80.5001 807.932,-77 797.932,-73.5001 797.932,-80.5001"/>
</g>
<!-- Node7 -->
<g id="node7" class="node"><title>Node7</title>
<g id="a_node7"><a xlink:href="../../dd/ddc/classview_1_1turtle_1_1_turtle_image.html#afd9abc603b052b7c9c14108400109917" target="_top" xlink:title="view.turtle.TurtleImage.process\lUpdate">
<polygon fill="white" stroke="black" points="988,-450 988,-480 1152,-480 1152,-450 988,-450"/>
<text text-anchor="start" x="996" y="-468" font-family="Helvetica,sans-Serif" font-size="10.00">view.turtle.TurtleImage.process</text>
<text text-anchor="middle" x="1070" y="-457" font-family="Helvetica,sans-Serif" font-size="10.00">Update</text>
</a>
</g>
</g>
<!-- Node6&#45;&gt;Node7 -->
<g id="edge6" class="edge"><title>Node6&#45;&gt;Node7</title>
<path fill="none" stroke="midnightblue" d="M888.37,-92.2101C917.093,-151.49 1021.69,-367.367 1057.15,-440.547"/>
<polygon fill="midnightblue" stroke="midnightblue" points="1054.17,-442.422 1061.68,-449.895 1060.47,-439.37 1054.17,-442.422"/>
</g>
<!-- Node8 -->
<g id="node8" class="node"><title>Node8</title>
<g id="a_node8"><a xlink:href="../../db/dce/classmodel_1_1_turtle_update.html#a7ebfc78794f604d565e22150004b8325" target="_top" xlink:title="model.TurtleUpdate.isTurtle\lInactive">
<polygon fill="white" stroke="black" points="1220,-652 1220,-682 1366,-682 1366,-652 1220,-652"/>
<text text-anchor="start" x="1228" y="-670" font-family="Helvetica,sans-Serif" font-size="10.00">model.TurtleUpdate.isTurtle</text>
<text text-anchor="middle" x="1293" y="-659" font-family="Helvetica,sans-Serif" font-size="10.00">Inactive</text>
</a>
</g>
</g>
<!-- Node7&#45;&gt;Node8 -->
<g id="edge7" class="edge"><title>Node7&#45;&gt;Node8</title>
<path fill="none" stroke="midnightblue" d="M1076.49,-480.115C1089.82,-514.625 1127.37,-599.505 1188,-642 1194.83,-646.788 1202.47,-650.665 1210.42,-653.804"/>
<polygon fill="midnightblue" stroke="midnightblue" points="1209.27,-657.11 1219.86,-657.16 1211.61,-650.514 1209.27,-657.11"/>
</g>
<!-- Node9 -->
<g id="node9" class="node"><title>Node9</title>
<g id="a_node9"><a xlink:href="../../db/dce/classmodel_1_1_turtle_update.html#a6c2e9c2e4216253c37801998a329455b" target="_top" xlink:title="model.TurtleUpdate.isTurtle\lPenUp">
<polygon fill="white" stroke="black" points="1220,-603 1220,-633 1366,-633 1366,-603 1220,-603"/>
<text text-anchor="start" x="1228" y="-621" font-family="Helvetica,sans-Serif" font-size="10.00">model.TurtleUpdate.isTurtle</text>
<text text-anchor="middle" x="1293" y="-610" font-family="Helvetica,sans-Serif" font-size="10.00">PenUp</text>
</a>
</g>
</g>
<!-- Node7&#45;&gt;Node9 -->
<g id="edge8" class="edge"><title>Node7&#45;&gt;Node9</title>
<path fill="none" stroke="midnightblue" d="M1080.5,-480.34C1098.15,-507.503 1138.73,-563.93 1188,-593 1194.94,-597.093 1202.51,-600.516 1210.3,-603.38"/>
<polygon fill="midnightblue" stroke="midnightblue" points="1209.29,-606.733 1219.88,-606.602 1211.52,-600.098 1209.29,-606.733"/>
</g>
<!-- Node10 -->
<g id="node10" class="node"><title>Node10</title>
<g id="a_node10"><a xlink:href="../../d5/d46/classview_1_1components_1_1_palette.html#af6c1989fcbc763b66af3fc609fa59ff9" target="_top" xlink:title="view.components.Palette.get\lImage">
<polygon fill="white" stroke="black" points="1216,-554 1216,-584 1370,-584 1370,-554 1216,-554"/>
<text text-anchor="start" x="1224" y="-572" font-family="Helvetica,sans-Serif" font-size="10.00">view.components.Palette.get</text>
<text text-anchor="middle" x="1293" y="-561" font-family="Helvetica,sans-Serif" font-size="10.00">Image</text>
</a>
</g>
</g>
<!-- Node7&#45;&gt;Node10 -->
<g id="edge9" class="edge"><title>Node7&#45;&gt;Node10</title>
<path fill="none" stroke="midnightblue" d="M1088.83,-480.07C1110.79,-497.878 1149.87,-527.204 1188,-544 1193.8,-546.554 1199.9,-548.872 1206.12,-550.971"/>
<polygon fill="midnightblue" stroke="midnightblue" points="1205.37,-554.406 1215.96,-554.091 1207.49,-547.733 1205.37,-554.406"/>
</g>
<!-- Node11 -->
<g id="node11" class="node"><title>Node11</title>
<g id="a_node11"><a xlink:href="../../db/dce/classmodel_1_1_turtle_update.html#a36b8205a61dd875ac4521cf51906c275" target="_top" xlink:title="model.TurtleUpdate.getShapeID">
<polygon fill="white" stroke="black" points="1208,-515.5 1208,-534.5 1378,-534.5 1378,-515.5 1208,-515.5"/>
<text text-anchor="middle" x="1293" y="-522.5" font-family="Helvetica,sans-Serif" font-size="10.00">model.TurtleUpdate.getShapeID</text>
</a>
</g>
</g>
<!-- Node7&#45;&gt;Node11 -->
<g id="edge10" class="edge"><title>Node7&#45;&gt;Node11</title>
<path fill="none" stroke="midnightblue" d="M1109,-480.012C1131.66,-488.537 1161.16,-498.892 1188,-506 1198.53,-508.788 1209.76,-511.304 1220.81,-513.525"/>
<polygon fill="midnightblue" stroke="midnightblue" points="1220.4,-517.01 1230.88,-515.481 1221.73,-510.138 1220.4,-517.01"/>
</g>
<!-- Node12 -->
<g id="node12" class="node"><title>Node12</title>
<g id="a_node12"><a xlink:href="../../db/dce/classmodel_1_1_turtle_update.html#a5e88189d0b5f21c9474b5617cb396b13" target="_top" xlink:title="model.TurtleUpdate.isStamp">
<polygon fill="white" stroke="black" points="1216.5,-477.5 1216.5,-496.5 1369.5,-496.5 1369.5,-477.5 1216.5,-477.5"/>
<text text-anchor="middle" x="1293" y="-484.5" font-family="Helvetica,sans-Serif" font-size="10.00">model.TurtleUpdate.isStamp</text>
</a>
</g>
</g>
<!-- Node7&#45;&gt;Node12 -->
<g id="edge11" class="edge"><title>Node7&#45;&gt;Node12</title>
<path fill="none" stroke="midnightblue" d="M1152.04,-473.067C1169.65,-474.82 1188.33,-476.68 1206.12,-478.451"/>
<polygon fill="midnightblue" stroke="midnightblue" points="1206.18,-481.974 1216.48,-479.482 1206.87,-475.009 1206.18,-481.974"/>
</g>
<!-- Node13 -->
<g id="node13" class="node"><title>Node13</title>
<g id="a_node13"><a xlink:href="../../dd/ddc/classview_1_1turtle_1_1_turtle_image.html#aa1a5f2d4c96c64f526f4df58fd5e77d6" target="_top" xlink:title="view.turtle.TurtleImage.leave\lStamp">
<polygon fill="white" stroke="black" points="1217,-428 1217,-458 1369,-458 1369,-428 1217,-428"/>
<text text-anchor="start" x="1225" y="-446" font-family="Helvetica,sans-Serif" font-size="10.00">view.turtle.TurtleImage.leave</text>
<text text-anchor="middle" x="1293" y="-435" font-family="Helvetica,sans-Serif" font-size="10.00">Stamp</text>
</a>
</g>
</g>
<!-- Node7&#45;&gt;Node13 -->
<g id="edge12" class="edge"><title>Node7&#45;&gt;Node13</title>
<path fill="none" stroke="midnightblue" d="M1152.04,-456.933C1169.83,-455.161 1188.73,-453.281 1206.69,-451.493"/>
<polygon fill="midnightblue" stroke="midnightblue" points="1207.24,-454.955 1216.84,-450.482 1206.54,-447.99 1207.24,-454.955"/>
</g>
<!-- Node14 -->
<g id="node14" class="node"><title>Node14</title>
<g id="a_node14"><a xlink:href="../../db/dce/classmodel_1_1_turtle_update.html#ab56febaad846cad5592395c3a67a68db" target="_top" xlink:title="model.TurtleUpdate.isTurtle\lClear">
<polygon fill="white" stroke="black" points="1220,-379 1220,-409 1366,-409 1366,-379 1220,-379"/>
<text text-anchor="start" x="1228" y="-397" font-family="Helvetica,sans-Serif" font-size="10.00">model.TurtleUpdate.isTurtle</text>
<text text-anchor="middle" x="1293" y="-386" font-family="Helvetica,sans-Serif" font-size="10.00">Clear</text>
</a>
</g>
</g>
<!-- Node7&#45;&gt;Node14 -->
<g id="edge13" class="edge"><title>Node7&#45;&gt;Node14</title>
<path fill="none" stroke="midnightblue" d="M1105.62,-449.927C1128.67,-440.254 1159.79,-427.888 1188,-419 1196.24,-416.405 1204.91,-413.928 1213.59,-411.611"/>
<polygon fill="midnightblue" stroke="midnightblue" points="1214.58,-414.971 1223.38,-409.066 1212.82,-408.196 1214.58,-414.971"/>
</g>
<!-- Node15 -->
<g id="node15" class="node"><title>Node15</title>
<g id="a_node15"><a xlink:href="../../d4/d93/classview_1_1turtle_1_1_turtle_pen.html#ae7dfe008f68eef44da5ee831b062952a" target="_top" xlink:title="view.turtle.TurtlePen.updatePen">
<polygon fill="white" stroke="black" points="1210,-340.5 1210,-359.5 1376,-359.5 1376,-340.5 1210,-340.5"/>
<text text-anchor="middle" x="1293" y="-347.5" font-family="Helvetica,sans-Serif" font-size="10.00">view.turtle.TurtlePen.updatePen</text>
</a>
</g>
</g>
<!-- Node7&#45;&gt;Node15 -->
<g id="edge14" class="edge"><title>Node7&#45;&gt;Node15</title>
<path fill="none" stroke="midnightblue" d="M1084.86,-449.755C1105.26,-428.345 1145.55,-389.779 1188,-370 1194.47,-366.984 1201.38,-364.423 1208.43,-362.248"/>
<polygon fill="midnightblue" stroke="midnightblue" points="1209.44,-365.599 1218.12,-359.515 1207.54,-358.862 1209.44,-365.599"/>
</g>
<!-- Node16 -->
<g id="node16" class="node"><title>Node16</title>
<g id="a_node16"><a xlink:href="../../d5/d46/classview_1_1components_1_1_palette.html#acf5106175f97e28619e7ed993b9fce93" target="_top" xlink:title="view.components.Palette.get\lColor">
<polygon fill="white" stroke="black" points="1216,-291 1216,-321 1370,-321 1370,-291 1216,-291"/>
<text text-anchor="start" x="1224" y="-309" font-family="Helvetica,sans-Serif" font-size="10.00">view.components.Palette.get</text>
<text text-anchor="middle" x="1293" y="-298" font-family="Helvetica,sans-Serif" font-size="10.00">Color</text>
</a>
</g>
</g>
<!-- Node7&#45;&gt;Node16 -->
<g id="edge15" class="edge"><title>Node7&#45;&gt;Node16</title>
<path fill="none" stroke="midnightblue" d="M1079.77,-449.821C1096.83,-421.732 1137.28,-361.713 1188,-331 1193.76,-327.51 1199.98,-324.508 1206.41,-321.924"/>
<polygon fill="midnightblue" stroke="midnightblue" points="1207.77,-325.155 1215.95,-318.431 1205.36,-318.582 1207.77,-325.155"/>
</g>
<!-- Node17 -->
<g id="node17" class="node"><title>Node17</title>
<g id="a_node17"><a xlink:href="../../d4/d93/classview_1_1turtle_1_1_turtle_pen.html#ab0c25ebb2a0dd4243c58a4c57f4413b6" target="_top" xlink:title="view.turtle.TurtlePen.get\lColorIndex">
<polygon fill="white" stroke="black" points="1228,-242 1228,-272 1358,-272 1358,-242 1228,-242"/>
<text text-anchor="start" x="1236" y="-260" font-family="Helvetica,sans-Serif" font-size="10.00">view.turtle.TurtlePen.get</text>
<text text-anchor="middle" x="1293" y="-249" font-family="Helvetica,sans-Serif" font-size="10.00">ColorIndex</text>
</a>
</g>
</g>
<!-- Node7&#45;&gt;Node17 -->
<g id="edge16" class="edge"><title>Node7&#45;&gt;Node17</title>
<path fill="none" stroke="midnightblue" d="M1076.14,-449.907C1088.98,-414.583 1125.96,-326.192 1188,-282 1196.97,-275.607 1207.38,-270.835 1218.06,-267.275"/>
<polygon fill="midnightblue" stroke="midnightblue" points="1219.34,-270.547 1227.92,-264.336 1217.34,-263.839 1219.34,-270.547"/>
</g>
<!-- Node18 -->
<g id="node18" class="node"><title>Node18</title>
<g id="a_node18"><a xlink:href="../../dd/ddc/classview_1_1turtle_1_1_turtle_image.html#a86b462f57b86f6c0a72357fdc2655aa1" target="_top" xlink:title="view.turtle.TurtleImage.math\lCoordsToCanvasCoords">
<polygon fill="white" stroke="black" points="1217,-193 1217,-223 1369,-223 1369,-193 1217,-193"/>
<text text-anchor="start" x="1225" y="-211" font-family="Helvetica,sans-Serif" font-size="10.00">view.turtle.TurtleImage.math</text>
<text text-anchor="middle" x="1293" y="-200" font-family="Helvetica,sans-Serif" font-size="10.00">CoordsToCanvasCoords</text>
</a>
</g>
</g>
<!-- Node7&#45;&gt;Node18 -->
<g id="edge17" class="edge"><title>Node7&#45;&gt;Node18</title>
<path fill="none" stroke="midnightblue" d="M1074.04,-449.734C1083.18,-408.001 1114.44,-291.252 1188,-233 1193.8,-228.403 1200.32,-224.631 1207.2,-221.54"/>
<polygon fill="midnightblue" stroke="midnightblue" points="1208.76,-224.686 1216.75,-217.732 1206.16,-218.183 1208.76,-224.686"/>
</g>
<!-- Node19 -->
<g id="node19" class="node"><title>Node19</title>
<g id="a_node19"><a xlink:href="../../db/dce/classmodel_1_1_turtle_update.html#a4a8bce496fed0074bb206694b80de851" target="_top" xlink:title="model.TurtleUpdate.getTurtle\lOldCoordinates">
<polygon fill="white" stroke="black" points="1215.5,-144 1215.5,-174 1370.5,-174 1370.5,-144 1215.5,-144"/>
<text text-anchor="start" x="1223.5" y="-162" font-family="Helvetica,sans-Serif" font-size="10.00">model.TurtleUpdate.getTurtle</text>
<text text-anchor="middle" x="1293" y="-151" font-family="Helvetica,sans-Serif" font-size="10.00">OldCoordinates</text>
</a>
</g>
</g>
<!-- Node7&#45;&gt;Node19 -->
<g id="edge18" class="edge"><title>Node7&#45;&gt;Node19</title>
<path fill="none" stroke="midnightblue" d="M1072.59,-449.728C1078.35,-402.379 1102.55,-256.863 1188,-184 1193.32,-179.466 1199.32,-175.726 1205.68,-172.642"/>
<polygon fill="midnightblue" stroke="midnightblue" points="1207.41,-175.713 1215.24,-168.579 1204.67,-169.271 1207.41,-175.713"/>
</g>
<!-- Node20 -->
<g id="node20" class="node"><title>Node20</title>
<g id="a_node20"><a xlink:href="../../d8/d6a/classmodel_1_1_coordinates.html#a52f6ed56424da9a52c598f9c94f2c8ff" target="_top" xlink:title="model.Coordinates.getY">
<polygon fill="white" stroke="black" points="1227.5,-105.5 1227.5,-124.5 1358.5,-124.5 1358.5,-105.5 1227.5,-105.5"/>
<text text-anchor="middle" x="1293" y="-112.5" font-family="Helvetica,sans-Serif" font-size="10.00">model.Coordinates.getY</text>
</a>
</g>
</g>
<!-- Node7&#45;&gt;Node20 -->
<g id="edge19" class="edge"><title>Node7&#45;&gt;Node20</title>
<path fill="none" stroke="midnightblue" d="M1071.37,-449.982C1073.52,-397.493 1088.2,-220.786 1188,-135 1196.43,-127.751 1206.69,-122.811 1217.43,-119.493"/>
<polygon fill="midnightblue" stroke="midnightblue" points="1218.61,-122.802 1227.4,-116.883 1216.84,-116.031 1218.61,-122.802"/>
</g>
<!-- Node21 -->
<g id="node21" class="node"><title>Node21</title>
<g id="a_node21"><a xlink:href="../../db/dce/classmodel_1_1_turtle_update.html#a2b6573ce1d167dd921e9abc9fff7c1dd" target="_top" xlink:title="model.TurtleUpdate.getTurtle\lNewCoordinates">
<polygon fill="white" stroke="black" points="1215.5,-916 1215.5,-946 1370.5,-946 1370.5,-916 1215.5,-916"/>
<text text-anchor="start" x="1223.5" y="-934" font-family="Helvetica,sans-Serif" font-size="10.00">model.TurtleUpdate.getTurtle</text>
<text text-anchor="middle" x="1293" y="-923" font-family="Helvetica,sans-Serif" font-size="10.00">NewCoordinates</text>
</a>
</g>
</g>
<!-- Node7&#45;&gt;Node21 -->
<g id="edge20" class="edge"><title>Node7&#45;&gt;Node21</title>
<path fill="none" stroke="midnightblue" d="M1072.93,-480.095C1082.18,-550.257 1124.25,-843.73 1188,-906 1193.3,-911.174 1199.47,-915.343 1206.11,-918.694"/>
<polygon fill="midnightblue" stroke="midnightblue" points="1204.86,-921.968 1215.42,-922.775 1207.67,-915.556 1204.86,-921.968"/>
</g>
<!-- Node22 -->
<g id="node22" class="node"><title>Node22</title>
<g id="a_node22"><a xlink:href="../../dd/ddc/classview_1_1turtle_1_1_turtle_image.html#a6798d71b6457a6b70b472171e64f11f2" target="_top" xlink:title="view.turtle.TurtleImage.hide">
<polygon fill="white" stroke="black" points="1220,-877.5 1220,-896.5 1366,-896.5 1366,-877.5 1220,-877.5"/>
<text text-anchor="middle" x="1293" y="-884.5" font-family="Helvetica,sans-Serif" font-size="10.00">view.turtle.TurtleImage.hide</text>
</a>
</g>
</g>
<!-- Node7&#45;&gt;Node22 -->
<g id="edge21" class="edge"><title>Node7&#45;&gt;Node22</title>
<path fill="none" stroke="midnightblue" d="M1073.27,-480.147C1083.57,-546.703 1127.95,-812.302 1188,-867 1194.52,-872.937 1202.24,-877.352 1210.5,-880.606"/>
<polygon fill="midnightblue" stroke="midnightblue" points="1209.4,-883.932 1220,-883.806 1211.64,-877.298 1209.4,-883.932"/>
</g>
<!-- Node23 -->
<g id="node23" class="node"><title>Node23</title>
<g id="a_node23"><a xlink:href="../../db/dce/classmodel_1_1_turtle_update.html#a7288583a573d839635a8773a01563300" target="_top" xlink:title="model.TurtleUpdate.isTurtle\lHidden">
<polygon fill="white" stroke="black" points="1220,-828 1220,-858 1366,-858 1366,-828 1220,-828"/>
<text text-anchor="start" x="1228" y="-846" font-family="Helvetica,sans-Serif" font-size="10.00">model.TurtleUpdate.isTurtle</text>
<text text-anchor="middle" x="1293" y="-835" font-family="Helvetica,sans-Serif" font-size="10.00">Hidden</text>
</a>
</g>
</g>
<!-- Node7&#45;&gt;Node23 -->
<g id="edge22" class="edge"><title>Node7&#45;&gt;Node23</title>
<path fill="none" stroke="midnightblue" d="M1071.13,-480.102C1072.45,-534.608 1084.62,-722.969 1188,-818 1194.51,-823.981 1202.19,-828.602 1210.38,-832.162"/>
<polygon fill="midnightblue" stroke="midnightblue" points="1209.23,-835.467 1219.82,-835.747 1211.71,-828.923 1209.23,-835.467"/>
</g>
<!-- Node24 -->
<g id="node24" class="node"><title>Node24</title>
<g id="a_node24"><a xlink:href="../../d4/d93/classview_1_1turtle_1_1_turtle_pen.html#aeb591e6c3666a998228a86dbe9121c35" target="_top" xlink:title="view.turtle.TurtlePen.drawLine">
<polygon fill="white" stroke="black" points="1215,-789.5 1215,-808.5 1371,-808.5 1371,-789.5 1215,-789.5"/>
<text text-anchor="middle" x="1293" y="-796.5" font-family="Helvetica,sans-Serif" font-size="10.00">view.turtle.TurtlePen.drawLine</text>
</a>
</g>
</g>
<!-- Node7&#45;&gt;Node24 -->
<g id="edge23" class="edge"><title>Node7&#45;&gt;Node24</title>
<path fill="none" stroke="midnightblue" d="M1071.67,-480.011C1074.8,-530.876 1092.28,-698.039 1188,-779 1193.23,-783.428 1199.15,-786.99 1205.44,-789.844"/>
<polygon fill="midnightblue" stroke="midnightblue" points="1204.29,-793.155 1214.88,-793.539 1206.85,-786.636 1204.29,-793.155"/>
</g>
<!-- Node28 -->
<g id="node28" class="node"><title>Node28</title>
<g id="a_node28"><a xlink:href="../../dd/ddc/classview_1_1turtle_1_1_turtle_image.html#aca0a62f113534161f725da472e1f4d9f" target="_top" xlink:title="view.turtle.TurtleImage.unanimatedMove">
<polygon fill="white" stroke="black" points="1188.5,-67.5 1188.5,-86.5 1397.5,-86.5 1397.5,-67.5 1188.5,-67.5"/>
<text text-anchor="middle" x="1293" y="-74.5" font-family="Helvetica,sans-Serif" font-size="10.00">view.turtle.TurtleImage.unanimatedMove</text>
</a>
</g>
</g>
<!-- Node7&#45;&gt;Node28 -->
<g id="edge27" class="edge"><title>Node7&#45;&gt;Node28</title>
<path fill="none" stroke="midnightblue" d="M1070.7,-449.815C1070.49,-393.252 1077.82,-193.072 1188,-96 1189.73,-94.472 1191.55,-93.0483 1193.43,-91.7224"/>
<polygon fill="midnightblue" stroke="midnightblue" points="1195.33,-94.666 1202.1,-86.5151 1191.73,-88.666 1195.33,-94.666"/>
</g>
<!-- Node29 -->
<g id="node29" class="node"><title>Node29</title>
<g id="a_node29"><a xlink:href="../../db/dce/classmodel_1_1_turtle_update.html#aff8157b2082cdae408655d87ed85b74e" target="_top" xlink:title="model.TurtleUpdate.getTurtle\lAngle">
<polygon fill="white" stroke="black" points="1215.5,-740 1215.5,-770 1370.5,-770 1370.5,-740 1215.5,-740"/>
<text text-anchor="start" x="1223.5" y="-758" font-family="Helvetica,sans-Serif" font-size="10.00">model.TurtleUpdate.getTurtle</text>
<text text-anchor="middle" x="1293" y="-747" font-family="Helvetica,sans-Serif" font-size="10.00">Angle</text>
</a>
</g>
</g>
<!-- Node7&#45;&gt;Node29 -->
<g id="edge29" class="edge"><title>Node7&#45;&gt;Node29</title>
<path fill="none" stroke="midnightblue" d="M1072.97,-480.06C1079.75,-525.428 1106.34,-661.846 1188,-730 1193.36,-734.477 1199.4,-738.178 1205.79,-741.234"/>
<polygon fill="midnightblue" stroke="midnightblue" points="1204.8,-744.614 1215.37,-745.266 1207.51,-738.162 1204.8,-744.614"/>
</g>
<!-- Node30 -->
<g id="node30" class="node"><title>Node30</title>
<g id="a_node30"><a xlink:href="../../de/dfa/classmodel_1_1_angle.html#aa1b069cc47fadd893fe8527c356dd8fd" target="_top" xlink:title="model.Angle.getAngleValue">
<polygon fill="white" stroke="black" points="1218.5,-701.5 1218.5,-720.5 1367.5,-720.5 1367.5,-701.5 1218.5,-701.5"/>
<text text-anchor="middle" x="1293" y="-708.5" font-family="Helvetica,sans-Serif" font-size="10.00">model.Angle.getAngleValue</text>
</a>
</g>
</g>
<!-- Node7&#45;&gt;Node30 -->
<g id="edge30" class="edge"><title>Node7&#45;&gt;Node30</title>
<path fill="none" stroke="midnightblue" d="M1074.03,-480.056C1083.15,-521.182 1114.37,-636.005 1188,-691 1194.27,-695.681 1201.32,-699.358 1208.73,-702.236"/>
<polygon fill="midnightblue" stroke="midnightblue" points="1207.68,-705.575 1218.27,-705.47 1209.93,-698.945 1207.68,-705.575"/>
</g>
<!-- Node31 -->
<g id="node31" class="node"><title>Node31</title>
<g id="a_node31"><a xlink:href="../../dd/ddc/classview_1_1turtle_1_1_turtle_image.html#a958417ed4561c0b910f80944a5110ec7" target="_top" xlink:title="view.turtle.TurtleImage.animatedMove">
<polygon fill="white" stroke="black" points="1194.5,-29.5 1194.5,-48.5 1391.5,-48.5 1391.5,-29.5 1194.5,-29.5"/>
<text text-anchor="middle" x="1293" y="-36.5" font-family="Helvetica,sans-Serif" font-size="10.00">view.turtle.TurtleImage.animatedMove</text>
</a>
</g>
</g>
<!-- Node7&#45;&gt;Node31 -->
<g id="edge31" class="edge"><title>Node7&#45;&gt;Node31</title>
<path fill="none" stroke="midnightblue" d="M1073.23,-449.653C1083.36,-382.221 1127.09,-113.144 1188,-58 1189.53,-56.6141 1191.13,-55.3134 1192.78,-54.0929"/>
<polygon fill="midnightblue" stroke="midnightblue" points="1194.88,-56.9115 1201.49,-48.6376 1191.16,-50.9788 1194.88,-56.9115"/>
</g>
<!-- Node25 -->
<g id="node25" class="node"><title>Node25</title>
<g id="a_node25"><a xlink:href="../../d4/d93/classview_1_1turtle_1_1_turtle_pen.html#a3eea64b5d17767f655096870f4a5850d" target="_top" xlink:title="view.turtle.TurtlePen.draw\lGappedLine">
<polygon fill="white" stroke="black" points="1444.5,-784 1444.5,-814 1581.5,-814 1581.5,-784 1444.5,-784"/>
<text text-anchor="start" x="1452.5" y="-802" font-family="Helvetica,sans-Serif" font-size="10.00">view.turtle.TurtlePen.draw</text>
<text text-anchor="middle" x="1513" y="-791" font-family="Helvetica,sans-Serif" font-size="10.00">GappedLine</text>
</a>
</g>
</g>
<!-- Node24&#45;&gt;Node25 -->
<g id="edge24" class="edge"><title>Node24&#45;&gt;Node25</title>
<path fill="none" stroke="midnightblue" d="M1371.17,-799C1391.6,-799 1413.67,-799 1434.14,-799"/>
<polygon fill="midnightblue" stroke="midnightblue" points="1434.36,-802.5 1444.36,-799 1434.36,-795.5 1434.36,-802.5"/>
</g>
<!-- Node26 -->
<g id="node26" class="node"><title>Node26</title>
<g id="a_node26"><a xlink:href="../../d4/d93/classview_1_1turtle_1_1_turtle_pen.html#a78a412ae5c294fd37981146020ea4009" target="_top" xlink:title="view.turtle.TurtlePen.generate\lDashVectorArray">
<polygon fill="white" stroke="black" points="1628,-784 1628,-814 1786,-814 1786,-784 1628,-784"/>
<text text-anchor="start" x="1636" y="-802" font-family="Helvetica,sans-Serif" font-size="10.00">view.turtle.TurtlePen.generate</text>
<text text-anchor="middle" x="1707" y="-791" font-family="Helvetica,sans-Serif" font-size="10.00">DashVectorArray</text>
</a>
</g>
</g>
<!-- Node25&#45;&gt;Node26 -->
<g id="edge25" class="edge"><title>Node25&#45;&gt;Node26</title>
<path fill="none" stroke="midnightblue" d="M1581.69,-799C1593.33,-799 1605.58,-799 1617.67,-799"/>
<polygon fill="midnightblue" stroke="midnightblue" points="1617.77,-802.5 1627.77,-799 1617.77,-795.5 1617.77,-802.5"/>
</g>
<!-- Node27 -->
<g id="node27" class="node"><title>Node27</title>
<g id="a_node27"><a xlink:href="../../d4/d93/classview_1_1turtle_1_1_turtle_pen.html#a1553953625d014db95e9af6faa83e667" target="_top" xlink:title="view.turtle.TurtlePen.get\lUnitVector">
<polygon fill="white" stroke="black" points="1822,-784 1822,-814 1952,-814 1952,-784 1822,-784"/>
<text text-anchor="start" x="1830" y="-802" font-family="Helvetica,sans-Serif" font-size="10.00">view.turtle.TurtlePen.get</text>
<text text-anchor="middle" x="1887" y="-791" font-family="Helvetica,sans-Serif" font-size="10.00">UnitVector</text>
</a>
</g>
</g>
<!-- Node26&#45;&gt;Node27 -->
<g id="edge26" class="edge"><title>Node26&#45;&gt;Node27</title>
<path fill="none" stroke="midnightblue" d="M1786.07,-799C1794.57,-799 1803.21,-799 1811.66,-799"/>
<polygon fill="midnightblue" stroke="midnightblue" points="1811.86,-802.5 1821.86,-799 1811.86,-795.5 1811.86,-802.5"/>
</g>
<!-- Node28&#45;&gt;Node6 -->
<g id="edge28" class="edge"><title>Node28&#45;&gt;Node6</title>
<path fill="none" stroke="midnightblue" d="M1188.26,-77C1118.21,-77 1027.07,-77 962.285,-77"/>
<polygon fill="midnightblue" stroke="midnightblue" points="962.122,-73.5001 952.122,-77 962.121,-80.5001 962.122,-73.5001"/>
</g>
<!-- Node31&#45;&gt;Node6 -->
<g id="edge34" class="edge"><title>Node31&#45;&gt;Node6</title>
<path fill="none" stroke="midnightblue" d="M1194.45,-48.0194C1123.61,-54.5686 1028.88,-63.3271 962.168,-69.4955"/>
<polygon fill="midnightblue" stroke="midnightblue" points="961.757,-66.0184 952.122,-70.4243 962.401,-72.9887 961.757,-66.0184"/>
</g>
<!-- Node32 -->
<g id="node32" class="node"><title>Node32</title>
<g id="a_node32"><a xlink:href="../../dd/ddc/classview_1_1turtle_1_1_turtle_image.html#afad70374651ad6165f7d48b7bf268d71" target="_top" xlink:title="view.turtle.TurtleImage.create\lRotateTransition">
<polygon fill="white" stroke="black" points="1434.5,-0 1434.5,-30 1591.5,-30 1591.5,-0 1434.5,-0"/>
<text text-anchor="start" x="1442.5" y="-18" font-family="Helvetica,sans-Serif" font-size="10.00">view.turtle.TurtleImage.create</text>
<text text-anchor="middle" x="1513" y="-7" font-family="Helvetica,sans-Serif" font-size="10.00">RotateTransition</text>
</a>
</g>
</g>
<!-- Node31&#45;&gt;Node32 -->
<g id="edge32" class="edge"><title>Node31&#45;&gt;Node32</title>
<path fill="none" stroke="midnightblue" d="M1380.47,-29.4801C1394.96,-27.8851 1410,-26.229 1424.52,-24.6312"/>
<polygon fill="midnightblue" stroke="midnightblue" points="1424.91,-28.1092 1434.47,-23.5358 1424.14,-21.1512 1424.91,-28.1092"/>
</g>
<!-- Node33 -->
<g id="node33" class="node"><title>Node33</title>
<g id="a_node33"><a xlink:href="../../dd/ddc/classview_1_1turtle_1_1_turtle_image.html#a579bab57c4e802a8a119ba0253b58ed9" target="_top" xlink:title="view.turtle.TurtleImage.create\lTranslateTransition">
<polygon fill="white" stroke="black" points="1434.5,-49 1434.5,-79 1591.5,-79 1591.5,-49 1434.5,-49"/>
<text text-anchor="start" x="1442.5" y="-67" font-family="Helvetica,sans-Serif" font-size="10.00">view.turtle.TurtleImage.create</text>
<text text-anchor="middle" x="1513" y="-56" font-family="Helvetica,sans-Serif" font-size="10.00">TranslateTransition</text>
</a>
</g>
</g>
<!-- Node31&#45;&gt;Node33 -->
<g id="edge33" class="edge"><title>Node31&#45;&gt;Node33</title>
<path fill="none" stroke="midnightblue" d="M1377.04,-48.5227C1392.44,-50.2886 1408.57,-52.1385 1424.11,-53.9203"/>
<polygon fill="midnightblue" stroke="midnightblue" points="1423.88,-57.4176 1434.22,-55.0798 1424.68,-50.4631 1423.88,-57.4176"/>
</g>
</g>
</svg>
        <g id="navigator" transform="translate(0 0)" fill="#404254">
                <rect fill="#f2f5e9" fill-opacity="0.5" stroke="#606060" stroke-width=".5" x="0" y="0" width="60" height="60"/>
                <use id="zoomplus" xlink:href="#zoomPlus" x="17" y="9" onmousedown="handleZoom(evt,'in')"/>
                <use id="zoomminus" xlink:href="#zoomMin" x="42" y="9" onmousedown="handleZoom(evt,'out')"/>
                <use id="reset" xlink:href="#resetDef" x="30" y="36" onmousedown="handleReset()"/>
                <g id="arrowUp" xlink:href="#dirArrow" transform="translate(30 24)" onmousedown="handlePan(0,-1)">
                  <use xlink:href="#rim" fill="#404040">
                        <set attributeName="fill" to="#808080" begin="arrowUp.mouseover" end="arrowUp.mouseout"/>
                  </use>
                  <path fill="none" stroke="white" stroke-width="1.5" d="M0,-3.0v7 M-2.5,-0.5L0,-3.0L2.5,-0.5"/>
                </g>
                <g id="arrowRight" xlink:href="#dirArrow" transform="rotate(90) translate(36 -43)" onmousedown="handlePan(1,0)">
                  <use xlink:href="#rim" fill="#404040">
                        <set attributeName="fill" to="#808080" begin="arrowRight.mouseover" end="arrowRight.mouseout"/>
                  </use>
                  <path fill="none" stroke="white" stroke-width="1.5" d="M0,-3.0v7 M-2.5,-0.5L0,-3.0L2.5,-0.5"/>
                </g>
                <g id="arrowDown" xlink:href="#dirArrow" transform="rotate(180) translate(-30 -48)" onmousedown="handlePan(0,1)">
                  <use xlink:href="#rim" fill="#404040">
                        <set attributeName="fill" to="#808080" begin="arrowDown.mouseover" end="arrowDown.mouseout"/>
                  </use>
                  <path fill="none" stroke="white" stroke-width="1.5" d="M0,-3.0v7 M-2.5,-0.5L0,-3.0L2.5,-0.5"/>
                </g>
                <g id="arrowLeft" xlink:href="#dirArrow" transform="rotate(270) translate(-36 17)" onmousedown="handlePan(-1,0)">
                  <use xlink:href="#rim" fill="#404040">
                        <set attributeName="fill" to="#808080" begin="arrowLeft.mouseover" end="arrowLeft.mouseout"/>
                  </use>
                  <path fill="none" stroke="white" stroke-width="1.5" d="M0,-3.0v7 M-2.5,-0.5L0,-3.0L2.5,-0.5"/>
                </g>
        </g>
        <svg viewBox="0 0 15 15" width="100%" height="30px" preserveAspectRatio="xMaxYMin meet">
         <g id="arrow_out" transform="scale(0.3 0.3)">
          <a xlink:href="classview_1_1components_1_1_debugger_port_a6dd594b7c6572e0f4ef2ab7d8845f2ce_cgraph_org.svg" target="_base">
           <rect id="button" ry="5" rx="5" y="6" x="6" height="38" width="38"
                fill="#f2f5e9" fill-opacity="0.5" stroke="#606060" stroke-width="1.0"/>
           <path id="arrow"
             d="M 11.500037,31.436501 C 11.940474,20.09759 22.043105,11.32322 32.158766,21.979434 L 37.068811,17.246167 C 37.068811,17.246167 37.088388,32 37.088388,32 L 22.160133,31.978069 C 22.160133,31.978069 26.997745,27.140456 26.997745,27.140456 C 18.528582,18.264221 13.291696,25.230495 11.500037,31.436501 z"
             style="fill:#404040;"/>
          </a>
         </g>
        </svg>
</svg>
