<?xml version="1.0" encoding="UTF-8" standalone="no"?>
<!DOCTYPE svg PUBLIC "-//W3C//DTD SVG 1.1//EN"
 "http://www.w3.org/Graphics/SVG/1.1/DTD/svg11.dtd">
<!-- Generated by graphviz version 2.36.0 (20140111.2315)
 -->
<!-- Title: view.components.Palette Pages: 1 -->
<svg width="335pt" height="108pt"
 viewBox="0.00 0.00 335.00 108.00" xmlns="http://www.w3.org/2000/svg" xmlns:xlink="http://www.w3.org/1999/xlink">
<g id="graph0" class="graph" transform="scale(1 1) rotate(0) translate(4 104)">
<title>view.components.Palette</title>
<polygon fill="white" stroke="none" points="-4,4 -4,-104 331,-104 331,4 -4,4"/>
<!-- Node1 -->
<g id="node1" class="node"><title>Node1</title>
<polygon fill="#bfbfbf" stroke="black" points="95.5,-0.5 95.5,-19.5 230.5,-19.5 230.5,-0.5 95.5,-0.5"/>
<text text-anchor="middle" x="163" y="-7.5" font-family="Helvetica,sans-Serif" font-size="10.00">view.components.Palette</text>
</g>
<!-- Node2 -->
<g id="node2" class="node"><title>Node2</title>
<polygon fill="white" stroke="#bfbfbf" points="-0.5,-69 -0.5,-99 154.5,-99 154.5,-69 -0.5,-69"/>
<text text-anchor="start" x="7.5" y="-87" font-family="Helvetica,sans-Serif" font-size="10.00">ArrayList&lt; view.components.</text>
<text text-anchor="middle" x="77" y="-76" font-family="Helvetica,sans-Serif" font-size="10.00">ImageIndex &gt;</text>
</g>
<!-- Node2&#45;&gt;Node1 -->
<g id="edge1" class="edge"><title>Node2&#45;&gt;Node1</title>
<path fill="none" stroke="#9a32cd" stroke-dasharray="5,2" d="M101.826,-62.2158C118.649,-48.1309 140.021,-30.2378 152.538,-19.7589"/>
<polygon fill="#9a32cd" stroke="#9a32cd" points="99.4116,-59.6721 93.9908,-68.7751 103.905,-65.0394 99.4116,-59.6721"/>
<text text-anchor="middle" x="174.5" y="-41.5" font-family="Helvetica,sans-Serif" font-size="10.00"> myImagePalettes</text>
</g>
<!-- Node3 -->
<g id="node3" class="node"><title>Node3</title>
<polygon fill="white" stroke="#bfbfbf" points="172.5,-69 172.5,-99 327.5,-99 327.5,-69 172.5,-69"/>
<text text-anchor="start" x="180.5" y="-87" font-family="Helvetica,sans-Serif" font-size="10.00">ArrayList&lt; view.components.</text>
<text text-anchor="middle" x="250" y="-76" font-family="Helvetica,sans-Serif" font-size="10.00">ColorIndex &gt;</text>
</g>
<!-- Node3&#45;&gt;Node1 -->
<g id="edge2" class="edge"><title>Node3&#45;&gt;Node1</title>
<path fill="none" stroke="#9a32cd" stroke-dasharray="5,2" d="M239.111,-59.8982C234.637,-52.1983 228.875,-44.0504 222,-38 212.867,-29.9626 200.939,-23.9013 190.2,-19.5793"/>
<polygon fill="#9a32cd" stroke="#9a32cd" points="236.12,-61.7265 243.92,-68.897 242.294,-58.4276 236.12,-61.7265"/>
<text text-anchor="middle" x="273" y="-41.5" font-family="Helvetica,sans-Serif" font-size="10.00"> myColorPalettes</text>
</g>
</g>
</svg>
