<?xml version="1.0" encoding="UTF-8" standalone="no"?>
<!DOCTYPE svg PUBLIC "-//W3C//DTD SVG 1.1//EN"
 "http://www.w3.org/Graphics/SVG/1.1/DTD/svg11.dtd">
<!-- Generated by graphviz version 2.36.0 (20140111.2315)
 -->
<!-- Title: view.components.Observer Pages: 1 -->
<svg width="544pt" height="126pt"
 viewBox="0.00 0.00 544.00 126.00" xmlns="http://www.w3.org/2000/svg" xmlns:xlink="http://www.w3.org/1999/xlink">
<g id="graph0" class="graph" transform="scale(1 1) rotate(0) translate(4 122)">
<title>view.components.Observer</title>
<polygon fill="white" stroke="none" points="-4,4 -4,-122 540,-122 540,4 -4,4"/>
<!-- Node1 -->
<g id="node1" class="node"><title>Node1</title>
<polygon fill="#bfbfbf" stroke="black" points="0,-54.5 0,-73.5 146,-73.5 146,-54.5 0,-54.5"/>
<text text-anchor="middle" x="73" y="-61.5" font-family="Helvetica,sans-Serif" font-size="10.00">view.components.Observer</text>
</g>
<!-- Node2 -->
<g id="node2" class="node"><title>Node2</title>
<g id="a_node2"><a xlink:href="../../d5/d4b/classview_1_1components_1_1_turtle_window.html" target="_top" xlink:title="view.components.TurtleWindow">
<polygon fill="white" stroke="black" points="182.5,-98.5 182.5,-117.5 345.5,-117.5 345.5,-98.5 182.5,-98.5"/>
<text text-anchor="middle" x="264" y="-105.5" font-family="Helvetica,sans-Serif" font-size="10.00">view.components.TurtleWindow</text>
</a>
</g>
</g>
<!-- Node1&#45;&gt;Node2 -->
<g id="edge1" class="edge"><title>Node1&#45;&gt;Node2</title>
<path fill="none" stroke="midnightblue" d="M125.015,-75.8764C155.46,-82.9642 193.606,-91.8448 222.07,-98.4713"/>
<polygon fill="midnightblue" stroke="midnightblue" points="125.543,-72.406 115.01,-73.5473 123.956,-79.2237 125.543,-72.406"/>
</g>
<!-- Node3 -->
<g id="node3" class="node"><title>Node3</title>
<g id="a_node3"><a xlink:href="../../da/df5/classview_1_1listwindows_1_1_commands_list_window.html" target="_top" xlink:title="view.listwindows.Commands\lListWindow">
<polygon fill="white" stroke="black" points="189,-49 189,-79 339,-79 339,-49 189,-49"/>
<text text-anchor="start" x="197" y="-67" font-family="Helvetica,sans-Serif" font-size="10.00">view.listwindows.Commands</text>
<text text-anchor="middle" x="264" y="-56" font-family="Helvetica,sans-Serif" font-size="10.00">ListWindow</text>
</a>
</g>
</g>
<!-- Node1&#45;&gt;Node3 -->
<g id="edge2" class="edge"><title>Node1&#45;&gt;Node3</title>
<path fill="none" stroke="midnightblue" d="M156.51,-64C167.286,-64 178.273,-64 188.899,-64"/>
<polygon fill="midnightblue" stroke="midnightblue" points="156.262,-60.5001 146.262,-64 156.262,-67.5001 156.262,-60.5001"/>
</g>
<!-- Node6 -->
<g id="node6" class="node"><title>Node6</title>
<g id="a_node6"><a xlink:href="../../de/d8c/classview_1_1listwindows_1_1_variables_window.html" target="_top" xlink:title="view.listwindows.Variables\lWindow">
<polygon fill="white" stroke="black" points="195,-0 195,-30 333,-30 333,-0 195,-0"/>
<text text-anchor="start" x="203" y="-18" font-family="Helvetica,sans-Serif" font-size="10.00">view.listwindows.Variables</text>
<text text-anchor="middle" x="264" y="-7" font-family="Helvetica,sans-Serif" font-size="10.00">Window</text>
</a>
</g>
</g>
<!-- Node1&#45;&gt;Node6 -->
<g id="edge5" class="edge"><title>Node1&#45;&gt;Node6</title>
<path fill="none" stroke="midnightblue" d="M120.678,-51.8982C146.159,-45.292 177.939,-37.0529 205,-30.037"/>
<polygon fill="midnightblue" stroke="midnightblue" points="119.691,-48.5383 110.89,-54.436 121.448,-55.3143 119.691,-48.5383"/>
</g>
<!-- Node4 -->
<g id="node4" class="node"><title>Node4</title>
<g id="a_node4"><a xlink:href="../../df/d26/classview_1_1listwindows_1_1_commands_history_window.html" target="_top" xlink:title="view.listwindows.Commands\lHistoryWindow">
<polygon fill="white" stroke="black" points="384,-74 384,-104 534,-104 534,-74 384,-74"/>
<text text-anchor="start" x="392" y="-92" font-family="Helvetica,sans-Serif" font-size="10.00">view.listwindows.Commands</text>
<text text-anchor="middle" x="459" y="-81" font-family="Helvetica,sans-Serif" font-size="10.00">HistoryWindow</text>
</a>
</g>
</g>
<!-- Node3&#45;&gt;Node4 -->
<g id="edge3" class="edge"><title>Node3&#45;&gt;Node4</title>
<path fill="none" stroke="midnightblue" d="M349.134,-74.8981C360.678,-76.3936 372.463,-77.9201 383.812,-79.3902"/>
<polygon fill="midnightblue" stroke="midnightblue" points="349.434,-71.4078 339.067,-73.5942 348.534,-78.3498 349.434,-71.4078"/>
</g>
<!-- Node5 -->
<g id="node5" class="node"><title>Node5</title>
<g id="a_node5"><a xlink:href="../../d7/dc7/classview_1_1listwindows_1_1_user_defined_commands_window.html" target="_top" xlink:title="view.listwindows.UserDefined\lCommandsWindow">
<polygon fill="white" stroke="black" points="382,-25 382,-55 536,-55 536,-25 382,-25"/>
<text text-anchor="start" x="390" y="-43" font-family="Helvetica,sans-Serif" font-size="10.00">view.listwindows.UserDefined</text>
<text text-anchor="middle" x="459" y="-32" font-family="Helvetica,sans-Serif" font-size="10.00">CommandsWindow</text>
</a>
</g>
</g>
<!-- Node3&#45;&gt;Node5 -->
<g id="edge4" class="edge"><title>Node3&#45;&gt;Node5</title>
<path fill="none" stroke="midnightblue" d="M349.027,-53.551C359.957,-52.1919 371.104,-50.8057 381.894,-49.4639"/>
<polygon fill="midnightblue" stroke="midnightblue" points="348.559,-50.0823 339.067,-54.7896 349.422,-57.0288 348.559,-50.0823"/>
</g>
</g>
</svg>
