<?xml version="1.0" encoding="UTF-8" standalone="no"?>
<!DOCTYPE svg PUBLIC "-//W3C//DTD SVG 1.1//EN"
 "http://www.w3.org/Graphics/SVG/1.1/DTD/svg11.dtd">
<!-- Generated by graphviz version 2.36.0 (20140111.2315)
 -->
<!-- Title: model.ScopedVariablesCollection.addVariable Pages: 1 -->
<svg width="638pt" height="87pt"
 viewBox="0.00 0.00 638.00 87.00" xmlns="http://www.w3.org/2000/svg" xmlns:xlink="http://www.w3.org/1999/xlink">
<g id="graph0" class="graph" transform="scale(1 1) rotate(0) translate(4 83)">
<title>model.ScopedVariablesCollection.addVariable</title>
<polygon fill="white" stroke="none" points="-4,4 -4,-83 634,-83 634,4 -4,4"/>
<!-- Node1 -->
<g id="node1" class="node"><title>Node1</title>
<polygon fill="#bfbfbf" stroke="black" points="0.5,-24 0.5,-54 197.5,-54 197.5,-24 0.5,-24"/>
<text text-anchor="start" x="8.5" y="-42" font-family="Helvetica,sans-Serif" font-size="10.00">model.ScopedVariablesCollection.add</text>
<text text-anchor="middle" x="99" y="-31" font-family="Helvetica,sans-Serif" font-size="10.00">Variable</text>
</g>
<!-- Node2 -->
<g id="node2" class="node"><title>Node2</title>
<g id="a_node2"><a xlink:href="../../d1/dfc/classmodel_1_1_scoped_variables_collection.html#ad2c7270c4dd14869848ccb21c330107c" target="_top" xlink:title="model.ScopedVariablesCollection.notify\lObservers">
<polygon fill="white" stroke="black" points="234.5,-24 234.5,-54 439.5,-54 439.5,-24 234.5,-24"/>
<text text-anchor="start" x="242.5" y="-42" font-family="Helvetica,sans-Serif" font-size="10.00">model.ScopedVariablesCollection.notify</text>
<text text-anchor="middle" x="337" y="-31" font-family="Helvetica,sans-Serif" font-size="10.00">Observers</text>
</a>
</g>
</g>
<!-- Node1&#45;&gt;Node2 -->
<g id="edge1" class="edge"><title>Node1&#45;&gt;Node2</title>
<path fill="none" stroke="midnightblue" d="M197.694,-39C206.352,-39 215.161,-39 223.926,-39"/>
<polygon fill="midnightblue" stroke="midnightblue" points="224.184,-42.5001 234.184,-39 224.184,-35.5001 224.184,-42.5001"/>
</g>
<!-- Node3 -->
<g id="node3" class="node"><title>Node3</title>
<g id="a_node3"><a xlink:href="../../d4/d75/classmodel_1_1_variables_collection_update.html#a890f2dcf7bcdbdeba128438ae4affeea" target="_top" xlink:title="model.VariablesCollection\lUpdate.getDisplayProperties">
<polygon fill="white" stroke="black" points="476,-49 476,-79 630,-79 630,-49 476,-49"/>
<text text-anchor="start" x="484" y="-67" font-family="Helvetica,sans-Serif" font-size="10.00">model.VariablesCollection</text>
<text text-anchor="middle" x="553" y="-56" font-family="Helvetica,sans-Serif" font-size="10.00">Update.getDisplayProperties</text>
</a>
</g>
</g>
<!-- Node2&#45;&gt;Node3 -->
<g id="edge2" class="edge"><title>Node2&#45;&gt;Node3</title>
<path fill="none" stroke="midnightblue" d="M439.673,-50.8777C448.432,-51.9009 457.238,-52.9297 465.857,-53.9366"/>
<polygon fill="midnightblue" stroke="midnightblue" points="465.536,-57.4227 475.874,-55.1068 466.348,-50.47 465.536,-57.4227"/>
</g>
<!-- Node4 -->
<g id="node4" class="node"><title>Node4</title>
<g id="a_node4"><a xlink:href="../../d4/d75/classmodel_1_1_variables_collection_update.html#a28d8d2f3b68042c64ef8a4d53f8fef23" target="_top" xlink:title="model.VariablesCollection\lUpdate.getNameProperties">
<polygon fill="white" stroke="black" points="478.5,-0 478.5,-30 627.5,-30 627.5,-0 478.5,-0"/>
<text text-anchor="start" x="486.5" y="-18" font-family="Helvetica,sans-Serif" font-size="10.00">model.VariablesCollection</text>
<text text-anchor="middle" x="553" y="-7" font-family="Helvetica,sans-Serif" font-size="10.00">Update.getNameProperties</text>
</a>
</g>
</g>
<!-- Node2&#45;&gt;Node4 -->
<g id="edge3" class="edge"><title>Node2&#45;&gt;Node4</title>
<path fill="none" stroke="midnightblue" d="M439.673,-27.5974C449.256,-26.5227 458.896,-25.4416 468.284,-24.3887"/>
<polygon fill="midnightblue" stroke="midnightblue" points="468.811,-27.8516 478.359,-23.2588 468.031,-20.8952 468.811,-27.8516"/>
</g>
</g>
</svg>
