<?xml version="1.0" encoding="UTF-8" standalone="no"?>
<!DOCTYPE svg PUBLIC "-//W3C//DTD SVG 1.1//EN"
 "http://www.w3.org/Graphics/SVG/1.1/DTD/svg11.dtd">
<!-- Generated by graphviz version 2.36.0 (20140111.2315)
 -->
<!-- Title: model.ScopedVariablesCollection.notifyObservers Pages: 1 -->
<svg width="678pt" height="126pt"
 viewBox="0.00 0.00 678.00 126.00" xmlns="http://www.w3.org/2000/svg" xmlns:xlink="http://www.w3.org/1999/xlink">
<g id="graph0" class="graph" transform="scale(1 1) rotate(0) translate(4 122)">
<title>model.ScopedVariablesCollection.notifyObservers</title>
<polygon fill="white" stroke="none" points="-4,4 -4,-122 674,-122 674,4 -4,4"/>
<!-- Node1 -->
<g id="node1" class="node"><title>Node1</title>
<polygon fill="#bfbfbf" stroke="black" points="0.5,-44 0.5,-74 205.5,-74 205.5,-44 0.5,-44"/>
<text text-anchor="start" x="8.5" y="-62" font-family="Helvetica,sans-Serif" font-size="10.00">model.ScopedVariablesCollection.notify</text>
<text text-anchor="middle" x="103" y="-51" font-family="Helvetica,sans-Serif" font-size="10.00">Observers</text>
</g>
<!-- Node2 -->
<g id="node2" class="node"><title>Node2</title>
<g id="a_node2"><a xlink:href="../../d1/dfc/classmodel_1_1_scoped_variables_collection.html#a97c904df13f78cd228155acb66682af0" target="_top" xlink:title="model.ScopedVariablesCollection.add\lVariable">
<polygon fill="white" stroke="black" points="242.5,-88 242.5,-118 439.5,-118 439.5,-88 242.5,-88"/>
<text text-anchor="start" x="250.5" y="-106" font-family="Helvetica,sans-Serif" font-size="10.00">model.ScopedVariablesCollection.add</text>
<text text-anchor="middle" x="341" y="-95" font-family="Helvetica,sans-Serif" font-size="10.00">Variable</text>
</a>
</g>
</g>
<!-- Node1&#45;&gt;Node2 -->
<g id="edge1" class="edge"><title>Node1&#45;&gt;Node2</title>
<path fill="none" stroke="midnightblue" d="M194.59,-75.8897C215.931,-79.8685 238.538,-84.0834 259.405,-87.9738"/>
<polygon fill="midnightblue" stroke="midnightblue" points="195.03,-72.4114 184.558,-74.0192 193.747,-79.2929 195.03,-72.4114"/>
</g>
<!-- Node3 -->
<g id="node3" class="node"><title>Node3</title>
<g id="a_node3"><a xlink:href="../../d1/dfc/classmodel_1_1_scoped_variables_collection.html#ad857a8d43176e6105ff1ae1964576d7c" target="_top" xlink:title="model.ScopedVariablesCollection.get\lVariableValue">
<polygon fill="white" stroke="black" points="476,-66 476,-96 670,-96 670,-66 476,-66"/>
<text text-anchor="start" x="484" y="-84" font-family="Helvetica,sans-Serif" font-size="10.00">model.ScopedVariablesCollection.get</text>
<text text-anchor="middle" x="573" y="-73" font-family="Helvetica,sans-Serif" font-size="10.00">VariableValue</text>
</a>
</g>
</g>
<!-- Node1&#45;&gt;Node3 -->
<g id="edge4" class="edge"><title>Node1&#45;&gt;Node3</title>
<path fill="none" stroke="midnightblue" d="M215.575,-64.245C294.866,-67.9723 400.262,-72.9269 475.843,-76.4798"/>
<polygon fill="midnightblue" stroke="midnightblue" points="215.702,-60.7472 205.549,-63.7737 215.374,-67.7395 215.702,-60.7472"/>
</g>
<!-- Node4 -->
<g id="node4" class="node"><title>Node4</title>
<g id="a_node4"><a xlink:href="../../d1/dfc/classmodel_1_1_scoped_variables_collection.html#ab3bfb97681098d2ad0c0429ad1ac2684" target="_top" xlink:title="model.ScopedVariablesCollection.exit\lScope">
<polygon fill="white" stroke="black" points="243,-0 243,-30 439,-30 439,-0 243,-0"/>
<text text-anchor="start" x="251" y="-18" font-family="Helvetica,sans-Serif" font-size="10.00">model.ScopedVariablesCollection.exit</text>
<text text-anchor="middle" x="341" y="-7" font-family="Helvetica,sans-Serif" font-size="10.00">Scope</text>
</a>
</g>
</g>
<!-- Node1&#45;&gt;Node4 -->
<g id="edge3" class="edge"><title>Node1&#45;&gt;Node4</title>
<path fill="none" stroke="midnightblue" d="M194.59,-42.1103C215.931,-38.1315 238.538,-33.9166 259.405,-30.0262"/>
<polygon fill="midnightblue" stroke="midnightblue" points="193.747,-38.7071 184.558,-43.9808 195.03,-45.5886 193.747,-38.7071"/>
</g>
<!-- Node2&#45;&gt;Node3 -->
<g id="edge2" class="edge"><title>Node2&#45;&gt;Node3</title>
<path fill="none" stroke="midnightblue" d="M449.714,-92.6969C458.412,-91.8649 467.167,-91.0275 475.776,-90.204"/>
<polygon fill="midnightblue" stroke="midnightblue" points="449.162,-89.2337 439.541,-93.67 449.829,-96.2019 449.162,-89.2337"/>
</g>
</g>
</svg>
