<?xml version="1.0" encoding="UTF-8" standalone="no"?>
<!DOCTYPE svg PUBLIC "-//W3C//DTD SVG 1.1//EN"
 "http://www.w3.org/Graphics/SVG/1.1/DTD/svg11.dtd">
<!-- Generated by graphviz version 2.36.0 (20140111.2315)
 -->
<!-- Title: model.ScopedVariablesCollection.notifyObservers Pages: 1 -->
<svg width="404pt" height="87pt"
 viewBox="0.00 0.00 404.00 87.00" xmlns="http://www.w3.org/2000/svg" xmlns:xlink="http://www.w3.org/1999/xlink">
<g id="graph0" class="graph" transform="scale(1 1) rotate(0) translate(4 83)">
<title>model.ScopedVariablesCollection.notifyObservers</title>
<polygon fill="white" stroke="none" points="-4,4 -4,-83 400,-83 400,4 -4,4"/>
<!-- Node1 -->
<g id="node1" class="node"><title>Node1</title>
<polygon fill="#bfbfbf" stroke="black" points="0.5,-24 0.5,-54 205.5,-54 205.5,-24 0.5,-24"/>
<text text-anchor="start" x="8.5" y="-42" font-family="Helvetica,sans-Serif" font-size="10.00">model.ScopedVariablesCollection.notify</text>
<text text-anchor="middle" x="103" y="-31" font-family="Helvetica,sans-Serif" font-size="10.00">Observers</text>
</g>
<!-- Node2 -->
<g id="node2" class="node"><title>Node2</title>
<g id="a_node2"><a xlink:href="../../d4/d75/classmodel_1_1_variables_collection_update.html#a890f2dcf7bcdbdeba128438ae4affeea" target="_top" xlink:title="model.VariablesCollection\lUpdate.getDisplayProperties">
<polygon fill="white" stroke="black" points="242,-49 242,-79 396,-79 396,-49 242,-49"/>
<text text-anchor="start" x="250" y="-67" font-family="Helvetica,sans-Serif" font-size="10.00">model.VariablesCollection</text>
<text text-anchor="middle" x="319" y="-56" font-family="Helvetica,sans-Serif" font-size="10.00">Update.getDisplayProperties</text>
</a>
</g>
</g>
<!-- Node1&#45;&gt;Node2 -->
<g id="edge1" class="edge"><title>Node1&#45;&gt;Node2</title>
<path fill="none" stroke="midnightblue" d="M205.673,-50.8777C214.432,-51.9009 223.238,-52.9297 231.857,-53.9366"/>
<polygon fill="midnightblue" stroke="midnightblue" points="231.536,-57.4227 241.874,-55.1068 232.348,-50.47 231.536,-57.4227"/>
</g>
<!-- Node3 -->
<g id="node3" class="node"><title>Node3</title>
<g id="a_node3"><a xlink:href="../../d4/d75/classmodel_1_1_variables_collection_update.html#a28d8d2f3b68042c64ef8a4d53f8fef23" target="_top" xlink:title="model.VariablesCollection\lUpdate.getNameProperties">
<polygon fill="white" stroke="black" points="244.5,-0 244.5,-30 393.5,-30 393.5,-0 244.5,-0"/>
<text text-anchor="start" x="252.5" y="-18" font-family="Helvetica,sans-Serif" font-size="10.00">model.VariablesCollection</text>
<text text-anchor="middle" x="319" y="-7" font-family="Helvetica,sans-Serif" font-size="10.00">Update.getNameProperties</text>
</a>
</g>
</g>
<!-- Node1&#45;&gt;Node3 -->
<g id="edge2" class="edge"><title>Node1&#45;&gt;Node3</title>
<path fill="none" stroke="midnightblue" d="M205.673,-27.5974C215.256,-26.5227 224.896,-25.4416 234.284,-24.3887"/>
<polygon fill="midnightblue" stroke="midnightblue" points="234.811,-27.8516 244.359,-23.2588 234.031,-20.8952 234.811,-27.8516"/>
</g>
</g>
</svg>
