<?xml version="1.0" encoding="UTF-8" standalone="no"?>
<!DOCTYPE svg PUBLIC "-//W3C//DTD SVG 1.1//EN"
 "http://www.w3.org/Graphics/SVG/1.1/DTD/svg11.dtd">
<!-- Generated by graphviz version 2.36.0 (20140111.2315)
 -->
<!-- Title: view.listwindows.CommandsListWindow.update Pages: 1 -->
<svg width="352pt" height="87pt"
 viewBox="0.00 0.00 352.00 87.00" xmlns="http://www.w3.org/2000/svg" xmlns:xlink="http://www.w3.org/1999/xlink">
<g id="graph0" class="graph" transform="scale(1 1) rotate(0) translate(4 83)">
<title>view.listwindows.CommandsListWindow.update</title>
<polygon fill="white" stroke="none" points="-4,4 -4,-83 348,-83 348,4 -4,4"/>
<!-- Node1 -->
<g id="node1" class="node"><title>Node1</title>
<polygon fill="#bfbfbf" stroke="black" points="0,-24 0,-54 150,-54 150,-24 0,-24"/>
<text text-anchor="start" x="8" y="-42" font-family="Helvetica,sans-Serif" font-size="10.00">view.listwindows.Commands</text>
<text text-anchor="middle" x="75" y="-31" font-family="Helvetica,sans-Serif" font-size="10.00">ListWindow.update</text>
</g>
<!-- Node2 -->
<g id="node2" class="node"><title>Node2</title>
<g id="a_node2"><a xlink:href="../../da/df5/classview_1_1listwindows_1_1_commands_list_window.html#a05bc94231b07c79191e3821d779a6354" target="_top" xlink:title="view.listwindows.Commands\lListWindow.getCommandsList">
<polygon fill="white" stroke="black" points="186,-49 186,-79 344,-79 344,-49 186,-49"/>
<text text-anchor="start" x="194" y="-67" font-family="Helvetica,sans-Serif" font-size="10.00">view.listwindows.Commands</text>
<text text-anchor="middle" x="265" y="-56" font-family="Helvetica,sans-Serif" font-size="10.00">ListWindow.getCommandsList</text>
</a>
</g>
</g>
<!-- Node1&#45;&gt;Node2 -->
<g id="edge1" class="edge"><title>Node1&#45;&gt;Node2</title>
<path fill="none" stroke="midnightblue" d="M150.033,-48.8448C158.452,-49.9644 167.095,-51.1137 175.675,-52.2547"/>
<polygon fill="midnightblue" stroke="midnightblue" points="175.327,-55.7392 185.701,-53.588 176.25,-48.8002 175.327,-55.7392"/>
</g>
<!-- Node3 -->
<g id="node3" class="node"><title>Node3</title>
<g id="a_node3"><a xlink:href="../../da/df5/classview_1_1listwindows_1_1_commands_list_window.html#a29225b24aba4ec535051b4108088d2c7" target="_top" xlink:title="view.listwindows.Commands\lListWindow.setButtonAction">
<polygon fill="white" stroke="black" points="190,-0 190,-30 340,-30 340,-0 190,-0"/>
<text text-anchor="start" x="198" y="-18" font-family="Helvetica,sans-Serif" font-size="10.00">view.listwindows.Commands</text>
<text text-anchor="middle" x="265" y="-7" font-family="Helvetica,sans-Serif" font-size="10.00">ListWindow.setButtonAction</text>
</a>
</g>
</g>
<!-- Node1&#45;&gt;Node3 -->
<g id="edge2" class="edge"><title>Node1&#45;&gt;Node3</title>
<path fill="none" stroke="midnightblue" d="M150.033,-29.549C159.718,-28.3126 169.7,-27.0383 179.541,-25.7821"/>
<polygon fill="midnightblue" stroke="midnightblue" points="180.25,-29.22 189.726,-24.4817 179.364,-22.2763 180.25,-29.22"/>
</g>
</g>
</svg>
