<?xml version="1.0" encoding="UTF-8" standalone="no"?>
<!DOCTYPE svg PUBLIC "-//W3C//DTD SVG 1.1//EN"
 "http://www.w3.org/Graphics/SVG/1.1/DTD/svg11.dtd">
<!-- Generated by graphviz version 2.36.0 (20140111.2315)
 -->
<!-- Title: view.listwindows.CommandsListWindow.parseCommand Pages: 1 -->
<svg width="1396pt" height="381pt"
 viewBox="0.00 0.00 1396.00 381.00" xmlns="http://www.w3.org/2000/svg" xmlns:xlink="http://www.w3.org/1999/xlink">
<g id="graph0" class="graph" transform="scale(1 1) rotate(0) translate(4 377)">
<title>view.listwindows.CommandsListWindow.parseCommand</title>
<polygon fill="white" stroke="none" points="-4,4 -4,-377 1392,-377 1392,4 -4,4"/>
<!-- Node1 -->
<g id="node1" class="node"><title>Node1</title>
<polygon fill="#bfbfbf" stroke="black" points="0,-145 0,-175 150,-175 150,-145 0,-145"/>
<text text-anchor="start" x="8" y="-163" font-family="Helvetica,sans-Serif" font-size="10.00">view.listwindows.Commands</text>
<text text-anchor="middle" x="75" y="-152" font-family="Helvetica,sans-Serif" font-size="10.00">ListWindow.parseCommand</text>
</g>
<!-- Node2 -->
<g id="node2" class="node"><title>Node2</title>
<g id="a_node2"><a xlink:href="../../d3/d42/classmodel_1_1_model.html#a58696dcb49d5de7290734289922cd126" target="_top" xlink:title="model.Model.getInstance">
<polygon fill="white" stroke="black" points="186.5,-229.5 186.5,-248.5 323.5,-248.5 323.5,-229.5 186.5,-229.5"/>
<text text-anchor="middle" x="255" y="-236.5" font-family="Helvetica,sans-Serif" font-size="10.00">model.Model.getInstance</text>
</a>
</g>
</g>
<!-- Node1&#45;&gt;Node2 -->
<g id="edge1" class="edge"><title>Node1&#45;&gt;Node2</title>
<path fill="none" stroke="midnightblue" d="M109.899,-175.045C142.625,-189.57 191.738,-211.367 223.329,-225.388"/>
<polygon fill="midnightblue" stroke="midnightblue" points="221.973,-228.615 232.533,-229.473 224.813,-222.217 221.973,-228.615"/>
</g>
<!-- Node6 -->
<g id="node6" class="node"><title>Node6</title>
<g id="a_node6"><a xlink:href="../../d3/dbe/classview_1_1_view.html#a6950e4055440ab5672a2453b149f41d0" target="_top" xlink:title="view.View.getInstance">
<polygon fill="white" stroke="black" points="195.5,-169.5 195.5,-188.5 314.5,-188.5 314.5,-169.5 195.5,-169.5"/>
<text text-anchor="middle" x="255" y="-176.5" font-family="Helvetica,sans-Serif" font-size="10.00">view.View.getInstance</text>
</a>
</g>
</g>
<!-- Node1&#45;&gt;Node6 -->
<g id="edge5" class="edge"><title>Node1&#45;&gt;Node6</title>
<path fill="none" stroke="midnightblue" d="M150.199,-167.92C161.856,-169.164 173.862,-170.446 185.386,-171.676"/>
<polygon fill="midnightblue" stroke="midnightblue" points="185.053,-175.16 195.368,-172.742 185.796,-168.2 185.053,-175.16"/>
</g>
<!-- Node7 -->
<g id="node7" class="node"><title>Node7</title>
<g id="a_node7"><a xlink:href="../../d3/d42/classmodel_1_1_model.html#a8a07e7f2040e8a2ab50ec2955504f6c4" target="_top" xlink:title="model.Model.parse">
<polygon fill="white" stroke="black" points="201,-131.5 201,-150.5 309,-150.5 309,-131.5 201,-131.5"/>
<text text-anchor="middle" x="255" y="-138.5" font-family="Helvetica,sans-Serif" font-size="10.00">model.Model.parse</text>
</a>
</g>
</g>
<!-- Node1&#45;&gt;Node7 -->
<g id="edge6" class="edge"><title>Node1&#45;&gt;Node7</title>
<path fill="none" stroke="midnightblue" d="M150.199,-152.08C163.597,-150.65 177.456,-149.17 190.514,-147.777"/>
<polygon fill="midnightblue" stroke="midnightblue" points="191.219,-151.221 200.791,-146.68 190.476,-144.261 191.219,-151.221"/>
</g>
<!-- Node27 -->
<g id="node27" class="node"><title>Node27</title>
<g id="a_node27"><a xlink:href="../../d3/dbe/classview_1_1_view.html#a4a0ca8adc68660017e319de54dedcb83" target="_top" xlink:title="view.View.showDialog">
<polygon fill="white" stroke="black" points="196.5,-71.5 196.5,-90.5 313.5,-90.5 313.5,-71.5 196.5,-71.5"/>
<text text-anchor="middle" x="255" y="-78.5" font-family="Helvetica,sans-Serif" font-size="10.00">view.View.showDialog</text>
</a>
</g>
</g>
<!-- Node1&#45;&gt;Node27 -->
<g id="edge29" class="edge"><title>Node1&#45;&gt;Node27</title>
<path fill="none" stroke="midnightblue" d="M109.899,-144.955C142.625,-130.43 191.738,-108.633 223.329,-94.6124"/>
<polygon fill="midnightblue" stroke="midnightblue" points="224.813,-97.7832 232.533,-90.5274 221.973,-91.385 224.813,-97.7832"/>
</g>
<!-- Node3 -->
<g id="node3" class="node"><title>Node3</title>
<g id="a_node3"><a xlink:href="../../d3/d42/classmodel_1_1_model.html#af870d64d87a18f6cd1a84a77ff6dc3a1" target="_top" xlink:title="model.Model.Model">
<polygon fill="white" stroke="black" points="402,-295.5 402,-314.5 512,-314.5 512,-295.5 402,-295.5"/>
<text text-anchor="middle" x="457" y="-302.5" font-family="Helvetica,sans-Serif" font-size="10.00">model.Model.Model</text>
</a>
</g>
</g>
<!-- Node2&#45;&gt;Node3 -->
<g id="edge2" class="edge"><title>Node2&#45;&gt;Node3</title>
<path fill="none" stroke="midnightblue" d="M285.082,-248.597C319.989,-260.116 378.651,-279.475 417.344,-292.244"/>
<polygon fill="midnightblue" stroke="midnightblue" points="416.615,-295.688 427.208,-295.499 418.808,-289.041 416.615,-295.688"/>
</g>
<!-- Node4 -->
<g id="node4" class="node"><title>Node4</title>
<g id="a_node4"><a xlink:href="../../d3/d42/classmodel_1_1_model.html#a068261e6e8761ccabf6d227ee17732ea" target="_top" xlink:title="model.Model.setState">
<polygon fill="white" stroke="black" points="629,-345.5 629,-364.5 751,-364.5 751,-345.5 629,-345.5"/>
<text text-anchor="middle" x="690" y="-352.5" font-family="Helvetica,sans-Serif" font-size="10.00">model.Model.setState</text>
</a>
</g>
</g>
<!-- Node3&#45;&gt;Node4 -->
<g id="edge3" class="edge"><title>Node3&#45;&gt;Node4</title>
<path fill="none" stroke="midnightblue" d="M501.993,-314.522C539.765,-322.698 594.358,-334.515 634.815,-343.272"/>
<polygon fill="midnightblue" stroke="midnightblue" points="634.264,-346.733 644.778,-345.428 635.745,-339.892 634.264,-346.733"/>
</g>
<!-- Node5 -->
<g id="node5" class="node"><title>Node5</title>
<g id="a_node5"><a xlink:href="../../d4/d3a/classparser_1_1parser_1_1_parser.html#a6e5a4c214fd0af163bdf2f1f5ad84505" target="_top" xlink:title="parser.parser.Parser.set\lActiveState">
<polygon fill="white" stroke="black" points="862,-342 862,-372 992,-372 992,-342 862,-342"/>
<text text-anchor="start" x="870" y="-360" font-family="Helvetica,sans-Serif" font-size="10.00">parser.parser.Parser.set</text>
<text text-anchor="middle" x="927" y="-349" font-family="Helvetica,sans-Serif" font-size="10.00">ActiveState</text>
</a>
</g>
</g>
<!-- Node4&#45;&gt;Node5 -->
<g id="edge4" class="edge"><title>Node4&#45;&gt;Node5</title>
<path fill="none" stroke="midnightblue" d="M751.213,-355.512C781.768,-355.772 819.166,-356.091 851.516,-356.366"/>
<polygon fill="midnightblue" stroke="midnightblue" points="851.798,-359.869 861.827,-356.454 851.857,-352.869 851.798,-359.869"/>
</g>
<!-- Node8 -->
<g id="node8" class="node"><title>Node8</title>
<g id="a_node8"><a xlink:href="../../db/df9/classmodel_1_1_command_history.html#a435edf344accb9115ca6183eb28594df" target="_top" xlink:title="model.CommandHistory.add\lCommand">
<polygon fill="white" stroke="black" points="380.5,-115 380.5,-145 533.5,-145 533.5,-115 380.5,-115"/>
<text text-anchor="start" x="388.5" y="-133" font-family="Helvetica,sans-Serif" font-size="10.00">model.CommandHistory.add</text>
<text text-anchor="middle" x="457" y="-122" font-family="Helvetica,sans-Serif" font-size="10.00">Command</text>
</a>
</g>
</g>
<!-- Node7&#45;&gt;Node8 -->
<g id="edge7" class="edge"><title>Node7&#45;&gt;Node8</title>
<path fill="none" stroke="midnightblue" d="M309.071,-138.081C327.867,-137.047 349.524,-135.856 370.335,-134.712"/>
<polygon fill="midnightblue" stroke="midnightblue" points="370.675,-138.198 380.468,-134.154 370.29,-131.209 370.675,-138.198"/>
</g>
<!-- Node10 -->
<g id="node10" class="node"><title>Node10</title>
<g id="a_node10"><a xlink:href="../../d1/d4b/classparser_1_1nodes_1_1_command_root.html#ad17f6840005e54b498a8857f161cd6b1" target="_top" xlink:title="parser.nodes.CommandRoot.execute">
<polygon fill="white" stroke="black" points="360,-76.5 360,-95.5 554,-95.5 554,-76.5 360,-76.5"/>
<text text-anchor="middle" x="457" y="-83.5" font-family="Helvetica,sans-Serif" font-size="10.00">parser.nodes.CommandRoot.execute</text>
</a>
</g>
</g>
<!-- Node7&#45;&gt;Node10 -->
<g id="edge9" class="edge"><title>Node7&#45;&gt;Node10</title>
<path fill="none" stroke="midnightblue" d="M280.497,-131.446C301.385,-123.56 332.335,-112.487 360,-105 370.005,-102.292 380.692,-99.7961 391.17,-97.5644"/>
<polygon fill="midnightblue" stroke="midnightblue" points="392.037,-100.959 401.121,-95.5075 390.62,-94.1041 392.037,-100.959"/>
</g>
<!-- Node13 -->
<g id="node13" class="node"><title>Node13</title>
<g id="a_node13"><a xlink:href="../../d7/dab/classmodel_1_1_state.html#a494a9cb26df072d500f0b6fa941c2779" target="_top" xlink:title="model.State.getCommandHistory">
<polygon fill="white" stroke="black" points="367.5,-202.5 367.5,-221.5 546.5,-221.5 546.5,-202.5 367.5,-202.5"/>
<text text-anchor="middle" x="457" y="-209.5" font-family="Helvetica,sans-Serif" font-size="10.00">model.State.getCommandHistory</text>
</a>
</g>
</g>
<!-- Node7&#45;&gt;Node13 -->
<g id="edge13" class="edge"><title>Node7&#45;&gt;Node13</title>
<path fill="none" stroke="midnightblue" d="M301.803,-150.601C309.464,-153.097 317.143,-156.189 324,-160 342.973,-170.543 340.635,-183.196 360,-193 364.832,-195.446 369.948,-197.578 375.204,-199.435"/>
<polygon fill="midnightblue" stroke="midnightblue" points="374.193,-202.786 384.784,-202.491 376.321,-196.117 374.193,-202.786"/>
</g>
<!-- Node14 -->
<g id="node14" class="node"><title>Node14</title>
<g id="a_node14"><a xlink:href="../../d4/d3a/classparser_1_1parser_1_1_parser.html#a51f4baa200eb0c94b804119b1439a1aa" target="_top" xlink:title="parser.parser.Parser.parse">
<polygon fill="white" stroke="black" points="386,-164.5 386,-183.5 528,-183.5 528,-164.5 386,-164.5"/>
<text text-anchor="middle" x="457" y="-171.5" font-family="Helvetica,sans-Serif" font-size="10.00">parser.parser.Parser.parse</text>
</a>
</g>
</g>
<!-- Node7&#45;&gt;Node14 -->
<g id="edge14" class="edge"><title>Node7&#45;&gt;Node14</title>
<path fill="none" stroke="midnightblue" d="M309.071,-149.757C333.284,-153.752 362.244,-158.53 388.027,-162.785"/>
<polygon fill="midnightblue" stroke="midnightblue" points="387.672,-166.273 398.109,-164.448 388.812,-159.367 387.672,-166.273"/>
</g>
<!-- Node9 -->
<g id="node9" class="node"><title>Node9</title>
<g id="a_node9"><a xlink:href="../../db/df9/classmodel_1_1_command_history.html#ac471d294d4221291007a86a8764a644d" target="_top" xlink:title="model.CommandHistory.notify\lObservers">
<polygon fill="white" stroke="black" points="609.5,-49 609.5,-79 770.5,-79 770.5,-49 609.5,-49"/>
<text text-anchor="start" x="617.5" y="-67" font-family="Helvetica,sans-Serif" font-size="10.00">model.CommandHistory.notify</text>
<text text-anchor="middle" x="690" y="-56" font-family="Helvetica,sans-Serif" font-size="10.00">Observers</text>
</a>
</g>
</g>
<!-- Node8&#45;&gt;Node9 -->
<g id="edge8" class="edge"><title>Node8&#45;&gt;Node9</title>
<path fill="none" stroke="midnightblue" d="M517.253,-114.984C529.432,-111.781 542.151,-108.352 554,-105 570.099,-100.446 573.994,-98.8704 590,-94 602.802,-90.1046 616.537,-85.9354 629.58,-81.9818"/>
<polygon fill="midnightblue" stroke="midnightblue" points="630.836,-85.2585 639.391,-79.0086 628.805,-78.5593 630.836,-85.2585"/>
</g>
<!-- Node11 -->
<g id="node11" class="node"><title>Node11</title>
<g id="a_node11"><a xlink:href="../../d4/d1c/classparser_1_1nodes_1_1_list_node.html#a8f67ed3b41ee000feaf89f783def5697" target="_top" xlink:title="parser.nodes.ListNode.execute\lNodes">
<polygon fill="white" stroke="black" points="607.5,-0 607.5,-30 772.5,-30 772.5,-0 607.5,-0"/>
<text text-anchor="start" x="615.5" y="-18" font-family="Helvetica,sans-Serif" font-size="10.00">parser.nodes.ListNode.execute</text>
<text text-anchor="middle" x="690" y="-7" font-family="Helvetica,sans-Serif" font-size="10.00">Nodes</text>
</a>
</g>
</g>
<!-- Node10&#45;&gt;Node11 -->
<g id="edge10" class="edge"><title>Node10&#45;&gt;Node11</title>
<path fill="none" stroke="midnightblue" d="M526.635,-76.4974C536.051,-74.0264 545.422,-70.9156 554,-67 572.44,-58.583 571.743,-47.8064 590,-39 594.098,-37.0233 598.372,-35.2015 602.746,-33.5234"/>
<polygon fill="midnightblue" stroke="midnightblue" points="604.198,-36.7217 612.449,-30.0751 601.854,-30.1258 604.198,-36.7217"/>
</g>
<!-- Node12 -->
<g id="node12" class="node"><title>Node12</title>
<g id="a_node12"><a xlink:href="../../d4/d1c/classparser_1_1nodes_1_1_list_node.html#a82a3418e343a5d6ed112be4b7b2b0282" target="_top" xlink:title="parser.nodes.ListNode.execute">
<polygon fill="white" stroke="black" points="844.5,-5.5 844.5,-24.5 1009.5,-24.5 1009.5,-5.5 844.5,-5.5"/>
<text text-anchor="middle" x="927" y="-12.5" font-family="Helvetica,sans-Serif" font-size="10.00">parser.nodes.ListNode.execute</text>
</a>
</g>
</g>
<!-- Node11&#45;&gt;Node12 -->
<g id="edge11" class="edge"><title>Node11&#45;&gt;Node12</title>
<path fill="none" stroke="midnightblue" d="M772.532,-8.53932C792.378,-8.21051 813.739,-8.16197 834.033,-8.39369"/>
<polygon fill="midnightblue" stroke="midnightblue" points="834.167,-11.8958 844.214,-8.53513 834.264,-4.89647 834.167,-11.8958"/>
</g>
<!-- Node12&#45;&gt;Node11 -->
<g id="edge12" class="edge"><title>Node12&#45;&gt;Node11</title>
<path fill="none" stroke="midnightblue" d="M844.214,-21.4649C824.355,-21.7913 802.993,-21.8374 782.708,-21.6033"/>
<polygon fill="midnightblue" stroke="midnightblue" points="782.58,-18.1013 772.532,-21.4607 782.482,-25.1006 782.58,-18.1013"/>
</g>
<!-- Node15 -->
<g id="node15" class="node"><title>Node15</title>
<g id="a_node15"><a xlink:href="../../d2/d66/classparser_1_1parser_1_1_command_factory.html#a0dc44bc9972a4652d98146b5e30a5e72" target="_top" xlink:title="parser.parser.CommandFactory.create\lCommand">
<polygon fill="white" stroke="black" points="590,-137 590,-167 790,-167 790,-137 590,-137"/>
<text text-anchor="start" x="598" y="-155" font-family="Helvetica,sans-Serif" font-size="10.00">parser.parser.CommandFactory.create</text>
<text text-anchor="middle" x="690" y="-144" font-family="Helvetica,sans-Serif" font-size="10.00">Command</text>
</a>
</g>
</g>
<!-- Node14&#45;&gt;Node15 -->
<g id="edge15" class="edge"><title>Node14&#45;&gt;Node15</title>
<path fill="none" stroke="midnightblue" d="M528.248,-167.31C544.449,-165.767 562.06,-164.09 579.488,-162.43"/>
<polygon fill="midnightblue" stroke="midnightblue" points="580.094,-165.888 589.717,-161.456 579.43,-158.919 580.094,-165.888"/>
</g>
<!-- Node18 -->
<g id="node18" class="node"><title>Node18</title>
<g id="a_node18"><a xlink:href="../../de/d16/classparser_1_1parser_1_1_regex.html#a9da6d787de06ba7ea76d52326b532bd1" target="_top" xlink:title="parser.parser.Regex.getInstance">
<polygon fill="white" stroke="black" points="842,-91.5 842,-110.5 1012,-110.5 1012,-91.5 842,-91.5"/>
<text text-anchor="middle" x="927" y="-98.5" font-family="Helvetica,sans-Serif" font-size="10.00">parser.parser.Regex.getInstance</text>
</a>
</g>
</g>
<!-- Node14&#45;&gt;Node18 -->
<g id="edge25" class="edge"><title>Node14&#45;&gt;Node18</title>
<path fill="none" stroke="midnightblue" d="M523.264,-164.44C533.791,-161.761 544.381,-158.347 554,-154 572.225,-145.764 571.285,-134.052 590,-127 667.753,-97.7012 762.642,-92.9079 831.726,-94.448"/>
<polygon fill="midnightblue" stroke="midnightblue" points="831.636,-97.9467 841.727,-94.719 831.825,-90.9493 831.636,-97.9467"/>
</g>
<!-- Node21 -->
<g id="node21" class="node"><title>Node21</title>
<g id="a_node21"><a xlink:href="../../d2/d66/classparser_1_1parser_1_1_command_factory.html#a2c91b8ed8cbfcb588f6e32f7363eefd9" target="_top" xlink:title="parser.parser.CommandFactory.get\lInstance">
<polygon fill="white" stroke="black" points="597.5,-293 597.5,-323 782.5,-323 782.5,-293 597.5,-293"/>
<text text-anchor="start" x="605.5" y="-311" font-family="Helvetica,sans-Serif" font-size="10.00">parser.parser.CommandFactory.get</text>
<text text-anchor="middle" x="690" y="-300" font-family="Helvetica,sans-Serif" font-size="10.00">Instance</text>
</a>
</g>
</g>
<!-- Node14&#45;&gt;Node21 -->
<g id="edge21" class="edge"><title>Node14&#45;&gt;Node21</title>
<path fill="none" stroke="midnightblue" d="M528.198,-179.546C537.54,-182.583 546.474,-186.906 554,-193 585.566,-218.56 559.86,-249.772 590,-277 594.824,-281.358 600.255,-285.103 606.027,-288.322"/>
<polygon fill="midnightblue" stroke="midnightblue" points="604.828,-291.634 615.339,-292.959 607.948,-285.368 604.828,-291.634"/>
</g>
<!-- Node23 -->
<g id="node23" class="node"><title>Node23</title>
<g id="a_node23"><a xlink:href="../../dc/d09/classparser_1_1parser_1_1_to_factory.html#ac5256eea6647641f83b40c5a350a1518" target="_top" xlink:title="parser.parser.ToFactory.get\lInstance">
<polygon fill="white" stroke="black" points="618,-238 618,-268 762,-268 762,-238 618,-238"/>
<text text-anchor="start" x="626" y="-256" font-family="Helvetica,sans-Serif" font-size="10.00">parser.parser.ToFactory.get</text>
<text text-anchor="middle" x="690" y="-245" font-family="Helvetica,sans-Serif" font-size="10.00">Instance</text>
</a>
</g>
</g>
<!-- Node14&#45;&gt;Node23 -->
<g id="edge23" class="edge"><title>Node14&#45;&gt;Node23</title>
<path fill="none" stroke="midnightblue" d="M522.672,-183.541C533.323,-186.033 544.107,-189.141 554,-193 571.469,-199.815 573.177,-206.717 590,-215 604.226,-222.005 620.087,-228.597 634.871,-234.263"/>
<polygon fill="midnightblue" stroke="midnightblue" points="633.811,-237.603 644.403,-237.846 636.274,-231.051 633.811,-237.603"/>
</g>
<!-- Node25 -->
<g id="node25" class="node"><title>Node25</title>
<g id="a_node25"><a xlink:href="../../de/d16/classparser_1_1parser_1_1_regex.html#a5d526d752521b953619721c6d3e930bd" target="_top" xlink:title="parser.parser.Regex.getType">
<polygon fill="white" stroke="black" points="614.5,-186.5 614.5,-205.5 765.5,-205.5 765.5,-186.5 614.5,-186.5"/>
<text text-anchor="middle" x="690" y="-193.5" font-family="Helvetica,sans-Serif" font-size="10.00">parser.parser.Regex.getType</text>
</a>
</g>
</g>
<!-- Node14&#45;&gt;Node25 -->
<g id="edge26" class="edge"><title>Node14&#45;&gt;Node25</title>
<path fill="none" stroke="midnightblue" d="M528.248,-180.69C552.165,-182.968 579.155,-185.539 604.095,-187.914"/>
<polygon fill="midnightblue" stroke="midnightblue" points="603.986,-191.419 614.273,-188.883 604.65,-184.451 603.986,-191.419"/>
</g>
<!-- Node16 -->
<g id="node16" class="node"><title>Node16</title>
<g id="a_node16"><a xlink:href="../../de/d16/classparser_1_1parser_1_1_regex.html#aa4a03f1544e5043ea8da8f12ab4ece23" target="_top" xlink:title="parser.parser.Regex.getCommandType">
<polygon fill="white" stroke="black" points="826.5,-129.5 826.5,-148.5 1027.5,-148.5 1027.5,-129.5 826.5,-129.5"/>
<text text-anchor="middle" x="927" y="-136.5" font-family="Helvetica,sans-Serif" font-size="10.00">parser.parser.Regex.getCommandType</text>
</a>
</g>
</g>
<!-- Node15&#45;&gt;Node16 -->
<g id="edge16" class="edge"><title>Node15&#45;&gt;Node16</title>
<path fill="none" stroke="midnightblue" d="M790.321,-146.506C798.874,-146.033 807.559,-145.552 816.189,-145.075"/>
<polygon fill="midnightblue" stroke="midnightblue" points="816.491,-148.563 826.282,-144.516 816.104,-141.574 816.491,-148.563"/>
</g>
<!-- Node15&#45;&gt;Node18 -->
<g id="edge18" class="edge"><title>Node15&#45;&gt;Node18</title>
<path fill="none" stroke="midnightblue" d="M752.024,-136.921C775.144,-131.369 801.737,-125.178 826,-120 838.137,-117.41 851.14,-114.811 863.621,-112.403"/>
<polygon fill="midnightblue" stroke="midnightblue" points="864.327,-115.832 873.492,-110.517 863.013,-108.956 864.327,-115.832"/>
</g>
<!-- Node17 -->
<g id="node17" class="node"><title>Node17</title>
<g id="a_node17"><a xlink:href="../../de/d16/classparser_1_1parser_1_1_regex.html#a162d120a60bdb10238c3d31c4f5f6903" target="_top" xlink:title="parser.parser.Regex.match">
<polygon fill="white" stroke="black" points="1064.5,-167.5 1064.5,-186.5 1209.5,-186.5 1209.5,-167.5 1064.5,-167.5"/>
<text text-anchor="middle" x="1137" y="-174.5" font-family="Helvetica,sans-Serif" font-size="10.00">parser.parser.Regex.match</text>
</a>
</g>
</g>
<!-- Node16&#45;&gt;Node17 -->
<g id="edge17" class="edge"><title>Node16&#45;&gt;Node17</title>
<path fill="none" stroke="midnightblue" d="M980.219,-148.54C1008.65,-153.735 1044.02,-160.196 1073.87,-165.649"/>
<polygon fill="midnightblue" stroke="midnightblue" points="1073.29,-169.102 1083.76,-167.456 1074.55,-162.216 1073.29,-169.102"/>
</g>
<!-- Node19 -->
<g id="node19" class="node"><title>Node19</title>
<g id="a_node19"><a xlink:href="../../de/d16/classparser_1_1parser_1_1_regex.html#a1fd187b9f2b45d0707cb10057e80d7ff" target="_top" xlink:title="parser.parser.Regex.Regex">
<polygon fill="white" stroke="black" points="1065.5,-91.5 1065.5,-110.5 1208.5,-110.5 1208.5,-91.5 1065.5,-91.5"/>
<text text-anchor="middle" x="1137" y="-98.5" font-family="Helvetica,sans-Serif" font-size="10.00">parser.parser.Regex.Regex</text>
</a>
</g>
</g>
<!-- Node18&#45;&gt;Node19 -->
<g id="edge19" class="edge"><title>Node18&#45;&gt;Node19</title>
<path fill="none" stroke="midnightblue" d="M1012,-101C1026.25,-101 1041.01,-101 1055.17,-101"/>
<polygon fill="midnightblue" stroke="midnightblue" points="1055.36,-104.5 1065.36,-101 1055.36,-97.5001 1055.36,-104.5"/>
</g>
<!-- Node20 -->
<g id="node20" class="node"><title>Node20</title>
<g id="a_node20"><a xlink:href="../../de/d16/classparser_1_1parser_1_1_regex.html#a413da3364c9c07a315222d34d7f0fc56" target="_top" xlink:title="parser.parser.Regex.make\lPatterns">
<polygon fill="white" stroke="black" points="1246.5,-86 1246.5,-116 1387.5,-116 1387.5,-86 1246.5,-86"/>
<text text-anchor="start" x="1254.5" y="-104" font-family="Helvetica,sans-Serif" font-size="10.00">parser.parser.Regex.make</text>
<text text-anchor="middle" x="1317" y="-93" font-family="Helvetica,sans-Serif" font-size="10.00">Patterns</text>
</a>
</g>
</g>
<!-- Node19&#45;&gt;Node20 -->
<g id="edge20" class="edge"><title>Node19&#45;&gt;Node20</title>
<path fill="none" stroke="midnightblue" d="M1208.61,-101C1217.63,-101 1226.92,-101 1236.08,-101"/>
<polygon fill="midnightblue" stroke="midnightblue" points="1236.35,-104.5 1246.35,-101 1236.35,-97.5001 1236.35,-104.5"/>
</g>
<!-- Node22 -->
<g id="node22" class="node"><title>Node22</title>
<g id="a_node22"><a xlink:href="../../d2/d66/classparser_1_1parser_1_1_command_factory.html#ac81b65f58a35eb24a9f92303cf7f491e" target="_top" xlink:title="parser.parser.CommandFactory.\lCommandFactory">
<polygon fill="white" stroke="black" points="842.5,-293 842.5,-323 1011.5,-323 1011.5,-293 842.5,-293"/>
<text text-anchor="start" x="850.5" y="-311" font-family="Helvetica,sans-Serif" font-size="10.00">parser.parser.CommandFactory.</text>
<text text-anchor="middle" x="927" y="-300" font-family="Helvetica,sans-Serif" font-size="10.00">CommandFactory</text>
</a>
</g>
</g>
<!-- Node21&#45;&gt;Node22 -->
<g id="edge22" class="edge"><title>Node21&#45;&gt;Node22</title>
<path fill="none" stroke="midnightblue" d="M782.53,-308C798.859,-308 815.892,-308 832.281,-308"/>
<polygon fill="midnightblue" stroke="midnightblue" points="832.39,-311.5 842.39,-308 832.39,-304.5 832.39,-311.5"/>
</g>
<!-- Node24 -->
<g id="node24" class="node"><title>Node24</title>
<g id="a_node24"><a xlink:href="../../dc/d09/classparser_1_1parser_1_1_to_factory.html#a432d9b50bd2cbb0a73da7fc68b25bd4c" target="_top" xlink:title="parser.parser.ToFactory.\lToFactory">
<polygon fill="white" stroke="black" points="863,-244 863,-274 991,-274 991,-244 863,-244"/>
<text text-anchor="start" x="871" y="-262" font-family="Helvetica,sans-Serif" font-size="10.00">parser.parser.ToFactory.</text>
<text text-anchor="middle" x="927" y="-251" font-family="Helvetica,sans-Serif" font-size="10.00">ToFactory</text>
</a>
</g>
</g>
<!-- Node23&#45;&gt;Node24 -->
<g id="edge24" class="edge"><title>Node23&#45;&gt;Node24</title>
<path fill="none" stroke="midnightblue" d="M762.145,-254.816C790.785,-255.548 823.801,-256.391 852.658,-257.127"/>
<polygon fill="midnightblue" stroke="midnightblue" points="852.592,-260.627 862.678,-257.383 852.77,-253.629 852.592,-260.627"/>
</g>
<!-- Node25&#45;&gt;Node17 -->
<g id="edge28" class="edge"><title>Node25&#45;&gt;Node17</title>
<path fill="none" stroke="midnightblue" d="M765.785,-199.719C834.184,-202.239 938.095,-203.848 1028,-196 1045.76,-194.45 1064.97,-191.492 1082.2,-188.364"/>
<polygon fill="midnightblue" stroke="midnightblue" points="1082.91,-191.793 1092.09,-186.512 1081.62,-184.913 1082.91,-191.793"/>
</g>
<!-- Node26 -->
<g id="node26" class="node"><title>Node26</title>
<g id="a_node26"><a xlink:href="../../d7/dda/enumparser_1_1parser_1_1_general_type.html#af35aa06f434667ca22f66abcc181eb30" target="_top" xlink:title="parser.parser.GeneralType.findType">
<polygon fill="white" stroke="black" points="836,-167.5 836,-186.5 1018,-186.5 1018,-167.5 836,-167.5"/>
<text text-anchor="middle" x="927" y="-174.5" font-family="Helvetica,sans-Serif" font-size="10.00">parser.parser.GeneralType.findType</text>
</a>
</g>
</g>
<!-- Node25&#45;&gt;Node26 -->
<g id="edge27" class="edge"><title>Node25&#45;&gt;Node26</title>
<path fill="none" stroke="midnightblue" d="M765.678,-189.962C784.764,-188.419 805.595,-186.735 825.736,-185.106"/>
<polygon fill="midnightblue" stroke="midnightblue" points="826.189,-188.581 835.874,-184.287 825.624,-181.604 826.189,-188.581"/>
</g>
<!-- Node28 -->
<g id="node28" class="node"><title>Node28</title>
<g id="a_node28"><a xlink:href="../../d2/d9f/classview_1_1dialogs_1_1_dialog_box.html#a4553f61aafc3f1113c85ac09fa8e8d0f" target="_top" xlink:title="view.dialogs.DialogBox.show">
<polygon fill="white" stroke="black" points="381.5,-38.5 381.5,-57.5 532.5,-57.5 532.5,-38.5 381.5,-38.5"/>
<text text-anchor="middle" x="457" y="-45.5" font-family="Helvetica,sans-Serif" font-size="10.00">view.dialogs.DialogBox.show</text>
</a>
</g>
</g>
<!-- Node27&#45;&gt;Node28 -->
<g id="edge30" class="edge"><title>Node27&#45;&gt;Node28</title>
<path fill="none" stroke="midnightblue" d="M313.58,-71.4993C336.804,-67.6674 363.775,-63.2172 387.959,-59.2268"/>
<polygon fill="midnightblue" stroke="midnightblue" points="388.837,-62.6293 398.134,-57.5479 387.697,-55.7227 388.837,-62.6293"/>
</g>
</g>
</svg>
