<?xml version="1.0" encoding="UTF-8" standalone="no"?>
<!DOCTYPE svg PUBLIC "-//W3C//DTD SVG 1.1//EN"
 "http://www.w3.org/Graphics/SVG/1.1/DTD/svg11.dtd">
<!-- Generated by graphviz version 2.36.0 (20140111.2315)
 -->
<!-- Title: parser.commands.IfElse Pages: 1 -->
<svg width="148pt" height="176pt"
 viewBox="0.00 0.00 148.00 176.00" xmlns="http://www.w3.org/2000/svg" xmlns:xlink="http://www.w3.org/1999/xlink">
<g id="graph0" class="graph" transform="scale(1 1) rotate(0) translate(4 172)">
<title>parser.commands.IfElse</title>
<polygon fill="white" stroke="none" points="-4,4 -4,-172 144,-172 144,4 -4,4"/>
<!-- Node1 -->
<g id="node1" class="node"><title>Node1</title>
<polygon fill="#bfbfbf" stroke="black" points="4.5,-0.5 4.5,-19.5 135.5,-19.5 135.5,-0.5 4.5,-0.5"/>
<text text-anchor="middle" x="70" y="-7.5" font-family="Helvetica,sans-Serif" font-size="10.00">parser.commands.IfElse</text>
</g>
<!-- Node2 -->
<g id="node2" class="node"><title>Node2</title>
<g id="a_node2"><a xlink:href="../../d2/d84/classparser_1_1nodes_1_1_trinary_node.html" target="_top" xlink:title="parser.nodes.TrinaryNode">
<polygon fill="white" stroke="black" points="1,-58.5 1,-77.5 139,-77.5 139,-58.5 1,-58.5"/>
<text text-anchor="middle" x="70" y="-65.5" font-family="Helvetica,sans-Serif" font-size="10.00">parser.nodes.TrinaryNode</text>
</a>
</g>
</g>
<!-- Node2&#45;&gt;Node1 -->
<g id="edge1" class="edge"><title>Node2&#45;&gt;Node1</title>
<path fill="none" stroke="midnightblue" d="M70,-47.953C70,-38.2875 70,-27.0312 70,-19.5052"/>
<polygon fill="midnightblue" stroke="midnightblue" points="66.5001,-48.25 70,-58.25 73.5001,-48.25 66.5001,-48.25"/>
</g>
<!-- Node3 -->
<g id="node3" class="node"><title>Node3</title>
<g id="a_node3"><a xlink:href="../../da/d96/classparser_1_1nodes_1_1_syntax_node.html" target="_top" xlink:title="parser.nodes.SyntaxNode">
<polygon fill="white" stroke="black" points="0,-148.5 0,-167.5 140,-167.5 140,-148.5 0,-148.5"/>
<text text-anchor="middle" x="70" y="-155.5" font-family="Helvetica,sans-Serif" font-size="10.00">parser.nodes.SyntaxNode</text>
</a>
</g>
</g>
<!-- Node3&#45;&gt;Node2 -->
<g id="edge2" class="edge"><title>Node3&#45;&gt;Node2</title>
<path fill="none" stroke="midnightblue" d="M68.4399,-138.382C68.2572,-135.575 68.1003,-132.713 68,-130 67.4415,-114.899 67.4415,-111.101 68,-96 68.2293,-89.7998 68.7539,-82.8151 69.2083,-77.5033"/>
<polygon fill="midnightblue" stroke="midnightblue" points="64.9607,-138.791 69.2083,-148.497 71.9406,-138.26 64.9607,-138.791"/>
</g>
<!-- Node3&#45;&gt;Node2 -->
<g id="edge3" class="edge"><title>Node3&#45;&gt;Node2</title>
<path fill="none" stroke="#9a32cd" stroke-dasharray="5,2" d="M70,-137.978C70,-119.31 70,-91.6696 70,-77.7241"/>
<polygon fill="#9a32cd" stroke="#9a32cd" points="66.5001,-138.24 70,-148.241 73.5001,-138.241 66.5001,-138.24"/>
<text text-anchor="middle" x="97.5" y="-121.5" font-family="Helvetica,sans-Serif" font-size="10.00"> nodeThree</text>
<text text-anchor="middle" x="97.5" y="-110.5" font-family="Helvetica,sans-Serif" font-size="10.00">nodeOne</text>
<text text-anchor="middle" x="97.5" y="-99.5" font-family="Helvetica,sans-Serif" font-size="10.00">nodeTwo</text>
</g>
</g>
</svg>
