<?xml version="1.0" encoding="UTF-8" standalone="no"?>
<!DOCTYPE svg PUBLIC "-//W3C//DTD SVG 1.1//EN"
 "http://www.w3.org/Graphics/SVG/1.1/DTD/svg11.dtd">
<!-- Generated by graphviz version 2.36.0 (20140111.2315)
 -->
<!-- Title: model.Variable.getNameProperty Pages: 1 -->
<svg width="370pt" height="104pt"
 viewBox="0.00 0.00 370.00 104.00" xmlns="http://www.w3.org/2000/svg" xmlns:xlink="http://www.w3.org/1999/xlink">
<g id="graph0" class="graph" transform="scale(1 1) rotate(0) translate(4 100)">
<title>model.Variable.getNameProperty</title>
<polygon fill="white" stroke="none" points="-4,4 -4,-100 366,-100 366,4 -4,4"/>
<!-- Node1 -->
<g id="node1" class="node"><title>Node1</title>
<polygon fill="#bfbfbf" stroke="black" points="0,-38.5 0,-57.5 176,-57.5 176,-38.5 0,-38.5"/>
<text text-anchor="middle" x="88" y="-45.5" font-family="Helvetica,sans-Serif" font-size="10.00">model.Variable.getNameProperty</text>
</g>
<!-- Node2 -->
<g id="node2" class="node"><title>Node2</title>
<g id="a_node2"><a xlink:href="../../d7/ddd/classmodel_1_1_variable_int.html#a6a916738fec1fd0c6692897d307556f7" target="_top" xlink:title="model.VariableInt.clone">
<polygon fill="white" stroke="black" points="223,-76.5 223,-95.5 351,-95.5 351,-76.5 223,-76.5"/>
<text text-anchor="middle" x="287" y="-83.5" font-family="Helvetica,sans-Serif" font-size="10.00">model.VariableInt.clone</text>
</a>
</g>
</g>
<!-- Node1&#45;&gt;Node2 -->
<g id="edge1" class="edge"><title>Node1&#45;&gt;Node2</title>
<path fill="none" stroke="midnightblue" d="M148.564,-59.4894C176.672,-64.9114 209.822,-71.3058 236.523,-76.4561"/>
<polygon fill="midnightblue" stroke="midnightblue" points="148.939,-55.9974 138.457,-57.54 147.613,-62.8707 148.939,-55.9974"/>
</g>
<!-- Node3 -->
<g id="node3" class="node"><title>Node3</title>
<g id="a_node3"><a xlink:href="../../d2/d1d/classmodel_1_1_variable_string.html#abf61f1c69afa811ba2a1a69b90ed40d9" target="_top" xlink:title="model.VariableString.clone">
<polygon fill="white" stroke="black" points="214.5,-38.5 214.5,-57.5 359.5,-57.5 359.5,-38.5 214.5,-38.5"/>
<text text-anchor="middle" x="287" y="-45.5" font-family="Helvetica,sans-Serif" font-size="10.00">model.VariableString.clone</text>
</a>
</g>
</g>
<!-- Node1&#45;&gt;Node3 -->
<g id="edge2" class="edge"><title>Node1&#45;&gt;Node3</title>
<path fill="none" stroke="midnightblue" d="M186.475,-48C195.901,-48 205.339,-48 214.445,-48"/>
<polygon fill="midnightblue" stroke="midnightblue" points="186.267,-44.5001 176.267,-48 186.267,-51.5001 186.267,-44.5001"/>
</g>
<!-- Node4 -->
<g id="node4" class="node"><title>Node4</title>
<g id="a_node4"><a xlink:href="../../d8/d1b/classmodel_1_1_variable_double.html#aae43a2657fd58b4f78018a936ebb3228" target="_top" xlink:title="model.VariableDouble.clone">
<polygon fill="white" stroke="black" points="212,-0.5 212,-19.5 362,-19.5 362,-0.5 212,-0.5"/>
<text text-anchor="middle" x="287" y="-7.5" font-family="Helvetica,sans-Serif" font-size="10.00">model.VariableDouble.clone</text>
</a>
</g>
</g>
<!-- Node1&#45;&gt;Node4 -->
<g id="edge3" class="edge"><title>Node1&#45;&gt;Node4</title>
<path fill="none" stroke="midnightblue" d="M148.564,-36.5106C176.672,-31.0886 209.822,-24.6942 236.523,-19.5439"/>
<polygon fill="midnightblue" stroke="midnightblue" points="147.613,-33.1293 138.457,-38.46 148.939,-40.0026 147.613,-33.1293"/>
</g>
</g>
</svg>
