<?xml version="1.0" encoding="UTF-8" standalone="no"?>
<!DOCTYPE svg PUBLIC "-//W3C//DTD SVG 1.1//EN"
 "http://www.w3.org/Graphics/SVG/1.1/DTD/svg11.dtd">
<!-- Generated by graphviz version 2.36.0 (20140111.2315)
 -->
<!-- Title: parser.commands.DoTimes.execute Pages: 1 -->
<svg width="890pt" height="117pt"
 viewBox="0.00 0.00 890.00 116.95" xmlns="http://www.w3.org/2000/svg" xmlns:xlink="http://www.w3.org/1999/xlink">
<g id="graph0" class="graph" transform="scale(1 1) rotate(0) translate(4 112.951)">
<title>parser.commands.DoTimes.execute</title>
<polygon fill="white" stroke="none" points="-4,4 -4,-112.951 886,-112.951 886,4 -4,4"/>
<!-- Node1 -->
<g id="node1" class="node"><title>Node1</title>
<polygon fill="#bfbfbf" stroke="black" points="0,-45.0584 0,-64.0584 190,-64.0584 190,-45.0584 0,-45.0584"/>
<text text-anchor="middle" x="95" y="-52.0584" font-family="Helvetica,sans-Serif" font-size="10.00">parser.commands.DoTimes.execute</text>
</g>
<!-- Node2 -->
<g id="node2" class="node"><title>Node2</title>
<g id="a_node2"><a xlink:href="../../da/d96/classparser_1_1nodes_1_1_syntax_node.html#a21b459bd103a7f1f3a1a5f52bb3b3132" target="_top" xlink:title="parser.nodes.SyntaxNode.execute">
<polygon fill="white" stroke="black" points="700,-64.0584 700,-83.0584 882,-83.0584 882,-64.0584 700,-64.0584"/>
<text text-anchor="middle" x="791" y="-71.0584" font-family="Helvetica,sans-Serif" font-size="10.00">parser.nodes.SyntaxNode.execute</text>
</a>
</g>
</g>
<!-- Node1&#45;&gt;Node2 -->
<g id="edge1" class="edge"><title>Node1&#45;&gt;Node2</title>
<path fill="none" stroke="midnightblue" d="M118.972,-64.165C144.558,-74.302 187.407,-89.6168 226,-95.5584 403.326,-122.859 615.502,-99.8545 721.971,-84.5376"/>
<polygon fill="midnightblue" stroke="midnightblue" points="722.55,-87.9901 731.939,-83.0813 721.538,-81.0637 722.55,-87.9901"/>
</g>
<!-- Node3 -->
<g id="node3" class="node"><title>Node3</title>
<g id="a_node3"><a xlink:href="../../d4/d1c/classparser_1_1nodes_1_1_list_node.html#a20dc3121f383968aade0535bbe80b015" target="_top" xlink:title="parser.nodes.ListNode.getNode">
<polygon fill="white" stroke="black" points="236,-67.0584 236,-86.0584 404,-86.0584 404,-67.0584 236,-67.0584"/>
<text text-anchor="middle" x="320" y="-74.0584" font-family="Helvetica,sans-Serif" font-size="10.00">parser.nodes.ListNode.getNode</text>
</a>
</g>
</g>
<!-- Node1&#45;&gt;Node3 -->
<g id="edge2" class="edge"><title>Node1&#45;&gt;Node3</title>
<path fill="none" stroke="midnightblue" d="M190.249,-63.8565C201.925,-65.0084 213.86,-66.1858 225.525,-67.3366"/>
<polygon fill="midnightblue" stroke="midnightblue" points="225.397,-70.8409 235.692,-68.3397 226.084,-63.8747 225.397,-70.8409"/>
</g>
<!-- Node4 -->
<g id="node4" class="node"><title>Node4</title>
<g id="a_node4"><a xlink:href="../../db/dce/classparser_1_1commands_1_1_looping_node.html#aae47d8ffbab5a6b7de222e18ef567a10" target="_top" xlink:title="parser.commands.LoopingNode.run\lAndExitScope">
<polygon fill="white" stroke="black" points="226,-17.5584 226,-47.5584 414,-47.5584 414,-17.5584 226,-17.5584"/>
<text text-anchor="start" x="234" y="-35.5584" font-family="Helvetica,sans-Serif" font-size="10.00">parser.commands.LoopingNode.run</text>
<text text-anchor="middle" x="320" y="-24.5584" font-family="Helvetica,sans-Serif" font-size="10.00">AndExitScope</text>
</a>
</g>
</g>
<!-- Node1&#45;&gt;Node4 -->
<g id="edge3" class="edge"><title>Node1&#45;&gt;Node4</title>
<path fill="none" stroke="midnightblue" d="M190.249,-45.2603C198.707,-44.4258 207.301,-43.578 215.83,-42.7366"/>
<polygon fill="midnightblue" stroke="midnightblue" points="216.192,-46.2179 225.8,-41.753 215.505,-39.2518 216.192,-46.2179"/>
</g>
<!-- Node5 -->
<g id="node5" class="node"><title>Node5</title>
<g id="a_node5"><a xlink:href="../../db/dce/classparser_1_1commands_1_1_looping_node.html#a0d0bf61ea4e3002410b978a49521aea6" target="_top" xlink:title="parser.commands.LoopingNode.runCode">
<polygon fill="white" stroke="black" points="450.5,-23.0584 450.5,-42.0584 663.5,-42.0584 663.5,-23.0584 450.5,-23.0584"/>
<text text-anchor="middle" x="557" y="-30.0584" font-family="Helvetica,sans-Serif" font-size="10.00">parser.commands.LoopingNode.runCode</text>
</a>
</g>
</g>
<!-- Node1&#45;&gt;Node5 -->
<g id="edge6" class="edge"><title>Node1&#45;&gt;Node5</title>
<path fill="none" stroke="midnightblue" d="M115.672,-44.9994C140.633,-33.4502 185.341,-14.6826 226,-7.55837 323.904,9.59634 440.185,-7.85032 505.297,-20.9675"/>
<polygon fill="midnightblue" stroke="midnightblue" points="504.796,-24.4379 515.297,-23.0296 506.21,-17.5821 504.796,-24.4379"/>
</g>
<!-- Node4&#45;&gt;Node5 -->
<g id="edge4" class="edge"><title>Node4&#45;&gt;Node5</title>
<path fill="none" stroke="midnightblue" d="M414.216,-32.5584C422.781,-32.5584 431.527,-32.5584 440.26,-32.5584"/>
<polygon fill="midnightblue" stroke="midnightblue" points="440.494,-36.0585 450.494,-32.5584 440.494,-29.0585 440.494,-36.0585"/>
</g>
<!-- Node5&#45;&gt;Node2 -->
<g id="edge5" class="edge"><title>Node5&#45;&gt;Node2</title>
<path fill="none" stroke="midnightblue" d="M611.809,-42.0676C645.945,-48.1005 690.284,-55.9362 726.193,-62.2821"/>
<polygon fill="midnightblue" stroke="midnightblue" points="725.625,-65.736 736.082,-64.0297 726.844,-58.8428 725.625,-65.736"/>
</g>
</g>
</svg>
