<?xml version="1.0" encoding="UTF-8" standalone="no"?>
<!DOCTYPE svg PUBLIC "-//W3C//DTD SVG 1.1//EN"
 "http://www.w3.org/Graphics/SVG/1.1/DTD/svg11.dtd">
<!-- Generated by graphviz version 2.36.0 (20140111.2315)
 -->
<!-- Title: view.listwindows.CommandsHistoryWindow Pages: 1 -->
<svg width="318pt" height="220pt"
 viewBox="0.00 0.00 318.00 220.00" xmlns="http://www.w3.org/2000/svg" xmlns:xlink="http://www.w3.org/1999/xlink">
<g id="graph0" class="graph" transform="scale(1 1) rotate(0) translate(4 216)">
<title>view.listwindows.CommandsHistoryWindow</title>
<polygon fill="white" stroke="none" points="-4,4 -4,-216 314,-216 314,4 -4,4"/>
<!-- Node1 -->
<g id="node1" class="node"><title>Node1</title>
<polygon fill="#bfbfbf" stroke="black" points="80,-1 80,-31 230,-31 230,-1 80,-1"/>
<text text-anchor="start" x="88" y="-19" font-family="Helvetica,sans-Serif" font-size="10.00">view.listwindows.Commands</text>
<text text-anchor="middle" x="155" y="-8" font-family="Helvetica,sans-Serif" font-size="10.00">HistoryWindow</text>
</g>
<!-- Node2 -->
<g id="node2" class="node"><title>Node2</title>
<g id="a_node2"><a xlink:href="../../da/df5/classview_1_1listwindows_1_1_commands_list_window.html" target="_top" xlink:title="view.listwindows.Commands\lListWindow">
<polygon fill="white" stroke="black" points="80,-69 80,-99 230,-99 230,-69 80,-69"/>
<text text-anchor="start" x="88" y="-87" font-family="Helvetica,sans-Serif" font-size="10.00">view.listwindows.Commands</text>
<text text-anchor="middle" x="155" y="-76" font-family="Helvetica,sans-Serif" font-size="10.00">ListWindow</text>
</a>
</g>
</g>
<!-- Node2&#45;&gt;Node1 -->
<g id="edge1" class="edge"><title>Node2&#45;&gt;Node1</title>
<path fill="none" stroke="midnightblue" d="M155,-58.5322C155,-49.3606 155,-39.2449 155,-31.2931"/>
<polygon fill="midnightblue" stroke="midnightblue" points="151.5,-58.6789 155,-68.679 158.5,-58.679 151.5,-58.6789"/>
</g>
<!-- Node3 -->
<g id="node3" class="node"><title>Node3</title>
<g id="a_node3"><a xlink:href="../../da/d76/classview_1_1listwindows_1_1_list_window.html" target="_top" xlink:title="view.listwindows.ListWindow">
<polygon fill="white" stroke="black" points="0,-136.5 0,-155.5 146,-155.5 146,-136.5 0,-136.5"/>
<text text-anchor="middle" x="73" y="-143.5" font-family="Helvetica,sans-Serif" font-size="10.00">view.listwindows.ListWindow</text>
</a>
</g>
</g>
<!-- Node3&#45;&gt;Node2 -->
<g id="edge2" class="edge"><title>Node3&#45;&gt;Node2</title>
<path fill="none" stroke="midnightblue" d="M93.0273,-130.346C106.01,-120.846 122.833,-108.537 135.674,-99.1408"/>
<polygon fill="midnightblue" stroke="midnightblue" points="90.7521,-127.674 84.7486,-136.403 94.8857,-133.323 90.7521,-127.674"/>
</g>
<!-- Node4 -->
<g id="node4" class="node"><title>Node4</title>
<polygon fill="white" stroke="#bfbfbf" points="50,-192.5 50,-211.5 96,-211.5 96,-192.5 50,-192.5"/>
<text text-anchor="middle" x="73" y="-199.5" font-family="Helvetica,sans-Serif" font-size="10.00">Group</text>
</g>
<!-- Node4&#45;&gt;Node3 -->
<g id="edge3" class="edge"><title>Node4&#45;&gt;Node3</title>
<path fill="none" stroke="midnightblue" d="M73,-181.805C73,-172.91 73,-162.78 73,-155.751"/>
<polygon fill="midnightblue" stroke="midnightblue" points="69.5001,-182.083 73,-192.083 76.5001,-182.083 69.5001,-182.083"/>
</g>
<!-- Node5 -->
<g id="node5" class="node"><title>Node5</title>
<g id="a_node5"><a xlink:href="../../dd/db2/interfaceview_1_1components_1_1_observer.html" target="_top" xlink:title="view.components.Observer">
<polygon fill="white" stroke="black" points="164,-136.5 164,-155.5 310,-155.5 310,-136.5 164,-136.5"/>
<text text-anchor="middle" x="237" y="-143.5" font-family="Helvetica,sans-Serif" font-size="10.00">view.components.Observer</text>
</a>
</g>
</g>
<!-- Node5&#45;&gt;Node2 -->
<g id="edge4" class="edge"><title>Node5&#45;&gt;Node2</title>
<path fill="none" stroke="midnightblue" d="M216.973,-130.346C203.99,-120.846 187.167,-108.537 174.326,-99.1408"/>
<polygon fill="midnightblue" stroke="midnightblue" points="215.114,-133.323 225.251,-136.403 219.248,-127.674 215.114,-133.323"/>
</g>
</g>
</svg>
