<?xml version="1.0" encoding="UTF-8" standalone="no"?>
<!DOCTYPE svg PUBLIC "-//W3C//DTD SVG 1.1//EN"
 "http://www.w3.org/Graphics/SVG/1.1/DTD/svg11.dtd">
<!-- Generated by graphviz version 2.36.0 (20140111.2315)
 -->
<!-- Title: parser.commands.SetTowards Pages: 1 -->
<svg width="170pt" height="208pt"
 viewBox="0.00 0.00 170.00 208.00" xmlns="http://www.w3.org/2000/svg" xmlns:xlink="http://www.w3.org/1999/xlink">
<g id="graph0" class="graph" transform="scale(1 1) rotate(0) translate(4 204)">
<title>parser.commands.SetTowards</title>
<polygon fill="white" stroke="none" points="-4,4 -4,-204 166,-204 166,4 -4,4"/>
<!-- Node1 -->
<g id="node1" class="node"><title>Node1</title>
<polygon fill="#bfbfbf" stroke="black" points="0.5,-0.5 0.5,-19.5 161.5,-19.5 161.5,-0.5 0.5,-0.5"/>
<text text-anchor="middle" x="81" y="-7.5" font-family="Helvetica,sans-Serif" font-size="10.00">parser.commands.SetTowards</text>
</g>
<!-- Node2 -->
<g id="node2" class="node"><title>Node2</title>
<g id="a_node2"><a xlink:href="../../d2/d7d/classparser_1_1commands_1_1_binary_turtle_command.html" target="_top" xlink:title="parser.commands.BinaryTurtle\lCommand">
<polygon fill="white" stroke="black" points="0,-57 0,-87 162,-87 162,-57 0,-57"/>
<text text-anchor="start" x="8" y="-75" font-family="Helvetica,sans-Serif" font-size="10.00">parser.commands.BinaryTurtle</text>
<text text-anchor="middle" x="81" y="-64" font-family="Helvetica,sans-Serif" font-size="10.00">Command</text>
</a>
</g>
</g>
<!-- Node2&#45;&gt;Node1 -->
<g id="edge1" class="edge"><title>Node2&#45;&gt;Node1</title>
<path fill="none" stroke="midnightblue" d="M81,-46.5858C81,-37.0743 81,-26.7864 81,-19.7305"/>
<polygon fill="midnightblue" stroke="midnightblue" points="77.5001,-46.7808 81,-56.7808 84.5001,-46.7809 77.5001,-46.7808"/>
</g>
<!-- Node3 -->
<g id="node3" class="node"><title>Node3</title>
<g id="a_node3"><a xlink:href="../../db/d11/classparser_1_1nodes_1_1_binary_node.html" target="_top" xlink:title="parser.nodes.BinaryNode">
<polygon fill="white" stroke="black" points="12.5,-124.5 12.5,-143.5 149.5,-143.5 149.5,-124.5 12.5,-124.5"/>
<text text-anchor="middle" x="81" y="-131.5" font-family="Helvetica,sans-Serif" font-size="10.00">parser.nodes.BinaryNode</text>
</a>
</g>
</g>
<!-- Node3&#45;&gt;Node2 -->
<g id="edge2" class="edge"><title>Node3&#45;&gt;Node2</title>
<path fill="none" stroke="midnightblue" d="M81,-114.371C81,-105.585 81,-95.2721 81,-87.1408"/>
<polygon fill="midnightblue" stroke="midnightblue" points="77.5001,-114.403 81,-124.403 84.5001,-114.403 77.5001,-114.403"/>
</g>
<!-- Node4 -->
<g id="node4" class="node"><title>Node4</title>
<g id="a_node4"><a xlink:href="../../da/d96/classparser_1_1nodes_1_1_syntax_node.html" target="_top" xlink:title="parser.nodes.SyntaxNode">
<polygon fill="white" stroke="black" points="11,-180.5 11,-199.5 151,-199.5 151,-180.5 11,-180.5"/>
<text text-anchor="middle" x="81" y="-187.5" font-family="Helvetica,sans-Serif" font-size="10.00">parser.nodes.SyntaxNode</text>
</a>
</g>
</g>
<!-- Node4&#45;&gt;Node3 -->
<g id="edge3" class="edge"><title>Node4&#45;&gt;Node3</title>
<path fill="none" stroke="midnightblue" d="M81,-169.805C81,-160.91 81,-150.78 81,-143.751"/>
<polygon fill="midnightblue" stroke="midnightblue" points="77.5001,-170.083 81,-180.083 84.5001,-170.083 77.5001,-170.083"/>
</g>
</g>
</svg>
