<?xml version="1.0" encoding="UTF-8" standalone="no"?>
<!DOCTYPE svg PUBLIC "-//W3C//DTD SVG 1.1//EN"
 "http://www.w3.org/Graphics/SVG/1.1/DTD/svg11.dtd">
<!-- Generated by graphviz version 2.36.0 (20140111.2315)
 -->
<!-- Title: model.CommandHistory.notifyObservers Pages: 1 -->
<svg width="960pt" height="185pt"
 viewBox="0.00 0.00 960.00 185.00" xmlns="http://www.w3.org/2000/svg" xmlns:xlink="http://www.w3.org/1999/xlink">
<g id="graph0" class="graph" transform="scale(1 1) rotate(0) translate(4 181)">
<title>model.CommandHistory.notifyObservers</title>
<polygon fill="white" stroke="none" points="-4,4 -4,-181 956,-181 956,4 -4,4"/>
<!-- Node1 -->
<g id="node1" class="node"><title>Node1</title>
<polygon fill="#bfbfbf" stroke="black" points="0.5,-49 0.5,-79 161.5,-79 161.5,-49 0.5,-49"/>
<text text-anchor="start" x="8.5" y="-67" font-family="Helvetica,sans-Serif" font-size="10.00">model.CommandHistory.notify</text>
<text text-anchor="middle" x="81" y="-56" font-family="Helvetica,sans-Serif" font-size="10.00">Observers</text>
</g>
<!-- Node2 -->
<g id="node2" class="node"><title>Node2</title>
<g id="a_node2"><a xlink:href="../../db/df9/classmodel_1_1_command_history.html#a435edf344accb9115ca6183eb28594df" target="_top" xlink:title="model.CommandHistory.add\lCommand">
<polygon fill="white" stroke="black" points="198.5,-49 198.5,-79 351.5,-79 351.5,-49 198.5,-49"/>
<text text-anchor="start" x="206.5" y="-67" font-family="Helvetica,sans-Serif" font-size="10.00">model.CommandHistory.add</text>
<text text-anchor="middle" x="275" y="-56" font-family="Helvetica,sans-Serif" font-size="10.00">Command</text>
</a>
</g>
</g>
<!-- Node1&#45;&gt;Node2 -->
<g id="edge1" class="edge"><title>Node1&#45;&gt;Node2</title>
<path fill="none" stroke="midnightblue" d="M171.794,-64C180.726,-64 189.729,-64 198.493,-64"/>
<polygon fill="midnightblue" stroke="midnightblue" points="171.757,-60.5001 161.757,-64 171.757,-67.5001 171.757,-60.5001"/>
</g>
<!-- Node3 -->
<g id="node3" class="node"><title>Node3</title>
<g id="a_node3"><a xlink:href="../../d3/d42/classmodel_1_1_model.html#a8a07e7f2040e8a2ab50ec2955504f6c4" target="_top" xlink:title="model.Model.parse">
<polygon fill="white" stroke="black" points="388,-54.5 388,-73.5 496,-73.5 496,-54.5 388,-54.5"/>
<text text-anchor="middle" x="442" y="-61.5" font-family="Helvetica,sans-Serif" font-size="10.00">model.Model.parse</text>
</a>
</g>
</g>
<!-- Node2&#45;&gt;Node3 -->
<g id="edge2" class="edge"><title>Node2&#45;&gt;Node3</title>
<path fill="none" stroke="midnightblue" d="M361.769,-64C370.653,-64 379.486,-64 387.856,-64"/>
<polygon fill="midnightblue" stroke="midnightblue" points="361.739,-60.5001 351.739,-64 361.739,-67.5001 361.739,-60.5001"/>
</g>
<!-- Node4 -->
<g id="node4" class="node"><title>Node4</title>
<g id="a_node4"><a xlink:href="../../db/d98/classview_1_1components_1_1_command_port.html#a687e2098038140e833e1bac1a759b587" target="_top" xlink:title="view.components.CommandPort.run\lCommand">
<polygon fill="white" stroke="black" points="532.5,-98 532.5,-128 723.5,-128 723.5,-98 532.5,-98"/>
<text text-anchor="start" x="540.5" y="-116" font-family="Helvetica,sans-Serif" font-size="10.00">view.components.CommandPort.run</text>
<text text-anchor="middle" x="628" y="-105" font-family="Helvetica,sans-Serif" font-size="10.00">Command</text>
</a>
</g>
</g>
<!-- Node3&#45;&gt;Node4 -->
<g id="edge3" class="edge"><title>Node3&#45;&gt;Node4</title>
<path fill="none" stroke="midnightblue" d="M488.016,-76.1962C502.096,-79.9954 517.69,-84.1876 532,-88 544.195,-91.2489 557.278,-94.7084 569.716,-97.9854"/>
<polygon fill="midnightblue" stroke="midnightblue" points="488.638,-72.7388 478.072,-73.5102 486.813,-79.4967 488.638,-72.7388"/>
</g>
<!-- Node7 -->
<g id="node7" class="node"><title>Node7</title>
<g id="a_node7"><a xlink:href="../../da/df5/classview_1_1listwindows_1_1_commands_list_window.html#a3611428a65d6e7a436971f1b237e644e" target="_top" xlink:title="view.listwindows.Commands\lListWindow.parseCommand">
<polygon fill="white" stroke="black" points="553,-49 553,-79 703,-79 703,-49 553,-49"/>
<text text-anchor="start" x="561" y="-67" font-family="Helvetica,sans-Serif" font-size="10.00">view.listwindows.Commands</text>
<text text-anchor="middle" x="628" y="-56" font-family="Helvetica,sans-Serif" font-size="10.00">ListWindow.parseCommand</text>
</a>
</g>
</g>
<!-- Node3&#45;&gt;Node7 -->
<g id="edge6" class="edge"><title>Node3&#45;&gt;Node7</title>
<path fill="none" stroke="midnightblue" d="M506.354,-64C521.281,-64 537.325,-64 552.686,-64"/>
<polygon fill="midnightblue" stroke="midnightblue" points="506.22,-60.5001 496.22,-64 506.22,-67.5001 506.22,-60.5001"/>
</g>
<!-- Node10 -->
<g id="node10" class="node"><title>Node10</title>
<g id="a_node10"><a xlink:href="../../d3/dbe/classview_1_1_view.html#ab8b25d25b79752feed7b786ed496f642" target="_top" xlink:title="view.View.loadLibrary">
<polygon fill="white" stroke="black" points="570,-10.5 570,-29.5 686,-29.5 686,-10.5 570,-10.5"/>
<text text-anchor="middle" x="628" y="-17.5" font-family="Helvetica,sans-Serif" font-size="10.00">view.View.loadLibrary</text>
</a>
</g>
</g>
<!-- Node3&#45;&gt;Node10 -->
<g id="edge9" class="edge"><title>Node3&#45;&gt;Node10</title>
<path fill="none" stroke="midnightblue" d="M484.511,-51.6297C499.421,-47.3751 516.404,-42.7443 532,-39 546.065,-35.6232 561.402,-32.371 575.568,-29.5407"/>
<polygon fill="midnightblue" stroke="midnightblue" points="483.201,-48.3649 474.563,-54.4995 485.141,-55.0907 483.201,-48.3649"/>
</g>
<!-- Node5 -->
<g id="node5" class="node"><title>Node5</title>
<g id="a_node5"><a xlink:href="../../db/d98/classview_1_1components_1_1_command_port.html#a37ae451233579691839c4a52072c94e9" target="_top" xlink:title="view.components.CommandPort.\lCommandPort">
<polygon fill="white" stroke="black" points="768.5,-147 768.5,-177 943.5,-177 943.5,-147 768.5,-147"/>
<text text-anchor="start" x="776.5" y="-165" font-family="Helvetica,sans-Serif" font-size="10.00">view.components.CommandPort.</text>
<text text-anchor="middle" x="856" y="-154" font-family="Helvetica,sans-Serif" font-size="10.00">CommandPort</text>
</a>
</g>
</g>
<!-- Node4&#45;&gt;Node5 -->
<g id="edge4" class="edge"><title>Node4&#45;&gt;Node5</title>
<path fill="none" stroke="midnightblue" d="M708.263,-130.185C733.535,-135.665 761.286,-141.682 785.788,-146.994"/>
<polygon fill="midnightblue" stroke="midnightblue" points="708.858,-126.733 698.343,-128.035 707.375,-133.574 708.858,-126.733"/>
</g>
<!-- Node6 -->
<g id="node6" class="node"><title>Node6</title>
<g id="a_node6"><a xlink:href="../../db/d98/classview_1_1components_1_1_command_port.html#afcdcfbfa864e7438dc0f0a3f1c541294" target="_top" xlink:title="view.components.CommandPort.run\lCommand">
<polygon fill="white" stroke="black" points="760.5,-98 760.5,-128 951.5,-128 951.5,-98 760.5,-98"/>
<text text-anchor="start" x="768.5" y="-116" font-family="Helvetica,sans-Serif" font-size="10.00">view.components.CommandPort.run</text>
<text text-anchor="middle" x="856" y="-105" font-family="Helvetica,sans-Serif" font-size="10.00">Command</text>
</a>
</g>
</g>
<!-- Node4&#45;&gt;Node6 -->
<g id="edge5" class="edge"><title>Node4&#45;&gt;Node6</title>
<path fill="none" stroke="midnightblue" d="M733.611,-113C742.572,-113 751.605,-113 760.48,-113"/>
<polygon fill="midnightblue" stroke="midnightblue" points="733.535,-109.5 723.535,-113 733.535,-116.5 733.535,-109.5"/>
</g>
<!-- Node8 -->
<g id="node8" class="node"><title>Node8</title>
<g id="a_node8"><a xlink:href="../../df/d26/classview_1_1listwindows_1_1_commands_history_window.html#af341417d427f8b0548670f1efbb3acac" target="_top" xlink:title="view.listwindows.Commands\lHistoryWindow.setButtonAction">
<polygon fill="white" stroke="black" points="773.5,-49 773.5,-79 938.5,-79 938.5,-49 773.5,-49"/>
<text text-anchor="start" x="781.5" y="-67" font-family="Helvetica,sans-Serif" font-size="10.00">view.listwindows.Commands</text>
<text text-anchor="middle" x="856" y="-56" font-family="Helvetica,sans-Serif" font-size="10.00">HistoryWindow.setButtonAction</text>
</a>
</g>
</g>
<!-- Node7&#45;&gt;Node8 -->
<g id="edge7" class="edge"><title>Node7&#45;&gt;Node8</title>
<path fill="none" stroke="midnightblue" d="M713.175,-64C732.875,-64 753.828,-64 773.414,-64"/>
<polygon fill="midnightblue" stroke="midnightblue" points="713.001,-60.5001 703.001,-64 713.001,-67.5001 713.001,-60.5001"/>
</g>
<!-- Node9 -->
<g id="node9" class="node"><title>Node9</title>
<g id="a_node9"><a xlink:href="../../d7/dc7/classview_1_1listwindows_1_1_user_defined_commands_window.html#adaf32233789f6a07c42b4e459699bf53" target="_top" xlink:title="view.listwindows.UserDefined\lCommandsWindow.setButtonAction">
<polygon fill="white" stroke="black" points="762.5,-0 762.5,-30 949.5,-30 949.5,-0 762.5,-0"/>
<text text-anchor="start" x="770.5" y="-18" font-family="Helvetica,sans-Serif" font-size="10.00">view.listwindows.UserDefined</text>
<text text-anchor="middle" x="856" y="-7" font-family="Helvetica,sans-Serif" font-size="10.00">CommandsWindow.setButtonAction</text>
</a>
</g>
</g>
<!-- Node7&#45;&gt;Node9 -->
<g id="edge8" class="edge"><title>Node7&#45;&gt;Node9</title>
<path fill="none" stroke="midnightblue" d="M708.263,-46.8146C733.535,-41.3353 761.286,-35.3185 785.788,-30.0062"/>
<polygon fill="midnightblue" stroke="midnightblue" points="707.375,-43.4259 698.343,-48.9654 708.858,-50.2669 707.375,-43.4259"/>
</g>
</g>
</svg>
