<?xml version="1.0" encoding="UTF-8" standalone="no"?>
<!DOCTYPE svg PUBLIC "-//W3C//DTD SVG 1.1//EN"
 "http://www.w3.org/Graphics/SVG/1.1/DTD/svg11.dtd">
<!-- Generated by graphviz version 2.36.0 (20140111.2315)
 -->
<!-- Title: model.CommandHistory.addCommand Pages: 1 -->
<svg width="762pt" height="185pt"
 viewBox="0.00 0.00 762.00 185.00" xmlns="http://www.w3.org/2000/svg" xmlns:xlink="http://www.w3.org/1999/xlink">
<g id="graph0" class="graph" transform="scale(1 1) rotate(0) translate(4 181)">
<title>model.CommandHistory.addCommand</title>
<polygon fill="white" stroke="none" points="-4,4 -4,-181 758,-181 758,4 -4,4"/>
<!-- Node1 -->
<g id="node1" class="node"><title>Node1</title>
<polygon fill="#bfbfbf" stroke="black" points="0.5,-49 0.5,-79 153.5,-79 153.5,-49 0.5,-49"/>
<text text-anchor="start" x="8.5" y="-67" font-family="Helvetica,sans-Serif" font-size="10.00">model.CommandHistory.add</text>
<text text-anchor="middle" x="77" y="-56" font-family="Helvetica,sans-Serif" font-size="10.00">Command</text>
</g>
<!-- Node2 -->
<g id="node2" class="node"><title>Node2</title>
<g id="a_node2"><a xlink:href="../../d3/d42/classmodel_1_1_model.html#a8a07e7f2040e8a2ab50ec2955504f6c4" target="_top" xlink:title="model.Model.parse">
<polygon fill="white" stroke="black" points="190,-54.5 190,-73.5 298,-73.5 298,-54.5 190,-54.5"/>
<text text-anchor="middle" x="244" y="-61.5" font-family="Helvetica,sans-Serif" font-size="10.00">model.Model.parse</text>
</a>
</g>
</g>
<!-- Node1&#45;&gt;Node2 -->
<g id="edge1" class="edge"><title>Node1&#45;&gt;Node2</title>
<path fill="none" stroke="midnightblue" d="M163.769,-64C172.653,-64 181.486,-64 189.856,-64"/>
<polygon fill="midnightblue" stroke="midnightblue" points="163.739,-60.5001 153.739,-64 163.739,-67.5001 163.739,-60.5001"/>
</g>
<!-- Node3 -->
<g id="node3" class="node"><title>Node3</title>
<g id="a_node3"><a xlink:href="../../db/d98/classview_1_1components_1_1_command_port.html#a687e2098038140e833e1bac1a759b587" target="_top" xlink:title="view.components.CommandPort.run\lCommand">
<polygon fill="white" stroke="black" points="334.5,-98 334.5,-128 525.5,-128 525.5,-98 334.5,-98"/>
<text text-anchor="start" x="342.5" y="-116" font-family="Helvetica,sans-Serif" font-size="10.00">view.components.CommandPort.run</text>
<text text-anchor="middle" x="430" y="-105" font-family="Helvetica,sans-Serif" font-size="10.00">Command</text>
</a>
</g>
</g>
<!-- Node2&#45;&gt;Node3 -->
<g id="edge2" class="edge"><title>Node2&#45;&gt;Node3</title>
<path fill="none" stroke="midnightblue" d="M290.016,-76.1962C304.096,-79.9954 319.69,-84.1876 334,-88 346.195,-91.2489 359.278,-94.7084 371.716,-97.9854"/>
<polygon fill="midnightblue" stroke="midnightblue" points="290.638,-72.7388 280.072,-73.5102 288.813,-79.4967 290.638,-72.7388"/>
</g>
<!-- Node6 -->
<g id="node6" class="node"><title>Node6</title>
<g id="a_node6"><a xlink:href="../../da/df5/classview_1_1listwindows_1_1_commands_list_window.html#a3611428a65d6e7a436971f1b237e644e" target="_top" xlink:title="view.listwindows.Commands\lListWindow.parseCommand">
<polygon fill="white" stroke="black" points="355,-49 355,-79 505,-79 505,-49 355,-49"/>
<text text-anchor="start" x="363" y="-67" font-family="Helvetica,sans-Serif" font-size="10.00">view.listwindows.Commands</text>
<text text-anchor="middle" x="430" y="-56" font-family="Helvetica,sans-Serif" font-size="10.00">ListWindow.parseCommand</text>
</a>
</g>
</g>
<!-- Node2&#45;&gt;Node6 -->
<g id="edge5" class="edge"><title>Node2&#45;&gt;Node6</title>
<path fill="none" stroke="midnightblue" d="M308.354,-64C323.281,-64 339.325,-64 354.686,-64"/>
<polygon fill="midnightblue" stroke="midnightblue" points="308.22,-60.5001 298.22,-64 308.22,-67.5001 308.22,-60.5001"/>
</g>
<!-- Node9 -->
<g id="node9" class="node"><title>Node9</title>
<g id="a_node9"><a xlink:href="../../d3/dbe/classview_1_1_view.html#ab8b25d25b79752feed7b786ed496f642" target="_top" xlink:title="view.View.loadLibrary">
<polygon fill="white" stroke="black" points="372,-10.5 372,-29.5 488,-29.5 488,-10.5 372,-10.5"/>
<text text-anchor="middle" x="430" y="-17.5" font-family="Helvetica,sans-Serif" font-size="10.00">view.View.loadLibrary</text>
</a>
</g>
</g>
<!-- Node2&#45;&gt;Node9 -->
<g id="edge8" class="edge"><title>Node2&#45;&gt;Node9</title>
<path fill="none" stroke="midnightblue" d="M286.511,-51.6297C301.421,-47.3751 318.404,-42.7443 334,-39 348.065,-35.6232 363.402,-32.371 377.568,-29.5407"/>
<polygon fill="midnightblue" stroke="midnightblue" points="285.201,-48.3649 276.563,-54.4995 287.141,-55.0907 285.201,-48.3649"/>
</g>
<!-- Node4 -->
<g id="node4" class="node"><title>Node4</title>
<g id="a_node4"><a xlink:href="../../db/d98/classview_1_1components_1_1_command_port.html#a37ae451233579691839c4a52072c94e9" target="_top" xlink:title="view.components.CommandPort.\lCommandPort">
<polygon fill="white" stroke="black" points="570.5,-147 570.5,-177 745.5,-177 745.5,-147 570.5,-147"/>
<text text-anchor="start" x="578.5" y="-165" font-family="Helvetica,sans-Serif" font-size="10.00">view.components.CommandPort.</text>
<text text-anchor="middle" x="658" y="-154" font-family="Helvetica,sans-Serif" font-size="10.00">CommandPort</text>
</a>
</g>
</g>
<!-- Node3&#45;&gt;Node4 -->
<g id="edge3" class="edge"><title>Node3&#45;&gt;Node4</title>
<path fill="none" stroke="midnightblue" d="M510.263,-130.185C535.535,-135.665 563.286,-141.682 587.788,-146.994"/>
<polygon fill="midnightblue" stroke="midnightblue" points="510.858,-126.733 500.343,-128.035 509.375,-133.574 510.858,-126.733"/>
</g>
<!-- Node5 -->
<g id="node5" class="node"><title>Node5</title>
<g id="a_node5"><a xlink:href="../../db/d98/classview_1_1components_1_1_command_port.html#afcdcfbfa864e7438dc0f0a3f1c541294" target="_top" xlink:title="view.components.CommandPort.run\lCommand">
<polygon fill="white" stroke="black" points="562.5,-98 562.5,-128 753.5,-128 753.5,-98 562.5,-98"/>
<text text-anchor="start" x="570.5" y="-116" font-family="Helvetica,sans-Serif" font-size="10.00">view.components.CommandPort.run</text>
<text text-anchor="middle" x="658" y="-105" font-family="Helvetica,sans-Serif" font-size="10.00">Command</text>
</a>
</g>
</g>
<!-- Node3&#45;&gt;Node5 -->
<g id="edge4" class="edge"><title>Node3&#45;&gt;Node5</title>
<path fill="none" stroke="midnightblue" d="M535.611,-113C544.572,-113 553.605,-113 562.48,-113"/>
<polygon fill="midnightblue" stroke="midnightblue" points="535.535,-109.5 525.535,-113 535.535,-116.5 535.535,-109.5"/>
</g>
<!-- Node7 -->
<g id="node7" class="node"><title>Node7</title>
<g id="a_node7"><a xlink:href="../../df/d26/classview_1_1listwindows_1_1_commands_history_window.html#af341417d427f8b0548670f1efbb3acac" target="_top" xlink:title="view.listwindows.Commands\lHistoryWindow.setButtonAction">
<polygon fill="white" stroke="black" points="575.5,-49 575.5,-79 740.5,-79 740.5,-49 575.5,-49"/>
<text text-anchor="start" x="583.5" y="-67" font-family="Helvetica,sans-Serif" font-size="10.00">view.listwindows.Commands</text>
<text text-anchor="middle" x="658" y="-56" font-family="Helvetica,sans-Serif" font-size="10.00">HistoryWindow.setButtonAction</text>
</a>
</g>
</g>
<!-- Node6&#45;&gt;Node7 -->
<g id="edge6" class="edge"><title>Node6&#45;&gt;Node7</title>
<path fill="none" stroke="midnightblue" d="M515.175,-64C534.875,-64 555.828,-64 575.414,-64"/>
<polygon fill="midnightblue" stroke="midnightblue" points="515.001,-60.5001 505.001,-64 515.001,-67.5001 515.001,-60.5001"/>
</g>
<!-- Node8 -->
<g id="node8" class="node"><title>Node8</title>
<g id="a_node8"><a xlink:href="../../d7/dc7/classview_1_1listwindows_1_1_user_defined_commands_window.html#adaf32233789f6a07c42b4e459699bf53" target="_top" xlink:title="view.listwindows.UserDefined\lCommandsWindow.setButtonAction">
<polygon fill="white" stroke="black" points="564.5,-0 564.5,-30 751.5,-30 751.5,-0 564.5,-0"/>
<text text-anchor="start" x="572.5" y="-18" font-family="Helvetica,sans-Serif" font-size="10.00">view.listwindows.UserDefined</text>
<text text-anchor="middle" x="658" y="-7" font-family="Helvetica,sans-Serif" font-size="10.00">CommandsWindow.setButtonAction</text>
</a>
</g>
</g>
<!-- Node6&#45;&gt;Node8 -->
<g id="edge7" class="edge"><title>Node6&#45;&gt;Node8</title>
<path fill="none" stroke="midnightblue" d="M510.263,-46.8146C535.535,-41.3353 563.286,-35.3185 587.788,-30.0062"/>
<polygon fill="midnightblue" stroke="midnightblue" points="509.375,-43.4259 500.343,-48.9654 510.858,-50.2669 509.375,-43.4259"/>
</g>
</g>
</svg>
