<?xml version="1.0" encoding="UTF-8" standalone="no"?>
<!DOCTYPE svg PUBLIC "-//W3C//DTD SVG 1.1//EN"
 "http://www.w3.org/Graphics/SVG/1.1/DTD/svg11.dtd">
<!-- Generated by graphviz version 2.36.0 (20140111.2315)
 -->
<!-- Title: model.ViewOptions.notifyObservers Pages: 1 -->
<svg width="518pt" height="192pt"
 viewBox="0.00 0.00 518.00 192.00" xmlns="http://www.w3.org/2000/svg" xmlns:xlink="http://www.w3.org/1999/xlink">
<g id="graph0" class="graph" transform="scale(1 1) rotate(0) translate(4 188)">
<title>model.ViewOptions.notifyObservers</title>
<polygon fill="white" stroke="none" points="-4,4 -4,-188 514,-188 514,4 -4,4"/>
<!-- Node1 -->
<g id="node1" class="node"><title>Node1</title>
<polygon fill="#bfbfbf" stroke="black" points="0.5,-83 0.5,-113 137.5,-113 137.5,-83 0.5,-83"/>
<text text-anchor="start" x="8.5" y="-101" font-family="Helvetica,sans-Serif" font-size="10.00">model.ViewOptions.notify</text>
<text text-anchor="middle" x="69" y="-90" font-family="Helvetica,sans-Serif" font-size="10.00">Observers</text>
</g>
<!-- Node2 -->
<g id="node2" class="node"><title>Node2</title>
<g id="a_node2"><a xlink:href="../../d3/d73/classmodel_1_1_view_options.html#ac7f15ec7293495db247cf7ca92b18c46" target="_top" xlink:title="model.ViewOptions.initialize">
<polygon fill="white" stroke="black" points="196.5,-164.5 196.5,-183.5 345.5,-183.5 345.5,-164.5 196.5,-164.5"/>
<text text-anchor="middle" x="271" y="-171.5" font-family="Helvetica,sans-Serif" font-size="10.00">model.ViewOptions.initialize</text>
</a>
</g>
</g>
<!-- Node1&#45;&gt;Node2 -->
<g id="edge1" class="edge"><title>Node1&#45;&gt;Node2</title>
<path fill="none" stroke="midnightblue" d="M101.274,-118.446C121.326,-130.704 148.323,-145.674 174,-155 184.54,-158.828 196.026,-161.945 207.27,-164.463"/>
<polygon fill="midnightblue" stroke="midnightblue" points="102.919,-115.347 92.5797,-113.034 99.22,-121.29 102.919,-115.347"/>
</g>
<!-- Node4 -->
<g id="node4" class="node"><title>Node4</title>
<g id="a_node4"><a xlink:href="../../d3/d73/classmodel_1_1_view_options.html#af13d0f50fa261f9faddff8d72a40589b" target="_top" xlink:title="model.ViewOptions.setBackgroundID">
<polygon fill="white" stroke="black" points="174.5,-126.5 174.5,-145.5 367.5,-145.5 367.5,-126.5 174.5,-126.5"/>
<text text-anchor="middle" x="271" y="-133.5" font-family="Helvetica,sans-Serif" font-size="10.00">model.ViewOptions.setBackgroundID</text>
</a>
</g>
</g>
<!-- Node1&#45;&gt;Node4 -->
<g id="edge3" class="edge"><title>Node1&#45;&gt;Node4</title>
<path fill="none" stroke="midnightblue" d="M147.605,-112.745C171.836,-117.349 197.915,-122.304 219.749,-126.452"/>
<polygon fill="midnightblue" stroke="midnightblue" points="148.188,-109.293 137.711,-110.865 146.882,-116.17 148.188,-109.293"/>
</g>
<!-- Node5 -->
<g id="node5" class="node"><title>Node5</title>
<g id="a_node5"><a xlink:href="../../d3/d73/classmodel_1_1_view_options.html#a339846f716ce031a47fc77861b82a8b8" target="_top" xlink:title="model.ViewOptions.setClear">
<polygon fill="white" stroke="black" points="195.5,-88.5 195.5,-107.5 346.5,-107.5 346.5,-88.5 195.5,-88.5"/>
<text text-anchor="middle" x="271" y="-95.5" font-family="Helvetica,sans-Serif" font-size="10.00">model.ViewOptions.setClear</text>
</a>
</g>
</g>
<!-- Node1&#45;&gt;Node5 -->
<g id="edge4" class="edge"><title>Node1&#45;&gt;Node5</title>
<path fill="none" stroke="midnightblue" d="M147.874,-98C163.532,-98 179.952,-98 195.492,-98"/>
<polygon fill="midnightblue" stroke="midnightblue" points="147.711,-94.5001 137.711,-98 147.711,-101.5 147.711,-94.5001"/>
</g>
<!-- Node6 -->
<g id="node6" class="node"><title>Node6</title>
<g id="a_node6"><a xlink:href="../../d3/d73/classmodel_1_1_view_options.html#a71107c5fd8cc1e9d7e76810b2faf9baf" target="_top" xlink:title="model.ViewOptions.setClear\lStamps">
<polygon fill="white" stroke="black" points="195.5,-39 195.5,-69 346.5,-69 346.5,-39 195.5,-39"/>
<text text-anchor="start" x="203.5" y="-57" font-family="Helvetica,sans-Serif" font-size="10.00">model.ViewOptions.setClear</text>
<text text-anchor="middle" x="271" y="-46" font-family="Helvetica,sans-Serif" font-size="10.00">Stamps</text>
</a>
</g>
</g>
<!-- Node1&#45;&gt;Node6 -->
<g id="edge5" class="edge"><title>Node1&#45;&gt;Node6</title>
<path fill="none" stroke="midnightblue" d="M147.514,-80.947C165.373,-77.0179 184.242,-72.8667 201.678,-69.0308"/>
<polygon fill="midnightblue" stroke="midnightblue" points="146.725,-77.5367 137.711,-83.1036 148.229,-84.3732 146.725,-77.5367"/>
</g>
<!-- Node7 -->
<g id="node7" class="node"><title>Node7</title>
<g id="a_node7"><a xlink:href="../../d3/d73/classmodel_1_1_view_options.html#addbb9a5727839081147f5be78f00cd5f" target="_top" xlink:title="model.ViewOptions.setPaletteB">
<polygon fill="white" stroke="black" points="188,-0.5 188,-19.5 354,-19.5 354,-0.5 188,-0.5"/>
<text text-anchor="middle" x="271" y="-7.5" font-family="Helvetica,sans-Serif" font-size="10.00">model.ViewOptions.setPaletteB</text>
</a>
</g>
</g>
<!-- Node1&#45;&gt;Node7 -->
<g id="edge6" class="edge"><title>Node1&#45;&gt;Node7</title>
<path fill="none" stroke="midnightblue" d="M96.3976,-76.7221C116.536,-61.524 145.569,-41.7611 174,-30 184.462,-25.6724 195.966,-22.2435 207.265,-19.5385"/>
<polygon fill="midnightblue" stroke="midnightblue" points="94.1323,-74.0489 88.3389,-82.9194 98.3996,-79.5978 94.1323,-74.0489"/>
</g>
<!-- Node3 -->
<g id="node3" class="node"><title>Node3</title>
<g id="a_node3"><a xlink:href="../../d7/dab/classmodel_1_1_state.html#a6cbe1c79ce98503fbe2e49e81735a587" target="_top" xlink:title="model.State.State">
<polygon fill="white" stroke="black" points="404.5,-164.5 404.5,-183.5 509.5,-183.5 509.5,-164.5 404.5,-164.5"/>
<text text-anchor="middle" x="457" y="-171.5" font-family="Helvetica,sans-Serif" font-size="10.00">model.State.State</text>
</a>
</g>
</g>
<!-- Node2&#45;&gt;Node3 -->
<g id="edge2" class="edge"><title>Node2&#45;&gt;Node3</title>
<path fill="none" stroke="midnightblue" d="M355.768,-174C372.341,-174 389.274,-174 404.391,-174"/>
<polygon fill="midnightblue" stroke="midnightblue" points="355.515,-170.5 345.515,-174 355.515,-177.5 355.515,-170.5"/>
</g>
</g>
</svg>
