<?xml version="1.0" encoding="UTF-8" standalone="no"?>
<!DOCTYPE svg PUBLIC "-//W3C//DTD SVG 1.1//EN"
 "http://www.w3.org/Graphics/SVG/1.1/DTD/svg11.dtd">
<!-- Generated by graphviz version 2.36.0 (20140111.2315)
 -->
<!-- Title: model.ViewOptions.setClearStamps Pages: 1 -->
<svg width="340pt" height="87pt"
 viewBox="0.00 0.00 340.00 87.00" xmlns="http://www.w3.org/2000/svg" xmlns:xlink="http://www.w3.org/1999/xlink">
<g id="graph0" class="graph" transform="scale(1 1) rotate(0) translate(4 83)">
<title>model.ViewOptions.setClearStamps</title>
<polygon fill="white" stroke="none" points="-4,4 -4,-83 336,-83 336,4 -4,4"/>
<!-- Node1 -->
<g id="node1" class="node"><title>Node1</title>
<polygon fill="#bfbfbf" stroke="black" points="0.5,-24 0.5,-54 151.5,-54 151.5,-24 0.5,-24"/>
<text text-anchor="start" x="8.5" y="-42" font-family="Helvetica,sans-Serif" font-size="10.00">model.ViewOptions.setClear</text>
<text text-anchor="middle" x="76" y="-31" font-family="Helvetica,sans-Serif" font-size="10.00">Stamps</text>
</g>
<!-- Node2 -->
<g id="node2" class="node"><title>Node2</title>
<g id="a_node2"><a xlink:href="../../d3/d73/classmodel_1_1_view_options.html#a81b93ba4f306f2af7984b4f006d02e4a" target="_top" xlink:title="model.ViewOptions.isClear\lStamps">
<polygon fill="white" stroke="black" points="188.5,-49 188.5,-79 331.5,-79 331.5,-49 188.5,-49"/>
<text text-anchor="start" x="196.5" y="-67" font-family="Helvetica,sans-Serif" font-size="10.00">model.ViewOptions.isClear</text>
<text text-anchor="middle" x="260" y="-56" font-family="Helvetica,sans-Serif" font-size="10.00">Stamps</text>
</a>
</g>
</g>
<!-- Node1&#45;&gt;Node2 -->
<g id="edge1" class="edge"><title>Node1&#45;&gt;Node2</title>
<path fill="none" stroke="midnightblue" d="M151.551,-49.2406C160.396,-50.4555 169.454,-51.6998 178.378,-52.9256"/>
<polygon fill="midnightblue" stroke="midnightblue" points="177.994,-56.4056 188.378,-54.2991 178.947,-49.4708 177.994,-56.4056"/>
</g>
<!-- Node3 -->
<g id="node3" class="node"><title>Node3</title>
<g id="a_node3"><a xlink:href="../../d3/d73/classmodel_1_1_view_options.html#abef1fb93bd57c31edcdd2c55565c1219" target="_top" xlink:title="model.ViewOptions.notify\lObservers">
<polygon fill="white" stroke="black" points="191.5,-0 191.5,-30 328.5,-30 328.5,-0 191.5,-0"/>
<text text-anchor="start" x="199.5" y="-18" font-family="Helvetica,sans-Serif" font-size="10.00">model.ViewOptions.notify</text>
<text text-anchor="middle" x="260" y="-7" font-family="Helvetica,sans-Serif" font-size="10.00">Observers</text>
</a>
</g>
</g>
<!-- Node1&#45;&gt;Node3 -->
<g id="edge2" class="edge"><title>Node1&#45;&gt;Node3</title>
<path fill="none" stroke="midnightblue" d="M151.551,-29.169C161.315,-27.8816 171.339,-26.5597 181.155,-25.2653"/>
<polygon fill="midnightblue" stroke="midnightblue" points="181.832,-28.7064 191.289,-23.929 180.917,-21.7665 181.832,-28.7064"/>
</g>
</g>
</svg>
