<?xml version="1.0" encoding="UTF-8" standalone="no"?>
<!DOCTYPE svg PUBLIC "-//W3C//DTD SVG 1.1//EN"
 "http://www.w3.org/Graphics/SVG/1.1/DTD/svg11.dtd">
<!-- Generated by graphviz version 2.36.0 (20140111.2315)
 -->
<!-- Title: view.components.TurtleWindow Pages: 1 -->
<svg width="748pt" height="444pt"
 viewBox="0.00 0.00 748.00 443.69" xmlns="http://www.w3.org/2000/svg" xmlns:xlink="http://www.w3.org/1999/xlink">
<g id="graph0" class="graph" transform="scale(1 1) rotate(0) translate(4 439.694)">
<title>view.components.TurtleWindow</title>
<polygon fill="white" stroke="none" points="-4,4 -4,-439.694 744,-439.694 744,4 -4,4"/>
<!-- Node1 -->
<g id="node1" class="node"><title>Node1</title>
<polygon fill="#bfbfbf" stroke="black" points="576.5,-225.5 576.5,-244.5 739.5,-244.5 739.5,-225.5 576.5,-225.5"/>
<text text-anchor="middle" x="658" y="-232.5" font-family="Helvetica,sans-Serif" font-size="10.00">view.components.TurtleWindow</text>
</g>
<!-- Node2 -->
<g id="node2" class="node"><title>Node2</title>
<polygon fill="white" stroke="#bfbfbf" points="339,-412.5 339,-431.5 385,-431.5 385,-412.5 339,-412.5"/>
<text text-anchor="middle" x="362" y="-419.5" font-family="Helvetica,sans-Serif" font-size="10.00">Group</text>
</g>
<!-- Node2&#45;&gt;Node1 -->
<g id="edge1" class="edge"><title>Node2&#45;&gt;Node1</title>
<path fill="none" stroke="midnightblue" d="M395.206,-429.238C436.313,-436.609 508.073,-443.026 558,-412 621.997,-372.23 648.179,-275.264 655.048,-244.518"/>
<polygon fill="midnightblue" stroke="midnightblue" points="395.683,-425.766 385.202,-427.315 394.362,-432.64 395.683,-425.766"/>
</g>
<!-- Node2&#45;&gt;Node1 -->
<g id="edge13" class="edge"><title>Node2&#45;&gt;Node1</title>
<path fill="none" stroke="#9a32cd" stroke-dasharray="5,2" d="M395.281,-414.811C410.459,-410.839 428.568,-405.228 444,-398 452.707,-393.922 453.132,-389.715 462,-386 502.198,-369.161 521.179,-389.317 558,-366 607.373,-334.734 641.156,-269.539 652.657,-244.803"/>
<polygon fill="#9a32cd" stroke="#9a32cd" points="394.166,-411.482 385.311,-417.3 395.861,-418.274 394.166,-411.482"/>
<text text-anchor="middle" x="510" y="-400" font-family="Helvetica,sans-Serif" font-size="10.00"> myTImages</text>
<text text-anchor="middle" x="510" y="-389" font-family="Helvetica,sans-Serif" font-size="10.00">myLayers</text>
</g>
<!-- Node3 -->
<g id="node3" class="node"><title>Node3</title>
<g id="a_node3"><a xlink:href="../../dd/db2/interfaceview_1_1components_1_1_observer.html" target="_top" xlink:title="view.components.Observer">
<polygon fill="white" stroke="black" points="289,-369.5 289,-388.5 435,-388.5 435,-369.5 289,-369.5"/>
<text text-anchor="middle" x="362" y="-376.5" font-family="Helvetica,sans-Serif" font-size="10.00">view.components.Observer</text>
</a>
</g>
</g>
<!-- Node3&#45;&gt;Node1 -->
<g id="edge2" class="edge"><title>Node3&#45;&gt;Node1</title>
<path fill="none" stroke="midnightblue" d="M445.158,-371.572C481.474,-365.663 523.635,-355.052 558,-336 600.519,-312.427 636.489,-264.9 650.605,-244.574"/>
<polygon fill="midnightblue" stroke="midnightblue" points="444.436,-368.142 435.082,-373.118 445.497,-375.061 444.436,-368.142"/>
</g>
<!-- Node4 -->
<g id="node4" class="node"><title>Node4</title>
<polygon fill="white" stroke="#bfbfbf" points="280,-320 280,-350 444,-350 444,-320 280,-320"/>
<text text-anchor="start" x="288" y="-338" font-family="Helvetica,sans-Serif" font-size="10.00">HashMap&lt; Integer, view.turtle.</text>
<text text-anchor="middle" x="362" y="-327" font-family="Helvetica,sans-Serif" font-size="10.00">TurtleImage &gt;</text>
</g>
<!-- Node4&#45;&gt;Node1 -->
<g id="edge3" class="edge"><title>Node4&#45;&gt;Node1</title>
<path fill="none" stroke="#9a32cd" stroke-dasharray="5,2" d="M454.607,-322.183C487.867,-315.864 525.293,-306.774 558,-294 590.988,-281.116 625.686,-257.844 643.96,-244.707"/>
<polygon fill="#9a32cd" stroke="#9a32cd" points="453.629,-318.804 444.428,-324.056 454.896,-325.688 453.629,-318.804"/>
<text text-anchor="middle" x="510" y="-324" font-family="Helvetica,sans-Serif" font-size="10.00"> myTurtles</text>
</g>
<!-- Node5 -->
<g id="node5" class="node"><title>Node5</title>
<polygon fill="white" stroke="#bfbfbf" points="322,-281.5 322,-300.5 402,-300.5 402,-281.5 322,-281.5"/>
<text text-anchor="middle" x="362" y="-288.5" font-family="Helvetica,sans-Serif" font-size="10.00">ContextMenu</text>
</g>
<!-- Node5&#45;&gt;Node1 -->
<g id="edge4" class="edge"><title>Node5&#45;&gt;Node1</title>
<path fill="none" stroke="#9a32cd" stroke-dasharray="5,2" d="M412.019,-285.346C451.627,-280.386 508.698,-272.351 558,-262 580.84,-257.205 606.228,-250.247 625.576,-244.596"/>
<polygon fill="#9a32cd" stroke="#9a32cd" points="411.585,-281.873 402.089,-286.571 412.443,-288.82 411.585,-281.873"/>
<text text-anchor="middle" x="510" y="-282" font-family="Helvetica,sans-Serif" font-size="10.00"> contextMenu</text>
</g>
<!-- Node6 -->
<g id="node6" class="node"><title>Node6</title>
<g id="a_node6"><a xlink:href="../../d5/d46/classview_1_1components_1_1_palette.html" target="_top" xlink:title="view.components.Palette">
<polygon fill="white" stroke="black" points="294.5,-243.5 294.5,-262.5 429.5,-262.5 429.5,-243.5 294.5,-243.5"/>
<text text-anchor="middle" x="362" y="-250.5" font-family="Helvetica,sans-Serif" font-size="10.00">view.components.Palette</text>
</a>
</g>
</g>
<!-- Node6&#45;&gt;Node1 -->
<g id="edge5" class="edge"><title>Node6&#45;&gt;Node1</title>
<path fill="none" stroke="#9a32cd" stroke-dasharray="5,2" d="M439.888,-248.293C481.888,-245.721 533.86,-242.539 576.423,-239.933"/>
<polygon fill="#9a32cd" stroke="#9a32cd" points="439.481,-244.811 429.713,-248.916 439.908,-251.798 439.481,-244.811"/>
<text text-anchor="middle" x="510" y="-250" font-family="Helvetica,sans-Serif" font-size="10.00"> myPalette</text>
</g>
<!-- Node7 -->
<g id="node7" class="node"><title>Node7</title>
<polygon fill="white" stroke="#bfbfbf" points="0.5,-263 0.5,-293 155.5,-293 155.5,-263 0.5,-263"/>
<text text-anchor="start" x="8.5" y="-281" font-family="Helvetica,sans-Serif" font-size="10.00">ArrayList&lt; view.components.</text>
<text text-anchor="middle" x="78" y="-270" font-family="Helvetica,sans-Serif" font-size="10.00">ImageIndex &gt;</text>
</g>
<!-- Node7&#45;&gt;Node6 -->
<g id="edge6" class="edge"><title>Node7&#45;&gt;Node6</title>
<path fill="none" stroke="#9a32cd" stroke-dasharray="5,2" d="M165.769,-270.308C207.183,-266.636 255.961,-262.312 294.4,-258.904"/>
<polygon fill="#9a32cd" stroke="#9a32cd" points="165.337,-266.832 155.685,-271.202 165.955,-273.805 165.337,-266.832"/>
<text text-anchor="middle" x="218" y="-273" font-family="Helvetica,sans-Serif" font-size="10.00"> myImagePalettes</text>
</g>
<!-- Node8 -->
<g id="node8" class="node"><title>Node8</title>
<polygon fill="white" stroke="#bfbfbf" points="0.5,-214 0.5,-244 155.5,-244 155.5,-214 0.5,-214"/>
<text text-anchor="start" x="8.5" y="-232" font-family="Helvetica,sans-Serif" font-size="10.00">ArrayList&lt; view.components.</text>
<text text-anchor="middle" x="78" y="-221" font-family="Helvetica,sans-Serif" font-size="10.00">ColorIndex &gt;</text>
</g>
<!-- Node8&#45;&gt;Node6 -->
<g id="edge7" class="edge"><title>Node8&#45;&gt;Node6</title>
<path fill="none" stroke="#9a32cd" stroke-dasharray="5,2" d="M165.769,-236.385C207.183,-239.909 255.961,-244.061 294.4,-247.332"/>
<polygon fill="#9a32cd" stroke="#9a32cd" points="165.946,-232.887 155.685,-235.526 165.352,-239.862 165.946,-232.887"/>
<text text-anchor="middle" x="218" y="-248" font-family="Helvetica,sans-Serif" font-size="10.00"> myColorPalettes</text>
</g>
<!-- Node9 -->
<g id="node9" class="node"><title>Node9</title>
<polygon fill="white" stroke="#bfbfbf" points="316.5,-205.5 316.5,-224.5 407.5,-224.5 407.5,-205.5 316.5,-205.5"/>
<text text-anchor="middle" x="362" y="-212.5" font-family="Helvetica,sans-Serif" font-size="10.00">IntegerProperty</text>
</g>
<!-- Node9&#45;&gt;Node1 -->
<g id="edge8" class="edge"><title>Node9&#45;&gt;Node1</title>
<path fill="none" stroke="#9a32cd" stroke-dasharray="5,2" d="M417.662,-218.083C456.763,-220.357 510.638,-223.629 558,-227 563.934,-227.422 570.067,-227.876 576.237,-228.345"/>
<polygon fill="#9a32cd" stroke="#9a32cd" points="417.734,-214.581 407.548,-217.498 417.329,-221.57 417.734,-214.581"/>
<text text-anchor="middle" x="510" y="-230" font-family="Helvetica,sans-Serif" font-size="10.00"> bgColorID</text>
</g>
<!-- Node10 -->
<g id="node10" class="node"><title>Node10</title>
<polygon fill="white" stroke="#bfbfbf" points="314,-167.5 314,-186.5 410,-186.5 410,-167.5 314,-167.5"/>
<text text-anchor="middle" x="362" y="-174.5" font-family="Helvetica,sans-Serif" font-size="10.00">GraphicsContext</text>
</g>
<!-- Node10&#45;&gt;Node1 -->
<g id="edge9" class="edge"><title>Node10&#45;&gt;Node1</title>
<path fill="none" stroke="#9a32cd" stroke-dasharray="5,2" d="M420.344,-183.425C459.394,-188.313 512.123,-195.919 558,-206 581.965,-211.266 608.632,-219.201 628.247,-225.44"/>
<polygon fill="#9a32cd" stroke="#9a32cd" points="420.57,-179.926 410.218,-182.179 419.716,-186.874 420.57,-179.926"/>
<text text-anchor="middle" x="510" y="-209" font-family="Helvetica,sans-Serif" font-size="10.00"> mainGC</text>
</g>
<!-- Node11 -->
<g id="node11" class="node"><title>Node11</title>
<polygon fill="white" stroke="#bfbfbf" points="340.5,-129.5 340.5,-148.5 383.5,-148.5 383.5,-129.5 340.5,-129.5"/>
<text text-anchor="middle" x="362" y="-136.5" font-family="Helvetica,sans-Serif" font-size="10.00">Menu</text>
</g>
<!-- Node11&#45;&gt;Node1 -->
<g id="edge10" class="edge"><title>Node11&#45;&gt;Node1</title>
<path fill="none" stroke="#9a32cd" stroke-dasharray="5,2" d="M393.788,-138.362C433.215,-138.559 503.012,-142.366 558,-164 594.806,-178.481 630.665,-209.69 647.322,-225.463"/>
<polygon fill="#9a32cd" stroke="#9a32cd" points="393.735,-134.862 383.744,-138.388 393.753,-141.862 393.735,-134.862"/>
<text text-anchor="middle" x="510" y="-178" font-family="Helvetica,sans-Serif" font-size="10.00"> imagePalettes</text>
<text text-anchor="middle" x="510" y="-167" font-family="Helvetica,sans-Serif" font-size="10.00">colorPalettes</text>
</g>
<!-- Node12 -->
<g id="node12" class="node"><title>Node12</title>
<polygon fill="white" stroke="#bfbfbf" points="324,-88.5 324,-107.5 400,-107.5 400,-88.5 324,-88.5"/>
<text text-anchor="middle" x="362" y="-95.5" font-family="Helvetica,sans-Serif" font-size="10.00">ToggleGroup</text>
</g>
<!-- Node12&#45;&gt;Node1 -->
<g id="edge11" class="edge"><title>Node12&#45;&gt;Node1</title>
<path fill="none" stroke="#9a32cd" stroke-dasharray="5,2" d="M410.288,-92.9518C451.638,-90.7038 512.087,-92.8088 558,-117 606.026,-142.305 640.137,-201.676 652.202,-225.175"/>
<polygon fill="#9a32cd" stroke="#9a32cd" points="409.959,-89.4656 400.207,-93.6063 410.413,-96.4509 409.959,-89.4656"/>
<text text-anchor="middle" x="510" y="-131" font-family="Helvetica,sans-Serif" font-size="10.00"> imagePaletteGroup</text>
<text text-anchor="middle" x="510" y="-120" font-family="Helvetica,sans-Serif" font-size="10.00">colorPaletteGroup</text>
</g>
<!-- Node13 -->
<g id="node13" class="node"><title>Node13</title>
<polygon fill="white" stroke="#bfbfbf" points="284.5,-39 284.5,-69 439.5,-69 439.5,-39 284.5,-39"/>
<text text-anchor="start" x="292.5" y="-57" font-family="Helvetica,sans-Serif" font-size="10.00">HashMap&lt; Integer, Graphics</text>
<text text-anchor="middle" x="362" y="-46" font-family="Helvetica,sans-Serif" font-size="10.00">Context &gt;</text>
</g>
<!-- Node13&#45;&gt;Node1 -->
<g id="edge12" class="edge"><title>Node13&#45;&gt;Node1</title>
<path fill="none" stroke="#9a32cd" stroke-dasharray="5,2" d="M450.336,-49.4784C486.1,-51.4488 526.413,-58.9132 558,-79 614.842,-115.146 645.046,-196.965 654.065,-225.201"/>
<polygon fill="#9a32cd" stroke="#9a32cd" points="450.026,-45.9627 439.891,-49.0486 449.739,-52.9568 450.026,-45.9627"/>
<text text-anchor="middle" x="510" y="-82" font-family="Helvetica,sans-Serif" font-size="10.00"> gc</text>
</g>
<!-- Node14 -->
<g id="node14" class="node"><title>Node14</title>
<polygon fill="white" stroke="#bfbfbf" points="336,-0.5 336,-19.5 388,-19.5 388,-0.5 336,-0.5"/>
<text text-anchor="middle" x="362" y="-7.5" font-family="Helvetica,sans-Serif" font-size="10.00">Canvas</text>
</g>
<!-- Node14&#45;&gt;Node1 -->
<g id="edge14" class="edge"><title>Node14&#45;&gt;Node1</title>
<path fill="none" stroke="#9a32cd" stroke-dasharray="5,2" d="M398.181,-5.40126C440.208,-1.84081 510.75,-2.20676 558,-36 625.795,-84.4871 649.665,-192.823 655.47,-225.494"/>
<polygon fill="#9a32cd" stroke="#9a32cd" points="397.759,-1.92572 388.142,-6.3731 398.433,-8.89315 397.759,-1.92572"/>
<text text-anchor="middle" x="510" y="-39" font-family="Helvetica,sans-Serif" font-size="10.00"> mainCanvas</text>
</g>
</g>
</svg>
