<?xml version="1.0" encoding="UTF-8" standalone="no"?>
<!DOCTYPE svg PUBLIC "-//W3C//DTD SVG 1.1//EN"
 "http://www.w3.org/Graphics/SVG/1.1/DTD/svg11.dtd">
<!-- Generated by graphviz version 2.36.0 (20140111.2315)
 -->
<!-- Title: model.ScopedVariablesCollection Pages: 1 -->
<svg width="628pt" height="104pt"
 viewBox="0.00 0.00 628.00 104.00" xmlns="http://www.w3.org/2000/svg" xmlns:xlink="http://www.w3.org/1999/xlink">
<g id="graph0" class="graph" transform="scale(1 1) rotate(0) translate(4 100)">
<title>model.ScopedVariablesCollection</title>
<polygon fill="white" stroke="none" points="-4,4 -4,-100 624,-100 624,4 -4,4"/>
<!-- Node1 -->
<g id="node1" class="node"><title>Node1</title>
<polygon fill="#bfbfbf" stroke="black" points="444,-38.5 444,-57.5 620,-57.5 620,-38.5 444,-38.5"/>
<text text-anchor="middle" x="532" y="-45.5" font-family="Helvetica,sans-Serif" font-size="10.00">model.ScopedVariablesCollection</text>
</g>
<!-- Node2 -->
<g id="node2" class="node"><title>Node2</title>
<g id="a_node2"><a xlink:href="../../df/d15/interfacemodel_1_1_i_variables_collection.html" target="_top" xlink:title="model.IVariablesCollection">
<polygon fill="white" stroke="black" points="164,-76.5 164,-95.5 306,-95.5 306,-76.5 164,-76.5"/>
<text text-anchor="middle" x="235" y="-83.5" font-family="Helvetica,sans-Serif" font-size="10.00">model.IVariablesCollection</text>
</a>
</g>
</g>
<!-- Node2&#45;&gt;Node1 -->
<g id="edge1" class="edge"><title>Node2&#45;&gt;Node1</title>
<path fill="none" stroke="midnightblue" d="M316.712,-76.6167C350.501,-72.588 390.176,-67.7266 426,-63 438.87,-61.3019 452.615,-59.4014 465.777,-57.5389"/>
<polygon fill="midnightblue" stroke="midnightblue" points="315.943,-73.1834 306.426,-77.8392 316.769,-80.1345 315.943,-73.1834"/>
</g>
<!-- Node3 -->
<g id="node3" class="node"><title>Node3</title>
<g id="a_node3"><a xlink:href="../../dc/ddc/interfacemodel_1_1_observable.html" target="_top" xlink:title="model.Observable">
<polygon fill="white" stroke="black" points="0,-76.5 0,-95.5 104,-95.5 104,-76.5 0,-76.5"/>
<text text-anchor="middle" x="52" y="-83.5" font-family="Helvetica,sans-Serif" font-size="10.00">model.Observable</text>
</a>
</g>
</g>
<!-- Node3&#45;&gt;Node2 -->
<g id="edge2" class="edge"><title>Node3&#45;&gt;Node2</title>
<path fill="none" stroke="midnightblue" d="M114.593,-86C130.456,-86 147.643,-86 163.903,-86"/>
<polygon fill="midnightblue" stroke="midnightblue" points="114.383,-82.5001 104.383,-86 114.383,-89.5001 114.383,-82.5001"/>
</g>
<!-- Node4 -->
<g id="node4" class="node"><title>Node4</title>
<polygon fill="white" stroke="#bfbfbf" points="145.5,-38.5 145.5,-57.5 324.5,-57.5 324.5,-38.5 145.5,-38.5"/>
<text text-anchor="middle" x="235" y="-45.5" font-family="Helvetica,sans-Serif" font-size="10.00">List&lt; model.VariablesCollection &gt;</text>
</g>
<!-- Node4&#45;&gt;Node1 -->
<g id="edge3" class="edge"><title>Node4&#45;&gt;Node1</title>
<path fill="none" stroke="#9a32cd" stroke-dasharray="5,2" d="M334.828,-48C370.115,-48 409.588,-48 443.823,-48"/>
<polygon fill="#9a32cd" stroke="#9a32cd" points="334.51,-44.5001 324.51,-48 334.51,-51.5001 334.51,-44.5001"/>
<text text-anchor="middle" x="386" y="-51" font-family="Helvetica,sans-Serif" font-size="10.00"> collectionStack</text>
</g>
<!-- Node5 -->
<g id="node5" class="node"><title>Node5</title>
<polygon fill="white" stroke="#bfbfbf" points="142.5,-0.5 142.5,-19.5 327.5,-19.5 327.5,-0.5 142.5,-0.5"/>
<text text-anchor="middle" x="235" y="-7.5" font-family="Helvetica,sans-Serif" font-size="10.00">List&lt; view.components.Observer &gt;</text>
</g>
<!-- Node5&#45;&gt;Node1 -->
<g id="edge4" class="edge"><title>Node5&#45;&gt;Node1</title>
<path fill="none" stroke="#9a32cd" stroke-dasharray="5,2" d="M327.857,-20.7169C359.028,-24.4608 394.046,-28.784 426,-33 438.87,-34.6981 452.615,-36.5986 465.777,-38.4611"/>
<polygon fill="#9a32cd" stroke="#9a32cd" points="328.225,-17.2361 317.88,-19.5226 327.393,-24.1865 328.225,-17.2361"/>
<text text-anchor="middle" x="386" y="-36" font-family="Helvetica,sans-Serif" font-size="10.00"> myObserverList</text>
</g>
</g>
</svg>
