<?xml version="1.0" encoding="UTF-8" standalone="no"?>
<!DOCTYPE svg PUBLIC "-//W3C//DTD SVG 1.1//EN"
 "http://www.w3.org/Graphics/SVG/1.1/DTD/svg11.dtd">
<!-- Generated by graphviz version 2.36.0 (20140111.2315)
 -->
<!-- Title: parser.commands.ToInstance.execute Pages: 1 -->
<!--zoomable 252 -->
<svg id="main" version="1.1" xmlns="http://www.w3.org/2000/svg" xmlns:xlink="http://www.w3.org/1999/xlink" xml:space="preserve" onload="init(evt)">
<style type="text/css"><![CDATA[
.edge:hover path { stroke: red; }
.edge:hover polygon { stroke: red; fill: red; }
]]></style>
<script type="text/javascript"><![CDATA[
var edges = document.getElementsByTagName('g');
if (edges && edges.length) {
  for (var i=0;i<edges.length;i++) {
    if (edges[i].id.substr(0,4)=='edge') {
      edges[i].setAttribute('class','edge');
    }
  }
}
]]></script>
        <defs>
                <circle id="rim" cx="0" cy="0" r="7"/>
                <circle id="rim2" cx="0" cy="0" r="3.5"/>
                <g id="zoomPlus">
                        <use xlink:href="#rim" fill="#404040">
                                <set attributeName="fill" to="#808080" begin="zoomplus.mouseover" end="zoomplus.mouseout"/>
                        </use>
                        <path d="M-4,0h8M0,-4v8" fill="none" stroke="white" stroke-width="1.5" pointer-events="none"/>
                </g>
                <g id="zoomMin">
                        <use xlink:href="#rim" fill="#404040">
                                <set attributeName="fill" to="#808080" begin="zoomminus.mouseover" end="zoomminus.mouseout"/>
                        </use>
                        <path d="M-4,0h8" fill="none" stroke="white" stroke-width="1.5" pointer-events="none"/>
                </g>
                <g id="dirArrow">
                        <path fill="none" stroke="white" stroke-width="1.5" d="M0,-3.0v7 M-2.5,-0.5L0,-3.0L2.5,-0.5"/>
                </g>
               <g id="resetDef">
                       <use xlink:href="#rim2" fill="#404040">
                               <set attributeName="fill" to="#808080" begin="reset.mouseover" end="reset.mouseout"/>
                       </use>
               </g>
        </defs>

<script type="text/javascript">
var viewWidth = 620;
var viewHeight = 252;
var sectionId = 'dynsection-3';
</script>
<script xlink:href="../../svgpan.js"/>
<svg id="graph" class="graph">
<g id="viewport">
<title>parser.commands.ToInstance.execute</title>
<polygon fill="white" stroke="none" points="-4,4 -4,-248 616,-248 616,4 -4,4"/>
<!-- Node1 -->
<g id="node1" class="node"><title>Node1</title>
<polygon fill="#bfbfbf" stroke="black" points="0,-109.5 0,-128.5 198,-128.5 198,-109.5 0,-109.5"/>
<text text-anchor="middle" x="99" y="-116.5" font-family="Helvetica,sans-Serif" font-size="10.00">parser.commands.ToInstance.execute</text>
</g>
<!-- Node2 -->
<g id="node2" class="node"><title>Node2</title>
<g id="a_node2"><a xlink:href="../../df/d15/interfacemodel_1_1_i_variables_collection.html#a9660eaebee3781a6fceb2964f4de2e42" target="_top" xlink:title="model.IVariablesCollection.enter\lScope">
<polygon fill="white" stroke="black" points="237,-214 237,-244 407,-244 407,-214 237,-214"/>
<text text-anchor="start" x="245" y="-232" font-family="Helvetica,sans-Serif" font-size="10.00">model.IVariablesCollection.enter</text>
<text text-anchor="middle" x="322" y="-221" font-family="Helvetica,sans-Serif" font-size="10.00">Scope</text>
</a>
</g>
</g>
<!-- Node1&#45;&gt;Node2 -->
<g id="edge1" class="edge"><title>Node1&#45;&gt;Node2</title>
<path fill="none" stroke="midnightblue" d="M112.608,-128.756C135.571,-146.11 186.26,-182.534 234,-204 239.326,-206.395 244.938,-208.621 250.642,-210.677"/>
<polygon fill="midnightblue" stroke="midnightblue" points="249.698,-214.053 260.293,-213.976 251.963,-207.429 249.698,-214.053"/>
</g>
<!-- Node3 -->
<g id="node3" class="node"><title>Node3</title>
<g id="a_node3"><a xlink:href="../../d4/d1c/classparser_1_1nodes_1_1_list_node.html#a82a3418e343a5d6ed112be4b7b2b0282" target="_top" xlink:title="parser.nodes.ListNode.execute">
<polygon fill="white" stroke="black" points="239.5,-175.5 239.5,-194.5 404.5,-194.5 404.5,-175.5 239.5,-175.5"/>
<text text-anchor="middle" x="322" y="-182.5" font-family="Helvetica,sans-Serif" font-size="10.00">parser.nodes.ListNode.execute</text>
</a>
</g>
</g>
<!-- Node1&#45;&gt;Node3 -->
<g id="edge2" class="edge"><title>Node1&#45;&gt;Node3</title>
<path fill="none" stroke="midnightblue" d="M125.436,-128.623C152.203,-138.54 195.687,-154.053 234,-165 244.051,-167.872 254.844,-170.619 265.291,-173.107"/>
<polygon fill="midnightblue" stroke="midnightblue" points="264.633,-176.547 275.166,-175.409 266.222,-169.73 264.633,-176.547"/>
</g>
<!-- Node5 -->
<g id="node5" class="node"><title>Node5</title>
<g id="a_node5"><a xlink:href="../../df/d15/interfacemodel_1_1_i_variables_collection.html#aa87214f0ebd737c7e81234a424b56e56" target="_top" xlink:title="model.IVariablesCollection.exit\lScope">
<polygon fill="white" stroke="black" points="241,-126 241,-156 403,-156 403,-126 241,-126"/>
<text text-anchor="start" x="249" y="-144" font-family="Helvetica,sans-Serif" font-size="10.00">model.IVariablesCollection.exit</text>
<text text-anchor="middle" x="322" y="-133" font-family="Helvetica,sans-Serif" font-size="10.00">Scope</text>
</a>
</g>
</g>
<!-- Node1&#45;&gt;Node5 -->
<g id="edge5" class="edge"><title>Node1&#45;&gt;Node5</title>
<path fill="none" stroke="midnightblue" d="M195.648,-128.522C207.288,-129.68 219.151,-130.861 230.708,-132.012"/>
<polygon fill="midnightblue" stroke="midnightblue" points="230.476,-135.506 240.773,-133.014 231.169,-128.54 230.476,-135.506"/>
</g>
<!-- Node6 -->
<g id="node6" class="node"><title>Node6</title>
<g id="a_node6"><a xlink:href="../../d4/d1c/classparser_1_1nodes_1_1_list_node.html#a20dc3121f383968aade0535bbe80b015" target="_top" xlink:title="parser.nodes.ListNode.getNode">
<polygon fill="white" stroke="black" points="238,-87.5 238,-106.5 406,-106.5 406,-87.5 238,-87.5"/>
<text text-anchor="middle" x="322" y="-94.5" font-family="Helvetica,sans-Serif" font-size="10.00">parser.nodes.ListNode.getNode</text>
</a>
</g>
</g>
<!-- Node1&#45;&gt;Node6 -->
<g id="edge6" class="edge"><title>Node1&#45;&gt;Node6</title>
<path fill="none" stroke="midnightblue" d="M195.648,-109.478C206.257,-108.422 217.051,-107.348 227.631,-106.295"/>
<polygon fill="midnightblue" stroke="midnightblue" points="228.091,-109.766 237.695,-105.293 227.398,-102.801 228.091,-109.766"/>
</g>
<!-- Node7 -->
<g id="node7" class="node"><title>Node7</title>
<g id="a_node7"><a xlink:href="../../d4/d1c/classparser_1_1nodes_1_1_list_node.html#a06d95a825392910e4f1744c706c658df" target="_top" xlink:title="parser.nodes.ListNode.getSize">
<polygon fill="white" stroke="black" points="240.5,-49.5 240.5,-68.5 403.5,-68.5 403.5,-49.5 240.5,-49.5"/>
<text text-anchor="middle" x="322" y="-56.5" font-family="Helvetica,sans-Serif" font-size="10.00">parser.nodes.ListNode.getSize</text>
</a>
</g>
</g>
<!-- Node1&#45;&gt;Node7 -->
<g id="edge7" class="edge"><title>Node1&#45;&gt;Node7</title>
<path fill="none" stroke="midnightblue" d="M128.819,-109.433C155.824,-100.648 197.402,-87.5781 234,-78 243.647,-75.4753 253.955,-73.0167 263.98,-70.7511"/>
<polygon fill="midnightblue" stroke="midnightblue" points="264.871,-74.1387 273.875,-68.5546 263.354,-67.305 264.871,-74.1387"/>
</g>
<!-- Node8 -->
<g id="node8" class="node"><title>Node8</title>
<g id="a_node8"><a xlink:href="../../d0/dc0/classparser_1_1commands_1_1_to_instance.html#ac29ad0b695e4f9dc85b00a2ba3a7393f" target="_top" xlink:title="parser.commands.ToInstance.set\lVariable">
<polygon fill="white" stroke="black" points="234.5,-0 234.5,-30 409.5,-30 409.5,-0 234.5,-0"/>
<text text-anchor="start" x="242.5" y="-18" font-family="Helvetica,sans-Serif" font-size="10.00">parser.commands.ToInstance.set</text>
<text text-anchor="middle" x="322" y="-7" font-family="Helvetica,sans-Serif" font-size="10.00">Variable</text>
</a>
</g>
</g>
<!-- Node1&#45;&gt;Node8 -->
<g id="edge8" class="edge"><title>Node1&#45;&gt;Node8</title>
<path fill="none" stroke="midnightblue" d="M113.469,-109.486C136.956,-93.264 187.361,-60.0635 234,-40 239.456,-37.6527 245.198,-35.4535 251.022,-33.41"/>
<polygon fill="midnightblue" stroke="midnightblue" points="252.491,-36.6094 260.865,-30.119 250.271,-29.9707 252.491,-36.6094"/>
</g>
<!-- Node4 -->
<g id="node4" class="node"><title>Node4</title>
<g id="a_node4"><a xlink:href="../../d4/d1c/classparser_1_1nodes_1_1_list_node.html#a8f67ed3b41ee000feaf89f783def5697" target="_top" xlink:title="parser.nodes.ListNode.execute\lNodes">
<polygon fill="white" stroke="black" points="446.5,-170 446.5,-200 611.5,-200 611.5,-170 446.5,-170"/>
<text text-anchor="start" x="454.5" y="-188" font-family="Helvetica,sans-Serif" font-size="10.00">parser.nodes.ListNode.execute</text>
<text text-anchor="middle" x="529" y="-177" font-family="Helvetica,sans-Serif" font-size="10.00">Nodes</text>
</a>
</g>
</g>
<!-- Node3&#45;&gt;Node4 -->
<g id="edge3" class="edge"><title>Node3&#45;&gt;Node4</title>
<path fill="none" stroke="midnightblue" d="M404.61,-178.376C415.018,-178.249 425.726,-178.218 436.279,-178.283"/>
<polygon fill="midnightblue" stroke="midnightblue" points="436.304,-181.784 446.335,-178.376 436.368,-174.784 436.304,-181.784"/>
</g>
<!-- Node4&#45;&gt;Node3 -->
<g id="edge4" class="edge"><title>Node4&#45;&gt;Node3</title>
<path fill="none" stroke="midnightblue" d="M446.335,-191.624C435.927,-191.751 425.219,-191.782 414.666,-191.716"/>
<polygon fill="midnightblue" stroke="midnightblue" points="414.642,-188.216 404.61,-191.624 414.578,-195.216 414.642,-188.216"/>
</g>
</g>
</svg>
        <g id="navigator" transform="translate(0 0)" fill="#404254">
                <rect fill="#f2f5e9" fill-opacity="0.5" stroke="#606060" stroke-width=".5" x="0" y="0" width="60" height="60"/>
                <use id="zoomplus" xlink:href="#zoomPlus" x="17" y="9" onmousedown="handleZoom(evt,'in')"/>
                <use id="zoomminus" xlink:href="#zoomMin" x="42" y="9" onmousedown="handleZoom(evt,'out')"/>
                <use id="reset" xlink:href="#resetDef" x="30" y="36" onmousedown="handleReset()"/>
                <g id="arrowUp" xlink:href="#dirArrow" transform="translate(30 24)" onmousedown="handlePan(0,-1)">
                  <use xlink:href="#rim" fill="#404040">
                        <set attributeName="fill" to="#808080" begin="arrowUp.mouseover" end="arrowUp.mouseout"/>
                  </use>
                  <path fill="none" stroke="white" stroke-width="1.5" d="M0,-3.0v7 M-2.5,-0.5L0,-3.0L2.5,-0.5"/>
                </g>
                <g id="arrowRight" xlink:href="#dirArrow" transform="rotate(90) translate(36 -43)" onmousedown="handlePan(1,0)">
                  <use xlink:href="#rim" fill="#404040">
                        <set attributeName="fill" to="#808080" begin="arrowRight.mouseover" end="arrowRight.mouseout"/>
                  </use>
                  <path fill="none" stroke="white" stroke-width="1.5" d="M0,-3.0v7 M-2.5,-0.5L0,-3.0L2.5,-0.5"/>
                </g>
                <g id="arrowDown" xlink:href="#dirArrow" transform="rotate(180) translate(-30 -48)" onmousedown="handlePan(0,1)">
                  <use xlink:href="#rim" fill="#404040">
                        <set attributeName="fill" to="#808080" begin="arrowDown.mouseover" end="arrowDown.mouseout"/>
                  </use>
                  <path fill="none" stroke="white" stroke-width="1.5" d="M0,-3.0v7 M-2.5,-0.5L0,-3.0L2.5,-0.5"/>
                </g>
                <g id="arrowLeft" xlink:href="#dirArrow" transform="rotate(270) translate(-36 17)" onmousedown="handlePan(-1,0)">
                  <use xlink:href="#rim" fill="#404040">
                        <set attributeName="fill" to="#808080" begin="arrowLeft.mouseover" end="arrowLeft.mouseout"/>
                  </use>
                  <path fill="none" stroke="white" stroke-width="1.5" d="M0,-3.0v7 M-2.5,-0.5L0,-3.0L2.5,-0.5"/>
                </g>
        </g>
        <svg viewBox="0 0 15 15" width="100%" height="30px" preserveAspectRatio="xMaxYMin meet">
         <g id="arrow_out" transform="scale(0.3 0.3)">
          <a xlink:href="classparser_1_1commands_1_1_to_instance_a8f4cda9acc56d7b3f166d95a059b3f36_cgraph_org.svg" target="_base">
           <rect id="button" ry="5" rx="5" y="6" x="6" height="38" width="38"
                fill="#f2f5e9" fill-opacity="0.5" stroke="#606060" stroke-width="1.0"/>
           <path id="arrow"
             d="M 11.500037,31.436501 C 11.940474,20.09759 22.043105,11.32322 32.158766,21.979434 L 37.068811,17.246167 C 37.068811,17.246167 37.088388,32 37.088388,32 L 22.160133,31.978069 C 22.160133,31.978069 26.997745,27.140456 26.997745,27.140456 C 18.528582,18.264221 13.291696,25.230495 11.500037,31.436501 z"
             style="fill:#404040;"/>
          </a>
         </g>
        </svg>
</svg>
