<?xml version="1.0" encoding="UTF-8" standalone="no"?>
<!DOCTYPE svg PUBLIC "-//W3C//DTD SVG 1.1//EN"
 "http://www.w3.org/Graphics/SVG/1.1/DTD/svg11.dtd">
<!-- Generated by graphviz version 2.36.0 (20140111.2315)
 -->
<!-- Title: parser.commands.ToInstance.ToInstance Pages: 1 -->
<svg width="368pt" height="126pt"
 viewBox="0.00 0.00 368.00 126.00" xmlns="http://www.w3.org/2000/svg" xmlns:xlink="http://www.w3.org/1999/xlink">
<g id="graph0" class="graph" transform="scale(1 1) rotate(0) translate(4 122)">
<title>parser.commands.ToInstance.ToInstance</title>
<polygon fill="white" stroke="none" points="-4,4 -4,-122 364,-122 364,4 -4,4"/>
<!-- Node1 -->
<g id="node1" class="node"><title>Node1</title>
<polygon fill="#bfbfbf" stroke="black" points="0,-44 0,-74 160,-74 160,-44 0,-44"/>
<text text-anchor="start" x="8" y="-62" font-family="Helvetica,sans-Serif" font-size="10.00">parser.commands.ToInstance.</text>
<text text-anchor="middle" x="80" y="-51" font-family="Helvetica,sans-Serif" font-size="10.00">ToInstance</text>
</g>
<!-- Node2 -->
<g id="node2" class="node"><title>Node2</title>
<g id="a_node2"><a xlink:href="../../db/d3e/classparser_1_1commands_1_1_to_data.html#af88f8d86999fbeeddcaf151cab635e0f" target="_top" xlink:title="parser.commands.ToData.get\lCommandList">
<polygon fill="white" stroke="black" points="199,-88 199,-118 357,-118 357,-88 199,-88"/>
<text text-anchor="start" x="207" y="-106" font-family="Helvetica,sans-Serif" font-size="10.00">parser.commands.ToData.get</text>
<text text-anchor="middle" x="278" y="-95" font-family="Helvetica,sans-Serif" font-size="10.00">CommandList</text>
</a>
</g>
</g>
<!-- Node1&#45;&gt;Node2 -->
<g id="edge1" class="edge"><title>Node1&#45;&gt;Node2</title>
<path fill="none" stroke="midnightblue" d="M147.904,-74.0192C164.683,-77.786 182.819,-81.8574 200.045,-85.7244"/>
<polygon fill="midnightblue" stroke="midnightblue" points="199.541,-89.1983 210.065,-87.9738 201.075,-82.3683 199.541,-89.1983"/>
</g>
<!-- Node3 -->
<g id="node3" class="node"><title>Node3</title>
<g id="a_node3"><a xlink:href="../../d4/d1c/classparser_1_1nodes_1_1_list_node.html#a06d95a825392910e4f1744c706c658df" target="_top" xlink:title="parser.nodes.ListNode.getSize">
<polygon fill="white" stroke="black" points="196.5,-49.5 196.5,-68.5 359.5,-68.5 359.5,-49.5 196.5,-49.5"/>
<text text-anchor="middle" x="278" y="-56.5" font-family="Helvetica,sans-Serif" font-size="10.00">parser.nodes.ListNode.getSize</text>
</a>
</g>
</g>
<!-- Node1&#45;&gt;Node3 -->
<g id="edge2" class="edge"><title>Node1&#45;&gt;Node3</title>
<path fill="none" stroke="midnightblue" d="M160.156,-59C168.708,-59 177.46,-59 186.137,-59"/>
<polygon fill="midnightblue" stroke="midnightblue" points="186.272,-62.5001 196.272,-59 186.272,-55.5001 186.272,-62.5001"/>
</g>
<!-- Node4 -->
<g id="node4" class="node"><title>Node4</title>
<g id="a_node4"><a xlink:href="../../db/d3e/classparser_1_1commands_1_1_to_data.html#a2fd67907a8587a24f691db9a92908578" target="_top" xlink:title="parser.commands.ToData.get\lVarList">
<polygon fill="white" stroke="black" points="199,-0 199,-30 357,-30 357,-0 199,-0"/>
<text text-anchor="start" x="207" y="-18" font-family="Helvetica,sans-Serif" font-size="10.00">parser.commands.ToData.get</text>
<text text-anchor="middle" x="278" y="-7" font-family="Helvetica,sans-Serif" font-size="10.00">VarList</text>
</a>
</g>
</g>
<!-- Node1&#45;&gt;Node4 -->
<g id="edge3" class="edge"><title>Node1&#45;&gt;Node4</title>
<path fill="none" stroke="midnightblue" d="M147.904,-43.9808C164.683,-40.214 182.819,-36.1426 200.045,-32.2756"/>
<polygon fill="midnightblue" stroke="midnightblue" points="201.075,-35.6317 210.065,-30.0262 199.541,-28.8017 201.075,-35.6317"/>
</g>
</g>
</svg>
