<?xml version="1.0" encoding="UTF-8" standalone="no"?>
<!DOCTYPE svg PUBLIC "-//W3C//DTD SVG 1.1//EN"
 "http://www.w3.org/Graphics/SVG/1.1/DTD/svg11.dtd">
<!-- Generated by graphviz version 2.36.0 (20140111.2315)
 -->
<!-- Title: parser.commands.Difference Pages: 1 -->
<svg width="162pt" height="164pt"
 viewBox="0.00 0.00 162.00 164.00" xmlns="http://www.w3.org/2000/svg" xmlns:xlink="http://www.w3.org/1999/xlink">
<g id="graph0" class="graph" transform="scale(1 1) rotate(0) translate(4 160)">
<title>parser.commands.Difference</title>
<polygon fill="white" stroke="none" points="-4,4 -4,-160 158,-160 158,4 -4,4"/>
<!-- Node1 -->
<g id="node1" class="node"><title>Node1</title>
<polygon fill="#bfbfbf" stroke="black" points="-0.5,-0.5 -0.5,-19.5 154.5,-19.5 154.5,-0.5 -0.5,-0.5"/>
<text text-anchor="middle" x="77" y="-7.5" font-family="Helvetica,sans-Serif" font-size="10.00">parser.commands.Difference</text>
</g>
<!-- Node2 -->
<g id="node2" class="node"><title>Node2</title>
<g id="a_node2"><a xlink:href="../../db/d11/classparser_1_1nodes_1_1_binary_node.html" target="_top" xlink:title="parser.nodes.BinaryNode">
<polygon fill="white" stroke="black" points="8.5,-58.5 8.5,-77.5 145.5,-77.5 145.5,-58.5 8.5,-58.5"/>
<text text-anchor="middle" x="77" y="-65.5" font-family="Helvetica,sans-Serif" font-size="10.00">parser.nodes.BinaryNode</text>
</a>
</g>
</g>
<!-- Node2&#45;&gt;Node1 -->
<g id="edge1" class="edge"><title>Node2&#45;&gt;Node1</title>
<path fill="none" stroke="midnightblue" d="M77,-47.953C77,-38.2875 77,-27.0312 77,-19.5052"/>
<polygon fill="midnightblue" stroke="midnightblue" points="73.5001,-48.25 77,-58.25 80.5001,-48.25 73.5001,-48.25"/>
</g>
<!-- Node3 -->
<g id="node3" class="node"><title>Node3</title>
<g id="a_node3"><a xlink:href="../../da/d96/classparser_1_1nodes_1_1_syntax_node.html" target="_top" xlink:title="parser.nodes.SyntaxNode">
<polygon fill="white" stroke="black" points="7,-136.5 7,-155.5 147,-155.5 147,-136.5 7,-136.5"/>
<text text-anchor="middle" x="77" y="-143.5" font-family="Helvetica,sans-Serif" font-size="10.00">parser.nodes.SyntaxNode</text>
</a>
</g>
</g>
<!-- Node3&#45;&gt;Node2 -->
<g id="edge2" class="edge"><title>Node3&#45;&gt;Node2</title>
<path fill="none" stroke="midnightblue" d="M75.4399,-126.382C75.2572,-123.575 75.1003,-120.713 75,-118 74.6386,-108.229 74.6386,-105.771 75,-96 75.2293,-89.7998 75.7539,-82.8151 76.2083,-77.5033"/>
<polygon fill="midnightblue" stroke="midnightblue" points="71.9607,-126.791 76.2083,-136.497 78.9406,-126.26 71.9607,-126.791"/>
</g>
<!-- Node3&#45;&gt;Node2 -->
<g id="edge3" class="edge"><title>Node3&#45;&gt;Node2</title>
<path fill="none" stroke="#9a32cd" stroke-dasharray="5,2" d="M77,-126.224C77,-110.697 77,-89.3582 77,-77.6165"/>
<polygon fill="#9a32cd" stroke="#9a32cd" points="73.5001,-126.282 77,-136.282 80.5001,-126.282 73.5001,-126.282"/>
<text text-anchor="middle" x="100.5" y="-110" font-family="Helvetica,sans-Serif" font-size="10.00"> nodeOne</text>
<text text-anchor="middle" x="100.5" y="-99" font-family="Helvetica,sans-Serif" font-size="10.00">nodeTwo</text>
</g>
</g>
</svg>
