<?xml version="1.0" encoding="UTF-8" standalone="no"?>
<!DOCTYPE svg PUBLIC "-//W3C//DTD SVG 1.1//EN"
 "http://www.w3.org/Graphics/SVG/1.1/DTD/svg11.dtd">
<!-- Generated by graphviz version 2.36.0 (20140111.2315)
 -->
<!-- Title: view.dialogs.InputDialogBox.addInputField Pages: 1 -->
<svg width="304pt" height="38pt"
 viewBox="0.00 0.00 304.00 38.00" xmlns="http://www.w3.org/2000/svg" xmlns:xlink="http://www.w3.org/1999/xlink">
<g id="graph0" class="graph" transform="scale(1 1) rotate(0) translate(4 34)">
<title>view.dialogs.InputDialogBox.addInputField</title>
<polygon fill="white" stroke="none" points="-4,4 -4,-34 300,-34 300,4 -4,4"/>
<!-- Node1 -->
<g id="node1" class="node"><title>Node1</title>
<polygon fill="#bfbfbf" stroke="black" points="0,-0 0,-30 130,-30 130,-0 0,-0"/>
<text text-anchor="start" x="8" y="-18" font-family="Helvetica,sans-Serif" font-size="10.00">view.dialogs.InputDialog</text>
<text text-anchor="middle" x="65" y="-7" font-family="Helvetica,sans-Serif" font-size="10.00">Box.addInputField</text>
</g>
<!-- Node2 -->
<g id="node2" class="node"><title>Node2</title>
<g id="a_node2"><a xlink:href="../../d0/de5/classview_1_1dialogs_1_1_input_dialog_box.html#af6293ea8bae12a8ba64a57460b3f6809" target="_top" xlink:title="view.dialogs.InputDialog\lBox.InputDialogBox">
<polygon fill="white" stroke="black" points="166,-0 166,-30 296,-30 296,-0 166,-0"/>
<text text-anchor="start" x="174" y="-18" font-family="Helvetica,sans-Serif" font-size="10.00">view.dialogs.InputDialog</text>
<text text-anchor="middle" x="231" y="-7" font-family="Helvetica,sans-Serif" font-size="10.00">Box.InputDialogBox</text>
</a>
</g>
</g>
<!-- Node1&#45;&gt;Node2 -->
<g id="edge1" class="edge"><title>Node1&#45;&gt;Node2</title>
<path fill="none" stroke="midnightblue" d="M140.564,-15C149.004,-15 157.549,-15 165.839,-15"/>
<polygon fill="midnightblue" stroke="midnightblue" points="140.346,-11.5001 130.346,-15 140.346,-18.5001 140.346,-11.5001"/>
</g>
</g>
</svg>
