<?xml version="1.0" encoding="UTF-8" standalone="no"?>
<!DOCTYPE svg PUBLIC "-//W3C//DTD SVG 1.1//EN"
 "http://www.w3.org/Graphics/SVG/1.1/DTD/svg11.dtd">
<!-- Generated by graphviz version 2.36.0 (20140111.2315)
 -->
<!-- Title: view.dialogs.InputDialogBox.updateUserInput Pages: 1 -->
<svg width="926pt" height="219pt"
 viewBox="0.00 0.00 926.00 219.00" xmlns="http://www.w3.org/2000/svg" xmlns:xlink="http://www.w3.org/1999/xlink">
<g id="graph0" class="graph" transform="scale(1 1) rotate(0) translate(4 215)">
<title>view.dialogs.InputDialogBox.updateUserInput</title>
<polygon fill="white" stroke="none" points="-4,4 -4,-215 922,-215 922,4 -4,4"/>
<!-- Node1 -->
<g id="node1" class="node"><title>Node1</title>
<polygon fill="#bfbfbf" stroke="black" points="0,-88 0,-118 130,-118 130,-88 0,-88"/>
<text text-anchor="start" x="8" y="-106" font-family="Helvetica,sans-Serif" font-size="10.00">view.dialogs.InputDialog</text>
<text text-anchor="middle" x="65" y="-95" font-family="Helvetica,sans-Serif" font-size="10.00">Box.updateUserInput</text>
</g>
<!-- Node2 -->
<g id="node2" class="node"><title>Node2</title>
<g id="a_node2"><a xlink:href="../../d0/de5/classview_1_1dialogs_1_1_input_dialog_box.html#a47a0db1150edb25d69f50d7d199e0d20" target="_top" xlink:title="view.dialogs.InputDialog\lBox.showInputDialog">
<polygon fill="white" stroke="black" points="166,-88 166,-118 296,-118 296,-88 166,-88"/>
<text text-anchor="start" x="174" y="-106" font-family="Helvetica,sans-Serif" font-size="10.00">view.dialogs.InputDialog</text>
<text text-anchor="middle" x="231" y="-95" font-family="Helvetica,sans-Serif" font-size="10.00">Box.showInputDialog</text>
</a>
</g>
</g>
<!-- Node1&#45;&gt;Node2 -->
<g id="edge1" class="edge"><title>Node1&#45;&gt;Node2</title>
<path fill="none" stroke="midnightblue" d="M140.564,-103C149.004,-103 157.549,-103 165.839,-103"/>
<polygon fill="midnightblue" stroke="midnightblue" points="140.346,-99.5001 130.346,-103 140.346,-106.5 140.346,-99.5001"/>
</g>
<!-- Node3 -->
<g id="node3" class="node"><title>Node3</title>
<g id="a_node3"><a xlink:href="../../d5/d4b/classview_1_1components_1_1_turtle_window.html#a7342cf3ccb9ce9705b8643c09c7ae102" target="_top" xlink:title="view.components.TurtleWindow.modify\lColorPaletteMenu">
<polygon fill="white" stroke="black" points="332.5,-181 332.5,-211 529.5,-211 529.5,-181 332.5,-181"/>
<text text-anchor="start" x="340.5" y="-199" font-family="Helvetica,sans-Serif" font-size="10.00">view.components.TurtleWindow.modify</text>
<text text-anchor="middle" x="431" y="-188" font-family="Helvetica,sans-Serif" font-size="10.00">ColorPaletteMenu</text>
</a>
</g>
</g>
<!-- Node2&#45;&gt;Node3 -->
<g id="edge2" class="edge"><title>Node2&#45;&gt;Node3</title>
<path fill="none" stroke="midnightblue" d="M258.023,-124.436C277.371,-139.41 304.99,-158.825 332,-171 340.484,-174.824 349.656,-178.136 358.867,-180.985"/>
<polygon fill="midnightblue" stroke="midnightblue" points="260.026,-121.559 250.005,-118.119 255.693,-127.057 260.026,-121.559"/>
</g>
<!-- Node4 -->
<g id="node4" class="node"><title>Node4</title>
<g id="a_node4"><a xlink:href="../../d5/d4b/classview_1_1components_1_1_turtle_window.html#a017d8aa14181e31499ff8a9c3b957b61" target="_top" xlink:title="view.components.TurtleWindow.modify\lImagePaletteMenu">
<polygon fill="white" stroke="black" points="332.5,-132 332.5,-162 529.5,-162 529.5,-132 332.5,-132"/>
<text text-anchor="start" x="340.5" y="-150" font-family="Helvetica,sans-Serif" font-size="10.00">view.components.TurtleWindow.modify</text>
<text text-anchor="middle" x="431" y="-139" font-family="Helvetica,sans-Serif" font-size="10.00">ImagePaletteMenu</text>
</a>
</g>
</g>
<!-- Node2&#45;&gt;Node4 -->
<g id="edge3" class="edge"><title>Node2&#45;&gt;Node4</title>
<path fill="none" stroke="midnightblue" d="M305.875,-119.417C324.425,-123.539 344.235,-127.941 362.459,-131.991"/>
<polygon fill="midnightblue" stroke="midnightblue" points="306.533,-115.978 296.011,-117.225 305.014,-122.811 306.533,-115.978"/>
</g>
<!-- Node5 -->
<g id="node5" class="node"><title>Node5</title>
<g id="a_node5"><a xlink:href="../../d3/dbe/classview_1_1_view.html#a950a31211081c537c7b2cc9866b09720" target="_top" xlink:title="view.View.promptFileToSave">
<polygon fill="white" stroke="black" points="357.5,-93.5 357.5,-112.5 504.5,-112.5 504.5,-93.5 357.5,-93.5"/>
<text text-anchor="middle" x="431" y="-100.5" font-family="Helvetica,sans-Serif" font-size="10.00">view.View.promptFileToSave</text>
</a>
</g>
</g>
<!-- Node2&#45;&gt;Node5 -->
<g id="edge4" class="edge"><title>Node2&#45;&gt;Node5</title>
<path fill="none" stroke="midnightblue" d="M306.257,-103C322.949,-103 340.644,-103 357.273,-103"/>
<polygon fill="midnightblue" stroke="midnightblue" points="306.012,-99.5001 296.011,-103 306.011,-106.5 306.012,-99.5001"/>
</g>
<!-- Node6 -->
<g id="node6" class="node"><title>Node6</title>
<g id="a_node6"><a xlink:href="../../d7/dc7/classview_1_1listwindows_1_1_user_defined_commands_window.html#adaf32233789f6a07c42b4e459699bf53" target="_top" xlink:title="view.listwindows.UserDefined\lCommandsWindow.setButtonAction">
<polygon fill="white" stroke="black" points="337.5,-44 337.5,-74 524.5,-74 524.5,-44 337.5,-44"/>
<text text-anchor="start" x="345.5" y="-62" font-family="Helvetica,sans-Serif" font-size="10.00">view.listwindows.UserDefined</text>
<text text-anchor="middle" x="431" y="-51" font-family="Helvetica,sans-Serif" font-size="10.00">CommandsWindow.setButtonAction</text>
</a>
</g>
</g>
<!-- Node2&#45;&gt;Node6 -->
<g id="edge5" class="edge"><title>Node2&#45;&gt;Node6</title>
<path fill="none" stroke="midnightblue" d="M305.875,-86.5834C324.425,-82.4611 344.235,-78.0588 362.459,-74.0092"/>
<polygon fill="midnightblue" stroke="midnightblue" points="305.014,-83.1892 296.011,-88.7752 306.533,-90.0225 305.014,-83.1892"/>
</g>
<!-- Node7 -->
<g id="node7" class="node"><title>Node7</title>
<g id="a_node7"><a xlink:href="../../d3/dbe/classview_1_1_view.html#ae77f0f711bba491940c5c6c184dcff70" target="_top" xlink:title="view.View.showAndChangeLanguage">
<polygon fill="white" stroke="black" points="336,-5.5 336,-24.5 526,-24.5 526,-5.5 336,-5.5"/>
<text text-anchor="middle" x="431" y="-12.5" font-family="Helvetica,sans-Serif" font-size="10.00">view.View.showAndChangeLanguage</text>
</a>
</g>
</g>
<!-- Node2&#45;&gt;Node7 -->
<g id="edge6" class="edge"><title>Node2&#45;&gt;Node7</title>
<path fill="none" stroke="midnightblue" d="M257.493,-81.4464C276.773,-66.2402 304.534,-46.5879 332,-35 342.319,-30.6462 353.66,-27.2167 364.852,-24.5222"/>
<polygon fill="midnightblue" stroke="midnightblue" points="255.115,-78.8677 249.52,-87.8646 259.504,-84.3207 255.115,-78.8677"/>
</g>
<!-- Node8 -->
<g id="node8" class="node"><title>Node8</title>
<g id="a_node8"><a xlink:href="../../da/da8/classview_1_1components_1_1_s_logo_menu_bar.html#a8e395aa3dd6b23abf4e158d4a2f19d10" target="_top" xlink:title="view.components.SLogoMenu\lBar.makePreferencesMenu">
<polygon fill="white" stroke="black" points="566,-0 566,-30 724,-30 724,-0 566,-0"/>
<text text-anchor="start" x="574" y="-18" font-family="Helvetica,sans-Serif" font-size="10.00">view.components.SLogoMenu</text>
<text text-anchor="middle" x="645" y="-7" font-family="Helvetica,sans-Serif" font-size="10.00">Bar.makePreferencesMenu</text>
</a>
</g>
</g>
<!-- Node7&#45;&gt;Node8 -->
<g id="edge7" class="edge"><title>Node7&#45;&gt;Node8</title>
<path fill="none" stroke="midnightblue" d="M536.52,-15C546.423,-15 556.343,-15 565.934,-15"/>
<polygon fill="midnightblue" stroke="midnightblue" points="536.221,-11.5001 526.221,-15 536.221,-18.5001 536.221,-11.5001"/>
</g>
<!-- Node9 -->
<g id="node9" class="node"><title>Node9</title>
<g id="a_node9"><a xlink:href="../../da/da8/classview_1_1components_1_1_s_logo_menu_bar.html#afbe8434fba1476e5cbe7401c6bc158ec" target="_top" xlink:title="view.components.SLogoMenu\lBar.SLogoMenuBar">
<polygon fill="white" stroke="black" points="760,-0 760,-30 918,-30 918,-0 760,-0"/>
<text text-anchor="start" x="768" y="-18" font-family="Helvetica,sans-Serif" font-size="10.00">view.components.SLogoMenu</text>
<text text-anchor="middle" x="839" y="-7" font-family="Helvetica,sans-Serif" font-size="10.00">Bar.SLogoMenuBar</text>
</a>
</g>
</g>
<!-- Node8&#45;&gt;Node9 -->
<g id="edge8" class="edge"><title>Node8&#45;&gt;Node9</title>
<path fill="none" stroke="midnightblue" d="M734.153,-15C742.769,-15 751.47,-15 759.975,-15"/>
<polygon fill="midnightblue" stroke="midnightblue" points="734.094,-11.5001 724.094,-15 734.094,-18.5001 734.094,-11.5001"/>
</g>
</g>
</svg>
