<?xml version="1.0" encoding="UTF-8" standalone="no"?>
<!DOCTYPE svg PUBLIC "-//W3C//DTD SVG 1.1//EN"
 "http://www.w3.org/Graphics/SVG/1.1/DTD/svg11.dtd">
<!-- Generated by graphviz version 2.36.0 (20140111.2315)
 -->
<!-- Title: view.dialogs.InputDialogBox.showInputDialog Pages: 1 -->
<svg width="760pt" height="219pt"
 viewBox="0.00 0.00 760.00 219.00" xmlns="http://www.w3.org/2000/svg" xmlns:xlink="http://www.w3.org/1999/xlink">
<g id="graph0" class="graph" transform="scale(1 1) rotate(0) translate(4 215)">
<title>view.dialogs.InputDialogBox.showInputDialog</title>
<polygon fill="white" stroke="none" points="-4,4 -4,-215 756,-215 756,4 -4,4"/>
<!-- Node1 -->
<g id="node1" class="node"><title>Node1</title>
<polygon fill="#bfbfbf" stroke="black" points="0,-88 0,-118 130,-118 130,-88 0,-88"/>
<text text-anchor="start" x="8" y="-106" font-family="Helvetica,sans-Serif" font-size="10.00">view.dialogs.InputDialog</text>
<text text-anchor="middle" x="65" y="-95" font-family="Helvetica,sans-Serif" font-size="10.00">Box.showInputDialog</text>
</g>
<!-- Node2 -->
<g id="node2" class="node"><title>Node2</title>
<g id="a_node2"><a xlink:href="../../d5/d4b/classview_1_1components_1_1_turtle_window.html#a7342cf3ccb9ce9705b8643c09c7ae102" target="_top" xlink:title="view.components.TurtleWindow.modify\lColorPaletteMenu">
<polygon fill="white" stroke="black" points="166.5,-181 166.5,-211 363.5,-211 363.5,-181 166.5,-181"/>
<text text-anchor="start" x="174.5" y="-199" font-family="Helvetica,sans-Serif" font-size="10.00">view.components.TurtleWindow.modify</text>
<text text-anchor="middle" x="265" y="-188" font-family="Helvetica,sans-Serif" font-size="10.00">ColorPaletteMenu</text>
</a>
</g>
</g>
<!-- Node1&#45;&gt;Node2 -->
<g id="edge1" class="edge"><title>Node1&#45;&gt;Node2</title>
<path fill="none" stroke="midnightblue" d="M92.0226,-124.436C111.371,-139.41 138.99,-158.825 166,-171 174.484,-174.824 183.656,-178.136 192.867,-180.985"/>
<polygon fill="midnightblue" stroke="midnightblue" points="94.0257,-121.559 84.0049,-118.119 89.6932,-127.057 94.0257,-121.559"/>
</g>
<!-- Node3 -->
<g id="node3" class="node"><title>Node3</title>
<g id="a_node3"><a xlink:href="../../d5/d4b/classview_1_1components_1_1_turtle_window.html#a017d8aa14181e31499ff8a9c3b957b61" target="_top" xlink:title="view.components.TurtleWindow.modify\lImagePaletteMenu">
<polygon fill="white" stroke="black" points="166.5,-132 166.5,-162 363.5,-162 363.5,-132 166.5,-132"/>
<text text-anchor="start" x="174.5" y="-150" font-family="Helvetica,sans-Serif" font-size="10.00">view.components.TurtleWindow.modify</text>
<text text-anchor="middle" x="265" y="-139" font-family="Helvetica,sans-Serif" font-size="10.00">ImagePaletteMenu</text>
</a>
</g>
</g>
<!-- Node1&#45;&gt;Node3 -->
<g id="edge2" class="edge"><title>Node1&#45;&gt;Node3</title>
<path fill="none" stroke="midnightblue" d="M139.875,-119.417C158.425,-123.539 178.235,-127.941 196.459,-131.991"/>
<polygon fill="midnightblue" stroke="midnightblue" points="140.533,-115.978 130.011,-117.225 139.014,-122.811 140.533,-115.978"/>
</g>
<!-- Node4 -->
<g id="node4" class="node"><title>Node4</title>
<g id="a_node4"><a xlink:href="../../d3/dbe/classview_1_1_view.html#a950a31211081c537c7b2cc9866b09720" target="_top" xlink:title="view.View.promptFileToSave">
<polygon fill="white" stroke="black" points="191.5,-93.5 191.5,-112.5 338.5,-112.5 338.5,-93.5 191.5,-93.5"/>
<text text-anchor="middle" x="265" y="-100.5" font-family="Helvetica,sans-Serif" font-size="10.00">view.View.promptFileToSave</text>
</a>
</g>
</g>
<!-- Node1&#45;&gt;Node4 -->
<g id="edge3" class="edge"><title>Node1&#45;&gt;Node4</title>
<path fill="none" stroke="midnightblue" d="M140.257,-103C156.949,-103 174.644,-103 191.273,-103"/>
<polygon fill="midnightblue" stroke="midnightblue" points="140.012,-99.5001 130.011,-103 140.011,-106.5 140.012,-99.5001"/>
</g>
<!-- Node5 -->
<g id="node5" class="node"><title>Node5</title>
<g id="a_node5"><a xlink:href="../../d7/dc7/classview_1_1listwindows_1_1_user_defined_commands_window.html#adaf32233789f6a07c42b4e459699bf53" target="_top" xlink:title="view.listwindows.UserDefined\lCommandsWindow.setButtonAction">
<polygon fill="white" stroke="black" points="171.5,-44 171.5,-74 358.5,-74 358.5,-44 171.5,-44"/>
<text text-anchor="start" x="179.5" y="-62" font-family="Helvetica,sans-Serif" font-size="10.00">view.listwindows.UserDefined</text>
<text text-anchor="middle" x="265" y="-51" font-family="Helvetica,sans-Serif" font-size="10.00">CommandsWindow.setButtonAction</text>
</a>
</g>
</g>
<!-- Node1&#45;&gt;Node5 -->
<g id="edge4" class="edge"><title>Node1&#45;&gt;Node5</title>
<path fill="none" stroke="midnightblue" d="M139.875,-86.5834C158.425,-82.4611 178.235,-78.0588 196.459,-74.0092"/>
<polygon fill="midnightblue" stroke="midnightblue" points="139.014,-83.1892 130.011,-88.7752 140.533,-90.0225 139.014,-83.1892"/>
</g>
<!-- Node6 -->
<g id="node6" class="node"><title>Node6</title>
<g id="a_node6"><a xlink:href="../../d3/dbe/classview_1_1_view.html#ae77f0f711bba491940c5c6c184dcff70" target="_top" xlink:title="view.View.showAndChangeLanguage">
<polygon fill="white" stroke="black" points="170,-5.5 170,-24.5 360,-24.5 360,-5.5 170,-5.5"/>
<text text-anchor="middle" x="265" y="-12.5" font-family="Helvetica,sans-Serif" font-size="10.00">view.View.showAndChangeLanguage</text>
</a>
</g>
</g>
<!-- Node1&#45;&gt;Node6 -->
<g id="edge5" class="edge"><title>Node1&#45;&gt;Node6</title>
<path fill="none" stroke="midnightblue" d="M91.4934,-81.4464C110.773,-66.2402 138.534,-46.5879 166,-35 176.319,-30.6462 187.66,-27.2167 198.852,-24.5222"/>
<polygon fill="midnightblue" stroke="midnightblue" points="89.1152,-78.8677 83.5199,-87.8646 93.5045,-84.3207 89.1152,-78.8677"/>
</g>
<!-- Node7 -->
<g id="node7" class="node"><title>Node7</title>
<g id="a_node7"><a xlink:href="../../da/da8/classview_1_1components_1_1_s_logo_menu_bar.html#a8e395aa3dd6b23abf4e158d4a2f19d10" target="_top" xlink:title="view.components.SLogoMenu\lBar.makePreferencesMenu">
<polygon fill="white" stroke="black" points="400,-0 400,-30 558,-30 558,-0 400,-0"/>
<text text-anchor="start" x="408" y="-18" font-family="Helvetica,sans-Serif" font-size="10.00">view.components.SLogoMenu</text>
<text text-anchor="middle" x="479" y="-7" font-family="Helvetica,sans-Serif" font-size="10.00">Bar.makePreferencesMenu</text>
</a>
</g>
</g>
<!-- Node6&#45;&gt;Node7 -->
<g id="edge6" class="edge"><title>Node6&#45;&gt;Node7</title>
<path fill="none" stroke="midnightblue" d="M370.52,-15C380.423,-15 390.343,-15 399.934,-15"/>
<polygon fill="midnightblue" stroke="midnightblue" points="370.221,-11.5001 360.221,-15 370.221,-18.5001 370.221,-11.5001"/>
</g>
<!-- Node8 -->
<g id="node8" class="node"><title>Node8</title>
<g id="a_node8"><a xlink:href="../../da/da8/classview_1_1components_1_1_s_logo_menu_bar.html#afbe8434fba1476e5cbe7401c6bc158ec" target="_top" xlink:title="view.components.SLogoMenu\lBar.SLogoMenuBar">
<polygon fill="white" stroke="black" points="594,-0 594,-30 752,-30 752,-0 594,-0"/>
<text text-anchor="start" x="602" y="-18" font-family="Helvetica,sans-Serif" font-size="10.00">view.components.SLogoMenu</text>
<text text-anchor="middle" x="673" y="-7" font-family="Helvetica,sans-Serif" font-size="10.00">Bar.SLogoMenuBar</text>
</a>
</g>
</g>
<!-- Node7&#45;&gt;Node8 -->
<g id="edge7" class="edge"><title>Node7&#45;&gt;Node8</title>
<path fill="none" stroke="midnightblue" d="M568.153,-15C576.769,-15 585.47,-15 593.975,-15"/>
<polygon fill="midnightblue" stroke="midnightblue" points="568.094,-11.5001 558.094,-15 568.094,-18.5001 568.094,-11.5001"/>
</g>
</g>
</svg>
