<?xml version="1.0" encoding="UTF-8" standalone="no"?>
<!DOCTYPE svg PUBLIC "-//W3C//DTD SVG 1.1//EN"
 "http://www.w3.org/Graphics/SVG/1.1/DTD/svg11.dtd">
<!-- Generated by graphviz version 2.36.0 (20140111.2315)
 -->
<!-- Title: view.listwindows.VariablesWindow Pages: 1 -->
<svg width="318pt" height="152pt"
 viewBox="0.00 0.00 318.00 152.00" xmlns="http://www.w3.org/2000/svg" xmlns:xlink="http://www.w3.org/1999/xlink">
<g id="graph0" class="graph" transform="scale(1 1) rotate(0) translate(4 148)">
<title>view.listwindows.VariablesWindow</title>
<polygon fill="white" stroke="none" points="-4,4 -4,-148 314,-148 314,4 -4,4"/>
<!-- Node1 -->
<g id="node1" class="node"><title>Node1</title>
<polygon fill="#bfbfbf" stroke="black" points="86,-1 86,-31 224,-31 224,-1 86,-1"/>
<text text-anchor="start" x="94" y="-19" font-family="Helvetica,sans-Serif" font-size="10.00">view.listwindows.Variables</text>
<text text-anchor="middle" x="155" y="-8" font-family="Helvetica,sans-Serif" font-size="10.00">Window</text>
</g>
<!-- Node2 -->
<g id="node2" class="node"><title>Node2</title>
<g id="a_node2"><a xlink:href="../../da/d76/classview_1_1listwindows_1_1_list_window.html" target="_top" xlink:title="view.listwindows.ListWindow">
<polygon fill="white" stroke="black" points="0,-68.5 0,-87.5 146,-87.5 146,-68.5 0,-68.5"/>
<text text-anchor="middle" x="73" y="-75.5" font-family="Helvetica,sans-Serif" font-size="10.00">view.listwindows.ListWindow</text>
</a>
</g>
</g>
<!-- Node2&#45;&gt;Node1 -->
<g id="edge1" class="edge"><title>Node2&#45;&gt;Node1</title>
<path fill="none" stroke="midnightblue" d="M93.0273,-62.3459C106.01,-52.8461 122.833,-40.5369 135.674,-31.1408"/>
<polygon fill="midnightblue" stroke="midnightblue" points="90.7521,-59.6737 84.7486,-68.4035 94.8857,-65.3229 90.7521,-59.6737"/>
</g>
<!-- Node3 -->
<g id="node3" class="node"><title>Node3</title>
<polygon fill="white" stroke="#bfbfbf" points="50,-124.5 50,-143.5 96,-143.5 96,-124.5 50,-124.5"/>
<text text-anchor="middle" x="73" y="-131.5" font-family="Helvetica,sans-Serif" font-size="10.00">Group</text>
</g>
<!-- Node3&#45;&gt;Node2 -->
<g id="edge2" class="edge"><title>Node3&#45;&gt;Node2</title>
<path fill="none" stroke="midnightblue" d="M73,-113.805C73,-104.91 73,-94.7798 73,-87.7511"/>
<polygon fill="midnightblue" stroke="midnightblue" points="69.5001,-114.083 73,-124.083 76.5001,-114.083 69.5001,-114.083"/>
</g>
<!-- Node4 -->
<g id="node4" class="node"><title>Node4</title>
<g id="a_node4"><a xlink:href="../../dd/db2/interfaceview_1_1components_1_1_observer.html" target="_top" xlink:title="view.components.Observer">
<polygon fill="white" stroke="black" points="164,-68.5 164,-87.5 310,-87.5 310,-68.5 164,-68.5"/>
<text text-anchor="middle" x="237" y="-75.5" font-family="Helvetica,sans-Serif" font-size="10.00">view.components.Observer</text>
</a>
</g>
</g>
<!-- Node4&#45;&gt;Node1 -->
<g id="edge3" class="edge"><title>Node4&#45;&gt;Node1</title>
<path fill="none" stroke="midnightblue" d="M216.973,-62.3459C203.99,-52.8461 187.167,-40.5369 174.326,-31.1408"/>
<polygon fill="midnightblue" stroke="midnightblue" points="215.114,-65.3229 225.251,-68.4035 219.248,-59.6737 215.114,-65.3229"/>
</g>
</g>
</svg>
