<?xml version="1.0" encoding="UTF-8" standalone="no"?>
<!DOCTYPE svg PUBLIC "-//W3C//DTD SVG 1.1//EN"
 "http://www.w3.org/Graphics/SVG/1.1/DTD/svg11.dtd">
<!-- Generated by graphviz version 2.36.0 (20140111.2315)
 -->
<!-- Title: view.dialogs.LanguagesDialogBox.LanguagesDialogBox Pages: 1 -->
<svg width="378pt" height="87pt"
 viewBox="0.00 0.00 378.00 87.00" xmlns="http://www.w3.org/2000/svg" xmlns:xlink="http://www.w3.org/1999/xlink">
<g id="graph0" class="graph" transform="scale(1 1) rotate(0) translate(4 83)">
<title>view.dialogs.LanguagesDialogBox.LanguagesDialogBox</title>
<polygon fill="white" stroke="none" points="-4,4 -4,-83 374,-83 374,4 -4,4"/>
<!-- Node1 -->
<g id="node1" class="node"><title>Node1</title>
<polygon fill="#bfbfbf" stroke="black" points="0,-24 0,-54 158,-54 158,-24 0,-24"/>
<text text-anchor="start" x="8" y="-42" font-family="Helvetica,sans-Serif" font-size="10.00">view.dialogs.LanguagesDialog</text>
<text text-anchor="middle" x="79" y="-31" font-family="Helvetica,sans-Serif" font-size="10.00">Box.LanguagesDialogBox</text>
</g>
<!-- Node2 -->
<g id="node2" class="node"><title>Node2</title>
<g id="a_node2"><a xlink:href="../../d7/dd7/classview_1_1components_1_1_language_controller.html#a46ac40e3112f70d2b6392d21abed0b14" target="_top" xlink:title="view.components.Language\lController.getAvailableLanguages">
<polygon fill="white" stroke="black" points="194,-49 194,-79 370,-79 370,-49 194,-49"/>
<text text-anchor="start" x="202" y="-67" font-family="Helvetica,sans-Serif" font-size="10.00">view.components.Language</text>
<text text-anchor="middle" x="282" y="-56" font-family="Helvetica,sans-Serif" font-size="10.00">Controller.getAvailableLanguages</text>
</a>
</g>
</g>
<!-- Node1&#45;&gt;Node2 -->
<g id="edge1" class="edge"><title>Node1&#45;&gt;Node2</title>
<path fill="none" stroke="midnightblue" d="M158.287,-48.7372C166.685,-49.7818 175.301,-50.8534 183.884,-51.9209"/>
<polygon fill="midnightblue" stroke="midnightblue" points="183.574,-55.4093 193.93,-53.1704 184.438,-48.4628 183.574,-55.4093"/>
</g>
<!-- Node3 -->
<g id="node3" class="node"><title>Node3</title>
<g id="a_node3"><a xlink:href="../../d5/d77/classview_1_1dialogs_1_1_languages_dialog_box.html#af9e2b623215eed35f1ed849d2eb0f179" target="_top" xlink:title="view.dialogs.LanguagesDialog\lBox.populateChoiceBox">
<polygon fill="white" stroke="black" points="203,-0 203,-30 361,-30 361,-0 203,-0"/>
<text text-anchor="start" x="211" y="-18" font-family="Helvetica,sans-Serif" font-size="10.00">view.dialogs.LanguagesDialog</text>
<text text-anchor="middle" x="282" y="-7" font-family="Helvetica,sans-Serif" font-size="10.00">Box.populateChoiceBox</text>
</a>
</g>
</g>
<!-- Node1&#45;&gt;Node3 -->
<g id="edge2" class="edge"><title>Node1&#45;&gt;Node3</title>
<path fill="none" stroke="midnightblue" d="M158.287,-29.6523C169.626,-28.2983 181.362,-26.897 192.878,-25.522"/>
<polygon fill="midnightblue" stroke="midnightblue" points="193.412,-28.9832 202.926,-24.3222 192.582,-22.0326 193.412,-28.9832"/>
</g>
</g>
</svg>
