<?xml version="1.0" encoding="UTF-8" standalone="no"?>
<!DOCTYPE svg PUBLIC "-//W3C//DTD SVG 1.1//EN"
 "http://www.w3.org/Graphics/SVG/1.1/DTD/svg11.dtd">
<!-- Generated by graphviz version 2.36.0 (20140111.2315)
 -->
<!-- Title: view.listwindows.VariableLabel.VariableLabel Pages: 1 -->
<svg width="652pt" height="60pt"
 viewBox="0.00 0.00 652.00 60.00" xmlns="http://www.w3.org/2000/svg" xmlns:xlink="http://www.w3.org/1999/xlink">
<g id="graph0" class="graph" transform="scale(1 1) rotate(0) translate(4 56)">
<title>view.listwindows.VariableLabel.VariableLabel</title>
<polygon fill="white" stroke="none" points="-4,4 -4,-56 648,-56 648,4 -4,4"/>
<!-- Node1 -->
<g id="node1" class="node"><title>Node1</title>
<polygon fill="#bfbfbf" stroke="black" points="0.5,-22 0.5,-52 133.5,-52 133.5,-22 0.5,-22"/>
<text text-anchor="start" x="8.5" y="-40" font-family="Helvetica,sans-Serif" font-size="10.00">view.listwindows.Variable</text>
<text text-anchor="middle" x="67" y="-29" font-family="Helvetica,sans-Serif" font-size="10.00">Label.VariableLabel</text>
</g>
<!-- Node2 -->
<g id="node2" class="node"><title>Node2</title>
<g id="a_node2"><a xlink:href="../../df/d1c/classview_1_1listwindows_1_1_variable_label.html#afb43f74fb2356416aaa62233e8e637de" target="_top" xlink:title="view.listwindows.Variable\lLabel.startEdit">
<polygon fill="white" stroke="black" points="170.5,-22 170.5,-52 303.5,-52 303.5,-22 170.5,-22"/>
<text text-anchor="start" x="178.5" y="-40" font-family="Helvetica,sans-Serif" font-size="10.00">view.listwindows.Variable</text>
<text text-anchor="middle" x="237" y="-29" font-family="Helvetica,sans-Serif" font-size="10.00">Label.startEdit</text>
</a>
</g>
</g>
<!-- Node1&#45;&gt;Node2 -->
<g id="edge1" class="edge"><title>Node1&#45;&gt;Node2</title>
<path fill="none" stroke="midnightblue" d="M133.916,-37C142.505,-37 151.359,-37 160.096,-37"/>
<polygon fill="midnightblue" stroke="midnightblue" points="160.274,-40.5001 170.274,-37 160.274,-33.5001 160.274,-40.5001"/>
</g>
<!-- Node3 -->
<g id="node3" class="node"><title>Node3</title>
<g id="a_node3"><a xlink:href="../../df/d1c/classview_1_1listwindows_1_1_variable_label.html#a08de52c779d3b14b35e4cb12ac968cbf" target="_top" xlink:title="view.listwindows.Variable\lLabel.exitEdit">
<polygon fill="white" stroke="black" points="510.5,-22 510.5,-52 643.5,-52 643.5,-22 510.5,-22"/>
<text text-anchor="start" x="518.5" y="-40" font-family="Helvetica,sans-Serif" font-size="10.00">view.listwindows.Variable</text>
<text text-anchor="middle" x="577" y="-29" font-family="Helvetica,sans-Serif" font-size="10.00">Label.exitEdit</text>
</a>
</g>
</g>
<!-- Node2&#45;&gt;Node3 -->
<g id="edge2" class="edge"><title>Node2&#45;&gt;Node3</title>
<path fill="none" stroke="midnightblue" d="M303.567,-38.4755C315.681,-38.6941 328.222,-38.8845 340,-39 399.553,-39.5838 414.447,-39.5838 474,-39 482.557,-38.9161 491.518,-38.7926 500.424,-38.6475"/>
<polygon fill="midnightblue" stroke="midnightblue" points="500.495,-42.1469 510.433,-38.4755 500.375,-35.148 500.495,-42.1469"/>
</g>
<!-- Node4 -->
<g id="node4" class="node"><title>Node4</title>
<g id="a_node4"><a xlink:href="../../df/d1c/classview_1_1listwindows_1_1_variable_label.html#a87a8dd2003aa9d6ea25f8369ad47cde7" target="_top" xlink:title="view.listwindows.Variable\lLabel.processEdit">
<polygon fill="white" stroke="black" points="340.5,-0 340.5,-30 473.5,-30 473.5,-0 340.5,-0"/>
<text text-anchor="start" x="348.5" y="-18" font-family="Helvetica,sans-Serif" font-size="10.00">view.listwindows.Variable</text>
<text text-anchor="middle" x="407" y="-7" font-family="Helvetica,sans-Serif" font-size="10.00">Label.processEdit</text>
</a>
</g>
</g>
<!-- Node2&#45;&gt;Node4 -->
<g id="edge3" class="edge"><title>Node2&#45;&gt;Node4</title>
<path fill="none" stroke="midnightblue" d="M303.916,-28.3682C312.505,-27.2434 321.359,-26.0839 330.096,-24.9399"/>
<polygon fill="midnightblue" stroke="midnightblue" points="330.813,-28.3758 340.274,-23.6069 329.904,-21.4351 330.813,-28.3758"/>
</g>
<!-- Node4&#45;&gt;Node3 -->
<g id="edge4" class="edge"><title>Node4&#45;&gt;Node3</title>
<path fill="none" stroke="midnightblue" d="M473.916,-23.6318C482.505,-24.7566 491.359,-25.9161 500.096,-27.0601"/>
<polygon fill="midnightblue" stroke="midnightblue" points="499.904,-30.5649 510.274,-28.3931 500.813,-23.6242 499.904,-30.5649"/>
</g>
</g>
</svg>
