<?xml version="1.0" encoding="UTF-8" standalone="no"?>
<!DOCTYPE svg PUBLIC "-//W3C//DTD SVG 1.1//EN"
 "http://www.w3.org/Graphics/SVG/1.1/DTD/svg11.dtd">
<!-- Generated by graphviz version 2.36.0 (20140111.2315)
 -->
<!-- Title: view.listwindows.VariableLabel.exitEdit Pages: 1 -->
<!--zoomable 61 -->
<svg id="main" version="1.1" xmlns="http://www.w3.org/2000/svg" xmlns:xlink="http://www.w3.org/1999/xlink" xml:space="preserve" onload="init(evt)">
<style type="text/css"><![CDATA[
.edge:hover path { stroke: red; }
.edge:hover polygon { stroke: red; fill: red; }
]]></style>
<script type="text/javascript"><![CDATA[
var edges = document.getElementsByTagName('g');
if (edges && edges.length) {
  for (var i=0;i<edges.length;i++) {
    if (edges[i].id.substr(0,4)=='edge') {
      edges[i].setAttribute('class','edge');
    }
  }
}
]]></script>
        <defs>
                <circle id="rim" cx="0" cy="0" r="7"/>
                <circle id="rim2" cx="0" cy="0" r="3.5"/>
                <g id="zoomPlus">
                        <use xlink:href="#rim" fill="#404040">
                                <set attributeName="fill" to="#808080" begin="zoomplus.mouseover" end="zoomplus.mouseout"/>
                        </use>
                        <path d="M-4,0h8M0,-4v8" fill="none" stroke="white" stroke-width="1.5" pointer-events="none"/>
                </g>
                <g id="zoomMin">
                        <use xlink:href="#rim" fill="#404040">
                                <set attributeName="fill" to="#808080" begin="zoomminus.mouseover" end="zoomminus.mouseout"/>
                        </use>
                        <path d="M-4,0h8" fill="none" stroke="white" stroke-width="1.5" pointer-events="none"/>
                </g>
                <g id="dirArrow">
                        <path fill="none" stroke="white" stroke-width="1.5" d="M0,-3.0v7 M-2.5,-0.5L0,-3.0L2.5,-0.5"/>
                </g>
               <g id="resetDef">
                       <use xlink:href="#rim2" fill="#404040">
                               <set attributeName="fill" to="#808080" begin="reset.mouseover" end="reset.mouseout"/>
                       </use>
               </g>
        </defs>

<script type="text/javascript">
var viewWidth = 652;
var viewHeight = 61;
var sectionId = 'dynsection-3';
</script>
<script xlink:href="../../svgpan.js"/>
<svg id="graph" class="graph">
<g id="viewport">
<title>view.listwindows.VariableLabel.exitEdit</title>
<polygon fill="white" stroke="none" points="-4,4 -4,-57 648,-57 648,4 -4,4"/>
<!-- Node1 -->
<g id="node1" class="node"><title>Node1</title>
<polygon fill="#bfbfbf" stroke="black" points="0.5,-1 0.5,-31 133.5,-31 133.5,-1 0.5,-1"/>
<text text-anchor="start" x="8.5" y="-19" font-family="Helvetica,sans-Serif" font-size="10.00">view.listwindows.Variable</text>
<text text-anchor="middle" x="67" y="-8" font-family="Helvetica,sans-Serif" font-size="10.00">Label.exitEdit</text>
</g>
<!-- Node2 -->
<g id="node2" class="node"><title>Node2</title>
<g id="a_node2"><a xlink:href="../../df/d1c/classview_1_1listwindows_1_1_variable_label.html#a87a8dd2003aa9d6ea25f8369ad47cde7" target="_top" xlink:title="view.listwindows.Variable\lLabel.processEdit">
<polygon fill="white" stroke="black" points="170.5,-23 170.5,-53 303.5,-53 303.5,-23 170.5,-23"/>
<text text-anchor="start" x="178.5" y="-41" font-family="Helvetica,sans-Serif" font-size="10.00">view.listwindows.Variable</text>
<text text-anchor="middle" x="237" y="-30" font-family="Helvetica,sans-Serif" font-size="10.00">Label.processEdit</text>
</a>
</g>
</g>
<!-- Node1&#45;&gt;Node2 -->
<g id="edge1" class="edge"><title>Node1&#45;&gt;Node2</title>
<path fill="none" stroke="midnightblue" d="M144.098,-25.9652C152.836,-27.1094 161.689,-28.2688 170.274,-29.3931"/>
<polygon fill="midnightblue" stroke="midnightblue" points="144.286,-22.46 133.916,-24.6318 143.377,-29.4007 144.286,-22.46"/>
</g>
<!-- Node3 -->
<g id="node3" class="node"><title>Node3</title>
<g id="a_node3"><a xlink:href="../../df/d1c/classview_1_1listwindows_1_1_variable_label.html#afb43f74fb2356416aaa62233e8e637de" target="_top" xlink:title="view.listwindows.Variable\lLabel.startEdit">
<polygon fill="white" stroke="black" points="340.5,-1 340.5,-31 473.5,-31 473.5,-1 340.5,-1"/>
<text text-anchor="start" x="348.5" y="-19" font-family="Helvetica,sans-Serif" font-size="10.00">view.listwindows.Variable</text>
<text text-anchor="middle" x="407" y="-8" font-family="Helvetica,sans-Serif" font-size="10.00">Label.startEdit</text>
</a>
</g>
</g>
<!-- Node1&#45;&gt;Node3 -->
<g id="edge4" class="edge"><title>Node1&#45;&gt;Node3</title>
<path fill="none" stroke="midnightblue" d="M143.576,-14.3525C152.482,-14.2074 161.443,-14.0839 170,-14 229.553,-13.4162 244.447,-13.4162 304,-14 315.778,-14.1155 328.319,-14.3059 340.433,-14.5245"/>
<polygon fill="midnightblue" stroke="midnightblue" points="143.505,-10.8531 133.567,-14.5245 143.625,-17.852 143.505,-10.8531"/>
</g>
<!-- Node2&#45;&gt;Node3 -->
<g id="edge2" class="edge"><title>Node2&#45;&gt;Node3</title>
<path fill="none" stroke="midnightblue" d="M314.098,-28.0348C322.836,-26.8906 331.689,-25.7312 340.274,-24.6069"/>
<polygon fill="midnightblue" stroke="midnightblue" points="313.377,-24.5993 303.916,-29.3682 314.286,-31.54 313.377,-24.5993"/>
</g>
<!-- Node4 -->
<g id="node4" class="node"><title>Node4</title>
<g id="a_node4"><a xlink:href="../../df/d1c/classview_1_1listwindows_1_1_variable_label.html#a33cd669e6d1fdf1e7a5ec786f8dfb155" target="_top" xlink:title="view.listwindows.Variable\lLabel.VariableLabel">
<polygon fill="white" stroke="black" points="510.5,-1 510.5,-31 643.5,-31 643.5,-1 510.5,-1"/>
<text text-anchor="start" x="518.5" y="-19" font-family="Helvetica,sans-Serif" font-size="10.00">view.listwindows.Variable</text>
<text text-anchor="middle" x="577" y="-8" font-family="Helvetica,sans-Serif" font-size="10.00">Label.VariableLabel</text>
</a>
</g>
</g>
<!-- Node3&#45;&gt;Node4 -->
<g id="edge3" class="edge"><title>Node3&#45;&gt;Node4</title>
<path fill="none" stroke="midnightblue" d="M484.098,-16C492.836,-16 501.689,-16 510.274,-16"/>
<polygon fill="midnightblue" stroke="midnightblue" points="483.916,-12.5001 473.916,-16 483.916,-19.5001 483.916,-12.5001"/>
</g>
</g>
</svg>
        <g id="navigator" transform="translate(0 0)" fill="#404254">
                <rect fill="#f2f5e9" fill-opacity="0.5" stroke="#606060" stroke-width=".5" x="0" y="0" width="60" height="60"/>
                <use id="zoomplus" xlink:href="#zoomPlus" x="17" y="9" onmousedown="handleZoom(evt,'in')"/>
                <use id="zoomminus" xlink:href="#zoomMin" x="42" y="9" onmousedown="handleZoom(evt,'out')"/>
                <use id="reset" xlink:href="#resetDef" x="30" y="36" onmousedown="handleReset()"/>
                <g id="arrowUp" xlink:href="#dirArrow" transform="translate(30 24)" onmousedown="handlePan(0,-1)">
                  <use xlink:href="#rim" fill="#404040">
                        <set attributeName="fill" to="#808080" begin="arrowUp.mouseover" end="arrowUp.mouseout"/>
                  </use>
                  <path fill="none" stroke="white" stroke-width="1.5" d="M0,-3.0v7 M-2.5,-0.5L0,-3.0L2.5,-0.5"/>
                </g>
                <g id="arrowRight" xlink:href="#dirArrow" transform="rotate(90) translate(36 -43)" onmousedown="handlePan(1,0)">
                  <use xlink:href="#rim" fill="#404040">
                        <set attributeName="fill" to="#808080" begin="arrowRight.mouseover" end="arrowRight.mouseout"/>
                  </use>
                  <path fill="none" stroke="white" stroke-width="1.5" d="M0,-3.0v7 M-2.5,-0.5L0,-3.0L2.5,-0.5"/>
                </g>
                <g id="arrowDown" xlink:href="#dirArrow" transform="rotate(180) translate(-30 -48)" onmousedown="handlePan(0,1)">
                  <use xlink:href="#rim" fill="#404040">
                        <set attributeName="fill" to="#808080" begin="arrowDown.mouseover" end="arrowDown.mouseout"/>
                  </use>
                  <path fill="none" stroke="white" stroke-width="1.5" d="M0,-3.0v7 M-2.5,-0.5L0,-3.0L2.5,-0.5"/>
                </g>
                <g id="arrowLeft" xlink:href="#dirArrow" transform="rotate(270) translate(-36 17)" onmousedown="handlePan(-1,0)">
                  <use xlink:href="#rim" fill="#404040">
                        <set attributeName="fill" to="#808080" begin="arrowLeft.mouseover" end="arrowLeft.mouseout"/>
                  </use>
                  <path fill="none" stroke="white" stroke-width="1.5" d="M0,-3.0v7 M-2.5,-0.5L0,-3.0L2.5,-0.5"/>
                </g>
        </g>
        <svg viewBox="0 0 15 15" width="100%" height="30px" preserveAspectRatio="xMaxYMin meet">
         <g id="arrow_out" transform="scale(0.3 0.3)">
          <a xlink:href="classview_1_1listwindows_1_1_variable_label_a08de52c779d3b14b35e4cb12ac968cbf_icgraph_org.svg" target="_base">
           <rect id="button" ry="5" rx="5" y="6" x="6" height="38" width="38"
                fill="#f2f5e9" fill-opacity="0.5" stroke="#606060" stroke-width="1.0"/>
           <path id="arrow"
             d="M 11.500037,31.436501 C 11.940474,20.09759 22.043105,11.32322 32.158766,21.979434 L 37.068811,17.246167 C 37.068811,17.246167 37.088388,32 37.088388,32 L 22.160133,31.978069 C 22.160133,31.978069 26.997745,27.140456 26.997745,27.140456 C 18.528582,18.264221 13.291696,25.230495 11.500037,31.436501 z"
             style="fill:#404040;"/>
          </a>
         </g>
        </svg>
</svg>
