<?xml version="1.0" encoding="UTF-8" standalone="no"?>
<!DOCTYPE svg PUBLIC "-//W3C//DTD SVG 1.1//EN"
 "http://www.w3.org/Graphics/SVG/1.1/DTD/svg11.dtd">
<!-- Generated by graphviz version 2.36.0 (20140111.2315)
 -->
<!-- Title: view.listwindows.VariableLabel.startEdit Pages: 1 -->
<svg width="482pt" height="60pt"
 viewBox="0.00 0.00 482.00 60.00" xmlns="http://www.w3.org/2000/svg" xmlns:xlink="http://www.w3.org/1999/xlink">
<g id="graph0" class="graph" transform="scale(1 1) rotate(0) translate(4 56)">
<title>view.listwindows.VariableLabel.startEdit</title>
<polygon fill="white" stroke="none" points="-4,4 -4,-56 478,-56 478,4 -4,4"/>
<!-- Node1 -->
<g id="node1" class="node"><title>Node1</title>
<polygon fill="#bfbfbf" stroke="black" points="0.5,-22 0.5,-52 133.5,-52 133.5,-22 0.5,-22"/>
<text text-anchor="start" x="8.5" y="-40" font-family="Helvetica,sans-Serif" font-size="10.00">view.listwindows.Variable</text>
<text text-anchor="middle" x="67" y="-29" font-family="Helvetica,sans-Serif" font-size="10.00">Label.startEdit</text>
</g>
<!-- Node2 -->
<g id="node2" class="node"><title>Node2</title>
<g id="a_node2"><a xlink:href="../../df/d1c/classview_1_1listwindows_1_1_variable_label.html#a08de52c779d3b14b35e4cb12ac968cbf" target="_top" xlink:title="view.listwindows.Variable\lLabel.exitEdit">
<polygon fill="white" stroke="black" points="340.5,-22 340.5,-52 473.5,-52 473.5,-22 340.5,-22"/>
<text text-anchor="start" x="348.5" y="-40" font-family="Helvetica,sans-Serif" font-size="10.00">view.listwindows.Variable</text>
<text text-anchor="middle" x="407" y="-29" font-family="Helvetica,sans-Serif" font-size="10.00">Label.exitEdit</text>
</a>
</g>
</g>
<!-- Node1&#45;&gt;Node2 -->
<g id="edge1" class="edge"><title>Node1&#45;&gt;Node2</title>
<path fill="none" stroke="midnightblue" d="M133.567,-38.4755C145.681,-38.6941 158.222,-38.8845 170,-39 229.553,-39.5838 244.447,-39.5838 304,-39 312.557,-38.9161 321.518,-38.7926 330.424,-38.6475"/>
<polygon fill="midnightblue" stroke="midnightblue" points="330.495,-42.1469 340.433,-38.4755 330.375,-35.148 330.495,-42.1469"/>
</g>
<!-- Node3 -->
<g id="node3" class="node"><title>Node3</title>
<g id="a_node3"><a xlink:href="../../df/d1c/classview_1_1listwindows_1_1_variable_label.html#a87a8dd2003aa9d6ea25f8369ad47cde7" target="_top" xlink:title="view.listwindows.Variable\lLabel.processEdit">
<polygon fill="white" stroke="black" points="170.5,-0 170.5,-30 303.5,-30 303.5,-0 170.5,-0"/>
<text text-anchor="start" x="178.5" y="-18" font-family="Helvetica,sans-Serif" font-size="10.00">view.listwindows.Variable</text>
<text text-anchor="middle" x="237" y="-7" font-family="Helvetica,sans-Serif" font-size="10.00">Label.processEdit</text>
</a>
</g>
</g>
<!-- Node1&#45;&gt;Node3 -->
<g id="edge2" class="edge"><title>Node1&#45;&gt;Node3</title>
<path fill="none" stroke="midnightblue" d="M133.916,-28.3682C142.505,-27.2434 151.359,-26.0839 160.096,-24.9399"/>
<polygon fill="midnightblue" stroke="midnightblue" points="160.813,-28.3758 170.274,-23.6069 159.904,-21.4351 160.813,-28.3758"/>
</g>
<!-- Node3&#45;&gt;Node2 -->
<g id="edge3" class="edge"><title>Node3&#45;&gt;Node2</title>
<path fill="none" stroke="midnightblue" d="M303.916,-23.6318C312.505,-24.7566 321.359,-25.9161 330.096,-27.0601"/>
<polygon fill="midnightblue" stroke="midnightblue" points="329.904,-30.5649 340.274,-28.3931 330.813,-23.6242 329.904,-30.5649"/>
</g>
</g>
</svg>
