<?xml version="1.0" encoding="UTF-8" standalone="no"?>
<!DOCTYPE svg PUBLIC "-//W3C//DTD SVG 1.1//EN"
 "http://www.w3.org/Graphics/SVG/1.1/DTD/svg11.dtd">
<!-- Generated by graphviz version 2.36.0 (20140111.2315)
 -->
<!-- Title: view.listwindows.VariableLabel.exitEdit Pages: 1 -->
<svg width="652pt" height="61pt"
 viewBox="0.00 0.00 652.00 61.00" xmlns="http://www.w3.org/2000/svg" xmlns:xlink="http://www.w3.org/1999/xlink">
<g id="graph0" class="graph" transform="scale(1 1) rotate(0) translate(4 57)">
<title>view.listwindows.VariableLabel.exitEdit</title>
<polygon fill="white" stroke="none" points="-4,4 -4,-57 648,-57 648,4 -4,4"/>
<!-- Node1 -->
<g id="node1" class="node"><title>Node1</title>
<polygon fill="#bfbfbf" stroke="black" points="0.5,-1 0.5,-31 133.5,-31 133.5,-1 0.5,-1"/>
<text text-anchor="start" x="8.5" y="-19" font-family="Helvetica,sans-Serif" font-size="10.00">view.listwindows.Variable</text>
<text text-anchor="middle" x="67" y="-8" font-family="Helvetica,sans-Serif" font-size="10.00">Label.exitEdit</text>
</g>
<!-- Node2 -->
<g id="node2" class="node"><title>Node2</title>
<g id="a_node2"><a xlink:href="../../df/d1c/classview_1_1listwindows_1_1_variable_label.html#a87a8dd2003aa9d6ea25f8369ad47cde7" target="_top" xlink:title="view.listwindows.Variable\lLabel.processEdit">
<polygon fill="white" stroke="black" points="170.5,-23 170.5,-53 303.5,-53 303.5,-23 170.5,-23"/>
<text text-anchor="start" x="178.5" y="-41" font-family="Helvetica,sans-Serif" font-size="10.00">view.listwindows.Variable</text>
<text text-anchor="middle" x="237" y="-30" font-family="Helvetica,sans-Serif" font-size="10.00">Label.processEdit</text>
</a>
</g>
</g>
<!-- Node1&#45;&gt;Node2 -->
<g id="edge1" class="edge"><title>Node1&#45;&gt;Node2</title>
<path fill="none" stroke="midnightblue" d="M144.098,-25.9652C152.836,-27.1094 161.689,-28.2688 170.274,-29.3931"/>
<polygon fill="midnightblue" stroke="midnightblue" points="144.286,-22.46 133.916,-24.6318 143.377,-29.4007 144.286,-22.46"/>
</g>
<!-- Node3 -->
<g id="node3" class="node"><title>Node3</title>
<g id="a_node3"><a xlink:href="../../df/d1c/classview_1_1listwindows_1_1_variable_label.html#afb43f74fb2356416aaa62233e8e637de" target="_top" xlink:title="view.listwindows.Variable\lLabel.startEdit">
<polygon fill="white" stroke="black" points="340.5,-1 340.5,-31 473.5,-31 473.5,-1 340.5,-1"/>
<text text-anchor="start" x="348.5" y="-19" font-family="Helvetica,sans-Serif" font-size="10.00">view.listwindows.Variable</text>
<text text-anchor="middle" x="407" y="-8" font-family="Helvetica,sans-Serif" font-size="10.00">Label.startEdit</text>
</a>
</g>
</g>
<!-- Node1&#45;&gt;Node3 -->
<g id="edge4" class="edge"><title>Node1&#45;&gt;Node3</title>
<path fill="none" stroke="midnightblue" d="M143.576,-14.3525C152.482,-14.2074 161.443,-14.0839 170,-14 229.553,-13.4162 244.447,-13.4162 304,-14 315.778,-14.1155 328.319,-14.3059 340.433,-14.5245"/>
<polygon fill="midnightblue" stroke="midnightblue" points="143.505,-10.8531 133.567,-14.5245 143.625,-17.852 143.505,-10.8531"/>
</g>
<!-- Node2&#45;&gt;Node3 -->
<g id="edge2" class="edge"><title>Node2&#45;&gt;Node3</title>
<path fill="none" stroke="midnightblue" d="M314.098,-28.0348C322.836,-26.8906 331.689,-25.7312 340.274,-24.6069"/>
<polygon fill="midnightblue" stroke="midnightblue" points="313.377,-24.5993 303.916,-29.3682 314.286,-31.54 313.377,-24.5993"/>
</g>
<!-- Node4 -->
<g id="node4" class="node"><title>Node4</title>
<g id="a_node4"><a xlink:href="../../df/d1c/classview_1_1listwindows_1_1_variable_label.html#a33cd669e6d1fdf1e7a5ec786f8dfb155" target="_top" xlink:title="view.listwindows.Variable\lLabel.VariableLabel">
<polygon fill="white" stroke="black" points="510.5,-1 510.5,-31 643.5,-31 643.5,-1 510.5,-1"/>
<text text-anchor="start" x="518.5" y="-19" font-family="Helvetica,sans-Serif" font-size="10.00">view.listwindows.Variable</text>
<text text-anchor="middle" x="577" y="-8" font-family="Helvetica,sans-Serif" font-size="10.00">Label.VariableLabel</text>
</a>
</g>
</g>
<!-- Node3&#45;&gt;Node4 -->
<g id="edge3" class="edge"><title>Node3&#45;&gt;Node4</title>
<path fill="none" stroke="midnightblue" d="M484.098,-16C492.836,-16 501.689,-16 510.274,-16"/>
<polygon fill="midnightblue" stroke="midnightblue" points="483.916,-12.5001 473.916,-16 483.916,-19.5001 483.916,-12.5001"/>
</g>
</g>
</svg>
