<?xml version="1.0" encoding="UTF-8" standalone="no"?>
<!DOCTYPE svg PUBLIC "-//W3C//DTD SVG 1.1//EN"
 "http://www.w3.org/Graphics/SVG/1.1/DTD/svg11.dtd">
<!-- Generated by graphviz version 2.36.0 (20140111.2315)
 -->
<!-- Title: parser.commands.Tangent Pages: 1 -->
<svg width="152pt" height="140pt"
 viewBox="0.00 0.00 152.00 140.00" xmlns="http://www.w3.org/2000/svg" xmlns:xlink="http://www.w3.org/1999/xlink">
<g id="graph0" class="graph" transform="scale(1 1) rotate(0) translate(4 136)">
<title>parser.commands.Tangent</title>
<polygon fill="white" stroke="none" points="-4,4 -4,-136 148,-136 148,4 -4,4"/>
<!-- Node1 -->
<g id="node1" class="node"><title>Node1</title>
<polygon fill="#bfbfbf" stroke="black" points="0,-0.5 0,-19.5 144,-19.5 144,-0.5 0,-0.5"/>
<text text-anchor="middle" x="72" y="-7.5" font-family="Helvetica,sans-Serif" font-size="10.00">parser.commands.Tangent</text>
</g>
<!-- Node2 -->
<g id="node2" class="node"><title>Node2</title>
<g id="a_node2"><a xlink:href="../../d3/d36/classparser_1_1nodes_1_1_unary_node.html" target="_top" xlink:title="parser.nodes.UnaryNode">
<polygon fill="white" stroke="black" points="4,-56.5 4,-75.5 140,-75.5 140,-56.5 4,-56.5"/>
<text text-anchor="middle" x="72" y="-63.5" font-family="Helvetica,sans-Serif" font-size="10.00">parser.nodes.UnaryNode</text>
</a>
</g>
</g>
<!-- Node2&#45;&gt;Node1 -->
<g id="edge1" class="edge"><title>Node2&#45;&gt;Node1</title>
<path fill="none" stroke="midnightblue" d="M72,-45.8045C72,-36.9102 72,-26.7798 72,-19.7511"/>
<polygon fill="midnightblue" stroke="midnightblue" points="68.5001,-46.083 72,-56.083 75.5001,-46.083 68.5001,-46.083"/>
</g>
<!-- Node3 -->
<g id="node3" class="node"><title>Node3</title>
<g id="a_node3"><a xlink:href="../../da/d96/classparser_1_1nodes_1_1_syntax_node.html" target="_top" xlink:title="parser.nodes.SyntaxNode">
<polygon fill="white" stroke="black" points="2,-112.5 2,-131.5 142,-131.5 142,-112.5 2,-112.5"/>
<text text-anchor="middle" x="72" y="-119.5" font-family="Helvetica,sans-Serif" font-size="10.00">parser.nodes.SyntaxNode</text>
</a>
</g>
</g>
<!-- Node3&#45;&gt;Node2 -->
<g id="edge2" class="edge"><title>Node3&#45;&gt;Node2</title>
<path fill="none" stroke="midnightblue" d="M72,-101.805C72,-92.9102 72,-82.7798 72,-75.7511"/>
<polygon fill="midnightblue" stroke="midnightblue" points="68.5001,-102.083 72,-112.083 75.5001,-102.083 68.5001,-102.083"/>
</g>
</g>
</svg>
