<?xml version="1.0" encoding="UTF-8" standalone="no"?>
<!DOCTYPE svg PUBLIC "-//W3C//DTD SVG 1.1//EN"
 "http://www.w3.org/Graphics/SVG/1.1/DTD/svg11.dtd">
<!-- Generated by graphviz version 2.36.0 (20140111.2315)
 -->
<!-- Title: view.listwindows.UserDefinedCommandsWindow Pages: 1 -->
<svg width="1342pt" height="276pt"
 viewBox="0.00 0.00 1342.00 276.00" xmlns="http://www.w3.org/2000/svg" xmlns:xlink="http://www.w3.org/1999/xlink">
<g id="graph0" class="graph" transform="scale(1 1) rotate(0) translate(4 272)">
<title>view.listwindows.UserDefinedCommandsWindow</title>
<polygon fill="white" stroke="none" points="-4,4 -4,-272 1338,-272 1338,4 -4,4"/>
<!-- Node1 -->
<g id="node1" class="node"><title>Node1</title>
<polygon fill="#bfbfbf" stroke="black" points="1180,-122 1180,-152 1334,-152 1334,-122 1180,-122"/>
<text text-anchor="start" x="1188" y="-140" font-family="Helvetica,sans-Serif" font-size="10.00">view.listwindows.UserDefined</text>
<text text-anchor="middle" x="1257" y="-129" font-family="Helvetica,sans-Serif" font-size="10.00">CommandsWindow</text>
</g>
<!-- Node2 -->
<g id="node2" class="node"><title>Node2</title>
<g id="a_node2"><a xlink:href="../../da/df5/classview_1_1listwindows_1_1_commands_list_window.html" target="_top" xlink:title="view.listwindows.Commands\lListWindow">
<polygon fill="white" stroke="black" points="433,-138 433,-168 583,-168 583,-138 433,-138"/>
<text text-anchor="start" x="441" y="-156" font-family="Helvetica,sans-Serif" font-size="10.00">view.listwindows.Commands</text>
<text text-anchor="middle" x="508" y="-145" font-family="Helvetica,sans-Serif" font-size="10.00">ListWindow</text>
</a>
</g>
</g>
<!-- Node2&#45;&gt;Node1 -->
<g id="edge1" class="edge"><title>Node2&#45;&gt;Node1</title>
<path fill="none" stroke="midnightblue" d="M593.295,-151.194C739.835,-148.056 1039.32,-141.641 1179.91,-138.63"/>
<polygon fill="midnightblue" stroke="midnightblue" points="592.935,-147.701 583.013,-151.415 593.085,-154.7 592.935,-147.701"/>
</g>
<!-- Node3 -->
<g id="node3" class="node"><title>Node3</title>
<g id="a_node3"><a xlink:href="../../da/d76/classview_1_1listwindows_1_1_list_window.html" target="_top" xlink:title="view.listwindows.ListWindow">
<polygon fill="white" stroke="black" points="176,-172.5 176,-191.5 322,-191.5 322,-172.5 176,-172.5"/>
<text text-anchor="middle" x="249" y="-179.5" font-family="Helvetica,sans-Serif" font-size="10.00">view.listwindows.ListWindow</text>
</a>
</g>
</g>
<!-- Node3&#45;&gt;Node2 -->
<g id="edge2" class="edge"><title>Node3&#45;&gt;Node2</title>
<path fill="none" stroke="midnightblue" d="M332.544,-172.686C364.694,-169.058 401.265,-164.931 432.589,-161.397"/>
<polygon fill="midnightblue" stroke="midnightblue" points="331.817,-169.245 322.273,-173.845 332.602,-176.201 331.817,-169.245"/>
</g>
<!-- Node4 -->
<g id="node4" class="node"><title>Node4</title>
<polygon fill="white" stroke="#bfbfbf" points="13,-172.5 13,-191.5 59,-191.5 59,-172.5 13,-172.5"/>
<text text-anchor="middle" x="36" y="-179.5" font-family="Helvetica,sans-Serif" font-size="10.00">Group</text>
</g>
<!-- Node4&#45;&gt;Node3 -->
<g id="edge3" class="edge"><title>Node4&#45;&gt;Node3</title>
<path fill="none" stroke="midnightblue" d="M69.2889,-182C97.5309,-182 139.58,-182 175.796,-182"/>
<polygon fill="midnightblue" stroke="midnightblue" points="69.1819,-178.5 59.1819,-182 69.1819,-185.5 69.1819,-178.5"/>
</g>
<!-- Node5 -->
<g id="node5" class="node"><title>Node5</title>
<polygon fill="white" stroke="#bfbfbf" points="15.5,-134.5 15.5,-153.5 56.5,-153.5 56.5,-134.5 15.5,-134.5"/>
<text text-anchor="middle" x="36" y="-141.5" font-family="Helvetica,sans-Serif" font-size="10.00">VBox</text>
</g>
<!-- Node5&#45;&gt;Node3 -->
<g id="edge4" class="edge"><title>Node5&#45;&gt;Node3</title>
<path fill="none" stroke="#9a32cd" stroke-dasharray="5,2" d="M66.8471,-149.375C100.057,-155.356 154.367,-165.137 194.874,-172.432"/>
<polygon fill="#9a32cd" stroke="#9a32cd" points="67.3124,-145.903 56.8504,-147.575 66.0717,-152.792 67.3124,-145.903"/>
<text text-anchor="middle" x="124" y="-169" font-family="Helvetica,sans-Serif" font-size="10.00"> myList</text>
</g>
<!-- Node6 -->
<g id="node6" class="node"><title>Node6</title>
<polygon fill="white" stroke="#bfbfbf" points="3,-248.5 3,-267.5 69,-267.5 69,-248.5 3,-248.5"/>
<text text-anchor="middle" x="36" y="-255.5" font-family="Helvetica,sans-Serif" font-size="10.00">ScrollPane</text>
</g>
<!-- Node6&#45;&gt;Node3 -->
<g id="edge5" class="edge"><title>Node6&#45;&gt;Node3</title>
<path fill="none" stroke="#9a32cd" stroke-dasharray="5,2" d="M79.0951,-248.493C102.631,-242.689 132.311,-234.552 158,-225 183.97,-215.344 212.634,-200.961 230.479,-191.532"/>
<polygon fill="#9a32cd" stroke="#9a32cd" points="77.9806,-245.161 69.0831,-250.913 79.6256,-251.965 77.9806,-245.161"/>
<text text-anchor="middle" x="124" y="-249" font-family="Helvetica,sans-Serif" font-size="10.00"> myScrollPane</text>
</g>
<!-- Node7 -->
<g id="node7" class="node"><title>Node7</title>
<polygon fill="white" stroke="#bfbfbf" points="15,-210.5 15,-229.5 57,-229.5 57,-210.5 15,-210.5"/>
<text text-anchor="middle" x="36" y="-217.5" font-family="Helvetica,sans-Serif" font-size="10.00">Label</text>
</g>
<!-- Node7&#45;&gt;Node3 -->
<g id="edge6" class="edge"><title>Node7&#45;&gt;Node3</title>
<path fill="none" stroke="#9a32cd" stroke-dasharray="5,2" d="M67.2689,-214.549C100.576,-208.55 154.734,-198.797 195.094,-191.528"/>
<polygon fill="#9a32cd" stroke="#9a32cd" points="66.4529,-211.139 57.2316,-216.356 67.6936,-218.028 66.4529,-211.139"/>
<text text-anchor="middle" x="124" y="-213" font-family="Helvetica,sans-Serif" font-size="10.00"> myLabel</text>
</g>
<!-- Node8 -->
<g id="node8" class="node"><title>Node8</title>
<polygon fill="white" stroke="#bfbfbf" points="0,-86.5 0,-105.5 72,-105.5 72,-86.5 0,-86.5"/>
<text text-anchor="middle" x="36" y="-93.5" font-family="Helvetica,sans-Serif" font-size="10.00">BorderPane</text>
</g>
<!-- Node8&#45;&gt;Node3 -->
<g id="edge7" class="edge"><title>Node8&#45;&gt;Node3</title>
<path fill="none" stroke="#9a32cd" stroke-dasharray="5,2" d="M81.7204,-105.842C105.893,-112.672 135.342,-123.557 158,-140 168.506,-147.624 165.159,-155.861 176,-163 181.938,-166.911 188.648,-170.018 195.524,-172.487"/>
<polygon fill="#9a32cd" stroke="#9a32cd" points="82.6271,-102.461 72.0613,-103.245 80.8101,-109.221 82.6271,-102.461"/>
<text text-anchor="middle" x="124" y="-143" font-family="Helvetica,sans-Serif" font-size="10.00"> myPane</text>
</g>
<!-- Node13 -->
<g id="node13" class="node"><title>Node13</title>
<g id="a_node13"><a xlink:href="../../d2/d9f/classview_1_1dialogs_1_1_dialog_box.html" target="_top" xlink:title="view.dialogs.DialogBox">
<polygon fill="white" stroke="black" points="187,-38.5 187,-57.5 311,-57.5 311,-38.5 187,-38.5"/>
<text text-anchor="middle" x="249" y="-45.5" font-family="Helvetica,sans-Serif" font-size="10.00">view.dialogs.DialogBox</text>
</a>
</g>
</g>
<!-- Node8&#45;&gt;Node13 -->
<g id="edge15" class="edge"><title>Node8&#45;&gt;Node13</title>
<path fill="none" stroke="#9a32cd" stroke-dasharray="5,2" d="M81.9324,-84.9045C84.6608,-84.2539 87.3662,-83.6146 90,-83 128.304,-74.0609 171.967,-64.4314 203.671,-57.5401"/>
<polygon fill="#9a32cd" stroke="#9a32cd" points="80.9417,-81.543 72.0394,-87.2874 82.5809,-88.3484 80.9417,-81.543"/>
<text text-anchor="middle" x="124" y="-86" font-family="Helvetica,sans-Serif" font-size="10.00"> myPane</text>
</g>
<!-- Node9 -->
<g id="node9" class="node"><title>Node9</title>
<g id="a_node9"><a xlink:href="../../dd/db2/interfaceview_1_1components_1_1_observer.html" target="_top" xlink:title="view.components.Observer">
<polygon fill="white" stroke="black" points="176,-134.5 176,-153.5 322,-153.5 322,-134.5 176,-134.5"/>
<text text-anchor="middle" x="249" y="-141.5" font-family="Helvetica,sans-Serif" font-size="10.00">view.components.Observer</text>
</a>
</g>
</g>
<!-- Node9&#45;&gt;Node2 -->
<g id="edge8" class="edge"><title>Node9&#45;&gt;Node2</title>
<path fill="none" stroke="midnightblue" d="M332.544,-146.891C364.694,-148.017 401.265,-149.297 432.589,-150.394"/>
<polygon fill="midnightblue" stroke="midnightblue" points="332.389,-143.383 322.273,-146.531 332.144,-150.379 332.389,-143.383"/>
</g>
<!-- Node10 -->
<g id="node10" class="node"><title>Node10</title>
<g id="a_node10"><a xlink:href="../../da/d22/classview_1_1dialogs_1_1_text_input_dialog_box.html" target="_top" xlink:title="view.dialogs.TextInputDialogBox">
<polygon fill="white" stroke="black" points="872.5,-105.5 872.5,-124.5 1039.5,-124.5 1039.5,-105.5 872.5,-105.5"/>
<text text-anchor="middle" x="956" y="-112.5" font-family="Helvetica,sans-Serif" font-size="10.00">view.dialogs.TextInputDialogBox</text>
</a>
</g>
</g>
<!-- Node10&#45;&gt;Node1 -->
<g id="edge9" class="edge"><title>Node10&#45;&gt;Node1</title>
<path fill="none" stroke="#9a32cd" stroke-dasharray="5,2" d="M1050.07,-120.268C1085.17,-122.421 1125.44,-125.091 1162,-128 1167.8,-128.462 1173.8,-128.968 1179.83,-129.498"/>
<polygon fill="#9a32cd" stroke="#9a32cd" points="1050.03,-116.759 1039.83,-119.646 1049.6,-123.746 1050.03,-116.759"/>
<text text-anchor="middle" x="1110" y="-131" font-family="Helvetica,sans-Serif" font-size="10.00"> myParamPromptBox</text>
</g>
<!-- Node11 -->
<g id="node11" class="node"><title>Node11</title>
<g id="a_node11"><a xlink:href="../../d0/de5/classview_1_1dialogs_1_1_input_dialog_box.html" target="_top" xlink:title="view.dialogs.InputDialogBox">
<polygon fill="white" stroke="black" points="630,-67.5 630,-86.5 778,-86.5 778,-67.5 630,-67.5"/>
<text text-anchor="middle" x="704" y="-74.5" font-family="Helvetica,sans-Serif" font-size="10.00">view.dialogs.InputDialogBox</text>
</a>
</g>
</g>
<!-- Node11&#45;&gt;Node10 -->
<g id="edge10" class="edge"><title>Node11&#45;&gt;Node10</title>
<path fill="none" stroke="midnightblue" d="M777.786,-88.0634C814.039,-93.5739 857.436,-100.17 892.211,-105.456"/>
<polygon fill="midnightblue" stroke="midnightblue" points="778.175,-84.5825 767.763,-86.54 777.123,-91.503 778.175,-84.5825"/>
</g>
<!-- Node12 -->
<g id="node12" class="node"><title>Node12</title>
<g id="a_node12"><a xlink:href="../../d2/dee/classview_1_1dialogs_1_1_message_dialog_box.html" target="_top" xlink:title="view.dialogs.MessageDialogBox">
<polygon fill="white" stroke="black" points="424.5,-67.5 424.5,-86.5 591.5,-86.5 591.5,-67.5 424.5,-67.5"/>
<text text-anchor="middle" x="508" y="-74.5" font-family="Helvetica,sans-Serif" font-size="10.00">view.dialogs.MessageDialogBox</text>
</a>
</g>
</g>
<!-- Node12&#45;&gt;Node11 -->
<g id="edge11" class="edge"><title>Node12&#45;&gt;Node11</title>
<path fill="none" stroke="midnightblue" d="M601.718,-77C611.118,-77 620.573,-77 629.727,-77"/>
<polygon fill="midnightblue" stroke="midnightblue" points="601.555,-73.5001 591.555,-77 601.555,-80.5001 601.555,-73.5001"/>
</g>
<!-- Node13&#45;&gt;Node12 -->
<g id="edge12" class="edge"><title>Node13&#45;&gt;Node12</title>
<path fill="none" stroke="midnightblue" d="M321.383,-56.0549C353.332,-59.6601 391.196,-63.9326 424.366,-67.6755"/>
<polygon fill="midnightblue" stroke="midnightblue" points="321.561,-52.5528 311.231,-54.9094 320.776,-59.5087 321.561,-52.5528"/>
</g>
<!-- Node14 -->
<g id="node14" class="node"><title>Node14</title>
<polygon fill="white" stroke="#bfbfbf" points="13.5,-38.5 13.5,-57.5 58.5,-57.5 58.5,-38.5 13.5,-38.5"/>
<text text-anchor="middle" x="36" y="-45.5" font-family="Helvetica,sans-Serif" font-size="10.00">Stage</text>
</g>
<!-- Node14&#45;&gt;Node13 -->
<g id="edge13" class="edge"><title>Node14&#45;&gt;Node13</title>
<path fill="none" stroke="#9a32cd" stroke-dasharray="5,2" d="M69.0399,-48C100.147,-48 148.171,-48 186.642,-48"/>
<polygon fill="#9a32cd" stroke="#9a32cd" points="68.786,-44.5001 58.786,-48 68.7859,-51.5001 68.786,-44.5001"/>
<text text-anchor="middle" x="124" y="-51" font-family="Helvetica,sans-Serif" font-size="10.00"> myStage</text>
</g>
<!-- Node15 -->
<g id="node15" class="node"><title>Node15</title>
<polygon fill="white" stroke="#bfbfbf" points="12.5,-0.5 12.5,-19.5 59.5,-19.5 59.5,-0.5 12.5,-0.5"/>
<text text-anchor="middle" x="36" y="-7.5" font-family="Helvetica,sans-Serif" font-size="10.00">Scene</text>
</g>
<!-- Node15&#45;&gt;Node13 -->
<g id="edge14" class="edge"><title>Node15&#45;&gt;Node13</title>
<path fill="none" stroke="#9a32cd" stroke-dasharray="5,2" d="M69.738,-15.8959C103.21,-21.9241 155.734,-31.3834 195.113,-38.4754"/>
<polygon fill="#9a32cd" stroke="#9a32cd" points="70.0427,-12.3946 59.5807,-14.0667 68.802,-19.2838 70.0427,-12.3946"/>
<text text-anchor="middle" x="124" y="-35" font-family="Helvetica,sans-Serif" font-size="10.00"> myScene</text>
</g>
<!-- Node16 -->
<g id="node16" class="node"><title>Node16</title>
<polygon fill="white" stroke="#bfbfbf" points="226.5,-76.5 226.5,-95.5 271.5,-95.5 271.5,-76.5 226.5,-76.5"/>
<text text-anchor="middle" x="249" y="-83.5" font-family="Helvetica,sans-Serif" font-size="10.00">Insets</text>
</g>
<!-- Node16&#45;&gt;Node12 -->
<g id="edge16" class="edge"><title>Node16&#45;&gt;Node12</title>
<path fill="none" stroke="#9a32cd" stroke-dasharray="5,2" d="M282.127,-84.8749C317.532,-83.6351 375.879,-81.5918 424.266,-79.8973"/>
<polygon fill="#9a32cd" stroke="#9a32cd" points="281.783,-81.3847 271.912,-85.2327 282.028,-88.3804 281.783,-81.3847"/>
<text text-anchor="middle" x="373" y="-86" font-family="Helvetica,sans-Serif" font-size="10.00"> TEXT_INSETS</text>
</g>
<!-- Node17 -->
<g id="node17" class="node"><title>Node17</title>
<polygon fill="white" stroke="#bfbfbf" points="676,-105.5 676,-124.5 732,-124.5 732,-105.5 676,-105.5"/>
<text text-anchor="middle" x="704" y="-112.5" font-family="Helvetica,sans-Serif" font-size="10.00">TextField</text>
</g>
<!-- Node17&#45;&gt;Node10 -->
<g id="edge17" class="edge"><title>Node17&#45;&gt;Node10</title>
<path fill="none" stroke="#9a32cd" stroke-dasharray="5,2" d="M742.252,-115C776.464,-115 828.373,-115 872.35,-115"/>
<polygon fill="#9a32cd" stroke="#9a32cd" points="742.23,-111.5 732.23,-115 742.23,-118.5 742.23,-111.5"/>
<text text-anchor="middle" x="825" y="-118" font-family="Helvetica,sans-Serif" font-size="10.00"> myTextField</text>
</g>
</g>
</svg>
