<?xml version="1.0" encoding="UTF-8" standalone="no"?>
<!DOCTYPE svg PUBLIC "-//W3C//DTD SVG 1.1//EN"
 "http://www.w3.org/Graphics/SVG/1.1/DTD/svg11.dtd">
<!-- Generated by graphviz version 2.36.0 (20140111.2315)
 -->
<!-- Title: parser.commands.ToData.getName Pages: 1 -->
<svg width="604pt" height="38pt"
 viewBox="0.00 0.00 604.00 38.00" xmlns="http://www.w3.org/2000/svg" xmlns:xlink="http://www.w3.org/1999/xlink">
<g id="graph0" class="graph" transform="scale(1 1) rotate(0) translate(4 34)">
<title>parser.commands.ToData.getName</title>
<polygon fill="white" stroke="none" points="-4,4 -4,-34 600,-34 600,4 -4,4"/>
<!-- Node1 -->
<g id="node1" class="node"><title>Node1</title>
<polygon fill="#bfbfbf" stroke="black" points="0,-5.5 0,-24.5 188,-24.5 188,-5.5 0,-5.5"/>
<text text-anchor="middle" x="94" y="-12.5" font-family="Helvetica,sans-Serif" font-size="10.00">parser.commands.ToData.getName</text>
</g>
<!-- Node2 -->
<g id="node2" class="node"><title>Node2</title>
<g id="a_node2"><a xlink:href="../../db/df9/classmodel_1_1_command_history.html#adcbf1a49162590ce139081d3da6d4f13" target="_top" xlink:title="model.CommandHistory.add\lUDCommand">
<polygon fill="white" stroke="black" points="224.5,-0 224.5,-30 377.5,-30 377.5,-0 224.5,-0"/>
<text text-anchor="start" x="232.5" y="-18" font-family="Helvetica,sans-Serif" font-size="10.00">model.CommandHistory.add</text>
<text text-anchor="middle" x="301" y="-7" font-family="Helvetica,sans-Serif" font-size="10.00">UDCommand</text>
</a>
</g>
</g>
<!-- Node1&#45;&gt;Node2 -->
<g id="edge1" class="edge"><title>Node1&#45;&gt;Node2</title>
<path fill="none" stroke="midnightblue" d="M198.402,-15C207.1,-15 215.789,-15 224.22,-15"/>
<polygon fill="midnightblue" stroke="midnightblue" points="198.202,-11.5001 188.202,-15 198.202,-18.5001 198.202,-11.5001"/>
</g>
<!-- Node3 -->
<g id="node3" class="node"><title>Node3</title>
<g id="a_node3"><a xlink:href="../../db/d3e/classparser_1_1commands_1_1_to_data.html#ae215dd6a8577cd4ed2cb893aa11d9910" target="_top" xlink:title="parser.commands.ToData.execute">
<polygon fill="white" stroke="black" points="414.5,-5.5 414.5,-24.5 595.5,-24.5 595.5,-5.5 414.5,-5.5"/>
<text text-anchor="middle" x="505" y="-12.5" font-family="Helvetica,sans-Serif" font-size="10.00">parser.commands.ToData.execute</text>
</a>
</g>
</g>
<!-- Node2&#45;&gt;Node3 -->
<g id="edge2" class="edge"><title>Node2&#45;&gt;Node3</title>
<path fill="none" stroke="midnightblue" d="M387.727,-15C396.511,-15 405.452,-15 414.277,-15"/>
<polygon fill="midnightblue" stroke="midnightblue" points="387.505,-11.5001 377.505,-15 387.505,-18.5001 387.505,-11.5001"/>
</g>
</g>
</svg>
