<?xml version="1.0" encoding="UTF-8" standalone="no"?>
<!DOCTYPE svg PUBLIC "-//W3C//DTD SVG 1.1//EN"
 "http://www.w3.org/Graphics/SVG/1.1/DTD/svg11.dtd">
<!-- Generated by graphviz version 2.36.0 (20140111.2315)
 -->
<!-- Title: parser.commands.ToData.execute Pages: 1 -->
<svg width="630pt" height="77pt"
 viewBox="0.00 0.00 630.00 77.00" xmlns="http://www.w3.org/2000/svg" xmlns:xlink="http://www.w3.org/1999/xlink">
<g id="graph0" class="graph" transform="scale(1 1) rotate(0) translate(4 73)">
<title>parser.commands.ToData.execute</title>
<polygon fill="white" stroke="none" points="-4,4 -4,-73 626,-73 626,4 -4,4"/>
<!-- Node1 -->
<g id="node1" class="node"><title>Node1</title>
<polygon fill="#bfbfbf" stroke="black" points="0.5,-22.5 0.5,-41.5 181.5,-41.5 181.5,-22.5 0.5,-22.5"/>
<text text-anchor="middle" x="91" y="-29.5" font-family="Helvetica,sans-Serif" font-size="10.00">parser.commands.ToData.execute</text>
</g>
<!-- Node2 -->
<g id="node2" class="node"><title>Node2</title>
<g id="a_node2"><a xlink:href="../../db/df9/classmodel_1_1_command_history.html#adcbf1a49162590ce139081d3da6d4f13" target="_top" xlink:title="model.CommandHistory.add\lUDCommand">
<polygon fill="white" stroke="black" points="231.5,-39 231.5,-69 384.5,-69 384.5,-39 231.5,-39"/>
<text text-anchor="start" x="239.5" y="-57" font-family="Helvetica,sans-Serif" font-size="10.00">model.CommandHistory.add</text>
<text text-anchor="middle" x="308" y="-46" font-family="Helvetica,sans-Serif" font-size="10.00">UDCommand</text>
</a>
</g>
</g>
<!-- Node1&#45;&gt;Node2 -->
<g id="edge1" class="edge"><title>Node1&#45;&gt;Node2</title>
<path fill="none" stroke="midnightblue" d="M181.623,-41.1707C194.624,-42.501 207.984,-43.8681 220.913,-45.1911"/>
<polygon fill="midnightblue" stroke="midnightblue" points="220.87,-48.7049 231.175,-46.2411 221.583,-41.7413 220.87,-48.7049"/>
</g>
<!-- Node4 -->
<g id="node4" class="node"><title>Node4</title>
<g id="a_node4"><a xlink:href="../../d7/dab/classmodel_1_1_state.html#a494a9cb26df072d500f0b6fa941c2779" target="_top" xlink:title="model.State.getCommandHistory">
<polygon fill="white" stroke="black" points="218.5,-0.5 218.5,-19.5 397.5,-19.5 397.5,-0.5 218.5,-0.5"/>
<text text-anchor="middle" x="308" y="-7.5" font-family="Helvetica,sans-Serif" font-size="10.00">model.State.getCommandHistory</text>
</a>
</g>
</g>
<!-- Node1&#45;&gt;Node4 -->
<g id="edge3" class="edge"><title>Node1&#45;&gt;Node4</title>
<path fill="none" stroke="midnightblue" d="M181.623,-22.8293C190.413,-21.9299 199.367,-21.0136 208.241,-20.1056"/>
<polygon fill="midnightblue" stroke="midnightblue" points="208.622,-23.585 218.214,-19.0851 207.909,-16.6213 208.622,-23.585"/>
</g>
<!-- Node3 -->
<g id="node3" class="node"><title>Node3</title>
<g id="a_node3"><a xlink:href="../../db/d3e/classparser_1_1commands_1_1_to_data.html#adddec4479d2cb42813d58f206cb53b9b" target="_top" xlink:title="parser.commands.ToData.getName">
<polygon fill="white" stroke="black" points="434,-44.5 434,-63.5 622,-63.5 622,-44.5 434,-44.5"/>
<text text-anchor="middle" x="528" y="-51.5" font-family="Helvetica,sans-Serif" font-size="10.00">parser.commands.ToData.getName</text>
</a>
</g>
</g>
<!-- Node2&#45;&gt;Node3 -->
<g id="edge2" class="edge"><title>Node2&#45;&gt;Node3</title>
<path fill="none" stroke="midnightblue" d="M384.634,-54C397.276,-54 410.58,-54 423.771,-54"/>
<polygon fill="midnightblue" stroke="midnightblue" points="423.823,-57.5001 433.823,-54 423.823,-50.5001 423.823,-57.5001"/>
</g>
</g>
</svg>
