<?xml version="1.0" encoding="UTF-8" standalone="no"?>
<!DOCTYPE svg PUBLIC "-//W3C//DTD SVG 1.1//EN"
 "http://www.w3.org/Graphics/SVG/1.1/DTD/svg11.dtd">
<!-- Generated by graphviz version 2.36.0 (20140111.2315)
 -->
<!-- Title: parser.commands.NotEqual Pages: 1 -->
<svg width="156pt" height="164pt"
 viewBox="0.00 0.00 156.00 164.00" xmlns="http://www.w3.org/2000/svg" xmlns:xlink="http://www.w3.org/1999/xlink">
<g id="graph0" class="graph" transform="scale(1 1) rotate(0) translate(4 160)">
<title>parser.commands.NotEqual</title>
<polygon fill="white" stroke="none" points="-4,4 -4,-160 152,-160 152,4 -4,4"/>
<!-- Node1 -->
<g id="node1" class="node"><title>Node1</title>
<polygon fill="#bfbfbf" stroke="black" points="-1,-0.5 -1,-19.5 149,-19.5 149,-0.5 -1,-0.5"/>
<text text-anchor="middle" x="74" y="-7.5" font-family="Helvetica,sans-Serif" font-size="10.00">parser.commands.NotEqual</text>
</g>
<!-- Node2 -->
<g id="node2" class="node"><title>Node2</title>
<g id="a_node2"><a xlink:href="../../db/d11/classparser_1_1nodes_1_1_binary_node.html" target="_top" xlink:title="parser.nodes.BinaryNode">
<polygon fill="white" stroke="black" points="5.5,-58.5 5.5,-77.5 142.5,-77.5 142.5,-58.5 5.5,-58.5"/>
<text text-anchor="middle" x="74" y="-65.5" font-family="Helvetica,sans-Serif" font-size="10.00">parser.nodes.BinaryNode</text>
</a>
</g>
</g>
<!-- Node2&#45;&gt;Node1 -->
<g id="edge1" class="edge"><title>Node2&#45;&gt;Node1</title>
<path fill="none" stroke="midnightblue" d="M74,-47.953C74,-38.2875 74,-27.0312 74,-19.5052"/>
<polygon fill="midnightblue" stroke="midnightblue" points="70.5001,-48.25 74,-58.25 77.5001,-48.25 70.5001,-48.25"/>
</g>
<!-- Node3 -->
<g id="node3" class="node"><title>Node3</title>
<g id="a_node3"><a xlink:href="../../da/d96/classparser_1_1nodes_1_1_syntax_node.html" target="_top" xlink:title="parser.nodes.SyntaxNode">
<polygon fill="white" stroke="black" points="4,-136.5 4,-155.5 144,-155.5 144,-136.5 4,-136.5"/>
<text text-anchor="middle" x="74" y="-143.5" font-family="Helvetica,sans-Serif" font-size="10.00">parser.nodes.SyntaxNode</text>
</a>
</g>
</g>
<!-- Node3&#45;&gt;Node2 -->
<g id="edge2" class="edge"><title>Node3&#45;&gt;Node2</title>
<path fill="none" stroke="midnightblue" d="M72.4399,-126.382C72.2572,-123.575 72.1003,-120.713 72,-118 71.6386,-108.229 71.6386,-105.771 72,-96 72.2293,-89.7998 72.7539,-82.8151 73.2083,-77.5033"/>
<polygon fill="midnightblue" stroke="midnightblue" points="68.9607,-126.791 73.2083,-136.497 75.9406,-126.26 68.9607,-126.791"/>
</g>
<!-- Node3&#45;&gt;Node2 -->
<g id="edge3" class="edge"><title>Node3&#45;&gt;Node2</title>
<path fill="none" stroke="#9a32cd" stroke-dasharray="5,2" d="M74,-126.224C74,-110.697 74,-89.3582 74,-77.6165"/>
<polygon fill="#9a32cd" stroke="#9a32cd" points="70.5001,-126.282 74,-136.282 77.5001,-126.282 70.5001,-126.282"/>
<text text-anchor="middle" x="97.5" y="-110" font-family="Helvetica,sans-Serif" font-size="10.00"> nodeOne</text>
<text text-anchor="middle" x="97.5" y="-99" font-family="Helvetica,sans-Serif" font-size="10.00">nodeTwo</text>
</g>
</g>
</svg>
