<?xml version="1.0" encoding="UTF-8" standalone="no"?>
<!DOCTYPE svg PUBLIC "-//W3C//DTD SVG 1.1//EN"
 "http://www.w3.org/Graphics/SVG/1.1/DTD/svg11.dtd">
<!-- Generated by graphviz version 2.36.0 (20140111.2315)
 -->
<!-- Title: view.listwindows.UserDefinedCommandsWindow.getCommandsList Pages: 1 -->
<svg width="430pt" height="38pt"
 viewBox="0.00 0.00 430.00 38.00" xmlns="http://www.w3.org/2000/svg" xmlns:xlink="http://www.w3.org/1999/xlink">
<g id="graph0" class="graph" transform="scale(1 1) rotate(0) translate(4 34)">
<title>view.listwindows.UserDefinedCommandsWindow.getCommandsList</title>
<polygon fill="white" stroke="none" points="-4,4 -4,-34 426,-34 426,4 -4,4"/>
<!-- Node1 -->
<g id="node1" class="node"><title>Node1</title>
<polygon fill="#bfbfbf" stroke="black" points="0.5,-0 0.5,-30 197.5,-30 197.5,-0 0.5,-0"/>
<text text-anchor="start" x="8.5" y="-18" font-family="Helvetica,sans-Serif" font-size="10.00">view.listwindows.UserDefined</text>
<text text-anchor="middle" x="99" y="-7" font-family="Helvetica,sans-Serif" font-size="10.00">CommandsWindow.getCommandsList</text>
</g>
<!-- Node2 -->
<g id="node2" class="node"><title>Node2</title>
<g id="a_node2"><a xlink:href="../../d0/d9f/classmodel_1_1_command_history_update.html#a16f31329e391bf9de9d5816d5df86343" target="_top" xlink:title="model.CommandHistoryUpdate.get\lUDCommand">
<polygon fill="white" stroke="black" points="234,-0 234,-30 422,-30 422,-0 234,-0"/>
<text text-anchor="start" x="242" y="-18" font-family="Helvetica,sans-Serif" font-size="10.00">model.CommandHistoryUpdate.get</text>
<text text-anchor="middle" x="328" y="-7" font-family="Helvetica,sans-Serif" font-size="10.00">UDCommand</text>
</a>
</g>
</g>
<!-- Node1&#45;&gt;Node2 -->
<g id="edge1" class="edge"><title>Node1&#45;&gt;Node2</title>
<path fill="none" stroke="midnightblue" d="M197.586,-15C206.223,-15 214.985,-15 223.667,-15"/>
<polygon fill="midnightblue" stroke="midnightblue" points="223.811,-18.5001 233.811,-15 223.811,-11.5001 223.811,-18.5001"/>
</g>
</g>
</svg>
