<?xml version="1.0" encoding="UTF-8" standalone="no"?>
<!DOCTYPE svg PUBLIC "-//W3C//DTD SVG 1.1//EN"
 "http://www.w3.org/Graphics/SVG/1.1/DTD/svg11.dtd">
<!-- Generated by graphviz version 2.36.0 (20140111.2315)
 -->
<!-- Title: view.listwindows.UserDefinedCommandsWindow.setButtonAction Pages: 1 -->
<svg width="1620pt" height="381pt"
 viewBox="0.00 0.00 1620.00 381.00" xmlns="http://www.w3.org/2000/svg" xmlns:xlink="http://www.w3.org/1999/xlink">
<g id="graph0" class="graph" transform="scale(1 1) rotate(0) translate(4 377)">
<title>view.listwindows.UserDefinedCommandsWindow.setButtonAction</title>
<polygon fill="white" stroke="none" points="-4,4 -4,-377 1616,-377 1616,4 -4,4"/>
<!-- Node1 -->
<g id="node1" class="node"><title>Node1</title>
<polygon fill="#bfbfbf" stroke="black" points="0.5,-113 0.5,-143 187.5,-143 187.5,-113 0.5,-113"/>
<text text-anchor="start" x="8.5" y="-131" font-family="Helvetica,sans-Serif" font-size="10.00">view.listwindows.UserDefined</text>
<text text-anchor="middle" x="94" y="-120" font-family="Helvetica,sans-Serif" font-size="10.00">CommandsWindow.setButtonAction</text>
</g>
<!-- Node2 -->
<g id="node2" class="node"><title>Node2</title>
<g id="a_node2"><a xlink:href="../../da/df5/classview_1_1listwindows_1_1_commands_list_window.html#a3611428a65d6e7a436971f1b237e644e" target="_top" xlink:title="view.listwindows.Commands\lListWindow.parseCommand">
<polygon fill="white" stroke="black" points="224,-162 224,-192 374,-192 374,-162 224,-162"/>
<text text-anchor="start" x="232" y="-180" font-family="Helvetica,sans-Serif" font-size="10.00">view.listwindows.Commands</text>
<text text-anchor="middle" x="299" y="-169" font-family="Helvetica,sans-Serif" font-size="10.00">ListWindow.parseCommand</text>
</a>
</g>
</g>
<!-- Node1&#45;&gt;Node2 -->
<g id="edge1" class="edge"><title>Node1&#45;&gt;Node2</title>
<path fill="none" stroke="midnightblue" d="M157.286,-143.035C179.013,-148.279 203.571,-154.207 226.02,-159.626"/>
<polygon fill="midnightblue" stroke="midnightblue" points="225.289,-163.05 235.832,-161.994 226.932,-156.245 225.289,-163.05"/>
</g>
<!-- Node30 -->
<g id="node30" class="node"><title>Node30</title>
<g id="a_node30"><a xlink:href="../../da/d22/classview_1_1dialogs_1_1_text_input_dialog_box.html#afd765a97f9e371605f799d67dc0f258c" target="_top" xlink:title="view.dialogs.TextInputDialog\lBox.setText">
<polygon fill="white" stroke="black" points="224.5,-113 224.5,-143 373.5,-143 373.5,-113 224.5,-113"/>
<text text-anchor="start" x="232.5" y="-131" font-family="Helvetica,sans-Serif" font-size="10.00">view.dialogs.TextInputDialog</text>
<text text-anchor="middle" x="299" y="-120" font-family="Helvetica,sans-Serif" font-size="10.00">Box.setText</text>
</a>
</g>
</g>
<!-- Node1&#45;&gt;Node30 -->
<g id="edge32" class="edge"><title>Node1&#45;&gt;Node30</title>
<path fill="none" stroke="midnightblue" d="M187.589,-128C196.458,-128 205.418,-128 214.196,-128"/>
<polygon fill="midnightblue" stroke="midnightblue" points="214.401,-131.5 224.401,-128 214.401,-124.5 214.401,-131.5"/>
</g>
<!-- Node31 -->
<g id="node31" class="node"><title>Node31</title>
<g id="a_node31"><a xlink:href="../../d0/de5/classview_1_1dialogs_1_1_input_dialog_box.html#a47a0db1150edb25d69f50d7d199e0d20" target="_top" xlink:title="view.dialogs.InputDialog\lBox.showInputDialog">
<polygon fill="white" stroke="black" points="234,-64 234,-94 364,-94 364,-64 234,-64"/>
<text text-anchor="start" x="242" y="-82" font-family="Helvetica,sans-Serif" font-size="10.00">view.dialogs.InputDialog</text>
<text text-anchor="middle" x="299" y="-71" font-family="Helvetica,sans-Serif" font-size="10.00">Box.showInputDialog</text>
</a>
</g>
</g>
<!-- Node1&#45;&gt;Node31 -->
<g id="edge33" class="edge"><title>Node1&#45;&gt;Node31</title>
<path fill="none" stroke="midnightblue" d="M157.286,-112.965C179.013,-107.721 203.571,-101.793 226.02,-96.3745"/>
<polygon fill="midnightblue" stroke="midnightblue" points="226.932,-99.755 235.832,-94.0062 225.289,-92.9504 226.932,-99.755"/>
</g>
<!-- Node3 -->
<g id="node3" class="node"><title>Node3</title>
<g id="a_node3"><a xlink:href="../../d3/d42/classmodel_1_1_model.html#a58696dcb49d5de7290734289922cd126" target="_top" xlink:title="model.Model.getInstance">
<polygon fill="white" stroke="black" points="410.5,-203.5 410.5,-222.5 547.5,-222.5 547.5,-203.5 410.5,-203.5"/>
<text text-anchor="middle" x="479" y="-210.5" font-family="Helvetica,sans-Serif" font-size="10.00">model.Model.getInstance</text>
</a>
</g>
</g>
<!-- Node2&#45;&gt;Node3 -->
<g id="edge2" class="edge"><title>Node2&#45;&gt;Node3</title>
<path fill="none" stroke="midnightblue" d="M374.199,-192.007C389.778,-195.157 405.979,-198.434 420.821,-201.436"/>
<polygon fill="midnightblue" stroke="midnightblue" points="420.359,-204.913 430.855,-203.465 421.747,-198.052 420.359,-204.913"/>
</g>
<!-- Node7 -->
<g id="node7" class="node"><title>Node7</title>
<g id="a_node7"><a xlink:href="../../d3/dbe/classview_1_1_view.html#a6950e4055440ab5672a2453b149f41d0" target="_top" xlink:title="view.View.getInstance">
<polygon fill="white" stroke="black" points="419.5,-165.5 419.5,-184.5 538.5,-184.5 538.5,-165.5 419.5,-165.5"/>
<text text-anchor="middle" x="479" y="-172.5" font-family="Helvetica,sans-Serif" font-size="10.00">view.View.getInstance</text>
</a>
</g>
</g>
<!-- Node2&#45;&gt;Node7 -->
<g id="edge6" class="edge"><title>Node2&#45;&gt;Node7</title>
<path fill="none" stroke="midnightblue" d="M374.199,-176.166C385.739,-176.037 397.62,-175.903 409.037,-175.775"/>
<polygon fill="midnightblue" stroke="midnightblue" points="409.408,-179.271 419.368,-175.659 409.33,-172.271 409.408,-179.271"/>
</g>
<!-- Node8 -->
<g id="node8" class="node"><title>Node8</title>
<g id="a_node8"><a xlink:href="../../d3/d42/classmodel_1_1_model.html#a8a07e7f2040e8a2ab50ec2955504f6c4" target="_top" xlink:title="model.Model.parse">
<polygon fill="white" stroke="black" points="425,-118.5 425,-137.5 533,-137.5 533,-118.5 425,-118.5"/>
<text text-anchor="middle" x="479" y="-125.5" font-family="Helvetica,sans-Serif" font-size="10.00">model.Model.parse</text>
</a>
</g>
</g>
<!-- Node2&#45;&gt;Node8 -->
<g id="edge7" class="edge"><title>Node2&#45;&gt;Node8</title>
<path fill="none" stroke="midnightblue" d="M354.858,-161.899C380.153,-154.935 409.785,-146.778 433.641,-140.211"/>
<polygon fill="midnightblue" stroke="midnightblue" points="434.77,-143.531 443.483,-137.502 432.912,-136.782 434.77,-143.531"/>
</g>
<!-- Node28 -->
<g id="node28" class="node"><title>Node28</title>
<g id="a_node28"><a xlink:href="../../d3/dbe/classview_1_1_view.html#a4a0ca8adc68660017e319de54dedcb83" target="_top" xlink:title="view.View.showDialog">
<polygon fill="white" stroke="black" points="420.5,-241.5 420.5,-260.5 537.5,-260.5 537.5,-241.5 420.5,-241.5"/>
<text text-anchor="middle" x="479" y="-248.5" font-family="Helvetica,sans-Serif" font-size="10.00">view.View.showDialog</text>
</a>
</g>
</g>
<!-- Node2&#45;&gt;Node28 -->
<g id="edge30" class="edge"><title>Node2&#45;&gt;Node28</title>
<path fill="none" stroke="midnightblue" d="M326.472,-192.036C348.358,-204.024 380.516,-220.63 410,-232 416.004,-234.315 422.406,-236.48 428.789,-238.459"/>
<polygon fill="midnightblue" stroke="midnightblue" points="428.163,-241.924 438.745,-241.41 430.152,-235.212 428.163,-241.924"/>
</g>
<!-- Node4 -->
<g id="node4" class="node"><title>Node4</title>
<g id="a_node4"><a xlink:href="../../d3/d42/classmodel_1_1_model.html#af870d64d87a18f6cd1a84a77ff6dc3a1" target="_top" xlink:title="model.Model.Model">
<polygon fill="white" stroke="black" points="626,-203.5 626,-222.5 736,-222.5 736,-203.5 626,-203.5"/>
<text text-anchor="middle" x="681" y="-210.5" font-family="Helvetica,sans-Serif" font-size="10.00">model.Model.Model</text>
</a>
</g>
</g>
<!-- Node3&#45;&gt;Node4 -->
<g id="edge3" class="edge"><title>Node3&#45;&gt;Node4</title>
<path fill="none" stroke="midnightblue" d="M547.711,-213C569.723,-213 594.073,-213 615.819,-213"/>
<polygon fill="midnightblue" stroke="midnightblue" points="615.935,-216.5 625.935,-213 615.935,-209.5 615.935,-216.5"/>
</g>
<!-- Node5 -->
<g id="node5" class="node"><title>Node5</title>
<g id="a_node5"><a xlink:href="../../d3/d42/classmodel_1_1_model.html#a068261e6e8761ccabf6d227ee17732ea" target="_top" xlink:title="model.Model.setState">
<polygon fill="white" stroke="black" points="853,-345.5 853,-364.5 975,-364.5 975,-345.5 853,-345.5"/>
<text text-anchor="middle" x="914" y="-352.5" font-family="Helvetica,sans-Serif" font-size="10.00">model.Model.setState</text>
</a>
</g>
</g>
<!-- Node4&#45;&gt;Node5 -->
<g id="edge4" class="edge"><title>Node4&#45;&gt;Node5</title>
<path fill="none" stroke="midnightblue" d="M736.124,-214.029C751.1,-216.721 766.407,-222.029 778,-232 813.813,-262.802 778.698,-300.614 814,-332 822.279,-339.361 832.451,-344.494 843.09,-348.051"/>
<polygon fill="midnightblue" stroke="midnightblue" points="842.373,-351.486 852.951,-350.892 844.311,-344.76 842.373,-351.486"/>
</g>
<!-- Node6 -->
<g id="node6" class="node"><title>Node6</title>
<g id="a_node6"><a xlink:href="../../d4/d3a/classparser_1_1parser_1_1_parser.html#a6e5a4c214fd0af163bdf2f1f5ad84505" target="_top" xlink:title="parser.parser.Parser.set\lActiveState">
<polygon fill="white" stroke="black" points="1086,-342 1086,-372 1216,-372 1216,-342 1086,-342"/>
<text text-anchor="start" x="1094" y="-360" font-family="Helvetica,sans-Serif" font-size="10.00">parser.parser.Parser.set</text>
<text text-anchor="middle" x="1151" y="-349" font-family="Helvetica,sans-Serif" font-size="10.00">ActiveState</text>
</a>
</g>
</g>
<!-- Node5&#45;&gt;Node6 -->
<g id="edge5" class="edge"><title>Node5&#45;&gt;Node6</title>
<path fill="none" stroke="midnightblue" d="M975.213,-355.512C1005.77,-355.772 1043.17,-356.091 1075.52,-356.366"/>
<polygon fill="midnightblue" stroke="midnightblue" points="1075.8,-359.869 1085.83,-356.454 1075.86,-352.869 1075.8,-359.869"/>
</g>
<!-- Node9 -->
<g id="node9" class="node"><title>Node9</title>
<g id="a_node9"><a xlink:href="../../db/df9/classmodel_1_1_command_history.html#a435edf344accb9115ca6183eb28594df" target="_top" xlink:title="model.CommandHistory.add\lCommand">
<polygon fill="white" stroke="black" points="604.5,-113 604.5,-143 757.5,-143 757.5,-113 604.5,-113"/>
<text text-anchor="start" x="612.5" y="-131" font-family="Helvetica,sans-Serif" font-size="10.00">model.CommandHistory.add</text>
<text text-anchor="middle" x="681" y="-120" font-family="Helvetica,sans-Serif" font-size="10.00">Command</text>
</a>
</g>
</g>
<!-- Node8&#45;&gt;Node9 -->
<g id="edge8" class="edge"><title>Node8&#45;&gt;Node9</title>
<path fill="none" stroke="midnightblue" d="M533.071,-128C551.867,-128 573.524,-128 594.335,-128"/>
<polygon fill="midnightblue" stroke="midnightblue" points="594.468,-131.5 604.468,-128 594.468,-124.5 594.468,-131.5"/>
</g>
<!-- Node11 -->
<g id="node11" class="node"><title>Node11</title>
<g id="a_node11"><a xlink:href="../../d1/d4b/classparser_1_1nodes_1_1_command_root.html#ad17f6840005e54b498a8857f161cd6b1" target="_top" xlink:title="parser.nodes.CommandRoot.execute">
<polygon fill="white" stroke="black" points="584,-74.5 584,-93.5 778,-93.5 778,-74.5 584,-74.5"/>
<text text-anchor="middle" x="681" y="-81.5" font-family="Helvetica,sans-Serif" font-size="10.00">parser.nodes.CommandRoot.execute</text>
</a>
</g>
</g>
<!-- Node8&#45;&gt;Node11 -->
<g id="edge10" class="edge"><title>Node8&#45;&gt;Node11</title>
<path fill="none" stroke="midnightblue" d="M517.95,-118.487C537.617,-113.656 562.051,-107.808 584,-103 595.54,-100.472 607.893,-97.9158 619.766,-95.533"/>
<polygon fill="midnightblue" stroke="midnightblue" points="620.474,-98.9609 629.599,-93.5766 619.108,-92.0954 620.474,-98.9609"/>
</g>
<!-- Node14 -->
<g id="node14" class="node"><title>Node14</title>
<g id="a_node14"><a xlink:href="../../d7/dab/classmodel_1_1_state.html#a494a9cb26df072d500f0b6fa941c2779" target="_top" xlink:title="model.State.getCommandHistory">
<polygon fill="white" stroke="black" points="591.5,-36.5 591.5,-55.5 770.5,-55.5 770.5,-36.5 591.5,-36.5"/>
<text text-anchor="middle" x="681" y="-43.5" font-family="Helvetica,sans-Serif" font-size="10.00">model.State.getCommandHistory</text>
</a>
</g>
</g>
<!-- Node8&#45;&gt;Node14 -->
<g id="edge14" class="edge"><title>Node8&#45;&gt;Node14</title>
<path fill="none" stroke="midnightblue" d="M515.365,-118.449C526.334,-114.601 538.125,-109.503 548,-103 567.43,-90.2046 563.627,-76.2332 584,-65 588.196,-62.6863 592.633,-60.6518 597.206,-58.8631"/>
<polygon fill="midnightblue" stroke="midnightblue" points="598.468,-62.13 606.752,-55.5259 596.157,-55.5221 598.468,-62.13"/>
</g>
<!-- Node15 -->
<g id="node15" class="node"><title>Node15</title>
<g id="a_node15"><a xlink:href="../../d4/d3a/classparser_1_1parser_1_1_parser.html#a51f4baa200eb0c94b804119b1439a1aa" target="_top" xlink:title="parser.parser.Parser.parse">
<polygon fill="white" stroke="black" points="610,-164.5 610,-183.5 752,-183.5 752,-164.5 610,-164.5"/>
<text text-anchor="middle" x="681" y="-171.5" font-family="Helvetica,sans-Serif" font-size="10.00">parser.parser.Parser.parse</text>
</a>
</g>
</g>
<!-- Node8&#45;&gt;Node15 -->
<g id="edge15" class="edge"><title>Node8&#45;&gt;Node15</title>
<path fill="none" stroke="midnightblue" d="M521.244,-137.533C540.337,-141.942 563.323,-147.245 584,-152 598.487,-155.332 614.206,-158.938 628.649,-162.247"/>
<polygon fill="midnightblue" stroke="midnightblue" points="627.885,-165.663 638.414,-164.484 629.448,-158.84 627.885,-165.663"/>
</g>
<!-- Node10 -->
<g id="node10" class="node"><title>Node10</title>
<g id="a_node10"><a xlink:href="../../db/df9/classmodel_1_1_command_history.html#ac471d294d4221291007a86a8764a644d" target="_top" xlink:title="model.CommandHistory.notify\lObservers">
<polygon fill="white" stroke="black" points="833.5,-49 833.5,-79 994.5,-79 994.5,-49 833.5,-49"/>
<text text-anchor="start" x="841.5" y="-67" font-family="Helvetica,sans-Serif" font-size="10.00">model.CommandHistory.notify</text>
<text text-anchor="middle" x="914" y="-56" font-family="Helvetica,sans-Serif" font-size="10.00">Observers</text>
</a>
</g>
</g>
<!-- Node9&#45;&gt;Node10 -->
<g id="edge9" class="edge"><title>Node9&#45;&gt;Node10</title>
<path fill="none" stroke="midnightblue" d="M740.703,-112.976C753.039,-109.745 765.959,-106.306 778,-103 802.393,-96.3018 829.172,-88.6316 852.404,-81.8757"/>
<polygon fill="midnightblue" stroke="midnightblue" points="853.505,-85.2005 862.126,-79.0417 851.546,-78.4802 853.505,-85.2005"/>
</g>
<!-- Node12 -->
<g id="node12" class="node"><title>Node12</title>
<g id="a_node12"><a xlink:href="../../d4/d1c/classparser_1_1nodes_1_1_list_node.html#a8f67ed3b41ee000feaf89f783def5697" target="_top" xlink:title="parser.nodes.ListNode.execute\lNodes">
<polygon fill="white" stroke="black" points="831.5,-0 831.5,-30 996.5,-30 996.5,-0 831.5,-0"/>
<text text-anchor="start" x="839.5" y="-18" font-family="Helvetica,sans-Serif" font-size="10.00">parser.nodes.ListNode.execute</text>
<text text-anchor="middle" x="914" y="-7" font-family="Helvetica,sans-Serif" font-size="10.00">Nodes</text>
</a>
</g>
</g>
<!-- Node11&#45;&gt;Node12 -->
<g id="edge11" class="edge"><title>Node11&#45;&gt;Node12</title>
<path fill="none" stroke="midnightblue" d="M749.489,-74.4759C759.265,-72.0035 769.042,-68.898 778,-65 796.097,-57.1249 796.074,-47.2574 814,-39 818.387,-36.9791 822.965,-35.1162 827.643,-33.4007"/>
<polygon fill="midnightblue" stroke="midnightblue" points="829.025,-36.6272 837.357,-30.0827 826.763,-30.003 829.025,-36.6272"/>
</g>
<!-- Node13 -->
<g id="node13" class="node"><title>Node13</title>
<g id="a_node13"><a xlink:href="../../d4/d1c/classparser_1_1nodes_1_1_list_node.html#a82a3418e343a5d6ed112be4b7b2b0282" target="_top" xlink:title="parser.nodes.ListNode.execute">
<polygon fill="white" stroke="black" points="1068.5,-5.5 1068.5,-24.5 1233.5,-24.5 1233.5,-5.5 1068.5,-5.5"/>
<text text-anchor="middle" x="1151" y="-12.5" font-family="Helvetica,sans-Serif" font-size="10.00">parser.nodes.ListNode.execute</text>
</a>
</g>
</g>
<!-- Node12&#45;&gt;Node13 -->
<g id="edge12" class="edge"><title>Node12&#45;&gt;Node13</title>
<path fill="none" stroke="midnightblue" d="M996.532,-8.53932C1016.38,-8.21051 1037.74,-8.16197 1058.03,-8.39369"/>
<polygon fill="midnightblue" stroke="midnightblue" points="1058.17,-11.8958 1068.21,-8.53513 1058.26,-4.89647 1058.17,-11.8958"/>
</g>
<!-- Node13&#45;&gt;Node12 -->
<g id="edge13" class="edge"><title>Node13&#45;&gt;Node12</title>
<path fill="none" stroke="midnightblue" d="M1068.21,-21.4649C1048.36,-21.7913 1026.99,-21.8374 1006.71,-21.6033"/>
<polygon fill="midnightblue" stroke="midnightblue" points="1006.58,-18.1013 996.532,-21.4607 1006.48,-25.1006 1006.58,-18.1013"/>
</g>
<!-- Node16 -->
<g id="node16" class="node"><title>Node16</title>
<g id="a_node16"><a xlink:href="../../d2/d66/classparser_1_1parser_1_1_command_factory.html#a0dc44bc9972a4652d98146b5e30a5e72" target="_top" xlink:title="parser.parser.CommandFactory.create\lCommand">
<polygon fill="white" stroke="black" points="814,-137 814,-167 1014,-167 1014,-137 814,-137"/>
<text text-anchor="start" x="822" y="-155" font-family="Helvetica,sans-Serif" font-size="10.00">parser.parser.CommandFactory.create</text>
<text text-anchor="middle" x="914" y="-144" font-family="Helvetica,sans-Serif" font-size="10.00">Command</text>
</a>
</g>
</g>
<!-- Node15&#45;&gt;Node16 -->
<g id="edge16" class="edge"><title>Node15&#45;&gt;Node16</title>
<path fill="none" stroke="midnightblue" d="M752.248,-167.31C768.449,-165.767 786.06,-164.09 803.488,-162.43"/>
<polygon fill="midnightblue" stroke="midnightblue" points="804.094,-165.888 813.717,-161.456 803.43,-158.919 804.094,-165.888"/>
</g>
<!-- Node19 -->
<g id="node19" class="node"><title>Node19</title>
<g id="a_node19"><a xlink:href="../../de/d16/classparser_1_1parser_1_1_regex.html#a9da6d787de06ba7ea76d52326b532bd1" target="_top" xlink:title="parser.parser.Regex.getInstance">
<polygon fill="white" stroke="black" points="1066,-91.5 1066,-110.5 1236,-110.5 1236,-91.5 1066,-91.5"/>
<text text-anchor="middle" x="1151" y="-98.5" font-family="Helvetica,sans-Serif" font-size="10.00">parser.parser.Regex.getInstance</text>
</a>
</g>
</g>
<!-- Node15&#45;&gt;Node19 -->
<g id="edge26" class="edge"><title>Node15&#45;&gt;Node19</title>
<path fill="none" stroke="midnightblue" d="M740.012,-164.457C752.824,-161.326 766.114,-157.253 778,-152 795.817,-144.126 795.649,-133.535 814,-127 891.984,-99.2293 986.401,-94.2135 1055.27,-95.2828"/>
<polygon fill="midnightblue" stroke="midnightblue" points="1055.59,-98.7901 1065.66,-95.4934 1055.74,-91.7916 1055.59,-98.7901"/>
</g>
<!-- Node22 -->
<g id="node22" class="node"><title>Node22</title>
<g id="a_node22"><a xlink:href="../../d2/d66/classparser_1_1parser_1_1_command_factory.html#a2c91b8ed8cbfcb588f6e32f7363eefd9" target="_top" xlink:title="parser.parser.CommandFactory.get\lInstance">
<polygon fill="white" stroke="black" points="821.5,-293 821.5,-323 1006.5,-323 1006.5,-293 821.5,-293"/>
<text text-anchor="start" x="829.5" y="-311" font-family="Helvetica,sans-Serif" font-size="10.00">parser.parser.CommandFactory.get</text>
<text text-anchor="middle" x="914" y="-300" font-family="Helvetica,sans-Serif" font-size="10.00">Instance</text>
</a>
</g>
</g>
<!-- Node15&#45;&gt;Node22 -->
<g id="edge22" class="edge"><title>Node15&#45;&gt;Node22</title>
<path fill="none" stroke="midnightblue" d="M752.202,-180.358C761.543,-183.481 770.476,-187.872 778,-194 809.178,-219.392 784.104,-250.111 814,-277 818.833,-281.347 824.272,-285.085 830.048,-288.298"/>
<polygon fill="midnightblue" stroke="midnightblue" points="828.853,-291.613 839.366,-292.929 831.969,-285.344 828.853,-291.613"/>
</g>
<!-- Node24 -->
<g id="node24" class="node"><title>Node24</title>
<g id="a_node24"><a xlink:href="../../dc/d09/classparser_1_1parser_1_1_to_factory.html#ac5256eea6647641f83b40c5a350a1518" target="_top" xlink:title="parser.parser.ToFactory.get\lInstance">
<polygon fill="white" stroke="black" points="842,-238 842,-268 986,-268 986,-238 842,-238"/>
<text text-anchor="start" x="850" y="-256" font-family="Helvetica,sans-Serif" font-size="10.00">parser.parser.ToFactory.get</text>
<text text-anchor="middle" x="914" y="-245" font-family="Helvetica,sans-Serif" font-size="10.00">Instance</text>
</a>
</g>
</g>
<!-- Node15&#45;&gt;Node24 -->
<g id="edge24" class="edge"><title>Node15&#45;&gt;Node24</title>
<path fill="none" stroke="midnightblue" d="M742.52,-183.506C754.482,-186.246 766.796,-189.696 778,-194 795.292,-200.642 797.299,-206.988 814,-215 828.433,-221.924 844.483,-228.528 859.387,-234.231"/>
<polygon fill="midnightblue" stroke="midnightblue" points="858.394,-237.597 868.986,-237.843 860.859,-231.046 858.394,-237.597"/>
</g>
<!-- Node26 -->
<g id="node26" class="node"><title>Node26</title>
<g id="a_node26"><a xlink:href="../../de/d16/classparser_1_1parser_1_1_regex.html#a5d526d752521b953619721c6d3e930bd" target="_top" xlink:title="parser.parser.Regex.getType">
<polygon fill="white" stroke="black" points="838.5,-186.5 838.5,-205.5 989.5,-205.5 989.5,-186.5 838.5,-186.5"/>
<text text-anchor="middle" x="914" y="-193.5" font-family="Helvetica,sans-Serif" font-size="10.00">parser.parser.Regex.getType</text>
</a>
</g>
</g>
<!-- Node15&#45;&gt;Node26 -->
<g id="edge27" class="edge"><title>Node15&#45;&gt;Node26</title>
<path fill="none" stroke="midnightblue" d="M752.248,-180.69C776.165,-182.968 803.155,-185.539 828.095,-187.914"/>
<polygon fill="midnightblue" stroke="midnightblue" points="827.986,-191.419 838.273,-188.883 828.65,-184.451 827.986,-191.419"/>
</g>
<!-- Node17 -->
<g id="node17" class="node"><title>Node17</title>
<g id="a_node17"><a xlink:href="../../de/d16/classparser_1_1parser_1_1_regex.html#aa4a03f1544e5043ea8da8f12ab4ece23" target="_top" xlink:title="parser.parser.Regex.getCommandType">
<polygon fill="white" stroke="black" points="1050.5,-129.5 1050.5,-148.5 1251.5,-148.5 1251.5,-129.5 1050.5,-129.5"/>
<text text-anchor="middle" x="1151" y="-136.5" font-family="Helvetica,sans-Serif" font-size="10.00">parser.parser.Regex.getCommandType</text>
</a>
</g>
</g>
<!-- Node16&#45;&gt;Node17 -->
<g id="edge17" class="edge"><title>Node16&#45;&gt;Node17</title>
<path fill="none" stroke="midnightblue" d="M1014.32,-146.506C1022.87,-146.033 1031.56,-145.552 1040.19,-145.075"/>
<polygon fill="midnightblue" stroke="midnightblue" points="1040.49,-148.563 1050.28,-144.516 1040.1,-141.574 1040.49,-148.563"/>
</g>
<!-- Node16&#45;&gt;Node19 -->
<g id="edge19" class="edge"><title>Node16&#45;&gt;Node19</title>
<path fill="none" stroke="midnightblue" d="M976.024,-136.921C999.144,-131.369 1025.74,-125.178 1050,-120 1062.14,-117.41 1075.14,-114.811 1087.62,-112.403"/>
<polygon fill="midnightblue" stroke="midnightblue" points="1088.33,-115.832 1097.49,-110.517 1087.01,-108.956 1088.33,-115.832"/>
</g>
<!-- Node18 -->
<g id="node18" class="node"><title>Node18</title>
<g id="a_node18"><a xlink:href="../../de/d16/classparser_1_1parser_1_1_regex.html#a162d120a60bdb10238c3d31c4f5f6903" target="_top" xlink:title="parser.parser.Regex.match">
<polygon fill="white" stroke="black" points="1288.5,-167.5 1288.5,-186.5 1433.5,-186.5 1433.5,-167.5 1288.5,-167.5"/>
<text text-anchor="middle" x="1361" y="-174.5" font-family="Helvetica,sans-Serif" font-size="10.00">parser.parser.Regex.match</text>
</a>
</g>
</g>
<!-- Node17&#45;&gt;Node18 -->
<g id="edge18" class="edge"><title>Node17&#45;&gt;Node18</title>
<path fill="none" stroke="midnightblue" d="M1204.22,-148.54C1232.65,-153.735 1268.02,-160.196 1297.87,-165.649"/>
<polygon fill="midnightblue" stroke="midnightblue" points="1297.29,-169.102 1307.76,-167.456 1298.55,-162.216 1297.29,-169.102"/>
</g>
<!-- Node20 -->
<g id="node20" class="node"><title>Node20</title>
<g id="a_node20"><a xlink:href="../../de/d16/classparser_1_1parser_1_1_regex.html#a1fd187b9f2b45d0707cb10057e80d7ff" target="_top" xlink:title="parser.parser.Regex.Regex">
<polygon fill="white" stroke="black" points="1289.5,-91.5 1289.5,-110.5 1432.5,-110.5 1432.5,-91.5 1289.5,-91.5"/>
<text text-anchor="middle" x="1361" y="-98.5" font-family="Helvetica,sans-Serif" font-size="10.00">parser.parser.Regex.Regex</text>
</a>
</g>
</g>
<!-- Node19&#45;&gt;Node20 -->
<g id="edge20" class="edge"><title>Node19&#45;&gt;Node20</title>
<path fill="none" stroke="midnightblue" d="M1236,-101C1250.25,-101 1265.01,-101 1279.17,-101"/>
<polygon fill="midnightblue" stroke="midnightblue" points="1279.36,-104.5 1289.36,-101 1279.36,-97.5001 1279.36,-104.5"/>
</g>
<!-- Node21 -->
<g id="node21" class="node"><title>Node21</title>
<g id="a_node21"><a xlink:href="../../de/d16/classparser_1_1parser_1_1_regex.html#a413da3364c9c07a315222d34d7f0fc56" target="_top" xlink:title="parser.parser.Regex.make\lPatterns">
<polygon fill="white" stroke="black" points="1470.5,-86 1470.5,-116 1611.5,-116 1611.5,-86 1470.5,-86"/>
<text text-anchor="start" x="1478.5" y="-104" font-family="Helvetica,sans-Serif" font-size="10.00">parser.parser.Regex.make</text>
<text text-anchor="middle" x="1541" y="-93" font-family="Helvetica,sans-Serif" font-size="10.00">Patterns</text>
</a>
</g>
</g>
<!-- Node20&#45;&gt;Node21 -->
<g id="edge21" class="edge"><title>Node20&#45;&gt;Node21</title>
<path fill="none" stroke="midnightblue" d="M1432.61,-101C1441.63,-101 1450.92,-101 1460.08,-101"/>
<polygon fill="midnightblue" stroke="midnightblue" points="1460.35,-104.5 1470.35,-101 1460.35,-97.5001 1460.35,-104.5"/>
</g>
<!-- Node23 -->
<g id="node23" class="node"><title>Node23</title>
<g id="a_node23"><a xlink:href="../../d2/d66/classparser_1_1parser_1_1_command_factory.html#ac81b65f58a35eb24a9f92303cf7f491e" target="_top" xlink:title="parser.parser.CommandFactory.\lCommandFactory">
<polygon fill="white" stroke="black" points="1066.5,-293 1066.5,-323 1235.5,-323 1235.5,-293 1066.5,-293"/>
<text text-anchor="start" x="1074.5" y="-311" font-family="Helvetica,sans-Serif" font-size="10.00">parser.parser.CommandFactory.</text>
<text text-anchor="middle" x="1151" y="-300" font-family="Helvetica,sans-Serif" font-size="10.00">CommandFactory</text>
</a>
</g>
</g>
<!-- Node22&#45;&gt;Node23 -->
<g id="edge23" class="edge"><title>Node22&#45;&gt;Node23</title>
<path fill="none" stroke="midnightblue" d="M1006.53,-308C1022.86,-308 1039.89,-308 1056.28,-308"/>
<polygon fill="midnightblue" stroke="midnightblue" points="1056.39,-311.5 1066.39,-308 1056.39,-304.5 1056.39,-311.5"/>
</g>
<!-- Node25 -->
<g id="node25" class="node"><title>Node25</title>
<g id="a_node25"><a xlink:href="../../dc/d09/classparser_1_1parser_1_1_to_factory.html#a432d9b50bd2cbb0a73da7fc68b25bd4c" target="_top" xlink:title="parser.parser.ToFactory.\lToFactory">
<polygon fill="white" stroke="black" points="1087,-244 1087,-274 1215,-274 1215,-244 1087,-244"/>
<text text-anchor="start" x="1095" y="-262" font-family="Helvetica,sans-Serif" font-size="10.00">parser.parser.ToFactory.</text>
<text text-anchor="middle" x="1151" y="-251" font-family="Helvetica,sans-Serif" font-size="10.00">ToFactory</text>
</a>
</g>
</g>
<!-- Node24&#45;&gt;Node25 -->
<g id="edge25" class="edge"><title>Node24&#45;&gt;Node25</title>
<path fill="none" stroke="midnightblue" d="M986.145,-254.816C1014.79,-255.548 1047.8,-256.391 1076.66,-257.127"/>
<polygon fill="midnightblue" stroke="midnightblue" points="1076.59,-260.627 1086.68,-257.383 1076.77,-253.629 1076.59,-260.627"/>
</g>
<!-- Node26&#45;&gt;Node18 -->
<g id="edge29" class="edge"><title>Node26&#45;&gt;Node18</title>
<path fill="none" stroke="midnightblue" d="M989.785,-199.719C1058.18,-202.239 1162.09,-203.848 1252,-196 1269.76,-194.45 1288.97,-191.492 1306.2,-188.364"/>
<polygon fill="midnightblue" stroke="midnightblue" points="1306.91,-191.793 1316.09,-186.512 1305.62,-184.913 1306.91,-191.793"/>
</g>
<!-- Node27 -->
<g id="node27" class="node"><title>Node27</title>
<g id="a_node27"><a xlink:href="../../d7/dda/enumparser_1_1parser_1_1_general_type.html#af35aa06f434667ca22f66abcc181eb30" target="_top" xlink:title="parser.parser.GeneralType.findType">
<polygon fill="white" stroke="black" points="1060,-167.5 1060,-186.5 1242,-186.5 1242,-167.5 1060,-167.5"/>
<text text-anchor="middle" x="1151" y="-174.5" font-family="Helvetica,sans-Serif" font-size="10.00">parser.parser.GeneralType.findType</text>
</a>
</g>
</g>
<!-- Node26&#45;&gt;Node27 -->
<g id="edge28" class="edge"><title>Node26&#45;&gt;Node27</title>
<path fill="none" stroke="midnightblue" d="M989.678,-189.962C1008.76,-188.419 1029.6,-186.735 1049.74,-185.106"/>
<polygon fill="midnightblue" stroke="midnightblue" points="1050.19,-188.581 1059.87,-184.287 1049.62,-181.604 1050.19,-188.581"/>
</g>
<!-- Node29 -->
<g id="node29" class="node"><title>Node29</title>
<g id="a_node29"><a xlink:href="../../d2/d9f/classview_1_1dialogs_1_1_dialog_box.html#a4553f61aafc3f1113c85ac09fa8e8d0f" target="_top" xlink:title="view.dialogs.DialogBox.show">
<polygon fill="white" stroke="black" points="605.5,-241.5 605.5,-260.5 756.5,-260.5 756.5,-241.5 605.5,-241.5"/>
<text text-anchor="middle" x="681" y="-248.5" font-family="Helvetica,sans-Serif" font-size="10.00">view.dialogs.DialogBox.show</text>
</a>
</g>
</g>
<!-- Node28&#45;&gt;Node29 -->
<g id="edge31" class="edge"><title>Node28&#45;&gt;Node29</title>
<path fill="none" stroke="midnightblue" d="M537.58,-251C555.563,-251 575.793,-251 595.236,-251"/>
<polygon fill="midnightblue" stroke="midnightblue" points="595.316,-254.5 605.316,-251 595.316,-247.5 595.316,-254.5"/>
</g>
<!-- Node32 -->
<g id="node32" class="node"><title>Node32</title>
<g id="a_node32"><a xlink:href="../../d0/de5/classview_1_1dialogs_1_1_input_dialog_box.html#a92b4c523eacf67cc2aa16970380cdb01" target="_top" xlink:title="view.dialogs.InputDialog\lBox.updateUserInput">
<polygon fill="white" stroke="black" points="414,-64 414,-94 544,-94 544,-64 414,-64"/>
<text text-anchor="start" x="422" y="-82" font-family="Helvetica,sans-Serif" font-size="10.00">view.dialogs.InputDialog</text>
<text text-anchor="middle" x="479" y="-71" font-family="Helvetica,sans-Serif" font-size="10.00">Box.updateUserInput</text>
</a>
</g>
</g>
<!-- Node31&#45;&gt;Node32 -->
<g id="edge34" class="edge"><title>Node31&#45;&gt;Node32</title>
<path fill="none" stroke="midnightblue" d="M364.011,-79C376.957,-79 390.671,-79 403.929,-79"/>
<polygon fill="midnightblue" stroke="midnightblue" points="403.959,-82.5001 413.959,-79 403.959,-75.5001 403.959,-82.5001"/>
</g>
</g>
</svg>
