<?xml version="1.0" encoding="UTF-8" standalone="no"?>
<!DOCTYPE svg PUBLIC "-//W3C//DTD SVG 1.1//EN"
 "http://www.w3.org/Graphics/SVG/1.1/DTD/svg11.dtd">
<!-- Generated by graphviz version 2.36.0 (20140111.2315)
 -->
<!-- Title: model.TurtleMultiple Pages: 1 -->
<!--zoomable 268 -->
<svg id="main" version="1.1" xmlns="http://www.w3.org/2000/svg" xmlns:xlink="http://www.w3.org/1999/xlink" xml:space="preserve" onload="init(evt)">
<style type="text/css"><![CDATA[
.edge:hover path { stroke: red; }
.edge:hover polygon { stroke: red; fill: red; }
]]></style>
<script type="text/javascript"><![CDATA[
var edges = document.getElementsByTagName('g');
if (edges && edges.length) {
  for (var i=0;i<edges.length;i++) {
    if (edges[i].id.substr(0,4)=='edge') {
      edges[i].setAttribute('class','edge');
    }
  }
}
]]></script>
        <defs>
                <circle id="rim" cx="0" cy="0" r="7"/>
                <circle id="rim2" cx="0" cy="0" r="3.5"/>
                <g id="zoomPlus">
                        <use xlink:href="#rim" fill="#404040">
                                <set attributeName="fill" to="#808080" begin="zoomplus.mouseover" end="zoomplus.mouseout"/>
                        </use>
                        <path d="M-4,0h8M0,-4v8" fill="none" stroke="white" stroke-width="1.5" pointer-events="none"/>
                </g>
                <g id="zoomMin">
                        <use xlink:href="#rim" fill="#404040">
                                <set attributeName="fill" to="#808080" begin="zoomminus.mouseover" end="zoomminus.mouseout"/>
                        </use>
                        <path d="M-4,0h8" fill="none" stroke="white" stroke-width="1.5" pointer-events="none"/>
                </g>
                <g id="dirArrow">
                        <path fill="none" stroke="white" stroke-width="1.5" d="M0,-3.0v7 M-2.5,-0.5L0,-3.0L2.5,-0.5"/>
                </g>
               <g id="resetDef">
                       <use xlink:href="#rim2" fill="#404040">
                               <set attributeName="fill" to="#808080" begin="reset.mouseover" end="reset.mouseout"/>
                       </use>
               </g>
        </defs>

<script type="text/javascript">
var viewWidth = 888;
var viewHeight = 268;
var sectionId = 'dynsection-1';
</script>
<script xlink:href="../../svgpan.js"/>
<svg id="graph" class="graph">
<g id="viewport">
<title>model.TurtleMultiple</title>
<polygon fill="white" stroke="none" points="-4,4 -4,-264 884,-264 884,4 -4,4"/>
<!-- Node1 -->
<g id="node1" class="node"><title>Node1</title>
<polygon fill="#bfbfbf" stroke="black" points="768,-49.5 768,-68.5 880,-68.5 880,-49.5 768,-49.5"/>
<text text-anchor="middle" x="824" y="-56.5" font-family="Helvetica,sans-Serif" font-size="10.00">model.TurtleMultiple</text>
</g>
<!-- Node2 -->
<g id="node2" class="node"><title>Node2</title>
<g id="a_node2"><a xlink:href="../../d8/d18/interfacemodel_1_1_turtle.html" target="_top" xlink:title="model.Turtle">
<polygon fill="white" stroke="black" points="251.5,-58.5 251.5,-77.5 326.5,-77.5 326.5,-58.5 251.5,-58.5"/>
<text text-anchor="middle" x="289" y="-65.5" font-family="Helvetica,sans-Serif" font-size="10.00">model.Turtle</text>
</a>
</g>
</g>
<!-- Node2&#45;&gt;Node1 -->
<g id="edge1" class="edge"><title>Node2&#45;&gt;Node1</title>
<path fill="none" stroke="midnightblue" d="M336.861,-67.2087C435.225,-65.5478 662.793,-61.7052 767.926,-59.93"/>
<polygon fill="midnightblue" stroke="midnightblue" points="336.575,-63.713 326.635,-67.3814 336.693,-70.712 336.575,-63.713"/>
</g>
<!-- Node4 -->
<g id="node4" class="node"><title>Node4</title>
<g id="a_node4"><a xlink:href="../../da/d88/classmodel_1_1_turtle_single.html" target="_top" xlink:title="model.TurtleSingle">
<polygon fill="white" stroke="black" points="531,-124.5 531,-143.5 635,-143.5 635,-124.5 531,-124.5"/>
<text text-anchor="middle" x="583" y="-131.5" font-family="Helvetica,sans-Serif" font-size="10.00">model.TurtleSingle</text>
</a>
</g>
</g>
<!-- Node2&#45;&gt;Node4 -->
<g id="edge4" class="edge"><title>Node2&#45;&gt;Node4</title>
<path fill="none" stroke="midnightblue" d="M336.684,-78.5519C392.629,-91.1971 485.564,-112.203 539.557,-124.407"/>
<polygon fill="midnightblue" stroke="midnightblue" points="337.212,-75.083 326.686,-76.2921 335.669,-81.9107 337.212,-75.083"/>
</g>
<!-- Node3 -->
<g id="node3" class="node"><title>Node3</title>
<g id="a_node3"><a xlink:href="../../dc/ddc/interfacemodel_1_1_observable.html" target="_top" xlink:title="model.Observable">
<polygon fill="white" stroke="black" points="0,-58.5 0,-77.5 104,-77.5 104,-58.5 0,-58.5"/>
<text text-anchor="middle" x="52" y="-65.5" font-family="Helvetica,sans-Serif" font-size="10.00">model.Observable</text>
</a>
</g>
</g>
<!-- Node3&#45;&gt;Node2 -->
<g id="edge2" class="edge"><title>Node3&#45;&gt;Node2</title>
<path fill="none" stroke="midnightblue" d="M114.467,-68C157.962,-68 214.833,-68 251.396,-68"/>
<polygon fill="midnightblue" stroke="midnightblue" points="114.281,-64.5001 104.281,-68 114.281,-71.5001 114.281,-64.5001"/>
</g>
<!-- Node4&#45;&gt;Node1 -->
<g id="edge3" class="edge"><title>Node4&#45;&gt;Node1</title>
<path fill="none" stroke="#9a32cd" stroke-dasharray="5,2" d="M624.404,-121.321C671.878,-106.423 749.583,-82.0389 792.362,-68.6144"/>
<polygon fill="#9a32cd" stroke="#9a32cd" points="623.249,-118.015 614.756,-124.349 625.345,-124.694 623.249,-118.015"/>
<text text-anchor="middle" x="712" y="-109" font-family="Helvetica,sans-Serif" font-size="10.00"> lastActingTurtle</text>
</g>
<!-- Node5 -->
<g id="node5" class="node"><title>Node5</title>
<g id="a_node5"><a xlink:href="../../de/dfa/classmodel_1_1_angle.html" target="_top" xlink:title="model.Angle">
<polygon fill="white" stroke="black" points="250.5,-224.5 250.5,-243.5 327.5,-243.5 327.5,-224.5 250.5,-224.5"/>
<text text-anchor="middle" x="289" y="-231.5" font-family="Helvetica,sans-Serif" font-size="10.00">model.Angle</text>
</a>
</g>
</g>
<!-- Node5&#45;&gt;Node4 -->
<g id="edge5" class="edge"><title>Node5&#45;&gt;Node4</title>
<path fill="none" stroke="#9a32cd" stroke-dasharray="5,2" d="M337.654,-233.696C379.802,-231.875 442.162,-225.321 492,-204 525.851,-189.519 558.022,-159.128 573.085,-143.591"/>
<polygon fill="#9a32cd" stroke="#9a32cd" points="337.527,-230.199 327.659,-234.056 337.779,-237.194 337.527,-230.199"/>
<text text-anchor="middle" x="446" y="-230" font-family="Helvetica,sans-Serif" font-size="10.00"> myAngle</text>
</g>
<!-- Node6 -->
<g id="node6" class="node"><title>Node6</title>
<g id="a_node6"><a xlink:href="../../de/ded/classmodel_1_1_pen.html" target="_top" xlink:title="model.Pen">
<polygon fill="white" stroke="black" points="255,-186.5 255,-205.5 323,-205.5 323,-186.5 255,-186.5"/>
<text text-anchor="middle" x="289" y="-193.5" font-family="Helvetica,sans-Serif" font-size="10.00">model.Pen</text>
</a>
</g>
</g>
<!-- Node6&#45;&gt;Node4 -->
<g id="edge6" class="edge"><title>Node6&#45;&gt;Node4</title>
<path fill="none" stroke="#9a32cd" stroke-dasharray="5,2" d="M333.074,-194.385C374.424,-192.019 438.34,-186.211 492,-172 517.741,-165.183 545.759,-152.435 563.58,-143.595"/>
<polygon fill="#9a32cd" stroke="#9a32cd" points="332.868,-190.891 323.067,-194.915 333.239,-197.881 332.868,-190.891"/>
<text text-anchor="middle" x="446" y="-192" font-family="Helvetica,sans-Serif" font-size="10.00"> myPen</text>
</g>
<!-- Node7 -->
<g id="node7" class="node"><title>Node7</title>
<g id="a_node7"><a xlink:href="../../da/d87/interfacemodel_1_1_pen_update.html" target="_top" xlink:title="model.PenUpdate">
<polygon fill="white" stroke="black" points="0.5,-240.5 0.5,-259.5 103.5,-259.5 103.5,-240.5 0.5,-240.5"/>
<text text-anchor="middle" x="52" y="-247.5" font-family="Helvetica,sans-Serif" font-size="10.00">model.PenUpdate</text>
</a>
</g>
</g>
<!-- Node7&#45;&gt;Node6 -->
<g id="edge7" class="edge"><title>Node7&#45;&gt;Node6</title>
<path fill="none" stroke="midnightblue" d="M113.453,-239.551C134.165,-235.286 157.323,-229.749 178,-223 186.322,-220.284 187.665,-217.678 196,-215 215.098,-208.862 237.083,-204.237 254.771,-201.087"/>
<polygon fill="midnightblue" stroke="midnightblue" points="112.623,-236.148 103.504,-241.543 113.996,-243.012 112.623,-236.148"/>
</g>
<!-- Node8 -->
<g id="node8" class="node"><title>Node8</title>
<polygon fill="white" stroke="#bfbfbf" points="6.5,-202.5 6.5,-221.5 97.5,-221.5 97.5,-202.5 6.5,-202.5"/>
<text text-anchor="middle" x="52" y="-209.5" font-family="Helvetica,sans-Serif" font-size="10.00">DoubleProperty</text>
</g>
<!-- Node8&#45;&gt;Node6 -->
<g id="edge8" class="edge"><title>Node8&#45;&gt;Node6</title>
<path fill="none" stroke="#9a32cd" stroke-dasharray="5,2" d="M107.76,-208.272C153.284,-205.172 216.587,-200.862 254.79,-198.261"/>
<polygon fill="#9a32cd" stroke="#9a32cd" points="107.494,-204.782 97.7548,-208.953 107.97,-211.765 107.494,-204.782"/>
<text text-anchor="middle" x="150" y="-211" font-family="Helvetica,sans-Serif" font-size="10.00"> penSize</text>
</g>
<!-- Node9 -->
<g id="node9" class="node"><title>Node9</title>
<polygon fill="white" stroke="#bfbfbf" points="6.5,-164.5 6.5,-183.5 97.5,-183.5 97.5,-164.5 6.5,-164.5"/>
<text text-anchor="middle" x="52" y="-171.5" font-family="Helvetica,sans-Serif" font-size="10.00">IntegerProperty</text>
</g>
<!-- Node9&#45;&gt;Node6 -->
<g id="edge9" class="edge"><title>Node9&#45;&gt;Node6</title>
<path fill="none" stroke="#9a32cd" stroke-dasharray="5,2" d="M107.76,-179.126C153.284,-183.388 216.587,-189.315 254.79,-192.891"/>
<polygon fill="#9a32cd" stroke="#9a32cd" points="108.038,-175.637 97.7548,-178.19 107.385,-182.607 108.038,-175.637"/>
<text text-anchor="middle" x="150" y="-189" font-family="Helvetica,sans-Serif" font-size="10.00"> penColorID</text>
</g>
<!-- Node10 -->
<g id="node10" class="node"><title>Node10</title>
<g id="a_node10"><a xlink:href="../../d8/d6a/classmodel_1_1_coordinates.html" target="_top" xlink:title="model.Coordinates">
<polygon fill="white" stroke="black" points="235.5,-143.5 235.5,-162.5 342.5,-162.5 342.5,-143.5 235.5,-143.5"/>
<text text-anchor="middle" x="289" y="-150.5" font-family="Helvetica,sans-Serif" font-size="10.00">model.Coordinates</text>
</a>
</g>
</g>
<!-- Node10&#45;&gt;Node4 -->
<g id="edge10" class="edge"><title>Node10&#45;&gt;Node4</title>
<path fill="none" stroke="#9a32cd" stroke-dasharray="5,2" d="M352.537,-148.931C405.74,-145.469 481.206,-140.558 530.86,-137.328"/>
<polygon fill="#9a32cd" stroke="#9a32cd" points="352.293,-145.439 342.541,-149.581 352.747,-152.424 352.293,-145.439"/>
<text text-anchor="middle" x="446" y="-160" font-family="Helvetica,sans-Serif" font-size="10.00"> myOldCoordinates</text>
<text text-anchor="middle" x="446" y="-149" font-family="Helvetica,sans-Serif" font-size="10.00">myCoordinates</text>
</g>
<!-- Node11 -->
<g id="node11" class="node"><title>Node11</title>
<polygon fill="white" stroke="#bfbfbf" points="25,-126.5 25,-145.5 79,-145.5 79,-126.5 25,-126.5"/>
<text text-anchor="middle" x="52" y="-133.5" font-family="Helvetica,sans-Serif" font-size="10.00">Point2D</text>
</g>
<!-- Node11&#45;&gt;Node10 -->
<g id="edge11" class="edge"><title>Node11&#45;&gt;Node10</title>
<path fill="none" stroke="#9a32cd" stroke-dasharray="5,2" d="M89.4796,-136.799C114.43,-137.507 148.246,-138.785 178,-141 196.774,-142.398 217.295,-144.484 235.473,-146.527"/>
<polygon fill="#9a32cd" stroke="#9a32cd" points="89.4568,-133.297 79.367,-136.529 89.2701,-140.295 89.4568,-133.297"/>
<text text-anchor="middle" x="150" y="-144" font-family="Helvetica,sans-Serif" font-size="10.00"> myPoint</text>
</g>
<!-- Node12 -->
<g id="node12" class="node"><title>Node12</title>
<polygon fill="white" stroke="#bfbfbf" points="196.5,-105.5 196.5,-124.5 381.5,-124.5 381.5,-105.5 196.5,-105.5"/>
<text text-anchor="middle" x="289" y="-112.5" font-family="Helvetica,sans-Serif" font-size="10.00">List&lt; view.components.Observer &gt;</text>
</g>
<!-- Node12&#45;&gt;Node4 -->
<g id="edge12" class="edge"><title>Node12&#45;&gt;Node4</title>
<path fill="none" stroke="#9a32cd" stroke-dasharray="5,2" d="M391.83,-119.864C423.898,-121.578 459.441,-123.667 492,-126 504.517,-126.897 518,-128.014 530.623,-129.127"/>
<polygon fill="#9a32cd" stroke="#9a32cd" points="391.719,-116.353 381.548,-119.32 391.35,-123.343 391.719,-116.353"/>
<text text-anchor="middle" x="446" y="-129" font-family="Helvetica,sans-Serif" font-size="10.00"> myObservers</text>
</g>
<!-- Node13 -->
<g id="node13" class="node"><title>Node13</title>
<polygon fill="white" stroke="#bfbfbf" points="510,-0 510,-30 656,-30 656,-0 510,-0"/>
<text text-anchor="start" x="518" y="-18" font-family="Helvetica,sans-Serif" font-size="10.00">Map&lt; Integer, model.Turtle</text>
<text text-anchor="middle" x="583" y="-7" font-family="Helvetica,sans-Serif" font-size="10.00">Single &gt;</text>
</g>
<!-- Node13&#45;&gt;Node1 -->
<g id="edge13" class="edge"><title>Node13&#45;&gt;Node1</title>
<path fill="none" stroke="#9a32cd" stroke-dasharray="5,2" d="M666.217,-20.8652C693.126,-23.7248 723.028,-27.9131 750,-34 766.857,-37.8042 785.262,-44.1225 799.374,-49.4552"/>
<polygon fill="#9a32cd" stroke="#9a32cd" points="666.365,-17.3624 656.063,-19.8331 665.657,-24.3265 666.365,-17.3624"/>
<text text-anchor="middle" x="712" y="-37" font-family="Helvetica,sans-Serif" font-size="10.00"> myTurtleMap</text>
</g>
</g>
</svg>
        <g id="navigator" transform="translate(0 0)" fill="#404254">
                <rect fill="#f2f5e9" fill-opacity="0.5" stroke="#606060" stroke-width=".5" x="0" y="0" width="60" height="60"/>
                <use id="zoomplus" xlink:href="#zoomPlus" x="17" y="9" onmousedown="handleZoom(evt,'in')"/>
                <use id="zoomminus" xlink:href="#zoomMin" x="42" y="9" onmousedown="handleZoom(evt,'out')"/>
                <use id="reset" xlink:href="#resetDef" x="30" y="36" onmousedown="handleReset()"/>
                <g id="arrowUp" xlink:href="#dirArrow" transform="translate(30 24)" onmousedown="handlePan(0,-1)">
                  <use xlink:href="#rim" fill="#404040">
                        <set attributeName="fill" to="#808080" begin="arrowUp.mouseover" end="arrowUp.mouseout"/>
                  </use>
                  <path fill="none" stroke="white" stroke-width="1.5" d="M0,-3.0v7 M-2.5,-0.5L0,-3.0L2.5,-0.5"/>
                </g>
                <g id="arrowRight" xlink:href="#dirArrow" transform="rotate(90) translate(36 -43)" onmousedown="handlePan(1,0)">
                  <use xlink:href="#rim" fill="#404040">
                        <set attributeName="fill" to="#808080" begin="arrowRight.mouseover" end="arrowRight.mouseout"/>
                  </use>
                  <path fill="none" stroke="white" stroke-width="1.5" d="M0,-3.0v7 M-2.5,-0.5L0,-3.0L2.5,-0.5"/>
                </g>
                <g id="arrowDown" xlink:href="#dirArrow" transform="rotate(180) translate(-30 -48)" onmousedown="handlePan(0,1)">
                  <use xlink:href="#rim" fill="#404040">
                        <set attributeName="fill" to="#808080" begin="arrowDown.mouseover" end="arrowDown.mouseout"/>
                  </use>
                  <path fill="none" stroke="white" stroke-width="1.5" d="M0,-3.0v7 M-2.5,-0.5L0,-3.0L2.5,-0.5"/>
                </g>
                <g id="arrowLeft" xlink:href="#dirArrow" transform="rotate(270) translate(-36 17)" onmousedown="handlePan(-1,0)">
                  <use xlink:href="#rim" fill="#404040">
                        <set attributeName="fill" to="#808080" begin="arrowLeft.mouseover" end="arrowLeft.mouseout"/>
                  </use>
                  <path fill="none" stroke="white" stroke-width="1.5" d="M0,-3.0v7 M-2.5,-0.5L0,-3.0L2.5,-0.5"/>
                </g>
        </g>
        <svg viewBox="0 0 15 15" width="100%" height="30px" preserveAspectRatio="xMaxYMin meet">
         <g id="arrow_out" transform="scale(0.3 0.3)">
          <a xlink:href="classmodel_1_1_turtle_multiple__coll__graph_org.svg" target="_base">
           <rect id="button" ry="5" rx="5" y="6" x="6" height="38" width="38"
                fill="#f2f5e9" fill-opacity="0.5" stroke="#606060" stroke-width="1.0"/>
           <path id="arrow"
             d="M 11.500037,31.436501 C 11.940474,20.09759 22.043105,11.32322 32.158766,21.979434 L 37.068811,17.246167 C 37.068811,17.246167 37.088388,32 37.088388,32 L 22.160133,31.978069 C 22.160133,31.978069 26.997745,27.140456 26.997745,27.140456 C 18.528582,18.264221 13.291696,25.230495 11.500037,31.436501 z"
             style="fill:#404040;"/>
          </a>
         </g>
        </svg>
</svg>
