<?xml version="1.0" encoding="UTF-8" standalone="no"?>
<!DOCTYPE svg PUBLIC "-//W3C//DTD SVG 1.1//EN"
 "http://www.w3.org/Graphics/SVG/1.1/DTD/svg11.dtd">
<!-- Generated by graphviz version 2.36.0 (20140111.2315)
 -->
<!-- Title: parser.commands.SetHeading Pages: 1 -->
<svg width="170pt" height="154pt"
 viewBox="0.00 0.00 170.00 154.00" xmlns="http://www.w3.org/2000/svg" xmlns:xlink="http://www.w3.org/1999/xlink">
<g id="graph0" class="graph" transform="scale(1 1) rotate(0) translate(4 150)">
<title>parser.commands.SetHeading</title>
<polygon fill="white" stroke="none" points="-4,4 -4,-150 166,-150 166,4 -4,4"/>
<!-- Node1 -->
<g id="node1" class="node"><title>Node1</title>
<polygon fill="#bfbfbf" stroke="black" points="-0.5,-0.5 -0.5,-19.5 162.5,-19.5 162.5,-0.5 -0.5,-0.5"/>
<text text-anchor="middle" x="81" y="-7.5" font-family="Helvetica,sans-Serif" font-size="10.00">parser.commands.SetHeading</text>
</g>
<!-- Node2 -->
<g id="node2" class="node"><title>Node2</title>
<g id="a_node2"><a xlink:href="../../d3/d36/classparser_1_1nodes_1_1_unary_node.html" target="_top" xlink:title="parser.nodes.UnaryNode">
<polygon fill="white" stroke="black" points="13,-58.5 13,-77.5 149,-77.5 149,-58.5 13,-58.5"/>
<text text-anchor="middle" x="81" y="-65.5" font-family="Helvetica,sans-Serif" font-size="10.00">parser.nodes.UnaryNode</text>
</a>
</g>
</g>
<!-- Node2&#45;&gt;Node1 -->
<g id="edge1" class="edge"><title>Node2&#45;&gt;Node1</title>
<path fill="none" stroke="midnightblue" d="M81,-47.953C81,-38.2875 81,-27.0312 81,-19.5052"/>
<polygon fill="midnightblue" stroke="midnightblue" points="77.5001,-48.25 81,-58.25 84.5001,-48.25 77.5001,-48.25"/>
</g>
<!-- Node3 -->
<g id="node3" class="node"><title>Node3</title>
<g id="a_node3"><a xlink:href="../../da/d96/classparser_1_1nodes_1_1_syntax_node.html" target="_top" xlink:title="parser.nodes.SyntaxNode">
<polygon fill="white" stroke="black" points="11,-126.5 11,-145.5 151,-145.5 151,-126.5 11,-126.5"/>
<text text-anchor="middle" x="81" y="-133.5" font-family="Helvetica,sans-Serif" font-size="10.00">parser.nodes.SyntaxNode</text>
</a>
</g>
</g>
<!-- Node3&#45;&gt;Node2 -->
<g id="edge2" class="edge"><title>Node3&#45;&gt;Node2</title>
<path fill="none" stroke="midnightblue" d="M79.4399,-116.382C79.2572,-113.575 79.1003,-110.713 79,-108 78.6141,-97.5663 79.4162,-85.5725 80.1167,-77.6712"/>
<polygon fill="midnightblue" stroke="midnightblue" points="75.9607,-116.791 80.2083,-126.497 82.9406,-116.26 75.9607,-116.791"/>
</g>
<!-- Node3&#45;&gt;Node2 -->
<g id="edge3" class="edge"><title>Node3&#45;&gt;Node2</title>
<path fill="none" stroke="#9a32cd" stroke-dasharray="5,2" d="M81,-116.041C81,-103.472 81,-87.5631 81,-77.8411"/>
<polygon fill="#9a32cd" stroke="#9a32cd" points="77.5001,-116.372 81,-126.372 84.5001,-116.372 77.5001,-116.372"/>
<text text-anchor="middle" x="118.5" y="-99.5" font-family="Helvetica,sans-Serif" font-size="10.00"> referenceNode</text>
</g>
</g>
</svg>
