<?xml version="1.0" encoding="UTF-8" standalone="no"?>
<!DOCTYPE svg PUBLIC "-//W3C//DTD SVG 1.1//EN"
 "http://www.w3.org/Graphics/SVG/1.1/DTD/svg11.dtd">
<!-- Generated by graphviz version 2.36.0 (20140111.2315)
 -->
<!-- Title: view.components.Palette.addColor Pages: 1 -->
<svg width="580pt" height="38pt"
 viewBox="0.00 0.00 580.00 38.00" xmlns="http://www.w3.org/2000/svg" xmlns:xlink="http://www.w3.org/1999/xlink">
<g id="graph0" class="graph" transform="scale(1 1) rotate(0) translate(4 34)">
<title>view.components.Palette.addColor</title>
<polygon fill="white" stroke="none" points="-4,4 -4,-34 576,-34 576,4 -4,4"/>
<!-- Node1 -->
<g id="node1" class="node"><title>Node1</title>
<polygon fill="#bfbfbf" stroke="black" points="0,-0 0,-30 156,-30 156,-0 0,-0"/>
<text text-anchor="start" x="8" y="-18" font-family="Helvetica,sans-Serif" font-size="10.00">view.components.Palette.add</text>
<text text-anchor="middle" x="78" y="-7" font-family="Helvetica,sans-Serif" font-size="10.00">Color</text>
</g>
<!-- Node2 -->
<g id="node2" class="node"><title>Node2</title>
<g id="a_node2"><a xlink:href="../../d5/d46/classview_1_1components_1_1_palette.html#ae4dc9b09f7ce4c0de31ede2715b459f5" target="_top" xlink:title="view.components.Palette.update\lColor">
<polygon fill="white" stroke="black" points="192,-0 192,-30 364,-30 364,-0 192,-0"/>
<text text-anchor="start" x="200" y="-18" font-family="Helvetica,sans-Serif" font-size="10.00">view.components.Palette.update</text>
<text text-anchor="middle" x="278" y="-7" font-family="Helvetica,sans-Serif" font-size="10.00">Color</text>
</a>
</g>
</g>
<!-- Node1&#45;&gt;Node2 -->
<g id="edge1" class="edge"><title>Node1&#45;&gt;Node2</title>
<path fill="none" stroke="midnightblue" d="M166.38,-15C174.852,-15 183.44,-15 191.89,-15"/>
<polygon fill="midnightblue" stroke="midnightblue" points="166.119,-11.5001 156.119,-15 166.119,-18.5001 166.119,-11.5001"/>
</g>
<!-- Node3 -->
<g id="node3" class="node"><title>Node3</title>
<g id="a_node3"><a xlink:href="../../d5/d46/classview_1_1components_1_1_palette.html#aec2ca6c4cee419b69110d5dd4a794849" target="_top" xlink:title="view.components.Palette.update\lColor">
<polygon fill="white" stroke="black" points="400,-0 400,-30 572,-30 572,-0 400,-0"/>
<text text-anchor="start" x="408" y="-18" font-family="Helvetica,sans-Serif" font-size="10.00">view.components.Palette.update</text>
<text text-anchor="middle" x="486" y="-7" font-family="Helvetica,sans-Serif" font-size="10.00">Color</text>
</a>
</g>
</g>
<!-- Node2&#45;&gt;Node3 -->
<g id="edge2" class="edge"><title>Node2&#45;&gt;Node3</title>
<path fill="none" stroke="midnightblue" d="M374.514,-15C382.947,-15 391.448,-15 399.789,-15"/>
<polygon fill="midnightblue" stroke="midnightblue" points="374.275,-11.5001 364.275,-15 374.275,-18.5001 374.275,-11.5001"/>
</g>
</g>
</svg>
