<?xml version="1.0" encoding="UTF-8" standalone="no"?>
<!DOCTYPE svg PUBLIC "-//W3C//DTD SVG 1.1//EN"
 "http://www.w3.org/Graphics/SVG/1.1/DTD/svg11.dtd">
<!-- Generated by graphviz version 2.36.0 (20140111.2315)
 -->
<!-- Title: model.VariablesCollectionUpdate.getDisplayProperties Pages: 1 -->
<!--zoomable 131 -->
<svg id="main" version="1.1" xmlns="http://www.w3.org/2000/svg" xmlns:xlink="http://www.w3.org/1999/xlink" xml:space="preserve" onload="init(evt)">
<style type="text/css"><![CDATA[
.edge:hover path { stroke: red; }
.edge:hover polygon { stroke: red; fill: red; }
]]></style>
<script type="text/javascript"><![CDATA[
var edges = document.getElementsByTagName('g');
if (edges && edges.length) {
  for (var i=0;i<edges.length;i++) {
    if (edges[i].id.substr(0,4)=='edge') {
      edges[i].setAttribute('class','edge');
    }
  }
}
]]></script>
        <defs>
                <circle id="rim" cx="0" cy="0" r="7"/>
                <circle id="rim2" cx="0" cy="0" r="3.5"/>
                <g id="zoomPlus">
                        <use xlink:href="#rim" fill="#404040">
                                <set attributeName="fill" to="#808080" begin="zoomplus.mouseover" end="zoomplus.mouseout"/>
                        </use>
                        <path d="M-4,0h8M0,-4v8" fill="none" stroke="white" stroke-width="1.5" pointer-events="none"/>
                </g>
                <g id="zoomMin">
                        <use xlink:href="#rim" fill="#404040">
                                <set attributeName="fill" to="#808080" begin="zoomminus.mouseover" end="zoomminus.mouseout"/>
                        </use>
                        <path d="M-4,0h8" fill="none" stroke="white" stroke-width="1.5" pointer-events="none"/>
                </g>
                <g id="dirArrow">
                        <path fill="none" stroke="white" stroke-width="1.5" d="M0,-3.0v7 M-2.5,-0.5L0,-3.0L2.5,-0.5"/>
                </g>
               <g id="resetDef">
                       <use xlink:href="#rim2" fill="#404040">
                               <set attributeName="fill" to="#808080" begin="reset.mouseover" end="reset.mouseout"/>
                       </use>
               </g>
        </defs>

<script type="text/javascript">
var viewWidth = 868;
var viewHeight = 131;
var sectionId = 'dynsection-1';
</script>
<script xlink:href="../../svgpan.js"/>
<svg id="graph" class="graph">
<g id="viewport">
<title>model.VariablesCollectionUpdate.getDisplayProperties</title>
<polygon fill="white" stroke="none" points="-4,4 -4,-127 864,-127 864,4 -4,4"/>
<!-- Node1 -->
<g id="node1" class="node"><title>Node1</title>
<polygon fill="#bfbfbf" stroke="black" points="0,-24 0,-54 154,-54 154,-24 0,-24"/>
<text text-anchor="start" x="8" y="-42" font-family="Helvetica,sans-Serif" font-size="10.00">model.VariablesCollection</text>
<text text-anchor="middle" x="77" y="-31" font-family="Helvetica,sans-Serif" font-size="10.00">Update.getDisplayProperties</text>
</g>
<!-- Node2 -->
<g id="node2" class="node"><title>Node2</title>
<g id="a_node2"><a xlink:href="../../d1/dfc/classmodel_1_1_scoped_variables_collection.html#ad2c7270c4dd14869848ccb21c330107c" target="_top" xlink:title="model.ScopedVariablesCollection.notify\lObservers">
<polygon fill="white" stroke="black" points="190.5,-49 190.5,-79 395.5,-79 395.5,-49 190.5,-49"/>
<text text-anchor="start" x="198.5" y="-67" font-family="Helvetica,sans-Serif" font-size="10.00">model.ScopedVariablesCollection.notify</text>
<text text-anchor="middle" x="293" y="-56" font-family="Helvetica,sans-Serif" font-size="10.00">Observers</text>
</a>
</g>
</g>
<!-- Node1&#45;&gt;Node2 -->
<g id="edge1" class="edge"><title>Node1&#45;&gt;Node2</title>
<path fill="none" stroke="midnightblue" d="M164.1,-49.0584C172.747,-50.0686 181.583,-51.1009 190.371,-52.1275"/>
<polygon fill="midnightblue" stroke="midnightblue" points="164.39,-45.5685 154.051,-47.8845 163.577,-52.5212 164.39,-45.5685"/>
</g>
<!-- Node6 -->
<g id="node6" class="node"><title>Node6</title>
<g id="a_node6"><a xlink:href="../../de/d8c/classview_1_1listwindows_1_1_variables_window.html#a044467e4f91793ad830c0b4257537d20" target="_top" xlink:title="view.listwindows.Variables\lWindow.update">
<polygon fill="white" stroke="black" points="224,-0 224,-30 362,-30 362,-0 224,-0"/>
<text text-anchor="start" x="232" y="-18" font-family="Helvetica,sans-Serif" font-size="10.00">view.listwindows.Variables</text>
<text text-anchor="middle" x="293" y="-7" font-family="Helvetica,sans-Serif" font-size="10.00">Window.update</text>
</a>
</g>
</g>
<!-- Node1&#45;&gt;Node6 -->
<g id="edge6" class="edge"><title>Node1&#45;&gt;Node6</title>
<path fill="none" stroke="midnightblue" d="M164.01,-29.3541C183.855,-27.1285 204.702,-24.7904 223.675,-22.6626"/>
<polygon fill="midnightblue" stroke="midnightblue" points="163.599,-25.8781 154.051,-30.4709 164.379,-32.8345 163.599,-25.8781"/>
</g>
<!-- Node3 -->
<g id="node3" class="node"><title>Node3</title>
<g id="a_node3"><a xlink:href="../../d1/dfc/classmodel_1_1_scoped_variables_collection.html#a97c904df13f78cd228155acb66682af0" target="_top" xlink:title="model.ScopedVariablesCollection.add\lVariable">
<polygon fill="white" stroke="black" points="432.5,-93 432.5,-123 629.5,-123 629.5,-93 432.5,-93"/>
<text text-anchor="start" x="440.5" y="-111" font-family="Helvetica,sans-Serif" font-size="10.00">model.ScopedVariablesCollection.add</text>
<text text-anchor="middle" x="531" y="-100" font-family="Helvetica,sans-Serif" font-size="10.00">Variable</text>
</a>
</g>
</g>
<!-- Node2&#45;&gt;Node3 -->
<g id="edge2" class="edge"><title>Node2&#45;&gt;Node3</title>
<path fill="none" stroke="midnightblue" d="M384.59,-80.8897C405.931,-84.8685 428.538,-89.0834 449.405,-92.9738"/>
<polygon fill="midnightblue" stroke="midnightblue" points="385.03,-77.4114 374.558,-79.0192 383.747,-84.2929 385.03,-77.4114"/>
</g>
<!-- Node4 -->
<g id="node4" class="node"><title>Node4</title>
<g id="a_node4"><a xlink:href="../../d1/dfc/classmodel_1_1_scoped_variables_collection.html#ad857a8d43176e6105ff1ae1964576d7c" target="_top" xlink:title="model.ScopedVariablesCollection.get\lVariableValue">
<polygon fill="white" stroke="black" points="666,-71 666,-101 860,-101 860,-71 666,-71"/>
<text text-anchor="start" x="674" y="-89" font-family="Helvetica,sans-Serif" font-size="10.00">model.ScopedVariablesCollection.get</text>
<text text-anchor="middle" x="763" y="-78" font-family="Helvetica,sans-Serif" font-size="10.00">VariableValue</text>
</a>
</g>
</g>
<!-- Node2&#45;&gt;Node4 -->
<g id="edge5" class="edge"><title>Node2&#45;&gt;Node4</title>
<path fill="none" stroke="midnightblue" d="M405.575,-69.245C484.866,-72.9723 590.262,-77.9269 665.843,-81.4798"/>
<polygon fill="midnightblue" stroke="midnightblue" points="405.702,-65.7472 395.549,-68.7737 405.374,-72.7395 405.702,-65.7472"/>
</g>
<!-- Node5 -->
<g id="node5" class="node"><title>Node5</title>
<g id="a_node5"><a xlink:href="../../d1/dfc/classmodel_1_1_scoped_variables_collection.html#ab3bfb97681098d2ad0c0429ad1ac2684" target="_top" xlink:title="model.ScopedVariablesCollection.exit\lScope">
<polygon fill="white" stroke="black" points="433,-5 433,-35 629,-35 629,-5 433,-5"/>
<text text-anchor="start" x="441" y="-23" font-family="Helvetica,sans-Serif" font-size="10.00">model.ScopedVariablesCollection.exit</text>
<text text-anchor="middle" x="531" y="-12" font-family="Helvetica,sans-Serif" font-size="10.00">Scope</text>
</a>
</g>
</g>
<!-- Node2&#45;&gt;Node5 -->
<g id="edge4" class="edge"><title>Node2&#45;&gt;Node5</title>
<path fill="none" stroke="midnightblue" d="M384.59,-47.1103C405.931,-43.1315 428.538,-38.9166 449.405,-35.0262"/>
<polygon fill="midnightblue" stroke="midnightblue" points="383.747,-43.7071 374.558,-48.9808 385.03,-50.5886 383.747,-43.7071"/>
</g>
<!-- Node3&#45;&gt;Node4 -->
<g id="edge3" class="edge"><title>Node3&#45;&gt;Node4</title>
<path fill="none" stroke="midnightblue" d="M639.714,-97.6969C648.412,-96.8649 657.167,-96.0275 665.776,-95.204"/>
<polygon fill="midnightblue" stroke="midnightblue" points="639.162,-94.2337 629.541,-98.67 639.829,-101.202 639.162,-94.2337"/>
</g>
</g>
</svg>
        <g id="navigator" transform="translate(0 0)" fill="#404254">
                <rect fill="#f2f5e9" fill-opacity="0.5" stroke="#606060" stroke-width=".5" x="0" y="0" width="60" height="60"/>
                <use id="zoomplus" xlink:href="#zoomPlus" x="17" y="9" onmousedown="handleZoom(evt,'in')"/>
                <use id="zoomminus" xlink:href="#zoomMin" x="42" y="9" onmousedown="handleZoom(evt,'out')"/>
                <use id="reset" xlink:href="#resetDef" x="30" y="36" onmousedown="handleReset()"/>
                <g id="arrowUp" xlink:href="#dirArrow" transform="translate(30 24)" onmousedown="handlePan(0,-1)">
                  <use xlink:href="#rim" fill="#404040">
                        <set attributeName="fill" to="#808080" begin="arrowUp.mouseover" end="arrowUp.mouseout"/>
                  </use>
                  <path fill="none" stroke="white" stroke-width="1.5" d="M0,-3.0v7 M-2.5,-0.5L0,-3.0L2.5,-0.5"/>
                </g>
                <g id="arrowRight" xlink:href="#dirArrow" transform="rotate(90) translate(36 -43)" onmousedown="handlePan(1,0)">
                  <use xlink:href="#rim" fill="#404040">
                        <set attributeName="fill" to="#808080" begin="arrowRight.mouseover" end="arrowRight.mouseout"/>
                  </use>
                  <path fill="none" stroke="white" stroke-width="1.5" d="M0,-3.0v7 M-2.5,-0.5L0,-3.0L2.5,-0.5"/>
                </g>
                <g id="arrowDown" xlink:href="#dirArrow" transform="rotate(180) translate(-30 -48)" onmousedown="handlePan(0,1)">
                  <use xlink:href="#rim" fill="#404040">
                        <set attributeName="fill" to="#808080" begin="arrowDown.mouseover" end="arrowDown.mouseout"/>
                  </use>
                  <path fill="none" stroke="white" stroke-width="1.5" d="M0,-3.0v7 M-2.5,-0.5L0,-3.0L2.5,-0.5"/>
                </g>
                <g id="arrowLeft" xlink:href="#dirArrow" transform="rotate(270) translate(-36 17)" onmousedown="handlePan(-1,0)">
                  <use xlink:href="#rim" fill="#404040">
                        <set attributeName="fill" to="#808080" begin="arrowLeft.mouseover" end="arrowLeft.mouseout"/>
                  </use>
                  <path fill="none" stroke="white" stroke-width="1.5" d="M0,-3.0v7 M-2.5,-0.5L0,-3.0L2.5,-0.5"/>
                </g>
        </g>
        <svg viewBox="0 0 15 15" width="100%" height="30px" preserveAspectRatio="xMaxYMin meet">
         <g id="arrow_out" transform="scale(0.3 0.3)">
          <a xlink:href="classmodel_1_1_variables_collection_update_a890f2dcf7bcdbdeba128438ae4affeea_icgraph_org.svg" target="_base">
           <rect id="button" ry="5" rx="5" y="6" x="6" height="38" width="38"
                fill="#f2f5e9" fill-opacity="0.5" stroke="#606060" stroke-width="1.0"/>
           <path id="arrow"
             d="M 11.500037,31.436501 C 11.940474,20.09759 22.043105,11.32322 32.158766,21.979434 L 37.068811,17.246167 C 37.068811,17.246167 37.088388,32 37.088388,32 L 22.160133,31.978069 C 22.160133,31.978069 26.997745,27.140456 26.997745,27.140456 C 18.528582,18.264221 13.291696,25.230495 11.500037,31.436501 z"
             style="fill:#404040;"/>
          </a>
         </g>
        </svg>
</svg>
