<?xml version="1.0" encoding="UTF-8" standalone="no"?>
<!DOCTYPE svg PUBLIC "-//W3C//DTD SVG 1.1//EN"
 "http://www.w3.org/Graphics/SVG/1.1/DTD/svg11.dtd">
<!-- Generated by graphviz version 2.36.0 (20140111.2315)
 -->
<!-- Title: model.VariablesCollectionUpdate.getNameProperties Pages: 1 -->
<svg width="864pt" height="131pt"
 viewBox="0.00 0.00 864.00 131.00" xmlns="http://www.w3.org/2000/svg" xmlns:xlink="http://www.w3.org/1999/xlink">
<g id="graph0" class="graph" transform="scale(1 1) rotate(0) translate(4 127)">
<title>model.VariablesCollectionUpdate.getNameProperties</title>
<polygon fill="white" stroke="none" points="-4,4 -4,-127 860,-127 860,4 -4,4"/>
<!-- Node1 -->
<g id="node1" class="node"><title>Node1</title>
<polygon fill="#bfbfbf" stroke="black" points="0.5,-24 0.5,-54 149.5,-54 149.5,-24 0.5,-24"/>
<text text-anchor="start" x="8.5" y="-42" font-family="Helvetica,sans-Serif" font-size="10.00">model.VariablesCollection</text>
<text text-anchor="middle" x="75" y="-31" font-family="Helvetica,sans-Serif" font-size="10.00">Update.getNameProperties</text>
</g>
<!-- Node2 -->
<g id="node2" class="node"><title>Node2</title>
<g id="a_node2"><a xlink:href="../../d1/dfc/classmodel_1_1_scoped_variables_collection.html#ad2c7270c4dd14869848ccb21c330107c" target="_top" xlink:title="model.ScopedVariablesCollection.notify\lObservers">
<polygon fill="white" stroke="black" points="186.5,-49 186.5,-79 391.5,-79 391.5,-49 186.5,-49"/>
<text text-anchor="start" x="194.5" y="-67" font-family="Helvetica,sans-Serif" font-size="10.00">model.ScopedVariablesCollection.notify</text>
<text text-anchor="middle" x="289" y="-56" font-family="Helvetica,sans-Serif" font-size="10.00">Observers</text>
</a>
</g>
</g>
<!-- Node1&#45;&gt;Node2 -->
<g id="edge1" class="edge"><title>Node1&#45;&gt;Node2</title>
<path fill="none" stroke="midnightblue" d="M159.669,-48.8666C168.382,-49.8941 177.306,-50.9464 186.19,-51.9941"/>
<polygon fill="midnightblue" stroke="midnightblue" points="159.893,-45.3689 149.552,-47.6736 159.074,-52.3208 159.893,-45.3689"/>
</g>
<!-- Node6 -->
<g id="node6" class="node"><title>Node6</title>
<g id="a_node6"><a xlink:href="../../de/d8c/classview_1_1listwindows_1_1_variables_window.html#a044467e4f91793ad830c0b4257537d20" target="_top" xlink:title="view.listwindows.Variables\lWindow.update">
<polygon fill="white" stroke="black" points="220,-0 220,-30 358,-30 358,-0 220,-0"/>
<text text-anchor="start" x="228" y="-18" font-family="Helvetica,sans-Serif" font-size="10.00">view.listwindows.Variables</text>
<text text-anchor="middle" x="289" y="-7" font-family="Helvetica,sans-Serif" font-size="10.00">Window.update</text>
</a>
</g>
</g>
<!-- Node1&#45;&gt;Node6 -->
<g id="edge6" class="edge"><title>Node1&#45;&gt;Node6</title>
<path fill="none" stroke="midnightblue" d="M159.581,-29.538C179.585,-27.2733 200.706,-24.8823 219.914,-22.7079"/>
<polygon fill="midnightblue" stroke="midnightblue" points="159.095,-26.0706 149.552,-30.6733 159.883,-33.0261 159.095,-26.0706"/>
</g>
<!-- Node3 -->
<g id="node3" class="node"><title>Node3</title>
<g id="a_node3"><a xlink:href="../../d1/dfc/classmodel_1_1_scoped_variables_collection.html#a97c904df13f78cd228155acb66682af0" target="_top" xlink:title="model.ScopedVariablesCollection.add\lVariable">
<polygon fill="white" stroke="black" points="428.5,-93 428.5,-123 625.5,-123 625.5,-93 428.5,-93"/>
<text text-anchor="start" x="436.5" y="-111" font-family="Helvetica,sans-Serif" font-size="10.00">model.ScopedVariablesCollection.add</text>
<text text-anchor="middle" x="527" y="-100" font-family="Helvetica,sans-Serif" font-size="10.00">Variable</text>
</a>
</g>
</g>
<!-- Node2&#45;&gt;Node3 -->
<g id="edge2" class="edge"><title>Node2&#45;&gt;Node3</title>
<path fill="none" stroke="midnightblue" d="M380.59,-80.8897C401.931,-84.8685 424.538,-89.0834 445.405,-92.9738"/>
<polygon fill="midnightblue" stroke="midnightblue" points="381.03,-77.4114 370.558,-79.0192 379.747,-84.2929 381.03,-77.4114"/>
</g>
<!-- Node4 -->
<g id="node4" class="node"><title>Node4</title>
<g id="a_node4"><a xlink:href="../../d1/dfc/classmodel_1_1_scoped_variables_collection.html#ad857a8d43176e6105ff1ae1964576d7c" target="_top" xlink:title="model.ScopedVariablesCollection.get\lVariableValue">
<polygon fill="white" stroke="black" points="662,-71 662,-101 856,-101 856,-71 662,-71"/>
<text text-anchor="start" x="670" y="-89" font-family="Helvetica,sans-Serif" font-size="10.00">model.ScopedVariablesCollection.get</text>
<text text-anchor="middle" x="759" y="-78" font-family="Helvetica,sans-Serif" font-size="10.00">VariableValue</text>
</a>
</g>
</g>
<!-- Node2&#45;&gt;Node4 -->
<g id="edge5" class="edge"><title>Node2&#45;&gt;Node4</title>
<path fill="none" stroke="midnightblue" d="M401.575,-69.245C480.866,-72.9723 586.262,-77.9269 661.843,-81.4798"/>
<polygon fill="midnightblue" stroke="midnightblue" points="401.702,-65.7472 391.549,-68.7737 401.374,-72.7395 401.702,-65.7472"/>
</g>
<!-- Node5 -->
<g id="node5" class="node"><title>Node5</title>
<g id="a_node5"><a xlink:href="../../d1/dfc/classmodel_1_1_scoped_variables_collection.html#ab3bfb97681098d2ad0c0429ad1ac2684" target="_top" xlink:title="model.ScopedVariablesCollection.exit\lScope">
<polygon fill="white" stroke="black" points="429,-5 429,-35 625,-35 625,-5 429,-5"/>
<text text-anchor="start" x="437" y="-23" font-family="Helvetica,sans-Serif" font-size="10.00">model.ScopedVariablesCollection.exit</text>
<text text-anchor="middle" x="527" y="-12" font-family="Helvetica,sans-Serif" font-size="10.00">Scope</text>
</a>
</g>
</g>
<!-- Node2&#45;&gt;Node5 -->
<g id="edge4" class="edge"><title>Node2&#45;&gt;Node5</title>
<path fill="none" stroke="midnightblue" d="M380.59,-47.1103C401.931,-43.1315 424.538,-38.9166 445.405,-35.0262"/>
<polygon fill="midnightblue" stroke="midnightblue" points="379.747,-43.7071 370.558,-48.9808 381.03,-50.5886 379.747,-43.7071"/>
</g>
<!-- Node3&#45;&gt;Node4 -->
<g id="edge3" class="edge"><title>Node3&#45;&gt;Node4</title>
<path fill="none" stroke="midnightblue" d="M635.714,-97.6969C644.412,-96.8649 653.167,-96.0275 661.776,-95.204"/>
<polygon fill="midnightblue" stroke="midnightblue" points="635.162,-94.2337 625.541,-98.67 635.829,-101.202 635.162,-94.2337"/>
</g>
</g>
</svg>
