<?xml version="1.0" encoding="UTF-8" standalone="no"?>
<!DOCTYPE svg PUBLIC "-//W3C//DTD SVG 1.1//EN"
 "http://www.w3.org/Graphics/SVG/1.1/DTD/svg11.dtd">
<!-- Generated by graphviz version 2.36.0 (20140111.2315)
 -->
<!-- Title: view.dialogs.DialogBox Pages: 1 -->
<svg width="434pt" height="196pt"
 viewBox="0.00 0.00 434.00 196.00" xmlns="http://www.w3.org/2000/svg" xmlns:xlink="http://www.w3.org/1999/xlink">
<g id="graph0" class="graph" transform="scale(1 1) rotate(0) translate(4 192)">
<title>view.dialogs.DialogBox</title>
<polygon fill="white" stroke="none" points="-4,4 -4,-192 430,-192 430,4 -4,4"/>
<!-- Node1 -->
<g id="node1" class="node"><title>Node1</title>
<polygon fill="#bfbfbf" stroke="black" points="98,-168.5 98,-187.5 222,-187.5 222,-168.5 98,-168.5"/>
<text text-anchor="middle" x="160" y="-175.5" font-family="Helvetica,sans-Serif" font-size="10.00">view.dialogs.DialogBox</text>
</g>
<!-- Node2 -->
<g id="node2" class="node"><title>Node2</title>
<g id="a_node2"><a xlink:href="../../dc/d6d/classview_1_1dialogs_1_1_help_dialog_box.html" target="_top" xlink:title="view.dialogs.HelpDialogBox">
<polygon fill="white" stroke="black" points="0,-112.5 0,-131.5 146,-131.5 146,-112.5 0,-112.5"/>
<text text-anchor="middle" x="73" y="-119.5" font-family="Helvetica,sans-Serif" font-size="10.00">view.dialogs.HelpDialogBox</text>
</a>
</g>
</g>
<!-- Node1&#45;&gt;Node2 -->
<g id="edge1" class="edge"><title>Node1&#45;&gt;Node2</title>
<path fill="none" stroke="midnightblue" d="M137.284,-162.901C121.331,-152.999 100.503,-140.071 86.9434,-131.655"/>
<polygon fill="midnightblue" stroke="midnightblue" points="135.68,-166.024 146.022,-168.324 139.371,-160.077 135.68,-166.024"/>
</g>
<!-- Node3 -->
<g id="node3" class="node"><title>Node3</title>
<g id="a_node3"><a xlink:href="../../d2/dee/classview_1_1dialogs_1_1_message_dialog_box.html" target="_top" xlink:title="view.dialogs.MessageDialogBox">
<polygon fill="white" stroke="black" points="164.5,-112.5 164.5,-131.5 331.5,-131.5 331.5,-112.5 164.5,-112.5"/>
<text text-anchor="middle" x="248" y="-119.5" font-family="Helvetica,sans-Serif" font-size="10.00">view.dialogs.MessageDialogBox</text>
</a>
</g>
</g>
<!-- Node1&#45;&gt;Node3 -->
<g id="edge2" class="edge"><title>Node1&#45;&gt;Node3</title>
<path fill="none" stroke="midnightblue" d="M182.977,-162.901C199.113,-152.999 220.181,-140.071 233.896,-131.655"/>
<polygon fill="midnightblue" stroke="midnightblue" points="180.831,-160.111 174.139,-168.324 184.493,-166.077 180.831,-160.111"/>
</g>
<!-- Node4 -->
<g id="node4" class="node"><title>Node4</title>
<g id="a_node4"><a xlink:href="../../d0/de5/classview_1_1dialogs_1_1_input_dialog_box.html" target="_top" xlink:title="view.dialogs.InputDialogBox">
<polygon fill="white" stroke="black" points="174,-56.5 174,-75.5 322,-75.5 322,-56.5 174,-56.5"/>
<text text-anchor="middle" x="248" y="-63.5" font-family="Helvetica,sans-Serif" font-size="10.00">view.dialogs.InputDialogBox</text>
</a>
</g>
</g>
<!-- Node3&#45;&gt;Node4 -->
<g id="edge3" class="edge"><title>Node3&#45;&gt;Node4</title>
<path fill="none" stroke="midnightblue" d="M248,-101.805C248,-92.9102 248,-82.7798 248,-75.7511"/>
<polygon fill="midnightblue" stroke="midnightblue" points="244.5,-102.083 248,-112.083 251.5,-102.083 244.5,-102.083"/>
</g>
<!-- Node5 -->
<g id="node5" class="node"><title>Node5</title>
<g id="a_node5"><a xlink:href="../../d5/d77/classview_1_1dialogs_1_1_languages_dialog_box.html" target="_top" xlink:title="view.dialogs.LanguagesDialogBox">
<polygon fill="white" stroke="black" points="66,-0.5 66,-19.5 242,-19.5 242,-0.5 66,-0.5"/>
<text text-anchor="middle" x="154" y="-7.5" font-family="Helvetica,sans-Serif" font-size="10.00">view.dialogs.LanguagesDialogBox</text>
</a>
</g>
</g>
<!-- Node4&#45;&gt;Node5 -->
<g id="edge4" class="edge"><title>Node4&#45;&gt;Node5</title>
<path fill="none" stroke="midnightblue" d="M223.938,-51.1774C206.641,-41.2407 183.852,-28.1492 169.065,-19.6545"/>
<polygon fill="midnightblue" stroke="midnightblue" points="222.483,-54.3775 232.897,-56.324 225.97,-48.3078 222.483,-54.3775"/>
</g>
<!-- Node6 -->
<g id="node6" class="node"><title>Node6</title>
<g id="a_node6"><a xlink:href="../../da/d22/classview_1_1dialogs_1_1_text_input_dialog_box.html" target="_top" xlink:title="view.dialogs.TextInputDialogBox">
<polygon fill="white" stroke="black" points="259.5,-0.5 259.5,-19.5 426.5,-19.5 426.5,-0.5 259.5,-0.5"/>
<text text-anchor="middle" x="343" y="-7.5" font-family="Helvetica,sans-Serif" font-size="10.00">view.dialogs.TextInputDialogBox</text>
</a>
</g>
</g>
<!-- Node4&#45;&gt;Node6 -->
<g id="edge5" class="edge"><title>Node4&#45;&gt;Node6</title>
<path fill="none" stroke="midnightblue" d="M272.318,-51.1774C289.799,-41.2407 312.83,-28.1492 327.774,-19.6545"/>
<polygon fill="midnightblue" stroke="midnightblue" points="270.227,-48.3395 263.263,-56.324 273.687,-54.425 270.227,-48.3395"/>
</g>
</g>
</svg>
