<?xml version="1.0" encoding="UTF-8" standalone="no"?>
<!DOCTYPE svg PUBLIC "-//W3C//DTD SVG 1.1//EN"
 "http://www.w3.org/Graphics/SVG/1.1/DTD/svg11.dtd">
<!-- Generated by graphviz version 2.36.0 (20140111.2315)
 -->
<!-- Title: view.dialogs.InputDialogBox Pages: 1 -->
<svg width="261pt" height="222pt"
 viewBox="0.00 0.00 261.00 222.00" xmlns="http://www.w3.org/2000/svg" xmlns:xlink="http://www.w3.org/1999/xlink">
<g id="graph0" class="graph" transform="scale(1 1) rotate(0) translate(4 218)">
<title>view.dialogs.InputDialogBox</title>
<polygon fill="white" stroke="none" points="-4,4 -4,-218 257,-218 257,4 -4,4"/>
<!-- Node1 -->
<g id="node1" class="node"><title>Node1</title>
<polygon fill="#bfbfbf" stroke="black" points="95,-0.5 95,-19.5 243,-19.5 243,-0.5 95,-0.5"/>
<text text-anchor="middle" x="169" y="-7.5" font-family="Helvetica,sans-Serif" font-size="10.00">view.dialogs.InputDialogBox</text>
</g>
<!-- Node2 -->
<g id="node2" class="node"><title>Node2</title>
<g id="a_node2"><a xlink:href="../../d2/dee/classview_1_1dialogs_1_1_message_dialog_box.html" target="_top" xlink:title="view.dialogs.MessageDialogBox">
<polygon fill="white" stroke="black" points="85.5,-58.5 85.5,-77.5 252.5,-77.5 252.5,-58.5 85.5,-58.5"/>
<text text-anchor="middle" x="169" y="-65.5" font-family="Helvetica,sans-Serif" font-size="10.00">view.dialogs.MessageDialogBox</text>
</a>
</g>
</g>
<!-- Node2&#45;&gt;Node1 -->
<g id="edge1" class="edge"><title>Node2&#45;&gt;Node1</title>
<path fill="none" stroke="midnightblue" d="M169,-47.953C169,-38.2875 169,-27.0312 169,-19.5052"/>
<polygon fill="midnightblue" stroke="midnightblue" points="165.5,-48.25 169,-58.25 172.5,-48.25 165.5,-48.25"/>
</g>
<!-- Node3 -->
<g id="node3" class="node"><title>Node3</title>
<g id="a_node3"><a xlink:href="../../d2/d9f/classview_1_1dialogs_1_1_dialog_box.html" target="_top" xlink:title="view.dialogs.DialogBox">
<polygon fill="white" stroke="black" points="30,-126.5 30,-145.5 154,-145.5 154,-126.5 30,-126.5"/>
<text text-anchor="middle" x="92" y="-133.5" font-family="Helvetica,sans-Serif" font-size="10.00">view.dialogs.DialogBox</text>
</a>
</g>
</g>
<!-- Node3&#45;&gt;Node2 -->
<g id="edge2" class="edge"><title>Node3&#45;&gt;Node2</title>
<path fill="none" stroke="midnightblue" d="M109.763,-119.774C124.919,-106.784 146.186,-88.5551 158.685,-77.8411"/>
<polygon fill="midnightblue" stroke="midnightblue" points="107.381,-117.206 102.066,-126.372 111.937,-122.521 107.381,-117.206"/>
</g>
<!-- Node4 -->
<g id="node4" class="node"><title>Node4</title>
<polygon fill="white" stroke="#bfbfbf" points="-0.5,-194.5 -0.5,-213.5 44.5,-213.5 44.5,-194.5 -0.5,-194.5"/>
<text text-anchor="middle" x="22" y="-201.5" font-family="Helvetica,sans-Serif" font-size="10.00">Stage</text>
</g>
<!-- Node4&#45;&gt;Node3 -->
<g id="edge3" class="edge"><title>Node4&#45;&gt;Node3</title>
<path fill="none" stroke="#9a32cd" stroke-dasharray="5,2" d="M28.0812,-184.731C31.1201,-177.63 35.3718,-169.82 41,-164 48.6607,-156.078 59.1541,-149.979 68.6316,-145.599"/>
<polygon fill="#9a32cd" stroke="#9a32cd" points="24.7211,-183.723 24.4777,-194.315 31.2733,-186.186 24.7211,-183.723"/>
<text text-anchor="middle" x="64.5" y="-167.5" font-family="Helvetica,sans-Serif" font-size="10.00"> myStage</text>
</g>
<!-- Node5 -->
<g id="node5" class="node"><title>Node5</title>
<polygon fill="white" stroke="#bfbfbf" points="68.5,-194.5 68.5,-213.5 115.5,-213.5 115.5,-194.5 68.5,-194.5"/>
<text text-anchor="middle" x="92" y="-201.5" font-family="Helvetica,sans-Serif" font-size="10.00">Scene</text>
</g>
<!-- Node5&#45;&gt;Node3 -->
<g id="edge4" class="edge"><title>Node5&#45;&gt;Node3</title>
<path fill="none" stroke="#9a32cd" stroke-dasharray="5,2" d="M92,-184.041C92,-171.472 92,-155.563 92,-145.841"/>
<polygon fill="#9a32cd" stroke="#9a32cd" points="88.5001,-184.372 92,-194.372 95.5001,-184.372 88.5001,-184.372"/>
<text text-anchor="middle" x="116.5" y="-167.5" font-family="Helvetica,sans-Serif" font-size="10.00"> myScene</text>
</g>
<!-- Node6 -->
<g id="node6" class="node"><title>Node6</title>
<polygon fill="white" stroke="#bfbfbf" points="134,-194.5 134,-213.5 206,-213.5 206,-194.5 134,-194.5"/>
<text text-anchor="middle" x="170" y="-201.5" font-family="Helvetica,sans-Serif" font-size="10.00">BorderPane</text>
</g>
<!-- Node6&#45;&gt;Node3 -->
<g id="edge5" class="edge"><title>Node6&#45;&gt;Node3</title>
<path fill="none" stroke="#9a32cd" stroke-dasharray="5,2" d="M161.279,-185.209C157.095,-177.975 151.557,-169.939 145,-164 136.351,-156.167 125.011,-149.988 115.041,-145.529"/>
<polygon fill="#9a32cd" stroke="#9a32cd" points="158.329,-187.117 166.114,-194.304 164.511,-183.832 158.329,-187.117"/>
<text text-anchor="middle" x="176" y="-167.5" font-family="Helvetica,sans-Serif" font-size="10.00"> myPane</text>
</g>
<!-- Node7 -->
<g id="node7" class="node"><title>Node7</title>
<polygon fill="white" stroke="#bfbfbf" points="172.5,-126.5 172.5,-145.5 217.5,-145.5 217.5,-126.5 172.5,-126.5"/>
<text text-anchor="middle" x="195" y="-133.5" font-family="Helvetica,sans-Serif" font-size="10.00">Insets</text>
</g>
<!-- Node7&#45;&gt;Node2 -->
<g id="edge6" class="edge"><title>Node7&#45;&gt;Node2</title>
<path fill="none" stroke="#9a32cd" stroke-dasharray="5,2" d="M187.833,-116.807C182.837,-104.124 176.391,-87.7615 172.483,-77.8411"/>
<polygon fill="#9a32cd" stroke="#9a32cd" points="184.679,-118.35 191.601,-126.372 191.192,-115.785 184.679,-118.35"/>
<text text-anchor="middle" x="218" y="-99.5" font-family="Helvetica,sans-Serif" font-size="10.00"> TEXT_INSETS</text>
</g>
</g>
</svg>
