<?xml version="1.0" encoding="UTF-8" standalone="no"?>
<!DOCTYPE svg PUBLIC "-//W3C//DTD SVG 1.1//EN"
 "http://www.w3.org/Graphics/SVG/1.1/DTD/svg11.dtd">
<!-- Generated by graphviz version 2.36.0 (20140111.2315)
 -->
<!-- Title: model.TurtleSingle.moveToPosition Pages: 1 -->
<svg width="542pt" height="214pt"
 viewBox="0.00 0.00 542.00 214.00" xmlns="http://www.w3.org/2000/svg" xmlns:xlink="http://www.w3.org/1999/xlink">
<g id="graph0" class="graph" transform="scale(1 1) rotate(0) translate(4 210.002)">
<title>model.TurtleSingle.moveToPosition</title>
<polygon fill="white" stroke="none" points="-4,4 -4,-210.002 538,-210.002 538,4 -4,4"/>
<!-- Node1 -->
<g id="node1" class="node"><title>Node1</title>
<polygon fill="#bfbfbf" stroke="black" points="0,-101 0,-131 144,-131 144,-101 0,-101"/>
<text text-anchor="start" x="8" y="-119" font-family="Helvetica,sans-Serif" font-size="10.00">model.TurtleSingle.moveTo</text>
<text text-anchor="middle" x="72" y="-108" font-family="Helvetica,sans-Serif" font-size="10.00">Position</text>
</g>
<!-- Node2 -->
<g id="node2" class="node"><title>Node2</title>
<g id="a_node2"><a xlink:href="../../d8/d6a/classmodel_1_1_coordinates.html#adbb734c55a78cb2067e20a8d4b108735" target="_top" xlink:title="model.Coordinates.addCoordinates">
<polygon fill="white" stroke="black" points="180,-163.5 180,-182.5 366,-182.5 366,-163.5 180,-163.5"/>
<text text-anchor="middle" x="273" y="-170.5" font-family="Helvetica,sans-Serif" font-size="10.00">model.Coordinates.addCoordinates</text>
</a>
</g>
</g>
<!-- Node1&#45;&gt;Node2 -->
<g id="edge1" class="edge"><title>Node1&#45;&gt;Node2</title>
<path fill="none" stroke="midnightblue" d="M111.22,-131.015C131.45,-138.595 156.837,-147.528 180,-154 189.542,-156.666 199.737,-159.137 209.736,-161.355"/>
<polygon fill="midnightblue" stroke="midnightblue" points="209.127,-164.804 219.639,-163.486 210.6,-157.96 209.127,-164.804"/>
</g>
<!-- Node3 -->
<g id="node3" class="node"><title>Node3</title>
<g id="a_node3"><a xlink:href="../../d8/d6a/classmodel_1_1_coordinates.html#af4866826a0da36de7015ac63447db5b1" target="_top" xlink:title="model.Coordinates.getX">
<polygon fill="white" stroke="black" points="402,-163.5 402,-182.5 534,-182.5 534,-163.5 402,-163.5"/>
<text text-anchor="middle" x="468" y="-170.5" font-family="Helvetica,sans-Serif" font-size="10.00">model.Coordinates.getX</text>
</a>
</g>
</g>
<!-- Node1&#45;&gt;Node3 -->
<g id="edge8" class="edge"><title>Node1&#45;&gt;Node3</title>
<path fill="none" stroke="midnightblue" d="M87.6066,-131.009C106.784,-149.524 142.446,-180.02 180,-192 263.924,-218.772 368.467,-199.625 425.361,-185.131"/>
<polygon fill="midnightblue" stroke="midnightblue" points="426.294,-188.505 435.079,-182.582 424.518,-181.734 426.294,-188.505"/>
</g>
<!-- Node4 -->
<g id="node4" class="node"><title>Node4</title>
<g id="a_node4"><a xlink:href="../../d8/d6a/classmodel_1_1_coordinates.html#a52f6ed56424da9a52c598f9c94f2c8ff" target="_top" xlink:title="model.Coordinates.getY">
<polygon fill="white" stroke="black" points="402.5,-125.5 402.5,-144.5 533.5,-144.5 533.5,-125.5 402.5,-125.5"/>
<text text-anchor="middle" x="468" y="-132.5" font-family="Helvetica,sans-Serif" font-size="10.00">model.Coordinates.getY</text>
</a>
</g>
</g>
<!-- Node1&#45;&gt;Node4 -->
<g id="edge9" class="edge"><title>Node1&#45;&gt;Node4</title>
<path fill="none" stroke="midnightblue" d="M144.219,-112.312C203.658,-110.118 290.534,-108.963 366,-116 382.322,-117.522 399.937,-120.399 415.815,-123.462"/>
<polygon fill="midnightblue" stroke="midnightblue" points="415.475,-126.963 425.967,-125.489 416.846,-120.098 415.475,-126.963"/>
</g>
<!-- Node5 -->
<g id="node5" class="node"><title>Node5</title>
<g id="a_node5"><a xlink:href="../../d8/d6a/classmodel_1_1_coordinates.html#a9cf0ae0b4aa4402e6c58b8087efdac62" target="_top" xlink:title="model.Coordinates.distance">
<polygon fill="white" stroke="black" points="197.5,-125.5 197.5,-144.5 348.5,-144.5 348.5,-125.5 197.5,-125.5"/>
<text text-anchor="middle" x="273" y="-132.5" font-family="Helvetica,sans-Serif" font-size="10.00">model.Coordinates.distance</text>
</a>
</g>
</g>
<!-- Node1&#45;&gt;Node5 -->
<g id="edge4" class="edge"><title>Node1&#45;&gt;Node5</title>
<path fill="none" stroke="midnightblue" d="M144.001,-122.779C157.923,-124.108 172.658,-125.515 186.984,-126.883"/>
<polygon fill="midnightblue" stroke="midnightblue" points="187.038,-130.404 197.325,-127.87 187.703,-123.436 187.038,-130.404"/>
</g>
<!-- Node6 -->
<g id="node6" class="node"><title>Node6</title>
<g id="a_node6"><a xlink:href="../../da/d88/classmodel_1_1_turtle_single.html#a7382d43046c8a2d336efb4bec032e89f" target="_top" xlink:title="model.TurtleSingle.getCoordinates">
<polygon fill="white" stroke="black" points="182.5,-49.5 182.5,-68.5 363.5,-68.5 363.5,-49.5 182.5,-49.5"/>
<text text-anchor="middle" x="273" y="-56.5" font-family="Helvetica,sans-Serif" font-size="10.00">model.TurtleSingle.getCoordinates</text>
</a>
</g>
</g>
<!-- Node1&#45;&gt;Node6 -->
<g id="edge7" class="edge"><title>Node1&#45;&gt;Node6</title>
<path fill="none" stroke="midnightblue" d="M120.273,-100.93C138.839,-95.1405 160.367,-88.5854 180,-83 194.181,-78.9656 209.666,-74.8248 223.819,-71.1429"/>
<polygon fill="midnightblue" stroke="midnightblue" points="225.045,-74.4413 233.851,-68.5512 223.294,-67.6638 225.045,-74.4413"/>
</g>
<!-- Node7 -->
<g id="node7" class="node"><title>Node7</title>
<g id="a_node7"><a xlink:href="../../da/d88/classmodel_1_1_turtle_single.html#a40853b6f8c9ba455489ad8ea9535e99d" target="_top" xlink:title="model.TurtleSingle.notify\lObservers">
<polygon fill="white" stroke="black" points="206,-0 206,-30 340,-30 340,-0 206,-0"/>
<text text-anchor="start" x="214" y="-18" font-family="Helvetica,sans-Serif" font-size="10.00">model.TurtleSingle.notify</text>
<text text-anchor="middle" x="273" y="-7" font-family="Helvetica,sans-Serif" font-size="10.00">Observers</text>
</a>
</g>
</g>
<!-- Node1&#45;&gt;Node7 -->
<g id="edge10" class="edge"><title>Node1&#45;&gt;Node7</title>
<path fill="none" stroke="midnightblue" d="M90.3309,-100.725C110.545,-83.6464 145.596,-56.258 180,-40 185.051,-37.6133 190.368,-35.4213 195.795,-33.4143"/>
<polygon fill="midnightblue" stroke="midnightblue" points="197.345,-36.5814 205.648,-29.9993 195.053,-29.9675 197.345,-36.5814"/>
</g>
<!-- Node2&#45;&gt;Node3 -->
<g id="edge2" class="edge"><title>Node2&#45;&gt;Node3</title>
<path fill="none" stroke="midnightblue" d="M366.26,-173C374.804,-173 383.392,-173 391.756,-173"/>
<polygon fill="midnightblue" stroke="midnightblue" points="391.829,-176.5 401.829,-173 391.829,-169.5 391.829,-176.5"/>
</g>
<!-- Node2&#45;&gt;Node4 -->
<g id="edge3" class="edge"><title>Node2&#45;&gt;Node4</title>
<path fill="none" stroke="midnightblue" d="M322.702,-163.411C348.859,-158.261 381.284,-151.877 408.767,-146.466"/>
<polygon fill="midnightblue" stroke="midnightblue" points="409.513,-149.886 418.648,-144.52 408.16,-143.018 409.513,-149.886"/>
</g>
<!-- Node5&#45;&gt;Node3 -->
<g id="edge5" class="edge"><title>Node5&#45;&gt;Node3</title>
<path fill="none" stroke="midnightblue" d="M322.702,-144.589C348.859,-149.739 381.284,-156.123 408.767,-161.534"/>
<polygon fill="midnightblue" stroke="midnightblue" points="408.16,-164.982 418.648,-163.48 409.513,-158.114 408.16,-164.982"/>
</g>
<!-- Node5&#45;&gt;Node4 -->
<g id="edge6" class="edge"><title>Node5&#45;&gt;Node4</title>
<path fill="none" stroke="midnightblue" d="M348.619,-135C362.873,-135 377.8,-135 392.065,-135"/>
<polygon fill="midnightblue" stroke="midnightblue" points="392.316,-138.5 402.315,-135 392.315,-131.5 392.316,-138.5"/>
</g>
</g>
</svg>
