<?xml version="1.0" encoding="UTF-8" standalone="no"?>
<!DOCTYPE svg PUBLIC "-//W3C//DTD SVG 1.1//EN"
 "http://www.w3.org/Graphics/SVG/1.1/DTD/svg11.dtd">
<!-- Generated by graphviz version 2.36.0 (20140111.2315)
 -->
<!-- Title: model.TurtleSingle.setTowards Pages: 1 -->
<svg width="744pt" height="184pt"
 viewBox="0.00 0.00 744.00 184.00" xmlns="http://www.w3.org/2000/svg" xmlns:xlink="http://www.w3.org/1999/xlink">
<g id="graph0" class="graph" transform="scale(1 1) rotate(0) translate(4 180)">
<title>model.TurtleSingle.setTowards</title>
<polygon fill="white" stroke="none" points="-4,4 -4,-180 740,-180 740,4 -4,4"/>
<!-- Node1 -->
<g id="node1" class="node"><title>Node1</title>
<polygon fill="#bfbfbf" stroke="black" points="0,-99.5 0,-118.5 160,-118.5 160,-99.5 0,-99.5"/>
<text text-anchor="middle" x="80" y="-106.5" font-family="Helvetica,sans-Serif" font-size="10.00">model.TurtleSingle.setTowards</text>
</g>
<!-- Node2 -->
<g id="node2" class="node"><title>Node2</title>
<g id="a_node2"><a xlink:href="../../d8/d6a/classmodel_1_1_coordinates.html#af4866826a0da36de7015ac63447db5b1" target="_top" xlink:title="model.Coordinates.getX">
<polygon fill="white" stroke="black" points="211,-156.5 211,-175.5 343,-175.5 343,-156.5 211,-156.5"/>
<text text-anchor="middle" x="277" y="-163.5" font-family="Helvetica,sans-Serif" font-size="10.00">model.Coordinates.getX</text>
</a>
</g>
</g>
<!-- Node1&#45;&gt;Node2 -->
<g id="edge1" class="edge"><title>Node1&#45;&gt;Node2</title>
<path fill="none" stroke="midnightblue" d="M107.752,-118.565C130.931,-126.678 165.452,-138.343 196,-147 204.582,-149.432 213.74,-151.809 222.683,-154.012"/>
<polygon fill="midnightblue" stroke="midnightblue" points="222.103,-157.473 232.645,-156.42 223.747,-150.669 222.103,-157.473"/>
</g>
<!-- Node3 -->
<g id="node3" class="node"><title>Node3</title>
<g id="a_node3"><a xlink:href="../../d8/d6a/classmodel_1_1_coordinates.html#a52f6ed56424da9a52c598f9c94f2c8ff" target="_top" xlink:title="model.Coordinates.getY">
<polygon fill="white" stroke="black" points="211.5,-118.5 211.5,-137.5 342.5,-137.5 342.5,-118.5 211.5,-118.5"/>
<text text-anchor="middle" x="277" y="-125.5" font-family="Helvetica,sans-Serif" font-size="10.00">model.Coordinates.getY</text>
</a>
</g>
</g>
<!-- Node1&#45;&gt;Node3 -->
<g id="edge2" class="edge"><title>Node1&#45;&gt;Node3</title>
<path fill="none" stroke="midnightblue" d="M160.033,-116.701C173.662,-118.029 187.79,-119.405 201.3,-120.722"/>
<polygon fill="midnightblue" stroke="midnightblue" points="201.2,-124.228 211.492,-121.715 201.879,-117.261 201.2,-124.228"/>
</g>
<!-- Node4 -->
<g id="node4" class="node"><title>Node4</title>
<g id="a_node4"><a xlink:href="../../da/d88/classmodel_1_1_turtle_single.html#a40853b6f8c9ba455489ad8ea9535e99d" target="_top" xlink:title="model.TurtleSingle.notify\lObservers">
<polygon fill="white" stroke="black" points="402,-77 402,-107 536,-107 536,-77 402,-77"/>
<text text-anchor="start" x="410" y="-95" font-family="Helvetica,sans-Serif" font-size="10.00">model.TurtleSingle.notify</text>
<text text-anchor="middle" x="469" y="-84" font-family="Helvetica,sans-Serif" font-size="10.00">Observers</text>
</a>
</g>
</g>
<!-- Node1&#45;&gt;Node4 -->
<g id="edge3" class="edge"><title>Node1&#45;&gt;Node4</title>
<path fill="none" stroke="midnightblue" d="M160.249,-105.519C227.978,-102.544 324.802,-98.2903 391.676,-95.3527"/>
<polygon fill="midnightblue" stroke="midnightblue" points="391.893,-98.8467 401.73,-94.9111 391.586,-91.8534 391.893,-98.8467"/>
</g>
<!-- Node5 -->
<g id="node5" class="node"><title>Node5</title>
<g id="a_node5"><a xlink:href="../../da/d88/classmodel_1_1_turtle_single.html#a002b91f80521a6ca5cf20a62b7006c34" target="_top" xlink:title="model.TurtleSingle.setHeading">
<polygon fill="white" stroke="black" points="196,-39.5 196,-58.5 358,-58.5 358,-39.5 196,-39.5"/>
<text text-anchor="middle" x="277" y="-46.5" font-family="Helvetica,sans-Serif" font-size="10.00">model.TurtleSingle.setHeading</text>
</a>
</g>
</g>
<!-- Node1&#45;&gt;Node5 -->
<g id="edge4" class="edge"><title>Node1&#45;&gt;Node5</title>
<path fill="none" stroke="midnightblue" d="M111.898,-99.4928C145.176,-89.2537 198.28,-72.9137 235.024,-61.6079"/>
<polygon fill="midnightblue" stroke="midnightblue" points="236.396,-64.848 244.924,-58.5618 234.337,-58.1575 236.396,-64.848"/>
</g>
<!-- Node5&#45;&gt;Node4 -->
<g id="edge6" class="edge"><title>Node5&#45;&gt;Node4</title>
<path fill="none" stroke="midnightblue" d="M320.167,-58.5431C341.211,-63.3055 367.325,-69.2157 391.724,-74.7375"/>
<polygon fill="midnightblue" stroke="midnightblue" points="391.167,-78.2 401.693,-76.9937 392.712,-71.3726 391.167,-78.2"/>
</g>
<!-- Node6 -->
<g id="node6" class="node"><title>Node6</title>
<g id="a_node6"><a xlink:href="../../de/dfa/classmodel_1_1_angle.html#aa1b069cc47fadd893fe8527c356dd8fd" target="_top" xlink:title="model.Angle.getAngleValue">
<polygon fill="white" stroke="black" points="394.5,-38.5 394.5,-57.5 543.5,-57.5 543.5,-38.5 394.5,-38.5"/>
<text text-anchor="middle" x="469" y="-45.5" font-family="Helvetica,sans-Serif" font-size="10.00">model.Angle.getAngleValue</text>
</a>
</g>
</g>
<!-- Node5&#45;&gt;Node6 -->
<g id="edge5" class="edge"><title>Node5&#45;&gt;Node6</title>
<path fill="none" stroke="midnightblue" d="M358.026,-48.5788C366.701,-48.5332 375.546,-48.4866 384.263,-48.4407"/>
<polygon fill="midnightblue" stroke="midnightblue" points="384.437,-51.9399 394.419,-48.3873 384.401,-44.94 384.437,-51.9399"/>
</g>
<!-- Node7 -->
<g id="node7" class="node"><title>Node7</title>
<g id="a_node7"><a xlink:href="../../de/dfa/classmodel_1_1_angle.html#abc668dbdb92ee339fea7492cda826061" target="_top" xlink:title="model.Angle.setAngleValue">
<polygon fill="white" stroke="black" points="395,-0.5 395,-19.5 543,-19.5 543,-0.5 395,-0.5"/>
<text text-anchor="middle" x="469" y="-7.5" font-family="Helvetica,sans-Serif" font-size="10.00">model.Angle.setAngleValue</text>
</a>
</g>
</g>
<!-- Node5&#45;&gt;Node7 -->
<g id="edge7" class="edge"><title>Node5&#45;&gt;Node7</title>
<path fill="none" stroke="midnightblue" d="M324.479,-39.4595C350.8,-34.0569 383.913,-27.26 411.698,-21.5567"/>
<polygon fill="midnightblue" stroke="midnightblue" points="412.58,-24.9488 421.672,-19.5095 411.172,-18.0918 412.58,-24.9488"/>
</g>
<!-- Node8 -->
<g id="node8" class="node"><title>Node8</title>
<g id="a_node8"><a xlink:href="../../de/dfa/classmodel_1_1_angle.html#a33d4e2194b10ee4aa384b74c7f73f3e6" target="_top" xlink:title="model.Angle.modAngleValue">
<polygon fill="white" stroke="black" points="580.5,-0.5 580.5,-19.5 735.5,-19.5 735.5,-0.5 580.5,-0.5"/>
<text text-anchor="middle" x="658" y="-7.5" font-family="Helvetica,sans-Serif" font-size="10.00">model.Angle.modAngleValue</text>
</a>
</g>
</g>
<!-- Node7&#45;&gt;Node8 -->
<g id="edge8" class="edge"><title>Node7&#45;&gt;Node8</title>
<path fill="none" stroke="midnightblue" d="M543.103,-10C551.959,-10 561.073,-10 570.104,-10"/>
<polygon fill="midnightblue" stroke="midnightblue" points="570.247,-13.5001 580.247,-10 570.247,-6.5001 570.247,-13.5001"/>
</g>
</g>
</svg>
