<?xml version="1.0" encoding="UTF-8" standalone="no"?>
<!DOCTYPE svg PUBLIC "-//W3C//DTD SVG 1.1//EN"
 "http://www.w3.org/Graphics/SVG/1.1/DTD/svg11.dtd">
<!-- Generated by graphviz version 2.36.0 (20140111.2315)
 -->
<!-- Title: model.TurtleSingle.changePen Pages: 1 -->
<svg width="352pt" height="77pt"
 viewBox="0.00 0.00 352.00 77.00" xmlns="http://www.w3.org/2000/svg" xmlns:xlink="http://www.w3.org/1999/xlink">
<g id="graph0" class="graph" transform="scale(1 1) rotate(0) translate(4 73)">
<title>model.TurtleSingle.changePen</title>
<polygon fill="white" stroke="none" points="-4,4 -4,-73 348,-73 348,4 -4,4"/>
<!-- Node1 -->
<g id="node1" class="node"><title>Node1</title>
<polygon fill="#bfbfbf" stroke="black" points="0.5,-27.5 0.5,-46.5 161.5,-46.5 161.5,-27.5 0.5,-27.5"/>
<text text-anchor="middle" x="81" y="-34.5" font-family="Helvetica,sans-Serif" font-size="10.00">model.TurtleSingle.changePen</text>
</g>
<!-- Node2 -->
<g id="node2" class="node"><title>Node2</title>
<g id="a_node2"><a xlink:href="../../d4/d1d/interfacemodel_1_1_pen_changer.html#ad5d651f71c8faf5936ed393421810d99" target="_top" xlink:title="model.PenChanger.change">
<polygon fill="white" stroke="black" points="198,-49.5 198,-68.5 344,-68.5 344,-49.5 198,-49.5"/>
<text text-anchor="middle" x="271" y="-56.5" font-family="Helvetica,sans-Serif" font-size="10.00">model.PenChanger.change</text>
</a>
</g>
</g>
<!-- Node1&#45;&gt;Node2 -->
<g id="edge1" class="edge"><title>Node1&#45;&gt;Node2</title>
<path fill="none" stroke="midnightblue" d="M161.729,-46.33C170.361,-47.3401 179.157,-48.3694 187.817,-49.3828"/>
<polygon fill="midnightblue" stroke="midnightblue" points="187.563,-52.8769 197.902,-50.563 188.377,-45.9244 187.563,-52.8769"/>
</g>
<!-- Node3 -->
<g id="node3" class="node"><title>Node3</title>
<g id="a_node3"><a xlink:href="../../da/d88/classmodel_1_1_turtle_single.html#a40853b6f8c9ba455489ad8ea9535e99d" target="_top" xlink:title="model.TurtleSingle.notify\lObservers">
<polygon fill="white" stroke="black" points="204,-0 204,-30 338,-30 338,-0 204,-0"/>
<text text-anchor="start" x="212" y="-18" font-family="Helvetica,sans-Serif" font-size="10.00">model.TurtleSingle.notify</text>
<text text-anchor="middle" x="271" y="-7" font-family="Helvetica,sans-Serif" font-size="10.00">Observers</text>
</a>
</g>
</g>
<!-- Node1&#45;&gt;Node3 -->
<g id="edge2" class="edge"><title>Node1&#45;&gt;Node3</title>
<path fill="none" stroke="midnightblue" d="M161.729,-27.67C172.346,-26.4275 183.213,-25.156 193.769,-23.9207"/>
<polygon fill="midnightblue" stroke="midnightblue" points="194.251,-27.3883 203.776,-22.7496 193.437,-20.4357 194.251,-27.3883"/>
</g>
</g>
</svg>
