<?xml version="1.0" encoding="UTF-8" standalone="no"?>
<!DOCTYPE svg PUBLIC "-//W3C//DTD SVG 1.1//EN"
 "http://www.w3.org/Graphics/SVG/1.1/DTD/svg11.dtd">
<!-- Generated by graphviz version 2.36.0 (20140111.2315)
 -->
<!-- Title: model.TurtleSingle.getShapeID Pages: 1 -->
<svg width="348pt" height="87pt"
 viewBox="0.00 0.00 348.00 87.00" xmlns="http://www.w3.org/2000/svg" xmlns:xlink="http://www.w3.org/1999/xlink">
<g id="graph0" class="graph" transform="scale(1 1) rotate(0) translate(4 83)">
<title>model.TurtleSingle.getShapeID</title>
<polygon fill="white" stroke="none" points="-4,4 -4,-83 344,-83 344,4 -4,4"/>
<!-- Node1 -->
<g id="node1" class="node"><title>Node1</title>
<polygon fill="#bfbfbf" stroke="black" points="0,-29.5 0,-48.5 164,-48.5 164,-29.5 0,-29.5"/>
<text text-anchor="middle" x="82" y="-36.5" font-family="Helvetica,sans-Serif" font-size="10.00">model.TurtleSingle.getShapeID</text>
</g>
<!-- Node2 -->
<g id="node2" class="node"><title>Node2</title>
<g id="a_node2"><a xlink:href="../../d9/dea/classmodel_1_1_turtle_multiple.html#ac68edd5056281308dff9ed229e711677" target="_top" xlink:title="model.TurtleMultiple.get\lShapeID">
<polygon fill="white" stroke="black" points="204.5,-49 204.5,-79 335.5,-79 335.5,-49 204.5,-49"/>
<text text-anchor="start" x="212.5" y="-67" font-family="Helvetica,sans-Serif" font-size="10.00">model.TurtleMultiple.get</text>
<text text-anchor="middle" x="270" y="-56" font-family="Helvetica,sans-Serif" font-size="10.00">ShapeID</text>
</a>
</g>
</g>
<!-- Node1&#45;&gt;Node2 -->
<g id="edge1" class="edge"><title>Node1&#45;&gt;Node2</title>
<path fill="none" stroke="midnightblue" d="M164.089,-49.8991C177.591,-51.7139 191.434,-53.5745 204.454,-55.3245"/>
<polygon fill="midnightblue" stroke="midnightblue" points="164.226,-46.3861 153.849,-48.5227 163.294,-53.3237 164.226,-46.3861"/>
</g>
<!-- Node3 -->
<g id="node3" class="node"><title>Node3</title>
<g id="a_node3"><a xlink:href="../../db/dce/classmodel_1_1_turtle_update.html#a483f6cdd16cedb0e3a05492ddf7fe709" target="_top" xlink:title="model.TurtleUpdate.Turtle\lUpdate">
<polygon fill="white" stroke="black" points="200.5,-0 200.5,-30 339.5,-30 339.5,-0 200.5,-0"/>
<text text-anchor="start" x="208.5" y="-18" font-family="Helvetica,sans-Serif" font-size="10.00">model.TurtleUpdate.Turtle</text>
<text text-anchor="middle" x="270" y="-7" font-family="Helvetica,sans-Serif" font-size="10.00">Update</text>
</a>
</g>
</g>
<!-- Node1&#45;&gt;Node3 -->
<g id="edge2" class="edge"><title>Node1&#45;&gt;Node3</title>
<path fill="none" stroke="midnightblue" d="M166.993,-28.1622C178.189,-26.7175 189.561,-25.2502 200.451,-23.845"/>
<polygon fill="midnightblue" stroke="midnightblue" points="166.249,-24.7291 156.779,-29.4801 167.145,-31.6715 166.249,-24.7291"/>
</g>
</g>
</svg>
