<?xml version="1.0" encoding="UTF-8" standalone="no"?>
<!DOCTYPE svg PUBLIC "-//W3C//DTD SVG 1.1//EN"
 "http://www.w3.org/Graphics/SVG/1.1/DTD/svg11.dtd">
<!-- Generated by graphviz version 2.36.0 (20140111.2315)
 -->
<!-- Title: model.TurtleSingle.getOldCoordinates Pages: 1 -->
<svg width="324pt" height="87pt"
 viewBox="0.00 0.00 324.00 87.00" xmlns="http://www.w3.org/2000/svg" xmlns:xlink="http://www.w3.org/1999/xlink">
<g id="graph0" class="graph" transform="scale(1 1) rotate(0) translate(4 83)">
<title>model.TurtleSingle.getOldCoordinates</title>
<polygon fill="white" stroke="none" points="-4,4 -4,-83 320,-83 320,4 -4,4"/>
<!-- Node1 -->
<g id="node1" class="node"><title>Node1</title>
<polygon fill="#bfbfbf" stroke="black" points="0.5,-24 0.5,-54 139.5,-54 139.5,-24 0.5,-24"/>
<text text-anchor="start" x="8.5" y="-42" font-family="Helvetica,sans-Serif" font-size="10.00">model.TurtleSingle.getOld</text>
<text text-anchor="middle" x="70" y="-31" font-family="Helvetica,sans-Serif" font-size="10.00">Coordinates</text>
</g>
<!-- Node2 -->
<g id="node2" class="node"><title>Node2</title>
<g id="a_node2"><a xlink:href="../../d9/dea/classmodel_1_1_turtle_multiple.html#ab71225e700ca734fc2b16d5aaee02662" target="_top" xlink:title="model.TurtleMultiple.get\lOldCoordinates">
<polygon fill="white" stroke="black" points="180.5,-49 180.5,-79 311.5,-79 311.5,-49 180.5,-49"/>
<text text-anchor="start" x="188.5" y="-67" font-family="Helvetica,sans-Serif" font-size="10.00">model.TurtleMultiple.get</text>
<text text-anchor="middle" x="246" y="-56" font-family="Helvetica,sans-Serif" font-size="10.00">OldCoordinates</text>
</a>
</g>
</g>
<!-- Node1&#45;&gt;Node2 -->
<g id="edge1" class="edge"><title>Node1&#45;&gt;Node2</title>
<path fill="none" stroke="midnightblue" d="M149.907,-50.3372C160.115,-51.804 170.474,-53.2922 180.414,-54.7203"/>
<polygon fill="midnightblue" stroke="midnightblue" points="150.166,-46.8385 139.769,-48.8807 149.17,-53.7673 150.166,-46.8385"/>
</g>
<!-- Node3 -->
<g id="node3" class="node"><title>Node3</title>
<g id="a_node3"><a xlink:href="../../db/dce/classmodel_1_1_turtle_update.html#a483f6cdd16cedb0e3a05492ddf7fe709" target="_top" xlink:title="model.TurtleUpdate.Turtle\lUpdate">
<polygon fill="white" stroke="black" points="176.5,-0 176.5,-30 315.5,-30 315.5,-0 176.5,-0"/>
<text text-anchor="start" x="184.5" y="-18" font-family="Helvetica,sans-Serif" font-size="10.00">model.TurtleUpdate.Turtle</text>
<text text-anchor="middle" x="246" y="-7" font-family="Helvetica,sans-Serif" font-size="10.00">Update</text>
</a>
</g>
</g>
<!-- Node1&#45;&gt;Node3 -->
<g id="edge2" class="edge"><title>Node1&#45;&gt;Node3</title>
<path fill="none" stroke="midnightblue" d="M149.755,-28.1372C158.662,-26.9087 167.684,-25.6642 176.445,-24.4558"/>
<polygon fill="midnightblue" stroke="midnightblue" points="149.197,-24.6809 139.769,-29.5146 150.154,-31.6153 149.197,-24.6809"/>
</g>
</g>
</svg>
