<?xml version="1.0" encoding="UTF-8" standalone="no"?>
<!DOCTYPE svg PUBLIC "-//W3C//DTD SVG 1.1//EN"
 "http://www.w3.org/Graphics/SVG/1.1/DTD/svg11.dtd">
<!-- Generated by graphviz version 2.36.0 (20140111.2315)
 -->
<!-- Title: model.TurtleSingle.getCoordinates Pages: 1 -->
<svg width="584pt" height="136pt"
 viewBox="0.00 0.00 584.00 136.00" xmlns="http://www.w3.org/2000/svg" xmlns:xlink="http://www.w3.org/1999/xlink">
<g id="graph0" class="graph" transform="scale(1 1) rotate(0) translate(4 132)">
<title>model.TurtleSingle.getCoordinates</title>
<polygon fill="white" stroke="none" points="-4,4 -4,-132 580,-132 580,4 -4,4"/>
<!-- Node1 -->
<g id="node1" class="node"><title>Node1</title>
<polygon fill="#bfbfbf" stroke="black" points="0.5,-54.5 0.5,-73.5 181.5,-73.5 181.5,-54.5 0.5,-54.5"/>
<text text-anchor="middle" x="91" y="-61.5" font-family="Helvetica,sans-Serif" font-size="10.00">model.TurtleSingle.getCoordinates</text>
</g>
<!-- Node2 -->
<g id="node2" class="node"><title>Node2</title>
<g id="a_node2"><a xlink:href="../../d9/dea/classmodel_1_1_turtle_multiple.html#a8a11dcf391169f97a7b889b9d6d59fd2" target="_top" xlink:title="model.TurtleMultiple.get\lCoordinates">
<polygon fill="white" stroke="black" points="224.5,-98 224.5,-128 355.5,-128 355.5,-98 224.5,-98"/>
<text text-anchor="start" x="232.5" y="-116" font-family="Helvetica,sans-Serif" font-size="10.00">model.TurtleMultiple.get</text>
<text text-anchor="middle" x="290" y="-105" font-family="Helvetica,sans-Serif" font-size="10.00">Coordinates</text>
</a>
</g>
</g>
<!-- Node1&#45;&gt;Node2 -->
<g id="edge1" class="edge"><title>Node1&#45;&gt;Node2</title>
<path fill="none" stroke="midnightblue" d="M140.302,-76.0142C166.92,-82.635 200.214,-90.9161 228.545,-97.963"/>
<polygon fill="midnightblue" stroke="midnightblue" points="141,-72.5813 130.451,-73.564 139.311,-79.3744 141,-72.5813"/>
</g>
<!-- Node4 -->
<g id="node4" class="node"><title>Node4</title>
<g id="a_node4"><a xlink:href="../../da/d88/classmodel_1_1_turtle_single.html#afd2d49972b498f78ddb54fab9e70f221" target="_top" xlink:title="model.TurtleSingle.moveTo\lPosition">
<polygon fill="white" stroke="black" points="218,-49 218,-79 362,-79 362,-49 218,-49"/>
<text text-anchor="start" x="226" y="-67" font-family="Helvetica,sans-Serif" font-size="10.00">model.TurtleSingle.moveTo</text>
<text text-anchor="middle" x="290" y="-56" font-family="Helvetica,sans-Serif" font-size="10.00">Position</text>
</a>
</g>
</g>
<!-- Node1&#45;&gt;Node4 -->
<g id="edge3" class="edge"><title>Node1&#45;&gt;Node4</title>
<path fill="none" stroke="midnightblue" d="M191.596,-64C200.49,-64 209.372,-64 217.952,-64"/>
<polygon fill="midnightblue" stroke="midnightblue" points="191.565,-60.5001 181.565,-64 191.565,-67.5001 191.565,-60.5001"/>
</g>
<!-- Node6 -->
<g id="node6" class="node"><title>Node6</title>
<g id="a_node6"><a xlink:href="../../db/dce/classmodel_1_1_turtle_update.html#a483f6cdd16cedb0e3a05492ddf7fe709" target="_top" xlink:title="model.TurtleUpdate.Turtle\lUpdate">
<polygon fill="white" stroke="black" points="220.5,-0 220.5,-30 359.5,-30 359.5,-0 220.5,-0"/>
<text text-anchor="start" x="228.5" y="-18" font-family="Helvetica,sans-Serif" font-size="10.00">model.TurtleUpdate.Turtle</text>
<text text-anchor="middle" x="290" y="-7" font-family="Helvetica,sans-Serif" font-size="10.00">Update</text>
</a>
</g>
</g>
<!-- Node1&#45;&gt;Node6 -->
<g id="edge5" class="edge"><title>Node1&#45;&gt;Node6</title>
<path fill="none" stroke="midnightblue" d="M140.302,-51.9858C166.92,-45.365 200.214,-37.0839 228.545,-30.037"/>
<polygon fill="midnightblue" stroke="midnightblue" points="139.311,-48.6256 130.451,-54.436 141,-55.4187 139.311,-48.6256"/>
</g>
<!-- Node3 -->
<g id="node3" class="node"><title>Node3</title>
<g id="a_node3"><a xlink:href="../../d5/dc1/classparser_1_1commands_1_1_parser_test.html#a6a3cc2c0d6ca8b502de3cad94a6ad0a5" target="_top" xlink:title="parser.commands.ParserTest.test\lParse">
<polygon fill="white" stroke="black" points="398.5,-98 398.5,-128 575.5,-128 575.5,-98 398.5,-98"/>
<text text-anchor="start" x="406.5" y="-116" font-family="Helvetica,sans-Serif" font-size="10.00">parser.commands.ParserTest.test</text>
<text text-anchor="middle" x="487" y="-105" font-family="Helvetica,sans-Serif" font-size="10.00">Parse</text>
</a>
</g>
</g>
<!-- Node2&#45;&gt;Node3 -->
<g id="edge2" class="edge"><title>Node2&#45;&gt;Node3</title>
<path fill="none" stroke="midnightblue" d="M365.722,-113C376.356,-113 387.373,-113 398.228,-113"/>
<polygon fill="midnightblue" stroke="midnightblue" points="365.661,-109.5 355.661,-113 365.661,-116.5 365.661,-109.5"/>
</g>
<!-- Node5 -->
<g id="node5" class="node"><title>Node5</title>
<g id="a_node5"><a xlink:href="../../d9/dea/classmodel_1_1_turtle_multiple.html#ab96e6d9114df066c4a1a5fc670742abb" target="_top" xlink:title="model.TurtleMultiple.move\lToPosition">
<polygon fill="white" stroke="black" points="416,-49 416,-79 558,-79 558,-49 416,-49"/>
<text text-anchor="start" x="424" y="-67" font-family="Helvetica,sans-Serif" font-size="10.00">model.TurtleMultiple.move</text>
<text text-anchor="middle" x="487" y="-56" font-family="Helvetica,sans-Serif" font-size="10.00">ToPosition</text>
</a>
</g>
</g>
<!-- Node4&#45;&gt;Node5 -->
<g id="edge4" class="edge"><title>Node4&#45;&gt;Node5</title>
<path fill="none" stroke="midnightblue" d="M372.612,-64C387.015,-64 401.893,-64 415.943,-64"/>
<polygon fill="midnightblue" stroke="midnightblue" points="372.227,-60.5001 362.227,-64 372.227,-67.5001 372.227,-60.5001"/>
</g>
</g>
</svg>
