<?xml version="1.0" encoding="UTF-8" standalone="no"?>
<!DOCTYPE svg PUBLIC "-//W3C//DTD SVG 1.1//EN"
 "http://www.w3.org/Graphics/SVG/1.1/DTD/svg11.dtd">
<!-- Generated by graphviz version 2.36.0 (20140111.2315)
 -->
<!-- Title: model.TurtleSingle.setHeading Pages: 1 -->
<svg width="532pt" height="82pt"
 viewBox="0.00 0.00 532.00 82.00" xmlns="http://www.w3.org/2000/svg" xmlns:xlink="http://www.w3.org/1999/xlink">
<g id="graph0" class="graph" transform="scale(1 1) rotate(0) translate(4 78)">
<title>model.TurtleSingle.setHeading</title>
<polygon fill="white" stroke="none" points="-4,4 -4,-78 528,-78 528,4 -4,4"/>
<!-- Node1 -->
<g id="node1" class="node"><title>Node1</title>
<polygon fill="#bfbfbf" stroke="black" points="0,-27.5 0,-46.5 162,-46.5 162,-27.5 0,-27.5"/>
<text text-anchor="middle" x="81" y="-34.5" font-family="Helvetica,sans-Serif" font-size="10.00">model.TurtleSingle.setHeading</text>
</g>
<!-- Node2 -->
<g id="node2" class="node"><title>Node2</title>
<g id="a_node2"><a xlink:href="../../d9/dea/classmodel_1_1_turtle_multiple.html#af499d8a2611dcbab8cfc5274395fd043" target="_top" xlink:title="model.TurtleMultiple.set\lHeading">
<polygon fill="white" stroke="black" points="213,-44 213,-74 343,-74 343,-44 213,-44"/>
<text text-anchor="start" x="221" y="-62" font-family="Helvetica,sans-Serif" font-size="10.00">model.TurtleMultiple.set</text>
<text text-anchor="middle" x="278" y="-51" font-family="Helvetica,sans-Serif" font-size="10.00">Heading</text>
</a>
</g>
</g>
<!-- Node1&#45;&gt;Node2 -->
<g id="edge1" class="edge"><title>Node1&#45;&gt;Node2</title>
<path fill="none" stroke="midnightblue" d="M172.134,-47.169C185.904,-48.7225 199.872,-50.2983 212.929,-51.7714"/>
<polygon fill="midnightblue" stroke="midnightblue" points="172.487,-43.6867 162.158,-46.0435 171.703,-50.6426 172.487,-43.6867"/>
</g>
<!-- Node3 -->
<g id="node3" class="node"><title>Node3</title>
<g id="a_node3"><a xlink:href="../../da/d88/classmodel_1_1_turtle_single.html#a6ad1aa6c71c5e1ba0f347f27941cc276" target="_top" xlink:title="model.TurtleSingle.setTowards">
<polygon fill="white" stroke="black" points="198,-5.5 198,-24.5 358,-24.5 358,-5.5 198,-5.5"/>
<text text-anchor="middle" x="278" y="-12.5" font-family="Helvetica,sans-Serif" font-size="10.00">model.TurtleSingle.setTowards</text>
</a>
</g>
</g>
<!-- Node1&#45;&gt;Node3 -->
<g id="edge2" class="edge"><title>Node1&#45;&gt;Node3</title>
<path fill="none" stroke="midnightblue" d="M172.152,-26.829C180.708,-25.8637 189.34,-24.8898 197.783,-23.9373"/>
<polygon fill="midnightblue" stroke="midnightblue" points="171.703,-23.3574 162.158,-27.9565 172.487,-30.3133 171.703,-23.3574"/>
</g>
<!-- Node4 -->
<g id="node4" class="node"><title>Node4</title>
<g id="a_node4"><a xlink:href="../../d9/dea/classmodel_1_1_turtle_multiple.html#a03519dd8e6614f4404c6dca3160c9f65" target="_top" xlink:title="model.TurtleMultiple.set\lTowards">
<polygon fill="white" stroke="black" points="394,-0 394,-30 524,-30 524,-0 394,-0"/>
<text text-anchor="start" x="402" y="-18" font-family="Helvetica,sans-Serif" font-size="10.00">model.TurtleMultiple.set</text>
<text text-anchor="middle" x="459" y="-7" font-family="Helvetica,sans-Serif" font-size="10.00">Towards</text>
</a>
</g>
</g>
<!-- Node3&#45;&gt;Node4 -->
<g id="edge3" class="edge"><title>Node3&#45;&gt;Node4</title>
<path fill="none" stroke="midnightblue" d="M368.189,-15C376.858,-15 385.531,-15 393.882,-15"/>
<polygon fill="midnightblue" stroke="midnightblue" points="368.033,-11.5001 358.033,-15 368.033,-18.5001 368.033,-11.5001"/>
</g>
</g>
</svg>
