<?xml version="1.0" encoding="UTF-8" standalone="no"?>
<!DOCTYPE svg PUBLIC "-//W3C//DTD SVG 1.1//EN"
 "http://www.w3.org/Graphics/SVG/1.1/DTD/svg11.dtd">
<!-- Generated by graphviz version 2.36.0 (20140111.2315)
 -->
<!-- Title: model.TurtleSingle.getInactive Pages: 1 -->
<svg width="344pt" height="87pt"
 viewBox="0.00 0.00 344.00 87.00" xmlns="http://www.w3.org/2000/svg" xmlns:xlink="http://www.w3.org/1999/xlink">
<g id="graph0" class="graph" transform="scale(1 1) rotate(0) translate(4 83)">
<title>model.TurtleSingle.getInactive</title>
<polygon fill="white" stroke="none" points="-4,4 -4,-83 340,-83 340,4 -4,4"/>
<!-- Node1 -->
<g id="node1" class="node"><title>Node1</title>
<polygon fill="#bfbfbf" stroke="black" points="0,-29.5 0,-48.5 160,-48.5 160,-29.5 0,-29.5"/>
<text text-anchor="middle" x="80" y="-36.5" font-family="Helvetica,sans-Serif" font-size="10.00">model.TurtleSingle.getInactive</text>
</g>
<!-- Node2 -->
<g id="node2" class="node"><title>Node2</title>
<g id="a_node2"><a xlink:href="../../d9/dea/classmodel_1_1_turtle_multiple.html#a1b552cd6b9a677de2a097b0d20bd0cf5" target="_top" xlink:title="model.TurtleMultiple.get\lInactive">
<polygon fill="white" stroke="black" points="200.5,-49 200.5,-79 331.5,-79 331.5,-49 200.5,-49"/>
<text text-anchor="start" x="208.5" y="-67" font-family="Helvetica,sans-Serif" font-size="10.00">model.TurtleMultiple.get</text>
<text text-anchor="middle" x="266" y="-56" font-family="Helvetica,sans-Serif" font-size="10.00">Inactive</text>
</a>
</g>
</g>
<!-- Node1&#45;&gt;Node2 -->
<g id="edge1" class="edge"><title>Node1&#45;&gt;Node2</title>
<path fill="none" stroke="midnightblue" d="M161.028,-49.8734C174.135,-51.6542 187.571,-53.4798 200.249,-55.2023"/>
<polygon fill="midnightblue" stroke="midnightblue" points="161.468,-46.401 151.087,-48.5227 160.525,-53.3373 161.468,-46.401"/>
</g>
<!-- Node3 -->
<g id="node3" class="node"><title>Node3</title>
<g id="a_node3"><a xlink:href="../../db/dce/classmodel_1_1_turtle_update.html#a483f6cdd16cedb0e3a05492ddf7fe709" target="_top" xlink:title="model.TurtleUpdate.Turtle\lUpdate">
<polygon fill="white" stroke="black" points="196.5,-0 196.5,-30 335.5,-30 335.5,-0 196.5,-0"/>
<text text-anchor="start" x="204.5" y="-18" font-family="Helvetica,sans-Serif" font-size="10.00">model.TurtleUpdate.Turtle</text>
<text text-anchor="middle" x="266" y="-7" font-family="Helvetica,sans-Serif" font-size="10.00">Update</text>
</a>
</g>
</g>
<!-- Node1&#45;&gt;Node3 -->
<g id="edge2" class="edge"><title>Node1&#45;&gt;Node3</title>
<path fill="none" stroke="midnightblue" d="M164.207,-28.1469C174.939,-26.7471 185.833,-25.3262 196.296,-23.9614"/>
<polygon fill="midnightblue" stroke="midnightblue" points="163.449,-24.716 153.986,-29.4801 164.355,-31.6572 163.449,-24.716"/>
</g>
</g>
</svg>
