<?xml version="1.0" encoding="UTF-8" standalone="no"?>
<!DOCTYPE svg PUBLIC "-//W3C//DTD SVG 1.1//EN"
 "http://www.w3.org/Graphics/SVG/1.1/DTD/svg11.dtd">
<!-- Generated by graphviz version 2.36.0 (20140111.2315)
 -->
<!-- Title: model.TurtleSingle.notifyObservers Pages: 1 -->
<!--zoomable 501 -->
<svg id="main" version="1.1" xmlns="http://www.w3.org/2000/svg" xmlns:xlink="http://www.w3.org/1999/xlink" xml:space="preserve" onload="init(evt)">
<style type="text/css"><![CDATA[
.edge:hover path { stroke: red; }
.edge:hover polygon { stroke: red; fill: red; }
]]></style>
<script type="text/javascript"><![CDATA[
var edges = document.getElementsByTagName('g');
if (edges && edges.length) {
  for (var i=0;i<edges.length;i++) {
    if (edges[i].id.substr(0,4)=='edge') {
      edges[i].setAttribute('class','edge');
    }
  }
}
]]></script>
        <defs>
                <circle id="rim" cx="0" cy="0" r="7"/>
                <circle id="rim2" cx="0" cy="0" r="3.5"/>
                <g id="zoomPlus">
                        <use xlink:href="#rim" fill="#404040">
                                <set attributeName="fill" to="#808080" begin="zoomplus.mouseover" end="zoomplus.mouseout"/>
                        </use>
                        <path d="M-4,0h8M0,-4v8" fill="none" stroke="white" stroke-width="1.5" pointer-events="none"/>
                </g>
                <g id="zoomMin">
                        <use xlink:href="#rim" fill="#404040">
                                <set attributeName="fill" to="#808080" begin="zoomminus.mouseover" end="zoomminus.mouseout"/>
                        </use>
                        <path d="M-4,0h8" fill="none" stroke="white" stroke-width="1.5" pointer-events="none"/>
                </g>
                <g id="dirArrow">
                        <path fill="none" stroke="white" stroke-width="1.5" d="M0,-3.0v7 M-2.5,-0.5L0,-3.0L2.5,-0.5"/>
                </g>
               <g id="resetDef">
                       <use xlink:href="#rim2" fill="#404040">
                               <set attributeName="fill" to="#808080" begin="reset.mouseover" end="reset.mouseout"/>
                       </use>
               </g>
        </defs>

<script type="text/javascript">
var viewWidth = 744;
var viewHeight = 501;
var sectionId = 'dynsection-28';
</script>
<script xlink:href="../../svgpan.js"/>
<svg id="graph" class="graph">
<g id="viewport">
<title>model.TurtleSingle.notifyObservers</title>
<polygon fill="white" stroke="none" points="-4,4 -4,-497 740,-497 740,4 -4,4"/>
<!-- Node1 -->
<g id="node1" class="node"><title>Node1</title>
<polygon fill="#bfbfbf" stroke="black" points="0,-223 0,-253 134,-253 134,-223 0,-223"/>
<text text-anchor="start" x="8" y="-241" font-family="Helvetica,sans-Serif" font-size="10.00">model.TurtleSingle.notify</text>
<text text-anchor="middle" x="67" y="-230" font-family="Helvetica,sans-Serif" font-size="10.00">Observers</text>
</g>
<!-- Node2 -->
<g id="node2" class="node"><title>Node2</title>
<g id="a_node2"><a xlink:href="../../da/d88/classmodel_1_1_turtle_single.html#a03df9ead84cfaec0317ddbcb8a3a465e" target="_top" xlink:title="model.TurtleSingle.addDegree">
<polygon fill="white" stroke="black" points="177.5,-468.5 177.5,-487.5 338.5,-487.5 338.5,-468.5 177.5,-468.5"/>
<text text-anchor="middle" x="258" y="-475.5" font-family="Helvetica,sans-Serif" font-size="10.00">model.TurtleSingle.addDegree</text>
</a>
</g>
</g>
<!-- Node1&#45;&gt;Node2 -->
<g id="edge1" class="edge"><title>Node1&#45;&gt;Node2</title>
<path fill="none" stroke="midnightblue" d="M72.7096,-263.047C82.5223,-308.156 109.478,-403.086 170,-454 177.554,-460.355 186.658,-465.035 196.093,-468.48"/>
<polygon fill="midnightblue" stroke="midnightblue" points="76.127,-262.289 70.6716,-253.207 69.2724,-263.709 76.127,-262.289"/>
</g>
<!-- Node4 -->
<g id="node4" class="node"><title>Node4</title>
<g id="a_node4"><a xlink:href="../../d9/dea/classmodel_1_1_turtle_multiple.html#aa13efbce628306faad5ba5a2ace04658" target="_top" xlink:title="model.TurtleMultiple.add\lNewTurtle">
<polygon fill="white" stroke="black" points="404.5,-392 404.5,-422 537.5,-422 537.5,-392 404.5,-392"/>
<text text-anchor="start" x="412.5" y="-410" font-family="Helvetica,sans-Serif" font-size="10.00">model.TurtleMultiple.add</text>
<text text-anchor="middle" x="471" y="-399" font-family="Helvetica,sans-Serif" font-size="10.00">NewTurtle</text>
</a>
</g>
</g>
<!-- Node1&#45;&gt;Node4 -->
<g id="edge3" class="edge"><title>Node1&#45;&gt;Node4</title>
<path fill="none" stroke="midnightblue" d="M73.4199,-263.072C83.9009,-304.603 111.29,-386.51 170,-421 251.596,-468.935 368.289,-441.862 429.298,-422.046"/>
<polygon fill="midnightblue" stroke="midnightblue" points="76.7892,-262.113 71.0577,-253.202 69.9815,-263.742 76.7892,-262.113"/>
</g>
<!-- Node6 -->
<g id="node6" class="node"><title>Node6</title>
<g id="a_node6"><a xlink:href="../../da/d88/classmodel_1_1_turtle_single.html#a59dc936f8072871643cc364db5c07a2f" target="_top" xlink:title="model.TurtleSingle.changePen">
<polygon fill="white" stroke="black" points="177.5,-392.5 177.5,-411.5 338.5,-411.5 338.5,-392.5 177.5,-392.5"/>
<text text-anchor="middle" x="258" y="-399.5" font-family="Helvetica,sans-Serif" font-size="10.00">model.TurtleSingle.changePen</text>
</a>
</g>
</g>
<!-- Node1&#45;&gt;Node6 -->
<g id="edge5" class="edge"><title>Node1&#45;&gt;Node6</title>
<path fill="none" stroke="midnightblue" d="M78.2536,-262.447C93.3335,-295.262 124.695,-352.903 170,-383 175.795,-386.85 182.241,-389.933 188.93,-392.401"/>
<polygon fill="midnightblue" stroke="midnightblue" points="81.3645,-260.829 74.0989,-253.118 74.97,-263.677 81.3645,-260.829"/>
</g>
<!-- Node7 -->
<g id="node7" class="node"><title>Node7</title>
<g id="a_node7"><a xlink:href="../../da/d88/classmodel_1_1_turtle_single.html#a794583d8965cd381fe88c8d729564317" target="_top" xlink:title="model.TurtleSingle.createPen">
<polygon fill="white" stroke="black" points="180,-354.5 180,-373.5 336,-373.5 336,-354.5 180,-354.5"/>
<text text-anchor="middle" x="258" y="-361.5" font-family="Helvetica,sans-Serif" font-size="10.00">model.TurtleSingle.createPen</text>
</a>
</g>
</g>
<!-- Node1&#45;&gt;Node7 -->
<g id="edge6" class="edge"><title>Node1&#45;&gt;Node7</title>
<path fill="none" stroke="midnightblue" d="M83.8775,-261.589C101.817,-286.32 133.339,-324.389 170,-345 176.873,-348.864 184.46,-351.943 192.205,-354.395"/>
<polygon fill="midnightblue" stroke="midnightblue" points="86.5314,-259.281 77.8984,-253.139 80.8171,-263.324 86.5314,-259.281"/>
</g>
<!-- Node8 -->
<g id="node8" class="node"><title>Node8</title>
<g id="a_node8"><a xlink:href="../../da/d88/classmodel_1_1_turtle_single.html#a9565e73b577c886fd15470d9b108a573" target="_top" xlink:title="model.TurtleSingle.moveDistance">
<polygon fill="white" stroke="black" points="170,-316.5 170,-335.5 346,-335.5 346,-316.5 170,-316.5"/>
<text text-anchor="middle" x="258" y="-323.5" font-family="Helvetica,sans-Serif" font-size="10.00">model.TurtleSingle.moveDistance</text>
</a>
</g>
</g>
<!-- Node1&#45;&gt;Node8 -->
<g id="edge8" class="edge"><title>Node1&#45;&gt;Node8</title>
<path fill="none" stroke="midnightblue" d="M94.26,-259.407C113.999,-274.493 142.296,-294.058 170,-306 179.963,-310.294 190.982,-313.736 201.735,-316.469"/>
<polygon fill="midnightblue" stroke="midnightblue" points="96.3922,-256.631 86.351,-253.251 92.0928,-262.156 96.3922,-256.631"/>
</g>
<!-- Node10 -->
<g id="node10" class="node"><title>Node10</title>
<g id="a_node10"><a xlink:href="../../da/d88/classmodel_1_1_turtle_single.html#afd2d49972b498f78ddb54fab9e70f221" target="_top" xlink:title="model.TurtleSingle.moveTo\lPosition">
<polygon fill="white" stroke="black" points="186,-267 186,-297 330,-297 330,-267 186,-267"/>
<text text-anchor="start" x="194" y="-285" font-family="Helvetica,sans-Serif" font-size="10.00">model.TurtleSingle.moveTo</text>
<text text-anchor="middle" x="258" y="-274" font-family="Helvetica,sans-Serif" font-size="10.00">Position</text>
</a>
</g>
</g>
<!-- Node1&#45;&gt;Node10 -->
<g id="edge10" class="edge"><title>Node1&#45;&gt;Node10</title>
<path fill="none" stroke="midnightblue" d="M142.642,-255.377C159.112,-259.211 176.425,-263.242 192.456,-266.974"/>
<polygon fill="midnightblue" stroke="midnightblue" points="143.048,-251.878 132.514,-253.019 141.46,-258.696 143.048,-251.878"/>
</g>
<!-- Node12 -->
<g id="node12" class="node"><title>Node12</title>
<g id="a_node12"><a xlink:href="../../da/d88/classmodel_1_1_turtle_single.html#a002b91f80521a6ca5cf20a62b7006c34" target="_top" xlink:title="model.TurtleSingle.setHeading">
<polygon fill="white" stroke="black" points="177,-228.5 177,-247.5 339,-247.5 339,-228.5 177,-228.5"/>
<text text-anchor="middle" x="258" y="-235.5" font-family="Helvetica,sans-Serif" font-size="10.00">model.TurtleSingle.setHeading</text>
</a>
</g>
</g>
<!-- Node1&#45;&gt;Node12 -->
<g id="edge12" class="edge"><title>Node1&#45;&gt;Node12</title>
<path fill="none" stroke="midnightblue" d="M144.296,-238C155.052,-238 166.135,-238 176.958,-238"/>
<polygon fill="midnightblue" stroke="midnightblue" points="144.103,-234.5 134.103,-238 144.103,-241.5 144.103,-234.5"/>
</g>
<!-- Node14 -->
<g id="node14" class="node"><title>Node14</title>
<g id="a_node14"><a xlink:href="../../da/d88/classmodel_1_1_turtle_single.html#a6ad1aa6c71c5e1ba0f347f27941cc276" target="_top" xlink:title="model.TurtleSingle.setTowards">
<polygon fill="white" stroke="black" points="391,-184.5 391,-203.5 551,-203.5 551,-184.5 391,-184.5"/>
<text text-anchor="middle" x="471" y="-191.5" font-family="Helvetica,sans-Serif" font-size="10.00">model.TurtleSingle.setTowards</text>
</a>
</g>
</g>
<!-- Node1&#45;&gt;Node14 -->
<g id="edge22" class="edge"><title>Node1&#45;&gt;Node14</title>
<path fill="none" stroke="midnightblue" d="M144.327,-222.916C152.966,-221.466 161.66,-220.121 170,-219 244.589,-208.971 330.187,-202.315 390.809,-198.41"/>
<polygon fill="midnightblue" stroke="midnightblue" points="143.492,-219.508 134.234,-224.658 144.683,-226.406 143.492,-219.508"/>
</g>
<!-- Node16 -->
<g id="node16" class="node"><title>Node16</title>
<g id="a_node16"><a xlink:href="../../da/d88/classmodel_1_1_turtle_single.html#ad42320c9d2e286e896e774af3e2cdb45" target="_top" xlink:title="model.TurtleSingle.setHidden">
<polygon fill="white" stroke="black" points="180,-152.5 180,-171.5 336,-171.5 336,-152.5 180,-152.5"/>
<text text-anchor="middle" x="258" y="-159.5" font-family="Helvetica,sans-Serif" font-size="10.00">model.TurtleSingle.setHidden</text>
</a>
</g>
</g>
<!-- Node1&#45;&gt;Node16 -->
<g id="edge16" class="edge"><title>Node1&#45;&gt;Node16</title>
<path fill="none" stroke="midnightblue" d="M103.181,-217.833C122.474,-207.349 147.07,-194.902 170,-186 184.606,-180.33 201.077,-175.427 215.726,-171.558"/>
<polygon fill="midnightblue" stroke="midnightblue" points="101.237,-214.908 94.1658,-222.798 104.614,-221.039 101.237,-214.908"/>
</g>
<!-- Node17 -->
<g id="node17" class="node"><title>Node17</title>
<g id="a_node17"><a xlink:href="../../da/d88/classmodel_1_1_turtle_single.html#a2bfc7a50935a0b27a7a8950f724c5564" target="_top" xlink:title="model.TurtleSingle.setInactive">
<polygon fill="white" stroke="black" points="178.5,-114.5 178.5,-133.5 337.5,-133.5 337.5,-114.5 178.5,-114.5"/>
<text text-anchor="middle" x="258" y="-121.5" font-family="Helvetica,sans-Serif" font-size="10.00">model.TurtleSingle.setInactive</text>
</a>
</g>
</g>
<!-- Node1&#45;&gt;Node17 -->
<g id="edge17" class="edge"><title>Node1&#45;&gt;Node17</title>
<path fill="none" stroke="midnightblue" d="M86.2519,-214.992C104.931,-193.062 135.974,-160.82 170,-143 177.396,-139.127 185.542,-136.042 193.794,-133.586"/>
<polygon fill="midnightblue" stroke="midnightblue" points="83.4262,-212.916 79.7178,-222.841 88.8059,-217.395 83.4262,-212.916"/>
</g>
<!-- Node19 -->
<g id="node19" class="node"><title>Node19</title>
<g id="a_node19"><a xlink:href="../../da/d88/classmodel_1_1_turtle_single.html#a6202e02f8520b8e7fa4810a53b457338" target="_top" xlink:title="model.TurtleSingle.setPenUp">
<polygon fill="white" stroke="black" points="181,-76.5 181,-95.5 335,-95.5 335,-76.5 181,-76.5"/>
<text text-anchor="middle" x="258" y="-83.5" font-family="Helvetica,sans-Serif" font-size="10.00">model.TurtleSingle.setPenUp</text>
</a>
</g>
</g>
<!-- Node1&#45;&gt;Node19 -->
<g id="edge19" class="edge"><title>Node1&#45;&gt;Node19</title>
<path fill="none" stroke="midnightblue" d="M79.7426,-213.766C95.771,-183.386 127.442,-132.026 170,-105 176.134,-101.105 182.948,-97.9993 189.986,-95.525"/>
<polygon fill="midnightblue" stroke="midnightblue" points="76.541,-212.339 75.0943,-222.835 82.7704,-215.532 76.541,-212.339"/>
</g>
<!-- Node20 -->
<g id="node20" class="node"><title>Node20</title>
<g id="a_node20"><a xlink:href="../../da/d88/classmodel_1_1_turtle_single.html#a2075a894a6c5c2d4ca15dbc3b39d48b6" target="_top" xlink:title="model.TurtleSingle.setShapeID">
<polygon fill="white" stroke="black" points="176.5,-38.5 176.5,-57.5 339.5,-57.5 339.5,-38.5 176.5,-38.5"/>
<text text-anchor="middle" x="258" y="-45.5" font-family="Helvetica,sans-Serif" font-size="10.00">model.TurtleSingle.setShapeID</text>
</a>
</g>
</g>
<!-- Node1&#45;&gt;Node20 -->
<g id="edge20" class="edge"><title>Node1&#45;&gt;Node20</title>
<path fill="none" stroke="midnightblue" d="M75.6683,-213.116C88.6606,-175.314 118.714,-103.923 170,-67 175.395,-63.1158 181.432,-60.0004 187.744,-57.5051"/>
<polygon fill="midnightblue" stroke="midnightblue" points="72.2724,-212.238 72.4527,-222.831 78.9178,-214.437 72.2724,-212.238"/>
</g>
<!-- Node21 -->
<g id="node21" class="node"><title>Node21</title>
<g id="a_node21"><a xlink:href="../../da/d88/classmodel_1_1_turtle_single.html#aebd5ac2c292e0bbbc086fd59182720ae" target="_top" xlink:title="model.TurtleSingle.setStamp">
<polygon fill="white" stroke="black" points="180.5,-0.5 180.5,-19.5 335.5,-19.5 335.5,-0.5 180.5,-0.5"/>
<text text-anchor="middle" x="258" y="-7.5" font-family="Helvetica,sans-Serif" font-size="10.00">model.TurtleSingle.setStamp</text>
</a>
</g>
</g>
<!-- Node1&#45;&gt;Node21 -->
<g id="edge21" class="edge"><title>Node1&#45;&gt;Node21</title>
<path fill="none" stroke="midnightblue" d="M72.8384,-212.83C82.7527,-168.413 109.724,-76.3519 170,-29 174.863,-25.1797 180.33,-22.0894 186.094,-19.5943"/>
<polygon fill="midnightblue" stroke="midnightblue" points="69.3762,-212.285 70.7247,-222.794 76.2238,-213.738 69.3762,-212.285"/>
</g>
<!-- Node3 -->
<g id="node3" class="node"><title>Node3</title>
<g id="a_node3"><a xlink:href="../../d9/dea/classmodel_1_1_turtle_multiple.html#a601396d8123665647fa640e0191ecbe0" target="_top" xlink:title="model.TurtleMultiple.add\lDegree">
<polygon fill="white" stroke="black" points="404.5,-463 404.5,-493 537.5,-493 537.5,-463 404.5,-463"/>
<text text-anchor="start" x="412.5" y="-481" font-family="Helvetica,sans-Serif" font-size="10.00">model.TurtleMultiple.add</text>
<text text-anchor="middle" x="471" y="-470" font-family="Helvetica,sans-Serif" font-size="10.00">Degree</text>
</a>
</g>
</g>
<!-- Node2&#45;&gt;Node3 -->
<g id="edge2" class="edge"><title>Node2&#45;&gt;Node3</title>
<path fill="none" stroke="midnightblue" d="M348.987,-478C367.527,-478 386.719,-478 404.208,-478"/>
<polygon fill="midnightblue" stroke="midnightblue" points="348.77,-474.5 338.77,-478 348.77,-481.5 348.77,-474.5"/>
</g>
<!-- Node5 -->
<g id="node5" class="node"><title>Node5</title>
<g id="a_node5"><a xlink:href="../../d9/dea/classmodel_1_1_turtle_multiple.html#a6068e4774b6c15ea02445e207fd22395" target="_top" xlink:title="model.TurtleMultiple.Turtle\lMultiple">
<polygon fill="white" stroke="black" points="596,-392 596,-422 736,-422 736,-392 596,-392"/>
<text text-anchor="start" x="604" y="-410" font-family="Helvetica,sans-Serif" font-size="10.00">model.TurtleMultiple.Turtle</text>
<text text-anchor="middle" x="666" y="-399" font-family="Helvetica,sans-Serif" font-size="10.00">Multiple</text>
</a>
</g>
</g>
<!-- Node4&#45;&gt;Node5 -->
<g id="edge4" class="edge"><title>Node4&#45;&gt;Node5</title>
<path fill="none" stroke="midnightblue" d="M547.893,-407C563.739,-407 580.364,-407 595.946,-407"/>
<polygon fill="midnightblue" stroke="midnightblue" points="547.61,-403.5 537.61,-407 547.61,-410.5 547.61,-403.5"/>
</g>
<!-- Node7&#45;&gt;Node4 -->
<g id="edge7" class="edge"><title>Node7&#45;&gt;Node4</title>
<path fill="none" stroke="midnightblue" d="M315.642,-375.543C343.023,-381.123 376.04,-387.852 404.499,-393.651"/>
<polygon fill="midnightblue" stroke="midnightblue" points="316.325,-372.111 305.828,-373.543 314.927,-378.97 316.325,-372.111"/>
</g>
<!-- Node9 -->
<g id="node9" class="node"><title>Node9</title>
<g id="a_node9"><a xlink:href="../../d9/dea/classmodel_1_1_turtle_multiple.html#a49086cf96575756ecc4a1070aef50aa7" target="_top" xlink:title="model.TurtleMultiple.move\lDistance">
<polygon fill="white" stroke="black" points="400,-321 400,-351 542,-351 542,-321 400,-321"/>
<text text-anchor="start" x="408" y="-339" font-family="Helvetica,sans-Serif" font-size="10.00">model.TurtleMultiple.move</text>
<text text-anchor="middle" x="471" y="-328" font-family="Helvetica,sans-Serif" font-size="10.00">Distance</text>
</a>
</g>
</g>
<!-- Node8&#45;&gt;Node9 -->
<g id="edge9" class="edge"><title>Node8&#45;&gt;Node9</title>
<path fill="none" stroke="midnightblue" d="M356.192,-330.606C370.928,-331.305 385.88,-332.013 399.891,-332.677"/>
<polygon fill="midnightblue" stroke="midnightblue" points="356.194,-327.103 346.04,-330.125 355.863,-334.095 356.194,-327.103"/>
</g>
<!-- Node11 -->
<g id="node11" class="node"><title>Node11</title>
<g id="a_node11"><a xlink:href="../../d9/dea/classmodel_1_1_turtle_multiple.html#ab96e6d9114df066c4a1a5fc670742abb" target="_top" xlink:title="model.TurtleMultiple.move\lToPosition">
<polygon fill="white" stroke="black" points="400,-272 400,-302 542,-302 542,-272 400,-272"/>
<text text-anchor="start" x="408" y="-290" font-family="Helvetica,sans-Serif" font-size="10.00">model.TurtleMultiple.move</text>
<text text-anchor="middle" x="471" y="-279" font-family="Helvetica,sans-Serif" font-size="10.00">ToPosition</text>
</a>
</g>
</g>
<!-- Node10&#45;&gt;Node11 -->
<g id="edge11" class="edge"><title>Node10&#45;&gt;Node11</title>
<path fill="none" stroke="midnightblue" d="M340.296,-283.926C359.952,-284.392 380.792,-284.886 399.884,-285.338"/>
<polygon fill="midnightblue" stroke="midnightblue" points="340.221,-280.424 330.141,-283.686 340.055,-287.422 340.221,-280.424"/>
</g>
<!-- Node13 -->
<g id="node13" class="node"><title>Node13</title>
<g id="a_node13"><a xlink:href="../../d9/dea/classmodel_1_1_turtle_multiple.html#af499d8a2611dcbab8cfc5274395fd043" target="_top" xlink:title="model.TurtleMultiple.set\lHeading">
<polygon fill="white" stroke="black" points="406,-223 406,-253 536,-253 536,-223 406,-223"/>
<text text-anchor="start" x="414" y="-241" font-family="Helvetica,sans-Serif" font-size="10.00">model.TurtleMultiple.set</text>
<text text-anchor="middle" x="471" y="-230" font-family="Helvetica,sans-Serif" font-size="10.00">Heading</text>
</a>
</g>
</g>
<!-- Node12&#45;&gt;Node13 -->
<g id="edge13" class="edge"><title>Node12&#45;&gt;Node13</title>
<path fill="none" stroke="midnightblue" d="M349.236,-238C368.238,-238 387.915,-238 405.73,-238"/>
<polygon fill="midnightblue" stroke="midnightblue" points="349.071,-234.5 339.071,-238 349.071,-241.5 349.071,-234.5"/>
</g>
<!-- Node12&#45;&gt;Node14 -->
<g id="edge14" class="edge"><title>Node12&#45;&gt;Node14</title>
<path fill="none" stroke="midnightblue" d="M314.627,-226.4C348.829,-219.268 392.114,-210.242 424.305,-203.529"/>
<polygon fill="midnightblue" stroke="midnightblue" points="313.859,-222.985 304.784,-228.453 315.288,-229.837 313.859,-222.985"/>
</g>
<!-- Node15 -->
<g id="node15" class="node"><title>Node15</title>
<g id="a_node15"><a xlink:href="../../d9/dea/classmodel_1_1_turtle_multiple.html#a03519dd8e6614f4404c6dca3160c9f65" target="_top" xlink:title="model.TurtleMultiple.set\lTowards">
<polygon fill="white" stroke="black" points="601,-179 601,-209 731,-209 731,-179 601,-179"/>
<text text-anchor="start" x="609" y="-197" font-family="Helvetica,sans-Serif" font-size="10.00">model.TurtleMultiple.set</text>
<text text-anchor="middle" x="666" y="-186" font-family="Helvetica,sans-Serif" font-size="10.00">Towards</text>
</a>
</g>
</g>
<!-- Node14&#45;&gt;Node15 -->
<g id="edge15" class="edge"><title>Node14&#45;&gt;Node15</title>
<path fill="none" stroke="midnightblue" d="M561.214,-194C574.567,-194 588.106,-194 600.802,-194"/>
<polygon fill="midnightblue" stroke="midnightblue" points="561.057,-190.5 551.057,-194 561.057,-197.5 561.057,-190.5"/>
</g>
<!-- Node18 -->
<g id="node18" class="node"><title>Node18</title>
<g id="a_node18"><a xlink:href="../../d5/d51/classparser_1_1commands_1_1_ask_with.html#ada3c73665fbd49550e041239bfee2bf5" target="_top" xlink:title="parser.commands.AskWith.create\lNewActiveStack">
<polygon fill="white" stroke="black" points="382,-109 382,-139 560,-139 560,-109 382,-109"/>
<text text-anchor="start" x="390" y="-127" font-family="Helvetica,sans-Serif" font-size="10.00">parser.commands.AskWith.create</text>
<text text-anchor="middle" x="471" y="-116" font-family="Helvetica,sans-Serif" font-size="10.00">NewActiveStack</text>
</a>
</g>
</g>
<!-- Node17&#45;&gt;Node18 -->
<g id="edge18" class="edge"><title>Node17&#45;&gt;Node18</title>
<path fill="none" stroke="midnightblue" d="M347.805,-124C359.047,-124 370.549,-124 381.783,-124"/>
<polygon fill="midnightblue" stroke="midnightblue" points="347.569,-120.5 337.569,-124 347.569,-127.5 347.569,-120.5"/>
</g>
</g>
</svg>
        <g id="navigator" transform="translate(0 0)" fill="#404254">
                <rect fill="#f2f5e9" fill-opacity="0.5" stroke="#606060" stroke-width=".5" x="0" y="0" width="60" height="60"/>
                <use id="zoomplus" xlink:href="#zoomPlus" x="17" y="9" onmousedown="handleZoom(evt,'in')"/>
                <use id="zoomminus" xlink:href="#zoomMin" x="42" y="9" onmousedown="handleZoom(evt,'out')"/>
                <use id="reset" xlink:href="#resetDef" x="30" y="36" onmousedown="handleReset()"/>
                <g id="arrowUp" xlink:href="#dirArrow" transform="translate(30 24)" onmousedown="handlePan(0,-1)">
                  <use xlink:href="#rim" fill="#404040">
                        <set attributeName="fill" to="#808080" begin="arrowUp.mouseover" end="arrowUp.mouseout"/>
                  </use>
                  <path fill="none" stroke="white" stroke-width="1.5" d="M0,-3.0v7 M-2.5,-0.5L0,-3.0L2.5,-0.5"/>
                </g>
                <g id="arrowRight" xlink:href="#dirArrow" transform="rotate(90) translate(36 -43)" onmousedown="handlePan(1,0)">
                  <use xlink:href="#rim" fill="#404040">
                        <set attributeName="fill" to="#808080" begin="arrowRight.mouseover" end="arrowRight.mouseout"/>
                  </use>
                  <path fill="none" stroke="white" stroke-width="1.5" d="M0,-3.0v7 M-2.5,-0.5L0,-3.0L2.5,-0.5"/>
                </g>
                <g id="arrowDown" xlink:href="#dirArrow" transform="rotate(180) translate(-30 -48)" onmousedown="handlePan(0,1)">
                  <use xlink:href="#rim" fill="#404040">
                        <set attributeName="fill" to="#808080" begin="arrowDown.mouseover" end="arrowDown.mouseout"/>
                  </use>
                  <path fill="none" stroke="white" stroke-width="1.5" d="M0,-3.0v7 M-2.5,-0.5L0,-3.0L2.5,-0.5"/>
                </g>
                <g id="arrowLeft" xlink:href="#dirArrow" transform="rotate(270) translate(-36 17)" onmousedown="handlePan(-1,0)">
                  <use xlink:href="#rim" fill="#404040">
                        <set attributeName="fill" to="#808080" begin="arrowLeft.mouseover" end="arrowLeft.mouseout"/>
                  </use>
                  <path fill="none" stroke="white" stroke-width="1.5" d="M0,-3.0v7 M-2.5,-0.5L0,-3.0L2.5,-0.5"/>
                </g>
        </g>
        <svg viewBox="0 0 15 15" width="100%" height="30px" preserveAspectRatio="xMaxYMin meet">
         <g id="arrow_out" transform="scale(0.3 0.3)">
          <a xlink:href="classmodel_1_1_turtle_single_a40853b6f8c9ba455489ad8ea9535e99d_icgraph_org.svg" target="_base">
           <rect id="button" ry="5" rx="5" y="6" x="6" height="38" width="38"
                fill="#f2f5e9" fill-opacity="0.5" stroke="#606060" stroke-width="1.0"/>
           <path id="arrow"
             d="M 11.500037,31.436501 C 11.940474,20.09759 22.043105,11.32322 32.158766,21.979434 L 37.068811,17.246167 C 37.068811,17.246167 37.088388,32 37.088388,32 L 22.160133,31.978069 C 22.160133,31.978069 26.997745,27.140456 26.997745,27.140456 C 18.528582,18.264221 13.291696,25.230495 11.500037,31.436501 z"
             style="fill:#404040;"/>
          </a>
         </g>
        </svg>
</svg>
