<?xml version="1.0" encoding="UTF-8" standalone="no"?>
<!DOCTYPE svg PUBLIC "-//W3C//DTD SVG 1.1//EN"
 "http://www.w3.org/Graphics/SVG/1.1/DTD/svg11.dtd">
<!-- Generated by graphviz version 2.36.0 (20140111.2315)
 -->
<!-- Title: model.TurtleSingle.getID Pages: 1 -->
<svg width="320pt" height="360pt"
 viewBox="0.00 0.00 320.00 360.00" xmlns="http://www.w3.org/2000/svg" xmlns:xlink="http://www.w3.org/1999/xlink">
<g id="graph0" class="graph" transform="scale(1 1) rotate(0) translate(4 356)">
<title>model.TurtleSingle.getID</title>
<polygon fill="white" stroke="none" points="-4,4 -4,-356 316,-356 316,4 -4,4"/>
<!-- Node1 -->
<g id="node1" class="node"><title>Node1</title>
<polygon fill="#bfbfbf" stroke="black" points="0.5,-176.5 0.5,-195.5 133.5,-195.5 133.5,-176.5 0.5,-176.5"/>
<text text-anchor="middle" x="67" y="-183.5" font-family="Helvetica,sans-Serif" font-size="10.00">model.TurtleSingle.getID</text>
</g>
<!-- Node2 -->
<g id="node2" class="node"><title>Node2</title>
<g id="a_node2"><a xlink:href="../../d9/dea/classmodel_1_1_turtle_multiple.html#a601396d8123665647fa640e0191ecbe0" target="_top" xlink:title="model.TurtleMultiple.add\lDegree">
<polygon fill="white" stroke="black" points="174.5,-322 174.5,-352 307.5,-352 307.5,-322 174.5,-322"/>
<text text-anchor="start" x="182.5" y="-340" font-family="Helvetica,sans-Serif" font-size="10.00">model.TurtleMultiple.add</text>
<text text-anchor="middle" x="241" y="-329" font-family="Helvetica,sans-Serif" font-size="10.00">Degree</text>
</a>
</g>
</g>
<!-- Node1&#45;&gt;Node2 -->
<g id="edge1" class="edge"><title>Node1&#45;&gt;Node2</title>
<path fill="none" stroke="midnightblue" d="M78.4881,-204.613C94.7358,-231.866 128.488,-282.574 170,-312 175.369,-315.806 181.377,-319.088 187.557,-321.903"/>
<polygon fill="midnightblue" stroke="midnightblue" points="81.3663,-202.601 73.3121,-195.717 75.3158,-206.121 81.3663,-202.601"/>
</g>
<!-- Node3 -->
<g id="node3" class="node"><title>Node3</title>
<g id="a_node3"><a xlink:href="../../da/d88/classmodel_1_1_turtle_single.html#adfea0800839219ac0d06f804c3898e5a" target="_top" xlink:title="model.TurtleSingle.equals">
<polygon fill="white" stroke="black" points="171.5,-283.5 171.5,-302.5 310.5,-302.5 310.5,-283.5 171.5,-283.5"/>
<text text-anchor="middle" x="241" y="-290.5" font-family="Helvetica,sans-Serif" font-size="10.00">model.TurtleSingle.equals</text>
</a>
</g>
</g>
<!-- Node1&#45;&gt;Node3 -->
<g id="edge2" class="edge"><title>Node1&#45;&gt;Node3</title>
<path fill="none" stroke="midnightblue" d="M83.0338,-202.935C101.577,-222.801 134.966,-255.383 170,-274 177.228,-277.841 185.298,-280.956 193.317,-283.467"/>
<polygon fill="midnightblue" stroke="midnightblue" points="85.5813,-200.534 76.2495,-195.517 80.4159,-205.258 85.5813,-200.534"/>
</g>
<!-- Node4 -->
<g id="node4" class="node"><title>Node4</title>
<g id="a_node4"><a xlink:href="../../d9/dea/classmodel_1_1_turtle_multiple.html#a5ecb8f7b991e0ca90602465a940f0f38" target="_top" xlink:title="model.TurtleMultiple.getID">
<polygon fill="white" stroke="black" points="171,-245.5 171,-264.5 311,-264.5 311,-245.5 171,-245.5"/>
<text text-anchor="middle" x="241" y="-252.5" font-family="Helvetica,sans-Serif" font-size="10.00">model.TurtleMultiple.getID</text>
</a>
</g>
</g>
<!-- Node1&#45;&gt;Node4 -->
<g id="edge3" class="edge"><title>Node1&#45;&gt;Node4</title>
<path fill="none" stroke="midnightblue" d="M94.5962,-200.314C114.866,-210.842 143.682,-225.002 170,-235 180.279,-238.905 191.656,-242.466 202.198,-245.465"/>
<polygon fill="midnightblue" stroke="midnightblue" points="96.133,-197.168 85.6524,-195.616 92.8777,-203.365 96.133,-197.168"/>
</g>
<!-- Node5 -->
<g id="node5" class="node"><title>Node5</title>
<g id="a_node5"><a xlink:href="../../d9/dea/classmodel_1_1_turtle_multiple.html#a49086cf96575756ecc4a1070aef50aa7" target="_top" xlink:title="model.TurtleMultiple.move\lDistance">
<polygon fill="white" stroke="black" points="170,-196 170,-226 312,-226 312,-196 170,-196"/>
<text text-anchor="start" x="178" y="-214" font-family="Helvetica,sans-Serif" font-size="10.00">model.TurtleMultiple.move</text>
<text text-anchor="middle" x="241" y="-203" font-family="Helvetica,sans-Serif" font-size="10.00">Distance</text>
</a>
</g>
</g>
<!-- Node1&#45;&gt;Node5 -->
<g id="edge4" class="edge"><title>Node1&#45;&gt;Node5</title>
<path fill="none" stroke="midnightblue" d="M143.639,-196.994C152.336,-198.258 161.176,-199.543 169.798,-200.796"/>
<polygon fill="midnightblue" stroke="midnightblue" points="143.916,-193.498 133.516,-195.523 142.909,-200.425 143.916,-193.498"/>
</g>
<!-- Node6 -->
<g id="node6" class="node"><title>Node6</title>
<g id="a_node6"><a xlink:href="../../d9/dea/classmodel_1_1_turtle_multiple.html#ab96e6d9114df066c4a1a5fc670742abb" target="_top" xlink:title="model.TurtleMultiple.move\lToPosition">
<polygon fill="white" stroke="black" points="170,-147 170,-177 312,-177 312,-147 170,-147"/>
<text text-anchor="start" x="178" y="-165" font-family="Helvetica,sans-Serif" font-size="10.00">model.TurtleMultiple.move</text>
<text text-anchor="middle" x="241" y="-154" font-family="Helvetica,sans-Serif" font-size="10.00">ToPosition</text>
</a>
</g>
</g>
<!-- Node1&#45;&gt;Node6 -->
<g id="edge5" class="edge"><title>Node1&#45;&gt;Node6</title>
<path fill="none" stroke="midnightblue" d="M143.639,-175.446C152.336,-174.232 161.176,-172.999 169.798,-171.796"/>
<polygon fill="midnightblue" stroke="midnightblue" points="142.937,-172.01 133.516,-176.858 143.904,-178.943 142.937,-172.01"/>
</g>
<!-- Node7 -->
<g id="node7" class="node"><title>Node7</title>
<g id="a_node7"><a xlink:href="../../d9/dea/classmodel_1_1_turtle_multiple.html#af499d8a2611dcbab8cfc5274395fd043" target="_top" xlink:title="model.TurtleMultiple.set\lHeading">
<polygon fill="white" stroke="black" points="176,-98 176,-128 306,-128 306,-98 176,-98"/>
<text text-anchor="start" x="184" y="-116" font-family="Helvetica,sans-Serif" font-size="10.00">model.TurtleMultiple.set</text>
<text text-anchor="middle" x="241" y="-105" font-family="Helvetica,sans-Serif" font-size="10.00">Heading</text>
</a>
</g>
</g>
<!-- Node1&#45;&gt;Node7 -->
<g id="edge6" class="edge"><title>Node1&#45;&gt;Node7</title>
<path fill="none" stroke="midnightblue" d="M95.9382,-171.957C116.255,-161.965 144.544,-148.507 170,-138 178.231,-134.603 187.11,-131.221 195.69,-128.093"/>
<polygon fill="midnightblue" stroke="midnightblue" points="94.3374,-168.844 86.9285,-176.417 97.4432,-175.117 94.3374,-168.844"/>
</g>
<!-- Node8 -->
<g id="node8" class="node"><title>Node8</title>
<g id="a_node8"><a xlink:href="../../d9/dea/classmodel_1_1_turtle_multiple.html#a03519dd8e6614f4404c6dca3160c9f65" target="_top" xlink:title="model.TurtleMultiple.set\lTowards">
<polygon fill="white" stroke="black" points="176,-49 176,-79 306,-79 306,-49 176,-49"/>
<text text-anchor="start" x="184" y="-67" font-family="Helvetica,sans-Serif" font-size="10.00">model.TurtleMultiple.set</text>
<text text-anchor="middle" x="241" y="-56" font-family="Helvetica,sans-Serif" font-size="10.00">Towards</text>
</a>
</g>
</g>
<!-- Node1&#45;&gt;Node8 -->
<g id="edge7" class="edge"><title>Node1&#45;&gt;Node8</title>
<path fill="none" stroke="midnightblue" d="M82.1292,-168.693C100.406,-147.306 134.172,-111.048 170,-89 176.045,-85.2802 182.723,-82.0049 189.484,-79.1546"/>
<polygon fill="midnightblue" stroke="midnightblue" points="79.4465,-166.445 75.7013,-176.356 84.8096,-170.944 79.4465,-166.445"/>
</g>
<!-- Node9 -->
<g id="node9" class="node"><title>Node9</title>
<g id="a_node9"><a xlink:href="../../db/dce/classmodel_1_1_turtle_update.html#a483f6cdd16cedb0e3a05492ddf7fe709" target="_top" xlink:title="model.TurtleUpdate.Turtle\lUpdate">
<polygon fill="white" stroke="black" points="171.5,-0 171.5,-30 310.5,-30 310.5,-0 171.5,-0"/>
<text text-anchor="start" x="179.5" y="-18" font-family="Helvetica,sans-Serif" font-size="10.00">model.TurtleUpdate.Turtle</text>
<text text-anchor="middle" x="241" y="-7" font-family="Helvetica,sans-Serif" font-size="10.00">Update</text>
</a>
</g>
</g>
<!-- Node1&#45;&gt;Node9 -->
<g id="edge8" class="edge"><title>Node1&#45;&gt;Node9</title>
<path fill="none" stroke="midnightblue" d="M76.46,-167.037C91.1633,-136.141 124.291,-74.8928 170,-40 175.026,-36.1632 180.693,-32.8792 186.571,-30.0771"/>
<polygon fill="midnightblue" stroke="midnightblue" points="73.2112,-165.724 72.1885,-176.269 79.5641,-168.663 73.2112,-165.724"/>
</g>
</g>
</svg>
