<?xml version="1.0" encoding="UTF-8" standalone="no"?>
<!DOCTYPE svg PUBLIC "-//W3C//DTD SVG 1.1//EN"
 "http://www.w3.org/Graphics/SVG/1.1/DTD/svg11.dtd">
<!-- Generated by graphviz version 2.36.0 (20140111.2315)
 -->
<!-- Title: model.TurtleSingle.moveDistance Pages: 1 -->
<svg width="624pt" height="202pt"
 viewBox="0.00 0.00 624.00 202.00" xmlns="http://www.w3.org/2000/svg" xmlns:xlink="http://www.w3.org/1999/xlink">
<g id="graph0" class="graph" transform="scale(1 1) rotate(0) translate(4 198)">
<title>model.TurtleSingle.moveDistance</title>
<polygon fill="white" stroke="none" points="-4,4 -4,-198 620,-198 620,4 -4,4"/>
<!-- Node1 -->
<g id="node1" class="node"><title>Node1</title>
<polygon fill="#bfbfbf" stroke="black" points="0,-76.5 0,-95.5 176,-95.5 176,-76.5 0,-76.5"/>
<text text-anchor="middle" x="88" y="-83.5" font-family="Helvetica,sans-Serif" font-size="10.00">model.TurtleSingle.moveDistance</text>
</g>
<!-- Node2 -->
<g id="node2" class="node"><title>Node2</title>
<g id="a_node2"><a xlink:href="../../d8/d6a/classmodel_1_1_coordinates.html#adbb734c55a78cb2067e20a8d4b108735" target="_top" xlink:title="model.Coordinates.addCoordinates">
<polygon fill="white" stroke="black" points="212,-136.5 212,-155.5 398,-155.5 398,-136.5 212,-136.5"/>
<text text-anchor="middle" x="305" y="-143.5" font-family="Helvetica,sans-Serif" font-size="10.00">model.Coordinates.addCoordinates</text>
</a>
</g>
</g>
<!-- Node1&#45;&gt;Node2 -->
<g id="edge1" class="edge"><title>Node1&#45;&gt;Node2</title>
<path fill="none" stroke="midnightblue" d="M114.646,-95.5349C139.343,-104.481 177.873,-117.823 212,-127 221.686,-129.605 232.028,-132.055 242.151,-134.274"/>
<polygon fill="midnightblue" stroke="midnightblue" points="241.659,-137.747 252.17,-136.413 243.121,-130.902 241.659,-137.747"/>
</g>
<!-- Node5 -->
<g id="node5" class="node"><title>Node5</title>
<g id="a_node5"><a xlink:href="../../da/d88/classmodel_1_1_turtle_single.html#a77c4ca1d42e2a0ea36b7a8e33406f9d9" target="_top" xlink:title="model.TurtleSingle.change">
<polygon fill="white" stroke="black" points="233.5,-98.5 233.5,-117.5 376.5,-117.5 376.5,-98.5 233.5,-98.5"/>
<text text-anchor="middle" x="305" y="-105.5" font-family="Helvetica,sans-Serif" font-size="10.00">model.TurtleSingle.change</text>
</a>
</g>
</g>
<!-- Node1&#45;&gt;Node5 -->
<g id="edge4" class="edge"><title>Node1&#45;&gt;Node5</title>
<path fill="none" stroke="midnightblue" d="M176.139,-94.9165C191.703,-96.5091 207.858,-98.1622 223.234,-99.7356"/>
<polygon fill="midnightblue" stroke="midnightblue" points="222.907,-103.22 233.212,-100.757 223.62,-96.2567 222.907,-103.22"/>
</g>
<!-- Node7 -->
<g id="node7" class="node"><title>Node7</title>
<g id="a_node7"><a xlink:href="../../da/d88/classmodel_1_1_turtle_single.html#ae716e6ffff8b2fdc3e91b2aac113d361" target="_top" xlink:title="model.TurtleSingle.distance\lToCoordinates">
<polygon fill="white" stroke="black" points="231,-49 231,-79 379,-79 379,-49 231,-49"/>
<text text-anchor="start" x="239" y="-67" font-family="Helvetica,sans-Serif" font-size="10.00">model.TurtleSingle.distance</text>
<text text-anchor="middle" x="305" y="-56" font-family="Helvetica,sans-Serif" font-size="10.00">ToCoordinates</text>
</a>
</g>
</g>
<!-- Node1&#45;&gt;Node7 -->
<g id="edge6" class="edge"><title>Node1&#45;&gt;Node7</title>
<path fill="none" stroke="midnightblue" d="M176.139,-77.0835C190.893,-75.5738 206.178,-74.0097 220.827,-72.5108"/>
<polygon fill="midnightblue" stroke="midnightblue" points="221.26,-75.9847 230.852,-71.4849 220.548,-69.0211 221.26,-75.9847"/>
</g>
<!-- Node10 -->
<g id="node10" class="node"><title>Node10</title>
<g id="a_node10"><a xlink:href="../../da/d88/classmodel_1_1_turtle_single.html#a40853b6f8c9ba455489ad8ea9535e99d" target="_top" xlink:title="model.TurtleSingle.notify\lObservers">
<polygon fill="white" stroke="black" points="238,-0 238,-30 372,-30 372,-0 238,-0"/>
<text text-anchor="start" x="246" y="-18" font-family="Helvetica,sans-Serif" font-size="10.00">model.TurtleSingle.notify</text>
<text text-anchor="middle" x="305" y="-7" font-family="Helvetica,sans-Serif" font-size="10.00">Observers</text>
</a>
</g>
</g>
<!-- Node1&#45;&gt;Node10 -->
<g id="edge9" class="edge"><title>Node1&#45;&gt;Node10</title>
<path fill="none" stroke="midnightblue" d="M112.81,-76.3467C137.42,-66.5463 177.062,-51.2535 212,-40 219.616,-37.5468 227.637,-35.1286 235.637,-32.8197"/>
<polygon fill="midnightblue" stroke="midnightblue" points="236.693,-36.1586 245.358,-30.0625 234.782,-29.4242 236.693,-36.1586"/>
</g>
<!-- Node3 -->
<g id="node3" class="node"><title>Node3</title>
<g id="a_node3"><a xlink:href="../../d8/d6a/classmodel_1_1_coordinates.html#af4866826a0da36de7015ac63447db5b1" target="_top" xlink:title="model.Coordinates.getX">
<polygon fill="white" stroke="black" points="459,-174.5 459,-193.5 591,-193.5 591,-174.5 459,-174.5"/>
<text text-anchor="middle" x="525" y="-181.5" font-family="Helvetica,sans-Serif" font-size="10.00">model.Coordinates.getX</text>
</a>
</g>
</g>
<!-- Node2&#45;&gt;Node3 -->
<g id="edge2" class="edge"><title>Node2&#45;&gt;Node3</title>
<path fill="none" stroke="midnightblue" d="M360.729,-155.54C390.661,-160.757 427.922,-167.253 459.288,-172.72"/>
<polygon fill="midnightblue" stroke="midnightblue" points="458.796,-176.187 469.248,-174.456 459.998,-169.291 458.796,-176.187"/>
</g>
<!-- Node4 -->
<g id="node4" class="node"><title>Node4</title>
<g id="a_node4"><a xlink:href="../../d8/d6a/classmodel_1_1_coordinates.html#a52f6ed56424da9a52c598f9c94f2c8ff" target="_top" xlink:title="model.Coordinates.getY">
<polygon fill="white" stroke="black" points="459.5,-136.5 459.5,-155.5 590.5,-155.5 590.5,-136.5 459.5,-136.5"/>
<text text-anchor="middle" x="525" y="-143.5" font-family="Helvetica,sans-Serif" font-size="10.00">model.Coordinates.getY</text>
</a>
</g>
</g>
<!-- Node2&#45;&gt;Node4 -->
<g id="edge3" class="edge"><title>Node2&#45;&gt;Node4</title>
<path fill="none" stroke="midnightblue" d="M398.136,-146C415.169,-146 432.765,-146 449.206,-146"/>
<polygon fill="midnightblue" stroke="midnightblue" points="449.278,-149.5 459.278,-146 449.278,-142.5 449.278,-149.5"/>
</g>
<!-- Node6 -->
<g id="node6" class="node"><title>Node6</title>
<g id="a_node6"><a xlink:href="../../d8/d57/interfacemodel_1_1_turtle_single_changer.html#aff9d5c9b819900c5e85c5679c1de41cf" target="_top" xlink:title="model.TurtleSingleChanger.change">
<polygon fill="white" stroke="black" points="434,-98.5 434,-117.5 616,-117.5 616,-98.5 434,-98.5"/>
<text text-anchor="middle" x="525" y="-105.5" font-family="Helvetica,sans-Serif" font-size="10.00">model.TurtleSingleChanger.change</text>
</a>
</g>
</g>
<!-- Node5&#45;&gt;Node6 -->
<g id="edge5" class="edge"><title>Node5&#45;&gt;Node6</title>
<path fill="none" stroke="midnightblue" d="M376.778,-108C391.668,-108 407.648,-108 423.392,-108"/>
<polygon fill="midnightblue" stroke="midnightblue" points="423.691,-111.5 433.691,-108 423.691,-104.5 423.691,-111.5"/>
</g>
<!-- Node8 -->
<g id="node8" class="node"><title>Node8</title>
<g id="a_node8"><a xlink:href="../../de/dfa/classmodel_1_1_angle.html#aeb719c426d449f6d0e6b96bd887ea9bc" target="_top" xlink:title="model.Angle.getAngleValue\lInRadians">
<polygon fill="white" stroke="black" points="450.5,-49 450.5,-79 599.5,-79 599.5,-49 450.5,-49"/>
<text text-anchor="start" x="458.5" y="-67" font-family="Helvetica,sans-Serif" font-size="10.00">model.Angle.getAngleValue</text>
<text text-anchor="middle" x="525" y="-56" font-family="Helvetica,sans-Serif" font-size="10.00">InRadians</text>
</a>
</g>
</g>
<!-- Node7&#45;&gt;Node8 -->
<g id="edge7" class="edge"><title>Node7&#45;&gt;Node8</title>
<path fill="none" stroke="midnightblue" d="M379.197,-64C398.773,-64 420.083,-64 440.183,-64"/>
<polygon fill="midnightblue" stroke="midnightblue" points="440.253,-67.5001 450.253,-64 440.253,-60.5001 440.253,-67.5001"/>
</g>
<!-- Node9 -->
<g id="node9" class="node"><title>Node9</title>
<g id="a_node9"><a xlink:href="../../d8/d6a/classmodel_1_1_coordinates.html#a5c5a933429d6b6d1b04461ad15290f9f" target="_top" xlink:title="model.Coordinates.scale">
<polygon fill="white" stroke="black" points="457.5,-10.5 457.5,-29.5 592.5,-29.5 592.5,-10.5 457.5,-10.5"/>
<text text-anchor="middle" x="525" y="-17.5" font-family="Helvetica,sans-Serif" font-size="10.00">model.Coordinates.scale</text>
</a>
</g>
</g>
<!-- Node7&#45;&gt;Node9 -->
<g id="edge8" class="edge"><title>Node7&#45;&gt;Node9</title>
<path fill="none" stroke="midnightblue" d="M379.197,-49.2262C407.715,-43.4705 439.91,-36.9723 466.689,-31.5674"/>
<polygon fill="midnightblue" stroke="midnightblue" points="467.558,-34.9626 476.668,-29.5533 466.173,-28.101 467.558,-34.9626"/>
</g>
</g>
</svg>
