<?xml version="1.0" encoding="UTF-8" standalone="no"?>
<!DOCTYPE svg PUBLIC "-//W3C//DTD SVG 1.1//EN"
 "http://www.w3.org/Graphics/SVG/1.1/DTD/svg11.dtd">
<!-- Generated by graphviz version 2.36.0 (20140111.2315)
 -->
<!-- Title: model.TurtleSingle.getStamp Pages: 1 -->
<svg width="340pt" height="87pt"
 viewBox="0.00 0.00 340.00 87.00" xmlns="http://www.w3.org/2000/svg" xmlns:xlink="http://www.w3.org/1999/xlink">
<g id="graph0" class="graph" transform="scale(1 1) rotate(0) translate(4 83)">
<title>model.TurtleSingle.getStamp</title>
<polygon fill="white" stroke="none" points="-4,4 -4,-83 336,-83 336,4 -4,4"/>
<!-- Node1 -->
<g id="node1" class="node"><title>Node1</title>
<polygon fill="#bfbfbf" stroke="black" points="0.5,-29.5 0.5,-48.5 155.5,-48.5 155.5,-29.5 0.5,-29.5"/>
<text text-anchor="middle" x="78" y="-36.5" font-family="Helvetica,sans-Serif" font-size="10.00">model.TurtleSingle.getStamp</text>
</g>
<!-- Node2 -->
<g id="node2" class="node"><title>Node2</title>
<g id="a_node2"><a xlink:href="../../d9/dea/classmodel_1_1_turtle_multiple.html#a9b98a24b7447ca4896ae0632480c0e70" target="_top" xlink:title="model.TurtleMultiple.get\lStamp">
<polygon fill="white" stroke="black" points="196.5,-49 196.5,-79 327.5,-79 327.5,-49 196.5,-49"/>
<text text-anchor="start" x="204.5" y="-67" font-family="Helvetica,sans-Serif" font-size="10.00">model.TurtleMultiple.get</text>
<text text-anchor="middle" x="262" y="-56" font-family="Helvetica,sans-Serif" font-size="10.00">Stamp</text>
</a>
</g>
</g>
<!-- Node1&#45;&gt;Node2 -->
<g id="edge1" class="edge"><title>Node1&#45;&gt;Node2</title>
<path fill="none" stroke="midnightblue" d="M158.41,-49.9079C171.09,-51.6497 184.075,-53.4333 196.358,-55.1206"/>
<polygon fill="midnightblue" stroke="midnightblue" points="158.709,-46.4162 148.326,-48.5227 157.756,-53.3511 158.709,-46.4162"/>
</g>
<!-- Node3 -->
<g id="node3" class="node"><title>Node3</title>
<g id="a_node3"><a xlink:href="../../db/dce/classmodel_1_1_turtle_update.html#a483f6cdd16cedb0e3a05492ddf7fe709" target="_top" xlink:title="model.TurtleUpdate.Turtle\lUpdate">
<polygon fill="white" stroke="black" points="192.5,-0 192.5,-30 331.5,-30 331.5,-0 192.5,-0"/>
<text text-anchor="start" x="200.5" y="-18" font-family="Helvetica,sans-Serif" font-size="10.00">model.TurtleUpdate.Turtle</text>
<text text-anchor="middle" x="262" y="-7" font-family="Helvetica,sans-Serif" font-size="10.00">Update</text>
</a>
</g>
</g>
<!-- Node1&#45;&gt;Node3 -->
<g id="edge2" class="edge"><title>Node1&#45;&gt;Node3</title>
<path fill="none" stroke="midnightblue" d="M161.156,-28.1662C171.618,-26.7867 182.236,-25.3864 192.452,-24.0392"/>
<polygon fill="midnightblue" stroke="midnightblue" points="160.649,-24.7027 151.193,-29.4801 161.564,-31.6426 160.649,-24.7027"/>
</g>
</g>
</svg>
