<?xml version="1.0" encoding="UTF-8" standalone="no"?>
<!DOCTYPE svg PUBLIC "-//W3C//DTD SVG 1.1//EN"
 "http://www.w3.org/Graphics/SVG/1.1/DTD/svg11.dtd">
<!-- Generated by graphviz version 2.36.0 (20140111.2315)
 -->
<!-- Title: model.TurtleSingle.addDegree Pages: 1 -->
<svg width="550pt" height="77pt"
 viewBox="0.00 0.00 550.00 77.00" xmlns="http://www.w3.org/2000/svg" xmlns:xlink="http://www.w3.org/1999/xlink">
<g id="graph0" class="graph" transform="scale(1 1) rotate(0) translate(4 73)">
<title>model.TurtleSingle.addDegree</title>
<polygon fill="white" stroke="none" points="-4,4 -4,-73 546,-73 546,4 -4,4"/>
<!-- Node1 -->
<g id="node1" class="node"><title>Node1</title>
<polygon fill="#bfbfbf" stroke="black" points="0.5,-27.5 0.5,-46.5 161.5,-46.5 161.5,-27.5 0.5,-27.5"/>
<text text-anchor="middle" x="81" y="-34.5" font-family="Helvetica,sans-Serif" font-size="10.00">model.TurtleSingle.addDegree</text>
</g>
<!-- Node2 -->
<g id="node2" class="node"><title>Node2</title>
<g id="a_node2"><a xlink:href="../../de/dfa/classmodel_1_1_angle.html#aef359cf2d8f49b345732939644cd8d29" target="_top" xlink:title="model.Angle.addAngleValue">
<polygon fill="white" stroke="black" points="198.5,-49.5 198.5,-68.5 349.5,-68.5 349.5,-49.5 198.5,-49.5"/>
<text text-anchor="middle" x="274" y="-56.5" font-family="Helvetica,sans-Serif" font-size="10.00">model.Angle.addAngleValue</text>
</a>
</g>
</g>
<!-- Node1&#45;&gt;Node2 -->
<g id="edge1" class="edge"><title>Node1&#45;&gt;Node2</title>
<path fill="none" stroke="midnightblue" d="M161.618,-46.1707C170.468,-47.1901 179.506,-48.231 188.415,-49.2572"/>
<polygon fill="midnightblue" stroke="midnightblue" points="188.067,-52.7402 198.402,-50.4075 188.868,-45.7862 188.067,-52.7402"/>
</g>
<!-- Node4 -->
<g id="node4" class="node"><title>Node4</title>
<g id="a_node4"><a xlink:href="../../da/d88/classmodel_1_1_turtle_single.html#a40853b6f8c9ba455489ad8ea9535e99d" target="_top" xlink:title="model.TurtleSingle.notify\lObservers">
<polygon fill="white" stroke="black" points="207,-0 207,-30 341,-30 341,-0 207,-0"/>
<text text-anchor="start" x="215" y="-18" font-family="Helvetica,sans-Serif" font-size="10.00">model.TurtleSingle.notify</text>
<text text-anchor="middle" x="274" y="-7" font-family="Helvetica,sans-Serif" font-size="10.00">Observers</text>
</a>
</g>
</g>
<!-- Node1&#45;&gt;Node4 -->
<g id="edge3" class="edge"><title>Node1&#45;&gt;Node4</title>
<path fill="none" stroke="midnightblue" d="M161.618,-27.8293C173.256,-26.4888 185.218,-25.1111 196.785,-23.7787"/>
<polygon fill="midnightblue" stroke="midnightblue" points="197.298,-27.2429 206.831,-22.6215 196.496,-20.2889 197.298,-27.2429"/>
</g>
<!-- Node3 -->
<g id="node3" class="node"><title>Node3</title>
<g id="a_node3"><a xlink:href="../../de/dfa/classmodel_1_1_angle.html#a33d4e2194b10ee4aa384b74c7f73f3e6" target="_top" xlink:title="model.Angle.modAngleValue">
<polygon fill="white" stroke="black" points="386.5,-49.5 386.5,-68.5 541.5,-68.5 541.5,-49.5 386.5,-49.5"/>
<text text-anchor="middle" x="464" y="-56.5" font-family="Helvetica,sans-Serif" font-size="10.00">model.Angle.modAngleValue</text>
</a>
</g>
</g>
<!-- Node2&#45;&gt;Node3 -->
<g id="edge2" class="edge"><title>Node2&#45;&gt;Node3</title>
<path fill="none" stroke="midnightblue" d="M349.573,-59C358.362,-59 367.388,-59 376.325,-59"/>
<polygon fill="midnightblue" stroke="midnightblue" points="376.361,-62.5001 386.361,-59 376.361,-55.5001 376.361,-62.5001"/>
</g>
</g>
</svg>
