<?xml version="1.0" encoding="UTF-8" standalone="no"?>
<!DOCTYPE svg PUBLIC "-//W3C//DTD SVG 1.1//EN"
 "http://www.w3.org/Graphics/SVG/1.1/DTD/svg11.dtd">
<!-- Generated by graphviz version 2.36.0 (20140111.2315)
 -->
<!-- Title: model.TurtleSingle.getPenColor Pages: 1 -->
<svg width="318pt" height="38pt"
 viewBox="0.00 0.00 318.00 38.00" xmlns="http://www.w3.org/2000/svg" xmlns:xlink="http://www.w3.org/1999/xlink">
<g id="graph0" class="graph" transform="scale(1 1) rotate(0) translate(4 34)">
<title>model.TurtleSingle.getPenColor</title>
<polygon fill="white" stroke="none" points="-4,4 -4,-34 314,-34 314,4 -4,4"/>
<!-- Node1 -->
<g id="node1" class="node"><title>Node1</title>
<polygon fill="#bfbfbf" stroke="black" points="0.5,-0 0.5,-30 141.5,-30 141.5,-0 0.5,-0"/>
<text text-anchor="start" x="8.5" y="-18" font-family="Helvetica,sans-Serif" font-size="10.00">model.TurtleSingle.getPen</text>
<text text-anchor="middle" x="71" y="-7" font-family="Helvetica,sans-Serif" font-size="10.00">Color</text>
</g>
<!-- Node2 -->
<g id="node2" class="node"><title>Node2</title>
<g id="a_node2"><a xlink:href="../../d9/dea/classmodel_1_1_turtle_multiple.html#af808eedfec9795e1f99430e1ead99653" target="_top" xlink:title="model.TurtleMultiple.get\lPenColor">
<polygon fill="white" stroke="black" points="178.5,-0 178.5,-30 309.5,-30 309.5,-0 178.5,-0"/>
<text text-anchor="start" x="186.5" y="-18" font-family="Helvetica,sans-Serif" font-size="10.00">model.TurtleMultiple.get</text>
<text text-anchor="middle" x="244" y="-7" font-family="Helvetica,sans-Serif" font-size="10.00">PenColor</text>
</a>
</g>
</g>
<!-- Node1&#45;&gt;Node2 -->
<g id="edge1" class="edge"><title>Node1&#45;&gt;Node2</title>
<path fill="none" stroke="midnightblue" d="M151.644,-15C160.634,-15 169.711,-15 178.474,-15"/>
<polygon fill="midnightblue" stroke="midnightblue" points="151.552,-11.5001 141.552,-15 151.552,-18.5001 151.552,-11.5001"/>
</g>
</g>
</svg>
