<?xml version="1.0" encoding="UTF-8" standalone="no"?>
<!DOCTYPE svg PUBLIC "-//W3C//DTD SVG 1.1//EN"
 "http://www.w3.org/Graphics/SVG/1.1/DTD/svg11.dtd">
<!-- Generated by graphviz version 2.36.0 (20140111.2315)
 -->
<!-- Title: view.listwindows.ListWindow Pages: 1 -->
<svg width="360pt" height="96pt"
 viewBox="0.00 0.00 360.00 96.00" xmlns="http://www.w3.org/2000/svg" xmlns:xlink="http://www.w3.org/1999/xlink">
<g id="graph0" class="graph" transform="scale(1 1) rotate(0) translate(4 92)">
<title>view.listwindows.ListWindow</title>
<polygon fill="white" stroke="none" points="-4,4 -4,-92 356,-92 356,4 -4,4"/>
<!-- Node1 -->
<g id="node1" class="node"><title>Node1</title>
<polygon fill="#bfbfbf" stroke="black" points="77,-0.5 77,-19.5 223,-19.5 223,-0.5 77,-0.5"/>
<text text-anchor="middle" x="150" y="-7.5" font-family="Helvetica,sans-Serif" font-size="10.00">view.listwindows.ListWindow</text>
</g>
<!-- Node2 -->
<g id="node2" class="node"><title>Node2</title>
<polygon fill="white" stroke="#bfbfbf" points="0,-68.5 0,-87.5 46,-87.5 46,-68.5 0,-68.5"/>
<text text-anchor="middle" x="23" y="-75.5" font-family="Helvetica,sans-Serif" font-size="10.00">Group</text>
</g>
<!-- Node2&#45;&gt;Node1 -->
<g id="edge1" class="edge"><title>Node2&#45;&gt;Node1</title>
<path fill="none" stroke="midnightblue" d="M48.2896,-63.8446C62.8301,-56.2819 81.4416,-46.604 98,-38 109.915,-31.8089 123.368,-24.8239 133.605,-19.5097"/>
<polygon fill="midnightblue" stroke="midnightblue" points="46.6414,-60.7566 39.3848,-68.4763 49.8716,-66.9668 46.6414,-60.7566"/>
</g>
<!-- Node3 -->
<g id="node3" class="node"><title>Node3</title>
<polygon fill="white" stroke="#bfbfbf" points="64.5,-68.5 64.5,-87.5 105.5,-87.5 105.5,-68.5 64.5,-68.5"/>
<text text-anchor="middle" x="85" y="-75.5" font-family="Helvetica,sans-Serif" font-size="10.00">VBox</text>
</g>
<!-- Node3&#45;&gt;Node1 -->
<g id="edge2" class="edge"><title>Node3&#45;&gt;Node1</title>
<path fill="none" stroke="#9a32cd" stroke-dasharray="5,2" d="M95.2914,-59.4335C99.9006,-52.3488 105.713,-44.3638 112,-38 118.939,-30.9759 127.894,-24.5147 135.368,-19.675"/>
<polygon fill="#9a32cd" stroke="#9a32cd" points="92.0934,-57.9512 89.8207,-68.2994 98.0506,-61.6271 92.0934,-57.9512"/>
<text text-anchor="middle" x="129.5" y="-41.5" font-family="Helvetica,sans-Serif" font-size="10.00"> myList</text>
</g>
<!-- Node4 -->
<g id="node4" class="node"><title>Node4</title>
<polygon fill="white" stroke="#bfbfbf" points="124,-68.5 124,-87.5 190,-87.5 190,-68.5 124,-68.5"/>
<text text-anchor="middle" x="157" y="-75.5" font-family="Helvetica,sans-Serif" font-size="10.00">ScrollPane</text>
</g>
<!-- Node4&#45;&gt;Node1 -->
<g id="edge3" class="edge"><title>Node4&#45;&gt;Node1</title>
<path fill="none" stroke="#9a32cd" stroke-dasharray="5,2" d="M152.336,-58.1978C151.799,-55.4623 151.328,-52.669 151,-50 149.729,-39.6472 149.625,-27.6369 149.744,-19.7097"/>
<polygon fill="#9a32cd" stroke="#9a32cd" points="148.949,-59.0896 154.562,-68.0754 155.778,-57.5506 148.949,-59.0896"/>
<text text-anchor="middle" x="185" y="-41.5" font-family="Helvetica,sans-Serif" font-size="10.00"> myScrollPane</text>
</g>
<!-- Node5 -->
<g id="node5" class="node"><title>Node5</title>
<polygon fill="white" stroke="#bfbfbf" points="220,-68.5 220,-87.5 262,-87.5 262,-68.5 220,-68.5"/>
<text text-anchor="middle" x="241" y="-75.5" font-family="Helvetica,sans-Serif" font-size="10.00">Label</text>
</g>
<!-- Node5&#45;&gt;Node1 -->
<g id="edge4" class="edge"><title>Node5&#45;&gt;Node1</title>
<path fill="none" stroke="#9a32cd" stroke-dasharray="5,2" d="M234.128,-59.1579C230.55,-51.7961 225.537,-43.677 219,-38 209.385,-29.6499 196.887,-23.7201 185.175,-19.5876"/>
<polygon fill="#9a32cd" stroke="#9a32cd" points="230.952,-60.6305 238.126,-68.4268 237.379,-57.8583 230.952,-60.6305"/>
<text text-anchor="middle" x="251" y="-41.5" font-family="Helvetica,sans-Serif" font-size="10.00"> myLabel</text>
</g>
<!-- Node6 -->
<g id="node6" class="node"><title>Node6</title>
<polygon fill="white" stroke="#bfbfbf" points="280,-68.5 280,-87.5 352,-87.5 352,-68.5 280,-68.5"/>
<text text-anchor="middle" x="316" y="-75.5" font-family="Helvetica,sans-Serif" font-size="10.00">BorderPane</text>
</g>
<!-- Node6&#45;&gt;Node1 -->
<g id="edge5" class="edge"><title>Node6&#45;&gt;Node1</title>
<path fill="none" stroke="#9a32cd" stroke-dasharray="5,2" d="M303.52,-60.6563C296.562,-52.651 287.243,-43.5615 277,-38 260.558,-29.0723 241.428,-23.0955 223.081,-19.0946"/>
<polygon fill="#9a32cd" stroke="#9a32cd" points="300.82,-62.8829 309.857,-68.413 306.241,-58.4543 300.82,-62.8829"/>
<text text-anchor="middle" x="314" y="-41.5" font-family="Helvetica,sans-Serif" font-size="10.00"> myPane</text>
</g>
</g>
</svg>
