<?xml version="1.0" encoding="UTF-8" standalone="no"?>
<!DOCTYPE svg PUBLIC "-//W3C//DTD SVG 1.1//EN"
 "http://www.w3.org/Graphics/SVG/1.1/DTD/svg11.dtd">
<!-- Generated by graphviz version 2.36.0 (20140111.2315)
 -->
<!-- Title: model.VariableDouble.clone Pages: 1 -->
<svg width="370pt" height="126pt"
 viewBox="0.00 0.00 370.00 126.00" xmlns="http://www.w3.org/2000/svg" xmlns:xlink="http://www.w3.org/1999/xlink">
<g id="graph0" class="graph" transform="scale(1 1) rotate(0) translate(4 122)">
<title>model.VariableDouble.clone</title>
<polygon fill="white" stroke="none" points="-4,4 -4,-122 366,-122 366,4 -4,4"/>
<!-- Node1 -->
<g id="node1" class="node"><title>Node1</title>
<polygon fill="#bfbfbf" stroke="black" points="0,-54.5 0,-73.5 150,-73.5 150,-54.5 0,-54.5"/>
<text text-anchor="middle" x="75" y="-61.5" font-family="Helvetica,sans-Serif" font-size="10.00">model.VariableDouble.clone</text>
</g>
<!-- Node2 -->
<g id="node2" class="node"><title>Node2</title>
<g id="a_node2"><a xlink:href="../../d4/d08/classmodel_1_1_variable.html#ae75e860c7260b548591d1fbeaecc9a1e" target="_top" xlink:title="model.Variable.getNameProperty">
<polygon fill="white" stroke="black" points="186,-98.5 186,-117.5 362,-117.5 362,-98.5 186,-98.5"/>
<text text-anchor="middle" x="274" y="-105.5" font-family="Helvetica,sans-Serif" font-size="10.00">model.Variable.getNameProperty</text>
</a>
</g>
</g>
<!-- Node1&#45;&gt;Node2 -->
<g id="edge1" class="edge"><title>Node1&#45;&gt;Node2</title>
<path fill="none" stroke="midnightblue" d="M118.746,-73.5473C148.563,-80.2069 188.542,-89.1363 220.328,-96.2358"/>
<polygon fill="midnightblue" stroke="midnightblue" points="219.815,-99.7073 230.337,-98.4713 221.341,-92.8756 219.815,-99.7073"/>
</g>
<!-- Node3 -->
<g id="node3" class="node"><title>Node3</title>
<g id="a_node3"><a xlink:href="../../d8/d1b/classmodel_1_1_variable_double.html#ab28f1cb391c396c9cf5b4e5cff3cc0a3" target="_top" xlink:title="model.VariableDouble.get\lValue">
<polygon fill="white" stroke="black" points="204,-49 204,-79 344,-79 344,-49 204,-49"/>
<text text-anchor="start" x="212" y="-67" font-family="Helvetica,sans-Serif" font-size="10.00">model.VariableDouble.get</text>
<text text-anchor="middle" x="274" y="-56" font-family="Helvetica,sans-Serif" font-size="10.00">Value</text>
</a>
</g>
</g>
<!-- Node1&#45;&gt;Node3 -->
<g id="edge2" class="edge"><title>Node1&#45;&gt;Node3</title>
<path fill="none" stroke="midnightblue" d="M150.197,-64C164.327,-64 179.169,-64 193.458,-64"/>
<polygon fill="midnightblue" stroke="midnightblue" points="193.747,-67.5001 203.747,-64 193.747,-60.5001 193.747,-67.5001"/>
</g>
<!-- Node4 -->
<g id="node4" class="node"><title>Node4</title>
<g id="a_node4"><a xlink:href="../../d8/d1b/classmodel_1_1_variable_double.html#a75ed7a5f3accc16c1a17037c467121b0" target="_top" xlink:title="model.VariableDouble.Variable\lDouble">
<polygon fill="white" stroke="black" points="192.5,-0 192.5,-30 355.5,-30 355.5,-0 192.5,-0"/>
<text text-anchor="start" x="200.5" y="-18" font-family="Helvetica,sans-Serif" font-size="10.00">model.VariableDouble.Variable</text>
<text text-anchor="middle" x="274" y="-7" font-family="Helvetica,sans-Serif" font-size="10.00">Double</text>
</a>
</g>
</g>
<!-- Node1&#45;&gt;Node4 -->
<g id="edge3" class="edge"><title>Node1&#45;&gt;Node4</title>
<path fill="none" stroke="midnightblue" d="M114.451,-54.436C139.501,-48.2053 172.929,-39.8906 202.632,-32.5026"/>
<polygon fill="midnightblue" stroke="midnightblue" points="203.686,-35.8473 212.545,-30.037 201.996,-29.0543 203.686,-35.8473"/>
</g>
</g>
</svg>
