<?xml version="1.0" encoding="UTF-8" standalone="no"?>
<!DOCTYPE svg PUBLIC "-//W3C//DTD SVG 1.1//EN"
 "http://www.w3.org/Graphics/SVG/1.1/DTD/svg11.dtd">
<!-- Generated by graphviz version 2.36.0 (20140111.2315)
 -->
<!-- Title: model.VariableInt Pages: 1 -->
<svg width="208pt" height="174pt"
 viewBox="0.00 0.00 208.00 174.00" xmlns="http://www.w3.org/2000/svg" xmlns:xlink="http://www.w3.org/1999/xlink">
<g id="graph0" class="graph" transform="scale(1 1) rotate(0) translate(4 170)">
<title>model.VariableInt</title>
<polygon fill="white" stroke="none" points="-4,4 -4,-170 204,-170 204,4 -4,4"/>
<!-- Node1 -->
<g id="node1" class="node"><title>Node1</title>
<polygon fill="#bfbfbf" stroke="black" points="75,-0.5 75,-19.5 175,-19.5 175,-0.5 75,-0.5"/>
<text text-anchor="middle" x="125" y="-7.5" font-family="Helvetica,sans-Serif" font-size="10.00">model.VariableInt</text>
</g>
<!-- Node2 -->
<g id="node2" class="node"><title>Node2</title>
<g id="a_node2"><a xlink:href="../../d4/d08/classmodel_1_1_variable.html" target="_top" xlink:title="model.Variable">
<polygon fill="white" stroke="black" points="0,-68.5 0,-87.5 88,-87.5 88,-68.5 0,-68.5"/>
<text text-anchor="middle" x="44" y="-75.5" font-family="Helvetica,sans-Serif" font-size="10.00">model.Variable</text>
</a>
</g>
</g>
<!-- Node2&#45;&gt;Node1 -->
<g id="edge1" class="edge"><title>Node2&#45;&gt;Node1</title>
<path fill="none" stroke="midnightblue" d="M62.7352,-61.7343C78.7802,-48.6606 101.309,-30.3039 114.408,-19.6305"/>
<polygon fill="midnightblue" stroke="midnightblue" points="60.1308,-59.3416 54.5893,-68.3717 64.5526,-64.7682 60.1308,-59.3416"/>
</g>
<!-- Node3 -->
<g id="node3" class="node"><title>Node3</title>
<polygon fill="white" stroke="#bfbfbf" points="1,-146.5 1,-165.5 87,-165.5 87,-146.5 1,-146.5"/>
<text text-anchor="middle" x="44" y="-153.5" font-family="Helvetica,sans-Serif" font-size="10.00">StringProperty</text>
</g>
<!-- Node3&#45;&gt;Node2 -->
<g id="edge2" class="edge"><title>Node3&#45;&gt;Node2</title>
<path fill="none" stroke="#9a32cd" stroke-dasharray="5,2" d="M44,-136.224C44,-120.697 44,-99.3582 44,-87.6165"/>
<polygon fill="#9a32cd" stroke="#9a32cd" points="40.5001,-136.282 44,-146.282 47.5001,-136.282 40.5001,-136.282"/>
<text text-anchor="middle" x="89.5" y="-120" font-family="Helvetica,sans-Serif" font-size="10.00"> myNameProperty</text>
<text text-anchor="middle" x="89.5" y="-109" font-family="Helvetica,sans-Serif" font-size="10.00">myDisplayProperty</text>
</g>
<!-- Node4 -->
<g id="node4" class="node"><title>Node4</title>
<polygon fill="white" stroke="#bfbfbf" points="106.5,-68.5 106.5,-87.5 197.5,-87.5 197.5,-68.5 106.5,-68.5"/>
<text text-anchor="middle" x="152" y="-75.5" font-family="Helvetica,sans-Serif" font-size="10.00">IntegerProperty</text>
</g>
<!-- Node4&#45;&gt;Node1 -->
<g id="edge3" class="edge"><title>Node4&#45;&gt;Node1</title>
<path fill="none" stroke="#9a32cd" stroke-dasharray="5,2" d="M144.557,-58.8066C139.369,-46.1244 132.675,-29.7615 128.617,-19.8411"/>
<polygon fill="#9a32cd" stroke="#9a32cd" points="141.444,-60.4414 148.47,-68.3717 147.923,-57.7909 141.444,-60.4414"/>
<text text-anchor="middle" x="170.5" y="-41.5" font-family="Helvetica,sans-Serif" font-size="10.00"> myProperty</text>
</g>
</g>
</svg>
