<?xml version="1.0" encoding="UTF-8" standalone="no"?>
<!DOCTYPE svg PUBLIC "-//W3C//DTD SVG 1.1//EN"
 "http://www.w3.org/Graphics/SVG/1.1/DTD/svg11.dtd">
<!-- Generated by graphviz version 2.36.0 (20140111.2315)
 -->
<!-- Title: parser.nodes.GroupNode.backPop Pages: 1 -->
<svg width="596pt" height="38pt"
 viewBox="0.00 0.00 596.00 38.00" xmlns="http://www.w3.org/2000/svg" xmlns:xlink="http://www.w3.org/1999/xlink">
<g id="graph0" class="graph" transform="scale(1 1) rotate(0) translate(4 34)">
<title>parser.nodes.GroupNode.backPop</title>
<polygon fill="white" stroke="none" points="-4,4 -4,-34 592,-34 592,4 -4,4"/>
<!-- Node1 -->
<g id="node1" class="node"><title>Node1</title>
<polygon fill="#bfbfbf" stroke="black" points="0,-5.5 0,-24.5 180,-24.5 180,-5.5 0,-5.5"/>
<text text-anchor="middle" x="90" y="-12.5" font-family="Helvetica,sans-Serif" font-size="10.00">parser.nodes.GroupNode.backPop</text>
</g>
<!-- Node2 -->
<g id="node2" class="node"><title>Node2</title>
<g id="a_node2"><a xlink:href="../../d6/dc9/classparser_1_1nodes_1_1_unlimited_node.html#aee0583d6e8fed7f937a4cff3f5d2ab7f" target="_top" xlink:title="parser.nodes.UnlimitedNode.push\lAsList">
<polygon fill="white" stroke="black" points="216.5,-0 216.5,-30 395.5,-30 395.5,-0 216.5,-0"/>
<text text-anchor="start" x="224.5" y="-18" font-family="Helvetica,sans-Serif" font-size="10.00">parser.nodes.UnlimitedNode.push</text>
<text text-anchor="middle" x="306" y="-7" font-family="Helvetica,sans-Serif" font-size="10.00">AsList</text>
</a>
</g>
</g>
<!-- Node1&#45;&gt;Node2 -->
<g id="edge1" class="edge"><title>Node1&#45;&gt;Node2</title>
<path fill="none" stroke="midnightblue" d="M190.328,-15C198.988,-15 207.716,-15 216.283,-15"/>
<polygon fill="midnightblue" stroke="midnightblue" points="190.206,-11.5001 180.206,-15 190.206,-18.5001 190.206,-11.5001"/>
</g>
<!-- Node3 -->
<g id="node3" class="node"><title>Node3</title>
<g id="a_node3"><a xlink:href="../../d6/dc9/classparser_1_1nodes_1_1_unlimited_node.html#a4b5d0253fdc5b292e4e201eab16f3727" target="_top" xlink:title="parser.nodes.UnlimitedNode.\lUnlimitedNode">
<polygon fill="white" stroke="black" points="432,-0 432,-30 588,-30 588,-0 432,-0"/>
<text text-anchor="start" x="440" y="-18" font-family="Helvetica,sans-Serif" font-size="10.00">parser.nodes.UnlimitedNode.</text>
<text text-anchor="middle" x="510" y="-7" font-family="Helvetica,sans-Serif" font-size="10.00">UnlimitedNode</text>
</a>
</g>
</g>
<!-- Node2&#45;&gt;Node3 -->
<g id="edge2" class="edge"><title>Node2&#45;&gt;Node3</title>
<path fill="none" stroke="midnightblue" d="M405.838,-15C414.581,-15 423.345,-15 431.869,-15"/>
<polygon fill="midnightblue" stroke="midnightblue" points="405.6,-11.5001 395.6,-15 405.6,-18.5001 405.6,-11.5001"/>
</g>
</g>
</svg>
