<?xml version="1.0" encoding="UTF-8" standalone="no"?>
<!DOCTYPE svg PUBLIC "-//W3C//DTD SVG 1.1//EN"
 "http://www.w3.org/Graphics/SVG/1.1/DTD/svg11.dtd">
<!-- Generated by graphviz version 2.36.0 (20140111.2315)
 -->
<!-- Title: view.components.SLogoWorkspace.runDebugger Pages: 1 -->
<svg width="1612pt" height="954pt"
 viewBox="0.00 0.00 1612.00 954.00" xmlns="http://www.w3.org/2000/svg" xmlns:xlink="http://www.w3.org/1999/xlink">
<g id="graph0" class="graph" transform="scale(1 1) rotate(0) translate(4 950)">
<title>view.components.SLogoWorkspace.runDebugger</title>
<polygon fill="white" stroke="none" points="-4,4 -4,-950 1608,-950 1608,4 -4,4"/>
<!-- Node1 -->
<g id="node1" class="node"><title>Node1</title>
<polygon fill="#bfbfbf" stroke="black" points="0,-62 0,-92 202,-92 202,-62 0,-62"/>
<text text-anchor="start" x="8" y="-80" font-family="Helvetica,sans-Serif" font-size="10.00">view.components.SLogoWorkspace.run</text>
<text text-anchor="middle" x="101" y="-69" font-family="Helvetica,sans-Serif" font-size="10.00">Debugger</text>
</g>
<!-- Node2 -->
<g id="node2" class="node"><title>Node2</title>
<g id="a_node2"><a xlink:href="../../d5/d4b/classview_1_1components_1_1_turtle_window.html#a84744ff6c257318689fc0e014350fb05" target="_top" xlink:title="view.components.TurtleWindow.step\lDebug">
<polygon fill="white" stroke="black" points="238,-62 238,-92 424,-92 424,-62 238,-62"/>
<text text-anchor="start" x="246" y="-80" font-family="Helvetica,sans-Serif" font-size="10.00">view.components.TurtleWindow.step</text>
<text text-anchor="middle" x="331" y="-69" font-family="Helvetica,sans-Serif" font-size="10.00">Debug</text>
</a>
</g>
</g>
<!-- Node1&#45;&gt;Node2 -->
<g id="edge1" class="edge"><title>Node1&#45;&gt;Node2</title>
<path fill="none" stroke="midnightblue" d="M202.004,-77C210.604,-77 219.312,-77 227.928,-77"/>
<polygon fill="midnightblue" stroke="midnightblue" points="227.988,-80.5001 237.988,-77 227.988,-73.5001 227.988,-80.5001"/>
</g>
<!-- Node3 -->
<g id="node3" class="node"><title>Node3</title>
<g id="a_node3"><a xlink:href="../../dd/ddc/classview_1_1turtle_1_1_turtle_image.html#a68a832da6825e57061dbc49b30098291" target="_top" xlink:title="view.turtle.TurtleImage.pop\lUpdate">
<polygon fill="white" stroke="black" points="460,-62 460,-92 604,-92 604,-62 460,-62"/>
<text text-anchor="start" x="468" y="-80" font-family="Helvetica,sans-Serif" font-size="10.00">view.turtle.TurtleImage.pop</text>
<text text-anchor="middle" x="532" y="-69" font-family="Helvetica,sans-Serif" font-size="10.00">Update</text>
</a>
</g>
</g>
<!-- Node2&#45;&gt;Node3 -->
<g id="edge2" class="edge"><title>Node2&#45;&gt;Node3</title>
<path fill="none" stroke="midnightblue" d="M424.218,-77C432.747,-77 441.348,-77 449.768,-77"/>
<polygon fill="midnightblue" stroke="midnightblue" points="449.932,-80.5001 459.932,-77 449.932,-73.5001 449.932,-80.5001"/>
</g>
<!-- Node4 -->
<g id="node4" class="node"><title>Node4</title>
<g id="a_node4"><a xlink:href="../../dd/ddc/classview_1_1turtle_1_1_turtle_image.html#afd9abc603b052b7c9c14108400109917" target="_top" xlink:title="view.turtle.TurtleImage.process\lUpdate">
<polygon fill="white" stroke="black" points="640,-450 640,-480 804,-480 804,-450 640,-450"/>
<text text-anchor="start" x="648" y="-468" font-family="Helvetica,sans-Serif" font-size="10.00">view.turtle.TurtleImage.process</text>
<text text-anchor="middle" x="722" y="-457" font-family="Helvetica,sans-Serif" font-size="10.00">Update</text>
</a>
</g>
</g>
<!-- Node3&#45;&gt;Node4 -->
<g id="edge3" class="edge"><title>Node3&#45;&gt;Node4</title>
<path fill="none" stroke="midnightblue" d="M540.37,-92.2101C569.093,-151.49 673.693,-367.367 709.152,-440.547"/>
<polygon fill="midnightblue" stroke="midnightblue" points="706.171,-442.422 713.681,-449.895 712.47,-439.37 706.171,-442.422"/>
</g>
<!-- Node5 -->
<g id="node5" class="node"><title>Node5</title>
<g id="a_node5"><a xlink:href="../../db/dce/classmodel_1_1_turtle_update.html#a7ebfc78794f604d565e22150004b8325" target="_top" xlink:title="model.TurtleUpdate.isTurtle\lInactive">
<polygon fill="white" stroke="black" points="872,-652 872,-682 1018,-682 1018,-652 872,-652"/>
<text text-anchor="start" x="880" y="-670" font-family="Helvetica,sans-Serif" font-size="10.00">model.TurtleUpdate.isTurtle</text>
<text text-anchor="middle" x="945" y="-659" font-family="Helvetica,sans-Serif" font-size="10.00">Inactive</text>
</a>
</g>
</g>
<!-- Node4&#45;&gt;Node5 -->
<g id="edge4" class="edge"><title>Node4&#45;&gt;Node5</title>
<path fill="none" stroke="midnightblue" d="M728.485,-480.115C741.821,-514.625 779.369,-599.505 840,-642 846.831,-646.788 854.467,-650.665 862.416,-653.804"/>
<polygon fill="midnightblue" stroke="midnightblue" points="861.265,-657.11 871.86,-657.16 863.609,-650.514 861.265,-657.11"/>
</g>
<!-- Node6 -->
<g id="node6" class="node"><title>Node6</title>
<g id="a_node6"><a xlink:href="../../db/dce/classmodel_1_1_turtle_update.html#a6c2e9c2e4216253c37801998a329455b" target="_top" xlink:title="model.TurtleUpdate.isTurtle\lPenUp">
<polygon fill="white" stroke="black" points="872,-603 872,-633 1018,-633 1018,-603 872,-603"/>
<text text-anchor="start" x="880" y="-621" font-family="Helvetica,sans-Serif" font-size="10.00">model.TurtleUpdate.isTurtle</text>
<text text-anchor="middle" x="945" y="-610" font-family="Helvetica,sans-Serif" font-size="10.00">PenUp</text>
</a>
</g>
</g>
<!-- Node4&#45;&gt;Node6 -->
<g id="edge5" class="edge"><title>Node4&#45;&gt;Node6</title>
<path fill="none" stroke="midnightblue" d="M732.496,-480.34C750.149,-507.503 790.734,-563.93 840,-593 846.936,-597.093 854.506,-600.516 862.297,-603.38"/>
<polygon fill="midnightblue" stroke="midnightblue" points="861.288,-606.733 871.882,-606.602 863.519,-600.098 861.288,-606.733"/>
</g>
<!-- Node7 -->
<g id="node7" class="node"><title>Node7</title>
<g id="a_node7"><a xlink:href="../../d5/d46/classview_1_1components_1_1_palette.html#af6c1989fcbc763b66af3fc609fa59ff9" target="_top" xlink:title="view.components.Palette.get\lImage">
<polygon fill="white" stroke="black" points="868,-554 868,-584 1022,-584 1022,-554 868,-554"/>
<text text-anchor="start" x="876" y="-572" font-family="Helvetica,sans-Serif" font-size="10.00">view.components.Palette.get</text>
<text text-anchor="middle" x="945" y="-561" font-family="Helvetica,sans-Serif" font-size="10.00">Image</text>
</a>
</g>
</g>
<!-- Node4&#45;&gt;Node7 -->
<g id="edge6" class="edge"><title>Node4&#45;&gt;Node7</title>
<path fill="none" stroke="midnightblue" d="M740.831,-480.07C762.786,-497.878 801.869,-527.204 840,-544 845.799,-546.554 851.901,-548.872 858.12,-550.971"/>
<polygon fill="midnightblue" stroke="midnightblue" points="857.375,-554.406 867.965,-554.091 859.489,-547.733 857.375,-554.406"/>
</g>
<!-- Node8 -->
<g id="node8" class="node"><title>Node8</title>
<g id="a_node8"><a xlink:href="../../db/dce/classmodel_1_1_turtle_update.html#a36b8205a61dd875ac4521cf51906c275" target="_top" xlink:title="model.TurtleUpdate.getShapeID">
<polygon fill="white" stroke="black" points="860,-515.5 860,-534.5 1030,-534.5 1030,-515.5 860,-515.5"/>
<text text-anchor="middle" x="945" y="-522.5" font-family="Helvetica,sans-Serif" font-size="10.00">model.TurtleUpdate.getShapeID</text>
</a>
</g>
</g>
<!-- Node4&#45;&gt;Node8 -->
<g id="edge7" class="edge"><title>Node4&#45;&gt;Node8</title>
<path fill="none" stroke="midnightblue" d="M760.998,-480.012C783.661,-488.537 813.16,-498.892 840,-506 850.528,-508.788 861.763,-511.304 872.811,-513.525"/>
<polygon fill="midnightblue" stroke="midnightblue" points="872.395,-517.01 882.879,-515.481 873.73,-510.138 872.395,-517.01"/>
</g>
<!-- Node9 -->
<g id="node9" class="node"><title>Node9</title>
<g id="a_node9"><a xlink:href="../../db/dce/classmodel_1_1_turtle_update.html#a5e88189d0b5f21c9474b5617cb396b13" target="_top" xlink:title="model.TurtleUpdate.isStamp">
<polygon fill="white" stroke="black" points="868.5,-477.5 868.5,-496.5 1021.5,-496.5 1021.5,-477.5 868.5,-477.5"/>
<text text-anchor="middle" x="945" y="-484.5" font-family="Helvetica,sans-Serif" font-size="10.00">model.TurtleUpdate.isStamp</text>
</a>
</g>
</g>
<!-- Node4&#45;&gt;Node9 -->
<g id="edge8" class="edge"><title>Node4&#45;&gt;Node9</title>
<path fill="none" stroke="midnightblue" d="M804.037,-473.067C821.647,-474.82 840.333,-476.68 858.122,-478.451"/>
<polygon fill="midnightblue" stroke="midnightblue" points="858.18,-481.974 868.478,-479.482 858.874,-475.009 858.18,-481.974"/>
</g>
<!-- Node10 -->
<g id="node10" class="node"><title>Node10</title>
<g id="a_node10"><a xlink:href="../../dd/ddc/classview_1_1turtle_1_1_turtle_image.html#aa1a5f2d4c96c64f526f4df58fd5e77d6" target="_top" xlink:title="view.turtle.TurtleImage.leave\lStamp">
<polygon fill="white" stroke="black" points="869,-428 869,-458 1021,-458 1021,-428 869,-428"/>
<text text-anchor="start" x="877" y="-446" font-family="Helvetica,sans-Serif" font-size="10.00">view.turtle.TurtleImage.leave</text>
<text text-anchor="middle" x="945" y="-435" font-family="Helvetica,sans-Serif" font-size="10.00">Stamp</text>
</a>
</g>
</g>
<!-- Node4&#45;&gt;Node10 -->
<g id="edge9" class="edge"><title>Node4&#45;&gt;Node10</title>
<path fill="none" stroke="midnightblue" d="M804.037,-456.933C821.833,-455.161 840.727,-453.281 858.685,-451.493"/>
<polygon fill="midnightblue" stroke="midnightblue" points="859.238,-454.955 868.842,-450.482 858.545,-447.99 859.238,-454.955"/>
</g>
<!-- Node11 -->
<g id="node11" class="node"><title>Node11</title>
<g id="a_node11"><a xlink:href="../../db/dce/classmodel_1_1_turtle_update.html#ab56febaad846cad5592395c3a67a68db" target="_top" xlink:title="model.TurtleUpdate.isTurtle\lClear">
<polygon fill="white" stroke="black" points="872,-379 872,-409 1018,-409 1018,-379 872,-379"/>
<text text-anchor="start" x="880" y="-397" font-family="Helvetica,sans-Serif" font-size="10.00">model.TurtleUpdate.isTurtle</text>
<text text-anchor="middle" x="945" y="-386" font-family="Helvetica,sans-Serif" font-size="10.00">Clear</text>
</a>
</g>
</g>
<!-- Node4&#45;&gt;Node11 -->
<g id="edge10" class="edge"><title>Node4&#45;&gt;Node11</title>
<path fill="none" stroke="midnightblue" d="M757.615,-449.927C780.668,-440.254 811.793,-427.888 840,-419 848.236,-416.405 856.911,-413.928 865.594,-411.611"/>
<polygon fill="midnightblue" stroke="midnightblue" points="866.581,-414.971 875.378,-409.066 864.819,-408.196 866.581,-414.971"/>
</g>
<!-- Node12 -->
<g id="node12" class="node"><title>Node12</title>
<g id="a_node12"><a xlink:href="../../d4/d93/classview_1_1turtle_1_1_turtle_pen.html#ae7dfe008f68eef44da5ee831b062952a" target="_top" xlink:title="view.turtle.TurtlePen.updatePen">
<polygon fill="white" stroke="black" points="862,-340.5 862,-359.5 1028,-359.5 1028,-340.5 862,-340.5"/>
<text text-anchor="middle" x="945" y="-347.5" font-family="Helvetica,sans-Serif" font-size="10.00">view.turtle.TurtlePen.updatePen</text>
</a>
</g>
</g>
<!-- Node4&#45;&gt;Node12 -->
<g id="edge11" class="edge"><title>Node4&#45;&gt;Node12</title>
<path fill="none" stroke="midnightblue" d="M736.865,-449.755C757.259,-428.345 797.546,-389.779 840,-370 846.474,-366.984 853.377,-364.423 860.431,-362.248"/>
<polygon fill="midnightblue" stroke="midnightblue" points="861.444,-365.599 870.117,-359.515 859.543,-358.862 861.444,-365.599"/>
</g>
<!-- Node13 -->
<g id="node13" class="node"><title>Node13</title>
<g id="a_node13"><a xlink:href="../../d5/d46/classview_1_1components_1_1_palette.html#acf5106175f97e28619e7ed993b9fce93" target="_top" xlink:title="view.components.Palette.get\lColor">
<polygon fill="white" stroke="black" points="868,-291 868,-321 1022,-321 1022,-291 868,-291"/>
<text text-anchor="start" x="876" y="-309" font-family="Helvetica,sans-Serif" font-size="10.00">view.components.Palette.get</text>
<text text-anchor="middle" x="945" y="-298" font-family="Helvetica,sans-Serif" font-size="10.00">Color</text>
</a>
</g>
</g>
<!-- Node4&#45;&gt;Node13 -->
<g id="edge12" class="edge"><title>Node4&#45;&gt;Node13</title>
<path fill="none" stroke="midnightblue" d="M731.771,-449.821C748.826,-421.732 789.277,-361.713 840,-331 845.763,-327.51 851.982,-324.508 858.411,-321.924"/>
<polygon fill="midnightblue" stroke="midnightblue" points="859.765,-325.155 867.952,-318.431 857.358,-318.582 859.765,-325.155"/>
</g>
<!-- Node14 -->
<g id="node14" class="node"><title>Node14</title>
<g id="a_node14"><a xlink:href="../../d4/d93/classview_1_1turtle_1_1_turtle_pen.html#ab0c25ebb2a0dd4243c58a4c57f4413b6" target="_top" xlink:title="view.turtle.TurtlePen.get\lColorIndex">
<polygon fill="white" stroke="black" points="880,-242 880,-272 1010,-272 1010,-242 880,-242"/>
<text text-anchor="start" x="888" y="-260" font-family="Helvetica,sans-Serif" font-size="10.00">view.turtle.TurtlePen.get</text>
<text text-anchor="middle" x="945" y="-249" font-family="Helvetica,sans-Serif" font-size="10.00">ColorIndex</text>
</a>
</g>
</g>
<!-- Node4&#45;&gt;Node14 -->
<g id="edge13" class="edge"><title>Node4&#45;&gt;Node14</title>
<path fill="none" stroke="midnightblue" d="M728.14,-449.907C740.979,-414.583 777.957,-326.192 840,-282 848.975,-275.607 859.376,-270.835 870.061,-267.275"/>
<polygon fill="midnightblue" stroke="midnightblue" points="871.337,-270.547 879.92,-264.336 869.337,-263.839 871.337,-270.547"/>
</g>
<!-- Node15 -->
<g id="node15" class="node"><title>Node15</title>
<g id="a_node15"><a xlink:href="../../dd/ddc/classview_1_1turtle_1_1_turtle_image.html#a86b462f57b86f6c0a72357fdc2655aa1" target="_top" xlink:title="view.turtle.TurtleImage.math\lCoordsToCanvasCoords">
<polygon fill="white" stroke="black" points="869,-193 869,-223 1021,-223 1021,-193 869,-193"/>
<text text-anchor="start" x="877" y="-211" font-family="Helvetica,sans-Serif" font-size="10.00">view.turtle.TurtleImage.math</text>
<text text-anchor="middle" x="945" y="-200" font-family="Helvetica,sans-Serif" font-size="10.00">CoordsToCanvasCoords</text>
</a>
</g>
</g>
<!-- Node4&#45;&gt;Node15 -->
<g id="edge14" class="edge"><title>Node4&#45;&gt;Node15</title>
<path fill="none" stroke="midnightblue" d="M726.04,-449.734C735.178,-408.001 766.444,-291.252 840,-233 845.805,-228.403 852.325,-224.631 859.196,-221.54"/>
<polygon fill="midnightblue" stroke="midnightblue" points="860.756,-224.686 868.749,-217.732 858.164,-218.183 860.756,-224.686"/>
</g>
<!-- Node16 -->
<g id="node16" class="node"><title>Node16</title>
<g id="a_node16"><a xlink:href="../../db/dce/classmodel_1_1_turtle_update.html#a4a8bce496fed0074bb206694b80de851" target="_top" xlink:title="model.TurtleUpdate.getTurtle\lOldCoordinates">
<polygon fill="white" stroke="black" points="867.5,-144 867.5,-174 1022.5,-174 1022.5,-144 867.5,-144"/>
<text text-anchor="start" x="875.5" y="-162" font-family="Helvetica,sans-Serif" font-size="10.00">model.TurtleUpdate.getTurtle</text>
<text text-anchor="middle" x="945" y="-151" font-family="Helvetica,sans-Serif" font-size="10.00">OldCoordinates</text>
</a>
</g>
</g>
<!-- Node4&#45;&gt;Node16 -->
<g id="edge15" class="edge"><title>Node4&#45;&gt;Node16</title>
<path fill="none" stroke="midnightblue" d="M724.585,-449.728C730.345,-402.379 754.554,-256.863 840,-184 845.316,-179.466 851.317,-175.726 857.685,-172.642"/>
<polygon fill="midnightblue" stroke="midnightblue" points="859.408,-175.713 867.241,-168.579 856.669,-169.271 859.408,-175.713"/>
</g>
<!-- Node17 -->
<g id="node17" class="node"><title>Node17</title>
<g id="a_node17"><a xlink:href="../../d8/d6a/classmodel_1_1_coordinates.html#a52f6ed56424da9a52c598f9c94f2c8ff" target="_top" xlink:title="model.Coordinates.getY">
<polygon fill="white" stroke="black" points="879.5,-105.5 879.5,-124.5 1010.5,-124.5 1010.5,-105.5 879.5,-105.5"/>
<text text-anchor="middle" x="945" y="-112.5" font-family="Helvetica,sans-Serif" font-size="10.00">model.Coordinates.getY</text>
</a>
</g>
</g>
<!-- Node4&#45;&gt;Node17 -->
<g id="edge16" class="edge"><title>Node4&#45;&gt;Node17</title>
<path fill="none" stroke="midnightblue" d="M723.369,-449.982C725.523,-397.493 740.201,-220.786 840,-135 848.433,-127.751 858.687,-122.811 869.431,-119.493"/>
<polygon fill="midnightblue" stroke="midnightblue" points="870.609,-122.802 879.396,-116.883 868.836,-116.031 870.609,-122.802"/>
</g>
<!-- Node18 -->
<g id="node18" class="node"><title>Node18</title>
<g id="a_node18"><a xlink:href="../../db/dce/classmodel_1_1_turtle_update.html#a2b6573ce1d167dd921e9abc9fff7c1dd" target="_top" xlink:title="model.TurtleUpdate.getTurtle\lNewCoordinates">
<polygon fill="white" stroke="black" points="867.5,-916 867.5,-946 1022.5,-946 1022.5,-916 867.5,-916"/>
<text text-anchor="start" x="875.5" y="-934" font-family="Helvetica,sans-Serif" font-size="10.00">model.TurtleUpdate.getTurtle</text>
<text text-anchor="middle" x="945" y="-923" font-family="Helvetica,sans-Serif" font-size="10.00">NewCoordinates</text>
</a>
</g>
</g>
<!-- Node4&#45;&gt;Node18 -->
<g id="edge17" class="edge"><title>Node4&#45;&gt;Node18</title>
<path fill="none" stroke="midnightblue" d="M724.927,-480.095C734.182,-550.257 776.254,-843.73 840,-906 845.297,-911.174 851.467,-915.343 858.11,-918.694"/>
<polygon fill="midnightblue" stroke="midnightblue" points="856.859,-921.968 867.423,-922.775 859.668,-915.556 856.859,-921.968"/>
</g>
<!-- Node19 -->
<g id="node19" class="node"><title>Node19</title>
<g id="a_node19"><a xlink:href="../../dd/ddc/classview_1_1turtle_1_1_turtle_image.html#a6798d71b6457a6b70b472171e64f11f2" target="_top" xlink:title="view.turtle.TurtleImage.hide">
<polygon fill="white" stroke="black" points="872,-877.5 872,-896.5 1018,-896.5 1018,-877.5 872,-877.5"/>
<text text-anchor="middle" x="945" y="-884.5" font-family="Helvetica,sans-Serif" font-size="10.00">view.turtle.TurtleImage.hide</text>
</a>
</g>
</g>
<!-- Node4&#45;&gt;Node19 -->
<g id="edge18" class="edge"><title>Node4&#45;&gt;Node19</title>
<path fill="none" stroke="midnightblue" d="M725.275,-480.147C735.574,-546.703 779.949,-812.302 840,-867 846.518,-872.937 854.244,-877.352 862.495,-880.606"/>
<polygon fill="midnightblue" stroke="midnightblue" points="861.405,-883.932 871.999,-883.806 863.639,-877.298 861.405,-883.932"/>
</g>
<!-- Node20 -->
<g id="node20" class="node"><title>Node20</title>
<g id="a_node20"><a xlink:href="../../db/dce/classmodel_1_1_turtle_update.html#a7288583a573d839635a8773a01563300" target="_top" xlink:title="model.TurtleUpdate.isTurtle\lHidden">
<polygon fill="white" stroke="black" points="872,-828 872,-858 1018,-858 1018,-828 872,-828"/>
<text text-anchor="start" x="880" y="-846" font-family="Helvetica,sans-Serif" font-size="10.00">model.TurtleUpdate.isTurtle</text>
<text text-anchor="middle" x="945" y="-835" font-family="Helvetica,sans-Serif" font-size="10.00">Hidden</text>
</a>
</g>
</g>
<!-- Node4&#45;&gt;Node20 -->
<g id="edge19" class="edge"><title>Node4&#45;&gt;Node20</title>
<path fill="none" stroke="midnightblue" d="M723.128,-480.102C724.449,-534.608 736.616,-722.969 840,-818 846.506,-823.981 854.188,-828.602 862.382,-832.162"/>
<polygon fill="midnightblue" stroke="midnightblue" points="861.226,-835.467 871.817,-835.747 863.712,-828.923 861.226,-835.467"/>
</g>
<!-- Node21 -->
<g id="node21" class="node"><title>Node21</title>
<g id="a_node21"><a xlink:href="../../d4/d93/classview_1_1turtle_1_1_turtle_pen.html#aeb591e6c3666a998228a86dbe9121c35" target="_top" xlink:title="view.turtle.TurtlePen.drawLine">
<polygon fill="white" stroke="black" points="867,-789.5 867,-808.5 1023,-808.5 1023,-789.5 867,-789.5"/>
<text text-anchor="middle" x="945" y="-796.5" font-family="Helvetica,sans-Serif" font-size="10.00">view.turtle.TurtlePen.drawLine</text>
</a>
</g>
</g>
<!-- Node4&#45;&gt;Node21 -->
<g id="edge20" class="edge"><title>Node4&#45;&gt;Node21</title>
<path fill="none" stroke="midnightblue" d="M723.671,-480.011C726.805,-530.876 744.28,-698.039 840,-779 845.235,-783.428 851.151,-786.99 857.439,-789.844"/>
<polygon fill="midnightblue" stroke="midnightblue" points="856.295,-793.155 866.882,-793.539 858.845,-786.636 856.295,-793.155"/>
</g>
<!-- Node25 -->
<g id="node25" class="node"><title>Node25</title>
<g id="a_node25"><a xlink:href="../../dd/ddc/classview_1_1turtle_1_1_turtle_image.html#aca0a62f113534161f725da472e1f4d9f" target="_top" xlink:title="view.turtle.TurtleImage.unanimatedMove">
<polygon fill="white" stroke="black" points="840.5,-67.5 840.5,-86.5 1049.5,-86.5 1049.5,-67.5 840.5,-67.5"/>
<text text-anchor="middle" x="945" y="-74.5" font-family="Helvetica,sans-Serif" font-size="10.00">view.turtle.TurtleImage.unanimatedMove</text>
</a>
</g>
</g>
<!-- Node4&#45;&gt;Node25 -->
<g id="edge24" class="edge"><title>Node4&#45;&gt;Node25</title>
<path fill="none" stroke="midnightblue" d="M722.703,-449.815C722.487,-393.252 729.817,-193.072 840,-96 841.734,-94.472 843.55,-93.0483 845.434,-91.7224"/>
<polygon fill="midnightblue" stroke="midnightblue" points="847.331,-94.666 854.1,-86.5151 843.725,-88.666 847.331,-94.666"/>
</g>
<!-- Node26 -->
<g id="node26" class="node"><title>Node26</title>
<g id="a_node26"><a xlink:href="../../db/dce/classmodel_1_1_turtle_update.html#aff8157b2082cdae408655d87ed85b74e" target="_top" xlink:title="model.TurtleUpdate.getTurtle\lAngle">
<polygon fill="white" stroke="black" points="867.5,-740 867.5,-770 1022.5,-770 1022.5,-740 867.5,-740"/>
<text text-anchor="start" x="875.5" y="-758" font-family="Helvetica,sans-Serif" font-size="10.00">model.TurtleUpdate.getTurtle</text>
<text text-anchor="middle" x="945" y="-747" font-family="Helvetica,sans-Serif" font-size="10.00">Angle</text>
</a>
</g>
</g>
<!-- Node4&#45;&gt;Node26 -->
<g id="edge26" class="edge"><title>Node4&#45;&gt;Node26</title>
<path fill="none" stroke="midnightblue" d="M724.974,-480.06C731.75,-525.428 758.337,-661.846 840,-730 845.364,-734.477 851.398,-738.178 857.789,-741.234"/>
<polygon fill="midnightblue" stroke="midnightblue" points="856.797,-744.614 867.372,-745.266 859.512,-738.162 856.797,-744.614"/>
</g>
<!-- Node27 -->
<g id="node27" class="node"><title>Node27</title>
<g id="a_node27"><a xlink:href="../../de/dfa/classmodel_1_1_angle.html#aa1b069cc47fadd893fe8527c356dd8fd" target="_top" xlink:title="model.Angle.getAngleValue">
<polygon fill="white" stroke="black" points="870.5,-701.5 870.5,-720.5 1019.5,-720.5 1019.5,-701.5 870.5,-701.5"/>
<text text-anchor="middle" x="945" y="-708.5" font-family="Helvetica,sans-Serif" font-size="10.00">model.Angle.getAngleValue</text>
</a>
</g>
</g>
<!-- Node4&#45;&gt;Node27 -->
<g id="edge27" class="edge"><title>Node4&#45;&gt;Node27</title>
<path fill="none" stroke="midnightblue" d="M726.032,-480.056C735.151,-521.182 766.373,-636.005 840,-691 846.266,-695.681 853.322,-699.358 860.731,-702.236"/>
<polygon fill="midnightblue" stroke="midnightblue" points="859.678,-705.575 870.273,-705.47 861.925,-698.945 859.678,-705.575"/>
</g>
<!-- Node28 -->
<g id="node28" class="node"><title>Node28</title>
<g id="a_node28"><a xlink:href="../../dd/ddc/classview_1_1turtle_1_1_turtle_image.html#a958417ed4561c0b910f80944a5110ec7" target="_top" xlink:title="view.turtle.TurtleImage.animatedMove">
<polygon fill="white" stroke="black" points="846.5,-29.5 846.5,-48.5 1043.5,-48.5 1043.5,-29.5 846.5,-29.5"/>
<text text-anchor="middle" x="945" y="-36.5" font-family="Helvetica,sans-Serif" font-size="10.00">view.turtle.TurtleImage.animatedMove</text>
</a>
</g>
</g>
<!-- Node4&#45;&gt;Node28 -->
<g id="edge28" class="edge"><title>Node4&#45;&gt;Node28</title>
<path fill="none" stroke="midnightblue" d="M725.233,-449.653C735.357,-382.221 779.094,-113.144 840,-58 841.531,-56.6141 843.128,-55.3134 844.782,-54.0929"/>
<polygon fill="midnightblue" stroke="midnightblue" points="846.876,-56.9115 853.494,-48.6376 843.161,-50.9788 846.876,-56.9115"/>
</g>
<!-- Node22 -->
<g id="node22" class="node"><title>Node22</title>
<g id="a_node22"><a xlink:href="../../d4/d93/classview_1_1turtle_1_1_turtle_pen.html#a3eea64b5d17767f655096870f4a5850d" target="_top" xlink:title="view.turtle.TurtlePen.draw\lGappedLine">
<polygon fill="white" stroke="black" points="1096.5,-784 1096.5,-814 1233.5,-814 1233.5,-784 1096.5,-784"/>
<text text-anchor="start" x="1104.5" y="-802" font-family="Helvetica,sans-Serif" font-size="10.00">view.turtle.TurtlePen.draw</text>
<text text-anchor="middle" x="1165" y="-791" font-family="Helvetica,sans-Serif" font-size="10.00">GappedLine</text>
</a>
</g>
</g>
<!-- Node21&#45;&gt;Node22 -->
<g id="edge21" class="edge"><title>Node21&#45;&gt;Node22</title>
<path fill="none" stroke="midnightblue" d="M1023.17,-799C1043.6,-799 1065.67,-799 1086.14,-799"/>
<polygon fill="midnightblue" stroke="midnightblue" points="1086.36,-802.5 1096.36,-799 1086.36,-795.5 1086.36,-802.5"/>
</g>
<!-- Node23 -->
<g id="node23" class="node"><title>Node23</title>
<g id="a_node23"><a xlink:href="../../d4/d93/classview_1_1turtle_1_1_turtle_pen.html#a78a412ae5c294fd37981146020ea4009" target="_top" xlink:title="view.turtle.TurtlePen.generate\lDashVectorArray">
<polygon fill="white" stroke="black" points="1280,-784 1280,-814 1438,-814 1438,-784 1280,-784"/>
<text text-anchor="start" x="1288" y="-802" font-family="Helvetica,sans-Serif" font-size="10.00">view.turtle.TurtlePen.generate</text>
<text text-anchor="middle" x="1359" y="-791" font-family="Helvetica,sans-Serif" font-size="10.00">DashVectorArray</text>
</a>
</g>
</g>
<!-- Node22&#45;&gt;Node23 -->
<g id="edge22" class="edge"><title>Node22&#45;&gt;Node23</title>
<path fill="none" stroke="midnightblue" d="M1233.69,-799C1245.33,-799 1257.58,-799 1269.67,-799"/>
<polygon fill="midnightblue" stroke="midnightblue" points="1269.77,-802.5 1279.77,-799 1269.77,-795.5 1269.77,-802.5"/>
</g>
<!-- Node24 -->
<g id="node24" class="node"><title>Node24</title>
<g id="a_node24"><a xlink:href="../../d4/d93/classview_1_1turtle_1_1_turtle_pen.html#a1553953625d014db95e9af6faa83e667" target="_top" xlink:title="view.turtle.TurtlePen.get\lUnitVector">
<polygon fill="white" stroke="black" points="1474,-784 1474,-814 1604,-814 1604,-784 1474,-784"/>
<text text-anchor="start" x="1482" y="-802" font-family="Helvetica,sans-Serif" font-size="10.00">view.turtle.TurtlePen.get</text>
<text text-anchor="middle" x="1539" y="-791" font-family="Helvetica,sans-Serif" font-size="10.00">UnitVector</text>
</a>
</g>
</g>
<!-- Node23&#45;&gt;Node24 -->
<g id="edge23" class="edge"><title>Node23&#45;&gt;Node24</title>
<path fill="none" stroke="midnightblue" d="M1438.07,-799C1446.57,-799 1455.21,-799 1463.66,-799"/>
<polygon fill="midnightblue" stroke="midnightblue" points="1463.86,-802.5 1473.86,-799 1463.86,-795.5 1463.86,-802.5"/>
</g>
<!-- Node25&#45;&gt;Node3 -->
<g id="edge25" class="edge"><title>Node25&#45;&gt;Node3</title>
<path fill="none" stroke="midnightblue" d="M840.258,-77C770.212,-77 679.069,-77 614.285,-77"/>
<polygon fill="midnightblue" stroke="midnightblue" points="614.122,-73.5001 604.122,-77 614.121,-80.5001 614.122,-73.5001"/>
</g>
<!-- Node28&#45;&gt;Node3 -->
<g id="edge31" class="edge"><title>Node28&#45;&gt;Node3</title>
<path fill="none" stroke="midnightblue" d="M846.448,-48.0194C775.613,-54.5686 680.883,-63.3271 614.168,-69.4955"/>
<polygon fill="midnightblue" stroke="midnightblue" points="613.757,-66.0184 604.122,-70.4243 614.401,-72.9887 613.757,-66.0184"/>
</g>
<!-- Node29 -->
<g id="node29" class="node"><title>Node29</title>
<g id="a_node29"><a xlink:href="../../dd/ddc/classview_1_1turtle_1_1_turtle_image.html#afad70374651ad6165f7d48b7bf268d71" target="_top" xlink:title="view.turtle.TurtleImage.create\lRotateTransition">
<polygon fill="white" stroke="black" points="1086.5,-0 1086.5,-30 1243.5,-30 1243.5,-0 1086.5,-0"/>
<text text-anchor="start" x="1094.5" y="-18" font-family="Helvetica,sans-Serif" font-size="10.00">view.turtle.TurtleImage.create</text>
<text text-anchor="middle" x="1165" y="-7" font-family="Helvetica,sans-Serif" font-size="10.00">RotateTransition</text>
</a>
</g>
</g>
<!-- Node28&#45;&gt;Node29 -->
<g id="edge29" class="edge"><title>Node28&#45;&gt;Node29</title>
<path fill="none" stroke="midnightblue" d="M1032.47,-29.4801C1046.96,-27.8851 1062,-26.229 1076.52,-24.6312"/>
<polygon fill="midnightblue" stroke="midnightblue" points="1076.91,-28.1092 1086.47,-23.5358 1076.14,-21.1512 1076.91,-28.1092"/>
</g>
<!-- Node30 -->
<g id="node30" class="node"><title>Node30</title>
<g id="a_node30"><a xlink:href="../../dd/ddc/classview_1_1turtle_1_1_turtle_image.html#a579bab57c4e802a8a119ba0253b58ed9" target="_top" xlink:title="view.turtle.TurtleImage.create\lTranslateTransition">
<polygon fill="white" stroke="black" points="1086.5,-49 1086.5,-79 1243.5,-79 1243.5,-49 1086.5,-49"/>
<text text-anchor="start" x="1094.5" y="-67" font-family="Helvetica,sans-Serif" font-size="10.00">view.turtle.TurtleImage.create</text>
<text text-anchor="middle" x="1165" y="-56" font-family="Helvetica,sans-Serif" font-size="10.00">TranslateTransition</text>
</a>
</g>
</g>
<!-- Node28&#45;&gt;Node30 -->
<g id="edge30" class="edge"><title>Node28&#45;&gt;Node30</title>
<path fill="none" stroke="midnightblue" d="M1029.04,-48.5227C1044.44,-50.2886 1060.57,-52.1385 1076.11,-53.9203"/>
<polygon fill="midnightblue" stroke="midnightblue" points="1075.88,-57.4176 1086.22,-55.0798 1076.68,-50.4631 1075.88,-57.4176"/>
</g>
</g>
</svg>
