<?xml version="1.0" encoding="UTF-8" standalone="no"?>
<!DOCTYPE svg PUBLIC "-//W3C//DTD SVG 1.1//EN"
 "http://www.w3.org/Graphics/SVG/1.1/DTD/svg11.dtd">
<!-- Generated by graphviz version 2.36.0 (20140111.2315)
 -->
<!-- Title: view.components.SLogoWorkspace.addTurtleWindow Pages: 1 -->
<svg width="434pt" height="38pt"
 viewBox="0.00 0.00 434.00 38.00" xmlns="http://www.w3.org/2000/svg" xmlns:xlink="http://www.w3.org/1999/xlink">
<g id="graph0" class="graph" transform="scale(1 1) rotate(0) translate(4 34)">
<title>view.components.SLogoWorkspace.addTurtleWindow</title>
<polygon fill="white" stroke="none" points="-4,4 -4,-34 430,-34 430,4 -4,4"/>
<!-- Node1 -->
<g id="node1" class="node"><title>Node1</title>
<polygon fill="#bfbfbf" stroke="black" points="0,-0 0,-30 204,-30 204,-0 0,-0"/>
<text text-anchor="start" x="8" y="-18" font-family="Helvetica,sans-Serif" font-size="10.00">view.components.SLogoWorkspace.add</text>
<text text-anchor="middle" x="102" y="-7" font-family="Helvetica,sans-Serif" font-size="10.00">TurtleWindow</text>
</g>
<!-- Node2 -->
<g id="node2" class="node"><title>Node2</title>
<g id="a_node2"><a xlink:href="../../de/d30/classview_1_1components_1_1_s_logo_workspace.html#a58844127b2b82d9a8abff3a4cd3d747b" target="_top" xlink:title="view.components.SLogoWorkspace.\lSLogoWorkspace">
<polygon fill="white" stroke="black" points="240,-0 240,-30 426,-30 426,-0 240,-0"/>
<text text-anchor="start" x="248" y="-18" font-family="Helvetica,sans-Serif" font-size="10.00">view.components.SLogoWorkspace.</text>
<text text-anchor="middle" x="333" y="-7" font-family="Helvetica,sans-Serif" font-size="10.00">SLogoWorkspace</text>
</a>
</g>
</g>
<!-- Node1&#45;&gt;Node2 -->
<g id="edge1" class="edge"><title>Node1&#45;&gt;Node2</title>
<path fill="none" stroke="midnightblue" d="M214.152,-15C222.727,-15 231.327,-15 239.759,-15"/>
<polygon fill="midnightblue" stroke="midnightblue" points="214.109,-11.5001 204.109,-15 214.109,-18.5001 214.109,-11.5001"/>
</g>
</g>
</svg>
