<?xml version="1.0" encoding="UTF-8" standalone="no"?>
<!DOCTYPE svg PUBLIC "-//W3C//DTD SVG 1.1//EN"
 "http://www.w3.org/Graphics/SVG/1.1/DTD/svg11.dtd">
<!-- Generated by graphviz version 2.36.0 (20140111.2315)
 -->
<!-- Title: view.components.SLogoWorkspace.SLogoWorkspace Pages: 1 -->
<svg width="670pt" height="185pt"
 viewBox="0.00 0.00 670.00 185.00" xmlns="http://www.w3.org/2000/svg" xmlns:xlink="http://www.w3.org/1999/xlink">
<g id="graph0" class="graph" transform="scale(1 1) rotate(0) translate(4 181)">
<title>view.components.SLogoWorkspace.SLogoWorkspace</title>
<polygon fill="white" stroke="none" points="-4,4 -4,-181 666,-181 666,4 -4,4"/>
<!-- Node1 -->
<g id="node1" class="node"><title>Node1</title>
<polygon fill="#bfbfbf" stroke="black" points="0,-73 0,-103 186,-103 186,-73 0,-73"/>
<text text-anchor="start" x="8" y="-91" font-family="Helvetica,sans-Serif" font-size="10.00">view.components.SLogoWorkspace.</text>
<text text-anchor="middle" x="93" y="-80" font-family="Helvetica,sans-Serif" font-size="10.00">SLogoWorkspace</text>
</g>
<!-- Node2 -->
<g id="node2" class="node"><title>Node2</title>
<g id="a_node2"><a xlink:href="../../de/d30/classview_1_1components_1_1_s_logo_workspace.html#ad2322d26c2ab8bb5d5bfc6c11421c101" target="_top" xlink:title="view.components.SLogoWorkspace.add\lCommandPortWindow">
<polygon fill="white" stroke="black" points="222,-147 222,-177 426,-177 426,-147 222,-147"/>
<text text-anchor="start" x="230" y="-165" font-family="Helvetica,sans-Serif" font-size="10.00">view.components.SLogoWorkspace.add</text>
<text text-anchor="middle" x="324" y="-154" font-family="Helvetica,sans-Serif" font-size="10.00">CommandPortWindow</text>
</a>
</g>
</g>
<!-- Node1&#45;&gt;Node2 -->
<g id="edge1" class="edge"><title>Node1&#45;&gt;Node2</title>
<path fill="none" stroke="midnightblue" d="M129.722,-103.031C155.167,-113.403 190.329,-127.06 222,-137 230.202,-139.574 238.845,-142.055 247.481,-144.389"/>
<polygon fill="midnightblue" stroke="midnightblue" points="246.643,-147.788 257.206,-146.958 248.432,-141.02 246.643,-147.788"/>
</g>
<!-- Node3 -->
<g id="node3" class="node"><title>Node3</title>
<g id="a_node3"><a xlink:href="../../de/d30/classview_1_1components_1_1_s_logo_workspace.html#a97f6905e38fcb41e0ee7fc281d9e253f" target="_top" xlink:title="view.components.SLogoWorkspace.add\lListWindows">
<polygon fill="white" stroke="black" points="222,-98 222,-128 426,-128 426,-98 222,-98"/>
<text text-anchor="start" x="230" y="-116" font-family="Helvetica,sans-Serif" font-size="10.00">view.components.SLogoWorkspace.add</text>
<text text-anchor="middle" x="324" y="-105" font-family="Helvetica,sans-Serif" font-size="10.00">ListWindows</text>
</a>
</g>
</g>
<!-- Node1&#45;&gt;Node3 -->
<g id="edge2" class="edge"><title>Node1&#45;&gt;Node3</title>
<path fill="none" stroke="midnightblue" d="M186.153,-98.0604C194.55,-98.9771 203.114,-99.912 211.654,-100.844"/>
<polygon fill="midnightblue" stroke="midnightblue" points="211.337,-104.33 221.658,-101.936 212.096,-97.3717 211.337,-104.33"/>
</g>
<!-- Node5 -->
<g id="node5" class="node"><title>Node5</title>
<g id="a_node5"><a xlink:href="../../de/d30/classview_1_1components_1_1_s_logo_workspace.html#ad5530155fffb23a907eae04677596f66" target="_top" xlink:title="view.components.SLogoWorkspace.add\lToolbar">
<polygon fill="white" stroke="black" points="222,-49 222,-79 426,-79 426,-49 222,-49"/>
<text text-anchor="start" x="230" y="-67" font-family="Helvetica,sans-Serif" font-size="10.00">view.components.SLogoWorkspace.add</text>
<text text-anchor="middle" x="324" y="-56" font-family="Helvetica,sans-Serif" font-size="10.00">Toolbar</text>
</a>
</g>
</g>
<!-- Node1&#45;&gt;Node5 -->
<g id="edge4" class="edge"><title>Node1&#45;&gt;Node5</title>
<path fill="none" stroke="midnightblue" d="M186.153,-78.342C194.55,-77.462 203.114,-76.5645 211.654,-75.6694"/>
<polygon fill="midnightblue" stroke="midnightblue" points="212.077,-79.1444 221.658,-74.621 211.347,-72.1825 212.077,-79.1444"/>
</g>
<!-- Node7 -->
<g id="node7" class="node"><title>Node7</title>
<g id="a_node7"><a xlink:href="../../de/d30/classview_1_1components_1_1_s_logo_workspace.html#a9a79399c07620a8f8e008ffa6f928c99" target="_top" xlink:title="view.components.SLogoWorkspace.add\lTurtleWindow">
<polygon fill="white" stroke="black" points="222,-0 222,-30 426,-30 426,-0 222,-0"/>
<text text-anchor="start" x="230" y="-18" font-family="Helvetica,sans-Serif" font-size="10.00">view.components.SLogoWorkspace.add</text>
<text text-anchor="middle" x="324" y="-7" font-family="Helvetica,sans-Serif" font-size="10.00">TurtleWindow</text>
</a>
</g>
</g>
<!-- Node1&#45;&gt;Node7 -->
<g id="edge6" class="edge"><title>Node1&#45;&gt;Node7</title>
<path fill="none" stroke="midnightblue" d="M130.576,-72.9901C155.966,-62.8914 190.718,-49.7011 222,-40 230.274,-37.4343 238.991,-34.9526 247.697,-32.6134"/>
<polygon fill="midnightblue" stroke="midnightblue" points="248.715,-35.9647 257.496,-30.0362 246.934,-29.195 248.715,-35.9647"/>
</g>
<!-- Node4 -->
<g id="node4" class="node"><title>Node4</title>
<g id="a_node4"><a xlink:href="../../de/d30/classview_1_1components_1_1_s_logo_workspace.html#afc3ca9b83f5f6a223f0ca7973fe39006" target="_top" xlink:title="view.components.SLogoWorkspace.init\lLists">
<polygon fill="white" stroke="black" points="462,-98 462,-128 662,-128 662,-98 462,-98"/>
<text text-anchor="start" x="470" y="-116" font-family="Helvetica,sans-Serif" font-size="10.00">view.components.SLogoWorkspace.init</text>
<text text-anchor="middle" x="562" y="-105" font-family="Helvetica,sans-Serif" font-size="10.00">Lists</text>
</a>
</g>
</g>
<!-- Node3&#45;&gt;Node4 -->
<g id="edge3" class="edge"><title>Node3&#45;&gt;Node4</title>
<path fill="none" stroke="midnightblue" d="M426.112,-113C434.655,-113 443.318,-113 451.917,-113"/>
<polygon fill="midnightblue" stroke="midnightblue" points="451.972,-116.5 461.972,-113 451.972,-109.5 451.972,-116.5"/>
</g>
<!-- Node6 -->
<g id="node6" class="node"><title>Node6</title>
<g id="a_node6"><a xlink:href="../../df/dd6/classview_1_1toolbar_1_1_toolbar.html#abae6df669b62c580f7869d6d0c60c02d" target="_top" xlink:title="view.toolbar.Toolbar.set\lTurtleWindow">
<polygon fill="white" stroke="black" points="499,-49 499,-79 625,-79 625,-49 499,-49"/>
<text text-anchor="start" x="507" y="-67" font-family="Helvetica,sans-Serif" font-size="10.00">view.toolbar.Toolbar.set</text>
<text text-anchor="middle" x="562" y="-56" font-family="Helvetica,sans-Serif" font-size="10.00">TurtleWindow</text>
</a>
</g>
</g>
<!-- Node5&#45;&gt;Node6 -->
<g id="edge5" class="edge"><title>Node5&#45;&gt;Node6</title>
<path fill="none" stroke="midnightblue" d="M426.112,-64C447.206,-64 469.036,-64 488.828,-64"/>
<polygon fill="midnightblue" stroke="midnightblue" points="488.978,-67.5001 498.978,-64 488.978,-60.5001 488.978,-67.5001"/>
</g>
</g>
</svg>
