<?xml version="1.0" encoding="UTF-8" standalone="no"?>
<!DOCTYPE svg PUBLIC "-//W3C//DTD SVG 1.1//EN"
 "http://www.w3.org/Graphics/SVG/1.1/DTD/svg11.dtd">
<!-- Generated by graphviz version 2.36.0 (20140111.2315)
 -->
<!-- Title: model.VariablesCollection Pages: 1 -->
<svg width="498pt" height="164pt"
 viewBox="0.00 0.00 498.00 164.00" xmlns="http://www.w3.org/2000/svg" xmlns:xlink="http://www.w3.org/1999/xlink">
<g id="graph0" class="graph" transform="scale(1 1) rotate(0) translate(4 160)">
<title>model.VariablesCollection</title>
<polygon fill="white" stroke="none" points="-4,4 -4,-160 494,-160 494,4 -4,4"/>
<!-- Node1 -->
<g id="node1" class="node"><title>Node1</title>
<polygon fill="#bfbfbf" stroke="black" points="154,-0.5 154,-19.5 294,-19.5 294,-0.5 154,-0.5"/>
<text text-anchor="middle" x="224" y="-7.5" font-family="Helvetica,sans-Serif" font-size="10.00">model.VariablesCollection</text>
</g>
<!-- Node2 -->
<g id="node2" class="node"><title>Node2</title>
<g id="a_node2"><a xlink:href="../../df/d15/interfacemodel_1_1_i_variables_collection.html" target="_top" xlink:title="model.IVariablesCollection">
<polygon fill="white" stroke="black" points="0,-78.5 0,-97.5 142,-97.5 142,-78.5 0,-78.5"/>
<text text-anchor="middle" x="71" y="-85.5" font-family="Helvetica,sans-Serif" font-size="10.00">model.IVariablesCollection</text>
</a>
</g>
</g>
<!-- Node2&#45;&gt;Node1 -->
<g id="edge1" class="edge"><title>Node2&#45;&gt;Node1</title>
<path fill="none" stroke="midnightblue" d="M97.261,-73.9553C128.519,-58.4283 179.839,-32.9362 206.575,-19.6557"/>
<polygon fill="midnightblue" stroke="midnightblue" points="95.6525,-70.8462 88.2536,-78.4296 98.7667,-77.1154 95.6525,-70.8462"/>
</g>
<!-- Node3 -->
<g id="node3" class="node"><title>Node3</title>
<g id="a_node3"><a xlink:href="../../dc/ddc/interfacemodel_1_1_observable.html" target="_top" xlink:title="model.Observable">
<polygon fill="white" stroke="black" points="19,-136.5 19,-155.5 123,-155.5 123,-136.5 19,-136.5"/>
<text text-anchor="middle" x="71" y="-143.5" font-family="Helvetica,sans-Serif" font-size="10.00">model.Observable</text>
</a>
</g>
</g>
<!-- Node3&#45;&gt;Node2 -->
<g id="edge2" class="edge"><title>Node3&#45;&gt;Node2</title>
<path fill="none" stroke="midnightblue" d="M71,-125.953C71,-116.287 71,-105.031 71,-97.5052"/>
<polygon fill="midnightblue" stroke="midnightblue" points="67.5001,-126.25 71,-136.25 74.5001,-126.25 67.5001,-126.25"/>
</g>
<!-- Node4 -->
<g id="node4" class="node"><title>Node4</title>
<polygon fill="white" stroke="#bfbfbf" points="160.5,-78.5 160.5,-97.5 287.5,-97.5 287.5,-78.5 160.5,-78.5"/>
<text text-anchor="middle" x="224" y="-85.5" font-family="Helvetica,sans-Serif" font-size="10.00">List&lt; model.Variable &gt;</text>
</g>
<!-- Node4&#45;&gt;Node1 -->
<g id="edge3" class="edge"><title>Node4&#45;&gt;Node1</title>
<path fill="none" stroke="#9a32cd" stroke-dasharray="5,2" d="M224,-68.2239C224,-52.6974 224,-31.3582 224,-19.6165"/>
<polygon fill="#9a32cd" stroke="#9a32cd" points="220.5,-68.2818 224,-78.2818 227.5,-68.2819 220.5,-68.2818"/>
<text text-anchor="middle" x="268" y="-52" font-family="Helvetica,sans-Serif" font-size="10.00"> myVariableList</text>
<text text-anchor="middle" x="268" y="-41" font-family="Helvetica,sans-Serif" font-size="10.00">waitingVariableList</text>
</g>
<!-- Node5 -->
<g id="node5" class="node"><title>Node5</title>
<polygon fill="white" stroke="#bfbfbf" points="305.5,-78.5 305.5,-97.5 490.5,-97.5 490.5,-78.5 305.5,-78.5"/>
<text text-anchor="middle" x="398" y="-85.5" font-family="Helvetica,sans-Serif" font-size="10.00">List&lt; view.components.Observer &gt;</text>
</g>
<!-- Node5&#45;&gt;Node1 -->
<g id="edge4" class="edge"><title>Node5&#45;&gt;Node1</title>
<path fill="none" stroke="#9a32cd" stroke-dasharray="5,2" d="M377.139,-72.5129C361.022,-61.829 337.849,-47.5495 316,-38 298.459,-30.3337 278.113,-24.1065 261.02,-19.5726"/>
<polygon fill="#9a32cd" stroke="#9a32cd" points="375.504,-75.6315 385.75,-78.3251 379.42,-69.8295 375.504,-75.6315"/>
<text text-anchor="middle" x="395.5" y="-46.5" font-family="Helvetica,sans-Serif" font-size="10.00"> myObserverList</text>
</g>
</g>
</svg>
