<?xml version="1.0" encoding="UTF-8" standalone="no"?>
<!DOCTYPE svg PUBLIC "-//W3C//DTD SVG 1.1//EN"
 "http://www.w3.org/Graphics/SVG/1.1/DTD/svg11.dtd">
<!-- Generated by graphviz version 2.36.0 (20140111.2315)
 -->
<!-- Title: view.toolbar.TurtleImageToolbarItem Pages: 1 -->
<svg width="144pt" height="220pt"
 viewBox="0.00 0.00 144.00 220.00" xmlns="http://www.w3.org/2000/svg" xmlns:xlink="http://www.w3.org/1999/xlink">
<g id="graph0" class="graph" transform="scale(1 1) rotate(0) translate(4 216)">
<title>view.toolbar.TurtleImageToolbarItem</title>
<polygon fill="white" stroke="none" points="-4,4 -4,-216 140,-216 140,4 -4,4"/>
<!-- Node1 -->
<g id="node1" class="node"><title>Node1</title>
<polygon fill="#bfbfbf" stroke="black" points="2.5,-1 2.5,-31 133.5,-31 133.5,-1 2.5,-1"/>
<text text-anchor="start" x="10.5" y="-19" font-family="Helvetica,sans-Serif" font-size="10.00">view.toolbar.TurtleImage</text>
<text text-anchor="middle" x="68" y="-8" font-family="Helvetica,sans-Serif" font-size="10.00">ToolbarItem</text>
</g>
<!-- Node2 -->
<g id="node2" class="node"><title>Node2</title>
<g id="a_node2"><a xlink:href="../../d2/d72/classview_1_1toolbar_1_1_turtle_specific_toolbar_item.html" target="_top" xlink:title="view.toolbar.TurtleSpecific\lToolbarItem">
<polygon fill="white" stroke="black" points="-0.5,-69 -0.5,-99 136.5,-99 136.5,-69 -0.5,-69"/>
<text text-anchor="start" x="7.5" y="-87" font-family="Helvetica,sans-Serif" font-size="10.00">view.toolbar.TurtleSpecific</text>
<text text-anchor="middle" x="68" y="-76" font-family="Helvetica,sans-Serif" font-size="10.00">ToolbarItem</text>
</a>
</g>
</g>
<!-- Node2&#45;&gt;Node1 -->
<g id="edge1" class="edge"><title>Node2&#45;&gt;Node1</title>
<path fill="none" stroke="midnightblue" d="M68,-58.5322C68,-49.3606 68,-39.2449 68,-31.2931"/>
<polygon fill="midnightblue" stroke="midnightblue" points="64.5001,-58.6789 68,-68.679 71.5001,-58.679 64.5001,-58.6789"/>
</g>
<!-- Node3 -->
<g id="node3" class="node"><title>Node3</title>
<g id="a_node3"><a xlink:href="../../dc/de6/classview_1_1toolbar_1_1_toolbar_item.html" target="_top" xlink:title="view.toolbar.ToolbarItem">
<polygon fill="white" stroke="black" points="2.5,-136.5 2.5,-155.5 133.5,-155.5 133.5,-136.5 2.5,-136.5"/>
<text text-anchor="middle" x="68" y="-143.5" font-family="Helvetica,sans-Serif" font-size="10.00">view.toolbar.ToolbarItem</text>
</a>
</g>
</g>
<!-- Node3&#45;&gt;Node2 -->
<g id="edge2" class="edge"><title>Node3&#45;&gt;Node2</title>
<path fill="none" stroke="midnightblue" d="M68,-126.371C68,-117.585 68,-107.272 68,-99.1408"/>
<polygon fill="midnightblue" stroke="midnightblue" points="64.5001,-126.403 68,-136.403 71.5001,-126.403 64.5001,-126.403"/>
</g>
<!-- Node4 -->
<g id="node4" class="node"><title>Node4</title>
<polygon fill="white" stroke="#bfbfbf" points="47,-192.5 47,-211.5 89,-211.5 89,-192.5 47,-192.5"/>
<text text-anchor="middle" x="68" y="-199.5" font-family="Helvetica,sans-Serif" font-size="10.00">HBox</text>
</g>
<!-- Node4&#45;&gt;Node3 -->
<g id="edge3" class="edge"><title>Node4&#45;&gt;Node3</title>
<path fill="none" stroke="midnightblue" d="M68,-181.805C68,-172.91 68,-162.78 68,-155.751"/>
<polygon fill="midnightblue" stroke="midnightblue" points="64.5001,-182.083 68,-192.083 71.5001,-182.083 64.5001,-182.083"/>
</g>
</g>
</svg>
