<?xml version="1.0" encoding="UTF-8" standalone="no"?>
<!DOCTYPE svg PUBLIC "-//W3C//DTD SVG 1.1//EN"
 "http://www.w3.org/Graphics/SVG/1.1/DTD/svg11.dtd">
<!-- Generated by graphviz version 2.36.0 (20140111.2315)
 -->
<!-- Title: view.turtle.TurtlePen Pages: 1 -->
<svg width="322pt" height="96pt"
 viewBox="0.00 0.00 322.00 96.00" xmlns="http://www.w3.org/2000/svg" xmlns:xlink="http://www.w3.org/1999/xlink">
<g id="graph0" class="graph" transform="scale(1 1) rotate(0) translate(4 92)">
<title>view.turtle.TurtlePen</title>
<polygon fill="white" stroke="none" points="-4,4 -4,-92 318,-92 318,4 -4,4"/>
<!-- Node1 -->
<g id="node1" class="node"><title>Node1</title>
<polygon fill="#bfbfbf" stroke="black" points="98.5,-0.5 98.5,-19.5 209.5,-19.5 209.5,-0.5 98.5,-0.5"/>
<text text-anchor="middle" x="154" y="-7.5" font-family="Helvetica,sans-Serif" font-size="10.00">view.turtle.TurtlePen</text>
</g>
<!-- Node2 -->
<g id="node2" class="node"><title>Node2</title>
<polygon fill="white" stroke="#bfbfbf" points="-0.5,-68.5 -0.5,-87.5 90.5,-87.5 90.5,-68.5 -0.5,-68.5"/>
<text text-anchor="middle" x="45" y="-75.5" font-family="Helvetica,sans-Serif" font-size="10.00">DoubleProperty</text>
</g>
<!-- Node2&#45;&gt;Node1 -->
<g id="edge1" class="edge"><title>Node2&#45;&gt;Node1</title>
<path fill="none" stroke="#9a32cd" stroke-dasharray="5,2" d="M67.4551,-62.9216C79.4459,-55.4489 94.4808,-46.1506 108,-38 118.31,-31.7845 130.011,-24.919 139.031,-19.6665"/>
<polygon fill="#9a32cd" stroke="#9a32cd" points="65.582,-59.9649 58.9545,-68.2309 69.2902,-65.902 65.582,-59.9649"/>
<text text-anchor="middle" x="129" y="-41.5" font-family="Helvetica,sans-Serif" font-size="10.00"> penSize</text>
</g>
<!-- Node3 -->
<g id="node3" class="node"><title>Node3</title>
<polygon fill="white" stroke="#bfbfbf" points="108.5,-68.5 108.5,-87.5 199.5,-87.5 199.5,-68.5 108.5,-68.5"/>
<text text-anchor="middle" x="154" y="-75.5" font-family="Helvetica,sans-Serif" font-size="10.00">IntegerProperty</text>
</g>
<!-- Node3&#45;&gt;Node1 -->
<g id="edge2" class="edge"><title>Node3&#45;&gt;Node1</title>
<path fill="none" stroke="#9a32cd" stroke-dasharray="5,2" d="M154,-58.0413C154,-45.4724 154,-29.5631 154,-19.8411"/>
<polygon fill="#9a32cd" stroke="#9a32cd" points="150.5,-58.3716 154,-68.3717 157.5,-58.3717 150.5,-58.3716"/>
<text text-anchor="middle" x="190" y="-41.5" font-family="Helvetica,sans-Serif" font-size="10.00"> penColorIndex</text>
</g>
<!-- Node4 -->
<g id="node4" class="node"><title>Node4</title>
<polygon fill="white" stroke="#bfbfbf" points="218,-68.5 218,-87.5 314,-87.5 314,-68.5 218,-68.5"/>
<text text-anchor="middle" x="266" y="-75.5" font-family="Helvetica,sans-Serif" font-size="10.00">GraphicsContext</text>
</g>
<!-- Node4&#45;&gt;Node1 -->
<g id="edge3" class="edge"><title>Node4&#45;&gt;Node1</title>
<path fill="none" stroke="#9a32cd" stroke-dasharray="5,2" d="M253.552,-60.1344C247.211,-52.5119 238.955,-43.91 230,-38 217.612,-29.8242 202.453,-23.7899 188.941,-19.5254"/>
<polygon fill="#9a32cd" stroke="#9a32cd" points="251.118,-62.7027 260.042,-68.4127 256.627,-58.3836 251.118,-62.7027"/>
<text text-anchor="middle" x="251.5" y="-41.5" font-family="Helvetica,sans-Serif" font-size="10.00"> gc</text>
</g>
</g>
</svg>
