<?xml version="1.0" encoding="UTF-8" standalone="no"?>
<!DOCTYPE svg PUBLIC "-//W3C//DTD SVG 1.1//EN"
 "http://www.w3.org/Graphics/SVG/1.1/DTD/svg11.dtd">
<!-- Generated by graphviz version 2.36.0 (20140111.2315)
 -->
<!-- Title: model.VariableFactory.createVariable Pages: 1 -->
<svg width="556pt" height="38pt"
 viewBox="0.00 0.00 556.00 38.00" xmlns="http://www.w3.org/2000/svg" xmlns:xlink="http://www.w3.org/1999/xlink">
<g id="graph0" class="graph" transform="scale(1 1) rotate(0) translate(4 34)">
<title>model.VariableFactory.createVariable</title>
<polygon fill="white" stroke="none" points="-4,4 -4,-34 552,-34 552,4 -4,4"/>
<!-- Node1 -->
<g id="node1" class="node"><title>Node1</title>
<polygon fill="#bfbfbf" stroke="black" points="0.5,-0 0.5,-30 155.5,-30 155.5,-0 0.5,-0"/>
<text text-anchor="start" x="8.5" y="-18" font-family="Helvetica,sans-Serif" font-size="10.00">model.VariableFactory.create</text>
<text text-anchor="middle" x="78" y="-7" font-family="Helvetica,sans-Serif" font-size="10.00">Variable</text>
</g>
<!-- Node2 -->
<g id="node2" class="node"><title>Node2</title>
<g id="a_node2"><a xlink:href="../../d6/d00/classmodel_1_1_variables_collection.html#add84dfc7ce130a9bde135a9bf1d080ff" target="_top" xlink:title="model.VariablesCollection.add\lVariable">
<polygon fill="white" stroke="black" points="192.5,-0 192.5,-30 353.5,-30 353.5,-0 192.5,-0"/>
<text text-anchor="start" x="200.5" y="-18" font-family="Helvetica,sans-Serif" font-size="10.00">model.VariablesCollection.add</text>
<text text-anchor="middle" x="273" y="-7" font-family="Helvetica,sans-Serif" font-size="10.00">Variable</text>
</a>
</g>
</g>
<!-- Node1&#45;&gt;Node2 -->
<g id="edge1" class="edge"><title>Node1&#45;&gt;Node2</title>
<path fill="none" stroke="midnightblue" d="M165.566,-15C174.489,-15 183.527,-15 192.371,-15"/>
<polygon fill="midnightblue" stroke="midnightblue" points="165.556,-11.5001 155.556,-15 165.556,-18.5001 165.556,-11.5001"/>
</g>
<!-- Node3 -->
<g id="node3" class="node"><title>Node3</title>
<g id="a_node3"><a xlink:href="../../d6/d00/classmodel_1_1_variables_collection.html#a9060d5c67d836153c2e0daff3b92c297" target="_top" xlink:title="model.VariablesCollection.get\lVariableValue">
<polygon fill="white" stroke="black" points="390,-0 390,-30 548,-30 548,-0 390,-0"/>
<text text-anchor="start" x="398" y="-18" font-family="Helvetica,sans-Serif" font-size="10.00">model.VariablesCollection.get</text>
<text text-anchor="middle" x="469" y="-7" font-family="Helvetica,sans-Serif" font-size="10.00">VariableValue</text>
</a>
</g>
</g>
<!-- Node2&#45;&gt;Node3 -->
<g id="edge2" class="edge"><title>Node2&#45;&gt;Node3</title>
<path fill="none" stroke="midnightblue" d="M363.868,-15C372.533,-15 381.275,-15 389.815,-15"/>
<polygon fill="midnightblue" stroke="midnightblue" points="363.747,-11.5001 353.747,-15 363.747,-18.5001 363.747,-11.5001"/>
</g>
</g>
</svg>
