<?xml version="1.0" encoding="UTF-8" standalone="no"?>
<!DOCTYPE svg PUBLIC "-//W3C//DTD SVG 1.1//EN"
 "http://www.w3.org/Graphics/SVG/1.1/DTD/svg11.dtd">
<!-- Generated by graphviz version 2.36.0 (20140111.2315)
 -->
<!-- Title: model.VariableFactory.createVariable Pages: 1 -->
<!--zoomable 109 -->
<svg id="main" version="1.1" xmlns="http://www.w3.org/2000/svg" xmlns:xlink="http://www.w3.org/1999/xlink" xml:space="preserve" onload="init(evt)">
<style type="text/css"><![CDATA[
.edge:hover path { stroke: red; }
.edge:hover polygon { stroke: red; fill: red; }
]]></style>
<script type="text/javascript"><![CDATA[
var edges = document.getElementsByTagName('g');
if (edges && edges.length) {
  for (var i=0;i<edges.length;i++) {
    if (edges[i].id.substr(0,4)=='edge') {
      edges[i].setAttribute('class','edge');
    }
  }
}
]]></script>
        <defs>
                <circle id="rim" cx="0" cy="0" r="7"/>
                <circle id="rim2" cx="0" cy="0" r="3.5"/>
                <g id="zoomPlus">
                        <use xlink:href="#rim" fill="#404040">
                                <set attributeName="fill" to="#808080" begin="zoomplus.mouseover" end="zoomplus.mouseout"/>
                        </use>
                        <path d="M-4,0h8M0,-4v8" fill="none" stroke="white" stroke-width="1.5" pointer-events="none"/>
                </g>
                <g id="zoomMin">
                        <use xlink:href="#rim" fill="#404040">
                                <set attributeName="fill" to="#808080" begin="zoomminus.mouseover" end="zoomminus.mouseout"/>
                        </use>
                        <path d="M-4,0h8" fill="none" stroke="white" stroke-width="1.5" pointer-events="none"/>
                </g>
                <g id="dirArrow">
                        <path fill="none" stroke="white" stroke-width="1.5" d="M0,-3.0v7 M-2.5,-0.5L0,-3.0L2.5,-0.5"/>
                </g>
               <g id="resetDef">
                       <use xlink:href="#rim2" fill="#404040">
                               <set attributeName="fill" to="#808080" begin="reset.mouseover" end="reset.mouseout"/>
                       </use>
               </g>
        </defs>

<script type="text/javascript">
var viewWidth = 766;
var viewHeight = 109;
var sectionId = 'dynsection-0';
</script>
<script xlink:href="../../svgpan.js"/>
<svg id="graph" class="graph">
<g id="viewport">
<title>model.VariableFactory.createVariable</title>
<polygon fill="white" stroke="none" points="-4,4 -4,-105 762,-105 762,4 -4,4"/>
<!-- Node1 -->
<g id="node1" class="node"><title>Node1</title>
<polygon fill="#bfbfbf" stroke="black" points="0.5,-52 0.5,-82 155.5,-82 155.5,-52 0.5,-52"/>
<text text-anchor="start" x="8.5" y="-70" font-family="Helvetica,sans-Serif" font-size="10.00">model.VariableFactory.create</text>
<text text-anchor="middle" x="78" y="-59" font-family="Helvetica,sans-Serif" font-size="10.00">Variable</text>
</g>
<!-- Node2 -->
<g id="node2" class="node"><title>Node2</title>
<g id="a_node2"><a xlink:href="../../de/d16/classparser_1_1parser_1_1_regex.html#a9da6d787de06ba7ea76d52326b532bd1" target="_top" xlink:title="parser.parser.Regex.getInstance">
<polygon fill="white" stroke="black" points="192,-76.5 192,-95.5 362,-95.5 362,-76.5 192,-76.5"/>
<text text-anchor="middle" x="277" y="-83.5" font-family="Helvetica,sans-Serif" font-size="10.00">parser.parser.Regex.getInstance</text>
</a>
</g>
</g>
<!-- Node1&#45;&gt;Node2 -->
<g id="edge1" class="edge"><title>Node1&#45;&gt;Node2</title>
<path fill="none" stroke="midnightblue" d="M155.729,-74.4003C164.271,-75.2241 173.043,-76.0701 181.769,-76.9118"/>
<polygon fill="midnightblue" stroke="midnightblue" points="181.687,-80.42 191.977,-77.8962 182.359,-73.4523 181.687,-80.42"/>
</g>
<!-- Node5 -->
<g id="node5" class="node"><title>Node5</title>
<g id="a_node5"><a xlink:href="../../de/d16/classparser_1_1parser_1_1_regex.html#a5d526d752521b953619721c6d3e930bd" target="_top" xlink:title="parser.parser.Regex.getType">
<polygon fill="white" stroke="black" points="201.5,-38.5 201.5,-57.5 352.5,-57.5 352.5,-38.5 201.5,-38.5"/>
<text text-anchor="middle" x="277" y="-45.5" font-family="Helvetica,sans-Serif" font-size="10.00">parser.parser.Regex.getType</text>
</a>
</g>
</g>
<!-- Node1&#45;&gt;Node5 -->
<g id="edge4" class="edge"><title>Node1&#45;&gt;Node5</title>
<path fill="none" stroke="midnightblue" d="M155.729,-59.5997C167.344,-58.4795 179.384,-57.3183 191.158,-56.1827"/>
<polygon fill="midnightblue" stroke="midnightblue" points="191.802,-59.637 201.42,-55.193 191.13,-52.6693 191.802,-59.637"/>
</g>
<!-- Node3 -->
<g id="node3" class="node"><title>Node3</title>
<g id="a_node3"><a xlink:href="../../de/d16/classparser_1_1parser_1_1_regex.html#a1fd187b9f2b45d0707cb10057e80d7ff" target="_top" xlink:title="parser.parser.Regex.Regex">
<polygon fill="white" stroke="black" points="417.5,-76.5 417.5,-95.5 560.5,-95.5 560.5,-76.5 417.5,-76.5"/>
<text text-anchor="middle" x="489" y="-83.5" font-family="Helvetica,sans-Serif" font-size="10.00">parser.parser.Regex.Regex</text>
</a>
</g>
</g>
<!-- Node2&#45;&gt;Node3 -->
<g id="edge2" class="edge"><title>Node2&#45;&gt;Node3</title>
<path fill="none" stroke="midnightblue" d="M362.205,-86C377.039,-86 392.45,-86 407.189,-86"/>
<polygon fill="midnightblue" stroke="midnightblue" points="407.27,-89.5001 417.269,-86 407.269,-82.5001 407.27,-89.5001"/>
</g>
<!-- Node4 -->
<g id="node4" class="node"><title>Node4</title>
<g id="a_node4"><a xlink:href="../../de/d16/classparser_1_1parser_1_1_regex.html#a413da3364c9c07a315222d34d7f0fc56" target="_top" xlink:title="parser.parser.Regex.make\lPatterns">
<polygon fill="white" stroke="black" points="616.5,-71 616.5,-101 757.5,-101 757.5,-71 616.5,-71"/>
<text text-anchor="start" x="624.5" y="-89" font-family="Helvetica,sans-Serif" font-size="10.00">parser.parser.Regex.make</text>
<text text-anchor="middle" x="687" y="-78" font-family="Helvetica,sans-Serif" font-size="10.00">Patterns</text>
</a>
</g>
</g>
<!-- Node3&#45;&gt;Node4 -->
<g id="edge3" class="edge"><title>Node3&#45;&gt;Node4</title>
<path fill="none" stroke="midnightblue" d="M560.76,-86C575.461,-86 591.049,-86 606.053,-86"/>
<polygon fill="midnightblue" stroke="midnightblue" points="606.329,-89.5001 616.329,-86 606.329,-82.5001 606.329,-89.5001"/>
</g>
<!-- Node6 -->
<g id="node6" class="node"><title>Node6</title>
<g id="a_node6"><a xlink:href="../../de/d16/classparser_1_1parser_1_1_regex.html#a162d120a60bdb10238c3d31c4f5f6903" target="_top" xlink:title="parser.parser.Regex.match">
<polygon fill="white" stroke="black" points="416.5,-38.5 416.5,-57.5 561.5,-57.5 561.5,-38.5 416.5,-38.5"/>
<text text-anchor="middle" x="489" y="-45.5" font-family="Helvetica,sans-Serif" font-size="10.00">parser.parser.Regex.match</text>
</a>
</g>
</g>
<!-- Node5&#45;&gt;Node6 -->
<g id="edge5" class="edge"><title>Node5&#45;&gt;Node6</title>
<path fill="none" stroke="midnightblue" d="M352.629,-48C369.974,-48 388.528,-48 406.165,-48"/>
<polygon fill="midnightblue" stroke="midnightblue" points="406.427,-51.5001 416.427,-48 406.427,-44.5001 406.427,-51.5001"/>
</g>
<!-- Node7 -->
<g id="node7" class="node"><title>Node7</title>
<g id="a_node7"><a xlink:href="../../d7/dda/enumparser_1_1parser_1_1_general_type.html#af35aa06f434667ca22f66abcc181eb30" target="_top" xlink:title="parser.parser.GeneralType.findType">
<polygon fill="white" stroke="black" points="398,-0.5 398,-19.5 580,-19.5 580,-0.5 398,-0.5"/>
<text text-anchor="middle" x="489" y="-7.5" font-family="Helvetica,sans-Serif" font-size="10.00">parser.parser.GeneralType.findType</text>
</a>
</g>
</g>
<!-- Node5&#45;&gt;Node7 -->
<g id="edge6" class="edge"><title>Node5&#45;&gt;Node7</title>
<path fill="none" stroke="midnightblue" d="M330.721,-38.46C359.429,-33.2652 395.137,-26.8037 425.27,-21.3511"/>
<polygon fill="midnightblue" stroke="midnightblue" points="426.041,-24.7686 435.258,-19.5439 424.794,-17.8805 426.041,-24.7686"/>
</g>
</g>
</svg>
        <g id="navigator" transform="translate(0 0)" fill="#404254">
                <rect fill="#f2f5e9" fill-opacity="0.5" stroke="#606060" stroke-width=".5" x="0" y="0" width="60" height="60"/>
                <use id="zoomplus" xlink:href="#zoomPlus" x="17" y="9" onmousedown="handleZoom(evt,'in')"/>
                <use id="zoomminus" xlink:href="#zoomMin" x="42" y="9" onmousedown="handleZoom(evt,'out')"/>
                <use id="reset" xlink:href="#resetDef" x="30" y="36" onmousedown="handleReset()"/>
                <g id="arrowUp" xlink:href="#dirArrow" transform="translate(30 24)" onmousedown="handlePan(0,-1)">
                  <use xlink:href="#rim" fill="#404040">
                        <set attributeName="fill" to="#808080" begin="arrowUp.mouseover" end="arrowUp.mouseout"/>
                  </use>
                  <path fill="none" stroke="white" stroke-width="1.5" d="M0,-3.0v7 M-2.5,-0.5L0,-3.0L2.5,-0.5"/>
                </g>
                <g id="arrowRight" xlink:href="#dirArrow" transform="rotate(90) translate(36 -43)" onmousedown="handlePan(1,0)">
                  <use xlink:href="#rim" fill="#404040">
                        <set attributeName="fill" to="#808080" begin="arrowRight.mouseover" end="arrowRight.mouseout"/>
                  </use>
                  <path fill="none" stroke="white" stroke-width="1.5" d="M0,-3.0v7 M-2.5,-0.5L0,-3.0L2.5,-0.5"/>
                </g>
                <g id="arrowDown" xlink:href="#dirArrow" transform="rotate(180) translate(-30 -48)" onmousedown="handlePan(0,1)">
                  <use xlink:href="#rim" fill="#404040">
                        <set attributeName="fill" to="#808080" begin="arrowDown.mouseover" end="arrowDown.mouseout"/>
                  </use>
                  <path fill="none" stroke="white" stroke-width="1.5" d="M0,-3.0v7 M-2.5,-0.5L0,-3.0L2.5,-0.5"/>
                </g>
                <g id="arrowLeft" xlink:href="#dirArrow" transform="rotate(270) translate(-36 17)" onmousedown="handlePan(-1,0)">
                  <use xlink:href="#rim" fill="#404040">
                        <set attributeName="fill" to="#808080" begin="arrowLeft.mouseover" end="arrowLeft.mouseout"/>
                  </use>
                  <path fill="none" stroke="white" stroke-width="1.5" d="M0,-3.0v7 M-2.5,-0.5L0,-3.0L2.5,-0.5"/>
                </g>
        </g>
        <svg viewBox="0 0 15 15" width="100%" height="30px" preserveAspectRatio="xMaxYMin meet">
         <g id="arrow_out" transform="scale(0.3 0.3)">
          <a xlink:href="classmodel_1_1_variable_factory_a73fd0c25fff2bd36a01fbdeadbaab5ec_cgraph_org.svg" target="_base">
           <rect id="button" ry="5" rx="5" y="6" x="6" height="38" width="38"
                fill="#f2f5e9" fill-opacity="0.5" stroke="#606060" stroke-width="1.0"/>
           <path id="arrow"
             d="M 11.500037,31.436501 C 11.940474,20.09759 22.043105,11.32322 32.158766,21.979434 L 37.068811,17.246167 C 37.068811,17.246167 37.088388,32 37.088388,32 L 22.160133,31.978069 C 22.160133,31.978069 26.997745,27.140456 26.997745,27.140456 C 18.528582,18.264221 13.291696,25.230495 11.500037,31.436501 z"
             style="fill:#404040;"/>
          </a>
         </g>
        </svg>
</svg>
