<?xml version="1.0" encoding="UTF-8" standalone="no"?>
<!DOCTYPE svg PUBLIC "-//W3C//DTD SVG 1.1//EN"
 "http://www.w3.org/Graphics/SVG/1.1/DTD/svg11.dtd">
<!-- Generated by graphviz version 2.36.0 (20140111.2315)
 -->
<!-- Title: parser.commands.SetPosition.execute Pages: 1 -->
<svg width="428pt" height="66pt"
 viewBox="0.00 0.00 428.00 66.00" xmlns="http://www.w3.org/2000/svg" xmlns:xlink="http://www.w3.org/1999/xlink">
<g id="graph0" class="graph" transform="scale(1 1) rotate(0) translate(4 62)">
<title>parser.commands.SetPosition.execute</title>
<polygon fill="white" stroke="none" points="-4,4 -4,-62 424,-62 424,4 -4,4"/>
<!-- Node1 -->
<g id="node1" class="node"><title>Node1</title>
<polygon fill="#bfbfbf" stroke="black" points="0,-19.5 0,-38.5 202,-38.5 202,-19.5 0,-19.5"/>
<text text-anchor="middle" x="101" y="-26.5" font-family="Helvetica,sans-Serif" font-size="10.00">parser.commands.SetPosition.execute</text>
</g>
<!-- Node2 -->
<g id="node2" class="node"><title>Node2</title>
<g id="a_node2"><a xlink:href="../../da/d96/classparser_1_1nodes_1_1_syntax_node.html#a21b459bd103a7f1f3a1a5f52bb3b3132" target="_top" xlink:title="parser.nodes.SyntaxNode.execute">
<polygon fill="white" stroke="black" points="238,-38.5 238,-57.5 420,-57.5 420,-38.5 238,-38.5"/>
<text text-anchor="middle" x="329" y="-45.5" font-family="Helvetica,sans-Serif" font-size="10.00">parser.nodes.SyntaxNode.execute</text>
</a>
</g>
</g>
<!-- Node1&#45;&gt;Node2 -->
<g id="edge1" class="edge"><title>Node1&#45;&gt;Node2</title>
<path fill="none" stroke="midnightblue" d="M202.114,-37.4167C210.685,-38.1372 219.356,-38.8662 227.927,-39.5868"/>
<polygon fill="midnightblue" stroke="midnightblue" points="227.672,-43.0776 237.93,-40.4277 228.258,-36.1022 227.672,-43.0776"/>
</g>
<!-- Node3 -->
<g id="node3" class="node"><title>Node3</title>
<g id="a_node3"><a xlink:href="../../d8/d18/interfacemodel_1_1_turtle.html#a25f370dfcf07989ee0a85377924cb807" target="_top" xlink:title="model.Turtle.moveToPosition">
<polygon fill="white" stroke="black" points="253,-0.5 253,-19.5 405,-19.5 405,-0.5 253,-0.5"/>
<text text-anchor="middle" x="329" y="-7.5" font-family="Helvetica,sans-Serif" font-size="10.00">model.Turtle.moveToPosition</text>
</a>
</g>
</g>
<!-- Node1&#45;&gt;Node3 -->
<g id="edge2" class="edge"><title>Node1&#45;&gt;Node3</title>
<path fill="none" stroke="midnightblue" d="M202.114,-20.5833C215.662,-19.4443 229.461,-18.2843 242.717,-17.1698"/>
<polygon fill="midnightblue" stroke="midnightblue" points="243.064,-20.6531 252.735,-16.3276 242.477,-13.6777 243.064,-20.6531"/>
</g>
</g>
</svg>
