<?xml version="1.0" encoding="UTF-8" standalone="no"?>
<!DOCTYPE svg PUBLIC "-//W3C//DTD SVG 1.1//EN"
 "http://www.w3.org/Graphics/SVG/1.1/DTD/svg11.dtd">
<!-- Generated by graphviz version 2.36.0 (20140111.2315)
 -->
<!-- Title: model.CommandHistoryUpdate.getUDCommand Pages: 1 -->
<svg width="430pt" height="38pt"
 viewBox="0.00 0.00 430.00 38.00" xmlns="http://www.w3.org/2000/svg" xmlns:xlink="http://www.w3.org/1999/xlink">
<g id="graph0" class="graph" transform="scale(1 1) rotate(0) translate(4 34)">
<title>model.CommandHistoryUpdate.getUDCommand</title>
<polygon fill="white" stroke="none" points="-4,4 -4,-34 426,-34 426,4 -4,4"/>
<!-- Node1 -->
<g id="node1" class="node"><title>Node1</title>
<polygon fill="#bfbfbf" stroke="black" points="0,-0 0,-30 188,-30 188,-0 0,-0"/>
<text text-anchor="start" x="8" y="-18" font-family="Helvetica,sans-Serif" font-size="10.00">model.CommandHistoryUpdate.get</text>
<text text-anchor="middle" x="94" y="-7" font-family="Helvetica,sans-Serif" font-size="10.00">UDCommand</text>
</g>
<!-- Node2 -->
<g id="node2" class="node"><title>Node2</title>
<g id="a_node2"><a xlink:href="../../d7/dc7/classview_1_1listwindows_1_1_user_defined_commands_window.html#af8d6e01cab5979d10f714e1552d80a0d" target="_top" xlink:title="view.listwindows.UserDefined\lCommandsWindow.getCommandsList">
<polygon fill="white" stroke="black" points="224.5,-0 224.5,-30 421.5,-30 421.5,-0 224.5,-0"/>
<text text-anchor="start" x="232.5" y="-18" font-family="Helvetica,sans-Serif" font-size="10.00">view.listwindows.UserDefined</text>
<text text-anchor="middle" x="323" y="-7" font-family="Helvetica,sans-Serif" font-size="10.00">CommandsWindow.getCommandsList</text>
</a>
</g>
</g>
<!-- Node1&#45;&gt;Node2 -->
<g id="edge1" class="edge"><title>Node1&#45;&gt;Node2</title>
<path fill="none" stroke="midnightblue" d="M198.381,-15C206.998,-15 215.694,-15 224.268,-15"/>
<polygon fill="midnightblue" stroke="midnightblue" points="198.312,-11.5001 188.312,-15 198.312,-18.5001 198.312,-11.5001"/>
</g>
</g>
</svg>
