<?xml version="1.0" encoding="UTF-8" standalone="no"?>
<!DOCTYPE svg PUBLIC "-//W3C//DTD SVG 1.1//EN"
 "http://www.w3.org/Graphics/SVG/1.1/DTD/svg11.dtd">
<!-- Generated by graphviz version 2.36.0 (20140111.2315)
 -->
<!-- Title: model.CommandHistoryUpdate.CommandHistoryUpdate Pages: 1 -->
<svg width="368pt" height="87pt"
 viewBox="0.00 0.00 368.00 87.00" xmlns="http://www.w3.org/2000/svg" xmlns:xlink="http://www.w3.org/1999/xlink">
<g id="graph0" class="graph" transform="scale(1 1) rotate(0) translate(4 83)">
<title>model.CommandHistoryUpdate.CommandHistoryUpdate</title>
<polygon fill="white" stroke="none" points="-4,4 -4,-83 364,-83 364,4 -4,4"/>
<!-- Node1 -->
<g id="node1" class="node"><title>Node1</title>
<polygon fill="#bfbfbf" stroke="black" points="0,-24 0,-54 172,-54 172,-24 0,-24"/>
<text text-anchor="start" x="8" y="-42" font-family="Helvetica,sans-Serif" font-size="10.00">model.CommandHistoryUpdate.</text>
<text text-anchor="middle" x="86" y="-31" font-family="Helvetica,sans-Serif" font-size="10.00">CommandHistoryUpdate</text>
</g>
<!-- Node2 -->
<g id="node2" class="node"><title>Node2</title>
<g id="a_node2"><a xlink:href="../../db/df9/classmodel_1_1_command_history.html#aa84fd919bf10b809901559d861053e51" target="_top" xlink:title="model.CommandHistory.get\lCommandList">
<polygon fill="white" stroke="black" points="208.5,-49 208.5,-79 359.5,-79 359.5,-49 208.5,-49"/>
<text text-anchor="start" x="216.5" y="-67" font-family="Helvetica,sans-Serif" font-size="10.00">model.CommandHistory.get</text>
<text text-anchor="middle" x="284" y="-56" font-family="Helvetica,sans-Serif" font-size="10.00">CommandList</text>
</a>
</g>
</g>
<!-- Node1&#45;&gt;Node2 -->
<g id="edge1" class="edge"><title>Node1&#45;&gt;Node2</title>
<path fill="none" stroke="midnightblue" d="M172.113,-49.8563C180.801,-50.9644 189.626,-52.0901 198.31,-53.1976"/>
<polygon fill="midnightblue" stroke="midnightblue" points="198.058,-56.6939 208.421,-54.4874 198.944,-49.7501 198.058,-56.6939"/>
</g>
<!-- Node3 -->
<g id="node3" class="node"><title>Node3</title>
<g id="a_node3"><a xlink:href="../../db/df9/classmodel_1_1_command_history.html#ada4584a43ef0dccdd818b5b0729b897d" target="_top" xlink:title="model.CommandHistory.get\lUDCommandList">
<polygon fill="white" stroke="black" points="208.5,-0 208.5,-30 359.5,-30 359.5,-0 208.5,-0"/>
<text text-anchor="start" x="216.5" y="-18" font-family="Helvetica,sans-Serif" font-size="10.00">model.CommandHistory.get</text>
<text text-anchor="middle" x="284" y="-7" font-family="Helvetica,sans-Serif" font-size="10.00">UDCommandList</text>
</a>
</g>
</g>
<!-- Node1&#45;&gt;Node3 -->
<g id="edge2" class="edge"><title>Node1&#45;&gt;Node3</title>
<path fill="none" stroke="midnightblue" d="M172.113,-28.578C180.801,-27.5142 189.626,-26.4335 198.31,-25.3703"/>
<polygon fill="midnightblue" stroke="midnightblue" points="198.92,-28.8217 208.421,-24.1321 198.07,-21.8736 198.92,-28.8217"/>
</g>
</g>
</svg>
