<?xml version="1.0" encoding="UTF-8" standalone="no"?>
<!DOCTYPE svg PUBLIC "-//W3C//DTD SVG 1.1//EN"
 "http://www.w3.org/Graphics/SVG/1.1/DTD/svg11.dtd">
<!-- Generated by graphviz version 2.36.0 (20140111.2315)
 -->
<!-- Title: view.listwindows.CommandsHistoryWindow Pages: 1 -->
<svg width="395pt" height="236pt"
 viewBox="0.00 0.00 395.00 236.00" xmlns="http://www.w3.org/2000/svg" xmlns:xlink="http://www.w3.org/1999/xlink">
<g id="graph0" class="graph" transform="scale(1 1) rotate(0) translate(4 232)">
<title>view.listwindows.CommandsHistoryWindow</title>
<polygon fill="white" stroke="none" points="-4,4 -4,-232 391,-232 391,4 -4,4"/>
<!-- Node1 -->
<g id="node1" class="node"><title>Node1</title>
<polygon fill="#bfbfbf" stroke="black" points="198,-1 198,-31 348,-31 348,-1 198,-1"/>
<text text-anchor="start" x="206" y="-19" font-family="Helvetica,sans-Serif" font-size="10.00">view.listwindows.Commands</text>
<text text-anchor="middle" x="273" y="-8" font-family="Helvetica,sans-Serif" font-size="10.00">HistoryWindow</text>
</g>
<!-- Node2 -->
<g id="node2" class="node"><title>Node2</title>
<g id="a_node2"><a xlink:href="../../da/df5/classview_1_1listwindows_1_1_commands_list_window.html" target="_top" xlink:title="view.listwindows.Commands\lListWindow">
<polygon fill="white" stroke="black" points="198,-71 198,-101 348,-101 348,-71 198,-71"/>
<text text-anchor="start" x="206" y="-89" font-family="Helvetica,sans-Serif" font-size="10.00">view.listwindows.Commands</text>
<text text-anchor="middle" x="273" y="-78" font-family="Helvetica,sans-Serif" font-size="10.00">ListWindow</text>
</a>
</g>
</g>
<!-- Node2&#45;&gt;Node1 -->
<g id="edge1" class="edge"><title>Node2&#45;&gt;Node1</title>
<path fill="none" stroke="midnightblue" d="M273,-60.7688C273,-50.8141 273,-39.6384 273,-31.0716"/>
<polygon fill="midnightblue" stroke="midnightblue" points="269.5,-60.9103 273,-70.9104 276.5,-60.9104 269.5,-60.9103"/>
</g>
<!-- Node3 -->
<g id="node3" class="node"><title>Node3</title>
<g id="a_node3"><a xlink:href="../../da/d76/classview_1_1listwindows_1_1_list_window.html" target="_top" xlink:title="view.listwindows.ListWindow">
<polygon fill="white" stroke="black" points="77,-140.5 77,-159.5 223,-159.5 223,-140.5 77,-140.5"/>
<text text-anchor="middle" x="150" y="-147.5" font-family="Helvetica,sans-Serif" font-size="10.00">view.listwindows.ListWindow</text>
</a>
</g>
</g>
<!-- Node3&#45;&gt;Node2 -->
<g id="edge2" class="edge"><title>Node3&#45;&gt;Node2</title>
<path fill="none" stroke="midnightblue" d="M176.094,-135.847C196.381,-125.621 224.463,-111.466 245.176,-101.025"/>
<polygon fill="midnightblue" stroke="midnightblue" points="174.457,-132.753 167.103,-140.379 177.608,-139.003 174.457,-132.753"/>
</g>
<!-- Node4 -->
<g id="node4" class="node"><title>Node4</title>
<polygon fill="white" stroke="#bfbfbf" points="0,-208.5 0,-227.5 46,-227.5 46,-208.5 0,-208.5"/>
<text text-anchor="middle" x="23" y="-215.5" font-family="Helvetica,sans-Serif" font-size="10.00">Group</text>
</g>
<!-- Node4&#45;&gt;Node3 -->
<g id="edge3" class="edge"><title>Node4&#45;&gt;Node3</title>
<path fill="none" stroke="midnightblue" d="M48.2896,-203.845C62.8301,-196.282 81.4416,-186.604 98,-178 109.915,-171.809 123.368,-164.824 133.605,-159.51"/>
<polygon fill="midnightblue" stroke="midnightblue" points="46.6414,-200.757 39.3848,-208.476 49.8716,-206.967 46.6414,-200.757"/>
</g>
<!-- Node5 -->
<g id="node5" class="node"><title>Node5</title>
<polygon fill="white" stroke="#bfbfbf" points="64.5,-208.5 64.5,-227.5 105.5,-227.5 105.5,-208.5 64.5,-208.5"/>
<text text-anchor="middle" x="85" y="-215.5" font-family="Helvetica,sans-Serif" font-size="10.00">VBox</text>
</g>
<!-- Node5&#45;&gt;Node3 -->
<g id="edge4" class="edge"><title>Node5&#45;&gt;Node3</title>
<path fill="none" stroke="#9a32cd" stroke-dasharray="5,2" d="M95.2914,-199.433C99.9006,-192.349 105.713,-184.364 112,-178 118.939,-170.976 127.894,-164.515 135.368,-159.675"/>
<polygon fill="#9a32cd" stroke="#9a32cd" points="92.0934,-197.951 89.8207,-208.299 98.0506,-201.627 92.0934,-197.951"/>
<text text-anchor="middle" x="129.5" y="-181.5" font-family="Helvetica,sans-Serif" font-size="10.00"> myList</text>
</g>
<!-- Node6 -->
<g id="node6" class="node"><title>Node6</title>
<polygon fill="white" stroke="#bfbfbf" points="124,-208.5 124,-227.5 190,-227.5 190,-208.5 124,-208.5"/>
<text text-anchor="middle" x="157" y="-215.5" font-family="Helvetica,sans-Serif" font-size="10.00">ScrollPane</text>
</g>
<!-- Node6&#45;&gt;Node3 -->
<g id="edge5" class="edge"><title>Node6&#45;&gt;Node3</title>
<path fill="none" stroke="#9a32cd" stroke-dasharray="5,2" d="M152.336,-198.198C151.799,-195.462 151.328,-192.669 151,-190 149.729,-179.647 149.625,-167.637 149.744,-159.71"/>
<polygon fill="#9a32cd" stroke="#9a32cd" points="148.949,-199.09 154.562,-208.075 155.778,-197.551 148.949,-199.09"/>
<text text-anchor="middle" x="185" y="-181.5" font-family="Helvetica,sans-Serif" font-size="10.00"> myScrollPane</text>
</g>
<!-- Node7 -->
<g id="node7" class="node"><title>Node7</title>
<polygon fill="white" stroke="#bfbfbf" points="220,-208.5 220,-227.5 262,-227.5 262,-208.5 220,-208.5"/>
<text text-anchor="middle" x="241" y="-215.5" font-family="Helvetica,sans-Serif" font-size="10.00">Label</text>
</g>
<!-- Node7&#45;&gt;Node3 -->
<g id="edge6" class="edge"><title>Node7&#45;&gt;Node3</title>
<path fill="none" stroke="#9a32cd" stroke-dasharray="5,2" d="M234.128,-199.158C230.55,-191.796 225.537,-183.677 219,-178 209.385,-169.65 196.887,-163.72 185.175,-159.588"/>
<polygon fill="#9a32cd" stroke="#9a32cd" points="230.952,-200.631 238.126,-208.427 237.379,-197.858 230.952,-200.631"/>
<text text-anchor="middle" x="251" y="-181.5" font-family="Helvetica,sans-Serif" font-size="10.00"> myLabel</text>
</g>
<!-- Node8 -->
<g id="node8" class="node"><title>Node8</title>
<polygon fill="white" stroke="#bfbfbf" points="280,-208.5 280,-227.5 352,-227.5 352,-208.5 280,-208.5"/>
<text text-anchor="middle" x="316" y="-215.5" font-family="Helvetica,sans-Serif" font-size="10.00">BorderPane</text>
</g>
<!-- Node8&#45;&gt;Node3 -->
<g id="edge7" class="edge"><title>Node8&#45;&gt;Node3</title>
<path fill="none" stroke="#9a32cd" stroke-dasharray="5,2" d="M303.52,-200.656C296.562,-192.651 287.243,-183.562 277,-178 260.558,-169.072 241.428,-163.096 223.081,-159.095"/>
<polygon fill="#9a32cd" stroke="#9a32cd" points="300.82,-202.883 309.857,-208.413 306.241,-198.454 300.82,-202.883"/>
<text text-anchor="middle" x="314" y="-181.5" font-family="Helvetica,sans-Serif" font-size="10.00"> myPane</text>
</g>
<!-- Node9 -->
<g id="node9" class="node"><title>Node9</title>
<g id="a_node9"><a xlink:href="../../dd/db2/interfaceview_1_1components_1_1_observer.html" target="_top" xlink:title="view.components.Observer">
<polygon fill="white" stroke="black" points="241,-140.5 241,-159.5 387,-159.5 387,-140.5 241,-140.5"/>
<text text-anchor="middle" x="314" y="-147.5" font-family="Helvetica,sans-Serif" font-size="10.00">view.components.Observer</text>
</a>
</g>
</g>
<!-- Node9&#45;&gt;Node2 -->
<g id="edge8" class="edge"><title>Node9&#45;&gt;Node2</title>
<path fill="none" stroke="midnightblue" d="M302.757,-131.998C296.378,-122.352 288.485,-110.417 282.432,-101.263"/>
<polygon fill="midnightblue" stroke="midnightblue" points="299.864,-133.969 308.299,-140.379 305.703,-130.107 299.864,-133.969"/>
</g>
</g>
</svg>
