<?xml version="1.0" encoding="UTF-8" standalone="no"?>
<!DOCTYPE svg PUBLIC "-//W3C//DTD SVG 1.1//EN"
 "http://www.w3.org/Graphics/SVG/1.1/DTD/svg11.dtd">
<!-- Generated by graphviz version 2.36.0 (20140111.2315)
 -->
<!-- Title: model.TurtleMultiple.activeTurtleIDs Pages: 1 -->
<svg width="548pt" height="38pt"
 viewBox="0.00 0.00 548.00 38.00" xmlns="http://www.w3.org/2000/svg" xmlns:xlink="http://www.w3.org/1999/xlink">
<g id="graph0" class="graph" transform="scale(1 1) rotate(0) translate(4 34)">
<title>model.TurtleMultiple.activeTurtleIDs</title>
<polygon fill="white" stroke="none" points="-4,4 -4,-34 544,-34 544,4 -4,4"/>
<!-- Node1 -->
<g id="node1" class="node"><title>Node1</title>
<polygon fill="#bfbfbf" stroke="black" points="0.5,-0 0.5,-30 143.5,-30 143.5,-0 0.5,-0"/>
<text text-anchor="start" x="8.5" y="-18" font-family="Helvetica,sans-Serif" font-size="10.00">model.TurtleMultiple.active</text>
<text text-anchor="middle" x="72" y="-7" font-family="Helvetica,sans-Serif" font-size="10.00">TurtleIDs</text>
</g>
<!-- Node2 -->
<g id="node2" class="node"><title>Node2</title>
<g id="a_node2"><a xlink:href="../../db/dea/classparser_1_1commands_1_1_ask.html#ae9d226e668deb9d8bba3b126d59e0a05" target="_top" xlink:title="parser.commands.Ask.create\lOldActiveStack">
<polygon fill="white" stroke="black" points="180,-0 180,-30 338,-30 338,-0 180,-0"/>
<text text-anchor="start" x="188" y="-18" font-family="Helvetica,sans-Serif" font-size="10.00">parser.commands.Ask.create</text>
<text text-anchor="middle" x="259" y="-7" font-family="Helvetica,sans-Serif" font-size="10.00">OldActiveStack</text>
</a>
</g>
</g>
<!-- Node1&#45;&gt;Node2 -->
<g id="edge1" class="edge"><title>Node1&#45;&gt;Node2</title>
<path fill="none" stroke="midnightblue" d="M153.817,-15C162.478,-15 171.278,-15 179.906,-15"/>
<polygon fill="midnightblue" stroke="midnightblue" points="153.732,-11.5001 143.732,-15 153.732,-18.5001 153.732,-11.5001"/>
</g>
<!-- Node3 -->
<g id="node3" class="node"><title>Node3</title>
<g id="a_node3"><a xlink:href="../../db/dea/classparser_1_1commands_1_1_ask.html#ae3a52ad1be99031d4a926942771fd71c" target="_top" xlink:title="parser.commands.Ask.execute">
<polygon fill="white" stroke="black" points="374.5,-5.5 374.5,-24.5 539.5,-24.5 539.5,-5.5 374.5,-5.5"/>
<text text-anchor="middle" x="457" y="-12.5" font-family="Helvetica,sans-Serif" font-size="10.00">parser.commands.Ask.execute</text>
</a>
</g>
</g>
<!-- Node2&#45;&gt;Node3 -->
<g id="edge2" class="edge"><title>Node2&#45;&gt;Node3</title>
<path fill="none" stroke="midnightblue" d="M348.197,-15C356.916,-15 365.739,-15 374.386,-15"/>
<polygon fill="midnightblue" stroke="midnightblue" points="348.028,-11.5001 338.028,-15 348.028,-18.5001 348.028,-11.5001"/>
</g>
</g>
</svg>
