<?xml version="1.0" encoding="UTF-8" standalone="no"?>
<!DOCTYPE svg PUBLIC "-//W3C//DTD SVG 1.1//EN"
 "http://www.w3.org/Graphics/SVG/1.1/DTD/svg11.dtd">
<!-- Generated by graphviz version 2.36.0 (20140111.2315)
 -->
<!-- Title: model.TurtleMultiple.setPenUp Pages: 1 -->
<svg width="366pt" height="66pt"
 viewBox="0.00 0.00 366.00 66.00" xmlns="http://www.w3.org/2000/svg" xmlns:xlink="http://www.w3.org/1999/xlink">
<g id="graph0" class="graph" transform="scale(1 1) rotate(0) translate(4 62)">
<title>model.TurtleMultiple.setPenUp</title>
<polygon fill="white" stroke="none" points="-4,4 -4,-62 362,-62 362,4 -4,4"/>
<!-- Node1 -->
<g id="node1" class="node"><title>Node1</title>
<polygon fill="#bfbfbf" stroke="black" points="0,-14 0,-44 130,-44 130,-14 0,-14"/>
<text text-anchor="start" x="8" y="-32" font-family="Helvetica,sans-Serif" font-size="10.00">model.TurtleMultiple.set</text>
<text text-anchor="middle" x="65" y="-21" font-family="Helvetica,sans-Serif" font-size="10.00">PenUp</text>
</g>
<!-- Node2 -->
<g id="node2" class="node"><title>Node2</title>
<g id="a_node2"><a xlink:href="../../d7/d3b/classparser_1_1commands_1_1_pen_down.html#a3e16164bf1598a341653d51d0cb0b989" target="_top" xlink:title="parser.commands.PenDown.execute">
<polygon fill="white" stroke="black" points="166,-38.5 166,-57.5 358,-57.5 358,-38.5 166,-38.5"/>
<text text-anchor="middle" x="262" y="-45.5" font-family="Helvetica,sans-Serif" font-size="10.00">parser.commands.PenDown.execute</text>
</a>
</g>
</g>
<!-- Node1&#45;&gt;Node2 -->
<g id="edge1" class="edge"><title>Node1&#45;&gt;Node2</title>
<path fill="none" stroke="midnightblue" d="M140.192,-36.229C148.563,-37.0446 157.177,-37.8839 165.768,-38.721"/>
<polygon fill="midnightblue" stroke="midnightblue" points="140.413,-32.734 130.12,-35.2476 139.734,-39.701 140.413,-32.734"/>
</g>
<!-- Node3 -->
<g id="node3" class="node"><title>Node3</title>
<g id="a_node3"><a xlink:href="../../de/d75/classparser_1_1commands_1_1_pen_up.html#ab2cc693085c58ad98ad75023de1bf949" target="_top" xlink:title="parser.commands.PenUp.execute">
<polygon fill="white" stroke="black" points="172.5,-0.5 172.5,-19.5 351.5,-19.5 351.5,-0.5 172.5,-0.5"/>
<text text-anchor="middle" x="262" y="-7.5" font-family="Helvetica,sans-Serif" font-size="10.00">parser.commands.PenUp.execute</text>
</a>
</g>
</g>
<!-- Node1&#45;&gt;Node3 -->
<g id="edge2" class="edge"><title>Node1&#45;&gt;Node3</title>
<path fill="none" stroke="midnightblue" d="M140.114,-21.7786C150.681,-20.749 161.637,-19.6815 172.445,-18.6284"/>
<polygon fill="midnightblue" stroke="midnightblue" points="139.734,-18.299 130.12,-22.7524 140.413,-25.266 139.734,-18.299"/>
</g>
</g>
</svg>
