<?xml version="1.0" encoding="UTF-8" standalone="no"?>
<!DOCTYPE svg PUBLIC "-//W3C//DTD SVG 1.1//EN"
 "http://www.w3.org/Graphics/SVG/1.1/DTD/svg11.dtd">
<!-- Generated by graphviz version 2.36.0 (20140111.2315)
 -->
<!-- Title: model.TurtleMultiple.addDegree Pages: 1 -->
<svg width="720pt" height="142pt"
 viewBox="0.00 0.00 720.00 142.00" xmlns="http://www.w3.org/2000/svg" xmlns:xlink="http://www.w3.org/1999/xlink">
<g id="graph0" class="graph" transform="scale(1 1) rotate(0) translate(4 138)">
<title>model.TurtleMultiple.addDegree</title>
<polygon fill="white" stroke="none" points="-4,4 -4,-138 716,-138 716,4 -4,4"/>
<!-- Node1 -->
<g id="node1" class="node"><title>Node1</title>
<polygon fill="#bfbfbf" stroke="black" points="0.5,-44 0.5,-74 133.5,-74 133.5,-44 0.5,-44"/>
<text text-anchor="start" x="8.5" y="-62" font-family="Helvetica,sans-Serif" font-size="10.00">model.TurtleMultiple.add</text>
<text text-anchor="middle" x="67" y="-51" font-family="Helvetica,sans-Serif" font-size="10.00">Degree</text>
</g>
<!-- Node2 -->
<g id="node2" class="node"><title>Node2</title>
<g id="a_node2"><a xlink:href="../../da/d88/classmodel_1_1_turtle_single.html#a03df9ead84cfaec0317ddbcb8a3a465e" target="_top" xlink:title="model.TurtleSingle.addDegree">
<polygon fill="white" stroke="black" points="170.5,-87.5 170.5,-106.5 331.5,-106.5 331.5,-87.5 170.5,-87.5"/>
<text text-anchor="middle" x="251" y="-94.5" font-family="Helvetica,sans-Serif" font-size="10.00">model.TurtleSingle.addDegree</text>
</a>
</g>
</g>
<!-- Node1&#45;&gt;Node2 -->
<g id="edge1" class="edge"><title>Node1&#45;&gt;Node2</title>
<path fill="none" stroke="midnightblue" d="M133.706,-72.7189C153.557,-76.8636 175.152,-81.3725 194.285,-85.3672"/>
<polygon fill="midnightblue" stroke="midnightblue" points="193.834,-88.8484 204.338,-87.4662 195.264,-81.9961 193.834,-88.8484"/>
</g>
<!-- Node6 -->
<g id="node6" class="node"><title>Node6</title>
<g id="a_node6"><a xlink:href="../../da/d88/classmodel_1_1_turtle_single.html#a2a2d4c76b711eabbf4132222c6f0c8aa" target="_top" xlink:title="model.TurtleSingle.getID">
<polygon fill="white" stroke="black" points="184.5,-49.5 184.5,-68.5 317.5,-68.5 317.5,-49.5 184.5,-49.5"/>
<text text-anchor="middle" x="251" y="-56.5" font-family="Helvetica,sans-Serif" font-size="10.00">model.TurtleSingle.getID</text>
</a>
</g>
</g>
<!-- Node1&#45;&gt;Node6 -->
<g id="edge5" class="edge"><title>Node1&#45;&gt;Node6</title>
<path fill="none" stroke="midnightblue" d="M133.706,-59C146.85,-59 160.76,-59 174.212,-59"/>
<polygon fill="midnightblue" stroke="midnightblue" points="174.39,-62.5001 184.39,-59 174.39,-55.5001 174.39,-62.5001"/>
</g>
<!-- Node7 -->
<g id="node7" class="node"><title>Node7</title>
<g id="a_node7"><a xlink:href="../../d9/dea/classmodel_1_1_turtle_multiple.html#a39a093480efa352c2066e4ef8534f26e" target="_top" xlink:title="model.TurtleMultiple.get\lStream">
<polygon fill="white" stroke="black" points="185.5,-0 185.5,-30 316.5,-30 316.5,-0 185.5,-0"/>
<text text-anchor="start" x="193.5" y="-18" font-family="Helvetica,sans-Serif" font-size="10.00">model.TurtleMultiple.get</text>
<text text-anchor="middle" x="251" y="-7" font-family="Helvetica,sans-Serif" font-size="10.00">Stream</text>
</a>
</g>
</g>
<!-- Node1&#45;&gt;Node7 -->
<g id="edge6" class="edge"><title>Node1&#45;&gt;Node7</title>
<path fill="none" stroke="midnightblue" d="M130.125,-43.9808C145.56,-40.2492 162.232,-36.2186 178.093,-32.384"/>
<polygon fill="midnightblue" stroke="midnightblue" points="178.949,-35.7782 187.846,-30.0262 177.304,-28.9742 178.949,-35.7782"/>
</g>
<!-- Node3 -->
<g id="node3" class="node"><title>Node3</title>
<g id="a_node3"><a xlink:href="../../de/dfa/classmodel_1_1_angle.html#aef359cf2d8f49b345732939644cd8d29" target="_top" xlink:title="model.Angle.addAngleValue">
<polygon fill="white" stroke="black" points="368.5,-114.5 368.5,-133.5 519.5,-133.5 519.5,-114.5 368.5,-114.5"/>
<text text-anchor="middle" x="444" y="-121.5" font-family="Helvetica,sans-Serif" font-size="10.00">model.Angle.addAngleValue</text>
</a>
</g>
</g>
<!-- Node2&#45;&gt;Node3 -->
<g id="edge2" class="edge"><title>Node2&#45;&gt;Node3</title>
<path fill="none" stroke="midnightblue" d="M319.339,-106.519C334.317,-108.636 350.31,-110.897 365.653,-113.066"/>
<polygon fill="midnightblue" stroke="midnightblue" points="365.233,-116.542 375.625,-114.476 366.213,-109.61 365.233,-116.542"/>
</g>
<!-- Node5 -->
<g id="node5" class="node"><title>Node5</title>
<g id="a_node5"><a xlink:href="../../da/d88/classmodel_1_1_turtle_single.html#a40853b6f8c9ba455489ad8ea9535e99d" target="_top" xlink:title="model.TurtleSingle.notify\lObservers">
<polygon fill="white" stroke="black" points="377,-65 377,-95 511,-95 511,-65 377,-65"/>
<text text-anchor="start" x="385" y="-83" font-family="Helvetica,sans-Serif" font-size="10.00">model.TurtleSingle.notify</text>
<text text-anchor="middle" x="444" y="-72" font-family="Helvetica,sans-Serif" font-size="10.00">Observers</text>
</a>
</g>
</g>
<!-- Node2&#45;&gt;Node5 -->
<g id="edge4" class="edge"><title>Node2&#45;&gt;Node5</title>
<path fill="none" stroke="midnightblue" d="M331.618,-89.9136C343.256,-88.8777 355.218,-87.8131 366.785,-86.7835"/>
<polygon fill="midnightblue" stroke="midnightblue" points="367.181,-90.2622 376.831,-85.8894 366.56,-83.2898 367.181,-90.2622"/>
</g>
<!-- Node4 -->
<g id="node4" class="node"><title>Node4</title>
<g id="a_node4"><a xlink:href="../../de/dfa/classmodel_1_1_angle.html#a33d4e2194b10ee4aa384b74c7f73f3e6" target="_top" xlink:title="model.Angle.modAngleValue">
<polygon fill="white" stroke="black" points="556.5,-114.5 556.5,-133.5 711.5,-133.5 711.5,-114.5 556.5,-114.5"/>
<text text-anchor="middle" x="634" y="-121.5" font-family="Helvetica,sans-Serif" font-size="10.00">model.Angle.modAngleValue</text>
</a>
</g>
</g>
<!-- Node3&#45;&gt;Node4 -->
<g id="edge3" class="edge"><title>Node3&#45;&gt;Node4</title>
<path fill="none" stroke="midnightblue" d="M519.573,-124C528.362,-124 537.388,-124 546.325,-124"/>
<polygon fill="midnightblue" stroke="midnightblue" points="546.361,-127.5 556.361,-124 546.361,-120.5 546.361,-127.5"/>
</g>
<!-- Node8 -->
<g id="node8" class="node"><title>Node8</title>
<g id="a_node8"><a xlink:href="../../d9/dea/classmodel_1_1_turtle_multiple.html#a47e5a06bab25ead16ef3098a4257aa4b" target="_top" xlink:title="model.TurtleMultiple.set\lLastTurtle">
<polygon fill="white" stroke="black" points="379,-0 379,-30 509,-30 509,-0 379,-0"/>
<text text-anchor="start" x="387" y="-18" font-family="Helvetica,sans-Serif" font-size="10.00">model.TurtleMultiple.set</text>
<text text-anchor="middle" x="444" y="-7" font-family="Helvetica,sans-Serif" font-size="10.00">LastTurtle</text>
</a>
</g>
</g>
<!-- Node7&#45;&gt;Node8 -->
<g id="edge7" class="edge"><title>Node7&#45;&gt;Node8</title>
<path fill="none" stroke="midnightblue" d="M316.664,-15C333.244,-15 351.213,-15 368.256,-15"/>
<polygon fill="midnightblue" stroke="midnightblue" points="368.727,-18.5001 378.727,-15 368.727,-11.5001 368.727,-18.5001"/>
</g>
</g>
</svg>
