<?xml version="1.0" encoding="UTF-8" standalone="no"?>
<!DOCTYPE svg PUBLIC "-//W3C//DTD SVG 1.1//EN"
 "http://www.w3.org/Graphics/SVG/1.1/DTD/svg11.dtd">
<!-- Generated by graphviz version 2.36.0 (20140111.2315)
 -->
<!-- Title: model.TurtleMultiple.setTowards Pages: 1 -->
<svg width="910pt" height="220pt"
 viewBox="0.00 0.00 910.00 220.00" xmlns="http://www.w3.org/2000/svg" xmlns:xlink="http://www.w3.org/1999/xlink">
<g id="graph0" class="graph" transform="scale(1 1) rotate(0) translate(4 216)">
<title>model.TurtleMultiple.setTowards</title>
<polygon fill="white" stroke="none" points="-4,4 -4,-216 906,-216 906,4 -4,4"/>
<!-- Node1 -->
<g id="node1" class="node"><title>Node1</title>
<polygon fill="#bfbfbf" stroke="black" points="0,-143 0,-173 130,-173 130,-143 0,-143"/>
<text text-anchor="start" x="8" y="-161" font-family="Helvetica,sans-Serif" font-size="10.00">model.TurtleMultiple.set</text>
<text text-anchor="middle" x="65" y="-150" font-family="Helvetica,sans-Serif" font-size="10.00">Towards</text>
</g>
<!-- Node2 -->
<g id="node2" class="node"><title>Node2</title>
<g id="a_node2"><a xlink:href="../../da/d88/classmodel_1_1_turtle_single.html#a2a2d4c76b711eabbf4132222c6f0c8aa" target="_top" xlink:title="model.TurtleSingle.getID">
<polygon fill="white" stroke="black" points="179.5,-192.5 179.5,-211.5 312.5,-211.5 312.5,-192.5 179.5,-192.5"/>
<text text-anchor="middle" x="246" y="-199.5" font-family="Helvetica,sans-Serif" font-size="10.00">model.TurtleSingle.getID</text>
</a>
</g>
</g>
<!-- Node1&#45;&gt;Node2 -->
<g id="edge1" class="edge"><title>Node1&#45;&gt;Node2</title>
<path fill="none" stroke="midnightblue" d="M127.101,-173.019C149.746,-178.586 175.097,-184.817 196.472,-190.071"/>
<polygon fill="midnightblue" stroke="midnightblue" points="195.755,-193.499 206.302,-192.488 197.426,-186.702 195.755,-193.499"/>
</g>
<!-- Node3 -->
<g id="node3" class="node"><title>Node3</title>
<g id="a_node3"><a xlink:href="../../d9/dea/classmodel_1_1_turtle_multiple.html#a39a093480efa352c2066e4ef8534f26e" target="_top" xlink:title="model.TurtleMultiple.get\lStream">
<polygon fill="white" stroke="black" points="180.5,-143 180.5,-173 311.5,-173 311.5,-143 180.5,-143"/>
<text text-anchor="start" x="188.5" y="-161" font-family="Helvetica,sans-Serif" font-size="10.00">model.TurtleMultiple.get</text>
<text text-anchor="middle" x="246" y="-150" font-family="Helvetica,sans-Serif" font-size="10.00">Stream</text>
</a>
</g>
</g>
<!-- Node1&#45;&gt;Node3 -->
<g id="edge2" class="edge"><title>Node1&#45;&gt;Node3</title>
<path fill="none" stroke="midnightblue" d="M130.118,-158C143.148,-158 156.96,-158 170.32,-158"/>
<polygon fill="midnightblue" stroke="midnightblue" points="170.427,-161.5 180.427,-158 170.427,-154.5 170.427,-161.5"/>
</g>
<!-- Node5 -->
<g id="node5" class="node"><title>Node5</title>
<g id="a_node5"><a xlink:href="../../da/d88/classmodel_1_1_turtle_single.html#a6ad1aa6c71c5e1ba0f347f27941cc276" target="_top" xlink:title="model.TurtleSingle.setTowards">
<polygon fill="white" stroke="black" points="166,-85.5 166,-104.5 326,-104.5 326,-85.5 166,-85.5"/>
<text text-anchor="middle" x="246" y="-92.5" font-family="Helvetica,sans-Serif" font-size="10.00">model.TurtleSingle.setTowards</text>
</a>
</g>
</g>
<!-- Node1&#45;&gt;Node5 -->
<g id="edge4" class="edge"><title>Node1&#45;&gt;Node5</title>
<path fill="none" stroke="midnightblue" d="M108.875,-142.91C139.129,-132.262 179.245,-118.143 208.079,-107.994"/>
<polygon fill="midnightblue" stroke="midnightblue" points="209.503,-111.204 217.773,-104.583 207.179,-104.601 209.503,-111.204"/>
</g>
<!-- Node4 -->
<g id="node4" class="node"><title>Node4</title>
<g id="a_node4"><a xlink:href="../../d9/dea/classmodel_1_1_turtle_multiple.html#a47e5a06bab25ead16ef3098a4257aa4b" target="_top" xlink:title="model.TurtleMultiple.set\lLastTurtle">
<polygon fill="white" stroke="black" points="378,-162 378,-192 508,-192 508,-162 378,-162"/>
<text text-anchor="start" x="386" y="-180" font-family="Helvetica,sans-Serif" font-size="10.00">model.TurtleMultiple.set</text>
<text text-anchor="middle" x="443" y="-169" font-family="Helvetica,sans-Serif" font-size="10.00">LastTurtle</text>
</a>
</g>
</g>
<!-- Node3&#45;&gt;Node4 -->
<g id="edge3" class="edge"><title>Node3&#45;&gt;Node4</title>
<path fill="none" stroke="midnightblue" d="M311.661,-164.3C329.621,-166.05 349.265,-167.964 367.728,-169.763"/>
<polygon fill="midnightblue" stroke="midnightblue" points="367.554,-173.263 377.846,-170.749 368.232,-166.296 367.554,-173.263"/>
</g>
<!-- Node6 -->
<g id="node6" class="node"><title>Node6</title>
<g id="a_node6"><a xlink:href="../../d8/d6a/classmodel_1_1_coordinates.html#a52f6ed56424da9a52c598f9c94f2c8ff" target="_top" xlink:title="model.Coordinates.getY">
<polygon fill="white" stroke="black" points="377.5,-123.5 377.5,-142.5 508.5,-142.5 508.5,-123.5 377.5,-123.5"/>
<text text-anchor="middle" x="443" y="-130.5" font-family="Helvetica,sans-Serif" font-size="10.00">model.Coordinates.getY</text>
</a>
</g>
</g>
<!-- Node5&#45;&gt;Node6 -->
<g id="edge5" class="edge"><title>Node5&#45;&gt;Node6</title>
<path fill="none" stroke="midnightblue" d="M295.955,-104.54C322.381,-109.69 355.194,-116.084 383.02,-121.506"/>
<polygon fill="midnightblue" stroke="midnightblue" points="382.54,-124.979 393.025,-123.456 383.879,-118.108 382.54,-124.979"/>
</g>
<!-- Node7 -->
<g id="node7" class="node"><title>Node7</title>
<g id="a_node7"><a xlink:href="../../d8/d6a/classmodel_1_1_coordinates.html#af4866826a0da36de7015ac63447db5b1" target="_top" xlink:title="model.Coordinates.getX">
<polygon fill="white" stroke="black" points="377,-85.5 377,-104.5 509,-104.5 509,-85.5 377,-85.5"/>
<text text-anchor="middle" x="443" y="-92.5" font-family="Helvetica,sans-Serif" font-size="10.00">model.Coordinates.getX</text>
</a>
</g>
</g>
<!-- Node5&#45;&gt;Node7 -->
<g id="edge6" class="edge"><title>Node5&#45;&gt;Node7</title>
<path fill="none" stroke="midnightblue" d="M326.033,-95C339.493,-95 353.441,-95 366.799,-95"/>
<polygon fill="midnightblue" stroke="midnightblue" points="366.881,-98.5001 376.881,-95 366.881,-91.5001 366.881,-98.5001"/>
</g>
<!-- Node8 -->
<g id="node8" class="node"><title>Node8</title>
<g id="a_node8"><a xlink:href="../../da/d88/classmodel_1_1_turtle_single.html#a002b91f80521a6ca5cf20a62b7006c34" target="_top" xlink:title="model.TurtleSingle.setHeading">
<polygon fill="white" stroke="black" points="362,-47.5 362,-66.5 524,-66.5 524,-47.5 362,-47.5"/>
<text text-anchor="middle" x="443" y="-54.5" font-family="Helvetica,sans-Serif" font-size="10.00">model.TurtleSingle.setHeading</text>
</a>
</g>
</g>
<!-- Node5&#45;&gt;Node8 -->
<g id="edge7" class="edge"><title>Node5&#45;&gt;Node8</title>
<path fill="none" stroke="midnightblue" d="M295.955,-85.46C322.381,-80.3104 355.194,-73.916 383.02,-68.4935"/>
<polygon fill="midnightblue" stroke="midnightblue" points="383.879,-71.8921 393.025,-66.5439 382.54,-65.0213 383.879,-71.8921"/>
</g>
<!-- Node12 -->
<g id="node12" class="node"><title>Node12</title>
<g id="a_node12"><a xlink:href="../../da/d88/classmodel_1_1_turtle_single.html#a40853b6f8c9ba455489ad8ea9535e99d" target="_top" xlink:title="model.TurtleSingle.notify\lObservers">
<polygon fill="white" stroke="black" points="568,-0 568,-30 702,-30 702,-0 568,-0"/>
<text text-anchor="start" x="576" y="-18" font-family="Helvetica,sans-Serif" font-size="10.00">model.TurtleSingle.notify</text>
<text text-anchor="middle" x="635" y="-7" font-family="Helvetica,sans-Serif" font-size="10.00">Observers</text>
</a>
</g>
</g>
<!-- Node5&#45;&gt;Node12 -->
<g id="edge12" class="edge"><title>Node5&#45;&gt;Node12</title>
<path fill="none" stroke="midnightblue" d="M261.883,-85.3204C283.122,-72.0568 323.797,-48.666 362,-38 426.456,-20.0043 502.564,-14.8635 557.858,-13.8714"/>
<polygon fill="midnightblue" stroke="midnightblue" points="557.982,-17.3701 567.933,-13.7323 557.886,-10.3708 557.982,-17.3701"/>
</g>
<!-- Node9 -->
<g id="node9" class="node"><title>Node9</title>
<g id="a_node9"><a xlink:href="../../de/dfa/classmodel_1_1_angle.html#aa1b069cc47fadd893fe8527c356dd8fd" target="_top" xlink:title="model.Angle.getAngleValue">
<polygon fill="white" stroke="black" points="560.5,-87.5 560.5,-106.5 709.5,-106.5 709.5,-87.5 560.5,-87.5"/>
<text text-anchor="middle" x="635" y="-94.5" font-family="Helvetica,sans-Serif" font-size="10.00">model.Angle.getAngleValue</text>
</a>
</g>
</g>
<!-- Node8&#45;&gt;Node9 -->
<g id="edge8" class="edge"><title>Node8&#45;&gt;Node9</title>
<path fill="none" stroke="midnightblue" d="M489.51,-66.581C516.301,-72.2212 550.377,-79.3952 578.708,-85.3596"/>
<polygon fill="midnightblue" stroke="midnightblue" points="578.355,-88.8619 588.862,-87.4972 579.797,-82.0121 578.355,-88.8619"/>
</g>
<!-- Node10 -->
<g id="node10" class="node"><title>Node10</title>
<g id="a_node10"><a xlink:href="../../de/dfa/classmodel_1_1_angle.html#abc668dbdb92ee339fea7492cda826061" target="_top" xlink:title="model.Angle.setAngleValue">
<polygon fill="white" stroke="black" points="561,-49.5 561,-68.5 709,-68.5 709,-49.5 561,-49.5"/>
<text text-anchor="middle" x="635" y="-56.5" font-family="Helvetica,sans-Serif" font-size="10.00">model.Angle.setAngleValue</text>
</a>
</g>
</g>
<!-- Node8&#45;&gt;Node10 -->
<g id="edge9" class="edge"><title>Node8&#45;&gt;Node10</title>
<path fill="none" stroke="midnightblue" d="M524.026,-57.8424C532.774,-57.9345 541.695,-58.0284 550.483,-58.1209"/>
<polygon fill="midnightblue" stroke="midnightblue" points="550.683,-61.6231 560.719,-58.2286 550.757,-54.6235 550.683,-61.6231"/>
</g>
<!-- Node8&#45;&gt;Node12 -->
<g id="edge11" class="edge"><title>Node8&#45;&gt;Node12</title>
<path fill="none" stroke="midnightblue" d="M487.114,-47.4695C508.092,-42.8323 533.939,-37.1186 558.074,-31.7837"/>
<polygon fill="midnightblue" stroke="midnightblue" points="558.926,-35.1799 567.935,-29.6039 557.415,-28.3449 558.926,-35.1799"/>
</g>
<!-- Node11 -->
<g id="node11" class="node"><title>Node11</title>
<g id="a_node11"><a xlink:href="../../de/dfa/classmodel_1_1_angle.html#a33d4e2194b10ee4aa384b74c7f73f3e6" target="_top" xlink:title="model.Angle.modAngleValue">
<polygon fill="white" stroke="black" points="746.5,-49.5 746.5,-68.5 901.5,-68.5 901.5,-49.5 746.5,-49.5"/>
<text text-anchor="middle" x="824" y="-56.5" font-family="Helvetica,sans-Serif" font-size="10.00">model.Angle.modAngleValue</text>
</a>
</g>
</g>
<!-- Node10&#45;&gt;Node11 -->
<g id="edge10" class="edge"><title>Node10&#45;&gt;Node11</title>
<path fill="none" stroke="midnightblue" d="M709.103,-59C717.959,-59 727.073,-59 736.104,-59"/>
<polygon fill="midnightblue" stroke="midnightblue" points="736.247,-62.5001 746.247,-59 736.247,-55.5001 736.247,-62.5001"/>
</g>
</g>
</svg>
