<?xml version="1.0" encoding="UTF-8" standalone="no"?>
<!DOCTYPE svg PUBLIC "-//W3C//DTD SVG 1.1//EN"
 "http://www.w3.org/Graphics/SVG/1.1/DTD/svg11.dtd">
<!-- Generated by graphviz version 2.36.0 (20140111.2315)
 -->
<!-- Title: model.TurtleMultiple.moveDistance Pages: 1 -->
<!--zoomable 231 -->
<svg id="main" version="1.1" xmlns="http://www.w3.org/2000/svg" xmlns:xlink="http://www.w3.org/1999/xlink" xml:space="preserve" onload="init(evt)">
<style type="text/css"><![CDATA[
.edge:hover path { stroke: red; }
.edge:hover polygon { stroke: red; fill: red; }
]]></style>
<script type="text/javascript"><![CDATA[
var edges = document.getElementsByTagName('g');
if (edges && edges.length) {
  for (var i=0;i<edges.length;i++) {
    if (edges[i].id.substr(0,4)=='edge') {
      edges[i].setAttribute('class','edge');
    }
  }
}
]]></script>
        <defs>
                <circle id="rim" cx="0" cy="0" r="7"/>
                <circle id="rim2" cx="0" cy="0" r="3.5"/>
                <g id="zoomPlus">
                        <use xlink:href="#rim" fill="#404040">
                                <set attributeName="fill" to="#808080" begin="zoomplus.mouseover" end="zoomplus.mouseout"/>
                        </use>
                        <path d="M-4,0h8M0,-4v8" fill="none" stroke="white" stroke-width="1.5" pointer-events="none"/>
                </g>
                <g id="zoomMin">
                        <use xlink:href="#rim" fill="#404040">
                                <set attributeName="fill" to="#808080" begin="zoomminus.mouseover" end="zoomminus.mouseout"/>
                        </use>
                        <path d="M-4,0h8" fill="none" stroke="white" stroke-width="1.5" pointer-events="none"/>
                </g>
                <g id="dirArrow">
                        <path fill="none" stroke="white" stroke-width="1.5" d="M0,-3.0v7 M-2.5,-0.5L0,-3.0L2.5,-0.5"/>
                </g>
               <g id="resetDef">
                       <use xlink:href="#rim2" fill="#404040">
                               <set attributeName="fill" to="#808080" begin="reset.mouseover" end="reset.mouseout"/>
                       </use>
               </g>
        </defs>

<script type="text/javascript">
var viewWidth = 802;
var viewHeight = 231;
var sectionId = 'dynsection-29';
</script>
<script xlink:href="../../svgpan.js"/>
<svg id="graph" class="graph">
<g id="viewport">
<title>model.TurtleMultiple.moveDistance</title>
<polygon fill="white" stroke="none" points="-4,4 -4,-227 798,-227 798,4 -4,4"/>
<!-- Node1 -->
<g id="node1" class="node"><title>Node1</title>
<polygon fill="#bfbfbf" stroke="black" points="0,-154 0,-184 142,-184 142,-154 0,-154"/>
<text text-anchor="start" x="8" y="-172" font-family="Helvetica,sans-Serif" font-size="10.00">model.TurtleMultiple.move</text>
<text text-anchor="middle" x="71" y="-161" font-family="Helvetica,sans-Serif" font-size="10.00">Distance</text>
</g>
<!-- Node2 -->
<g id="node2" class="node"><title>Node2</title>
<g id="a_node2"><a xlink:href="../../da/d88/classmodel_1_1_turtle_single.html#a2a2d4c76b711eabbf4132222c6f0c8aa" target="_top" xlink:title="model.TurtleSingle.getID">
<polygon fill="white" stroke="black" points="199.5,-203.5 199.5,-222.5 332.5,-222.5 332.5,-203.5 199.5,-203.5"/>
<text text-anchor="middle" x="266" y="-210.5" font-family="Helvetica,sans-Serif" font-size="10.00">model.TurtleSingle.getID</text>
</a>
</g>
</g>
<!-- Node1&#45;&gt;Node2 -->
<g id="edge1" class="edge"><title>Node1&#45;&gt;Node2</title>
<path fill="none" stroke="midnightblue" d="M137.88,-184.019C162.517,-189.636 190.125,-195.93 213.301,-201.214"/>
<polygon fill="midnightblue" stroke="midnightblue" points="212.747,-204.677 223.275,-203.488 214.303,-197.852 212.747,-204.677"/>
</g>
<!-- Node3 -->
<g id="node3" class="node"><title>Node3</title>
<g id="a_node3"><a xlink:href="../../d9/dea/classmodel_1_1_turtle_multiple.html#a39a093480efa352c2066e4ef8534f26e" target="_top" xlink:title="model.TurtleMultiple.get\lStream">
<polygon fill="white" stroke="black" points="200.5,-154 200.5,-184 331.5,-184 331.5,-154 200.5,-154"/>
<text text-anchor="start" x="208.5" y="-172" font-family="Helvetica,sans-Serif" font-size="10.00">model.TurtleMultiple.get</text>
<text text-anchor="middle" x="266" y="-161" font-family="Helvetica,sans-Serif" font-size="10.00">Stream</text>
</a>
</g>
</g>
<!-- Node1&#45;&gt;Node3 -->
<g id="edge2" class="edge"><title>Node1&#45;&gt;Node3</title>
<path fill="none" stroke="midnightblue" d="M142.223,-169C157.784,-169 174.332,-169 190.072,-169"/>
<polygon fill="midnightblue" stroke="midnightblue" points="190.281,-172.5 200.281,-169 190.281,-165.5 190.281,-172.5"/>
</g>
<!-- Node5 -->
<g id="node5" class="node"><title>Node5</title>
<g id="a_node5"><a xlink:href="../../da/d88/classmodel_1_1_turtle_single.html#a9565e73b577c886fd15470d9b108a573" target="_top" xlink:title="model.TurtleSingle.moveDistance">
<polygon fill="white" stroke="black" points="178,-93.5 178,-112.5 354,-112.5 354,-93.5 178,-93.5"/>
<text text-anchor="middle" x="266" y="-100.5" font-family="Helvetica,sans-Serif" font-size="10.00">model.TurtleSingle.moveDistance</text>
</a>
</g>
</g>
<!-- Node1&#45;&gt;Node5 -->
<g id="edge4" class="edge"><title>Node1&#45;&gt;Node5</title>
<path fill="none" stroke="midnightblue" d="M116.278,-153.858C149.819,-142.388 195.404,-126.8 227.233,-115.915"/>
<polygon fill="midnightblue" stroke="midnightblue" points="228.721,-119.105 237.051,-112.558 226.456,-112.482 228.721,-119.105"/>
</g>
<!-- Node4 -->
<g id="node4" class="node"><title>Node4</title>
<g id="a_node4"><a xlink:href="../../d9/dea/classmodel_1_1_turtle_multiple.html#a47e5a06bab25ead16ef3098a4257aa4b" target="_top" xlink:title="model.TurtleMultiple.set\lLastTurtle">
<polygon fill="white" stroke="black" points="418,-176 418,-206 548,-206 548,-176 418,-176"/>
<text text-anchor="start" x="426" y="-194" font-family="Helvetica,sans-Serif" font-size="10.00">model.TurtleMultiple.set</text>
<text text-anchor="middle" x="483" y="-183" font-family="Helvetica,sans-Serif" font-size="10.00">LastTurtle</text>
</a>
</g>
</g>
<!-- Node3&#45;&gt;Node4 -->
<g id="edge3" class="edge"><title>Node3&#45;&gt;Node4</title>
<path fill="none" stroke="midnightblue" d="M331.507,-175.601C355.533,-178.059 382.988,-180.869 407.814,-183.409"/>
<polygon fill="midnightblue" stroke="midnightblue" points="407.605,-186.906 417.909,-184.442 408.317,-179.942 407.605,-186.906"/>
</g>
<!-- Node6 -->
<g id="node6" class="node"><title>Node6</title>
<g id="a_node6"><a xlink:href="../../da/d88/classmodel_1_1_turtle_single.html#a77c4ca1d42e2a0ea36b7a8e33406f9d9" target="_top" xlink:title="model.TurtleSingle.change">
<polygon fill="white" stroke="black" points="411.5,-137.5 411.5,-156.5 554.5,-156.5 554.5,-137.5 411.5,-137.5"/>
<text text-anchor="middle" x="483" y="-144.5" font-family="Helvetica,sans-Serif" font-size="10.00">model.TurtleSingle.change</text>
</a>
</g>
</g>
<!-- Node5&#45;&gt;Node6 -->
<g id="edge5" class="edge"><title>Node5&#45;&gt;Node6</title>
<path fill="none" stroke="midnightblue" d="M313.652,-112.547C346.474,-119.265 390.582,-128.291 425.415,-135.42"/>
<polygon fill="midnightblue" stroke="midnightblue" points="424.941,-138.895 435.439,-137.471 426.344,-132.037 424.941,-138.895"/>
</g>
<!-- Node8 -->
<g id="node8" class="node"><title>Node8</title>
<g id="a_node8"><a xlink:href="../../da/d88/classmodel_1_1_turtle_single.html#ae716e6ffff8b2fdc3e91b2aac113d361" target="_top" xlink:title="model.TurtleSingle.distance\lToCoordinates">
<polygon fill="white" stroke="black" points="409,-88 409,-118 557,-118 557,-88 409,-88"/>
<text text-anchor="start" x="417" y="-106" font-family="Helvetica,sans-Serif" font-size="10.00">model.TurtleSingle.distance</text>
<text text-anchor="middle" x="483" y="-95" font-family="Helvetica,sans-Serif" font-size="10.00">ToCoordinates</text>
</a>
</g>
</g>
<!-- Node5&#45;&gt;Node8 -->
<g id="edge7" class="edge"><title>Node5&#45;&gt;Node8</title>
<path fill="none" stroke="midnightblue" d="M354.139,-103C368.893,-103 384.178,-103 398.827,-103"/>
<polygon fill="midnightblue" stroke="midnightblue" points="398.852,-106.5 408.852,-103 398.852,-99.5001 398.852,-106.5"/>
</g>
<!-- Node11 -->
<g id="node11" class="node"><title>Node11</title>
<g id="a_node11"><a xlink:href="../../d8/d6a/classmodel_1_1_coordinates.html#adbb734c55a78cb2067e20a8d4b108735" target="_top" xlink:title="model.Coordinates.addCoordinates">
<polygon fill="white" stroke="black" points="390,-49.5 390,-68.5 576,-68.5 576,-49.5 390,-49.5"/>
<text text-anchor="middle" x="483" y="-56.5" font-family="Helvetica,sans-Serif" font-size="10.00">model.Coordinates.addCoordinates</text>
</a>
</g>
</g>
<!-- Node5&#45;&gt;Node11 -->
<g id="edge10" class="edge"><title>Node5&#45;&gt;Node11</title>
<path fill="none" stroke="midnightblue" d="M313.652,-93.4527C346.474,-86.7355 390.582,-77.7089 425.415,-70.5802"/>
<polygon fill="midnightblue" stroke="midnightblue" points="426.344,-73.9627 435.439,-68.5287 424.941,-67.1048 426.344,-73.9627"/>
</g>
<!-- Node14 -->
<g id="node14" class="node"><title>Node14</title>
<g id="a_node14"><a xlink:href="../../da/d88/classmodel_1_1_turtle_single.html#a40853b6f8c9ba455489ad8ea9535e99d" target="_top" xlink:title="model.TurtleSingle.notify\lObservers">
<polygon fill="white" stroke="black" points="416,-0 416,-30 550,-30 550,-0 416,-0"/>
<text text-anchor="start" x="424" y="-18" font-family="Helvetica,sans-Serif" font-size="10.00">model.TurtleSingle.notify</text>
<text text-anchor="middle" x="483" y="-7" font-family="Helvetica,sans-Serif" font-size="10.00">Observers</text>
</a>
</g>
</g>
<!-- Node5&#45;&gt;Node14 -->
<g id="edge13" class="edge"><title>Node5&#45;&gt;Node14</title>
<path fill="none" stroke="midnightblue" d="M283.206,-93.312C306.265,-79.8528 350.174,-55.4171 390,-40 396.326,-37.5511 402.985,-35.2456 409.707,-33.1003"/>
<polygon fill="midnightblue" stroke="midnightblue" points="411.037,-36.3533 419.57,-30.0738 408.984,-29.6612 411.037,-36.3533"/>
</g>
<!-- Node7 -->
<g id="node7" class="node"><title>Node7</title>
<g id="a_node7"><a xlink:href="../../d8/d57/interfacemodel_1_1_turtle_single_changer.html#aff9d5c9b819900c5e85c5679c1de41cf" target="_top" xlink:title="model.TurtleSingleChanger.change">
<polygon fill="white" stroke="black" points="612,-175.5 612,-194.5 794,-194.5 794,-175.5 612,-175.5"/>
<text text-anchor="middle" x="703" y="-182.5" font-family="Helvetica,sans-Serif" font-size="10.00">model.TurtleSingleChanger.change</text>
</a>
</g>
</g>
<!-- Node6&#45;&gt;Node7 -->
<g id="edge6" class="edge"><title>Node6&#45;&gt;Node7</title>
<path fill="none" stroke="midnightblue" d="M538.729,-156.54C568.661,-161.757 605.922,-168.253 637.288,-173.72"/>
<polygon fill="midnightblue" stroke="midnightblue" points="636.796,-177.187 647.248,-175.456 637.998,-170.291 636.796,-177.187"/>
</g>
<!-- Node9 -->
<g id="node9" class="node"><title>Node9</title>
<g id="a_node9"><a xlink:href="../../de/dfa/classmodel_1_1_angle.html#aeb719c426d449f6d0e6b96bd887ea9bc" target="_top" xlink:title="model.Angle.getAngleValue\lInRadians">
<polygon fill="white" stroke="black" points="628.5,-126 628.5,-156 777.5,-156 777.5,-126 628.5,-126"/>
<text text-anchor="start" x="636.5" y="-144" font-family="Helvetica,sans-Serif" font-size="10.00">model.Angle.getAngleValue</text>
<text text-anchor="middle" x="703" y="-133" font-family="Helvetica,sans-Serif" font-size="10.00">InRadians</text>
</a>
</g>
</g>
<!-- Node8&#45;&gt;Node9 -->
<g id="edge8" class="edge"><title>Node8&#45;&gt;Node9</title>
<path fill="none" stroke="midnightblue" d="M557.197,-115.759C576.773,-119.171 598.083,-122.886 618.183,-126.39"/>
<polygon fill="midnightblue" stroke="midnightblue" points="617.801,-129.876 628.253,-128.145 619.003,-122.98 617.801,-129.876"/>
</g>
<!-- Node10 -->
<g id="node10" class="node"><title>Node10</title>
<g id="a_node10"><a xlink:href="../../d8/d6a/classmodel_1_1_coordinates.html#a5c5a933429d6b6d1b04461ad15290f9f" target="_top" xlink:title="model.Coordinates.scale">
<polygon fill="white" stroke="black" points="635.5,-87.5 635.5,-106.5 770.5,-106.5 770.5,-87.5 635.5,-87.5"/>
<text text-anchor="middle" x="703" y="-94.5" font-family="Helvetica,sans-Serif" font-size="10.00">model.Coordinates.scale</text>
</a>
</g>
</g>
<!-- Node8&#45;&gt;Node10 -->
<g id="edge9" class="edge"><title>Node8&#45;&gt;Node10</title>
<path fill="none" stroke="midnightblue" d="M557.197,-100.985C579.08,-100.383 603.127,-99.7213 625.232,-99.1129"/>
<polygon fill="midnightblue" stroke="midnightblue" points="625.337,-102.611 635.237,-98.8375 625.144,-95.6141 625.337,-102.611"/>
</g>
<!-- Node12 -->
<g id="node12" class="node"><title>Node12</title>
<g id="a_node12"><a xlink:href="../../d8/d6a/classmodel_1_1_coordinates.html#af4866826a0da36de7015ac63447db5b1" target="_top" xlink:title="model.Coordinates.getX">
<polygon fill="white" stroke="black" points="637,-49.5 637,-68.5 769,-68.5 769,-49.5 637,-49.5"/>
<text text-anchor="middle" x="703" y="-56.5" font-family="Helvetica,sans-Serif" font-size="10.00">model.Coordinates.getX</text>
</a>
</g>
</g>
<!-- Node11&#45;&gt;Node12 -->
<g id="edge11" class="edge"><title>Node11&#45;&gt;Node12</title>
<path fill="none" stroke="midnightblue" d="M576.136,-59C593.073,-59 610.566,-59 626.927,-59"/>
<polygon fill="midnightblue" stroke="midnightblue" points="626.953,-62.5001 636.953,-59 626.953,-55.5001 626.953,-62.5001"/>
</g>
<!-- Node13 -->
<g id="node13" class="node"><title>Node13</title>
<g id="a_node13"><a xlink:href="../../d8/d6a/classmodel_1_1_coordinates.html#a52f6ed56424da9a52c598f9c94f2c8ff" target="_top" xlink:title="model.Coordinates.getY">
<polygon fill="white" stroke="black" points="637.5,-11.5 637.5,-30.5 768.5,-30.5 768.5,-11.5 637.5,-11.5"/>
<text text-anchor="middle" x="703" y="-18.5" font-family="Helvetica,sans-Serif" font-size="10.00">model.Coordinates.getY</text>
</a>
</g>
</g>
<!-- Node11&#45;&gt;Node13 -->
<g id="edge12" class="edge"><title>Node11&#45;&gt;Node13</title>
<path fill="none" stroke="midnightblue" d="M538.729,-49.46C568.661,-44.2426 605.922,-37.7475 637.288,-32.28"/>
<polygon fill="midnightblue" stroke="midnightblue" points="637.998,-35.7092 647.248,-30.5439 636.796,-28.8132 637.998,-35.7092"/>
</g>
</g>
</svg>
        <g id="navigator" transform="translate(0 0)" fill="#404254">
                <rect fill="#f2f5e9" fill-opacity="0.5" stroke="#606060" stroke-width=".5" x="0" y="0" width="60" height="60"/>
                <use id="zoomplus" xlink:href="#zoomPlus" x="17" y="9" onmousedown="handleZoom(evt,'in')"/>
                <use id="zoomminus" xlink:href="#zoomMin" x="42" y="9" onmousedown="handleZoom(evt,'out')"/>
                <use id="reset" xlink:href="#resetDef" x="30" y="36" onmousedown="handleReset()"/>
                <g id="arrowUp" xlink:href="#dirArrow" transform="translate(30 24)" onmousedown="handlePan(0,-1)">
                  <use xlink:href="#rim" fill="#404040">
                        <set attributeName="fill" to="#808080" begin="arrowUp.mouseover" end="arrowUp.mouseout"/>
                  </use>
                  <path fill="none" stroke="white" stroke-width="1.5" d="M0,-3.0v7 M-2.5,-0.5L0,-3.0L2.5,-0.5"/>
                </g>
                <g id="arrowRight" xlink:href="#dirArrow" transform="rotate(90) translate(36 -43)" onmousedown="handlePan(1,0)">
                  <use xlink:href="#rim" fill="#404040">
                        <set attributeName="fill" to="#808080" begin="arrowRight.mouseover" end="arrowRight.mouseout"/>
                  </use>
                  <path fill="none" stroke="white" stroke-width="1.5" d="M0,-3.0v7 M-2.5,-0.5L0,-3.0L2.5,-0.5"/>
                </g>
                <g id="arrowDown" xlink:href="#dirArrow" transform="rotate(180) translate(-30 -48)" onmousedown="handlePan(0,1)">
                  <use xlink:href="#rim" fill="#404040">
                        <set attributeName="fill" to="#808080" begin="arrowDown.mouseover" end="arrowDown.mouseout"/>
                  </use>
                  <path fill="none" stroke="white" stroke-width="1.5" d="M0,-3.0v7 M-2.5,-0.5L0,-3.0L2.5,-0.5"/>
                </g>
                <g id="arrowLeft" xlink:href="#dirArrow" transform="rotate(270) translate(-36 17)" onmousedown="handlePan(-1,0)">
                  <use xlink:href="#rim" fill="#404040">
                        <set attributeName="fill" to="#808080" begin="arrowLeft.mouseover" end="arrowLeft.mouseout"/>
                  </use>
                  <path fill="none" stroke="white" stroke-width="1.5" d="M0,-3.0v7 M-2.5,-0.5L0,-3.0L2.5,-0.5"/>
                </g>
        </g>
        <svg viewBox="0 0 15 15" width="100%" height="30px" preserveAspectRatio="xMaxYMin meet">
         <g id="arrow_out" transform="scale(0.3 0.3)">
          <a xlink:href="classmodel_1_1_turtle_multiple_a49086cf96575756ecc4a1070aef50aa7_cgraph_org.svg" target="_base">
           <rect id="button" ry="5" rx="5" y="6" x="6" height="38" width="38"
                fill="#f2f5e9" fill-opacity="0.5" stroke="#606060" stroke-width="1.0"/>
           <path id="arrow"
             d="M 11.500037,31.436501 C 11.940474,20.09759 22.043105,11.32322 32.158766,21.979434 L 37.068811,17.246167 C 37.068811,17.246167 37.088388,32 37.088388,32 L 22.160133,31.978069 C 22.160133,31.978069 26.997745,27.140456 26.997745,27.140456 C 18.528582,18.264221 13.291696,25.230495 11.500037,31.436501 z"
             style="fill:#404040;"/>
          </a>
         </g>
        </svg>
</svg>
