<?xml version="1.0" encoding="UTF-8" standalone="no"?>
<!DOCTYPE svg PUBLIC "-//W3C//DTD SVG 1.1//EN"
 "http://www.w3.org/Graphics/SVG/1.1/DTD/svg11.dtd">
<!-- Generated by graphviz version 2.36.0 (20140111.2315)
 -->
<!-- Title: model.TurtleMultiple.addNewTurtle Pages: 1 -->
<svg width="518pt" height="229pt"
 viewBox="0.00 0.00 518.00 229.00" xmlns="http://www.w3.org/2000/svg" xmlns:xlink="http://www.w3.org/1999/xlink">
<g id="graph0" class="graph" transform="scale(1 1) rotate(0) translate(4 225)">
<title>model.TurtleMultiple.addNewTurtle</title>
<polygon fill="white" stroke="none" points="-4,4 -4,-225 514,-225 514,4 -4,4"/>
<!-- Node1 -->
<g id="node1" class="node"><title>Node1</title>
<polygon fill="#bfbfbf" stroke="black" points="0.5,-101 0.5,-131 133.5,-131 133.5,-101 0.5,-101"/>
<text text-anchor="start" x="8.5" y="-119" font-family="Helvetica,sans-Serif" font-size="10.00">model.TurtleMultiple.add</text>
<text text-anchor="middle" x="67" y="-108" font-family="Helvetica,sans-Serif" font-size="10.00">NewTurtle</text>
</g>
<!-- Node2 -->
<g id="node2" class="node"><title>Node2</title>
<g id="a_node2"><a xlink:href="../../da/d88/classmodel_1_1_turtle_single.html#aba0071e51acee087eef14deae548b3ae" target="_top" xlink:title="model.TurtleSingle.addObserver">
<polygon fill="white" stroke="black" points="170.5,-201.5 170.5,-220.5 339.5,-220.5 339.5,-201.5 170.5,-201.5"/>
<text text-anchor="middle" x="255" y="-208.5" font-family="Helvetica,sans-Serif" font-size="10.00">model.TurtleSingle.addObserver</text>
</a>
</g>
</g>
<!-- Node1&#45;&gt;Node2 -->
<g id="edge1" class="edge"><title>Node1&#45;&gt;Node2</title>
<path fill="none" stroke="midnightblue" d="M83.9252,-131.268C102.903,-148.604 136.299,-176.487 170,-192 175.395,-194.483 181.137,-196.653 186.99,-198.547"/>
<polygon fill="midnightblue" stroke="midnightblue" points="186.32,-201.999 196.902,-201.482 188.307,-195.287 186.32,-201.999"/>
</g>
<!-- Node3 -->
<g id="node3" class="node"><title>Node3</title>
<g id="a_node3"><a xlink:href="../../da/d88/classmodel_1_1_turtle_single.html#a794583d8965cd381fe88c8d729564317" target="_top" xlink:title="model.TurtleSingle.createPen">
<polygon fill="white" stroke="black" points="177,-163.5 177,-182.5 333,-182.5 333,-163.5 177,-163.5"/>
<text text-anchor="middle" x="255" y="-170.5" font-family="Helvetica,sans-Serif" font-size="10.00">model.TurtleSingle.createPen</text>
</a>
</g>
</g>
<!-- Node1&#45;&gt;Node3 -->
<g id="edge2" class="edge"><title>Node1&#45;&gt;Node3</title>
<path fill="none" stroke="midnightblue" d="M113.338,-131.04C130.982,-136.795 151.394,-143.334 170,-149 182.822,-152.905 196.802,-156.974 209.613,-160.628"/>
<polygon fill="midnightblue" stroke="midnightblue" points="209.015,-164.097 219.591,-163.459 210.926,-157.362 209.015,-164.097"/>
</g>
<!-- Node4 -->
<g id="node4" class="node"><title>Node4</title>
<g id="a_node4"><a xlink:href="../../da/d88/classmodel_1_1_turtle_single.html#a40853b6f8c9ba455489ad8ea9535e99d" target="_top" xlink:title="model.TurtleSingle.notify\lObservers">
<polygon fill="white" stroke="black" points="376,-139 376,-169 510,-169 510,-139 376,-139"/>
<text text-anchor="start" x="384" y="-157" font-family="Helvetica,sans-Serif" font-size="10.00">model.TurtleSingle.notify</text>
<text text-anchor="middle" x="443" y="-146" font-family="Helvetica,sans-Serif" font-size="10.00">Observers</text>
</a>
</g>
</g>
<!-- Node1&#45;&gt;Node4 -->
<g id="edge6" class="edge"><title>Node1&#45;&gt;Node4</title>
<path fill="none" stroke="midnightblue" d="M133.574,-122.663C198.335,-129.243 297.328,-139.301 365.608,-146.238"/>
<polygon fill="midnightblue" stroke="midnightblue" points="365.57,-149.752 375.872,-147.281 366.277,-142.788 365.57,-149.752"/>
</g>
<!-- Node5 -->
<g id="node5" class="node"><title>Node5</title>
<g id="a_node5"><a xlink:href="../../d3/dbe/classview_1_1_view.html#a6950e4055440ab5672a2453b149f41d0" target="_top" xlink:title="view.View.getInstance">
<polygon fill="white" stroke="black" points="195.5,-87.5 195.5,-106.5 314.5,-106.5 314.5,-87.5 195.5,-87.5"/>
<text text-anchor="middle" x="255" y="-94.5" font-family="Helvetica,sans-Serif" font-size="10.00">view.View.getInstance</text>
</a>
</g>
</g>
<!-- Node1&#45;&gt;Node5 -->
<g id="edge4" class="edge"><title>Node1&#45;&gt;Node5</title>
<path fill="none" stroke="midnightblue" d="M133.577,-109.301C150.207,-107.603 168.121,-105.773 184.919,-104.057"/>
<polygon fill="midnightblue" stroke="midnightblue" points="185.62,-107.503 195.212,-103.005 184.908,-100.54 185.62,-107.503"/>
</g>
<!-- Node6 -->
<g id="node6" class="node"><title>Node6</title>
<g id="a_node6"><a xlink:href="../../d3/dbe/classview_1_1_view.html#a4dc01ce59b5abd00927536703b9fc8b5" target="_top" xlink:title="view.View.getTurtleWindow">
<polygon fill="white" stroke="black" points="185,-49.5 185,-68.5 325,-68.5 325,-49.5 185,-49.5"/>
<text text-anchor="middle" x="255" y="-56.5" font-family="Helvetica,sans-Serif" font-size="10.00">view.View.getTurtleWindow</text>
</a>
</g>
</g>
<!-- Node1&#45;&gt;Node6 -->
<g id="edge5" class="edge"><title>Node1&#45;&gt;Node6</title>
<path fill="none" stroke="midnightblue" d="M104.897,-100.889C124.1,-93.3747 148.086,-84.5283 170,-78 178.537,-75.4567 187.65,-73.0682 196.609,-70.9"/>
<polygon fill="midnightblue" stroke="midnightblue" points="197.684,-74.2429 206.619,-68.5493 196.083,-67.4283 197.684,-74.2429"/>
</g>
<!-- Node7 -->
<g id="node7" class="node"><title>Node7</title>
<g id="a_node7"><a xlink:href="../../d9/dea/classmodel_1_1_turtle_multiple.html#a47e5a06bab25ead16ef3098a4257aa4b" target="_top" xlink:title="model.TurtleMultiple.set\lLastTurtle">
<polygon fill="white" stroke="black" points="190,-0 190,-30 320,-30 320,-0 190,-0"/>
<text text-anchor="start" x="198" y="-18" font-family="Helvetica,sans-Serif" font-size="10.00">model.TurtleMultiple.set</text>
<text text-anchor="middle" x="255" y="-7" font-family="Helvetica,sans-Serif" font-size="10.00">LastTurtle</text>
</a>
</g>
</g>
<!-- Node1&#45;&gt;Node7 -->
<g id="edge7" class="edge"><title>Node1&#45;&gt;Node7</title>
<path fill="none" stroke="midnightblue" d="M84.4592,-100.824C103.672,-83.8365 137.033,-56.5314 170,-40 174.559,-37.7141 179.363,-35.5982 184.271,-33.647"/>
<polygon fill="midnightblue" stroke="midnightblue" points="185.652,-36.8678 193.801,-30.0964 183.208,-30.3083 185.652,-36.8678"/>
</g>
<!-- Node3&#45;&gt;Node4 -->
<g id="edge3" class="edge"><title>Node3&#45;&gt;Node4</title>
<path fill="none" stroke="midnightblue" d="M333.265,-165.107C344.005,-164.01 355.034,-162.884 365.756,-161.788"/>
<polygon fill="midnightblue" stroke="midnightblue" points="366.33,-165.248 375.922,-160.75 365.618,-158.284 366.33,-165.248"/>
</g>
</g>
</svg>
