<?xml version="1.0" encoding="UTF-8" standalone="no"?>
<!DOCTYPE svg PUBLIC "-//W3C//DTD SVG 1.1//EN"
 "http://www.w3.org/Graphics/SVG/1.1/DTD/svg11.dtd">
<!-- Generated by graphviz version 2.36.0 (20140111.2315)
 -->
<!-- Title: model.TurtleMultiple.moveToPosition Pages: 1 -->
<!--zoomable 266 -->
<svg id="main" version="1.1" xmlns="http://www.w3.org/2000/svg" xmlns:xlink="http://www.w3.org/1999/xlink" xml:space="preserve" onload="init(evt)">
<style type="text/css"><![CDATA[
.edge:hover path { stroke: red; }
.edge:hover polygon { stroke: red; fill: red; }
]]></style>
<script type="text/javascript"><![CDATA[
var edges = document.getElementsByTagName('g');
if (edges && edges.length) {
  for (var i=0;i<edges.length;i++) {
    if (edges[i].id.substr(0,4)=='edge') {
      edges[i].setAttribute('class','edge');
    }
  }
}
]]></script>
        <defs>
                <circle id="rim" cx="0" cy="0" r="7"/>
                <circle id="rim2" cx="0" cy="0" r="3.5"/>
                <g id="zoomPlus">
                        <use xlink:href="#rim" fill="#404040">
                                <set attributeName="fill" to="#808080" begin="zoomplus.mouseover" end="zoomplus.mouseout"/>
                        </use>
                        <path d="M-4,0h8M0,-4v8" fill="none" stroke="white" stroke-width="1.5" pointer-events="none"/>
                </g>
                <g id="zoomMin">
                        <use xlink:href="#rim" fill="#404040">
                                <set attributeName="fill" to="#808080" begin="zoomminus.mouseover" end="zoomminus.mouseout"/>
                        </use>
                        <path d="M-4,0h8" fill="none" stroke="white" stroke-width="1.5" pointer-events="none"/>
                </g>
                <g id="dirArrow">
                        <path fill="none" stroke="white" stroke-width="1.5" d="M0,-3.0v7 M-2.5,-0.5L0,-3.0L2.5,-0.5"/>
                </g>
               <g id="resetDef">
                       <use xlink:href="#rim2" fill="#404040">
                               <set attributeName="fill" to="#808080" begin="reset.mouseover" end="reset.mouseout"/>
                       </use>
               </g>
        </defs>

<script type="text/javascript">
var viewWidth = 720;
var viewHeight = 266;
var sectionId = 'dynsection-30';
</script>
<script xlink:href="../../svgpan.js"/>
<svg id="graph" class="graph">
<g id="viewport">
<title>model.TurtleMultiple.moveToPosition</title>
<polygon fill="white" stroke="none" points="-4,4 -4,-262.24 716,-262.24 716,4 -4,4"/>
<!-- Node1 -->
<g id="node1" class="node"><title>Node1</title>
<polygon fill="#bfbfbf" stroke="black" points="0,-186.24 0,-216.24 142,-216.24 142,-186.24 0,-186.24"/>
<text text-anchor="start" x="8" y="-204.24" font-family="Helvetica,sans-Serif" font-size="10.00">model.TurtleMultiple.move</text>
<text text-anchor="middle" x="71" y="-193.24" font-family="Helvetica,sans-Serif" font-size="10.00">ToPosition</text>
</g>
<!-- Node2 -->
<g id="node2" class="node"><title>Node2</title>
<g id="a_node2"><a xlink:href="../../da/d88/classmodel_1_1_turtle_single.html#a2a2d4c76b711eabbf4132222c6f0c8aa" target="_top" xlink:title="model.TurtleSingle.getID">
<polygon fill="white" stroke="black" points="183.5,-235.74 183.5,-254.74 316.5,-254.74 316.5,-235.74 183.5,-235.74"/>
<text text-anchor="middle" x="250" y="-242.74" font-family="Helvetica,sans-Serif" font-size="10.00">model.TurtleSingle.getID</text>
</a>
</g>
</g>
<!-- Node1&#45;&gt;Node2 -->
<g id="edge1" class="edge"><title>Node1&#45;&gt;Node2</title>
<path fill="none" stroke="midnightblue" d="M132.418,-216.259C154.81,-221.825 179.878,-228.057 201.014,-233.311"/>
<polygon fill="midnightblue" stroke="midnightblue" points="200.185,-236.711 210.734,-235.727 201.874,-229.918 200.185,-236.711"/>
</g>
<!-- Node3 -->
<g id="node3" class="node"><title>Node3</title>
<g id="a_node3"><a xlink:href="../../d9/dea/classmodel_1_1_turtle_multiple.html#a39a093480efa352c2066e4ef8534f26e" target="_top" xlink:title="model.TurtleMultiple.get\lStream">
<polygon fill="white" stroke="black" points="184.5,-186.24 184.5,-216.24 315.5,-216.24 315.5,-186.24 184.5,-186.24"/>
<text text-anchor="start" x="192.5" y="-204.24" font-family="Helvetica,sans-Serif" font-size="10.00">model.TurtleMultiple.get</text>
<text text-anchor="middle" x="250" y="-193.24" font-family="Helvetica,sans-Serif" font-size="10.00">Stream</text>
</a>
</g>
</g>
<!-- Node1&#45;&gt;Node3 -->
<g id="edge2" class="edge"><title>Node1&#45;&gt;Node3</title>
<path fill="none" stroke="midnightblue" d="M142.209,-201.24C152.742,-201.24 163.636,-201.24 174.259,-201.24"/>
<polygon fill="midnightblue" stroke="midnightblue" points="174.34,-204.74 184.34,-201.24 174.34,-197.74 174.34,-204.74"/>
</g>
<!-- Node5 -->
<g id="node5" class="node"><title>Node5</title>
<g id="a_node5"><a xlink:href="../../da/d88/classmodel_1_1_turtle_single.html#afd2d49972b498f78ddb54fab9e70f221" target="_top" xlink:title="model.TurtleSingle.moveTo\lPosition">
<polygon fill="white" stroke="black" points="178,-96.2397 178,-126.24 322,-126.24 322,-96.2397 178,-96.2397"/>
<text text-anchor="start" x="186" y="-114.24" font-family="Helvetica,sans-Serif" font-size="10.00">model.TurtleSingle.moveTo</text>
<text text-anchor="middle" x="250" y="-103.24" font-family="Helvetica,sans-Serif" font-size="10.00">Position</text>
</a>
</g>
</g>
<!-- Node1&#45;&gt;Node5 -->
<g id="edge4" class="edge"><title>Node1&#45;&gt;Node5</title>
<path fill="none" stroke="midnightblue" d="M101.626,-186.176C131.364,-171.055 177.332,-147.681 210.016,-131.062"/>
<polygon fill="midnightblue" stroke="midnightblue" points="211.95,-134.005 219.278,-126.353 208.777,-127.766 211.95,-134.005"/>
</g>
<!-- Node4 -->
<g id="node4" class="node"><title>Node4</title>
<g id="a_node4"><a xlink:href="../../d9/dea/classmodel_1_1_turtle_multiple.html#a47e5a06bab25ead16ef3098a4257aa4b" target="_top" xlink:title="model.TurtleMultiple.set\lLastTurtle">
<polygon fill="white" stroke="black" points="386,-228.24 386,-258.24 516,-258.24 516,-228.24 386,-228.24"/>
<text text-anchor="start" x="394" y="-246.24" font-family="Helvetica,sans-Serif" font-size="10.00">model.TurtleMultiple.set</text>
<text text-anchor="middle" x="451" y="-235.24" font-family="Helvetica,sans-Serif" font-size="10.00">LastTurtle</text>
</a>
</g>
</g>
<!-- Node3&#45;&gt;Node4 -->
<g id="edge3" class="edge"><title>Node3&#45;&gt;Node4</title>
<path fill="none" stroke="midnightblue" d="M315.61,-214.876C334.833,-218.933 356.045,-223.41 375.827,-227.585"/>
<polygon fill="midnightblue" stroke="midnightblue" points="375.207,-231.031 385.715,-229.672 376.653,-224.182 375.207,-231.031"/>
</g>
<!-- Node6 -->
<g id="node6" class="node"><title>Node6</title>
<g id="a_node6"><a xlink:href="../../d8/d6a/classmodel_1_1_coordinates.html#af4866826a0da36de7015ac63447db5b1" target="_top" xlink:title="model.Coordinates.getX">
<polygon fill="white" stroke="black" points="580,-25.7397 580,-44.7397 712,-44.7397 712,-25.7397 580,-25.7397"/>
<text text-anchor="middle" x="646" y="-32.7397" font-family="Helvetica,sans-Serif" font-size="10.00">model.Coordinates.getX</text>
</a>
</g>
</g>
<!-- Node5&#45;&gt;Node6 -->
<g id="edge5" class="edge"><title>Node5&#45;&gt;Node6</title>
<path fill="none" stroke="midnightblue" d="M262.058,-96.0396C279.484,-73.5376 315.735,-32.2948 358,-16.2397 442.11,15.7111 549.996,-6.72657 606.523,-22.8196"/>
<polygon fill="midnightblue" stroke="midnightblue" points="605.552,-26.1823 616.133,-25.6366 607.521,-19.4649 605.552,-26.1823"/>
</g>
<!-- Node7 -->
<g id="node7" class="node"><title>Node7</title>
<g id="a_node7"><a xlink:href="../../d8/d6a/classmodel_1_1_coordinates.html#a52f6ed56424da9a52c598f9c94f2c8ff" target="_top" xlink:title="model.Coordinates.getY">
<polygon fill="white" stroke="black" points="580.5,-63.7397 580.5,-82.7397 711.5,-82.7397 711.5,-63.7397 580.5,-63.7397"/>
<text text-anchor="middle" x="646" y="-70.7397" font-family="Helvetica,sans-Serif" font-size="10.00">model.Coordinates.getY</text>
</a>
</g>
</g>
<!-- Node5&#45;&gt;Node7 -->
<g id="edge6" class="edge"><title>Node5&#45;&gt;Node7</title>
<path fill="none" stroke="midnightblue" d="M268.008,-126.459C287.925,-143.164 322.706,-168.974 358,-179.24 437.377,-202.328 468.014,-211.795 544,-179.24 585.644,-161.398 618.257,-117.02 634.23,-91.7038"/>
<polygon fill="midnightblue" stroke="midnightblue" points="637.301,-93.3892 639.521,-83.0294 631.325,-89.7442 637.301,-93.3892"/>
</g>
<!-- Node8 -->
<g id="node8" class="node"><title>Node8</title>
<g id="a_node8"><a xlink:href="../../d8/d6a/classmodel_1_1_coordinates.html#adbb734c55a78cb2067e20a8d4b108735" target="_top" xlink:title="model.Coordinates.addCoordinates">
<polygon fill="white" stroke="black" points="358,-25.7397 358,-44.7397 544,-44.7397 544,-25.7397 358,-25.7397"/>
<text text-anchor="middle" x="451" y="-32.7397" font-family="Helvetica,sans-Serif" font-size="10.00">model.Coordinates.addCoordinates</text>
</a>
</g>
</g>
<!-- Node5&#45;&gt;Node8 -->
<g id="edge7" class="edge"><title>Node5&#45;&gt;Node8</title>
<path fill="none" stroke="midnightblue" d="M274.731,-96.0418C295.83,-83.1638 327.909,-65.1067 358,-54.2397 365.334,-51.591 373.138,-49.269 380.98,-47.2439"/>
<polygon fill="midnightblue" stroke="midnightblue" points="382.01,-50.5957 390.902,-44.8354 380.358,-43.7933 382.01,-50.5957"/>
</g>
<!-- Node9 -->
<g id="node9" class="node"><title>Node9</title>
<g id="a_node9"><a xlink:href="../../da/d88/classmodel_1_1_turtle_single.html#a40853b6f8c9ba455489ad8ea9535e99d" target="_top" xlink:title="model.TurtleSingle.notify\lObservers">
<polygon fill="white" stroke="black" points="384,-140.24 384,-170.24 518,-170.24 518,-140.24 384,-140.24"/>
<text text-anchor="start" x="392" y="-158.24" font-family="Helvetica,sans-Serif" font-size="10.00">model.TurtleSingle.notify</text>
<text text-anchor="middle" x="451" y="-147.24" font-family="Helvetica,sans-Serif" font-size="10.00">Observers</text>
</a>
</g>
</g>
<!-- Node5&#45;&gt;Node9 -->
<g id="edge10" class="edge"><title>Node5&#45;&gt;Node9</title>
<path fill="none" stroke="midnightblue" d="M318.928,-126.259C336.598,-130.166 355.751,-134.401 373.817,-138.395"/>
<polygon fill="midnightblue" stroke="midnightblue" points="373.205,-141.844 383.725,-140.586 374.717,-135.01 373.205,-141.844"/>
</g>
<!-- Node10 -->
<g id="node10" class="node"><title>Node10</title>
<g id="a_node10"><a xlink:href="../../d8/d6a/classmodel_1_1_coordinates.html#a9cf0ae0b4aa4402e6c58b8087efdac62" target="_top" xlink:title="model.Coordinates.distance">
<polygon fill="white" stroke="black" points="375.5,-63.7397 375.5,-82.7397 526.5,-82.7397 526.5,-63.7397 375.5,-63.7397"/>
<text text-anchor="middle" x="451" y="-70.7397" font-family="Helvetica,sans-Serif" font-size="10.00">model.Coordinates.distance</text>
</a>
</g>
</g>
<!-- Node5&#45;&gt;Node10 -->
<g id="edge11" class="edge"><title>Node5&#45;&gt;Node10</title>
<path fill="none" stroke="midnightblue" d="M322.001,-97.6818C344.26,-93.4313 368.597,-88.7839 390.017,-84.6937"/>
<polygon fill="midnightblue" stroke="midnightblue" points="390.789,-88.1097 399.955,-82.7961 389.476,-81.2339 390.789,-88.1097"/>
</g>
<!-- Node11 -->
<g id="node11" class="node"><title>Node11</title>
<g id="a_node11"><a xlink:href="../../da/d88/classmodel_1_1_turtle_single.html#a7382d43046c8a2d336efb4bec032e89f" target="_top" xlink:title="model.TurtleSingle.getCoordinates">
<polygon fill="white" stroke="black" points="360.5,-101.74 360.5,-120.74 541.5,-120.74 541.5,-101.74 360.5,-101.74"/>
<text text-anchor="middle" x="451" y="-108.74" font-family="Helvetica,sans-Serif" font-size="10.00">model.TurtleSingle.getCoordinates</text>
</a>
</g>
</g>
<!-- Node5&#45;&gt;Node11 -->
<g id="edge14" class="edge"><title>Node5&#45;&gt;Node11</title>
<path fill="none" stroke="midnightblue" d="M322.001,-111.24C331.1,-111.24 340.546,-111.24 349.998,-111.24"/>
<polygon fill="midnightblue" stroke="midnightblue" points="350.241,-114.74 360.241,-111.24 350.241,-107.74 350.241,-114.74"/>
</g>
<!-- Node8&#45;&gt;Node6 -->
<g id="edge8" class="edge"><title>Node8&#45;&gt;Node6</title>
<path fill="none" stroke="midnightblue" d="M544.26,-35.2397C552.804,-35.2397 561.392,-35.2397 569.756,-35.2397"/>
<polygon fill="midnightblue" stroke="midnightblue" points="569.829,-38.7398 579.829,-35.2397 569.829,-31.7398 569.829,-38.7398"/>
</g>
<!-- Node8&#45;&gt;Node7 -->
<g id="edge9" class="edge"><title>Node8&#45;&gt;Node7</title>
<path fill="none" stroke="midnightblue" d="M500.702,-44.8287C526.859,-49.9788 559.284,-56.363 586.767,-61.7742"/>
<polygon fill="midnightblue" stroke="midnightblue" points="586.16,-65.2219 596.648,-63.7197 587.513,-58.3537 586.16,-65.2219"/>
</g>
<!-- Node10&#45;&gt;Node6 -->
<g id="edge12" class="edge"><title>Node10&#45;&gt;Node6</title>
<path fill="none" stroke="midnightblue" d="M500.702,-63.6507C526.859,-58.5007 559.284,-52.1165 586.767,-46.7053"/>
<polygon fill="midnightblue" stroke="midnightblue" points="587.513,-50.1258 596.648,-44.7598 586.16,-43.2576 587.513,-50.1258"/>
</g>
<!-- Node10&#45;&gt;Node7 -->
<g id="edge13" class="edge"><title>Node10&#45;&gt;Node7</title>
<path fill="none" stroke="midnightblue" d="M526.619,-73.2397C540.873,-73.2397 555.8,-73.2397 570.065,-73.2397"/>
<polygon fill="midnightblue" stroke="midnightblue" points="570.316,-76.7398 580.315,-73.2397 570.315,-69.7398 570.316,-76.7398"/>
</g>
</g>
</svg>
        <g id="navigator" transform="translate(0 0)" fill="#404254">
                <rect fill="#f2f5e9" fill-opacity="0.5" stroke="#606060" stroke-width=".5" x="0" y="0" width="60" height="60"/>
                <use id="zoomplus" xlink:href="#zoomPlus" x="17" y="9" onmousedown="handleZoom(evt,'in')"/>
                <use id="zoomminus" xlink:href="#zoomMin" x="42" y="9" onmousedown="handleZoom(evt,'out')"/>
                <use id="reset" xlink:href="#resetDef" x="30" y="36" onmousedown="handleReset()"/>
                <g id="arrowUp" xlink:href="#dirArrow" transform="translate(30 24)" onmousedown="handlePan(0,-1)">
                  <use xlink:href="#rim" fill="#404040">
                        <set attributeName="fill" to="#808080" begin="arrowUp.mouseover" end="arrowUp.mouseout"/>
                  </use>
                  <path fill="none" stroke="white" stroke-width="1.5" d="M0,-3.0v7 M-2.5,-0.5L0,-3.0L2.5,-0.5"/>
                </g>
                <g id="arrowRight" xlink:href="#dirArrow" transform="rotate(90) translate(36 -43)" onmousedown="handlePan(1,0)">
                  <use xlink:href="#rim" fill="#404040">
                        <set attributeName="fill" to="#808080" begin="arrowRight.mouseover" end="arrowRight.mouseout"/>
                  </use>
                  <path fill="none" stroke="white" stroke-width="1.5" d="M0,-3.0v7 M-2.5,-0.5L0,-3.0L2.5,-0.5"/>
                </g>
                <g id="arrowDown" xlink:href="#dirArrow" transform="rotate(180) translate(-30 -48)" onmousedown="handlePan(0,1)">
                  <use xlink:href="#rim" fill="#404040">
                        <set attributeName="fill" to="#808080" begin="arrowDown.mouseover" end="arrowDown.mouseout"/>
                  </use>
                  <path fill="none" stroke="white" stroke-width="1.5" d="M0,-3.0v7 M-2.5,-0.5L0,-3.0L2.5,-0.5"/>
                </g>
                <g id="arrowLeft" xlink:href="#dirArrow" transform="rotate(270) translate(-36 17)" onmousedown="handlePan(-1,0)">
                  <use xlink:href="#rim" fill="#404040">
                        <set attributeName="fill" to="#808080" begin="arrowLeft.mouseover" end="arrowLeft.mouseout"/>
                  </use>
                  <path fill="none" stroke="white" stroke-width="1.5" d="M0,-3.0v7 M-2.5,-0.5L0,-3.0L2.5,-0.5"/>
                </g>
        </g>
        <svg viewBox="0 0 15 15" width="100%" height="30px" preserveAspectRatio="xMaxYMin meet">
         <g id="arrow_out" transform="scale(0.3 0.3)">
          <a xlink:href="classmodel_1_1_turtle_multiple_ab96e6d9114df066c4a1a5fc670742abb_cgraph_org.svg" target="_base">
           <rect id="button" ry="5" rx="5" y="6" x="6" height="38" width="38"
                fill="#f2f5e9" fill-opacity="0.5" stroke="#606060" stroke-width="1.0"/>
           <path id="arrow"
             d="M 11.500037,31.436501 C 11.940474,20.09759 22.043105,11.32322 32.158766,21.979434 L 37.068811,17.246167 C 37.068811,17.246167 37.088388,32 37.088388,32 L 22.160133,31.978069 C 22.160133,31.978069 26.997745,27.140456 26.997745,27.140456 C 18.528582,18.264221 13.291696,25.230495 11.500037,31.436501 z"
             style="fill:#404040;"/>
          </a>
         </g>
        </svg>
</svg>
