<?xml version="1.0" encoding="UTF-8" standalone="no"?>
<!DOCTYPE svg PUBLIC "-//W3C//DTD SVG 1.1//EN"
 "http://www.w3.org/Graphics/SVG/1.1/DTD/svg11.dtd">
<!-- Generated by graphviz version 2.36.0 (20140111.2315)
 -->
<!-- Title: model.TurtleMultiple.setHeading Pages: 1 -->
<!--zoomable 193 -->
<svg id="main" version="1.1" xmlns="http://www.w3.org/2000/svg" xmlns:xlink="http://www.w3.org/1999/xlink" xml:space="preserve" onload="init(evt)">
<style type="text/css"><![CDATA[
.edge:hover path { stroke: red; }
.edge:hover polygon { stroke: red; fill: red; }
]]></style>
<script type="text/javascript"><![CDATA[
var edges = document.getElementsByTagName('g');
if (edges && edges.length) {
  for (var i=0;i<edges.length;i++) {
    if (edges[i].id.substr(0,4)=='edge') {
      edges[i].setAttribute('class','edge');
    }
  }
}
]]></script>
        <defs>
                <circle id="rim" cx="0" cy="0" r="7"/>
                <circle id="rim2" cx="0" cy="0" r="3.5"/>
                <g id="zoomPlus">
                        <use xlink:href="#rim" fill="#404040">
                                <set attributeName="fill" to="#808080" begin="zoomplus.mouseover" end="zoomplus.mouseout"/>
                        </use>
                        <path d="M-4,0h8M0,-4v8" fill="none" stroke="white" stroke-width="1.5" pointer-events="none"/>
                </g>
                <g id="zoomMin">
                        <use xlink:href="#rim" fill="#404040">
                                <set attributeName="fill" to="#808080" begin="zoomminus.mouseover" end="zoomminus.mouseout"/>
                        </use>
                        <path d="M-4,0h8" fill="none" stroke="white" stroke-width="1.5" pointer-events="none"/>
                </g>
                <g id="dirArrow">
                        <path fill="none" stroke="white" stroke-width="1.5" d="M0,-3.0v7 M-2.5,-0.5L0,-3.0L2.5,-0.5"/>
                </g>
               <g id="resetDef">
                       <use xlink:href="#rim2" fill="#404040">
                               <set attributeName="fill" to="#808080" begin="reset.mouseover" end="reset.mouseout"/>
                       </use>
               </g>
        </defs>

<script type="text/javascript">
var viewWidth = 714;
var viewHeight = 193;
var sectionId = 'dynsection-33';
</script>
<script xlink:href="../../svgpan.js"/>
<svg id="graph" class="graph">
<g id="viewport">
<title>model.TurtleMultiple.setHeading</title>
<polygon fill="white" stroke="none" points="-4,4 -4,-189 710,-189 710,4 -4,4"/>
<!-- Node1 -->
<g id="node1" class="node"><title>Node1</title>
<polygon fill="#bfbfbf" stroke="black" points="0,-116 0,-146 130,-146 130,-116 0,-116"/>
<text text-anchor="start" x="8" y="-134" font-family="Helvetica,sans-Serif" font-size="10.00">model.TurtleMultiple.set</text>
<text text-anchor="middle" x="65" y="-123" font-family="Helvetica,sans-Serif" font-size="10.00">Heading</text>
</g>
<!-- Node2 -->
<g id="node2" class="node"><title>Node2</title>
<g id="a_node2"><a xlink:href="../../da/d88/classmodel_1_1_turtle_single.html#a2a2d4c76b711eabbf4132222c6f0c8aa" target="_top" xlink:title="model.TurtleSingle.getID">
<polygon fill="white" stroke="black" points="180.5,-165.5 180.5,-184.5 313.5,-184.5 313.5,-165.5 180.5,-165.5"/>
<text text-anchor="middle" x="247" y="-172.5" font-family="Helvetica,sans-Serif" font-size="10.00">model.TurtleSingle.getID</text>
</a>
</g>
</g>
<!-- Node1&#45;&gt;Node2 -->
<g id="edge1" class="edge"><title>Node1&#45;&gt;Node2</title>
<path fill="none" stroke="midnightblue" d="M127.442,-146.019C150.214,-151.586 175.706,-157.817 197.201,-163.071"/>
<polygon fill="midnightblue" stroke="midnightblue" points="196.54,-166.513 207.086,-165.488 198.203,-159.713 196.54,-166.513"/>
</g>
<!-- Node3 -->
<g id="node3" class="node"><title>Node3</title>
<g id="a_node3"><a xlink:href="../../d9/dea/classmodel_1_1_turtle_multiple.html#a39a093480efa352c2066e4ef8534f26e" target="_top" xlink:title="model.TurtleMultiple.get\lStream">
<polygon fill="white" stroke="black" points="181.5,-116 181.5,-146 312.5,-146 312.5,-116 181.5,-116"/>
<text text-anchor="start" x="189.5" y="-134" font-family="Helvetica,sans-Serif" font-size="10.00">model.TurtleMultiple.get</text>
<text text-anchor="middle" x="247" y="-123" font-family="Helvetica,sans-Serif" font-size="10.00">Stream</text>
</a>
</g>
</g>
<!-- Node1&#45;&gt;Node3 -->
<g id="edge2" class="edge"><title>Node1&#45;&gt;Node3</title>
<path fill="none" stroke="midnightblue" d="M130.222,-131C143.497,-131 157.589,-131 171.204,-131"/>
<polygon fill="midnightblue" stroke="midnightblue" points="171.5,-134.5 181.5,-131 171.5,-127.5 171.5,-134.5"/>
</g>
<!-- Node5 -->
<g id="node5" class="node"><title>Node5</title>
<g id="a_node5"><a xlink:href="../../da/d88/classmodel_1_1_turtle_single.html#a002b91f80521a6ca5cf20a62b7006c34" target="_top" xlink:title="model.TurtleSingle.setHeading">
<polygon fill="white" stroke="black" points="166,-58.5 166,-77.5 328,-77.5 328,-58.5 166,-58.5"/>
<text text-anchor="middle" x="247" y="-65.5" font-family="Helvetica,sans-Serif" font-size="10.00">model.TurtleSingle.setHeading</text>
</a>
</g>
</g>
<!-- Node1&#45;&gt;Node5 -->
<g id="edge4" class="edge"><title>Node1&#45;&gt;Node5</title>
<path fill="none" stroke="midnightblue" d="M109.114,-115.91C139.538,-105.262 179.878,-91.1428 208.873,-80.9944"/>
<polygon fill="midnightblue" stroke="midnightblue" points="210.339,-84.1896 218.621,-77.5825 208.027,-77.5826 210.339,-84.1896"/>
</g>
<!-- Node4 -->
<g id="node4" class="node"><title>Node4</title>
<g id="a_node4"><a xlink:href="../../d9/dea/classmodel_1_1_turtle_multiple.html#a47e5a06bab25ead16ef3098a4257aa4b" target="_top" xlink:title="model.TurtleMultiple.set\lLastTurtle">
<polygon fill="white" stroke="black" points="374,-126 374,-156 504,-156 504,-126 374,-126"/>
<text text-anchor="start" x="382" y="-144" font-family="Helvetica,sans-Serif" font-size="10.00">model.TurtleMultiple.set</text>
<text text-anchor="middle" x="439" y="-133" font-family="Helvetica,sans-Serif" font-size="10.00">LastTurtle</text>
</a>
</g>
</g>
<!-- Node3&#45;&gt;Node4 -->
<g id="edge3" class="edge"><title>Node3&#45;&gt;Node4</title>
<path fill="none" stroke="midnightblue" d="M312.59,-134.399C328.983,-135.262 346.726,-136.196 363.564,-137.082"/>
<polygon fill="midnightblue" stroke="midnightblue" points="363.74,-140.596 373.911,-137.627 364.108,-133.606 363.74,-140.596"/>
</g>
<!-- Node6 -->
<g id="node6" class="node"><title>Node6</title>
<g id="a_node6"><a xlink:href="../../de/dfa/classmodel_1_1_angle.html#aa1b069cc47fadd893fe8527c356dd8fd" target="_top" xlink:title="model.Angle.getAngleValue">
<polygon fill="white" stroke="black" points="364.5,-87.5 364.5,-106.5 513.5,-106.5 513.5,-87.5 364.5,-87.5"/>
<text text-anchor="middle" x="439" y="-94.5" font-family="Helvetica,sans-Serif" font-size="10.00">model.Angle.getAngleValue</text>
</a>
</g>
</g>
<!-- Node5&#45;&gt;Node6 -->
<g id="edge5" class="edge"><title>Node5&#45;&gt;Node6</title>
<path fill="none" stroke="midnightblue" d="M310.476,-77.5359C328.089,-80.2242 347.399,-83.1714 365.544,-85.9409"/>
<polygon fill="midnightblue" stroke="midnightblue" points="365.073,-89.4094 375.486,-87.4584 366.129,-82.4896 365.073,-89.4094"/>
</g>
<!-- Node7 -->
<g id="node7" class="node"><title>Node7</title>
<g id="a_node7"><a xlink:href="../../de/dfa/classmodel_1_1_angle.html#abc668dbdb92ee339fea7492cda826061" target="_top" xlink:title="model.Angle.setAngleValue">
<polygon fill="white" stroke="black" points="365,-49.5 365,-68.5 513,-68.5 513,-49.5 365,-49.5"/>
<text text-anchor="middle" x="439" y="-56.5" font-family="Helvetica,sans-Serif" font-size="10.00">model.Angle.setAngleValue</text>
</a>
</g>
</g>
<!-- Node5&#45;&gt;Node7 -->
<g id="edge6" class="edge"><title>Node5&#45;&gt;Node7</title>
<path fill="none" stroke="midnightblue" d="M328.026,-64.2093C336.774,-63.7949 345.695,-63.3724 354.483,-62.9561"/>
<polygon fill="midnightblue" stroke="midnightblue" points="354.896,-66.4405 364.719,-62.4712 354.565,-59.4484 354.896,-66.4405"/>
</g>
<!-- Node9 -->
<g id="node9" class="node"><title>Node9</title>
<g id="a_node9"><a xlink:href="../../da/d88/classmodel_1_1_turtle_single.html#a40853b6f8c9ba455489ad8ea9535e99d" target="_top" xlink:title="model.TurtleSingle.notify\lObservers">
<polygon fill="white" stroke="black" points="372,-0 372,-30 506,-30 506,-0 372,-0"/>
<text text-anchor="start" x="380" y="-18" font-family="Helvetica,sans-Serif" font-size="10.00">model.TurtleSingle.notify</text>
<text text-anchor="middle" x="439" y="-7" font-family="Helvetica,sans-Serif" font-size="10.00">Observers</text>
</a>
</g>
</g>
<!-- Node5&#45;&gt;Node9 -->
<g id="edge8" class="edge"><title>Node5&#45;&gt;Node9</title>
<path fill="none" stroke="midnightblue" d="M282.408,-58.4021C307.979,-51.269 343.603,-41.3319 374.312,-32.7657"/>
<polygon fill="midnightblue" stroke="midnightblue" points="375.399,-36.0961 384.091,-30.0379 373.518,-29.3536 375.399,-36.0961"/>
</g>
<!-- Node8 -->
<g id="node8" class="node"><title>Node8</title>
<g id="a_node8"><a xlink:href="../../de/dfa/classmodel_1_1_angle.html#a33d4e2194b10ee4aa384b74c7f73f3e6" target="_top" xlink:title="model.Angle.modAngleValue">
<polygon fill="white" stroke="black" points="550.5,-49.5 550.5,-68.5 705.5,-68.5 705.5,-49.5 550.5,-49.5"/>
<text text-anchor="middle" x="628" y="-56.5" font-family="Helvetica,sans-Serif" font-size="10.00">model.Angle.modAngleValue</text>
</a>
</g>
</g>
<!-- Node7&#45;&gt;Node8 -->
<g id="edge7" class="edge"><title>Node7&#45;&gt;Node8</title>
<path fill="none" stroke="midnightblue" d="M513.103,-59C521.959,-59 531.073,-59 540.104,-59"/>
<polygon fill="midnightblue" stroke="midnightblue" points="540.247,-62.5001 550.247,-59 540.247,-55.5001 540.247,-62.5001"/>
</g>
</g>
</svg>
        <g id="navigator" transform="translate(0 0)" fill="#404254">
                <rect fill="#f2f5e9" fill-opacity="0.5" stroke="#606060" stroke-width=".5" x="0" y="0" width="60" height="60"/>
                <use id="zoomplus" xlink:href="#zoomPlus" x="17" y="9" onmousedown="handleZoom(evt,'in')"/>
                <use id="zoomminus" xlink:href="#zoomMin" x="42" y="9" onmousedown="handleZoom(evt,'out')"/>
                <use id="reset" xlink:href="#resetDef" x="30" y="36" onmousedown="handleReset()"/>
                <g id="arrowUp" xlink:href="#dirArrow" transform="translate(30 24)" onmousedown="handlePan(0,-1)">
                  <use xlink:href="#rim" fill="#404040">
                        <set attributeName="fill" to="#808080" begin="arrowUp.mouseover" end="arrowUp.mouseout"/>
                  </use>
                  <path fill="none" stroke="white" stroke-width="1.5" d="M0,-3.0v7 M-2.5,-0.5L0,-3.0L2.5,-0.5"/>
                </g>
                <g id="arrowRight" xlink:href="#dirArrow" transform="rotate(90) translate(36 -43)" onmousedown="handlePan(1,0)">
                  <use xlink:href="#rim" fill="#404040">
                        <set attributeName="fill" to="#808080" begin="arrowRight.mouseover" end="arrowRight.mouseout"/>
                  </use>
                  <path fill="none" stroke="white" stroke-width="1.5" d="M0,-3.0v7 M-2.5,-0.5L0,-3.0L2.5,-0.5"/>
                </g>
                <g id="arrowDown" xlink:href="#dirArrow" transform="rotate(180) translate(-30 -48)" onmousedown="handlePan(0,1)">
                  <use xlink:href="#rim" fill="#404040">
                        <set attributeName="fill" to="#808080" begin="arrowDown.mouseover" end="arrowDown.mouseout"/>
                  </use>
                  <path fill="none" stroke="white" stroke-width="1.5" d="M0,-3.0v7 M-2.5,-0.5L0,-3.0L2.5,-0.5"/>
                </g>
                <g id="arrowLeft" xlink:href="#dirArrow" transform="rotate(270) translate(-36 17)" onmousedown="handlePan(-1,0)">
                  <use xlink:href="#rim" fill="#404040">
                        <set attributeName="fill" to="#808080" begin="arrowLeft.mouseover" end="arrowLeft.mouseout"/>
                  </use>
                  <path fill="none" stroke="white" stroke-width="1.5" d="M0,-3.0v7 M-2.5,-0.5L0,-3.0L2.5,-0.5"/>
                </g>
        </g>
        <svg viewBox="0 0 15 15" width="100%" height="30px" preserveAspectRatio="xMaxYMin meet">
         <g id="arrow_out" transform="scale(0.3 0.3)">
          <a xlink:href="classmodel_1_1_turtle_multiple_af499d8a2611dcbab8cfc5274395fd043_cgraph_org.svg" target="_base">
           <rect id="button" ry="5" rx="5" y="6" x="6" height="38" width="38"
                fill="#f2f5e9" fill-opacity="0.5" stroke="#606060" stroke-width="1.0"/>
           <path id="arrow"
             d="M 11.500037,31.436501 C 11.940474,20.09759 22.043105,11.32322 32.158766,21.979434 L 37.068811,17.246167 C 37.068811,17.246167 37.088388,32 37.088388,32 L 22.160133,31.978069 C 22.160133,31.978069 26.997745,27.140456 26.997745,27.140456 C 18.528582,18.264221 13.291696,25.230495 11.500037,31.436501 z"
             style="fill:#404040;"/>
          </a>
         </g>
        </svg>
</svg>
