<?xml version="1.0" encoding="UTF-8" standalone="no"?>
<!DOCTYPE svg PUBLIC "-//W3C//DTD SVG 1.1//EN"
 "http://www.w3.org/Graphics/SVG/1.1/DTD/svg11.dtd">
<!-- Generated by graphviz version 2.36.0 (20140111.2315)
 -->
<!-- Title: model.TurtleMultiple.TurtleMultiple Pages: 1 -->
<!--zoomable 217 -->
<svg id="main" version="1.1" xmlns="http://www.w3.org/2000/svg" xmlns:xlink="http://www.w3.org/1999/xlink" xml:space="preserve" onload="init(evt)">
<style type="text/css"><![CDATA[
.edge:hover path { stroke: red; }
.edge:hover polygon { stroke: red; fill: red; }
]]></style>
<script type="text/javascript"><![CDATA[
var edges = document.getElementsByTagName('g');
if (edges && edges.length) {
  for (var i=0;i<edges.length;i++) {
    if (edges[i].id.substr(0,4)=='edge') {
      edges[i].setAttribute('class','edge');
    }
  }
}
]]></script>
        <defs>
                <circle id="rim" cx="0" cy="0" r="7"/>
                <circle id="rim2" cx="0" cy="0" r="3.5"/>
                <g id="zoomPlus">
                        <use xlink:href="#rim" fill="#404040">
                                <set attributeName="fill" to="#808080" begin="zoomplus.mouseover" end="zoomplus.mouseout"/>
                        </use>
                        <path d="M-4,0h8M0,-4v8" fill="none" stroke="white" stroke-width="1.5" pointer-events="none"/>
                </g>
                <g id="zoomMin">
                        <use xlink:href="#rim" fill="#404040">
                                <set attributeName="fill" to="#808080" begin="zoomminus.mouseover" end="zoomminus.mouseout"/>
                        </use>
                        <path d="M-4,0h8" fill="none" stroke="white" stroke-width="1.5" pointer-events="none"/>
                </g>
                <g id="dirArrow">
                        <path fill="none" stroke="white" stroke-width="1.5" d="M0,-3.0v7 M-2.5,-0.5L0,-3.0L2.5,-0.5"/>
                </g>
               <g id="resetDef">
                       <use xlink:href="#rim2" fill="#404040">
                               <set attributeName="fill" to="#808080" begin="reset.mouseover" end="reset.mouseout"/>
                       </use>
               </g>
        </defs>

<script type="text/javascript">
var viewWidth = 694;
var viewHeight = 217;
var sectionId = 'dynsection-2';
</script>
<script xlink:href="../../svgpan.js"/>
<svg id="graph" class="graph">
<g id="viewport">
<title>model.TurtleMultiple.TurtleMultiple</title>
<polygon fill="white" stroke="none" points="-4,4 -4,-213.17 690,-213.17 690,4 -4,4"/>
<!-- Node1 -->
<g id="node1" class="node"><title>Node1</title>
<polygon fill="#bfbfbf" stroke="black" points="0,-78.1704 0,-108.17 140,-108.17 140,-78.1704 0,-78.1704"/>
<text text-anchor="start" x="8" y="-96.1704" font-family="Helvetica,sans-Serif" font-size="10.00">model.TurtleMultiple.Turtle</text>
<text text-anchor="middle" x="70" y="-85.1704" font-family="Helvetica,sans-Serif" font-size="10.00">Multiple</text>
</g>
<!-- Node2 -->
<g id="node2" class="node"><title>Node2</title>
<g id="a_node2"><a xlink:href="../../d9/dea/classmodel_1_1_turtle_multiple.html#aa13efbce628306faad5ba5a2ace04658" target="_top" xlink:title="model.TurtleMultiple.add\lNewTurtle">
<polygon fill="white" stroke="black" points="176.5,-78.1704 176.5,-108.17 309.5,-108.17 309.5,-78.1704 176.5,-78.1704"/>
<text text-anchor="start" x="184.5" y="-96.1704" font-family="Helvetica,sans-Serif" font-size="10.00">model.TurtleMultiple.add</text>
<text text-anchor="middle" x="243" y="-85.1704" font-family="Helvetica,sans-Serif" font-size="10.00">NewTurtle</text>
</a>
</g>
</g>
<!-- Node1&#45;&gt;Node2 -->
<g id="edge1" class="edge"><title>Node1&#45;&gt;Node2</title>
<path fill="none" stroke="midnightblue" d="M140.059,-93.1704C148.654,-93.1704 157.478,-93.1704 166.168,-93.1704"/>
<polygon fill="midnightblue" stroke="midnightblue" points="166.285,-96.6705 176.285,-93.1704 166.285,-89.6705 166.285,-96.6705"/>
</g>
<!-- Node3 -->
<g id="node3" class="node"><title>Node3</title>
<g id="a_node3"><a xlink:href="../../d9/dea/classmodel_1_1_turtle_multiple.html#a47e5a06bab25ead16ef3098a4257aa4b" target="_top" xlink:title="model.TurtleMultiple.set\lLastTurtle">
<polygon fill="white" stroke="black" points="366,-179.17 366,-209.17 496,-209.17 496,-179.17 366,-179.17"/>
<text text-anchor="start" x="374" y="-197.17" font-family="Helvetica,sans-Serif" font-size="10.00">model.TurtleMultiple.set</text>
<text text-anchor="middle" x="431" y="-186.17" font-family="Helvetica,sans-Serif" font-size="10.00">LastTurtle</text>
</a>
</g>
</g>
<!-- Node2&#45;&gt;Node3 -->
<g id="edge2" class="edge"><title>Node2&#45;&gt;Node3</title>
<path fill="none" stroke="midnightblue" d="M260.459,-108.346C279.672,-125.334 313.033,-152.639 346,-169.17 350.559,-171.456 355.363,-173.572 360.271,-175.523"/>
<polygon fill="midnightblue" stroke="midnightblue" points="359.208,-178.862 369.801,-179.074 361.652,-172.303 359.208,-178.862"/>
</g>
<!-- Node4 -->
<g id="node4" class="node"><title>Node4</title>
<g id="a_node4"><a xlink:href="../../da/d88/classmodel_1_1_turtle_single.html#aba0071e51acee087eef14deae548b3ae" target="_top" xlink:title="model.TurtleSingle.addObserver">
<polygon fill="white" stroke="black" points="346.5,-140.67 346.5,-159.67 515.5,-159.67 515.5,-140.67 346.5,-140.67"/>
<text text-anchor="middle" x="431" y="-147.67" font-family="Helvetica,sans-Serif" font-size="10.00">model.TurtleSingle.addObserver</text>
</a>
</g>
</g>
<!-- Node2&#45;&gt;Node4 -->
<g id="edge3" class="edge"><title>Node2&#45;&gt;Node4</title>
<path fill="none" stroke="midnightblue" d="M280.897,-108.281C300.1,-115.796 324.086,-124.642 346,-131.17 354.537,-133.714 363.65,-136.102 372.609,-138.27"/>
<polygon fill="midnightblue" stroke="midnightblue" points="372.083,-141.742 382.619,-140.621 373.684,-134.927 372.083,-141.742"/>
</g>
<!-- Node5 -->
<g id="node5" class="node"><title>Node5</title>
<g id="a_node5"><a xlink:href="../../d3/dbe/classview_1_1_view.html#a6950e4055440ab5672a2453b149f41d0" target="_top" xlink:title="view.View.getInstance">
<polygon fill="white" stroke="black" points="371.5,-102.67 371.5,-121.67 490.5,-121.67 490.5,-102.67 371.5,-102.67"/>
<text text-anchor="middle" x="431" y="-109.67" font-family="Helvetica,sans-Serif" font-size="10.00">view.View.getInstance</text>
</a>
</g>
</g>
<!-- Node2&#45;&gt;Node5 -->
<g id="edge4" class="edge"><title>Node2&#45;&gt;Node5</title>
<path fill="none" stroke="midnightblue" d="M309.577,-99.8691C326.207,-101.568 344.121,-103.398 360.919,-105.114"/>
<polygon fill="midnightblue" stroke="midnightblue" points="360.908,-108.631 371.212,-106.165 361.62,-101.667 360.908,-108.631"/>
</g>
<!-- Node6 -->
<g id="node6" class="node"><title>Node6</title>
<g id="a_node6"><a xlink:href="../../d3/dbe/classview_1_1_view.html#a4dc01ce59b5abd00927536703b9fc8b5" target="_top" xlink:title="view.View.getTurtleWindow">
<polygon fill="white" stroke="black" points="361,-64.6704 361,-83.6704 501,-83.6704 501,-64.6704 361,-64.6704"/>
<text text-anchor="middle" x="431" y="-71.6704" font-family="Helvetica,sans-Serif" font-size="10.00">view.View.getTurtleWindow</text>
</a>
</g>
</g>
<!-- Node2&#45;&gt;Node6 -->
<g id="edge5" class="edge"><title>Node2&#45;&gt;Node6</title>
<path fill="none" stroke="midnightblue" d="M309.577,-86.4717C322.959,-85.1047 337.172,-83.6528 350.967,-82.2437"/>
<polygon fill="midnightblue" stroke="midnightblue" points="351.327,-85.7252 360.919,-81.227 350.615,-78.7615 351.327,-85.7252"/>
</g>
<!-- Node7 -->
<g id="node7" class="node"><title>Node7</title>
<g id="a_node7"><a xlink:href="../../da/d88/classmodel_1_1_turtle_single.html#a794583d8965cd381fe88c8d729564317" target="_top" xlink:title="model.TurtleSingle.createPen">
<polygon fill="white" stroke="black" points="353,-26.6704 353,-45.6704 509,-45.6704 509,-26.6704 353,-26.6704"/>
<text text-anchor="middle" x="431" y="-33.6704" font-family="Helvetica,sans-Serif" font-size="10.00">model.TurtleSingle.createPen</text>
</a>
</g>
</g>
<!-- Node2&#45;&gt;Node7 -->
<g id="edge6" class="edge"><title>Node2&#45;&gt;Node7</title>
<path fill="none" stroke="midnightblue" d="M280.897,-78.0597C300.1,-70.545 324.086,-61.6987 346,-55.1704 354.537,-52.6271 363.65,-50.2385 372.609,-48.0704"/>
<polygon fill="midnightblue" stroke="midnightblue" points="373.684,-51.4133 382.619,-45.7197 372.083,-44.5987 373.684,-51.4133"/>
</g>
<!-- Node8 -->
<g id="node8" class="node"><title>Node8</title>
<g id="a_node8"><a xlink:href="../../da/d88/classmodel_1_1_turtle_single.html#a40853b6f8c9ba455489ad8ea9535e99d" target="_top" xlink:title="model.TurtleSingle.notify\lObservers">
<polygon fill="white" stroke="black" points="552,-2.17038 552,-32.1704 686,-32.1704 686,-2.17038 552,-2.17038"/>
<text text-anchor="start" x="560" y="-20.1704" font-family="Helvetica,sans-Serif" font-size="10.00">model.TurtleSingle.notify</text>
<text text-anchor="middle" x="619" y="-9.17038" font-family="Helvetica,sans-Serif" font-size="10.00">Observers</text>
</a>
</g>
</g>
<!-- Node2&#45;&gt;Node8 -->
<g id="edge8" class="edge"><title>Node2&#45;&gt;Node8</title>
<path fill="none" stroke="midnightblue" d="M258.094,-77.8537C276.296,-59.3233 309.947,-29.1252 346,-17.1704 409.505,3.88708 486.031,1.63629 541.713,-4.57303"/>
<polygon fill="midnightblue" stroke="midnightblue" points="541.518,-8.07425 551.86,-5.77378 542.341,-1.12276 541.518,-8.07425"/>
</g>
<!-- Node7&#45;&gt;Node8 -->
<g id="edge7" class="edge"><title>Node7&#45;&gt;Node8</title>
<path fill="none" stroke="midnightblue" d="M509.265,-28.2777C520.005,-27.1806 531.034,-26.054 541.756,-24.9587"/>
<polygon fill="midnightblue" stroke="midnightblue" points="542.33,-28.4185 551.922,-23.9203 541.618,-21.4547 542.33,-28.4185"/>
</g>
</g>
</svg>
        <g id="navigator" transform="translate(0 0)" fill="#404254">
                <rect fill="#f2f5e9" fill-opacity="0.5" stroke="#606060" stroke-width=".5" x="0" y="0" width="60" height="60"/>
                <use id="zoomplus" xlink:href="#zoomPlus" x="17" y="9" onmousedown="handleZoom(evt,'in')"/>
                <use id="zoomminus" xlink:href="#zoomMin" x="42" y="9" onmousedown="handleZoom(evt,'out')"/>
                <use id="reset" xlink:href="#resetDef" x="30" y="36" onmousedown="handleReset()"/>
                <g id="arrowUp" xlink:href="#dirArrow" transform="translate(30 24)" onmousedown="handlePan(0,-1)">
                  <use xlink:href="#rim" fill="#404040">
                        <set attributeName="fill" to="#808080" begin="arrowUp.mouseover" end="arrowUp.mouseout"/>
                  </use>
                  <path fill="none" stroke="white" stroke-width="1.5" d="M0,-3.0v7 M-2.5,-0.5L0,-3.0L2.5,-0.5"/>
                </g>
                <g id="arrowRight" xlink:href="#dirArrow" transform="rotate(90) translate(36 -43)" onmousedown="handlePan(1,0)">
                  <use xlink:href="#rim" fill="#404040">
                        <set attributeName="fill" to="#808080" begin="arrowRight.mouseover" end="arrowRight.mouseout"/>
                  </use>
                  <path fill="none" stroke="white" stroke-width="1.5" d="M0,-3.0v7 M-2.5,-0.5L0,-3.0L2.5,-0.5"/>
                </g>
                <g id="arrowDown" xlink:href="#dirArrow" transform="rotate(180) translate(-30 -48)" onmousedown="handlePan(0,1)">
                  <use xlink:href="#rim" fill="#404040">
                        <set attributeName="fill" to="#808080" begin="arrowDown.mouseover" end="arrowDown.mouseout"/>
                  </use>
                  <path fill="none" stroke="white" stroke-width="1.5" d="M0,-3.0v7 M-2.5,-0.5L0,-3.0L2.5,-0.5"/>
                </g>
                <g id="arrowLeft" xlink:href="#dirArrow" transform="rotate(270) translate(-36 17)" onmousedown="handlePan(-1,0)">
                  <use xlink:href="#rim" fill="#404040">
                        <set attributeName="fill" to="#808080" begin="arrowLeft.mouseover" end="arrowLeft.mouseout"/>
                  </use>
                  <path fill="none" stroke="white" stroke-width="1.5" d="M0,-3.0v7 M-2.5,-0.5L0,-3.0L2.5,-0.5"/>
                </g>
        </g>
        <svg viewBox="0 0 15 15" width="100%" height="30px" preserveAspectRatio="xMaxYMin meet">
         <g id="arrow_out" transform="scale(0.3 0.3)">
          <a xlink:href="classmodel_1_1_turtle_multiple_a6068e4774b6c15ea02445e207fd22395_cgraph_org.svg" target="_base">
           <rect id="button" ry="5" rx="5" y="6" x="6" height="38" width="38"
                fill="#f2f5e9" fill-opacity="0.5" stroke="#606060" stroke-width="1.0"/>
           <path id="arrow"
             d="M 11.500037,31.436501 C 11.940474,20.09759 22.043105,11.32322 32.158766,21.979434 L 37.068811,17.246167 C 37.068811,17.246167 37.088388,32 37.088388,32 L 22.160133,31.978069 C 22.160133,31.978069 26.997745,27.140456 26.997745,27.140456 C 18.528582,18.264221 13.291696,25.230495 11.500037,31.436501 z"
             style="fill:#404040;"/>
          </a>
         </g>
        </svg>
</svg>
