<?xml version="1.0" encoding="UTF-8" standalone="no"?>
<!DOCTYPE svg PUBLIC "-//W3C//DTD SVG 1.1//EN"
 "http://www.w3.org/Graphics/SVG/1.1/DTD/svg11.dtd">
<!-- Generated by graphviz version 2.36.0 (20140111.2315)
 -->
<!-- Title: model.TurtleMultiple.setLastTurtle Pages: 1 -->
<!--zoomable 832 -->
<svg id="main" version="1.1" xmlns="http://www.w3.org/2000/svg" xmlns:xlink="http://www.w3.org/1999/xlink" xml:space="preserve" onload="init(evt)">
<style type="text/css"><![CDATA[
.edge:hover path { stroke: red; }
.edge:hover polygon { stroke: red; fill: red; }
]]></style>
<script type="text/javascript"><![CDATA[
var edges = document.getElementsByTagName('g');
if (edges && edges.length) {
  for (var i=0;i<edges.length;i++) {
    if (edges[i].id.substr(0,4)=='edge') {
      edges[i].setAttribute('class','edge');
    }
  }
}
]]></script>
        <defs>
                <circle id="rim" cx="0" cy="0" r="7"/>
                <circle id="rim2" cx="0" cy="0" r="3.5"/>
                <g id="zoomPlus">
                        <use xlink:href="#rim" fill="#404040">
                                <set attributeName="fill" to="#808080" begin="zoomplus.mouseover" end="zoomplus.mouseout"/>
                        </use>
                        <path d="M-4,0h8M0,-4v8" fill="none" stroke="white" stroke-width="1.5" pointer-events="none"/>
                </g>
                <g id="zoomMin">
                        <use xlink:href="#rim" fill="#404040">
                                <set attributeName="fill" to="#808080" begin="zoomminus.mouseover" end="zoomminus.mouseout"/>
                        </use>
                        <path d="M-4,0h8" fill="none" stroke="white" stroke-width="1.5" pointer-events="none"/>
                </g>
                <g id="dirArrow">
                        <path fill="none" stroke="white" stroke-width="1.5" d="M0,-3.0v7 M-2.5,-0.5L0,-3.0L2.5,-0.5"/>
                </g>
               <g id="resetDef">
                       <use xlink:href="#rim2" fill="#404040">
                               <set attributeName="fill" to="#808080" begin="reset.mouseover" end="reset.mouseout"/>
                       </use>
               </g>
        </defs>

<script type="text/javascript">
var viewWidth = 1146;
var viewHeight = 832;
var sectionId = 'dynsection-36';
</script>
<script xlink:href="../../svgpan.js"/>
<svg id="graph" class="graph">
<g id="viewport">
<title>model.TurtleMultiple.setLastTurtle</title>
<polygon fill="white" stroke="none" points="-4,4 -4,-828 1142,-828 1142,4 -4,4"/>
<!-- Node1 -->
<g id="node1" class="node"><title>Node1</title>
<polygon fill="#bfbfbf" stroke="black" points="0,-745 0,-775 130,-775 130,-745 0,-745"/>
<text text-anchor="start" x="8" y="-763" font-family="Helvetica,sans-Serif" font-size="10.00">model.TurtleMultiple.set</text>
<text text-anchor="middle" x="65" y="-752" font-family="Helvetica,sans-Serif" font-size="10.00">LastTurtle</text>
</g>
<!-- Node2 -->
<g id="node2" class="node"><title>Node2</title>
<g id="a_node2"><a xlink:href="../../d9/dea/classmodel_1_1_turtle_multiple.html#aa13efbce628306faad5ba5a2ace04658" target="_top" xlink:title="model.TurtleMultiple.add\lNewTurtle">
<polygon fill="white" stroke="black" points="166.5,-794 166.5,-824 299.5,-824 299.5,-794 166.5,-794"/>
<text text-anchor="start" x="174.5" y="-812" font-family="Helvetica,sans-Serif" font-size="10.00">model.TurtleMultiple.add</text>
<text text-anchor="middle" x="233" y="-801" font-family="Helvetica,sans-Serif" font-size="10.00">NewTurtle</text>
</a>
</g>
</g>
<!-- Node1&#45;&gt;Node2 -->
<g id="edge1" class="edge"><title>Node1&#45;&gt;Node2</title>
<path fill="none" stroke="midnightblue" d="M126.868,-777.967C144.654,-783.217 163.902,-788.899 181.009,-793.948"/>
<polygon fill="midnightblue" stroke="midnightblue" points="127.742,-774.576 117.16,-775.101 125.76,-781.289 127.742,-774.576"/>
</g>
<!-- Node4 -->
<g id="node4" class="node"><title>Node4</title>
<g id="a_node4"><a xlink:href="../../d9/dea/classmodel_1_1_turtle_multiple.html#a39a093480efa352c2066e4ef8534f26e" target="_top" xlink:title="model.TurtleMultiple.get\lStream">
<polygon fill="white" stroke="black" points="167.5,-387 167.5,-417 298.5,-417 298.5,-387 167.5,-387"/>
<text text-anchor="start" x="175.5" y="-405" font-family="Helvetica,sans-Serif" font-size="10.00">model.TurtleMultiple.get</text>
<text text-anchor="middle" x="233" y="-394" font-family="Helvetica,sans-Serif" font-size="10.00">Stream</text>
</a>
</g>
</g>
<!-- Node1&#45;&gt;Node4 -->
<g id="edge3" class="edge"><title>Node1&#45;&gt;Node4</title>
<path fill="none" stroke="midnightblue" d="M77.4114,-735.39C109.346,-666.519 198.971,-473.231 224.894,-417.326"/>
<polygon fill="midnightblue" stroke="midnightblue" points="74.1643,-734.073 73.1328,-744.617 80.5148,-737.017 74.1643,-734.073"/>
</g>
<!-- Node28 -->
<g id="node28" class="node"><title>Node28</title>
<g id="a_node28"><a xlink:href="../../d9/dea/classmodel_1_1_turtle_multiple.html#a87c4dc38e39d840acf71714c258ed332" target="_top" xlink:title="model.TurtleMultiple.get\lTurtleSingle">
<polygon fill="white" stroke="black" points="167.5,-745 167.5,-775 298.5,-775 298.5,-745 167.5,-745"/>
<text text-anchor="start" x="175.5" y="-763" font-family="Helvetica,sans-Serif" font-size="10.00">model.TurtleMultiple.get</text>
<text text-anchor="middle" x="233" y="-752" font-family="Helvetica,sans-Serif" font-size="10.00">TurtleSingle</text>
</a>
</g>
</g>
<!-- Node1&#45;&gt;Node28 -->
<g id="edge28" class="edge"><title>Node1&#45;&gt;Node28</title>
<path fill="none" stroke="midnightblue" d="M140.314,-760C149.364,-760 158.552,-760 167.443,-760"/>
<polygon fill="midnightblue" stroke="midnightblue" points="140.18,-756.5 130.18,-760 140.18,-763.5 140.18,-756.5"/>
</g>
<!-- Node3 -->
<g id="node3" class="node"><title>Node3</title>
<g id="a_node3"><a xlink:href="../../d9/dea/classmodel_1_1_turtle_multiple.html#a6068e4774b6c15ea02445e207fd22395" target="_top" xlink:title="model.TurtleMultiple.Turtle\lMultiple">
<polygon fill="white" stroke="black" points="350,-794 350,-824 490,-824 490,-794 350,-794"/>
<text text-anchor="start" x="358" y="-812" font-family="Helvetica,sans-Serif" font-size="10.00">model.TurtleMultiple.Turtle</text>
<text text-anchor="middle" x="420" y="-801" font-family="Helvetica,sans-Serif" font-size="10.00">Multiple</text>
</a>
</g>
</g>
<!-- Node2&#45;&gt;Node3 -->
<g id="edge2" class="edge"><title>Node2&#45;&gt;Node3</title>
<path fill="none" stroke="midnightblue" d="M309.747,-809C322.972,-809 336.67,-809 349.71,-809"/>
<polygon fill="midnightblue" stroke="midnightblue" points="309.745,-805.5 299.745,-809 309.745,-812.5 309.745,-805.5"/>
</g>
<!-- Node5 -->
<g id="node5" class="node"><title>Node5</title>
<g id="a_node5"><a xlink:href="../../d9/dea/classmodel_1_1_turtle_multiple.html#a8d4e9d8254a29cb12982469a8ee05982" target="_top" xlink:title="model.TurtleMultiple.active\lTurtleIDs">
<polygon fill="white" stroke="black" points="348.5,-616 348.5,-646 491.5,-646 491.5,-616 348.5,-616"/>
<text text-anchor="start" x="356.5" y="-634" font-family="Helvetica,sans-Serif" font-size="10.00">model.TurtleMultiple.active</text>
<text text-anchor="middle" x="420" y="-623" font-family="Helvetica,sans-Serif" font-size="10.00">TurtleIDs</text>
</a>
</g>
</g>
<!-- Node4&#45;&gt;Node5 -->
<g id="edge4" class="edge"><title>Node4&#45;&gt;Node5</title>
<path fill="none" stroke="midnightblue" d="M239.622,-427.026C250.582,-470.021 278.898,-557.918 336,-606 340.605,-609.877 345.797,-613.153 351.28,-615.921"/>
<polygon fill="midnightblue" stroke="midnightblue" points="242.974,-425.998 237.203,-417.114 236.174,-427.658 242.974,-425.998"/>
</g>
<!-- Node8 -->
<g id="node8" class="node"><title>Node8</title>
<g id="a_node8"><a xlink:href="../../d9/dea/classmodel_1_1_turtle_multiple.html#a601396d8123665647fa640e0191ecbe0" target="_top" xlink:title="model.TurtleMultiple.add\lDegree">
<polygon fill="white" stroke="black" points="353.5,-518 353.5,-548 486.5,-548 486.5,-518 353.5,-518"/>
<text text-anchor="start" x="361.5" y="-536" font-family="Helvetica,sans-Serif" font-size="10.00">model.TurtleMultiple.add</text>
<text text-anchor="middle" x="420" y="-525" font-family="Helvetica,sans-Serif" font-size="10.00">Degree</text>
</a>
</g>
</g>
<!-- Node4&#45;&gt;Node8 -->
<g id="edge7" class="edge"><title>Node4&#45;&gt;Node8</title>
<path fill="none" stroke="midnightblue" d="M250.847,-425.611C269.192,-449.665 300.677,-486.412 336,-508 342.292,-511.846 349.216,-515.135 356.3,-517.94"/>
<polygon fill="midnightblue" stroke="midnightblue" points="253.486,-423.295 244.699,-417.375 247.876,-427.482 253.486,-423.295"/>
</g>
<!-- Node9 -->
<g id="node9" class="node"><title>Node9</title>
<g id="a_node9"><a xlink:href="../../d9/dea/classmodel_1_1_turtle_multiple.html#a4b611088c9cab39ae0a215be279e7aa0" target="_top" xlink:title="model.TurtleMultiple.add\lObserver">
<polygon fill="white" stroke="black" points="353.5,-469 353.5,-499 486.5,-499 486.5,-469 353.5,-469"/>
<text text-anchor="start" x="361.5" y="-487" font-family="Helvetica,sans-Serif" font-size="10.00">model.TurtleMultiple.add</text>
<text text-anchor="middle" x="420" y="-476" font-family="Helvetica,sans-Serif" font-size="10.00">Observer</text>
</a>
</g>
</g>
<!-- Node4&#45;&gt;Node9 -->
<g id="edge8" class="edge"><title>Node4&#45;&gt;Node9</title>
<path fill="none" stroke="midnightblue" d="M266.125,-422.328C285.766,-434.149 311.707,-448.698 336,-459 344.59,-462.643 353.888,-465.987 363.046,-468.965"/>
<polygon fill="midnightblue" stroke="midnightblue" points="267.933,-419.331 257.572,-417.114 264.289,-425.308 267.933,-419.331"/>
</g>
<!-- Node10 -->
<g id="node10" class="node"><title>Node10</title>
<g id="a_node10"><a xlink:href="../../d9/dea/classmodel_1_1_turtle_multiple.html#ab7543dde0375049b74dd264b864b89a7" target="_top" xlink:title="model.TurtleMultiple.change">
<polygon fill="white" stroke="black" points="345,-430.5 345,-449.5 495,-449.5 495,-430.5 345,-430.5"/>
<text text-anchor="middle" x="420" y="-437.5" font-family="Helvetica,sans-Serif" font-size="10.00">model.TurtleMultiple.change</text>
</a>
</g>
</g>
<!-- Node4&#45;&gt;Node10 -->
<g id="edge9" class="edge"><title>Node4&#45;&gt;Node10</title>
<path fill="none" stroke="midnightblue" d="M308.551,-417.313C330.231,-421.766 353.28,-426.501 372.682,-430.486"/>
<polygon fill="midnightblue" stroke="midnightblue" points="309.204,-413.874 298.704,-415.291 307.795,-420.731 309.204,-413.874"/>
</g>
<!-- Node11 -->
<g id="node11" class="node"><title>Node11</title>
<g id="a_node11"><a xlink:href="../../d9/dea/classmodel_1_1_turtle_multiple.html#a4bb35a5e84f47e135614feaa453d9118" target="_top" xlink:title="model.TurtleMultiple.changePen">
<polygon fill="white" stroke="black" points="336,-392.5 336,-411.5 504,-411.5 504,-392.5 336,-392.5"/>
<text text-anchor="middle" x="420" y="-399.5" font-family="Helvetica,sans-Serif" font-size="10.00">model.TurtleMultiple.changePen</text>
</a>
</g>
</g>
<!-- Node4&#45;&gt;Node11 -->
<g id="edge10" class="edge"><title>Node4&#45;&gt;Node11</title>
<path fill="none" stroke="midnightblue" d="M308.957,-402C317.795,-402 326.855,-402 335.797,-402"/>
<polygon fill="midnightblue" stroke="midnightblue" points="308.704,-398.5 298.704,-402 308.704,-405.5 308.704,-398.5"/>
</g>
<!-- Node12 -->
<g id="node12" class="node"><title>Node12</title>
<g id="a_node12"><a xlink:href="../../d9/dea/classmodel_1_1_turtle_multiple.html#a5d8a36f60191801dfdcfe491f5b62966" target="_top" xlink:title="model.TurtleMultiple.deactiveAll">
<polygon fill="white" stroke="black" points="336.5,-665.5 336.5,-684.5 503.5,-684.5 503.5,-665.5 336.5,-665.5"/>
<text text-anchor="middle" x="420" y="-672.5" font-family="Helvetica,sans-Serif" font-size="10.00">model.TurtleMultiple.deactiveAll</text>
</a>
</g>
</g>
<!-- Node4&#45;&gt;Node12 -->
<g id="edge11" class="edge"><title>Node4&#45;&gt;Node12</title>
<path fill="none" stroke="midnightblue" d="M236.639,-427.463C243.351,-478.689 265.855,-594.463 336,-655 340.937,-659.261 346.629,-662.648 352.671,-665.336"/>
<polygon fill="midnightblue" stroke="midnightblue" points="240.082,-426.783 235.404,-417.277 233.133,-427.625 240.082,-426.783"/>
</g>
<!-- Node16 -->
<g id="node16" class="node"><title>Node16</title>
<g id="a_node16"><a xlink:href="../../d9/dea/classmodel_1_1_turtle_multiple.html#a49086cf96575756ecc4a1070aef50aa7" target="_top" xlink:title="model.TurtleMultiple.move\lDistance">
<polygon fill="white" stroke="black" points="349,-343 349,-373 491,-373 491,-343 349,-343"/>
<text text-anchor="start" x="357" y="-361" font-family="Helvetica,sans-Serif" font-size="10.00">model.TurtleMultiple.move</text>
<text text-anchor="middle" x="420" y="-350" font-family="Helvetica,sans-Serif" font-size="10.00">Distance</text>
</a>
</g>
</g>
<!-- Node4&#45;&gt;Node16 -->
<g id="edge16" class="edge"><title>Node4&#45;&gt;Node16</title>
<path fill="none" stroke="midnightblue" d="M307.062,-384.623C323.184,-380.789 340.13,-376.758 355.822,-373.026"/>
<polygon fill="midnightblue" stroke="midnightblue" points="306.068,-381.262 297.149,-386.981 307.688,-388.072 306.068,-381.262"/>
</g>
<!-- Node17 -->
<g id="node17" class="node"><title>Node17</title>
<g id="a_node17"><a xlink:href="../../d9/dea/classmodel_1_1_turtle_multiple.html#ab96e6d9114df066c4a1a5fc670742abb" target="_top" xlink:title="model.TurtleMultiple.move\lToPosition">
<polygon fill="white" stroke="black" points="349,-294 349,-324 491,-324 491,-294 349,-294"/>
<text text-anchor="start" x="357" y="-312" font-family="Helvetica,sans-Serif" font-size="10.00">model.TurtleMultiple.move</text>
<text text-anchor="middle" x="420" y="-301" font-family="Helvetica,sans-Serif" font-size="10.00">ToPosition</text>
</a>
</g>
</g>
<!-- Node4&#45;&gt;Node17 -->
<g id="edge17" class="edge"><title>Node4&#45;&gt;Node17</title>
<path fill="none" stroke="midnightblue" d="M261.142,-380.667C280.969,-365.913 308.998,-346.721 336,-334 343.896,-330.28 352.475,-326.962 361.021,-324.056"/>
<polygon fill="midnightblue" stroke="midnightblue" points="258.775,-378.068 252.908,-386.89 262.996,-383.653 258.775,-378.068"/>
</g>
<!-- Node18 -->
<g id="node18" class="node"><title>Node18</title>
<g id="a_node18"><a xlink:href="../../d9/dea/classmodel_1_1_turtle_multiple.html#abeef8fd290f172faeb370acc5b7260f1" target="_top" xlink:title="model.TurtleMultiple.remove\lObserver">
<polygon fill="white" stroke="black" points="344,-245 344,-275 496,-275 496,-245 344,-245"/>
<text text-anchor="start" x="352" y="-263" font-family="Helvetica,sans-Serif" font-size="10.00">model.TurtleMultiple.remove</text>
<text text-anchor="middle" x="420" y="-252" font-family="Helvetica,sans-Serif" font-size="10.00">Observer</text>
</a>
</g>
</g>
<!-- Node4&#45;&gt;Node18 -->
<g id="edge18" class="edge"><title>Node4&#45;&gt;Node18</title>
<path fill="none" stroke="midnightblue" d="M248.898,-377.964C266.539,-351.446 298.329,-309.315 336,-285 341.943,-281.164 348.501,-277.894 355.249,-275.112"/>
<polygon fill="midnightblue" stroke="midnightblue" points="245.776,-376.345 243.262,-386.637 251.646,-380.159 245.776,-376.345"/>
</g>
<!-- Node19 -->
<g id="node19" class="node"><title>Node19</title>
<g id="a_node19"><a xlink:href="../../d9/dea/classmodel_1_1_turtle_multiple.html#af499d8a2611dcbab8cfc5274395fd043" target="_top" xlink:title="model.TurtleMultiple.set\lHeading">
<polygon fill="white" stroke="black" points="355,-196 355,-226 485,-226 485,-196 355,-196"/>
<text text-anchor="start" x="363" y="-214" font-family="Helvetica,sans-Serif" font-size="10.00">model.TurtleMultiple.set</text>
<text text-anchor="middle" x="420" y="-203" font-family="Helvetica,sans-Serif" font-size="10.00">Heading</text>
</a>
</g>
</g>
<!-- Node4&#45;&gt;Node19 -->
<g id="edge19" class="edge"><title>Node4&#45;&gt;Node19</title>
<path fill="none" stroke="midnightblue" d="M242.647,-377.213C256.593,-340.857 287.495,-273.349 336,-236 341.723,-231.593 348.219,-227.96 354.995,-224.965"/>
<polygon fill="midnightblue" stroke="midnightblue" points="239.365,-375.998 239.163,-386.591 245.927,-378.436 239.365,-375.998"/>
</g>
<!-- Node20 -->
<g id="node20" class="node"><title>Node20</title>
<g id="a_node20"><a xlink:href="../../d9/dea/classmodel_1_1_turtle_multiple.html#aa152be202f489f2deb3c8a6905d62374" target="_top" xlink:title="model.TurtleMultiple.set\lHidden">
<polygon fill="white" stroke="black" points="355,-147 355,-177 485,-177 485,-147 355,-147"/>
<text text-anchor="start" x="363" y="-165" font-family="Helvetica,sans-Serif" font-size="10.00">model.TurtleMultiple.set</text>
<text text-anchor="middle" x="420" y="-154" font-family="Helvetica,sans-Serif" font-size="10.00">Hidden</text>
</a>
</g>
</g>
<!-- Node4&#45;&gt;Node20 -->
<g id="edge20" class="edge"><title>Node4&#45;&gt;Node20</title>
<path fill="none" stroke="midnightblue" d="M238.926,-376.92C249.036,-332.124 276.384,-238.261 336,-187 341.591,-182.192 348.083,-178.309 354.926,-175.173"/>
<polygon fill="midnightblue" stroke="midnightblue" points="235.45,-376.437 236.768,-386.949 242.293,-377.909 235.45,-376.437"/>
</g>
<!-- Node21 -->
<g id="node21" class="node"><title>Node21</title>
<g id="a_node21"><a xlink:href="../../d9/dea/classmodel_1_1_turtle_multiple.html#ac1993c82207d7409f52753bc368a589b" target="_top" xlink:title="model.TurtleMultiple.set\lInactive">
<polygon fill="white" stroke="black" points="355,-98 355,-128 485,-128 485,-98 355,-98"/>
<text text-anchor="start" x="363" y="-116" font-family="Helvetica,sans-Serif" font-size="10.00">model.TurtleMultiple.set</text>
<text text-anchor="middle" x="420" y="-105" font-family="Helvetica,sans-Serif" font-size="10.00">Inactive</text>
</a>
</g>
</g>
<!-- Node4&#45;&gt;Node21 -->
<g id="edge21" class="edge"><title>Node4&#45;&gt;Node21</title>
<path fill="none" stroke="midnightblue" d="M236.444,-376.87C242.874,-324.646 265.003,-203.787 336,-138 341.519,-132.886 348.049,-128.815 354.983,-125.577"/>
<polygon fill="midnightblue" stroke="midnightblue" points="232.952,-376.596 235.298,-386.928 239.907,-377.388 232.952,-376.596"/>
</g>
<!-- Node22 -->
<g id="node22" class="node"><title>Node22</title>
<g id="a_node22"><a xlink:href="../../d9/dea/classmodel_1_1_turtle_multiple.html#a6a540c1e091febf099dcf3db988e4d62" target="_top" xlink:title="model.TurtleMultiple.set\lPenUp">
<polygon fill="white" stroke="black" points="355,-49 355,-79 485,-79 485,-49 355,-49"/>
<text text-anchor="start" x="363" y="-67" font-family="Helvetica,sans-Serif" font-size="10.00">model.TurtleMultiple.set</text>
<text text-anchor="middle" x="420" y="-56" font-family="Helvetica,sans-Serif" font-size="10.00">PenUp</text>
</a>
</g>
</g>
<!-- Node4&#45;&gt;Node22 -->
<g id="edge22" class="edge"><title>Node4&#45;&gt;Node22</title>
<path fill="none" stroke="midnightblue" d="M234.598,-376.669C237.406,-317.373 252.834,-168.498 336,-88 341.389,-82.7839 347.839,-78.6897 354.73,-75.4783"/>
<polygon fill="midnightblue" stroke="midnightblue" points="231.101,-376.532 234.208,-386.661 238.096,-376.806 231.101,-376.532"/>
</g>
<!-- Node25 -->
<g id="node25" class="node"><title>Node25</title>
<g id="a_node25"><a xlink:href="../../d9/dea/classmodel_1_1_turtle_multiple.html#a23a6e0113102cb81eb0af9a6ae957cfc" target="_top" xlink:title="model.TurtleMultiple.set\lShapeID">
<polygon fill="white" stroke="black" points="355,-0 355,-30 485,-30 485,-0 355,-0"/>
<text text-anchor="start" x="363" y="-18" font-family="Helvetica,sans-Serif" font-size="10.00">model.TurtleMultiple.set</text>
<text text-anchor="middle" x="420" y="-7" font-family="Helvetica,sans-Serif" font-size="10.00">ShapeID</text>
</a>
</g>
</g>
<!-- Node4&#45;&gt;Node25 -->
<g id="edge25" class="edge"><title>Node4&#45;&gt;Node25</title>
<path fill="none" stroke="midnightblue" d="M233.28,-376.444C232.878,-310.762 241.189,-134.53 336,-39 341.389,-33.5702 347.925,-29.3514 354.937,-26.0765"/>
<polygon fill="midnightblue" stroke="midnightblue" points="229.783,-376.746 233.422,-386.696 236.783,-376.648 229.783,-376.746"/>
</g>
<!-- Node26 -->
<g id="node26" class="node"><title>Node26</title>
<g id="a_node26"><a xlink:href="../../d9/dea/classmodel_1_1_turtle_multiple.html#a96d310d6e1f2b85274cb70148c72e4e5" target="_top" xlink:title="model.TurtleMultiple.set\lStamp">
<polygon fill="white" stroke="black" points="355,-704 355,-734 485,-734 485,-704 355,-704"/>
<text text-anchor="start" x="363" y="-722" font-family="Helvetica,sans-Serif" font-size="10.00">model.TurtleMultiple.set</text>
<text text-anchor="middle" x="420" y="-711" font-family="Helvetica,sans-Serif" font-size="10.00">Stamp</text>
</a>
</g>
</g>
<!-- Node4&#45;&gt;Node26 -->
<g id="edge26" class="edge"><title>Node4&#45;&gt;Node26</title>
<path fill="none" stroke="midnightblue" d="M235.392,-427.407C239.864,-483.71 258.547,-619.845 336,-694 341.435,-699.204 347.913,-703.328 354.82,-706.597"/>
<polygon fill="midnightblue" stroke="midnightblue" points="238.871,-426.981 234.674,-417.252 231.888,-427.474 238.871,-426.981"/>
</g>
<!-- Node27 -->
<g id="node27" class="node"><title>Node27</title>
<g id="a_node27"><a xlink:href="../../d9/dea/classmodel_1_1_turtle_multiple.html#a03519dd8e6614f4404c6dca3160c9f65" target="_top" xlink:title="model.TurtleMultiple.set\lTowards">
<polygon fill="white" stroke="black" points="355,-567 355,-597 485,-597 485,-567 355,-567"/>
<text text-anchor="start" x="363" y="-585" font-family="Helvetica,sans-Serif" font-size="10.00">model.TurtleMultiple.set</text>
<text text-anchor="middle" x="420" y="-574" font-family="Helvetica,sans-Serif" font-size="10.00">Towards</text>
</a>
</g>
</g>
<!-- Node4&#45;&gt;Node27 -->
<g id="edge27" class="edge"><title>Node4&#45;&gt;Node27</title>
<path fill="none" stroke="midnightblue" d="M243.737,-426.629C258.537,-460.908 289.93,-522.651 336,-557 341.67,-561.228 348.057,-564.746 354.704,-567.672"/>
<polygon fill="midnightblue" stroke="midnightblue" points="246.934,-425.203 239.841,-417.333 240.478,-427.908 246.934,-425.203"/>
</g>
<!-- Node6 -->
<g id="node6" class="node"><title>Node6</title>
<g id="a_node6"><a xlink:href="../../db/dea/classparser_1_1commands_1_1_ask.html#ae9d226e668deb9d8bba3b126d59e0a05" target="_top" xlink:title="parser.commands.Ask.create\lOldActiveStack">
<polygon fill="white" stroke="black" points="773,-616 773,-646 931,-646 931,-616 773,-616"/>
<text text-anchor="start" x="781" y="-634" font-family="Helvetica,sans-Serif" font-size="10.00">parser.commands.Ask.create</text>
<text text-anchor="middle" x="852" y="-623" font-family="Helvetica,sans-Serif" font-size="10.00">OldActiveStack</text>
</a>
</g>
</g>
<!-- Node5&#45;&gt;Node6 -->
<g id="edge5" class="edge"><title>Node5&#45;&gt;Node6</title>
<path fill="none" stroke="midnightblue" d="M501.741,-631C579.391,-631 695.997,-631 772.788,-631"/>
<polygon fill="midnightblue" stroke="midnightblue" points="501.524,-627.5 491.524,-631 501.524,-634.5 501.524,-627.5"/>
</g>
<!-- Node7 -->
<g id="node7" class="node"><title>Node7</title>
<g id="a_node7"><a xlink:href="../../db/dea/classparser_1_1commands_1_1_ask.html#ae3a52ad1be99031d4a926942771fd71c" target="_top" xlink:title="parser.commands.Ask.execute">
<polygon fill="white" stroke="black" points="972.5,-643.5 972.5,-662.5 1137.5,-662.5 1137.5,-643.5 972.5,-643.5"/>
<text text-anchor="middle" x="1055" y="-650.5" font-family="Helvetica,sans-Serif" font-size="10.00">parser.commands.Ask.execute</text>
</a>
</g>
</g>
<!-- Node6&#45;&gt;Node7 -->
<g id="edge6" class="edge"><title>Node6&#45;&gt;Node7</title>
<path fill="none" stroke="midnightblue" d="M941.462,-640.682C951.709,-641.804 962.126,-642.944 972.277,-644.055"/>
<polygon fill="midnightblue" stroke="midnightblue" points="941.609,-637.178 931.287,-639.569 940.847,-644.136 941.609,-637.178"/>
</g>
<!-- Node13 -->
<g id="node13" class="node"><title>Node13</title>
<g id="a_node13"><a xlink:href="../../d5/d51/classparser_1_1commands_1_1_ask_with.html#ada3c73665fbd49550e041239bfee2bf5" target="_top" xlink:title="parser.commands.AskWith.create\lNewActiveStack">
<polygon fill="white" stroke="black" points="547,-726 547,-756 725,-756 725,-726 547,-726"/>
<text text-anchor="start" x="555" y="-744" font-family="Helvetica,sans-Serif" font-size="10.00">parser.commands.AskWith.create</text>
<text text-anchor="middle" x="636" y="-733" font-family="Helvetica,sans-Serif" font-size="10.00">NewActiveStack</text>
</a>
</g>
</g>
<!-- Node12&#45;&gt;Node13 -->
<g id="edge12" class="edge"><title>Node12&#45;&gt;Node13</title>
<path fill="none" stroke="midnightblue" d="M474.124,-686.954C484.099,-689.438 494.404,-692.167 504,-695 535.094,-704.18 569.675,-716.411 595.497,-725.954"/>
<polygon fill="midnightblue" stroke="midnightblue" points="474.844,-683.527 464.299,-684.558 473.185,-690.328 474.844,-683.527"/>
</g>
<!-- Node14 -->
<g id="node14" class="node"><title>Node14</title>
<g id="a_node14"><a xlink:href="../../dc/dd6/classparser_1_1commands_1_1_tell.html#a0a34e23f2a3c5bc0011e058241149b68" target="_top" xlink:title="parser.commands.Tell.execute">
<polygon fill="white" stroke="black" points="555,-665.5 555,-684.5 717,-684.5 717,-665.5 555,-665.5"/>
<text text-anchor="middle" x="636" y="-672.5" font-family="Helvetica,sans-Serif" font-size="10.00">parser.commands.Tell.execute</text>
</a>
</g>
</g>
<!-- Node12&#45;&gt;Node14 -->
<g id="edge13" class="edge"><title>Node12&#45;&gt;Node14</title>
<path fill="none" stroke="midnightblue" d="M514.077,-675C527.694,-675 541.618,-675 554.945,-675"/>
<polygon fill="midnightblue" stroke="midnightblue" points="513.738,-671.5 503.738,-675 513.738,-678.5 513.738,-671.5"/>
</g>
<!-- Node15 -->
<g id="node15" class="node"><title>Node15</title>
<g id="a_node15"><a xlink:href="../../db/dea/classparser_1_1commands_1_1_ask.html#a658c13e8dfb321e6349eb39413f038f9" target="_top" xlink:title="parser.commands.Ask.runCode">
<polygon fill="white" stroke="black" points="768.5,-665.5 768.5,-684.5 935.5,-684.5 935.5,-665.5 768.5,-665.5"/>
<text text-anchor="middle" x="852" y="-672.5" font-family="Helvetica,sans-Serif" font-size="10.00">parser.commands.Ask.runCode</text>
</a>
</g>
</g>
<!-- Node14&#45;&gt;Node15 -->
<g id="edge14" class="edge"><title>Node14&#45;&gt;Node15</title>
<path fill="none" stroke="midnightblue" d="M727.585,-675C741.153,-675 755.082,-675 768.471,-675"/>
<polygon fill="midnightblue" stroke="midnightblue" points="727.295,-671.5 717.295,-675 727.295,-678.5 727.295,-671.5"/>
</g>
<!-- Node15&#45;&gt;Node7 -->
<g id="edge15" class="edge"><title>Node15&#45;&gt;Node7</title>
<path fill="none" stroke="midnightblue" d="M945.638,-664.861C954.552,-663.885 963.548,-662.9 972.345,-661.937"/>
<polygon fill="midnightblue" stroke="midnightblue" points="945.184,-661.389 935.625,-665.957 945.946,-668.348 945.184,-661.389"/>
</g>
<!-- Node23 -->
<g id="node23" class="node"><title>Node23</title>
<g id="a_node23"><a xlink:href="../../d7/d3b/classparser_1_1commands_1_1_pen_down.html#a3e16164bf1598a341653d51d0cb0b989" target="_top" xlink:title="parser.commands.PenDown.execute">
<polygon fill="white" stroke="black" points="540,-35.5 540,-54.5 732,-54.5 732,-35.5 540,-35.5"/>
<text text-anchor="middle" x="636" y="-42.5" font-family="Helvetica,sans-Serif" font-size="10.00">parser.commands.PenDown.execute</text>
</a>
</g>
</g>
<!-- Node22&#45;&gt;Node23 -->
<g id="edge23" class="edge"><title>Node22&#45;&gt;Node23</title>
<path fill="none" stroke="midnightblue" d="M495.493,-57.3862C509.85,-56.1114 525.071,-54.76 539.978,-53.4365"/>
<polygon fill="midnightblue" stroke="midnightblue" points="494.858,-53.9286 485.207,-58.2994 495.477,-60.9012 494.858,-53.9286"/>
</g>
<!-- Node24 -->
<g id="node24" class="node"><title>Node24</title>
<g id="a_node24"><a xlink:href="../../de/d75/classparser_1_1commands_1_1_pen_up.html#ab2cc693085c58ad98ad75023de1bf949" target="_top" xlink:title="parser.commands.PenUp.execute">
<polygon fill="white" stroke="black" points="546.5,-73.5 546.5,-92.5 725.5,-92.5 725.5,-73.5 546.5,-73.5"/>
<text text-anchor="middle" x="636" y="-80.5" font-family="Helvetica,sans-Serif" font-size="10.00">parser.commands.PenUp.execute</text>
</a>
</g>
</g>
<!-- Node22&#45;&gt;Node24 -->
<g id="edge24" class="edge"><title>Node22&#45;&gt;Node24</title>
<path fill="none" stroke="midnightblue" d="M495.289,-70.5958C511.745,-72.0568 529.342,-73.6192 546.307,-75.1254"/>
<polygon fill="midnightblue" stroke="midnightblue" points="495.477,-67.0988 485.207,-69.7006 494.858,-74.0714 495.477,-67.0988"/>
</g>
<!-- Node28&#45;&gt;Node13 -->
<g id="edge29" class="edge"><title>Node28&#45;&gt;Node13</title>
<path fill="none" stroke="midnightblue" d="M308.994,-756.447C376.39,-753.253 475.43,-748.561 546.645,-745.186"/>
<polygon fill="midnightblue" stroke="midnightblue" points="308.696,-752.957 298.873,-756.926 309.028,-759.949 308.696,-752.957"/>
</g>
</g>
</svg>
        <g id="navigator" transform="translate(0 0)" fill="#404254">
                <rect fill="#f2f5e9" fill-opacity="0.5" stroke="#606060" stroke-width=".5" x="0" y="0" width="60" height="60"/>
                <use id="zoomplus" xlink:href="#zoomPlus" x="17" y="9" onmousedown="handleZoom(evt,'in')"/>
                <use id="zoomminus" xlink:href="#zoomMin" x="42" y="9" onmousedown="handleZoom(evt,'out')"/>
                <use id="reset" xlink:href="#resetDef" x="30" y="36" onmousedown="handleReset()"/>
                <g id="arrowUp" xlink:href="#dirArrow" transform="translate(30 24)" onmousedown="handlePan(0,-1)">
                  <use xlink:href="#rim" fill="#404040">
                        <set attributeName="fill" to="#808080" begin="arrowUp.mouseover" end="arrowUp.mouseout"/>
                  </use>
                  <path fill="none" stroke="white" stroke-width="1.5" d="M0,-3.0v7 M-2.5,-0.5L0,-3.0L2.5,-0.5"/>
                </g>
                <g id="arrowRight" xlink:href="#dirArrow" transform="rotate(90) translate(36 -43)" onmousedown="handlePan(1,0)">
                  <use xlink:href="#rim" fill="#404040">
                        <set attributeName="fill" to="#808080" begin="arrowRight.mouseover" end="arrowRight.mouseout"/>
                  </use>
                  <path fill="none" stroke="white" stroke-width="1.5" d="M0,-3.0v7 M-2.5,-0.5L0,-3.0L2.5,-0.5"/>
                </g>
                <g id="arrowDown" xlink:href="#dirArrow" transform="rotate(180) translate(-30 -48)" onmousedown="handlePan(0,1)">
                  <use xlink:href="#rim" fill="#404040">
                        <set attributeName="fill" to="#808080" begin="arrowDown.mouseover" end="arrowDown.mouseout"/>
                  </use>
                  <path fill="none" stroke="white" stroke-width="1.5" d="M0,-3.0v7 M-2.5,-0.5L0,-3.0L2.5,-0.5"/>
                </g>
                <g id="arrowLeft" xlink:href="#dirArrow" transform="rotate(270) translate(-36 17)" onmousedown="handlePan(-1,0)">
                  <use xlink:href="#rim" fill="#404040">
                        <set attributeName="fill" to="#808080" begin="arrowLeft.mouseover" end="arrowLeft.mouseout"/>
                  </use>
                  <path fill="none" stroke="white" stroke-width="1.5" d="M0,-3.0v7 M-2.5,-0.5L0,-3.0L2.5,-0.5"/>
                </g>
        </g>
        <svg viewBox="0 0 15 15" width="100%" height="30px" preserveAspectRatio="xMaxYMin meet">
         <g id="arrow_out" transform="scale(0.3 0.3)">
          <a xlink:href="classmodel_1_1_turtle_multiple_a47e5a06bab25ead16ef3098a4257aa4b_icgraph_org.svg" target="_base">
           <rect id="button" ry="5" rx="5" y="6" x="6" height="38" width="38"
                fill="#f2f5e9" fill-opacity="0.5" stroke="#606060" stroke-width="1.0"/>
           <path id="arrow"
             d="M 11.500037,31.436501 C 11.940474,20.09759 22.043105,11.32322 32.158766,21.979434 L 37.068811,17.246167 C 37.068811,17.246167 37.088388,32 37.088388,32 L 22.160133,31.978069 C 22.160133,31.978069 26.997745,27.140456 26.997745,27.140456 C 18.528582,18.264221 13.291696,25.230495 11.500037,31.436501 z"
             style="fill:#404040;"/>
          </a>
         </g>
        </svg>
</svg>
