<?xml version="1.0" encoding="UTF-8" standalone="no"?>
<!DOCTYPE svg PUBLIC "-//W3C//DTD SVG 1.1//EN"
 "http://www.w3.org/Graphics/SVG/1.1/DTD/svg11.dtd">
<!-- Generated by graphviz version 2.36.0 (20140111.2315)
 -->
<!-- Title: parser.commands.Ask.execute Pages: 1 -->
<!--zoomable 213 -->
<svg id="main" version="1.1" xmlns="http://www.w3.org/2000/svg" xmlns:xlink="http://www.w3.org/1999/xlink" xml:space="preserve" onload="init(evt)">
<style type="text/css"><![CDATA[
.edge:hover path { stroke: red; }
.edge:hover polygon { stroke: red; fill: red; }
]]></style>
<script type="text/javascript"><![CDATA[
var edges = document.getElementsByTagName('g');
if (edges && edges.length) {
  for (var i=0;i<edges.length;i++) {
    if (edges[i].id.substr(0,4)=='edge') {
      edges[i].setAttribute('class','edge');
    }
  }
}
]]></script>
        <defs>
                <circle id="rim" cx="0" cy="0" r="7"/>
                <circle id="rim2" cx="0" cy="0" r="3.5"/>
                <g id="zoomPlus">
                        <use xlink:href="#rim" fill="#404040">
                                <set attributeName="fill" to="#808080" begin="zoomplus.mouseover" end="zoomplus.mouseout"/>
                        </use>
                        <path d="M-4,0h8M0,-4v8" fill="none" stroke="white" stroke-width="1.5" pointer-events="none"/>
                </g>
                <g id="zoomMin">
                        <use xlink:href="#rim" fill="#404040">
                                <set attributeName="fill" to="#808080" begin="zoomminus.mouseover" end="zoomminus.mouseout"/>
                        </use>
                        <path d="M-4,0h8" fill="none" stroke="white" stroke-width="1.5" pointer-events="none"/>
                </g>
                <g id="dirArrow">
                        <path fill="none" stroke="white" stroke-width="1.5" d="M0,-3.0v7 M-2.5,-0.5L0,-3.0L2.5,-0.5"/>
                </g>
               <g id="resetDef">
                       <use xlink:href="#rim2" fill="#404040">
                               <set attributeName="fill" to="#808080" begin="reset.mouseover" end="reset.mouseout"/>
                       </use>
               </g>
        </defs>

<script type="text/javascript">
var viewWidth = 1128;
var viewHeight = 213;
var sectionId = 'dynsection-6';
</script>
<script xlink:href="../../svgpan.js"/>
<svg id="graph" class="graph">
<g id="viewport">
<title>parser.commands.Ask.execute</title>
<polygon fill="white" stroke="none" points="-4,4 -4,-209 1124,-209 1124,4 -4,4"/>
<!-- Node1 -->
<g id="node1" class="node"><title>Node1</title>
<polygon fill="#bfbfbf" stroke="black" points="0.5,-87.5 0.5,-106.5 165.5,-106.5 165.5,-87.5 0.5,-87.5"/>
<text text-anchor="middle" x="83" y="-94.5" font-family="Helvetica,sans-Serif" font-size="10.00">parser.commands.Ask.execute</text>
</g>
<!-- Node2 -->
<g id="node2" class="node"><title>Node2</title>
<g id="a_node2"><a xlink:href="../../db/dea/classparser_1_1commands_1_1_ask.html#af023b91d12f19f696d5f40d37b4d1e4a" target="_top" xlink:title="parser.commands.Ask.create\lNewActiveStack">
<polygon fill="white" stroke="black" points="408,-175 408,-205 566,-205 566,-175 408,-175"/>
<text text-anchor="start" x="416" y="-193" font-family="Helvetica,sans-Serif" font-size="10.00">parser.commands.Ask.create</text>
<text text-anchor="middle" x="487" y="-182" font-family="Helvetica,sans-Serif" font-size="10.00">NewActiveStack</text>
</a>
</g>
</g>
<!-- Node1&#45;&gt;Node2 -->
<g id="edge1" class="edge"><title>Node1&#45;&gt;Node2</title>
<path fill="none" stroke="midnightblue" d="M125.132,-106.516C192.407,-122.079 326.921,-153.198 411.369,-172.735"/>
<polygon fill="midnightblue" stroke="midnightblue" points="410.625,-176.155 421.157,-174.999 412.203,-169.335 410.625,-176.155"/>
</g>
<!-- Node6 -->
<g id="node6" class="node"><title>Node6</title>
<g id="a_node6"><a xlink:href="../../db/dea/classparser_1_1commands_1_1_ask.html#ae9d226e668deb9d8bba3b126d59e0a05" target="_top" xlink:title="parser.commands.Ask.create\lOldActiveStack">
<polygon fill="white" stroke="black" points="207,-19 207,-49 365,-49 365,-19 207,-19"/>
<text text-anchor="start" x="215" y="-37" font-family="Helvetica,sans-Serif" font-size="10.00">parser.commands.Ask.create</text>
<text text-anchor="middle" x="286" y="-26" font-family="Helvetica,sans-Serif" font-size="10.00">OldActiveStack</text>
</a>
</g>
</g>
<!-- Node1&#45;&gt;Node6 -->
<g id="edge5" class="edge"><title>Node1&#45;&gt;Node6</title>
<path fill="none" stroke="midnightblue" d="M114.528,-87.4317C144.368,-78.0786 190.549,-63.6042 227.321,-52.0785"/>
<polygon fill="midnightblue" stroke="midnightblue" points="228.44,-55.3958 236.935,-49.065 226.346,-48.7162 228.44,-55.3958"/>
</g>
<!-- Node10 -->
<g id="node10" class="node"><title>Node10</title>
<g id="a_node10"><a xlink:href="../../db/dea/classparser_1_1commands_1_1_ask.html#a658c13e8dfb321e6349eb39413f038f9" target="_top" xlink:title="parser.commands.Ask.runCode">
<polygon fill="white" stroke="black" points="202.5,-87.5 202.5,-106.5 369.5,-106.5 369.5,-87.5 202.5,-87.5"/>
<text text-anchor="middle" x="286" y="-94.5" font-family="Helvetica,sans-Serif" font-size="10.00">parser.commands.Ask.runCode</text>
</a>
</g>
</g>
<!-- Node1&#45;&gt;Node10 -->
<g id="edge9" class="edge"><title>Node1&#45;&gt;Node10</title>
<path fill="none" stroke="midnightblue" d="M165.754,-97C174.426,-97 183.29,-97 192.076,-97"/>
<polygon fill="midnightblue" stroke="midnightblue" points="192.339,-100.5 202.339,-97 192.339,-93.5001 192.339,-100.5"/>
</g>
<!-- Node3 -->
<g id="node3" class="node"><title>Node3</title>
<g id="a_node3"><a xlink:href="../../da/d96/classparser_1_1nodes_1_1_syntax_node.html#a21b459bd103a7f1f3a1a5f52bb3b3132" target="_top" xlink:title="parser.nodes.SyntaxNode.execute">
<polygon fill="white" stroke="black" points="604,-87.5 604,-106.5 786,-106.5 786,-87.5 604,-87.5"/>
<text text-anchor="middle" x="695" y="-94.5" font-family="Helvetica,sans-Serif" font-size="10.00">parser.nodes.SyntaxNode.execute</text>
</a>
</g>
</g>
<!-- Node2&#45;&gt;Node3 -->
<g id="edge2" class="edge"><title>Node2&#45;&gt;Node3</title>
<path fill="none" stroke="midnightblue" d="M549.021,-174.848C555.672,-172.066 562.145,-168.808 568,-165 588.33,-151.78 583.595,-137.103 604,-124 613.248,-118.061 623.862,-113.378 634.483,-109.701"/>
<polygon fill="midnightblue" stroke="midnightblue" points="635.737,-112.975 644.199,-106.6 633.608,-106.306 635.737,-112.975"/>
</g>
<!-- Node4 -->
<g id="node4" class="node"><title>Node4</title>
<g id="a_node4"><a xlink:href="../../d4/d1c/classparser_1_1nodes_1_1_list_node.html#a20dc3121f383968aade0535bbe80b015" target="_top" xlink:title="parser.nodes.ListNode.getNode">
<polygon fill="white" stroke="black" points="611,-175.5 611,-194.5 779,-194.5 779,-175.5 611,-175.5"/>
<text text-anchor="middle" x="695" y="-182.5" font-family="Helvetica,sans-Serif" font-size="10.00">parser.nodes.ListNode.getNode</text>
</a>
</g>
</g>
<!-- Node2&#45;&gt;Node4 -->
<g id="edge3" class="edge"><title>Node2&#45;&gt;Node4</title>
<path fill="none" stroke="midnightblue" d="M566.173,-188.103C577.442,-187.829 589.131,-187.545 600.658,-187.266"/>
<polygon fill="midnightblue" stroke="midnightblue" points="600.819,-190.763 610.732,-187.021 600.649,-183.765 600.819,-190.763"/>
</g>
<!-- Node5 -->
<g id="node5" class="node"><title>Node5</title>
<g id="a_node5"><a xlink:href="../../d4/d1c/classparser_1_1nodes_1_1_list_node.html#a06d95a825392910e4f1744c706c658df" target="_top" xlink:title="parser.nodes.ListNode.getSize">
<polygon fill="white" stroke="black" points="613.5,-133.5 613.5,-152.5 776.5,-152.5 776.5,-133.5 613.5,-133.5"/>
<text text-anchor="middle" x="695" y="-140.5" font-family="Helvetica,sans-Serif" font-size="10.00">parser.nodes.ListNode.getSize</text>
</a>
</g>
</g>
<!-- Node2&#45;&gt;Node5 -->
<g id="edge4" class="edge"><title>Node2&#45;&gt;Node5</title>
<path fill="none" stroke="midnightblue" d="M553.746,-175C582.354,-168.473 615.394,-160.934 642.218,-154.814"/>
<polygon fill="midnightblue" stroke="midnightblue" points="643.2,-158.18 652.171,-152.543 641.643,-151.356 643.2,-158.18"/>
</g>
<!-- Node7 -->
<g id="node7" class="node"><title>Node7</title>
<g id="a_node7"><a xlink:href="../../d9/dea/classmodel_1_1_turtle_multiple.html#a8d4e9d8254a29cb12982469a8ee05982" target="_top" xlink:title="model.TurtleMultiple.active\lTurtleIDs">
<polygon fill="white" stroke="black" points="415.5,-0 415.5,-30 558.5,-30 558.5,-0 415.5,-0"/>
<text text-anchor="start" x="423.5" y="-18" font-family="Helvetica,sans-Serif" font-size="10.00">model.TurtleMultiple.active</text>
<text text-anchor="middle" x="487" y="-7" font-family="Helvetica,sans-Serif" font-size="10.00">TurtleIDs</text>
</a>
</g>
</g>
<!-- Node6&#45;&gt;Node7 -->
<g id="edge6" class="edge"><title>Node6&#45;&gt;Node7</title>
<path fill="none" stroke="midnightblue" d="M365.079,-26.5452C378.268,-25.286 391.984,-23.9764 405.24,-22.7107"/>
<polygon fill="midnightblue" stroke="midnightblue" points="405.649,-26.1877 415.271,-21.753 404.984,-19.2194 405.649,-26.1877"/>
</g>
<!-- Node8 -->
<g id="node8" class="node"><title>Node8</title>
<g id="a_node8"><a xlink:href="../../d9/dea/classmodel_1_1_turtle_multiple.html#a39a093480efa352c2066e4ef8534f26e" target="_top" xlink:title="model.TurtleMultiple.get\lStream">
<polygon fill="white" stroke="black" points="822.5,-22 822.5,-52 953.5,-52 953.5,-22 822.5,-22"/>
<text text-anchor="start" x="830.5" y="-40" font-family="Helvetica,sans-Serif" font-size="10.00">model.TurtleMultiple.get</text>
<text text-anchor="middle" x="888" y="-29" font-family="Helvetica,sans-Serif" font-size="10.00">Stream</text>
</a>
</g>
</g>
<!-- Node7&#45;&gt;Node8 -->
<g id="edge7" class="edge"><title>Node7&#45;&gt;Node8</title>
<path fill="none" stroke="midnightblue" d="M558.873,-18.9078C630.202,-22.8407 739.773,-28.8822 812.399,-32.8867"/>
<polygon fill="midnightblue" stroke="midnightblue" points="812.217,-36.3818 822.394,-33.4378 812.602,-29.3925 812.217,-36.3818"/>
</g>
<!-- Node9 -->
<g id="node9" class="node"><title>Node9</title>
<g id="a_node9"><a xlink:href="../../d9/dea/classmodel_1_1_turtle_multiple.html#a47e5a06bab25ead16ef3098a4257aa4b" target="_top" xlink:title="model.TurtleMultiple.set\lLastTurtle">
<polygon fill="white" stroke="black" points="990,-22 990,-52 1120,-52 1120,-22 990,-22"/>
<text text-anchor="start" x="998" y="-40" font-family="Helvetica,sans-Serif" font-size="10.00">model.TurtleMultiple.set</text>
<text text-anchor="middle" x="1055" y="-29" font-family="Helvetica,sans-Serif" font-size="10.00">LastTurtle</text>
</a>
</g>
</g>
<!-- Node8&#45;&gt;Node9 -->
<g id="edge8" class="edge"><title>Node8&#45;&gt;Node9</title>
<path fill="none" stroke="midnightblue" d="M953.739,-37C962.305,-37 971.138,-37 979.847,-37"/>
<polygon fill="midnightblue" stroke="midnightblue" points="979.989,-40.5001 989.989,-37 979.989,-33.5001 979.989,-40.5001"/>
</g>
<!-- Node10&#45;&gt;Node3 -->
<g id="edge17" class="edge"><title>Node10&#45;&gt;Node3</title>
<path fill="none" stroke="midnightblue" d="M335.426,-87.487C356.944,-83.7214 382.641,-79.853 406,-78 477.775,-72.3062 496.202,-72.617 568,-78 589.137,-79.5847 612.101,-82.6446 632.565,-85.8536"/>
<polygon fill="midnightblue" stroke="midnightblue" points="632.273,-89.3515 642.702,-87.4864 633.386,-82.4406 632.273,-89.3515"/>
</g>
<!-- Node11 -->
<g id="node11" class="node"><title>Node11</title>
<g id="a_node11"><a xlink:href="../../db/dea/classparser_1_1commands_1_1_ask.html#aa9aba093dd5b53b0755ab02a07455902" target="_top" xlink:title="parser.commands.Ask.tell\lMaker">
<polygon fill="white" stroke="black" points="416.5,-126 416.5,-156 557.5,-156 557.5,-126 416.5,-126"/>
<text text-anchor="start" x="424.5" y="-144" font-family="Helvetica,sans-Serif" font-size="10.00">parser.commands.Ask.tell</text>
<text text-anchor="middle" x="487" y="-133" font-family="Helvetica,sans-Serif" font-size="10.00">Maker</text>
</a>
</g>
</g>
<!-- Node10&#45;&gt;Node11 -->
<g id="edge10" class="edge"><title>Node10&#45;&gt;Node11</title>
<path fill="none" stroke="midnightblue" d="M330.18,-106.547C352.885,-111.568 381.424,-117.878 407.854,-123.721"/>
<polygon fill="midnightblue" stroke="midnightblue" points="407.344,-127.193 417.863,-125.935 408.855,-120.358 407.344,-127.193"/>
</g>
<!-- Node12 -->
<g id="node12" class="node"><title>Node12</title>
<g id="a_node12"><a xlink:href="../../dc/dd6/classparser_1_1commands_1_1_tell.html#a0a34e23f2a3c5bc0011e058241149b68" target="_top" xlink:title="parser.commands.Tell.execute">
<polygon fill="white" stroke="black" points="406,-87.5 406,-106.5 568,-106.5 568,-87.5 406,-87.5"/>
<text text-anchor="middle" x="487" y="-94.5" font-family="Helvetica,sans-Serif" font-size="10.00">parser.commands.Tell.execute</text>
</a>
</g>
</g>
<!-- Node10&#45;&gt;Node12 -->
<g id="edge11" class="edge"><title>Node10&#45;&gt;Node12</title>
<path fill="none" stroke="midnightblue" d="M369.665,-97C378.261,-97 387.03,-97 395.705,-97"/>
<polygon fill="midnightblue" stroke="midnightblue" points="395.83,-100.5 405.83,-97 395.83,-93.5001 395.83,-100.5"/>
</g>
<!-- Node12&#45;&gt;Node3 -->
<g id="edge16" class="edge"><title>Node12&#45;&gt;Node3</title>
<path fill="none" stroke="midnightblue" d="M568.235,-97C576.598,-97 585.172,-97 593.722,-97"/>
<polygon fill="midnightblue" stroke="midnightblue" points="593.732,-100.5 603.732,-97 593.732,-93.5001 593.732,-100.5"/>
</g>
<!-- Node12&#45;&gt;Node4 -->
<g id="edge15" class="edge"><title>Node12&#45;&gt;Node4</title>
<path fill="none" stroke="midnightblue" d="M548.363,-106.627C555.277,-109.077 561.991,-112.149 568,-116 589.857,-130.009 582.263,-147.806 604,-162 610.127,-166.001 616.91,-169.306 623.923,-172.037"/>
<polygon fill="midnightblue" stroke="midnightblue" points="622.994,-175.42 633.589,-175.415 625.304,-168.812 622.994,-175.42"/>
</g>
<!-- Node12&#45;&gt;Node5 -->
<g id="edge14" class="edge"><title>Node12&#45;&gt;Node5</title>
<path fill="none" stroke="midnightblue" d="M530.683,-106.531C562.862,-113.717 607.167,-123.61 641.513,-131.28"/>
<polygon fill="midnightblue" stroke="midnightblue" points="640.849,-134.717 651.371,-133.481 642.375,-127.886 640.849,-134.717"/>
</g>
<!-- Node13 -->
<g id="node13" class="node"><title>Node13</title>
<g id="a_node13"><a xlink:href="../../d9/dea/classmodel_1_1_turtle_multiple.html#a5d8a36f60191801dfdcfe491f5b62966" target="_top" xlink:title="model.TurtleMultiple.deactiveAll">
<polygon fill="white" stroke="black" points="611.5,-48.5 611.5,-67.5 778.5,-67.5 778.5,-48.5 611.5,-48.5"/>
<text text-anchor="middle" x="695" y="-55.5" font-family="Helvetica,sans-Serif" font-size="10.00">model.TurtleMultiple.deactiveAll</text>
</a>
</g>
</g>
<!-- Node12&#45;&gt;Node13 -->
<g id="edge12" class="edge"><title>Node12&#45;&gt;Node13</title>
<path fill="none" stroke="midnightblue" d="M538.393,-87.4595C567.181,-82.0095 603.462,-75.1407 633.749,-69.4068"/>
<polygon fill="midnightblue" stroke="midnightblue" points="634.596,-72.8086 643.77,-67.5095 633.294,-65.9308 634.596,-72.8086"/>
</g>
<!-- Node13&#45;&gt;Node8 -->
<g id="edge13" class="edge"><title>Node13&#45;&gt;Node8</title>
<path fill="none" stroke="midnightblue" d="M778.665,-48.9112C789.857,-47.6806 801.289,-46.4237 812.331,-45.2097"/>
<polygon fill="midnightblue" stroke="midnightblue" points="812.786,-48.6809 822.343,-44.1088 812.021,-41.7228 812.786,-48.6809"/>
</g>
</g>
</svg>
        <g id="navigator" transform="translate(0 0)" fill="#404254">
                <rect fill="#f2f5e9" fill-opacity="0.5" stroke="#606060" stroke-width=".5" x="0" y="0" width="60" height="60"/>
                <use id="zoomplus" xlink:href="#zoomPlus" x="17" y="9" onmousedown="handleZoom(evt,'in')"/>
                <use id="zoomminus" xlink:href="#zoomMin" x="42" y="9" onmousedown="handleZoom(evt,'out')"/>
                <use id="reset" xlink:href="#resetDef" x="30" y="36" onmousedown="handleReset()"/>
                <g id="arrowUp" xlink:href="#dirArrow" transform="translate(30 24)" onmousedown="handlePan(0,-1)">
                  <use xlink:href="#rim" fill="#404040">
                        <set attributeName="fill" to="#808080" begin="arrowUp.mouseover" end="arrowUp.mouseout"/>
                  </use>
                  <path fill="none" stroke="white" stroke-width="1.5" d="M0,-3.0v7 M-2.5,-0.5L0,-3.0L2.5,-0.5"/>
                </g>
                <g id="arrowRight" xlink:href="#dirArrow" transform="rotate(90) translate(36 -43)" onmousedown="handlePan(1,0)">
                  <use xlink:href="#rim" fill="#404040">
                        <set attributeName="fill" to="#808080" begin="arrowRight.mouseover" end="arrowRight.mouseout"/>
                  </use>
                  <path fill="none" stroke="white" stroke-width="1.5" d="M0,-3.0v7 M-2.5,-0.5L0,-3.0L2.5,-0.5"/>
                </g>
                <g id="arrowDown" xlink:href="#dirArrow" transform="rotate(180) translate(-30 -48)" onmousedown="handlePan(0,1)">
                  <use xlink:href="#rim" fill="#404040">
                        <set attributeName="fill" to="#808080" begin="arrowDown.mouseover" end="arrowDown.mouseout"/>
                  </use>
                  <path fill="none" stroke="white" stroke-width="1.5" d="M0,-3.0v7 M-2.5,-0.5L0,-3.0L2.5,-0.5"/>
                </g>
                <g id="arrowLeft" xlink:href="#dirArrow" transform="rotate(270) translate(-36 17)" onmousedown="handlePan(-1,0)">
                  <use xlink:href="#rim" fill="#404040">
                        <set attributeName="fill" to="#808080" begin="arrowLeft.mouseover" end="arrowLeft.mouseout"/>
                  </use>
                  <path fill="none" stroke="white" stroke-width="1.5" d="M0,-3.0v7 M-2.5,-0.5L0,-3.0L2.5,-0.5"/>
                </g>
        </g>
        <svg viewBox="0 0 15 15" width="100%" height="30px" preserveAspectRatio="xMaxYMin meet">
         <g id="arrow_out" transform="scale(0.3 0.3)">
          <a xlink:href="classparser_1_1commands_1_1_ask_ae3a52ad1be99031d4a926942771fd71c_cgraph_org.svg" target="_base">
           <rect id="button" ry="5" rx="5" y="6" x="6" height="38" width="38"
                fill="#f2f5e9" fill-opacity="0.5" stroke="#606060" stroke-width="1.0"/>
           <path id="arrow"
             d="M 11.500037,31.436501 C 11.940474,20.09759 22.043105,11.32322 32.158766,21.979434 L 37.068811,17.246167 C 37.068811,17.246167 37.088388,32 37.088388,32 L 22.160133,31.978069 C 22.160133,31.978069 26.997745,27.140456 26.997745,27.140456 C 18.528582,18.264221 13.291696,25.230495 11.500037,31.436501 z"
             style="fill:#404040;"/>
          </a>
         </g>
        </svg>
</svg>
