<?xml version="1.0" encoding="UTF-8" standalone="no"?>
<!DOCTYPE svg PUBLIC "-//W3C//DTD SVG 1.1//EN"
 "http://www.w3.org/Graphics/SVG/1.1/DTD/svg11.dtd">
<!-- Generated by graphviz version 2.36.0 (20140111.2315)
 -->
<!-- Title: parser.commands.Ask.tellMaker Pages: 1 -->
<svg width="556pt" height="38pt"
 viewBox="0.00 0.00 556.00 38.00" xmlns="http://www.w3.org/2000/svg" xmlns:xlink="http://www.w3.org/1999/xlink">
<g id="graph0" class="graph" transform="scale(1 1) rotate(0) translate(4 34)">
<title>parser.commands.Ask.tellMaker</title>
<polygon fill="white" stroke="none" points="-4,4 -4,-34 552,-34 552,4 -4,4"/>
<!-- Node1 -->
<g id="node1" class="node"><title>Node1</title>
<polygon fill="#bfbfbf" stroke="black" points="0.5,-0 0.5,-30 141.5,-30 141.5,-0 0.5,-0"/>
<text text-anchor="start" x="8.5" y="-18" font-family="Helvetica,sans-Serif" font-size="10.00">parser.commands.Ask.tell</text>
<text text-anchor="middle" x="71" y="-7" font-family="Helvetica,sans-Serif" font-size="10.00">Maker</text>
</g>
<!-- Node2 -->
<g id="node2" class="node"><title>Node2</title>
<g id="a_node2"><a xlink:href="../../db/dea/classparser_1_1commands_1_1_ask.html#a658c13e8dfb321e6349eb39413f038f9" target="_top" xlink:title="parser.commands.Ask.runCode">
<polygon fill="white" stroke="black" points="178.5,-5.5 178.5,-24.5 345.5,-24.5 345.5,-5.5 178.5,-5.5"/>
<text text-anchor="middle" x="262" y="-12.5" font-family="Helvetica,sans-Serif" font-size="10.00">parser.commands.Ask.runCode</text>
</a>
</g>
</g>
<!-- Node1&#45;&gt;Node2 -->
<g id="edge1" class="edge"><title>Node1&#45;&gt;Node2</title>
<path fill="none" stroke="midnightblue" d="M151.814,-15C160.623,-15 169.607,-15 178.449,-15"/>
<polygon fill="midnightblue" stroke="midnightblue" points="151.571,-11.5001 141.571,-15 151.571,-18.5001 151.571,-11.5001"/>
</g>
<!-- Node3 -->
<g id="node3" class="node"><title>Node3</title>
<g id="a_node3"><a xlink:href="../../db/dea/classparser_1_1commands_1_1_ask.html#ae3a52ad1be99031d4a926942771fd71c" target="_top" xlink:title="parser.commands.Ask.execute">
<polygon fill="white" stroke="black" points="382.5,-5.5 382.5,-24.5 547.5,-24.5 547.5,-5.5 382.5,-5.5"/>
<text text-anchor="middle" x="465" y="-12.5" font-family="Helvetica,sans-Serif" font-size="10.00">parser.commands.Ask.execute</text>
</a>
</g>
</g>
<!-- Node2&#45;&gt;Node3 -->
<g id="edge2" class="edge"><title>Node2&#45;&gt;Node3</title>
<path fill="none" stroke="midnightblue" d="M355.638,-15C364.552,-15 373.548,-15 382.345,-15"/>
<polygon fill="midnightblue" stroke="midnightblue" points="355.625,-11.5001 345.625,-15 355.624,-18.5001 355.625,-11.5001"/>
</g>
</g>
</svg>
