<?xml version="1.0" encoding="UTF-8" standalone="no"?>
<!DOCTYPE svg PUBLIC "-//W3C//DTD SVG 1.1//EN"
 "http://www.w3.org/Graphics/SVG/1.1/DTD/svg11.dtd">
<!-- Generated by graphviz version 2.36.0 (20140111.2315)
 -->
<!-- Title: parser.commands.Ask.runCode Pages: 1 -->
<svg width="926pt" height="142pt"
 viewBox="0.00 0.00 926.00 142.00" xmlns="http://www.w3.org/2000/svg" xmlns:xlink="http://www.w3.org/1999/xlink">
<g id="graph0" class="graph" transform="scale(1 1) rotate(0) translate(4 138)">
<title>parser.commands.Ask.runCode</title>
<polygon fill="white" stroke="none" points="-4,4 -4,-138 922,-138 922,4 -4,4"/>
<!-- Node1 -->
<g id="node1" class="node"><title>Node1</title>
<polygon fill="#bfbfbf" stroke="black" points="0.5,-76.5 0.5,-95.5 167.5,-95.5 167.5,-76.5 0.5,-76.5"/>
<text text-anchor="middle" x="84" y="-83.5" font-family="Helvetica,sans-Serif" font-size="10.00">parser.commands.Ask.runCode</text>
</g>
<!-- Node2 -->
<g id="node2" class="node"><title>Node2</title>
<g id="a_node2"><a xlink:href="../../da/d96/classparser_1_1nodes_1_1_syntax_node.html#a21b459bd103a7f1f3a1a5f52bb3b3132" target="_top" xlink:title="parser.nodes.SyntaxNode.execute">
<polygon fill="white" stroke="black" points="402,-114.5 402,-133.5 584,-133.5 584,-114.5 402,-114.5"/>
<text text-anchor="middle" x="493" y="-121.5" font-family="Helvetica,sans-Serif" font-size="10.00">parser.nodes.SyntaxNode.execute</text>
</a>
</g>
</g>
<!-- Node1&#45;&gt;Node2 -->
<g id="edge1" class="edge"><title>Node1&#45;&gt;Node2</title>
<path fill="none" stroke="midnightblue" d="M137.875,-95.5171C158.457,-98.9393 182.274,-102.554 204,-105 266.229,-112.005 336.334,-116.699 391.797,-119.668"/>
<polygon fill="midnightblue" stroke="midnightblue" points="391.807,-123.174 401.977,-120.203 392.174,-116.183 391.807,-123.174"/>
</g>
<!-- Node3 -->
<g id="node3" class="node"><title>Node3</title>
<g id="a_node3"><a xlink:href="../../dc/dd6/classparser_1_1commands_1_1_tell.html#a0a34e23f2a3c5bc0011e058241149b68" target="_top" xlink:title="parser.commands.Tell.execute">
<polygon fill="white" stroke="black" points="204,-76.5 204,-95.5 366,-95.5 366,-76.5 204,-76.5"/>
<text text-anchor="middle" x="285" y="-83.5" font-family="Helvetica,sans-Serif" font-size="10.00">parser.commands.Tell.execute</text>
</a>
</g>
</g>
<!-- Node1&#45;&gt;Node3 -->
<g id="edge2" class="edge"><title>Node1&#45;&gt;Node3</title>
<path fill="none" stroke="midnightblue" d="M167.665,-86C176.261,-86 185.03,-86 193.705,-86"/>
<polygon fill="midnightblue" stroke="midnightblue" points="193.83,-89.5001 203.83,-86 193.83,-82.5001 193.83,-89.5001"/>
</g>
<!-- Node9 -->
<g id="node9" class="node"><title>Node9</title>
<g id="a_node9"><a xlink:href="../../db/dea/classparser_1_1commands_1_1_ask.html#aa9aba093dd5b53b0755ab02a07455902" target="_top" xlink:title="parser.commands.Ask.tell\lMaker">
<polygon fill="white" stroke="black" points="214.5,-27 214.5,-57 355.5,-57 355.5,-27 214.5,-27"/>
<text text-anchor="start" x="222.5" y="-45" font-family="Helvetica,sans-Serif" font-size="10.00">parser.commands.Ask.tell</text>
<text text-anchor="middle" x="285" y="-34" font-family="Helvetica,sans-Serif" font-size="10.00">Maker</text>
</a>
</g>
</g>
<!-- Node1&#45;&gt;Node9 -->
<g id="edge9" class="edge"><title>Node1&#45;&gt;Node9</title>
<path fill="none" stroke="midnightblue" d="M128.18,-76.4527C150.885,-71.4324 179.424,-65.1223 205.854,-59.2785"/>
<polygon fill="midnightblue" stroke="midnightblue" points="206.855,-62.6418 215.863,-57.0654 205.344,-55.8069 206.855,-62.6418"/>
</g>
<!-- Node3&#45;&gt;Node2 -->
<g id="edge8" class="edge"><title>Node3&#45;&gt;Node2</title>
<path fill="none" stroke="midnightblue" d="M337.717,-95.54C365.756,-100.712 400.602,-107.14 430.079,-112.578"/>
<polygon fill="midnightblue" stroke="midnightblue" points="429.793,-116.084 440.262,-114.456 431.063,-109.2 429.793,-116.084"/>
</g>
<!-- Node4 -->
<g id="node4" class="node"><title>Node4</title>
<g id="a_node4"><a xlink:href="../../d9/dea/classmodel_1_1_turtle_multiple.html#a5d8a36f60191801dfdcfe491f5b62966" target="_top" xlink:title="model.TurtleMultiple.deactiveAll">
<polygon fill="white" stroke="black" points="409.5,-76.5 409.5,-95.5 576.5,-95.5 576.5,-76.5 409.5,-76.5"/>
<text text-anchor="middle" x="493" y="-83.5" font-family="Helvetica,sans-Serif" font-size="10.00">model.TurtleMultiple.deactiveAll</text>
</a>
</g>
</g>
<!-- Node3&#45;&gt;Node4 -->
<g id="edge3" class="edge"><title>Node3&#45;&gt;Node4</title>
<path fill="none" stroke="midnightblue" d="M366.235,-86C377.047,-86 388.211,-86 399.217,-86"/>
<polygon fill="midnightblue" stroke="midnightblue" points="399.267,-89.5001 409.267,-86 399.267,-82.5001 399.267,-89.5001"/>
</g>
<!-- Node7 -->
<g id="node7" class="node"><title>Node7</title>
<g id="a_node7"><a xlink:href="../../d4/d1c/classparser_1_1nodes_1_1_list_node.html#a06d95a825392910e4f1744c706c658df" target="_top" xlink:title="parser.nodes.ListNode.getSize">
<polygon fill="white" stroke="black" points="411.5,-38.5 411.5,-57.5 574.5,-57.5 574.5,-38.5 411.5,-38.5"/>
<text text-anchor="middle" x="493" y="-45.5" font-family="Helvetica,sans-Serif" font-size="10.00">parser.nodes.ListNode.getSize</text>
</a>
</g>
</g>
<!-- Node3&#45;&gt;Node7 -->
<g id="edge6" class="edge"><title>Node3&#45;&gt;Node7</title>
<path fill="none" stroke="midnightblue" d="M337.717,-76.46C365.756,-71.2878 400.602,-64.8599 430.079,-59.4222"/>
<polygon fill="midnightblue" stroke="midnightblue" points="431.063,-62.7999 440.262,-57.5439 429.793,-55.9161 431.063,-62.7999"/>
</g>
<!-- Node8 -->
<g id="node8" class="node"><title>Node8</title>
<g id="a_node8"><a xlink:href="../../d4/d1c/classparser_1_1nodes_1_1_list_node.html#a20dc3121f383968aade0535bbe80b015" target="_top" xlink:title="parser.nodes.ListNode.getNode">
<polygon fill="white" stroke="black" points="409,-0.5 409,-19.5 577,-19.5 577,-0.5 409,-0.5"/>
<text text-anchor="middle" x="493" y="-7.5" font-family="Helvetica,sans-Serif" font-size="10.00">parser.nodes.ListNode.getNode</text>
</a>
</g>
</g>
<!-- Node3&#45;&gt;Node8 -->
<g id="edge7" class="edge"><title>Node3&#45;&gt;Node8</title>
<path fill="none" stroke="midnightblue" d="M341.362,-76.4455C349.926,-73.7696 358.43,-70.3547 366,-66 385.888,-54.5591 381.904,-40.0718 402,-29 406.152,-26.7122 410.552,-24.6995 415.086,-22.9289"/>
<polygon fill="midnightblue" stroke="midnightblue" points="416.258,-26.2268 424.544,-19.6238 413.949,-19.6186 416.258,-26.2268"/>
</g>
<!-- Node5 -->
<g id="node5" class="node"><title>Node5</title>
<g id="a_node5"><a xlink:href="../../d9/dea/classmodel_1_1_turtle_multiple.html#a39a093480efa352c2066e4ef8534f26e" target="_top" xlink:title="model.TurtleMultiple.get\lStream">
<polygon fill="white" stroke="black" points="620.5,-71 620.5,-101 751.5,-101 751.5,-71 620.5,-71"/>
<text text-anchor="start" x="628.5" y="-89" font-family="Helvetica,sans-Serif" font-size="10.00">model.TurtleMultiple.get</text>
<text text-anchor="middle" x="686" y="-78" font-family="Helvetica,sans-Serif" font-size="10.00">Stream</text>
</a>
</g>
</g>
<!-- Node4&#45;&gt;Node5 -->
<g id="edge4" class="edge"><title>Node4&#45;&gt;Node5</title>
<path fill="none" stroke="midnightblue" d="M576.665,-86C587.857,-86 599.289,-86 610.331,-86"/>
<polygon fill="midnightblue" stroke="midnightblue" points="610.343,-89.5001 620.343,-86 610.343,-82.5001 610.343,-89.5001"/>
</g>
<!-- Node6 -->
<g id="node6" class="node"><title>Node6</title>
<g id="a_node6"><a xlink:href="../../d9/dea/classmodel_1_1_turtle_multiple.html#a47e5a06bab25ead16ef3098a4257aa4b" target="_top" xlink:title="model.TurtleMultiple.set\lLastTurtle">
<polygon fill="white" stroke="black" points="788,-71 788,-101 918,-101 918,-71 788,-71"/>
<text text-anchor="start" x="796" y="-89" font-family="Helvetica,sans-Serif" font-size="10.00">model.TurtleMultiple.set</text>
<text text-anchor="middle" x="853" y="-78" font-family="Helvetica,sans-Serif" font-size="10.00">LastTurtle</text>
</a>
</g>
</g>
<!-- Node5&#45;&gt;Node6 -->
<g id="edge5" class="edge"><title>Node5&#45;&gt;Node6</title>
<path fill="none" stroke="midnightblue" d="M751.739,-86C760.305,-86 769.138,-86 777.847,-86"/>
<polygon fill="midnightblue" stroke="midnightblue" points="777.989,-89.5001 787.989,-86 777.989,-82.5001 777.989,-89.5001"/>
</g>
</g>
</svg>
