<?xml version="1.0" encoding="UTF-8" standalone="no"?>
<!DOCTYPE svg PUBLIC "-//W3C//DTD SVG 1.1//EN"
 "http://www.w3.org/Graphics/SVG/1.1/DTD/svg11.dtd">
<!-- Generated by graphviz version 2.36.0 (20140111.2315)
 -->
<!-- Title: parser.commands.Ask.createNewActiveStack Pages: 1 -->
<svg width="384pt" height="104pt"
 viewBox="0.00 0.00 384.00 104.00" xmlns="http://www.w3.org/2000/svg" xmlns:xlink="http://www.w3.org/1999/xlink">
<g id="graph0" class="graph" transform="scale(1 1) rotate(0) translate(4 100)">
<title>parser.commands.Ask.createNewActiveStack</title>
<polygon fill="white" stroke="none" points="-4,4 -4,-100 380,-100 380,4 -4,4"/>
<!-- Node1 -->
<g id="node1" class="node"><title>Node1</title>
<polygon fill="#bfbfbf" stroke="black" points="0,-33 0,-63 158,-63 158,-33 0,-33"/>
<text text-anchor="start" x="8" y="-51" font-family="Helvetica,sans-Serif" font-size="10.00">parser.commands.Ask.create</text>
<text text-anchor="middle" x="79" y="-40" font-family="Helvetica,sans-Serif" font-size="10.00">NewActiveStack</text>
</g>
<!-- Node2 -->
<g id="node2" class="node"><title>Node2</title>
<g id="a_node2"><a xlink:href="../../da/d96/classparser_1_1nodes_1_1_syntax_node.html#a21b459bd103a7f1f3a1a5f52bb3b3132" target="_top" xlink:title="parser.nodes.SyntaxNode.execute">
<polygon fill="white" stroke="black" points="194,-76.5 194,-95.5 376,-95.5 376,-76.5 194,-76.5"/>
<text text-anchor="middle" x="285" y="-83.5" font-family="Helvetica,sans-Serif" font-size="10.00">parser.nodes.SyntaxNode.execute</text>
</a>
</g>
</g>
<!-- Node1&#45;&gt;Node2 -->
<g id="edge1" class="edge"><title>Node1&#45;&gt;Node2</title>
<path fill="none" stroke="midnightblue" d="M158.288,-62.5831C179.627,-66.558 202.432,-70.806 222.679,-74.5775"/>
<polygon fill="midnightblue" stroke="midnightblue" points="222.231,-78.0542 232.703,-76.4447 223.513,-71.1726 222.231,-78.0542"/>
</g>
<!-- Node3 -->
<g id="node3" class="node"><title>Node3</title>
<g id="a_node3"><a xlink:href="../../d4/d1c/classparser_1_1nodes_1_1_list_node.html#a20dc3121f383968aade0535bbe80b015" target="_top" xlink:title="parser.nodes.ListNode.getNode">
<polygon fill="white" stroke="black" points="201,-38.5 201,-57.5 369,-57.5 369,-38.5 201,-38.5"/>
<text text-anchor="middle" x="285" y="-45.5" font-family="Helvetica,sans-Serif" font-size="10.00">parser.nodes.ListNode.getNode</text>
</a>
</g>
</g>
<!-- Node1&#45;&gt;Node3 -->
<g id="edge2" class="edge"><title>Node1&#45;&gt;Node3</title>
<path fill="none" stroke="midnightblue" d="M158.288,-48C168.847,-48 179.764,-48 190.553,-48"/>
<polygon fill="midnightblue" stroke="midnightblue" points="190.842,-51.5001 200.842,-48 190.841,-44.5001 190.842,-51.5001"/>
</g>
<!-- Node4 -->
<g id="node4" class="node"><title>Node4</title>
<g id="a_node4"><a xlink:href="../../d4/d1c/classparser_1_1nodes_1_1_list_node.html#a06d95a825392910e4f1744c706c658df" target="_top" xlink:title="parser.nodes.ListNode.getSize">
<polygon fill="white" stroke="black" points="203.5,-0.5 203.5,-19.5 366.5,-19.5 366.5,-0.5 203.5,-0.5"/>
<text text-anchor="middle" x="285" y="-7.5" font-family="Helvetica,sans-Serif" font-size="10.00">parser.nodes.ListNode.getSize</text>
</a>
</g>
</g>
<!-- Node1&#45;&gt;Node4 -->
<g id="edge3" class="edge"><title>Node1&#45;&gt;Node4</title>
<path fill="none" stroke="midnightblue" d="M158.288,-33.4169C179.627,-29.442 202.432,-25.194 222.679,-21.4225"/>
<polygon fill="midnightblue" stroke="midnightblue" points="223.513,-24.8274 232.703,-19.5553 222.231,-17.9458 223.513,-24.8274"/>
</g>
</g>
</svg>
