<?xml version="1.0" encoding="UTF-8" standalone="no"?>
<!DOCTYPE svg PUBLIC "-//W3C//DTD SVG 1.1//EN"
 "http://www.w3.org/Graphics/SVG/1.1/DTD/svg11.dtd">
<!-- Generated by graphviz version 2.36.0 (20140111.2315)
 -->
<!-- Title: model.TurtleUpdate.isStamp Pages: 1 -->
<svg width="1560pt" height="164pt"
 viewBox="0.00 0.00 1560.00 164.00" xmlns="http://www.w3.org/2000/svg" xmlns:xlink="http://www.w3.org/1999/xlink">
<g id="graph0" class="graph" transform="scale(1 1) rotate(0) translate(4 160)">
<title>model.TurtleUpdate.isStamp</title>
<polygon fill="white" stroke="none" points="-4,4 -4,-160 1556,-160 1556,4 -4,4"/>
<!-- Node1 -->
<g id="node1" class="node"><title>Node1</title>
<polygon fill="#bfbfbf" stroke="black" points="0.5,-38.5 0.5,-57.5 153.5,-57.5 153.5,-38.5 0.5,-38.5"/>
<text text-anchor="middle" x="77" y="-45.5" font-family="Helvetica,sans-Serif" font-size="10.00">model.TurtleUpdate.isStamp</text>
</g>
<!-- Node2 -->
<g id="node2" class="node"><title>Node2</title>
<g id="a_node2"><a xlink:href="../../dd/ddc/classview_1_1turtle_1_1_turtle_image.html#afd9abc603b052b7c9c14108400109917" target="_top" xlink:title="view.turtle.TurtleImage.process\lUpdate">
<polygon fill="white" stroke="black" points="190,-33 190,-63 354,-63 354,-33 190,-33"/>
<text text-anchor="start" x="198" y="-51" font-family="Helvetica,sans-Serif" font-size="10.00">view.turtle.TurtleImage.process</text>
<text text-anchor="middle" x="272" y="-40" font-family="Helvetica,sans-Serif" font-size="10.00">Update</text>
</a>
</g>
</g>
<!-- Node1&#45;&gt;Node2 -->
<g id="edge1" class="edge"><title>Node1&#45;&gt;Node2</title>
<path fill="none" stroke="midnightblue" d="M163.791,-48C172.426,-48 181.177,-48 189.762,-48"/>
<polygon fill="midnightblue" stroke="midnightblue" points="163.725,-44.5001 153.725,-48 163.725,-51.5001 163.725,-44.5001"/>
</g>
<!-- Node3 -->
<g id="node3" class="node"><title>Node3</title>
<g id="a_node3"><a xlink:href="../../dd/ddc/classview_1_1turtle_1_1_turtle_image.html#a68a832da6825e57061dbc49b30098291" target="_top" xlink:title="view.turtle.TurtleImage.pop\lUpdate">
<polygon fill="white" stroke="black" points="390,-77 390,-107 534,-107 534,-77 390,-77"/>
<text text-anchor="start" x="398" y="-95" font-family="Helvetica,sans-Serif" font-size="10.00">view.turtle.TurtleImage.pop</text>
<text text-anchor="middle" x="462" y="-84" font-family="Helvetica,sans-Serif" font-size="10.00">Update</text>
</a>
</g>
</g>
<!-- Node2&#45;&gt;Node3 -->
<g id="edge2" class="edge"><title>Node2&#45;&gt;Node3</title>
<path fill="none" stroke="midnightblue" d="M347.247,-65.3769C363.63,-69.2112 380.851,-73.2418 396.797,-76.9738"/>
<polygon fill="midnightblue" stroke="midnightblue" points="347.708,-61.8902 337.173,-63.0192 346.112,-68.7061 347.708,-61.8902"/>
</g>
<!-- Node4 -->
<g id="node4" class="node"><title>Node4</title>
<g id="a_node4"><a xlink:href="../../d5/d4b/classview_1_1components_1_1_turtle_window.html#a84744ff6c257318689fc0e014350fb05" target="_top" xlink:title="view.components.TurtleWindow.step\lDebug">
<polygon fill="white" stroke="black" points="582,-126 582,-156 768,-156 768,-126 582,-126"/>
<text text-anchor="start" x="590" y="-144" font-family="Helvetica,sans-Serif" font-size="10.00">view.components.TurtleWindow.step</text>
<text text-anchor="middle" x="675" y="-133" font-family="Helvetica,sans-Serif" font-size="10.00">Debug</text>
</a>
</g>
</g>
<!-- Node3&#45;&gt;Node4 -->
<g id="edge3" class="edge"><title>Node3&#45;&gt;Node4</title>
<path fill="none" stroke="midnightblue" d="M537.629,-109.331C561.055,-114.771 586.709,-120.729 609.382,-125.994"/>
<polygon fill="midnightblue" stroke="midnightblue" points="538.273,-105.887 527.741,-107.035 536.69,-112.706 538.273,-105.887"/>
</g>
<!-- Node9 -->
<g id="node9" class="node"><title>Node9</title>
<g id="a_node9"><a xlink:href="../../dd/ddc/classview_1_1turtle_1_1_turtle_image.html#a02651da4da9b4b48bd91656f734ccb03" target="_top" xlink:title="view.turtle.TurtleImage.add\lUpdate">
<polygon fill="white" stroke="black" points="603,-77 603,-107 747,-107 747,-77 603,-77"/>
<text text-anchor="start" x="611" y="-95" font-family="Helvetica,sans-Serif" font-size="10.00">view.turtle.TurtleImage.add</text>
<text text-anchor="middle" x="675" y="-84" font-family="Helvetica,sans-Serif" font-size="10.00">Update</text>
</a>
</g>
</g>
<!-- Node3&#45;&gt;Node9 -->
<g id="edge8" class="edge"><title>Node3&#45;&gt;Node9</title>
<path fill="none" stroke="midnightblue" d="M544.398,-92C563.656,-92 584.045,-92 602.809,-92"/>
<polygon fill="midnightblue" stroke="midnightblue" points="544.141,-88.5001 534.141,-92 544.141,-95.5001 544.141,-88.5001"/>
</g>
<!-- Node10 -->
<g id="node10" class="node"><title>Node10</title>
<g id="a_node10"><a xlink:href="../../dd/ddc/classview_1_1turtle_1_1_turtle_image.html#a958417ed4561c0b910f80944a5110ec7" target="_top" xlink:title="view.turtle.TurtleImage.animatedMove">
<polygon fill="white" stroke="black" points="576.5,-38.5 576.5,-57.5 773.5,-57.5 773.5,-38.5 576.5,-38.5"/>
<text text-anchor="middle" x="675" y="-45.5" font-family="Helvetica,sans-Serif" font-size="10.00">view.turtle.TurtleImage.animatedMove</text>
</a>
</g>
</g>
<!-- Node3&#45;&gt;Node10 -->
<g id="edge9" class="edge"><title>Node3&#45;&gt;Node10</title>
<path fill="none" stroke="midnightblue" d="M534.875,-74.6993C546.593,-72.0248 558.619,-69.3677 570,-67 585.903,-63.6915 603.24,-60.3998 619.118,-57.5088"/>
<polygon fill="midnightblue" stroke="midnightblue" points="534.084,-71.2896 525.124,-76.944 535.655,-78.1112 534.084,-71.2896"/>
</g>
<!-- Node11 -->
<g id="node11" class="node"><title>Node11</title>
<g id="a_node11"><a xlink:href="../../dd/ddc/classview_1_1turtle_1_1_turtle_image.html#aca0a62f113534161f725da472e1f4d9f" target="_top" xlink:title="view.turtle.TurtleImage.unanimatedMove">
<polygon fill="white" stroke="black" points="570.5,-0.5 570.5,-19.5 779.5,-19.5 779.5,-0.5 570.5,-0.5"/>
<text text-anchor="middle" x="675" y="-7.5" font-family="Helvetica,sans-Serif" font-size="10.00">view.turtle.TurtleImage.unanimatedMove</text>
</a>
</g>
</g>
<!-- Node3&#45;&gt;Node11 -->
<g id="edge11" class="edge"><title>Node3&#45;&gt;Node11</title>
<path fill="none" stroke="midnightblue" d="M491.968,-71.1398C512.734,-57.1618 541.893,-39.4645 570,-29 580.407,-25.1255 591.703,-22.0211 602.887,-19.5393"/>
<polygon fill="midnightblue" stroke="midnightblue" points="489.878,-68.3291 483.609,-76.8707 493.836,-74.1025 489.878,-68.3291"/>
</g>
<!-- Node5 -->
<g id="node5" class="node"><title>Node5</title>
<g id="a_node5"><a xlink:href="../../de/d30/classview_1_1components_1_1_s_logo_workspace.html#ad2141a5cca8101b3d22b2cf7b7473281" target="_top" xlink:title="view.components.SLogoWorkspace.run\lDebugger">
<polygon fill="white" stroke="black" points="816,-126 816,-156 1018,-156 1018,-126 816,-126"/>
<text text-anchor="start" x="824" y="-144" font-family="Helvetica,sans-Serif" font-size="10.00">view.components.SLogoWorkspace.run</text>
<text text-anchor="middle" x="917" y="-133" font-family="Helvetica,sans-Serif" font-size="10.00">Debugger</text>
</a>
</g>
</g>
<!-- Node4&#45;&gt;Node5 -->
<g id="edge4" class="edge"><title>Node4&#45;&gt;Node5</title>
<path fill="none" stroke="midnightblue" d="M778.424,-141C790.795,-141 803.421,-141 815.761,-141"/>
<polygon fill="midnightblue" stroke="midnightblue" points="778.104,-137.5 768.104,-141 778.104,-144.5 778.104,-137.5"/>
</g>
<!-- Node6 -->
<g id="node6" class="node"><title>Node6</title>
<g id="a_node6"><a xlink:href="../../d3/dbe/classview_1_1_view.html#af4860035310eeafc92cf78cbbc53290a" target="_top" xlink:title="view.View.runDebugger">
<polygon fill="white" stroke="black" points="1054,-131.5 1054,-150.5 1180,-150.5 1180,-131.5 1054,-131.5"/>
<text text-anchor="middle" x="1117" y="-138.5" font-family="Helvetica,sans-Serif" font-size="10.00">view.View.runDebugger</text>
</a>
</g>
</g>
<!-- Node5&#45;&gt;Node6 -->
<g id="edge5" class="edge"><title>Node5&#45;&gt;Node6</title>
<path fill="none" stroke="midnightblue" d="M1028.42,-141C1037.12,-141 1045.71,-141 1053.9,-141"/>
<polygon fill="midnightblue" stroke="midnightblue" points="1028.16,-137.5 1018.16,-141 1028.16,-144.5 1028.16,-137.5"/>
</g>
<!-- Node7 -->
<g id="node7" class="node"><title>Node7</title>
<g id="a_node7"><a xlink:href="../../d4/d6b/classview_1_1components_1_1_debugger_port.html#a6dd594b7c6572e0f4ef2ab7d8845f2ce" target="_top" xlink:title="view.components.Debugger\lPort.stepDebug">
<polygon fill="white" stroke="black" points="1216.5,-126 1216.5,-156 1365.5,-156 1365.5,-126 1216.5,-126"/>
<text text-anchor="start" x="1224.5" y="-144" font-family="Helvetica,sans-Serif" font-size="10.00">view.components.Debugger</text>
<text text-anchor="middle" x="1291" y="-133" font-family="Helvetica,sans-Serif" font-size="10.00">Port.stepDebug</text>
</a>
</g>
</g>
<!-- Node6&#45;&gt;Node7 -->
<g id="edge6" class="edge"><title>Node6&#45;&gt;Node7</title>
<path fill="none" stroke="midnightblue" d="M1190.13,-141C1198.78,-141 1207.61,-141 1216.28,-141"/>
<polygon fill="midnightblue" stroke="midnightblue" points="1190.1,-137.5 1180.1,-141 1190.1,-144.5 1190.1,-137.5"/>
</g>
<!-- Node8 -->
<g id="node8" class="node"><title>Node8</title>
<g id="a_node8"><a xlink:href="../../d4/d6b/classview_1_1components_1_1_debugger_port.html#a7055f8fe86c7e1078dc9909a7f000b8b" target="_top" xlink:title="view.components.Debugger\lPort.DebuggerPort">
<polygon fill="white" stroke="black" points="1402.5,-126 1402.5,-156 1551.5,-156 1551.5,-126 1402.5,-126"/>
<text text-anchor="start" x="1410.5" y="-144" font-family="Helvetica,sans-Serif" font-size="10.00">view.components.Debugger</text>
<text text-anchor="middle" x="1477" y="-133" font-family="Helvetica,sans-Serif" font-size="10.00">Port.DebuggerPort</text>
</a>
</g>
</g>
<!-- Node7&#45;&gt;Node8 -->
<g id="edge7" class="edge"><title>Node7&#45;&gt;Node8</title>
<path fill="none" stroke="midnightblue" d="M1375.53,-141C1384.46,-141 1393.5,-141 1402.3,-141"/>
<polygon fill="midnightblue" stroke="midnightblue" points="1375.51,-137.5 1365.51,-141 1375.51,-144.5 1375.51,-137.5"/>
</g>
<!-- Node10&#45;&gt;Node2 -->
<g id="edge10" class="edge"><title>Node10&#45;&gt;Node2</title>
<path fill="none" stroke="midnightblue" d="M566.203,-48C499.485,-48 415.208,-48 354.148,-48"/>
<polygon fill="midnightblue" stroke="midnightblue" points="566.333,-51.5001 576.333,-48 566.333,-44.5001 566.333,-51.5001"/>
</g>
<!-- Node11&#45;&gt;Node2 -->
<g id="edge12" class="edge"><title>Node11&#45;&gt;Node2</title>
<path fill="none" stroke="midnightblue" d="M563.338,-20.4867C497.086,-26.7649 414.337,-34.6065 354.148,-40.3101"/>
<polygon fill="midnightblue" stroke="midnightblue" points="563.78,-23.9606 573.405,-19.5327 563.12,-16.9918 563.78,-23.9606"/>
</g>
</g>
</svg>
