<?xml version="1.0" encoding="UTF-8" standalone="no"?>
<!DOCTYPE svg PUBLIC "-//W3C//DTD SVG 1.1//EN"
 "http://www.w3.org/Graphics/SVG/1.1/DTD/svg11.dtd">
<!-- Generated by graphviz version 2.36.0 (20140111.2315)
 -->
<!-- Title: parser.commands.LoopingNode.runAndExitScope Pages: 1 -->
<svg width="422pt" height="66pt"
 viewBox="0.00 0.00 422.00 66.00" xmlns="http://www.w3.org/2000/svg" xmlns:xlink="http://www.w3.org/1999/xlink">
<g id="graph0" class="graph" transform="scale(1 1) rotate(0) translate(4 62)">
<title>parser.commands.LoopingNode.runAndExitScope</title>
<polygon fill="white" stroke="none" points="-4,4 -4,-62 418,-62 418,4 -4,4"/>
<!-- Node1 -->
<g id="node1" class="node"><title>Node1</title>
<polygon fill="#bfbfbf" stroke="black" points="0,-14 0,-44 188,-44 188,-14 0,-14"/>
<text text-anchor="start" x="8" y="-32" font-family="Helvetica,sans-Serif" font-size="10.00">parser.commands.LoopingNode.run</text>
<text text-anchor="middle" x="94" y="-21" font-family="Helvetica,sans-Serif" font-size="10.00">AndExitScope</text>
</g>
<!-- Node2 -->
<g id="node2" class="node"><title>Node2</title>
<g id="a_node2"><a xlink:href="../../d6/dde/classparser_1_1commands_1_1_do_times.html#a9613af1cca29470bfbab7bc5d6a651f5" target="_top" xlink:title="parser.commands.DoTimes.execute">
<polygon fill="white" stroke="black" points="224,-38.5 224,-57.5 414,-57.5 414,-38.5 224,-38.5"/>
<text text-anchor="middle" x="319" y="-45.5" font-family="Helvetica,sans-Serif" font-size="10.00">parser.commands.DoTimes.execute</text>
</a>
</g>
</g>
<!-- Node1&#45;&gt;Node2 -->
<g id="edge1" class="edge"><title>Node1&#45;&gt;Node2</title>
<path fill="none" stroke="midnightblue" d="M198.479,-37.8166C206.876,-38.532 215.333,-39.2526 223.66,-39.9621"/>
<polygon fill="midnightblue" stroke="midnightblue" points="198.541,-34.3093 188.28,-36.9476 197.947,-41.284 198.541,-34.3093"/>
</g>
<!-- Node3 -->
<g id="node3" class="node"><title>Node3</title>
<g id="a_node3"><a xlink:href="../../d3/d16/classparser_1_1commands_1_1_for.html#a33148ee0a657891f52fdc49f5f820dde" target="_top" xlink:title="parser.commands.For.execute">
<polygon fill="white" stroke="black" points="238,-0.5 238,-19.5 400,-19.5 400,-0.5 238,-0.5"/>
<text text-anchor="middle" x="319" y="-7.5" font-family="Helvetica,sans-Serif" font-size="10.00">parser.commands.For.execute</text>
</a>
</g>
</g>
<!-- Node1&#45;&gt;Node3 -->
<g id="edge2" class="edge"><title>Node1&#45;&gt;Node3</title>
<path fill="none" stroke="midnightblue" d="M198.372,-20.1925C211.624,-19.0634 225.03,-17.9212 237.836,-16.8301"/>
<polygon fill="midnightblue" stroke="midnightblue" points="197.947,-16.716 188.28,-21.0524 198.541,-23.6907 197.947,-16.716"/>
</g>
</g>
</svg>
