<?xml version="1.0" encoding="UTF-8" standalone="no"?>
<!DOCTYPE svg PUBLIC "-//W3C//DTD SVG 1.1//EN"
 "http://www.w3.org/Graphics/SVG/1.1/DTD/svg11.dtd">
<!-- Generated by graphviz version 2.36.0 (20140111.2315)
 -->
<!-- Title: model.TurtleUpdate.TurtleUpdate Pages: 1 -->
<svg width="366pt" height="344pt"
 viewBox="0.00 0.00 366.00 344.00" xmlns="http://www.w3.org/2000/svg" xmlns:xlink="http://www.w3.org/1999/xlink">
<g id="graph0" class="graph" transform="scale(1 1) rotate(0) translate(4 340)">
<title>model.TurtleUpdate.TurtleUpdate</title>
<polygon fill="white" stroke="none" points="-4,4 -4,-340 362,-340 362,4 -4,4"/>
<!-- Node1 -->
<g id="node1" class="node"><title>Node1</title>
<polygon fill="#bfbfbf" stroke="black" points="0.5,-159 0.5,-189 139.5,-189 139.5,-159 0.5,-159"/>
<text text-anchor="start" x="8.5" y="-177" font-family="Helvetica,sans-Serif" font-size="10.00">model.TurtleUpdate.Turtle</text>
<text text-anchor="middle" x="70" y="-166" font-family="Helvetica,sans-Serif" font-size="10.00">Update</text>
</g>
<!-- Node2 -->
<g id="node2" class="node"><title>Node2</title>
<g id="a_node2"><a xlink:href="../../da/d88/classmodel_1_1_turtle_single.html#ae9d71b1ca26c367f13a28142da141bea" target="_top" xlink:title="model.TurtleSingle.getAngle">
<polygon fill="white" stroke="black" points="192,-316.5 192,-335.5 342,-335.5 342,-316.5 192,-316.5"/>
<text text-anchor="middle" x="267" y="-323.5" font-family="Helvetica,sans-Serif" font-size="10.00">model.TurtleSingle.getAngle</text>
</a>
</g>
</g>
<!-- Node1&#45;&gt;Node2 -->
<g id="edge1" class="edge"><title>Node1&#45;&gt;Node2</title>
<path fill="none" stroke="midnightblue" d="M78.4067,-189.198C92.9388,-217.299 128.003,-277.223 176,-307 179.414,-309.118 183.026,-311.003 186.764,-312.681"/>
<polygon fill="midnightblue" stroke="midnightblue" points="185.688,-316.019 196.275,-316.438 188.26,-309.508 185.688,-316.019"/>
</g>
<!-- Node3 -->
<g id="node3" class="node"><title>Node3</title>
<g id="a_node3"><a xlink:href="../../da/d88/classmodel_1_1_turtle_single.html#a7382d43046c8a2d336efb4bec032e89f" target="_top" xlink:title="model.TurtleSingle.getCoordinates">
<polygon fill="white" stroke="black" points="176.5,-278.5 176.5,-297.5 357.5,-297.5 357.5,-278.5 176.5,-278.5"/>
<text text-anchor="middle" x="267" y="-285.5" font-family="Helvetica,sans-Serif" font-size="10.00">model.TurtleSingle.getCoordinates</text>
</a>
</g>
</g>
<!-- Node1&#45;&gt;Node3 -->
<g id="edge2" class="edge"><title>Node1&#45;&gt;Node3</title>
<path fill="none" stroke="midnightblue" d="M83.145,-189.186C101.085,-210.524 136.803,-249.003 176,-269 180.801,-271.449 185.9,-273.583 191.136,-275.442"/>
<polygon fill="midnightblue" stroke="midnightblue" points="190.081,-278.779 200.672,-278.499 192.218,-272.113 190.081,-278.779"/>
</g>
<!-- Node4 -->
<g id="node4" class="node"><title>Node4</title>
<g id="a_node4"><a xlink:href="../../da/d88/classmodel_1_1_turtle_single.html#a15586189de16059bf58d62933993dc56" target="_top" xlink:title="model.TurtleSingle.getHidden">
<polygon fill="white" stroke="black" points="188.5,-240.5 188.5,-259.5 345.5,-259.5 345.5,-240.5 188.5,-240.5"/>
<text text-anchor="middle" x="267" y="-247.5" font-family="Helvetica,sans-Serif" font-size="10.00">model.TurtleSingle.getHidden</text>
</a>
</g>
</g>
<!-- Node1&#45;&gt;Node4 -->
<g id="edge3" class="edge"><title>Node1&#45;&gt;Node4</title>
<path fill="none" stroke="midnightblue" d="M94.2583,-189.186C114.944,-202.057 146.413,-220.109 176,-231 183.271,-233.676 191.018,-236.021 198.8,-238.063"/>
<polygon fill="midnightblue" stroke="midnightblue" points="198.096,-241.494 208.643,-240.49 199.772,-234.697 198.096,-241.494"/>
</g>
<!-- Node5 -->
<g id="node5" class="node"><title>Node5</title>
<g id="a_node5"><a xlink:href="../../da/d88/classmodel_1_1_turtle_single.html#a2a2d4c76b711eabbf4132222c6f0c8aa" target="_top" xlink:title="model.TurtleSingle.getID">
<polygon fill="white" stroke="black" points="200.5,-202.5 200.5,-221.5 333.5,-221.5 333.5,-202.5 200.5,-202.5"/>
<text text-anchor="middle" x="267" y="-209.5" font-family="Helvetica,sans-Serif" font-size="10.00">model.TurtleSingle.getID</text>
</a>
</g>
</g>
<!-- Node1&#45;&gt;Node5 -->
<g id="edge4" class="edge"><title>Node1&#45;&gt;Node5</title>
<path fill="none" stroke="midnightblue" d="M139.75,-187.397C161.806,-191.695 186.017,-196.414 207.286,-200.558"/>
<polygon fill="midnightblue" stroke="midnightblue" points="206.665,-204.003 217.15,-202.481 208.004,-197.132 206.665,-204.003"/>
</g>
<!-- Node6 -->
<g id="node6" class="node"><title>Node6</title>
<g id="a_node6"><a xlink:href="../../da/d88/classmodel_1_1_turtle_single.html#aa9ab15fdb72b7717c3ad605a608725bb" target="_top" xlink:title="model.TurtleSingle.getInactive">
<polygon fill="white" stroke="black" points="187,-164.5 187,-183.5 347,-183.5 347,-164.5 187,-164.5"/>
<text text-anchor="middle" x="267" y="-171.5" font-family="Helvetica,sans-Serif" font-size="10.00">model.TurtleSingle.getInactive</text>
</a>
</g>
</g>
<!-- Node1&#45;&gt;Node6 -->
<g id="edge5" class="edge"><title>Node1&#45;&gt;Node6</title>
<path fill="none" stroke="midnightblue" d="M139.75,-174C151.657,-174 164.193,-174 176.555,-174"/>
<polygon fill="midnightblue" stroke="midnightblue" points="176.88,-177.5 186.88,-174 176.88,-170.5 176.88,-177.5"/>
</g>
<!-- Node7 -->
<g id="node7" class="node"><title>Node7</title>
<g id="a_node7"><a xlink:href="../../da/d88/classmodel_1_1_turtle_single.html#afb16453a74145745be372320a0dae996" target="_top" xlink:title="model.TurtleSingle.getOld\lCoordinates">
<polygon fill="white" stroke="black" points="197.5,-115 197.5,-145 336.5,-145 336.5,-115 197.5,-115"/>
<text text-anchor="start" x="205.5" y="-133" font-family="Helvetica,sans-Serif" font-size="10.00">model.TurtleSingle.getOld</text>
<text text-anchor="middle" x="267" y="-122" font-family="Helvetica,sans-Serif" font-size="10.00">Coordinates</text>
</a>
</g>
</g>
<!-- Node1&#45;&gt;Node7 -->
<g id="edge6" class="edge"><title>Node1&#45;&gt;Node7</title>
<path fill="none" stroke="midnightblue" d="M137.563,-158.981C154.256,-155.214 172.3,-151.143 189.438,-147.276"/>
<polygon fill="midnightblue" stroke="midnightblue" points="190.422,-150.642 199.407,-145.026 188.881,-143.813 190.422,-150.642"/>
</g>
<!-- Node8 -->
<g id="node8" class="node"><title>Node8</title>
<g id="a_node8"><a xlink:href="../../da/d88/classmodel_1_1_turtle_single.html#aae1eba12f574dda5fa693489255c2ae6" target="_top" xlink:title="model.TurtleSingle.getPenUp">
<polygon fill="white" stroke="black" points="189.5,-76.5 189.5,-95.5 344.5,-95.5 344.5,-76.5 189.5,-76.5"/>
<text text-anchor="middle" x="267" y="-83.5" font-family="Helvetica,sans-Serif" font-size="10.00">model.TurtleSingle.getPenUp</text>
</a>
</g>
</g>
<!-- Node1&#45;&gt;Node8 -->
<g id="edge7" class="edge"><title>Node1&#45;&gt;Node8</title>
<path fill="none" stroke="midnightblue" d="M89.9482,-158.727C110.121,-143.213 143.549,-119.593 176,-106 183.162,-103 190.843,-100.418 198.587,-98.2048"/>
<polygon fill="midnightblue" stroke="midnightblue" points="199.633,-101.548 208.396,-95.5939 197.833,-94.7837 199.633,-101.548"/>
</g>
<!-- Node9 -->
<g id="node9" class="node"><title>Node9</title>
<g id="a_node9"><a xlink:href="../../da/d88/classmodel_1_1_turtle_single.html#aa1712fa8725f2fcb0863633576d3d645" target="_top" xlink:title="model.TurtleSingle.getShapeID">
<polygon fill="white" stroke="black" points="185,-38.5 185,-57.5 349,-57.5 349,-38.5 185,-38.5"/>
<text text-anchor="middle" x="267" y="-45.5" font-family="Helvetica,sans-Serif" font-size="10.00">model.TurtleSingle.getShapeID</text>
</a>
</g>
</g>
<!-- Node1&#45;&gt;Node9 -->
<g id="edge8" class="edge"><title>Node1&#45;&gt;Node9</title>
<path fill="none" stroke="midnightblue" d="M81.2798,-158.832C98.1356,-135.225 134.007,-90.0199 176,-67 180.24,-64.6755 184.737,-62.6351 189.37,-60.844"/>
<polygon fill="midnightblue" stroke="midnightblue" points="190.722,-64.0798 199.032,-57.5068 188.437,-57.4634 190.722,-64.0798"/>
</g>
<!-- Node10 -->
<g id="node10" class="node"><title>Node10</title>
<g id="a_node10"><a xlink:href="../../da/d88/classmodel_1_1_turtle_single.html#ae93d639ded21a8fc440f27b37e408d8f" target="_top" xlink:title="model.TurtleSingle.getStamp">
<polygon fill="white" stroke="black" points="189.5,-0.5 189.5,-19.5 344.5,-19.5 344.5,-0.5 189.5,-0.5"/>
<text text-anchor="middle" x="267" y="-7.5" font-family="Helvetica,sans-Serif" font-size="10.00">model.TurtleSingle.getStamp</text>
</a>
</g>
</g>
<!-- Node1&#45;&gt;Node10 -->
<g id="edge9" class="edge"><title>Node1&#45;&gt;Node10</title>
<path fill="none" stroke="midnightblue" d="M77.3865,-158.848C90.8554,-128.865 125.173,-62.0141 176,-29 179.13,-26.9666 182.44,-25.1462 185.869,-23.5168"/>
<polygon fill="midnightblue" stroke="midnightblue" points="187.301,-26.7117 195.185,-19.6345 184.608,-20.2502 187.301,-26.7117"/>
</g>
</g>
</svg>
