<?xml version="1.0" encoding="UTF-8" standalone="no"?>
<!DOCTYPE svg PUBLIC "-//W3C//DTD SVG 1.1//EN"
 "http://www.w3.org/Graphics/SVG/1.1/DTD/svg11.dtd">
<!-- Generated by graphviz version 2.36.0 (20140111.2315)
 -->
<!-- Title: parser.commands.LoopingNode.runAndExitScope Pages: 1 -->
<svg width="664pt" height="38pt"
 viewBox="0.00 0.00 664.00 38.00" xmlns="http://www.w3.org/2000/svg" xmlns:xlink="http://www.w3.org/1999/xlink">
<g id="graph0" class="graph" transform="scale(1 1) rotate(0) translate(4 34)">
<title>parser.commands.LoopingNode.runAndExitScope</title>
<polygon fill="white" stroke="none" points="-4,4 -4,-34 660,-34 660,4 -4,4"/>
<!-- Node1 -->
<g id="node1" class="node"><title>Node1</title>
<polygon fill="#bfbfbf" stroke="black" points="0,-0 0,-30 188,-30 188,-0 0,-0"/>
<text text-anchor="start" x="8" y="-18" font-family="Helvetica,sans-Serif" font-size="10.00">parser.commands.LoopingNode.run</text>
<text text-anchor="middle" x="94" y="-7" font-family="Helvetica,sans-Serif" font-size="10.00">AndExitScope</text>
</g>
<!-- Node2 -->
<g id="node2" class="node"><title>Node2</title>
<g id="a_node2"><a xlink:href="../../db/dce/classparser_1_1commands_1_1_looping_node.html#a0d0bf61ea4e3002410b978a49521aea6" target="_top" xlink:title="parser.commands.LoopingNode.runCode">
<polygon fill="white" stroke="black" points="224.5,-5.5 224.5,-24.5 437.5,-24.5 437.5,-5.5 224.5,-5.5"/>
<text text-anchor="middle" x="331" y="-12.5" font-family="Helvetica,sans-Serif" font-size="10.00">parser.commands.LoopingNode.runCode</text>
</a>
</g>
</g>
<!-- Node1&#45;&gt;Node2 -->
<g id="edge1" class="edge"><title>Node1&#45;&gt;Node2</title>
<path fill="none" stroke="midnightblue" d="M188.216,-15C196.781,-15 205.527,-15 214.26,-15"/>
<polygon fill="midnightblue" stroke="midnightblue" points="214.494,-18.5001 224.494,-15 214.494,-11.5001 214.494,-18.5001"/>
</g>
<!-- Node3 -->
<g id="node3" class="node"><title>Node3</title>
<g id="a_node3"><a xlink:href="../../da/d96/classparser_1_1nodes_1_1_syntax_node.html#a21b459bd103a7f1f3a1a5f52bb3b3132" target="_top" xlink:title="parser.nodes.SyntaxNode.execute">
<polygon fill="white" stroke="black" points="474,-5.5 474,-24.5 656,-24.5 656,-5.5 474,-5.5"/>
<text text-anchor="middle" x="565" y="-12.5" font-family="Helvetica,sans-Serif" font-size="10.00">parser.nodes.SyntaxNode.execute</text>
</a>
</g>
</g>
<!-- Node2&#45;&gt;Node3 -->
<g id="edge2" class="edge"><title>Node2&#45;&gt;Node3</title>
<path fill="none" stroke="midnightblue" d="M437.816,-15C446.492,-15 455.244,-15 463.876,-15"/>
<polygon fill="midnightblue" stroke="midnightblue" points="463.943,-18.5001 473.943,-15 463.943,-11.5001 463.943,-18.5001"/>
</g>
</g>
</svg>
