<?xml version="1.0" encoding="UTF-8" standalone="no"?>
<!DOCTYPE svg PUBLIC "-//W3C//DTD SVG 1.1//EN"
 "http://www.w3.org/Graphics/SVG/1.1/DTD/svg11.dtd">
<!-- Generated by graphviz version 2.36.0 (20140111.2315)
 -->
<!-- Title: model.TurtleUpdate.getShapeID Pages: 1 -->
<!--zoomable 164 -->
<svg id="main" version="1.1" xmlns="http://www.w3.org/2000/svg" xmlns:xlink="http://www.w3.org/1999/xlink" xml:space="preserve" onload="init(evt)">
<style type="text/css"><![CDATA[
.edge:hover path { stroke: red; }
.edge:hover polygon { stroke: red; fill: red; }
]]></style>
<script type="text/javascript"><![CDATA[
var edges = document.getElementsByTagName('g');
if (edges && edges.length) {
  for (var i=0;i<edges.length;i++) {
    if (edges[i].id.substr(0,4)=='edge') {
      edges[i].setAttribute('class','edge');
    }
  }
}
]]></script>
        <defs>
                <circle id="rim" cx="0" cy="0" r="7"/>
                <circle id="rim2" cx="0" cy="0" r="3.5"/>
                <g id="zoomPlus">
                        <use xlink:href="#rim" fill="#404040">
                                <set attributeName="fill" to="#808080" begin="zoomplus.mouseover" end="zoomplus.mouseout"/>
                        </use>
                        <path d="M-4,0h8M0,-4v8" fill="none" stroke="white" stroke-width="1.5" pointer-events="none"/>
                </g>
                <g id="zoomMin">
                        <use xlink:href="#rim" fill="#404040">
                                <set attributeName="fill" to="#808080" begin="zoomminus.mouseover" end="zoomminus.mouseout"/>
                        </use>
                        <path d="M-4,0h8" fill="none" stroke="white" stroke-width="1.5" pointer-events="none"/>
                </g>
                <g id="dirArrow">
                        <path fill="none" stroke="white" stroke-width="1.5" d="M0,-3.0v7 M-2.5,-0.5L0,-3.0L2.5,-0.5"/>
                </g>
               <g id="resetDef">
                       <use xlink:href="#rim2" fill="#404040">
                               <set attributeName="fill" to="#808080" begin="reset.mouseover" end="reset.mouseout"/>
                       </use>
               </g>
        </defs>

<script type="text/javascript">
var viewWidth = 1576;
var viewHeight = 164;
var sectionId = 'dynsection-3';
</script>
<script xlink:href="../../svgpan.js"/>
<svg id="graph" class="graph">
<g id="viewport">
<title>model.TurtleUpdate.getShapeID</title>
<polygon fill="white" stroke="none" points="-4,4 -4,-160 1572,-160 1572,4 -4,4"/>
<!-- Node1 -->
<g id="node1" class="node"><title>Node1</title>
<polygon fill="#bfbfbf" stroke="black" points="0,-38.5 0,-57.5 170,-57.5 170,-38.5 0,-38.5"/>
<text text-anchor="middle" x="85" y="-45.5" font-family="Helvetica,sans-Serif" font-size="10.00">model.TurtleUpdate.getShapeID</text>
</g>
<!-- Node2 -->
<g id="node2" class="node"><title>Node2</title>
<g id="a_node2"><a xlink:href="../../dd/ddc/classview_1_1turtle_1_1_turtle_image.html#afd9abc603b052b7c9c14108400109917" target="_top" xlink:title="view.turtle.TurtleImage.process\lUpdate">
<polygon fill="white" stroke="black" points="206,-33 206,-63 370,-63 370,-33 206,-33"/>
<text text-anchor="start" x="214" y="-51" font-family="Helvetica,sans-Serif" font-size="10.00">view.turtle.TurtleImage.process</text>
<text text-anchor="middle" x="288" y="-40" font-family="Helvetica,sans-Serif" font-size="10.00">Update</text>
</a>
</g>
</g>
<!-- Node1&#45;&gt;Node2 -->
<g id="edge1" class="edge"><title>Node1&#45;&gt;Node2</title>
<path fill="none" stroke="midnightblue" d="M180.121,-48C188.714,-48 197.369,-48 205.834,-48"/>
<polygon fill="midnightblue" stroke="midnightblue" points="180.078,-44.5001 170.077,-48 180.077,-51.5001 180.078,-44.5001"/>
</g>
<!-- Node3 -->
<g id="node3" class="node"><title>Node3</title>
<g id="a_node3"><a xlink:href="../../dd/ddc/classview_1_1turtle_1_1_turtle_image.html#a68a832da6825e57061dbc49b30098291" target="_top" xlink:title="view.turtle.TurtleImage.pop\lUpdate">
<polygon fill="white" stroke="black" points="406,-77 406,-107 550,-107 550,-77 406,-77"/>
<text text-anchor="start" x="414" y="-95" font-family="Helvetica,sans-Serif" font-size="10.00">view.turtle.TurtleImage.pop</text>
<text text-anchor="middle" x="478" y="-84" font-family="Helvetica,sans-Serif" font-size="10.00">Update</text>
</a>
</g>
</g>
<!-- Node2&#45;&gt;Node3 -->
<g id="edge2" class="edge"><title>Node2&#45;&gt;Node3</title>
<path fill="none" stroke="midnightblue" d="M363.247,-65.3769C379.63,-69.2112 396.851,-73.2418 412.797,-76.9738"/>
<polygon fill="midnightblue" stroke="midnightblue" points="363.708,-61.8902 353.173,-63.0192 362.112,-68.7061 363.708,-61.8902"/>
</g>
<!-- Node4 -->
<g id="node4" class="node"><title>Node4</title>
<g id="a_node4"><a xlink:href="../../d5/d4b/classview_1_1components_1_1_turtle_window.html#a84744ff6c257318689fc0e014350fb05" target="_top" xlink:title="view.components.TurtleWindow.step\lDebug">
<polygon fill="white" stroke="black" points="598,-126 598,-156 784,-156 784,-126 598,-126"/>
<text text-anchor="start" x="606" y="-144" font-family="Helvetica,sans-Serif" font-size="10.00">view.components.TurtleWindow.step</text>
<text text-anchor="middle" x="691" y="-133" font-family="Helvetica,sans-Serif" font-size="10.00">Debug</text>
</a>
</g>
</g>
<!-- Node3&#45;&gt;Node4 -->
<g id="edge3" class="edge"><title>Node3&#45;&gt;Node4</title>
<path fill="none" stroke="midnightblue" d="M553.629,-109.331C577.055,-114.771 602.709,-120.729 625.382,-125.994"/>
<polygon fill="midnightblue" stroke="midnightblue" points="554.273,-105.887 543.741,-107.035 552.69,-112.706 554.273,-105.887"/>
</g>
<!-- Node9 -->
<g id="node9" class="node"><title>Node9</title>
<g id="a_node9"><a xlink:href="../../dd/ddc/classview_1_1turtle_1_1_turtle_image.html#a02651da4da9b4b48bd91656f734ccb03" target="_top" xlink:title="view.turtle.TurtleImage.add\lUpdate">
<polygon fill="white" stroke="black" points="619,-77 619,-107 763,-107 763,-77 619,-77"/>
<text text-anchor="start" x="627" y="-95" font-family="Helvetica,sans-Serif" font-size="10.00">view.turtle.TurtleImage.add</text>
<text text-anchor="middle" x="691" y="-84" font-family="Helvetica,sans-Serif" font-size="10.00">Update</text>
</a>
</g>
</g>
<!-- Node3&#45;&gt;Node9 -->
<g id="edge8" class="edge"><title>Node3&#45;&gt;Node9</title>
<path fill="none" stroke="midnightblue" d="M560.398,-92C579.656,-92 600.045,-92 618.809,-92"/>
<polygon fill="midnightblue" stroke="midnightblue" points="560.141,-88.5001 550.141,-92 560.141,-95.5001 560.141,-88.5001"/>
</g>
<!-- Node10 -->
<g id="node10" class="node"><title>Node10</title>
<g id="a_node10"><a xlink:href="../../dd/ddc/classview_1_1turtle_1_1_turtle_image.html#a958417ed4561c0b910f80944a5110ec7" target="_top" xlink:title="view.turtle.TurtleImage.animatedMove">
<polygon fill="white" stroke="black" points="592.5,-38.5 592.5,-57.5 789.5,-57.5 789.5,-38.5 592.5,-38.5"/>
<text text-anchor="middle" x="691" y="-45.5" font-family="Helvetica,sans-Serif" font-size="10.00">view.turtle.TurtleImage.animatedMove</text>
</a>
</g>
</g>
<!-- Node3&#45;&gt;Node10 -->
<g id="edge9" class="edge"><title>Node3&#45;&gt;Node10</title>
<path fill="none" stroke="midnightblue" d="M550.875,-74.6993C562.593,-72.0248 574.619,-69.3677 586,-67 601.903,-63.6915 619.24,-60.3998 635.118,-57.5088"/>
<polygon fill="midnightblue" stroke="midnightblue" points="550.084,-71.2896 541.124,-76.944 551.655,-78.1112 550.084,-71.2896"/>
</g>
<!-- Node11 -->
<g id="node11" class="node"><title>Node11</title>
<g id="a_node11"><a xlink:href="../../dd/ddc/classview_1_1turtle_1_1_turtle_image.html#aca0a62f113534161f725da472e1f4d9f" target="_top" xlink:title="view.turtle.TurtleImage.unanimatedMove">
<polygon fill="white" stroke="black" points="586.5,-0.5 586.5,-19.5 795.5,-19.5 795.5,-0.5 586.5,-0.5"/>
<text text-anchor="middle" x="691" y="-7.5" font-family="Helvetica,sans-Serif" font-size="10.00">view.turtle.TurtleImage.unanimatedMove</text>
</a>
</g>
</g>
<!-- Node3&#45;&gt;Node11 -->
<g id="edge11" class="edge"><title>Node3&#45;&gt;Node11</title>
<path fill="none" stroke="midnightblue" d="M507.968,-71.1398C528.734,-57.1618 557.893,-39.4645 586,-29 596.407,-25.1255 607.703,-22.0211 618.887,-19.5393"/>
<polygon fill="midnightblue" stroke="midnightblue" points="505.878,-68.3291 499.609,-76.8707 509.836,-74.1025 505.878,-68.3291"/>
</g>
<!-- Node5 -->
<g id="node5" class="node"><title>Node5</title>
<g id="a_node5"><a xlink:href="../../de/d30/classview_1_1components_1_1_s_logo_workspace.html#ad2141a5cca8101b3d22b2cf7b7473281" target="_top" xlink:title="view.components.SLogoWorkspace.run\lDebugger">
<polygon fill="white" stroke="black" points="832,-126 832,-156 1034,-156 1034,-126 832,-126"/>
<text text-anchor="start" x="840" y="-144" font-family="Helvetica,sans-Serif" font-size="10.00">view.components.SLogoWorkspace.run</text>
<text text-anchor="middle" x="933" y="-133" font-family="Helvetica,sans-Serif" font-size="10.00">Debugger</text>
</a>
</g>
</g>
<!-- Node4&#45;&gt;Node5 -->
<g id="edge4" class="edge"><title>Node4&#45;&gt;Node5</title>
<path fill="none" stroke="midnightblue" d="M794.424,-141C806.795,-141 819.421,-141 831.761,-141"/>
<polygon fill="midnightblue" stroke="midnightblue" points="794.104,-137.5 784.104,-141 794.104,-144.5 794.104,-137.5"/>
</g>
<!-- Node6 -->
<g id="node6" class="node"><title>Node6</title>
<g id="a_node6"><a xlink:href="../../d3/dbe/classview_1_1_view.html#af4860035310eeafc92cf78cbbc53290a" target="_top" xlink:title="view.View.runDebugger">
<polygon fill="white" stroke="black" points="1070,-131.5 1070,-150.5 1196,-150.5 1196,-131.5 1070,-131.5"/>
<text text-anchor="middle" x="1133" y="-138.5" font-family="Helvetica,sans-Serif" font-size="10.00">view.View.runDebugger</text>
</a>
</g>
</g>
<!-- Node5&#45;&gt;Node6 -->
<g id="edge5" class="edge"><title>Node5&#45;&gt;Node6</title>
<path fill="none" stroke="midnightblue" d="M1044.42,-141C1053.12,-141 1061.71,-141 1069.9,-141"/>
<polygon fill="midnightblue" stroke="midnightblue" points="1044.16,-137.5 1034.16,-141 1044.16,-144.5 1044.16,-137.5"/>
</g>
<!-- Node7 -->
<g id="node7" class="node"><title>Node7</title>
<g id="a_node7"><a xlink:href="../../d4/d6b/classview_1_1components_1_1_debugger_port.html#a6dd594b7c6572e0f4ef2ab7d8845f2ce" target="_top" xlink:title="view.components.Debugger\lPort.stepDebug">
<polygon fill="white" stroke="black" points="1232.5,-126 1232.5,-156 1381.5,-156 1381.5,-126 1232.5,-126"/>
<text text-anchor="start" x="1240.5" y="-144" font-family="Helvetica,sans-Serif" font-size="10.00">view.components.Debugger</text>
<text text-anchor="middle" x="1307" y="-133" font-family="Helvetica,sans-Serif" font-size="10.00">Port.stepDebug</text>
</a>
</g>
</g>
<!-- Node6&#45;&gt;Node7 -->
<g id="edge6" class="edge"><title>Node6&#45;&gt;Node7</title>
<path fill="none" stroke="midnightblue" d="M1206.13,-141C1214.78,-141 1223.61,-141 1232.28,-141"/>
<polygon fill="midnightblue" stroke="midnightblue" points="1206.1,-137.5 1196.1,-141 1206.1,-144.5 1206.1,-137.5"/>
</g>
<!-- Node8 -->
<g id="node8" class="node"><title>Node8</title>
<g id="a_node8"><a xlink:href="../../d4/d6b/classview_1_1components_1_1_debugger_port.html#a7055f8fe86c7e1078dc9909a7f000b8b" target="_top" xlink:title="view.components.Debugger\lPort.DebuggerPort">
<polygon fill="white" stroke="black" points="1418.5,-126 1418.5,-156 1567.5,-156 1567.5,-126 1418.5,-126"/>
<text text-anchor="start" x="1426.5" y="-144" font-family="Helvetica,sans-Serif" font-size="10.00">view.components.Debugger</text>
<text text-anchor="middle" x="1493" y="-133" font-family="Helvetica,sans-Serif" font-size="10.00">Port.DebuggerPort</text>
</a>
</g>
</g>
<!-- Node7&#45;&gt;Node8 -->
<g id="edge7" class="edge"><title>Node7&#45;&gt;Node8</title>
<path fill="none" stroke="midnightblue" d="M1391.53,-141C1400.46,-141 1409.5,-141 1418.3,-141"/>
<polygon fill="midnightblue" stroke="midnightblue" points="1391.51,-137.5 1381.51,-141 1391.51,-144.5 1391.51,-137.5"/>
</g>
<!-- Node10&#45;&gt;Node2 -->
<g id="edge10" class="edge"><title>Node10&#45;&gt;Node2</title>
<path fill="none" stroke="midnightblue" d="M582.203,-48C515.485,-48 431.208,-48 370.148,-48"/>
<polygon fill="midnightblue" stroke="midnightblue" points="582.333,-51.5001 592.333,-48 582.333,-44.5001 582.333,-51.5001"/>
</g>
<!-- Node11&#45;&gt;Node2 -->
<g id="edge12" class="edge"><title>Node11&#45;&gt;Node2</title>
<path fill="none" stroke="midnightblue" d="M579.338,-20.4867C513.086,-26.7649 430.337,-34.6065 370.148,-40.3101"/>
<polygon fill="midnightblue" stroke="midnightblue" points="579.78,-23.9606 589.405,-19.5327 579.12,-16.9918 579.78,-23.9606"/>
</g>
</g>
</svg>
        <g id="navigator" transform="translate(0 0)" fill="#404254">
                <rect fill="#f2f5e9" fill-opacity="0.5" stroke="#606060" stroke-width=".5" x="0" y="0" width="60" height="60"/>
                <use id="zoomplus" xlink:href="#zoomPlus" x="17" y="9" onmousedown="handleZoom(evt,'in')"/>
                <use id="zoomminus" xlink:href="#zoomMin" x="42" y="9" onmousedown="handleZoom(evt,'out')"/>
                <use id="reset" xlink:href="#resetDef" x="30" y="36" onmousedown="handleReset()"/>
                <g id="arrowUp" xlink:href="#dirArrow" transform="translate(30 24)" onmousedown="handlePan(0,-1)">
                  <use xlink:href="#rim" fill="#404040">
                        <set attributeName="fill" to="#808080" begin="arrowUp.mouseover" end="arrowUp.mouseout"/>
                  </use>
                  <path fill="none" stroke="white" stroke-width="1.5" d="M0,-3.0v7 M-2.5,-0.5L0,-3.0L2.5,-0.5"/>
                </g>
                <g id="arrowRight" xlink:href="#dirArrow" transform="rotate(90) translate(36 -43)" onmousedown="handlePan(1,0)">
                  <use xlink:href="#rim" fill="#404040">
                        <set attributeName="fill" to="#808080" begin="arrowRight.mouseover" end="arrowRight.mouseout"/>
                  </use>
                  <path fill="none" stroke="white" stroke-width="1.5" d="M0,-3.0v7 M-2.5,-0.5L0,-3.0L2.5,-0.5"/>
                </g>
                <g id="arrowDown" xlink:href="#dirArrow" transform="rotate(180) translate(-30 -48)" onmousedown="handlePan(0,1)">
                  <use xlink:href="#rim" fill="#404040">
                        <set attributeName="fill" to="#808080" begin="arrowDown.mouseover" end="arrowDown.mouseout"/>
                  </use>
                  <path fill="none" stroke="white" stroke-width="1.5" d="M0,-3.0v7 M-2.5,-0.5L0,-3.0L2.5,-0.5"/>
                </g>
                <g id="arrowLeft" xlink:href="#dirArrow" transform="rotate(270) translate(-36 17)" onmousedown="handlePan(-1,0)">
                  <use xlink:href="#rim" fill="#404040">
                        <set attributeName="fill" to="#808080" begin="arrowLeft.mouseover" end="arrowLeft.mouseout"/>
                  </use>
                  <path fill="none" stroke="white" stroke-width="1.5" d="M0,-3.0v7 M-2.5,-0.5L0,-3.0L2.5,-0.5"/>
                </g>
        </g>
        <svg viewBox="0 0 15 15" width="100%" height="30px" preserveAspectRatio="xMaxYMin meet">
         <g id="arrow_out" transform="scale(0.3 0.3)">
          <a xlink:href="classmodel_1_1_turtle_update_a36b8205a61dd875ac4521cf51906c275_icgraph_org.svg" target="_base">
           <rect id="button" ry="5" rx="5" y="6" x="6" height="38" width="38"
                fill="#f2f5e9" fill-opacity="0.5" stroke="#606060" stroke-width="1.0"/>
           <path id="arrow"
             d="M 11.500037,31.436501 C 11.940474,20.09759 22.043105,11.32322 32.158766,21.979434 L 37.068811,17.246167 C 37.068811,17.246167 37.088388,32 37.088388,32 L 22.160133,31.978069 C 22.160133,31.978069 26.997745,27.140456 26.997745,27.140456 C 18.528582,18.264221 13.291696,25.230495 11.500037,31.436501 z"
             style="fill:#404040;"/>
          </a>
         </g>
        </svg>
</svg>
