<?xml version="1.0" encoding="UTF-8" standalone="no"?>
<!DOCTYPE svg PUBLIC "-//W3C//DTD SVG 1.1//EN"
 "http://www.w3.org/Graphics/SVG/1.1/DTD/svg11.dtd">
<!-- Generated by graphviz version 2.36.0 (20140111.2315)
 -->
<!-- Title: view.toolbar.TurtleImageToolbarItem.makeImageChooser Pages: 1 -->
<svg width="348pt" height="38pt"
 viewBox="0.00 0.00 348.00 38.00" xmlns="http://www.w3.org/2000/svg" xmlns:xlink="http://www.w3.org/1999/xlink">
<g id="graph0" class="graph" transform="scale(1 1) rotate(0) translate(4 34)">
<title>view.toolbar.TurtleImageToolbarItem.makeImageChooser</title>
<polygon fill="white" stroke="none" points="-4,4 -4,-34 344,-34 344,4 -4,4"/>
<!-- Node1 -->
<g id="node1" class="node"><title>Node1</title>
<polygon fill="#bfbfbf" stroke="black" points="0,-0 0,-30 172,-30 172,-0 0,-0"/>
<text text-anchor="start" x="8" y="-18" font-family="Helvetica,sans-Serif" font-size="10.00">view.toolbar.TurtleImage</text>
<text text-anchor="middle" x="86" y="-7" font-family="Helvetica,sans-Serif" font-size="10.00">ToolbarItem.makeImageChooser</text>
</g>
<!-- Node2 -->
<g id="node2" class="node"><title>Node2</title>
<g id="a_node2"><a xlink:href="../../d5/d89/classview_1_1toolbar_1_1_turtle_image_toolbar_item.html#ac34cf24ff2eb07189d3d9a56ccf6abf5" target="_top" xlink:title="view.toolbar.TurtleImage\lToolbarItem.createNode">
<polygon fill="white" stroke="black" points="208.5,-0 208.5,-30 339.5,-30 339.5,-0 208.5,-0"/>
<text text-anchor="start" x="216.5" y="-18" font-family="Helvetica,sans-Serif" font-size="10.00">view.toolbar.TurtleImage</text>
<text text-anchor="middle" x="274" y="-7" font-family="Helvetica,sans-Serif" font-size="10.00">ToolbarItem.createNode</text>
</a>
</g>
</g>
<!-- Node1&#45;&gt;Node2 -->
<g id="edge1" class="edge"><title>Node1&#45;&gt;Node2</title>
<path fill="none" stroke="midnightblue" d="M182.382,-15C191.139,-15 199.868,-15 208.258,-15"/>
<polygon fill="midnightblue" stroke="midnightblue" points="182.107,-11.5001 172.107,-15 182.107,-18.5001 182.107,-11.5001"/>
</g>
</g>
</svg>
