<?xml version="1.0" encoding="UTF-8" standalone="no"?>
<!DOCTYPE svg PUBLIC "-//W3C//DTD SVG 1.1//EN"
 "http://www.w3.org/Graphics/SVG/1.1/DTD/svg11.dtd">
<!-- Generated by graphviz version 2.36.0 (20140111.2315)
 -->
<!-- Title: view.toolbar.TurtleImageToolbarItem.createNode Pages: 1 -->
<!--zoomable 146 -->
<svg id="main" version="1.1" xmlns="http://www.w3.org/2000/svg" xmlns:xlink="http://www.w3.org/1999/xlink" xml:space="preserve" onload="init(evt)">
<style type="text/css"><![CDATA[
.edge:hover path { stroke: red; }
.edge:hover polygon { stroke: red; fill: red; }
]]></style>
<script type="text/javascript"><![CDATA[
var edges = document.getElementsByTagName('g');
if (edges && edges.length) {
  for (var i=0;i<edges.length;i++) {
    if (edges[i].id.substr(0,4)=='edge') {
      edges[i].setAttribute('class','edge');
    }
  }
}
]]></script>
        <defs>
                <circle id="rim" cx="0" cy="0" r="7"/>
                <circle id="rim2" cx="0" cy="0" r="3.5"/>
                <g id="zoomPlus">
                        <use xlink:href="#rim" fill="#404040">
                                <set attributeName="fill" to="#808080" begin="zoomplus.mouseover" end="zoomplus.mouseout"/>
                        </use>
                        <path d="M-4,0h8M0,-4v8" fill="none" stroke="white" stroke-width="1.5" pointer-events="none"/>
                </g>
                <g id="zoomMin">
                        <use xlink:href="#rim" fill="#404040">
                                <set attributeName="fill" to="#808080" begin="zoomminus.mouseover" end="zoomminus.mouseout"/>
                        </use>
                        <path d="M-4,0h8" fill="none" stroke="white" stroke-width="1.5" pointer-events="none"/>
                </g>
                <g id="dirArrow">
                        <path fill="none" stroke="white" stroke-width="1.5" d="M0,-3.0v7 M-2.5,-0.5L0,-3.0L2.5,-0.5"/>
                </g>
               <g id="resetDef">
                       <use xlink:href="#rim2" fill="#404040">
                               <set attributeName="fill" to="#808080" begin="reset.mouseover" end="reset.mouseout"/>
                       </use>
               </g>
        </defs>

<script type="text/javascript">
var viewWidth = 988;
var viewHeight = 146;
var sectionId = 'dynsection-3';
</script>
<script xlink:href="../../svgpan.js"/>
<svg id="graph" class="graph">
<g id="viewport">
<title>view.toolbar.TurtleImageToolbarItem.createNode</title>
<polygon fill="white" stroke="none" points="-4,4 -4,-142 984,-142 984,4 -4,4"/>
<!-- Node1 -->
<g id="node1" class="node"><title>Node1</title>
<polygon fill="#bfbfbf" stroke="black" points="0.5,-24 0.5,-54 131.5,-54 131.5,-24 0.5,-24"/>
<text text-anchor="start" x="8.5" y="-42" font-family="Helvetica,sans-Serif" font-size="10.00">view.toolbar.TurtleImage</text>
<text text-anchor="middle" x="66" y="-31" font-family="Helvetica,sans-Serif" font-size="10.00">ToolbarItem.createNode</text>
</g>
<!-- Node2 -->
<g id="node2" class="node"><title>Node2</title>
<g id="a_node2"><a xlink:href="../../d2/d72/classview_1_1toolbar_1_1_turtle_specific_toolbar_item.html#a681453ed9b710bab03151e682b577843" target="_top" xlink:title="view.toolbar.TurtleSpecific\lToolbarItem.getAndModifyTurtles">
<polygon fill="white" stroke="black" points="168.5,-49 168.5,-79 339.5,-79 339.5,-49 168.5,-49"/>
<text text-anchor="start" x="176.5" y="-67" font-family="Helvetica,sans-Serif" font-size="10.00">view.toolbar.TurtleSpecific</text>
<text text-anchor="middle" x="254" y="-56" font-family="Helvetica,sans-Serif" font-size="10.00">ToolbarItem.getAndModifyTurtles</text>
</a>
</g>
</g>
<!-- Node1&#45;&gt;Node2 -->
<g id="edge1" class="edge"><title>Node1&#45;&gt;Node2</title>
<path fill="none" stroke="midnightblue" d="M131.532,-47.6736C140.146,-48.8315 149.121,-50.0378 158.12,-51.2473"/>
<polygon fill="midnightblue" stroke="midnightblue" points="157.894,-54.7484 168.272,-52.6118 158.827,-47.8108 157.894,-54.7484"/>
</g>
<!-- Node8 -->
<g id="node8" class="node"><title>Node8</title>
<g id="a_node8"><a xlink:href="../../d5/d89/classview_1_1toolbar_1_1_turtle_image_toolbar_item.html#a85d2d6ac531d2bb2d14599e85d4b0926" target="_top" xlink:title="view.toolbar.TurtleImage\lToolbarItem.makeImageChooser">
<polygon fill="white" stroke="black" points="168,-0 168,-30 340,-30 340,-0 168,-0"/>
<text text-anchor="start" x="176" y="-18" font-family="Helvetica,sans-Serif" font-size="10.00">view.toolbar.TurtleImage</text>
<text text-anchor="middle" x="254" y="-7" font-family="Helvetica,sans-Serif" font-size="10.00">ToolbarItem.makeImageChooser</text>
</a>
</g>
</g>
<!-- Node1&#45;&gt;Node8 -->
<g id="edge9" class="edge"><title>Node1&#45;&gt;Node8</title>
<path fill="none" stroke="midnightblue" d="M131.532,-30.6733C140.07,-29.5716 148.962,-28.4242 157.881,-27.2734"/>
<polygon fill="midnightblue" stroke="midnightblue" points="158.474,-30.726 167.944,-25.975 157.578,-23.7836 158.474,-30.726"/>
</g>
<!-- Node3 -->
<g id="node3" class="node"><title>Node3</title>
<g id="a_node3"><a xlink:href="../../d2/d72/classview_1_1toolbar_1_1_turtle_specific_toolbar_item.html#a22d6ddd39dd881cc916afab2c6f6e050" target="_top" xlink:title="view.toolbar.TurtleSpecific\lToolbarItem.getUserInput">
<polygon fill="white" stroke="black" points="400.5,-74 400.5,-104 537.5,-104 537.5,-74 400.5,-74"/>
<text text-anchor="start" x="408.5" y="-92" font-family="Helvetica,sans-Serif" font-size="10.00">view.toolbar.TurtleSpecific</text>
<text text-anchor="middle" x="469" y="-81" font-family="Helvetica,sans-Serif" font-size="10.00">ToolbarItem.getUserInput</text>
</a>
</g>
</g>
<!-- Node2&#45;&gt;Node3 -->
<g id="edge2" class="edge"><title>Node2&#45;&gt;Node3</title>
<path fill="none" stroke="midnightblue" d="M339.795,-73.9525C356.416,-75.9033 373.773,-77.9405 390.154,-79.8631"/>
<polygon fill="midnightblue" stroke="midnightblue" points="389.871,-83.3539 400.211,-81.0435 390.687,-76.4016 389.871,-83.3539"/>
</g>
<!-- Node7 -->
<g id="node7" class="node"><title>Node7</title>
<g id="a_node7"><a xlink:href="../../d2/d72/classview_1_1toolbar_1_1_turtle_specific_toolbar_item.html#aca2dc6e061991957002113af853e76a4" target="_top" xlink:title="view.toolbar.TurtleSpecific\lToolbarItem.changeTurtleProperties">
<polygon fill="white" stroke="black" points="376.5,-25 376.5,-55 561.5,-55 561.5,-25 376.5,-25"/>
<text text-anchor="start" x="384.5" y="-43" font-family="Helvetica,sans-Serif" font-size="10.00">view.toolbar.TurtleSpecific</text>
<text text-anchor="middle" x="469" y="-32" font-family="Helvetica,sans-Serif" font-size="10.00">ToolbarItem.changeTurtleProperties</text>
</a>
</g>
</g>
<!-- Node2&#45;&gt;Node7 -->
<g id="edge8" class="edge"><title>Node2&#45;&gt;Node7</title>
<path fill="none" stroke="midnightblue" d="M339.795,-54.4456C348.477,-53.4674 357.36,-52.4665 366.2,-51.4704"/>
<polygon fill="midnightblue" stroke="midnightblue" points="366.604,-54.9472 376.149,-50.3494 365.82,-47.9912 366.604,-54.9472"/>
</g>
<!-- Node4 -->
<g id="node4" class="node"><title>Node4</title>
<g id="a_node4"><a xlink:href="../../d2/d72/classview_1_1toolbar_1_1_turtle_specific_toolbar_item.html#aff87aa6f38bcdb6418b027d88c6bd90c" target="_top" xlink:title="view.toolbar.TurtleSpecific\lToolbarItem.getAvailableTurtles">
<polygon fill="white" stroke="black" points="598,-74 598,-104 762,-104 762,-74 598,-74"/>
<text text-anchor="start" x="606" y="-92" font-family="Helvetica,sans-Serif" font-size="10.00">view.toolbar.TurtleSpecific</text>
<text text-anchor="middle" x="680" y="-81" font-family="Helvetica,sans-Serif" font-size="10.00">ToolbarItem.getAvailableTurtles</text>
</a>
</g>
</g>
<!-- Node3&#45;&gt;Node4 -->
<g id="edge3" class="edge"><title>Node3&#45;&gt;Node4</title>
<path fill="none" stroke="midnightblue" d="M537.568,-89C553.469,-89 570.679,-89 587.438,-89"/>
<polygon fill="midnightblue" stroke="midnightblue" points="587.8,-92.5001 597.8,-89 587.8,-85.5001 587.8,-92.5001"/>
</g>
<!-- Node5 -->
<g id="node5" class="node"><title>Node5</title>
<g id="a_node5"><a xlink:href="../../df/dd6/classview_1_1toolbar_1_1_toolbar.html#af475087a1d6bd9a705ed213f676f3339" target="_top" xlink:title="view.toolbar.Toolbar.get\lTurtleWindow">
<polygon fill="white" stroke="black" points="825.5,-108 825.5,-138 952.5,-138 952.5,-108 825.5,-108"/>
<text text-anchor="start" x="833.5" y="-126" font-family="Helvetica,sans-Serif" font-size="10.00">view.toolbar.Toolbar.get</text>
<text text-anchor="middle" x="889" y="-115" font-family="Helvetica,sans-Serif" font-size="10.00">TurtleWindow</text>
</a>
</g>
</g>
<!-- Node3&#45;&gt;Node5 -->
<g id="edge6" class="edge"><title>Node3&#45;&gt;Node5</title>
<path fill="none" stroke="midnightblue" d="M537.804,-103.685C557.161,-107.34 578.336,-110.83 598,-113 671.572,-121.119 756.22,-123.212 814.995,-123.522"/>
<polygon fill="midnightblue" stroke="midnightblue" points="815.281,-127.023 825.294,-123.56 815.307,-120.023 815.281,-127.023"/>
</g>
<!-- Node6 -->
<g id="node6" class="node"><title>Node6</title>
<g id="a_node6"><a xlink:href="../../d5/d4b/classview_1_1components_1_1_turtle_window.html#a56c45ccd42635856219886f438d1a12c" target="_top" xlink:title="view.components.TurtleWindow.get\lAvailableTurtles">
<polygon fill="white" stroke="black" points="798.5,-49 798.5,-79 979.5,-79 979.5,-49 798.5,-49"/>
<text text-anchor="start" x="806.5" y="-67" font-family="Helvetica,sans-Serif" font-size="10.00">view.components.TurtleWindow.get</text>
<text text-anchor="middle" x="889" y="-56" font-family="Helvetica,sans-Serif" font-size="10.00">AvailableTurtles</text>
</a>
</g>
</g>
<!-- Node3&#45;&gt;Node6 -->
<g id="edge7" class="edge"><title>Node3&#45;&gt;Node6</title>
<path fill="none" stroke="midnightblue" d="M534.104,-73.9669C554.417,-69.8814 577.041,-66.0277 598,-64 660.981,-57.9071 732.017,-57.7965 788.02,-59.263"/>
<polygon fill="midnightblue" stroke="midnightblue" points="788.201,-62.7694 798.297,-59.5541 788.4,-55.7722 788.201,-62.7694"/>
</g>
<!-- Node4&#45;&gt;Node5 -->
<g id="edge4" class="edge"><title>Node4&#45;&gt;Node5</title>
<path fill="none" stroke="midnightblue" d="M762.218,-102.34C779.734,-105.217 798.144,-108.241 815.311,-111.061"/>
<polygon fill="midnightblue" stroke="midnightblue" points="814.823,-114.527 825.258,-112.695 815.957,-107.62 814.823,-114.527"/>
</g>
<!-- Node4&#45;&gt;Node6 -->
<g id="edge5" class="edge"><title>Node4&#45;&gt;Node6</title>
<path fill="none" stroke="midnightblue" d="M762.218,-79.1911C770.766,-78.1587 779.527,-77.1006 788.252,-76.0469"/>
<polygon fill="midnightblue" stroke="midnightblue" points="788.955,-79.4874 798.464,-74.8136 788.116,-72.5379 788.955,-79.4874"/>
</g>
</g>
</svg>
        <g id="navigator" transform="translate(0 0)" fill="#404254">
                <rect fill="#f2f5e9" fill-opacity="0.5" stroke="#606060" stroke-width=".5" x="0" y="0" width="60" height="60"/>
                <use id="zoomplus" xlink:href="#zoomPlus" x="17" y="9" onmousedown="handleZoom(evt,'in')"/>
                <use id="zoomminus" xlink:href="#zoomMin" x="42" y="9" onmousedown="handleZoom(evt,'out')"/>
                <use id="reset" xlink:href="#resetDef" x="30" y="36" onmousedown="handleReset()"/>
                <g id="arrowUp" xlink:href="#dirArrow" transform="translate(30 24)" onmousedown="handlePan(0,-1)">
                  <use xlink:href="#rim" fill="#404040">
                        <set attributeName="fill" to="#808080" begin="arrowUp.mouseover" end="arrowUp.mouseout"/>
                  </use>
                  <path fill="none" stroke="white" stroke-width="1.5" d="M0,-3.0v7 M-2.5,-0.5L0,-3.0L2.5,-0.5"/>
                </g>
                <g id="arrowRight" xlink:href="#dirArrow" transform="rotate(90) translate(36 -43)" onmousedown="handlePan(1,0)">
                  <use xlink:href="#rim" fill="#404040">
                        <set attributeName="fill" to="#808080" begin="arrowRight.mouseover" end="arrowRight.mouseout"/>
                  </use>
                  <path fill="none" stroke="white" stroke-width="1.5" d="M0,-3.0v7 M-2.5,-0.5L0,-3.0L2.5,-0.5"/>
                </g>
                <g id="arrowDown" xlink:href="#dirArrow" transform="rotate(180) translate(-30 -48)" onmousedown="handlePan(0,1)">
                  <use xlink:href="#rim" fill="#404040">
                        <set attributeName="fill" to="#808080" begin="arrowDown.mouseover" end="arrowDown.mouseout"/>
                  </use>
                  <path fill="none" stroke="white" stroke-width="1.5" d="M0,-3.0v7 M-2.5,-0.5L0,-3.0L2.5,-0.5"/>
                </g>
                <g id="arrowLeft" xlink:href="#dirArrow" transform="rotate(270) translate(-36 17)" onmousedown="handlePan(-1,0)">
                  <use xlink:href="#rim" fill="#404040">
                        <set attributeName="fill" to="#808080" begin="arrowLeft.mouseover" end="arrowLeft.mouseout"/>
                  </use>
                  <path fill="none" stroke="white" stroke-width="1.5" d="M0,-3.0v7 M-2.5,-0.5L0,-3.0L2.5,-0.5"/>
                </g>
        </g>
        <svg viewBox="0 0 15 15" width="100%" height="30px" preserveAspectRatio="xMaxYMin meet">
         <g id="arrow_out" transform="scale(0.3 0.3)">
          <a xlink:href="classview_1_1toolbar_1_1_turtle_image_toolbar_item_ac34cf24ff2eb07189d3d9a56ccf6abf5_cgraph_org.svg" target="_base">
           <rect id="button" ry="5" rx="5" y="6" x="6" height="38" width="38"
                fill="#f2f5e9" fill-opacity="0.5" stroke="#606060" stroke-width="1.0"/>
           <path id="arrow"
             d="M 11.500037,31.436501 C 11.940474,20.09759 22.043105,11.32322 32.158766,21.979434 L 37.068811,17.246167 C 37.068811,17.246167 37.088388,32 37.088388,32 L 22.160133,31.978069 C 22.160133,31.978069 26.997745,27.140456 26.997745,27.140456 C 18.528582,18.264221 13.291696,25.230495 11.500037,31.436501 z"
             style="fill:#404040;"/>
          </a>
         </g>
        </svg>
</svg>
