<?xml version="1.0" encoding="UTF-8" standalone="no"?>
<!DOCTYPE svg PUBLIC "-//W3C//DTD SVG 1.1//EN"
 "http://www.w3.org/Graphics/SVG/1.1/DTD/svg11.dtd">
<!-- Generated by graphviz version 2.36.0 (20140111.2315)
 -->
<!-- Title: parser.nodes.ListNode.executeNodes Pages: 1 -->
<svg width="376pt" height="38pt"
 viewBox="0.00 0.00 376.00 38.00" xmlns="http://www.w3.org/2000/svg" xmlns:xlink="http://www.w3.org/1999/xlink">
<g id="graph0" class="graph" transform="scale(1 1) rotate(0) translate(4 34)">
<title>parser.nodes.ListNode.executeNodes</title>
<polygon fill="white" stroke="none" points="-4,4 -4,-34 372,-34 372,4 -4,4"/>
<!-- Node1 -->
<g id="node1" class="node"><title>Node1</title>
<polygon fill="#bfbfbf" stroke="black" points="0.5,-0 0.5,-30 165.5,-30 165.5,-0 0.5,-0"/>
<text text-anchor="start" x="8.5" y="-18" font-family="Helvetica,sans-Serif" font-size="10.00">parser.nodes.ListNode.execute</text>
<text text-anchor="middle" x="83" y="-7" font-family="Helvetica,sans-Serif" font-size="10.00">Nodes</text>
</g>
<!-- Node2 -->
<g id="node2" class="node"><title>Node2</title>
<g id="a_node2"><a xlink:href="../../d4/d1c/classparser_1_1nodes_1_1_list_node.html#a82a3418e343a5d6ed112be4b7b2b0282" target="_top" xlink:title="parser.nodes.ListNode.execute">
<polygon fill="white" stroke="black" points="202.5,-5.5 202.5,-24.5 367.5,-24.5 367.5,-5.5 202.5,-5.5"/>
<text text-anchor="middle" x="285" y="-12.5" font-family="Helvetica,sans-Serif" font-size="10.00">parser.nodes.ListNode.execute</text>
</a>
</g>
</g>
<!-- Node1&#45;&gt;Node2 -->
<g id="edge1" class="edge"><title>Node1&#45;&gt;Node2</title>
<path fill="none" stroke="midnightblue" d="M165.636,-8.3522C174.331,-8.25443 183.218,-8.22681 192.021,-8.26934"/>
<polygon fill="midnightblue" stroke="midnightblue" points="192.273,-11.7714 202.301,-8.35149 192.329,-4.77159 192.273,-11.7714"/>
</g>
<!-- Node2&#45;&gt;Node1 -->
<g id="edge2" class="edge"><title>Node2&#45;&gt;Node1</title>
<path fill="none" stroke="midnightblue" d="M202.301,-21.6485C193.605,-21.7459 184.718,-21.7732 175.915,-21.7304"/>
<polygon fill="midnightblue" stroke="midnightblue" points="175.664,-18.2283 165.636,-21.6478 175.608,-25.2281 175.664,-18.2283"/>
</g>
</g>
</svg>
