<?xml version="1.0" encoding="UTF-8" standalone="no"?>
<!DOCTYPE svg PUBLIC "-//W3C//DTD SVG 1.1//EN"
 "http://www.w3.org/Graphics/SVG/1.1/DTD/svg11.dtd">
<!-- Generated by graphviz version 2.36.0 (20140111.2315)
 -->
<!-- Title: parser.nodes.ListNode.getNode Pages: 1 -->
<svg width="816pt" height="218pt"
 viewBox="0.00 0.00 816.00 218.21" xmlns="http://www.w3.org/2000/svg" xmlns:xlink="http://www.w3.org/1999/xlink">
<g id="graph0" class="graph" transform="scale(1 1) rotate(0) translate(4 214.214)">
<title>parser.nodes.ListNode.getNode</title>
<polygon fill="white" stroke="none" points="-4,4 -4,-214.214 812,-214.214 812,4 -4,4"/>
<!-- Node1 -->
<g id="node1" class="node"><title>Node1</title>
<polygon fill="#bfbfbf" stroke="black" points="0,-106.5 0,-125.5 168,-125.5 168,-106.5 0,-106.5"/>
<text text-anchor="middle" x="84" y="-113.5" font-family="Helvetica,sans-Serif" font-size="10.00">parser.nodes.ListNode.getNode</text>
</g>
<!-- Node2 -->
<g id="node2" class="node"><title>Node2</title>
<g id="a_node2"><a xlink:href="../../db/dea/classparser_1_1commands_1_1_ask.html#af023b91d12f19f696d5f40d37b4d1e4a" target="_top" xlink:title="parser.commands.Ask.create\lNewActiveStack">
<polygon fill="white" stroke="black" points="443,-178 443,-208 601,-208 601,-178 443,-178"/>
<text text-anchor="start" x="451" y="-196" font-family="Helvetica,sans-Serif" font-size="10.00">parser.commands.Ask.create</text>
<text text-anchor="middle" x="522" y="-185" font-family="Helvetica,sans-Serif" font-size="10.00">NewActiveStack</text>
</a>
</g>
</g>
<!-- Node1&#45;&gt;Node2 -->
<g id="edge1" class="edge"><title>Node1&#45;&gt;Node2</title>
<path fill="none" stroke="midnightblue" d="M103.268,-132.447C125.3,-151.074 164.342,-180.349 204,-192 282.809,-215.154 377.473,-211.65 442.718,-204.702"/>
<polygon fill="midnightblue" stroke="midnightblue" points="105.281,-129.561 95.4312,-125.658 100.698,-134.851 105.281,-129.561"/>
</g>
<!-- Node4 -->
<g id="node4" class="node"><title>Node4</title>
<g id="a_node4"><a xlink:href="../../d6/dde/classparser_1_1commands_1_1_do_times.html#a9613af1cca29470bfbab7bc5d6a651f5" target="_top" xlink:title="parser.commands.DoTimes.execute">
<polygon fill="white" stroke="black" points="208,-163.5 208,-182.5 398,-182.5 398,-163.5 208,-163.5"/>
<text text-anchor="middle" x="303" y="-170.5" font-family="Helvetica,sans-Serif" font-size="10.00">parser.commands.DoTimes.execute</text>
</a>
</g>
</g>
<!-- Node1&#45;&gt;Node4 -->
<g id="edge3" class="edge"><title>Node1&#45;&gt;Node4</title>
<path fill="none" stroke="midnightblue" d="M121.202,-128.783C144.618,-136.746 175.871,-146.808 204,-154 217.768,-157.52 232.771,-160.734 246.805,-163.478"/>
<polygon fill="midnightblue" stroke="midnightblue" points="122.272,-125.45 111.678,-125.513 119.999,-132.071 122.272,-125.45"/>
</g>
<!-- Node5 -->
<g id="node5" class="node"><title>Node5</title>
<g id="a_node5"><a xlink:href="../../d3/d16/classparser_1_1commands_1_1_for.html#a33148ee0a657891f52fdc49f5f820dde" target="_top" xlink:title="parser.commands.For.execute">
<polygon fill="white" stroke="black" points="222,-125.5 222,-144.5 384,-144.5 384,-125.5 222,-125.5"/>
<text text-anchor="middle" x="303" y="-132.5" font-family="Helvetica,sans-Serif" font-size="10.00">parser.commands.For.execute</text>
</a>
</g>
</g>
<!-- Node1&#45;&gt;Node5 -->
<g id="edge4" class="edge"><title>Node1&#45;&gt;Node5</title>
<path fill="none" stroke="midnightblue" d="M178.246,-124.164C192.749,-125.434 207.623,-126.737 221.804,-127.978"/>
<polygon fill="midnightblue" stroke="midnightblue" points="178.544,-120.677 168.277,-123.292 177.934,-127.651 178.544,-120.677"/>
</g>
<!-- Node6 -->
<g id="node6" class="node"><title>Node6</title>
<g id="a_node6"><a xlink:href="../../dc/dd6/classparser_1_1commands_1_1_tell.html#a0a34e23f2a3c5bc0011e058241149b68" target="_top" xlink:title="parser.commands.Tell.execute">
<polygon fill="white" stroke="black" points="222,-87.5 222,-106.5 384,-106.5 384,-87.5 222,-87.5"/>
<text text-anchor="middle" x="303" y="-94.5" font-family="Helvetica,sans-Serif" font-size="10.00">parser.commands.Tell.execute</text>
</a>
</g>
</g>
<!-- Node1&#45;&gt;Node6 -->
<g id="edge5" class="edge"><title>Node1&#45;&gt;Node6</title>
<path fill="none" stroke="midnightblue" d="M178.246,-107.836C192.749,-106.566 207.623,-105.263 221.804,-104.022"/>
<polygon fill="midnightblue" stroke="midnightblue" points="177.934,-104.349 168.277,-108.708 178.544,-111.323 177.934,-104.349"/>
</g>
<!-- Node8 -->
<g id="node8" class="node"><title>Node8</title>
<g id="a_node8"><a xlink:href="../../d0/dc0/classparser_1_1commands_1_1_to_instance.html#a8f4cda9acc56d7b3f166d95a059b3f36" target="_top" xlink:title="parser.commands.ToInstance.execute">
<polygon fill="white" stroke="black" points="204,-49.5 204,-68.5 402,-68.5 402,-49.5 204,-49.5"/>
<text text-anchor="middle" x="303" y="-56.5" font-family="Helvetica,sans-Serif" font-size="10.00">parser.commands.ToInstance.execute</text>
</a>
</g>
</g>
<!-- Node1&#45;&gt;Node8 -->
<g id="edge8" class="edge"><title>Node1&#45;&gt;Node8</title>
<path fill="none" stroke="midnightblue" d="M121.202,-103.217C144.618,-95.2535 175.871,-85.1915 204,-78 217.768,-74.48 232.771,-71.2656 246.805,-68.5222"/>
<polygon fill="midnightblue" stroke="midnightblue" points="119.999,-99.9293 111.678,-106.487 122.272,-106.55 119.999,-99.9293"/>
</g>
<!-- Node9 -->
<g id="node9" class="node"><title>Node9</title>
<g id="a_node9"><a xlink:href="../../db/dce/classparser_1_1commands_1_1_looping_node.html#aa560a5e96ee0ccae148ebdb85765fc3e" target="_top" xlink:title="parser.commands.LoopingNode.\lLoopingNode">
<polygon fill="white" stroke="black" points="216.5,-0 216.5,-30 389.5,-30 389.5,-0 216.5,-0"/>
<text text-anchor="start" x="224.5" y="-18" font-family="Helvetica,sans-Serif" font-size="10.00">parser.commands.LoopingNode.</text>
<text text-anchor="middle" x="303" y="-7" font-family="Helvetica,sans-Serif" font-size="10.00">LoopingNode</text>
</a>
</g>
</g>
<!-- Node1&#45;&gt;Node9 -->
<g id="edge9" class="edge"><title>Node1&#45;&gt;Node9</title>
<path fill="none" stroke="midnightblue" d="M105.317,-100.143C128.142,-83.0377 166.87,-56.0965 204,-40 212.78,-36.1937 222.263,-32.875 231.752,-30.0088"/>
<polygon fill="midnightblue" stroke="midnightblue" points="102.949,-97.5466 97.1086,-106.386 107.187,-103.118 102.949,-97.5466"/>
</g>
<!-- Node3 -->
<g id="node3" class="node"><title>Node3</title>
<g id="a_node3"><a xlink:href="../../db/dea/classparser_1_1commands_1_1_ask.html#ae3a52ad1be99031d4a926942771fd71c" target="_top" xlink:title="parser.commands.Ask.execute">
<polygon fill="white" stroke="black" points="642.5,-152.5 642.5,-171.5 807.5,-171.5 807.5,-152.5 642.5,-152.5"/>
<text text-anchor="middle" x="725" y="-159.5" font-family="Helvetica,sans-Serif" font-size="10.00">parser.commands.Ask.execute</text>
</a>
</g>
</g>
<!-- Node2&#45;&gt;Node3 -->
<g id="edge2" class="edge"><title>Node2&#45;&gt;Node3</title>
<path fill="none" stroke="midnightblue" d="M611.302,-179.381C628.431,-176.74 646.04,-174.024 662.098,-171.547"/>
<polygon fill="midnightblue" stroke="midnightblue" points="610.637,-175.942 601.287,-180.926 611.704,-182.861 610.637,-175.942"/>
</g>
<!-- Node7 -->
<g id="node7" class="node"><title>Node7</title>
<g id="a_node7"><a xlink:href="../../db/dea/classparser_1_1commands_1_1_ask.html#a658c13e8dfb321e6349eb39413f038f9" target="_top" xlink:title="parser.commands.Ask.runCode">
<polygon fill="white" stroke="black" points="438.5,-122.5 438.5,-141.5 605.5,-141.5 605.5,-122.5 438.5,-122.5"/>
<text text-anchor="middle" x="522" y="-129.5" font-family="Helvetica,sans-Serif" font-size="10.00">parser.commands.Ask.runCode</text>
</a>
</g>
</g>
<!-- Node6&#45;&gt;Node7 -->
<g id="edge6" class="edge"><title>Node6&#45;&gt;Node7</title>
<path fill="none" stroke="midnightblue" d="M372.948,-108.121C401.593,-112.741 434.498,-118.048 462.002,-122.484"/>
<polygon fill="midnightblue" stroke="midnightblue" points="373.439,-104.655 363.01,-106.518 372.325,-111.565 373.439,-104.655"/>
</g>
<!-- Node7&#45;&gt;Node3 -->
<g id="edge7" class="edge"><title>Node7&#45;&gt;Node3</title>
<path fill="none" stroke="midnightblue" d="M596.933,-143.035C617.725,-146.138 640.152,-149.485 660.292,-152.491"/>
<polygon fill="midnightblue" stroke="midnightblue" points="597.281,-139.548 586.874,-141.533 596.248,-146.471 597.281,-139.548"/>
</g>
</g>
</svg>
