<?xml version="1.0" encoding="UTF-8" standalone="no"?>
<!DOCTYPE svg PUBLIC "-//W3C//DTD SVG 1.1//EN"
 "http://www.w3.org/Graphics/SVG/1.1/DTD/svg11.dtd">
<!-- Generated by graphviz version 2.36.0 (20140111.2315)
 -->
<!-- Title: parser.nodes.ListNode.getSize Pages: 1 -->
<svg width="812pt" height="327pt"
 viewBox="0.00 0.00 812.00 326.60" xmlns="http://www.w3.org/2000/svg" xmlns:xlink="http://www.w3.org/1999/xlink">
<g id="graph0" class="graph" transform="scale(1 1) rotate(0) translate(4 322.599)">
<title>parser.nodes.ListNode.getSize</title>
<polygon fill="white" stroke="none" points="-4,4 -4,-322.599 808,-322.599 808,4 -4,4"/>
<!-- Node1 -->
<g id="node1" class="node"><title>Node1</title>
<polygon fill="#bfbfbf" stroke="black" points="0.5,-155.5 0.5,-174.5 163.5,-174.5 163.5,-155.5 0.5,-155.5"/>
<text text-anchor="middle" x="82" y="-162.5" font-family="Helvetica,sans-Serif" font-size="10.00">parser.nodes.ListNode.getSize</text>
</g>
<!-- Node2 -->
<g id="node2" class="node"><title>Node2</title>
<g id="a_node2"><a xlink:href="../../db/dea/classparser_1_1commands_1_1_ask.html#af023b91d12f19f696d5f40d37b4d1e4a" target="_top" xlink:title="parser.commands.Ask.create\lNewActiveStack">
<polygon fill="white" stroke="black" points="439,-284 439,-314 597,-314 597,-284 439,-284"/>
<text text-anchor="start" x="447" y="-302" font-family="Helvetica,sans-Serif" font-size="10.00">parser.commands.Ask.create</text>
<text text-anchor="middle" x="518" y="-291" font-family="Helvetica,sans-Serif" font-size="10.00">NewActiveStack</text>
</a>
</g>
</g>
<!-- Node1&#45;&gt;Node2 -->
<g id="edge1" class="edge"><title>Node1&#45;&gt;Node2</title>
<path fill="none" stroke="midnightblue" d="M93.4155,-183.261C111.057,-212.142 149.845,-267.396 200,-290 275.669,-324.102 372.144,-321.162 438.682,-312.98"/>
<polygon fill="midnightblue" stroke="midnightblue" points="96.3687,-181.379 88.2575,-174.563 90.3478,-184.95 96.3687,-181.379"/>
</g>
<!-- Node4 -->
<g id="node4" class="node"><title>Node4</title>
<g id="a_node4"><a xlink:href="../../d6/dde/classparser_1_1commands_1_1_do_times.html#a8438437a1bb766ad64b906068e2e2575" target="_top" xlink:title="parser.commands.DoTimes.\lDoTimes">
<polygon fill="white" stroke="black" points="223,-251 223,-281 375,-281 375,-251 223,-251"/>
<text text-anchor="start" x="231" y="-269" font-family="Helvetica,sans-Serif" font-size="10.00">parser.commands.DoTimes.</text>
<text text-anchor="middle" x="299" y="-258" font-family="Helvetica,sans-Serif" font-size="10.00">DoTimes</text>
</a>
</g>
</g>
<!-- Node1&#45;&gt;Node4 -->
<g id="edge3" class="edge"><title>Node1&#45;&gt;Node4</title>
<path fill="none" stroke="midnightblue" d="M102.93,-180.876C125.331,-197.998 163.374,-224.954 200,-241 208.685,-244.805 218.066,-248.117 227.464,-250.975"/>
<polygon fill="midnightblue" stroke="midnightblue" points="104.921,-177.992 94.8754,-174.626 100.63,-183.522 104.921,-177.992"/>
</g>
<!-- Node5 -->
<g id="node5" class="node"><title>Node5</title>
<g id="a_node5"><a xlink:href="../../dc/dd6/classparser_1_1commands_1_1_tell.html#a0a34e23f2a3c5bc0011e058241149b68" target="_top" xlink:title="parser.commands.Tell.execute">
<polygon fill="white" stroke="black" points="218,-212.5 218,-231.5 380,-231.5 380,-212.5 218,-212.5"/>
<text text-anchor="middle" x="299" y="-219.5" font-family="Helvetica,sans-Serif" font-size="10.00">parser.commands.Tell.execute</text>
</a>
</g>
</g>
<!-- Node1&#45;&gt;Node5 -->
<g id="edge4" class="edge"><title>Node1&#45;&gt;Node5</title>
<path fill="none" stroke="midnightblue" d="M118.884,-177.918C141.865,-185.876 172.44,-195.882 200,-203 213.676,-206.532 228.576,-209.741 242.536,-212.475"/>
<polygon fill="midnightblue" stroke="midnightblue" points="119.809,-174.534 109.215,-174.536 117.498,-181.141 119.809,-174.534"/>
</g>
<!-- Node7 -->
<g id="node7" class="node"><title>Node7</title>
<g id="a_node7"><a xlink:href="../../d0/dc0/classparser_1_1commands_1_1_to_instance.html#a8f4cda9acc56d7b3f166d95a059b3f36" target="_top" xlink:title="parser.commands.ToInstance.execute">
<polygon fill="white" stroke="black" points="200,-174.5 200,-193.5 398,-193.5 398,-174.5 200,-174.5"/>
<text text-anchor="middle" x="299" y="-181.5" font-family="Helvetica,sans-Serif" font-size="10.00">parser.commands.ToInstance.execute</text>
</a>
</g>
</g>
<!-- Node1&#45;&gt;Node7 -->
<g id="edge7" class="edge"><title>Node1&#45;&gt;Node7</title>
<path fill="none" stroke="midnightblue" d="M173.718,-173.017C182.348,-173.78 191.125,-174.555 199.821,-175.324"/>
<polygon fill="midnightblue" stroke="midnightblue" points="173.939,-169.523 163.67,-172.129 173.323,-176.496 173.939,-169.523"/>
</g>
<!-- Node8 -->
<g id="node8" class="node"><title>Node8</title>
<g id="a_node8"><a xlink:href="../../d3/d16/classparser_1_1commands_1_1_for.html#abd544e6213deed1345f435c05171c6ed" target="_top" xlink:title="parser.commands.For.For">
<polygon fill="white" stroke="black" points="229.5,-136.5 229.5,-155.5 368.5,-155.5 368.5,-136.5 229.5,-136.5"/>
<text text-anchor="middle" x="299" y="-143.5" font-family="Helvetica,sans-Serif" font-size="10.00">parser.commands.For.For</text>
</a>
</g>
</g>
<!-- Node1&#45;&gt;Node8 -->
<g id="edge8" class="edge"><title>Node1&#45;&gt;Node8</title>
<path fill="none" stroke="midnightblue" d="M173.878,-156.969C192.403,-155.332 211.603,-153.635 229.205,-152.08"/>
<polygon fill="midnightblue" stroke="midnightblue" points="173.323,-153.504 163.67,-157.871 173.939,-160.477 173.323,-153.504"/>
</g>
<!-- Node9 -->
<g id="node9" class="node"><title>Node9</title>
<g id="a_node9"><a xlink:href="../../d9/d05/classparser_1_1nodes_1_1_group_node.html#a537e259688e4145365fe929bc5b557cf" target="_top" xlink:title="parser.nodes.GroupNode.GroupNode">
<polygon fill="white" stroke="black" points="202,-98.5 202,-117.5 396,-117.5 396,-98.5 202,-98.5"/>
<text text-anchor="middle" x="299" y="-105.5" font-family="Helvetica,sans-Serif" font-size="10.00">parser.nodes.GroupNode.GroupNode</text>
</a>
</g>
</g>
<!-- Node1&#45;&gt;Node9 -->
<g id="edge9" class="edge"><title>Node1&#45;&gt;Node9</title>
<path fill="none" stroke="midnightblue" d="M118.884,-152.082C141.865,-144.124 172.44,-134.118 200,-127 213.676,-123.468 228.576,-120.259 242.536,-117.525"/>
<polygon fill="midnightblue" stroke="midnightblue" points="117.498,-148.859 109.215,-155.464 119.809,-155.466 117.498,-148.859"/>
</g>
<!-- Node10 -->
<g id="node10" class="node"><title>Node10</title>
<g id="a_node10"><a xlink:href="../../d0/dc0/classparser_1_1commands_1_1_to_instance.html#a8dbacb99aa09ace04695a23643f72cd7" target="_top" xlink:title="parser.commands.ToInstance.\lToInstance">
<polygon fill="white" stroke="black" points="219,-49 219,-79 379,-79 379,-49 219,-49"/>
<text text-anchor="start" x="227" y="-67" font-family="Helvetica,sans-Serif" font-size="10.00">parser.commands.ToInstance.</text>
<text text-anchor="middle" x="299" y="-56" font-family="Helvetica,sans-Serif" font-size="10.00">ToInstance</text>
</a>
</g>
</g>
<!-- Node1&#45;&gt;Node10 -->
<g id="edge10" class="edge"><title>Node1&#45;&gt;Node10</title>
<path fill="none" stroke="midnightblue" d="M102.93,-149.124C125.331,-132.002 163.374,-105.046 200,-89 208.685,-85.1951 218.066,-81.883 227.464,-79.0251"/>
<polygon fill="midnightblue" stroke="midnightblue" points="100.63,-146.478 94.8754,-155.374 104.921,-152.008 100.63,-146.478"/>
</g>
<!-- Node11 -->
<g id="node11" class="node"><title>Node11</title>
<g id="a_node11"><a xlink:href="../../d6/dc9/classparser_1_1nodes_1_1_unlimited_node.html#a4b5d0253fdc5b292e4e201eab16f3727" target="_top" xlink:title="parser.nodes.UnlimitedNode.\lUnlimitedNode">
<polygon fill="white" stroke="black" points="221,-0 221,-30 377,-30 377,-0 221,-0"/>
<text text-anchor="start" x="229" y="-18" font-family="Helvetica,sans-Serif" font-size="10.00">parser.nodes.UnlimitedNode.</text>
<text text-anchor="middle" x="299" y="-7" font-family="Helvetica,sans-Serif" font-size="10.00">UnlimitedNode</text>
</a>
</g>
</g>
<!-- Node1&#45;&gt;Node11 -->
<g id="edge11" class="edge"><title>Node1&#45;&gt;Node11</title>
<path fill="none" stroke="midnightblue" d="M94.8537,-146.827C113.735,-119.375 153.312,-67.6135 200,-40 206.574,-36.1117 213.744,-32.8229 221.117,-30.0422"/>
<polygon fill="midnightblue" stroke="midnightblue" points="91.7354,-145.192 89.0607,-155.444 97.5446,-149.098 91.7354,-145.192"/>
</g>
<!-- Node3 -->
<g id="node3" class="node"><title>Node3</title>
<g id="a_node3"><a xlink:href="../../db/dea/classparser_1_1commands_1_1_ask.html#ae3a52ad1be99031d4a926942771fd71c" target="_top" xlink:title="parser.commands.Ask.execute">
<polygon fill="white" stroke="black" points="638.5,-261.5 638.5,-280.5 803.5,-280.5 803.5,-261.5 638.5,-261.5"/>
<text text-anchor="middle" x="721" y="-268.5" font-family="Helvetica,sans-Serif" font-size="10.00">parser.commands.Ask.execute</text>
</a>
</g>
</g>
<!-- Node2&#45;&gt;Node3 -->
<g id="edge2" class="edge"><title>Node2&#45;&gt;Node3</title>
<path fill="none" stroke="midnightblue" d="M607.483,-286.674C622.315,-284.608 637.502,-282.492 651.725,-280.511"/>
<polygon fill="midnightblue" stroke="midnightblue" points="606.709,-283.248 597.287,-288.094 607.675,-290.181 606.709,-283.248"/>
</g>
<!-- Node6 -->
<g id="node6" class="node"><title>Node6</title>
<g id="a_node6"><a xlink:href="../../db/dea/classparser_1_1commands_1_1_ask.html#a658c13e8dfb321e6349eb39413f038f9" target="_top" xlink:title="parser.commands.Ask.runCode">
<polygon fill="white" stroke="black" points="434.5,-234.5 434.5,-253.5 601.5,-253.5 601.5,-234.5 434.5,-234.5"/>
<text text-anchor="middle" x="518" y="-241.5" font-family="Helvetica,sans-Serif" font-size="10.00">parser.commands.Ask.runCode</text>
</a>
</g>
</g>
<!-- Node5&#45;&gt;Node6 -->
<g id="edge5" class="edge"><title>Node5&#45;&gt;Node6</title>
<path fill="none" stroke="midnightblue" d="M390.201,-231.145C404.791,-232.624 419.836,-234.149 434.239,-235.609"/>
<polygon fill="midnightblue" stroke="midnightblue" points="390.488,-227.656 380.186,-230.129 389.782,-234.62 390.488,-227.656"/>
</g>
<!-- Node6&#45;&gt;Node3 -->
<g id="edge6" class="edge"><title>Node6&#45;&gt;Node3</title>
<path fill="none" stroke="midnightblue" d="M599.897,-254.867C616.183,-257.054 633.184,-259.338 649.097,-261.476"/>
<polygon fill="midnightblue" stroke="midnightblue" points="600.242,-251.382 589.865,-253.519 599.31,-258.319 600.242,-251.382"/>
</g>
</g>
</svg>
