<?xml version="1.0" encoding="UTF-8" standalone="no"?>
<!DOCTYPE svg PUBLIC "-//W3C//DTD SVG 1.1//EN"
 "http://www.w3.org/Graphics/SVG/1.1/DTD/svg11.dtd">
<!-- Generated by graphviz version 2.36.0 (20140111.2315)
 -->
<!-- Title: parser.nodes.ListNode.executeNodes Pages: 1 -->
<!--zoomable 185 -->
<svg id="main" version="1.1" xmlns="http://www.w3.org/2000/svg" xmlns:xlink="http://www.w3.org/1999/xlink" xml:space="preserve" onload="init(evt)">
<style type="text/css"><![CDATA[
.edge:hover path { stroke: red; }
.edge:hover polygon { stroke: red; fill: red; }
]]></style>
<script type="text/javascript"><![CDATA[
var edges = document.getElementsByTagName('g');
if (edges && edges.length) {
  for (var i=0;i<edges.length;i++) {
    if (edges[i].id.substr(0,4)=='edge') {
      edges[i].setAttribute('class','edge');
    }
  }
}
]]></script>
        <defs>
                <circle id="rim" cx="0" cy="0" r="7"/>
                <circle id="rim2" cx="0" cy="0" r="3.5"/>
                <g id="zoomPlus">
                        <use xlink:href="#rim" fill="#404040">
                                <set attributeName="fill" to="#808080" begin="zoomplus.mouseover" end="zoomplus.mouseout"/>
                        </use>
                        <path d="M-4,0h8M0,-4v8" fill="none" stroke="white" stroke-width="1.5" pointer-events="none"/>
                </g>
                <g id="zoomMin">
                        <use xlink:href="#rim" fill="#404040">
                                <set attributeName="fill" to="#808080" begin="zoomminus.mouseover" end="zoomminus.mouseout"/>
                        </use>
                        <path d="M-4,0h8" fill="none" stroke="white" stroke-width="1.5" pointer-events="none"/>
                </g>
                <g id="dirArrow">
                        <path fill="none" stroke="white" stroke-width="1.5" d="M0,-3.0v7 M-2.5,-0.5L0,-3.0L2.5,-0.5"/>
                </g>
               <g id="resetDef">
                       <use xlink:href="#rim2" fill="#404040">
                               <set attributeName="fill" to="#808080" begin="reset.mouseover" end="reset.mouseout"/>
                       </use>
               </g>
        </defs>

<script type="text/javascript">
var viewWidth = 1094;
var viewHeight = 185;
var sectionId = 'dynsection-5';
</script>
<script xlink:href="../../svgpan.js"/>
<svg id="graph" class="graph">
<g id="viewport">
<title>parser.nodes.ListNode.executeNodes</title>
<polygon fill="white" stroke="none" points="-4,4 -4,-181 1090,-181 1090,4 -4,4"/>
<!-- Node1 -->
<g id="node1" class="node"><title>Node1</title>
<polygon fill="#bfbfbf" stroke="black" points="0.5,-13 0.5,-43 165.5,-43 165.5,-13 0.5,-13"/>
<text text-anchor="start" x="8.5" y="-31" font-family="Helvetica,sans-Serif" font-size="10.00">parser.nodes.ListNode.execute</text>
<text text-anchor="middle" x="83" y="-20" font-family="Helvetica,sans-Serif" font-size="10.00">Nodes</text>
</g>
<!-- Node2 -->
<g id="node2" class="node"><title>Node2</title>
<g id="a_node2"><a xlink:href="../../d1/d4b/classparser_1_1nodes_1_1_command_root.html#ad17f6840005e54b498a8857f161cd6b1" target="_top" xlink:title="parser.nodes.CommandRoot.execute">
<polygon fill="white" stroke="black" points="202,-59.5 202,-78.5 396,-78.5 396,-59.5 202,-59.5"/>
<text text-anchor="middle" x="299" y="-66.5" font-family="Helvetica,sans-Serif" font-size="10.00">parser.nodes.CommandRoot.execute</text>
</a>
</g>
</g>
<!-- Node1&#45;&gt;Node2 -->
<g id="edge1" class="edge"><title>Node1&#45;&gt;Node2</title>
<path fill="none" stroke="midnightblue" d="M172.3,-44.9173C198.174,-49.8744 225.553,-55.1199 248.13,-59.4455"/>
<polygon fill="midnightblue" stroke="midnightblue" points="172.951,-41.4783 162.471,-43.0341 171.633,-48.3533 172.951,-41.4783"/>
</g>
<!-- Node12 -->
<g id="node12" class="node"><title>Node12</title>
<g id="a_node12"><a xlink:href="../../d4/d1c/classparser_1_1nodes_1_1_list_node.html#a82a3418e343a5d6ed112be4b7b2b0282" target="_top" xlink:title="parser.nodes.ListNode.execute">
<polygon fill="white" stroke="black" points="216.5,-18.5 216.5,-37.5 381.5,-37.5 381.5,-18.5 216.5,-18.5"/>
<text text-anchor="middle" x="299" y="-25.5" font-family="Helvetica,sans-Serif" font-size="10.00">parser.nodes.ListNode.execute</text>
</a>
</g>
</g>
<!-- Node1&#45;&gt;Node12 -->
<g id="edge11" class="edge"><title>Node1&#45;&gt;Node12</title>
<path fill="none" stroke="midnightblue" d="M175.757,-21.3113C189.255,-21.2021 203.082,-21.2388 216.358,-21.4214"/>
<polygon fill="midnightblue" stroke="midnightblue" points="175.476,-17.814 165.515,-21.4231 175.552,-24.8136 175.476,-17.814"/>
</g>
<!-- Node3 -->
<g id="node3" class="node"><title>Node3</title>
<g id="a_node3"><a xlink:href="../../d3/d42/classmodel_1_1_model.html#a8a07e7f2040e8a2ab50ec2955504f6c4" target="_top" xlink:title="model.Model.parse">
<polygon fill="white" stroke="black" points="477,-103.5 477,-122.5 585,-122.5 585,-103.5 477,-103.5"/>
<text text-anchor="middle" x="531" y="-110.5" font-family="Helvetica,sans-Serif" font-size="10.00">model.Model.parse</text>
</a>
</g>
</g>
<!-- Node2&#45;&gt;Node3 -->
<g id="edge2" class="edge"><title>Node2&#45;&gt;Node3</title>
<path fill="none" stroke="midnightblue" d="M360.157,-80.5083C397.513,-87.6546 444.95,-96.7296 480.191,-103.471"/>
<polygon fill="midnightblue" stroke="midnightblue" points="360.386,-76.9887 349.907,-78.5473 359.071,-83.8641 360.386,-76.9887"/>
</g>
<!-- Node11 -->
<g id="node11" class="node"><title>Node11</title>
<g id="a_node11"><a xlink:href="../../d5/dc1/classparser_1_1commands_1_1_parser_test.html#a6a3cc2c0d6ca8b502de3cad94a6ad0a5" target="_top" xlink:title="parser.commands.ParserTest.test\lParse">
<polygon fill="white" stroke="black" points="442.5,-54 442.5,-84 619.5,-84 619.5,-54 442.5,-54"/>
<text text-anchor="start" x="450.5" y="-72" font-family="Helvetica,sans-Serif" font-size="10.00">parser.commands.ParserTest.test</text>
<text text-anchor="middle" x="531" y="-61" font-family="Helvetica,sans-Serif" font-size="10.00">Parse</text>
</a>
</g>
</g>
<!-- Node2&#45;&gt;Node11 -->
<g id="edge10" class="edge"><title>Node2&#45;&gt;Node11</title>
<path fill="none" stroke="midnightblue" d="M406.279,-69C418.317,-69 430.484,-69 442.247,-69"/>
<polygon fill="midnightblue" stroke="midnightblue" points="406.208,-65.5001 396.208,-69 406.208,-72.5001 406.208,-65.5001"/>
</g>
<!-- Node4 -->
<g id="node4" class="node"><title>Node4</title>
<g id="a_node4"><a xlink:href="../../d3/dbe/classview_1_1_view.html#ab8b25d25b79752feed7b786ed496f642" target="_top" xlink:title="view.View.loadLibrary">
<polygon fill="white" stroke="black" points="704,-147.5 704,-166.5 820,-166.5 820,-147.5 704,-147.5"/>
<text text-anchor="middle" x="762" y="-154.5" font-family="Helvetica,sans-Serif" font-size="10.00">view.View.loadLibrary</text>
</a>
</g>
</g>
<!-- Node3&#45;&gt;Node4 -->
<g id="edge3" class="edge"><title>Node3&#45;&gt;Node4</title>
<path fill="none" stroke="midnightblue" d="M591.895,-124.508C629.089,-131.655 676.32,-140.73 711.407,-147.471"/>
<polygon fill="midnightblue" stroke="midnightblue" points="592.17,-120.997 581.69,-122.547 590.85,-127.871 592.17,-120.997"/>
</g>
<!-- Node5 -->
<g id="node5" class="node"><title>Node5</title>
<g id="a_node5"><a xlink:href="../../da/df5/classview_1_1listwindows_1_1_commands_list_window.html#a3611428a65d6e7a436971f1b237e644e" target="_top" xlink:title="view.listwindows.Commands\lListWindow.parseCommand">
<polygon fill="white" stroke="black" points="687,-98 687,-128 837,-128 837,-98 687,-98"/>
<text text-anchor="start" x="695" y="-116" font-family="Helvetica,sans-Serif" font-size="10.00">view.listwindows.Commands</text>
<text text-anchor="middle" x="762" y="-105" font-family="Helvetica,sans-Serif" font-size="10.00">ListWindow.parseCommand</text>
</a>
</g>
</g>
<!-- Node3&#45;&gt;Node5 -->
<g id="edge4" class="edge"><title>Node3&#45;&gt;Node5</title>
<path fill="none" stroke="midnightblue" d="M595.315,-113C623.703,-113 657.376,-113 686.927,-113"/>
<polygon fill="midnightblue" stroke="midnightblue" points="595.113,-109.5 585.113,-113 595.113,-116.5 595.113,-109.5"/>
</g>
<!-- Node8 -->
<g id="node8" class="node"><title>Node8</title>
<g id="a_node8"><a xlink:href="../../db/d98/classview_1_1components_1_1_command_port.html#a687e2098038140e833e1bac1a759b587" target="_top" xlink:title="view.components.CommandPort.run\lCommand">
<polygon fill="white" stroke="black" points="666.5,-49 666.5,-79 857.5,-79 857.5,-49 666.5,-49"/>
<text text-anchor="start" x="674.5" y="-67" font-family="Helvetica,sans-Serif" font-size="10.00">view.components.CommandPort.run</text>
<text text-anchor="middle" x="762" y="-56" font-family="Helvetica,sans-Serif" font-size="10.00">Command</text>
</a>
</g>
</g>
<!-- Node3&#45;&gt;Node8 -->
<g id="edge7" class="edge"><title>Node3&#45;&gt;Node8</title>
<path fill="none" stroke="midnightblue" d="M589.4,-101.451C602.736,-98.7222 616.871,-95.7926 630,-93 650.847,-88.5655 673.527,-83.5962 694.067,-79.041"/>
<polygon fill="midnightblue" stroke="midnightblue" points="588.485,-98.0658 579.387,-103.494 589.884,-104.925 588.485,-98.0658"/>
</g>
<!-- Node6 -->
<g id="node6" class="node"><title>Node6</title>
<g id="a_node6"><a xlink:href="../../df/d26/classview_1_1listwindows_1_1_commands_history_window.html#af341417d427f8b0548670f1efbb3acac" target="_top" xlink:title="view.listwindows.Commands\lHistoryWindow.setButtonAction">
<polygon fill="white" stroke="black" points="907.5,-147 907.5,-177 1072.5,-177 1072.5,-147 907.5,-147"/>
<text text-anchor="start" x="915.5" y="-165" font-family="Helvetica,sans-Serif" font-size="10.00">view.listwindows.Commands</text>
<text text-anchor="middle" x="990" y="-154" font-family="Helvetica,sans-Serif" font-size="10.00">HistoryWindow.setButtonAction</text>
</a>
</g>
</g>
<!-- Node5&#45;&gt;Node6 -->
<g id="edge5" class="edge"><title>Node5&#45;&gt;Node6</title>
<path fill="none" stroke="midnightblue" d="M842.263,-130.185C867.535,-135.665 895.286,-141.682 919.788,-146.994"/>
<polygon fill="midnightblue" stroke="midnightblue" points="842.858,-126.733 832.343,-128.035 841.375,-133.574 842.858,-126.733"/>
</g>
<!-- Node7 -->
<g id="node7" class="node"><title>Node7</title>
<g id="a_node7"><a xlink:href="../../d7/dc7/classview_1_1listwindows_1_1_user_defined_commands_window.html#adaf32233789f6a07c42b4e459699bf53" target="_top" xlink:title="view.listwindows.UserDefined\lCommandsWindow.setButtonAction">
<polygon fill="white" stroke="black" points="896.5,-98 896.5,-128 1083.5,-128 1083.5,-98 896.5,-98"/>
<text text-anchor="start" x="904.5" y="-116" font-family="Helvetica,sans-Serif" font-size="10.00">view.listwindows.UserDefined</text>
<text text-anchor="middle" x="990" y="-105" font-family="Helvetica,sans-Serif" font-size="10.00">CommandsWindow.setButtonAction</text>
</a>
</g>
</g>
<!-- Node5&#45;&gt;Node7 -->
<g id="edge6" class="edge"><title>Node5&#45;&gt;Node7</title>
<path fill="none" stroke="midnightblue" d="M847.348,-113C863.295,-113 880.058,-113 896.247,-113"/>
<polygon fill="midnightblue" stroke="midnightblue" points="847.001,-109.5 837.001,-113 847.001,-116.5 847.001,-109.5"/>
</g>
<!-- Node9 -->
<g id="node9" class="node"><title>Node9</title>
<g id="a_node9"><a xlink:href="../../db/d98/classview_1_1components_1_1_command_port.html#a37ae451233579691839c4a52072c94e9" target="_top" xlink:title="view.components.CommandPort.\lCommandPort">
<polygon fill="white" stroke="black" points="902.5,-49 902.5,-79 1077.5,-79 1077.5,-49 902.5,-49"/>
<text text-anchor="start" x="910.5" y="-67" font-family="Helvetica,sans-Serif" font-size="10.00">view.components.CommandPort.</text>
<text text-anchor="middle" x="990" y="-56" font-family="Helvetica,sans-Serif" font-size="10.00">CommandPort</text>
</a>
</g>
</g>
<!-- Node8&#45;&gt;Node9 -->
<g id="edge8" class="edge"><title>Node8&#45;&gt;Node9</title>
<path fill="none" stroke="midnightblue" d="M867.702,-64C879.321,-64 891.056,-64 902.415,-64"/>
<polygon fill="midnightblue" stroke="midnightblue" points="867.535,-60.5001 857.535,-64 867.535,-67.5001 867.535,-60.5001"/>
</g>
<!-- Node10 -->
<g id="node10" class="node"><title>Node10</title>
<g id="a_node10"><a xlink:href="../../db/d98/classview_1_1components_1_1_command_port.html#afcdcfbfa864e7438dc0f0a3f1c541294" target="_top" xlink:title="view.components.CommandPort.run\lCommand">
<polygon fill="white" stroke="black" points="894.5,-0 894.5,-30 1085.5,-30 1085.5,-0 894.5,-0"/>
<text text-anchor="start" x="902.5" y="-18" font-family="Helvetica,sans-Serif" font-size="10.00">view.components.CommandPort.run</text>
<text text-anchor="middle" x="990" y="-7" font-family="Helvetica,sans-Serif" font-size="10.00">Command</text>
</a>
</g>
</g>
<!-- Node8&#45;&gt;Node10 -->
<g id="edge9" class="edge"><title>Node8&#45;&gt;Node10</title>
<path fill="none" stroke="midnightblue" d="M842.263,-46.8146C867.535,-41.3353 895.286,-35.3185 919.788,-30.0062"/>
<polygon fill="midnightblue" stroke="midnightblue" points="841.375,-43.4259 832.343,-48.9654 842.858,-50.2669 841.375,-43.4259"/>
</g>
<!-- Node12&#45;&gt;Node1 -->
<g id="edge13" class="edge"><title>Node12&#45;&gt;Node1</title>
<path fill="none" stroke="midnightblue" d="M206.113,-34.6898C192.613,-34.798 178.786,-34.7604 165.515,-34.5769"/>
<polygon fill="midnightblue" stroke="midnightblue" points="206.396,-38.187 216.358,-34.5786 206.32,-31.1874 206.396,-38.187"/>
</g>
<!-- Node13 -->
<g id="node13" class="node"><title>Node13</title>
<g id="a_node13"><a xlink:href="../../d0/dc0/classparser_1_1commands_1_1_to_instance.html#a8f4cda9acc56d7b3f166d95a059b3f36" target="_top" xlink:title="parser.commands.ToInstance.execute">
<polygon fill="white" stroke="black" points="432,-15.5 432,-34.5 630,-34.5 630,-15.5 432,-15.5"/>
<text text-anchor="middle" x="531" y="-22.5" font-family="Helvetica,sans-Serif" font-size="10.00">parser.commands.ToInstance.execute</text>
</a>
</g>
</g>
<!-- Node12&#45;&gt;Node13 -->
<g id="edge12" class="edge"><title>Node12&#45;&gt;Node13</title>
<path fill="none" stroke="midnightblue" d="M391.759,-26.8031C404.99,-26.6306 418.649,-26.4524 431.995,-26.2783"/>
<polygon fill="midnightblue" stroke="midnightblue" points="391.69,-23.3036 381.737,-26.9339 391.782,-30.303 391.69,-23.3036"/>
</g>
</g>
</svg>
        <g id="navigator" transform="translate(0 0)" fill="#404254">
                <rect fill="#f2f5e9" fill-opacity="0.5" stroke="#606060" stroke-width=".5" x="0" y="0" width="60" height="60"/>
                <use id="zoomplus" xlink:href="#zoomPlus" x="17" y="9" onmousedown="handleZoom(evt,'in')"/>
                <use id="zoomminus" xlink:href="#zoomMin" x="42" y="9" onmousedown="handleZoom(evt,'out')"/>
                <use id="reset" xlink:href="#resetDef" x="30" y="36" onmousedown="handleReset()"/>
                <g id="arrowUp" xlink:href="#dirArrow" transform="translate(30 24)" onmousedown="handlePan(0,-1)">
                  <use xlink:href="#rim" fill="#404040">
                        <set attributeName="fill" to="#808080" begin="arrowUp.mouseover" end="arrowUp.mouseout"/>
                  </use>
                  <path fill="none" stroke="white" stroke-width="1.5" d="M0,-3.0v7 M-2.5,-0.5L0,-3.0L2.5,-0.5"/>
                </g>
                <g id="arrowRight" xlink:href="#dirArrow" transform="rotate(90) translate(36 -43)" onmousedown="handlePan(1,0)">
                  <use xlink:href="#rim" fill="#404040">
                        <set attributeName="fill" to="#808080" begin="arrowRight.mouseover" end="arrowRight.mouseout"/>
                  </use>
                  <path fill="none" stroke="white" stroke-width="1.5" d="M0,-3.0v7 M-2.5,-0.5L0,-3.0L2.5,-0.5"/>
                </g>
                <g id="arrowDown" xlink:href="#dirArrow" transform="rotate(180) translate(-30 -48)" onmousedown="handlePan(0,1)">
                  <use xlink:href="#rim" fill="#404040">
                        <set attributeName="fill" to="#808080" begin="arrowDown.mouseover" end="arrowDown.mouseout"/>
                  </use>
                  <path fill="none" stroke="white" stroke-width="1.5" d="M0,-3.0v7 M-2.5,-0.5L0,-3.0L2.5,-0.5"/>
                </g>
                <g id="arrowLeft" xlink:href="#dirArrow" transform="rotate(270) translate(-36 17)" onmousedown="handlePan(-1,0)">
                  <use xlink:href="#rim" fill="#404040">
                        <set attributeName="fill" to="#808080" begin="arrowLeft.mouseover" end="arrowLeft.mouseout"/>
                  </use>
                  <path fill="none" stroke="white" stroke-width="1.5" d="M0,-3.0v7 M-2.5,-0.5L0,-3.0L2.5,-0.5"/>
                </g>
        </g>
        <svg viewBox="0 0 15 15" width="100%" height="30px" preserveAspectRatio="xMaxYMin meet">
         <g id="arrow_out" transform="scale(0.3 0.3)">
          <a xlink:href="classparser_1_1nodes_1_1_list_node_a8f67ed3b41ee000feaf89f783def5697_icgraph_org.svg" target="_base">
           <rect id="button" ry="5" rx="5" y="6" x="6" height="38" width="38"
                fill="#f2f5e9" fill-opacity="0.5" stroke="#606060" stroke-width="1.0"/>
           <path id="arrow"
             d="M 11.500037,31.436501 C 11.940474,20.09759 22.043105,11.32322 32.158766,21.979434 L 37.068811,17.246167 C 37.068811,17.246167 37.088388,32 37.088388,32 L 22.160133,31.978069 C 22.160133,31.978069 26.997745,27.140456 26.997745,27.140456 C 18.528582,18.264221 13.291696,25.230495 11.500037,31.436501 z"
             style="fill:#404040;"/>
          </a>
         </g>
        </svg>
</svg>
