<?xml version="1.0" encoding="UTF-8" standalone="no"?>
<!DOCTYPE svg PUBLIC "-//W3C//DTD SVG 1.1//EN"
 "http://www.w3.org/Graphics/SVG/1.1/DTD/svg11.dtd">
<!-- Generated by graphviz version 2.36.0 (20140111.2315)
 -->
<!-- Title: parser.nodes.ListNode.execute Pages: 1 -->
<svg width="1308pt" height="185pt"
 viewBox="0.00 0.00 1308.00 185.00" xmlns="http://www.w3.org/2000/svg" xmlns:xlink="http://www.w3.org/1999/xlink">
<g id="graph0" class="graph" transform="scale(1 1) rotate(0) translate(4 181)">
<title>parser.nodes.ListNode.execute</title>
<polygon fill="white" stroke="none" points="-4,4 -4,-181 1304,-181 1304,4 -4,4"/>
<!-- Node1 -->
<g id="node1" class="node"><title>Node1</title>
<polygon fill="#bfbfbf" stroke="black" points="0.5,-81.5 0.5,-100.5 165.5,-100.5 165.5,-81.5 0.5,-81.5"/>
<text text-anchor="middle" x="83" y="-88.5" font-family="Helvetica,sans-Serif" font-size="10.00">parser.nodes.ListNode.execute</text>
</g>
<!-- Node2 -->
<g id="node2" class="node"><title>Node2</title>
<g id="a_node2"><a xlink:href="../../d0/dc0/classparser_1_1commands_1_1_to_instance.html#a8f4cda9acc56d7b3f166d95a059b3f36" target="_top" xlink:title="parser.commands.ToInstance.execute">
<polygon fill="white" stroke="black" points="202,-125.5 202,-144.5 400,-144.5 400,-125.5 202,-125.5"/>
<text text-anchor="middle" x="301" y="-132.5" font-family="Helvetica,sans-Serif" font-size="10.00">parser.commands.ToInstance.execute</text>
</a>
</g>
</g>
<!-- Node1&#45;&gt;Node2 -->
<g id="edge1" class="edge"><title>Node1&#45;&gt;Node2</title>
<path fill="none" stroke="midnightblue" d="M140.946,-102.6C175.958,-109.732 220.268,-118.758 253.223,-125.471"/>
<polygon fill="midnightblue" stroke="midnightblue" points="141.366,-99.1139 130.869,-100.547 139.969,-105.973 141.366,-99.1139"/>
</g>
<!-- Node3 -->
<g id="node3" class="node"><title>Node3</title>
<g id="a_node3"><a xlink:href="../../d4/d1c/classparser_1_1nodes_1_1_list_node.html#a8f67ed3b41ee000feaf89f783def5697" target="_top" xlink:title="parser.nodes.ListNode.execute\lNodes">
<polygon fill="white" stroke="black" points="218.5,-76 218.5,-106 383.5,-106 383.5,-76 218.5,-76"/>
<text text-anchor="start" x="226.5" y="-94" font-family="Helvetica,sans-Serif" font-size="10.00">parser.nodes.ListNode.execute</text>
<text text-anchor="middle" x="301" y="-83" font-family="Helvetica,sans-Serif" font-size="10.00">Nodes</text>
</a>
</g>
</g>
<!-- Node1&#45;&gt;Node3 -->
<g id="edge2" class="edge"><title>Node1&#45;&gt;Node3</title>
<path fill="none" stroke="midnightblue" d="M175.835,-84.3177C189.919,-84.199 204.377,-84.2364 218.224,-84.4301"/>
<polygon fill="midnightblue" stroke="midnightblue" points="175.62,-80.8197 165.66,-84.4317 175.699,-87.8193 175.62,-80.8197"/>
</g>
<!-- Node3&#45;&gt;Node1 -->
<g id="edge13" class="edge"><title>Node3&#45;&gt;Node1</title>
<path fill="none" stroke="midnightblue" d="M208.048,-97.6833C193.962,-97.8012 179.504,-97.7628 165.66,-97.5683"/>
<polygon fill="midnightblue" stroke="midnightblue" points="208.264,-101.181 218.224,-97.5699 208.186,-94.1817 208.264,-101.181"/>
</g>
<!-- Node4 -->
<g id="node4" class="node"><title>Node4</title>
<g id="a_node4"><a xlink:href="../../d1/d4b/classparser_1_1nodes_1_1_command_root.html#ad17f6840005e54b498a8857f161cd6b1" target="_top" xlink:title="parser.nodes.CommandRoot.execute">
<polygon fill="white" stroke="black" points="436,-81.5 436,-100.5 630,-100.5 630,-81.5 436,-81.5"/>
<text text-anchor="middle" x="533" y="-88.5" font-family="Helvetica,sans-Serif" font-size="10.00">parser.nodes.CommandRoot.execute</text>
</a>
</g>
</g>
<!-- Node3&#45;&gt;Node4 -->
<g id="edge3" class="edge"><title>Node3&#45;&gt;Node4</title>
<path fill="none" stroke="midnightblue" d="M393.756,-91C407.646,-91 422.009,-91 435.987,-91"/>
<polygon fill="midnightblue" stroke="midnightblue" points="393.737,-87.5001 383.737,-91 393.737,-94.5001 393.737,-87.5001"/>
</g>
<!-- Node5 -->
<g id="node5" class="node"><title>Node5</title>
<g id="a_node5"><a xlink:href="../../d3/d42/classmodel_1_1_model.html#a8a07e7f2040e8a2ab50ec2955504f6c4" target="_top" xlink:title="model.Model.parse">
<polygon fill="white" stroke="black" points="701,-103.5 701,-122.5 809,-122.5 809,-103.5 701,-103.5"/>
<text text-anchor="middle" x="755" y="-110.5" font-family="Helvetica,sans-Serif" font-size="10.00">model.Model.parse</text>
</a>
</g>
</g>
<!-- Node4&#45;&gt;Node5 -->
<g id="edge4" class="edge"><title>Node4&#45;&gt;Node5</title>
<path fill="none" stroke="midnightblue" d="M639.309,-101.531C660.617,-103.662 682.16,-105.816 700.732,-107.673"/>
<polygon fill="midnightblue" stroke="midnightblue" points="639.514,-98.0341 629.216,-100.522 638.818,-104.999 639.514,-98.0341"/>
</g>
<!-- Node13 -->
<g id="node13" class="node"><title>Node13</title>
<g id="a_node13"><a xlink:href="../../d5/dc1/classparser_1_1commands_1_1_parser_test.html#a6a3cc2c0d6ca8b502de3cad94a6ad0a5" target="_top" xlink:title="parser.commands.ParserTest.test\lParse">
<polygon fill="white" stroke="black" points="666.5,-54 666.5,-84 843.5,-84 843.5,-54 666.5,-54"/>
<text text-anchor="start" x="674.5" y="-72" font-family="Helvetica,sans-Serif" font-size="10.00">parser.commands.ParserTest.test</text>
<text text-anchor="middle" x="755" y="-61" font-family="Helvetica,sans-Serif" font-size="10.00">Parse</text>
</a>
</g>
</g>
<!-- Node4&#45;&gt;Node13 -->
<g id="edge12" class="edge"><title>Node4&#45;&gt;Node13</title>
<path fill="none" stroke="midnightblue" d="M639.357,-80.4643C648.366,-79.5634 657.417,-78.6583 666.267,-77.7733"/>
<polygon fill="midnightblue" stroke="midnightblue" points="638.818,-77.0007 629.216,-81.4784 639.514,-83.9659 638.818,-77.0007"/>
</g>
<!-- Node6 -->
<g id="node6" class="node"><title>Node6</title>
<g id="a_node6"><a xlink:href="../../d3/dbe/classview_1_1_view.html#ab8b25d25b79752feed7b786ed496f642" target="_top" xlink:title="view.View.loadLibrary">
<polygon fill="white" stroke="black" points="918,-147.5 918,-166.5 1034,-166.5 1034,-147.5 918,-147.5"/>
<text text-anchor="middle" x="976" y="-154.5" font-family="Helvetica,sans-Serif" font-size="10.00">view.View.loadLibrary</text>
</a>
</g>
</g>
<!-- Node5&#45;&gt;Node6 -->
<g id="edge5" class="edge"><title>Node5&#45;&gt;Node6</title>
<path fill="none" stroke="midnightblue" d="M813.736,-124.6C849.235,-131.732 894.161,-140.758 927.573,-147.471"/>
<polygon fill="midnightblue" stroke="midnightblue" points="814.013,-121.086 803.52,-122.547 812.634,-127.949 814.013,-121.086"/>
</g>
<!-- Node7 -->
<g id="node7" class="node"><title>Node7</title>
<g id="a_node7"><a xlink:href="../../da/df5/classview_1_1listwindows_1_1_commands_list_window.html#a3611428a65d6e7a436971f1b237e644e" target="_top" xlink:title="view.listwindows.Commands\lListWindow.parseCommand">
<polygon fill="white" stroke="black" points="901,-98 901,-128 1051,-128 1051,-98 901,-98"/>
<text text-anchor="start" x="909" y="-116" font-family="Helvetica,sans-Serif" font-size="10.00">view.listwindows.Commands</text>
<text text-anchor="middle" x="976" y="-105" font-family="Helvetica,sans-Serif" font-size="10.00">ListWindow.parseCommand</text>
</a>
</g>
</g>
<!-- Node5&#45;&gt;Node7 -->
<g id="edge6" class="edge"><title>Node5&#45;&gt;Node7</title>
<path fill="none" stroke="midnightblue" d="M819.31,-113C844.831,-113 874.451,-113 900.962,-113"/>
<polygon fill="midnightblue" stroke="midnightblue" points="819.014,-109.5 809.014,-113 819.014,-116.5 819.014,-109.5"/>
</g>
<!-- Node10 -->
<g id="node10" class="node"><title>Node10</title>
<g id="a_node10"><a xlink:href="../../db/d98/classview_1_1components_1_1_command_port.html#a687e2098038140e833e1bac1a759b587" target="_top" xlink:title="view.components.CommandPort.run\lCommand">
<polygon fill="white" stroke="black" points="880.5,-49 880.5,-79 1071.5,-79 1071.5,-49 880.5,-49"/>
<text text-anchor="start" x="888.5" y="-67" font-family="Helvetica,sans-Serif" font-size="10.00">view.components.CommandPort.run</text>
<text text-anchor="middle" x="976" y="-56" font-family="Helvetica,sans-Serif" font-size="10.00">Command</text>
</a>
</g>
</g>
<!-- Node5&#45;&gt;Node10 -->
<g id="edge9" class="edge"><title>Node5&#45;&gt;Node10</title>
<path fill="none" stroke="midnightblue" d="M808.262,-101.307C838.037,-94.6446 875.667,-86.2251 907.641,-79.0713"/>
<polygon fill="midnightblue" stroke="midnightblue" points="807.48,-97.8951 798.485,-103.494 809.008,-104.726 807.48,-97.8951"/>
</g>
<!-- Node8 -->
<g id="node8" class="node"><title>Node8</title>
<g id="a_node8"><a xlink:href="../../df/d26/classview_1_1listwindows_1_1_commands_history_window.html#af341417d427f8b0548670f1efbb3acac" target="_top" xlink:title="view.listwindows.Commands\lHistoryWindow.setButtonAction">
<polygon fill="white" stroke="black" points="1121.5,-147 1121.5,-177 1286.5,-177 1286.5,-147 1121.5,-147"/>
<text text-anchor="start" x="1129.5" y="-165" font-family="Helvetica,sans-Serif" font-size="10.00">view.listwindows.Commands</text>
<text text-anchor="middle" x="1204" y="-154" font-family="Helvetica,sans-Serif" font-size="10.00">HistoryWindow.setButtonAction</text>
</a>
</g>
</g>
<!-- Node7&#45;&gt;Node8 -->
<g id="edge7" class="edge"><title>Node7&#45;&gt;Node8</title>
<path fill="none" stroke="midnightblue" d="M1056.26,-130.185C1081.54,-135.665 1109.29,-141.682 1133.79,-146.994"/>
<polygon fill="midnightblue" stroke="midnightblue" points="1056.86,-126.733 1046.34,-128.035 1055.37,-133.574 1056.86,-126.733"/>
</g>
<!-- Node9 -->
<g id="node9" class="node"><title>Node9</title>
<g id="a_node9"><a xlink:href="../../d7/dc7/classview_1_1listwindows_1_1_user_defined_commands_window.html#adaf32233789f6a07c42b4e459699bf53" target="_top" xlink:title="view.listwindows.UserDefined\lCommandsWindow.setButtonAction">
<polygon fill="white" stroke="black" points="1110.5,-98 1110.5,-128 1297.5,-128 1297.5,-98 1110.5,-98"/>
<text text-anchor="start" x="1118.5" y="-116" font-family="Helvetica,sans-Serif" font-size="10.00">view.listwindows.UserDefined</text>
<text text-anchor="middle" x="1204" y="-105" font-family="Helvetica,sans-Serif" font-size="10.00">CommandsWindow.setButtonAction</text>
</a>
</g>
</g>
<!-- Node7&#45;&gt;Node9 -->
<g id="edge8" class="edge"><title>Node7&#45;&gt;Node9</title>
<path fill="none" stroke="midnightblue" d="M1061.35,-113C1077.3,-113 1094.06,-113 1110.25,-113"/>
<polygon fill="midnightblue" stroke="midnightblue" points="1061,-109.5 1051,-113 1061,-116.5 1061,-109.5"/>
</g>
<!-- Node11 -->
<g id="node11" class="node"><title>Node11</title>
<g id="a_node11"><a xlink:href="../../db/d98/classview_1_1components_1_1_command_port.html#a37ae451233579691839c4a52072c94e9" target="_top" xlink:title="view.components.CommandPort.\lCommandPort">
<polygon fill="white" stroke="black" points="1116.5,-49 1116.5,-79 1291.5,-79 1291.5,-49 1116.5,-49"/>
<text text-anchor="start" x="1124.5" y="-67" font-family="Helvetica,sans-Serif" font-size="10.00">view.components.CommandPort.</text>
<text text-anchor="middle" x="1204" y="-56" font-family="Helvetica,sans-Serif" font-size="10.00">CommandPort</text>
</a>
</g>
</g>
<!-- Node10&#45;&gt;Node11 -->
<g id="edge10" class="edge"><title>Node10&#45;&gt;Node11</title>
<path fill="none" stroke="midnightblue" d="M1081.7,-64C1093.32,-64 1105.06,-64 1116.42,-64"/>
<polygon fill="midnightblue" stroke="midnightblue" points="1081.53,-60.5001 1071.53,-64 1081.53,-67.5001 1081.53,-60.5001"/>
</g>
<!-- Node12 -->
<g id="node12" class="node"><title>Node12</title>
<g id="a_node12"><a xlink:href="../../db/d98/classview_1_1components_1_1_command_port.html#afcdcfbfa864e7438dc0f0a3f1c541294" target="_top" xlink:title="view.components.CommandPort.run\lCommand">
<polygon fill="white" stroke="black" points="1108.5,-0 1108.5,-30 1299.5,-30 1299.5,-0 1108.5,-0"/>
<text text-anchor="start" x="1116.5" y="-18" font-family="Helvetica,sans-Serif" font-size="10.00">view.components.CommandPort.run</text>
<text text-anchor="middle" x="1204" y="-7" font-family="Helvetica,sans-Serif" font-size="10.00">Command</text>
</a>
</g>
</g>
<!-- Node10&#45;&gt;Node12 -->
<g id="edge11" class="edge"><title>Node10&#45;&gt;Node12</title>
<path fill="none" stroke="midnightblue" d="M1056.26,-46.8146C1081.54,-41.3353 1109.29,-35.3185 1133.79,-30.0062"/>
<polygon fill="midnightblue" stroke="midnightblue" points="1055.37,-43.4259 1046.34,-48.9654 1056.86,-50.2669 1055.37,-43.4259"/>
</g>
</g>
</svg>
