<?xml version="1.0" encoding="UTF-8" standalone="no"?>
<!DOCTYPE svg PUBLIC "-//W3C//DTD SVG 1.1//EN"
 "http://www.w3.org/Graphics/SVG/1.1/DTD/svg11.dtd">
<!-- Generated by graphviz version 2.36.0 (20140111.2315)
 -->
<!-- Title: parser.parser.Parser.setActiveState Pages: 1 -->
<svg width="1516pt" height="273pt"
 viewBox="0.00 0.00 1516.00 273.00" xmlns="http://www.w3.org/2000/svg" xmlns:xlink="http://www.w3.org/1999/xlink">
<g id="graph0" class="graph" transform="scale(1 1) rotate(0) translate(4 269)">
<title>parser.parser.Parser.setActiveState</title>
<polygon fill="white" stroke="none" points="-4,4 -4,-269 1512,-269 1512,4 -4,4"/>
<!-- Node1 -->
<g id="node1" class="node"><title>Node1</title>
<polygon fill="#bfbfbf" stroke="black" points="0,-58 0,-88 130,-88 130,-58 0,-58"/>
<text text-anchor="start" x="8" y="-76" font-family="Helvetica,sans-Serif" font-size="10.00">parser.parser.Parser.set</text>
<text text-anchor="middle" x="65" y="-65" font-family="Helvetica,sans-Serif" font-size="10.00">ActiveState</text>
</g>
<!-- Node2 -->
<g id="node2" class="node"><title>Node2</title>
<g id="a_node2"><a xlink:href="../../d3/d42/classmodel_1_1_model.html#a068261e6e8761ccabf6d227ee17732ea" target="_top" xlink:title="model.Model.setState">
<polygon fill="white" stroke="black" points="194,-85.5 194,-104.5 316,-104.5 316,-85.5 194,-85.5"/>
<text text-anchor="middle" x="255" y="-92.5" font-family="Helvetica,sans-Serif" font-size="10.00">model.Model.setState</text>
</a>
</g>
</g>
<!-- Node1&#45;&gt;Node2 -->
<g id="edge1" class="edge"><title>Node1&#45;&gt;Node2</title>
<path fill="none" stroke="midnightblue" d="M140.482,-81.716C158.217,-83.7913 176.92,-85.98 193.916,-87.9689"/>
<polygon fill="midnightblue" stroke="midnightblue" points="140.512,-78.1957 130.173,-80.5096 139.699,-85.1483 140.512,-78.1957"/>
</g>
<!-- Node19 -->
<g id="node19" class="node"><title>Node19</title>
<g id="a_node19"><a xlink:href="../../d5/dc1/classparser_1_1commands_1_1_parser_test.html#a6a3cc2c0d6ca8b502de3cad94a6ad0a5" target="_top" xlink:title="parser.commands.ParserTest.test\lParse">
<polygon fill="white" stroke="black" points="166.5,-36 166.5,-66 343.5,-66 343.5,-36 166.5,-36"/>
<text text-anchor="start" x="174.5" y="-54" font-family="Helvetica,sans-Serif" font-size="10.00">parser.commands.ParserTest.test</text>
<text text-anchor="middle" x="255" y="-43" font-family="Helvetica,sans-Serif" font-size="10.00">Parse</text>
</a>
</g>
</g>
<!-- Node1&#45;&gt;Node19 -->
<g id="edge20" class="edge"><title>Node1&#45;&gt;Node19</title>
<path fill="none" stroke="midnightblue" d="M140.377,-64.2963C148.85,-63.3048 157.544,-62.2873 166.17,-61.278"/>
<polygon fill="midnightblue" stroke="midnightblue" points="139.699,-60.8517 130.173,-65.4904 140.512,-67.8043 139.699,-60.8517"/>
</g>
<!-- Node3 -->
<g id="node3" class="node"><title>Node3</title>
<g id="a_node3"><a xlink:href="../../d3/d42/classmodel_1_1_model.html#af870d64d87a18f6cd1a84a77ff6dc3a1" target="_top" xlink:title="model.Model.Model">
<polygon fill="white" stroke="black" points="380,-115.5 380,-134.5 490,-134.5 490,-115.5 380,-115.5"/>
<text text-anchor="middle" x="435" y="-122.5" font-family="Helvetica,sans-Serif" font-size="10.00">model.Model.Model</text>
</a>
</g>
</g>
<!-- Node2&#45;&gt;Node3 -->
<g id="edge2" class="edge"><title>Node2&#45;&gt;Node3</title>
<path fill="none" stroke="midnightblue" d="M322.801,-106.259C341.626,-109.431 361.866,-112.843 379.851,-115.874"/>
<polygon fill="midnightblue" stroke="midnightblue" points="323.252,-102.785 312.81,-104.575 322.089,-109.688 323.252,-102.785"/>
</g>
<!-- Node13 -->
<g id="node13" class="node"><title>Node13</title>
<g id="a_node13"><a xlink:href="../../d3/dbe/classview_1_1_view.html#a43a4310c3789a93e0fa6b98b0bb4f8aa" target="_top" xlink:title="view.View.tabChangeUpdate">
<polygon fill="white" stroke="black" points="720.5,-50.5 720.5,-69.5 871.5,-69.5 871.5,-50.5 720.5,-50.5"/>
<text text-anchor="middle" x="796" y="-57.5" font-family="Helvetica,sans-Serif" font-size="10.00">view.View.tabChangeUpdate</text>
</a>
</g>
</g>
<!-- Node2&#45;&gt;Node13 -->
<g id="edge19" class="edge"><title>Node2&#45;&gt;Node13</title>
<path fill="none" stroke="midnightblue" d="M326.187,-90.4424C428.076,-83.8262 616.139,-71.6143 720.434,-64.8419"/>
<polygon fill="midnightblue" stroke="midnightblue" points="325.753,-86.9631 316.001,-91.1038 326.207,-93.9484 325.753,-86.9631"/>
</g>
<!-- Node4 -->
<g id="node4" class="node"><title>Node4</title>
<g id="a_node4"><a xlink:href="../../d3/d42/classmodel_1_1_model.html#a58696dcb49d5de7290734289922cd126" target="_top" xlink:title="model.Model.getInstance">
<polygon fill="white" stroke="black" points="526.5,-126.5 526.5,-145.5 663.5,-145.5 663.5,-126.5 526.5,-126.5"/>
<text text-anchor="middle" x="595" y="-133.5" font-family="Helvetica,sans-Serif" font-size="10.00">model.Model.getInstance</text>
</a>
</g>
</g>
<!-- Node3&#45;&gt;Node4 -->
<g id="edge3" class="edge"><title>Node3&#45;&gt;Node4</title>
<path fill="none" stroke="midnightblue" d="M500.608,-129.498C509.113,-130.09 517.849,-130.698 526.403,-131.294"/>
<polygon fill="midnightblue" stroke="midnightblue" points="500.594,-125.989 490.375,-128.786 500.107,-132.972 500.594,-125.989"/>
</g>
<!-- Node5 -->
<g id="node5" class="node"><title>Node5</title>
<g id="a_node5"><a xlink:href="../../d3/dbe/classview_1_1_view.html#ab8b25d25b79752feed7b786ed496f642" target="_top" xlink:title="view.View.loadLibrary">
<polygon fill="white" stroke="black" points="738,-233.5 738,-252.5 854,-252.5 854,-233.5 738,-233.5"/>
<text text-anchor="middle" x="796" y="-240.5" font-family="Helvetica,sans-Serif" font-size="10.00">view.View.loadLibrary</text>
</a>
</g>
</g>
<!-- Node4&#45;&gt;Node5 -->
<g id="edge4" class="edge"><title>Node4&#45;&gt;Node5</title>
<path fill="none" stroke="midnightblue" d="M611.261,-153.071C630.1,-173.032 664.08,-205.557 700,-223 711.674,-228.669 724.92,-232.737 737.737,-235.655"/>
<polygon fill="midnightblue" stroke="midnightblue" points="613.725,-150.581 604.37,-145.608 608.582,-155.329 613.725,-150.581"/>
</g>
<!-- Node6 -->
<g id="node6" class="node"><title>Node6</title>
<g id="a_node6"><a xlink:href="../../da/df5/classview_1_1listwindows_1_1_commands_list_window.html#a3611428a65d6e7a436971f1b237e644e" target="_top" xlink:title="view.listwindows.Commands\lListWindow.parseCommand">
<polygon fill="white" stroke="black" points="721,-184 721,-214 871,-214 871,-184 721,-184"/>
<text text-anchor="start" x="729" y="-202" font-family="Helvetica,sans-Serif" font-size="10.00">view.listwindows.Commands</text>
<text text-anchor="middle" x="796" y="-191" font-family="Helvetica,sans-Serif" font-size="10.00">ListWindow.parseCommand</text>
</a>
</g>
</g>
<!-- Node4&#45;&gt;Node6 -->
<g id="edge5" class="edge"><title>Node4&#45;&gt;Node6</title>
<path fill="none" stroke="midnightblue" d="M633.274,-148.926C653.042,-155.685 677.775,-163.988 700,-171 713.774,-175.346 728.737,-179.854 742.626,-183.951"/>
<polygon fill="midnightblue" stroke="midnightblue" points="634.31,-145.582 623.715,-145.647 632.038,-152.203 634.31,-145.582"/>
</g>
<!-- Node9 -->
<g id="node9" class="node"><title>Node9</title>
<g id="a_node9"><a xlink:href="../../db/d98/classview_1_1components_1_1_command_port.html#a687e2098038140e833e1bac1a759b587" target="_top" xlink:title="view.components.CommandPort.run\lCommand">
<polygon fill="white" stroke="black" points="700.5,-132 700.5,-162 891.5,-162 891.5,-132 700.5,-132"/>
<text text-anchor="start" x="708.5" y="-150" font-family="Helvetica,sans-Serif" font-size="10.00">view.components.CommandPort.run</text>
<text text-anchor="middle" x="796" y="-139" font-family="Helvetica,sans-Serif" font-size="10.00">Command</text>
</a>
</g>
</g>
<!-- Node4&#45;&gt;Node9 -->
<g id="edge8" class="edge"><title>Node4&#45;&gt;Node9</title>
<path fill="none" stroke="midnightblue" d="M673.775,-140.299C682.506,-140.782 691.472,-141.277 700.385,-141.77"/>
<polygon fill="midnightblue" stroke="midnightblue" points="673.828,-136.797 663.65,-139.739 673.442,-143.786 673.828,-136.797"/>
</g>
<!-- Node12 -->
<g id="node12" class="node"><title>Node12</title>
<g id="a_node12"><a xlink:href="../../d3/dbe/classview_1_1_view.html#ac6ed5e90d4f165a6a2931aac81674bff" target="_top" xlink:title="view.View.saveCurrentLibrary">
<polygon fill="white" stroke="black" points="719,-93.5 719,-112.5 873,-112.5 873,-93.5 719,-93.5"/>
<text text-anchor="middle" x="796" y="-100.5" font-family="Helvetica,sans-Serif" font-size="10.00">view.View.saveCurrentLibrary</text>
</a>
</g>
</g>
<!-- Node4&#45;&gt;Node12 -->
<g id="edge11" class="edge"><title>Node4&#45;&gt;Node12</title>
<path fill="none" stroke="midnightblue" d="M663.405,-124.822C687.445,-120.836 714.285,-116.385 737.423,-112.548"/>
<polygon fill="midnightblue" stroke="midnightblue" points="662.585,-121.41 653.292,-126.499 663.73,-128.316 662.585,-121.41"/>
</g>
<!-- Node4&#45;&gt;Node13 -->
<g id="edge12" class="edge"><title>Node4&#45;&gt;Node13</title>
<path fill="none" stroke="midnightblue" d="M621.2,-121.463C641.846,-110.032 672.102,-94.3595 700,-84 715.628,-78.1967 733.213,-73.3195 748.966,-69.5097"/>
<polygon fill="midnightblue" stroke="midnightblue" points="619.441,-118.436 612.433,-126.382 622.867,-124.541 619.441,-118.436"/>
</g>
<!-- Node7 -->
<g id="node7" class="node"><title>Node7</title>
<g id="a_node7"><a xlink:href="../../df/d26/classview_1_1listwindows_1_1_commands_history_window.html#af341417d427f8b0548670f1efbb3acac" target="_top" xlink:title="view.listwindows.Commands\lHistoryWindow.setButtonAction">
<polygon fill="white" stroke="black" points="941.5,-235 941.5,-265 1106.5,-265 1106.5,-235 941.5,-235"/>
<text text-anchor="start" x="949.5" y="-253" font-family="Helvetica,sans-Serif" font-size="10.00">view.listwindows.Commands</text>
<text text-anchor="middle" x="1024" y="-242" font-family="Helvetica,sans-Serif" font-size="10.00">HistoryWindow.setButtonAction</text>
</a>
</g>
</g>
<!-- Node6&#45;&gt;Node7 -->
<g id="edge6" class="edge"><title>Node6&#45;&gt;Node7</title>
<path fill="none" stroke="midnightblue" d="M873.365,-216.233C900.331,-222.318 930.418,-229.108 956.501,-234.994"/>
<polygon fill="midnightblue" stroke="midnightblue" points="874.11,-212.813 863.585,-214.026 872.569,-219.641 874.11,-212.813"/>
</g>
<!-- Node8 -->
<g id="node8" class="node"><title>Node8</title>
<g id="a_node8"><a xlink:href="../../d7/dc7/classview_1_1listwindows_1_1_user_defined_commands_window.html#adaf32233789f6a07c42b4e459699bf53" target="_top" xlink:title="view.listwindows.UserDefined\lCommandsWindow.setButtonAction">
<polygon fill="white" stroke="black" points="930.5,-186 930.5,-216 1117.5,-216 1117.5,-186 930.5,-186"/>
<text text-anchor="start" x="938.5" y="-204" font-family="Helvetica,sans-Serif" font-size="10.00">view.listwindows.UserDefined</text>
<text text-anchor="middle" x="1024" y="-193" font-family="Helvetica,sans-Serif" font-size="10.00">CommandsWindow.setButtonAction</text>
</a>
</g>
</g>
<!-- Node6&#45;&gt;Node8 -->
<g id="edge7" class="edge"><title>Node6&#45;&gt;Node8</title>
<path fill="none" stroke="midnightblue" d="M881.348,-199.746C897.295,-199.888 914.058,-200.036 930.247,-200.179"/>
<polygon fill="midnightblue" stroke="midnightblue" points="881.031,-196.244 871.001,-199.655 880.969,-203.243 881.031,-196.244"/>
</g>
<!-- Node10 -->
<g id="node10" class="node"><title>Node10</title>
<g id="a_node10"><a xlink:href="../../db/d98/classview_1_1components_1_1_command_port.html#a37ae451233579691839c4a52072c94e9" target="_top" xlink:title="view.components.CommandPort.\lCommandPort">
<polygon fill="white" stroke="black" points="936.5,-137 936.5,-167 1111.5,-167 1111.5,-137 936.5,-137"/>
<text text-anchor="start" x="944.5" y="-155" font-family="Helvetica,sans-Serif" font-size="10.00">view.components.CommandPort.</text>
<text text-anchor="middle" x="1024" y="-144" font-family="Helvetica,sans-Serif" font-size="10.00">CommandPort</text>
</a>
</g>
</g>
<!-- Node9&#45;&gt;Node10 -->
<g id="edge9" class="edge"><title>Node9&#45;&gt;Node10</title>
<path fill="none" stroke="midnightblue" d="M901.702,-149.316C913.321,-149.573 925.056,-149.833 936.415,-150.084"/>
<polygon fill="midnightblue" stroke="midnightblue" points="901.61,-145.814 891.535,-149.091 901.455,-152.812 901.61,-145.814"/>
</g>
<!-- Node11 -->
<g id="node11" class="node"><title>Node11</title>
<g id="a_node11"><a xlink:href="../../db/d98/classview_1_1components_1_1_command_port.html#afcdcfbfa864e7438dc0f0a3f1c541294" target="_top" xlink:title="view.components.CommandPort.run\lCommand">
<polygon fill="white" stroke="black" points="928.5,-88 928.5,-118 1119.5,-118 1119.5,-88 928.5,-88"/>
<text text-anchor="start" x="936.5" y="-106" font-family="Helvetica,sans-Serif" font-size="10.00">view.components.CommandPort.run</text>
<text text-anchor="middle" x="1024" y="-95" font-family="Helvetica,sans-Serif" font-size="10.00">Command</text>
</a>
</g>
</g>
<!-- Node9&#45;&gt;Node11 -->
<g id="edge10" class="edge"><title>Node9&#45;&gt;Node11</title>
<path fill="none" stroke="midnightblue" d="M884.029,-130.056C904.384,-126.093 925.928,-121.899 945.82,-118.026"/>
<polygon fill="midnightblue" stroke="midnightblue" points="883.291,-126.634 874.144,-131.981 884.629,-133.505 883.291,-126.634"/>
</g>
<!-- Node14 -->
<g id="node14" class="node"><title>Node14</title>
<g id="a_node14"><a xlink:href="../../d3/dbe/classview_1_1_view.html#a59bb3de727676a9d3c1630f9e58b9614" target="_top" xlink:title="view.View.addTopBars">
<polygon fill="white" stroke="black" points="964.5,-49.5 964.5,-68.5 1083.5,-68.5 1083.5,-49.5 964.5,-49.5"/>
<text text-anchor="middle" x="1024" y="-56.5" font-family="Helvetica,sans-Serif" font-size="10.00">view.View.addTopBars</text>
</a>
</g>
</g>
<!-- Node13&#45;&gt;Node14 -->
<g id="edge13" class="edge"><title>Node13&#45;&gt;Node14</title>
<path fill="none" stroke="midnightblue" d="M881.634,-59.6255C909.124,-59.5039 939.009,-59.3716 964.19,-59.2602"/>
<polygon fill="midnightblue" stroke="midnightblue" points="881.612,-56.1255 871.627,-59.6698 881.643,-63.1254 881.612,-56.1255"/>
</g>
<!-- Node16 -->
<g id="node16" class="node"><title>Node16</title>
<g id="a_node16"><a xlink:href="../../d3/dbe/classview_1_1_view.html#aef53667bcfbe243d64e3416529c35f8f" target="_top" xlink:title="view.View.addNewTab">
<polygon fill="white" stroke="black" points="965.5,-11.5 965.5,-30.5 1082.5,-30.5 1082.5,-11.5 965.5,-11.5"/>
<text text-anchor="middle" x="1024" y="-18.5" font-family="Helvetica,sans-Serif" font-size="10.00">view.View.addNewTab</text>
</a>
</g>
</g>
<!-- Node13&#45;&gt;Node16 -->
<g id="edge15" class="edge"><title>Node13&#45;&gt;Node16</title>
<path fill="none" stroke="midnightblue" d="M862.424,-48.71C895.849,-42.942 936.068,-36.0015 967.894,-30.5095"/>
<polygon fill="midnightblue" stroke="midnightblue" points="861.545,-45.3099 852.286,-50.4595 862.735,-52.2079 861.545,-45.3099"/>
</g>
<!-- Node15 -->
<g id="node15" class="node"><title>Node15</title>
<g id="a_node15"><a xlink:href="../../d3/dbe/classview_1_1_view.html#ab8997f733f923e68829b13b7e9633bc7" target="_top" xlink:title="view.View.View">
<polygon fill="white" stroke="black" points="1192.5,-49.5 1192.5,-68.5 1277.5,-68.5 1277.5,-49.5 1192.5,-49.5"/>
<text text-anchor="middle" x="1235" y="-56.5" font-family="Helvetica,sans-Serif" font-size="10.00">view.View.View</text>
</a>
</g>
</g>
<!-- Node14&#45;&gt;Node15 -->
<g id="edge14" class="edge"><title>Node14&#45;&gt;Node15</title>
<path fill="none" stroke="midnightblue" d="M1094.11,-59C1126.56,-59 1164.17,-59 1192.21,-59"/>
<polygon fill="midnightblue" stroke="midnightblue" points="1093.77,-55.5001 1083.77,-59 1093.77,-62.5001 1093.77,-55.5001"/>
</g>
<!-- Node16&#45;&gt;Node15 -->
<g id="edge18" class="edge"><title>Node16&#45;&gt;Node15</title>
<path fill="none" stroke="midnightblue" d="M1087.73,-32.4059C1121.59,-38.5619 1162.45,-45.9909 1192.37,-51.4305"/>
<polygon fill="midnightblue" stroke="midnightblue" points="1087.93,-28.8853 1077.47,-30.54 1086.68,-35.7724 1087.93,-28.8853"/>
</g>
<!-- Node17 -->
<g id="node17" class="node"><title>Node17</title>
<g id="a_node17"><a xlink:href="../../da/da8/classview_1_1components_1_1_s_logo_menu_bar.html#a50a896e8874b794c164559d97c531b78" target="_top" xlink:title="view.components.SLogoMenu\lBar.makeFileMenu">
<polygon fill="white" stroke="black" points="1156,-0 1156,-30 1314,-30 1314,-0 1156,-0"/>
<text text-anchor="start" x="1164" y="-18" font-family="Helvetica,sans-Serif" font-size="10.00">view.components.SLogoMenu</text>
<text text-anchor="middle" x="1235" y="-7" font-family="Helvetica,sans-Serif" font-size="10.00">Bar.makeFileMenu</text>
</a>
</g>
</g>
<!-- Node16&#45;&gt;Node17 -->
<g id="edge16" class="edge"><title>Node16&#45;&gt;Node17</title>
<path fill="none" stroke="midnightblue" d="M1092.67,-19.0572C1112.81,-18.4791 1135.04,-17.8409 1155.79,-17.2452"/>
<polygon fill="midnightblue" stroke="midnightblue" points="1092.56,-15.559 1082.66,-19.3446 1092.76,-22.5561 1092.56,-15.559"/>
</g>
<!-- Node18 -->
<g id="node18" class="node"><title>Node18</title>
<g id="a_node18"><a xlink:href="../../da/da8/classview_1_1components_1_1_s_logo_menu_bar.html#afbe8434fba1476e5cbe7401c6bc158ec" target="_top" xlink:title="view.components.SLogoMenu\lBar.SLogoMenuBar">
<polygon fill="white" stroke="black" points="1350,-0 1350,-30 1508,-30 1508,-0 1350,-0"/>
<text text-anchor="start" x="1358" y="-18" font-family="Helvetica,sans-Serif" font-size="10.00">view.components.SLogoMenu</text>
<text text-anchor="middle" x="1429" y="-7" font-family="Helvetica,sans-Serif" font-size="10.00">Bar.SLogoMenuBar</text>
</a>
</g>
</g>
<!-- Node17&#45;&gt;Node18 -->
<g id="edge17" class="edge"><title>Node17&#45;&gt;Node18</title>
<path fill="none" stroke="midnightblue" d="M1324.15,-15C1332.77,-15 1341.47,-15 1349.98,-15"/>
<polygon fill="midnightblue" stroke="midnightblue" points="1324.09,-11.5001 1314.09,-15 1324.09,-18.5001 1324.09,-11.5001"/>
</g>
</g>
</svg>
