<?xml version="1.0" encoding="UTF-8" standalone="no"?>
<!DOCTYPE svg PUBLIC "-//W3C//DTD SVG 1.1//EN"
 "http://www.w3.org/Graphics/SVG/1.1/DTD/svg11.dtd">
<!-- Generated by graphviz version 2.36.0 (20140111.2315)
 -->
<!-- Title: parser.parser.Parser.parse Pages: 1 -->
<svg width="820pt" height="185pt"
 viewBox="0.00 0.00 820.00 185.00" xmlns="http://www.w3.org/2000/svg" xmlns:xlink="http://www.w3.org/1999/xlink">
<g id="graph0" class="graph" transform="scale(1 1) rotate(0) translate(4 181)">
<title>parser.parser.Parser.parse</title>
<polygon fill="white" stroke="none" points="-4,4 -4,-181 816,-181 816,4 -4,4"/>
<!-- Node1 -->
<g id="node1" class="node"><title>Node1</title>
<polygon fill="#bfbfbf" stroke="black" points="0,-81.5 0,-100.5 142,-100.5 142,-81.5 0,-81.5"/>
<text text-anchor="middle" x="71" y="-88.5" font-family="Helvetica,sans-Serif" font-size="10.00">parser.parser.Parser.parse</text>
</g>
<!-- Node2 -->
<g id="node2" class="node"><title>Node2</title>
<g id="a_node2"><a xlink:href="../../d3/d42/classmodel_1_1_model.html#a8a07e7f2040e8a2ab50ec2955504f6c4" target="_top" xlink:title="model.Model.parse">
<polygon fill="white" stroke="black" points="213,-103.5 213,-122.5 321,-122.5 321,-103.5 213,-103.5"/>
<text text-anchor="middle" x="267" y="-110.5" font-family="Helvetica,sans-Serif" font-size="10.00">model.Model.parse</text>
</a>
</g>
</g>
<!-- Node1&#45;&gt;Node2 -->
<g id="edge1" class="edge"><title>Node1&#45;&gt;Node2</title>
<path fill="none" stroke="midnightblue" d="M152,-100.072C172.498,-102.397 194.041,-104.84 212.812,-106.968"/>
<polygon fill="midnightblue" stroke="midnightblue" points="152.369,-96.5917 142.038,-98.9425 151.58,-103.547 152.369,-96.5917"/>
</g>
<!-- Node10 -->
<g id="node10" class="node"><title>Node10</title>
<g id="a_node10"><a xlink:href="../../d5/dc1/classparser_1_1commands_1_1_parser_test.html#a6a3cc2c0d6ca8b502de3cad94a6ad0a5" target="_top" xlink:title="parser.commands.ParserTest.test\lParse">
<polygon fill="white" stroke="black" points="178.5,-54 178.5,-84 355.5,-84 355.5,-54 178.5,-54"/>
<text text-anchor="start" x="186.5" y="-72" font-family="Helvetica,sans-Serif" font-size="10.00">parser.commands.ParserTest.test</text>
<text text-anchor="middle" x="267" y="-61" font-family="Helvetica,sans-Serif" font-size="10.00">Parse</text>
</a>
</g>
</g>
<!-- Node1&#45;&gt;Node10 -->
<g id="edge9" class="edge"><title>Node1&#45;&gt;Node10</title>
<path fill="none" stroke="midnightblue" d="M152.141,-81.9119C160.834,-80.9261 169.714,-79.9191 178.489,-78.924"/>
<polygon fill="midnightblue" stroke="midnightblue" points="151.58,-78.4529 142.038,-83.0575 152.369,-85.4083 151.58,-78.4529"/>
</g>
<!-- Node3 -->
<g id="node3" class="node"><title>Node3</title>
<g id="a_node3"><a xlink:href="../../d3/dbe/classview_1_1_view.html#ab8b25d25b79752feed7b786ed496f642" target="_top" xlink:title="view.View.loadLibrary">
<polygon fill="white" stroke="black" points="430,-147.5 430,-166.5 546,-166.5 546,-147.5 430,-147.5"/>
<text text-anchor="middle" x="488" y="-154.5" font-family="Helvetica,sans-Serif" font-size="10.00">view.View.loadLibrary</text>
</a>
</g>
</g>
<!-- Node2&#45;&gt;Node3 -->
<g id="edge2" class="edge"><title>Node2&#45;&gt;Node3</title>
<path fill="none" stroke="midnightblue" d="M325.736,-124.6C361.235,-131.732 406.161,-140.758 439.573,-147.471"/>
<polygon fill="midnightblue" stroke="midnightblue" points="326.013,-121.086 315.52,-122.547 324.634,-127.949 326.013,-121.086"/>
</g>
<!-- Node4 -->
<g id="node4" class="node"><title>Node4</title>
<g id="a_node4"><a xlink:href="../../da/df5/classview_1_1listwindows_1_1_commands_list_window.html#a3611428a65d6e7a436971f1b237e644e" target="_top" xlink:title="view.listwindows.Commands\lListWindow.parseCommand">
<polygon fill="white" stroke="black" points="413,-98 413,-128 563,-128 563,-98 413,-98"/>
<text text-anchor="start" x="421" y="-116" font-family="Helvetica,sans-Serif" font-size="10.00">view.listwindows.Commands</text>
<text text-anchor="middle" x="488" y="-105" font-family="Helvetica,sans-Serif" font-size="10.00">ListWindow.parseCommand</text>
</a>
</g>
</g>
<!-- Node2&#45;&gt;Node4 -->
<g id="edge3" class="edge"><title>Node2&#45;&gt;Node4</title>
<path fill="none" stroke="midnightblue" d="M331.31,-113C356.831,-113 386.451,-113 412.962,-113"/>
<polygon fill="midnightblue" stroke="midnightblue" points="331.014,-109.5 321.014,-113 331.014,-116.5 331.014,-109.5"/>
</g>
<!-- Node7 -->
<g id="node7" class="node"><title>Node7</title>
<g id="a_node7"><a xlink:href="../../db/d98/classview_1_1components_1_1_command_port.html#a687e2098038140e833e1bac1a759b587" target="_top" xlink:title="view.components.CommandPort.run\lCommand">
<polygon fill="white" stroke="black" points="392.5,-49 392.5,-79 583.5,-79 583.5,-49 392.5,-49"/>
<text text-anchor="start" x="400.5" y="-67" font-family="Helvetica,sans-Serif" font-size="10.00">view.components.CommandPort.run</text>
<text text-anchor="middle" x="488" y="-56" font-family="Helvetica,sans-Serif" font-size="10.00">Command</text>
</a>
</g>
</g>
<!-- Node2&#45;&gt;Node7 -->
<g id="edge6" class="edge"><title>Node2&#45;&gt;Node7</title>
<path fill="none" stroke="midnightblue" d="M320.262,-101.307C350.037,-94.6446 387.667,-86.2251 419.641,-79.0713"/>
<polygon fill="midnightblue" stroke="midnightblue" points="319.48,-97.8951 310.485,-103.494 321.008,-104.726 319.48,-97.8951"/>
</g>
<!-- Node5 -->
<g id="node5" class="node"><title>Node5</title>
<g id="a_node5"><a xlink:href="../../df/d26/classview_1_1listwindows_1_1_commands_history_window.html#af341417d427f8b0548670f1efbb3acac" target="_top" xlink:title="view.listwindows.Commands\lHistoryWindow.setButtonAction">
<polygon fill="white" stroke="black" points="633.5,-147 633.5,-177 798.5,-177 798.5,-147 633.5,-147"/>
<text text-anchor="start" x="641.5" y="-165" font-family="Helvetica,sans-Serif" font-size="10.00">view.listwindows.Commands</text>
<text text-anchor="middle" x="716" y="-154" font-family="Helvetica,sans-Serif" font-size="10.00">HistoryWindow.setButtonAction</text>
</a>
</g>
</g>
<!-- Node4&#45;&gt;Node5 -->
<g id="edge4" class="edge"><title>Node4&#45;&gt;Node5</title>
<path fill="none" stroke="midnightblue" d="M568.263,-130.185C593.535,-135.665 621.286,-141.682 645.788,-146.994"/>
<polygon fill="midnightblue" stroke="midnightblue" points="568.858,-126.733 558.343,-128.035 567.375,-133.574 568.858,-126.733"/>
</g>
<!-- Node6 -->
<g id="node6" class="node"><title>Node6</title>
<g id="a_node6"><a xlink:href="../../d7/dc7/classview_1_1listwindows_1_1_user_defined_commands_window.html#adaf32233789f6a07c42b4e459699bf53" target="_top" xlink:title="view.listwindows.UserDefined\lCommandsWindow.setButtonAction">
<polygon fill="white" stroke="black" points="622.5,-98 622.5,-128 809.5,-128 809.5,-98 622.5,-98"/>
<text text-anchor="start" x="630.5" y="-116" font-family="Helvetica,sans-Serif" font-size="10.00">view.listwindows.UserDefined</text>
<text text-anchor="middle" x="716" y="-105" font-family="Helvetica,sans-Serif" font-size="10.00">CommandsWindow.setButtonAction</text>
</a>
</g>
</g>
<!-- Node4&#45;&gt;Node6 -->
<g id="edge5" class="edge"><title>Node4&#45;&gt;Node6</title>
<path fill="none" stroke="midnightblue" d="M573.348,-113C589.295,-113 606.058,-113 622.247,-113"/>
<polygon fill="midnightblue" stroke="midnightblue" points="573.001,-109.5 563.001,-113 573.001,-116.5 573.001,-109.5"/>
</g>
<!-- Node8 -->
<g id="node8" class="node"><title>Node8</title>
<g id="a_node8"><a xlink:href="../../db/d98/classview_1_1components_1_1_command_port.html#a37ae451233579691839c4a52072c94e9" target="_top" xlink:title="view.components.CommandPort.\lCommandPort">
<polygon fill="white" stroke="black" points="628.5,-49 628.5,-79 803.5,-79 803.5,-49 628.5,-49"/>
<text text-anchor="start" x="636.5" y="-67" font-family="Helvetica,sans-Serif" font-size="10.00">view.components.CommandPort.</text>
<text text-anchor="middle" x="716" y="-56" font-family="Helvetica,sans-Serif" font-size="10.00">CommandPort</text>
</a>
</g>
</g>
<!-- Node7&#45;&gt;Node8 -->
<g id="edge7" class="edge"><title>Node7&#45;&gt;Node8</title>
<path fill="none" stroke="midnightblue" d="M593.702,-64C605.321,-64 617.056,-64 628.415,-64"/>
<polygon fill="midnightblue" stroke="midnightblue" points="593.535,-60.5001 583.535,-64 593.535,-67.5001 593.535,-60.5001"/>
</g>
<!-- Node9 -->
<g id="node9" class="node"><title>Node9</title>
<g id="a_node9"><a xlink:href="../../db/d98/classview_1_1components_1_1_command_port.html#afcdcfbfa864e7438dc0f0a3f1c541294" target="_top" xlink:title="view.components.CommandPort.run\lCommand">
<polygon fill="white" stroke="black" points="620.5,-0 620.5,-30 811.5,-30 811.5,-0 620.5,-0"/>
<text text-anchor="start" x="628.5" y="-18" font-family="Helvetica,sans-Serif" font-size="10.00">view.components.CommandPort.run</text>
<text text-anchor="middle" x="716" y="-7" font-family="Helvetica,sans-Serif" font-size="10.00">Command</text>
</a>
</g>
</g>
<!-- Node7&#45;&gt;Node9 -->
<g id="edge8" class="edge"><title>Node7&#45;&gt;Node9</title>
<path fill="none" stroke="midnightblue" d="M568.263,-46.8146C593.535,-41.3353 621.286,-35.3185 645.788,-30.0062"/>
<polygon fill="midnightblue" stroke="midnightblue" points="567.375,-43.4259 558.343,-48.9654 568.858,-50.2669 567.375,-43.4259"/>
</g>
</g>
</svg>
