<?xml version="1.0" encoding="UTF-8" standalone="no"?>
<!DOCTYPE svg PUBLIC "-//W3C//DTD SVG 1.1//EN"
 "http://www.w3.org/Graphics/SVG/1.1/DTD/svg11.dtd">
<!-- Generated by graphviz version 2.36.0 (20140111.2315)
 -->
<!-- Title: parser.parser.Parser.parse Pages: 1 -->
<svg width="984pt" height="246pt"
 viewBox="0.00 0.00 984.00 246.00" xmlns="http://www.w3.org/2000/svg" xmlns:xlink="http://www.w3.org/1999/xlink">
<g id="graph0" class="graph" transform="scale(1 1) rotate(0) translate(4 242)">
<title>parser.parser.Parser.parse</title>
<polygon fill="white" stroke="none" points="-4,4 -4,-242 980,-242 980,4 -4,4"/>
<!-- Node1 -->
<g id="node1" class="node"><title>Node1</title>
<polygon fill="#bfbfbf" stroke="black" points="0,-126.5 0,-145.5 142,-145.5 142,-126.5 0,-126.5"/>
<text text-anchor="middle" x="71" y="-133.5" font-family="Helvetica,sans-Serif" font-size="10.00">parser.parser.Parser.parse</text>
</g>
<!-- Node2 -->
<g id="node2" class="node"><title>Node2</title>
<g id="a_node2"><a xlink:href="../../d2/d66/classparser_1_1parser_1_1_command_factory.html#a0dc44bc9972a4652d98146b5e30a5e72" target="_top" xlink:title="parser.parser.CommandFactory.create\lCommand">
<polygon fill="white" stroke="black" points="178,-170 178,-200 378,-200 378,-170 178,-170"/>
<text text-anchor="start" x="186" y="-188" font-family="Helvetica,sans-Serif" font-size="10.00">parser.parser.CommandFactory.create</text>
<text text-anchor="middle" x="278" y="-177" font-family="Helvetica,sans-Serif" font-size="10.00">Command</text>
</a>
</g>
</g>
<!-- Node1&#45;&gt;Node2 -->
<g id="edge1" class="edge"><title>Node1&#45;&gt;Node2</title>
<path fill="none" stroke="midnightblue" d="M112.013,-145.564C138.193,-151.822 173.168,-160.182 204.178,-167.594"/>
<polygon fill="midnightblue" stroke="midnightblue" points="203.551,-171.042 214.09,-169.963 205.178,-164.234 203.551,-171.042"/>
</g>
<!-- Node5 -->
<g id="node5" class="node"><title>Node5</title>
<g id="a_node5"><a xlink:href="../../de/d16/classparser_1_1parser_1_1_regex.html#a9da6d787de06ba7ea76d52326b532bd1" target="_top" xlink:title="parser.parser.Regex.getInstance">
<polygon fill="white" stroke="black" points="430,-213.5 430,-232.5 600,-232.5 600,-213.5 430,-213.5"/>
<text text-anchor="middle" x="515" y="-220.5" font-family="Helvetica,sans-Serif" font-size="10.00">parser.parser.Regex.getInstance</text>
</a>
</g>
</g>
<!-- Node1&#45;&gt;Node5 -->
<g id="edge11" class="edge"><title>Node1&#45;&gt;Node5</title>
<path fill="none" stroke="midnightblue" d="M81.7503,-145.634C99.2569,-162.207 137.944,-195.621 178,-209 256.35,-235.17 350.729,-236.689 419.486,-232.812"/>
<polygon fill="midnightblue" stroke="midnightblue" points="420.1,-236.281 429.867,-232.174 419.671,-229.294 420.1,-236.281"/>
</g>
<!-- Node8 -->
<g id="node8" class="node"><title>Node8</title>
<g id="a_node8"><a xlink:href="../../d2/d66/classparser_1_1parser_1_1_command_factory.html#a2c91b8ed8cbfcb588f6e32f7363eefd9" target="_top" xlink:title="parser.parser.CommandFactory.get\lInstance">
<polygon fill="white" stroke="black" points="185.5,-121 185.5,-151 370.5,-151 370.5,-121 185.5,-121"/>
<text text-anchor="start" x="193.5" y="-139" font-family="Helvetica,sans-Serif" font-size="10.00">parser.parser.CommandFactory.get</text>
<text text-anchor="middle" x="278" y="-128" font-family="Helvetica,sans-Serif" font-size="10.00">Instance</text>
</a>
</g>
</g>
<!-- Node1&#45;&gt;Node8 -->
<g id="edge7" class="edge"><title>Node1&#45;&gt;Node8</title>
<path fill="none" stroke="midnightblue" d="M142.263,-136C152.911,-136 164.077,-136 175.231,-136"/>
<polygon fill="midnightblue" stroke="midnightblue" points="175.456,-139.5 185.456,-136 175.456,-132.5 175.456,-139.5"/>
</g>
<!-- Node10 -->
<g id="node10" class="node"><title>Node10</title>
<g id="a_node10"><a xlink:href="../../dc/d09/classparser_1_1parser_1_1_to_factory.html#ac5256eea6647641f83b40c5a350a1518" target="_top" xlink:title="parser.parser.ToFactory.get\lInstance">
<polygon fill="white" stroke="black" points="206,-17 206,-47 350,-47 350,-17 206,-17"/>
<text text-anchor="start" x="214" y="-35" font-family="Helvetica,sans-Serif" font-size="10.00">parser.parser.ToFactory.get</text>
<text text-anchor="middle" x="278" y="-24" font-family="Helvetica,sans-Serif" font-size="10.00">Instance</text>
</a>
</g>
</g>
<!-- Node1&#45;&gt;Node10 -->
<g id="edge9" class="edge"><title>Node1&#45;&gt;Node10</title>
<path fill="none" stroke="midnightblue" d="M86.7159,-126.333C106.844,-113.325 144.314,-89.8767 178,-73 193.702,-65.1333 211.287,-57.4929 227.23,-50.9817"/>
<polygon fill="midnightblue" stroke="midnightblue" points="228.945,-54.0643 236.913,-47.0816 226.33,-47.5712 228.945,-54.0643"/>
</g>
<!-- Node12 -->
<g id="node12" class="node"><title>Node12</title>
<g id="a_node12"><a xlink:href="../../de/d16/classparser_1_1parser_1_1_regex.html#a5d526d752521b953619721c6d3e930bd" target="_top" xlink:title="parser.parser.Regex.getType">
<polygon fill="white" stroke="black" points="202.5,-82.5 202.5,-101.5 353.5,-101.5 353.5,-82.5 202.5,-82.5"/>
<text text-anchor="middle" x="278" y="-89.5" font-family="Helvetica,sans-Serif" font-size="10.00">parser.parser.Regex.getType</text>
</a>
</g>
</g>
<!-- Node1&#45;&gt;Node12 -->
<g id="edge12" class="edge"><title>Node1&#45;&gt;Node12</title>
<path fill="none" stroke="midnightblue" d="M110.678,-126.466C130.723,-121.63 155.627,-115.783 178,-111 190.086,-108.416 203.038,-105.812 215.459,-103.395"/>
<polygon fill="midnightblue" stroke="midnightblue" points="216.122,-106.832 225.279,-101.501 214.797,-99.9584 216.122,-106.832"/>
</g>
<!-- Node3 -->
<g id="node3" class="node"><title>Node3</title>
<g id="a_node3"><a xlink:href="../../de/d16/classparser_1_1parser_1_1_regex.html#aa4a03f1544e5043ea8da8f12ab4ece23" target="_top" xlink:title="parser.parser.Regex.getCommandType">
<polygon fill="white" stroke="black" points="414.5,-175.5 414.5,-194.5 615.5,-194.5 615.5,-175.5 414.5,-175.5"/>
<text text-anchor="middle" x="515" y="-182.5" font-family="Helvetica,sans-Serif" font-size="10.00">parser.parser.Regex.getCommandType</text>
</a>
</g>
</g>
<!-- Node2&#45;&gt;Node3 -->
<g id="edge2" class="edge"><title>Node2&#45;&gt;Node3</title>
<path fill="none" stroke="midnightblue" d="M378.321,-185C386.874,-185 395.559,-185 404.189,-185"/>
<polygon fill="midnightblue" stroke="midnightblue" points="404.282,-188.5 414.282,-185 404.282,-181.5 404.282,-188.5"/>
</g>
<!-- Node2&#45;&gt;Node5 -->
<g id="edge4" class="edge"><title>Node2&#45;&gt;Node5</title>
<path fill="none" stroke="midnightblue" d="M371.878,-200.019C396.353,-203.976 422.32,-208.175 445.269,-211.886"/>
<polygon fill="midnightblue" stroke="midnightblue" points="444.814,-215.358 455.244,-213.499 445.931,-208.448 444.814,-215.358"/>
</g>
<!-- Node4 -->
<g id="node4" class="node"><title>Node4</title>
<g id="a_node4"><a xlink:href="../../de/d16/classparser_1_1parser_1_1_regex.html#a162d120a60bdb10238c3d31c4f5f6903" target="_top" xlink:title="parser.parser.Regex.match">
<polygon fill="white" stroke="black" points="652.5,-131.5 652.5,-150.5 797.5,-150.5 797.5,-131.5 652.5,-131.5"/>
<text text-anchor="middle" x="725" y="-138.5" font-family="Helvetica,sans-Serif" font-size="10.00">parser.parser.Regex.match</text>
</a>
</g>
</g>
<!-- Node3&#45;&gt;Node4 -->
<g id="edge3" class="edge"><title>Node3&#45;&gt;Node4</title>
<path fill="none" stroke="midnightblue" d="M564.617,-175.493C580.96,-172.239 599.283,-168.529 616,-165 634.224,-161.153 654.137,-156.777 671.846,-152.825"/>
<polygon fill="midnightblue" stroke="midnightblue" points="672.994,-156.154 681.988,-150.554 671.465,-149.323 672.994,-156.154"/>
</g>
<!-- Node6 -->
<g id="node6" class="node"><title>Node6</title>
<g id="a_node6"><a xlink:href="../../de/d16/classparser_1_1parser_1_1_regex.html#a1fd187b9f2b45d0707cb10057e80d7ff" target="_top" xlink:title="parser.parser.Regex.Regex">
<polygon fill="white" stroke="black" points="653.5,-213.5 653.5,-232.5 796.5,-232.5 796.5,-213.5 653.5,-213.5"/>
<text text-anchor="middle" x="725" y="-220.5" font-family="Helvetica,sans-Serif" font-size="10.00">parser.parser.Regex.Regex</text>
</a>
</g>
</g>
<!-- Node5&#45;&gt;Node6 -->
<g id="edge5" class="edge"><title>Node5&#45;&gt;Node6</title>
<path fill="none" stroke="midnightblue" d="M600.002,-223C614.246,-223 629.011,-223 643.171,-223"/>
<polygon fill="midnightblue" stroke="midnightblue" points="643.36,-226.5 653.36,-223 643.36,-219.5 643.36,-226.5"/>
</g>
<!-- Node7 -->
<g id="node7" class="node"><title>Node7</title>
<g id="a_node7"><a xlink:href="../../de/d16/classparser_1_1parser_1_1_regex.html#a413da3364c9c07a315222d34d7f0fc56" target="_top" xlink:title="parser.parser.Regex.make\lPatterns">
<polygon fill="white" stroke="black" points="834.5,-208 834.5,-238 975.5,-238 975.5,-208 834.5,-208"/>
<text text-anchor="start" x="842.5" y="-226" font-family="Helvetica,sans-Serif" font-size="10.00">parser.parser.Regex.make</text>
<text text-anchor="middle" x="905" y="-215" font-family="Helvetica,sans-Serif" font-size="10.00">Patterns</text>
</a>
</g>
</g>
<!-- Node6&#45;&gt;Node7 -->
<g id="edge6" class="edge"><title>Node6&#45;&gt;Node7</title>
<path fill="none" stroke="midnightblue" d="M796.606,-223C805.633,-223 814.924,-223 824.085,-223"/>
<polygon fill="midnightblue" stroke="midnightblue" points="824.352,-226.5 834.352,-223 824.352,-219.5 824.352,-226.5"/>
</g>
<!-- Node9 -->
<g id="node9" class="node"><title>Node9</title>
<g id="a_node9"><a xlink:href="../../d2/d66/classparser_1_1parser_1_1_command_factory.html#ac81b65f58a35eb24a9f92303cf7f491e" target="_top" xlink:title="parser.parser.CommandFactory.\lCommandFactory">
<polygon fill="white" stroke="black" points="430.5,-126 430.5,-156 599.5,-156 599.5,-126 430.5,-126"/>
<text text-anchor="start" x="438.5" y="-144" font-family="Helvetica,sans-Serif" font-size="10.00">parser.parser.CommandFactory.</text>
<text text-anchor="middle" x="515" y="-133" font-family="Helvetica,sans-Serif" font-size="10.00">CommandFactory</text>
</a>
</g>
</g>
<!-- Node8&#45;&gt;Node9 -->
<g id="edge8" class="edge"><title>Node8&#45;&gt;Node9</title>
<path fill="none" stroke="midnightblue" d="M370.53,-137.947C386.859,-138.295 403.892,-138.657 420.281,-139.006"/>
<polygon fill="midnightblue" stroke="midnightblue" points="420.318,-142.507 430.39,-139.221 420.467,-135.509 420.318,-142.507"/>
</g>
<!-- Node11 -->
<g id="node11" class="node"><title>Node11</title>
<g id="a_node11"><a xlink:href="../../dc/d09/classparser_1_1parser_1_1_to_factory.html#a432d9b50bd2cbb0a73da7fc68b25bd4c" target="_top" xlink:title="parser.parser.ToFactory.\lToFactory">
<polygon fill="white" stroke="black" points="451,-0 451,-30 579,-30 579,-0 451,-0"/>
<text text-anchor="start" x="459" y="-18" font-family="Helvetica,sans-Serif" font-size="10.00">parser.parser.ToFactory.</text>
<text text-anchor="middle" x="515" y="-7" font-family="Helvetica,sans-Serif" font-size="10.00">ToFactory</text>
</a>
</g>
</g>
<!-- Node10&#45;&gt;Node11 -->
<g id="edge10" class="edge"><title>Node10&#45;&gt;Node11</title>
<path fill="none" stroke="midnightblue" d="M350.145,-26.8533C378.785,-24.7815 411.801,-22.3931 440.658,-20.3056"/>
<polygon fill="midnightblue" stroke="midnightblue" points="440.956,-23.7933 450.678,-19.5808 440.451,-16.8115 440.956,-23.7933"/>
</g>
<!-- Node12&#45;&gt;Node4 -->
<g id="edge13" class="edge"><title>Node12&#45;&gt;Node4</title>
<path fill="none" stroke="midnightblue" d="M353.658,-93.9703C422.193,-96.5705 526.386,-102.522 616,-116 637.069,-119.169 660.112,-124.272 679.482,-129.044"/>
<polygon fill="midnightblue" stroke="midnightblue" points="678.695,-132.455 689.246,-131.497 680.4,-125.666 678.695,-132.455"/>
</g>
<!-- Node13 -->
<g id="node13" class="node"><title>Node13</title>
<g id="a_node13"><a xlink:href="../../d7/dda/enumparser_1_1parser_1_1_general_type.html#af35aa06f434667ca22f66abcc181eb30" target="_top" xlink:title="parser.parser.GeneralType.findType">
<polygon fill="white" stroke="black" points="424,-49.5 424,-68.5 606,-68.5 606,-49.5 424,-49.5"/>
<text text-anchor="middle" x="515" y="-56.5" font-family="Helvetica,sans-Serif" font-size="10.00">parser.parser.GeneralType.findType</text>
</a>
</g>
</g>
<!-- Node12&#45;&gt;Node13 -->
<g id="edge14" class="edge"><title>Node12&#45;&gt;Node13</title>
<path fill="none" stroke="midnightblue" d="M346.656,-82.4993C374.554,-78.5818 407.052,-74.0182 435.95,-69.9603"/>
<polygon fill="midnightblue" stroke="midnightblue" points="436.591,-73.4046 446.007,-68.5479 435.618,-66.4726 436.591,-73.4046"/>
</g>
</g>
</svg>
