<?xml version="1.0" encoding="UTF-8" standalone="no"?>
<!DOCTYPE svg PUBLIC "-//W3C//DTD SVG 1.1//EN"
 "http://www.w3.org/Graphics/SVG/1.1/DTD/svg11.dtd">
<!-- Generated by graphviz version 2.36.0 (20140111.2315)
 -->
<!-- Title: model.VariablesCollection.addVariable Pages: 1 -->
<svg width="990pt" height="194pt"
 viewBox="0.00 0.00 990.00 194.00" xmlns="http://www.w3.org/2000/svg" xmlns:xlink="http://www.w3.org/1999/xlink">
<g id="graph0" class="graph" transform="scale(1 1) rotate(0) translate(4 190)">
<title>model.VariablesCollection.addVariable</title>
<polygon fill="white" stroke="none" points="-4,4 -4,-190 986,-190 986,4 -4,4"/>
<!-- Node1 -->
<g id="node1" class="node"><title>Node1</title>
<polygon fill="#bfbfbf" stroke="black" points="0.5,-63 0.5,-93 161.5,-93 161.5,-63 0.5,-63"/>
<text text-anchor="start" x="8.5" y="-81" font-family="Helvetica,sans-Serif" font-size="10.00">model.VariablesCollection.add</text>
<text text-anchor="middle" x="81" y="-70" font-family="Helvetica,sans-Serif" font-size="10.00">Variable</text>
</g>
<!-- Node2 -->
<g id="node2" class="node"><title>Node2</title>
<g id="a_node2"><a xlink:href="../../d8/da2/classmodel_1_1_variable_factory.html#a73fd0c25fff2bd36a01fbdeadbaab5ec" target="_top" xlink:title="model.VariableFactory.create\lVariable">
<polygon fill="white" stroke="black" points="205.5,-137 205.5,-167 360.5,-167 360.5,-137 205.5,-137"/>
<text text-anchor="start" x="213.5" y="-155" font-family="Helvetica,sans-Serif" font-size="10.00">model.VariableFactory.create</text>
<text text-anchor="middle" x="283" y="-144" font-family="Helvetica,sans-Serif" font-size="10.00">Variable</text>
</a>
</g>
</g>
<!-- Node1&#45;&gt;Node2 -->
<g id="edge1" class="edge"><title>Node1&#45;&gt;Node2</title>
<path fill="none" stroke="midnightblue" d="M115.117,-93.1408C138.113,-103.369 169.603,-116.812 198,-127 204.447,-129.313 211.224,-131.586 218.016,-133.76"/>
<polygon fill="midnightblue" stroke="midnightblue" points="217.351,-137.22 227.94,-136.87 219.444,-130.54 217.351,-137.22"/>
</g>
<!-- Node9 -->
<g id="node9" class="node"><title>Node9</title>
<g id="a_node9"><a xlink:href="../../d6/d00/classmodel_1_1_variables_collection.html#afff6f3cb6d60166602cdfbafc5d7bf27" target="_top" xlink:title="model.VariablesCollection.find\lVariable">
<polygon fill="white" stroke="black" points="203,-88 203,-118 363,-118 363,-88 203,-88"/>
<text text-anchor="start" x="211" y="-106" font-family="Helvetica,sans-Serif" font-size="10.00">model.VariablesCollection.find</text>
<text text-anchor="middle" x="283" y="-95" font-family="Helvetica,sans-Serif" font-size="10.00">Variable</text>
</a>
</g>
</g>
<!-- Node1&#45;&gt;Node9 -->
<g id="edge8" class="edge"><title>Node1&#45;&gt;Node9</title>
<path fill="none" stroke="midnightblue" d="M161.62,-87.9525C171.939,-89.2423 182.56,-90.57 193.018,-91.8773"/>
<polygon fill="midnightblue" stroke="midnightblue" points="192.624,-95.3551 202.981,-93.1226 193.492,-88.4092 192.624,-95.3551"/>
</g>
<!-- Node10 -->
<g id="node10" class="node"><title>Node10</title>
<g id="a_node10"><a xlink:href="../../d6/d00/classmodel_1_1_variables_collection.html#a30316bc7e9d586eba9b2a4ff5ee073b6" target="_top" xlink:title="model.VariablesCollection.notify\lObservers">
<polygon fill="white" stroke="black" points="198.5,-39 198.5,-69 367.5,-69 367.5,-39 198.5,-39"/>
<text text-anchor="start" x="206.5" y="-57" font-family="Helvetica,sans-Serif" font-size="10.00">model.VariablesCollection.notify</text>
<text text-anchor="middle" x="283" y="-46" font-family="Helvetica,sans-Serif" font-size="10.00">Observers</text>
</a>
</g>
</g>
<!-- Node1&#45;&gt;Node10 -->
<g id="edge9" class="edge"><title>Node1&#45;&gt;Node10</title>
<path fill="none" stroke="midnightblue" d="M161.62,-68.4456C170.405,-67.3914 179.41,-66.3108 188.346,-65.2385"/>
<polygon fill="midnightblue" stroke="midnightblue" points="188.88,-68.6996 198.392,-64.033 188.046,-61.7495 188.88,-68.6996"/>
</g>
<!-- Node12 -->
<g id="node12" class="node"><title>Node12</title>
<g id="a_node12"><a xlink:href="../../d4/d08/classmodel_1_1_variable.html#a37d8a725d0c1610fdefe2bfc55adb58d" target="_top" xlink:title="model.Variable.setValue">
<polygon fill="white" stroke="black" points="217,-0.5 217,-19.5 349,-19.5 349,-0.5 217,-0.5"/>
<text text-anchor="middle" x="283" y="-7.5" font-family="Helvetica,sans-Serif" font-size="10.00">model.Variable.setValue</text>
</a>
</g>
</g>
<!-- Node1&#45;&gt;Node12 -->
<g id="edge11" class="edge"><title>Node1&#45;&gt;Node12</title>
<path fill="none" stroke="midnightblue" d="M113.429,-62.9313C136.445,-52.3411 168.654,-38.4347 198,-29 206.082,-26.4015 214.712,-24.021 223.248,-21.8896"/>
<polygon fill="midnightblue" stroke="midnightblue" points="224.281,-25.2412 233.188,-19.5039 222.647,-18.4346 224.281,-25.2412"/>
</g>
<!-- Node3 -->
<g id="node3" class="node"><title>Node3</title>
<g id="a_node3"><a xlink:href="../../de/d16/classparser_1_1parser_1_1_regex.html#a9da6d787de06ba7ea76d52326b532bd1" target="_top" xlink:title="parser.parser.Regex.getInstance">
<polygon fill="white" stroke="black" points="410,-161.5 410,-180.5 580,-180.5 580,-161.5 410,-161.5"/>
<text text-anchor="middle" x="495" y="-168.5" font-family="Helvetica,sans-Serif" font-size="10.00">parser.parser.Regex.getInstance</text>
</a>
</g>
</g>
<!-- Node2&#45;&gt;Node3 -->
<g id="edge2" class="edge"><title>Node2&#45;&gt;Node3</title>
<path fill="none" stroke="midnightblue" d="M360.706,-158.94C373.28,-160.078 386.438,-161.268 399.384,-162.439"/>
<polygon fill="midnightblue" stroke="midnightblue" points="399.431,-165.958 409.705,-163.373 400.061,-158.986 399.431,-165.958"/>
</g>
<!-- Node6 -->
<g id="node6" class="node"><title>Node6</title>
<g id="a_node6"><a xlink:href="../../de/d16/classparser_1_1parser_1_1_regex.html#a5d526d752521b953619721c6d3e930bd" target="_top" xlink:title="parser.parser.Regex.getType">
<polygon fill="white" stroke="black" points="419.5,-123.5 419.5,-142.5 570.5,-142.5 570.5,-123.5 419.5,-123.5"/>
<text text-anchor="middle" x="495" y="-130.5" font-family="Helvetica,sans-Serif" font-size="10.00">parser.parser.Regex.getType</text>
</a>
</g>
</g>
<!-- Node2&#45;&gt;Node6 -->
<g id="edge5" class="edge"><title>Node2&#45;&gt;Node6</title>
<path fill="none" stroke="midnightblue" d="M360.706,-145.06C376.373,-143.642 392.947,-142.143 408.887,-140.701"/>
<polygon fill="midnightblue" stroke="midnightblue" points="409.61,-144.15 419.254,-139.763 408.98,-137.178 409.61,-144.15"/>
</g>
<!-- Node4 -->
<g id="node4" class="node"><title>Node4</title>
<g id="a_node4"><a xlink:href="../../de/d16/classparser_1_1parser_1_1_regex.html#a1fd187b9f2b45d0707cb10057e80d7ff" target="_top" xlink:title="parser.parser.Regex.Regex">
<polygon fill="white" stroke="black" points="641.5,-161.5 641.5,-180.5 784.5,-180.5 784.5,-161.5 641.5,-161.5"/>
<text text-anchor="middle" x="713" y="-168.5" font-family="Helvetica,sans-Serif" font-size="10.00">parser.parser.Regex.Regex</text>
</a>
</g>
</g>
<!-- Node3&#45;&gt;Node4 -->
<g id="edge3" class="edge"><title>Node3&#45;&gt;Node4</title>
<path fill="none" stroke="midnightblue" d="M580.13,-171C596.904,-171 614.487,-171 631.149,-171"/>
<polygon fill="midnightblue" stroke="midnightblue" points="631.388,-174.5 641.388,-171 631.388,-167.5 631.388,-174.5"/>
</g>
<!-- Node5 -->
<g id="node5" class="node"><title>Node5</title>
<g id="a_node5"><a xlink:href="../../de/d16/classparser_1_1parser_1_1_regex.html#a413da3364c9c07a315222d34d7f0fc56" target="_top" xlink:title="parser.parser.Regex.make\lPatterns">
<polygon fill="white" stroke="black" points="840.5,-156 840.5,-186 981.5,-186 981.5,-156 840.5,-156"/>
<text text-anchor="start" x="848.5" y="-174" font-family="Helvetica,sans-Serif" font-size="10.00">parser.parser.Regex.make</text>
<text text-anchor="middle" x="911" y="-163" font-family="Helvetica,sans-Serif" font-size="10.00">Patterns</text>
</a>
</g>
</g>
<!-- Node4&#45;&gt;Node5 -->
<g id="edge4" class="edge"><title>Node4&#45;&gt;Node5</title>
<path fill="none" stroke="midnightblue" d="M784.76,-171C799.461,-171 815.049,-171 830.053,-171"/>
<polygon fill="midnightblue" stroke="midnightblue" points="830.329,-174.5 840.329,-171 830.329,-167.5 830.329,-174.5"/>
</g>
<!-- Node7 -->
<g id="node7" class="node"><title>Node7</title>
<g id="a_node7"><a xlink:href="../../de/d16/classparser_1_1parser_1_1_regex.html#a162d120a60bdb10238c3d31c4f5f6903" target="_top" xlink:title="parser.parser.Regex.match">
<polygon fill="white" stroke="black" points="640.5,-123.5 640.5,-142.5 785.5,-142.5 785.5,-123.5 640.5,-123.5"/>
<text text-anchor="middle" x="713" y="-130.5" font-family="Helvetica,sans-Serif" font-size="10.00">parser.parser.Regex.match</text>
</a>
</g>
</g>
<!-- Node6&#45;&gt;Node7 -->
<g id="edge6" class="edge"><title>Node6&#45;&gt;Node7</title>
<path fill="none" stroke="midnightblue" d="M570.637,-133C589.848,-133 610.62,-133 630.174,-133"/>
<polygon fill="midnightblue" stroke="midnightblue" points="630.274,-136.5 640.274,-133 630.274,-129.5 630.274,-136.5"/>
</g>
<!-- Node8 -->
<g id="node8" class="node"><title>Node8</title>
<g id="a_node8"><a xlink:href="../../d7/dda/enumparser_1_1parser_1_1_general_type.html#af35aa06f434667ca22f66abcc181eb30" target="_top" xlink:title="parser.parser.GeneralType.findType">
<polygon fill="white" stroke="black" points="622,-85.5 622,-104.5 804,-104.5 804,-85.5 622,-85.5"/>
<text text-anchor="middle" x="713" y="-92.5" font-family="Helvetica,sans-Serif" font-size="10.00">parser.parser.GeneralType.findType</text>
</a>
</g>
</g>
<!-- Node6&#45;&gt;Node8 -->
<g id="edge7" class="edge"><title>Node6&#45;&gt;Node8</title>
<path fill="none" stroke="midnightblue" d="M550.227,-123.46C579.884,-118.243 616.804,-111.747 647.882,-106.28"/>
<polygon fill="midnightblue" stroke="midnightblue" points="648.508,-109.724 657.751,-104.544 647.295,-102.83 648.508,-109.724"/>
</g>
<!-- Node11 -->
<g id="node11" class="node"><title>Node11</title>
<g id="a_node11"><a xlink:href="../../d6/d00/classmodel_1_1_variables_collection.html#acd6fca31b737fbdf2928be0b38d5ce46" target="_top" xlink:title="model.VariablesCollection.produce\lUpdate">
<polygon fill="white" stroke="black" points="404,-39 404,-69 586,-69 586,-39 404,-39"/>
<text text-anchor="start" x="412" y="-57" font-family="Helvetica,sans-Serif" font-size="10.00">model.VariablesCollection.produce</text>
<text text-anchor="middle" x="495" y="-46" font-family="Helvetica,sans-Serif" font-size="10.00">Update</text>
</a>
</g>
</g>
<!-- Node10&#45;&gt;Node11 -->
<g id="edge10" class="edge"><title>Node10&#45;&gt;Node11</title>
<path fill="none" stroke="midnightblue" d="M367.601,-54C376.151,-54 384.898,-54 393.604,-54"/>
<polygon fill="midnightblue" stroke="midnightblue" points="393.789,-57.5001 403.789,-54 393.789,-50.5001 393.789,-57.5001"/>
</g>
</g>
</svg>
