<?xml version="1.0" encoding="UTF-8" standalone="no"?>
<!DOCTYPE svg PUBLIC "-//W3C//DTD SVG 1.1//EN"
 "http://www.w3.org/Graphics/SVG/1.1/DTD/svg11.dtd">
<!-- Generated by graphviz version 2.36.0 (20140111.2315)
 -->
<!-- Title: model.VariablesCollection.saveState Pages: 1 -->
<svg width="748pt" height="82pt"
 viewBox="0.00 0.00 748.00 82.00" xmlns="http://www.w3.org/2000/svg" xmlns:xlink="http://www.w3.org/1999/xlink">
<g id="graph0" class="graph" transform="scale(1 1) rotate(0) translate(4 78)">
<title>model.VariablesCollection.saveState</title>
<polygon fill="white" stroke="none" points="-4,4 -4,-78 744,-78 744,4 -4,4"/>
<!-- Node1 -->
<g id="node1" class="node"><title>Node1</title>
<polygon fill="#bfbfbf" stroke="black" points="0.5,-22 0.5,-52 165.5,-52 165.5,-22 0.5,-22"/>
<text text-anchor="start" x="8.5" y="-40" font-family="Helvetica,sans-Serif" font-size="10.00">model.VariablesCollection.save</text>
<text text-anchor="middle" x="83" y="-29" font-family="Helvetica,sans-Serif" font-size="10.00">State</text>
</g>
<!-- Node2 -->
<g id="node2" class="node"><title>Node2</title>
<g id="a_node2"><a xlink:href="../../de/d16/classparser_1_1parser_1_1_regex.html#ac1d2fa9896f02dd01930a20e76fbfc6c" target="_top" xlink:title="parser.parser.Regex.getCommand\lString">
<polygon fill="white" stroke="black" points="202,-44 202,-74 382,-74 382,-44 202,-44"/>
<text text-anchor="start" x="210" y="-62" font-family="Helvetica,sans-Serif" font-size="10.00">parser.parser.Regex.getCommand</text>
<text text-anchor="middle" x="292" y="-51" font-family="Helvetica,sans-Serif" font-size="10.00">String</text>
</a>
</g>
</g>
<!-- Node1&#45;&gt;Node2 -->
<g id="edge1" class="edge"><title>Node1&#45;&gt;Node2</title>
<path fill="none" stroke="midnightblue" d="M165.515,-45.6634C174.053,-46.5709 182.801,-47.5006 191.51,-48.4262"/>
<polygon fill="midnightblue" stroke="midnightblue" points="191.389,-51.9329 201.703,-49.5095 192.129,-44.9721 191.389,-51.9329"/>
</g>
<!-- Node3 -->
<g id="node3" class="node"><title>Node3</title>
<g id="a_node3"><a xlink:href="../../de/d16/classparser_1_1parser_1_1_regex.html#a9da6d787de06ba7ea76d52326b532bd1" target="_top" xlink:title="parser.parser.Regex.getInstance">
<polygon fill="white" stroke="black" points="207,-5.5 207,-24.5 377,-24.5 377,-5.5 207,-5.5"/>
<text text-anchor="middle" x="292" y="-12.5" font-family="Helvetica,sans-Serif" font-size="10.00">parser.parser.Regex.getInstance</text>
</a>
</g>
</g>
<!-- Node1&#45;&gt;Node3 -->
<g id="edge2" class="edge"><title>Node1&#45;&gt;Node3</title>
<path fill="none" stroke="midnightblue" d="M165.515,-28.3366C175.803,-27.2431 186.395,-26.1174 196.859,-25.0053"/>
<polygon fill="midnightblue" stroke="midnightblue" points="197.264,-28.4821 206.838,-23.9448 196.524,-21.5213 197.264,-28.4821"/>
</g>
<!-- Node4 -->
<g id="node4" class="node"><title>Node4</title>
<g id="a_node4"><a xlink:href="../../de/d16/classparser_1_1parser_1_1_regex.html#a1fd187b9f2b45d0707cb10057e80d7ff" target="_top" xlink:title="parser.parser.Regex.Regex">
<polygon fill="white" stroke="black" points="418.5,-5.5 418.5,-24.5 561.5,-24.5 561.5,-5.5 418.5,-5.5"/>
<text text-anchor="middle" x="490" y="-12.5" font-family="Helvetica,sans-Serif" font-size="10.00">parser.parser.Regex.Regex</text>
</a>
</g>
</g>
<!-- Node3&#45;&gt;Node4 -->
<g id="edge3" class="edge"><title>Node3&#45;&gt;Node4</title>
<path fill="none" stroke="midnightblue" d="M377.259,-15C387.531,-15 398.008,-15 408.227,-15"/>
<polygon fill="midnightblue" stroke="midnightblue" points="408.343,-18.5001 418.343,-15 408.343,-11.5001 408.343,-18.5001"/>
</g>
<!-- Node5 -->
<g id="node5" class="node"><title>Node5</title>
<g id="a_node5"><a xlink:href="../../de/d16/classparser_1_1parser_1_1_regex.html#a413da3364c9c07a315222d34d7f0fc56" target="_top" xlink:title="parser.parser.Regex.make\lPatterns">
<polygon fill="white" stroke="black" points="598.5,-0 598.5,-30 739.5,-30 739.5,-0 598.5,-0"/>
<text text-anchor="start" x="606.5" y="-18" font-family="Helvetica,sans-Serif" font-size="10.00">parser.parser.Regex.make</text>
<text text-anchor="middle" x="669" y="-7" font-family="Helvetica,sans-Serif" font-size="10.00">Patterns</text>
</a>
</g>
</g>
<!-- Node4&#45;&gt;Node5 -->
<g id="edge4" class="edge"><title>Node4&#45;&gt;Node5</title>
<path fill="none" stroke="midnightblue" d="M561.718,-15C570.369,-15 579.257,-15 588.032,-15"/>
<polygon fill="midnightblue" stroke="midnightblue" points="588.26,-18.5001 598.26,-15 588.26,-11.5001 588.26,-18.5001"/>
</g>
</g>
</svg>
