<?xml version="1.0" encoding="UTF-8" standalone="no"?>
<!DOCTYPE svg PUBLIC "-//W3C//DTD SVG 1.1//EN"
 "http://www.w3.org/Graphics/SVG/1.1/DTD/svg11.dtd">
<!-- Generated by graphviz version 2.36.0 (20140111.2315)
 -->
<!-- Title: model.VariablesCollection.findVariable Pages: 1 -->
<svg width="560pt" height="126pt"
 viewBox="0.00 0.00 560.00 126.00" xmlns="http://www.w3.org/2000/svg" xmlns:xlink="http://www.w3.org/1999/xlink">
<g id="graph0" class="graph" transform="scale(1 1) rotate(0) translate(4 122)">
<title>model.VariablesCollection.findVariable</title>
<polygon fill="white" stroke="none" points="-4,4 -4,-122 556,-122 556,4 -4,4"/>
<!-- Node1 -->
<g id="node1" class="node"><title>Node1</title>
<polygon fill="#bfbfbf" stroke="black" points="0,-44 0,-74 160,-74 160,-44 0,-44"/>
<text text-anchor="start" x="8" y="-62" font-family="Helvetica,sans-Serif" font-size="10.00">model.VariablesCollection.find</text>
<text text-anchor="middle" x="80" y="-51" font-family="Helvetica,sans-Serif" font-size="10.00">Variable</text>
</g>
<!-- Node2 -->
<g id="node2" class="node"><title>Node2</title>
<g id="a_node2"><a xlink:href="../../d6/d00/classmodel_1_1_variables_collection.html#add84dfc7ce130a9bde135a9bf1d080ff" target="_top" xlink:title="model.VariablesCollection.add\lVariable">
<polygon fill="white" stroke="black" points="196.5,-88 196.5,-118 357.5,-118 357.5,-88 196.5,-88"/>
<text text-anchor="start" x="204.5" y="-106" font-family="Helvetica,sans-Serif" font-size="10.00">model.VariablesCollection.add</text>
<text text-anchor="middle" x="277" y="-95" font-family="Helvetica,sans-Serif" font-size="10.00">Variable</text>
</a>
</g>
</g>
<!-- Node1&#45;&gt;Node2 -->
<g id="edge1" class="edge"><title>Node1&#45;&gt;Node2</title>
<path fill="none" stroke="midnightblue" d="M157.531,-76.2684C174.667,-80.1352 192.711,-84.2066 209.407,-87.9738"/>
<polygon fill="midnightblue" stroke="midnightblue" points="158.088,-72.8062 147.563,-74.0192 156.547,-79.6346 158.088,-72.8062"/>
</g>
<!-- Node3 -->
<g id="node3" class="node"><title>Node3</title>
<g id="a_node3"><a xlink:href="../../d6/d00/classmodel_1_1_variables_collection.html#a9060d5c67d836153c2e0daff3b92c297" target="_top" xlink:title="model.VariablesCollection.get\lVariableValue">
<polygon fill="white" stroke="black" points="394,-66 394,-96 552,-96 552,-66 394,-66"/>
<text text-anchor="start" x="402" y="-84" font-family="Helvetica,sans-Serif" font-size="10.00">model.VariablesCollection.get</text>
<text text-anchor="middle" x="473" y="-73" font-family="Helvetica,sans-Serif" font-size="10.00">VariableValue</text>
</a>
</g>
</g>
<!-- Node1&#45;&gt;Node3 -->
<g id="edge3" class="edge"><title>Node1&#45;&gt;Node3</title>
<path fill="none" stroke="midnightblue" d="M170.316,-64.0255C237.781,-67.8214 329.463,-72.98 393.994,-76.6109"/>
<polygon fill="midnightblue" stroke="midnightblue" points="170.306,-60.5194 160.125,-63.452 169.912,-67.5084 170.306,-60.5194"/>
</g>
<!-- Node4 -->
<g id="node4" class="node"><title>Node4</title>
<g id="a_node4"><a xlink:href="../../d6/d00/classmodel_1_1_variables_collection.html#a9b1943d986eb19239d153750aaed3a75" target="_top" xlink:title="model.VariablesCollection.wait\lScopeVariable">
<polygon fill="white" stroke="black" points="196.5,-0 196.5,-30 357.5,-30 357.5,-0 196.5,-0"/>
<text text-anchor="start" x="204.5" y="-18" font-family="Helvetica,sans-Serif" font-size="10.00">model.VariablesCollection.wait</text>
<text text-anchor="middle" x="277" y="-7" font-family="Helvetica,sans-Serif" font-size="10.00">ScopeVariable</text>
</a>
</g>
</g>
<!-- Node1&#45;&gt;Node4 -->
<g id="edge4" class="edge"><title>Node1&#45;&gt;Node4</title>
<path fill="none" stroke="midnightblue" d="M157.531,-41.7316C174.667,-37.8648 192.711,-33.7934 209.407,-30.0262"/>
<polygon fill="midnightblue" stroke="midnightblue" points="156.547,-38.3654 147.563,-43.9808 158.088,-45.1938 156.547,-38.3654"/>
</g>
<!-- Node2&#45;&gt;Node3 -->
<g id="edge2" class="edge"><title>Node2&#45;&gt;Node3</title>
<path fill="none" stroke="midnightblue" d="M367.868,-92.8088C376.533,-91.8261 385.275,-90.8348 393.815,-89.8664"/>
<polygon fill="midnightblue" stroke="midnightblue" points="367.289,-89.3519 357.747,-93.9565 368.078,-96.3073 367.289,-89.3519"/>
</g>
</g>
</svg>
