<?xml version="1.0" encoding="UTF-8" standalone="no"?>
<!DOCTYPE svg PUBLIC "-//W3C//DTD SVG 1.1//EN"
 "http://www.w3.org/Graphics/SVG/1.1/DTD/svg11.dtd">
<!-- Generated by graphviz version 2.36.0 (20140111.2315)
 -->
<!-- Title: model.VariablesCollection.notifyObservers Pages: 1 -->
<svg width="570pt" height="38pt"
 viewBox="0.00 0.00 570.00 38.00" xmlns="http://www.w3.org/2000/svg" xmlns:xlink="http://www.w3.org/1999/xlink">
<g id="graph0" class="graph" transform="scale(1 1) rotate(0) translate(4 34)">
<title>model.VariablesCollection.notifyObservers</title>
<polygon fill="white" stroke="none" points="-4,4 -4,-34 566,-34 566,4 -4,4"/>
<!-- Node1 -->
<g id="node1" class="node"><title>Node1</title>
<polygon fill="#bfbfbf" stroke="black" points="0.5,-0 0.5,-30 169.5,-30 169.5,-0 0.5,-0"/>
<text text-anchor="start" x="8.5" y="-18" font-family="Helvetica,sans-Serif" font-size="10.00">model.VariablesCollection.notify</text>
<text text-anchor="middle" x="85" y="-7" font-family="Helvetica,sans-Serif" font-size="10.00">Observers</text>
</g>
<!-- Node2 -->
<g id="node2" class="node"><title>Node2</title>
<g id="a_node2"><a xlink:href="../../d6/d00/classmodel_1_1_variables_collection.html#add84dfc7ce130a9bde135a9bf1d080ff" target="_top" xlink:title="model.VariablesCollection.add\lVariable">
<polygon fill="white" stroke="black" points="206.5,-0 206.5,-30 367.5,-30 367.5,-0 206.5,-0"/>
<text text-anchor="start" x="214.5" y="-18" font-family="Helvetica,sans-Serif" font-size="10.00">model.VariablesCollection.add</text>
<text text-anchor="middle" x="287" y="-7" font-family="Helvetica,sans-Serif" font-size="10.00">Variable</text>
</a>
</g>
</g>
<!-- Node1&#45;&gt;Node2 -->
<g id="edge1" class="edge"><title>Node1&#45;&gt;Node2</title>
<path fill="none" stroke="midnightblue" d="M179.926,-15C188.711,-15 197.558,-15 206.196,-15"/>
<polygon fill="midnightblue" stroke="midnightblue" points="179.659,-11.5001 169.659,-15 179.659,-18.5001 179.659,-11.5001"/>
</g>
<!-- Node3 -->
<g id="node3" class="node"><title>Node3</title>
<g id="a_node3"><a xlink:href="../../d6/d00/classmodel_1_1_variables_collection.html#a9060d5c67d836153c2e0daff3b92c297" target="_top" xlink:title="model.VariablesCollection.get\lVariableValue">
<polygon fill="white" stroke="black" points="404,-0 404,-30 562,-30 562,-0 404,-0"/>
<text text-anchor="start" x="412" y="-18" font-family="Helvetica,sans-Serif" font-size="10.00">model.VariablesCollection.get</text>
<text text-anchor="middle" x="483" y="-7" font-family="Helvetica,sans-Serif" font-size="10.00">VariableValue</text>
</a>
</g>
</g>
<!-- Node2&#45;&gt;Node3 -->
<g id="edge2" class="edge"><title>Node2&#45;&gt;Node3</title>
<path fill="none" stroke="midnightblue" d="M377.868,-15C386.533,-15 395.275,-15 403.815,-15"/>
<polygon fill="midnightblue" stroke="midnightblue" points="377.747,-11.5001 367.747,-15 377.747,-18.5001 377.747,-11.5001"/>
</g>
</g>
</svg>
