<?xml version="1.0" encoding="UTF-8" standalone="no"?>
<!DOCTYPE svg PUBLIC "-//W3C//DTD SVG 1.1//EN"
 "http://www.w3.org/Graphics/SVG/1.1/DTD/svg11.dtd">
<!-- Generated by graphviz version 2.36.0 (20140111.2315)
 -->
<!-- Title: parser.nodes.UnaryNode Pages: 1 -->
<svg width="153pt" height="96pt"
 viewBox="0.00 0.00 153.00 96.00" xmlns="http://www.w3.org/2000/svg" xmlns:xlink="http://www.w3.org/1999/xlink">
<g id="graph0" class="graph" transform="scale(1 1) rotate(0) translate(4 92)">
<title>parser.nodes.UnaryNode</title>
<polygon fill="white" stroke="none" points="-4,4 -4,-92 149,-92 149,4 -4,4"/>
<!-- Node1 -->
<g id="node1" class="node"><title>Node1</title>
<polygon fill="#bfbfbf" stroke="black" points="2,-0.5 2,-19.5 138,-19.5 138,-0.5 2,-0.5"/>
<text text-anchor="middle" x="70" y="-7.5" font-family="Helvetica,sans-Serif" font-size="10.00">parser.nodes.UnaryNode</text>
</g>
<!-- Node2 -->
<g id="node2" class="node"><title>Node2</title>
<g id="a_node2"><a xlink:href="../../da/d96/classparser_1_1nodes_1_1_syntax_node.html" target="_top" xlink:title="parser.nodes.SyntaxNode">
<polygon fill="white" stroke="black" points="0,-68.5 0,-87.5 140,-87.5 140,-68.5 0,-68.5"/>
<text text-anchor="middle" x="70" y="-75.5" font-family="Helvetica,sans-Serif" font-size="10.00">parser.nodes.SyntaxNode</text>
</a>
</g>
</g>
<!-- Node2&#45;&gt;Node1 -->
<g id="edge1" class="edge"><title>Node2&#45;&gt;Node1</title>
<path fill="none" stroke="midnightblue" d="M68.4399,-58.3825C68.2572,-55.5753 68.1003,-52.7126 68,-50 67.6141,-39.5663 68.4162,-27.5725 69.1167,-19.6712"/>
<polygon fill="midnightblue" stroke="midnightblue" points="64.9607,-58.7906 69.2083,-68.4967 71.9406,-58.2602 64.9607,-58.7906"/>
</g>
<!-- Node2&#45;&gt;Node1 -->
<g id="edge2" class="edge"><title>Node2&#45;&gt;Node1</title>
<path fill="none" stroke="#9a32cd" stroke-dasharray="5,2" d="M70,-58.0413C70,-45.4724 70,-29.5631 70,-19.8411"/>
<polygon fill="#9a32cd" stroke="#9a32cd" points="66.5001,-58.3716 70,-68.3717 73.5001,-58.3717 66.5001,-58.3716"/>
<text text-anchor="middle" x="107.5" y="-41.5" font-family="Helvetica,sans-Serif" font-size="10.00"> referenceNode</text>
</g>
</g>
</svg>
