<?xml version="1.0" encoding="UTF-8" standalone="no"?>
<!DOCTYPE svg PUBLIC "-//W3C//DTD SVG 1.1//EN"
 "http://www.w3.org/Graphics/SVG/1.1/DTD/svg11.dtd">
<!-- Generated by graphviz version 2.36.0 (20140111.2315)
 -->
<!-- Title: parser.commands.AskWith Pages: 1 -->
<svg width="152pt" height="222pt"
 viewBox="0.00 0.00 152.00 222.00" xmlns="http://www.w3.org/2000/svg" xmlns:xlink="http://www.w3.org/1999/xlink">
<g id="graph0" class="graph" transform="scale(1 1) rotate(0) translate(4 218)">
<title>parser.commands.AskWith</title>
<polygon fill="white" stroke="none" points="-4,4 -4,-218 148,-218 148,4 -4,4"/>
<!-- Node1 -->
<g id="node1" class="node"><title>Node1</title>
<polygon fill="#bfbfbf" stroke="black" points="0,-0.5 0,-19.5 144,-19.5 144,-0.5 0,-0.5"/>
<text text-anchor="middle" x="72" y="-7.5" font-family="Helvetica,sans-Serif" font-size="10.00">parser.commands.AskWith</text>
</g>
<!-- Node2 -->
<g id="node2" class="node"><title>Node2</title>
<g id="a_node2"><a xlink:href="../../db/dea/classparser_1_1commands_1_1_ask.html" target="_top" xlink:title="parser.commands.Ask">
<polygon fill="white" stroke="black" points="10,-58.5 10,-77.5 134,-77.5 134,-58.5 10,-58.5"/>
<text text-anchor="middle" x="72" y="-65.5" font-family="Helvetica,sans-Serif" font-size="10.00">parser.commands.Ask</text>
</a>
</g>
</g>
<!-- Node2&#45;&gt;Node1 -->
<g id="edge1" class="edge"><title>Node2&#45;&gt;Node1</title>
<path fill="none" stroke="midnightblue" d="M72,-47.953C72,-38.2875 72,-27.0312 72,-19.5052"/>
<polygon fill="midnightblue" stroke="midnightblue" points="68.5001,-48.25 72,-58.25 75.5001,-48.25 68.5001,-48.25"/>
</g>
<!-- Node3 -->
<g id="node3" class="node"><title>Node3</title>
<g id="a_node3"><a xlink:href="../../db/d11/classparser_1_1nodes_1_1_binary_node.html" target="_top" xlink:title="parser.nodes.BinaryNode">
<polygon fill="white" stroke="black" points="3.5,-116.5 3.5,-135.5 140.5,-135.5 140.5,-116.5 3.5,-116.5"/>
<text text-anchor="middle" x="72" y="-123.5" font-family="Helvetica,sans-Serif" font-size="10.00">parser.nodes.BinaryNode</text>
</a>
</g>
</g>
<!-- Node3&#45;&gt;Node2 -->
<g id="edge2" class="edge"><title>Node3&#45;&gt;Node2</title>
<path fill="none" stroke="midnightblue" d="M72,-105.953C72,-96.2875 72,-85.0312 72,-77.5052"/>
<polygon fill="midnightblue" stroke="midnightblue" points="68.5001,-106.25 72,-116.25 75.5001,-106.25 68.5001,-106.25"/>
</g>
<!-- Node4 -->
<g id="node4" class="node"><title>Node4</title>
<g id="a_node4"><a xlink:href="../../da/d96/classparser_1_1nodes_1_1_syntax_node.html" target="_top" xlink:title="parser.nodes.SyntaxNode">
<polygon fill="white" stroke="black" points="2,-194.5 2,-213.5 142,-213.5 142,-194.5 2,-194.5"/>
<text text-anchor="middle" x="72" y="-201.5" font-family="Helvetica,sans-Serif" font-size="10.00">parser.nodes.SyntaxNode</text>
</a>
</g>
</g>
<!-- Node4&#45;&gt;Node3 -->
<g id="edge3" class="edge"><title>Node4&#45;&gt;Node3</title>
<path fill="none" stroke="midnightblue" d="M70.4399,-184.382C70.2572,-181.575 70.1003,-178.713 70,-176 69.6386,-166.229 69.6386,-163.771 70,-154 70.2293,-147.8 70.7539,-140.815 71.2083,-135.503"/>
<polygon fill="midnightblue" stroke="midnightblue" points="66.9607,-184.791 71.2083,-194.497 73.9406,-184.26 66.9607,-184.791"/>
</g>
<!-- Node4&#45;&gt;Node3 -->
<g id="edge4" class="edge"><title>Node4&#45;&gt;Node3</title>
<path fill="none" stroke="#9a32cd" stroke-dasharray="5,2" d="M72,-184.224C72,-168.697 72,-147.358 72,-135.616"/>
<polygon fill="#9a32cd" stroke="#9a32cd" points="68.5001,-184.282 72,-194.282 75.5001,-184.282 68.5001,-184.282"/>
<text text-anchor="middle" x="95.5" y="-168" font-family="Helvetica,sans-Serif" font-size="10.00"> nodeOne</text>
<text text-anchor="middle" x="95.5" y="-157" font-family="Helvetica,sans-Serif" font-size="10.00">nodeTwo</text>
</g>
</g>
</svg>
