<?xml version="1.0" encoding="UTF-8" standalone="no"?>
<!DOCTYPE svg PUBLIC "-//W3C//DTD SVG 1.1//EN"
 "http://www.w3.org/Graphics/SVG/1.1/DTD/svg11.dtd">
<!-- Generated by graphviz version 2.36.0 (20140111.2315)
 -->
<!-- Title: view.listwindows.VariableLabel Pages: 1 -->
<svg width="332pt" height="118pt"
 viewBox="0.00 0.00 332.00 118.00" xmlns="http://www.w3.org/2000/svg" xmlns:xlink="http://www.w3.org/1999/xlink">
<g id="graph0" class="graph" transform="scale(1 1) rotate(0) translate(4 114)">
<title>view.listwindows.VariableLabel</title>
<polygon fill="white" stroke="none" points="-4,4 -4,-114 328,-114 328,4 -4,4"/>
<!-- Node1 -->
<g id="node1" class="node"><title>Node1</title>
<polygon fill="#bfbfbf" stroke="black" points="73.5,-1 73.5,-31 206.5,-31 206.5,-1 73.5,-1"/>
<text text-anchor="start" x="81.5" y="-19" font-family="Helvetica,sans-Serif" font-size="10.00">view.listwindows.Variable</text>
<text text-anchor="middle" x="140" y="-8" font-family="Helvetica,sans-Serif" font-size="10.00">Label</text>
</g>
<!-- Node2 -->
<g id="node2" class="node"><title>Node2</title>
<polygon fill="white" stroke="#bfbfbf" points="0,-90.5 0,-109.5 42,-109.5 42,-90.5 0,-90.5"/>
<text text-anchor="middle" x="21" y="-97.5" font-family="Helvetica,sans-Serif" font-size="10.00">HBox</text>
</g>
<!-- Node2&#45;&gt;Node1 -->
<g id="edge1" class="edge"><title>Node2&#45;&gt;Node1</title>
<path fill="none" stroke="midnightblue" d="M42.0014,-84.5285C63.8227,-69.4919 97.7507,-46.1129 119.416,-31.1839"/>
<polygon fill="midnightblue" stroke="midnightblue" points="39.9835,-81.6684 33.7351,-90.2246 43.9554,-87.4325 39.9835,-81.6684"/>
</g>
<!-- Node3 -->
<g id="node3" class="node"><title>Node3</title>
<polygon fill="white" stroke="#bfbfbf" points="60,-90.5 60,-109.5 146,-109.5 146,-90.5 60,-90.5"/>
<text text-anchor="middle" x="103" y="-97.5" font-family="Helvetica,sans-Serif" font-size="10.00">StringProperty</text>
</g>
<!-- Node3&#45;&gt;Node1 -->
<g id="edge2" class="edge"><title>Node3&#45;&gt;Node1</title>
<path fill="none" stroke="#9a32cd" stroke-dasharray="5,2" d="M105.703,-80.4168C107.528,-70.9916 110.455,-59.5491 115,-50 118.151,-43.3803 122.76,-36.7968 127.164,-31.2716"/>
<polygon fill="#9a32cd" stroke="#9a32cd" points="102.245,-79.8782 104.037,-90.3202 109.148,-81.0394 102.245,-79.8782"/>
<text text-anchor="middle" x="139" y="-64" font-family="Helvetica,sans-Serif" font-size="10.00"> myName</text>
<text text-anchor="middle" x="139" y="-53" font-family="Helvetica,sans-Serif" font-size="10.00">myValue</text>
</g>
<!-- Node4 -->
<g id="node4" class="node"><title>Node4</title>
<polygon fill="white" stroke="#bfbfbf" points="164,-90.5 164,-109.5 220,-109.5 220,-90.5 164,-90.5"/>
<text text-anchor="middle" x="192" y="-97.5" font-family="Helvetica,sans-Serif" font-size="10.00">TextField</text>
</g>
<!-- Node4&#45;&gt;Node1 -->
<g id="edge3" class="edge"><title>Node4&#45;&gt;Node1</title>
<path fill="none" stroke="#9a32cd" stroke-dasharray="5,2" d="M182.003,-81.3924C176.552,-71.9761 169.588,-60.2432 163,-50 158.996,-43.7741 154.364,-37.0462 150.311,-31.2995"/>
<polygon fill="#9a32cd" stroke="#9a32cd" points="179.047,-83.2735 187.059,-90.207 185.12,-79.7911 179.047,-83.2735"/>
<text text-anchor="middle" x="205" y="-58.5" font-family="Helvetica,sans-Serif" font-size="10.00"> myTextField</text>
</g>
<!-- Node5 -->
<g id="node5" class="node"><title>Node5</title>
<polygon fill="white" stroke="#bfbfbf" points="245,-90.5 245,-109.5 287,-109.5 287,-90.5 245,-90.5"/>
<text text-anchor="middle" x="266" y="-97.5" font-family="Helvetica,sans-Serif" font-size="10.00">Label</text>
</g>
<!-- Node5&#45;&gt;Node1 -->
<g id="edge4" class="edge"><title>Node5&#45;&gt;Node1</title>
<path fill="none" stroke="#9a32cd" stroke-dasharray="5,2" d="M259.53,-81.0732C254.959,-70.696 247.876,-58.1214 238,-50 228.086,-41.8469 216.065,-35.6738 203.888,-31.0108"/>
<polygon fill="#9a32cd" stroke="#9a32cd" points="256.322,-82.4772 263.275,-90.4715 262.825,-79.8862 256.322,-82.4772"/>
<text text-anchor="middle" x="289" y="-64" font-family="Helvetica,sans-Serif" font-size="10.00"> myValueLabel</text>
<text text-anchor="middle" x="289" y="-53" font-family="Helvetica,sans-Serif" font-size="10.00">myVarLabel</text>
</g>
</g>
</svg>
