<?xml version="1.0" encoding="UTF-8" standalone="no"?>
<!DOCTYPE svg PUBLIC "-//W3C//DTD SVG 1.1//EN"
 "http://www.w3.org/Graphics/SVG/1.1/DTD/svg11.dtd">
<!-- Generated by graphviz version 2.36.0 (20140111.2315)
 -->
<!-- Title: model.Turtle.moveToPosition Pages: 1 -->
<svg width="398pt" height="66pt"
 viewBox="0.00 0.00 398.00 66.00" xmlns="http://www.w3.org/2000/svg" xmlns:xlink="http://www.w3.org/1999/xlink">
<g id="graph0" class="graph" transform="scale(1 1) rotate(0) translate(4 62)">
<title>model.Turtle.moveToPosition</title>
<polygon fill="white" stroke="none" points="-4,4 -4,-62 394,-62 394,4 -4,4"/>
<!-- Node1 -->
<g id="node1" class="node"><title>Node1</title>
<polygon fill="#bfbfbf" stroke="black" points="0,-19.5 0,-38.5 152,-38.5 152,-19.5 0,-19.5"/>
<text text-anchor="middle" x="76" y="-26.5" font-family="Helvetica,sans-Serif" font-size="10.00">model.Turtle.moveToPosition</text>
</g>
<!-- Node2 -->
<g id="node2" class="node"><title>Node2</title>
<g id="a_node2"><a xlink:href="../../dc/d45/classparser_1_1commands_1_1_home.html#af9f963a4a20107d7a92ede5a5dec6f12" target="_top" xlink:title="parser.commands.Home.execute">
<polygon fill="white" stroke="black" points="200.5,-38.5 200.5,-57.5 377.5,-57.5 377.5,-38.5 200.5,-38.5"/>
<text text-anchor="middle" x="289" y="-45.5" font-family="Helvetica,sans-Serif" font-size="10.00">parser.commands.Home.execute</text>
</a>
</g>
</g>
<!-- Node1&#45;&gt;Node2 -->
<g id="edge1" class="edge"><title>Node1&#45;&gt;Node2</title>
<path fill="none" stroke="midnightblue" d="M162.578,-36.706C174.959,-37.821 187.72,-38.9701 200.146,-40.0889"/>
<polygon fill="midnightblue" stroke="midnightblue" points="162.556,-33.19 152.282,-35.779 161.928,-40.1618 162.556,-33.19"/>
</g>
<!-- Node3 -->
<g id="node3" class="node"><title>Node3</title>
<g id="a_node3"><a xlink:href="../../df/d76/classparser_1_1commands_1_1_set_position.html#a757db63b48d90808d2f0996f05b37129" target="_top" xlink:title="parser.commands.SetPosition.execute">
<polygon fill="white" stroke="black" points="188,-0.5 188,-19.5 390,-19.5 390,-0.5 188,-0.5"/>
<text text-anchor="middle" x="289" y="-7.5" font-family="Helvetica,sans-Serif" font-size="10.00">parser.commands.SetPosition.execute</text>
</a>
</g>
</g>
<!-- Node1&#45;&gt;Node3 -->
<g id="edge2" class="edge"><title>Node1&#45;&gt;Node3</title>
<path fill="none" stroke="midnightblue" d="M162.354,-21.3141C170.693,-20.5632 179.208,-19.7965 187.677,-19.0338"/>
<polygon fill="midnightblue" stroke="midnightblue" points="161.928,-17.8382 152.282,-22.221 162.556,-24.81 161.928,-17.8382"/>
</g>
</g>
</svg>
