<?xml version="1.0" encoding="UTF-8" standalone="no"?>
<!DOCTYPE svg PUBLIC "-//W3C//DTD SVG 1.1//EN"
 "http://www.w3.org/Graphics/SVG/1.1/DTD/svg11.dtd">
<!-- Generated by graphviz version 2.36.0 (20140111.2315)
 -->
<!-- Title: parser.parser.Regex Pages: 1 -->
<svg width="180pt" height="118pt"
 viewBox="0.00 0.00 180.00 118.00" xmlns="http://www.w3.org/2000/svg" xmlns:xlink="http://www.w3.org/1999/xlink">
<g id="graph0" class="graph" transform="scale(1 1) rotate(0) translate(4 114)">
<title>parser.parser.Regex</title>
<polygon fill="white" stroke="none" points="-4,4 -4,-114 176,-114 176,4 -4,4"/>
<!-- Node1 -->
<g id="node1" class="node"><title>Node1</title>
<polygon fill="#bfbfbf" stroke="black" points="-0.5,-0.5 -0.5,-19.5 110.5,-19.5 110.5,-0.5 -0.5,-0.5"/>
<text text-anchor="middle" x="55" y="-7.5" font-family="Helvetica,sans-Serif" font-size="10.00">parser.parser.Regex</text>
</g>
<!-- Node1&#45;&gt;Node1 -->
<g id="edge2" class="edge"><title>Node1&#45;&gt;Node1</title>
<path fill="none" stroke="#9a32cd" stroke-dasharray="5,2" d="M120.642,-15.1874C125.214,-14.0021 128,-12.2729 128,-10 128,-6.36328 120.868,-4.11874 110.7,-3.26639"/>
<polygon fill="#9a32cd" stroke="#9a32cd" points="120.043,-11.7384 110.7,-16.7336 121.119,-18.6553 120.043,-11.7384"/>
<text text-anchor="middle" x="150" y="-7.5" font-family="Helvetica,sans-Serif" font-size="10.00"> instance</text>
</g>
<!-- Node2 -->
<g id="node2" class="node"><title>Node2</title>
<polygon fill="white" stroke="#bfbfbf" points="-1,-79 -1,-109 111,-109 111,-79 -1,-79"/>
<text text-anchor="start" x="7" y="-97" font-family="Helvetica,sans-Serif" font-size="10.00">List&lt; Entry&lt; String,</text>
<text text-anchor="middle" x="55" y="-86" font-family="Helvetica,sans-Serif" font-size="10.00"> Pattern &gt; &gt;</text>
</g>
<!-- Node2&#45;&gt;Node1 -->
<g id="edge1" class="edge"><title>Node2&#45;&gt;Node1</title>
<path fill="none" stroke="#9a32cd" stroke-dasharray="5,2" d="M55,-68.5997C55,-52.0312 55,-31.1113 55,-19.5915"/>
<polygon fill="#9a32cd" stroke="#9a32cd" points="51.5001,-68.7167 55,-78.7167 58.5001,-68.7167 51.5001,-68.7167"/>
<text text-anchor="middle" x="101" y="-52" font-family="Helvetica,sans-Serif" font-size="10.00"> commandPatterns</text>
<text text-anchor="middle" x="101" y="-41" font-family="Helvetica,sans-Serif" font-size="10.00">generalPatterns</text>
</g>
</g>
</svg>
