<?xml version="1.0" encoding="UTF-8" standalone="no"?>
<!DOCTYPE svg PUBLIC "-//W3C//DTD SVG 1.1//EN"
 "http://www.w3.org/Graphics/SVG/1.1/DTD/svg11.dtd">
<!-- Generated by graphviz version 2.36.0 (20140111.2315)
 -->
<!-- Title: parser.nodes.SyntaxNode.execute Pages: 1 -->
<svg width="898pt" height="1659pt"
 viewBox="0.00 0.00 898.00 1659.29" xmlns="http://www.w3.org/2000/svg" xmlns:xlink="http://www.w3.org/1999/xlink">
<g id="graph0" class="graph" transform="scale(1 1) rotate(0) translate(4 1655.29)">
<title>parser.nodes.SyntaxNode.execute</title>
<polygon fill="white" stroke="none" points="-4,4 -4,-1655.29 894,-1655.29 894,4 -4,4"/>
<!-- Node1 -->
<g id="node1" class="node"><title>Node1</title>
<polygon fill="#bfbfbf" stroke="black" points="0,-841.795 0,-860.795 182,-860.795 182,-841.795 0,-841.795"/>
<text text-anchor="middle" x="91" y="-848.795" font-family="Helvetica,sans-Serif" font-size="10.00">parser.nodes.SyntaxNode.execute</text>
</g>
<!-- Node2 -->
<g id="node2" class="node"><title>Node2</title>
<g id="a_node2"><a xlink:href="../../d5/d51/classparser_1_1commands_1_1_ask_with.html#ada3c73665fbd49550e041239bfee2bf5" target="_top" xlink:title="parser.commands.AskWith.create\lNewActiveStack">
<polygon fill="white" stroke="black" points="240,-1621.29 240,-1651.29 418,-1651.29 418,-1621.29 240,-1621.29"/>
<text text-anchor="start" x="248" y="-1639.29" font-family="Helvetica,sans-Serif" font-size="10.00">parser.commands.AskWith.create</text>
<text text-anchor="middle" x="329" y="-1628.29" font-family="Helvetica,sans-Serif" font-size="10.00">NewActiveStack</text>
</a>
</g>
</g>
<!-- Node1&#45;&gt;Node2 -->
<g id="edge1" class="edge"><title>Node1&#45;&gt;Node2</title>
<path fill="none" stroke="midnightblue" d="M92.3989,-870.941C94.9974,-978.963 112.897,-1499.78 218,-1611.29 224.179,-1617.85 231.689,-1622.86 239.852,-1626.66"/>
<polygon fill="midnightblue" stroke="midnightblue" points="95.8953,-870.736 92.1723,-860.817 88.897,-870.893 95.8953,-870.736"/>
</g>
<!-- Node3 -->
<g id="node3" class="node"><title>Node3</title>
<g id="a_node3"><a xlink:href="../../db/dea/classparser_1_1commands_1_1_ask.html#af023b91d12f19f696d5f40d37b4d1e4a" target="_top" xlink:title="parser.commands.Ask.create\lNewActiveStack">
<polygon fill="white" stroke="black" points="491,-323.295 491,-353.295 649,-353.295 649,-323.295 491,-323.295"/>
<text text-anchor="start" x="499" y="-341.295" font-family="Helvetica,sans-Serif" font-size="10.00">parser.commands.Ask.create</text>
<text text-anchor="middle" x="570" y="-330.295" font-family="Helvetica,sans-Serif" font-size="10.00">NewActiveStack</text>
</a>
</g>
</g>
<!-- Node1&#45;&gt;Node3 -->
<g id="edge2" class="edge"><title>Node1&#45;&gt;Node3</title>
<path fill="none" stroke="midnightblue" d="M94.1156,-831.46C103.437,-748.085 143.715,-427.477 218,-365.295 257.894,-331.9 399.965,-330.981 490.666,-334.113"/>
<polygon fill="midnightblue" stroke="midnightblue" points="90.6359,-831.083 93.0261,-841.405 97.5943,-831.845 90.6359,-831.083"/>
</g>
<!-- Node5 -->
<g id="node5" class="node"><title>Node5</title>
<g id="a_node5"><a xlink:href="../../d7/d4f/classparser_1_1commands_1_1_difference.html#aa7b9e9182b66cb70d4c1408b016ec94f" target="_top" xlink:title="parser.commands.Difference.execute">
<polygon fill="white" stroke="black" points="230.5,-1544.79 230.5,-1563.79 427.5,-1563.79 427.5,-1544.79 230.5,-1544.79"/>
<text text-anchor="middle" x="329" y="-1551.79" font-family="Helvetica,sans-Serif" font-size="10.00">parser.commands.Difference.execute</text>
</a>
</g>
</g>
<!-- Node1&#45;&gt;Node5 -->
<g id="edge4" class="edge"><title>Node1&#45;&gt;Node5</title>
<path fill="none" stroke="midnightblue" d="M92.6941,-870.948C96.702,-972.695 120.243,-1438.62 218,-1535.29 221.721,-1538.97 225.88,-1542.09 230.344,-1544.72"/>
<polygon fill="midnightblue" stroke="midnightblue" points="96.1878,-870.71 92.3147,-860.848 89.1927,-870.973 96.1878,-870.71"/>
</g>
<!-- Node6 -->
<g id="node6" class="node"><title>Node6</title>
<g id="a_node6"><a xlink:href="../../d8/d6e/classparser_1_1commands_1_1_sum.html#afe9af3d89f4273320b199732460169e7" target="_top" xlink:title="parser.commands.Sum.execute">
<polygon fill="white" stroke="black" points="244,-1506.79 244,-1525.79 414,-1525.79 414,-1506.79 244,-1506.79"/>
<text text-anchor="middle" x="329" y="-1513.79" font-family="Helvetica,sans-Serif" font-size="10.00">parser.commands.Sum.execute</text>
</a>
</g>
</g>
<!-- Node1&#45;&gt;Node6 -->
<g id="edge5" class="edge"><title>Node1&#45;&gt;Node6</title>
<path fill="none" stroke="midnightblue" d="M92.9474,-871.406C98.0432,-970.621 125.501,-1406.77 218,-1497.29 225.272,-1504.41 234.187,-1509.41 243.766,-1512.85"/>
<polygon fill="midnightblue" stroke="midnightblue" points="96.4348,-871.063 92.4446,-861.248 89.4433,-871.409 96.4348,-871.063"/>
</g>
<!-- Node7 -->
<g id="node7" class="node"><title>Node7</title>
<g id="a_node7"><a xlink:href="../../d5/ddb/classparser_1_1commands_1_1_product.html#aafece7199b84923f56f1e0516c8e4b5b" target="_top" xlink:title="parser.commands.Product.execute">
<polygon fill="white" stroke="black" points="236.5,-1468.79 236.5,-1487.79 421.5,-1487.79 421.5,-1468.79 236.5,-1468.79"/>
<text text-anchor="middle" x="329" y="-1475.79" font-family="Helvetica,sans-Serif" font-size="10.00">parser.commands.Product.execute</text>
</a>
</g>
</g>
<!-- Node1&#45;&gt;Node7 -->
<g id="edge6" class="edge"><title>Node1&#45;&gt;Node7</title>
<path fill="none" stroke="midnightblue" d="M93.1929,-871.124C99.3294,-966.246 130.513,-1374.67 218,-1459.29 223.363,-1464.48 229.601,-1468.54 236.329,-1471.69"/>
<polygon fill="midnightblue" stroke="midnightblue" points="96.6846,-870.881 92.5666,-861.12 89.6983,-871.319 96.6846,-870.881"/>
</g>
<!-- Node8 -->
<g id="node8" class="node"><title>Node8</title>
<g id="a_node8"><a xlink:href="../../df/db0/classparser_1_1commands_1_1_quotient.html#ade44e0da01fa2988b45009a7846d93ad" target="_top" xlink:title="parser.commands.Quotient.execute">
<polygon fill="white" stroke="black" points="234.5,-1430.79 234.5,-1449.79 423.5,-1449.79 423.5,-1430.79 234.5,-1430.79"/>
<text text-anchor="middle" x="329" y="-1437.79" font-family="Helvetica,sans-Serif" font-size="10.00">parser.commands.Quotient.execute</text>
</a>
</g>
</g>
<!-- Node1&#45;&gt;Node8 -->
<g id="edge7" class="edge"><title>Node1&#45;&gt;Node8</title>
<path fill="none" stroke="midnightblue" d="M93.4787,-871.026C100.73,-962.317 135.569,-1342.61 218,-1421.29 222.836,-1425.91 228.367,-1429.63 234.317,-1432.61"/>
<polygon fill="midnightblue" stroke="midnightblue" points="96.9597,-870.644 92.698,-860.944 89.9806,-871.185 96.9597,-870.644"/>
</g>
<!-- Node9 -->
<g id="node9" class="node"><title>Node9</title>
<g id="a_node9"><a xlink:href="../../d8/d67/classparser_1_1commands_1_1_remainder.html#a26e258d8e010e8fce32769b8b7e12372" target="_top" xlink:title="parser.commands.Remainder.execute">
<polygon fill="white" stroke="black" points="230,-1392.79 230,-1411.79 428,-1411.79 428,-1392.79 230,-1392.79"/>
<text text-anchor="middle" x="329" y="-1399.79" font-family="Helvetica,sans-Serif" font-size="10.00">parser.commands.Remainder.execute</text>
</a>
</g>
</g>
<!-- Node1&#45;&gt;Node9 -->
<g id="edge8" class="edge"><title>Node1&#45;&gt;Node9</title>
<path fill="none" stroke="midnightblue" d="M93.8182,-871.098C102.274,-958.737 140.659,-1310.57 218,-1383.29 221.953,-1387.01 226.358,-1390.14 231.067,-1392.77"/>
<polygon fill="midnightblue" stroke="midnightblue" points="97.3028,-870.768 92.878,-861.142 90.3338,-871.427 97.3028,-870.768"/>
</g>
<!-- Node10 -->
<g id="node10" class="node"><title>Node10</title>
<g id="a_node10"><a xlink:href="../../d4/d47/classparser_1_1commands_1_1_set_heading.html#a22acd67fd39af201dcf53f3fe9cb4d44" target="_top" xlink:title="parser.commands.SetHeading.execute">
<polygon fill="white" stroke="black" points="227,-1354.79 227,-1373.79 431,-1373.79 431,-1354.79 227,-1354.79"/>
<text text-anchor="middle" x="329" y="-1361.79" font-family="Helvetica,sans-Serif" font-size="10.00">parser.commands.SetHeading.execute</text>
</a>
</g>
</g>
<!-- Node1&#45;&gt;Node10 -->
<g id="edge9" class="edge"><title>Node1&#45;&gt;Node10</title>
<path fill="none" stroke="midnightblue" d="M94.1891,-870.988C103.881,-954.536 145.677,-1278.45 218,-1345.29 221.985,-1348.98 226.414,-1352.08 231.143,-1354.69"/>
<polygon fill="midnightblue" stroke="midnightblue" points="97.6432,-870.386 93.0347,-860.846 90.6881,-871.178 97.6432,-870.386"/>
</g>
<!-- Node11 -->
<g id="node11" class="node"><title>Node11</title>
<g id="a_node11"><a xlink:href="../../dc/d54/classparser_1_1commands_1_1_sine.html#afea78ffbd2f1427439dffd652e753eb9" target="_top" xlink:title="parser.commands.Sine.execute">
<polygon fill="white" stroke="black" points="244.5,-1316.79 244.5,-1335.79 413.5,-1335.79 413.5,-1316.79 244.5,-1316.79"/>
<text text-anchor="middle" x="329" y="-1323.79" font-family="Helvetica,sans-Serif" font-size="10.00">parser.commands.Sine.execute</text>
</a>
</g>
</g>
<!-- Node1&#45;&gt;Node11 -->
<g id="edge10" class="edge"><title>Node1&#45;&gt;Node11</title>
<path fill="none" stroke="midnightblue" d="M94.6313,-870.983C105.656,-950.462 150.704,-1246.32 218,-1307.29 225.54,-1314.13 234.614,-1318.95 244.275,-1322.31"/>
<polygon fill="midnightblue" stroke="midnightblue" points="98.0727,-870.315 93.2529,-860.88 91.137,-871.261 98.0727,-870.315"/>
</g>
<!-- Node12 -->
<g id="node12" class="node"><title>Node12</title>
<g id="a_node12"><a xlink:href="../../d8/d5f/classparser_1_1commands_1_1_tangent.html#a4dc2a7586d28a107e100c47c3c5907b2" target="_top" xlink:title="parser.commands.Tangent.execute">
<polygon fill="white" stroke="black" points="236.5,-1278.79 236.5,-1297.79 421.5,-1297.79 421.5,-1278.79 236.5,-1278.79"/>
<text text-anchor="middle" x="329" y="-1285.79" font-family="Helvetica,sans-Serif" font-size="10.00">parser.commands.Tangent.execute</text>
</a>
</g>
</g>
<!-- Node1&#45;&gt;Node12 -->
<g id="edge11" class="edge"><title>Node1&#45;&gt;Node12</title>
<path fill="none" stroke="midnightblue" d="M91.2799,-871.212C90.0127,-938.773 95.6734,-1161.02 218,-1269.29 223.442,-1274.11 229.65,-1277.92 236.283,-1280.93"/>
<polygon fill="midnightblue" stroke="midnightblue" points="94.7819,-871.181 91.5481,-861.092 87.7843,-870.995 94.7819,-871.181"/>
</g>
<!-- Node13 -->
<g id="node13" class="node"><title>Node13</title>
<g id="a_node13"><a xlink:href="../../db/d9e/classparser_1_1commands_1_1_minus.html#a5e44c80c2aa92ae04745e65a32cb1bb7" target="_top" xlink:title="parser.commands.Minus.execute">
<polygon fill="white" stroke="black" points="241,-1240.79 241,-1259.79 417,-1259.79 417,-1240.79 241,-1240.79"/>
<text text-anchor="middle" x="329" y="-1247.79" font-family="Helvetica,sans-Serif" font-size="10.00">parser.commands.Minus.execute</text>
</a>
</g>
</g>
<!-- Node1&#45;&gt;Node13 -->
<g id="edge12" class="edge"><title>Node1&#45;&gt;Node13</title>
<path fill="none" stroke="midnightblue" d="M91.964,-871.054C93.0017,-934.473 105.441,-1134.38 218,-1231.29 224.682,-1237.05 232.464,-1241.36 240.744,-1244.55"/>
<polygon fill="midnightblue" stroke="midnightblue" points="95.4624,-870.827 91.8814,-860.856 88.4627,-870.884 95.4624,-870.827"/>
</g>
<!-- Node14 -->
<g id="node14" class="node"><title>Node14</title>
<g id="a_node14"><a xlink:href="../../d6/dbc/classparser_1_1commands_1_1_natural_log.html#a06ef54ab458f0d3af20adc120d099a68" target="_top" xlink:title="parser.commands.NaturalLog.execute">
<polygon fill="white" stroke="black" points="229,-1202.79 229,-1221.79 429,-1221.79 429,-1202.79 229,-1202.79"/>
<text text-anchor="middle" x="329" y="-1209.79" font-family="Helvetica,sans-Serif" font-size="10.00">parser.commands.NaturalLog.execute</text>
</a>
</g>
</g>
<!-- Node1&#45;&gt;Node14 -->
<g id="edge13" class="edge"><title>Node1&#45;&gt;Node14</title>
<path fill="none" stroke="midnightblue" d="M92.7806,-871.019C96.262,-930.242 115.208,-1107.69 218,-1193.29 222.468,-1197.02 227.399,-1200.12 232.623,-1202.72"/>
<polygon fill="midnightblue" stroke="midnightblue" points="96.2654,-870.626 92.2703,-860.813 89.2742,-870.975 96.2654,-870.626"/>
</g>
<!-- Node15 -->
<g id="node15" class="node"><title>Node15</title>
<g id="a_node15"><a xlink:href="../../d9/da9/classparser_1_1commands_1_1_arc_tangent.html#af598b7bb4146bf6f1ff79ff33bf05e86" target="_top" xlink:title="parser.commands.ArcTangent.execute">
<polygon fill="white" stroke="black" points="228.5,-1164.79 228.5,-1183.79 429.5,-1183.79 429.5,-1164.79 228.5,-1164.79"/>
<text text-anchor="middle" x="329" y="-1171.79" font-family="Helvetica,sans-Serif" font-size="10.00">parser.commands.ArcTangent.execute</text>
</a>
</g>
</g>
<!-- Node1&#45;&gt;Node15 -->
<g id="edge14" class="edge"><title>Node1&#45;&gt;Node15</title>
<path fill="none" stroke="midnightblue" d="M93.7808,-871.001C99.8563,-925.802 124.892,-1080.85 218,-1155.29 222.692,-1159.05 227.861,-1162.17 233.323,-1164.76"/>
<polygon fill="midnightblue" stroke="midnightblue" points="97.247,-870.489 92.7545,-860.894 90.2828,-871.196 97.247,-870.489"/>
</g>
<!-- Node16 -->
<g id="node16" class="node"><title>Node16</title>
<g id="a_node16"><a xlink:href="../../d6/da9/classparser_1_1commands_1_1_power.html#a3b1089dcdc9810b31ccb07f2b5126aab" target="_top" xlink:title="parser.commands.Power.execute">
<polygon fill="white" stroke="black" points="241,-1126.79 241,-1145.79 417,-1145.79 417,-1126.79 241,-1126.79"/>
<text text-anchor="middle" x="329" y="-1133.79" font-family="Helvetica,sans-Serif" font-size="10.00">parser.commands.Power.execute</text>
</a>
</g>
</g>
<!-- Node1&#45;&gt;Node16 -->
<g id="edge15" class="edge"><title>Node1&#45;&gt;Node16</title>
<path fill="none" stroke="midnightblue" d="M95.0747,-871.192C103.96,-921.434 134.578,-1053.91 218,-1117.29 224.867,-1122.51 232.67,-1126.49 240.877,-1129.5"/>
<polygon fill="midnightblue" stroke="midnightblue" points="98.4758,-870.309 93.3792,-861.02 91.571,-871.46 98.4758,-870.309"/>
</g>
<!-- Node17 -->
<g id="node17" class="node"><title>Node17</title>
<g id="a_node17"><a xlink:href="../../d3/d32/classparser_1_1commands_1_1_cosine.html#aff4ba0e4ec3e68c10a343afa47ab4055" target="_top" xlink:title="parser.commands.Cosine.execute">
<polygon fill="white" stroke="black" points="239,-1088.79 239,-1107.79 419,-1107.79 419,-1088.79 239,-1088.79"/>
<text text-anchor="middle" x="329" y="-1095.79" font-family="Helvetica,sans-Serif" font-size="10.00">parser.commands.Cosine.execute</text>
</a>
</g>
</g>
<!-- Node1&#45;&gt;Node17 -->
<g id="edge16" class="edge"><title>Node1&#45;&gt;Node17</title>
<path fill="none" stroke="midnightblue" d="M96.6982,-871.067C108.511,-916.127 143.947,-1026.6 218,-1079.29 224.395,-1083.85 231.52,-1087.43 238.983,-1090.25"/>
<polygon fill="midnightblue" stroke="midnightblue" points="100.025,-869.942 94.1947,-861.096 93.2352,-871.647 100.025,-869.942"/>
</g>
<!-- Node18 -->
<g id="node18" class="node"><title>Node18</title>
<g id="a_node18"><a xlink:href="../../d7/d13/classparser_1_1commands_1_1_left.html#a773db2fec9a1c5cb19b2e88790570849" target="_top" xlink:title="parser.commands.Left.execute">
<polygon fill="white" stroke="black" points="246,-1050.79 246,-1069.79 412,-1069.79 412,-1050.79 246,-1050.79"/>
<text text-anchor="middle" x="329" y="-1057.79" font-family="Helvetica,sans-Serif" font-size="10.00">parser.commands.Left.execute</text>
</a>
</g>
</g>
<!-- Node1&#45;&gt;Node18 -->
<g id="edge17" class="edge"><title>Node1&#45;&gt;Node18</title>
<path fill="none" stroke="midnightblue" d="M98.8068,-870.711C113.676,-910.024 153.021,-998.896 218,-1041.29 226.44,-1046.8 235.99,-1050.86 245.85,-1053.82"/>
<polygon fill="midnightblue" stroke="midnightblue" points="102.058,-869.409 95.3335,-861.221 95.4841,-871.815 102.058,-869.409"/>
</g>
<!-- Node19 -->
<g id="node19" class="node"><title>Node19</title>
<g id="a_node19"><a xlink:href="../../d7/d87/classparser_1_1commands_1_1_less_than.html#a8877c0a3178169874956396dcd835ade" target="_top" xlink:title="parser.commands.LessThan.execute">
<polygon fill="white" stroke="black" points="232.5,-1012.79 232.5,-1031.79 425.5,-1031.79 425.5,-1012.79 232.5,-1012.79"/>
<text text-anchor="middle" x="329" y="-1019.79" font-family="Helvetica,sans-Serif" font-size="10.00">parser.commands.LessThan.execute</text>
</a>
</g>
</g>
<!-- Node1&#45;&gt;Node19 -->
<g id="edge18" class="edge"><title>Node1&#45;&gt;Node19</title>
<path fill="none" stroke="midnightblue" d="M101.737,-870.196C119.797,-903.164 161.816,-970.764 218,-1003.29 224.625,-1007.13 231.824,-1010.23 239.263,-1012.74"/>
<polygon fill="midnightblue" stroke="midnightblue" points="104.708,-868.329 96.9126,-861.154 98.5321,-871.624 104.708,-868.329"/>
</g>
<!-- Node20 -->
<g id="node20" class="node"><title>Node20</title>
<g id="a_node20"><a xlink:href="../../d4/d07/classparser_1_1commands_1_1_set_pen_size.html#a47015d04e7bde8bc7b73af66dae409bf" target="_top" xlink:title="parser.commands.SetPenSize.execute">
<polygon fill="white" stroke="black" points="227.5,-974.795 227.5,-993.795 430.5,-993.795 430.5,-974.795 227.5,-974.795"/>
<text text-anchor="middle" x="329" y="-981.795" font-family="Helvetica,sans-Serif" font-size="10.00">parser.commands.SetPenSize.execute</text>
</a>
</g>
</g>
<!-- Node1&#45;&gt;Node20 -->
<g id="edge19" class="edge"><title>Node1&#45;&gt;Node20</title>
<path fill="none" stroke="midnightblue" d="M105.578,-868.689C126.656,-894.354 169.868,-941.852 218,-965.295 225.928,-969.156 234.512,-972.245 243.269,-974.714"/>
<polygon fill="midnightblue" stroke="midnightblue" points="108.298,-866.487 99.3027,-860.889 102.844,-870.875 108.298,-866.487"/>
</g>
<!-- Node21 -->
<g id="node21" class="node"><title>Node21</title>
<g id="a_node21"><a xlink:href="../../d2/d28/classparser_1_1commands_1_1_equal.html#afcc7336489acc055aa7ff60a0f3f2375" target="_top" xlink:title="parser.commands.Equal.execute">
<polygon fill="white" stroke="black" points="242,-936.795 242,-955.795 416,-955.795 416,-936.795 242,-936.795"/>
<text text-anchor="middle" x="329" y="-943.795" font-family="Helvetica,sans-Serif" font-size="10.00">parser.commands.Equal.execute</text>
</a>
</g>
</g>
<!-- Node1&#45;&gt;Node21 -->
<g id="edge20" class="edge"><title>Node1&#45;&gt;Node21</title>
<path fill="none" stroke="midnightblue" d="M112.732,-867.154C136.733,-884.688 178.097,-912.416 218,-927.295 228.441,-931.188 239.742,-934.291 250.988,-936.762"/>
<polygon fill="midnightblue" stroke="midnightblue" points="114.537,-864.135 104.422,-860.981 110.363,-869.754 114.537,-864.135"/>
</g>
<!-- Node22 -->
<g id="node22" class="node"><title>Node22</title>
<g id="a_node22"><a xlink:href="../../d0/dd3/classparser_1_1commands_1_1_set_shape.html#a605596bc5e1213aee2b36a7e29a5e3eb" target="_top" xlink:title="parser.commands.SetShape.execute">
<polygon fill="white" stroke="black" points="231.5,-898.795 231.5,-917.795 426.5,-917.795 426.5,-898.795 231.5,-898.795"/>
<text text-anchor="middle" x="329" y="-905.795" font-family="Helvetica,sans-Serif" font-size="10.00">parser.commands.SetShape.execute</text>
</a>
</g>
</g>
<!-- Node1&#45;&gt;Node22 -->
<g id="edge21" class="edge"><title>Node1&#45;&gt;Node22</title>
<path fill="none" stroke="midnightblue" d="M130.01,-864.079C154.844,-872.103 188.098,-882.231 218,-889.295 233.089,-892.859 249.489,-896.051 264.908,-898.756"/>
<polygon fill="midnightblue" stroke="midnightblue" points="130.848,-860.671 120.255,-860.896 128.676,-867.326 130.848,-860.671"/>
</g>
<!-- Node23 -->
<g id="node23" class="node"><title>Node23</title>
<g id="a_node23"><a xlink:href="../../d8/d87/classparser_1_1commands_1_1_and.html#a2d570d9108c462096b162f6eacdcf2a5" target="_top" xlink:title="parser.commands.And.execute">
<polygon fill="white" stroke="black" points="245.5,-860.795 245.5,-879.795 412.5,-879.795 412.5,-860.795 245.5,-860.795"/>
<text text-anchor="middle" x="329" y="-867.795" font-family="Helvetica,sans-Serif" font-size="10.00">parser.commands.And.execute</text>
</a>
</g>
</g>
<!-- Node1&#45;&gt;Node23 -->
<g id="edge22" class="edge"><title>Node1&#45;&gt;Node23</title>
<path fill="none" stroke="midnightblue" d="M192.5,-859.386C210.065,-860.8 228.159,-862.257 245.178,-863.627"/>
<polygon fill="midnightblue" stroke="midnightblue" points="192.48,-855.873 182.232,-858.559 191.919,-862.85 192.48,-855.873"/>
</g>
<!-- Node24 -->
<g id="node24" class="node"><title>Node24</title>
<g id="a_node24"><a xlink:href="../../d0/d09/classparser_1_1commands_1_1_not.html#ab6765dd9ae0d15414da60a429ebc0d5b" target="_top" xlink:title="parser.commands.Not.execute">
<polygon fill="white" stroke="black" points="246.5,-822.795 246.5,-841.795 411.5,-841.795 411.5,-822.795 246.5,-822.795"/>
<text text-anchor="middle" x="329" y="-829.795" font-family="Helvetica,sans-Serif" font-size="10.00">parser.commands.Not.execute</text>
</a>
</g>
</g>
<!-- Node1&#45;&gt;Node24 -->
<g id="edge23" class="edge"><title>Node1&#45;&gt;Node24</title>
<path fill="none" stroke="midnightblue" d="M192.445,-843.208C210.423,-841.761 228.958,-840.268 246.329,-838.87"/>
<polygon fill="midnightblue" stroke="midnightblue" points="191.919,-839.739 182.232,-844.03 192.48,-846.716 191.919,-839.739"/>
</g>
<!-- Node25 -->
<g id="node25" class="node"><title>Node25</title>
<g id="a_node25"><a xlink:href="../../df/db7/classparser_1_1commands_1_1_not_equal.html#ae420fcf4455ac5383c1b946dc10058bd" target="_top" xlink:title="parser.commands.NotEqual.execute">
<polygon fill="white" stroke="black" points="233.5,-784.795 233.5,-803.795 424.5,-803.795 424.5,-784.795 233.5,-784.795"/>
<text text-anchor="middle" x="329" y="-791.795" font-family="Helvetica,sans-Serif" font-size="10.00">parser.commands.NotEqual.execute</text>
</a>
</g>
</g>
<!-- Node1&#45;&gt;Node25 -->
<g id="edge24" class="edge"><title>Node1&#45;&gt;Node25</title>
<path fill="none" stroke="midnightblue" d="M130.01,-838.51C154.844,-830.486 188.098,-820.358 218,-813.295 233.089,-809.73 249.489,-806.538 264.908,-803.834"/>
<polygon fill="midnightblue" stroke="midnightblue" points="128.676,-835.264 120.255,-841.693 130.848,-841.918 128.676,-835.264"/>
</g>
<!-- Node26 -->
<g id="node26" class="node"><title>Node26</title>
<g id="a_node26"><a xlink:href="../../df/d11/classparser_1_1commands_1_1_set_background.html#a0eda8e421091a2169dfab28248dd3ae8" target="_top" xlink:title="parser.commands.SetBackground.execute">
<polygon fill="white" stroke="black" points="218.5,-746.795 218.5,-765.795 439.5,-765.795 439.5,-746.795 218.5,-746.795"/>
<text text-anchor="middle" x="329" y="-753.795" font-family="Helvetica,sans-Serif" font-size="10.00">parser.commands.SetBackground.execute</text>
</a>
</g>
</g>
<!-- Node1&#45;&gt;Node26 -->
<g id="edge25" class="edge"><title>Node1&#45;&gt;Node26</title>
<path fill="none" stroke="midnightblue" d="M112.732,-835.435C136.733,-817.901 178.097,-790.173 218,-775.295 228.441,-771.401 239.742,-768.299 250.988,-765.828"/>
<polygon fill="midnightblue" stroke="midnightblue" points="110.363,-832.835 104.422,-841.608 114.537,-838.454 110.363,-832.835"/>
</g>
<!-- Node27 -->
<g id="node27" class="node"><title>Node27</title>
<g id="a_node27"><a xlink:href="../../d1/dfa/classparser_1_1commands_1_1_forward.html#ae920de3cac13fd7527e35754dcb2f68c" target="_top" xlink:title="parser.commands.Forward.execute">
<polygon fill="white" stroke="black" points="236.5,-708.795 236.5,-727.795 421.5,-727.795 421.5,-708.795 236.5,-708.795"/>
<text text-anchor="middle" x="329" y="-715.795" font-family="Helvetica,sans-Serif" font-size="10.00">parser.commands.Forward.execute</text>
</a>
</g>
</g>
<!-- Node1&#45;&gt;Node27 -->
<g id="edge26" class="edge"><title>Node1&#45;&gt;Node27</title>
<path fill="none" stroke="midnightblue" d="M105.578,-833.9C126.656,-808.235 169.868,-760.738 218,-737.295 225.928,-733.433 234.512,-730.345 243.269,-727.876"/>
<polygon fill="midnightblue" stroke="midnightblue" points="102.844,-831.715 99.3027,-841.7 108.298,-836.102 102.844,-831.715"/>
</g>
<!-- Node28 -->
<g id="node28" class="node"><title>Node28</title>
<g id="a_node28"><a xlink:href="../../d0/dee/classparser_1_1commands_1_1_or.html#a58fef441f883572df93d9c51fc1676f0" target="_top" xlink:title="parser.commands.Or.execute">
<polygon fill="white" stroke="black" points="250,-670.795 250,-689.795 408,-689.795 408,-670.795 250,-670.795"/>
<text text-anchor="middle" x="329" y="-677.795" font-family="Helvetica,sans-Serif" font-size="10.00">parser.commands.Or.execute</text>
</a>
</g>
</g>
<!-- Node1&#45;&gt;Node28 -->
<g id="edge27" class="edge"><title>Node1&#45;&gt;Node28</title>
<path fill="none" stroke="midnightblue" d="M101.737,-832.393C119.797,-799.425 161.816,-731.826 218,-699.295 227.727,-693.662 238.694,-689.607 249.838,-686.703"/>
<polygon fill="midnightblue" stroke="midnightblue" points="98.5321,-830.965 96.9126,-841.436 104.708,-834.26 98.5321,-830.965"/>
</g>
<!-- Node29 -->
<g id="node29" class="node"><title>Node29</title>
<g id="a_node29"><a xlink:href="../../d7/d90/classparser_1_1commands_1_1_greater_than.html#a102f6d88e6e27bf68c416638a0adb168" target="_top" xlink:title="parser.commands.GreaterThan.execute">
<polygon fill="white" stroke="black" points="225,-632.795 225,-651.795 433,-651.795 433,-632.795 225,-632.795"/>
<text text-anchor="middle" x="329" y="-639.795" font-family="Helvetica,sans-Serif" font-size="10.00">parser.commands.GreaterThan.execute</text>
</a>
</g>
</g>
<!-- Node1&#45;&gt;Node29 -->
<g id="edge28" class="edge"><title>Node1&#45;&gt;Node29</title>
<path fill="none" stroke="midnightblue" d="M98.8068,-831.879C113.676,-792.566 153.021,-703.694 218,-661.295 223.843,-657.482 230.218,-654.366 236.86,-651.826"/>
<polygon fill="midnightblue" stroke="midnightblue" points="95.4841,-830.774 95.3335,-841.368 102.058,-833.18 95.4841,-830.774"/>
</g>
<!-- Node30 -->
<g id="node30" class="node"><title>Node30</title>
<g id="a_node30"><a xlink:href="../../d4/dea/classparser_1_1commands_1_1_if.html#a7ae1877cb68c07967af15558ed242914" target="_top" xlink:title="parser.commands.If.execute">
<polygon fill="white" stroke="black" points="253,-594.795 253,-613.795 405,-613.795 405,-594.795 253,-594.795"/>
<text text-anchor="middle" x="329" y="-601.795" font-family="Helvetica,sans-Serif" font-size="10.00">parser.commands.If.execute</text>
</a>
</g>
</g>
<!-- Node1&#45;&gt;Node30 -->
<g id="edge29" class="edge"><title>Node1&#45;&gt;Node30</title>
<path fill="none" stroke="midnightblue" d="M96.6982,-831.522C108.511,-786.463 143.947,-675.993 218,-623.295 228.263,-615.991 240.407,-611.171 252.813,-608.045"/>
<polygon fill="midnightblue" stroke="midnightblue" points="93.2352,-830.942 94.1947,-841.494 100.025,-832.647 93.2352,-830.942"/>
</g>
<!-- Node31 -->
<g id="node31" class="node"><title>Node31</title>
<g id="a_node31"><a xlink:href="../../d1/de7/classparser_1_1commands_1_1_repeat.html#a5e9ce071d5b63f1ce8b2b29df8b44364" target="_top" xlink:title="parser.commands.Repeat.execute">
<polygon fill="white" stroke="black" points="238.5,-556.795 238.5,-575.795 419.5,-575.795 419.5,-556.795 238.5,-556.795"/>
<text text-anchor="middle" x="329" y="-563.795" font-family="Helvetica,sans-Serif" font-size="10.00">parser.commands.Repeat.execute</text>
</a>
</g>
</g>
<!-- Node1&#45;&gt;Node31 -->
<g id="edge30" class="edge"><title>Node1&#45;&gt;Node31</title>
<path fill="none" stroke="midnightblue" d="M95.0747,-831.397C103.96,-781.155 134.578,-648.677 218,-585.295 224.173,-580.605 231.102,-576.917 238.4,-574.032"/>
<polygon fill="midnightblue" stroke="midnightblue" points="91.571,-831.13 93.3792,-841.569 98.4758,-832.281 91.571,-831.13"/>
</g>
<!-- Node32 -->
<g id="node32" class="node"><title>Node32</title>
<g id="a_node32"><a xlink:href="../../d7/d5a/classparser_1_1commands_1_1_if_else.html#aaab614071ff38485f62e5857488b665d" target="_top" xlink:title="parser.commands.IfElse.execute">
<polygon fill="white" stroke="black" points="242.5,-518.795 242.5,-537.795 415.5,-537.795 415.5,-518.795 242.5,-518.795"/>
<text text-anchor="middle" x="329" y="-525.795" font-family="Helvetica,sans-Serif" font-size="10.00">parser.commands.IfElse.execute</text>
</a>
</g>
</g>
<!-- Node1&#45;&gt;Node32 -->
<g id="edge31" class="edge"><title>Node1&#45;&gt;Node32</title>
<path fill="none" stroke="midnightblue" d="M93.7808,-831.588C99.8563,-776.788 124.892,-621.738 218,-547.295 225.19,-541.546 233.499,-537.277 242.264,-534.135"/>
<polygon fill="midnightblue" stroke="midnightblue" points="90.2828,-831.393 92.7545,-841.695 97.247,-832.1 90.2828,-831.393"/>
</g>
<!-- Node33 -->
<g id="node33" class="node"><title>Node33</title>
<g id="a_node33"><a xlink:href="../../dc/d24/classparser_1_1commands_1_1_right.html#aeced1018ba173e3cacb2df10c20ef546" target="_top" xlink:title="parser.commands.Right.execute">
<polygon fill="white" stroke="black" points="243,-480.795 243,-499.795 415,-499.795 415,-480.795 243,-480.795"/>
<text text-anchor="middle" x="329" y="-487.795" font-family="Helvetica,sans-Serif" font-size="10.00">parser.commands.Right.execute</text>
</a>
</g>
</g>
<!-- Node1&#45;&gt;Node33 -->
<g id="edge32" class="edge"><title>Node1&#45;&gt;Node33</title>
<path fill="none" stroke="midnightblue" d="M92.7806,-831.57C96.262,-772.347 115.208,-594.9 218,-509.295 225.297,-503.218 233.831,-498.771 242.86,-495.553"/>
<polygon fill="midnightblue" stroke="midnightblue" points="89.2742,-831.614 92.2703,-841.776 96.2654,-831.964 89.2742,-831.614"/>
</g>
<!-- Node34 -->
<g id="node34" class="node"><title>Node34</title>
<g id="a_node34"><a xlink:href="../../df/d76/classparser_1_1commands_1_1_set_position.html#a757db63b48d90808d2f0996f05b37129" target="_top" xlink:title="parser.commands.SetPosition.execute">
<polygon fill="white" stroke="black" points="228,-442.795 228,-461.795 430,-461.795 430,-442.795 228,-442.795"/>
<text text-anchor="middle" x="329" y="-449.795" font-family="Helvetica,sans-Serif" font-size="10.00">parser.commands.SetPosition.execute</text>
</a>
</g>
</g>
<!-- Node1&#45;&gt;Node34 -->
<g id="edge33" class="edge"><title>Node1&#45;&gt;Node34</title>
<path fill="none" stroke="midnightblue" d="M91.964,-831.536C93.0017,-768.116 105.441,-568.205 218,-471.295 222.333,-467.564 227.127,-464.442 232.22,-461.836"/>
<polygon fill="midnightblue" stroke="midnightblue" points="88.4627,-831.705 91.8814,-841.733 95.4624,-831.762 88.4627,-831.705"/>
</g>
<!-- Node35 -->
<g id="node35" class="node"><title>Node35</title>
<g id="a_node35"><a xlink:href="../../dd/da8/classparser_1_1commands_1_1_backward.html#ac6684c12dde23abf416e4c172088c14f" target="_top" xlink:title="parser.commands.Backward.execute">
<polygon fill="white" stroke="black" points="232,-404.795 232,-423.795 426,-423.795 426,-404.795 232,-404.795"/>
<text text-anchor="middle" x="329" y="-411.795" font-family="Helvetica,sans-Serif" font-size="10.00">parser.commands.Backward.execute</text>
</a>
</g>
</g>
<!-- Node1&#45;&gt;Node35 -->
<g id="edge34" class="edge"><title>Node1&#45;&gt;Node35</title>
<path fill="none" stroke="midnightblue" d="M91.2799,-831.377C90.0127,-763.816 95.6734,-541.568 218,-433.295 222.208,-429.57 226.875,-426.445 231.842,-423.832"/>
<polygon fill="midnightblue" stroke="midnightblue" points="87.7843,-831.594 91.5481,-841.498 94.7819,-831.408 87.7843,-831.594"/>
</g>
<!-- Node36 -->
<g id="node36" class="node"><title>Node36</title>
<g id="a_node36"><a xlink:href="../../d6/dde/classparser_1_1commands_1_1_do_times.html#a9613af1cca29470bfbab7bc5d6a651f5" target="_top" xlink:title="parser.commands.DoTimes.execute">
<polygon fill="white" stroke="black" points="700,-50.7947 700,-69.7947 890,-69.7947 890,-50.7947 700,-50.7947"/>
<text text-anchor="middle" x="795" y="-57.7947" font-family="Helvetica,sans-Serif" font-size="10.00">parser.commands.DoTimes.execute</text>
</a>
</g>
</g>
<!-- Node1&#45;&gt;Node36 -->
<g id="edge35" class="edge"><title>Node1&#45;&gt;Node36</title>
<path fill="none" stroke="midnightblue" d="M92.3539,-831.605C94.7114,-723.354 111.534,-201.509 218,-91.2947 367.94,63.9237 673.608,-20.2153 766.571,-50.7223"/>
<polygon fill="midnightblue" stroke="midnightblue" points="88.8517,-831.683 92.1502,-841.751 95.8503,-831.823 88.8517,-831.683"/>
</g>
<!-- Node37 -->
<g id="node37" class="node"><title>Node37</title>
<g id="a_node37"><a xlink:href="../../d3/d16/classparser_1_1commands_1_1_for.html#a33148ee0a657891f52fdc49f5f820dde" target="_top" xlink:title="parser.commands.For.execute">
<polygon fill="white" stroke="black" points="714,-138.795 714,-157.795 876,-157.795 876,-138.795 714,-138.795"/>
<text text-anchor="middle" x="795" y="-145.795" font-family="Helvetica,sans-Serif" font-size="10.00">parser.commands.For.execute</text>
</a>
</g>
</g>
<!-- Node1&#45;&gt;Node37 -->
<g id="edge36" class="edge"><title>Node1&#45;&gt;Node37</title>
<path fill="none" stroke="midnightblue" d="M92.787,-831.675C97.1722,-733.021 121.972,-292.475 218,-205.295 254.861,-171.83 614.472,-167.349 664,-162.295 680.147,-160.647 697.415,-158.827 713.918,-157.061"/>
<polygon fill="midnightblue" stroke="midnightblue" points="89.2871,-831.602 92.359,-841.742 96.2807,-831.899 89.2871,-831.602"/>
</g>
<!-- Node38 -->
<g id="node38" class="node"><title>Node38</title>
<g id="a_node38"><a xlink:href="../../d3/d41/classparser_1_1commands_1_1_set_pen_color.html#a83c4556b15cd63a4b51bc547d745bea0" target="_top" xlink:title="parser.commands.SetPenColor.execute">
<polygon fill="white" stroke="black" points="226,-290.795 226,-309.795 432,-309.795 432,-290.795 226,-290.795"/>
<text text-anchor="middle" x="329" y="-297.795" font-family="Helvetica,sans-Serif" font-size="10.00">parser.commands.SetPenColor.execute</text>
</a>
</g>
</g>
<!-- Node1&#45;&gt;Node38 -->
<g id="edge37" class="edge"><title>Node1&#45;&gt;Node38</title>
<path fill="none" stroke="midnightblue" d="M93.9509,-831.49C102.913,-744.562 142.942,-397.876 218,-324.295 224.211,-318.206 231.587,-313.508 239.535,-309.903"/>
<polygon fill="midnightblue" stroke="midnightblue" points="90.4546,-831.278 92.9313,-841.579 97.4191,-831.982 90.4546,-831.278"/>
</g>
<!-- Node39 -->
<g id="node39" class="node"><title>Node39</title>
<g id="a_node39"><a xlink:href="../../d7/d12/classparser_1_1commands_1_1_set_towards.html#a111980bcce3840c38bd720f80db3838c" target="_top" xlink:title="parser.commands.SetTowards.execute">
<polygon fill="white" stroke="black" points="228,-252.795 228,-271.795 430,-271.795 430,-252.795 228,-252.795"/>
<text text-anchor="middle" x="329" y="-259.795" font-family="Helvetica,sans-Serif" font-size="10.00">parser.commands.SetTowards.execute</text>
</a>
</g>
</g>
<!-- Node1&#45;&gt;Node39 -->
<g id="edge38" class="edge"><title>Node1&#45;&gt;Node39</title>
<path fill="none" stroke="midnightblue" d="M93.4787,-831.564C100.73,-740.272 135.569,-359.978 218,-281.295 221.785,-277.682 225.995,-274.619 230.499,-272.032"/>
<polygon fill="midnightblue" stroke="midnightblue" points="89.9806,-831.404 92.698,-841.645 96.9597,-831.945 89.9806,-831.404"/>
</g>
<!-- Node40 -->
<g id="node40" class="node"><title>Node40</title>
<g id="a_node40"><a xlink:href="../../d2/dce/classparser_1_1commands_1_1_make_variable.html#a7e31f161611d6fa73f630eccaf7f27cf" target="_top" xlink:title="parser.commands.MakeVariable.execute">
<polygon fill="white" stroke="black" points="223,-214.795 223,-233.795 435,-233.795 435,-214.795 223,-214.795"/>
<text text-anchor="middle" x="329" y="-221.795" font-family="Helvetica,sans-Serif" font-size="10.00">parser.commands.MakeVariable.execute</text>
</a>
</g>
</g>
<!-- Node1&#45;&gt;Node40 -->
<g id="edge39" class="edge"><title>Node1&#45;&gt;Node40</title>
<path fill="none" stroke="midnightblue" d="M93.1929,-831.465C99.3294,-736.343 130.513,-327.915 218,-243.295 221.761,-239.657 225.952,-236.575 230.441,-233.972"/>
<polygon fill="midnightblue" stroke="midnightblue" points="89.6983,-831.271 92.5666,-841.47 96.6846,-831.708 89.6983,-831.271"/>
</g>
<!-- Node41 -->
<g id="node41" class="node"><title>Node41</title>
<g id="a_node41"><a xlink:href="../../dc/dd6/classparser_1_1commands_1_1_tell.html#a0a34e23f2a3c5bc0011e058241149b68" target="_top" xlink:title="parser.commands.Tell.execute">
<polygon fill="white" stroke="black" points="248,-1582.79 248,-1601.79 410,-1601.79 410,-1582.79 248,-1582.79"/>
<text text-anchor="middle" x="329" y="-1589.79" font-family="Helvetica,sans-Serif" font-size="10.00">parser.commands.Tell.execute</text>
</a>
</g>
</g>
<!-- Node1&#45;&gt;Node41 -->
<g id="edge40" class="edge"><title>Node1&#45;&gt;Node41</title>
<path fill="none" stroke="midnightblue" d="M92.4904,-871.031C95.5233,-976.289 115.145,-1470.62 218,-1573.29 226.229,-1581.51 236.644,-1586.92 247.767,-1590.38"/>
<polygon fill="midnightblue" stroke="midnightblue" points="95.9849,-870.777 92.2157,-860.875 88.9874,-870.966 95.9849,-870.777"/>
</g>
<!-- Node42 -->
<g id="node42" class="node"><title>Node42</title>
<g id="a_node42"><a xlink:href="../../db/dea/classparser_1_1commands_1_1_ask.html#a658c13e8dfb321e6349eb39413f038f9" target="_top" xlink:title="parser.commands.Ask.runCode">
<polygon fill="white" stroke="black" points="486.5,-372.795 486.5,-391.795 653.5,-391.795 653.5,-372.795 486.5,-372.795"/>
<text text-anchor="middle" x="570" y="-379.795" font-family="Helvetica,sans-Serif" font-size="10.00">parser.commands.Ask.runCode</text>
</a>
</g>
</g>
<!-- Node1&#45;&gt;Node42 -->
<g id="edge50" class="edge"><title>Node1&#45;&gt;Node42</title>
<path fill="none" stroke="midnightblue" d="M94.4124,-831.348C104.585,-750.862 146.772,-451.622 218,-395.295 257.998,-363.664 395.55,-367.814 486.115,-374.494"/>
<polygon fill="midnightblue" stroke="midnightblue" points="90.9008,-831.226 93.1442,-841.581 97.8476,-832.087 90.9008,-831.226"/>
</g>
<!-- Node43 -->
<g id="node43" class="node"><title>Node43</title>
<g id="a_node43"><a xlink:href="../../d7/d02/classparser_1_1commands_1_1_set_palette.html#a3fef3efc7e15fa0461fc18b1d0fccc47" target="_top" xlink:title="parser.commands.SetPalette.execute">
<polygon fill="white" stroke="black" points="230.5,-100.795 230.5,-119.795 427.5,-119.795 427.5,-100.795 230.5,-100.795"/>
<text text-anchor="middle" x="329" y="-107.795" font-family="Helvetica,sans-Serif" font-size="10.00">parser.commands.SetPalette.execute</text>
</a>
</g>
</g>
<!-- Node1&#45;&gt;Node43 -->
<g id="edge43" class="edge"><title>Node1&#45;&gt;Node43</title>
<path fill="none" stroke="midnightblue" d="M92.4904,-831.558C95.5233,-726.3 115.145,-231.972 218,-129.295 221.703,-125.598 225.849,-122.47 230.302,-119.831"/>
<polygon fill="midnightblue" stroke="midnightblue" points="88.9874,-831.623 92.2157,-841.714 95.9849,-831.812 88.9874,-831.623"/>
</g>
<!-- Node44 -->
<g id="node44" class="node"><title>Node44</title>
<g id="a_node44"><a xlink:href="../../db/dce/classparser_1_1commands_1_1_looping_node.html#a0d0bf61ea4e3002410b978a49521aea6" target="_top" xlink:title="parser.commands.LoopingNode.runCode">
<polygon fill="white" stroke="black" points="222.5,-138.795 222.5,-157.795 435.5,-157.795 435.5,-138.795 222.5,-138.795"/>
<text text-anchor="middle" x="329" y="-145.795" font-family="Helvetica,sans-Serif" font-size="10.00">parser.commands.LoopingNode.runCode</text>
</a>
</g>
</g>
<!-- Node1&#45;&gt;Node44 -->
<g id="edge44" class="edge"><title>Node1&#45;&gt;Node44</title>
<path fill="none" stroke="midnightblue" d="M92.8237,-831.218C97.4186,-729.29 123.195,-270.118 218,-172.295 223.917,-166.189 231,-161.465 238.681,-157.83"/>
<polygon fill="midnightblue" stroke="midnightblue" points="89.3201,-831.227 92.3841,-841.37 96.3136,-831.53 89.3201,-831.227"/>
</g>
<!-- Node4 -->
<g id="node4" class="node"><title>Node4</title>
<g id="a_node4"><a xlink:href="../../db/dea/classparser_1_1commands_1_1_ask.html#ae3a52ad1be99031d4a926942771fd71c" target="_top" xlink:title="parser.commands.Ask.execute">
<polygon fill="white" stroke="black" points="712.5,-350.795 712.5,-369.795 877.5,-369.795 877.5,-350.795 712.5,-350.795"/>
<text text-anchor="middle" x="795" y="-357.795" font-family="Helvetica,sans-Serif" font-size="10.00">parser.commands.Ask.execute</text>
</a>
</g>
</g>
<!-- Node3&#45;&gt;Node4 -->
<g id="edge3" class="edge"><title>Node3&#45;&gt;Node4</title>
<path fill="none" stroke="midnightblue" d="M659.495,-347.025C676.975,-348.75 695.243,-350.552 712.479,-352.252"/>
<polygon fill="midnightblue" stroke="midnightblue" points="659.603,-343.519 649.308,-346.02 658.916,-350.485 659.603,-343.519"/>
</g>
<!-- Node41&#45;&gt;Node42 -->
<g id="edge41" class="edge"><title>Node41&#45;&gt;Node42</title>
<path fill="none" stroke="midnightblue" d="M419.694,-1587.43C427.288,-1584.02 434.248,-1579.42 440,-1573.29 526.032,-1481.65 564.616,-500.994 568.645,-392.103"/>
<polygon fill="midnightblue" stroke="midnightblue" points="418.281,-1584.22 410.156,-1591.02 420.748,-1590.77 418.281,-1584.22"/>
</g>
<!-- Node42&#45;&gt;Node4 -->
<g id="edge42" class="edge"><title>Node42&#45;&gt;Node4</title>
<path fill="none" stroke="midnightblue" d="M664.113,-373.109C680.063,-371.535 696.529,-369.911 712.156,-368.369"/>
<polygon fill="midnightblue" stroke="midnightblue" points="663.328,-369.669 653.72,-374.134 664.015,-376.635 663.328,-369.669"/>
</g>
<!-- Node44&#45;&gt;Node36 -->
<g id="edge45" class="edge"><title>Node44&#45;&gt;Node36</title>
<path fill="none" stroke="midnightblue" d="M429.896,-134.779C433.388,-133.136 436.77,-131.315 440,-129.295 463.216,-114.775 452.012,-92.5002 476,-79.2947 560.788,-32.6188 678.257,-40.8789 744.104,-50.7788"/>
<polygon fill="midnightblue" stroke="midnightblue" points="428.312,-131.646 420.423,-138.718 431.001,-138.11 428.312,-131.646"/>
</g>
<!-- Node44&#45;&gt;Node37 -->
<g id="edge46" class="edge"><title>Node44&#45;&gt;Node37</title>
<path fill="none" stroke="midnightblue" d="M445.625,-148.295C529.144,-148.295 639.817,-148.295 713.792,-148.295"/>
<polygon fill="midnightblue" stroke="midnightblue" points="445.579,-144.795 435.579,-148.295 445.579,-151.795 445.579,-144.795"/>
</g>
<!-- Node45 -->
<g id="node45" class="node"><title>Node45</title>
<g id="a_node45"><a xlink:href="../../db/dce/classparser_1_1commands_1_1_looping_node.html#aae47d8ffbab5a6b7de222e18ef567a10" target="_top" xlink:title="parser.commands.LoopingNode.run\lAndExitScope">
<polygon fill="white" stroke="black" points="476,-89.2947 476,-119.295 664,-119.295 664,-89.2947 476,-89.2947"/>
<text text-anchor="start" x="484" y="-107.295" font-family="Helvetica,sans-Serif" font-size="10.00">parser.commands.LoopingNode.run</text>
<text text-anchor="middle" x="570" y="-96.2947" font-family="Helvetica,sans-Serif" font-size="10.00">AndExitScope</text>
</a>
</g>
</g>
<!-- Node44&#45;&gt;Node45 -->
<g id="edge47" class="edge"><title>Node44&#45;&gt;Node45</title>
<path fill="none" stroke="midnightblue" d="M396.802,-136.981C411.068,-134.502 426.041,-131.853 440,-129.295 457.054,-126.17 475.351,-122.697 492.651,-119.358"/>
<polygon fill="midnightblue" stroke="midnightblue" points="395.822,-133.598 386.565,-138.752 397.015,-140.496 395.822,-133.598"/>
</g>
<!-- Node45&#45;&gt;Node36 -->
<g id="edge48" class="edge"><title>Node45&#45;&gt;Node36</title>
<path fill="none" stroke="midnightblue" d="M657.204,-87.2859C687.269,-81.3536 719.926,-74.9102 745.789,-69.8071"/>
<polygon fill="midnightblue" stroke="midnightblue" points="656.254,-83.9058 647.12,-89.2754 657.609,-90.7734 656.254,-83.9058"/>
</g>
<!-- Node45&#45;&gt;Node37 -->
<g id="edge49" class="edge"><title>Node45&#45;&gt;Node37</title>
<path fill="none" stroke="midnightblue" d="M657.204,-121.303C687.269,-127.236 719.926,-133.679 745.789,-138.782"/>
<polygon fill="midnightblue" stroke="midnightblue" points="657.609,-117.816 647.12,-119.314 656.254,-124.684 657.609,-117.816"/>
</g>
</g>
</svg>
