<?xml version="1.0" encoding="UTF-8" standalone="no"?>
<!DOCTYPE svg PUBLIC "-//W3C//DTD SVG 1.1//EN"
 "http://www.w3.org/Graphics/SVG/1.1/DTD/svg11.dtd">
<!-- Generated by graphviz version 2.36.0 (20140111.2315)
 -->
<!-- Title: model.VariableString Pages: 1 -->
<svg width="209pt" height="164pt"
 viewBox="0.00 0.00 209.00 164.00" xmlns="http://www.w3.org/2000/svg" xmlns:xlink="http://www.w3.org/1999/xlink">
<g id="graph0" class="graph" transform="scale(1 1) rotate(0) translate(4 160)">
<title>model.VariableString</title>
<polygon fill="white" stroke="none" points="-4,4 -4,-160 205,-160 205,4 -4,4"/>
<!-- Node1 -->
<g id="node1" class="node"><title>Node1</title>
<polygon fill="#bfbfbf" stroke="black" points="-1,-0.5 -1,-19.5 115,-19.5 115,-0.5 -1,-0.5"/>
<text text-anchor="middle" x="57" y="-7.5" font-family="Helvetica,sans-Serif" font-size="10.00">model.VariableString</text>
</g>
<!-- Node2 -->
<g id="node2" class="node"><title>Node2</title>
<g id="a_node2"><a xlink:href="../../d4/d08/classmodel_1_1_variable.html" target="_top" xlink:title="model.Variable">
<polygon fill="white" stroke="black" points="98,-58.5 98,-77.5 186,-77.5 186,-58.5 98,-58.5"/>
<text text-anchor="middle" x="142" y="-65.5" font-family="Helvetica,sans-Serif" font-size="10.00">model.Variable</text>
</a>
</g>
</g>
<!-- Node2&#45;&gt;Node1 -->
<g id="edge1" class="edge"><title>Node2&#45;&gt;Node1</title>
<path fill="none" stroke="midnightblue" d="M120.43,-52.7894C104.535,-42.317 83.433,-28.4147 70.0312,-19.5852"/>
<polygon fill="midnightblue" stroke="midnightblue" points="118.814,-55.9159 129.09,-58.4948 122.665,-50.0705 118.814,-55.9159"/>
</g>
<!-- Node3 -->
<g id="node3" class="node"><title>Node3</title>
<polygon fill="white" stroke="#bfbfbf" points="16,-136.5 16,-155.5 102,-155.5 102,-136.5 16,-136.5"/>
<text text-anchor="middle" x="59" y="-143.5" font-family="Helvetica,sans-Serif" font-size="10.00">StringProperty</text>
</g>
<!-- Node3&#45;&gt;Node1 -->
<g id="edge3" class="edge"><title>Node3&#45;&gt;Node1</title>
<path fill="none" stroke="#9a32cd" stroke-dasharray="5,2" d="M47.1164,-127.958C36.454,-110.553 23.4207,-82.6611 30,-58 33.8812,-43.4524 43.4577,-28.7299 50.0944,-19.7338"/>
<polygon fill="#9a32cd" stroke="#9a32cd" points="44.2651,-129.994 52.6564,-136.462 50.1303,-126.173 44.2651,-129.994"/>
<text text-anchor="middle" x="59.5" y="-65.5" font-family="Helvetica,sans-Serif" font-size="10.00"> myProperty</text>
</g>
<!-- Node3&#45;&gt;Node2 -->
<g id="edge2" class="edge"><title>Node3&#45;&gt;Node2</title>
<path fill="none" stroke="#9a32cd" stroke-dasharray="5,2" d="M76.1416,-129.304C93.246,-113.642 118.895,-90.1562 132.59,-77.6165"/>
<polygon fill="#9a32cd" stroke="#9a32cd" points="73.5328,-126.947 68.5212,-136.282 78.26,-132.11 73.5328,-126.947"/>
<text text-anchor="middle" x="155.5" y="-110" font-family="Helvetica,sans-Serif" font-size="10.00"> myNameProperty</text>
<text text-anchor="middle" x="155.5" y="-99" font-family="Helvetica,sans-Serif" font-size="10.00">myDisplayProperty</text>
</g>
</g>
</svg>
