<?xml version="1.0" encoding="UTF-8" standalone="no"?>
<!DOCTYPE svg PUBLIC "-//W3C//DTD SVG 1.1//EN"
 "http://www.w3.org/Graphics/SVG/1.1/DTD/svg11.dtd">
<!-- Generated by graphviz version 2.36.0 (20140111.2315)
 -->
<!-- Title: view.components.SLogoMenuBar.SLogoMenuBar Pages: 1 -->
<svg width="1592pt" height="414pt"
 viewBox="0.00 0.00 1592.00 414.00" xmlns="http://www.w3.org/2000/svg" xmlns:xlink="http://www.w3.org/1999/xlink">
<g id="graph0" class="graph" transform="scale(1 1) rotate(0) translate(4 410)">
<title>view.components.SLogoMenuBar.SLogoMenuBar</title>
<polygon fill="white" stroke="none" points="-4,4 -4,-410 1588,-410 1588,4 -4,4"/>
<!-- Node1 -->
<g id="node1" class="node"><title>Node1</title>
<polygon fill="#bfbfbf" stroke="black" points="0,-170 0,-200 158,-200 158,-170 0,-170"/>
<text text-anchor="start" x="8" y="-188" font-family="Helvetica,sans-Serif" font-size="10.00">view.components.SLogoMenu</text>
<text text-anchor="middle" x="79" y="-177" font-family="Helvetica,sans-Serif" font-size="10.00">Bar.SLogoMenuBar</text>
</g>
<!-- Node2 -->
<g id="node2" class="node"><title>Node2</title>
<g id="a_node2"><a xlink:href="../../da/da8/classview_1_1components_1_1_s_logo_menu_bar.html#a50a896e8874b794c164559d97c531b78" target="_top" xlink:title="view.components.SLogoMenu\lBar.makeFileMenu">
<polygon fill="white" stroke="black" points="194,-279 194,-309 352,-309 352,-279 194,-279"/>
<text text-anchor="start" x="202" y="-297" font-family="Helvetica,sans-Serif" font-size="10.00">view.components.SLogoMenu</text>
<text text-anchor="middle" x="273" y="-286" font-family="Helvetica,sans-Serif" font-size="10.00">Bar.makeFileMenu</text>
</a>
</g>
</g>
<!-- Node1&#45;&gt;Node2 -->
<g id="edge1" class="edge"><title>Node1&#45;&gt;Node2</title>
<path fill="none" stroke="midnightblue" d="M106.697,-200.156C140.513,-219.354 198.896,-252.498 236.457,-273.822"/>
<polygon fill="midnightblue" stroke="midnightblue" points="235.106,-277.079 245.53,-278.973 238.562,-270.992 235.106,-277.079"/>
</g>
<!-- Node15 -->
<g id="node15" class="node"><title>Node15</title>
<g id="a_node15"><a xlink:href="../../da/da8/classview_1_1components_1_1_s_logo_menu_bar.html#a3cc248b5d32b90a011d060bbac6e778e" target="_top" xlink:title="view.components.SLogoMenu\lBar.makeHelpMenu">
<polygon fill="white" stroke="black" points="194,-93 194,-123 352,-123 352,-93 194,-93"/>
<text text-anchor="start" x="202" y="-111" font-family="Helvetica,sans-Serif" font-size="10.00">view.components.SLogoMenu</text>
<text text-anchor="middle" x="273" y="-100" font-family="Helvetica,sans-Serif" font-size="10.00">Bar.makeHelpMenu</text>
</a>
</g>
</g>
<!-- Node1&#45;&gt;Node15 -->
<g id="edge16" class="edge"><title>Node1&#45;&gt;Node15</title>
<path fill="none" stroke="midnightblue" d="M117.475,-169.971C148.167,-157.662 191.765,-140.177 224.83,-126.917"/>
<polygon fill="midnightblue" stroke="midnightblue" points="226.313,-130.093 234.292,-123.123 223.707,-123.596 226.313,-130.093"/>
</g>
<!-- Node18 -->
<g id="node18" class="node"><title>Node18</title>
<g id="a_node18"><a xlink:href="../../da/da8/classview_1_1components_1_1_s_logo_menu_bar.html#a8e395aa3dd6b23abf4e158d4a2f19d10" target="_top" xlink:title="view.components.SLogoMenu\lBar.makePreferencesMenu">
<polygon fill="white" stroke="black" points="388,-170 388,-200 546,-200 546,-170 388,-170"/>
<text text-anchor="start" x="396" y="-188" font-family="Helvetica,sans-Serif" font-size="10.00">view.components.SLogoMenu</text>
<text text-anchor="middle" x="467" y="-177" font-family="Helvetica,sans-Serif" font-size="10.00">Bar.makePreferencesMenu</text>
</a>
</g>
</g>
<!-- Node1&#45;&gt;Node18 -->
<g id="edge19" class="edge"><title>Node1&#45;&gt;Node18</title>
<path fill="none" stroke="midnightblue" d="M158.113,-185C221.707,-185 311.467,-185 377.67,-185"/>
<polygon fill="midnightblue" stroke="midnightblue" points="377.673,-188.5 387.673,-185 377.673,-181.5 377.673,-188.5"/>
</g>
<!-- Node3 -->
<g id="node3" class="node"><title>Node3</title>
<g id="a_node3"><a xlink:href="../../da/da8/classview_1_1components_1_1_s_logo_menu_bar.html#ac97df21ee29449621765213368dca15b" target="_top" xlink:title="view.components.SLogoMenu\lBar.makeMenuItem">
<polygon fill="white" stroke="black" points="388,-323 388,-353 546,-353 546,-323 388,-323"/>
<text text-anchor="start" x="396" y="-341" font-family="Helvetica,sans-Serif" font-size="10.00">view.components.SLogoMenu</text>
<text text-anchor="middle" x="467" y="-330" font-family="Helvetica,sans-Serif" font-size="10.00">Bar.makeMenuItem</text>
</a>
</g>
</g>
<!-- Node2&#45;&gt;Node3 -->
<g id="edge2" class="edge"><title>Node2&#45;&gt;Node3</title>
<path fill="none" stroke="midnightblue" d="M339.539,-309.019C355.975,-312.786 373.741,-316.857 390.616,-320.724"/>
<polygon fill="midnightblue" stroke="midnightblue" points="389.902,-324.152 400.431,-322.974 391.466,-317.328 389.902,-324.152"/>
</g>
<!-- Node4 -->
<g id="node4" class="node"><title>Node4</title>
<g id="a_node4"><a xlink:href="../../d3/dbe/classview_1_1_view.html#aef53667bcfbe243d64e3416529c35f8f" target="_top" xlink:title="view.View.addNewTab">
<polygon fill="white" stroke="black" points="408.5,-284.5 408.5,-303.5 525.5,-303.5 525.5,-284.5 408.5,-284.5"/>
<text text-anchor="middle" x="467" y="-291.5" font-family="Helvetica,sans-Serif" font-size="10.00">view.View.addNewTab</text>
</a>
</g>
</g>
<!-- Node2&#45;&gt;Node4 -->
<g id="edge3" class="edge"><title>Node2&#45;&gt;Node4</title>
<path fill="none" stroke="midnightblue" d="M352.094,-294C367.362,-294 383.257,-294 398.158,-294"/>
<polygon fill="midnightblue" stroke="midnightblue" points="398.296,-297.5 408.296,-294 398.296,-290.5 398.296,-297.5"/>
</g>
<!-- Node5 -->
<g id="node5" class="node"><title>Node5</title>
<g id="a_node5"><a xlink:href="../../d3/dbe/classview_1_1_view.html#a43a4310c3789a93e0fa6b98b0bb4f8aa" target="_top" xlink:title="view.View.tabChangeUpdate">
<polygon fill="white" stroke="black" points="606.5,-350.5 606.5,-369.5 757.5,-369.5 757.5,-350.5 606.5,-350.5"/>
<text text-anchor="middle" x="682" y="-357.5" font-family="Helvetica,sans-Serif" font-size="10.00">view.View.tabChangeUpdate</text>
</a>
</g>
</g>
<!-- Node4&#45;&gt;Node5 -->
<g id="edge4" class="edge"><title>Node4&#45;&gt;Node5</title>
<path fill="none" stroke="midnightblue" d="M520.201,-303.603C529.026,-306.099 537.934,-309.191 546,-313 564.085,-321.541 563.75,-331.819 582,-340 588.71,-343.008 595.879,-345.567 603.175,-347.744"/>
<polygon fill="midnightblue" stroke="midnightblue" points="602.604,-351.216 613.174,-350.481 604.453,-344.465 602.604,-351.216"/>
</g>
<!-- Node6 -->
<g id="node6" class="node"><title>Node6</title>
<g id="a_node6"><a xlink:href="../../de/d16/classparser_1_1parser_1_1_regex.html#a59c7e0d8366fc8c3e94d909f9fc27a14" target="_top" xlink:title="parser.parser.Regex.change\lLanguage">
<polygon fill="white" stroke="black" points="844.5,-281 844.5,-311 993.5,-311 993.5,-281 844.5,-281"/>
<text text-anchor="start" x="852.5" y="-299" font-family="Helvetica,sans-Serif" font-size="10.00">parser.parser.Regex.change</text>
<text text-anchor="middle" x="919" y="-288" font-family="Helvetica,sans-Serif" font-size="10.00">Language</text>
</a>
</g>
</g>
<!-- Node5&#45;&gt;Node6 -->
<g id="edge5" class="edge"><title>Node5&#45;&gt;Node6</title>
<path fill="none" stroke="midnightblue" d="M735.919,-350.464C750.896,-347.453 767.158,-343.887 782,-340 810.081,-332.646 840.894,-322.827 866.08,-314.33"/>
<polygon fill="midnightblue" stroke="midnightblue" points="867.454,-317.559 875.793,-311.025 865.199,-310.933 867.454,-317.559"/>
</g>
<!-- Node9 -->
<g id="node9" class="node"><title>Node9</title>
<g id="a_node9"><a xlink:href="../../de/d16/classparser_1_1parser_1_1_regex.html#a9da6d787de06ba7ea76d52326b532bd1" target="_top" xlink:title="parser.parser.Regex.getInstance">
<polygon fill="white" stroke="black" points="834,-240.5 834,-259.5 1004,-259.5 1004,-240.5 834,-240.5"/>
<text text-anchor="middle" x="919" y="-247.5" font-family="Helvetica,sans-Serif" font-size="10.00">parser.parser.Regex.getInstance</text>
</a>
</g>
</g>
<!-- Node5&#45;&gt;Node9 -->
<g id="edge8" class="edge"><title>Node5&#45;&gt;Node9</title>
<path fill="none" stroke="midnightblue" d="M757.521,-352.578C766.3,-349.557 774.712,-345.479 782,-340 809.648,-319.215 790.431,-291.891 818,-271 821.637,-268.244 825.554,-265.829 829.656,-263.716"/>
<polygon fill="midnightblue" stroke="midnightblue" points="831.217,-266.852 838.898,-259.554 828.343,-260.469 831.217,-266.852"/>
</g>
<!-- Node11 -->
<g id="node11" class="node"><title>Node11</title>
<g id="a_node11"><a xlink:href="../../d3/d42/classmodel_1_1_model.html#a58696dcb49d5de7290734289922cd126" target="_top" xlink:title="model.Model.getInstance">
<polygon fill="white" stroke="black" points="850.5,-356.5 850.5,-375.5 987.5,-375.5 987.5,-356.5 850.5,-356.5"/>
<text text-anchor="middle" x="919" y="-363.5" font-family="Helvetica,sans-Serif" font-size="10.00">model.Model.getInstance</text>
</a>
</g>
</g>
<!-- Node5&#45;&gt;Node11 -->
<g id="edge11" class="edge"><title>Node5&#45;&gt;Node11</title>
<path fill="none" stroke="midnightblue" d="M757.678,-361.907C784.016,-362.579 813.678,-363.336 840.262,-364.015"/>
<polygon fill="midnightblue" stroke="midnightblue" points="840.2,-367.515 850.286,-364.271 840.379,-360.517 840.2,-367.515"/>
</g>
<!-- Node13 -->
<g id="node13" class="node"><title>Node13</title>
<g id="a_node13"><a xlink:href="../../d3/d42/classmodel_1_1_model.html#a068261e6e8761ccabf6d227ee17732ea" target="_top" xlink:title="model.Model.setState">
<polygon fill="white" stroke="black" points="1286,-381.5 1286,-400.5 1408,-400.5 1408,-381.5 1286,-381.5"/>
<text text-anchor="middle" x="1347" y="-388.5" font-family="Helvetica,sans-Serif" font-size="10.00">model.Model.setState</text>
</a>
</g>
</g>
<!-- Node5&#45;&gt;Node13 -->
<g id="edge15" class="edge"><title>Node5&#45;&gt;Node13</title>
<path fill="none" stroke="midnightblue" d="M725.011,-369.548C751.528,-375.135 786.588,-381.716 818,-385 981.075,-402.047 1174.01,-398.203 1275.48,-394.338"/>
<polygon fill="midnightblue" stroke="midnightblue" points="1275.76,-397.83 1285.61,-393.94 1275.48,-390.835 1275.76,-397.83"/>
</g>
<!-- Node7 -->
<g id="node7" class="node"><title>Node7</title>
<g id="a_node7"><a xlink:href="../../d7/dd7/classview_1_1components_1_1_language_controller.html#ac2d831466c4813fceca89979e7d838ed" target="_top" xlink:title="view.components.Language\lController.getCommandLanguages\lFilePath">
<polygon fill="white" stroke="black" points="1056,-264.5 1056,-305.5 1240,-305.5 1240,-264.5 1056,-264.5"/>
<text text-anchor="start" x="1064" y="-293.5" font-family="Helvetica,sans-Serif" font-size="10.00">view.components.Language</text>
<text text-anchor="start" x="1064" y="-282.5" font-family="Helvetica,sans-Serif" font-size="10.00">Controller.getCommandLanguages</text>
<text text-anchor="middle" x="1148" y="-271.5" font-family="Helvetica,sans-Serif" font-size="10.00">FilePath</text>
</a>
</g>
</g>
<!-- Node6&#45;&gt;Node7 -->
<g id="edge6" class="edge"><title>Node6&#45;&gt;Node7</title>
<path fill="none" stroke="midnightblue" d="M993.7,-292.429C1010.26,-291.626 1028.11,-290.761 1045.57,-289.915"/>
<polygon fill="midnightblue" stroke="midnightblue" points="1045.98,-293.399 1055.8,-289.419 1045.64,-286.408 1045.98,-293.399"/>
</g>
<!-- Node8 -->
<g id="node8" class="node"><title>Node8</title>
<g id="a_node8"><a xlink:href="../../de/d16/classparser_1_1parser_1_1_regex.html#a413da3364c9c07a315222d34d7f0fc56" target="_top" xlink:title="parser.parser.Regex.make\lPatterns">
<polygon fill="white" stroke="black" points="1276.5,-286 1276.5,-316 1417.5,-316 1417.5,-286 1276.5,-286"/>
<text text-anchor="start" x="1284.5" y="-304" font-family="Helvetica,sans-Serif" font-size="10.00">parser.parser.Regex.make</text>
<text text-anchor="middle" x="1347" y="-293" font-family="Helvetica,sans-Serif" font-size="10.00">Patterns</text>
</a>
</g>
</g>
<!-- Node6&#45;&gt;Node8 -->
<g id="edge7" class="edge"><title>Node6&#45;&gt;Node8</title>
<path fill="none" stroke="midnightblue" d="M993.583,-307.536C1013.76,-310.209 1035.68,-312.661 1056,-314 1137.6,-319.377 1158.37,-318.987 1240,-314 1248.54,-313.478 1257.44,-312.723 1266.3,-311.834"/>
<polygon fill="midnightblue" stroke="midnightblue" points="1266.69,-315.313 1276.26,-310.779 1265.95,-308.351 1266.69,-315.313"/>
</g>
<!-- Node10 -->
<g id="node10" class="node"><title>Node10</title>
<g id="a_node10"><a xlink:href="../../de/d16/classparser_1_1parser_1_1_regex.html#a1fd187b9f2b45d0707cb10057e80d7ff" target="_top" xlink:title="parser.parser.Regex.Regex">
<polygon fill="white" stroke="black" points="1076.5,-226.5 1076.5,-245.5 1219.5,-245.5 1219.5,-226.5 1076.5,-226.5"/>
<text text-anchor="middle" x="1148" y="-233.5" font-family="Helvetica,sans-Serif" font-size="10.00">parser.parser.Regex.Regex</text>
</a>
</g>
</g>
<!-- Node9&#45;&gt;Node10 -->
<g id="edge9" class="edge"><title>Node9&#45;&gt;Node10</title>
<path fill="none" stroke="midnightblue" d="M1004.2,-244.807C1024.5,-243.555 1046.13,-242.221 1066.26,-240.98"/>
<polygon fill="midnightblue" stroke="midnightblue" points="1066.56,-244.468 1076.32,-240.359 1066.12,-237.481 1066.56,-244.468"/>
</g>
<!-- Node10&#45;&gt;Node8 -->
<g id="edge10" class="edge"><title>Node10&#45;&gt;Node8</title>
<path fill="none" stroke="midnightblue" d="M1203.84,-245.566C1215.88,-248.186 1228.46,-251.335 1240,-255 1262.51,-262.152 1286.73,-272.455 1306.34,-281.498"/>
<polygon fill="midnightblue" stroke="midnightblue" points="1305.02,-284.746 1315.56,-285.817 1307.99,-278.406 1305.02,-284.746"/>
</g>
<!-- Node12 -->
<g id="node12" class="node"><title>Node12</title>
<g id="a_node12"><a xlink:href="../../d3/d42/classmodel_1_1_model.html#af870d64d87a18f6cd1a84a77ff6dc3a1" target="_top" xlink:title="model.Model.Model">
<polygon fill="white" stroke="black" points="1093,-362.5 1093,-381.5 1203,-381.5 1203,-362.5 1093,-362.5"/>
<text text-anchor="middle" x="1148" y="-369.5" font-family="Helvetica,sans-Serif" font-size="10.00">model.Model.Model</text>
</a>
</g>
</g>
<!-- Node11&#45;&gt;Node12 -->
<g id="edge12" class="edge"><title>Node11&#45;&gt;Node12</title>
<path fill="none" stroke="midnightblue" d="M987.8,-367.792C1017.83,-368.586 1052.99,-369.515 1082.62,-370.298"/>
<polygon fill="midnightblue" stroke="midnightblue" points="1082.76,-373.803 1092.85,-370.569 1082.95,-366.806 1082.76,-373.803"/>
</g>
<!-- Node12&#45;&gt;Node13 -->
<g id="edge13" class="edge"><title>Node12&#45;&gt;Node13</title>
<path fill="none" stroke="midnightblue" d="M1203.09,-377.217C1225.52,-379.38 1251.83,-381.917 1275.72,-384.221"/>
<polygon fill="midnightblue" stroke="midnightblue" points="1275.5,-387.717 1285.79,-385.193 1276.17,-380.749 1275.5,-387.717"/>
</g>
<!-- Node14 -->
<g id="node14" class="node"><title>Node14</title>
<g id="a_node14"><a xlink:href="../../d4/d3a/classparser_1_1parser_1_1_parser.html#a6e5a4c214fd0af163bdf2f1f5ad84505" target="_top" xlink:title="parser.parser.Parser.set\lActiveState">
<polygon fill="white" stroke="black" points="1454,-376 1454,-406 1584,-406 1584,-376 1454,-376"/>
<text text-anchor="start" x="1462" y="-394" font-family="Helvetica,sans-Serif" font-size="10.00">parser.parser.Parser.set</text>
<text text-anchor="middle" x="1519" y="-383" font-family="Helvetica,sans-Serif" font-size="10.00">ActiveState</text>
</a>
</g>
</g>
<!-- Node13&#45;&gt;Node14 -->
<g id="edge14" class="edge"><title>Node13&#45;&gt;Node14</title>
<path fill="none" stroke="midnightblue" d="M1408.41,-391C1419.78,-391 1431.79,-391 1443.53,-391"/>
<polygon fill="midnightblue" stroke="midnightblue" points="1443.75,-394.5 1453.75,-391 1443.75,-387.5 1443.75,-394.5"/>
</g>
<!-- Node16 -->
<g id="node16" class="node"><title>Node16</title>
<g id="a_node16"><a xlink:href="../../d3/dbe/classview_1_1_view.html#aacbd4ae00ce6787a1eacbaed76c8f36f" target="_top" xlink:title="view.View.showHelp">
<polygon fill="white" stroke="black" points="412.5,-66.5 412.5,-85.5 521.5,-85.5 521.5,-66.5 412.5,-66.5"/>
<text text-anchor="middle" x="467" y="-73.5" font-family="Helvetica,sans-Serif" font-size="10.00">view.View.showHelp</text>
</a>
</g>
</g>
<!-- Node15&#45;&gt;Node16 -->
<g id="edge17" class="edge"><title>Node15&#45;&gt;Node16</title>
<path fill="none" stroke="midnightblue" d="M352.094,-94.9844C368.701,-92.2165 386.05,-89.3251 402.055,-86.6575"/>
<polygon fill="midnightblue" stroke="midnightblue" points="403.069,-90.0368 412.358,-84.9404 401.918,-83.1321 403.069,-90.0368"/>
</g>
<!-- Node17 -->
<g id="node17" class="node"><title>Node17</title>
<g id="a_node17"><a xlink:href="../../d2/d9f/classview_1_1dialogs_1_1_dialog_box.html#a4553f61aafc3f1113c85ac09fa8e8d0f" target="_top" xlink:title="view.dialogs.DialogBox.show">
<polygon fill="white" stroke="black" points="606.5,-0.5 606.5,-19.5 757.5,-19.5 757.5,-0.5 606.5,-0.5"/>
<text text-anchor="middle" x="682" y="-7.5" font-family="Helvetica,sans-Serif" font-size="10.00">view.dialogs.DialogBox.show</text>
</a>
</g>
</g>
<!-- Node16&#45;&gt;Node17 -->
<g id="edge18" class="edge"><title>Node16&#45;&gt;Node17</title>
<path fill="none" stroke="midnightblue" d="M487.738,-66.4295C510.125,-55.9151 547.95,-39.1731 582,-29 591.21,-26.2484 601.024,-23.8029 610.761,-21.6589"/>
<polygon fill="midnightblue" stroke="midnightblue" points="611.786,-25.0198 620.85,-19.5335 610.343,-18.1701 611.786,-25.0198"/>
</g>
<!-- Node19 -->
<g id="node19" class="node"><title>Node19</title>
<g id="a_node19"><a xlink:href="../../d3/dbe/classview_1_1_view.html#ae77f0f711bba491940c5c6c184dcff70" target="_top" xlink:title="view.View.showAndChangeLanguage">
<polygon fill="white" stroke="black" points="587,-213.5 587,-232.5 777,-232.5 777,-213.5 587,-213.5"/>
<text text-anchor="middle" x="682" y="-220.5" font-family="Helvetica,sans-Serif" font-size="10.00">view.View.showAndChangeLanguage</text>
</a>
</g>
</g>
<!-- Node18&#45;&gt;Node19 -->
<g id="edge20" class="edge"><title>Node18&#45;&gt;Node19</title>
<path fill="none" stroke="midnightblue" d="M546.104,-198.934C569.579,-203.122 595.04,-207.664 617.453,-211.663"/>
<polygon fill="midnightblue" stroke="midnightblue" points="617.058,-215.148 627.517,-213.459 618.288,-208.257 617.058,-215.148"/>
</g>
<!-- Node22 -->
<g id="node22" class="node"><title>Node22</title>
<g id="a_node22"><a xlink:href="../../d7/dcf/classview_1_1components_1_1_workspace_loader.html#a8951443c75e461f8abfe7fca125440dd" target="_top" xlink:title="view.components.Workspace\lLoader.loadWorkspace">
<polygon fill="white" stroke="black" points="605.5,-77 605.5,-107 758.5,-107 758.5,-77 605.5,-77"/>
<text text-anchor="start" x="613.5" y="-95" font-family="Helvetica,sans-Serif" font-size="10.00">view.components.Workspace</text>
<text text-anchor="middle" x="682" y="-84" font-family="Helvetica,sans-Serif" font-size="10.00">Loader.loadWorkspace</text>
</a>
</g>
</g>
<!-- Node18&#45;&gt;Node22 -->
<g id="edge25" class="edge"><title>Node18&#45;&gt;Node22</title>
<path fill="none" stroke="midnightblue" d="M488.401,-169.989C510.453,-154.417 547.137,-130.374 582,-116 587.109,-113.893 592.447,-111.944 597.88,-110.143"/>
<polygon fill="midnightblue" stroke="midnightblue" points="599.234,-113.387 607.735,-107.064 597.146,-106.706 599.234,-113.387"/>
</g>
<!-- Node24 -->
<g id="node24" class="node"><title>Node24</title>
<g id="a_node24"><a xlink:href="../../d3/dbe/classview_1_1_view.html#a4dc01ce59b5abd00927536703b9fc8b5" target="_top" xlink:title="view.View.getTurtleWindow">
<polygon fill="white" stroke="black" points="612,-38.5 612,-57.5 752,-57.5 752,-38.5 612,-38.5"/>
<text text-anchor="middle" x="682" y="-45.5" font-family="Helvetica,sans-Serif" font-size="10.00">view.View.getTurtleWindow</text>
</a>
</g>
</g>
<!-- Node18&#45;&gt;Node24 -->
<g id="edge27" class="edge"><title>Node18&#45;&gt;Node24</title>
<path fill="none" stroke="midnightblue" d="M480.545,-169.903C504.762,-141.136 557.701,-80.1527 582,-67 588.296,-63.5921 595.108,-60.7882 602.109,-58.4823"/>
<polygon fill="midnightblue" stroke="midnightblue" points="603.145,-61.8258 611.744,-55.6365 601.163,-55.1125 603.145,-61.8258"/>
</g>
<!-- Node25 -->
<g id="node25" class="node"><title>Node25</title>
<g id="a_node25"><a xlink:href="../../d5/d4b/classview_1_1components_1_1_turtle_window.html#ad4f625758c236a2e57e44a7c201e21d2" target="_top" xlink:title="view.components.TurtleWindow.change\lBackground">
<polygon fill="white" stroke="black" points="582,-301 582,-331 782,-331 782,-301 582,-301"/>
<text text-anchor="start" x="590" y="-319" font-family="Helvetica,sans-Serif" font-size="10.00">view.components.TurtleWindow.change</text>
<text text-anchor="middle" x="682" y="-308" font-family="Helvetica,sans-Serif" font-size="10.00">Background</text>
</a>
</g>
</g>
<!-- Node18&#45;&gt;Node25 -->
<g id="edge28" class="edge"><title>Node18&#45;&gt;Node25</title>
<path fill="none" stroke="midnightblue" d="M479.925,-200.177C498.969,-223.356 538.555,-267.367 582,-291 586.253,-293.314 590.726,-295.418 595.322,-297.332"/>
<polygon fill="midnightblue" stroke="midnightblue" points="594.311,-300.692 604.901,-300.998 596.813,-294.155 594.311,-300.692"/>
</g>
<!-- Node26 -->
<g id="node26" class="node"><title>Node26</title>
<g id="a_node26"><a xlink:href="../../dc/d44/classview_1_1components_1_1_workspace_file.html#a9910c6fe6588851d40475ae0a920da89" target="_top" xlink:title="view.components.Workspace\lFile.getColor">
<polygon fill="white" stroke="black" points="605.5,-252 605.5,-282 758.5,-282 758.5,-252 605.5,-252"/>
<text text-anchor="start" x="613.5" y="-270" font-family="Helvetica,sans-Serif" font-size="10.00">view.components.Workspace</text>
<text text-anchor="middle" x="682" y="-259" font-family="Helvetica,sans-Serif" font-size="10.00">File.getColor</text>
</a>
</g>
</g>
<!-- Node18&#45;&gt;Node26 -->
<g id="edge29" class="edge"><title>Node18&#45;&gt;Node26</title>
<path fill="none" stroke="midnightblue" d="M493.993,-200.032C516.642,-212.629 550.676,-230.37 582,-242 588.855,-244.545 596.072,-246.919 603.355,-249.111"/>
<polygon fill="midnightblue" stroke="midnightblue" points="602.722,-252.571 613.3,-251.986 604.666,-245.847 602.722,-252.571"/>
</g>
<!-- Node27 -->
<g id="node27" class="node"><title>Node27</title>
<g id="a_node27"><a xlink:href="../../d3/dbe/classview_1_1_view.html#a6d891974ab09718e4e9300ef371d66e9" target="_top" xlink:title="view.View.setTabTitle">
<polygon fill="white" stroke="black" points="625.5,-175.5 625.5,-194.5 738.5,-194.5 738.5,-175.5 625.5,-175.5"/>
<text text-anchor="middle" x="682" y="-182.5" font-family="Helvetica,sans-Serif" font-size="10.00">view.View.setTabTitle</text>
</a>
</g>
</g>
<!-- Node18&#45;&gt;Node27 -->
<g id="edge30" class="edge"><title>Node18&#45;&gt;Node27</title>
<path fill="none" stroke="midnightblue" d="M546.104,-185C568.756,-185 593.257,-185 615.084,-185"/>
<polygon fill="midnightblue" stroke="midnightblue" points="615.235,-188.5 625.235,-185 615.235,-181.5 615.235,-188.5"/>
</g>
<!-- Node29 -->
<g id="node29" class="node"><title>Node29</title>
<g id="a_node29"><a xlink:href="../../dc/d44/classview_1_1components_1_1_workspace_file.html#a8322c0b693dfaf41dd83ae619a20237a" target="_top" xlink:title="view.components.Workspace\lFile.getTitle">
<polygon fill="white" stroke="black" points="605.5,-126 605.5,-156 758.5,-156 758.5,-126 605.5,-126"/>
<text text-anchor="start" x="613.5" y="-144" font-family="Helvetica,sans-Serif" font-size="10.00">view.components.Workspace</text>
<text text-anchor="middle" x="682" y="-133" font-family="Helvetica,sans-Serif" font-size="10.00">File.getTitle</text>
</a>
</g>
</g>
<!-- Node18&#45;&gt;Node29 -->
<g id="edge32" class="edge"><title>Node18&#45;&gt;Node29</title>
<path fill="none" stroke="midnightblue" d="M540.707,-169.981C559.282,-166.144 579.388,-161.99 598.419,-158.059"/>
<polygon fill="midnightblue" stroke="midnightblue" points="599.174,-161.477 608.26,-156.026 597.758,-154.622 599.174,-161.477"/>
</g>
<!-- Node19&#45;&gt;Node6 -->
<g id="edge21" class="edge"><title>Node19&#45;&gt;Node6</title>
<path fill="none" stroke="midnightblue" d="M753.975,-232.543C763.608,-235.007 773.197,-238.105 782,-242 800.29,-250.092 800.023,-260.236 818,-269 824.612,-272.224 831.665,-275.106 838.848,-277.675"/>
<polygon fill="midnightblue" stroke="midnightblue" points="838.1,-281.116 848.694,-280.985 840.331,-274.481 838.1,-281.116"/>
</g>
<!-- Node19&#45;&gt;Node9 -->
<g id="edge22" class="edge"><title>Node19&#45;&gt;Node9</title>
<path fill="none" stroke="midnightblue" d="M765.852,-232.519C784.982,-234.717 805.458,-237.07 824.989,-239.314"/>
<polygon fill="midnightblue" stroke="midnightblue" points="824.77,-242.811 835.104,-240.476 825.569,-235.857 824.77,-242.811"/>
</g>
<!-- Node20 -->
<g id="node20" class="node"><title>Node20</title>
<g id="a_node20"><a xlink:href="../../d0/de5/classview_1_1dialogs_1_1_input_dialog_box.html#a47a0db1150edb25d69f50d7d199e0d20" target="_top" xlink:title="view.dialogs.InputDialog\lBox.showInputDialog">
<polygon fill="white" stroke="black" points="854,-191 854,-221 984,-221 984,-191 854,-191"/>
<text text-anchor="start" x="862" y="-209" font-family="Helvetica,sans-Serif" font-size="10.00">view.dialogs.InputDialog</text>
<text text-anchor="middle" x="919" y="-198" font-family="Helvetica,sans-Serif" font-size="10.00">Box.showInputDialog</text>
</a>
</g>
</g>
<!-- Node19&#45;&gt;Node20 -->
<g id="edge23" class="edge"><title>Node19&#45;&gt;Node20</title>
<path fill="none" stroke="midnightblue" d="M777.229,-216.183C799.286,-214.588 822.483,-212.91 843.54,-211.386"/>
<polygon fill="midnightblue" stroke="midnightblue" points="843.969,-214.865 853.691,-210.652 843.464,-207.883 843.969,-214.865"/>
</g>
<!-- Node21 -->
<g id="node21" class="node"><title>Node21</title>
<g id="a_node21"><a xlink:href="../../d0/de5/classview_1_1dialogs_1_1_input_dialog_box.html#a92b4c523eacf67cc2aa16970380cdb01" target="_top" xlink:title="view.dialogs.InputDialog\lBox.updateUserInput">
<polygon fill="white" stroke="black" points="1083,-177 1083,-207 1213,-207 1213,-177 1083,-177"/>
<text text-anchor="start" x="1091" y="-195" font-family="Helvetica,sans-Serif" font-size="10.00">view.dialogs.InputDialog</text>
<text text-anchor="middle" x="1148" y="-184" font-family="Helvetica,sans-Serif" font-size="10.00">Box.updateUserInput</text>
</a>
</g>
</g>
<!-- Node20&#45;&gt;Node21 -->
<g id="edge24" class="edge"><title>Node20&#45;&gt;Node21</title>
<path fill="none" stroke="midnightblue" d="M984.139,-202.044C1011.58,-200.352 1043.8,-198.365 1072.31,-196.607"/>
<polygon fill="midnightblue" stroke="midnightblue" points="1072.86,-200.079 1082.63,-195.97 1072.43,-193.092 1072.86,-200.079"/>
</g>
<!-- Node23 -->
<g id="node23" class="node"><title>Node23</title>
<g id="a_node23"><a xlink:href="../../dc/d44/classview_1_1components_1_1_workspace_file.html#a3b001a17a3680903778ccddc64381e05" target="_top" xlink:title="view.components.Workspace\lFile.setTitle">
<polygon fill="white" stroke="black" points="842.5,-77 842.5,-107 995.5,-107 995.5,-77 842.5,-77"/>
<text text-anchor="start" x="850.5" y="-95" font-family="Helvetica,sans-Serif" font-size="10.00">view.components.Workspace</text>
<text text-anchor="middle" x="919" y="-84" font-family="Helvetica,sans-Serif" font-size="10.00">File.setTitle</text>
</a>
</g>
</g>
<!-- Node22&#45;&gt;Node23 -->
<g id="edge26" class="edge"><title>Node22&#45;&gt;Node23</title>
<path fill="none" stroke="midnightblue" d="M758.649,-92C782.13,-92 808.175,-92 832.289,-92"/>
<polygon fill="midnightblue" stroke="midnightblue" points="832.493,-95.5001 842.493,-92 832.493,-88.5001 832.493,-95.5001"/>
</g>
<!-- Node28 -->
<g id="node28" class="node"><title>Node28</title>
<g id="a_node28"><a xlink:href="../../de/d30/classview_1_1components_1_1_s_logo_workspace.html#a8fbee7a2543e9082d0b553f73b1eb6ae" target="_top" xlink:title="view.components.SLogoWorkspace.set\lTitle">
<polygon fill="white" stroke="black" points="818.5,-142 818.5,-172 1019.5,-172 1019.5,-142 818.5,-142"/>
<text text-anchor="start" x="826.5" y="-160" font-family="Helvetica,sans-Serif" font-size="10.00">view.components.SLogoWorkspace.set</text>
<text text-anchor="middle" x="919" y="-149" font-family="Helvetica,sans-Serif" font-size="10.00">Title</text>
</a>
</g>
</g>
<!-- Node27&#45;&gt;Node28 -->
<g id="edge31" class="edge"><title>Node27&#45;&gt;Node28</title>
<path fill="none" stroke="midnightblue" d="M738.692,-178.364C759.475,-175.888 783.865,-172.982 807.845,-170.125"/>
<polygon fill="midnightblue" stroke="midnightblue" points="808.57,-173.563 818.086,-168.905 807.742,-166.612 808.57,-173.563"/>
</g>
</g>
</svg>
