<?xml version="1.0" encoding="UTF-8" standalone="no"?>
<!DOCTYPE svg PUBLIC "-//W3C//DTD SVG 1.1//EN"
 "http://www.w3.org/Graphics/SVG/1.1/DTD/svg11.dtd">
<!-- Generated by graphviz version 2.36.0 (20140111.2315)
 -->
<!-- Title: view.components.WorkspaceLoader Pages: 1 -->
<svg width="174pt" height="166pt"
 viewBox="0.00 0.00 174.00 166.00" xmlns="http://www.w3.org/2000/svg" xmlns:xlink="http://www.w3.org/1999/xlink">
<g id="graph0" class="graph" transform="scale(1 1) rotate(0) translate(4 162)">
<title>view.components.WorkspaceLoader</title>
<polygon fill="white" stroke="none" points="-4,4 -4,-162 170,-162 170,4 -4,4"/>
<!-- Node1 -->
<g id="node1" class="node"><title>Node1</title>
<polygon fill="#bfbfbf" stroke="black" points="6.5,-1 6.5,-31 159.5,-31 159.5,-1 6.5,-1"/>
<text text-anchor="start" x="14.5" y="-19" font-family="Helvetica,sans-Serif" font-size="10.00">view.components.Workspace</text>
<text text-anchor="middle" x="83" y="-8" font-family="Helvetica,sans-Serif" font-size="10.00">Loader</text>
</g>
<!-- Node2 -->
<g id="node2" class="node"><title>Node2</title>
<g id="a_node2"><a xlink:href="../../dc/d44/classview_1_1components_1_1_workspace_file.html" target="_top" xlink:title="view.components.WorkspaceFile">
<polygon fill="white" stroke="black" points="-1,-80.5 -1,-99.5 167,-99.5 167,-80.5 -1,-80.5"/>
<text text-anchor="middle" x="83" y="-87.5" font-family="Helvetica,sans-Serif" font-size="10.00">view.components.WorkspaceFile</text>
</a>
</g>
</g>
<!-- Node2&#45;&gt;Node1 -->
<g id="edge1" class="edge"><title>Node2&#45;&gt;Node1</title>
<path fill="none" stroke="#9a32cd" stroke-dasharray="5,2" d="M83,-70.0846C83,-57.9148 83,-42.3538 83,-31.2316"/>
<polygon fill="#9a32cd" stroke="#9a32cd" points="79.5001,-70.4579 83,-80.4579 86.5001,-70.4579 79.5001,-70.4579"/>
<text text-anchor="middle" x="118" y="-53.5" font-family="Helvetica,sans-Serif" font-size="10.00"> myWorkspace</text>
</g>
<!-- Node3 -->
<g id="node3" class="node"><title>Node3</title>
<polygon fill="white" stroke="#bfbfbf" points="47.5,-138.5 47.5,-157.5 118.5,-157.5 118.5,-138.5 47.5,-138.5"/>
<text text-anchor="middle" x="83" y="-145.5" font-family="Helvetica,sans-Serif" font-size="10.00">Serializable</text>
</g>
<!-- Node3&#45;&gt;Node2 -->
<g id="edge2" class="edge"><title>Node3&#45;&gt;Node2</title>
<path fill="none" stroke="midnightblue" d="M83,-127.953C83,-118.287 83,-107.031 83,-99.5052"/>
<polygon fill="midnightblue" stroke="midnightblue" points="79.5001,-128.25 83,-138.25 86.5001,-128.25 79.5001,-128.25"/>
</g>
</g>
</svg>
