<?xml version="1.0" encoding="UTF-8" standalone="no"?>
<!DOCTYPE svg PUBLIC "-//W3C//DTD SVG 1.1//EN"
 "http://www.w3.org/Graphics/SVG/1.1/DTD/svg11.dtd">
<!-- Generated by graphviz version 2.36.0 (20140111.2315)
 -->
<!-- Title: parser.parser.Regex.changeLanguage Pages: 1 -->
<svg width="378pt" height="98pt"
 viewBox="0.00 0.00 378.00 98.00" xmlns="http://www.w3.org/2000/svg" xmlns:xlink="http://www.w3.org/1999/xlink">
<g id="graph0" class="graph" transform="scale(1 1) rotate(0) translate(4 94)">
<title>parser.parser.Regex.changeLanguage</title>
<polygon fill="white" stroke="none" points="-4,4 -4,-94 374,-94 374,4 -4,4"/>
<!-- Node1 -->
<g id="node1" class="node"><title>Node1</title>
<polygon fill="#bfbfbf" stroke="black" points="0.5,-27 0.5,-57 149.5,-57 149.5,-27 0.5,-27"/>
<text text-anchor="start" x="8.5" y="-45" font-family="Helvetica,sans-Serif" font-size="10.00">parser.parser.Regex.change</text>
<text text-anchor="middle" x="75" y="-34" font-family="Helvetica,sans-Serif" font-size="10.00">Language</text>
</g>
<!-- Node2 -->
<g id="node2" class="node"><title>Node2</title>
<g id="a_node2"><a xlink:href="../../d7/dd7/classview_1_1components_1_1_language_controller.html#ac2d831466c4813fceca89979e7d838ed" target="_top" xlink:title="view.components.Language\lController.getCommandLanguages\lFilePath">
<polygon fill="white" stroke="black" points="186,-48.5 186,-89.5 370,-89.5 370,-48.5 186,-48.5"/>
<text text-anchor="start" x="194" y="-77.5" font-family="Helvetica,sans-Serif" font-size="10.00">view.components.Language</text>
<text text-anchor="start" x="194" y="-66.5" font-family="Helvetica,sans-Serif" font-size="10.00">Controller.getCommandLanguages</text>
<text text-anchor="middle" x="278" y="-55.5" font-family="Helvetica,sans-Serif" font-size="10.00">FilePath</text>
</a>
</g>
</g>
<!-- Node1&#45;&gt;Node2 -->
<g id="edge1" class="edge"><title>Node1&#45;&gt;Node2</title>
<path fill="none" stroke="midnightblue" d="M149.704,-51.9005C158.251,-53.0487 167.078,-54.2343 175.91,-55.4208"/>
<polygon fill="midnightblue" stroke="midnightblue" points="175.494,-58.8962 185.871,-56.7587 176.426,-51.9585 175.494,-58.8962"/>
</g>
<!-- Node3 -->
<g id="node3" class="node"><title>Node3</title>
<g id="a_node3"><a xlink:href="../../de/d16/classparser_1_1parser_1_1_regex.html#a413da3364c9c07a315222d34d7f0fc56" target="_top" xlink:title="parser.parser.Regex.make\lPatterns">
<polygon fill="white" stroke="black" points="207.5,-0 207.5,-30 348.5,-30 348.5,-0 207.5,-0"/>
<text text-anchor="start" x="215.5" y="-18" font-family="Helvetica,sans-Serif" font-size="10.00">parser.parser.Regex.make</text>
<text text-anchor="middle" x="278" y="-7" font-family="Helvetica,sans-Serif" font-size="10.00">Patterns</text>
</a>
</g>
</g>
<!-- Node1&#45;&gt;Node3 -->
<g id="edge2" class="edge"><title>Node1&#45;&gt;Node3</title>
<path fill="none" stroke="midnightblue" d="M149.704,-32.0995C165.144,-30.0254 181.496,-27.829 197.148,-25.7264"/>
<polygon fill="midnightblue" stroke="midnightblue" points="197.872,-29.1607 207.317,-24.3604 196.94,-22.223 197.872,-29.1607"/>
</g>
</g>
</svg>
