<?xml version="1.0" encoding="UTF-8" standalone="no"?>
<!DOCTYPE svg PUBLIC "-//W3C//DTD SVG 1.1//EN"
 "http://www.w3.org/Graphics/SVG/1.1/DTD/svg11.dtd">
<!-- Generated by graphviz version 2.36.0 (20140111.2315)
 -->
<!-- Title: parser.parser.Regex.getInstance Pages: 1 -->
<svg width="536pt" height="38pt"
 viewBox="0.00 0.00 536.00 38.00" xmlns="http://www.w3.org/2000/svg" xmlns:xlink="http://www.w3.org/1999/xlink">
<g id="graph0" class="graph" transform="scale(1 1) rotate(0) translate(4 34)">
<title>parser.parser.Regex.getInstance</title>
<polygon fill="white" stroke="none" points="-4,4 -4,-34 532,-34 532,4 -4,4"/>
<!-- Node1 -->
<g id="node1" class="node"><title>Node1</title>
<polygon fill="#bfbfbf" stroke="black" points="0,-5.5 0,-24.5 170,-24.5 170,-5.5 0,-5.5"/>
<text text-anchor="middle" x="85" y="-12.5" font-family="Helvetica,sans-Serif" font-size="10.00">parser.parser.Regex.getInstance</text>
</g>
<!-- Node2 -->
<g id="node2" class="node"><title>Node2</title>
<g id="a_node2"><a xlink:href="../../de/d16/classparser_1_1parser_1_1_regex.html#a1fd187b9f2b45d0707cb10057e80d7ff" target="_top" xlink:title="parser.parser.Regex.Regex">
<polygon fill="white" stroke="black" points="206.5,-5.5 206.5,-24.5 349.5,-24.5 349.5,-5.5 206.5,-5.5"/>
<text text-anchor="middle" x="278" y="-12.5" font-family="Helvetica,sans-Serif" font-size="10.00">parser.parser.Regex.Regex</text>
</a>
</g>
</g>
<!-- Node1&#45;&gt;Node2 -->
<g id="edge1" class="edge"><title>Node1&#45;&gt;Node2</title>
<path fill="none" stroke="midnightblue" d="M170.053,-15C178.758,-15 187.59,-15 196.257,-15"/>
<polygon fill="midnightblue" stroke="midnightblue" points="196.337,-18.5001 206.337,-15 196.337,-11.5001 196.337,-18.5001"/>
</g>
<!-- Node3 -->
<g id="node3" class="node"><title>Node3</title>
<g id="a_node3"><a xlink:href="../../de/d16/classparser_1_1parser_1_1_regex.html#a413da3364c9c07a315222d34d7f0fc56" target="_top" xlink:title="parser.parser.Regex.make\lPatterns">
<polygon fill="white" stroke="black" points="386.5,-0 386.5,-30 527.5,-30 527.5,-0 386.5,-0"/>
<text text-anchor="start" x="394.5" y="-18" font-family="Helvetica,sans-Serif" font-size="10.00">parser.parser.Regex.make</text>
<text text-anchor="middle" x="457" y="-7" font-family="Helvetica,sans-Serif" font-size="10.00">Patterns</text>
</a>
</g>
</g>
<!-- Node2&#45;&gt;Node3 -->
<g id="edge2" class="edge"><title>Node2&#45;&gt;Node3</title>
<path fill="none" stroke="midnightblue" d="M349.718,-15C358.369,-15 367.257,-15 376.032,-15"/>
<polygon fill="midnightblue" stroke="midnightblue" points="376.26,-18.5001 386.26,-15 376.26,-11.5001 376.26,-18.5001"/>
</g>
</g>
</svg>
