<?xml version="1.0" encoding="UTF-8" standalone="no"?>
<!DOCTYPE svg PUBLIC "-//W3C//DTD SVG 1.1//EN"
 "http://www.w3.org/Graphics/SVG/1.1/DTD/svg11.dtd">
<!-- Generated by graphviz version 2.36.0 (20140111.2315)
 -->
<!-- Title: parser.parser.Regex.getCommandString Pages: 1 -->
<svg width="390pt" height="38pt"
 viewBox="0.00 0.00 390.00 38.00" xmlns="http://www.w3.org/2000/svg" xmlns:xlink="http://www.w3.org/1999/xlink">
<g id="graph0" class="graph" transform="scale(1 1) rotate(0) translate(4 34)">
<title>parser.parser.Regex.getCommandString</title>
<polygon fill="white" stroke="none" points="-4,4 -4,-34 386,-34 386,4 -4,4"/>
<!-- Node1 -->
<g id="node1" class="node"><title>Node1</title>
<polygon fill="#bfbfbf" stroke="black" points="0,-0 0,-30 180,-30 180,-0 0,-0"/>
<text text-anchor="start" x="8" y="-18" font-family="Helvetica,sans-Serif" font-size="10.00">parser.parser.Regex.getCommand</text>
<text text-anchor="middle" x="90" y="-7" font-family="Helvetica,sans-Serif" font-size="10.00">String</text>
</g>
<!-- Node2 -->
<g id="node2" class="node"><title>Node2</title>
<g id="a_node2"><a xlink:href="../../d6/d00/classmodel_1_1_variables_collection.html#a435e59bf689f308d937cd7748bb466f0" target="_top" xlink:title="model.VariablesCollection.save\lState">
<polygon fill="white" stroke="black" points="216.5,-0 216.5,-30 381.5,-30 381.5,-0 216.5,-0"/>
<text text-anchor="start" x="224.5" y="-18" font-family="Helvetica,sans-Serif" font-size="10.00">model.VariablesCollection.save</text>
<text text-anchor="middle" x="299" y="-7" font-family="Helvetica,sans-Serif" font-size="10.00">State</text>
</a>
</g>
</g>
<!-- Node1&#45;&gt;Node2 -->
<g id="edge1" class="edge"><title>Node1&#45;&gt;Node2</title>
<path fill="none" stroke="midnightblue" d="M190.398,-15C199.038,-15 207.715,-15 216.19,-15"/>
<polygon fill="midnightblue" stroke="midnightblue" points="190.289,-11.5001 180.289,-15 190.289,-18.5001 190.289,-11.5001"/>
</g>
</g>
</svg>
