<?xml version="1.0" encoding="UTF-8" standalone="no"?>
<!DOCTYPE svg PUBLIC "-//W3C//DTD SVG 1.1//EN"
 "http://www.w3.org/Graphics/SVG/1.1/DTD/svg11.dtd">
<!-- Generated by graphviz version 2.36.0 (20140111.2315)
 -->
<!-- Title: parser.parser.Regex.getInstance Pages: 1 -->
<svg width="1290pt" height="467pt"
 viewBox="0.00 0.00 1290.00 467.00" xmlns="http://www.w3.org/2000/svg" xmlns:xlink="http://www.w3.org/1999/xlink">
<g id="graph0" class="graph" transform="scale(1 1) rotate(0) translate(4 463)">
<title>parser.parser.Regex.getInstance</title>
<polygon fill="white" stroke="none" points="-4,4 -4,-463 1286,-463 1286,4 -4,4"/>
<!-- Node1 -->
<g id="node1" class="node"><title>Node1</title>
<polygon fill="#bfbfbf" stroke="black" points="0,-208.5 0,-227.5 170,-227.5 170,-208.5 0,-208.5"/>
<text text-anchor="middle" x="85" y="-215.5" font-family="Helvetica,sans-Serif" font-size="10.00">parser.parser.Regex.getInstance</text>
</g>
<!-- Node2 -->
<g id="node2" class="node"><title>Node2</title>
<g id="a_node2"><a xlink:href="../../d2/d66/classparser_1_1parser_1_1_command_factory.html#a0dc44bc9972a4652d98146b5e30a5e72" target="_top" xlink:title="parser.parser.CommandFactory.create\lCommand">
<polygon fill="white" stroke="black" points="206,-365 206,-395 406,-395 406,-365 206,-365"/>
<text text-anchor="start" x="214" y="-383" font-family="Helvetica,sans-Serif" font-size="10.00">parser.parser.CommandFactory.create</text>
<text text-anchor="middle" x="306" y="-372" font-family="Helvetica,sans-Serif" font-size="10.00">Command</text>
</a>
</g>
</g>
<!-- Node1&#45;&gt;Node2 -->
<g id="edge1" class="edge"><title>Node1&#45;&gt;Node2</title>
<path fill="none" stroke="midnightblue" d="M97.6494,-236.143C116.831,-264.576 157.78,-319.526 206,-350 215.64,-356.093 226.589,-361.008 237.605,-364.957"/>
<polygon fill="midnightblue" stroke="midnightblue" points="100.432,-234.005 91.9999,-227.591 94.5913,-237.864 100.432,-234.005"/>
</g>
<!-- Node3 -->
<g id="node3" class="node"><title>Node3</title>
<g id="a_node3"><a xlink:href="../../d4/d3a/classparser_1_1parser_1_1_parser.html#a51f4baa200eb0c94b804119b1439a1aa" target="_top" xlink:title="parser.parser.Parser.parse">
<polygon fill="white" stroke="black" points="456,-360.5 456,-379.5 598,-379.5 598,-360.5 456,-360.5"/>
<text text-anchor="middle" x="527" y="-367.5" font-family="Helvetica,sans-Serif" font-size="10.00">parser.parser.Parser.parse</text>
</a>
</g>
</g>
<!-- Node1&#45;&gt;Node3 -->
<g id="edge17" class="edge"><title>Node1&#45;&gt;Node3</title>
<path fill="none" stroke="midnightblue" d="M101.4,-235.208C122.59,-257.695 163.025,-296.498 206,-316 228.574,-326.244 371.359,-347.926 458.395,-360.477"/>
<polygon fill="midnightblue" stroke="midnightblue" points="103.849,-232.702 94.4947,-227.728 98.7058,-237.45 103.849,-232.702"/>
</g>
<!-- Node13 -->
<g id="node13" class="node"><title>Node13</title>
<g id="a_node13"><a xlink:href="../../d8/da2/classmodel_1_1_variable_factory.html#a73fd0c25fff2bd36a01fbdeadbaab5ec" target="_top" xlink:title="model.VariableFactory.create\lVariable">
<polygon fill="white" stroke="black" points="228.5,-277 228.5,-307 383.5,-307 383.5,-277 228.5,-277"/>
<text text-anchor="start" x="236.5" y="-295" font-family="Helvetica,sans-Serif" font-size="10.00">model.VariableFactory.create</text>
<text text-anchor="middle" x="306" y="-284" font-family="Helvetica,sans-Serif" font-size="10.00">Variable</text>
</a>
</g>
</g>
<!-- Node1&#45;&gt;Node13 -->
<g id="edge12" class="edge"><title>Node1&#45;&gt;Node13</title>
<path fill="none" stroke="midnightblue" d="M116.189,-231.707C140.194,-242.268 174.809,-256.75 206,-267 216.862,-270.57 228.536,-273.928 239.922,-276.954"/>
<polygon fill="midnightblue" stroke="midnightblue" points="117.468,-228.445 106.908,-227.586 114.627,-234.843 117.468,-228.445"/>
</g>
<!-- Node16 -->
<g id="node16" class="node"><title>Node16</title>
<g id="a_node16"><a xlink:href="../../dc/d09/classparser_1_1parser_1_1_to_factory.html#aa6f21d062bb4f3ba4d708d0a5b450a4b" target="_top" xlink:title="parser.parser.ToFactory.isolate\lToDeclaration">
<polygon fill="white" stroke="black" points="226,-228 226,-258 386,-258 386,-228 226,-228"/>
<text text-anchor="start" x="234" y="-246" font-family="Helvetica,sans-Serif" font-size="10.00">parser.parser.ToFactory.isolate</text>
<text text-anchor="middle" x="306" y="-235" font-family="Helvetica,sans-Serif" font-size="10.00">ToDeclaration</text>
</a>
</g>
</g>
<!-- Node1&#45;&gt;Node16 -->
<g id="edge15" class="edge"><title>Node1&#45;&gt;Node16</title>
<path fill="none" stroke="midnightblue" d="M179.478,-228.671C194.899,-230.431 210.754,-232.241 225.782,-233.957"/>
<polygon fill="midnightblue" stroke="midnightblue" points="179.752,-225.18 169.419,-227.523 178.958,-232.134 179.752,-225.18"/>
</g>
<!-- Node18 -->
<g id="node18" class="node"><title>Node18</title>
<g id="a_node18"><a xlink:href="../../d6/d00/classmodel_1_1_variables_collection.html#a435e59bf689f308d937cd7748bb466f0" target="_top" xlink:title="model.VariablesCollection.save\lState">
<polygon fill="white" stroke="black" points="223.5,-179 223.5,-209 388.5,-209 388.5,-179 223.5,-179"/>
<text text-anchor="start" x="231.5" y="-197" font-family="Helvetica,sans-Serif" font-size="10.00">model.VariablesCollection.save</text>
<text text-anchor="middle" x="306" y="-186" font-family="Helvetica,sans-Serif" font-size="10.00">State</text>
</a>
</g>
</g>
<!-- Node1&#45;&gt;Node18 -->
<g id="edge18" class="edge"><title>Node1&#45;&gt;Node18</title>
<path fill="none" stroke="midnightblue" d="M180.384,-207.657C194.687,-206.089 209.342,-204.483 223.345,-202.948"/>
<polygon fill="midnightblue" stroke="midnightblue" points="179.604,-204.221 170.045,-208.79 180.367,-211.179 179.604,-204.221"/>
</g>
<!-- Node19 -->
<g id="node19" class="node"><title>Node19</title>
<g id="a_node19"><a xlink:href="../../d2/d1d/classmodel_1_1_variable_string.html#a10995e85337a47efad5c2591eeda95bd" target="_top" xlink:title="model.VariableString.set\lValue">
<polygon fill="white" stroke="black" points="239,-130 239,-160 373,-160 373,-130 239,-130"/>
<text text-anchor="start" x="247" y="-148" font-family="Helvetica,sans-Serif" font-size="10.00">model.VariableString.set</text>
<text text-anchor="middle" x="306" y="-137" font-family="Helvetica,sans-Serif" font-size="10.00">Value</text>
</a>
</g>
</g>
<!-- Node1&#45;&gt;Node19 -->
<g id="edge19" class="edge"><title>Node1&#45;&gt;Node19</title>
<path fill="none" stroke="midnightblue" d="M116.162,-204.211C140.153,-193.605 174.761,-179.102 206,-169 216.517,-165.599 227.8,-162.428 238.847,-159.578"/>
<polygon fill="midnightblue" stroke="midnightblue" points="114.592,-201.079 106.887,-208.351 117.445,-207.471 114.592,-201.079"/>
</g>
<!-- Node20 -->
<g id="node20" class="node"><title>Node20</title>
<g id="a_node20"><a xlink:href="../../d3/dbe/classview_1_1_view.html#ae77f0f711bba491940c5c6c184dcff70" target="_top" xlink:title="view.View.showAndChangeLanguage">
<polygon fill="white" stroke="black" points="211,-91.5 211,-110.5 401,-110.5 401,-91.5 211,-91.5"/>
<text text-anchor="middle" x="306" y="-98.5" font-family="Helvetica,sans-Serif" font-size="10.00">view.View.showAndChangeLanguage</text>
</a>
</g>
</g>
<!-- Node1&#45;&gt;Node20 -->
<g id="edge20" class="edge"><title>Node1&#45;&gt;Node20</title>
<path fill="none" stroke="midnightblue" d="M101.466,-200.935C122.729,-178.607 163.246,-139.983 206,-120 214.324,-116.11 223.397,-113.016 232.563,-110.555"/>
<polygon fill="midnightblue" stroke="midnightblue" points="98.8006,-198.661 94.5343,-208.359 103.917,-203.438 98.8006,-198.661"/>
</g>
<!-- Node23 -->
<g id="node23" class="node"><title>Node23</title>
<g id="a_node23"><a xlink:href="../../d3/dbe/classview_1_1_view.html#a43a4310c3789a93e0fa6b98b0bb4f8aa" target="_top" xlink:title="view.View.tabChangeUpdate">
<polygon fill="white" stroke="black" points="230.5,-50.5 230.5,-69.5 381.5,-69.5 381.5,-50.5 230.5,-50.5"/>
<text text-anchor="middle" x="306" y="-57.5" font-family="Helvetica,sans-Serif" font-size="10.00">view.View.tabChangeUpdate</text>
</a>
</g>
</g>
<!-- Node1&#45;&gt;Node23 -->
<g id="edge23" class="edge"><title>Node1&#45;&gt;Node23</title>
<path fill="none" stroke="midnightblue" d="M96.7314,-199.677C115.121,-170.002 155.595,-111.753 206,-82 215.022,-76.6747 225.197,-72.6364 235.504,-69.5746"/>
<polygon fill="midnightblue" stroke="midnightblue" points="93.7351,-197.869 91.5521,-208.236 99.7239,-201.493 93.7351,-197.869"/>
</g>
<!-- Node2&#45;&gt;Node3 -->
<g id="edge2" class="edge"><title>Node2&#45;&gt;Node3</title>
<path fill="none" stroke="midnightblue" d="M416.481,-375.001C429.881,-374.389 443.281,-373.777 455.879,-373.202"/>
<polygon fill="midnightblue" stroke="midnightblue" points="416.078,-371.516 406.248,-375.468 416.397,-378.508 416.078,-371.516"/>
</g>
<!-- Node4 -->
<g id="node4" class="node"><title>Node4</title>
<g id="a_node4"><a xlink:href="../../d3/d42/classmodel_1_1_model.html#a8a07e7f2040e8a2ab50ec2955504f6c4" target="_top" xlink:title="model.Model.parse">
<polygon fill="white" stroke="black" points="683,-385.5 683,-404.5 791,-404.5 791,-385.5 683,-385.5"/>
<text text-anchor="middle" x="737" y="-392.5" font-family="Helvetica,sans-Serif" font-size="10.00">model.Model.parse</text>
</a>
</g>
</g>
<!-- Node3&#45;&gt;Node4 -->
<g id="edge3" class="edge"><title>Node3&#45;&gt;Node4</title>
<path fill="none" stroke="midnightblue" d="M608.34,-379.656C633.349,-382.662 660.284,-385.9 682.938,-388.622"/>
<polygon fill="midnightblue" stroke="midnightblue" points="608.476,-376.147 598.129,-378.429 607.64,-383.097 608.476,-376.147"/>
</g>
<!-- Node12 -->
<g id="node12" class="node"><title>Node12</title>
<g id="a_node12"><a xlink:href="../../d5/dc1/classparser_1_1commands_1_1_parser_test.html#a6a3cc2c0d6ca8b502de3cad94a6ad0a5" target="_top" xlink:title="parser.commands.ParserTest.test\lParse">
<polygon fill="white" stroke="black" points="648.5,-336 648.5,-366 825.5,-366 825.5,-336 648.5,-336"/>
<text text-anchor="start" x="656.5" y="-354" font-family="Helvetica,sans-Serif" font-size="10.00">parser.commands.ParserTest.test</text>
<text text-anchor="middle" x="737" y="-343" font-family="Helvetica,sans-Serif" font-size="10.00">Parse</text>
</a>
</g>
</g>
<!-- Node3&#45;&gt;Node12 -->
<g id="edge11" class="edge"><title>Node3&#45;&gt;Node12</title>
<path fill="none" stroke="midnightblue" d="M608.112,-362.682C621.324,-361.475 635.08,-360.219 648.463,-358.996"/>
<polygon fill="midnightblue" stroke="midnightblue" points="607.769,-359.199 598.129,-363.594 608.406,-366.17 607.769,-359.199"/>
</g>
<!-- Node5 -->
<g id="node5" class="node"><title>Node5</title>
<g id="a_node5"><a xlink:href="../../d3/dbe/classview_1_1_view.html#ab8b25d25b79752feed7b786ed496f642" target="_top" xlink:title="view.View.loadLibrary">
<polygon fill="white" stroke="black" points="900,-429.5 900,-448.5 1016,-448.5 1016,-429.5 900,-429.5"/>
<text text-anchor="middle" x="958" y="-436.5" font-family="Helvetica,sans-Serif" font-size="10.00">view.View.loadLibrary</text>
</a>
</g>
</g>
<!-- Node4&#45;&gt;Node5 -->
<g id="edge4" class="edge"><title>Node4&#45;&gt;Node5</title>
<path fill="none" stroke="midnightblue" d="M795.736,-406.6C831.235,-413.732 876.161,-422.758 909.573,-429.471"/>
<polygon fill="midnightblue" stroke="midnightblue" points="796.013,-403.086 785.52,-404.547 794.634,-409.949 796.013,-403.086"/>
</g>
<!-- Node6 -->
<g id="node6" class="node"><title>Node6</title>
<g id="a_node6"><a xlink:href="../../da/df5/classview_1_1listwindows_1_1_commands_list_window.html#a3611428a65d6e7a436971f1b237e644e" target="_top" xlink:title="view.listwindows.Commands\lListWindow.parseCommand">
<polygon fill="white" stroke="black" points="883,-380 883,-410 1033,-410 1033,-380 883,-380"/>
<text text-anchor="start" x="891" y="-398" font-family="Helvetica,sans-Serif" font-size="10.00">view.listwindows.Commands</text>
<text text-anchor="middle" x="958" y="-387" font-family="Helvetica,sans-Serif" font-size="10.00">ListWindow.parseCommand</text>
</a>
</g>
</g>
<!-- Node4&#45;&gt;Node6 -->
<g id="edge5" class="edge"><title>Node4&#45;&gt;Node6</title>
<path fill="none" stroke="midnightblue" d="M801.31,-395C826.831,-395 856.451,-395 882.962,-395"/>
<polygon fill="midnightblue" stroke="midnightblue" points="801.014,-391.5 791.014,-395 801.014,-398.5 801.014,-391.5"/>
</g>
<!-- Node9 -->
<g id="node9" class="node"><title>Node9</title>
<g id="a_node9"><a xlink:href="../../db/d98/classview_1_1components_1_1_command_port.html#a687e2098038140e833e1bac1a759b587" target="_top" xlink:title="view.components.CommandPort.run\lCommand">
<polygon fill="white" stroke="black" points="862.5,-331 862.5,-361 1053.5,-361 1053.5,-331 862.5,-331"/>
<text text-anchor="start" x="870.5" y="-349" font-family="Helvetica,sans-Serif" font-size="10.00">view.components.CommandPort.run</text>
<text text-anchor="middle" x="958" y="-338" font-family="Helvetica,sans-Serif" font-size="10.00">Command</text>
</a>
</g>
</g>
<!-- Node4&#45;&gt;Node9 -->
<g id="edge8" class="edge"><title>Node4&#45;&gt;Node9</title>
<path fill="none" stroke="midnightblue" d="M790.262,-383.307C820.037,-376.645 857.667,-368.225 889.641,-361.071"/>
<polygon fill="midnightblue" stroke="midnightblue" points="789.48,-379.895 780.485,-385.494 791.008,-386.726 789.48,-379.895"/>
</g>
<!-- Node7 -->
<g id="node7" class="node"><title>Node7</title>
<g id="a_node7"><a xlink:href="../../df/d26/classview_1_1listwindows_1_1_commands_history_window.html#af341417d427f8b0548670f1efbb3acac" target="_top" xlink:title="view.listwindows.Commands\lHistoryWindow.setButtonAction">
<polygon fill="white" stroke="black" points="1103.5,-429 1103.5,-459 1268.5,-459 1268.5,-429 1103.5,-429"/>
<text text-anchor="start" x="1111.5" y="-447" font-family="Helvetica,sans-Serif" font-size="10.00">view.listwindows.Commands</text>
<text text-anchor="middle" x="1186" y="-436" font-family="Helvetica,sans-Serif" font-size="10.00">HistoryWindow.setButtonAction</text>
</a>
</g>
</g>
<!-- Node6&#45;&gt;Node7 -->
<g id="edge6" class="edge"><title>Node6&#45;&gt;Node7</title>
<path fill="none" stroke="midnightblue" d="M1038.26,-412.185C1063.54,-417.665 1091.29,-423.682 1115.79,-428.994"/>
<polygon fill="midnightblue" stroke="midnightblue" points="1038.86,-408.733 1028.34,-410.035 1037.37,-415.574 1038.86,-408.733"/>
</g>
<!-- Node8 -->
<g id="node8" class="node"><title>Node8</title>
<g id="a_node8"><a xlink:href="../../d7/dc7/classview_1_1listwindows_1_1_user_defined_commands_window.html#adaf32233789f6a07c42b4e459699bf53" target="_top" xlink:title="view.listwindows.UserDefined\lCommandsWindow.setButtonAction">
<polygon fill="white" stroke="black" points="1092.5,-380 1092.5,-410 1279.5,-410 1279.5,-380 1092.5,-380"/>
<text text-anchor="start" x="1100.5" y="-398" font-family="Helvetica,sans-Serif" font-size="10.00">view.listwindows.UserDefined</text>
<text text-anchor="middle" x="1186" y="-387" font-family="Helvetica,sans-Serif" font-size="10.00">CommandsWindow.setButtonAction</text>
</a>
</g>
</g>
<!-- Node6&#45;&gt;Node8 -->
<g id="edge7" class="edge"><title>Node6&#45;&gt;Node8</title>
<path fill="none" stroke="midnightblue" d="M1043.35,-395C1059.3,-395 1076.06,-395 1092.25,-395"/>
<polygon fill="midnightblue" stroke="midnightblue" points="1043,-391.5 1033,-395 1043,-398.5 1043,-391.5"/>
</g>
<!-- Node10 -->
<g id="node10" class="node"><title>Node10</title>
<g id="a_node10"><a xlink:href="../../db/d98/classview_1_1components_1_1_command_port.html#a37ae451233579691839c4a52072c94e9" target="_top" xlink:title="view.components.CommandPort.\lCommandPort">
<polygon fill="white" stroke="black" points="1098.5,-331 1098.5,-361 1273.5,-361 1273.5,-331 1098.5,-331"/>
<text text-anchor="start" x="1106.5" y="-349" font-family="Helvetica,sans-Serif" font-size="10.00">view.components.CommandPort.</text>
<text text-anchor="middle" x="1186" y="-338" font-family="Helvetica,sans-Serif" font-size="10.00">CommandPort</text>
</a>
</g>
</g>
<!-- Node9&#45;&gt;Node10 -->
<g id="edge9" class="edge"><title>Node9&#45;&gt;Node10</title>
<path fill="none" stroke="midnightblue" d="M1063.7,-346C1075.32,-346 1087.06,-346 1098.42,-346"/>
<polygon fill="midnightblue" stroke="midnightblue" points="1063.53,-342.5 1053.53,-346 1063.53,-349.5 1063.53,-342.5"/>
</g>
<!-- Node11 -->
<g id="node11" class="node"><title>Node11</title>
<g id="a_node11"><a xlink:href="../../db/d98/classview_1_1components_1_1_command_port.html#afcdcfbfa864e7438dc0f0a3f1c541294" target="_top" xlink:title="view.components.CommandPort.run\lCommand">
<polygon fill="white" stroke="black" points="1090.5,-282 1090.5,-312 1281.5,-312 1281.5,-282 1090.5,-282"/>
<text text-anchor="start" x="1098.5" y="-300" font-family="Helvetica,sans-Serif" font-size="10.00">view.components.CommandPort.run</text>
<text text-anchor="middle" x="1186" y="-289" font-family="Helvetica,sans-Serif" font-size="10.00">Command</text>
</a>
</g>
</g>
<!-- Node9&#45;&gt;Node11 -->
<g id="edge10" class="edge"><title>Node9&#45;&gt;Node11</title>
<path fill="none" stroke="midnightblue" d="M1038.26,-328.815C1063.54,-323.335 1091.29,-317.318 1115.79,-312.006"/>
<polygon fill="midnightblue" stroke="midnightblue" points="1037.37,-325.426 1028.34,-330.965 1038.86,-332.267 1037.37,-325.426"/>
</g>
<!-- Node14 -->
<g id="node14" class="node"><title>Node14</title>
<g id="a_node14"><a xlink:href="../../d6/d00/classmodel_1_1_variables_collection.html#add84dfc7ce130a9bde135a9bf1d080ff" target="_top" xlink:title="model.VariablesCollection.add\lVariable">
<polygon fill="white" stroke="black" points="446.5,-277 446.5,-307 607.5,-307 607.5,-277 446.5,-277"/>
<text text-anchor="start" x="454.5" y="-295" font-family="Helvetica,sans-Serif" font-size="10.00">model.VariablesCollection.add</text>
<text text-anchor="middle" x="527" y="-284" font-family="Helvetica,sans-Serif" font-size="10.00">Variable</text>
</a>
</g>
</g>
<!-- Node13&#45;&gt;Node14 -->
<g id="edge13" class="edge"><title>Node13&#45;&gt;Node14</title>
<path fill="none" stroke="midnightblue" d="M393.734,-292C411.133,-292 429.336,-292 446.476,-292"/>
<polygon fill="midnightblue" stroke="midnightblue" points="393.596,-288.5 383.596,-292 393.596,-295.5 393.596,-288.5"/>
</g>
<!-- Node15 -->
<g id="node15" class="node"><title>Node15</title>
<g id="a_node15"><a xlink:href="../../d6/d00/classmodel_1_1_variables_collection.html#a9060d5c67d836153c2e0daff3b92c297" target="_top" xlink:title="model.VariablesCollection.get\lVariableValue">
<polygon fill="white" stroke="black" points="658,-277 658,-307 816,-307 816,-277 658,-277"/>
<text text-anchor="start" x="666" y="-295" font-family="Helvetica,sans-Serif" font-size="10.00">model.VariablesCollection.get</text>
<text text-anchor="middle" x="737" y="-284" font-family="Helvetica,sans-Serif" font-size="10.00">VariableValue</text>
</a>
</g>
</g>
<!-- Node14&#45;&gt;Node15 -->
<g id="edge14" class="edge"><title>Node14&#45;&gt;Node15</title>
<path fill="none" stroke="midnightblue" d="M617.683,-292C631.067,-292 644.773,-292 657.892,-292"/>
<polygon fill="midnightblue" stroke="midnightblue" points="617.526,-288.5 607.526,-292 617.526,-295.5 617.526,-288.5"/>
</g>
<!-- Node17 -->
<g id="node17" class="node"><title>Node17</title>
<g id="a_node17"><a xlink:href="../../dc/d09/classparser_1_1parser_1_1_to_factory.html#a623e33082dd154838b16f7a12dcf334d" target="_top" xlink:title="parser.parser.ToFactory.createTo">
<polygon fill="white" stroke="black" points="442.5,-233.5 442.5,-252.5 611.5,-252.5 611.5,-233.5 442.5,-233.5"/>
<text text-anchor="middle" x="527" y="-240.5" font-family="Helvetica,sans-Serif" font-size="10.00">parser.parser.ToFactory.createTo</text>
</a>
</g>
</g>
<!-- Node16&#45;&gt;Node17 -->
<g id="edge16" class="edge"><title>Node16&#45;&gt;Node17</title>
<path fill="none" stroke="midnightblue" d="M396.447,-243C411.589,-243 427.26,-243 442.249,-243"/>
<polygon fill="midnightblue" stroke="midnightblue" points="396.064,-239.5 386.064,-243 396.064,-246.5 396.064,-239.5"/>
</g>
<!-- Node21 -->
<g id="node21" class="node"><title>Node21</title>
<g id="a_node21"><a xlink:href="../../da/da8/classview_1_1components_1_1_s_logo_menu_bar.html#a8e395aa3dd6b23abf4e158d4a2f19d10" target="_top" xlink:title="view.components.SLogoMenu\lBar.makePreferencesMenu">
<polygon fill="white" stroke="black" points="658,-88 658,-118 816,-118 816,-88 658,-88"/>
<text text-anchor="start" x="666" y="-106" font-family="Helvetica,sans-Serif" font-size="10.00">view.components.SLogoMenu</text>
<text text-anchor="middle" x="737" y="-95" font-family="Helvetica,sans-Serif" font-size="10.00">Bar.makePreferencesMenu</text>
</a>
</g>
</g>
<!-- Node20&#45;&gt;Node21 -->
<g id="edge21" class="edge"><title>Node20&#45;&gt;Node21</title>
<path fill="none" stroke="midnightblue" d="M411.23,-101.486C487.274,-101.84 588.715,-102.313 657.86,-102.636"/>
<polygon fill="midnightblue" stroke="midnightblue" points="411.162,-97.9857 401.146,-101.439 411.129,-104.986 411.162,-97.9857"/>
</g>
<!-- Node22 -->
<g id="node22" class="node"><title>Node22</title>
<g id="a_node22"><a xlink:href="../../da/da8/classview_1_1components_1_1_s_logo_menu_bar.html#afbe8434fba1476e5cbe7401c6bc158ec" target="_top" xlink:title="view.components.SLogoMenu\lBar.SLogoMenuBar">
<polygon fill="white" stroke="black" points="879,-44 879,-74 1037,-74 1037,-44 879,-44"/>
<text text-anchor="start" x="887" y="-62" font-family="Helvetica,sans-Serif" font-size="10.00">view.components.SLogoMenu</text>
<text text-anchor="middle" x="958" y="-51" font-family="Helvetica,sans-Serif" font-size="10.00">Bar.SLogoMenuBar</text>
</a>
</g>
</g>
<!-- Node21&#45;&gt;Node22 -->
<g id="edge22" class="edge"><title>Node21&#45;&gt;Node22</title>
<path fill="none" stroke="midnightblue" d="M822.602,-86.0023C842.248,-82.0552 863.022,-77.8814 882.21,-74.0262"/>
<polygon fill="midnightblue" stroke="midnightblue" points="821.869,-82.5795 812.755,-87.9808 823.248,-89.4423 821.869,-82.5795"/>
</g>
<!-- Node24 -->
<g id="node24" class="node"><title>Node24</title>
<g id="a_node24"><a xlink:href="../../d3/dbe/classview_1_1_view.html#a59bb3de727676a9d3c1630f9e58b9614" target="_top" xlink:title="view.View.addTopBars">
<polygon fill="white" stroke="black" points="467.5,-50.5 467.5,-69.5 586.5,-69.5 586.5,-50.5 467.5,-50.5"/>
<text text-anchor="middle" x="527" y="-57.5" font-family="Helvetica,sans-Serif" font-size="10.00">view.View.addTopBars</text>
</a>
</g>
</g>
<!-- Node23&#45;&gt;Node24 -->
<g id="edge24" class="edge"><title>Node23&#45;&gt;Node24</title>
<path fill="none" stroke="midnightblue" d="M392.062,-60C417.286,-60 444.333,-60 467.472,-60"/>
<polygon fill="midnightblue" stroke="midnightblue" points="391.755,-56.5001 381.755,-60 391.755,-63.5001 391.755,-56.5001"/>
</g>
<!-- Node26 -->
<g id="node26" class="node"><title>Node26</title>
<g id="a_node26"><a xlink:href="../../d3/dbe/classview_1_1_view.html#aef53667bcfbe243d64e3416529c35f8f" target="_top" xlink:title="view.View.addNewTab">
<polygon fill="white" stroke="black" points="468.5,-12.5 468.5,-31.5 585.5,-31.5 585.5,-12.5 468.5,-12.5"/>
<text text-anchor="middle" x="527" y="-19.5" font-family="Helvetica,sans-Serif" font-size="10.00">view.View.addNewTab</text>
</a>
</g>
</g>
<!-- Node23&#45;&gt;Node26 -->
<g id="edge26" class="edge"><title>Node23&#45;&gt;Node26</title>
<path fill="none" stroke="midnightblue" d="M371.985,-48.7241C403.492,-43.2571 440.925,-36.7619 470.997,-31.5439"/>
<polygon fill="midnightblue" stroke="midnightblue" points="371.235,-45.3019 361.98,-50.46 372.431,-52.1988 371.235,-45.3019"/>
</g>
<!-- Node25 -->
<g id="node25" class="node"><title>Node25</title>
<g id="a_node25"><a xlink:href="../../d3/dbe/classview_1_1_view.html#ab8997f733f923e68829b13b7e9633bc7" target="_top" xlink:title="view.View.View">
<polygon fill="white" stroke="black" points="694.5,-49.5 694.5,-68.5 779.5,-68.5 779.5,-49.5 694.5,-49.5"/>
<text text-anchor="middle" x="737" y="-56.5" font-family="Helvetica,sans-Serif" font-size="10.00">view.View.View</text>
</a>
</g>
</g>
<!-- Node24&#45;&gt;Node25 -->
<g id="edge25" class="edge"><title>Node24&#45;&gt;Node25</title>
<path fill="none" stroke="midnightblue" d="M597.015,-59.6682C629.172,-59.5136 666.379,-59.3347 694.2,-59.201"/>
<polygon fill="midnightblue" stroke="midnightblue" points="596.753,-56.1693 586.77,-59.7174 596.787,-63.1692 596.753,-56.1693"/>
</g>
<!-- Node26&#45;&gt;Node25 -->
<g id="edge29" class="edge"><title>Node26&#45;&gt;Node25</title>
<path fill="none" stroke="midnightblue" d="M591.699,-33.3311C625.091,-39.2711 665.042,-46.3776 694.431,-51.6056"/>
<polygon fill="midnightblue" stroke="midnightblue" points="592.024,-29.8339 581.565,-31.5284 590.798,-36.7258 592.024,-29.8339"/>
</g>
<!-- Node27 -->
<g id="node27" class="node"><title>Node27</title>
<g id="a_node27"><a xlink:href="../../da/da8/classview_1_1components_1_1_s_logo_menu_bar.html#a50a896e8874b794c164559d97c531b78" target="_top" xlink:title="view.components.SLogoMenu\lBar.makeFileMenu">
<polygon fill="white" stroke="black" points="658,-0 658,-30 816,-30 816,-0 658,-0"/>
<text text-anchor="start" x="666" y="-18" font-family="Helvetica,sans-Serif" font-size="10.00">view.components.SLogoMenu</text>
<text text-anchor="middle" x="737" y="-7" font-family="Helvetica,sans-Serif" font-size="10.00">Bar.makeFileMenu</text>
</a>
</g>
</g>
<!-- Node26&#45;&gt;Node27 -->
<g id="edge27" class="edge"><title>Node26&#45;&gt;Node27</title>
<path fill="none" stroke="midnightblue" d="M595.841,-19.7169C615.688,-19.049 637.541,-18.3135 657.967,-17.6261"/>
<polygon fill="midnightblue" stroke="midnightblue" points="595.54,-16.2249 585.663,-20.0594 595.775,-23.221 595.54,-16.2249"/>
</g>
<!-- Node27&#45;&gt;Node22 -->
<g id="edge28" class="edge"><title>Node27&#45;&gt;Node22</title>
<path fill="none" stroke="midnightblue" d="M822.602,-31.9977C842.248,-35.9448 863.022,-40.1186 882.21,-43.9738"/>
<polygon fill="midnightblue" stroke="midnightblue" points="823.248,-28.5577 812.755,-30.0192 821.869,-35.4205 823.248,-28.5577"/>
</g>
</g>
</svg>
