<?xml version="1.0" encoding="UTF-8" standalone="no"?>
<!DOCTYPE svg PUBLIC "-//W3C//DTD SVG 1.1//EN"
 "http://www.w3.org/Graphics/SVG/1.1/DTD/svg11.dtd">
<!-- Generated by graphviz version 2.36.0 (20140111.2315)
 -->
<!-- Title: parser.parser.Regex.Regex Pages: 1 -->
<svg width="1470pt" height="400pt"
 viewBox="0.00 0.00 1470.00 400.00" xmlns="http://www.w3.org/2000/svg" xmlns:xlink="http://www.w3.org/1999/xlink">
<g id="graph0" class="graph" transform="scale(1 1) rotate(0) translate(4 396)">
<title>parser.parser.Regex.Regex</title>
<polygon fill="white" stroke="none" points="-4,4 -4,-396 1466,-396 1466,4 -4,4"/>
<!-- Node1 -->
<g id="node1" class="node"><title>Node1</title>
<polygon fill="#bfbfbf" stroke="black" points="0.5,-198.5 0.5,-217.5 143.5,-217.5 143.5,-198.5 0.5,-198.5"/>
<text text-anchor="middle" x="72" y="-205.5" font-family="Helvetica,sans-Serif" font-size="10.00">parser.parser.Regex.Regex</text>
</g>
<!-- Node2 -->
<g id="node2" class="node"><title>Node2</title>
<g id="a_node2"><a xlink:href="../../de/d16/classparser_1_1parser_1_1_regex.html#a9da6d787de06ba7ea76d52326b532bd1" target="_top" xlink:title="parser.parser.Regex.getInstance">
<polygon fill="white" stroke="black" points="180,-198.5 180,-217.5 350,-217.5 350,-198.5 180,-198.5"/>
<text text-anchor="middle" x="265" y="-205.5" font-family="Helvetica,sans-Serif" font-size="10.00">parser.parser.Regex.getInstance</text>
</a>
</g>
</g>
<!-- Node1&#45;&gt;Node2 -->
<g id="edge1" class="edge"><title>Node1&#45;&gt;Node2</title>
<path fill="none" stroke="midnightblue" d="M153.643,-208C162.297,-208 171.117,-208 179.811,-208"/>
<polygon fill="midnightblue" stroke="midnightblue" points="153.579,-204.5 143.579,-208 153.579,-211.5 153.579,-204.5"/>
</g>
<!-- Node3 -->
<g id="node3" class="node"><title>Node3</title>
<g id="a_node3"><a xlink:href="../../d8/da2/classmodel_1_1_variable_factory.html#a73fd0c25fff2bd36a01fbdeadbaab5ec" target="_top" xlink:title="model.VariableFactory.create\lVariable">
<polygon fill="white" stroke="black" points="408.5,-362 408.5,-392 563.5,-392 563.5,-362 408.5,-362"/>
<text text-anchor="start" x="416.5" y="-380" font-family="Helvetica,sans-Serif" font-size="10.00">model.VariableFactory.create</text>
<text text-anchor="middle" x="486" y="-369" font-family="Helvetica,sans-Serif" font-size="10.00">Variable</text>
</a>
</g>
</g>
<!-- Node2&#45;&gt;Node3 -->
<g id="edge2" class="edge"><title>Node2&#45;&gt;Node3</title>
<path fill="none" stroke="midnightblue" d="M276.291,-226.787C294.298,-257.833 334.555,-319.624 386,-352 392.901,-356.343 400.519,-359.933 408.373,-362.899"/>
<polygon fill="midnightblue" stroke="midnightblue" points="279.212,-224.842 271.24,-217.864 273.12,-228.291 279.212,-224.842"/>
</g>
<!-- Node6 -->
<g id="node6" class="node"><title>Node6</title>
<g id="a_node6"><a xlink:href="../../d6/d00/classmodel_1_1_variables_collection.html#a435e59bf689f308d937cd7748bb466f0" target="_top" xlink:title="model.VariablesCollection.save\lState">
<polygon fill="white" stroke="black" points="403.5,-313 403.5,-343 568.5,-343 568.5,-313 403.5,-313"/>
<text text-anchor="start" x="411.5" y="-331" font-family="Helvetica,sans-Serif" font-size="10.00">model.VariablesCollection.save</text>
<text text-anchor="middle" x="486" y="-320" font-family="Helvetica,sans-Serif" font-size="10.00">State</text>
</a>
</g>
</g>
<!-- Node2&#45;&gt;Node6 -->
<g id="edge5" class="edge"><title>Node2&#45;&gt;Node6</title>
<path fill="none" stroke="midnightblue" d="M282.41,-224.819C304.156,-246.141 344.619,-282.575 386,-303 393.789,-306.845 402.223,-310.133 410.771,-312.938"/>
<polygon fill="midnightblue" stroke="midnightblue" points="284.831,-222.289 275.279,-217.705 279.887,-227.245 284.831,-222.289"/>
</g>
<!-- Node7 -->
<g id="node7" class="node"><title>Node7</title>
<g id="a_node7"><a xlink:href="../../d2/d1d/classmodel_1_1_variable_string.html#a10995e85337a47efad5c2591eeda95bd" target="_top" xlink:title="model.VariableString.set\lValue">
<polygon fill="white" stroke="black" points="419,-264 419,-294 553,-294 553,-264 419,-264"/>
<text text-anchor="start" x="427" y="-282" font-family="Helvetica,sans-Serif" font-size="10.00">model.VariableString.set</text>
<text text-anchor="middle" x="486" y="-271" font-family="Helvetica,sans-Serif" font-size="10.00">Value</text>
</a>
</g>
</g>
<!-- Node2&#45;&gt;Node7 -->
<g id="edge6" class="edge"><title>Node2&#45;&gt;Node7</title>
<path fill="none" stroke="midnightblue" d="M298.033,-221.472C321.997,-231.257 355.715,-244.409 386,-254 397.154,-257.532 409.137,-260.905 420.78,-263.966"/>
<polygon fill="midnightblue" stroke="midnightblue" points="299.298,-218.208 288.718,-217.637 296.633,-224.681 299.298,-218.208"/>
</g>
<!-- Node8 -->
<g id="node8" class="node"><title>Node8</title>
<g id="a_node8"><a xlink:href="../../d2/d66/classparser_1_1parser_1_1_command_factory.html#a0dc44bc9972a4652d98146b5e30a5e72" target="_top" xlink:title="parser.parser.CommandFactory.create\lCommand">
<polygon fill="white" stroke="black" points="386,-215 386,-245 586,-245 586,-215 386,-215"/>
<text text-anchor="start" x="394" y="-233" font-family="Helvetica,sans-Serif" font-size="10.00">parser.parser.CommandFactory.create</text>
<text text-anchor="middle" x="486" y="-222" font-family="Helvetica,sans-Serif" font-size="10.00">Command</text>
</a>
</g>
</g>
<!-- Node2&#45;&gt;Node8 -->
<g id="edge7" class="edge"><title>Node2&#45;&gt;Node8</title>
<path fill="none" stroke="midnightblue" d="M360.002,-217.443C368.545,-218.301 377.216,-219.172 385.802,-220.035"/>
<polygon fill="midnightblue" stroke="midnightblue" points="360.345,-213.96 350.045,-216.443 359.645,-220.925 360.345,-213.96"/>
</g>
<!-- Node9 -->
<g id="node9" class="node"><title>Node9</title>
<g id="a_node9"><a xlink:href="../../d4/d3a/classparser_1_1parser_1_1_parser.html#a51f4baa200eb0c94b804119b1439a1aa" target="_top" xlink:title="parser.parser.Parser.parse">
<polygon fill="white" stroke="black" points="636,-191.5 636,-210.5 778,-210.5 778,-191.5 636,-191.5"/>
<text text-anchor="middle" x="707" y="-198.5" font-family="Helvetica,sans-Serif" font-size="10.00">parser.parser.Parser.parse</text>
</a>
</g>
</g>
<!-- Node2&#45;&gt;Node9 -->
<g id="edge18" class="edge"><title>Node2&#45;&gt;Node9</title>
<path fill="none" stroke="midnightblue" d="M360.4,-206.417C369.055,-206.275 377.689,-206.134 386,-206 471.972,-204.612 570.936,-203.075 635.771,-202.076"/>
<polygon fill="midnightblue" stroke="midnightblue" points="360.188,-202.92 350.247,-206.585 360.304,-209.919 360.188,-202.92"/>
</g>
<!-- Node19 -->
<g id="node19" class="node"><title>Node19</title>
<g id="a_node19"><a xlink:href="../../dc/d09/classparser_1_1parser_1_1_to_factory.html#aa6f21d062bb4f3ba4d708d0a5b450a4b" target="_top" xlink:title="parser.parser.ToFactory.isolate\lToDeclaration">
<polygon fill="white" stroke="black" points="406,-127 406,-157 566,-157 566,-127 406,-127"/>
<text text-anchor="start" x="414" y="-145" font-family="Helvetica,sans-Serif" font-size="10.00">parser.parser.ToFactory.isolate</text>
<text text-anchor="middle" x="486" y="-134" font-family="Helvetica,sans-Serif" font-size="10.00">ToDeclaration</text>
</a>
</g>
</g>
<!-- Node2&#45;&gt;Node19 -->
<g id="edge19" class="edge"><title>Node2&#45;&gt;Node19</title>
<path fill="none" stroke="midnightblue" d="M307.596,-195.464C343.797,-184.554 396.358,-168.714 434.872,-157.107"/>
<polygon fill="midnightblue" stroke="midnightblue" points="306.409,-192.166 297.844,-198.403 308.429,-198.869 306.409,-192.166"/>
</g>
<!-- Node21 -->
<g id="node21" class="node"><title>Node21</title>
<g id="a_node21"><a xlink:href="../../d3/dbe/classview_1_1_view.html#ae77f0f711bba491940c5c6c184dcff70" target="_top" xlink:title="view.View.showAndChangeLanguage">
<polygon fill="white" stroke="black" points="391,-88.5 391,-107.5 581,-107.5 581,-88.5 391,-88.5"/>
<text text-anchor="middle" x="486" y="-95.5" font-family="Helvetica,sans-Serif" font-size="10.00">view.View.showAndChangeLanguage</text>
</a>
</g>
</g>
<!-- Node2&#45;&gt;Node21 -->
<g id="edge21" class="edge"><title>Node2&#45;&gt;Node21</title>
<path fill="none" stroke="midnightblue" d="M282.668,-191.279C304.449,-170.46 344.705,-135.402 386,-117 394.712,-113.118 404.202,-110.027 413.743,-107.567"/>
<polygon fill="midnightblue" stroke="midnightblue" points="279.98,-189.011 275.261,-198.497 284.865,-194.025 279.98,-189.011"/>
</g>
<!-- Node24 -->
<g id="node24" class="node"><title>Node24</title>
<g id="a_node24"><a xlink:href="../../d3/dbe/classview_1_1_view.html#a43a4310c3789a93e0fa6b98b0bb4f8aa" target="_top" xlink:title="view.View.tabChangeUpdate">
<polygon fill="white" stroke="black" points="410.5,-50.5 410.5,-69.5 561.5,-69.5 561.5,-50.5 410.5,-50.5"/>
<text text-anchor="middle" x="486" y="-57.5" font-family="Helvetica,sans-Serif" font-size="10.00">view.View.tabChangeUpdate</text>
</a>
</g>
</g>
<!-- Node2&#45;&gt;Node24 -->
<g id="edge24" class="edge"><title>Node2&#45;&gt;Node24</title>
<path fill="none" stroke="midnightblue" d="M277.397,-189.68C296.231,-161.081 336.712,-106.284 386,-79 393.579,-74.8044 401.929,-71.521 410.468,-68.9538"/>
<polygon fill="midnightblue" stroke="midnightblue" points="274.321,-187.992 271.858,-198.296 280.21,-191.777 274.321,-187.992"/>
</g>
<!-- Node4 -->
<g id="node4" class="node"><title>Node4</title>
<g id="a_node4"><a xlink:href="../../d6/d00/classmodel_1_1_variables_collection.html#add84dfc7ce130a9bde135a9bf1d080ff" target="_top" xlink:title="model.VariablesCollection.add\lVariable">
<polygon fill="white" stroke="black" points="626.5,-362 626.5,-392 787.5,-392 787.5,-362 626.5,-362"/>
<text text-anchor="start" x="634.5" y="-380" font-family="Helvetica,sans-Serif" font-size="10.00">model.VariablesCollection.add</text>
<text text-anchor="middle" x="707" y="-369" font-family="Helvetica,sans-Serif" font-size="10.00">Variable</text>
</a>
</g>
</g>
<!-- Node3&#45;&gt;Node4 -->
<g id="edge3" class="edge"><title>Node3&#45;&gt;Node4</title>
<path fill="none" stroke="midnightblue" d="M573.734,-377C591.133,-377 609.336,-377 626.476,-377"/>
<polygon fill="midnightblue" stroke="midnightblue" points="573.596,-373.5 563.596,-377 573.596,-380.5 573.596,-373.5"/>
</g>
<!-- Node5 -->
<g id="node5" class="node"><title>Node5</title>
<g id="a_node5"><a xlink:href="../../d6/d00/classmodel_1_1_variables_collection.html#a9060d5c67d836153c2e0daff3b92c297" target="_top" xlink:title="model.VariablesCollection.get\lVariableValue">
<polygon fill="white" stroke="black" points="838,-362 838,-392 996,-392 996,-362 838,-362"/>
<text text-anchor="start" x="846" y="-380" font-family="Helvetica,sans-Serif" font-size="10.00">model.VariablesCollection.get</text>
<text text-anchor="middle" x="917" y="-369" font-family="Helvetica,sans-Serif" font-size="10.00">VariableValue</text>
</a>
</g>
</g>
<!-- Node4&#45;&gt;Node5 -->
<g id="edge4" class="edge"><title>Node4&#45;&gt;Node5</title>
<path fill="none" stroke="midnightblue" d="M797.683,-377C811.067,-377 824.773,-377 837.892,-377"/>
<polygon fill="midnightblue" stroke="midnightblue" points="797.526,-373.5 787.526,-377 797.526,-380.5 797.526,-373.5"/>
</g>
<!-- Node8&#45;&gt;Node9 -->
<g id="edge8" class="edge"><title>Node8&#45;&gt;Node9</title>
<path fill="none" stroke="midnightblue" d="M596.481,-215.502C609.881,-213.728 623.281,-211.954 635.879,-210.285"/>
<polygon fill="midnightblue" stroke="midnightblue" points="595.702,-212.075 586.248,-216.858 596.621,-219.014 595.702,-212.075"/>
</g>
<!-- Node10 -->
<g id="node10" class="node"><title>Node10</title>
<g id="a_node10"><a xlink:href="../../d3/d42/classmodel_1_1_model.html#a8a07e7f2040e8a2ab50ec2955504f6c4" target="_top" xlink:title="model.Model.parse">
<polygon fill="white" stroke="black" points="863,-198.5 863,-217.5 971,-217.5 971,-198.5 863,-198.5"/>
<text text-anchor="middle" x="917" y="-205.5" font-family="Helvetica,sans-Serif" font-size="10.00">model.Model.parse</text>
</a>
</g>
</g>
<!-- Node9&#45;&gt;Node10 -->
<g id="edge9" class="edge"><title>Node9&#45;&gt;Node10</title>
<path fill="none" stroke="midnightblue" d="M788.34,-203.704C813.349,-204.545 840.284,-205.452 862.938,-206.214"/>
<polygon fill="midnightblue" stroke="midnightblue" points="788.241,-200.199 778.129,-203.36 788.006,-207.195 788.241,-200.199"/>
</g>
<!-- Node18 -->
<g id="node18" class="node"><title>Node18</title>
<g id="a_node18"><a xlink:href="../../d5/dc1/classparser_1_1commands_1_1_parser_test.html#a6a3cc2c0d6ca8b502de3cad94a6ad0a5" target="_top" xlink:title="parser.commands.ParserTest.test\lParse">
<polygon fill="white" stroke="black" points="828.5,-149 828.5,-179 1005.5,-179 1005.5,-149 828.5,-149"/>
<text text-anchor="start" x="836.5" y="-167" font-family="Helvetica,sans-Serif" font-size="10.00">parser.commands.ParserTest.test</text>
<text text-anchor="middle" x="917" y="-156" font-family="Helvetica,sans-Serif" font-size="10.00">Parse</text>
</a>
</g>
</g>
<!-- Node9&#45;&gt;Node18 -->
<g id="edge17" class="edge"><title>Node9&#45;&gt;Node18</title>
<path fill="none" stroke="midnightblue" d="M771.544,-189.697C790.465,-186.331 811.502,-182.589 831.537,-179.025"/>
<polygon fill="midnightblue" stroke="midnightblue" points="770.798,-186.274 761.565,-191.472 772.024,-193.166 770.798,-186.274"/>
</g>
<!-- Node11 -->
<g id="node11" class="node"><title>Node11</title>
<g id="a_node11"><a xlink:href="../../d3/dbe/classview_1_1_view.html#ab8b25d25b79752feed7b786ed496f642" target="_top" xlink:title="view.View.loadLibrary">
<polygon fill="white" stroke="black" points="1080,-242.5 1080,-261.5 1196,-261.5 1196,-242.5 1080,-242.5"/>
<text text-anchor="middle" x="1138" y="-249.5" font-family="Helvetica,sans-Serif" font-size="10.00">view.View.loadLibrary</text>
</a>
</g>
</g>
<!-- Node10&#45;&gt;Node11 -->
<g id="edge10" class="edge"><title>Node10&#45;&gt;Node11</title>
<path fill="none" stroke="midnightblue" d="M975.736,-219.6C1011.24,-226.732 1056.16,-235.758 1089.57,-242.471"/>
<polygon fill="midnightblue" stroke="midnightblue" points="976.013,-216.086 965.52,-217.547 974.634,-222.949 976.013,-216.086"/>
</g>
<!-- Node12 -->
<g id="node12" class="node"><title>Node12</title>
<g id="a_node12"><a xlink:href="../../da/df5/classview_1_1listwindows_1_1_commands_list_window.html#a3611428a65d6e7a436971f1b237e644e" target="_top" xlink:title="view.listwindows.Commands\lListWindow.parseCommand">
<polygon fill="white" stroke="black" points="1063,-193 1063,-223 1213,-223 1213,-193 1063,-193"/>
<text text-anchor="start" x="1071" y="-211" font-family="Helvetica,sans-Serif" font-size="10.00">view.listwindows.Commands</text>
<text text-anchor="middle" x="1138" y="-200" font-family="Helvetica,sans-Serif" font-size="10.00">ListWindow.parseCommand</text>
</a>
</g>
</g>
<!-- Node10&#45;&gt;Node12 -->
<g id="edge11" class="edge"><title>Node10&#45;&gt;Node12</title>
<path fill="none" stroke="midnightblue" d="M981.31,-208C1006.83,-208 1036.45,-208 1062.96,-208"/>
<polygon fill="midnightblue" stroke="midnightblue" points="981.014,-204.5 971.014,-208 981.014,-211.5 981.014,-204.5"/>
</g>
<!-- Node15 -->
<g id="node15" class="node"><title>Node15</title>
<g id="a_node15"><a xlink:href="../../db/d98/classview_1_1components_1_1_command_port.html#a687e2098038140e833e1bac1a759b587" target="_top" xlink:title="view.components.CommandPort.run\lCommand">
<polygon fill="white" stroke="black" points="1042.5,-144 1042.5,-174 1233.5,-174 1233.5,-144 1042.5,-144"/>
<text text-anchor="start" x="1050.5" y="-162" font-family="Helvetica,sans-Serif" font-size="10.00">view.components.CommandPort.run</text>
<text text-anchor="middle" x="1138" y="-151" font-family="Helvetica,sans-Serif" font-size="10.00">Command</text>
</a>
</g>
</g>
<!-- Node10&#45;&gt;Node15 -->
<g id="edge14" class="edge"><title>Node10&#45;&gt;Node15</title>
<path fill="none" stroke="midnightblue" d="M970.262,-196.307C1000.04,-189.645 1037.67,-181.225 1069.64,-174.071"/>
<polygon fill="midnightblue" stroke="midnightblue" points="969.48,-192.895 960.485,-198.494 971.008,-199.726 969.48,-192.895"/>
</g>
<!-- Node13 -->
<g id="node13" class="node"><title>Node13</title>
<g id="a_node13"><a xlink:href="../../df/d26/classview_1_1listwindows_1_1_commands_history_window.html#af341417d427f8b0548670f1efbb3acac" target="_top" xlink:title="view.listwindows.Commands\lHistoryWindow.setButtonAction">
<polygon fill="white" stroke="black" points="1283.5,-242 1283.5,-272 1448.5,-272 1448.5,-242 1283.5,-242"/>
<text text-anchor="start" x="1291.5" y="-260" font-family="Helvetica,sans-Serif" font-size="10.00">view.listwindows.Commands</text>
<text text-anchor="middle" x="1366" y="-249" font-family="Helvetica,sans-Serif" font-size="10.00">HistoryWindow.setButtonAction</text>
</a>
</g>
</g>
<!-- Node12&#45;&gt;Node13 -->
<g id="edge12" class="edge"><title>Node12&#45;&gt;Node13</title>
<path fill="none" stroke="midnightblue" d="M1218.26,-225.185C1243.54,-230.665 1271.29,-236.682 1295.79,-241.994"/>
<polygon fill="midnightblue" stroke="midnightblue" points="1218.86,-221.733 1208.34,-223.035 1217.37,-228.574 1218.86,-221.733"/>
</g>
<!-- Node14 -->
<g id="node14" class="node"><title>Node14</title>
<g id="a_node14"><a xlink:href="../../d7/dc7/classview_1_1listwindows_1_1_user_defined_commands_window.html#adaf32233789f6a07c42b4e459699bf53" target="_top" xlink:title="view.listwindows.UserDefined\lCommandsWindow.setButtonAction">
<polygon fill="white" stroke="black" points="1272.5,-193 1272.5,-223 1459.5,-223 1459.5,-193 1272.5,-193"/>
<text text-anchor="start" x="1280.5" y="-211" font-family="Helvetica,sans-Serif" font-size="10.00">view.listwindows.UserDefined</text>
<text text-anchor="middle" x="1366" y="-200" font-family="Helvetica,sans-Serif" font-size="10.00">CommandsWindow.setButtonAction</text>
</a>
</g>
</g>
<!-- Node12&#45;&gt;Node14 -->
<g id="edge13" class="edge"><title>Node12&#45;&gt;Node14</title>
<path fill="none" stroke="midnightblue" d="M1223.35,-208C1239.3,-208 1256.06,-208 1272.25,-208"/>
<polygon fill="midnightblue" stroke="midnightblue" points="1223,-204.5 1213,-208 1223,-211.5 1223,-204.5"/>
</g>
<!-- Node16 -->
<g id="node16" class="node"><title>Node16</title>
<g id="a_node16"><a xlink:href="../../db/d98/classview_1_1components_1_1_command_port.html#a37ae451233579691839c4a52072c94e9" target="_top" xlink:title="view.components.CommandPort.\lCommandPort">
<polygon fill="white" stroke="black" points="1278.5,-144 1278.5,-174 1453.5,-174 1453.5,-144 1278.5,-144"/>
<text text-anchor="start" x="1286.5" y="-162" font-family="Helvetica,sans-Serif" font-size="10.00">view.components.CommandPort.</text>
<text text-anchor="middle" x="1366" y="-151" font-family="Helvetica,sans-Serif" font-size="10.00">CommandPort</text>
</a>
</g>
</g>
<!-- Node15&#45;&gt;Node16 -->
<g id="edge15" class="edge"><title>Node15&#45;&gt;Node16</title>
<path fill="none" stroke="midnightblue" d="M1243.7,-159C1255.32,-159 1267.06,-159 1278.42,-159"/>
<polygon fill="midnightblue" stroke="midnightblue" points="1243.53,-155.5 1233.53,-159 1243.53,-162.5 1243.53,-155.5"/>
</g>
<!-- Node17 -->
<g id="node17" class="node"><title>Node17</title>
<g id="a_node17"><a xlink:href="../../db/d98/classview_1_1components_1_1_command_port.html#afcdcfbfa864e7438dc0f0a3f1c541294" target="_top" xlink:title="view.components.CommandPort.run\lCommand">
<polygon fill="white" stroke="black" points="1270.5,-95 1270.5,-125 1461.5,-125 1461.5,-95 1270.5,-95"/>
<text text-anchor="start" x="1278.5" y="-113" font-family="Helvetica,sans-Serif" font-size="10.00">view.components.CommandPort.run</text>
<text text-anchor="middle" x="1366" y="-102" font-family="Helvetica,sans-Serif" font-size="10.00">Command</text>
</a>
</g>
</g>
<!-- Node15&#45;&gt;Node17 -->
<g id="edge16" class="edge"><title>Node15&#45;&gt;Node17</title>
<path fill="none" stroke="midnightblue" d="M1218.26,-141.815C1243.54,-136.335 1271.29,-130.318 1295.79,-125.006"/>
<polygon fill="midnightblue" stroke="midnightblue" points="1217.37,-138.426 1208.34,-143.965 1218.86,-145.267 1217.37,-138.426"/>
</g>
<!-- Node20 -->
<g id="node20" class="node"><title>Node20</title>
<g id="a_node20"><a xlink:href="../../dc/d09/classparser_1_1parser_1_1_to_factory.html#a623e33082dd154838b16f7a12dcf334d" target="_top" xlink:title="parser.parser.ToFactory.createTo">
<polygon fill="white" stroke="black" points="622.5,-132.5 622.5,-151.5 791.5,-151.5 791.5,-132.5 622.5,-132.5"/>
<text text-anchor="middle" x="707" y="-139.5" font-family="Helvetica,sans-Serif" font-size="10.00">parser.parser.ToFactory.createTo</text>
</a>
</g>
</g>
<!-- Node19&#45;&gt;Node20 -->
<g id="edge20" class="edge"><title>Node19&#45;&gt;Node20</title>
<path fill="none" stroke="midnightblue" d="M576.447,-142C591.589,-142 607.26,-142 622.249,-142"/>
<polygon fill="midnightblue" stroke="midnightblue" points="576.064,-138.5 566.064,-142 576.064,-145.5 576.064,-138.5"/>
</g>
<!-- Node22 -->
<g id="node22" class="node"><title>Node22</title>
<g id="a_node22"><a xlink:href="../../da/da8/classview_1_1components_1_1_s_logo_menu_bar.html#a8e395aa3dd6b23abf4e158d4a2f19d10" target="_top" xlink:title="view.components.SLogoMenu\lBar.makePreferencesMenu">
<polygon fill="white" stroke="black" points="838,-88 838,-118 996,-118 996,-88 838,-88"/>
<text text-anchor="start" x="846" y="-106" font-family="Helvetica,sans-Serif" font-size="10.00">view.components.SLogoMenu</text>
<text text-anchor="middle" x="917" y="-95" font-family="Helvetica,sans-Serif" font-size="10.00">Bar.makePreferencesMenu</text>
</a>
</g>
</g>
<!-- Node21&#45;&gt;Node22 -->
<g id="edge22" class="edge"><title>Node21&#45;&gt;Node22</title>
<path fill="none" stroke="midnightblue" d="M591.23,-99.2148C667.274,-100.101 768.715,-101.283 837.86,-102.089"/>
<polygon fill="midnightblue" stroke="midnightblue" points="591.186,-95.7141 581.146,-99.0973 591.104,-102.714 591.186,-95.7141"/>
</g>
<!-- Node23 -->
<g id="node23" class="node"><title>Node23</title>
<g id="a_node23"><a xlink:href="../../da/da8/classview_1_1components_1_1_s_logo_menu_bar.html#afbe8434fba1476e5cbe7401c6bc158ec" target="_top" xlink:title="view.components.SLogoMenu\lBar.SLogoMenuBar">
<polygon fill="white" stroke="black" points="1059,-77 1059,-107 1217,-107 1217,-77 1059,-77"/>
<text text-anchor="start" x="1067" y="-95" font-family="Helvetica,sans-Serif" font-size="10.00">view.components.SLogoMenu</text>
<text text-anchor="middle" x="1138" y="-84" font-family="Helvetica,sans-Serif" font-size="10.00">Bar.SLogoMenuBar</text>
</a>
</g>
</g>
<!-- Node22&#45;&gt;Node23 -->
<g id="edge23" class="edge"><title>Node22&#45;&gt;Node23</title>
<path fill="none" stroke="midnightblue" d="M1006.29,-98.5655C1023.7,-97.6911 1041.85,-96.7793 1058.89,-95.9232"/>
<polygon fill="midnightblue" stroke="midnightblue" points="1005.95,-95.078 996.137,-99.0753 1006.3,-102.069 1005.95,-95.078"/>
</g>
<!-- Node25 -->
<g id="node25" class="node"><title>Node25</title>
<g id="a_node25"><a xlink:href="../../d3/dbe/classview_1_1_view.html#a59bb3de727676a9d3c1630f9e58b9614" target="_top" xlink:title="view.View.addTopBars">
<polygon fill="white" stroke="black" points="647.5,-50.5 647.5,-69.5 766.5,-69.5 766.5,-50.5 647.5,-50.5"/>
<text text-anchor="middle" x="707" y="-57.5" font-family="Helvetica,sans-Serif" font-size="10.00">view.View.addTopBars</text>
</a>
</g>
</g>
<!-- Node24&#45;&gt;Node25 -->
<g id="edge25" class="edge"><title>Node24&#45;&gt;Node25</title>
<path fill="none" stroke="midnightblue" d="M572.062,-60C597.286,-60 624.333,-60 647.472,-60"/>
<polygon fill="midnightblue" stroke="midnightblue" points="571.755,-56.5001 561.755,-60 571.755,-63.5001 571.755,-56.5001"/>
</g>
<!-- Node27 -->
<g id="node27" class="node"><title>Node27</title>
<g id="a_node27"><a xlink:href="../../d3/dbe/classview_1_1_view.html#aef53667bcfbe243d64e3416529c35f8f" target="_top" xlink:title="view.View.addNewTab">
<polygon fill="white" stroke="black" points="648.5,-12.5 648.5,-31.5 765.5,-31.5 765.5,-12.5 648.5,-12.5"/>
<text text-anchor="middle" x="707" y="-19.5" font-family="Helvetica,sans-Serif" font-size="10.00">view.View.addNewTab</text>
</a>
</g>
</g>
<!-- Node24&#45;&gt;Node27 -->
<g id="edge27" class="edge"><title>Node24&#45;&gt;Node27</title>
<path fill="none" stroke="midnightblue" d="M551.985,-48.7241C583.492,-43.2571 620.925,-36.7619 650.997,-31.5439"/>
<polygon fill="midnightblue" stroke="midnightblue" points="551.235,-45.3019 541.98,-50.46 552.431,-52.1988 551.235,-45.3019"/>
</g>
<!-- Node26 -->
<g id="node26" class="node"><title>Node26</title>
<g id="a_node26"><a xlink:href="../../d3/dbe/classview_1_1_view.html#ab8997f733f923e68829b13b7e9633bc7" target="_top" xlink:title="view.View.View">
<polygon fill="white" stroke="black" points="874.5,-49.5 874.5,-68.5 959.5,-68.5 959.5,-49.5 874.5,-49.5"/>
<text text-anchor="middle" x="917" y="-56.5" font-family="Helvetica,sans-Serif" font-size="10.00">view.View.View</text>
</a>
</g>
</g>
<!-- Node25&#45;&gt;Node26 -->
<g id="edge26" class="edge"><title>Node25&#45;&gt;Node26</title>
<path fill="none" stroke="midnightblue" d="M777.015,-59.6682C809.172,-59.5136 846.379,-59.3347 874.2,-59.201"/>
<polygon fill="midnightblue" stroke="midnightblue" points="776.753,-56.1693 766.77,-59.7174 776.787,-63.1692 776.753,-56.1693"/>
</g>
<!-- Node27&#45;&gt;Node26 -->
<g id="edge30" class="edge"><title>Node27&#45;&gt;Node26</title>
<path fill="none" stroke="midnightblue" d="M771.699,-33.3311C805.091,-39.2711 845.042,-46.3776 874.431,-51.6056"/>
<polygon fill="midnightblue" stroke="midnightblue" points="772.024,-29.8339 761.565,-31.5284 770.798,-36.7258 772.024,-29.8339"/>
</g>
<!-- Node28 -->
<g id="node28" class="node"><title>Node28</title>
<g id="a_node28"><a xlink:href="../../da/da8/classview_1_1components_1_1_s_logo_menu_bar.html#a50a896e8874b794c164559d97c531b78" target="_top" xlink:title="view.components.SLogoMenu\lBar.makeFileMenu">
<polygon fill="white" stroke="black" points="838,-0 838,-30 996,-30 996,-0 838,-0"/>
<text text-anchor="start" x="846" y="-18" font-family="Helvetica,sans-Serif" font-size="10.00">view.components.SLogoMenu</text>
<text text-anchor="middle" x="917" y="-7" font-family="Helvetica,sans-Serif" font-size="10.00">Bar.makeFileMenu</text>
</a>
</g>
</g>
<!-- Node27&#45;&gt;Node28 -->
<g id="edge28" class="edge"><title>Node27&#45;&gt;Node28</title>
<path fill="none" stroke="midnightblue" d="M775.841,-19.7169C795.688,-19.049 817.541,-18.3135 837.967,-17.6261"/>
<polygon fill="midnightblue" stroke="midnightblue" points="775.54,-16.2249 765.663,-20.0594 775.775,-23.221 775.54,-16.2249"/>
</g>
<!-- Node28&#45;&gt;Node23 -->
<g id="edge29" class="edge"><title>Node28&#45;&gt;Node23</title>
<path fill="none" stroke="midnightblue" d="M983.924,-32.9419C991.403,-35.2102 998.889,-37.5856 1006,-40 1038.9,-51.1717 1075.61,-65.9491 1101.78,-76.8948"/>
<polygon fill="midnightblue" stroke="midnightblue" points="984.709,-29.5239 974.126,-30.0272 982.713,-36.2334 984.709,-29.5239"/>
</g>
</g>
</svg>
