<?xml version="1.0" encoding="UTF-8" standalone="no"?>
<!DOCTYPE svg PUBLIC "-//W3C//DTD SVG 1.1//EN"
 "http://www.w3.org/Graphics/SVG/1.1/DTD/svg11.dtd">
<!-- Generated by graphviz version 2.36.0 (20140111.2315)
 -->
<!-- Title: parser.parser.Regex.makePatterns Pages: 1 -->
<svg width="1648pt" height="391pt"
 viewBox="0.00 0.00 1648.00 391.00" xmlns="http://www.w3.org/2000/svg" xmlns:xlink="http://www.w3.org/1999/xlink">
<g id="graph0" class="graph" transform="scale(1 1) rotate(0) translate(4 387)">
<title>parser.parser.Regex.makePatterns</title>
<polygon fill="white" stroke="none" points="-4,4 -4,-387 1644,-387 1644,4 -4,4"/>
<!-- Node1 -->
<g id="node1" class="node"><title>Node1</title>
<polygon fill="#bfbfbf" stroke="black" points="0.5,-242 0.5,-272 141.5,-272 141.5,-242 0.5,-242"/>
<text text-anchor="start" x="8.5" y="-260" font-family="Helvetica,sans-Serif" font-size="10.00">parser.parser.Regex.make</text>
<text text-anchor="middle" x="71" y="-249" font-family="Helvetica,sans-Serif" font-size="10.00">Patterns</text>
</g>
<!-- Node2 -->
<g id="node2" class="node"><title>Node2</title>
<g id="a_node2"><a xlink:href="../../de/d16/classparser_1_1parser_1_1_regex.html#a59c7e0d8366fc8c3e94d909f9fc27a14" target="_top" xlink:title="parser.parser.Regex.change\lLanguage">
<polygon fill="white" stroke="black" points="368.5,-278 368.5,-308 517.5,-308 517.5,-278 368.5,-278"/>
<text text-anchor="start" x="376.5" y="-296" font-family="Helvetica,sans-Serif" font-size="10.00">parser.parser.Regex.change</text>
<text text-anchor="middle" x="443" y="-285" font-family="Helvetica,sans-Serif" font-size="10.00">Language</text>
</a>
</g>
</g>
<!-- Node1&#45;&gt;Node2 -->
<g id="edge1" class="edge"><title>Node1&#45;&gt;Node2</title>
<path fill="none" stroke="midnightblue" d="M151.683,-264.753C215.954,-271.006 305.655,-279.734 368.281,-285.827"/>
<polygon fill="midnightblue" stroke="midnightblue" points="151.886,-261.256 141.594,-263.771 151.208,-268.223 151.886,-261.256"/>
</g>
<!-- Node11 -->
<g id="node11" class="node"><title>Node11</title>
<g id="a_node11"><a xlink:href="../../de/d16/classparser_1_1parser_1_1_regex.html#a1fd187b9f2b45d0707cb10057e80d7ff" target="_top" xlink:title="parser.parser.Regex.Regex">
<polygon fill="white" stroke="black" points="178.5,-223.5 178.5,-242.5 321.5,-242.5 321.5,-223.5 178.5,-223.5"/>
<text text-anchor="middle" x="250" y="-230.5" font-family="Helvetica,sans-Serif" font-size="10.00">parser.parser.Regex.Regex</text>
</a>
</g>
</g>
<!-- Node1&#45;&gt;Node11 -->
<g id="edge12" class="edge"><title>Node1&#45;&gt;Node11</title>
<path fill="none" stroke="midnightblue" d="M151.792,-246.181C160.793,-244.96 169.915,-243.723 178.782,-242.521"/>
<polygon fill="midnightblue" stroke="midnightblue" points="151.14,-242.737 141.701,-247.549 152.081,-249.674 151.14,-242.737"/>
</g>
<!-- Node3 -->
<g id="node3" class="node"><title>Node3</title>
<g id="a_node3"><a xlink:href="../../d3/dbe/classview_1_1_view.html#ae77f0f711bba491940c5c6c184dcff70" target="_top" xlink:title="view.View.showAndChangeLanguage">
<polygon fill="white" stroke="black" points="569,-321.5 569,-340.5 759,-340.5 759,-321.5 569,-321.5"/>
<text text-anchor="middle" x="664" y="-328.5" font-family="Helvetica,sans-Serif" font-size="10.00">view.View.showAndChangeLanguage</text>
</a>
</g>
</g>
<!-- Node2&#45;&gt;Node3 -->
<g id="edge2" class="edge"><title>Node2&#45;&gt;Node3</title>
<path fill="none" stroke="midnightblue" d="M527.721,-307.527C554.621,-312.195 583.723,-317.244 608.018,-321.46"/>
<polygon fill="midnightblue" stroke="midnightblue" points="527.984,-304.02 517.533,-305.759 526.787,-310.917 527.984,-304.02"/>
</g>
<!-- Node6 -->
<g id="node6" class="node"><title>Node6</title>
<g id="a_node6"><a xlink:href="../../d3/dbe/classview_1_1_view.html#a43a4310c3789a93e0fa6b98b0bb4f8aa" target="_top" xlink:title="view.View.tabChangeUpdate">
<polygon fill="white" stroke="black" points="588.5,-283.5 588.5,-302.5 739.5,-302.5 739.5,-283.5 588.5,-283.5"/>
<text text-anchor="middle" x="664" y="-290.5" font-family="Helvetica,sans-Serif" font-size="10.00">view.View.tabChangeUpdate</text>
</a>
</g>
</g>
<!-- Node2&#45;&gt;Node6 -->
<g id="edge5" class="edge"><title>Node2&#45;&gt;Node6</title>
<path fill="none" stroke="midnightblue" d="M527.798,-293C547.666,-293 568.729,-293 588.167,-293"/>
<polygon fill="midnightblue" stroke="midnightblue" points="527.533,-289.5 517.533,-293 527.533,-296.5 527.533,-289.5"/>
</g>
<!-- Node4 -->
<g id="node4" class="node"><title>Node4</title>
<g id="a_node4"><a xlink:href="../../da/da8/classview_1_1components_1_1_s_logo_menu_bar.html#a8e395aa3dd6b23abf4e158d4a2f19d10" target="_top" xlink:title="view.components.SLogoMenu\lBar.makePreferencesMenu">
<polygon fill="white" stroke="black" points="1016,-352 1016,-382 1174,-382 1174,-352 1016,-352"/>
<text text-anchor="start" x="1024" y="-370" font-family="Helvetica,sans-Serif" font-size="10.00">view.components.SLogoMenu</text>
<text text-anchor="middle" x="1095" y="-359" font-family="Helvetica,sans-Serif" font-size="10.00">Bar.makePreferencesMenu</text>
</a>
</g>
</g>
<!-- Node3&#45;&gt;Node4 -->
<g id="edge3" class="edge"><title>Node3&#45;&gt;Node4</title>
<path fill="none" stroke="midnightblue" d="M769.23,-339.747C845.274,-346.128 946.715,-354.64 1015.86,-360.443"/>
<polygon fill="midnightblue" stroke="midnightblue" points="769.404,-336.249 759.146,-338.9 768.818,-343.224 769.404,-336.249"/>
</g>
<!-- Node5 -->
<g id="node5" class="node"><title>Node5</title>
<g id="a_node5"><a xlink:href="../../da/da8/classview_1_1components_1_1_s_logo_menu_bar.html#afbe8434fba1476e5cbe7401c6bc158ec" target="_top" xlink:title="view.components.SLogoMenu\lBar.SLogoMenuBar">
<polygon fill="white" stroke="black" points="1237,-327 1237,-357 1395,-357 1395,-327 1237,-327"/>
<text text-anchor="start" x="1245" y="-345" font-family="Helvetica,sans-Serif" font-size="10.00">view.components.SLogoMenu</text>
<text text-anchor="middle" x="1316" y="-334" font-family="Helvetica,sans-Serif" font-size="10.00">Bar.SLogoMenuBar</text>
</a>
</g>
</g>
<!-- Node4&#45;&gt;Node5 -->
<g id="edge4" class="edge"><title>Node4&#45;&gt;Node5</title>
<path fill="none" stroke="midnightblue" d="M1184.29,-356.922C1201.7,-354.934 1219.85,-352.862 1236.89,-350.916"/>
<polygon fill="midnightblue" stroke="midnightblue" points="1183.68,-353.469 1174.14,-358.08 1184.47,-360.423 1183.68,-353.469"/>
</g>
<!-- Node7 -->
<g id="node7" class="node"><title>Node7</title>
<g id="a_node7"><a xlink:href="../../d3/dbe/classview_1_1_view.html#a59bb3de727676a9d3c1630f9e58b9614" target="_top" xlink:title="view.View.addTopBars">
<polygon fill="white" stroke="black" points="825.5,-264.5 825.5,-283.5 944.5,-283.5 944.5,-264.5 825.5,-264.5"/>
<text text-anchor="middle" x="885" y="-271.5" font-family="Helvetica,sans-Serif" font-size="10.00">view.View.addTopBars</text>
</a>
</g>
</g>
<!-- Node6&#45;&gt;Node7 -->
<g id="edge6" class="edge"><title>Node6&#45;&gt;Node7</title>
<path fill="none" stroke="midnightblue" d="M749.726,-285.649C775.046,-283.453 802.23,-281.094 825.472,-279.078"/>
<polygon fill="midnightblue" stroke="midnightblue" points="749.415,-282.163 739.755,-286.514 750.02,-289.137 749.415,-282.163"/>
</g>
<!-- Node9 -->
<g id="node9" class="node"><title>Node9</title>
<g id="a_node9"><a xlink:href="../../d3/dbe/classview_1_1_view.html#aef53667bcfbe243d64e3416529c35f8f" target="_top" xlink:title="view.View.addNewTab">
<polygon fill="white" stroke="black" points="826.5,-302.5 826.5,-321.5 943.5,-321.5 943.5,-302.5 826.5,-302.5"/>
<text text-anchor="middle" x="885" y="-309.5" font-family="Helvetica,sans-Serif" font-size="10.00">view.View.addNewTab</text>
</a>
</g>
</g>
<!-- Node6&#45;&gt;Node9 -->
<g id="edge8" class="edge"><title>Node6&#45;&gt;Node9</title>
<path fill="none" stroke="midnightblue" d="M749.815,-300.358C775.363,-302.575 802.803,-304.955 826.169,-306.983"/>
<polygon fill="midnightblue" stroke="midnightblue" points="750.02,-296.863 739.755,-299.486 749.415,-303.837 750.02,-296.863"/>
</g>
<!-- Node8 -->
<g id="node8" class="node"><title>Node8</title>
<g id="a_node8"><a xlink:href="../../d3/dbe/classview_1_1_view.html#ab8997f733f923e68829b13b7e9633bc7" target="_top" xlink:title="view.View.View">
<polygon fill="white" stroke="black" points="1052.5,-264.5 1052.5,-283.5 1137.5,-283.5 1137.5,-264.5 1052.5,-264.5"/>
<text text-anchor="middle" x="1095" y="-271.5" font-family="Helvetica,sans-Serif" font-size="10.00">view.View.View</text>
</a>
</g>
</g>
<!-- Node7&#45;&gt;Node8 -->
<g id="edge7" class="edge"><title>Node7&#45;&gt;Node8</title>
<path fill="none" stroke="midnightblue" d="M955.015,-274C987.172,-274 1024.38,-274 1052.2,-274"/>
<polygon fill="midnightblue" stroke="midnightblue" points="954.77,-270.5 944.77,-274 954.77,-277.5 954.77,-270.5"/>
</g>
<!-- Node9&#45;&gt;Node8 -->
<g id="edge11" class="edge"><title>Node9&#45;&gt;Node8</title>
<path fill="none" stroke="midnightblue" d="M948.397,-300.601C981.973,-294.466 1022.48,-287.067 1052.23,-281.631"/>
<polygon fill="midnightblue" stroke="midnightblue" points="947.427,-297.22 938.219,-302.46 948.685,-304.106 947.427,-297.22"/>
</g>
<!-- Node10 -->
<g id="node10" class="node"><title>Node10</title>
<g id="a_node10"><a xlink:href="../../da/da8/classview_1_1components_1_1_s_logo_menu_bar.html#a50a896e8874b794c164559d97c531b78" target="_top" xlink:title="view.components.SLogoMenu\lBar.makeFileMenu">
<polygon fill="white" stroke="black" points="1016,-303 1016,-333 1174,-333 1174,-303 1016,-303"/>
<text text-anchor="start" x="1024" y="-321" font-family="Helvetica,sans-Serif" font-size="10.00">view.components.SLogoMenu</text>
<text text-anchor="middle" x="1095" y="-310" font-family="Helvetica,sans-Serif" font-size="10.00">Bar.makeFileMenu</text>
</a>
</g>
</g>
<!-- Node9&#45;&gt;Node10 -->
<g id="edge9" class="edge"><title>Node9&#45;&gt;Node10</title>
<path fill="none" stroke="midnightblue" d="M953.841,-313.957C973.688,-314.529 995.541,-315.16 1015.97,-315.749"/>
<polygon fill="midnightblue" stroke="midnightblue" points="953.76,-310.453 943.663,-313.663 953.558,-317.45 953.76,-310.453"/>
</g>
<!-- Node10&#45;&gt;Node5 -->
<g id="edge10" class="edge"><title>Node10&#45;&gt;Node5</title>
<path fill="none" stroke="midnightblue" d="M1184.29,-327.675C1201.7,-329.583 1219.85,-331.573 1236.89,-333.44"/>
<polygon fill="midnightblue" stroke="midnightblue" points="1184.46,-324.173 1174.14,-326.563 1183.7,-331.132 1184.46,-324.173"/>
</g>
<!-- Node12 -->
<g id="node12" class="node"><title>Node12</title>
<g id="a_node12"><a xlink:href="../../de/d16/classparser_1_1parser_1_1_regex.html#a9da6d787de06ba7ea76d52326b532bd1" target="_top" xlink:title="parser.parser.Regex.getInstance">
<polygon fill="white" stroke="black" points="358,-201.5 358,-220.5 528,-220.5 528,-201.5 358,-201.5"/>
<text text-anchor="middle" x="443" y="-208.5" font-family="Helvetica,sans-Serif" font-size="10.00">parser.parser.Regex.getInstance</text>
</a>
</g>
</g>
<!-- Node11&#45;&gt;Node12 -->
<g id="edge13" class="edge"><title>Node11&#45;&gt;Node12</title>
<path fill="none" stroke="midnightblue" d="M331.806,-223.693C340.95,-222.639 350.278,-221.565 359.444,-220.509"/>
<polygon fill="midnightblue" stroke="midnightblue" points="331.112,-220.249 321.579,-224.871 331.914,-227.203 331.112,-220.249"/>
</g>
<!-- Node12&#45;&gt;Node3 -->
<g id="edge33" class="edge"><title>Node12&#45;&gt;Node3</title>
<path fill="none" stroke="midnightblue" d="M470.145,-226.011C487.48,-236.599 510.221,-251.745 528,-268 546.648,-285.049 542.294,-299.067 564,-312 570.465,-315.852 577.551,-318.946 584.868,-321.428"/>
<polygon fill="midnightblue" stroke="midnightblue" points="471.514,-222.751 461.136,-220.619 467.92,-228.758 471.514,-222.751"/>
</g>
<!-- Node12&#45;&gt;Node6 -->
<g id="edge34" class="edge"><title>Node12&#45;&gt;Node6</title>
<path fill="none" stroke="midnightblue" d="M469.765,-225.438C493.608,-238.315 530.347,-256.943 564,-269 580.233,-274.816 598.461,-279.683 614.81,-283.48"/>
<polygon fill="midnightblue" stroke="midnightblue" points="471.443,-222.367 460.989,-220.643 468.087,-228.509 471.443,-222.367"/>
</g>
<!-- Node13 -->
<g id="node13" class="node"><title>Node13</title>
<g id="a_node13"><a xlink:href="../../d2/d66/classparser_1_1parser_1_1_command_factory.html#a0dc44bc9972a4652d98146b5e30a5e72" target="_top" xlink:title="parser.parser.CommandFactory.create\lCommand">
<polygon fill="white" stroke="black" points="564,-196 564,-226 764,-226 764,-196 564,-196"/>
<text text-anchor="start" x="572" y="-214" font-family="Helvetica,sans-Serif" font-size="10.00">parser.parser.CommandFactory.create</text>
<text text-anchor="middle" x="664" y="-203" font-family="Helvetica,sans-Serif" font-size="10.00">Command</text>
</a>
</g>
</g>
<!-- Node12&#45;&gt;Node13 -->
<g id="edge14" class="edge"><title>Node12&#45;&gt;Node13</title>
<path fill="none" stroke="midnightblue" d="M538.28,-211C546.733,-211 555.309,-211 563.802,-211"/>
<polygon fill="midnightblue" stroke="midnightblue" points="538.045,-207.5 528.045,-211 538.045,-214.5 538.045,-207.5"/>
</g>
<!-- Node14 -->
<g id="node14" class="node"><title>Node14</title>
<g id="a_node14"><a xlink:href="../../d4/d3a/classparser_1_1parser_1_1_parser.html#a51f4baa200eb0c94b804119b1439a1aa" target="_top" xlink:title="parser.parser.Parser.parse">
<polygon fill="white" stroke="black" points="814,-210.5 814,-229.5 956,-229.5 956,-210.5 814,-210.5"/>
<text text-anchor="middle" x="885" y="-217.5" font-family="Helvetica,sans-Serif" font-size="10.00">parser.parser.Parser.parse</text>
</a>
</g>
</g>
<!-- Node12&#45;&gt;Node14 -->
<g id="edge30" class="edge"><title>Node12&#45;&gt;Node14</title>
<path fill="none" stroke="midnightblue" d="M491.833,-222.819C513.687,-227.635 539.999,-232.623 564,-235 652.456,-243.759 675.283,-240.523 764,-235 782.126,-233.872 801.703,-231.793 819.681,-229.536"/>
<polygon fill="midnightblue" stroke="midnightblue" points="492.338,-219.345 481.813,-220.555 490.795,-226.173 492.338,-219.345"/>
</g>
<!-- Node24 -->
<g id="node24" class="node"><title>Node24</title>
<g id="a_node24"><a xlink:href="../../d8/da2/classmodel_1_1_variable_factory.html#a73fd0c25fff2bd36a01fbdeadbaab5ec" target="_top" xlink:title="model.VariableFactory.create\lVariable">
<polygon fill="white" stroke="black" points="586.5,-147 586.5,-177 741.5,-177 741.5,-147 586.5,-147"/>
<text text-anchor="start" x="594.5" y="-165" font-family="Helvetica,sans-Serif" font-size="10.00">model.VariableFactory.create</text>
<text text-anchor="middle" x="664" y="-154" font-family="Helvetica,sans-Serif" font-size="10.00">Variable</text>
</a>
</g>
</g>
<!-- Node12&#45;&gt;Node24 -->
<g id="edge25" class="edge"><title>Node12&#45;&gt;Node24</title>
<path fill="none" stroke="midnightblue" d="M496.262,-199.307C526.037,-192.645 563.667,-184.225 595.641,-177.071"/>
<polygon fill="midnightblue" stroke="midnightblue" points="495.48,-195.895 486.485,-201.494 497.008,-202.726 495.48,-195.895"/>
</g>
<!-- Node27 -->
<g id="node27" class="node"><title>Node27</title>
<g id="a_node27"><a xlink:href="../../dc/d09/classparser_1_1parser_1_1_to_factory.html#aa6f21d062bb4f3ba4d708d0a5b450a4b" target="_top" xlink:title="parser.parser.ToFactory.isolate\lToDeclaration">
<polygon fill="white" stroke="black" points="584,-98 584,-128 744,-128 744,-98 584,-98"/>
<text text-anchor="start" x="592" y="-116" font-family="Helvetica,sans-Serif" font-size="10.00">parser.parser.ToFactory.isolate</text>
<text text-anchor="middle" x="664" y="-105" font-family="Helvetica,sans-Serif" font-size="10.00">ToDeclaration</text>
</a>
</g>
</g>
<!-- Node12&#45;&gt;Node27 -->
<g id="edge28" class="edge"><title>Node12&#45;&gt;Node27</title>
<path fill="none" stroke="midnightblue" d="M464.915,-195.248C488.029,-178.542 526.908,-152.473 564,-137 572.079,-133.63 580.736,-130.665 589.444,-128.076"/>
<polygon fill="midnightblue" stroke="midnightblue" points="462.578,-192.621 456.585,-201.359 466.719,-198.265 462.578,-192.621"/>
</g>
<!-- Node29 -->
<g id="node29" class="node"><title>Node29</title>
<g id="a_node29"><a xlink:href="../../d6/d00/classmodel_1_1_variables_collection.html#a435e59bf689f308d937cd7748bb466f0" target="_top" xlink:title="model.VariablesCollection.save\lState">
<polygon fill="white" stroke="black" points="581.5,-49 581.5,-79 746.5,-79 746.5,-49 581.5,-49"/>
<text text-anchor="start" x="589.5" y="-67" font-family="Helvetica,sans-Serif" font-size="10.00">model.VariablesCollection.save</text>
<text text-anchor="middle" x="664" y="-56" font-family="Helvetica,sans-Serif" font-size="10.00">State</text>
</a>
</g>
</g>
<!-- Node12&#45;&gt;Node29 -->
<g id="edge31" class="edge"><title>Node12&#45;&gt;Node29</title>
<path fill="none" stroke="midnightblue" d="M456.334,-193.017C475.901,-165.919 516.722,-114.931 564,-88 570.07,-84.5423 576.624,-81.5803 583.368,-79.0433"/>
<polygon fill="midnightblue" stroke="midnightblue" points="453.448,-191.035 450.534,-201.221 459.164,-195.076 453.448,-191.035"/>
</g>
<!-- Node30 -->
<g id="node30" class="node"><title>Node30</title>
<g id="a_node30"><a xlink:href="../../d2/d1d/classmodel_1_1_variable_string.html#a10995e85337a47efad5c2591eeda95bd" target="_top" xlink:title="model.VariableString.set\lValue">
<polygon fill="white" stroke="black" points="597,-0 597,-30 731,-30 731,-0 597,-0"/>
<text text-anchor="start" x="605" y="-18" font-family="Helvetica,sans-Serif" font-size="10.00">model.VariableString.set</text>
<text text-anchor="middle" x="664" y="-7" font-family="Helvetica,sans-Serif" font-size="10.00">Value</text>
</a>
</g>
</g>
<!-- Node12&#45;&gt;Node30 -->
<g id="edge32" class="edge"><title>Node12&#45;&gt;Node30</title>
<path fill="none" stroke="midnightblue" d="M451.697,-192.057C467.263,-156.244 506.006,-78.6535 564,-39 573.781,-32.312 585.224,-27.4809 596.788,-23.9927"/>
<polygon fill="midnightblue" stroke="midnightblue" points="448.433,-190.791 447.769,-201.365 454.882,-193.512 448.433,-190.791"/>
</g>
<!-- Node13&#45;&gt;Node14 -->
<g id="edge15" class="edge"><title>Node13&#45;&gt;Node14</title>
<path fill="none" stroke="midnightblue" d="M774.481,-215.499C787.881,-216.05 801.281,-216.601 813.879,-217.118"/>
<polygon fill="midnightblue" stroke="midnightblue" points="774.383,-211.992 764.248,-215.079 774.096,-218.986 774.383,-211.992"/>
</g>
<!-- Node15 -->
<g id="node15" class="node"><title>Node15</title>
<g id="a_node15"><a xlink:href="../../d3/d42/classmodel_1_1_model.html#a8a07e7f2040e8a2ab50ec2955504f6c4" target="_top" xlink:title="model.Model.parse">
<polygon fill="white" stroke="black" points="1041,-176.5 1041,-195.5 1149,-195.5 1149,-176.5 1041,-176.5"/>
<text text-anchor="middle" x="1095" y="-183.5" font-family="Helvetica,sans-Serif" font-size="10.00">model.Model.parse</text>
</a>
</g>
</g>
<!-- Node14&#45;&gt;Node15 -->
<g id="edge16" class="edge"><title>Node14&#45;&gt;Node15</title>
<path fill="none" stroke="midnightblue" d="M954.368,-208.824C982.457,-204.233 1014.49,-198.997 1040.78,-194.699"/>
<polygon fill="midnightblue" stroke="midnightblue" points="953.521,-205.416 944.216,-210.484 954.65,-212.325 953.521,-205.416"/>
</g>
<!-- Node23 -->
<g id="node23" class="node"><title>Node23</title>
<g id="a_node23"><a xlink:href="../../d5/dc1/classparser_1_1commands_1_1_parser_test.html#a6a3cc2c0d6ca8b502de3cad94a6ad0a5" target="_top" xlink:title="parser.commands.ParserTest.test\lParse">
<polygon fill="white" stroke="black" points="1006.5,-215 1006.5,-245 1183.5,-245 1183.5,-215 1006.5,-215"/>
<text text-anchor="start" x="1014.5" y="-233" font-family="Helvetica,sans-Serif" font-size="10.00">parser.commands.ParserTest.test</text>
<text text-anchor="middle" x="1095" y="-222" font-family="Helvetica,sans-Serif" font-size="10.00">Parse</text>
</a>
</g>
</g>
<!-- Node14&#45;&gt;Node23 -->
<g id="edge24" class="edge"><title>Node14&#45;&gt;Node23</title>
<path fill="none" stroke="midnightblue" d="M966.501,-223.87C979.594,-224.5 993.212,-225.154 1006.46,-225.792"/>
<polygon fill="midnightblue" stroke="midnightblue" points="966.286,-220.356 956.129,-223.372 965.95,-227.348 966.286,-220.356"/>
</g>
<!-- Node16 -->
<g id="node16" class="node"><title>Node16</title>
<g id="a_node16"><a xlink:href="../../d3/dbe/classview_1_1_view.html#ab8b25d25b79752feed7b786ed496f642" target="_top" xlink:title="view.View.loadLibrary">
<polygon fill="white" stroke="black" points="1258,-220.5 1258,-239.5 1374,-239.5 1374,-220.5 1258,-220.5"/>
<text text-anchor="middle" x="1316" y="-227.5" font-family="Helvetica,sans-Serif" font-size="10.00">view.View.loadLibrary</text>
</a>
</g>
</g>
<!-- Node15&#45;&gt;Node16 -->
<g id="edge17" class="edge"><title>Node15&#45;&gt;Node16</title>
<path fill="none" stroke="midnightblue" d="M1153.74,-197.6C1189.24,-204.732 1234.16,-213.758 1267.57,-220.471"/>
<polygon fill="midnightblue" stroke="midnightblue" points="1154.01,-194.086 1143.52,-195.547 1152.63,-200.949 1154.01,-194.086"/>
</g>
<!-- Node17 -->
<g id="node17" class="node"><title>Node17</title>
<g id="a_node17"><a xlink:href="../../da/df5/classview_1_1listwindows_1_1_commands_list_window.html#a3611428a65d6e7a436971f1b237e644e" target="_top" xlink:title="view.listwindows.Commands\lListWindow.parseCommand">
<polygon fill="white" stroke="black" points="1241,-171 1241,-201 1391,-201 1391,-171 1241,-171"/>
<text text-anchor="start" x="1249" y="-189" font-family="Helvetica,sans-Serif" font-size="10.00">view.listwindows.Commands</text>
<text text-anchor="middle" x="1316" y="-178" font-family="Helvetica,sans-Serif" font-size="10.00">ListWindow.parseCommand</text>
</a>
</g>
</g>
<!-- Node15&#45;&gt;Node17 -->
<g id="edge18" class="edge"><title>Node15&#45;&gt;Node17</title>
<path fill="none" stroke="midnightblue" d="M1159.31,-186C1184.83,-186 1214.45,-186 1240.96,-186"/>
<polygon fill="midnightblue" stroke="midnightblue" points="1159.01,-182.5 1149.01,-186 1159.01,-189.5 1159.01,-182.5"/>
</g>
<!-- Node20 -->
<g id="node20" class="node"><title>Node20</title>
<g id="a_node20"><a xlink:href="../../db/d98/classview_1_1components_1_1_command_port.html#a687e2098038140e833e1bac1a759b587" target="_top" xlink:title="view.components.CommandPort.run\lCommand">
<polygon fill="white" stroke="black" points="1220.5,-122 1220.5,-152 1411.5,-152 1411.5,-122 1220.5,-122"/>
<text text-anchor="start" x="1228.5" y="-140" font-family="Helvetica,sans-Serif" font-size="10.00">view.components.CommandPort.run</text>
<text text-anchor="middle" x="1316" y="-129" font-family="Helvetica,sans-Serif" font-size="10.00">Command</text>
</a>
</g>
</g>
<!-- Node15&#45;&gt;Node20 -->
<g id="edge21" class="edge"><title>Node15&#45;&gt;Node20</title>
<path fill="none" stroke="midnightblue" d="M1148.26,-174.307C1178.04,-167.645 1215.67,-159.225 1247.64,-152.071"/>
<polygon fill="midnightblue" stroke="midnightblue" points="1147.48,-170.895 1138.49,-176.494 1149.01,-177.726 1147.48,-170.895"/>
</g>
<!-- Node18 -->
<g id="node18" class="node"><title>Node18</title>
<g id="a_node18"><a xlink:href="../../df/d26/classview_1_1listwindows_1_1_commands_history_window.html#af341417d427f8b0548670f1efbb3acac" target="_top" xlink:title="view.listwindows.Commands\lHistoryWindow.setButtonAction">
<polygon fill="white" stroke="black" points="1461.5,-220 1461.5,-250 1626.5,-250 1626.5,-220 1461.5,-220"/>
<text text-anchor="start" x="1469.5" y="-238" font-family="Helvetica,sans-Serif" font-size="10.00">view.listwindows.Commands</text>
<text text-anchor="middle" x="1544" y="-227" font-family="Helvetica,sans-Serif" font-size="10.00">HistoryWindow.setButtonAction</text>
</a>
</g>
</g>
<!-- Node17&#45;&gt;Node18 -->
<g id="edge19" class="edge"><title>Node17&#45;&gt;Node18</title>
<path fill="none" stroke="midnightblue" d="M1396.26,-203.185C1421.54,-208.665 1449.29,-214.682 1473.79,-219.994"/>
<polygon fill="midnightblue" stroke="midnightblue" points="1396.86,-199.733 1386.34,-201.035 1395.37,-206.574 1396.86,-199.733"/>
</g>
<!-- Node19 -->
<g id="node19" class="node"><title>Node19</title>
<g id="a_node19"><a xlink:href="../../d7/dc7/classview_1_1listwindows_1_1_user_defined_commands_window.html#adaf32233789f6a07c42b4e459699bf53" target="_top" xlink:title="view.listwindows.UserDefined\lCommandsWindow.setButtonAction">
<polygon fill="white" stroke="black" points="1450.5,-171 1450.5,-201 1637.5,-201 1637.5,-171 1450.5,-171"/>
<text text-anchor="start" x="1458.5" y="-189" font-family="Helvetica,sans-Serif" font-size="10.00">view.listwindows.UserDefined</text>
<text text-anchor="middle" x="1544" y="-178" font-family="Helvetica,sans-Serif" font-size="10.00">CommandsWindow.setButtonAction</text>
</a>
</g>
</g>
<!-- Node17&#45;&gt;Node19 -->
<g id="edge20" class="edge"><title>Node17&#45;&gt;Node19</title>
<path fill="none" stroke="midnightblue" d="M1401.35,-186C1417.3,-186 1434.06,-186 1450.25,-186"/>
<polygon fill="midnightblue" stroke="midnightblue" points="1401,-182.5 1391,-186 1401,-189.5 1401,-182.5"/>
</g>
<!-- Node21 -->
<g id="node21" class="node"><title>Node21</title>
<g id="a_node21"><a xlink:href="../../db/d98/classview_1_1components_1_1_command_port.html#a37ae451233579691839c4a52072c94e9" target="_top" xlink:title="view.components.CommandPort.\lCommandPort">
<polygon fill="white" stroke="black" points="1456.5,-122 1456.5,-152 1631.5,-152 1631.5,-122 1456.5,-122"/>
<text text-anchor="start" x="1464.5" y="-140" font-family="Helvetica,sans-Serif" font-size="10.00">view.components.CommandPort.</text>
<text text-anchor="middle" x="1544" y="-129" font-family="Helvetica,sans-Serif" font-size="10.00">CommandPort</text>
</a>
</g>
</g>
<!-- Node20&#45;&gt;Node21 -->
<g id="edge22" class="edge"><title>Node20&#45;&gt;Node21</title>
<path fill="none" stroke="midnightblue" d="M1421.7,-137C1433.32,-137 1445.06,-137 1456.42,-137"/>
<polygon fill="midnightblue" stroke="midnightblue" points="1421.53,-133.5 1411.53,-137 1421.53,-140.5 1421.53,-133.5"/>
</g>
<!-- Node22 -->
<g id="node22" class="node"><title>Node22</title>
<g id="a_node22"><a xlink:href="../../db/d98/classview_1_1components_1_1_command_port.html#afcdcfbfa864e7438dc0f0a3f1c541294" target="_top" xlink:title="view.components.CommandPort.run\lCommand">
<polygon fill="white" stroke="black" points="1448.5,-73 1448.5,-103 1639.5,-103 1639.5,-73 1448.5,-73"/>
<text text-anchor="start" x="1456.5" y="-91" font-family="Helvetica,sans-Serif" font-size="10.00">view.components.CommandPort.run</text>
<text text-anchor="middle" x="1544" y="-80" font-family="Helvetica,sans-Serif" font-size="10.00">Command</text>
</a>
</g>
</g>
<!-- Node20&#45;&gt;Node22 -->
<g id="edge23" class="edge"><title>Node20&#45;&gt;Node22</title>
<path fill="none" stroke="midnightblue" d="M1396.26,-119.815C1421.54,-114.335 1449.29,-108.318 1473.79,-103.006"/>
<polygon fill="midnightblue" stroke="midnightblue" points="1395.37,-116.426 1386.34,-121.965 1396.86,-123.267 1395.37,-116.426"/>
</g>
<!-- Node25 -->
<g id="node25" class="node"><title>Node25</title>
<g id="a_node25"><a xlink:href="../../d6/d00/classmodel_1_1_variables_collection.html#add84dfc7ce130a9bde135a9bf1d080ff" target="_top" xlink:title="model.VariablesCollection.add\lVariable">
<polygon fill="white" stroke="black" points="804.5,-145 804.5,-175 965.5,-175 965.5,-145 804.5,-145"/>
<text text-anchor="start" x="812.5" y="-163" font-family="Helvetica,sans-Serif" font-size="10.00">model.VariablesCollection.add</text>
<text text-anchor="middle" x="885" y="-152" font-family="Helvetica,sans-Serif" font-size="10.00">Variable</text>
</a>
</g>
</g>
<!-- Node24&#45;&gt;Node25 -->
<g id="edge26" class="edge"><title>Node24&#45;&gt;Node25</title>
<path fill="none" stroke="midnightblue" d="M751.734,-161.208C769.133,-161.049 787.336,-160.883 804.476,-160.726"/>
<polygon fill="midnightblue" stroke="midnightblue" points="751.563,-157.709 741.596,-161.3 751.627,-164.709 751.563,-157.709"/>
</g>
<!-- Node26 -->
<g id="node26" class="node"><title>Node26</title>
<g id="a_node26"><a xlink:href="../../d6/d00/classmodel_1_1_variables_collection.html#a9060d5c67d836153c2e0daff3b92c297" target="_top" xlink:title="model.VariablesCollection.get\lVariableValue">
<polygon fill="white" stroke="black" points="1016,-127 1016,-157 1174,-157 1174,-127 1016,-127"/>
<text text-anchor="start" x="1024" y="-145" font-family="Helvetica,sans-Serif" font-size="10.00">model.VariablesCollection.get</text>
<text text-anchor="middle" x="1095" y="-134" font-family="Helvetica,sans-Serif" font-size="10.00">VariableValue</text>
</a>
</g>
</g>
<!-- Node25&#45;&gt;Node26 -->
<g id="edge27" class="edge"><title>Node25&#45;&gt;Node26</title>
<path fill="none" stroke="midnightblue" d="M975.683,-152.239C989.067,-151.081 1002.77,-149.895 1015.89,-148.759"/>
<polygon fill="midnightblue" stroke="midnightblue" points="975.187,-148.769 965.526,-153.118 975.791,-155.743 975.187,-148.769"/>
</g>
<!-- Node28 -->
<g id="node28" class="node"><title>Node28</title>
<g id="a_node28"><a xlink:href="../../dc/d09/classparser_1_1parser_1_1_to_factory.html#a623e33082dd154838b16f7a12dcf334d" target="_top" xlink:title="parser.parser.ToFactory.createTo">
<polygon fill="white" stroke="black" points="800.5,-103.5 800.5,-122.5 969.5,-122.5 969.5,-103.5 800.5,-103.5"/>
<text text-anchor="middle" x="885" y="-110.5" font-family="Helvetica,sans-Serif" font-size="10.00">parser.parser.ToFactory.createTo</text>
</a>
</g>
</g>
<!-- Node27&#45;&gt;Node28 -->
<g id="edge29" class="edge"><title>Node27&#45;&gt;Node28</title>
<path fill="none" stroke="midnightblue" d="M754.447,-113C769.589,-113 785.26,-113 800.249,-113"/>
<polygon fill="midnightblue" stroke="midnightblue" points="754.064,-109.5 744.064,-113 754.064,-116.5 754.064,-109.5"/>
</g>
</g>
</svg>
