<?xml version="1.0" encoding="UTF-8" standalone="no"?>
<!DOCTYPE svg PUBLIC "-//W3C//DTD SVG 1.1//EN"
 "http://www.w3.org/Graphics/SVG/1.1/DTD/svg11.dtd">
<!-- Generated by graphviz version 2.36.0 (20140111.2315)
 -->
<!-- Title: parser.parser.Regex.getType Pages: 1 -->
<svg width="378pt" height="66pt"
 viewBox="0.00 0.00 378.00 66.00" xmlns="http://www.w3.org/2000/svg" xmlns:xlink="http://www.w3.org/1999/xlink">
<g id="graph0" class="graph" transform="scale(1 1) rotate(0) translate(4 62)">
<title>parser.parser.Regex.getType</title>
<polygon fill="white" stroke="none" points="-4,4 -4,-62 374,-62 374,4 -4,4"/>
<!-- Node1 -->
<g id="node1" class="node"><title>Node1</title>
<polygon fill="#bfbfbf" stroke="black" points="0.5,-19.5 0.5,-38.5 151.5,-38.5 151.5,-19.5 0.5,-19.5"/>
<text text-anchor="middle" x="76" y="-26.5" font-family="Helvetica,sans-Serif" font-size="10.00">parser.parser.Regex.getType</text>
</g>
<!-- Node2 -->
<g id="node2" class="node"><title>Node2</title>
<g id="a_node2"><a xlink:href="../../d7/dda/enumparser_1_1parser_1_1_general_type.html#af35aa06f434667ca22f66abcc181eb30" target="_top" xlink:title="parser.parser.GeneralType.findType">
<polygon fill="white" stroke="black" points="188,-38.5 188,-57.5 370,-57.5 370,-38.5 188,-38.5"/>
<text text-anchor="middle" x="279" y="-45.5" font-family="Helvetica,sans-Serif" font-size="10.00">parser.parser.GeneralType.findType</text>
</a>
</g>
</g>
<!-- Node1&#45;&gt;Node2 -->
<g id="edge1" class="edge"><title>Node1&#45;&gt;Node2</title>
<path fill="none" stroke="midnightblue" d="M151.559,-36.0479C160.164,-36.8613 169.041,-37.7004 177.913,-38.5391"/>
<polygon fill="midnightblue" stroke="midnightblue" points="177.629,-42.0277 187.914,-39.4844 178.288,-35.0588 177.629,-42.0277"/>
</g>
<!-- Node3 -->
<g id="node3" class="node"><title>Node3</title>
<g id="a_node3"><a xlink:href="../../de/d16/classparser_1_1parser_1_1_regex.html#a162d120a60bdb10238c3d31c4f5f6903" target="_top" xlink:title="parser.parser.Regex.match">
<polygon fill="white" stroke="black" points="206.5,-0.5 206.5,-19.5 351.5,-19.5 351.5,-0.5 206.5,-0.5"/>
<text text-anchor="middle" x="279" y="-7.5" font-family="Helvetica,sans-Serif" font-size="10.00">parser.parser.Regex.match</text>
</a>
</g>
</g>
<!-- Node1&#45;&gt;Node3 -->
<g id="edge2" class="edge"><title>Node1&#45;&gt;Node3</title>
<path fill="none" stroke="midnightblue" d="M151.559,-21.9521C166.083,-20.5792 181.383,-19.1329 196.129,-17.7391"/>
<polygon fill="midnightblue" stroke="midnightblue" points="196.606,-21.2096 206.233,-16.784 195.947,-14.2407 196.606,-21.2096"/>
</g>
</g>
</svg>
