<?xml version="1.0" encoding="UTF-8" standalone="no"?>
<!DOCTYPE svg PUBLIC "-//W3C//DTD SVG 1.1//EN"
 "http://www.w3.org/Graphics/SVG/1.1/DTD/svg11.dtd">
<!-- Generated by graphviz version 2.36.0 (20140111.2315)
 -->
<!-- Title: parser.parser.Regex.getCommandType Pages: 1 -->
<svg width="1294pt" height="185pt"
 viewBox="0.00 0.00 1294.00 185.00" xmlns="http://www.w3.org/2000/svg" xmlns:xlink="http://www.w3.org/1999/xlink">
<g id="graph0" class="graph" transform="scale(1 1) rotate(0) translate(4 181)">
<title>parser.parser.Regex.getCommandType</title>
<polygon fill="white" stroke="none" points="-4,4 -4,-181 1290,-181 1290,4 -4,4"/>
<!-- Node1 -->
<g id="node1" class="node"><title>Node1</title>
<polygon fill="#bfbfbf" stroke="black" points="0.5,-81.5 0.5,-100.5 201.5,-100.5 201.5,-81.5 0.5,-81.5"/>
<text text-anchor="middle" x="101" y="-88.5" font-family="Helvetica,sans-Serif" font-size="10.00">parser.parser.Regex.getCommandType</text>
</g>
<!-- Node2 -->
<g id="node2" class="node"><title>Node2</title>
<g id="a_node2"><a xlink:href="../../d2/d66/classparser_1_1parser_1_1_command_factory.html#a0dc44bc9972a4652d98146b5e30a5e72" target="_top" xlink:title="parser.parser.CommandFactory.create\lCommand">
<polygon fill="white" stroke="black" points="238,-76 238,-106 438,-106 438,-76 238,-76"/>
<text text-anchor="start" x="246" y="-94" font-family="Helvetica,sans-Serif" font-size="10.00">parser.parser.CommandFactory.create</text>
<text text-anchor="middle" x="338" y="-83" font-family="Helvetica,sans-Serif" font-size="10.00">Command</text>
</a>
</g>
</g>
<!-- Node1&#45;&gt;Node2 -->
<g id="edge1" class="edge"><title>Node1&#45;&gt;Node2</title>
<path fill="none" stroke="midnightblue" d="M211.843,-91C220.548,-91 229.309,-91 237.935,-91"/>
<polygon fill="midnightblue" stroke="midnightblue" points="211.661,-87.5001 201.661,-91 211.661,-94.5001 211.661,-87.5001"/>
</g>
<!-- Node3 -->
<g id="node3" class="node"><title>Node3</title>
<g id="a_node3"><a xlink:href="../../d4/d3a/classparser_1_1parser_1_1_parser.html#a51f4baa200eb0c94b804119b1439a1aa" target="_top" xlink:title="parser.parser.Parser.parse">
<polygon fill="white" stroke="black" points="474,-81.5 474,-100.5 616,-100.5 616,-81.5 474,-81.5"/>
<text text-anchor="middle" x="545" y="-88.5" font-family="Helvetica,sans-Serif" font-size="10.00">parser.parser.Parser.parse</text>
</a>
</g>
</g>
<!-- Node2&#45;&gt;Node3 -->
<g id="edge2" class="edge"><title>Node2&#45;&gt;Node3</title>
<path fill="none" stroke="midnightblue" d="M448.372,-91C457.027,-91 465.616,-91 473.891,-91"/>
<polygon fill="midnightblue" stroke="midnightblue" points="448.197,-87.5001 438.197,-91 448.197,-94.5001 448.197,-87.5001"/>
</g>
<!-- Node4 -->
<g id="node4" class="node"><title>Node4</title>
<g id="a_node4"><a xlink:href="../../d3/d42/classmodel_1_1_model.html#a8a07e7f2040e8a2ab50ec2955504f6c4" target="_top" xlink:title="model.Model.parse">
<polygon fill="white" stroke="black" points="687,-103.5 687,-122.5 795,-122.5 795,-103.5 687,-103.5"/>
<text text-anchor="middle" x="741" y="-110.5" font-family="Helvetica,sans-Serif" font-size="10.00">model.Model.parse</text>
</a>
</g>
</g>
<!-- Node3&#45;&gt;Node4 -->
<g id="edge3" class="edge"><title>Node3&#45;&gt;Node4</title>
<path fill="none" stroke="midnightblue" d="M626,-100.072C646.498,-102.397 668.041,-104.84 686.812,-106.968"/>
<polygon fill="midnightblue" stroke="midnightblue" points="626.369,-96.5917 616.038,-98.9425 625.58,-103.547 626.369,-96.5917"/>
</g>
<!-- Node12 -->
<g id="node12" class="node"><title>Node12</title>
<g id="a_node12"><a xlink:href="../../d5/dc1/classparser_1_1commands_1_1_parser_test.html#a6a3cc2c0d6ca8b502de3cad94a6ad0a5" target="_top" xlink:title="parser.commands.ParserTest.test\lParse">
<polygon fill="white" stroke="black" points="652.5,-54 652.5,-84 829.5,-84 829.5,-54 652.5,-54"/>
<text text-anchor="start" x="660.5" y="-72" font-family="Helvetica,sans-Serif" font-size="10.00">parser.commands.ParserTest.test</text>
<text text-anchor="middle" x="741" y="-61" font-family="Helvetica,sans-Serif" font-size="10.00">Parse</text>
</a>
</g>
</g>
<!-- Node3&#45;&gt;Node12 -->
<g id="edge11" class="edge"><title>Node3&#45;&gt;Node12</title>
<path fill="none" stroke="midnightblue" d="M626.141,-81.9119C634.834,-80.9261 643.714,-79.9191 652.489,-78.924"/>
<polygon fill="midnightblue" stroke="midnightblue" points="625.58,-78.4529 616.038,-83.0575 626.369,-85.4083 625.58,-78.4529"/>
</g>
<!-- Node5 -->
<g id="node5" class="node"><title>Node5</title>
<g id="a_node5"><a xlink:href="../../d3/dbe/classview_1_1_view.html#ab8b25d25b79752feed7b786ed496f642" target="_top" xlink:title="view.View.loadLibrary">
<polygon fill="white" stroke="black" points="904,-147.5 904,-166.5 1020,-166.5 1020,-147.5 904,-147.5"/>
<text text-anchor="middle" x="962" y="-154.5" font-family="Helvetica,sans-Serif" font-size="10.00">view.View.loadLibrary</text>
</a>
</g>
</g>
<!-- Node4&#45;&gt;Node5 -->
<g id="edge4" class="edge"><title>Node4&#45;&gt;Node5</title>
<path fill="none" stroke="midnightblue" d="M799.736,-124.6C835.235,-131.732 880.161,-140.758 913.573,-147.471"/>
<polygon fill="midnightblue" stroke="midnightblue" points="800.013,-121.086 789.52,-122.547 798.634,-127.949 800.013,-121.086"/>
</g>
<!-- Node6 -->
<g id="node6" class="node"><title>Node6</title>
<g id="a_node6"><a xlink:href="../../da/df5/classview_1_1listwindows_1_1_commands_list_window.html#a3611428a65d6e7a436971f1b237e644e" target="_top" xlink:title="view.listwindows.Commands\lListWindow.parseCommand">
<polygon fill="white" stroke="black" points="887,-98 887,-128 1037,-128 1037,-98 887,-98"/>
<text text-anchor="start" x="895" y="-116" font-family="Helvetica,sans-Serif" font-size="10.00">view.listwindows.Commands</text>
<text text-anchor="middle" x="962" y="-105" font-family="Helvetica,sans-Serif" font-size="10.00">ListWindow.parseCommand</text>
</a>
</g>
</g>
<!-- Node4&#45;&gt;Node6 -->
<g id="edge5" class="edge"><title>Node4&#45;&gt;Node6</title>
<path fill="none" stroke="midnightblue" d="M805.31,-113C830.831,-113 860.451,-113 886.962,-113"/>
<polygon fill="midnightblue" stroke="midnightblue" points="805.014,-109.5 795.014,-113 805.014,-116.5 805.014,-109.5"/>
</g>
<!-- Node9 -->
<g id="node9" class="node"><title>Node9</title>
<g id="a_node9"><a xlink:href="../../db/d98/classview_1_1components_1_1_command_port.html#a687e2098038140e833e1bac1a759b587" target="_top" xlink:title="view.components.CommandPort.run\lCommand">
<polygon fill="white" stroke="black" points="866.5,-49 866.5,-79 1057.5,-79 1057.5,-49 866.5,-49"/>
<text text-anchor="start" x="874.5" y="-67" font-family="Helvetica,sans-Serif" font-size="10.00">view.components.CommandPort.run</text>
<text text-anchor="middle" x="962" y="-56" font-family="Helvetica,sans-Serif" font-size="10.00">Command</text>
</a>
</g>
</g>
<!-- Node4&#45;&gt;Node9 -->
<g id="edge8" class="edge"><title>Node4&#45;&gt;Node9</title>
<path fill="none" stroke="midnightblue" d="M794.262,-101.307C824.037,-94.6446 861.667,-86.2251 893.641,-79.0713"/>
<polygon fill="midnightblue" stroke="midnightblue" points="793.48,-97.8951 784.485,-103.494 795.008,-104.726 793.48,-97.8951"/>
</g>
<!-- Node7 -->
<g id="node7" class="node"><title>Node7</title>
<g id="a_node7"><a xlink:href="../../df/d26/classview_1_1listwindows_1_1_commands_history_window.html#af341417d427f8b0548670f1efbb3acac" target="_top" xlink:title="view.listwindows.Commands\lHistoryWindow.setButtonAction">
<polygon fill="white" stroke="black" points="1107.5,-147 1107.5,-177 1272.5,-177 1272.5,-147 1107.5,-147"/>
<text text-anchor="start" x="1115.5" y="-165" font-family="Helvetica,sans-Serif" font-size="10.00">view.listwindows.Commands</text>
<text text-anchor="middle" x="1190" y="-154" font-family="Helvetica,sans-Serif" font-size="10.00">HistoryWindow.setButtonAction</text>
</a>
</g>
</g>
<!-- Node6&#45;&gt;Node7 -->
<g id="edge6" class="edge"><title>Node6&#45;&gt;Node7</title>
<path fill="none" stroke="midnightblue" d="M1042.26,-130.185C1067.54,-135.665 1095.29,-141.682 1119.79,-146.994"/>
<polygon fill="midnightblue" stroke="midnightblue" points="1042.86,-126.733 1032.34,-128.035 1041.37,-133.574 1042.86,-126.733"/>
</g>
<!-- Node8 -->
<g id="node8" class="node"><title>Node8</title>
<g id="a_node8"><a xlink:href="../../d7/dc7/classview_1_1listwindows_1_1_user_defined_commands_window.html#adaf32233789f6a07c42b4e459699bf53" target="_top" xlink:title="view.listwindows.UserDefined\lCommandsWindow.setButtonAction">
<polygon fill="white" stroke="black" points="1096.5,-98 1096.5,-128 1283.5,-128 1283.5,-98 1096.5,-98"/>
<text text-anchor="start" x="1104.5" y="-116" font-family="Helvetica,sans-Serif" font-size="10.00">view.listwindows.UserDefined</text>
<text text-anchor="middle" x="1190" y="-105" font-family="Helvetica,sans-Serif" font-size="10.00">CommandsWindow.setButtonAction</text>
</a>
</g>
</g>
<!-- Node6&#45;&gt;Node8 -->
<g id="edge7" class="edge"><title>Node6&#45;&gt;Node8</title>
<path fill="none" stroke="midnightblue" d="M1047.35,-113C1063.3,-113 1080.06,-113 1096.25,-113"/>
<polygon fill="midnightblue" stroke="midnightblue" points="1047,-109.5 1037,-113 1047,-116.5 1047,-109.5"/>
</g>
<!-- Node10 -->
<g id="node10" class="node"><title>Node10</title>
<g id="a_node10"><a xlink:href="../../db/d98/classview_1_1components_1_1_command_port.html#a37ae451233579691839c4a52072c94e9" target="_top" xlink:title="view.components.CommandPort.\lCommandPort">
<polygon fill="white" stroke="black" points="1102.5,-49 1102.5,-79 1277.5,-79 1277.5,-49 1102.5,-49"/>
<text text-anchor="start" x="1110.5" y="-67" font-family="Helvetica,sans-Serif" font-size="10.00">view.components.CommandPort.</text>
<text text-anchor="middle" x="1190" y="-56" font-family="Helvetica,sans-Serif" font-size="10.00">CommandPort</text>
</a>
</g>
</g>
<!-- Node9&#45;&gt;Node10 -->
<g id="edge9" class="edge"><title>Node9&#45;&gt;Node10</title>
<path fill="none" stroke="midnightblue" d="M1067.7,-64C1079.32,-64 1091.06,-64 1102.42,-64"/>
<polygon fill="midnightblue" stroke="midnightblue" points="1067.53,-60.5001 1057.53,-64 1067.53,-67.5001 1067.53,-60.5001"/>
</g>
<!-- Node11 -->
<g id="node11" class="node"><title>Node11</title>
<g id="a_node11"><a xlink:href="../../db/d98/classview_1_1components_1_1_command_port.html#afcdcfbfa864e7438dc0f0a3f1c541294" target="_top" xlink:title="view.components.CommandPort.run\lCommand">
<polygon fill="white" stroke="black" points="1094.5,-0 1094.5,-30 1285.5,-30 1285.5,-0 1094.5,-0"/>
<text text-anchor="start" x="1102.5" y="-18" font-family="Helvetica,sans-Serif" font-size="10.00">view.components.CommandPort.run</text>
<text text-anchor="middle" x="1190" y="-7" font-family="Helvetica,sans-Serif" font-size="10.00">Command</text>
</a>
</g>
</g>
<!-- Node9&#45;&gt;Node11 -->
<g id="edge10" class="edge"><title>Node9&#45;&gt;Node11</title>
<path fill="none" stroke="midnightblue" d="M1042.26,-46.8146C1067.54,-41.3353 1095.29,-35.3185 1119.79,-30.0062"/>
<polygon fill="midnightblue" stroke="midnightblue" points="1041.37,-43.4259 1032.34,-48.9654 1042.86,-50.2669 1041.37,-43.4259"/>
</g>
</g>
</svg>
