<?xml version="1.0" encoding="UTF-8" standalone="no"?>
<!DOCTYPE svg PUBLIC "-//W3C//DTD SVG 1.1//EN"
 "http://www.w3.org/Graphics/SVG/1.1/DTD/svg11.dtd">
<!-- Generated by graphviz version 2.36.0 (20140111.2315)
 -->
<!-- Title: parser.parser.Regex.getType Pages: 1 -->
<svg width="1026pt" height="228pt"
 viewBox="0.00 0.00 1026.00 228.00" xmlns="http://www.w3.org/2000/svg" xmlns:xlink="http://www.w3.org/1999/xlink">
<g id="graph0" class="graph" transform="scale(1 1) rotate(0) translate(4 224)">
<title>parser.parser.Regex.getType</title>
<polygon fill="white" stroke="none" points="-4,4 -4,-224 1022,-224 1022,4 -4,4"/>
<!-- Node1 -->
<g id="node1" class="node"><title>Node1</title>
<polygon fill="#bfbfbf" stroke="black" points="0.5,-124.5 0.5,-143.5 151.5,-143.5 151.5,-124.5 0.5,-124.5"/>
<text text-anchor="middle" x="76" y="-131.5" font-family="Helvetica,sans-Serif" font-size="10.00">parser.parser.Regex.getType</text>
</g>
<!-- Node2 -->
<g id="node2" class="node"><title>Node2</title>
<g id="a_node2"><a xlink:href="../../d8/da2/classmodel_1_1_variable_factory.html#a73fd0c25fff2bd36a01fbdeadbaab5ec" target="_top" xlink:title="model.VariableFactory.create\lVariable">
<polygon fill="white" stroke="black" points="190.5,-190 190.5,-220 345.5,-220 345.5,-190 190.5,-190"/>
<text text-anchor="start" x="198.5" y="-208" font-family="Helvetica,sans-Serif" font-size="10.00">model.VariableFactory.create</text>
<text text-anchor="middle" x="268" y="-197" font-family="Helvetica,sans-Serif" font-size="10.00">Variable</text>
</a>
</g>
</g>
<!-- Node1&#45;&gt;Node2 -->
<g id="edge1" class="edge"><title>Node1&#45;&gt;Node2</title>
<path fill="none" stroke="midnightblue" d="M107.701,-147.562C129.831,-157.13 160.515,-169.977 188,-180 197.325,-183.401 207.363,-186.784 217.051,-189.913"/>
<polygon fill="midnightblue" stroke="midnightblue" points="109.043,-144.329 98.4774,-143.549 106.251,-150.748 109.043,-144.329"/>
</g>
<!-- Node5 -->
<g id="node5" class="node"><title>Node5</title>
<g id="a_node5"><a xlink:href="../../dc/d09/classparser_1_1parser_1_1_to_factory.html#aa6f21d062bb4f3ba4d708d0a5b450a4b" target="_top" xlink:title="parser.parser.ToFactory.isolate\lToDeclaration">
<polygon fill="white" stroke="black" points="188,-141 188,-171 348,-171 348,-141 188,-141"/>
<text text-anchor="start" x="196" y="-159" font-family="Helvetica,sans-Serif" font-size="10.00">parser.parser.ToFactory.isolate</text>
<text text-anchor="middle" x="268" y="-148" font-family="Helvetica,sans-Serif" font-size="10.00">ToDeclaration</text>
</a>
</g>
</g>
<!-- Node1&#45;&gt;Node5 -->
<g id="edge4" class="edge"><title>Node1&#45;&gt;Node5</title>
<path fill="none" stroke="midnightblue" d="M161.725,-143.81C170.456,-144.821 179.304,-145.846 187.969,-146.849"/>
<polygon fill="midnightblue" stroke="midnightblue" points="161.884,-140.305 151.548,-142.632 161.079,-147.259 161.884,-140.305"/>
</g>
<!-- Node7 -->
<g id="node7" class="node"><title>Node7</title>
<g id="a_node7"><a xlink:href="../../d4/d3a/classparser_1_1parser_1_1_parser.html#a51f4baa200eb0c94b804119b1439a1aa" target="_top" xlink:title="parser.parser.Parser.parse">
<polygon fill="white" stroke="black" points="197,-102.5 197,-121.5 339,-121.5 339,-102.5 197,-102.5"/>
<text text-anchor="middle" x="268" y="-109.5" font-family="Helvetica,sans-Serif" font-size="10.00">parser.parser.Parser.parse</text>
</a>
</g>
</g>
<!-- Node1&#45;&gt;Node7 -->
<g id="edge6" class="edge"><title>Node1&#45;&gt;Node7</title>
<path fill="none" stroke="midnightblue" d="M161.743,-124.188C173.425,-122.835 185.318,-121.458 196.701,-120.14"/>
<polygon fill="midnightblue" stroke="midnightblue" points="161.079,-120.741 151.548,-125.368 161.884,-127.695 161.079,-120.741"/>
</g>
<!-- Node17 -->
<g id="node17" class="node"><title>Node17</title>
<g id="a_node17"><a xlink:href="../../d2/d1d/classmodel_1_1_variable_string.html#a10995e85337a47efad5c2591eeda95bd" target="_top" xlink:title="model.VariableString.set\lValue">
<polygon fill="white" stroke="black" points="201,-53 201,-83 335,-83 335,-53 201,-53"/>
<text text-anchor="start" x="209" y="-71" font-family="Helvetica,sans-Serif" font-size="10.00">model.VariableString.set</text>
<text text-anchor="middle" x="268" y="-60" font-family="Helvetica,sans-Serif" font-size="10.00">Value</text>
</a>
</g>
</g>
<!-- Node1&#45;&gt;Node17 -->
<g id="edge16" class="edge"><title>Node1&#45;&gt;Node17</title>
<path fill="none" stroke="midnightblue" d="M111.507,-120.775C133.342,-112.527 162.215,-101.836 188,-93 197.662,-89.6888 208.042,-86.2913 217.997,-83.11"/>
<polygon fill="midnightblue" stroke="midnightblue" points="110.116,-117.56 102.007,-124.378 112.598,-124.105 110.116,-117.56"/>
</g>
<!-- Node3 -->
<g id="node3" class="node"><title>Node3</title>
<g id="a_node3"><a xlink:href="../../d6/d00/classmodel_1_1_variables_collection.html#add84dfc7ce130a9bde135a9bf1d080ff" target="_top" xlink:title="model.VariablesCollection.add\lVariable">
<polygon fill="white" stroke="black" points="392.5,-190 392.5,-220 553.5,-220 553.5,-190 392.5,-190"/>
<text text-anchor="start" x="400.5" y="-208" font-family="Helvetica,sans-Serif" font-size="10.00">model.VariablesCollection.add</text>
<text text-anchor="middle" x="473" y="-197" font-family="Helvetica,sans-Serif" font-size="10.00">Variable</text>
</a>
</g>
</g>
<!-- Node2&#45;&gt;Node3 -->
<g id="edge2" class="edge"><title>Node2&#45;&gt;Node3</title>
<path fill="none" stroke="midnightblue" d="M355.865,-205C368.01,-205 380.441,-205 392.443,-205"/>
<polygon fill="midnightblue" stroke="midnightblue" points="355.746,-201.5 345.746,-205 355.746,-208.5 355.746,-201.5"/>
</g>
<!-- Node4 -->
<g id="node4" class="node"><title>Node4</title>
<g id="a_node4"><a xlink:href="../../d6/d00/classmodel_1_1_variables_collection.html#a9060d5c67d836153c2e0daff3b92c297" target="_top" xlink:title="model.VariablesCollection.get\lVariableValue">
<polygon fill="white" stroke="black" points="615,-190 615,-220 773,-220 773,-190 615,-190"/>
<text text-anchor="start" x="623" y="-208" font-family="Helvetica,sans-Serif" font-size="10.00">model.VariablesCollection.get</text>
<text text-anchor="middle" x="694" y="-197" font-family="Helvetica,sans-Serif" font-size="10.00">VariableValue</text>
</a>
</g>
</g>
<!-- Node3&#45;&gt;Node4 -->
<g id="edge3" class="edge"><title>Node3&#45;&gt;Node4</title>
<path fill="none" stroke="midnightblue" d="M564.074,-205C580.917,-205 598.394,-205 614.841,-205"/>
<polygon fill="midnightblue" stroke="midnightblue" points="563.684,-201.5 553.684,-205 563.684,-208.5 563.684,-201.5"/>
</g>
<!-- Node6 -->
<g id="node6" class="node"><title>Node6</title>
<g id="a_node6"><a xlink:href="../../dc/d09/classparser_1_1parser_1_1_to_factory.html#a623e33082dd154838b16f7a12dcf334d" target="_top" xlink:title="parser.parser.ToFactory.createTo">
<polygon fill="white" stroke="black" points="388.5,-146.5 388.5,-165.5 557.5,-165.5 557.5,-146.5 388.5,-146.5"/>
<text text-anchor="middle" x="473" y="-153.5" font-family="Helvetica,sans-Serif" font-size="10.00">parser.parser.ToFactory.createTo</text>
</a>
</g>
</g>
<!-- Node5&#45;&gt;Node6 -->
<g id="edge5" class="edge"><title>Node5&#45;&gt;Node6</title>
<path fill="none" stroke="midnightblue" d="M358.088,-156C368.18,-156 378.438,-156 388.455,-156"/>
<polygon fill="midnightblue" stroke="midnightblue" points="358.066,-152.5 348.066,-156 358.066,-159.5 358.066,-152.5"/>
</g>
<!-- Node8 -->
<g id="node8" class="node"><title>Node8</title>
<g id="a_node8"><a xlink:href="../../d3/d42/classmodel_1_1_model.html#a8a07e7f2040e8a2ab50ec2955504f6c4" target="_top" xlink:title="model.Model.parse">
<polygon fill="white" stroke="black" points="419,-104.5 419,-123.5 527,-123.5 527,-104.5 419,-104.5"/>
<text text-anchor="middle" x="473" y="-111.5" font-family="Helvetica,sans-Serif" font-size="10.00">model.Model.parse</text>
</a>
</g>
</g>
<!-- Node7&#45;&gt;Node8 -->
<g id="edge7" class="edge"><title>Node7&#45;&gt;Node8</title>
<path fill="none" stroke="midnightblue" d="M349.386,-112.792C372.723,-113.022 397.618,-113.267 418.836,-113.476"/>
<polygon fill="midnightblue" stroke="midnightblue" points="349.179,-109.29 339.145,-112.691 349.11,-116.29 349.179,-109.29"/>
</g>
<!-- Node16 -->
<g id="node16" class="node"><title>Node16</title>
<g id="a_node16"><a xlink:href="../../d5/dc1/classparser_1_1commands_1_1_parser_test.html#a6a3cc2c0d6ca8b502de3cad94a6ad0a5" target="_top" xlink:title="parser.commands.ParserTest.test\lParse">
<polygon fill="white" stroke="black" points="384.5,-55 384.5,-85 561.5,-85 561.5,-55 384.5,-55"/>
<text text-anchor="start" x="392.5" y="-73" font-family="Helvetica,sans-Serif" font-size="10.00">parser.commands.ParserTest.test</text>
<text text-anchor="middle" x="473" y="-62" font-family="Helvetica,sans-Serif" font-size="10.00">Parse</text>
</a>
</g>
</g>
<!-- Node7&#45;&gt;Node16 -->
<g id="edge15" class="edge"><title>Node7&#45;&gt;Node16</title>
<path fill="none" stroke="midnightblue" d="M324.999,-100.414C348.008,-95.6535 374.951,-90.0792 399.44,-85.0124"/>
<polygon fill="midnightblue" stroke="midnightblue" points="324.147,-97.016 315.064,-102.47 325.566,-103.871 324.147,-97.016"/>
</g>
<!-- Node9 -->
<g id="node9" class="node"><title>Node9</title>
<g id="a_node9"><a xlink:href="../../d3/dbe/classview_1_1_view.html#ab8b25d25b79752feed7b786ed496f642" target="_top" xlink:title="view.View.loadLibrary">
<polygon fill="white" stroke="black" points="636,-148.5 636,-167.5 752,-167.5 752,-148.5 636,-148.5"/>
<text text-anchor="middle" x="694" y="-155.5" font-family="Helvetica,sans-Serif" font-size="10.00">view.View.loadLibrary</text>
</a>
</g>
</g>
<!-- Node8&#45;&gt;Node9 -->
<g id="edge8" class="edge"><title>Node8&#45;&gt;Node9</title>
<path fill="none" stroke="midnightblue" d="M531.736,-125.6C567.235,-132.732 612.161,-141.758 645.573,-148.471"/>
<polygon fill="midnightblue" stroke="midnightblue" points="532.013,-122.086 521.52,-123.547 530.634,-128.949 532.013,-122.086"/>
</g>
<!-- Node10 -->
<g id="node10" class="node"><title>Node10</title>
<g id="a_node10"><a xlink:href="../../da/df5/classview_1_1listwindows_1_1_commands_list_window.html#a3611428a65d6e7a436971f1b237e644e" target="_top" xlink:title="view.listwindows.Commands\lListWindow.parseCommand">
<polygon fill="white" stroke="black" points="619,-99 619,-129 769,-129 769,-99 619,-99"/>
<text text-anchor="start" x="627" y="-117" font-family="Helvetica,sans-Serif" font-size="10.00">view.listwindows.Commands</text>
<text text-anchor="middle" x="694" y="-106" font-family="Helvetica,sans-Serif" font-size="10.00">ListWindow.parseCommand</text>
</a>
</g>
</g>
<!-- Node8&#45;&gt;Node10 -->
<g id="edge9" class="edge"><title>Node8&#45;&gt;Node10</title>
<path fill="none" stroke="midnightblue" d="M537.31,-114C562.831,-114 592.451,-114 618.962,-114"/>
<polygon fill="midnightblue" stroke="midnightblue" points="537.014,-110.5 527.014,-114 537.014,-117.5 537.014,-110.5"/>
</g>
<!-- Node13 -->
<g id="node13" class="node"><title>Node13</title>
<g id="a_node13"><a xlink:href="../../db/d98/classview_1_1components_1_1_command_port.html#a687e2098038140e833e1bac1a759b587" target="_top" xlink:title="view.components.CommandPort.run\lCommand">
<polygon fill="white" stroke="black" points="598.5,-50 598.5,-80 789.5,-80 789.5,-50 598.5,-50"/>
<text text-anchor="start" x="606.5" y="-68" font-family="Helvetica,sans-Serif" font-size="10.00">view.components.CommandPort.run</text>
<text text-anchor="middle" x="694" y="-57" font-family="Helvetica,sans-Serif" font-size="10.00">Command</text>
</a>
</g>
</g>
<!-- Node8&#45;&gt;Node13 -->
<g id="edge12" class="edge"><title>Node8&#45;&gt;Node13</title>
<path fill="none" stroke="midnightblue" d="M526.262,-102.307C556.037,-95.6446 593.667,-87.2251 625.641,-80.0713"/>
<polygon fill="midnightblue" stroke="midnightblue" points="525.48,-98.8951 516.485,-104.494 527.008,-105.726 525.48,-98.8951"/>
</g>
<!-- Node11 -->
<g id="node11" class="node"><title>Node11</title>
<g id="a_node11"><a xlink:href="../../df/d26/classview_1_1listwindows_1_1_commands_history_window.html#af341417d427f8b0548670f1efbb3acac" target="_top" xlink:title="view.listwindows.Commands\lHistoryWindow.setButtonAction">
<polygon fill="white" stroke="black" points="839.5,-148 839.5,-178 1004.5,-178 1004.5,-148 839.5,-148"/>
<text text-anchor="start" x="847.5" y="-166" font-family="Helvetica,sans-Serif" font-size="10.00">view.listwindows.Commands</text>
<text text-anchor="middle" x="922" y="-155" font-family="Helvetica,sans-Serif" font-size="10.00">HistoryWindow.setButtonAction</text>
</a>
</g>
</g>
<!-- Node10&#45;&gt;Node11 -->
<g id="edge10" class="edge"><title>Node10&#45;&gt;Node11</title>
<path fill="none" stroke="midnightblue" d="M774.263,-131.185C799.535,-136.665 827.286,-142.682 851.788,-147.994"/>
<polygon fill="midnightblue" stroke="midnightblue" points="774.858,-127.733 764.343,-129.035 773.375,-134.574 774.858,-127.733"/>
</g>
<!-- Node12 -->
<g id="node12" class="node"><title>Node12</title>
<g id="a_node12"><a xlink:href="../../d7/dc7/classview_1_1listwindows_1_1_user_defined_commands_window.html#adaf32233789f6a07c42b4e459699bf53" target="_top" xlink:title="view.listwindows.UserDefined\lCommandsWindow.setButtonAction">
<polygon fill="white" stroke="black" points="828.5,-99 828.5,-129 1015.5,-129 1015.5,-99 828.5,-99"/>
<text text-anchor="start" x="836.5" y="-117" font-family="Helvetica,sans-Serif" font-size="10.00">view.listwindows.UserDefined</text>
<text text-anchor="middle" x="922" y="-106" font-family="Helvetica,sans-Serif" font-size="10.00">CommandsWindow.setButtonAction</text>
</a>
</g>
</g>
<!-- Node10&#45;&gt;Node12 -->
<g id="edge11" class="edge"><title>Node10&#45;&gt;Node12</title>
<path fill="none" stroke="midnightblue" d="M779.348,-114C795.295,-114 812.058,-114 828.247,-114"/>
<polygon fill="midnightblue" stroke="midnightblue" points="779.001,-110.5 769.001,-114 779.001,-117.5 779.001,-110.5"/>
</g>
<!-- Node14 -->
<g id="node14" class="node"><title>Node14</title>
<g id="a_node14"><a xlink:href="../../db/d98/classview_1_1components_1_1_command_port.html#a37ae451233579691839c4a52072c94e9" target="_top" xlink:title="view.components.CommandPort.\lCommandPort">
<polygon fill="white" stroke="black" points="834.5,-50 834.5,-80 1009.5,-80 1009.5,-50 834.5,-50"/>
<text text-anchor="start" x="842.5" y="-68" font-family="Helvetica,sans-Serif" font-size="10.00">view.components.CommandPort.</text>
<text text-anchor="middle" x="922" y="-57" font-family="Helvetica,sans-Serif" font-size="10.00">CommandPort</text>
</a>
</g>
</g>
<!-- Node13&#45;&gt;Node14 -->
<g id="edge13" class="edge"><title>Node13&#45;&gt;Node14</title>
<path fill="none" stroke="midnightblue" d="M799.702,-65C811.321,-65 823.056,-65 834.415,-65"/>
<polygon fill="midnightblue" stroke="midnightblue" points="799.535,-61.5001 789.535,-65 799.535,-68.5001 799.535,-61.5001"/>
</g>
<!-- Node15 -->
<g id="node15" class="node"><title>Node15</title>
<g id="a_node15"><a xlink:href="../../db/d98/classview_1_1components_1_1_command_port.html#afcdcfbfa864e7438dc0f0a3f1c541294" target="_top" xlink:title="view.components.CommandPort.run\lCommand">
<polygon fill="white" stroke="black" points="826.5,-1 826.5,-31 1017.5,-31 1017.5,-1 826.5,-1"/>
<text text-anchor="start" x="834.5" y="-19" font-family="Helvetica,sans-Serif" font-size="10.00">view.components.CommandPort.run</text>
<text text-anchor="middle" x="922" y="-8" font-family="Helvetica,sans-Serif" font-size="10.00">Command</text>
</a>
</g>
</g>
<!-- Node13&#45;&gt;Node15 -->
<g id="edge14" class="edge"><title>Node13&#45;&gt;Node15</title>
<path fill="none" stroke="midnightblue" d="M774.263,-47.8146C799.535,-42.3353 827.286,-36.3185 851.788,-31.0062"/>
<polygon fill="midnightblue" stroke="midnightblue" points="773.375,-44.4259 764.343,-49.9654 774.858,-51.2669 773.375,-44.4259"/>
</g>
</g>
</svg>
