<?xml version="1.0" encoding="UTF-8" standalone="no"?>
<!DOCTYPE svg PUBLIC "-//W3C//DTD SVG 1.1//EN"
 "http://www.w3.org/Graphics/SVG/1.1/DTD/svg11.dtd">
<!-- Generated by graphviz version 2.36.0 (20140111.2315)
 -->
<!-- Title: parser.parser.Regex.changeLanguage Pages: 1 -->
<svg width="928pt" height="126pt"
 viewBox="0.00 0.00 928.00 126.00" xmlns="http://www.w3.org/2000/svg" xmlns:xlink="http://www.w3.org/1999/xlink">
<g id="graph0" class="graph" transform="scale(1 1) rotate(0) translate(4 122)">
<title>parser.parser.Regex.changeLanguage</title>
<polygon fill="white" stroke="none" points="-4,4 -4,-122 924,-122 924,4 -4,4"/>
<!-- Node1 -->
<g id="node1" class="node"><title>Node1</title>
<polygon fill="#bfbfbf" stroke="black" points="0.5,-64 0.5,-94 149.5,-94 149.5,-64 0.5,-64"/>
<text text-anchor="start" x="8.5" y="-82" font-family="Helvetica,sans-Serif" font-size="10.00">parser.parser.Regex.change</text>
<text text-anchor="middle" x="75" y="-71" font-family="Helvetica,sans-Serif" font-size="10.00">Language</text>
</g>
<!-- Node2 -->
<g id="node2" class="node"><title>Node2</title>
<g id="a_node2"><a xlink:href="../../d3/dbe/classview_1_1_view.html#ae77f0f711bba491940c5c6c184dcff70" target="_top" xlink:title="view.View.showAndChangeLanguage">
<polygon fill="white" stroke="black" points="186,-89.5 186,-108.5 376,-108.5 376,-89.5 186,-89.5"/>
<text text-anchor="middle" x="281" y="-96.5" font-family="Helvetica,sans-Serif" font-size="10.00">view.View.showAndChangeLanguage</text>
</a>
</g>
</g>
<!-- Node1&#45;&gt;Node2 -->
<g id="edge1" class="edge"><title>Node1&#45;&gt;Node2</title>
<path fill="none" stroke="midnightblue" d="M159.681,-87.204C168.311,-88.0501 177.122,-88.9139 185.856,-89.7702"/>
<polygon fill="midnightblue" stroke="midnightblue" points="159.942,-83.713 149.649,-86.2205 159.259,-90.6796 159.942,-83.713"/>
</g>
<!-- Node5 -->
<g id="node5" class="node"><title>Node5</title>
<g id="a_node5"><a xlink:href="../../d3/dbe/classview_1_1_view.html#a43a4310c3789a93e0fa6b98b0bb4f8aa" target="_top" xlink:title="view.View.tabChangeUpdate">
<polygon fill="white" stroke="black" points="205.5,-50.5 205.5,-69.5 356.5,-69.5 356.5,-50.5 205.5,-50.5"/>
<text text-anchor="middle" x="281" y="-57.5" font-family="Helvetica,sans-Serif" font-size="10.00">view.View.tabChangeUpdate</text>
</a>
</g>
</g>
<!-- Node1&#45;&gt;Node5 -->
<g id="edge4" class="edge"><title>Node1&#45;&gt;Node5</title>
<path fill="none" stroke="midnightblue" d="M159.976,-71.1787C175.043,-69.7754 190.652,-68.3216 205.431,-66.9451"/>
<polygon fill="midnightblue" stroke="midnightblue" points="159.281,-67.7282 149.649,-72.1406 159.93,-74.698 159.281,-67.7282"/>
</g>
<!-- Node3 -->
<g id="node3" class="node"><title>Node3</title>
<g id="a_node3"><a xlink:href="../../da/da8/classview_1_1components_1_1_s_logo_menu_bar.html#a8e395aa3dd6b23abf4e158d4a2f19d10" target="_top" xlink:title="view.components.SLogoMenu\lBar.makePreferencesMenu">
<polygon fill="white" stroke="black" points="568,-88 568,-118 726,-118 726,-88 568,-88"/>
<text text-anchor="start" x="576" y="-106" font-family="Helvetica,sans-Serif" font-size="10.00">view.components.SLogoMenu</text>
<text text-anchor="middle" x="647" y="-95" font-family="Helvetica,sans-Serif" font-size="10.00">Bar.makePreferencesMenu</text>
</a>
</g>
</g>
<!-- Node2&#45;&gt;Node3 -->
<g id="edge2" class="edge"><title>Node2&#45;&gt;Node3</title>
<path fill="none" stroke="midnightblue" d="M386.476,-100.148C444.263,-100.783 514.874,-101.559 567.846,-102.141"/>
<polygon fill="midnightblue" stroke="midnightblue" points="386.25,-96.6455 376.212,-100.035 386.173,-103.645 386.25,-96.6455"/>
</g>
<!-- Node4 -->
<g id="node4" class="node"><title>Node4</title>
<g id="a_node4"><a xlink:href="../../da/da8/classview_1_1components_1_1_s_logo_menu_bar.html#afbe8434fba1476e5cbe7401c6bc158ec" target="_top" xlink:title="view.components.SLogoMenu\lBar.SLogoMenuBar">
<polygon fill="white" stroke="black" points="762,-44 762,-74 920,-74 920,-44 762,-44"/>
<text text-anchor="start" x="770" y="-62" font-family="Helvetica,sans-Serif" font-size="10.00">view.components.SLogoMenu</text>
<text text-anchor="middle" x="841" y="-51" font-family="Helvetica,sans-Serif" font-size="10.00">Bar.SLogoMenuBar</text>
</a>
</g>
</g>
<!-- Node3&#45;&gt;Node4 -->
<g id="edge3" class="edge"><title>Node3&#45;&gt;Node4</title>
<path fill="none" stroke="midnightblue" d="M723.353,-85.7316C740.226,-81.8648 757.993,-77.7934 774.431,-74.0262"/>
<polygon fill="midnightblue" stroke="midnightblue" points="722.504,-82.3354 713.539,-87.9808 724.068,-89.1585 722.504,-82.3354"/>
</g>
<!-- Node6 -->
<g id="node6" class="node"><title>Node6</title>
<g id="a_node6"><a xlink:href="../../d3/dbe/classview_1_1_view.html#a59bb3de727676a9d3c1630f9e58b9614" target="_top" xlink:title="view.View.addTopBars">
<polygon fill="white" stroke="black" points="412.5,-50.5 412.5,-69.5 531.5,-69.5 531.5,-50.5 412.5,-50.5"/>
<text text-anchor="middle" x="472" y="-57.5" font-family="Helvetica,sans-Serif" font-size="10.00">view.View.addTopBars</text>
</a>
</g>
</g>
<!-- Node5&#45;&gt;Node6 -->
<g id="edge5" class="edge"><title>Node5&#45;&gt;Node6</title>
<path fill="none" stroke="midnightblue" d="M366.739,-60C382.122,-60 397.853,-60 412.28,-60"/>
<polygon fill="midnightblue" stroke="midnightblue" points="366.698,-56.5001 356.698,-60 366.698,-63.5001 366.698,-56.5001"/>
</g>
<!-- Node8 -->
<g id="node8" class="node"><title>Node8</title>
<g id="a_node8"><a xlink:href="../../d3/dbe/classview_1_1_view.html#aef53667bcfbe243d64e3416529c35f8f" target="_top" xlink:title="view.View.addNewTab">
<polygon fill="white" stroke="black" points="413.5,-12.5 413.5,-31.5 530.5,-31.5 530.5,-12.5 413.5,-12.5"/>
<text text-anchor="middle" x="472" y="-19.5" font-family="Helvetica,sans-Serif" font-size="10.00">view.View.addNewTab</text>
</a>
</g>
</g>
<!-- Node5&#45;&gt;Node8 -->
<g id="edge7" class="edge"><title>Node5&#45;&gt;Node8</title>
<path fill="none" stroke="midnightblue" d="M339.742,-48.3905C366.622,-42.986 398.203,-36.6365 423.65,-31.5201"/>
<polygon fill="midnightblue" stroke="midnightblue" points="338.807,-45.0084 329.693,-50.411 340.186,-51.8711 338.807,-45.0084"/>
</g>
<!-- Node7 -->
<g id="node7" class="node"><title>Node7</title>
<g id="a_node7"><a xlink:href="../../d3/dbe/classview_1_1_view.html#ab8997f733f923e68829b13b7e9633bc7" target="_top" xlink:title="view.View.View">
<polygon fill="white" stroke="black" points="604.5,-49.5 604.5,-68.5 689.5,-68.5 689.5,-49.5 604.5,-49.5"/>
<text text-anchor="middle" x="647" y="-56.5" font-family="Helvetica,sans-Serif" font-size="10.00">view.View.View</text>
</a>
</g>
</g>
<!-- Node6&#45;&gt;Node7 -->
<g id="edge6" class="edge"><title>Node6&#45;&gt;Node7</title>
<path fill="none" stroke="midnightblue" d="M541.826,-59.6022C563.008,-59.4797 585.667,-59.3487 604.425,-59.2403"/>
<polygon fill="midnightblue" stroke="midnightblue" points="541.549,-56.1036 531.57,-59.6614 541.59,-63.1035 541.549,-56.1036"/>
</g>
<!-- Node8&#45;&gt;Node7 -->
<g id="edge10" class="edge"><title>Node8&#45;&gt;Node7</title>
<path fill="none" stroke="midnightblue" d="M527.547,-33.6661C552.353,-38.9715 581.239,-45.1493 604.275,-50.0761"/>
<polygon fill="midnightblue" stroke="midnightblue" points="528.063,-30.1973 517.552,-31.5284 526.599,-37.0425 528.063,-30.1973"/>
</g>
<!-- Node9 -->
<g id="node9" class="node"><title>Node9</title>
<g id="a_node9"><a xlink:href="../../da/da8/classview_1_1components_1_1_s_logo_menu_bar.html#a50a896e8874b794c164559d97c531b78" target="_top" xlink:title="view.components.SLogoMenu\lBar.makeFileMenu">
<polygon fill="white" stroke="black" points="568,-0 568,-30 726,-30 726,-0 568,-0"/>
<text text-anchor="start" x="576" y="-18" font-family="Helvetica,sans-Serif" font-size="10.00">view.components.SLogoMenu</text>
<text text-anchor="middle" x="647" y="-7" font-family="Helvetica,sans-Serif" font-size="10.00">Bar.makeFileMenu</text>
</a>
</g>
</g>
<!-- Node8&#45;&gt;Node9 -->
<g id="edge8" class="edge"><title>Node8&#45;&gt;Node9</title>
<path fill="none" stroke="midnightblue" d="M540.814,-19.2561C549.635,-18.8992 558.729,-18.5312 567.703,-18.1681"/>
<polygon fill="midnightblue" stroke="midnightblue" points="540.457,-15.7676 530.606,-19.6691 540.74,-22.7619 540.457,-15.7676"/>
</g>
<!-- Node9&#45;&gt;Node4 -->
<g id="edge9" class="edge"><title>Node9&#45;&gt;Node4</title>
<path fill="none" stroke="midnightblue" d="M723.353,-32.2684C740.226,-36.1352 757.993,-40.2066 774.431,-43.9738"/>
<polygon fill="midnightblue" stroke="midnightblue" points="724.068,-28.8415 713.539,-30.0192 722.504,-35.6646 724.068,-28.8415"/>
</g>
</g>
</svg>
