<?xml version="1.0" encoding="UTF-8" standalone="no"?>
<!DOCTYPE svg PUBLIC "-//W3C//DTD SVG 1.1//EN"
 "http://www.w3.org/Graphics/SVG/1.1/DTD/svg11.dtd">
<!-- Generated by graphviz version 2.36.0 (20140111.2315)
 -->
<!-- Title: /tmp/git/duke&#45;compsci308&#45;spring2015/slogo_team17/repository/src/view Pages: 1 -->
<svg width="510pt" height="111pt"
 viewBox="0.00 0.00 510.00 111.00" xmlns="http://www.w3.org/2000/svg" xmlns:xlink="http://www.w3.org/1999/xlink">
<g id="graph0" class="graph" transform="scale(1 1) rotate(0) translate(4 107)">
<title>/tmp/git/duke&#45;compsci308&#45;spring2015/slogo_team17/repository/src/view</title>
<polygon fill="white" stroke="none" points="-4,4 -4,-107 506,-107 506,4 -4,4"/>
<g id="clust1" class="cluster"><title>clusterdir_aba7a210820ed4bc0704db54fba14a50</title>
<g id="a_clust1"><a xlink:href="dir_aba7a210820ed4bc0704db54fba14a50.html" target="_top" xlink:title="src">
<polygon fill="#ddddee" stroke="black" points="8,-8 8,-95 494,-95 494,-8 8,-8"/>
<text text-anchor="middle" x="251" y="-83" font-family="Helvetica,sans-Serif" font-size="10.00">src</text>
</a>
</g>
</g>
<g id="clust2" class="cluster"><title>clusterdir_63b7c5944ce8b7c54761296bc002916d</title>
<g id="a_clust2"><a xlink:href="dir_63b7c5944ce8b7c54761296bc002916d.html" target="_top">
<polygon fill="#eeeeff" stroke="black" points="16,-16 16,-68 486,-68 486,-16 16,-16"/>
</a>
</g>
</g>
<!-- dir_63b7c5944ce8b7c54761296bc002916d -->
<g id="node1" class="node"><title>dir_63b7c5944ce8b7c54761296bc002916d</title>
<text text-anchor="middle" x="451" y="-39.5" font-family="Helvetica,sans-Serif" font-size="10.00">view</text>
</g>
<!-- dir_5f0d11ff36fdd42a466a9df4dcd2cfee -->
<g id="node2" class="node"><title>dir_5f0d11ff36fdd42a466a9df4dcd2cfee</title>
<g id="a_node2"><a xlink:href="dir_5f0d11ff36fdd42a466a9df4dcd2cfee.html" target="_top" xlink:title="components">
<polygon fill="white" stroke="black" points="405.25,-60 328.75,-60 328.75,-24 405.25,-24 405.25,-60"/>
<text text-anchor="middle" x="367" y="-39.5" font-family="Helvetica,sans-Serif" font-size="10.00">components</text>
</a>
</g>
</g>
<!-- dir_81a3f000a20e6b027c306642c1270e73 -->
<g id="node3" class="node"><title>dir_81a3f000a20e6b027c306642c1270e73</title>
<g id="a_node3"><a xlink:href="dir_81a3f000a20e6b027c306642c1270e73.html" target="_top" xlink:title="dialogs">
<polygon fill="white" stroke="black" points="310,-60 256,-60 256,-24 310,-24 310,-60"/>
<text text-anchor="middle" x="283" y="-39.5" font-family="Helvetica,sans-Serif" font-size="10.00">dialogs</text>
</a>
</g>
</g>
<!-- dir_28d133552891a5e3b5ce9e4af8df8b84 -->
<g id="node4" class="node"><title>dir_28d133552891a5e3b5ce9e4af8df8b84</title>
<g id="a_node4"><a xlink:href="dir_28d133552891a5e3b5ce9e4af8df8b84.html" target="_top" xlink:title="listwindows">
<polygon fill="white" stroke="black" points="237.25,-60 168.75,-60 168.75,-24 237.25,-24 237.25,-60"/>
<text text-anchor="middle" x="203" y="-39.5" font-family="Helvetica,sans-Serif" font-size="10.00">listwindows</text>
</a>
</g>
</g>
<!-- dir_f75dce9e59241d12abb753e7017cd4da -->
<g id="node5" class="node"><title>dir_f75dce9e59241d12abb753e7017cd4da</title>
<g id="a_node5"><a xlink:href="dir_f75dce9e59241d12abb753e7017cd4da.html" target="_top" xlink:title="toolbar">
<polygon fill="white" stroke="black" points="150,-60 96,-60 96,-24 150,-24 150,-60"/>
<text text-anchor="middle" x="123" y="-39.5" font-family="Helvetica,sans-Serif" font-size="10.00">toolbar</text>
</a>
</g>
</g>
<!-- dir_0e290ff55a4e26acb978a4ff91755ff6 -->
<g id="node6" class="node"><title>dir_0e290ff55a4e26acb978a4ff91755ff6</title>
<g id="a_node6"><a xlink:href="dir_0e290ff55a4e26acb978a4ff91755ff6.html" target="_top" xlink:title="turtle">
<polygon fill="white" stroke="black" points="78,-60 24,-60 24,-24 78,-24 78,-60"/>
<text text-anchor="middle" x="51" y="-39.5" font-family="Helvetica,sans-Serif" font-size="10.00">turtle</text>
</a>
</g>
</g>
</g>
</svg>
