<?xml version="1.0" encoding="UTF-8" standalone="no"?>
<!DOCTYPE svg PUBLIC "-//W3C//DTD SVG 1.1//EN"
 "http://www.w3.org/Graphics/SVG/1.1/DTD/svg11.dtd">
<!-- Generated by graphviz version 2.36.0 (20140111.2315)
 -->
<!-- Title: /tmp/git/duke&#45;compsci308&#45;spring2015/slogo_team17/repository/src/parser Pages: 1 -->
<svg width="344pt" height="111pt"
 viewBox="0.00 0.00 344.00 111.00" xmlns="http://www.w3.org/2000/svg" xmlns:xlink="http://www.w3.org/1999/xlink">
<g id="graph0" class="graph" transform="scale(1 1) rotate(0) translate(4 107)">
<title>/tmp/git/duke&#45;compsci308&#45;spring2015/slogo_team17/repository/src/parser</title>
<polygon fill="white" stroke="none" points="-4,4 -4,-107 340,-107 340,4 -4,4"/>
<g id="clust1" class="cluster"><title>clusterdir_aba7a210820ed4bc0704db54fba14a50</title>
<g id="a_clust1"><a xlink:href="dir_aba7a210820ed4bc0704db54fba14a50.html" target="_top" xlink:title="src">
<polygon fill="#ddddee" stroke="black" points="8,-8 8,-95 328,-95 328,-8 8,-8"/>
<text text-anchor="middle" x="168" y="-83" font-family="Helvetica,sans-Serif" font-size="10.00">src</text>
</a>
</g>
</g>
<g id="clust2" class="cluster"><title>clusterdir_8eb10b891b945c0bef688a83e2834e67</title>
<g id="a_clust2"><a xlink:href="dir_8eb10b891b945c0bef688a83e2834e67.html" target="_top">
<polygon fill="#eeeeff" stroke="black" points="16,-16 16,-68 320,-68 320,-16 16,-16"/>
</a>
</g>
</g>
<!-- dir_8eb10b891b945c0bef688a83e2834e67 -->
<g id="node1" class="node"><title>dir_8eb10b891b945c0bef688a83e2834e67</title>
<text text-anchor="middle" x="285" y="-39.5" font-family="Helvetica,sans-Serif" font-size="10.00">parser</text>
</g>
<!-- dir_dbec09f95495e78e4a76d6d8fbdd7f4f -->
<g id="node2" class="node"><title>dir_dbec09f95495e78e4a76d6d8fbdd7f4f</title>
<g id="a_node2"><a xlink:href="dir_dbec09f95495e78e4a76d6d8fbdd7f4f.html" target="_top" xlink:title="commands">
<polygon fill="white" stroke="black" points="239.25,-60 168.75,-60 168.75,-24 239.25,-24 239.25,-60"/>
<text text-anchor="middle" x="204" y="-39.5" font-family="Helvetica,sans-Serif" font-size="10.00">commands</text>
</a>
</g>
</g>
<!-- dir_20475b86daf2b7210dab8b36a20b590c -->
<g id="node3" class="node"><title>dir_20475b86daf2b7210dab8b36a20b590c</title>
<g id="a_node3"><a xlink:href="dir_20475b86daf2b7210dab8b36a20b590c.html" target="_top" xlink:title="nodes">
<polygon fill="white" stroke="black" points="150,-60 96,-60 96,-24 150,-24 150,-60"/>
<text text-anchor="middle" x="123" y="-39.5" font-family="Helvetica,sans-Serif" font-size="10.00">nodes</text>
</a>
</g>
</g>
<!-- dir_a988caf63d4ab18b6bbedd501be6c165 -->
<g id="node4" class="node"><title>dir_a988caf63d4ab18b6bbedd501be6c165</title>
<g id="a_node4"><a xlink:href="dir_a988caf63d4ab18b6bbedd501be6c165.html" target="_top" xlink:title="parser">
<polygon fill="white" stroke="black" points="78,-60 24,-60 24,-24 78,-24 78,-60"/>
<text text-anchor="middle" x="51" y="-39.5" font-family="Helvetica,sans-Serif" font-size="10.00">parser</text>
</a>
</g>
</g>
</g>
</svg>
