<?xml version="1.0" encoding="UTF-8" standalone="no"?>
<!DOCTYPE svg PUBLIC "-//W3C//DTD SVG 1.1//EN"
 "http://www.w3.org/Graphics/SVG/1.1/DTD/svg11.dtd">
<!-- Generated by graphviz version 2.36.0 (20140111.2315)
 -->
<!-- Title: /tmp/git/duke&#45;compsci308&#45;spring2015/slogo_team17/repository/src Pages: 1 -->
<svg width="412pt" height="111pt"
 viewBox="0.00 0.00 412.00 111.00" xmlns="http://www.w3.org/2000/svg" xmlns:xlink="http://www.w3.org/1999/xlink">
<g id="graph0" class="graph" transform="scale(1 1) rotate(0) translate(4 107)">
<title>/tmp/git/duke&#45;compsci308&#45;spring2015/slogo_team17/repository/src</title>
<polygon fill="white" stroke="none" points="-4,4 -4,-107 408,-107 408,4 -4,4"/>
<g id="clust1" class="cluster"><title>clusterdir_89a2ccf41641d7c5aa1786138ac9daba</title>
<g id="a_clust1"><a xlink:href="dir_89a2ccf41641d7c5aa1786138ac9daba.html" target="_top" xlink:title="repository">
<polygon fill="#ddddee" stroke="black" points="8,-8 8,-95 396,-95 396,-8 8,-8"/>
<text text-anchor="middle" x="202" y="-83" font-family="Helvetica,sans-Serif" font-size="10.00">repository</text>
</a>
</g>
</g>
<g id="clust2" class="cluster"><title>clusterdir_aba7a210820ed4bc0704db54fba14a50</title>
<g id="a_clust2"><a xlink:href="dir_aba7a210820ed4bc0704db54fba14a50.html" target="_top">
<polygon fill="#eeeeff" stroke="black" points="16,-16 16,-68 388,-68 388,-16 16,-16"/>
</a>
</g>
</g>
<!-- dir_aba7a210820ed4bc0704db54fba14a50 -->
<g id="node1" class="node"><title>dir_aba7a210820ed4bc0704db54fba14a50</title>
<text text-anchor="middle" x="353" y="-39.5" font-family="Helvetica,sans-Serif" font-size="10.00">src</text>
</g>
<!-- dir_29fec8547ef4aecd529f3786ada0ada6 -->
<g id="node2" class="node"><title>dir_29fec8547ef4aecd529f3786ada0ada6</title>
<g id="a_node2"><a xlink:href="dir_29fec8547ef4aecd529f3786ada0ada6.html" target="_top" xlink:title="exceptions">
<polygon fill="white" stroke="black" points="308,-60 240,-60 240,-24 308,-24 308,-60"/>
<text text-anchor="middle" x="274" y="-39.5" font-family="Helvetica,sans-Serif" font-size="10.00">exceptions</text>
</a>
</g>
</g>
<!-- dir_2b30b780c7b6dbab91f109c80bf7c862 -->
<g id="node3" class="node"><title>dir_2b30b780c7b6dbab91f109c80bf7c862</title>
<g id="a_node3"><a xlink:href="dir_2b30b780c7b6dbab91f109c80bf7c862.html" target="_top" xlink:title="model">
<polygon fill="white" stroke="black" points="222,-60 168,-60 168,-24 222,-24 222,-60"/>
<text text-anchor="middle" x="195" y="-39.5" font-family="Helvetica,sans-Serif" font-size="10.00">model</text>
</a>
</g>
</g>
<!-- dir_8eb10b891b945c0bef688a83e2834e67 -->
<g id="node4" class="node"><title>dir_8eb10b891b945c0bef688a83e2834e67</title>
<g id="a_node4"><a xlink:href="dir_8eb10b891b945c0bef688a83e2834e67.html" target="_top" xlink:title="parser">
<polygon fill="white" stroke="red" points="150,-60 96,-60 96,-24 150,-24 150,-60"/>
<text text-anchor="middle" x="123" y="-39.5" font-family="Helvetica,sans-Serif" font-size="10.00">parser</text>
</a>
</g>
</g>
<!-- dir_63b7c5944ce8b7c54761296bc002916d -->
<g id="node5" class="node"><title>dir_63b7c5944ce8b7c54761296bc002916d</title>
<g id="a_node5"><a xlink:href="dir_63b7c5944ce8b7c54761296bc002916d.html" target="_top" xlink:title="view">
<polygon fill="white" stroke="red" points="78,-60 24,-60 24,-24 78,-24 78,-60"/>
<text text-anchor="middle" x="51" y="-39.5" font-family="Helvetica,sans-Serif" font-size="10.00">view</text>
</a>
</g>
</g>
</g>
</svg>
