<?xml version="1.0" encoding="UTF-8" standalone="no"?>
<!DOCTYPE svg PUBLIC "-//W3C//DTD SVG 1.1//EN"
 "http://www.w3.org/Graphics/SVG/1.1/DTD/svg11.dtd">
<!-- Generated by graphviz version 2.36.0 (20140111.2315)
 -->
<!-- Title: Graphical Class Hierarchy Pages: 1 -->
<svg width="282pt" height="66pt"
 viewBox="0.00 0.00 282.00 66.00" xmlns="http://www.w3.org/2000/svg" xmlns:xlink="http://www.w3.org/1999/xlink">
<g id="graph0" class="graph" transform="scale(1 1) rotate(0) translate(4 62)">
<title>Graphical Class Hierarchy</title>
<polygon fill="white" stroke="none" points="-4,4 -4,-62 278,-62 278,4 -4,4"/>
<!-- Node1 -->
<g id="node1" class="node"><title>Node1</title>
<polygon fill="white" stroke="#bfbfbf" points="0,-19.5 0,-38.5 66,-38.5 66,-19.5 0,-19.5"/>
<text text-anchor="middle" x="33" y="-26.5" font-family="Helvetica,sans-Serif" font-size="10.00">ScrollPane</text>
</g>
<!-- Node2 -->
<g id="node2" class="node"><title>Node2</title>
<g id="a_node2"><a xlink:href="db/d98/classview_1_1components_1_1_command_port.html" target="_top" xlink:title="view.components.CommandPort">
<polygon fill="white" stroke="black" points="102,-38.5 102,-57.5 274,-57.5 274,-38.5 102,-38.5"/>
<text text-anchor="middle" x="188" y="-45.5" font-family="Helvetica,sans-Serif" font-size="10.00">view.components.CommandPort</text>
</a>
</g>
</g>
<!-- Node1&#45;&gt;Node2 -->
<g id="edge1" class="edge"><title>Node1&#45;&gt;Node2</title>
<path fill="none" stroke="midnightblue" d="M76.2486,-34.2466C86.8312,-35.5607 98.5157,-37.0118 110.209,-38.4639"/>
<polygon fill="midnightblue" stroke="midnightblue" points="76.4289,-30.7422 66.0738,-32.983 75.5662,-37.6888 76.4289,-30.7422"/>
</g>
<!-- Node3 -->
<g id="node3" class="node"><title>Node3</title>
<g id="a_node3"><a xlink:href="d4/d6b/classview_1_1components_1_1_debugger_port.html" target="_top" xlink:title="view.components.DebuggerPort">
<polygon fill="white" stroke="black" points="103.5,-0.5 103.5,-19.5 272.5,-19.5 272.5,-0.5 103.5,-0.5"/>
<text text-anchor="middle" x="188" y="-7.5" font-family="Helvetica,sans-Serif" font-size="10.00">view.components.DebuggerPort</text>
</a>
</g>
</g>
<!-- Node1&#45;&gt;Node3 -->
<g id="edge2" class="edge"><title>Node1&#45;&gt;Node3</title>
<path fill="none" stroke="midnightblue" d="M76.2486,-23.7534C86.8312,-22.4393 98.5157,-20.9882 110.209,-19.5361"/>
<polygon fill="midnightblue" stroke="midnightblue" points="75.5662,-20.3112 66.0738,-25.017 76.4289,-27.2578 75.5662,-20.3112"/>
</g>
</g>
</svg>
