<?xml version="1.0" encoding="UTF-8" standalone="no"?>
<!DOCTYPE svg PUBLIC "-//W3C//DTD SVG 1.1//EN"
 "http://www.w3.org/Graphics/SVG/1.1/DTD/svg11.dtd">
<!-- Generated by graphviz version 2.36.0 (20140111.2315)
 -->
<!-- Title: Graphical Class Hierarchy Pages: 1 -->
<svg width="732pt" height="85pt"
 viewBox="0.00 0.00 732.00 85.00" xmlns="http://www.w3.org/2000/svg" xmlns:xlink="http://www.w3.org/1999/xlink">
<g id="graph0" class="graph" transform="scale(1 1) rotate(0) translate(4 81)">
<title>Graphical Class Hierarchy</title>
<polygon fill="white" stroke="none" points="-4,4 -4,-81 728,-81 728,4 -4,4"/>
<!-- Node1 -->
<g id="node1" class="node"><title>Node1</title>
<g id="a_node1"><a xlink:href="d2/d9f/classview_1_1dialogs_1_1_dialog_box.html" target="_top" xlink:title="view.dialogs.DialogBox">
<polygon fill="white" stroke="black" points="0,-38.5 0,-57.5 124,-57.5 124,-38.5 0,-38.5"/>
<text text-anchor="middle" x="62" y="-45.5" font-family="Helvetica,sans-Serif" font-size="10.00">view.dialogs.DialogBox</text>
</a>
</g>
</g>
<!-- Node2 -->
<g id="node2" class="node"><title>Node2</title>
<g id="a_node2"><a xlink:href="dc/d6d/classview_1_1dialogs_1_1_help_dialog_box.html" target="_top" xlink:title="view.dialogs.HelpDialogBox">
<polygon fill="white" stroke="black" points="171,-57.5 171,-76.5 317,-76.5 317,-57.5 171,-57.5"/>
<text text-anchor="middle" x="244" y="-64.5" font-family="Helvetica,sans-Serif" font-size="10.00">view.dialogs.HelpDialogBox</text>
</a>
</g>
</g>
<!-- Node1&#45;&gt;Node2 -->
<g id="edge1" class="edge"><title>Node1&#45;&gt;Node2</title>
<path fill="none" stroke="midnightblue" d="M134.174,-55.5128C146.214,-56.7837 158.724,-58.1042 170.79,-59.3779"/>
<polygon fill="midnightblue" stroke="midnightblue" points="134.503,-52.0282 124.191,-54.459 133.768,-58.9895 134.503,-52.0282"/>
</g>
<!-- Node3 -->
<g id="node3" class="node"><title>Node3</title>
<g id="a_node3"><a xlink:href="d2/dee/classview_1_1dialogs_1_1_message_dialog_box.html" target="_top" xlink:title="view.dialogs.MessageDialogBox">
<polygon fill="white" stroke="black" points="160.5,-19.5 160.5,-38.5 327.5,-38.5 327.5,-19.5 160.5,-19.5"/>
<text text-anchor="middle" x="244" y="-26.5" font-family="Helvetica,sans-Serif" font-size="10.00">view.dialogs.MessageDialogBox</text>
</a>
</g>
</g>
<!-- Node1&#45;&gt;Node3 -->
<g id="edge2" class="edge"><title>Node1&#45;&gt;Node3</title>
<path fill="none" stroke="midnightblue" d="M134.144,-40.4903C142.734,-39.5836 151.563,-38.6516 160.3,-37.7294"/>
<polygon fill="midnightblue" stroke="midnightblue" points="133.768,-37.0105 124.191,-41.541 134.503,-43.9718 133.768,-37.0105"/>
</g>
<!-- Node4 -->
<g id="node4" class="node"><title>Node4</title>
<g id="a_node4"><a xlink:href="d0/de5/classview_1_1dialogs_1_1_input_dialog_box.html" target="_top" xlink:title="view.dialogs.InputDialogBox">
<polygon fill="white" stroke="black" points="364,-19.5 364,-38.5 512,-38.5 512,-19.5 364,-19.5"/>
<text text-anchor="middle" x="438" y="-26.5" font-family="Helvetica,sans-Serif" font-size="10.00">view.dialogs.InputDialogBox</text>
</a>
</g>
</g>
<!-- Node3&#45;&gt;Node4 -->
<g id="edge3" class="edge"><title>Node3&#45;&gt;Node4</title>
<path fill="none" stroke="midnightblue" d="M337.796,-29C346.562,-29 355.364,-29 363.908,-29"/>
<polygon fill="midnightblue" stroke="midnightblue" points="337.54,-25.5001 327.54,-29 337.54,-32.5001 337.54,-25.5001"/>
</g>
<!-- Node5 -->
<g id="node5" class="node"><title>Node5</title>
<g id="a_node5"><a xlink:href="d5/d77/classview_1_1dialogs_1_1_languages_dialog_box.html" target="_top" xlink:title="view.dialogs.LanguagesDialogBox">
<polygon fill="white" stroke="black" points="548,-38.5 548,-57.5 724,-57.5 724,-38.5 548,-38.5"/>
<text text-anchor="middle" x="636" y="-45.5" font-family="Helvetica,sans-Serif" font-size="10.00">view.dialogs.LanguagesDialogBox</text>
</a>
</g>
</g>
<!-- Node4&#45;&gt;Node5 -->
<g id="edge4" class="edge"><title>Node4&#45;&gt;Node5</title>
<path fill="none" stroke="midnightblue" d="M522.459,-37.0904C530.892,-37.9079 539.472,-38.7396 547.942,-39.5607"/>
<polygon fill="midnightblue" stroke="midnightblue" points="522.553,-33.5832 512.262,-36.1019 521.877,-40.5505 522.553,-33.5832"/>
</g>
<!-- Node6 -->
<g id="node6" class="node"><title>Node6</title>
<g id="a_node6"><a xlink:href="da/d22/classview_1_1dialogs_1_1_text_input_dialog_box.html" target="_top" xlink:title="view.dialogs.TextInputDialogBox">
<polygon fill="white" stroke="black" points="552.5,-0.5 552.5,-19.5 719.5,-19.5 719.5,-0.5 552.5,-0.5"/>
<text text-anchor="middle" x="636" y="-7.5" font-family="Helvetica,sans-Serif" font-size="10.00">view.dialogs.TextInputDialogBox</text>
</a>
</g>
</g>
<!-- Node4&#45;&gt;Node6 -->
<g id="edge5" class="edge"><title>Node4&#45;&gt;Node6</title>
<path fill="none" stroke="midnightblue" d="M522.461,-20.9094C532.335,-19.9522 542.41,-18.9756 552.273,-18.0194"/>
<polygon fill="midnightblue" stroke="midnightblue" points="521.877,-17.4495 512.262,-21.8981 522.553,-24.4168 521.877,-17.4495"/>
</g>
</g>
</svg>
