<?xml version="1.0" encoding="UTF-8" standalone="no"?>
<!DOCTYPE svg PUBLIC "-//W3C//DTD SVG 1.1//EN"
 "http://www.w3.org/Graphics/SVG/1.1/DTD/svg11.dtd">
<!-- Generated by graphviz version 2.36.0 (20140111.2315)
 -->
<!-- Title: Graphical Class Hierarchy Pages: 1 -->
<svg width="626pt" height="147pt"
 viewBox="0.00 0.00 626.00 147.00" xmlns="http://www.w3.org/2000/svg" xmlns:xlink="http://www.w3.org/1999/xlink">
<g id="graph0" class="graph" transform="scale(1 1) rotate(0) translate(4 143)">
<title>Graphical Class Hierarchy</title>
<polygon fill="white" stroke="none" points="-4,4 -4,-143 622,-143 622,4 -4,4"/>
<!-- Node1 -->
<g id="node1" class="node"><title>Node1</title>
<polygon fill="white" stroke="#bfbfbf" points="0,-38.5 0,-57.5 46,-57.5 46,-38.5 0,-38.5"/>
<text text-anchor="middle" x="23" y="-45.5" font-family="Helvetica,sans-Serif" font-size="10.00">Group</text>
</g>
<!-- Node2 -->
<g id="node2" class="node"><title>Node2</title>
<g id="a_node2"><a xlink:href="d5/d4b/classview_1_1components_1_1_turtle_window.html" target="_top" xlink:title="view.components.TurtleWindow">
<polygon fill="white" stroke="black" points="264.5,-119.5 264.5,-138.5 427.5,-138.5 427.5,-119.5 264.5,-119.5"/>
<text text-anchor="middle" x="346" y="-126.5" font-family="Helvetica,sans-Serif" font-size="10.00">view.components.TurtleWindow</text>
</a>
</g>
</g>
<!-- Node1&#45;&gt;Node2 -->
<g id="edge1" class="edge"><title>Node1&#45;&gt;Node2</title>
<path fill="none" stroke="midnightblue" d="M36.5604,-65.7242C47.059,-79.0103 63.2952,-96.3342 82,-105 138.994,-131.405 210.308,-136.422 264.292,-135.38"/>
<polygon fill="midnightblue" stroke="midnightblue" points="39.3342,-63.5894 30.5216,-57.708 33.7431,-67.8013 39.3342,-63.5894"/>
</g>
<!-- Node3 -->
<g id="node3" class="node"><title>Node3</title>
<g id="a_node3"><a xlink:href="da/d76/classview_1_1listwindows_1_1_list_window.html" target="_top" xlink:title="view.listwindows.ListWindow">
<polygon fill="white" stroke="black" points="82,-38.5 82,-57.5 228,-57.5 228,-38.5 82,-38.5"/>
<text text-anchor="middle" x="155" y="-45.5" font-family="Helvetica,sans-Serif" font-size="10.00">view.listwindows.ListWindow</text>
</a>
</g>
</g>
<!-- Node1&#45;&gt;Node3 -->
<g id="edge2" class="edge"><title>Node1&#45;&gt;Node3</title>
<path fill="none" stroke="midnightblue" d="M56.235,-48C64.1486,-48 72.9397,-48 81.9131,-48"/>
<polygon fill="midnightblue" stroke="midnightblue" points="56.0528,-44.5001 46.0527,-48 56.0527,-51.5001 56.0528,-44.5001"/>
</g>
<!-- Node8 -->
<g id="node8" class="node"><title>Node8</title>
<g id="a_node8"><a xlink:href="df/dd6/classview_1_1toolbar_1_1_toolbar.html" target="_top" xlink:title="view.toolbar.Toolbar">
<polygon fill="white" stroke="black" points="100.5,-0.5 100.5,-19.5 209.5,-19.5 209.5,-0.5 100.5,-0.5"/>
<text text-anchor="middle" x="155" y="-7.5" font-family="Helvetica,sans-Serif" font-size="10.00">view.toolbar.Toolbar</text>
</a>
</g>
</g>
<!-- Node1&#45;&gt;Node8 -->
<g id="edge7" class="edge"><title>Node1&#45;&gt;Node8</title>
<path fill="none" stroke="midnightblue" d="M55.7761,-37.2192C64.2649,-34.4411 73.4546,-31.5248 82,-29 93.0343,-25.7398 105.099,-22.45 116.143,-19.5453"/>
<polygon fill="midnightblue" stroke="midnightblue" points="54.6068,-33.9195 46.2137,-40.3853 56.8071,-40.5647 54.6068,-33.9195"/>
</g>
<!-- Node4 -->
<g id="node4" class="node"><title>Node4</title>
<g id="a_node4"><a xlink:href="da/df5/classview_1_1listwindows_1_1_commands_list_window.html" target="_top" xlink:title="view.listwindows.Commands\lListWindow">
<polygon fill="white" stroke="black" points="271,-70 271,-100 421,-100 421,-70 271,-70"/>
<text text-anchor="start" x="279" y="-88" font-family="Helvetica,sans-Serif" font-size="10.00">view.listwindows.Commands</text>
<text text-anchor="middle" x="346" y="-77" font-family="Helvetica,sans-Serif" font-size="10.00">ListWindow</text>
</a>
</g>
</g>
<!-- Node3&#45;&gt;Node4 -->
<g id="edge3" class="edge"><title>Node3&#45;&gt;Node4</title>
<path fill="none" stroke="midnightblue" d="M214.85,-59.5208C232.559,-62.9877 252.225,-66.8377 270.794,-70.4729"/>
<polygon fill="midnightblue" stroke="midnightblue" points="215.158,-56.0149 204.672,-57.5284 213.813,-62.8845 215.158,-56.0149"/>
</g>
<!-- Node7 -->
<g id="node7" class="node"><title>Node7</title>
<g id="a_node7"><a xlink:href="de/d8c/classview_1_1listwindows_1_1_variables_window.html" target="_top" xlink:title="view.listwindows.Variables\lWindow">
<polygon fill="white" stroke="black" points="277,-21 277,-51 415,-51 415,-21 277,-21"/>
<text text-anchor="start" x="285" y="-39" font-family="Helvetica,sans-Serif" font-size="10.00">view.listwindows.Variables</text>
<text text-anchor="middle" x="346" y="-28" font-family="Helvetica,sans-Serif" font-size="10.00">Window</text>
</a>
</g>
</g>
<!-- Node3&#45;&gt;Node7 -->
<g id="edge6" class="edge"><title>Node3&#45;&gt;Node7</title>
<path fill="none" stroke="midnightblue" d="M238.453,-42.7649C251.263,-41.9516 264.373,-41.1192 276.821,-40.3288"/>
<polygon fill="midnightblue" stroke="midnightblue" points="238.02,-39.2852 228.262,-43.4119 238.464,-46.2712 238.02,-39.2852"/>
</g>
<!-- Node5 -->
<g id="node5" class="node"><title>Node5</title>
<g id="a_node5"><a xlink:href="df/d26/classview_1_1listwindows_1_1_commands_history_window.html" target="_top" xlink:title="view.listwindows.Commands\lHistoryWindow">
<polygon fill="white" stroke="black" points="466,-95 466,-125 616,-125 616,-95 466,-95"/>
<text text-anchor="start" x="474" y="-113" font-family="Helvetica,sans-Serif" font-size="10.00">view.listwindows.Commands</text>
<text text-anchor="middle" x="541" y="-102" font-family="Helvetica,sans-Serif" font-size="10.00">HistoryWindow</text>
</a>
</g>
</g>
<!-- Node4&#45;&gt;Node5 -->
<g id="edge4" class="edge"><title>Node4&#45;&gt;Node5</title>
<path fill="none" stroke="midnightblue" d="M431.134,-95.8981C442.678,-97.3936 454.463,-98.9201 465.812,-100.39"/>
<polygon fill="midnightblue" stroke="midnightblue" points="431.434,-92.4078 421.067,-94.5942 430.534,-99.3498 431.434,-92.4078"/>
</g>
<!-- Node6 -->
<g id="node6" class="node"><title>Node6</title>
<g id="a_node6"><a xlink:href="d7/dc7/classview_1_1listwindows_1_1_user_defined_commands_window.html" target="_top" xlink:title="view.listwindows.UserDefined\lCommandsWindow">
<polygon fill="white" stroke="black" points="464,-46 464,-76 618,-76 618,-46 464,-46"/>
<text text-anchor="start" x="472" y="-64" font-family="Helvetica,sans-Serif" font-size="10.00">view.listwindows.UserDefined</text>
<text text-anchor="middle" x="541" y="-53" font-family="Helvetica,sans-Serif" font-size="10.00">CommandsWindow</text>
</a>
</g>
</g>
<!-- Node4&#45;&gt;Node6 -->
<g id="edge5" class="edge"><title>Node4&#45;&gt;Node6</title>
<path fill="none" stroke="midnightblue" d="M431.027,-74.551C441.957,-73.1919 453.104,-71.8057 463.894,-70.4639"/>
<polygon fill="midnightblue" stroke="midnightblue" points="430.559,-71.0823 421.067,-75.7896 431.422,-78.0288 430.559,-71.0823"/>
</g>
<!-- Node9 -->
<g id="node9" class="node"><title>Node9</title>
<g id="a_node9"><a xlink:href="dd/db2/interfaceview_1_1components_1_1_observer.html" target="_top" xlink:title="view.components.Observer">
<polygon fill="white" stroke="black" points="82,-76.5 82,-95.5 228,-95.5 228,-76.5 82,-76.5"/>
<text text-anchor="middle" x="155" y="-83.5" font-family="Helvetica,sans-Serif" font-size="10.00">view.components.Observer</text>
</a>
</g>
</g>
<!-- Node9&#45;&gt;Node2 -->
<g id="edge8" class="edge"><title>Node9&#45;&gt;Node2</title>
<path fill="none" stroke="midnightblue" d="M207.814,-97.7884C237.805,-104.612 275.058,-113.087 303.172,-119.484"/>
<polygon fill="midnightblue" stroke="midnightblue" points="208.473,-94.3488 197.945,-95.5431 206.92,-101.174 208.473,-94.3488"/>
</g>
<!-- Node9&#45;&gt;Node4 -->
<g id="edge9" class="edge"><title>Node9&#45;&gt;Node4</title>
<path fill="none" stroke="midnightblue" d="M238.51,-85.5634C249.286,-85.5064 260.273,-85.4483 270.899,-85.3921"/>
<polygon fill="midnightblue" stroke="midnightblue" points="238.243,-82.0647 228.262,-85.6177 238.28,-89.0646 238.243,-82.0647"/>
</g>
<!-- Node9&#45;&gt;Node7 -->
<g id="edge10" class="edge"><title>Node9&#45;&gt;Node7</title>
<path fill="none" stroke="midnightblue" d="M202.154,-73.8279C210.745,-71.5599 219.646,-69.2091 228,-67 247.604,-61.8162 269.054,-56.1356 288.171,-51.0693"/>
<polygon fill="midnightblue" stroke="midnightblue" points="201.037,-70.5028 192.261,-76.4387 202.823,-77.271 201.037,-70.5028"/>
</g>
</g>
</svg>
