<?xml version="1.0" encoding="UTF-8" standalone="no"?>
<!DOCTYPE svg PUBLIC "-//W3C//DTD SVG 1.1//EN"
 "http://www.w3.org/Graphics/SVG/1.1/DTD/svg11.dtd">
<!-- Generated by graphviz version 2.36.0 (20140111.2315)
 -->
<!-- Title: Graphical Class Hierarchy Pages: 1 -->
<svg width="254pt" height="104pt"
 viewBox="0.00 0.00 254.00 104.00" xmlns="http://www.w3.org/2000/svg" xmlns:xlink="http://www.w3.org/1999/xlink">
<g id="graph0" class="graph" transform="scale(1 1) rotate(0) translate(4 100)">
<title>Graphical Class Hierarchy</title>
<polygon fill="white" stroke="none" points="-4,4 -4,-100 250,-100 250,4 -4,4"/>
<!-- Node1 -->
<g id="node1" class="node"><title>Node1</title>
<g id="a_node1"><a xlink:href="d4/d08/classmodel_1_1_variable.html" target="_top" xlink:title="model.Variable">
<polygon fill="white" stroke="black" points="0,-38.5 0,-57.5 88,-57.5 88,-38.5 0,-38.5"/>
<text text-anchor="middle" x="44" y="-45.5" font-family="Helvetica,sans-Serif" font-size="10.00">model.Variable</text>
</a>
</g>
</g>
<!-- Node2 -->
<g id="node2" class="node"><title>Node2</title>
<g id="a_node2"><a xlink:href="d8/d1b/classmodel_1_1_variable_double.html" target="_top" xlink:title="model.VariableDouble">
<polygon fill="white" stroke="black" points="124,-76.5 124,-95.5 246,-95.5 246,-76.5 124,-76.5"/>
<text text-anchor="middle" x="185" y="-83.5" font-family="Helvetica,sans-Serif" font-size="10.00">model.VariableDouble</text>
</a>
</g>
</g>
<!-- Node1&#45;&gt;Node2 -->
<g id="edge1" class="edge"><title>Node1&#45;&gt;Node2</title>
<path fill="none" stroke="midnightblue" d="M89.7953,-60.2462C108.955,-65.484 130.994,-71.5091 148.936,-76.4141"/>
<polygon fill="midnightblue" stroke="midnightblue" points="90.6446,-56.85 80.0756,-57.589 88.7986,-63.6022 90.6446,-56.85"/>
</g>
<!-- Node3 -->
<g id="node3" class="node"><title>Node3</title>
<g id="a_node3"><a xlink:href="d7/ddd/classmodel_1_1_variable_int.html" target="_top" xlink:title="model.VariableInt">
<polygon fill="white" stroke="black" points="135,-38.5 135,-57.5 235,-57.5 235,-38.5 135,-38.5"/>
<text text-anchor="middle" x="185" y="-45.5" font-family="Helvetica,sans-Serif" font-size="10.00">model.VariableInt</text>
</a>
</g>
</g>
<!-- Node1&#45;&gt;Node3 -->
<g id="edge2" class="edge"><title>Node1&#45;&gt;Node3</title>
<path fill="none" stroke="midnightblue" d="M98.5432,-48C110.532,-48 123.19,-48 134.985,-48"/>
<polygon fill="midnightblue" stroke="midnightblue" points="98.2186,-44.5001 88.2185,-48 98.2185,-51.5001 98.2186,-44.5001"/>
</g>
<!-- Node4 -->
<g id="node4" class="node"><title>Node4</title>
<g id="a_node4"><a xlink:href="d2/d1d/classmodel_1_1_variable_string.html" target="_top" xlink:title="model.VariableString">
<polygon fill="white" stroke="black" points="127,-0.5 127,-19.5 243,-19.5 243,-0.5 127,-0.5"/>
<text text-anchor="middle" x="185" y="-7.5" font-family="Helvetica,sans-Serif" font-size="10.00">model.VariableString</text>
</a>
</g>
</g>
<!-- Node1&#45;&gt;Node4 -->
<g id="edge3" class="edge"><title>Node1&#45;&gt;Node4</title>
<path fill="none" stroke="midnightblue" d="M89.7953,-35.7538C108.955,-30.516 130.994,-24.4909 148.936,-19.5859"/>
<polygon fill="midnightblue" stroke="midnightblue" points="88.7986,-32.3978 80.0756,-38.411 90.6446,-39.15 88.7986,-32.3978"/>
</g>
</g>
</svg>
