<?xml version="1.0" encoding="UTF-8" standalone="no"?>
<!DOCTYPE svg PUBLIC "-//W3C//DTD SVG 1.1//EN"
 "http://www.w3.org/Graphics/SVG/1.1/DTD/svg11.dtd">
<!-- Generated by graphviz version 2.36.0 (20140111.2315)
 -->
<!-- Title: Graphical Class Hierarchy Pages: 1 -->
<svg width="294pt" height="518pt"
 viewBox="0.00 0.00 294.00 518.00" xmlns="http://www.w3.org/2000/svg" xmlns:xlink="http://www.w3.org/1999/xlink">
<g id="graph0" class="graph" transform="scale(1 1) rotate(0) translate(4 514)">
<title>Graphical Class Hierarchy</title>
<polygon fill="white" stroke="none" points="-4,4 -4,-514 290,-514 290,4 -4,4"/>
<!-- Node1 -->
<g id="node1" class="node"><title>Node1</title>
<polygon fill="white" stroke="#bfbfbf" points="0.5,-250.5 0.5,-269.5 63.5,-269.5 63.5,-250.5 0.5,-250.5"/>
<text text-anchor="middle" x="32" y="-257.5" font-family="Helvetica,sans-Serif" font-size="10.00">Exception</text>
</g>
<!-- Node2 -->
<g id="node2" class="node"><title>Node2</title>
<g id="a_node2"><a xlink:href="df/da5/classexceptions_1_1_bad_argument_exception.html" target="_top" xlink:title="exceptions.BadArgumentException">
<polygon fill="white" stroke="black" points="100.5,-490.5 100.5,-509.5 285.5,-509.5 285.5,-490.5 100.5,-490.5"/>
<text text-anchor="middle" x="193" y="-497.5" font-family="Helvetica,sans-Serif" font-size="10.00">exceptions.BadArgumentException</text>
</a>
</g>
</g>
<!-- Node1&#45;&gt;Node2 -->
<g id="edge1" class="edge"><title>Node1&#45;&gt;Node2</title>
<path fill="none" stroke="midnightblue" d="M32.794,-279.725C33.4804,-322.878 41.5156,-426.101 100,-480 104.567,-484.209 109.806,-487.61 115.416,-490.348"/>
<polygon fill="midnightblue" stroke="midnightblue" points="36.2939,-279.66 32.7552,-269.674 29.2939,-279.687 36.2939,-279.66"/>
</g>
<!-- Node3 -->
<g id="node3" class="node"><title>Node3</title>
<g id="a_node3"><a xlink:href="d3/d1d/classexceptions_1_1_command_name_not_found_exception.html" target="_top" xlink:title="exceptions.CommandNameNot\lFoundException">
<polygon fill="white" stroke="black" points="109,-441 109,-471 277,-471 277,-441 109,-441"/>
<text text-anchor="start" x="117" y="-459" font-family="Helvetica,sans-Serif" font-size="10.00">exceptions.CommandNameNot</text>
<text text-anchor="middle" x="193" y="-448" font-family="Helvetica,sans-Serif" font-size="10.00">FoundException</text>
</a>
</g>
</g>
<!-- Node1&#45;&gt;Node3 -->
<g id="edge2" class="edge"><title>Node1&#45;&gt;Node3</title>
<path fill="none" stroke="midnightblue" d="M35.0432,-279.947C39.782,-315.633 54.8172,-390.455 100,-431 104.312,-434.869 109.164,-438.147 114.328,-440.924"/>
<polygon fill="midnightblue" stroke="midnightblue" points="38.4965,-279.346 33.8413,-269.829 31.5454,-280.172 38.4965,-279.346"/>
</g>
<!-- Node4 -->
<g id="node4" class="node"><title>Node4</title>
<g id="a_node4"><a xlink:href="d8/d6e/classexceptions_1_1_duplicate_variable_exception.html" target="_top" xlink:title="exceptions.DuplicateVariable\lException">
<polygon fill="white" stroke="black" points="115.5,-392 115.5,-422 270.5,-422 270.5,-392 115.5,-392"/>
<text text-anchor="start" x="123.5" y="-410" font-family="Helvetica,sans-Serif" font-size="10.00">exceptions.DuplicateVariable</text>
<text text-anchor="middle" x="193" y="-399" font-family="Helvetica,sans-Serif" font-size="10.00">Exception</text>
</a>
</g>
</g>
<!-- Node1&#45;&gt;Node4 -->
<g id="edge3" class="edge"><title>Node1&#45;&gt;Node4</title>
<path fill="none" stroke="midnightblue" d="M38.3973,-279.475C46.9241,-306.576 66.1253,-355.33 100,-382 104.942,-385.891 110.444,-389.177 116.23,-391.953"/>
<polygon fill="midnightblue" stroke="midnightblue" points="41.6728,-278.21 35.4702,-269.62 34.9625,-280.203 41.6728,-278.21"/>
</g>
<!-- Node5 -->
<g id="node5" class="node"><title>Node5</title>
<g id="a_node5"><a xlink:href="d3/d42/classexceptions_1_1_invalid_view_setting_exception.html" target="_top" xlink:title="exceptions.InvalidViewSetting\lException">
<polygon fill="white" stroke="black" points="114,-343 114,-373 272,-373 272,-343 114,-343"/>
<text text-anchor="start" x="122" y="-361" font-family="Helvetica,sans-Serif" font-size="10.00">exceptions.InvalidViewSetting</text>
<text text-anchor="middle" x="193" y="-350" font-family="Helvetica,sans-Serif" font-size="10.00">Exception</text>
</a>
</g>
</g>
<!-- Node1&#45;&gt;Node5 -->
<g id="edge4" class="edge"><title>Node1&#45;&gt;Node5</title>
<path fill="none" stroke="midnightblue" d="M44.9739,-278.028C56.973,-294.702 76.9391,-318.963 100,-333 106.362,-336.873 113.33,-340.156 120.495,-342.938"/>
<polygon fill="midnightblue" stroke="midnightblue" points="47.7386,-275.873 39.1583,-269.658 41.9901,-279.867 47.7386,-275.873"/>
</g>
<!-- Node6 -->
<g id="node6" class="node"><title>Node6</title>
<g id="a_node6"><a xlink:href="d7/d8c/classexceptions_1_1_syntax_error_wrong_format.html" target="_top" xlink:title="exceptions.SyntaxErrorWrong\lFormat">
<polygon fill="white" stroke="black" points="114.5,-294 114.5,-324 271.5,-324 271.5,-294 114.5,-294"/>
<text text-anchor="start" x="122.5" y="-312" font-family="Helvetica,sans-Serif" font-size="10.00">exceptions.SyntaxErrorWrong</text>
<text text-anchor="middle" x="193" y="-301" font-family="Helvetica,sans-Serif" font-size="10.00">Format</text>
</a>
</g>
</g>
<!-- Node1&#45;&gt;Node6 -->
<g id="edge5" class="edge"><title>Node1&#45;&gt;Node6</title>
<path fill="none" stroke="midnightblue" d="M67.7984,-273.051C78.1085,-276.759 89.4601,-280.686 100,-284 110.895,-287.426 122.6,-290.821 133.887,-293.953"/>
<polygon fill="midnightblue" stroke="midnightblue" points="68.887,-269.723 58.293,-269.591 66.4925,-276.3 68.887,-269.723"/>
</g>
<!-- Node7 -->
<g id="node7" class="node"><title>Node7</title>
<g id="a_node7"><a xlink:href="d8/d9d/classexceptions_1_1_turtle_not_found_exception.html" target="_top" xlink:title="exceptions.TurtleNotFound\lException">
<polygon fill="white" stroke="black" points="121.5,-245 121.5,-275 264.5,-275 264.5,-245 121.5,-245"/>
<text text-anchor="start" x="129.5" y="-263" font-family="Helvetica,sans-Serif" font-size="10.00">exceptions.TurtleNotFound</text>
<text text-anchor="middle" x="193" y="-252" font-family="Helvetica,sans-Serif" font-size="10.00">Exception</text>
</a>
</g>
</g>
<!-- Node1&#45;&gt;Node7 -->
<g id="edge6" class="edge"><title>Node1&#45;&gt;Node7</title>
<path fill="none" stroke="midnightblue" d="M73.7603,-260C88.241,-260 104.991,-260 121.247,-260"/>
<polygon fill="midnightblue" stroke="midnightblue" points="73.6568,-256.5 63.6568,-260 73.6568,-263.5 73.6568,-256.5"/>
</g>
<!-- Node8 -->
<g id="node8" class="node"><title>Node8</title>
<g id="a_node8"><a xlink:href="d0/d42/classexceptions_1_1_u_d_command_not_found_exception.html" target="_top" xlink:title="exceptions.UDCommandNotFound\lException">
<polygon fill="white" stroke="black" points="101.5,-196 101.5,-226 284.5,-226 284.5,-196 101.5,-196"/>
<text text-anchor="start" x="109.5" y="-214" font-family="Helvetica,sans-Serif" font-size="10.00">exceptions.UDCommandNotFound</text>
<text text-anchor="middle" x="193" y="-203" font-family="Helvetica,sans-Serif" font-size="10.00">Exception</text>
</a>
</g>
</g>
<!-- Node1&#45;&gt;Node8 -->
<g id="edge7" class="edge"><title>Node1&#45;&gt;Node8</title>
<path fill="none" stroke="midnightblue" d="M67.7984,-246.949C78.1085,-243.241 89.4601,-239.314 100,-236 110.895,-232.574 122.6,-229.179 133.887,-226.047"/>
<polygon fill="midnightblue" stroke="midnightblue" points="66.4925,-243.7 58.293,-250.409 68.887,-250.277 66.4925,-243.7"/>
</g>
<!-- Node9 -->
<g id="node9" class="node"><title>Node9</title>
<g id="a_node9"><a xlink:href="d2/d2f/classexceptions_1_1_variable_creation_exception.html" target="_top" xlink:title="exceptions.VariableCreation\lException">
<polygon fill="white" stroke="black" points="118,-147 118,-177 268,-177 268,-147 118,-147"/>
<text text-anchor="start" x="126" y="-165" font-family="Helvetica,sans-Serif" font-size="10.00">exceptions.VariableCreation</text>
<text text-anchor="middle" x="193" y="-154" font-family="Helvetica,sans-Serif" font-size="10.00">Exception</text>
</a>
</g>
</g>
<!-- Node1&#45;&gt;Node9 -->
<g id="edge8" class="edge"><title>Node1&#45;&gt;Node9</title>
<path fill="none" stroke="midnightblue" d="M44.9739,-241.972C56.973,-225.298 76.9391,-201.037 100,-187 106.362,-183.127 113.33,-179.844 120.495,-177.062"/>
<polygon fill="midnightblue" stroke="midnightblue" points="41.9901,-240.133 39.1583,-250.342 47.7386,-244.127 41.9901,-240.133"/>
</g>
<!-- Node10 -->
<g id="node10" class="node"><title>Node10</title>
<g id="a_node10"><a xlink:href="d8/dea/classexceptions_1_1_variable_creation_invalid_value_exception.html" target="_top" xlink:title="exceptions.VariableCreation\lInvalidValueException">
<polygon fill="white" stroke="black" points="118,-98 118,-128 268,-128 268,-98 118,-98"/>
<text text-anchor="start" x="126" y="-116" font-family="Helvetica,sans-Serif" font-size="10.00">exceptions.VariableCreation</text>
<text text-anchor="middle" x="193" y="-105" font-family="Helvetica,sans-Serif" font-size="10.00">InvalidValueException</text>
</a>
</g>
</g>
<!-- Node1&#45;&gt;Node10 -->
<g id="edge9" class="edge"><title>Node1&#45;&gt;Node10</title>
<path fill="none" stroke="midnightblue" d="M38.3973,-240.525C46.9241,-213.424 66.1253,-164.67 100,-138 105.332,-133.802 111.316,-130.308 117.606,-127.399"/>
<polygon fill="midnightblue" stroke="midnightblue" points="34.9625,-239.797 35.4702,-250.38 41.6728,-241.79 34.9625,-239.797"/>
</g>
<!-- Node11 -->
<g id="node11" class="node"><title>Node11</title>
<g id="a_node11"><a xlink:href="d8/d2a/classexceptions_1_1_variable_not_found_exception.html" target="_top" xlink:title="exceptions.VariableNotFound\lException">
<polygon fill="white" stroke="black" points="115,-49 115,-79 271,-79 271,-49 115,-49"/>
<text text-anchor="start" x="123" y="-67" font-family="Helvetica,sans-Serif" font-size="10.00">exceptions.VariableNotFound</text>
<text text-anchor="middle" x="193" y="-56" font-family="Helvetica,sans-Serif" font-size="10.00">Exception</text>
</a>
</g>
</g>
<!-- Node1&#45;&gt;Node11 -->
<g id="edge10" class="edge"><title>Node1&#45;&gt;Node11</title>
<path fill="none" stroke="midnightblue" d="M35.0432,-240.053C39.782,-204.367 54.8172,-129.545 100,-89 104.435,-85.0205 109.442,-81.6658 114.772,-78.8389"/>
<polygon fill="midnightblue" stroke="midnightblue" points="31.5454,-239.828 33.8413,-250.171 38.4965,-240.654 31.5454,-239.828"/>
</g>
<!-- Node12 -->
<g id="node12" class="node"><title>Node12</title>
<g id="a_node12"><a xlink:href="d7/d42/classexceptions_1_1_variable_wrong_type_exception.html" target="_top" xlink:title="exceptions.VariableWrong\lTypeException">
<polygon fill="white" stroke="black" points="123.5,-0 123.5,-30 262.5,-30 262.5,-0 123.5,-0"/>
<text text-anchor="start" x="131.5" y="-18" font-family="Helvetica,sans-Serif" font-size="10.00">exceptions.VariableWrong</text>
<text text-anchor="middle" x="193" y="-7" font-family="Helvetica,sans-Serif" font-size="10.00">TypeException</text>
</a>
</g>
</g>
<!-- Node1&#45;&gt;Node12 -->
<g id="edge11" class="edge"><title>Node1&#45;&gt;Node12</title>
<path fill="none" stroke="midnightblue" d="M33.008,-240.22C34.1398,-197.344 43.0378,-95.2624 100,-40 106.653,-33.546 114.797,-28.7193 123.462,-25.1168"/>
<polygon fill="midnightblue" stroke="midnightblue" points="29.5053,-240.389 32.8615,-250.438 36.5046,-240.49 29.5053,-240.389"/>
</g>
</g>
</svg>
