<?xml version="1.0" encoding="UTF-8" standalone="no"?>
<!DOCTYPE svg PUBLIC "-//W3C//DTD SVG 1.1//EN"
 "http://www.w3.org/Graphics/SVG/1.1/DTD/svg11.dtd">
<!-- Generated by graphviz version 2.36.0 (20140111.2315)
 -->
<!-- Title: view.toolbar.TurtlePenColorToolbarItem Pages: 1 -->
<svg width="150pt" height="220pt"
 viewBox="0.00 0.00 150.00 220.00" xmlns="http://www.w3.org/2000/svg" xmlns:xlink="http://www.w3.org/1999/xlink">
<g id="graph0" class="graph" transform="scale(1 1) rotate(0) translate(4 216)">
<title>view.toolbar.TurtlePenColorToolbarItem</title>
<polygon fill="white" stroke="none" points="-4,4 -4,-216 146,-216 146,4 -4,4"/>
<!-- Node1 -->
<g id="node1" class="node"><title>Node1</title>
<polygon fill="#bfbfbf" stroke="black" points="-0.5,-1 -0.5,-31 142.5,-31 142.5,-1 -0.5,-1"/>
<text text-anchor="start" x="7.5" y="-19" font-family="Helvetica,sans-Serif" font-size="10.00">view.toolbar.TurtlePenColor</text>
<text text-anchor="middle" x="71" y="-8" font-family="Helvetica,sans-Serif" font-size="10.00">ToolbarItem</text>
</g>
<!-- Node2 -->
<g id="node2" class="node"><title>Node2</title>
<g id="a_node2"><a xlink:href="../../d2/d72/classview_1_1toolbar_1_1_turtle_specific_toolbar_item.html" target="_top" xlink:title="view.toolbar.TurtleSpecific\lToolbarItem">
<polygon fill="white" stroke="black" points="2.5,-69 2.5,-99 139.5,-99 139.5,-69 2.5,-69"/>
<text text-anchor="start" x="10.5" y="-87" font-family="Helvetica,sans-Serif" font-size="10.00">view.toolbar.TurtleSpecific</text>
<text text-anchor="middle" x="71" y="-76" font-family="Helvetica,sans-Serif" font-size="10.00">ToolbarItem</text>
</a>
</g>
</g>
<!-- Node2&#45;&gt;Node1 -->
<g id="edge1" class="edge"><title>Node2&#45;&gt;Node1</title>
<path fill="none" stroke="midnightblue" d="M71,-58.5322C71,-49.3606 71,-39.2449 71,-31.2931"/>
<polygon fill="midnightblue" stroke="midnightblue" points="67.5001,-58.6789 71,-68.679 74.5001,-58.679 67.5001,-58.6789"/>
</g>
<!-- Node3 -->
<g id="node3" class="node"><title>Node3</title>
<g id="a_node3"><a xlink:href="../../dc/de6/classview_1_1toolbar_1_1_toolbar_item.html" target="_top" xlink:title="view.toolbar.ToolbarItem">
<polygon fill="white" stroke="black" points="5.5,-136.5 5.5,-155.5 136.5,-155.5 136.5,-136.5 5.5,-136.5"/>
<text text-anchor="middle" x="71" y="-143.5" font-family="Helvetica,sans-Serif" font-size="10.00">view.toolbar.ToolbarItem</text>
</a>
</g>
</g>
<!-- Node3&#45;&gt;Node2 -->
<g id="edge2" class="edge"><title>Node3&#45;&gt;Node2</title>
<path fill="none" stroke="midnightblue" d="M71,-126.371C71,-117.585 71,-107.272 71,-99.1408"/>
<polygon fill="midnightblue" stroke="midnightblue" points="67.5001,-126.403 71,-136.403 74.5001,-126.403 67.5001,-126.403"/>
</g>
<!-- Node4 -->
<g id="node4" class="node"><title>Node4</title>
<polygon fill="white" stroke="#bfbfbf" points="50,-192.5 50,-211.5 92,-211.5 92,-192.5 50,-192.5"/>
<text text-anchor="middle" x="71" y="-199.5" font-family="Helvetica,sans-Serif" font-size="10.00">HBox</text>
</g>
<!-- Node4&#45;&gt;Node3 -->
<g id="edge3" class="edge"><title>Node4&#45;&gt;Node3</title>
<path fill="none" stroke="midnightblue" d="M71,-181.805C71,-172.91 71,-162.78 71,-155.751"/>
<polygon fill="midnightblue" stroke="midnightblue" points="67.5001,-182.083 71,-192.083 74.5001,-182.083 67.5001,-182.083"/>
</g>
</g>
</svg>
