<?xml version="1.0" encoding="UTF-8" standalone="no"?>
<!DOCTYPE svg PUBLIC "-//W3C//DTD SVG 1.1//EN"
 "http://www.w3.org/Graphics/SVG/1.1/DTD/svg11.dtd">
<!-- Generated by graphviz version 2.36.0 (20140111.2315)
 -->
<!-- Title: model.Model.parse Pages: 1 -->
<svg width="1180pt" height="345pt"
 viewBox="0.00 0.00 1180.00 345.00" xmlns="http://www.w3.org/2000/svg" xmlns:xlink="http://www.w3.org/1999/xlink">
<g id="graph0" class="graph" transform="scale(1 1) rotate(0) translate(4 341)">
<title>model.Model.parse</title>
<polygon fill="white" stroke="none" points="-4,4 -4,-341 1176,-341 1176,4 -4,4"/>
<!-- Node1 -->
<g id="node1" class="node"><title>Node1</title>
<polygon fill="#bfbfbf" stroke="black" points="0,-244.5 0,-263.5 108,-263.5 108,-244.5 0,-244.5"/>
<text text-anchor="middle" x="54" y="-251.5" font-family="Helvetica,sans-Serif" font-size="10.00">model.Model.parse</text>
</g>
<!-- Node2 -->
<g id="node2" class="node"><title>Node2</title>
<g id="a_node2"><a xlink:href="../../db/df9/classmodel_1_1_command_history.html#a435edf344accb9115ca6183eb28594df" target="_top" xlink:title="model.CommandHistory.add\lCommand">
<polygon fill="white" stroke="black" points="164.5,-304 164.5,-334 317.5,-334 317.5,-304 164.5,-304"/>
<text text-anchor="start" x="172.5" y="-322" font-family="Helvetica,sans-Serif" font-size="10.00">model.CommandHistory.add</text>
<text text-anchor="middle" x="241" y="-311" font-family="Helvetica,sans-Serif" font-size="10.00">Command</text>
</a>
</g>
</g>
<!-- Node1&#45;&gt;Node2 -->
<g id="edge1" class="edge"><title>Node1&#45;&gt;Node2</title>
<path fill="none" stroke="midnightblue" d="M75.2061,-263.516C93.0548,-271.706 119.915,-283.511 144,-292 153.029,-295.182 162.636,-298.249 172.15,-301.103"/>
<polygon fill="midnightblue" stroke="midnightblue" points="171.422,-304.536 182.003,-303.994 173.394,-297.82 171.422,-304.536"/>
</g>
<!-- Node4 -->
<g id="node4" class="node"><title>Node4</title>
<g id="a_node4"><a xlink:href="../../d1/d4b/classparser_1_1nodes_1_1_command_root.html#ad17f6840005e54b498a8857f161cd6b1" target="_top" xlink:title="parser.nodes.CommandRoot.execute">
<polygon fill="white" stroke="black" points="144,-263.5 144,-282.5 338,-282.5 338,-263.5 144,-263.5"/>
<text text-anchor="middle" x="241" y="-270.5" font-family="Helvetica,sans-Serif" font-size="10.00">parser.nodes.CommandRoot.execute</text>
</a>
</g>
</g>
<!-- Node1&#45;&gt;Node4 -->
<g id="edge3" class="edge"><title>Node1&#45;&gt;Node4</title>
<path fill="none" stroke="midnightblue" d="M108.014,-259.445C117.303,-260.399 127.246,-261.42 137.353,-262.458"/>
<polygon fill="midnightblue" stroke="midnightblue" points="137.19,-265.96 147.496,-263.5 137.906,-258.996 137.19,-265.96"/>
</g>
<!-- Node7 -->
<g id="node7" class="node"><title>Node7</title>
<g id="a_node7"><a xlink:href="../../d7/dab/classmodel_1_1_state.html#a494a9cb26df072d500f0b6fa941c2779" target="_top" xlink:title="model.State.getCommandHistory">
<polygon fill="white" stroke="black" points="151.5,-225.5 151.5,-244.5 330.5,-244.5 330.5,-225.5 151.5,-225.5"/>
<text text-anchor="middle" x="241" y="-232.5" font-family="Helvetica,sans-Serif" font-size="10.00">model.State.getCommandHistory</text>
</a>
</g>
</g>
<!-- Node1&#45;&gt;Node7 -->
<g id="edge7" class="edge"><title>Node1&#45;&gt;Node7</title>
<path fill="none" stroke="midnightblue" d="M108.014,-248.555C118.501,-247.478 129.823,-246.315 141.272,-245.14"/>
<polygon fill="midnightblue" stroke="midnightblue" points="141.759,-248.608 151.349,-244.105 141.044,-241.645 141.759,-248.608"/>
</g>
<!-- Node8 -->
<g id="node8" class="node"><title>Node8</title>
<g id="a_node8"><a xlink:href="../../d4/d3a/classparser_1_1parser_1_1_parser.html#a51f4baa200eb0c94b804119b1439a1aa" target="_top" xlink:title="parser.parser.Parser.parse">
<polygon fill="white" stroke="black" points="170,-150.5 170,-169.5 312,-169.5 312,-150.5 170,-150.5"/>
<text text-anchor="middle" x="241" y="-157.5" font-family="Helvetica,sans-Serif" font-size="10.00">parser.parser.Parser.parse</text>
</a>
</g>
</g>
<!-- Node1&#45;&gt;Node8 -->
<g id="edge8" class="edge"><title>Node1&#45;&gt;Node8</title>
<path fill="none" stroke="midnightblue" d="M73.7569,-244.469C106.445,-227.861 173.997,-193.537 212.163,-174.144"/>
<polygon fill="midnightblue" stroke="midnightblue" points="213.864,-177.206 221.193,-169.556 210.693,-170.965 213.864,-177.206"/>
</g>
<!-- Node3 -->
<g id="node3" class="node"><title>Node3</title>
<g id="a_node3"><a xlink:href="../../db/df9/classmodel_1_1_command_history.html#ac471d294d4221291007a86a8764a644d" target="_top" xlink:title="model.CommandHistory.notify\lObservers">
<polygon fill="white" stroke="black" points="393.5,-307 393.5,-337 554.5,-337 554.5,-307 393.5,-307"/>
<text text-anchor="start" x="401.5" y="-325" font-family="Helvetica,sans-Serif" font-size="10.00">model.CommandHistory.notify</text>
<text text-anchor="middle" x="474" y="-314" font-family="Helvetica,sans-Serif" font-size="10.00">Observers</text>
</a>
</g>
</g>
<!-- Node2&#45;&gt;Node3 -->
<g id="edge2" class="edge"><title>Node2&#45;&gt;Node3</title>
<path fill="none" stroke="midnightblue" d="M317.638,-319.982C338.539,-320.254 361.425,-320.551 383.052,-320.832"/>
<polygon fill="midnightblue" stroke="midnightblue" points="383.175,-324.334 393.22,-320.964 383.266,-317.334 383.175,-324.334"/>
</g>
<!-- Node5 -->
<g id="node5" class="node"><title>Node5</title>
<g id="a_node5"><a xlink:href="../../d4/d1c/classparser_1_1nodes_1_1_list_node.html#a8f67ed3b41ee000feaf89f783def5697" target="_top" xlink:title="parser.nodes.ListNode.execute\lNodes">
<polygon fill="white" stroke="black" points="391.5,-258 391.5,-288 556.5,-288 556.5,-258 391.5,-258"/>
<text text-anchor="start" x="399.5" y="-276" font-family="Helvetica,sans-Serif" font-size="10.00">parser.nodes.ListNode.execute</text>
<text text-anchor="middle" x="474" y="-265" font-family="Helvetica,sans-Serif" font-size="10.00">Nodes</text>
</a>
</g>
</g>
<!-- Node4&#45;&gt;Node5 -->
<g id="edge4" class="edge"><title>Node4&#45;&gt;Node5</title>
<path fill="none" stroke="midnightblue" d="M338.292,-273C352.438,-273 366.979,-273 381.034,-273"/>
<polygon fill="midnightblue" stroke="midnightblue" points="381.171,-276.5 391.171,-273 381.171,-269.5 381.171,-276.5"/>
</g>
<!-- Node6 -->
<g id="node6" class="node"><title>Node6</title>
<g id="a_node6"><a xlink:href="../../d4/d1c/classparser_1_1nodes_1_1_list_node.html#a82a3418e343a5d6ed112be4b7b2b0282" target="_top" xlink:title="parser.nodes.ListNode.execute">
<polygon fill="white" stroke="black" points="628.5,-263.5 628.5,-282.5 793.5,-282.5 793.5,-263.5 628.5,-263.5"/>
<text text-anchor="middle" x="711" y="-270.5" font-family="Helvetica,sans-Serif" font-size="10.00">parser.nodes.ListNode.execute</text>
</a>
</g>
</g>
<!-- Node5&#45;&gt;Node6 -->
<g id="edge5" class="edge"><title>Node5&#45;&gt;Node6</title>
<path fill="none" stroke="midnightblue" d="M556.532,-266.539C576.378,-266.211 597.739,-266.162 618.033,-266.394"/>
<polygon fill="midnightblue" stroke="midnightblue" points="618.167,-269.896 628.214,-266.535 618.264,-262.896 618.167,-269.896"/>
</g>
<!-- Node6&#45;&gt;Node5 -->
<g id="edge6" class="edge"><title>Node6&#45;&gt;Node5</title>
<path fill="none" stroke="midnightblue" d="M628.214,-279.465C608.355,-279.791 586.993,-279.837 566.708,-279.603"/>
<polygon fill="midnightblue" stroke="midnightblue" points="566.58,-276.101 556.532,-279.461 566.482,-283.101 566.58,-276.101"/>
</g>
<!-- Node9 -->
<g id="node9" class="node"><title>Node9</title>
<g id="a_node9"><a xlink:href="../../de/d16/classparser_1_1parser_1_1_regex.html#a9da6d787de06ba7ea76d52326b532bd1" target="_top" xlink:title="parser.parser.Regex.getInstance">
<polygon fill="white" stroke="black" points="626,-213.5 626,-232.5 796,-232.5 796,-213.5 626,-213.5"/>
<text text-anchor="middle" x="711" y="-220.5" font-family="Helvetica,sans-Serif" font-size="10.00">parser.parser.Regex.getInstance</text>
</a>
</g>
</g>
<!-- Node8&#45;&gt;Node9 -->
<g id="edge9" class="edge"><title>Node8&#45;&gt;Node9</title>
<path fill="none" stroke="midnightblue" d="M261.996,-169.686C287.363,-181.438 332.781,-200.707 374,-209 454.438,-225.184 547.819,-227.818 615.691,-226.902"/>
<polygon fill="midnightblue" stroke="midnightblue" points="615.996,-230.397 625.937,-226.734 615.881,-223.398 615.996,-230.397"/>
</g>
<!-- Node12 -->
<g id="node12" class="node"><title>Node12</title>
<g id="a_node12"><a xlink:href="../../de/d16/classparser_1_1parser_1_1_regex.html#a5d526d752521b953619721c6d3e930bd" target="_top" xlink:title="parser.parser.Regex.getType">
<polygon fill="white" stroke="black" points="398.5,-82.5 398.5,-101.5 549.5,-101.5 549.5,-82.5 398.5,-82.5"/>
<text text-anchor="middle" x="474" y="-89.5" font-family="Helvetica,sans-Serif" font-size="10.00">parser.parser.Regex.getType</text>
</a>
</g>
</g>
<!-- Node8&#45;&gt;Node12 -->
<g id="edge12" class="edge"><title>Node8&#45;&gt;Node12</title>
<path fill="none" stroke="midnightblue" d="M264.514,-150.335C290.49,-139.492 334.684,-121.988 374,-111 383.899,-108.233 394.467,-105.736 404.875,-103.53"/>
<polygon fill="midnightblue" stroke="midnightblue" points="405.682,-106.938 414.779,-101.505 404.28,-100.08 405.682,-106.938"/>
</g>
<!-- Node15 -->
<g id="node15" class="node"><title>Node15</title>
<g id="a_node15"><a xlink:href="../../d2/d66/classparser_1_1parser_1_1_command_factory.html#a2c91b8ed8cbfcb588f6e32f7363eefd9" target="_top" xlink:title="parser.parser.CommandFactory.get\lInstance">
<polygon fill="white" stroke="black" points="381.5,-16 381.5,-46 566.5,-46 566.5,-16 381.5,-16"/>
<text text-anchor="start" x="389.5" y="-34" font-family="Helvetica,sans-Serif" font-size="10.00">parser.parser.CommandFactory.get</text>
<text text-anchor="middle" x="474" y="-23" font-family="Helvetica,sans-Serif" font-size="10.00">Instance</text>
</a>
</g>
</g>
<!-- Node8&#45;&gt;Node15 -->
<g id="edge15" class="edge"><title>Node8&#45;&gt;Node15</title>
<path fill="none" stroke="midnightblue" d="M254.997,-150.277C278.12,-133.246 328.279,-97.5039 374,-73 389.535,-64.674 407.076,-56.777 423.03,-50.125"/>
<polygon fill="midnightblue" stroke="midnightblue" points="424.801,-53.1819 432.727,-46.1513 422.147,-46.7047 424.801,-53.1819"/>
</g>
<!-- Node17 -->
<g id="node17" class="node"><title>Node17</title>
<g id="a_node17"><a xlink:href="../../d2/d66/classparser_1_1parser_1_1_command_factory.html#a0dc44bc9972a4652d98146b5e30a5e72" target="_top" xlink:title="parser.parser.CommandFactory.create\lCommand">
<polygon fill="white" stroke="black" points="374,-170 374,-200 574,-200 574,-170 374,-170"/>
<text text-anchor="start" x="382" y="-188" font-family="Helvetica,sans-Serif" font-size="10.00">parser.parser.CommandFactory.create</text>
<text text-anchor="middle" x="474" y="-177" font-family="Helvetica,sans-Serif" font-size="10.00">Command</text>
</a>
</g>
</g>
<!-- Node8&#45;&gt;Node17 -->
<g id="edge17" class="edge"><title>Node8&#45;&gt;Node17</title>
<path fill="none" stroke="midnightblue" d="M312.248,-167.603C328.449,-169.356 346.06,-171.262 363.488,-173.148"/>
<polygon fill="midnightblue" stroke="midnightblue" points="363.398,-176.659 373.717,-174.255 364.152,-169.699 363.398,-176.659"/>
</g>
<!-- Node19 -->
<g id="node19" class="node"><title>Node19</title>
<g id="a_node19"><a xlink:href="../../dc/d09/classparser_1_1parser_1_1_to_factory.html#ac5256eea6647641f83b40c5a350a1518" target="_top" xlink:title="parser.parser.ToFactory.get\lInstance">
<polygon fill="white" stroke="black" points="402,-121 402,-151 546,-151 546,-121 402,-121"/>
<text text-anchor="start" x="410" y="-139" font-family="Helvetica,sans-Serif" font-size="10.00">parser.parser.ToFactory.get</text>
<text text-anchor="middle" x="474" y="-128" font-family="Helvetica,sans-Serif" font-size="10.00">Instance</text>
</a>
</g>
</g>
<!-- Node8&#45;&gt;Node19 -->
<g id="edge21" class="edge"><title>Node8&#45;&gt;Node19</title>
<path fill="none" stroke="midnightblue" d="M312.248,-152.701C337.325,-150.096 365.783,-147.139 391.712,-144.446"/>
<polygon fill="midnightblue" stroke="midnightblue" points="392.305,-147.903 401.89,-143.388 391.582,-140.94 392.305,-147.903"/>
</g>
<!-- Node10 -->
<g id="node10" class="node"><title>Node10</title>
<g id="a_node10"><a xlink:href="../../de/d16/classparser_1_1parser_1_1_regex.html#a1fd187b9f2b45d0707cb10057e80d7ff" target="_top" xlink:title="parser.parser.Regex.Regex">
<polygon fill="white" stroke="black" points="849.5,-213.5 849.5,-232.5 992.5,-232.5 992.5,-213.5 849.5,-213.5"/>
<text text-anchor="middle" x="921" y="-220.5" font-family="Helvetica,sans-Serif" font-size="10.00">parser.parser.Regex.Regex</text>
</a>
</g>
</g>
<!-- Node9&#45;&gt;Node10 -->
<g id="edge10" class="edge"><title>Node9&#45;&gt;Node10</title>
<path fill="none" stroke="midnightblue" d="M796.002,-223C810.246,-223 825.011,-223 839.171,-223"/>
<polygon fill="midnightblue" stroke="midnightblue" points="839.36,-226.5 849.36,-223 839.36,-219.5 839.36,-226.5"/>
</g>
<!-- Node11 -->
<g id="node11" class="node"><title>Node11</title>
<g id="a_node11"><a xlink:href="../../de/d16/classparser_1_1parser_1_1_regex.html#a413da3364c9c07a315222d34d7f0fc56" target="_top" xlink:title="parser.parser.Regex.make\lPatterns">
<polygon fill="white" stroke="black" points="1030.5,-208 1030.5,-238 1171.5,-238 1171.5,-208 1030.5,-208"/>
<text text-anchor="start" x="1038.5" y="-226" font-family="Helvetica,sans-Serif" font-size="10.00">parser.parser.Regex.make</text>
<text text-anchor="middle" x="1101" y="-215" font-family="Helvetica,sans-Serif" font-size="10.00">Patterns</text>
</a>
</g>
</g>
<!-- Node10&#45;&gt;Node11 -->
<g id="edge11" class="edge"><title>Node10&#45;&gt;Node11</title>
<path fill="none" stroke="midnightblue" d="M992.606,-223C1001.63,-223 1010.92,-223 1020.08,-223"/>
<polygon fill="midnightblue" stroke="midnightblue" points="1020.35,-226.5 1030.35,-223 1020.35,-219.5 1020.35,-226.5"/>
</g>
<!-- Node13 -->
<g id="node13" class="node"><title>Node13</title>
<g id="a_node13"><a xlink:href="../../de/d16/classparser_1_1parser_1_1_regex.html#a162d120a60bdb10238c3d31c4f5f6903" target="_top" xlink:title="parser.parser.Regex.match">
<polygon fill="white" stroke="black" points="848.5,-112.5 848.5,-131.5 993.5,-131.5 993.5,-112.5 848.5,-112.5"/>
<text text-anchor="middle" x="921" y="-119.5" font-family="Helvetica,sans-Serif" font-size="10.00">parser.parser.Regex.match</text>
</a>
</g>
</g>
<!-- Node12&#45;&gt;Node13 -->
<g id="edge13" class="edge"><title>Node12&#45;&gt;Node13</title>
<path fill="none" stroke="midnightblue" d="M526.376,-82.4902C592.947,-71.8426 712.298,-58.4696 812,-78 841.119,-83.704 872.293,-97.2974 893.626,-107.878"/>
<polygon fill="midnightblue" stroke="midnightblue" points="892.192,-111.075 902.692,-112.488 895.365,-104.835 892.192,-111.075"/>
</g>
<!-- Node14 -->
<g id="node14" class="node"><title>Node14</title>
<g id="a_node14"><a xlink:href="../../d7/dda/enumparser_1_1parser_1_1_general_type.html#af35aa06f434667ca22f66abcc181eb30" target="_top" xlink:title="parser.parser.GeneralType.findType">
<polygon fill="white" stroke="black" points="620,-87.5 620,-106.5 802,-106.5 802,-87.5 620,-87.5"/>
<text text-anchor="middle" x="711" y="-94.5" font-family="Helvetica,sans-Serif" font-size="10.00">parser.parser.GeneralType.findType</text>
</a>
</g>
</g>
<!-- Node12&#45;&gt;Node14 -->
<g id="edge14" class="edge"><title>Node12&#45;&gt;Node14</title>
<path fill="none" stroke="midnightblue" d="M549.678,-93.5889C568.764,-93.995 589.595,-94.4382 609.736,-94.8667"/>
<polygon fill="midnightblue" stroke="midnightblue" points="609.802,-98.3688 619.874,-95.0824 609.951,-91.3704 609.802,-98.3688"/>
</g>
<!-- Node16 -->
<g id="node16" class="node"><title>Node16</title>
<g id="a_node16"><a xlink:href="../../d2/d66/classparser_1_1parser_1_1_command_factory.html#ac81b65f58a35eb24a9f92303cf7f491e" target="_top" xlink:title="parser.parser.CommandFactory.\lCommandFactory">
<polygon fill="white" stroke="black" points="626.5,-0 626.5,-30 795.5,-30 795.5,-0 626.5,-0"/>
<text text-anchor="start" x="634.5" y="-18" font-family="Helvetica,sans-Serif" font-size="10.00">parser.parser.CommandFactory.</text>
<text text-anchor="middle" x="711" y="-7" font-family="Helvetica,sans-Serif" font-size="10.00">CommandFactory</text>
</a>
</g>
</g>
<!-- Node15&#45;&gt;Node16 -->
<g id="edge16" class="edge"><title>Node15&#45;&gt;Node16</title>
<path fill="none" stroke="midnightblue" d="M566.53,-24.7682C582.859,-23.6564 599.892,-22.4967 616.281,-21.3809"/>
<polygon fill="midnightblue" stroke="midnightblue" points="616.651,-24.8639 626.39,-20.6926 616.176,-17.88 616.651,-24.8639"/>
</g>
<!-- Node17&#45;&gt;Node9 -->
<g id="edge18" class="edge"><title>Node17&#45;&gt;Node9</title>
<path fill="none" stroke="midnightblue" d="M567.878,-200.019C592.353,-203.976 618.32,-208.175 641.269,-211.886"/>
<polygon fill="midnightblue" stroke="midnightblue" points="640.814,-215.358 651.244,-213.499 641.931,-208.448 640.814,-215.358"/>
</g>
<!-- Node18 -->
<g id="node18" class="node"><title>Node18</title>
<g id="a_node18"><a xlink:href="../../de/d16/classparser_1_1parser_1_1_regex.html#aa4a03f1544e5043ea8da8f12ab4ece23" target="_top" xlink:title="parser.parser.Regex.getCommandType">
<polygon fill="white" stroke="black" points="610.5,-175.5 610.5,-194.5 811.5,-194.5 811.5,-175.5 610.5,-175.5"/>
<text text-anchor="middle" x="711" y="-182.5" font-family="Helvetica,sans-Serif" font-size="10.00">parser.parser.Regex.getCommandType</text>
</a>
</g>
</g>
<!-- Node17&#45;&gt;Node18 -->
<g id="edge19" class="edge"><title>Node17&#45;&gt;Node18</title>
<path fill="none" stroke="midnightblue" d="M574.321,-185C582.874,-185 591.559,-185 600.189,-185"/>
<polygon fill="midnightblue" stroke="midnightblue" points="600.282,-188.5 610.282,-185 600.282,-181.5 600.282,-188.5"/>
</g>
<!-- Node18&#45;&gt;Node13 -->
<g id="edge20" class="edge"><title>Node18&#45;&gt;Node13</title>
<path fill="none" stroke="midnightblue" d="M769.026,-175.453C783.19,-172.574 798.25,-169.075 812,-165 839.015,-156.993 868.687,-144.93 890.082,-135.616"/>
<polygon fill="midnightblue" stroke="midnightblue" points="891.553,-138.793 899.29,-131.555 888.728,-132.388 891.553,-138.793"/>
</g>
<!-- Node20 -->
<g id="node20" class="node"><title>Node20</title>
<g id="a_node20"><a xlink:href="../../dc/d09/classparser_1_1parser_1_1_to_factory.html#a432d9b50bd2cbb0a73da7fc68b25bd4c" target="_top" xlink:title="parser.parser.ToFactory.\lToFactory">
<polygon fill="white" stroke="black" points="647,-126 647,-156 775,-156 775,-126 647,-126"/>
<text text-anchor="start" x="655" y="-144" font-family="Helvetica,sans-Serif" font-size="10.00">parser.parser.ToFactory.</text>
<text text-anchor="middle" x="711" y="-133" font-family="Helvetica,sans-Serif" font-size="10.00">ToFactory</text>
</a>
</g>
</g>
<!-- Node19&#45;&gt;Node20 -->
<g id="edge22" class="edge"><title>Node19&#45;&gt;Node20</title>
<path fill="none" stroke="midnightblue" d="M546.145,-137.514C574.785,-138.123 607.801,-138.826 636.658,-139.44"/>
<polygon fill="midnightblue" stroke="midnightblue" points="636.605,-142.939 646.678,-139.653 636.754,-135.941 636.605,-142.939"/>
</g>
</g>
</svg>
