<?xml version="1.0" encoding="UTF-8" standalone="no"?>
<!DOCTYPE svg PUBLIC "-//W3C//DTD SVG 1.1//EN"
 "http://www.w3.org/Graphics/SVG/1.1/DTD/svg11.dtd">
<!-- Generated by graphviz version 2.36.0 (20140111.2315)
 -->
<!-- Title: model.Model.getInstance Pages: 1 -->
<svg width="990pt" height="273pt"
 viewBox="0.00 0.00 990.00 273.00" xmlns="http://www.w3.org/2000/svg" xmlns:xlink="http://www.w3.org/1999/xlink">
<g id="graph0" class="graph" transform="scale(1 1) rotate(0) translate(4 269)">
<title>model.Model.getInstance</title>
<polygon fill="white" stroke="none" points="-4,4 -4,-269 986,-269 986,4 -4,4"/>
<!-- Node1 -->
<g id="node1" class="node"><title>Node1</title>
<polygon fill="#bfbfbf" stroke="black" points="0.5,-142.5 0.5,-161.5 137.5,-161.5 137.5,-142.5 0.5,-142.5"/>
<text text-anchor="middle" x="69" y="-149.5" font-family="Helvetica,sans-Serif" font-size="10.00">model.Model.getInstance</text>
</g>
<!-- Node2 -->
<g id="node2" class="node"><title>Node2</title>
<g id="a_node2"><a xlink:href="../../d3/dbe/classview_1_1_view.html#ab8b25d25b79752feed7b786ed496f642" target="_top" xlink:title="view.View.loadLibrary">
<polygon fill="white" stroke="black" points="212,-235.5 212,-254.5 328,-254.5 328,-235.5 212,-235.5"/>
<text text-anchor="middle" x="270" y="-242.5" font-family="Helvetica,sans-Serif" font-size="10.00">view.View.loadLibrary</text>
</a>
</g>
</g>
<!-- Node1&#45;&gt;Node2 -->
<g id="edge1" class="edge"><title>Node1&#45;&gt;Node2</title>
<path fill="none" stroke="midnightblue" d="M88.2367,-168.308C107.977,-185.076 141.07,-210.697 174,-225 185.749,-230.103 198.895,-233.939 211.573,-236.81"/>
<polygon fill="midnightblue" stroke="midnightblue" points="90.484,-165.624 80.6337,-161.723 85.9011,-170.916 90.484,-165.624"/>
</g>
<!-- Node3 -->
<g id="node3" class="node"><title>Node3</title>
<g id="a_node3"><a xlink:href="../../da/df5/classview_1_1listwindows_1_1_commands_list_window.html#a3611428a65d6e7a436971f1b237e644e" target="_top" xlink:title="view.listwindows.Commands\lListWindow.parseCommand">
<polygon fill="white" stroke="black" points="195,-186 195,-216 345,-216 345,-186 195,-186"/>
<text text-anchor="start" x="203" y="-204" font-family="Helvetica,sans-Serif" font-size="10.00">view.listwindows.Commands</text>
<text text-anchor="middle" x="270" y="-193" font-family="Helvetica,sans-Serif" font-size="10.00">ListWindow.parseCommand</text>
</a>
</g>
</g>
<!-- Node1&#45;&gt;Node3 -->
<g id="edge2" class="edge"><title>Node1&#45;&gt;Node3</title>
<path fill="none" stroke="midnightblue" d="M118.792,-164.014C145.681,-170.635 179.312,-178.916 207.932,-185.963"/>
<polygon fill="midnightblue" stroke="midnightblue" points="119.388,-160.556 108.842,-161.564 117.715,-167.353 119.388,-160.556"/>
</g>
<!-- Node6 -->
<g id="node6" class="node"><title>Node6</title>
<g id="a_node6"><a xlink:href="../../db/d98/classview_1_1components_1_1_command_port.html#a687e2098038140e833e1bac1a759b587" target="_top" xlink:title="view.components.CommandPort.run\lCommand">
<polygon fill="white" stroke="black" points="174.5,-137 174.5,-167 365.5,-167 365.5,-137 174.5,-137"/>
<text text-anchor="start" x="182.5" y="-155" font-family="Helvetica,sans-Serif" font-size="10.00">view.components.CommandPort.run</text>
<text text-anchor="middle" x="270" y="-144" font-family="Helvetica,sans-Serif" font-size="10.00">Command</text>
</a>
</g>
</g>
<!-- Node1&#45;&gt;Node6 -->
<g id="edge5" class="edge"><title>Node1&#45;&gt;Node6</title>
<path fill="none" stroke="midnightblue" d="M147.775,-152C156.506,-152 165.472,-152 174.385,-152"/>
<polygon fill="midnightblue" stroke="midnightblue" points="147.65,-148.5 137.65,-152 147.65,-155.5 147.65,-148.5"/>
</g>
<!-- Node9 -->
<g id="node9" class="node"><title>Node9</title>
<g id="a_node9"><a xlink:href="../../d3/dbe/classview_1_1_view.html#ac6ed5e90d4f165a6a2931aac81674bff" target="_top" xlink:title="view.View.saveCurrentLibrary">
<polygon fill="white" stroke="black" points="193,-98.5 193,-117.5 347,-117.5 347,-98.5 193,-98.5"/>
<text text-anchor="middle" x="270" y="-105.5" font-family="Helvetica,sans-Serif" font-size="10.00">view.View.saveCurrentLibrary</text>
</a>
</g>
</g>
<!-- Node1&#45;&gt;Node9 -->
<g id="edge8" class="edge"><title>Node1&#45;&gt;Node9</title>
<path fill="none" stroke="midnightblue" d="M118.423,-139.95C135.904,-135.709 155.808,-131.004 174,-127 188.784,-123.746 204.914,-120.432 219.618,-117.502"/>
<polygon fill="midnightblue" stroke="midnightblue" points="117.328,-136.615 108.442,-142.385 118.987,-143.416 117.328,-136.615"/>
</g>
<!-- Node10 -->
<g id="node10" class="node"><title>Node10</title>
<g id="a_node10"><a xlink:href="../../d3/dbe/classview_1_1_view.html#a43a4310c3789a93e0fa6b98b0bb4f8aa" target="_top" xlink:title="view.View.tabChangeUpdate">
<polygon fill="white" stroke="black" points="194.5,-49.5 194.5,-68.5 345.5,-68.5 345.5,-49.5 194.5,-49.5"/>
<text text-anchor="middle" x="270" y="-56.5" font-family="Helvetica,sans-Serif" font-size="10.00">view.View.tabChangeUpdate</text>
</a>
</g>
</g>
<!-- Node1&#45;&gt;Node10 -->
<g id="edge9" class="edge"><title>Node1&#45;&gt;Node10</title>
<path fill="none" stroke="midnightblue" d="M91.8508,-136.637C112.333,-122.761 144.183,-102.504 174,-89 192.434,-80.6513 213.861,-73.6675 231.696,-68.5449"/>
<polygon fill="midnightblue" stroke="midnightblue" points="89.8125,-133.791 83.5481,-142.336 93.7736,-139.563 89.8125,-133.791"/>
</g>
<!-- Node4 -->
<g id="node4" class="node"><title>Node4</title>
<g id="a_node4"><a xlink:href="../../df/d26/classview_1_1listwindows_1_1_commands_history_window.html#af341417d427f8b0548670f1efbb3acac" target="_top" xlink:title="view.listwindows.Commands\lHistoryWindow.setButtonAction">
<polygon fill="white" stroke="black" points="415.5,-235 415.5,-265 580.5,-265 580.5,-235 415.5,-235"/>
<text text-anchor="start" x="423.5" y="-253" font-family="Helvetica,sans-Serif" font-size="10.00">view.listwindows.Commands</text>
<text text-anchor="middle" x="498" y="-242" font-family="Helvetica,sans-Serif" font-size="10.00">HistoryWindow.setButtonAction</text>
</a>
</g>
</g>
<!-- Node3&#45;&gt;Node4 -->
<g id="edge3" class="edge"><title>Node3&#45;&gt;Node4</title>
<path fill="none" stroke="midnightblue" d="M350.263,-218.185C375.535,-223.665 403.286,-229.682 427.788,-234.994"/>
<polygon fill="midnightblue" stroke="midnightblue" points="350.858,-214.733 340.343,-216.035 349.375,-221.574 350.858,-214.733"/>
</g>
<!-- Node5 -->
<g id="node5" class="node"><title>Node5</title>
<g id="a_node5"><a xlink:href="../../d7/dc7/classview_1_1listwindows_1_1_user_defined_commands_window.html#adaf32233789f6a07c42b4e459699bf53" target="_top" xlink:title="view.listwindows.UserDefined\lCommandsWindow.setButtonAction">
<polygon fill="white" stroke="black" points="404.5,-186 404.5,-216 591.5,-216 591.5,-186 404.5,-186"/>
<text text-anchor="start" x="412.5" y="-204" font-family="Helvetica,sans-Serif" font-size="10.00">view.listwindows.UserDefined</text>
<text text-anchor="middle" x="498" y="-193" font-family="Helvetica,sans-Serif" font-size="10.00">CommandsWindow.setButtonAction</text>
</a>
</g>
</g>
<!-- Node3&#45;&gt;Node5 -->
<g id="edge4" class="edge"><title>Node3&#45;&gt;Node5</title>
<path fill="none" stroke="midnightblue" d="M355.348,-201C371.295,-201 388.058,-201 404.247,-201"/>
<polygon fill="midnightblue" stroke="midnightblue" points="355.001,-197.5 345.001,-201 355.001,-204.5 355.001,-197.5"/>
</g>
<!-- Node7 -->
<g id="node7" class="node"><title>Node7</title>
<g id="a_node7"><a xlink:href="../../db/d98/classview_1_1components_1_1_command_port.html#a37ae451233579691839c4a52072c94e9" target="_top" xlink:title="view.components.CommandPort.\lCommandPort">
<polygon fill="white" stroke="black" points="410.5,-137 410.5,-167 585.5,-167 585.5,-137 410.5,-137"/>
<text text-anchor="start" x="418.5" y="-155" font-family="Helvetica,sans-Serif" font-size="10.00">view.components.CommandPort.</text>
<text text-anchor="middle" x="498" y="-144" font-family="Helvetica,sans-Serif" font-size="10.00">CommandPort</text>
</a>
</g>
</g>
<!-- Node6&#45;&gt;Node7 -->
<g id="edge6" class="edge"><title>Node6&#45;&gt;Node7</title>
<path fill="none" stroke="midnightblue" d="M375.702,-152C387.321,-152 399.056,-152 410.415,-152"/>
<polygon fill="midnightblue" stroke="midnightblue" points="375.535,-148.5 365.535,-152 375.535,-155.5 375.535,-148.5"/>
</g>
<!-- Node8 -->
<g id="node8" class="node"><title>Node8</title>
<g id="a_node8"><a xlink:href="../../db/d98/classview_1_1components_1_1_command_port.html#afcdcfbfa864e7438dc0f0a3f1c541294" target="_top" xlink:title="view.components.CommandPort.run\lCommand">
<polygon fill="white" stroke="black" points="402.5,-88 402.5,-118 593.5,-118 593.5,-88 402.5,-88"/>
<text text-anchor="start" x="410.5" y="-106" font-family="Helvetica,sans-Serif" font-size="10.00">view.components.CommandPort.run</text>
<text text-anchor="middle" x="498" y="-95" font-family="Helvetica,sans-Serif" font-size="10.00">Command</text>
</a>
</g>
</g>
<!-- Node6&#45;&gt;Node8 -->
<g id="edge7" class="edge"><title>Node6&#45;&gt;Node8</title>
<path fill="none" stroke="midnightblue" d="M350.263,-134.815C375.535,-129.335 403.286,-123.318 427.788,-118.006"/>
<polygon fill="midnightblue" stroke="midnightblue" points="349.375,-131.426 340.343,-136.965 350.858,-138.267 349.375,-131.426"/>
</g>
<!-- Node11 -->
<g id="node11" class="node"><title>Node11</title>
<g id="a_node11"><a xlink:href="../../d3/dbe/classview_1_1_view.html#a59bb3de727676a9d3c1630f9e58b9614" target="_top" xlink:title="view.View.addTopBars">
<polygon fill="white" stroke="black" points="438.5,-49.5 438.5,-68.5 557.5,-68.5 557.5,-49.5 438.5,-49.5"/>
<text text-anchor="middle" x="498" y="-56.5" font-family="Helvetica,sans-Serif" font-size="10.00">view.View.addTopBars</text>
</a>
</g>
</g>
<!-- Node10&#45;&gt;Node11 -->
<g id="edge10" class="edge"><title>Node10&#45;&gt;Node11</title>
<path fill="none" stroke="midnightblue" d="M355.634,-59C383.124,-59 413.009,-59 438.19,-59"/>
<polygon fill="midnightblue" stroke="midnightblue" points="355.627,-55.5001 345.627,-59 355.627,-62.5001 355.627,-55.5001"/>
</g>
<!-- Node13 -->
<g id="node13" class="node"><title>Node13</title>
<g id="a_node13"><a xlink:href="../../d3/dbe/classview_1_1_view.html#aef53667bcfbe243d64e3416529c35f8f" target="_top" xlink:title="view.View.addNewTab">
<polygon fill="white" stroke="black" points="439.5,-11.5 439.5,-30.5 556.5,-30.5 556.5,-11.5 439.5,-11.5"/>
<text text-anchor="middle" x="498" y="-18.5" font-family="Helvetica,sans-Serif" font-size="10.00">view.View.addNewTab</text>
</a>
</g>
</g>
<!-- Node10&#45;&gt;Node13 -->
<g id="edge12" class="edge"><title>Node10&#45;&gt;Node13</title>
<path fill="none" stroke="midnightblue" d="M337.64,-47.795C370.241,-42.3134 409.071,-35.7845 440.239,-30.5439"/>
<polygon fill="midnightblue" stroke="midnightblue" points="337.019,-44.3503 327.738,-49.46 338.18,-51.2534 337.019,-44.3503"/>
</g>
<!-- Node12 -->
<g id="node12" class="node"><title>Node12</title>
<g id="a_node12"><a xlink:href="../../d3/dbe/classview_1_1_view.html#ab8997f733f923e68829b13b7e9633bc7" target="_top" xlink:title="view.View.View">
<polygon fill="white" stroke="black" points="666.5,-49.5 666.5,-68.5 751.5,-68.5 751.5,-49.5 666.5,-49.5"/>
<text text-anchor="middle" x="709" y="-56.5" font-family="Helvetica,sans-Serif" font-size="10.00">view.View.View</text>
</a>
</g>
</g>
<!-- Node11&#45;&gt;Node12 -->
<g id="edge11" class="edge"><title>Node11&#45;&gt;Node12</title>
<path fill="none" stroke="midnightblue" d="M568.109,-59C600.558,-59 638.168,-59 666.214,-59"/>
<polygon fill="midnightblue" stroke="midnightblue" points="567.774,-55.5001 557.774,-59 567.774,-62.5001 567.774,-55.5001"/>
</g>
<!-- Node13&#45;&gt;Node12 -->
<g id="edge15" class="edge"><title>Node13&#45;&gt;Node12</title>
<path fill="none" stroke="midnightblue" d="M561.733,-32.4059C595.59,-38.5619 636.45,-45.9909 666.368,-51.4305"/>
<polygon fill="midnightblue" stroke="midnightblue" points="561.935,-28.8853 551.47,-30.54 560.682,-35.7724 561.935,-28.8853"/>
</g>
<!-- Node14 -->
<g id="node14" class="node"><title>Node14</title>
<g id="a_node14"><a xlink:href="../../da/da8/classview_1_1components_1_1_s_logo_menu_bar.html#a50a896e8874b794c164559d97c531b78" target="_top" xlink:title="view.components.SLogoMenu\lBar.makeFileMenu">
<polygon fill="white" stroke="black" points="630,-0 630,-30 788,-30 788,-0 630,-0"/>
<text text-anchor="start" x="638" y="-18" font-family="Helvetica,sans-Serif" font-size="10.00">view.components.SLogoMenu</text>
<text text-anchor="middle" x="709" y="-7" font-family="Helvetica,sans-Serif" font-size="10.00">Bar.makeFileMenu</text>
</a>
</g>
</g>
<!-- Node13&#45;&gt;Node14 -->
<g id="edge13" class="edge"><title>Node13&#45;&gt;Node14</title>
<path fill="none" stroke="midnightblue" d="M566.674,-19.0572C586.811,-18.4791 609.041,-17.8409 629.792,-17.2452"/>
<polygon fill="midnightblue" stroke="midnightblue" points="566.559,-15.559 556.663,-19.3446 566.76,-22.5561 566.559,-15.559"/>
</g>
<!-- Node15 -->
<g id="node15" class="node"><title>Node15</title>
<g id="a_node15"><a xlink:href="../../da/da8/classview_1_1components_1_1_s_logo_menu_bar.html#afbe8434fba1476e5cbe7401c6bc158ec" target="_top" xlink:title="view.components.SLogoMenu\lBar.SLogoMenuBar">
<polygon fill="white" stroke="black" points="824,-0 824,-30 982,-30 982,-0 824,-0"/>
<text text-anchor="start" x="832" y="-18" font-family="Helvetica,sans-Serif" font-size="10.00">view.components.SLogoMenu</text>
<text text-anchor="middle" x="903" y="-7" font-family="Helvetica,sans-Serif" font-size="10.00">Bar.SLogoMenuBar</text>
</a>
</g>
</g>
<!-- Node14&#45;&gt;Node15 -->
<g id="edge14" class="edge"><title>Node14&#45;&gt;Node15</title>
<path fill="none" stroke="midnightblue" d="M798.153,-15C806.769,-15 815.47,-15 823.975,-15"/>
<polygon fill="midnightblue" stroke="midnightblue" points="798.094,-11.5001 788.094,-15 798.094,-18.5001 798.094,-11.5001"/>
</g>
</g>
</svg>
