<?xml version="1.0" encoding="UTF-8" standalone="no"?>
<!DOCTYPE svg PUBLIC "-//W3C//DTD SVG 1.1//EN"
 "http://www.w3.org/Graphics/SVG/1.1/DTD/svg11.dtd">
<!-- Generated by graphviz version 2.36.0 (20140111.2315)
 -->
<!-- Title: model.Model.Model Pages: 1 -->
<svg width="1136pt" height="300pt"
 viewBox="0.00 0.00 1136.00 300.00" xmlns="http://www.w3.org/2000/svg" xmlns:xlink="http://www.w3.org/1999/xlink">
<g id="graph0" class="graph" transform="scale(1 1) rotate(0) translate(4 296)">
<title>model.Model.Model</title>
<polygon fill="white" stroke="none" points="-4,4 -4,-296 1132,-296 1132,4 -4,4"/>
<!-- Node1 -->
<g id="node1" class="node"><title>Node1</title>
<polygon fill="#bfbfbf" stroke="black" points="0,-76.5 0,-95.5 110,-95.5 110,-76.5 0,-76.5"/>
<text text-anchor="middle" x="55" y="-83.5" font-family="Helvetica,sans-Serif" font-size="10.00">model.Model.Model</text>
</g>
<!-- Node2 -->
<g id="node2" class="node"><title>Node2</title>
<g id="a_node2"><a xlink:href="../../d3/d42/classmodel_1_1_model.html#a58696dcb49d5de7290734289922cd126" target="_top" xlink:title="model.Model.getInstance">
<polygon fill="white" stroke="black" points="146.5,-76.5 146.5,-95.5 283.5,-95.5 283.5,-76.5 146.5,-76.5"/>
<text text-anchor="middle" x="215" y="-83.5" font-family="Helvetica,sans-Serif" font-size="10.00">model.Model.getInstance</text>
</a>
</g>
</g>
<!-- Node1&#45;&gt;Node2 -->
<g id="edge1" class="edge"><title>Node1&#45;&gt;Node2</title>
<path fill="none" stroke="midnightblue" d="M120.608,-86C129.113,-86 137.849,-86 146.403,-86"/>
<polygon fill="midnightblue" stroke="midnightblue" points="120.375,-82.5001 110.375,-86 120.375,-89.5001 120.375,-82.5001"/>
</g>
<!-- Node3 -->
<g id="node3" class="node"><title>Node3</title>
<g id="a_node3"><a xlink:href="../../db/d98/classview_1_1components_1_1_command_port.html#a687e2098038140e833e1bac1a759b587" target="_top" xlink:title="view.components.CommandPort.run\lCommand">
<polygon fill="white" stroke="black" points="320.5,-213 320.5,-243 511.5,-243 511.5,-213 320.5,-213"/>
<text text-anchor="start" x="328.5" y="-231" font-family="Helvetica,sans-Serif" font-size="10.00">view.components.CommandPort.run</text>
<text text-anchor="middle" x="416" y="-220" font-family="Helvetica,sans-Serif" font-size="10.00">Command</text>
</a>
</g>
</g>
<!-- Node2&#45;&gt;Node3 -->
<g id="edge2" class="edge"><title>Node2&#45;&gt;Node3</title>
<path fill="none" stroke="midnightblue" d="M237.791,-101.549C276.29,-129.021 355.858,-185.798 393.876,-212.927"/>
<polygon fill="midnightblue" stroke="midnightblue" points="239.539,-98.497 229.366,-95.5375 235.473,-104.195 239.539,-98.497"/>
</g>
<!-- Node6 -->
<g id="node6" class="node"><title>Node6</title>
<g id="a_node6"><a xlink:href="../../da/df5/classview_1_1listwindows_1_1_commands_list_window.html#a3611428a65d6e7a436971f1b237e644e" target="_top" xlink:title="view.listwindows.Commands\lListWindow.parseCommand">
<polygon fill="white" stroke="black" points="341,-115 341,-145 491,-145 491,-115 341,-115"/>
<text text-anchor="start" x="349" y="-133" font-family="Helvetica,sans-Serif" font-size="10.00">view.listwindows.Commands</text>
<text text-anchor="middle" x="416" y="-122" font-family="Helvetica,sans-Serif" font-size="10.00">ListWindow.parseCommand</text>
</a>
</g>
</g>
<!-- Node2&#45;&gt;Node6 -->
<g id="edge5" class="edge"><title>Node2&#45;&gt;Node6</title>
<path fill="none" stroke="midnightblue" d="M269.108,-97.7424C292.98,-103.021 321.443,-109.314 346.863,-114.935"/>
<polygon fill="midnightblue" stroke="midnightblue" points="269.7,-94.2889 259.18,-95.5473 268.189,-101.124 269.7,-94.2889"/>
</g>
<!-- Node9 -->
<g id="node9" class="node"><title>Node9</title>
<g id="a_node9"><a xlink:href="../../d3/dbe/classview_1_1_view.html#a43a4310c3789a93e0fa6b98b0bb4f8aa" target="_top" xlink:title="view.View.tabChangeUpdate">
<polygon fill="white" stroke="black" points="340.5,-76.5 340.5,-95.5 491.5,-95.5 491.5,-76.5 340.5,-76.5"/>
<text text-anchor="middle" x="416" y="-83.5" font-family="Helvetica,sans-Serif" font-size="10.00">view.View.tabChangeUpdate</text>
</a>
</g>
</g>
<!-- Node2&#45;&gt;Node9 -->
<g id="edge8" class="edge"><title>Node2&#45;&gt;Node9</title>
<path fill="none" stroke="midnightblue" d="M294.068,-86C309.305,-86 325.246,-86 340.368,-86"/>
<polygon fill="midnightblue" stroke="midnightblue" points="293.65,-82.5001 283.65,-86 293.65,-89.5001 293.65,-82.5001"/>
</g>
<!-- Node15 -->
<g id="node15" class="node"><title>Node15</title>
<g id="a_node15"><a xlink:href="../../d3/dbe/classview_1_1_view.html#ac6ed5e90d4f165a6a2931aac81674bff" target="_top" xlink:title="view.View.saveCurrentLibrary">
<polygon fill="white" stroke="black" points="339,-38.5 339,-57.5 493,-57.5 493,-38.5 339,-38.5"/>
<text text-anchor="middle" x="416" y="-45.5" font-family="Helvetica,sans-Serif" font-size="10.00">view.View.saveCurrentLibrary</text>
</a>
</g>
</g>
<!-- Node2&#45;&gt;Node15 -->
<g id="edge15" class="edge"><title>Node2&#45;&gt;Node15</title>
<path fill="none" stroke="midnightblue" d="M275.795,-74.5819C304.268,-69.1448 337.931,-62.7168 365.02,-57.5439"/>
<polygon fill="midnightblue" stroke="midnightblue" points="275.125,-71.1464 265.959,-76.46 276.438,-78.0222 275.125,-71.1464"/>
</g>
<!-- Node16 -->
<g id="node16" class="node"><title>Node16</title>
<g id="a_node16"><a xlink:href="../../d3/dbe/classview_1_1_view.html#ab8b25d25b79752feed7b786ed496f642" target="_top" xlink:title="view.View.loadLibrary">
<polygon fill="white" stroke="black" points="358,-0.5 358,-19.5 474,-19.5 474,-0.5 358,-0.5"/>
<text text-anchor="middle" x="416" y="-7.5" font-family="Helvetica,sans-Serif" font-size="10.00">view.View.loadLibrary</text>
</a>
</g>
</g>
<!-- Node2&#45;&gt;Node16 -->
<g id="edge16" class="edge"><title>Node2&#45;&gt;Node16</title>
<path fill="none" stroke="midnightblue" d="M238.735,-70.8852C259.188,-57.948 290.474,-39.7572 320,-29 332.011,-24.6242 345.263,-21.172 357.961,-18.4806"/>
<polygon fill="midnightblue" stroke="midnightblue" points="236.66,-68.0585 230.146,-76.414 240.449,-73.9445 236.66,-68.0585"/>
</g>
<!-- Node4 -->
<g id="node4" class="node"><title>Node4</title>
<g id="a_node4"><a xlink:href="../../db/d98/classview_1_1components_1_1_command_port.html#a37ae451233579691839c4a52072c94e9" target="_top" xlink:title="view.components.CommandPort.\lCommandPort">
<polygon fill="white" stroke="black" points="556.5,-262 556.5,-292 731.5,-292 731.5,-262 556.5,-262"/>
<text text-anchor="start" x="564.5" y="-280" font-family="Helvetica,sans-Serif" font-size="10.00">view.components.CommandPort.</text>
<text text-anchor="middle" x="644" y="-269" font-family="Helvetica,sans-Serif" font-size="10.00">CommandPort</text>
</a>
</g>
</g>
<!-- Node3&#45;&gt;Node4 -->
<g id="edge3" class="edge"><title>Node3&#45;&gt;Node4</title>
<path fill="none" stroke="midnightblue" d="M496.263,-245.185C521.535,-250.665 549.286,-256.682 573.788,-261.994"/>
<polygon fill="midnightblue" stroke="midnightblue" points="496.858,-241.733 486.343,-243.035 495.375,-248.574 496.858,-241.733"/>
</g>
<!-- Node5 -->
<g id="node5" class="node"><title>Node5</title>
<g id="a_node5"><a xlink:href="../../db/d98/classview_1_1components_1_1_command_port.html#afcdcfbfa864e7438dc0f0a3f1c541294" target="_top" xlink:title="view.components.CommandPort.run\lCommand">
<polygon fill="white" stroke="black" points="548.5,-213 548.5,-243 739.5,-243 739.5,-213 548.5,-213"/>
<text text-anchor="start" x="556.5" y="-231" font-family="Helvetica,sans-Serif" font-size="10.00">view.components.CommandPort.run</text>
<text text-anchor="middle" x="644" y="-220" font-family="Helvetica,sans-Serif" font-size="10.00">Command</text>
</a>
</g>
</g>
<!-- Node3&#45;&gt;Node5 -->
<g id="edge4" class="edge"><title>Node3&#45;&gt;Node5</title>
<path fill="none" stroke="midnightblue" d="M521.611,-228C530.572,-228 539.605,-228 548.48,-228"/>
<polygon fill="midnightblue" stroke="midnightblue" points="521.535,-224.5 511.535,-228 521.535,-231.5 521.535,-224.5"/>
</g>
<!-- Node7 -->
<g id="node7" class="node"><title>Node7</title>
<g id="a_node7"><a xlink:href="../../df/d26/classview_1_1listwindows_1_1_commands_history_window.html#af341417d427f8b0548670f1efbb3acac" target="_top" xlink:title="view.listwindows.Commands\lHistoryWindow.setButtonAction">
<polygon fill="white" stroke="black" points="561.5,-164 561.5,-194 726.5,-194 726.5,-164 561.5,-164"/>
<text text-anchor="start" x="569.5" y="-182" font-family="Helvetica,sans-Serif" font-size="10.00">view.listwindows.Commands</text>
<text text-anchor="middle" x="644" y="-171" font-family="Helvetica,sans-Serif" font-size="10.00">HistoryWindow.setButtonAction</text>
</a>
</g>
</g>
<!-- Node6&#45;&gt;Node7 -->
<g id="edge6" class="edge"><title>Node6&#45;&gt;Node7</title>
<path fill="none" stroke="midnightblue" d="M496.263,-147.185C521.535,-152.665 549.286,-158.682 573.788,-163.994"/>
<polygon fill="midnightblue" stroke="midnightblue" points="496.858,-143.733 486.343,-145.035 495.375,-150.574 496.858,-143.733"/>
</g>
<!-- Node8 -->
<g id="node8" class="node"><title>Node8</title>
<g id="a_node8"><a xlink:href="../../d7/dc7/classview_1_1listwindows_1_1_user_defined_commands_window.html#adaf32233789f6a07c42b4e459699bf53" target="_top" xlink:title="view.listwindows.UserDefined\lCommandsWindow.setButtonAction">
<polygon fill="white" stroke="black" points="550.5,-115 550.5,-145 737.5,-145 737.5,-115 550.5,-115"/>
<text text-anchor="start" x="558.5" y="-133" font-family="Helvetica,sans-Serif" font-size="10.00">view.listwindows.UserDefined</text>
<text text-anchor="middle" x="644" y="-122" font-family="Helvetica,sans-Serif" font-size="10.00">CommandsWindow.setButtonAction</text>
</a>
</g>
</g>
<!-- Node6&#45;&gt;Node8 -->
<g id="edge7" class="edge"><title>Node6&#45;&gt;Node8</title>
<path fill="none" stroke="midnightblue" d="M501.348,-130C517.295,-130 534.058,-130 550.247,-130"/>
<polygon fill="midnightblue" stroke="midnightblue" points="501.001,-126.5 491.001,-130 501.001,-133.5 501.001,-126.5"/>
</g>
<!-- Node10 -->
<g id="node10" class="node"><title>Node10</title>
<g id="a_node10"><a xlink:href="../../d3/dbe/classview_1_1_view.html#a59bb3de727676a9d3c1630f9e58b9614" target="_top" xlink:title="view.View.addTopBars">
<polygon fill="white" stroke="black" points="584.5,-76.5 584.5,-95.5 703.5,-95.5 703.5,-76.5 584.5,-76.5"/>
<text text-anchor="middle" x="644" y="-83.5" font-family="Helvetica,sans-Serif" font-size="10.00">view.View.addTopBars</text>
</a>
</g>
</g>
<!-- Node9&#45;&gt;Node10 -->
<g id="edge9" class="edge"><title>Node9&#45;&gt;Node10</title>
<path fill="none" stroke="midnightblue" d="M501.634,-86C529.124,-86 559.009,-86 584.19,-86"/>
<polygon fill="midnightblue" stroke="midnightblue" points="501.627,-82.5001 491.627,-86 501.627,-89.5001 501.627,-82.5001"/>
</g>
<!-- Node12 -->
<g id="node12" class="node"><title>Node12</title>
<g id="a_node12"><a xlink:href="../../d3/dbe/classview_1_1_view.html#aef53667bcfbe243d64e3416529c35f8f" target="_top" xlink:title="view.View.addNewTab">
<polygon fill="white" stroke="black" points="585.5,-38.5 585.5,-57.5 702.5,-57.5 702.5,-38.5 585.5,-38.5"/>
<text text-anchor="middle" x="644" y="-45.5" font-family="Helvetica,sans-Serif" font-size="10.00">view.View.addNewTab</text>
</a>
</g>
</g>
<!-- Node9&#45;&gt;Node12 -->
<g id="edge11" class="edge"><title>Node9&#45;&gt;Node12</title>
<path fill="none" stroke="midnightblue" d="M483.64,-74.795C516.241,-69.3134 555.071,-62.7845 586.239,-57.5439"/>
<polygon fill="midnightblue" stroke="midnightblue" points="483.019,-71.3503 473.738,-76.46 484.18,-78.2534 483.019,-71.3503"/>
</g>
<!-- Node11 -->
<g id="node11" class="node"><title>Node11</title>
<g id="a_node11"><a xlink:href="../../d3/dbe/classview_1_1_view.html#ab8997f733f923e68829b13b7e9633bc7" target="_top" xlink:title="view.View.View">
<polygon fill="white" stroke="black" points="812.5,-76.5 812.5,-95.5 897.5,-95.5 897.5,-76.5 812.5,-76.5"/>
<text text-anchor="middle" x="855" y="-83.5" font-family="Helvetica,sans-Serif" font-size="10.00">view.View.View</text>
</a>
</g>
</g>
<!-- Node10&#45;&gt;Node11 -->
<g id="edge10" class="edge"><title>Node10&#45;&gt;Node11</title>
<path fill="none" stroke="midnightblue" d="M714.109,-86C746.558,-86 784.168,-86 812.214,-86"/>
<polygon fill="midnightblue" stroke="midnightblue" points="713.774,-82.5001 703.774,-86 713.774,-89.5001 713.774,-82.5001"/>
</g>
<!-- Node12&#45;&gt;Node11 -->
<g id="edge14" class="edge"><title>Node12&#45;&gt;Node11</title>
<path fill="none" stroke="midnightblue" d="M707.733,-59.4059C741.59,-65.5619 782.45,-72.9909 812.368,-78.4305"/>
<polygon fill="midnightblue" stroke="midnightblue" points="707.935,-55.8853 697.47,-57.54 706.682,-62.7724 707.935,-55.8853"/>
</g>
<!-- Node13 -->
<g id="node13" class="node"><title>Node13</title>
<g id="a_node13"><a xlink:href="../../da/da8/classview_1_1components_1_1_s_logo_menu_bar.html#a50a896e8874b794c164559d97c531b78" target="_top" xlink:title="view.components.SLogoMenu\lBar.makeFileMenu">
<polygon fill="white" stroke="black" points="776,-27 776,-57 934,-57 934,-27 776,-27"/>
<text text-anchor="start" x="784" y="-45" font-family="Helvetica,sans-Serif" font-size="10.00">view.components.SLogoMenu</text>
<text text-anchor="middle" x="855" y="-34" font-family="Helvetica,sans-Serif" font-size="10.00">Bar.makeFileMenu</text>
</a>
</g>
</g>
<!-- Node12&#45;&gt;Node13 -->
<g id="edge12" class="edge"><title>Node12&#45;&gt;Node13</title>
<path fill="none" stroke="midnightblue" d="M712.674,-46.0572C732.811,-45.4791 755.041,-44.8409 775.792,-44.2452"/>
<polygon fill="midnightblue" stroke="midnightblue" points="712.559,-42.559 702.663,-46.3446 712.76,-49.5561 712.559,-42.559"/>
</g>
<!-- Node14 -->
<g id="node14" class="node"><title>Node14</title>
<g id="a_node14"><a xlink:href="../../da/da8/classview_1_1components_1_1_s_logo_menu_bar.html#afbe8434fba1476e5cbe7401c6bc158ec" target="_top" xlink:title="view.components.SLogoMenu\lBar.SLogoMenuBar">
<polygon fill="white" stroke="black" points="970,-27 970,-57 1128,-57 1128,-27 970,-27"/>
<text text-anchor="start" x="978" y="-45" font-family="Helvetica,sans-Serif" font-size="10.00">view.components.SLogoMenu</text>
<text text-anchor="middle" x="1049" y="-34" font-family="Helvetica,sans-Serif" font-size="10.00">Bar.SLogoMenuBar</text>
</a>
</g>
</g>
<!-- Node13&#45;&gt;Node14 -->
<g id="edge13" class="edge"><title>Node13&#45;&gt;Node14</title>
<path fill="none" stroke="midnightblue" d="M944.153,-42C952.769,-42 961.47,-42 969.975,-42"/>
<polygon fill="midnightblue" stroke="midnightblue" points="944.094,-38.5001 934.094,-42 944.094,-45.5001 944.094,-38.5001"/>
</g>
</g>
</svg>
