<?xml version="1.0" encoding="UTF-8" standalone="no"?>
<!DOCTYPE svg PUBLIC "-//W3C//DTD SVG 1.1//EN"
 "http://www.w3.org/Graphics/SVG/1.1/DTD/svg11.dtd">
<!-- Generated by graphviz version 2.36.0 (20140111.2315)
 -->
<!-- Title: model.Model.parse Pages: 1 -->
<svg width="572pt" height="185pt"
 viewBox="0.00 0.00 572.00 185.00" xmlns="http://www.w3.org/2000/svg" xmlns:xlink="http://www.w3.org/1999/xlink">
<g id="graph0" class="graph" transform="scale(1 1) rotate(0) translate(4 181)">
<title>model.Model.parse</title>
<polygon fill="white" stroke="none" points="-4,4 -4,-181 568,-181 568,4 -4,4"/>
<!-- Node1 -->
<g id="node1" class="node"><title>Node1</title>
<polygon fill="#bfbfbf" stroke="black" points="0,-103.5 0,-122.5 108,-122.5 108,-103.5 0,-103.5"/>
<text text-anchor="middle" x="54" y="-110.5" font-family="Helvetica,sans-Serif" font-size="10.00">model.Model.parse</text>
</g>
<!-- Node2 -->
<g id="node2" class="node"><title>Node2</title>
<g id="a_node2"><a xlink:href="../../d3/dbe/classview_1_1_view.html#ab8b25d25b79752feed7b786ed496f642" target="_top" xlink:title="view.View.loadLibrary">
<polygon fill="white" stroke="black" points="182,-147.5 182,-166.5 298,-166.5 298,-147.5 182,-147.5"/>
<text text-anchor="middle" x="240" y="-154.5" font-family="Helvetica,sans-Serif" font-size="10.00">view.View.loadLibrary</text>
</a>
</g>
</g>
<!-- Node1&#45;&gt;Node2 -->
<g id="edge1" class="edge"><title>Node1&#45;&gt;Node2</title>
<path fill="none" stroke="midnightblue" d="M98.3894,-125.222C112.853,-129.156 129.08,-133.421 144,-137 159.242,-140.657 175.948,-144.296 191.041,-147.448"/>
<polygon fill="midnightblue" stroke="midnightblue" points="99.2657,-121.833 88.6961,-122.563 97.4141,-128.584 99.2657,-121.833"/>
</g>
<!-- Node3 -->
<g id="node3" class="node"><title>Node3</title>
<g id="a_node3"><a xlink:href="../../da/df5/classview_1_1listwindows_1_1_commands_list_window.html#a3611428a65d6e7a436971f1b237e644e" target="_top" xlink:title="view.listwindows.Commands\lListWindow.parseCommand">
<polygon fill="white" stroke="black" points="165,-98 165,-128 315,-128 315,-98 165,-98"/>
<text text-anchor="start" x="173" y="-116" font-family="Helvetica,sans-Serif" font-size="10.00">view.listwindows.Commands</text>
<text text-anchor="middle" x="240" y="-105" font-family="Helvetica,sans-Serif" font-size="10.00">ListWindow.parseCommand</text>
</a>
</g>
</g>
<!-- Node1&#45;&gt;Node3 -->
<g id="edge2" class="edge"><title>Node1&#45;&gt;Node3</title>
<path fill="none" stroke="midnightblue" d="M118.354,-113C133.281,-113 149.325,-113 164.686,-113"/>
<polygon fill="midnightblue" stroke="midnightblue" points="118.22,-109.5 108.22,-113 118.22,-116.5 118.22,-109.5"/>
</g>
<!-- Node6 -->
<g id="node6" class="node"><title>Node6</title>
<g id="a_node6"><a xlink:href="../../db/d98/classview_1_1components_1_1_command_port.html#a687e2098038140e833e1bac1a759b587" target="_top" xlink:title="view.components.CommandPort.run\lCommand">
<polygon fill="white" stroke="black" points="144.5,-49 144.5,-79 335.5,-79 335.5,-49 144.5,-49"/>
<text text-anchor="start" x="152.5" y="-67" font-family="Helvetica,sans-Serif" font-size="10.00">view.components.CommandPort.run</text>
<text text-anchor="middle" x="240" y="-56" font-family="Helvetica,sans-Serif" font-size="10.00">Command</text>
</a>
</g>
</g>
<!-- Node1&#45;&gt;Node6 -->
<g id="edge5" class="edge"><title>Node1&#45;&gt;Node6</title>
<path fill="none" stroke="midnightblue" d="M100.016,-100.804C114.096,-97.0046 129.69,-92.8124 144,-89 156.195,-85.7511 169.278,-82.2916 181.716,-79.0146"/>
<polygon fill="midnightblue" stroke="midnightblue" points="98.8129,-97.5033 90.0715,-103.49 100.638,-104.261 98.8129,-97.5033"/>
</g>
<!-- Node4 -->
<g id="node4" class="node"><title>Node4</title>
<g id="a_node4"><a xlink:href="../../df/d26/classview_1_1listwindows_1_1_commands_history_window.html#af341417d427f8b0548670f1efbb3acac" target="_top" xlink:title="view.listwindows.Commands\lHistoryWindow.setButtonAction">
<polygon fill="white" stroke="black" points="385.5,-147 385.5,-177 550.5,-177 550.5,-147 385.5,-147"/>
<text text-anchor="start" x="393.5" y="-165" font-family="Helvetica,sans-Serif" font-size="10.00">view.listwindows.Commands</text>
<text text-anchor="middle" x="468" y="-154" font-family="Helvetica,sans-Serif" font-size="10.00">HistoryWindow.setButtonAction</text>
</a>
</g>
</g>
<!-- Node3&#45;&gt;Node4 -->
<g id="edge3" class="edge"><title>Node3&#45;&gt;Node4</title>
<path fill="none" stroke="midnightblue" d="M320.263,-130.185C345.535,-135.665 373.286,-141.682 397.788,-146.994"/>
<polygon fill="midnightblue" stroke="midnightblue" points="320.858,-126.733 310.343,-128.035 319.375,-133.574 320.858,-126.733"/>
</g>
<!-- Node5 -->
<g id="node5" class="node"><title>Node5</title>
<g id="a_node5"><a xlink:href="../../d7/dc7/classview_1_1listwindows_1_1_user_defined_commands_window.html#adaf32233789f6a07c42b4e459699bf53" target="_top" xlink:title="view.listwindows.UserDefined\lCommandsWindow.setButtonAction">
<polygon fill="white" stroke="black" points="374.5,-98 374.5,-128 561.5,-128 561.5,-98 374.5,-98"/>
<text text-anchor="start" x="382.5" y="-116" font-family="Helvetica,sans-Serif" font-size="10.00">view.listwindows.UserDefined</text>
<text text-anchor="middle" x="468" y="-105" font-family="Helvetica,sans-Serif" font-size="10.00">CommandsWindow.setButtonAction</text>
</a>
</g>
</g>
<!-- Node3&#45;&gt;Node5 -->
<g id="edge4" class="edge"><title>Node3&#45;&gt;Node5</title>
<path fill="none" stroke="midnightblue" d="M325.348,-113C341.295,-113 358.058,-113 374.247,-113"/>
<polygon fill="midnightblue" stroke="midnightblue" points="325.001,-109.5 315.001,-113 325.001,-116.5 325.001,-109.5"/>
</g>
<!-- Node7 -->
<g id="node7" class="node"><title>Node7</title>
<g id="a_node7"><a xlink:href="../../db/d98/classview_1_1components_1_1_command_port.html#a37ae451233579691839c4a52072c94e9" target="_top" xlink:title="view.components.CommandPort.\lCommandPort">
<polygon fill="white" stroke="black" points="380.5,-49 380.5,-79 555.5,-79 555.5,-49 380.5,-49"/>
<text text-anchor="start" x="388.5" y="-67" font-family="Helvetica,sans-Serif" font-size="10.00">view.components.CommandPort.</text>
<text text-anchor="middle" x="468" y="-56" font-family="Helvetica,sans-Serif" font-size="10.00">CommandPort</text>
</a>
</g>
</g>
<!-- Node6&#45;&gt;Node7 -->
<g id="edge6" class="edge"><title>Node6&#45;&gt;Node7</title>
<path fill="none" stroke="midnightblue" d="M345.702,-64C357.321,-64 369.056,-64 380.415,-64"/>
<polygon fill="midnightblue" stroke="midnightblue" points="345.535,-60.5001 335.535,-64 345.535,-67.5001 345.535,-60.5001"/>
</g>
<!-- Node8 -->
<g id="node8" class="node"><title>Node8</title>
<g id="a_node8"><a xlink:href="../../db/d98/classview_1_1components_1_1_command_port.html#afcdcfbfa864e7438dc0f0a3f1c541294" target="_top" xlink:title="view.components.CommandPort.run\lCommand">
<polygon fill="white" stroke="black" points="372.5,-0 372.5,-30 563.5,-30 563.5,-0 372.5,-0"/>
<text text-anchor="start" x="380.5" y="-18" font-family="Helvetica,sans-Serif" font-size="10.00">view.components.CommandPort.run</text>
<text text-anchor="middle" x="468" y="-7" font-family="Helvetica,sans-Serif" font-size="10.00">Command</text>
</a>
</g>
</g>
<!-- Node6&#45;&gt;Node8 -->
<g id="edge7" class="edge"><title>Node6&#45;&gt;Node8</title>
<path fill="none" stroke="midnightblue" d="M320.263,-46.8146C345.535,-41.3353 373.286,-35.3185 397.788,-30.0062"/>
<polygon fill="midnightblue" stroke="midnightblue" points="319.375,-43.4259 310.343,-48.9654 320.858,-50.2669 319.375,-43.4259"/>
</g>
</g>
</svg>
