<?xml version="1.0" encoding="UTF-8" standalone="no"?>
<!DOCTYPE svg PUBLIC "-//W3C//DTD SVG 1.1//EN"
 "http://www.w3.org/Graphics/SVG/1.1/DTD/svg11.dtd">
<!-- Generated by graphviz version 2.36.0 (20140111.2315)
 -->
<!-- Title: model.Model.setState Pages: 1 -->
<svg width="1294pt" height="273pt"
 viewBox="0.00 0.00 1294.00 273.00" xmlns="http://www.w3.org/2000/svg" xmlns:xlink="http://www.w3.org/1999/xlink">
<g id="graph0" class="graph" transform="scale(1 1) rotate(0) translate(4 269)">
<title>model.Model.setState</title>
<polygon fill="white" stroke="none" points="-4,4 -4,-269 1290,-269 1290,4 -4,4"/>
<!-- Node1 -->
<g id="node1" class="node"><title>Node1</title>
<polygon fill="#bfbfbf" stroke="black" points="0,-85.5 0,-104.5 122,-104.5 122,-85.5 0,-85.5"/>
<text text-anchor="middle" x="61" y="-92.5" font-family="Helvetica,sans-Serif" font-size="10.00">model.Model.setState</text>
</g>
<!-- Node2 -->
<g id="node2" class="node"><title>Node2</title>
<g id="a_node2"><a xlink:href="../../d3/d42/classmodel_1_1_model.html#af870d64d87a18f6cd1a84a77ff6dc3a1" target="_top" xlink:title="model.Model.Model">
<polygon fill="white" stroke="black" points="158,-115.5 158,-134.5 268,-134.5 268,-115.5 158,-115.5"/>
<text text-anchor="middle" x="213" y="-122.5" font-family="Helvetica,sans-Serif" font-size="10.00">model.Model.Model</text>
</a>
</g>
</g>
<!-- Node1&#45;&gt;Node2 -->
<g id="edge1" class="edge"><title>Node1&#45;&gt;Node2</title>
<path fill="none" stroke="midnightblue" d="M119.871,-106.574C134.57,-109.514 150.196,-112.639 164.324,-115.465"/>
<polygon fill="midnightblue" stroke="midnightblue" points="120.366,-103.104 109.873,-104.575 118.993,-109.968 120.366,-103.104"/>
</g>
<!-- Node12 -->
<g id="node12" class="node"><title>Node12</title>
<g id="a_node12"><a xlink:href="../../d3/dbe/classview_1_1_view.html#a43a4310c3789a93e0fa6b98b0bb4f8aa" target="_top" xlink:title="view.View.tabChangeUpdate">
<polygon fill="white" stroke="black" points="498.5,-50.5 498.5,-69.5 649.5,-69.5 649.5,-50.5 498.5,-50.5"/>
<text text-anchor="middle" x="574" y="-57.5" font-family="Helvetica,sans-Serif" font-size="10.00">view.View.tabChangeUpdate</text>
</a>
</g>
</g>
<!-- Node1&#45;&gt;Node12 -->
<g id="edge18" class="edge"><title>Node1&#45;&gt;Node12</title>
<path fill="none" stroke="midnightblue" d="M132.314,-90.184C228.376,-83.6044 399.901,-71.8561 498.233,-65.121"/>
<polygon fill="midnightblue" stroke="midnightblue" points="131.858,-86.7069 122.121,-90.8821 132.337,-93.6905 131.858,-86.7069"/>
</g>
<!-- Node3 -->
<g id="node3" class="node"><title>Node3</title>
<g id="a_node3"><a xlink:href="../../d3/d42/classmodel_1_1_model.html#a58696dcb49d5de7290734289922cd126" target="_top" xlink:title="model.Model.getInstance">
<polygon fill="white" stroke="black" points="304.5,-126.5 304.5,-145.5 441.5,-145.5 441.5,-126.5 304.5,-126.5"/>
<text text-anchor="middle" x="373" y="-133.5" font-family="Helvetica,sans-Serif" font-size="10.00">model.Model.getInstance</text>
</a>
</g>
</g>
<!-- Node2&#45;&gt;Node3 -->
<g id="edge2" class="edge"><title>Node2&#45;&gt;Node3</title>
<path fill="none" stroke="midnightblue" d="M278.608,-129.498C287.113,-130.09 295.849,-130.698 304.403,-131.294"/>
<polygon fill="midnightblue" stroke="midnightblue" points="278.594,-125.989 268.375,-128.786 278.107,-132.972 278.594,-125.989"/>
</g>
<!-- Node4 -->
<g id="node4" class="node"><title>Node4</title>
<g id="a_node4"><a xlink:href="../../d3/dbe/classview_1_1_view.html#ab8b25d25b79752feed7b786ed496f642" target="_top" xlink:title="view.View.loadLibrary">
<polygon fill="white" stroke="black" points="516,-233.5 516,-252.5 632,-252.5 632,-233.5 516,-233.5"/>
<text text-anchor="middle" x="574" y="-240.5" font-family="Helvetica,sans-Serif" font-size="10.00">view.View.loadLibrary</text>
</a>
</g>
</g>
<!-- Node3&#45;&gt;Node4 -->
<g id="edge3" class="edge"><title>Node3&#45;&gt;Node4</title>
<path fill="none" stroke="midnightblue" d="M389.261,-153.071C408.1,-173.032 442.08,-205.557 478,-223 489.674,-228.669 502.92,-232.737 515.737,-235.655"/>
<polygon fill="midnightblue" stroke="midnightblue" points="391.725,-150.581 382.37,-145.608 386.582,-155.329 391.725,-150.581"/>
</g>
<!-- Node5 -->
<g id="node5" class="node"><title>Node5</title>
<g id="a_node5"><a xlink:href="../../da/df5/classview_1_1listwindows_1_1_commands_list_window.html#a3611428a65d6e7a436971f1b237e644e" target="_top" xlink:title="view.listwindows.Commands\lListWindow.parseCommand">
<polygon fill="white" stroke="black" points="499,-184 499,-214 649,-214 649,-184 499,-184"/>
<text text-anchor="start" x="507" y="-202" font-family="Helvetica,sans-Serif" font-size="10.00">view.listwindows.Commands</text>
<text text-anchor="middle" x="574" y="-191" font-family="Helvetica,sans-Serif" font-size="10.00">ListWindow.parseCommand</text>
</a>
</g>
</g>
<!-- Node3&#45;&gt;Node5 -->
<g id="edge4" class="edge"><title>Node3&#45;&gt;Node5</title>
<path fill="none" stroke="midnightblue" d="M411.274,-148.926C431.042,-155.685 455.775,-163.988 478,-171 491.774,-175.346 506.737,-179.854 520.626,-183.951"/>
<polygon fill="midnightblue" stroke="midnightblue" points="412.31,-145.582 401.715,-145.647 410.038,-152.203 412.31,-145.582"/>
</g>
<!-- Node8 -->
<g id="node8" class="node"><title>Node8</title>
<g id="a_node8"><a xlink:href="../../db/d98/classview_1_1components_1_1_command_port.html#a687e2098038140e833e1bac1a759b587" target="_top" xlink:title="view.components.CommandPort.run\lCommand">
<polygon fill="white" stroke="black" points="478.5,-132 478.5,-162 669.5,-162 669.5,-132 478.5,-132"/>
<text text-anchor="start" x="486.5" y="-150" font-family="Helvetica,sans-Serif" font-size="10.00">view.components.CommandPort.run</text>
<text text-anchor="middle" x="574" y="-139" font-family="Helvetica,sans-Serif" font-size="10.00">Command</text>
</a>
</g>
</g>
<!-- Node3&#45;&gt;Node8 -->
<g id="edge7" class="edge"><title>Node3&#45;&gt;Node8</title>
<path fill="none" stroke="midnightblue" d="M451.775,-140.299C460.506,-140.782 469.472,-141.277 478.385,-141.77"/>
<polygon fill="midnightblue" stroke="midnightblue" points="451.828,-136.797 441.65,-139.739 451.442,-143.786 451.828,-136.797"/>
</g>
<!-- Node11 -->
<g id="node11" class="node"><title>Node11</title>
<g id="a_node11"><a xlink:href="../../d3/dbe/classview_1_1_view.html#ac6ed5e90d4f165a6a2931aac81674bff" target="_top" xlink:title="view.View.saveCurrentLibrary">
<polygon fill="white" stroke="black" points="497,-93.5 497,-112.5 651,-112.5 651,-93.5 497,-93.5"/>
<text text-anchor="middle" x="574" y="-100.5" font-family="Helvetica,sans-Serif" font-size="10.00">view.View.saveCurrentLibrary</text>
</a>
</g>
</g>
<!-- Node3&#45;&gt;Node11 -->
<g id="edge10" class="edge"><title>Node3&#45;&gt;Node11</title>
<path fill="none" stroke="midnightblue" d="M441.405,-124.822C465.445,-120.836 492.285,-116.385 515.423,-112.548"/>
<polygon fill="midnightblue" stroke="midnightblue" points="440.585,-121.41 431.292,-126.499 441.73,-128.316 440.585,-121.41"/>
</g>
<!-- Node3&#45;&gt;Node12 -->
<g id="edge11" class="edge"><title>Node3&#45;&gt;Node12</title>
<path fill="none" stroke="midnightblue" d="M399.2,-121.463C419.846,-110.032 450.102,-94.3595 478,-84 493.628,-78.1967 511.213,-73.3195 526.966,-69.5097"/>
<polygon fill="midnightblue" stroke="midnightblue" points="397.441,-118.436 390.433,-126.382 400.867,-124.541 397.441,-118.436"/>
</g>
<!-- Node6 -->
<g id="node6" class="node"><title>Node6</title>
<g id="a_node6"><a xlink:href="../../df/d26/classview_1_1listwindows_1_1_commands_history_window.html#af341417d427f8b0548670f1efbb3acac" target="_top" xlink:title="view.listwindows.Commands\lHistoryWindow.setButtonAction">
<polygon fill="white" stroke="black" points="719.5,-235 719.5,-265 884.5,-265 884.5,-235 719.5,-235"/>
<text text-anchor="start" x="727.5" y="-253" font-family="Helvetica,sans-Serif" font-size="10.00">view.listwindows.Commands</text>
<text text-anchor="middle" x="802" y="-242" font-family="Helvetica,sans-Serif" font-size="10.00">HistoryWindow.setButtonAction</text>
</a>
</g>
</g>
<!-- Node5&#45;&gt;Node6 -->
<g id="edge5" class="edge"><title>Node5&#45;&gt;Node6</title>
<path fill="none" stroke="midnightblue" d="M651.365,-216.233C678.331,-222.318 708.418,-229.108 734.501,-234.994"/>
<polygon fill="midnightblue" stroke="midnightblue" points="652.11,-212.813 641.585,-214.026 650.569,-219.641 652.11,-212.813"/>
</g>
<!-- Node7 -->
<g id="node7" class="node"><title>Node7</title>
<g id="a_node7"><a xlink:href="../../d7/dc7/classview_1_1listwindows_1_1_user_defined_commands_window.html#adaf32233789f6a07c42b4e459699bf53" target="_top" xlink:title="view.listwindows.UserDefined\lCommandsWindow.setButtonAction">
<polygon fill="white" stroke="black" points="708.5,-186 708.5,-216 895.5,-216 895.5,-186 708.5,-186"/>
<text text-anchor="start" x="716.5" y="-204" font-family="Helvetica,sans-Serif" font-size="10.00">view.listwindows.UserDefined</text>
<text text-anchor="middle" x="802" y="-193" font-family="Helvetica,sans-Serif" font-size="10.00">CommandsWindow.setButtonAction</text>
</a>
</g>
</g>
<!-- Node5&#45;&gt;Node7 -->
<g id="edge6" class="edge"><title>Node5&#45;&gt;Node7</title>
<path fill="none" stroke="midnightblue" d="M659.348,-199.746C675.295,-199.888 692.058,-200.036 708.247,-200.179"/>
<polygon fill="midnightblue" stroke="midnightblue" points="659.031,-196.244 649.001,-199.655 658.969,-203.243 659.031,-196.244"/>
</g>
<!-- Node9 -->
<g id="node9" class="node"><title>Node9</title>
<g id="a_node9"><a xlink:href="../../db/d98/classview_1_1components_1_1_command_port.html#a37ae451233579691839c4a52072c94e9" target="_top" xlink:title="view.components.CommandPort.\lCommandPort">
<polygon fill="white" stroke="black" points="714.5,-137 714.5,-167 889.5,-167 889.5,-137 714.5,-137"/>
<text text-anchor="start" x="722.5" y="-155" font-family="Helvetica,sans-Serif" font-size="10.00">view.components.CommandPort.</text>
<text text-anchor="middle" x="802" y="-144" font-family="Helvetica,sans-Serif" font-size="10.00">CommandPort</text>
</a>
</g>
</g>
<!-- Node8&#45;&gt;Node9 -->
<g id="edge8" class="edge"><title>Node8&#45;&gt;Node9</title>
<path fill="none" stroke="midnightblue" d="M679.702,-149.316C691.321,-149.573 703.056,-149.833 714.415,-150.084"/>
<polygon fill="midnightblue" stroke="midnightblue" points="679.61,-145.814 669.535,-149.091 679.455,-152.812 679.61,-145.814"/>
</g>
<!-- Node10 -->
<g id="node10" class="node"><title>Node10</title>
<g id="a_node10"><a xlink:href="../../db/d98/classview_1_1components_1_1_command_port.html#afcdcfbfa864e7438dc0f0a3f1c541294" target="_top" xlink:title="view.components.CommandPort.run\lCommand">
<polygon fill="white" stroke="black" points="706.5,-88 706.5,-118 897.5,-118 897.5,-88 706.5,-88"/>
<text text-anchor="start" x="714.5" y="-106" font-family="Helvetica,sans-Serif" font-size="10.00">view.components.CommandPort.run</text>
<text text-anchor="middle" x="802" y="-95" font-family="Helvetica,sans-Serif" font-size="10.00">Command</text>
</a>
</g>
</g>
<!-- Node8&#45;&gt;Node10 -->
<g id="edge9" class="edge"><title>Node8&#45;&gt;Node10</title>
<path fill="none" stroke="midnightblue" d="M662.029,-130.056C682.384,-126.093 703.928,-121.899 723.82,-118.026"/>
<polygon fill="midnightblue" stroke="midnightblue" points="661.291,-126.634 652.144,-131.981 662.629,-133.505 661.291,-126.634"/>
</g>
<!-- Node13 -->
<g id="node13" class="node"><title>Node13</title>
<g id="a_node13"><a xlink:href="../../d3/dbe/classview_1_1_view.html#a59bb3de727676a9d3c1630f9e58b9614" target="_top" xlink:title="view.View.addTopBars">
<polygon fill="white" stroke="black" points="742.5,-49.5 742.5,-68.5 861.5,-68.5 861.5,-49.5 742.5,-49.5"/>
<text text-anchor="middle" x="802" y="-56.5" font-family="Helvetica,sans-Serif" font-size="10.00">view.View.addTopBars</text>
</a>
</g>
</g>
<!-- Node12&#45;&gt;Node13 -->
<g id="edge12" class="edge"><title>Node12&#45;&gt;Node13</title>
<path fill="none" stroke="midnightblue" d="M659.634,-59.6255C687.124,-59.5039 717.009,-59.3716 742.19,-59.2602"/>
<polygon fill="midnightblue" stroke="midnightblue" points="659.612,-56.1255 649.627,-59.6698 659.643,-63.1254 659.612,-56.1255"/>
</g>
<!-- Node15 -->
<g id="node15" class="node"><title>Node15</title>
<g id="a_node15"><a xlink:href="../../d3/dbe/classview_1_1_view.html#aef53667bcfbe243d64e3416529c35f8f" target="_top" xlink:title="view.View.addNewTab">
<polygon fill="white" stroke="black" points="743.5,-11.5 743.5,-30.5 860.5,-30.5 860.5,-11.5 743.5,-11.5"/>
<text text-anchor="middle" x="802" y="-18.5" font-family="Helvetica,sans-Serif" font-size="10.00">view.View.addNewTab</text>
</a>
</g>
</g>
<!-- Node12&#45;&gt;Node15 -->
<g id="edge14" class="edge"><title>Node12&#45;&gt;Node15</title>
<path fill="none" stroke="midnightblue" d="M640.424,-48.71C673.849,-42.942 714.068,-36.0015 745.894,-30.5095"/>
<polygon fill="midnightblue" stroke="midnightblue" points="639.545,-45.3099 630.286,-50.4595 640.735,-52.2079 639.545,-45.3099"/>
</g>
<!-- Node14 -->
<g id="node14" class="node"><title>Node14</title>
<g id="a_node14"><a xlink:href="../../d3/dbe/classview_1_1_view.html#ab8997f733f923e68829b13b7e9633bc7" target="_top" xlink:title="view.View.View">
<polygon fill="white" stroke="black" points="970.5,-49.5 970.5,-68.5 1055.5,-68.5 1055.5,-49.5 970.5,-49.5"/>
<text text-anchor="middle" x="1013" y="-56.5" font-family="Helvetica,sans-Serif" font-size="10.00">view.View.View</text>
</a>
</g>
</g>
<!-- Node13&#45;&gt;Node14 -->
<g id="edge13" class="edge"><title>Node13&#45;&gt;Node14</title>
<path fill="none" stroke="midnightblue" d="M872.109,-59C904.558,-59 942.168,-59 970.214,-59"/>
<polygon fill="midnightblue" stroke="midnightblue" points="871.774,-55.5001 861.774,-59 871.774,-62.5001 871.774,-55.5001"/>
</g>
<!-- Node15&#45;&gt;Node14 -->
<g id="edge17" class="edge"><title>Node15&#45;&gt;Node14</title>
<path fill="none" stroke="midnightblue" d="M865.733,-32.4059C899.59,-38.5619 940.45,-45.9909 970.368,-51.4305"/>
<polygon fill="midnightblue" stroke="midnightblue" points="865.935,-28.8853 855.47,-30.54 864.682,-35.7724 865.935,-28.8853"/>
</g>
<!-- Node16 -->
<g id="node16" class="node"><title>Node16</title>
<g id="a_node16"><a xlink:href="../../da/da8/classview_1_1components_1_1_s_logo_menu_bar.html#a50a896e8874b794c164559d97c531b78" target="_top" xlink:title="view.components.SLogoMenu\lBar.makeFileMenu">
<polygon fill="white" stroke="black" points="934,-0 934,-30 1092,-30 1092,-0 934,-0"/>
<text text-anchor="start" x="942" y="-18" font-family="Helvetica,sans-Serif" font-size="10.00">view.components.SLogoMenu</text>
<text text-anchor="middle" x="1013" y="-7" font-family="Helvetica,sans-Serif" font-size="10.00">Bar.makeFileMenu</text>
</a>
</g>
</g>
<!-- Node15&#45;&gt;Node16 -->
<g id="edge15" class="edge"><title>Node15&#45;&gt;Node16</title>
<path fill="none" stroke="midnightblue" d="M870.674,-19.0572C890.811,-18.4791 913.041,-17.8409 933.792,-17.2452"/>
<polygon fill="midnightblue" stroke="midnightblue" points="870.559,-15.559 860.663,-19.3446 870.76,-22.5561 870.559,-15.559"/>
</g>
<!-- Node17 -->
<g id="node17" class="node"><title>Node17</title>
<g id="a_node17"><a xlink:href="../../da/da8/classview_1_1components_1_1_s_logo_menu_bar.html#afbe8434fba1476e5cbe7401c6bc158ec" target="_top" xlink:title="view.components.SLogoMenu\lBar.SLogoMenuBar">
<polygon fill="white" stroke="black" points="1128,-0 1128,-30 1286,-30 1286,-0 1128,-0"/>
<text text-anchor="start" x="1136" y="-18" font-family="Helvetica,sans-Serif" font-size="10.00">view.components.SLogoMenu</text>
<text text-anchor="middle" x="1207" y="-7" font-family="Helvetica,sans-Serif" font-size="10.00">Bar.SLogoMenuBar</text>
</a>
</g>
</g>
<!-- Node16&#45;&gt;Node17 -->
<g id="edge16" class="edge"><title>Node16&#45;&gt;Node17</title>
<path fill="none" stroke="midnightblue" d="M1102.15,-15C1110.77,-15 1119.47,-15 1127.98,-15"/>
<polygon fill="midnightblue" stroke="midnightblue" points="1102.09,-11.5001 1092.09,-15 1102.09,-18.5001 1102.09,-11.5001"/>
</g>
</g>
</svg>
