<?xml version="1.0" encoding="UTF-8" standalone="no"?>
<!DOCTYPE svg PUBLIC "-//W3C//DTD SVG 1.1//EN"
 "http://www.w3.org/Graphics/SVG/1.1/DTD/svg11.dtd">
<!-- Generated by graphviz version 2.36.0 (20140111.2315)
 -->
<!-- Title: model.Model.getInstance Pages: 1 -->
<svg width="616pt" height="38pt"
 viewBox="0.00 0.00 616.00 38.00" xmlns="http://www.w3.org/2000/svg" xmlns:xlink="http://www.w3.org/1999/xlink">
<g id="graph0" class="graph" transform="scale(1 1) rotate(0) translate(4 34)">
<title>model.Model.getInstance</title>
<polygon fill="white" stroke="none" points="-4,4 -4,-34 612,-34 612,4 -4,4"/>
<!-- Node1 -->
<g id="node1" class="node"><title>Node1</title>
<polygon fill="#bfbfbf" stroke="black" points="0.5,-5.5 0.5,-24.5 137.5,-24.5 137.5,-5.5 0.5,-5.5"/>
<text text-anchor="middle" x="69" y="-12.5" font-family="Helvetica,sans-Serif" font-size="10.00">model.Model.getInstance</text>
</g>
<!-- Node2 -->
<g id="node2" class="node"><title>Node2</title>
<g id="a_node2"><a xlink:href="../../d3/d42/classmodel_1_1_model.html#af870d64d87a18f6cd1a84a77ff6dc3a1" target="_top" xlink:title="model.Model.Model">
<polygon fill="white" stroke="black" points="174,-5.5 174,-24.5 284,-24.5 284,-5.5 174,-5.5"/>
<text text-anchor="middle" x="229" y="-12.5" font-family="Helvetica,sans-Serif" font-size="10.00">model.Model.Model</text>
</a>
</g>
</g>
<!-- Node1&#45;&gt;Node2 -->
<g id="edge1" class="edge"><title>Node1&#45;&gt;Node2</title>
<path fill="none" stroke="midnightblue" d="M137.923,-15C146.486,-15 155.225,-15 163.729,-15"/>
<polygon fill="midnightblue" stroke="midnightblue" points="163.957,-18.5001 173.957,-15 163.957,-11.5001 163.957,-18.5001"/>
</g>
<!-- Node3 -->
<g id="node3" class="node"><title>Node3</title>
<g id="a_node3"><a xlink:href="../../d3/d42/classmodel_1_1_model.html#a068261e6e8761ccabf6d227ee17732ea" target="_top" xlink:title="model.Model.setState">
<polygon fill="white" stroke="black" points="320,-5.5 320,-24.5 442,-24.5 442,-5.5 320,-5.5"/>
<text text-anchor="middle" x="381" y="-12.5" font-family="Helvetica,sans-Serif" font-size="10.00">model.Model.setState</text>
</a>
</g>
</g>
<!-- Node2&#45;&gt;Node3 -->
<g id="edge2" class="edge"><title>Node2&#45;&gt;Node3</title>
<path fill="none" stroke="midnightblue" d="M284.153,-15C292.477,-15 301.173,-15 309.784,-15"/>
<polygon fill="midnightblue" stroke="midnightblue" points="309.827,-18.5001 319.827,-15 309.827,-11.5001 309.827,-18.5001"/>
</g>
<!-- Node4 -->
<g id="node4" class="node"><title>Node4</title>
<g id="a_node4"><a xlink:href="../../d4/d3a/classparser_1_1parser_1_1_parser.html#a6e5a4c214fd0af163bdf2f1f5ad84505" target="_top" xlink:title="parser.parser.Parser.set\lActiveState">
<polygon fill="white" stroke="black" points="478,-0 478,-30 608,-30 608,-0 478,-0"/>
<text text-anchor="start" x="486" y="-18" font-family="Helvetica,sans-Serif" font-size="10.00">parser.parser.Parser.set</text>
<text text-anchor="middle" x="543" y="-7" font-family="Helvetica,sans-Serif" font-size="10.00">ActiveState</text>
</a>
</g>
</g>
<!-- Node3&#45;&gt;Node4 -->
<g id="edge3" class="edge"><title>Node3&#45;&gt;Node4</title>
<path fill="none" stroke="midnightblue" d="M442.033,-15C450.446,-15 459.174,-15 467.811,-15"/>
<polygon fill="midnightblue" stroke="midnightblue" points="467.883,-18.5001 477.883,-15 467.883,-11.5001 467.883,-18.5001"/>
</g>
</g>
</svg>
