<?xml version="1.0" encoding="UTF-8" standalone="no"?>
<!DOCTYPE svg PUBLIC "-//W3C//DTD SVG 1.1//EN"
 "http://www.w3.org/Graphics/SVG/1.1/DTD/svg11.dtd">
<!-- Generated by graphviz version 2.36.0 (20140111.2315)
 -->
<!-- Title: parser.commands.AskWith Pages: 1 -->
<svg width="152pt" height="196pt"
 viewBox="0.00 0.00 152.00 196.00" xmlns="http://www.w3.org/2000/svg" xmlns:xlink="http://www.w3.org/1999/xlink">
<g id="graph0" class="graph" transform="scale(1 1) rotate(0) translate(4 192)">
<title>parser.commands.AskWith</title>
<polygon fill="white" stroke="none" points="-4,4 -4,-192 148,-192 148,4 -4,4"/>
<!-- Node1 -->
<g id="node1" class="node"><title>Node1</title>
<polygon fill="#bfbfbf" stroke="black" points="0,-0.5 0,-19.5 144,-19.5 144,-0.5 0,-0.5"/>
<text text-anchor="middle" x="72" y="-7.5" font-family="Helvetica,sans-Serif" font-size="10.00">parser.commands.AskWith</text>
</g>
<!-- Node2 -->
<g id="node2" class="node"><title>Node2</title>
<g id="a_node2"><a xlink:href="../../db/dea/classparser_1_1commands_1_1_ask.html" target="_top" xlink:title="parser.commands.Ask">
<polygon fill="white" stroke="black" points="10,-56.5 10,-75.5 134,-75.5 134,-56.5 10,-56.5"/>
<text text-anchor="middle" x="72" y="-63.5" font-family="Helvetica,sans-Serif" font-size="10.00">parser.commands.Ask</text>
</a>
</g>
</g>
<!-- Node2&#45;&gt;Node1 -->
<g id="edge1" class="edge"><title>Node2&#45;&gt;Node1</title>
<path fill="none" stroke="midnightblue" d="M72,-45.8045C72,-36.9102 72,-26.7798 72,-19.7511"/>
<polygon fill="midnightblue" stroke="midnightblue" points="68.5001,-46.083 72,-56.083 75.5001,-46.083 68.5001,-46.083"/>
</g>
<!-- Node3 -->
<g id="node3" class="node"><title>Node3</title>
<g id="a_node3"><a xlink:href="../../db/d11/classparser_1_1nodes_1_1_binary_node.html" target="_top" xlink:title="parser.nodes.BinaryNode">
<polygon fill="white" stroke="black" points="3.5,-112.5 3.5,-131.5 140.5,-131.5 140.5,-112.5 3.5,-112.5"/>
<text text-anchor="middle" x="72" y="-119.5" font-family="Helvetica,sans-Serif" font-size="10.00">parser.nodes.BinaryNode</text>
</a>
</g>
</g>
<!-- Node3&#45;&gt;Node2 -->
<g id="edge2" class="edge"><title>Node3&#45;&gt;Node2</title>
<path fill="none" stroke="midnightblue" d="M72,-101.805C72,-92.9102 72,-82.7798 72,-75.7511"/>
<polygon fill="midnightblue" stroke="midnightblue" points="68.5001,-102.083 72,-112.083 75.5001,-102.083 68.5001,-102.083"/>
</g>
<!-- Node4 -->
<g id="node4" class="node"><title>Node4</title>
<g id="a_node4"><a xlink:href="../../da/d96/classparser_1_1nodes_1_1_syntax_node.html" target="_top" xlink:title="parser.nodes.SyntaxNode">
<polygon fill="white" stroke="black" points="2,-168.5 2,-187.5 142,-187.5 142,-168.5 2,-168.5"/>
<text text-anchor="middle" x="72" y="-175.5" font-family="Helvetica,sans-Serif" font-size="10.00">parser.nodes.SyntaxNode</text>
</a>
</g>
</g>
<!-- Node4&#45;&gt;Node3 -->
<g id="edge3" class="edge"><title>Node4&#45;&gt;Node3</title>
<path fill="none" stroke="midnightblue" d="M72,-157.805C72,-148.91 72,-138.78 72,-131.751"/>
<polygon fill="midnightblue" stroke="midnightblue" points="68.5001,-158.083 72,-168.083 75.5001,-158.083 68.5001,-158.083"/>
</g>
</g>
</svg>
