<?xml version="1.0" encoding="UTF-8" standalone="no"?>
<!DOCTYPE svg PUBLIC "-//W3C//DTD SVG 1.1//EN"
 "http://www.w3.org/Graphics/SVG/1.1/DTD/svg11.dtd">
<!-- Generated by graphviz version 2.36.0 (20140111.2315)
 -->
<!-- Title: parser.nodes.TrinaryNode Pages: 1 -->
<svg width="148pt" height="118pt"
 viewBox="0.00 0.00 148.00 118.00" xmlns="http://www.w3.org/2000/svg" xmlns:xlink="http://www.w3.org/1999/xlink">
<g id="graph0" class="graph" transform="scale(1 1) rotate(0) translate(4 114)">
<title>parser.nodes.TrinaryNode</title>
<polygon fill="white" stroke="none" points="-4,4 -4,-114 144,-114 144,4 -4,4"/>
<!-- Node1 -->
<g id="node1" class="node"><title>Node1</title>
<polygon fill="#bfbfbf" stroke="black" points="1,-0.5 1,-19.5 139,-19.5 139,-0.5 1,-0.5"/>
<text text-anchor="middle" x="70" y="-7.5" font-family="Helvetica,sans-Serif" font-size="10.00">parser.nodes.TrinaryNode</text>
</g>
<!-- Node2 -->
<g id="node2" class="node"><title>Node2</title>
<g id="a_node2"><a xlink:href="../../da/d96/classparser_1_1nodes_1_1_syntax_node.html" target="_top" xlink:title="parser.nodes.SyntaxNode">
<polygon fill="white" stroke="black" points="0,-90.5 0,-109.5 140,-109.5 140,-90.5 0,-90.5"/>
<text text-anchor="middle" x="70" y="-97.5" font-family="Helvetica,sans-Serif" font-size="10.00">parser.nodes.SyntaxNode</text>
</a>
</g>
</g>
<!-- Node2&#45;&gt;Node1 -->
<g id="edge1" class="edge"><title>Node2&#45;&gt;Node1</title>
<path fill="none" stroke="midnightblue" d="M68.4399,-80.3825C68.2572,-77.5753 68.1003,-74.7126 68,-72 67.4415,-56.8992 67.4415,-53.1008 68,-38 68.2293,-31.7998 68.7539,-24.8151 69.2083,-19.5033"/>
<polygon fill="midnightblue" stroke="midnightblue" points="64.9607,-80.7906 69.2083,-90.4967 71.9406,-80.2602 64.9607,-80.7906"/>
</g>
<!-- Node2&#45;&gt;Node1 -->
<g id="edge2" class="edge"><title>Node2&#45;&gt;Node1</title>
<path fill="none" stroke="#9a32cd" stroke-dasharray="5,2" d="M70,-79.9784C70,-61.3096 70,-33.6696 70,-19.7241"/>
<polygon fill="#9a32cd" stroke="#9a32cd" points="66.5001,-80.2405 70,-90.2405 73.5001,-80.2405 66.5001,-80.2405"/>
<text text-anchor="middle" x="97.5" y="-63.5" font-family="Helvetica,sans-Serif" font-size="10.00"> nodeThree</text>
<text text-anchor="middle" x="97.5" y="-52.5" font-family="Helvetica,sans-Serif" font-size="10.00">nodeOne</text>
<text text-anchor="middle" x="97.5" y="-41.5" font-family="Helvetica,sans-Serif" font-size="10.00">nodeTwo</text>
</g>
</g>
</svg>
