<?xml version="1.0" encoding="UTF-8" standalone="no"?>
<!DOCTYPE svg PUBLIC "-//W3C//DTD SVG 1.1//EN"
 "http://www.w3.org/Graphics/SVG/1.1/DTD/svg11.dtd">
<!-- Generated by graphviz version 2.36.0 (20140111.2315)
 -->
<!-- Title: view.turtle.TurtlePen.drawGappedLine Pages: 1 -->
<svg width="1736pt" height="165pt"
 viewBox="0.00 0.00 1736.00 165.00" xmlns="http://www.w3.org/2000/svg" xmlns:xlink="http://www.w3.org/1999/xlink">
<g id="graph0" class="graph" transform="scale(1 1) rotate(0) translate(4 161)">
<title>view.turtle.TurtlePen.drawGappedLine</title>
<polygon fill="white" stroke="none" points="-4,4 -4,-161 1732,-161 1732,4 -4,4"/>
<!-- Node1 -->
<g id="node1" class="node"><title>Node1</title>
<polygon fill="#bfbfbf" stroke="black" points="0.5,-75 0.5,-105 137.5,-105 137.5,-75 0.5,-75"/>
<text text-anchor="start" x="8.5" y="-93" font-family="Helvetica,sans-Serif" font-size="10.00">view.turtle.TurtlePen.draw</text>
<text text-anchor="middle" x="69" y="-82" font-family="Helvetica,sans-Serif" font-size="10.00">GappedLine</text>
</g>
<!-- Node2 -->
<g id="node2" class="node"><title>Node2</title>
<g id="a_node2"><a xlink:href="../../d4/d93/classview_1_1turtle_1_1_turtle_pen.html#aeb591e6c3666a998228a86dbe9121c35" target="_top" xlink:title="view.turtle.TurtlePen.drawLine">
<polygon fill="white" stroke="black" points="174,-80.5 174,-99.5 330,-99.5 330,-80.5 174,-80.5"/>
<text text-anchor="middle" x="252" y="-87.5" font-family="Helvetica,sans-Serif" font-size="10.00">view.turtle.TurtlePen.drawLine</text>
</a>
</g>
</g>
<!-- Node1&#45;&gt;Node2 -->
<g id="edge1" class="edge"><title>Node1&#45;&gt;Node2</title>
<path fill="none" stroke="midnightblue" d="M147.765,-90C156.457,-90 165.308,-90 173.991,-90"/>
<polygon fill="midnightblue" stroke="midnightblue" points="147.655,-86.5001 137.655,-90 147.655,-93.5001 147.655,-86.5001"/>
</g>
<!-- Node3 -->
<g id="node3" class="node"><title>Node3</title>
<g id="a_node3"><a xlink:href="../../dd/ddc/classview_1_1turtle_1_1_turtle_image.html#afd9abc603b052b7c9c14108400109917" target="_top" xlink:title="view.turtle.TurtleImage.process\lUpdate">
<polygon fill="white" stroke="black" points="366,-75 366,-105 530,-105 530,-75 366,-75"/>
<text text-anchor="start" x="374" y="-93" font-family="Helvetica,sans-Serif" font-size="10.00">view.turtle.TurtleImage.process</text>
<text text-anchor="middle" x="448" y="-82" font-family="Helvetica,sans-Serif" font-size="10.00">Update</text>
</a>
</g>
</g>
<!-- Node2&#45;&gt;Node3 -->
<g id="edge2" class="edge"><title>Node2&#45;&gt;Node3</title>
<path fill="none" stroke="midnightblue" d="M340.486,-90C348.947,-90 357.505,-90 365.9,-90"/>
<polygon fill="midnightblue" stroke="midnightblue" points="340.231,-86.5001 330.231,-90 340.231,-93.5001 340.231,-86.5001"/>
</g>
<!-- Node4 -->
<g id="node4" class="node"><title>Node4</title>
<g id="a_node4"><a xlink:href="../../dd/ddc/classview_1_1turtle_1_1_turtle_image.html#a68a832da6825e57061dbc49b30098291" target="_top" xlink:title="view.turtle.TurtleImage.pop\lUpdate">
<polygon fill="white" stroke="black" points="566,-75 566,-105 710,-105 710,-75 566,-75"/>
<text text-anchor="start" x="574" y="-93" font-family="Helvetica,sans-Serif" font-size="10.00">view.turtle.TurtleImage.pop</text>
<text text-anchor="middle" x="638" y="-82" font-family="Helvetica,sans-Serif" font-size="10.00">Update</text>
</a>
</g>
</g>
<!-- Node3&#45;&gt;Node4 -->
<g id="edge3" class="edge"><title>Node3&#45;&gt;Node4</title>
<path fill="none" stroke="midnightblue" d="M540.205,-90C548.846,-90 557.518,-90 565.929,-90"/>
<polygon fill="midnightblue" stroke="midnightblue" points="540.093,-86.5001 530.093,-90 540.093,-93.5001 540.093,-86.5001"/>
</g>
<!-- Node5 -->
<g id="node5" class="node"><title>Node5</title>
<g id="a_node5"><a xlink:href="../../dd/ddc/classview_1_1turtle_1_1_turtle_image.html#a02651da4da9b4b48bd91656f734ccb03" target="_top" xlink:title="view.turtle.TurtleImage.add\lUpdate">
<polygon fill="white" stroke="black" points="779,-88 779,-118 923,-118 923,-88 779,-88"/>
<text text-anchor="start" x="787" y="-106" font-family="Helvetica,sans-Serif" font-size="10.00">view.turtle.TurtleImage.add</text>
<text text-anchor="middle" x="851" y="-95" font-family="Helvetica,sans-Serif" font-size="10.00">Update</text>
</a>
</g>
</g>
<!-- Node4&#45;&gt;Node5 -->
<g id="edge4" class="edge"><title>Node4&#45;&gt;Node5</title>
<path fill="none" stroke="midnightblue" d="M720.132,-94.9987C739.468,-96.1899 759.958,-97.4524 778.809,-98.6138"/>
<polygon fill="midnightblue" stroke="midnightblue" points="720.337,-91.5047 710.141,-94.3831 719.907,-98.4915 720.337,-91.5047"/>
</g>
<!-- Node6 -->
<g id="node6" class="node"><title>Node6</title>
<g id="a_node6"><a xlink:href="../../dd/ddc/classview_1_1turtle_1_1_turtle_image.html#a958417ed4561c0b910f80944a5110ec7" target="_top" xlink:title="view.turtle.TurtleImage.animatedMove">
<polygon fill="white" stroke="black" points="752.5,-137.5 752.5,-156.5 949.5,-156.5 949.5,-137.5 752.5,-137.5"/>
<text text-anchor="middle" x="851" y="-144.5" font-family="Helvetica,sans-Serif" font-size="10.00">view.turtle.TurtleImage.animatedMove</text>
</a>
</g>
</g>
<!-- Node4&#45;&gt;Node6 -->
<g id="edge5" class="edge"><title>Node4&#45;&gt;Node6</title>
<path fill="none" stroke="midnightblue" d="M687.952,-108.576C706.02,-114.993 726.775,-121.856 746,-127 760.92,-130.992 777.246,-134.518 792.449,-137.453"/>
<polygon fill="midnightblue" stroke="midnightblue" points="688.812,-105.165 678.217,-105.07 686.44,-111.751 688.812,-105.165"/>
</g>
<!-- Node7 -->
<g id="node7" class="node"><title>Node7</title>
<g id="a_node7"><a xlink:href="../../d5/d4b/classview_1_1components_1_1_turtle_window.html#a84744ff6c257318689fc0e014350fb05" target="_top" xlink:title="view.components.TurtleWindow.step\lDebug">
<polygon fill="white" stroke="black" points="758,-39 758,-69 944,-69 944,-39 758,-39"/>
<text text-anchor="start" x="766" y="-57" font-family="Helvetica,sans-Serif" font-size="10.00">view.components.TurtleWindow.step</text>
<text text-anchor="middle" x="851" y="-46" font-family="Helvetica,sans-Serif" font-size="10.00">Debug</text>
</a>
</g>
</g>
<!-- Node4&#45;&gt;Node7 -->
<g id="edge7" class="edge"><title>Node4&#45;&gt;Node7</title>
<path fill="none" stroke="midnightblue" d="M720.017,-76.1772C733.742,-73.8355 748.052,-71.394 761.947,-69.0233"/>
<polygon fill="midnightblue" stroke="midnightblue" points="719.41,-72.7301 710.141,-77.8622 720.587,-79.6304 719.41,-72.7301"/>
</g>
<!-- Node12 -->
<g id="node12" class="node"><title>Node12</title>
<g id="a_node12"><a xlink:href="../../dd/ddc/classview_1_1turtle_1_1_turtle_image.html#aca0a62f113534161f725da472e1f4d9f" target="_top" xlink:title="view.turtle.TurtleImage.unanimatedMove">
<polygon fill="white" stroke="black" points="746.5,-0.5 746.5,-19.5 955.5,-19.5 955.5,-0.5 746.5,-0.5"/>
<text text-anchor="middle" x="851" y="-7.5" font-family="Helvetica,sans-Serif" font-size="10.00">view.turtle.TurtleImage.unanimatedMove</text>
</a>
</g>
</g>
<!-- Node4&#45;&gt;Node12 -->
<g id="edge12" class="edge"><title>Node4&#45;&gt;Node12</title>
<path fill="none" stroke="midnightblue" d="M673.323,-69.6646C701.622,-53.0273 738.318,-31.7991 746,-29 756.606,-25.1355 768.118,-22.0313 779.489,-19.545"/>
<polygon fill="midnightblue" stroke="midnightblue" points="671.317,-66.7842 664.477,-74.8758 674.87,-72.8154 671.317,-66.7842"/>
</g>
<!-- Node6&#45;&gt;Node3 -->
<g id="edge6" class="edge"><title>Node6&#45;&gt;Node3</title>
<path fill="none" stroke="midnightblue" d="M742.311,-136.708C689.099,-131.058 624.015,-123.303 566,-114 550.133,-111.456 533.15,-108.252 517.181,-105.022"/>
<polygon fill="midnightblue" stroke="midnightblue" points="742.135,-140.209 752.446,-137.774 742.867,-133.247 742.135,-140.209"/>
</g>
<!-- Node8 -->
<g id="node8" class="node"><title>Node8</title>
<g id="a_node8"><a xlink:href="../../de/d30/classview_1_1components_1_1_s_logo_workspace.html#ad2141a5cca8101b3d22b2cf7b7473281" target="_top" xlink:title="view.components.SLogoWorkspace.run\lDebugger">
<polygon fill="white" stroke="black" points="992,-39 992,-69 1194,-69 1194,-39 992,-39"/>
<text text-anchor="start" x="1000" y="-57" font-family="Helvetica,sans-Serif" font-size="10.00">view.components.SLogoWorkspace.run</text>
<text text-anchor="middle" x="1093" y="-46" font-family="Helvetica,sans-Serif" font-size="10.00">Debugger</text>
</a>
</g>
</g>
<!-- Node7&#45;&gt;Node8 -->
<g id="edge8" class="edge"><title>Node7&#45;&gt;Node8</title>
<path fill="none" stroke="midnightblue" d="M954.424,-54C966.795,-54 979.421,-54 991.761,-54"/>
<polygon fill="midnightblue" stroke="midnightblue" points="954.104,-50.5001 944.104,-54 954.104,-57.5001 954.104,-50.5001"/>
</g>
<!-- Node9 -->
<g id="node9" class="node"><title>Node9</title>
<g id="a_node9"><a xlink:href="../../d3/dbe/classview_1_1_view.html#af4860035310eeafc92cf78cbbc53290a" target="_top" xlink:title="view.View.runDebugger">
<polygon fill="white" stroke="black" points="1230,-44.5 1230,-63.5 1356,-63.5 1356,-44.5 1230,-44.5"/>
<text text-anchor="middle" x="1293" y="-51.5" font-family="Helvetica,sans-Serif" font-size="10.00">view.View.runDebugger</text>
</a>
</g>
</g>
<!-- Node8&#45;&gt;Node9 -->
<g id="edge9" class="edge"><title>Node8&#45;&gt;Node9</title>
<path fill="none" stroke="midnightblue" d="M1204.42,-54C1213.12,-54 1221.71,-54 1229.9,-54"/>
<polygon fill="midnightblue" stroke="midnightblue" points="1204.16,-50.5001 1194.16,-54 1204.16,-57.5001 1204.16,-50.5001"/>
</g>
<!-- Node10 -->
<g id="node10" class="node"><title>Node10</title>
<g id="a_node10"><a xlink:href="../../d4/d6b/classview_1_1components_1_1_debugger_port.html#a6dd594b7c6572e0f4ef2ab7d8845f2ce" target="_top" xlink:title="view.components.Debugger\lPort.stepDebug">
<polygon fill="white" stroke="black" points="1392.5,-39 1392.5,-69 1541.5,-69 1541.5,-39 1392.5,-39"/>
<text text-anchor="start" x="1400.5" y="-57" font-family="Helvetica,sans-Serif" font-size="10.00">view.components.Debugger</text>
<text text-anchor="middle" x="1467" y="-46" font-family="Helvetica,sans-Serif" font-size="10.00">Port.stepDebug</text>
</a>
</g>
</g>
<!-- Node9&#45;&gt;Node10 -->
<g id="edge10" class="edge"><title>Node9&#45;&gt;Node10</title>
<path fill="none" stroke="midnightblue" d="M1366.13,-54C1374.78,-54 1383.61,-54 1392.28,-54"/>
<polygon fill="midnightblue" stroke="midnightblue" points="1366.1,-50.5001 1356.1,-54 1366.1,-57.5001 1366.1,-50.5001"/>
</g>
<!-- Node11 -->
<g id="node11" class="node"><title>Node11</title>
<g id="a_node11"><a xlink:href="../../d4/d6b/classview_1_1components_1_1_debugger_port.html#a7055f8fe86c7e1078dc9909a7f000b8b" target="_top" xlink:title="view.components.Debugger\lPort.DebuggerPort">
<polygon fill="white" stroke="black" points="1578.5,-39 1578.5,-69 1727.5,-69 1727.5,-39 1578.5,-39"/>
<text text-anchor="start" x="1586.5" y="-57" font-family="Helvetica,sans-Serif" font-size="10.00">view.components.Debugger</text>
<text text-anchor="middle" x="1653" y="-46" font-family="Helvetica,sans-Serif" font-size="10.00">Port.DebuggerPort</text>
</a>
</g>
</g>
<!-- Node10&#45;&gt;Node11 -->
<g id="edge11" class="edge"><title>Node10&#45;&gt;Node11</title>
<path fill="none" stroke="midnightblue" d="M1551.53,-54C1560.46,-54 1569.5,-54 1578.3,-54"/>
<polygon fill="midnightblue" stroke="midnightblue" points="1551.51,-50.5001 1541.51,-54 1551.51,-57.5001 1551.51,-50.5001"/>
</g>
<!-- Node12&#45;&gt;Node3 -->
<g id="edge13" class="edge"><title>Node12&#45;&gt;Node3</title>
<path fill="none" stroke="midnightblue" d="M786.674,-21.3949C773.238,-23.8614 759.145,-26.485 746,-29 665.869,-44.3316 645.893,-48.4758 566,-65 550.643,-68.1763 534.168,-71.6535 518.569,-74.9779"/>
<polygon fill="midnightblue" stroke="midnightblue" points="787.586,-24.7862 796.793,-19.5439 786.327,-17.9004 787.586,-24.7862"/>
</g>
</g>
</svg>
