<?xml version="1.0" encoding="UTF-8" standalone="no"?>
<!DOCTYPE svg PUBLIC "-//W3C//DTD SVG 1.1//EN"
 "http://www.w3.org/Graphics/SVG/1.1/DTD/svg11.dtd">
<!-- Generated by graphviz version 2.36.0 (20140111.2315)
 -->
<!-- Title: view.turtle.TurtlePen.getUnitVector Pages: 1 -->
<svg width="2096pt" height="165pt"
 viewBox="0.00 0.00 2096.00 165.00" xmlns="http://www.w3.org/2000/svg" xmlns:xlink="http://www.w3.org/1999/xlink">
<g id="graph0" class="graph" transform="scale(1 1) rotate(0) translate(4 161)">
<title>view.turtle.TurtlePen.getUnitVector</title>
<polygon fill="white" stroke="none" points="-4,4 -4,-161 2092,-161 2092,4 -4,4"/>
<!-- Node1 -->
<g id="node1" class="node"><title>Node1</title>
<polygon fill="#bfbfbf" stroke="black" points="0,-75 0,-105 130,-105 130,-75 0,-75"/>
<text text-anchor="start" x="8" y="-93" font-family="Helvetica,sans-Serif" font-size="10.00">view.turtle.TurtlePen.get</text>
<text text-anchor="middle" x="65" y="-82" font-family="Helvetica,sans-Serif" font-size="10.00">UnitVector</text>
</g>
<!-- Node2 -->
<g id="node2" class="node"><title>Node2</title>
<g id="a_node2"><a xlink:href="../../d4/d93/classview_1_1turtle_1_1_turtle_pen.html#a78a412ae5c294fd37981146020ea4009" target="_top" xlink:title="view.turtle.TurtlePen.generate\lDashVectorArray">
<polygon fill="white" stroke="black" points="166,-75 166,-105 324,-105 324,-75 166,-75"/>
<text text-anchor="start" x="174" y="-93" font-family="Helvetica,sans-Serif" font-size="10.00">view.turtle.TurtlePen.generate</text>
<text text-anchor="middle" x="245" y="-82" font-family="Helvetica,sans-Serif" font-size="10.00">DashVectorArray</text>
</a>
</g>
</g>
<!-- Node1&#45;&gt;Node2 -->
<g id="edge1" class="edge"><title>Node1&#45;&gt;Node2</title>
<path fill="none" stroke="midnightblue" d="M140.258,-90C148.751,-90 157.429,-90 165.97,-90"/>
<polygon fill="midnightblue" stroke="midnightblue" points="140.011,-86.5001 130.011,-90 140.011,-93.5001 140.011,-86.5001"/>
</g>
<!-- Node3 -->
<g id="node3" class="node"><title>Node3</title>
<g id="a_node3"><a xlink:href="../../d4/d93/classview_1_1turtle_1_1_turtle_pen.html#a3eea64b5d17767f655096870f4a5850d" target="_top" xlink:title="view.turtle.TurtlePen.draw\lGappedLine">
<polygon fill="white" stroke="black" points="360.5,-75 360.5,-105 497.5,-105 497.5,-75 360.5,-75"/>
<text text-anchor="start" x="368.5" y="-93" font-family="Helvetica,sans-Serif" font-size="10.00">view.turtle.TurtlePen.draw</text>
<text text-anchor="middle" x="429" y="-82" font-family="Helvetica,sans-Serif" font-size="10.00">GappedLine</text>
</a>
</g>
</g>
<!-- Node2&#45;&gt;Node3 -->
<g id="edge2" class="edge"><title>Node2&#45;&gt;Node3</title>
<path fill="none" stroke="midnightblue" d="M334.455,-90C343.184,-90 351.945,-90 360.416,-90"/>
<polygon fill="midnightblue" stroke="midnightblue" points="334.241,-86.5001 324.241,-90 334.241,-93.5001 334.241,-86.5001"/>
</g>
<!-- Node4 -->
<g id="node4" class="node"><title>Node4</title>
<g id="a_node4"><a xlink:href="../../d4/d93/classview_1_1turtle_1_1_turtle_pen.html#aeb591e6c3666a998228a86dbe9121c35" target="_top" xlink:title="view.turtle.TurtlePen.drawLine">
<polygon fill="white" stroke="black" points="534,-80.5 534,-99.5 690,-99.5 690,-80.5 534,-80.5"/>
<text text-anchor="middle" x="612" y="-87.5" font-family="Helvetica,sans-Serif" font-size="10.00">view.turtle.TurtlePen.drawLine</text>
</a>
</g>
</g>
<!-- Node3&#45;&gt;Node4 -->
<g id="edge3" class="edge"><title>Node3&#45;&gt;Node4</title>
<path fill="none" stroke="midnightblue" d="M507.765,-90C516.457,-90 525.308,-90 533.991,-90"/>
<polygon fill="midnightblue" stroke="midnightblue" points="507.655,-86.5001 497.655,-90 507.655,-93.5001 507.655,-86.5001"/>
</g>
<!-- Node5 -->
<g id="node5" class="node"><title>Node5</title>
<g id="a_node5"><a xlink:href="../../dd/ddc/classview_1_1turtle_1_1_turtle_image.html#afd9abc603b052b7c9c14108400109917" target="_top" xlink:title="view.turtle.TurtleImage.process\lUpdate">
<polygon fill="white" stroke="black" points="726,-75 726,-105 890,-105 890,-75 726,-75"/>
<text text-anchor="start" x="734" y="-93" font-family="Helvetica,sans-Serif" font-size="10.00">view.turtle.TurtleImage.process</text>
<text text-anchor="middle" x="808" y="-82" font-family="Helvetica,sans-Serif" font-size="10.00">Update</text>
</a>
</g>
</g>
<!-- Node4&#45;&gt;Node5 -->
<g id="edge4" class="edge"><title>Node4&#45;&gt;Node5</title>
<path fill="none" stroke="midnightblue" d="M700.486,-90C708.947,-90 717.505,-90 725.9,-90"/>
<polygon fill="midnightblue" stroke="midnightblue" points="700.231,-86.5001 690.231,-90 700.231,-93.5001 700.231,-86.5001"/>
</g>
<!-- Node6 -->
<g id="node6" class="node"><title>Node6</title>
<g id="a_node6"><a xlink:href="../../dd/ddc/classview_1_1turtle_1_1_turtle_image.html#a68a832da6825e57061dbc49b30098291" target="_top" xlink:title="view.turtle.TurtleImage.pop\lUpdate">
<polygon fill="white" stroke="black" points="926,-75 926,-105 1070,-105 1070,-75 926,-75"/>
<text text-anchor="start" x="934" y="-93" font-family="Helvetica,sans-Serif" font-size="10.00">view.turtle.TurtleImage.pop</text>
<text text-anchor="middle" x="998" y="-82" font-family="Helvetica,sans-Serif" font-size="10.00">Update</text>
</a>
</g>
</g>
<!-- Node5&#45;&gt;Node6 -->
<g id="edge5" class="edge"><title>Node5&#45;&gt;Node6</title>
<path fill="none" stroke="midnightblue" d="M900.205,-90C908.846,-90 917.518,-90 925.929,-90"/>
<polygon fill="midnightblue" stroke="midnightblue" points="900.093,-86.5001 890.093,-90 900.093,-93.5001 900.093,-86.5001"/>
</g>
<!-- Node7 -->
<g id="node7" class="node"><title>Node7</title>
<g id="a_node7"><a xlink:href="../../dd/ddc/classview_1_1turtle_1_1_turtle_image.html#a02651da4da9b4b48bd91656f734ccb03" target="_top" xlink:title="view.turtle.TurtleImage.add\lUpdate">
<polygon fill="white" stroke="black" points="1139,-88 1139,-118 1283,-118 1283,-88 1139,-88"/>
<text text-anchor="start" x="1147" y="-106" font-family="Helvetica,sans-Serif" font-size="10.00">view.turtle.TurtleImage.add</text>
<text text-anchor="middle" x="1211" y="-95" font-family="Helvetica,sans-Serif" font-size="10.00">Update</text>
</a>
</g>
</g>
<!-- Node6&#45;&gt;Node7 -->
<g id="edge6" class="edge"><title>Node6&#45;&gt;Node7</title>
<path fill="none" stroke="midnightblue" d="M1080.13,-94.9987C1099.47,-96.1899 1119.96,-97.4524 1138.81,-98.6138"/>
<polygon fill="midnightblue" stroke="midnightblue" points="1080.34,-91.5047 1070.14,-94.3831 1079.91,-98.4915 1080.34,-91.5047"/>
</g>
<!-- Node8 -->
<g id="node8" class="node"><title>Node8</title>
<g id="a_node8"><a xlink:href="../../dd/ddc/classview_1_1turtle_1_1_turtle_image.html#a958417ed4561c0b910f80944a5110ec7" target="_top" xlink:title="view.turtle.TurtleImage.animatedMove">
<polygon fill="white" stroke="black" points="1112.5,-137.5 1112.5,-156.5 1309.5,-156.5 1309.5,-137.5 1112.5,-137.5"/>
<text text-anchor="middle" x="1211" y="-144.5" font-family="Helvetica,sans-Serif" font-size="10.00">view.turtle.TurtleImage.animatedMove</text>
</a>
</g>
</g>
<!-- Node6&#45;&gt;Node8 -->
<g id="edge7" class="edge"><title>Node6&#45;&gt;Node8</title>
<path fill="none" stroke="midnightblue" d="M1047.95,-108.576C1066.02,-114.993 1086.77,-121.856 1106,-127 1120.92,-130.992 1137.25,-134.518 1152.45,-137.453"/>
<polygon fill="midnightblue" stroke="midnightblue" points="1048.81,-105.165 1038.22,-105.07 1046.44,-111.751 1048.81,-105.165"/>
</g>
<!-- Node9 -->
<g id="node9" class="node"><title>Node9</title>
<g id="a_node9"><a xlink:href="../../d5/d4b/classview_1_1components_1_1_turtle_window.html#a84744ff6c257318689fc0e014350fb05" target="_top" xlink:title="view.components.TurtleWindow.step\lDebug">
<polygon fill="white" stroke="black" points="1118,-39 1118,-69 1304,-69 1304,-39 1118,-39"/>
<text text-anchor="start" x="1126" y="-57" font-family="Helvetica,sans-Serif" font-size="10.00">view.components.TurtleWindow.step</text>
<text text-anchor="middle" x="1211" y="-46" font-family="Helvetica,sans-Serif" font-size="10.00">Debug</text>
</a>
</g>
</g>
<!-- Node6&#45;&gt;Node9 -->
<g id="edge9" class="edge"><title>Node6&#45;&gt;Node9</title>
<path fill="none" stroke="midnightblue" d="M1080.02,-76.1772C1093.74,-73.8355 1108.05,-71.394 1121.95,-69.0233"/>
<polygon fill="midnightblue" stroke="midnightblue" points="1079.41,-72.7301 1070.14,-77.8622 1080.59,-79.6304 1079.41,-72.7301"/>
</g>
<!-- Node14 -->
<g id="node14" class="node"><title>Node14</title>
<g id="a_node14"><a xlink:href="../../dd/ddc/classview_1_1turtle_1_1_turtle_image.html#aca0a62f113534161f725da472e1f4d9f" target="_top" xlink:title="view.turtle.TurtleImage.unanimatedMove">
<polygon fill="white" stroke="black" points="1106.5,-0.5 1106.5,-19.5 1315.5,-19.5 1315.5,-0.5 1106.5,-0.5"/>
<text text-anchor="middle" x="1211" y="-7.5" font-family="Helvetica,sans-Serif" font-size="10.00">view.turtle.TurtleImage.unanimatedMove</text>
</a>
</g>
</g>
<!-- Node6&#45;&gt;Node14 -->
<g id="edge14" class="edge"><title>Node6&#45;&gt;Node14</title>
<path fill="none" stroke="midnightblue" d="M1033.32,-69.6646C1061.62,-53.0273 1098.32,-31.7991 1106,-29 1116.61,-25.1355 1128.12,-22.0313 1139.49,-19.545"/>
<polygon fill="midnightblue" stroke="midnightblue" points="1031.32,-66.7842 1024.48,-74.8758 1034.87,-72.8154 1031.32,-66.7842"/>
</g>
<!-- Node8&#45;&gt;Node5 -->
<g id="edge8" class="edge"><title>Node8&#45;&gt;Node5</title>
<path fill="none" stroke="midnightblue" d="M1102.31,-136.708C1049.1,-131.058 984.015,-123.303 926,-114 910.133,-111.456 893.15,-108.252 877.181,-105.022"/>
<polygon fill="midnightblue" stroke="midnightblue" points="1102.14,-140.209 1112.45,-137.774 1102.87,-133.247 1102.14,-140.209"/>
</g>
<!-- Node10 -->
<g id="node10" class="node"><title>Node10</title>
<g id="a_node10"><a xlink:href="../../de/d30/classview_1_1components_1_1_s_logo_workspace.html#ad2141a5cca8101b3d22b2cf7b7473281" target="_top" xlink:title="view.components.SLogoWorkspace.run\lDebugger">
<polygon fill="white" stroke="black" points="1352,-39 1352,-69 1554,-69 1554,-39 1352,-39"/>
<text text-anchor="start" x="1360" y="-57" font-family="Helvetica,sans-Serif" font-size="10.00">view.components.SLogoWorkspace.run</text>
<text text-anchor="middle" x="1453" y="-46" font-family="Helvetica,sans-Serif" font-size="10.00">Debugger</text>
</a>
</g>
</g>
<!-- Node9&#45;&gt;Node10 -->
<g id="edge10" class="edge"><title>Node9&#45;&gt;Node10</title>
<path fill="none" stroke="midnightblue" d="M1314.42,-54C1326.8,-54 1339.42,-54 1351.76,-54"/>
<polygon fill="midnightblue" stroke="midnightblue" points="1314.1,-50.5001 1304.1,-54 1314.1,-57.5001 1314.1,-50.5001"/>
</g>
<!-- Node11 -->
<g id="node11" class="node"><title>Node11</title>
<g id="a_node11"><a xlink:href="../../d3/dbe/classview_1_1_view.html#af4860035310eeafc92cf78cbbc53290a" target="_top" xlink:title="view.View.runDebugger">
<polygon fill="white" stroke="black" points="1590,-44.5 1590,-63.5 1716,-63.5 1716,-44.5 1590,-44.5"/>
<text text-anchor="middle" x="1653" y="-51.5" font-family="Helvetica,sans-Serif" font-size="10.00">view.View.runDebugger</text>
</a>
</g>
</g>
<!-- Node10&#45;&gt;Node11 -->
<g id="edge11" class="edge"><title>Node10&#45;&gt;Node11</title>
<path fill="none" stroke="midnightblue" d="M1564.42,-54C1573.12,-54 1581.71,-54 1589.9,-54"/>
<polygon fill="midnightblue" stroke="midnightblue" points="1564.16,-50.5001 1554.16,-54 1564.16,-57.5001 1564.16,-50.5001"/>
</g>
<!-- Node12 -->
<g id="node12" class="node"><title>Node12</title>
<g id="a_node12"><a xlink:href="../../d4/d6b/classview_1_1components_1_1_debugger_port.html#a6dd594b7c6572e0f4ef2ab7d8845f2ce" target="_top" xlink:title="view.components.Debugger\lPort.stepDebug">
<polygon fill="white" stroke="black" points="1752.5,-39 1752.5,-69 1901.5,-69 1901.5,-39 1752.5,-39"/>
<text text-anchor="start" x="1760.5" y="-57" font-family="Helvetica,sans-Serif" font-size="10.00">view.components.Debugger</text>
<text text-anchor="middle" x="1827" y="-46" font-family="Helvetica,sans-Serif" font-size="10.00">Port.stepDebug</text>
</a>
</g>
</g>
<!-- Node11&#45;&gt;Node12 -->
<g id="edge12" class="edge"><title>Node11&#45;&gt;Node12</title>
<path fill="none" stroke="midnightblue" d="M1726.13,-54C1734.78,-54 1743.61,-54 1752.28,-54"/>
<polygon fill="midnightblue" stroke="midnightblue" points="1726.1,-50.5001 1716.1,-54 1726.1,-57.5001 1726.1,-50.5001"/>
</g>
<!-- Node13 -->
<g id="node13" class="node"><title>Node13</title>
<g id="a_node13"><a xlink:href="../../d4/d6b/classview_1_1components_1_1_debugger_port.html#a7055f8fe86c7e1078dc9909a7f000b8b" target="_top" xlink:title="view.components.Debugger\lPort.DebuggerPort">
<polygon fill="white" stroke="black" points="1938.5,-39 1938.5,-69 2087.5,-69 2087.5,-39 1938.5,-39"/>
<text text-anchor="start" x="1946.5" y="-57" font-family="Helvetica,sans-Serif" font-size="10.00">view.components.Debugger</text>
<text text-anchor="middle" x="2013" y="-46" font-family="Helvetica,sans-Serif" font-size="10.00">Port.DebuggerPort</text>
</a>
</g>
</g>
<!-- Node12&#45;&gt;Node13 -->
<g id="edge13" class="edge"><title>Node12&#45;&gt;Node13</title>
<path fill="none" stroke="midnightblue" d="M1911.53,-54C1920.46,-54 1929.5,-54 1938.3,-54"/>
<polygon fill="midnightblue" stroke="midnightblue" points="1911.51,-50.5001 1901.51,-54 1911.51,-57.5001 1911.51,-50.5001"/>
</g>
<!-- Node14&#45;&gt;Node5 -->
<g id="edge15" class="edge"><title>Node14&#45;&gt;Node5</title>
<path fill="none" stroke="midnightblue" d="M1146.67,-21.3949C1133.24,-23.8614 1119.14,-26.485 1106,-29 1025.87,-44.3316 1005.89,-48.4758 926,-65 910.643,-68.1763 894.168,-71.6535 878.569,-74.9779"/>
<polygon fill="midnightblue" stroke="midnightblue" points="1147.59,-24.7862 1156.79,-19.5439 1146.33,-17.9004 1147.59,-24.7862"/>
</g>
</g>
</svg>
