<?xml version="1.0" encoding="UTF-8" standalone="no"?>
<!DOCTYPE svg PUBLIC "-//W3C//DTD SVG 1.1//EN"
 "http://www.w3.org/Graphics/SVG/1.1/DTD/svg11.dtd">
<!-- Generated by graphviz version 2.36.0 (20140111.2315)
 -->
<!-- Title: view.turtle.TurtlePen.generateDashVectorArray Pages: 1 -->
<svg width="1930pt" height="165pt"
 viewBox="0.00 0.00 1930.00 165.00" xmlns="http://www.w3.org/2000/svg" xmlns:xlink="http://www.w3.org/1999/xlink">
<g id="graph0" class="graph" transform="scale(1 1) rotate(0) translate(4 161)">
<title>view.turtle.TurtlePen.generateDashVectorArray</title>
<polygon fill="white" stroke="none" points="-4,4 -4,-161 1926,-161 1926,4 -4,4"/>
<!-- Node1 -->
<g id="node1" class="node"><title>Node1</title>
<polygon fill="#bfbfbf" stroke="black" points="0,-75 0,-105 158,-105 158,-75 0,-75"/>
<text text-anchor="start" x="8" y="-93" font-family="Helvetica,sans-Serif" font-size="10.00">view.turtle.TurtlePen.generate</text>
<text text-anchor="middle" x="79" y="-82" font-family="Helvetica,sans-Serif" font-size="10.00">DashVectorArray</text>
</g>
<!-- Node2 -->
<g id="node2" class="node"><title>Node2</title>
<g id="a_node2"><a xlink:href="../../d4/d93/classview_1_1turtle_1_1_turtle_pen.html#a3eea64b5d17767f655096870f4a5850d" target="_top" xlink:title="view.turtle.TurtlePen.draw\lGappedLine">
<polygon fill="white" stroke="black" points="194.5,-75 194.5,-105 331.5,-105 331.5,-75 194.5,-75"/>
<text text-anchor="start" x="202.5" y="-93" font-family="Helvetica,sans-Serif" font-size="10.00">view.turtle.TurtlePen.draw</text>
<text text-anchor="middle" x="263" y="-82" font-family="Helvetica,sans-Serif" font-size="10.00">GappedLine</text>
</a>
</g>
</g>
<!-- Node1&#45;&gt;Node2 -->
<g id="edge1" class="edge"><title>Node1&#45;&gt;Node2</title>
<path fill="none" stroke="midnightblue" d="M168.455,-90C177.184,-90 185.945,-90 194.416,-90"/>
<polygon fill="midnightblue" stroke="midnightblue" points="168.241,-86.5001 158.241,-90 168.241,-93.5001 168.241,-86.5001"/>
</g>
<!-- Node3 -->
<g id="node3" class="node"><title>Node3</title>
<g id="a_node3"><a xlink:href="../../d4/d93/classview_1_1turtle_1_1_turtle_pen.html#aeb591e6c3666a998228a86dbe9121c35" target="_top" xlink:title="view.turtle.TurtlePen.drawLine">
<polygon fill="white" stroke="black" points="368,-80.5 368,-99.5 524,-99.5 524,-80.5 368,-80.5"/>
<text text-anchor="middle" x="446" y="-87.5" font-family="Helvetica,sans-Serif" font-size="10.00">view.turtle.TurtlePen.drawLine</text>
</a>
</g>
</g>
<!-- Node2&#45;&gt;Node3 -->
<g id="edge2" class="edge"><title>Node2&#45;&gt;Node3</title>
<path fill="none" stroke="midnightblue" d="M341.765,-90C350.457,-90 359.308,-90 367.991,-90"/>
<polygon fill="midnightblue" stroke="midnightblue" points="341.655,-86.5001 331.655,-90 341.655,-93.5001 341.655,-86.5001"/>
</g>
<!-- Node4 -->
<g id="node4" class="node"><title>Node4</title>
<g id="a_node4"><a xlink:href="../../dd/ddc/classview_1_1turtle_1_1_turtle_image.html#afd9abc603b052b7c9c14108400109917" target="_top" xlink:title="view.turtle.TurtleImage.process\lUpdate">
<polygon fill="white" stroke="black" points="560,-75 560,-105 724,-105 724,-75 560,-75"/>
<text text-anchor="start" x="568" y="-93" font-family="Helvetica,sans-Serif" font-size="10.00">view.turtle.TurtleImage.process</text>
<text text-anchor="middle" x="642" y="-82" font-family="Helvetica,sans-Serif" font-size="10.00">Update</text>
</a>
</g>
</g>
<!-- Node3&#45;&gt;Node4 -->
<g id="edge3" class="edge"><title>Node3&#45;&gt;Node4</title>
<path fill="none" stroke="midnightblue" d="M534.486,-90C542.947,-90 551.505,-90 559.9,-90"/>
<polygon fill="midnightblue" stroke="midnightblue" points="534.231,-86.5001 524.231,-90 534.231,-93.5001 534.231,-86.5001"/>
</g>
<!-- Node5 -->
<g id="node5" class="node"><title>Node5</title>
<g id="a_node5"><a xlink:href="../../dd/ddc/classview_1_1turtle_1_1_turtle_image.html#a68a832da6825e57061dbc49b30098291" target="_top" xlink:title="view.turtle.TurtleImage.pop\lUpdate">
<polygon fill="white" stroke="black" points="760,-75 760,-105 904,-105 904,-75 760,-75"/>
<text text-anchor="start" x="768" y="-93" font-family="Helvetica,sans-Serif" font-size="10.00">view.turtle.TurtleImage.pop</text>
<text text-anchor="middle" x="832" y="-82" font-family="Helvetica,sans-Serif" font-size="10.00">Update</text>
</a>
</g>
</g>
<!-- Node4&#45;&gt;Node5 -->
<g id="edge4" class="edge"><title>Node4&#45;&gt;Node5</title>
<path fill="none" stroke="midnightblue" d="M734.205,-90C742.846,-90 751.518,-90 759.929,-90"/>
<polygon fill="midnightblue" stroke="midnightblue" points="734.093,-86.5001 724.093,-90 734.093,-93.5001 734.093,-86.5001"/>
</g>
<!-- Node6 -->
<g id="node6" class="node"><title>Node6</title>
<g id="a_node6"><a xlink:href="../../dd/ddc/classview_1_1turtle_1_1_turtle_image.html#a02651da4da9b4b48bd91656f734ccb03" target="_top" xlink:title="view.turtle.TurtleImage.add\lUpdate">
<polygon fill="white" stroke="black" points="973,-88 973,-118 1117,-118 1117,-88 973,-88"/>
<text text-anchor="start" x="981" y="-106" font-family="Helvetica,sans-Serif" font-size="10.00">view.turtle.TurtleImage.add</text>
<text text-anchor="middle" x="1045" y="-95" font-family="Helvetica,sans-Serif" font-size="10.00">Update</text>
</a>
</g>
</g>
<!-- Node5&#45;&gt;Node6 -->
<g id="edge5" class="edge"><title>Node5&#45;&gt;Node6</title>
<path fill="none" stroke="midnightblue" d="M914.132,-94.9987C933.468,-96.1899 953.958,-97.4524 972.809,-98.6138"/>
<polygon fill="midnightblue" stroke="midnightblue" points="914.337,-91.5047 904.141,-94.3831 913.907,-98.4915 914.337,-91.5047"/>
</g>
<!-- Node7 -->
<g id="node7" class="node"><title>Node7</title>
<g id="a_node7"><a xlink:href="../../dd/ddc/classview_1_1turtle_1_1_turtle_image.html#a958417ed4561c0b910f80944a5110ec7" target="_top" xlink:title="view.turtle.TurtleImage.animatedMove">
<polygon fill="white" stroke="black" points="946.5,-137.5 946.5,-156.5 1143.5,-156.5 1143.5,-137.5 946.5,-137.5"/>
<text text-anchor="middle" x="1045" y="-144.5" font-family="Helvetica,sans-Serif" font-size="10.00">view.turtle.TurtleImage.animatedMove</text>
</a>
</g>
</g>
<!-- Node5&#45;&gt;Node7 -->
<g id="edge6" class="edge"><title>Node5&#45;&gt;Node7</title>
<path fill="none" stroke="midnightblue" d="M881.952,-108.576C900.02,-114.993 920.775,-121.856 940,-127 954.92,-130.992 971.246,-134.518 986.449,-137.453"/>
<polygon fill="midnightblue" stroke="midnightblue" points="882.812,-105.165 872.217,-105.07 880.44,-111.751 882.812,-105.165"/>
</g>
<!-- Node8 -->
<g id="node8" class="node"><title>Node8</title>
<g id="a_node8"><a xlink:href="../../d5/d4b/classview_1_1components_1_1_turtle_window.html#a84744ff6c257318689fc0e014350fb05" target="_top" xlink:title="view.components.TurtleWindow.step\lDebug">
<polygon fill="white" stroke="black" points="952,-39 952,-69 1138,-69 1138,-39 952,-39"/>
<text text-anchor="start" x="960" y="-57" font-family="Helvetica,sans-Serif" font-size="10.00">view.components.TurtleWindow.step</text>
<text text-anchor="middle" x="1045" y="-46" font-family="Helvetica,sans-Serif" font-size="10.00">Debug</text>
</a>
</g>
</g>
<!-- Node5&#45;&gt;Node8 -->
<g id="edge8" class="edge"><title>Node5&#45;&gt;Node8</title>
<path fill="none" stroke="midnightblue" d="M914.017,-76.1772C927.742,-73.8355 942.052,-71.394 955.947,-69.0233"/>
<polygon fill="midnightblue" stroke="midnightblue" points="913.41,-72.7301 904.141,-77.8622 914.587,-79.6304 913.41,-72.7301"/>
</g>
<!-- Node13 -->
<g id="node13" class="node"><title>Node13</title>
<g id="a_node13"><a xlink:href="../../dd/ddc/classview_1_1turtle_1_1_turtle_image.html#aca0a62f113534161f725da472e1f4d9f" target="_top" xlink:title="view.turtle.TurtleImage.unanimatedMove">
<polygon fill="white" stroke="black" points="940.5,-0.5 940.5,-19.5 1149.5,-19.5 1149.5,-0.5 940.5,-0.5"/>
<text text-anchor="middle" x="1045" y="-7.5" font-family="Helvetica,sans-Serif" font-size="10.00">view.turtle.TurtleImage.unanimatedMove</text>
</a>
</g>
</g>
<!-- Node5&#45;&gt;Node13 -->
<g id="edge13" class="edge"><title>Node5&#45;&gt;Node13</title>
<path fill="none" stroke="midnightblue" d="M867.323,-69.6646C895.622,-53.0273 932.318,-31.7991 940,-29 950.606,-25.1355 962.118,-22.0313 973.489,-19.545"/>
<polygon fill="midnightblue" stroke="midnightblue" points="865.317,-66.7842 858.477,-74.8758 868.87,-72.8154 865.317,-66.7842"/>
</g>
<!-- Node7&#45;&gt;Node4 -->
<g id="edge7" class="edge"><title>Node7&#45;&gt;Node4</title>
<path fill="none" stroke="midnightblue" d="M936.311,-136.708C883.099,-131.058 818.015,-123.303 760,-114 744.133,-111.456 727.15,-108.252 711.181,-105.022"/>
<polygon fill="midnightblue" stroke="midnightblue" points="936.135,-140.209 946.446,-137.774 936.867,-133.247 936.135,-140.209"/>
</g>
<!-- Node9 -->
<g id="node9" class="node"><title>Node9</title>
<g id="a_node9"><a xlink:href="../../de/d30/classview_1_1components_1_1_s_logo_workspace.html#ad2141a5cca8101b3d22b2cf7b7473281" target="_top" xlink:title="view.components.SLogoWorkspace.run\lDebugger">
<polygon fill="white" stroke="black" points="1186,-39 1186,-69 1388,-69 1388,-39 1186,-39"/>
<text text-anchor="start" x="1194" y="-57" font-family="Helvetica,sans-Serif" font-size="10.00">view.components.SLogoWorkspace.run</text>
<text text-anchor="middle" x="1287" y="-46" font-family="Helvetica,sans-Serif" font-size="10.00">Debugger</text>
</a>
</g>
</g>
<!-- Node8&#45;&gt;Node9 -->
<g id="edge9" class="edge"><title>Node8&#45;&gt;Node9</title>
<path fill="none" stroke="midnightblue" d="M1148.42,-54C1160.8,-54 1173.42,-54 1185.76,-54"/>
<polygon fill="midnightblue" stroke="midnightblue" points="1148.1,-50.5001 1138.1,-54 1148.1,-57.5001 1148.1,-50.5001"/>
</g>
<!-- Node10 -->
<g id="node10" class="node"><title>Node10</title>
<g id="a_node10"><a xlink:href="../../d3/dbe/classview_1_1_view.html#af4860035310eeafc92cf78cbbc53290a" target="_top" xlink:title="view.View.runDebugger">
<polygon fill="white" stroke="black" points="1424,-44.5 1424,-63.5 1550,-63.5 1550,-44.5 1424,-44.5"/>
<text text-anchor="middle" x="1487" y="-51.5" font-family="Helvetica,sans-Serif" font-size="10.00">view.View.runDebugger</text>
</a>
</g>
</g>
<!-- Node9&#45;&gt;Node10 -->
<g id="edge10" class="edge"><title>Node9&#45;&gt;Node10</title>
<path fill="none" stroke="midnightblue" d="M1398.42,-54C1407.12,-54 1415.71,-54 1423.9,-54"/>
<polygon fill="midnightblue" stroke="midnightblue" points="1398.16,-50.5001 1388.16,-54 1398.16,-57.5001 1398.16,-50.5001"/>
</g>
<!-- Node11 -->
<g id="node11" class="node"><title>Node11</title>
<g id="a_node11"><a xlink:href="../../d4/d6b/classview_1_1components_1_1_debugger_port.html#a6dd594b7c6572e0f4ef2ab7d8845f2ce" target="_top" xlink:title="view.components.Debugger\lPort.stepDebug">
<polygon fill="white" stroke="black" points="1586.5,-39 1586.5,-69 1735.5,-69 1735.5,-39 1586.5,-39"/>
<text text-anchor="start" x="1594.5" y="-57" font-family="Helvetica,sans-Serif" font-size="10.00">view.components.Debugger</text>
<text text-anchor="middle" x="1661" y="-46" font-family="Helvetica,sans-Serif" font-size="10.00">Port.stepDebug</text>
</a>
</g>
</g>
<!-- Node10&#45;&gt;Node11 -->
<g id="edge11" class="edge"><title>Node10&#45;&gt;Node11</title>
<path fill="none" stroke="midnightblue" d="M1560.13,-54C1568.78,-54 1577.61,-54 1586.28,-54"/>
<polygon fill="midnightblue" stroke="midnightblue" points="1560.1,-50.5001 1550.1,-54 1560.1,-57.5001 1560.1,-50.5001"/>
</g>
<!-- Node12 -->
<g id="node12" class="node"><title>Node12</title>
<g id="a_node12"><a xlink:href="../../d4/d6b/classview_1_1components_1_1_debugger_port.html#a7055f8fe86c7e1078dc9909a7f000b8b" target="_top" xlink:title="view.components.Debugger\lPort.DebuggerPort">
<polygon fill="white" stroke="black" points="1772.5,-39 1772.5,-69 1921.5,-69 1921.5,-39 1772.5,-39"/>
<text text-anchor="start" x="1780.5" y="-57" font-family="Helvetica,sans-Serif" font-size="10.00">view.components.Debugger</text>
<text text-anchor="middle" x="1847" y="-46" font-family="Helvetica,sans-Serif" font-size="10.00">Port.DebuggerPort</text>
</a>
</g>
</g>
<!-- Node11&#45;&gt;Node12 -->
<g id="edge12" class="edge"><title>Node11&#45;&gt;Node12</title>
<path fill="none" stroke="midnightblue" d="M1745.53,-54C1754.46,-54 1763.5,-54 1772.3,-54"/>
<polygon fill="midnightblue" stroke="midnightblue" points="1745.51,-50.5001 1735.51,-54 1745.51,-57.5001 1745.51,-50.5001"/>
</g>
<!-- Node13&#45;&gt;Node4 -->
<g id="edge14" class="edge"><title>Node13&#45;&gt;Node4</title>
<path fill="none" stroke="midnightblue" d="M980.674,-21.3949C967.238,-23.8614 953.145,-26.485 940,-29 859.869,-44.3316 839.893,-48.4758 760,-65 744.643,-68.1763 728.168,-71.6535 712.569,-74.9779"/>
<polygon fill="midnightblue" stroke="midnightblue" points="981.586,-24.7862 990.793,-19.5439 980.327,-17.9004 981.586,-24.7862"/>
</g>
</g>
</svg>
