<?xml version="1.0" encoding="UTF-8" standalone="no"?>
<!DOCTYPE svg PUBLIC "-//W3C//DTD SVG 1.1//EN"
 "http://www.w3.org/Graphics/SVG/1.1/DTD/svg11.dtd">
<!-- Generated by graphviz version 2.36.0 (20140111.2315)
 -->
<!-- Title: view.turtle.TurtlePen.updatePen Pages: 1 -->
<!--zoomable 165 -->
<svg id="main" version="1.1" xmlns="http://www.w3.org/2000/svg" xmlns:xlink="http://www.w3.org/1999/xlink" xml:space="preserve" onload="init(evt)">
<style type="text/css"><![CDATA[
.edge:hover path { stroke: red; }
.edge:hover polygon { stroke: red; fill: red; }
]]></style>
<script type="text/javascript"><![CDATA[
var edges = document.getElementsByTagName('g');
if (edges && edges.length) {
  for (var i=0;i<edges.length;i++) {
    if (edges[i].id.substr(0,4)=='edge') {
      edges[i].setAttribute('class','edge');
    }
  }
}
]]></script>
        <defs>
                <circle id="rim" cx="0" cy="0" r="7"/>
                <circle id="rim2" cx="0" cy="0" r="3.5"/>
                <g id="zoomPlus">
                        <use xlink:href="#rim" fill="#404040">
                                <set attributeName="fill" to="#808080" begin="zoomplus.mouseover" end="zoomplus.mouseout"/>
                        </use>
                        <path d="M-4,0h8M0,-4v8" fill="none" stroke="white" stroke-width="1.5" pointer-events="none"/>
                </g>
                <g id="zoomMin">
                        <use xlink:href="#rim" fill="#404040">
                                <set attributeName="fill" to="#808080" begin="zoomminus.mouseover" end="zoomminus.mouseout"/>
                        </use>
                        <path d="M-4,0h8" fill="none" stroke="white" stroke-width="1.5" pointer-events="none"/>
                </g>
                <g id="dirArrow">
                        <path fill="none" stroke="white" stroke-width="1.5" d="M0,-3.0v7 M-2.5,-0.5L0,-3.0L2.5,-0.5"/>
                </g>
               <g id="resetDef">
                       <use xlink:href="#rim2" fill="#404040">
                               <set attributeName="fill" to="#808080" begin="reset.mouseover" end="reset.mouseout"/>
                       </use>
               </g>
        </defs>

<script type="text/javascript">
var viewWidth = 1572;
var viewHeight = 165;
var sectionId = 'dynsection-14';
</script>
<script xlink:href="../../svgpan.js"/>
<svg id="graph" class="graph">
<g id="viewport">
<title>view.turtle.TurtlePen.updatePen</title>
<polygon fill="white" stroke="none" points="-4,4 -4,-161 1568,-161 1568,4 -4,4"/>
<!-- Node1 -->
<g id="node1" class="node"><title>Node1</title>
<polygon fill="#bfbfbf" stroke="black" points="0,-55.5 0,-74.5 166,-74.5 166,-55.5 0,-55.5"/>
<text text-anchor="middle" x="83" y="-62.5" font-family="Helvetica,sans-Serif" font-size="10.00">view.turtle.TurtlePen.updatePen</text>
</g>
<!-- Node2 -->
<g id="node2" class="node"><title>Node2</title>
<g id="a_node2"><a xlink:href="../../dd/ddc/classview_1_1turtle_1_1_turtle_image.html#afd9abc603b052b7c9c14108400109917" target="_top" xlink:title="view.turtle.TurtleImage.process\lUpdate">
<polygon fill="white" stroke="black" points="202,-75 202,-105 366,-105 366,-75 202,-75"/>
<text text-anchor="start" x="210" y="-93" font-family="Helvetica,sans-Serif" font-size="10.00">view.turtle.TurtleImage.process</text>
<text text-anchor="middle" x="284" y="-82" font-family="Helvetica,sans-Serif" font-size="10.00">Update</text>
</a>
</g>
</g>
<!-- Node1&#45;&gt;Node2 -->
<g id="edge1" class="edge"><title>Node1&#45;&gt;Node2</title>
<path fill="none" stroke="midnightblue" d="M169.873,-75.7881C180.462,-77.1183 191.261,-78.475 201.778,-79.7962"/>
<polygon fill="midnightblue" stroke="midnightblue" points="170.159,-72.2966 159.801,-74.5227 169.287,-79.242 170.159,-72.2966"/>
</g>
<!-- Node12 -->
<g id="node12" class="node"><title>Node12</title>
<g id="a_node12"><a xlink:href="../../dd/ddc/classview_1_1turtle_1_1_turtle_image.html#a617c137e40fb50b93d2fa112c8cc87f0" target="_top" xlink:title="view.turtle.TurtleImage.set\lPenProperties">
<polygon fill="white" stroke="black" points="213.5,-26 213.5,-56 354.5,-56 354.5,-26 213.5,-26"/>
<text text-anchor="start" x="221.5" y="-44" font-family="Helvetica,sans-Serif" font-size="10.00">view.turtle.TurtleImage.set</text>
<text text-anchor="middle" x="284" y="-33" font-family="Helvetica,sans-Serif" font-size="10.00">PenProperties</text>
</a>
</g>
</g>
<!-- Node1&#45;&gt;Node12 -->
<g id="edge13" class="edge"><title>Node1&#45;&gt;Node12</title>
<path fill="none" stroke="midnightblue" d="M173.203,-54.2419C186.716,-52.6122 200.485,-50.9516 213.499,-49.3821"/>
<polygon fill="midnightblue" stroke="midnightblue" points="172.445,-50.8078 162.936,-55.4801 173.283,-57.7575 172.445,-50.8078"/>
</g>
<!-- Node3 -->
<g id="node3" class="node"><title>Node3</title>
<g id="a_node3"><a xlink:href="../../dd/ddc/classview_1_1turtle_1_1_turtle_image.html#a68a832da6825e57061dbc49b30098291" target="_top" xlink:title="view.turtle.TurtleImage.pop\lUpdate">
<polygon fill="white" stroke="black" points="402,-75 402,-105 546,-105 546,-75 402,-75"/>
<text text-anchor="start" x="410" y="-93" font-family="Helvetica,sans-Serif" font-size="10.00">view.turtle.TurtleImage.pop</text>
<text text-anchor="middle" x="474" y="-82" font-family="Helvetica,sans-Serif" font-size="10.00">Update</text>
</a>
</g>
</g>
<!-- Node2&#45;&gt;Node3 -->
<g id="edge2" class="edge"><title>Node2&#45;&gt;Node3</title>
<path fill="none" stroke="midnightblue" d="M376.205,-90C384.846,-90 393.518,-90 401.929,-90"/>
<polygon fill="midnightblue" stroke="midnightblue" points="376.093,-86.5001 366.093,-90 376.093,-93.5001 376.093,-86.5001"/>
</g>
<!-- Node4 -->
<g id="node4" class="node"><title>Node4</title>
<g id="a_node4"><a xlink:href="../../dd/ddc/classview_1_1turtle_1_1_turtle_image.html#a02651da4da9b4b48bd91656f734ccb03" target="_top" xlink:title="view.turtle.TurtleImage.add\lUpdate">
<polygon fill="white" stroke="black" points="615,-88 615,-118 759,-118 759,-88 615,-88"/>
<text text-anchor="start" x="623" y="-106" font-family="Helvetica,sans-Serif" font-size="10.00">view.turtle.TurtleImage.add</text>
<text text-anchor="middle" x="687" y="-95" font-family="Helvetica,sans-Serif" font-size="10.00">Update</text>
</a>
</g>
</g>
<!-- Node3&#45;&gt;Node4 -->
<g id="edge3" class="edge"><title>Node3&#45;&gt;Node4</title>
<path fill="none" stroke="midnightblue" d="M556.132,-94.9987C575.468,-96.1899 595.958,-97.4524 614.809,-98.6138"/>
<polygon fill="midnightblue" stroke="midnightblue" points="556.337,-91.5047 546.141,-94.3831 555.907,-98.4915 556.337,-91.5047"/>
</g>
<!-- Node5 -->
<g id="node5" class="node"><title>Node5</title>
<g id="a_node5"><a xlink:href="../../dd/ddc/classview_1_1turtle_1_1_turtle_image.html#a958417ed4561c0b910f80944a5110ec7" target="_top" xlink:title="view.turtle.TurtleImage.animatedMove">
<polygon fill="white" stroke="black" points="588.5,-137.5 588.5,-156.5 785.5,-156.5 785.5,-137.5 588.5,-137.5"/>
<text text-anchor="middle" x="687" y="-144.5" font-family="Helvetica,sans-Serif" font-size="10.00">view.turtle.TurtleImage.animatedMove</text>
</a>
</g>
</g>
<!-- Node3&#45;&gt;Node5 -->
<g id="edge4" class="edge"><title>Node3&#45;&gt;Node5</title>
<path fill="none" stroke="midnightblue" d="M523.952,-108.576C542.02,-114.993 562.775,-121.856 582,-127 596.92,-130.992 613.246,-134.518 628.449,-137.453"/>
<polygon fill="midnightblue" stroke="midnightblue" points="524.812,-105.165 514.217,-105.07 522.44,-111.751 524.812,-105.165"/>
</g>
<!-- Node6 -->
<g id="node6" class="node"><title>Node6</title>
<g id="a_node6"><a xlink:href="../../d5/d4b/classview_1_1components_1_1_turtle_window.html#a84744ff6c257318689fc0e014350fb05" target="_top" xlink:title="view.components.TurtleWindow.step\lDebug">
<polygon fill="white" stroke="black" points="594,-39 594,-69 780,-69 780,-39 594,-39"/>
<text text-anchor="start" x="602" y="-57" font-family="Helvetica,sans-Serif" font-size="10.00">view.components.TurtleWindow.step</text>
<text text-anchor="middle" x="687" y="-46" font-family="Helvetica,sans-Serif" font-size="10.00">Debug</text>
</a>
</g>
</g>
<!-- Node3&#45;&gt;Node6 -->
<g id="edge6" class="edge"><title>Node3&#45;&gt;Node6</title>
<path fill="none" stroke="midnightblue" d="M556.017,-76.1772C569.742,-73.8355 584.052,-71.394 597.947,-69.0233"/>
<polygon fill="midnightblue" stroke="midnightblue" points="555.41,-72.7301 546.141,-77.8622 556.587,-79.6304 555.41,-72.7301"/>
</g>
<!-- Node11 -->
<g id="node11" class="node"><title>Node11</title>
<g id="a_node11"><a xlink:href="../../dd/ddc/classview_1_1turtle_1_1_turtle_image.html#aca0a62f113534161f725da472e1f4d9f" target="_top" xlink:title="view.turtle.TurtleImage.unanimatedMove">
<polygon fill="white" stroke="black" points="582.5,-0.5 582.5,-19.5 791.5,-19.5 791.5,-0.5 582.5,-0.5"/>
<text text-anchor="middle" x="687" y="-7.5" font-family="Helvetica,sans-Serif" font-size="10.00">view.turtle.TurtleImage.unanimatedMove</text>
</a>
</g>
</g>
<!-- Node3&#45;&gt;Node11 -->
<g id="edge11" class="edge"><title>Node3&#45;&gt;Node11</title>
<path fill="none" stroke="midnightblue" d="M509.323,-69.6646C537.622,-53.0273 574.318,-31.7991 582,-29 592.606,-25.1355 604.118,-22.0313 615.489,-19.545"/>
<polygon fill="midnightblue" stroke="midnightblue" points="507.317,-66.7842 500.477,-74.8758 510.87,-72.8154 507.317,-66.7842"/>
</g>
<!-- Node5&#45;&gt;Node2 -->
<g id="edge5" class="edge"><title>Node5&#45;&gt;Node2</title>
<path fill="none" stroke="midnightblue" d="M578.311,-136.708C525.099,-131.058 460.015,-123.303 402,-114 386.133,-111.456 369.15,-108.252 353.181,-105.022"/>
<polygon fill="midnightblue" stroke="midnightblue" points="578.135,-140.209 588.446,-137.774 578.867,-133.247 578.135,-140.209"/>
</g>
<!-- Node7 -->
<g id="node7" class="node"><title>Node7</title>
<g id="a_node7"><a xlink:href="../../de/d30/classview_1_1components_1_1_s_logo_workspace.html#ad2141a5cca8101b3d22b2cf7b7473281" target="_top" xlink:title="view.components.SLogoWorkspace.run\lDebugger">
<polygon fill="white" stroke="black" points="828,-39 828,-69 1030,-69 1030,-39 828,-39"/>
<text text-anchor="start" x="836" y="-57" font-family="Helvetica,sans-Serif" font-size="10.00">view.components.SLogoWorkspace.run</text>
<text text-anchor="middle" x="929" y="-46" font-family="Helvetica,sans-Serif" font-size="10.00">Debugger</text>
</a>
</g>
</g>
<!-- Node6&#45;&gt;Node7 -->
<g id="edge7" class="edge"><title>Node6&#45;&gt;Node7</title>
<path fill="none" stroke="midnightblue" d="M790.424,-54C802.795,-54 815.421,-54 827.761,-54"/>
<polygon fill="midnightblue" stroke="midnightblue" points="790.104,-50.5001 780.104,-54 790.104,-57.5001 790.104,-50.5001"/>
</g>
<!-- Node8 -->
<g id="node8" class="node"><title>Node8</title>
<g id="a_node8"><a xlink:href="../../d3/dbe/classview_1_1_view.html#af4860035310eeafc92cf78cbbc53290a" target="_top" xlink:title="view.View.runDebugger">
<polygon fill="white" stroke="black" points="1066,-44.5 1066,-63.5 1192,-63.5 1192,-44.5 1066,-44.5"/>
<text text-anchor="middle" x="1129" y="-51.5" font-family="Helvetica,sans-Serif" font-size="10.00">view.View.runDebugger</text>
</a>
</g>
</g>
<!-- Node7&#45;&gt;Node8 -->
<g id="edge8" class="edge"><title>Node7&#45;&gt;Node8</title>
<path fill="none" stroke="midnightblue" d="M1040.42,-54C1049.12,-54 1057.71,-54 1065.9,-54"/>
<polygon fill="midnightblue" stroke="midnightblue" points="1040.16,-50.5001 1030.16,-54 1040.16,-57.5001 1040.16,-50.5001"/>
</g>
<!-- Node9 -->
<g id="node9" class="node"><title>Node9</title>
<g id="a_node9"><a xlink:href="../../d4/d6b/classview_1_1components_1_1_debugger_port.html#a6dd594b7c6572e0f4ef2ab7d8845f2ce" target="_top" xlink:title="view.components.Debugger\lPort.stepDebug">
<polygon fill="white" stroke="black" points="1228.5,-39 1228.5,-69 1377.5,-69 1377.5,-39 1228.5,-39"/>
<text text-anchor="start" x="1236.5" y="-57" font-family="Helvetica,sans-Serif" font-size="10.00">view.components.Debugger</text>
<text text-anchor="middle" x="1303" y="-46" font-family="Helvetica,sans-Serif" font-size="10.00">Port.stepDebug</text>
</a>
</g>
</g>
<!-- Node8&#45;&gt;Node9 -->
<g id="edge9" class="edge"><title>Node8&#45;&gt;Node9</title>
<path fill="none" stroke="midnightblue" d="M1202.13,-54C1210.78,-54 1219.61,-54 1228.28,-54"/>
<polygon fill="midnightblue" stroke="midnightblue" points="1202.1,-50.5001 1192.1,-54 1202.1,-57.5001 1202.1,-50.5001"/>
</g>
<!-- Node10 -->
<g id="node10" class="node"><title>Node10</title>
<g id="a_node10"><a xlink:href="../../d4/d6b/classview_1_1components_1_1_debugger_port.html#a7055f8fe86c7e1078dc9909a7f000b8b" target="_top" xlink:title="view.components.Debugger\lPort.DebuggerPort">
<polygon fill="white" stroke="black" points="1414.5,-39 1414.5,-69 1563.5,-69 1563.5,-39 1414.5,-39"/>
<text text-anchor="start" x="1422.5" y="-57" font-family="Helvetica,sans-Serif" font-size="10.00">view.components.Debugger</text>
<text text-anchor="middle" x="1489" y="-46" font-family="Helvetica,sans-Serif" font-size="10.00">Port.DebuggerPort</text>
</a>
</g>
</g>
<!-- Node9&#45;&gt;Node10 -->
<g id="edge10" class="edge"><title>Node9&#45;&gt;Node10</title>
<path fill="none" stroke="midnightblue" d="M1387.53,-54C1396.46,-54 1405.5,-54 1414.3,-54"/>
<polygon fill="midnightblue" stroke="midnightblue" points="1387.51,-50.5001 1377.51,-54 1387.51,-57.5001 1387.51,-50.5001"/>
</g>
<!-- Node11&#45;&gt;Node2 -->
<g id="edge12" class="edge"><title>Node11&#45;&gt;Node2</title>
<path fill="none" stroke="midnightblue" d="M622.444,-21.3833C609.075,-23.8416 595.066,-26.465 582,-29 504.616,-44.0136 416.138,-62.3354 356.024,-74.9577"/>
<polygon fill="midnightblue" stroke="midnightblue" points="623.309,-24.783 632.516,-19.5398 622.049,-17.8974 623.309,-24.783"/>
</g>
</g>
</svg>
        <g id="navigator" transform="translate(0 0)" fill="#404254">
                <rect fill="#f2f5e9" fill-opacity="0.5" stroke="#606060" stroke-width=".5" x="0" y="0" width="60" height="60"/>
                <use id="zoomplus" xlink:href="#zoomPlus" x="17" y="9" onmousedown="handleZoom(evt,'in')"/>
                <use id="zoomminus" xlink:href="#zoomMin" x="42" y="9" onmousedown="handleZoom(evt,'out')"/>
                <use id="reset" xlink:href="#resetDef" x="30" y="36" onmousedown="handleReset()"/>
                <g id="arrowUp" xlink:href="#dirArrow" transform="translate(30 24)" onmousedown="handlePan(0,-1)">
                  <use xlink:href="#rim" fill="#404040">
                        <set attributeName="fill" to="#808080" begin="arrowUp.mouseover" end="arrowUp.mouseout"/>
                  </use>
                  <path fill="none" stroke="white" stroke-width="1.5" d="M0,-3.0v7 M-2.5,-0.5L0,-3.0L2.5,-0.5"/>
                </g>
                <g id="arrowRight" xlink:href="#dirArrow" transform="rotate(90) translate(36 -43)" onmousedown="handlePan(1,0)">
                  <use xlink:href="#rim" fill="#404040">
                        <set attributeName="fill" to="#808080" begin="arrowRight.mouseover" end="arrowRight.mouseout"/>
                  </use>
                  <path fill="none" stroke="white" stroke-width="1.5" d="M0,-3.0v7 M-2.5,-0.5L0,-3.0L2.5,-0.5"/>
                </g>
                <g id="arrowDown" xlink:href="#dirArrow" transform="rotate(180) translate(-30 -48)" onmousedown="handlePan(0,1)">
                  <use xlink:href="#rim" fill="#404040">
                        <set attributeName="fill" to="#808080" begin="arrowDown.mouseover" end="arrowDown.mouseout"/>
                  </use>
                  <path fill="none" stroke="white" stroke-width="1.5" d="M0,-3.0v7 M-2.5,-0.5L0,-3.0L2.5,-0.5"/>
                </g>
                <g id="arrowLeft" xlink:href="#dirArrow" transform="rotate(270) translate(-36 17)" onmousedown="handlePan(-1,0)">
                  <use xlink:href="#rim" fill="#404040">
                        <set attributeName="fill" to="#808080" begin="arrowLeft.mouseover" end="arrowLeft.mouseout"/>
                  </use>
                  <path fill="none" stroke="white" stroke-width="1.5" d="M0,-3.0v7 M-2.5,-0.5L0,-3.0L2.5,-0.5"/>
                </g>
        </g>
        <svg viewBox="0 0 15 15" width="100%" height="30px" preserveAspectRatio="xMaxYMin meet">
         <g id="arrow_out" transform="scale(0.3 0.3)">
          <a xlink:href="classview_1_1turtle_1_1_turtle_pen_ae7dfe008f68eef44da5ee831b062952a_icgraph_org.svg" target="_base">
           <rect id="button" ry="5" rx="5" y="6" x="6" height="38" width="38"
                fill="#f2f5e9" fill-opacity="0.5" stroke="#606060" stroke-width="1.0"/>
           <path id="arrow"
             d="M 11.500037,31.436501 C 11.940474,20.09759 22.043105,11.32322 32.158766,21.979434 L 37.068811,17.246167 C 37.068811,17.246167 37.088388,32 37.088388,32 L 22.160133,31.978069 C 22.160133,31.978069 26.997745,27.140456 26.997745,27.140456 C 18.528582,18.264221 13.291696,25.230495 11.500037,31.436501 z"
             style="fill:#404040;"/>
          </a>
         </g>
        </svg>
</svg>
