<?xml version="1.0" encoding="UTF-8" standalone="no"?>
<!DOCTYPE svg PUBLIC "-//W3C//DTD SVG 1.1//EN"
 "http://www.w3.org/Graphics/SVG/1.1/DTD/svg11.dtd">
<!-- Generated by graphviz version 2.36.0 (20140111.2315)
 -->
<!-- Title: view.turtle.TurtlePen.drawLine Pages: 1 -->
<svg width="1562pt" height="165pt"
 viewBox="0.00 0.00 1562.00 165.00" xmlns="http://www.w3.org/2000/svg" xmlns:xlink="http://www.w3.org/1999/xlink">
<g id="graph0" class="graph" transform="scale(1 1) rotate(0) translate(4 161)">
<title>view.turtle.TurtlePen.drawLine</title>
<polygon fill="white" stroke="none" points="-4,4 -4,-161 1558,-161 1558,4 -4,4"/>
<!-- Node1 -->
<g id="node1" class="node"><title>Node1</title>
<polygon fill="#bfbfbf" stroke="black" points="0,-80.5 0,-99.5 156,-99.5 156,-80.5 0,-80.5"/>
<text text-anchor="middle" x="78" y="-87.5" font-family="Helvetica,sans-Serif" font-size="10.00">view.turtle.TurtlePen.drawLine</text>
</g>
<!-- Node2 -->
<g id="node2" class="node"><title>Node2</title>
<g id="a_node2"><a xlink:href="../../dd/ddc/classview_1_1turtle_1_1_turtle_image.html#afd9abc603b052b7c9c14108400109917" target="_top" xlink:title="view.turtle.TurtleImage.process\lUpdate">
<polygon fill="white" stroke="black" points="192,-75 192,-105 356,-105 356,-75 192,-75"/>
<text text-anchor="start" x="200" y="-93" font-family="Helvetica,sans-Serif" font-size="10.00">view.turtle.TurtleImage.process</text>
<text text-anchor="middle" x="274" y="-82" font-family="Helvetica,sans-Serif" font-size="10.00">Update</text>
</a>
</g>
</g>
<!-- Node1&#45;&gt;Node2 -->
<g id="edge1" class="edge"><title>Node1&#45;&gt;Node2</title>
<path fill="none" stroke="midnightblue" d="M166.486,-90C174.947,-90 183.505,-90 191.9,-90"/>
<polygon fill="midnightblue" stroke="midnightblue" points="166.231,-86.5001 156.231,-90 166.231,-93.5001 166.231,-86.5001"/>
</g>
<!-- Node3 -->
<g id="node3" class="node"><title>Node3</title>
<g id="a_node3"><a xlink:href="../../dd/ddc/classview_1_1turtle_1_1_turtle_image.html#a68a832da6825e57061dbc49b30098291" target="_top" xlink:title="view.turtle.TurtleImage.pop\lUpdate">
<polygon fill="white" stroke="black" points="392,-75 392,-105 536,-105 536,-75 392,-75"/>
<text text-anchor="start" x="400" y="-93" font-family="Helvetica,sans-Serif" font-size="10.00">view.turtle.TurtleImage.pop</text>
<text text-anchor="middle" x="464" y="-82" font-family="Helvetica,sans-Serif" font-size="10.00">Update</text>
</a>
</g>
</g>
<!-- Node2&#45;&gt;Node3 -->
<g id="edge2" class="edge"><title>Node2&#45;&gt;Node3</title>
<path fill="none" stroke="midnightblue" d="M366.205,-90C374.846,-90 383.518,-90 391.929,-90"/>
<polygon fill="midnightblue" stroke="midnightblue" points="366.093,-86.5001 356.093,-90 366.093,-93.5001 366.093,-86.5001"/>
</g>
<!-- Node4 -->
<g id="node4" class="node"><title>Node4</title>
<g id="a_node4"><a xlink:href="../../dd/ddc/classview_1_1turtle_1_1_turtle_image.html#a02651da4da9b4b48bd91656f734ccb03" target="_top" xlink:title="view.turtle.TurtleImage.add\lUpdate">
<polygon fill="white" stroke="black" points="605,-88 605,-118 749,-118 749,-88 605,-88"/>
<text text-anchor="start" x="613" y="-106" font-family="Helvetica,sans-Serif" font-size="10.00">view.turtle.TurtleImage.add</text>
<text text-anchor="middle" x="677" y="-95" font-family="Helvetica,sans-Serif" font-size="10.00">Update</text>
</a>
</g>
</g>
<!-- Node3&#45;&gt;Node4 -->
<g id="edge3" class="edge"><title>Node3&#45;&gt;Node4</title>
<path fill="none" stroke="midnightblue" d="M546.132,-94.9987C565.468,-96.1899 585.958,-97.4524 604.809,-98.6138"/>
<polygon fill="midnightblue" stroke="midnightblue" points="546.337,-91.5047 536.141,-94.3831 545.907,-98.4915 546.337,-91.5047"/>
</g>
<!-- Node5 -->
<g id="node5" class="node"><title>Node5</title>
<g id="a_node5"><a xlink:href="../../dd/ddc/classview_1_1turtle_1_1_turtle_image.html#a958417ed4561c0b910f80944a5110ec7" target="_top" xlink:title="view.turtle.TurtleImage.animatedMove">
<polygon fill="white" stroke="black" points="578.5,-137.5 578.5,-156.5 775.5,-156.5 775.5,-137.5 578.5,-137.5"/>
<text text-anchor="middle" x="677" y="-144.5" font-family="Helvetica,sans-Serif" font-size="10.00">view.turtle.TurtleImage.animatedMove</text>
</a>
</g>
</g>
<!-- Node3&#45;&gt;Node5 -->
<g id="edge4" class="edge"><title>Node3&#45;&gt;Node5</title>
<path fill="none" stroke="midnightblue" d="M513.952,-108.576C532.02,-114.993 552.775,-121.856 572,-127 586.92,-130.992 603.246,-134.518 618.449,-137.453"/>
<polygon fill="midnightblue" stroke="midnightblue" points="514.812,-105.165 504.217,-105.07 512.44,-111.751 514.812,-105.165"/>
</g>
<!-- Node6 -->
<g id="node6" class="node"><title>Node6</title>
<g id="a_node6"><a xlink:href="../../d5/d4b/classview_1_1components_1_1_turtle_window.html#a84744ff6c257318689fc0e014350fb05" target="_top" xlink:title="view.components.TurtleWindow.step\lDebug">
<polygon fill="white" stroke="black" points="584,-39 584,-69 770,-69 770,-39 584,-39"/>
<text text-anchor="start" x="592" y="-57" font-family="Helvetica,sans-Serif" font-size="10.00">view.components.TurtleWindow.step</text>
<text text-anchor="middle" x="677" y="-46" font-family="Helvetica,sans-Serif" font-size="10.00">Debug</text>
</a>
</g>
</g>
<!-- Node3&#45;&gt;Node6 -->
<g id="edge6" class="edge"><title>Node3&#45;&gt;Node6</title>
<path fill="none" stroke="midnightblue" d="M546.017,-76.1772C559.742,-73.8355 574.052,-71.394 587.947,-69.0233"/>
<polygon fill="midnightblue" stroke="midnightblue" points="545.41,-72.7301 536.141,-77.8622 546.587,-79.6304 545.41,-72.7301"/>
</g>
<!-- Node11 -->
<g id="node11" class="node"><title>Node11</title>
<g id="a_node11"><a xlink:href="../../dd/ddc/classview_1_1turtle_1_1_turtle_image.html#aca0a62f113534161f725da472e1f4d9f" target="_top" xlink:title="view.turtle.TurtleImage.unanimatedMove">
<polygon fill="white" stroke="black" points="572.5,-0.5 572.5,-19.5 781.5,-19.5 781.5,-0.5 572.5,-0.5"/>
<text text-anchor="middle" x="677" y="-7.5" font-family="Helvetica,sans-Serif" font-size="10.00">view.turtle.TurtleImage.unanimatedMove</text>
</a>
</g>
</g>
<!-- Node3&#45;&gt;Node11 -->
<g id="edge11" class="edge"><title>Node3&#45;&gt;Node11</title>
<path fill="none" stroke="midnightblue" d="M499.323,-69.6646C527.622,-53.0273 564.318,-31.7991 572,-29 582.606,-25.1355 594.118,-22.0313 605.489,-19.545"/>
<polygon fill="midnightblue" stroke="midnightblue" points="497.317,-66.7842 490.477,-74.8758 500.87,-72.8154 497.317,-66.7842"/>
</g>
<!-- Node5&#45;&gt;Node2 -->
<g id="edge5" class="edge"><title>Node5&#45;&gt;Node2</title>
<path fill="none" stroke="midnightblue" d="M568.311,-136.708C515.099,-131.058 450.015,-123.303 392,-114 376.133,-111.456 359.15,-108.252 343.181,-105.022"/>
<polygon fill="midnightblue" stroke="midnightblue" points="568.135,-140.209 578.446,-137.774 568.867,-133.247 568.135,-140.209"/>
</g>
<!-- Node7 -->
<g id="node7" class="node"><title>Node7</title>
<g id="a_node7"><a xlink:href="../../de/d30/classview_1_1components_1_1_s_logo_workspace.html#ad2141a5cca8101b3d22b2cf7b7473281" target="_top" xlink:title="view.components.SLogoWorkspace.run\lDebugger">
<polygon fill="white" stroke="black" points="818,-39 818,-69 1020,-69 1020,-39 818,-39"/>
<text text-anchor="start" x="826" y="-57" font-family="Helvetica,sans-Serif" font-size="10.00">view.components.SLogoWorkspace.run</text>
<text text-anchor="middle" x="919" y="-46" font-family="Helvetica,sans-Serif" font-size="10.00">Debugger</text>
</a>
</g>
</g>
<!-- Node6&#45;&gt;Node7 -->
<g id="edge7" class="edge"><title>Node6&#45;&gt;Node7</title>
<path fill="none" stroke="midnightblue" d="M780.424,-54C792.795,-54 805.421,-54 817.761,-54"/>
<polygon fill="midnightblue" stroke="midnightblue" points="780.104,-50.5001 770.104,-54 780.104,-57.5001 780.104,-50.5001"/>
</g>
<!-- Node8 -->
<g id="node8" class="node"><title>Node8</title>
<g id="a_node8"><a xlink:href="../../d3/dbe/classview_1_1_view.html#af4860035310eeafc92cf78cbbc53290a" target="_top" xlink:title="view.View.runDebugger">
<polygon fill="white" stroke="black" points="1056,-44.5 1056,-63.5 1182,-63.5 1182,-44.5 1056,-44.5"/>
<text text-anchor="middle" x="1119" y="-51.5" font-family="Helvetica,sans-Serif" font-size="10.00">view.View.runDebugger</text>
</a>
</g>
</g>
<!-- Node7&#45;&gt;Node8 -->
<g id="edge8" class="edge"><title>Node7&#45;&gt;Node8</title>
<path fill="none" stroke="midnightblue" d="M1030.42,-54C1039.12,-54 1047.71,-54 1055.9,-54"/>
<polygon fill="midnightblue" stroke="midnightblue" points="1030.16,-50.5001 1020.16,-54 1030.16,-57.5001 1030.16,-50.5001"/>
</g>
<!-- Node9 -->
<g id="node9" class="node"><title>Node9</title>
<g id="a_node9"><a xlink:href="../../d4/d6b/classview_1_1components_1_1_debugger_port.html#a6dd594b7c6572e0f4ef2ab7d8845f2ce" target="_top" xlink:title="view.components.Debugger\lPort.stepDebug">
<polygon fill="white" stroke="black" points="1218.5,-39 1218.5,-69 1367.5,-69 1367.5,-39 1218.5,-39"/>
<text text-anchor="start" x="1226.5" y="-57" font-family="Helvetica,sans-Serif" font-size="10.00">view.components.Debugger</text>
<text text-anchor="middle" x="1293" y="-46" font-family="Helvetica,sans-Serif" font-size="10.00">Port.stepDebug</text>
</a>
</g>
</g>
<!-- Node8&#45;&gt;Node9 -->
<g id="edge9" class="edge"><title>Node8&#45;&gt;Node9</title>
<path fill="none" stroke="midnightblue" d="M1192.13,-54C1200.78,-54 1209.61,-54 1218.28,-54"/>
<polygon fill="midnightblue" stroke="midnightblue" points="1192.1,-50.5001 1182.1,-54 1192.1,-57.5001 1192.1,-50.5001"/>
</g>
<!-- Node10 -->
<g id="node10" class="node"><title>Node10</title>
<g id="a_node10"><a xlink:href="../../d4/d6b/classview_1_1components_1_1_debugger_port.html#a7055f8fe86c7e1078dc9909a7f000b8b" target="_top" xlink:title="view.components.Debugger\lPort.DebuggerPort">
<polygon fill="white" stroke="black" points="1404.5,-39 1404.5,-69 1553.5,-69 1553.5,-39 1404.5,-39"/>
<text text-anchor="start" x="1412.5" y="-57" font-family="Helvetica,sans-Serif" font-size="10.00">view.components.Debugger</text>
<text text-anchor="middle" x="1479" y="-46" font-family="Helvetica,sans-Serif" font-size="10.00">Port.DebuggerPort</text>
</a>
</g>
</g>
<!-- Node9&#45;&gt;Node10 -->
<g id="edge10" class="edge"><title>Node9&#45;&gt;Node10</title>
<path fill="none" stroke="midnightblue" d="M1377.53,-54C1386.46,-54 1395.5,-54 1404.3,-54"/>
<polygon fill="midnightblue" stroke="midnightblue" points="1377.51,-50.5001 1367.51,-54 1377.51,-57.5001 1377.51,-50.5001"/>
</g>
<!-- Node11&#45;&gt;Node2 -->
<g id="edge12" class="edge"><title>Node11&#45;&gt;Node2</title>
<path fill="none" stroke="midnightblue" d="M612.674,-21.3949C599.238,-23.8614 585.145,-26.485 572,-29 491.869,-44.3316 471.893,-48.4758 392,-65 376.643,-68.1763 360.168,-71.6535 344.569,-74.9779"/>
<polygon fill="midnightblue" stroke="midnightblue" points="613.586,-24.7862 622.793,-19.5439 612.327,-17.9004 613.586,-24.7862"/>
</g>
</g>
</svg>
