<?xml version="1.0" encoding="UTF-8" standalone="no"?>
<!DOCTYPE svg PUBLIC "-//W3C//DTD SVG 1.1//EN"
 "http://www.w3.org/Graphics/SVG/1.1/DTD/svg11.dtd">
<!-- Generated by graphviz version 2.36.0 (20140111.2315)
 -->
<!-- Title: view.turtle.TurtlePen.generateDashVectorArray Pages: 1 -->
<svg width="332pt" height="38pt"
 viewBox="0.00 0.00 332.00 38.00" xmlns="http://www.w3.org/2000/svg" xmlns:xlink="http://www.w3.org/1999/xlink">
<g id="graph0" class="graph" transform="scale(1 1) rotate(0) translate(4 34)">
<title>view.turtle.TurtlePen.generateDashVectorArray</title>
<polygon fill="white" stroke="none" points="-4,4 -4,-34 328,-34 328,4 -4,4"/>
<!-- Node1 -->
<g id="node1" class="node"><title>Node1</title>
<polygon fill="#bfbfbf" stroke="black" points="0,-0 0,-30 158,-30 158,-0 0,-0"/>
<text text-anchor="start" x="8" y="-18" font-family="Helvetica,sans-Serif" font-size="10.00">view.turtle.TurtlePen.generate</text>
<text text-anchor="middle" x="79" y="-7" font-family="Helvetica,sans-Serif" font-size="10.00">DashVectorArray</text>
</g>
<!-- Node2 -->
<g id="node2" class="node"><title>Node2</title>
<g id="a_node2"><a xlink:href="../../d4/d93/classview_1_1turtle_1_1_turtle_pen.html#a1553953625d014db95e9af6faa83e667" target="_top" xlink:title="view.turtle.TurtlePen.get\lUnitVector">
<polygon fill="white" stroke="black" points="194,-0 194,-30 324,-30 324,-0 194,-0"/>
<text text-anchor="start" x="202" y="-18" font-family="Helvetica,sans-Serif" font-size="10.00">view.turtle.TurtlePen.get</text>
<text text-anchor="middle" x="259" y="-7" font-family="Helvetica,sans-Serif" font-size="10.00">UnitVector</text>
</a>
</g>
</g>
<!-- Node1&#45;&gt;Node2 -->
<g id="edge1" class="edge"><title>Node1&#45;&gt;Node2</title>
<path fill="none" stroke="midnightblue" d="M158.073,-15C166.574,-15 175.209,-15 183.663,-15"/>
<polygon fill="midnightblue" stroke="midnightblue" points="183.864,-18.5001 193.864,-15 183.864,-11.5001 183.864,-18.5001"/>
</g>
</g>
</svg>
