<?xml version="1.0" encoding="UTF-8" standalone="no"?>
<!DOCTYPE svg PUBLIC "-//W3C//DTD SVG 1.1//EN"
 "http://www.w3.org/Graphics/SVG/1.1/DTD/svg11.dtd">
<!-- Generated by graphviz version 2.36.0 (20140111.2315)
 -->
<!-- Title: view.turtle.TurtlePen.drawLine Pages: 1 -->
<svg width="698pt" height="38pt"
 viewBox="0.00 0.00 698.00 38.00" xmlns="http://www.w3.org/2000/svg" xmlns:xlink="http://www.w3.org/1999/xlink">
<g id="graph0" class="graph" transform="scale(1 1) rotate(0) translate(4 34)">
<title>view.turtle.TurtlePen.drawLine</title>
<polygon fill="white" stroke="none" points="-4,4 -4,-34 694,-34 694,4 -4,4"/>
<!-- Node1 -->
<g id="node1" class="node"><title>Node1</title>
<polygon fill="#bfbfbf" stroke="black" points="0,-5.5 0,-24.5 156,-24.5 156,-5.5 0,-5.5"/>
<text text-anchor="middle" x="78" y="-12.5" font-family="Helvetica,sans-Serif" font-size="10.00">view.turtle.TurtlePen.drawLine</text>
</g>
<!-- Node2 -->
<g id="node2" class="node"><title>Node2</title>
<g id="a_node2"><a xlink:href="../../d4/d93/classview_1_1turtle_1_1_turtle_pen.html#a3eea64b5d17767f655096870f4a5850d" target="_top" xlink:title="view.turtle.TurtlePen.draw\lGappedLine">
<polygon fill="white" stroke="black" points="192.5,-0 192.5,-30 329.5,-30 329.5,-0 192.5,-0"/>
<text text-anchor="start" x="200.5" y="-18" font-family="Helvetica,sans-Serif" font-size="10.00">view.turtle.TurtlePen.draw</text>
<text text-anchor="middle" x="261" y="-7" font-family="Helvetica,sans-Serif" font-size="10.00">GappedLine</text>
</a>
</g>
</g>
<!-- Node1&#45;&gt;Node2 -->
<g id="edge1" class="edge"><title>Node1&#45;&gt;Node2</title>
<path fill="none" stroke="midnightblue" d="M156.023,-15C164.736,-15 173.621,-15 182.343,-15"/>
<polygon fill="midnightblue" stroke="midnightblue" points="182.487,-18.5001 192.487,-15 182.487,-11.5001 182.487,-18.5001"/>
</g>
<!-- Node3 -->
<g id="node3" class="node"><title>Node3</title>
<g id="a_node3"><a xlink:href="../../d4/d93/classview_1_1turtle_1_1_turtle_pen.html#a78a412ae5c294fd37981146020ea4009" target="_top" xlink:title="view.turtle.TurtlePen.generate\lDashVectorArray">
<polygon fill="white" stroke="black" points="366,-0 366,-30 524,-30 524,-0 366,-0"/>
<text text-anchor="start" x="374" y="-18" font-family="Helvetica,sans-Serif" font-size="10.00">view.turtle.TurtlePen.generate</text>
<text text-anchor="middle" x="445" y="-7" font-family="Helvetica,sans-Serif" font-size="10.00">DashVectorArray</text>
</a>
</g>
</g>
<!-- Node2&#45;&gt;Node3 -->
<g id="edge2" class="edge"><title>Node2&#45;&gt;Node3</title>
<path fill="none" stroke="midnightblue" d="M329.511,-15C338.019,-15 346.82,-15 355.589,-15"/>
<polygon fill="midnightblue" stroke="midnightblue" points="355.849,-18.5001 365.849,-15 355.849,-11.5001 355.849,-18.5001"/>
</g>
<!-- Node4 -->
<g id="node4" class="node"><title>Node4</title>
<g id="a_node4"><a xlink:href="../../d4/d93/classview_1_1turtle_1_1_turtle_pen.html#a1553953625d014db95e9af6faa83e667" target="_top" xlink:title="view.turtle.TurtlePen.get\lUnitVector">
<polygon fill="white" stroke="black" points="560,-0 560,-30 690,-30 690,-0 560,-0"/>
<text text-anchor="start" x="568" y="-18" font-family="Helvetica,sans-Serif" font-size="10.00">view.turtle.TurtlePen.get</text>
<text text-anchor="middle" x="625" y="-7" font-family="Helvetica,sans-Serif" font-size="10.00">UnitVector</text>
</a>
</g>
</g>
<!-- Node3&#45;&gt;Node4 -->
<g id="edge3" class="edge"><title>Node3&#45;&gt;Node4</title>
<path fill="none" stroke="midnightblue" d="M524.073,-15C532.574,-15 541.209,-15 549.663,-15"/>
<polygon fill="midnightblue" stroke="midnightblue" points="549.864,-18.5001 559.864,-15 549.864,-11.5001 549.864,-18.5001"/>
</g>
</g>
</svg>
