<?xml version="1.0" encoding="UTF-8" standalone="no"?>
<!DOCTYPE svg PUBLIC "-//W3C//DTD SVG 1.1//EN"
 "http://www.w3.org/Graphics/SVG/1.1/DTD/svg11.dtd">
<!-- Generated by graphviz version 2.36.0 (20140111.2315)
 -->
<!-- Title: model.CommandHistory Pages: 1 -->
<svg width="454pt" height="165pt"
 viewBox="0.00 0.00 454.00 165.00" xmlns="http://www.w3.org/2000/svg" xmlns:xlink="http://www.w3.org/1999/xlink">
<g id="graph0" class="graph" transform="scale(1 1) rotate(0) translate(4 161)">
<title>model.CommandHistory</title>
<polygon fill="white" stroke="none" points="-4,4 -4,-161 450,-161 450,4 -4,4"/>
<!-- Node1 -->
<g id="node1" class="node"><title>Node1</title>
<polygon fill="#bfbfbf" stroke="black" points="312,-68.5 312,-87.5 446,-87.5 446,-68.5 312,-68.5"/>
<text text-anchor="middle" x="379" y="-75.5" font-family="Helvetica,sans-Serif" font-size="10.00">model.CommandHistory</text>
</g>
<!-- Node2 -->
<g id="node2" class="node"><title>Node2</title>
<g id="a_node2"><a xlink:href="../../dc/ddc/interfacemodel_1_1_observable.html" target="_top" xlink:title="model.Observable">
<polygon fill="white" stroke="black" points="41,-137.5 41,-156.5 145,-156.5 145,-137.5 41,-137.5"/>
<text text-anchor="middle" x="93" y="-144.5" font-family="Helvetica,sans-Serif" font-size="10.00">model.Observable</text>
</a>
</g>
</g>
<!-- Node2&#45;&gt;Node1 -->
<g id="edge1" class="edge"><title>Node2&#45;&gt;Node1</title>
<path fill="none" stroke="midnightblue" d="M155.143,-137.533C195.027,-130.757 248.023,-120.616 294,-108 314.758,-102.304 337.738,-93.9493 354.408,-87.502"/>
<polygon fill="midnightblue" stroke="midnightblue" points="154.324,-134.121 145.039,-139.225 155.48,-141.025 154.324,-134.121"/>
</g>
<!-- Node3 -->
<g id="node3" class="node"><title>Node3</title>
<polygon fill="white" stroke="#bfbfbf" points="21,-88 21,-118 165,-118 165,-88 21,-88"/>
<text text-anchor="start" x="29" y="-106" font-family="Helvetica,sans-Serif" font-size="10.00">List&lt; parser.commands.To</text>
<text text-anchor="middle" x="93" y="-95" font-family="Helvetica,sans-Serif" font-size="10.00">Data &gt;</text>
</g>
<!-- Node3&#45;&gt;Node1 -->
<g id="edge2" class="edge"><title>Node3&#45;&gt;Node1</title>
<path fill="none" stroke="#9a32cd" stroke-dasharray="5,2" d="M175.484,-95.8271C218.614,-92.0304 270.907,-87.4272 311.55,-83.8495"/>
<polygon fill="#9a32cd" stroke="#9a32cd" points="174.953,-92.3602 165.299,-96.7237 175.567,-99.3333 174.953,-92.3602"/>
<text text-anchor="middle" x="249" y="-96" font-family="Helvetica,sans-Serif" font-size="10.00"> myUDCommands</text>
</g>
<!-- Node4 -->
<g id="node4" class="node"><title>Node4</title>
<polygon fill="white" stroke="#bfbfbf" points="13,-39 13,-69 173,-69 173,-39 13,-39"/>
<text text-anchor="start" x="21" y="-57" font-family="Helvetica,sans-Serif" font-size="10.00">List&lt; parser.nodes.Command</text>
<text text-anchor="middle" x="93" y="-46" font-family="Helvetica,sans-Serif" font-size="10.00">Root &gt;</text>
</g>
<!-- Node4&#45;&gt;Node1 -->
<g id="edge3" class="edge"><title>Node4&#45;&gt;Node1</title>
<path fill="none" stroke="#9a32cd" stroke-dasharray="5,2" d="M183.416,-60.8629C217.975,-63.5915 257.838,-66.8317 294,-70 299.837,-70.5114 305.901,-71.0584 311.979,-71.6172"/>
<polygon fill="#9a32cd" stroke="#9a32cd" points="183.589,-57.3658 173.346,-60.0704 183.04,-64.3442 183.589,-57.3658"/>
<text text-anchor="middle" x="249" y="-73" font-family="Helvetica,sans-Serif" font-size="10.00"> myCommandList</text>
</g>
<!-- Node5 -->
<g id="node5" class="node"><title>Node5</title>
<polygon fill="white" stroke="#bfbfbf" points="0.5,-0.5 0.5,-19.5 185.5,-19.5 185.5,-0.5 0.5,-0.5"/>
<text text-anchor="middle" x="93" y="-7.5" font-family="Helvetica,sans-Serif" font-size="10.00">List&lt; view.components.Observer &gt;</text>
</g>
<!-- Node5&#45;&gt;Node1 -->
<g id="edge4" class="edge"><title>Node5&#45;&gt;Node1</title>
<path fill="none" stroke="#9a32cd" stroke-dasharray="5,2" d="M168.037,-21.2452C206.017,-27.7235 252.83,-36.8097 294,-48 314.771,-53.6457 337.751,-62.005 354.417,-68.4666"/>
<polygon fill="#9a32cd" stroke="#9a32cd" points="168.519,-17.7772 158.077,-19.5714 167.358,-24.6804 168.519,-17.7772"/>
<text text-anchor="middle" x="249" y="-51" font-family="Helvetica,sans-Serif" font-size="10.00"> myObserverList</text>
</g>
</g>
</svg>
