<?xml version="1.0" encoding="UTF-8" standalone="no"?>
<!DOCTYPE svg PUBLIC "-//W3C//DTD SVG 1.1//EN"
 "http://www.w3.org/Graphics/SVG/1.1/DTD/svg11.dtd">
<!-- Generated by graphviz version 2.36.0 (20140111.2315)
 -->
<!-- Title: view.listwindows.ListWindow.ListWindow Pages: 1 -->
<svg width="362pt" height="87pt"
 viewBox="0.00 0.00 362.00 87.00" xmlns="http://www.w3.org/2000/svg" xmlns:xlink="http://www.w3.org/1999/xlink">
<g id="graph0" class="graph" transform="scale(1 1) rotate(0) translate(4 83)">
<title>view.listwindows.ListWindow.ListWindow</title>
<polygon fill="white" stroke="none" points="-4,4 -4,-83 358,-83 358,4 -4,4"/>
<!-- Node1 -->
<g id="node1" class="node"><title>Node1</title>
<polygon fill="#bfbfbf" stroke="black" points="0.5,-24 0.5,-54 149.5,-54 149.5,-24 0.5,-24"/>
<text text-anchor="start" x="8.5" y="-42" font-family="Helvetica,sans-Serif" font-size="10.00">view.listwindows.ListWindow.</text>
<text text-anchor="middle" x="75" y="-31" font-family="Helvetica,sans-Serif" font-size="10.00">ListWindow</text>
</g>
<!-- Node2 -->
<g id="node2" class="node"><title>Node2</title>
<g id="a_node2"><a xlink:href="../../da/d76/classview_1_1listwindows_1_1_list_window.html#aace5de0b6d8f3c43ff7969ad3afe9469" target="_top" xlink:title="view.listwindows.ListWindow.add\lLabel">
<polygon fill="white" stroke="black" points="186.5,-49 186.5,-79 353.5,-79 353.5,-49 186.5,-49"/>
<text text-anchor="start" x="194.5" y="-67" font-family="Helvetica,sans-Serif" font-size="10.00">view.listwindows.ListWindow.add</text>
<text text-anchor="middle" x="270" y="-56" font-family="Helvetica,sans-Serif" font-size="10.00">Label</text>
</a>
</g>
</g>
<!-- Node1&#45;&gt;Node2 -->
<g id="edge1" class="edge"><title>Node1&#45;&gt;Node2</title>
<path fill="none" stroke="midnightblue" d="M149.516,-48.5227C158.262,-49.6556 167.275,-50.8232 176.245,-51.9851"/>
<polygon fill="midnightblue" stroke="midnightblue" points="175.971,-55.4788 186.338,-53.2925 176.871,-48.5368 175.971,-55.4788"/>
</g>
<!-- Node3 -->
<g id="node3" class="node"><title>Node3</title>
<g id="a_node3"><a xlink:href="../../da/d76/classview_1_1listwindows_1_1_list_window.html#a7ad0d80f3bb0f1a36ffc9e7efacf4c45" target="_top" xlink:title="view.listwindows.ListWindow.init\lScrollList">
<polygon fill="white" stroke="black" points="188.5,-0 188.5,-30 351.5,-30 351.5,-0 188.5,-0"/>
<text text-anchor="start" x="196.5" y="-18" font-family="Helvetica,sans-Serif" font-size="10.00">view.listwindows.ListWindow.init</text>
<text text-anchor="middle" x="270" y="-7" font-family="Helvetica,sans-Serif" font-size="10.00">ScrollList</text>
</a>
</g>
</g>
<!-- Node1&#45;&gt;Node3 -->
<g id="edge2" class="edge"><title>Node1&#45;&gt;Node3</title>
<path fill="none" stroke="midnightblue" d="M149.516,-29.8582C158.924,-28.6882 168.642,-27.4797 178.283,-26.2809"/>
<polygon fill="midnightblue" stroke="midnightblue" points="178.794,-29.7444 188.285,-25.0371 177.93,-22.7979 178.794,-29.7444"/>
</g>
</g>
</svg>
