<?xml version="1.0" encoding="UTF-8" standalone="no"?>
<!DOCTYPE svg PUBLIC "-//W3C//DTD SVG 1.1//EN"
 "http://www.w3.org/Graphics/SVG/1.1/DTD/svg11.dtd">
<!-- Generated by graphviz version 2.36.0 (20140111.2315)
 -->
<!-- Title: view.listwindows.VariablesWindow.update Pages: 1 -->
<svg width="336pt" height="87pt"
 viewBox="0.00 0.00 336.00 87.00" xmlns="http://www.w3.org/2000/svg" xmlns:xlink="http://www.w3.org/1999/xlink">
<g id="graph0" class="graph" transform="scale(1 1) rotate(0) translate(4 83)">
<title>view.listwindows.VariablesWindow.update</title>
<polygon fill="white" stroke="none" points="-4,4 -4,-83 332,-83 332,4 -4,4"/>
<!-- Node1 -->
<g id="node1" class="node"><title>Node1</title>
<polygon fill="#bfbfbf" stroke="black" points="0,-24 0,-54 138,-54 138,-24 0,-24"/>
<text text-anchor="start" x="8" y="-42" font-family="Helvetica,sans-Serif" font-size="10.00">view.listwindows.Variables</text>
<text text-anchor="middle" x="69" y="-31" font-family="Helvetica,sans-Serif" font-size="10.00">Window.update</text>
</g>
<!-- Node2 -->
<g id="node2" class="node"><title>Node2</title>
<g id="a_node2"><a xlink:href="../../d4/d75/classmodel_1_1_variables_collection_update.html#a890f2dcf7bcdbdeba128438ae4affeea" target="_top" xlink:title="model.VariablesCollection\lUpdate.getDisplayProperties">
<polygon fill="white" stroke="black" points="174,-49 174,-79 328,-79 328,-49 174,-49"/>
<text text-anchor="start" x="182" y="-67" font-family="Helvetica,sans-Serif" font-size="10.00">model.VariablesCollection</text>
<text text-anchor="middle" x="251" y="-56" font-family="Helvetica,sans-Serif" font-size="10.00">Update.getDisplayProperties</text>
</a>
</g>
</g>
<!-- Node1&#45;&gt;Node2 -->
<g id="edge1" class="edge"><title>Node1&#45;&gt;Node2</title>
<path fill="none" stroke="midnightblue" d="M138.05,-48.4514C146.422,-49.6142 155.064,-50.8145 163.662,-52.0086"/>
<polygon fill="midnightblue" stroke="midnightblue" points="163.328,-55.4958 173.715,-53.4048 164.291,-48.5623 163.328,-55.4958"/>
</g>
<!-- Node3 -->
<g id="node3" class="node"><title>Node3</title>
<g id="a_node3"><a xlink:href="../../d4/d75/classmodel_1_1_variables_collection_update.html#a28d8d2f3b68042c64ef8a4d53f8fef23" target="_top" xlink:title="model.VariablesCollection\lUpdate.getNameProperties">
<polygon fill="white" stroke="black" points="176.5,-0 176.5,-30 325.5,-30 325.5,-0 176.5,-0"/>
<text text-anchor="start" x="184.5" y="-18" font-family="Helvetica,sans-Serif" font-size="10.00">model.VariablesCollection</text>
<text text-anchor="middle" x="251" y="-7" font-family="Helvetica,sans-Serif" font-size="10.00">Update.getNameProperties</text>
</a>
</g>
</g>
<!-- Node1&#45;&gt;Node3 -->
<g id="edge2" class="edge"><title>Node1&#45;&gt;Node3</title>
<path fill="none" stroke="midnightblue" d="M138.05,-29.9266C147.262,-28.6984 156.801,-27.4265 166.248,-26.167"/>
<polygon fill="midnightblue" stroke="midnightblue" points="166.993,-29.5987 176.442,-24.8077 166.067,-22.6601 166.993,-29.5987"/>
</g>
</g>
</svg>
