<?xml version="1.0" encoding="UTF-8" standalone="no"?>
<!DOCTYPE svg PUBLIC "-//W3C//DTD SVG 1.1//EN"
 "http://www.w3.org/Graphics/SVG/1.1/DTD/svg11.dtd">
<!-- Generated by graphviz version 2.36.0 (20140111.2315)
 -->
<!-- Title: parser.nodes.UnlimitedNode Pages: 1 -->
<svg width="577pt" height="140pt"
 viewBox="0.00 0.00 577.00 140.00" xmlns="http://www.w3.org/2000/svg" xmlns:xlink="http://www.w3.org/1999/xlink">
<g id="graph0" class="graph" transform="scale(1 1) rotate(0) translate(4 136)">
<title>parser.nodes.UnlimitedNode</title>
<polygon fill="white" stroke="none" points="-4,4 -4,-136 573,-136 573,4 -4,4"/>
<!-- Node1 -->
<g id="node1" class="node"><title>Node1</title>
<polygon fill="#bfbfbf" stroke="black" points="199.5,-56.5 199.5,-75.5 352.5,-75.5 352.5,-56.5 199.5,-56.5"/>
<text text-anchor="middle" x="276" y="-63.5" font-family="Helvetica,sans-Serif" font-size="10.00">parser.nodes.UnlimitedNode</text>
</g>
<!-- Node3 -->
<g id="node3" class="node"><title>Node3</title>
<g id="a_node3"><a xlink:href="../../d8/d87/classparser_1_1commands_1_1_and.html" target="_top" xlink:title="parser.commands.And">
<polygon fill="white" stroke="black" points="-0.5,-0.5 -0.5,-19.5 124.5,-19.5 124.5,-0.5 -0.5,-0.5"/>
<text text-anchor="middle" x="62" y="-7.5" font-family="Helvetica,sans-Serif" font-size="10.00">parser.commands.And</text>
</a>
</g>
</g>
<!-- Node1&#45;&gt;Node3 -->
<g id="edge2" class="edge"><title>Node1&#45;&gt;Node3</title>
<path fill="none" stroke="midnightblue" d="M232.245,-53.959C191.826,-43.7598 132.627,-28.8217 95.7503,-19.5164"/>
<polygon fill="midnightblue" stroke="midnightblue" points="231.539,-57.3904 242.091,-56.4435 233.251,-50.6032 231.539,-57.3904"/>
</g>
<!-- Node4 -->
<g id="node4" class="node"><title>Node4</title>
<g id="a_node4"><a xlink:href="../../d0/dee/classparser_1_1commands_1_1_or.html" target="_top" xlink:title="parser.commands.Or">
<polygon fill="white" stroke="black" points="143,-0.5 143,-19.5 261,-19.5 261,-0.5 143,-0.5"/>
<text text-anchor="middle" x="202" y="-7.5" font-family="Helvetica,sans-Serif" font-size="10.00">parser.commands.Or</text>
</a>
</g>
</g>
<!-- Node1&#45;&gt;Node4 -->
<g id="edge3" class="edge"><title>Node1&#45;&gt;Node4</title>
<path fill="none" stroke="midnightblue" d="M255.966,-50.3804C242.591,-40.6204 225.441,-28.1057 214.106,-19.8339"/>
<polygon fill="midnightblue" stroke="midnightblue" points="253.97,-53.2565 264.111,-56.324 258.096,-47.602 253.97,-53.2565"/>
</g>
<!-- Node5 -->
<g id="node5" class="node"><title>Node5</title>
<g id="a_node5"><a xlink:href="../../d5/ddb/classparser_1_1commands_1_1_product.html" target="_top" xlink:title="parser.commands.Product">
<polygon fill="white" stroke="black" points="279.5,-0.5 279.5,-19.5 422.5,-19.5 422.5,-0.5 279.5,-0.5"/>
<text text-anchor="middle" x="351" y="-7.5" font-family="Helvetica,sans-Serif" font-size="10.00">parser.commands.Product</text>
</a>
</g>
</g>
<!-- Node1&#45;&gt;Node5 -->
<g id="edge4" class="edge"><title>Node1&#45;&gt;Node5</title>
<path fill="none" stroke="midnightblue" d="M296.305,-50.3804C309.861,-40.6204 327.242,-28.1057 338.731,-19.8339"/>
<polygon fill="midnightblue" stroke="midnightblue" points="294.12,-47.6405 288.05,-56.324 298.21,-53.3213 294.12,-47.6405"/>
</g>
<!-- Node6 -->
<g id="node6" class="node"><title>Node6</title>
<g id="a_node6"><a xlink:href="../../d8/d6e/classparser_1_1commands_1_1_sum.html" target="_top" xlink:title="parser.commands.Sum">
<polygon fill="white" stroke="black" points="440.5,-0.5 440.5,-19.5 569.5,-19.5 569.5,-0.5 440.5,-0.5"/>
<text text-anchor="middle" x="505" y="-7.5" font-family="Helvetica,sans-Serif" font-size="10.00">parser.commands.Sum</text>
</a>
</g>
</g>
<!-- Node1&#45;&gt;Node6 -->
<g id="edge5" class="edge"><title>Node1&#45;&gt;Node6</title>
<path fill="none" stroke="midnightblue" d="M322.273,-54.0884C365.537,-43.8865 429.255,-28.8612 468.884,-19.5164"/>
<polygon fill="midnightblue" stroke="midnightblue" points="321.215,-50.7418 312.286,-56.4435 322.822,-57.5549 321.215,-50.7418"/>
</g>
<!-- Node2 -->
<g id="node2" class="node"><title>Node2</title>
<g id="a_node2"><a xlink:href="../../da/d96/classparser_1_1nodes_1_1_syntax_node.html" target="_top" xlink:title="parser.nodes.SyntaxNode">
<polygon fill="white" stroke="black" points="206,-112.5 206,-131.5 346,-131.5 346,-112.5 206,-112.5"/>
<text text-anchor="middle" x="276" y="-119.5" font-family="Helvetica,sans-Serif" font-size="10.00">parser.nodes.SyntaxNode</text>
</a>
</g>
</g>
<!-- Node2&#45;&gt;Node1 -->
<g id="edge1" class="edge"><title>Node2&#45;&gt;Node1</title>
<path fill="none" stroke="midnightblue" d="M276,-101.805C276,-92.9102 276,-82.7798 276,-75.7511"/>
<polygon fill="midnightblue" stroke="midnightblue" points="272.5,-102.083 276,-112.083 279.5,-102.083 272.5,-102.083"/>
</g>
</g>
</svg>
