<?xml version="1.0" encoding="UTF-8" standalone="no"?>
<!DOCTYPE svg PUBLIC "-//W3C//DTD SVG 1.1//EN"
 "http://www.w3.org/Graphics/SVG/1.1/DTD/svg11.dtd">
<!-- Generated by graphviz version 2.36.0 (20140111.2315)
 -->
<!-- Title: parser.commands.SetPosition Pages: 1 -->
<svg width="170pt" height="234pt"
 viewBox="0.00 0.00 170.00 234.00" xmlns="http://www.w3.org/2000/svg" xmlns:xlink="http://www.w3.org/1999/xlink">
<g id="graph0" class="graph" transform="scale(1 1) rotate(0) translate(4 230)">
<title>parser.commands.SetPosition</title>
<polygon fill="white" stroke="none" points="-4,4 -4,-230 166,-230 166,4 -4,4"/>
<!-- Node1 -->
<g id="node1" class="node"><title>Node1</title>
<polygon fill="#bfbfbf" stroke="black" points="0.5,-0.5 0.5,-19.5 161.5,-19.5 161.5,-0.5 0.5,-0.5"/>
<text text-anchor="middle" x="81" y="-7.5" font-family="Helvetica,sans-Serif" font-size="10.00">parser.commands.SetPosition</text>
</g>
<!-- Node2 -->
<g id="node2" class="node"><title>Node2</title>
<g id="a_node2"><a xlink:href="../../d2/d7d/classparser_1_1commands_1_1_binary_turtle_command.html" target="_top" xlink:title="parser.commands.BinaryTurtle\lCommand">
<polygon fill="white" stroke="black" points="0,-59 0,-89 162,-89 162,-59 0,-59"/>
<text text-anchor="start" x="8" y="-77" font-family="Helvetica,sans-Serif" font-size="10.00">parser.commands.BinaryTurtle</text>
<text text-anchor="middle" x="81" y="-66" font-family="Helvetica,sans-Serif" font-size="10.00">Command</text>
</a>
</g>
</g>
<!-- Node2&#45;&gt;Node1 -->
<g id="edge1" class="edge"><title>Node2&#45;&gt;Node1</title>
<path fill="none" stroke="midnightblue" d="M81,-48.8706C81,-38.6625 81,-27.4077 81,-19.8419"/>
<polygon fill="midnightblue" stroke="midnightblue" points="77.5001,-48.9312 81,-58.9312 84.5001,-48.9313 77.5001,-48.9312"/>
</g>
<!-- Node3 -->
<g id="node3" class="node"><title>Node3</title>
<g id="a_node3"><a xlink:href="../../db/d11/classparser_1_1nodes_1_1_binary_node.html" target="_top" xlink:title="parser.nodes.BinaryNode">
<polygon fill="white" stroke="black" points="12.5,-128.5 12.5,-147.5 149.5,-147.5 149.5,-128.5 12.5,-128.5"/>
<text text-anchor="middle" x="81" y="-135.5" font-family="Helvetica,sans-Serif" font-size="10.00">parser.nodes.BinaryNode</text>
</a>
</g>
</g>
<!-- Node3&#45;&gt;Node2 -->
<g id="edge2" class="edge"><title>Node3&#45;&gt;Node2</title>
<path fill="none" stroke="midnightblue" d="M81,-118.183C81,-108.886 81,-97.8507 81,-89.263"/>
<polygon fill="midnightblue" stroke="midnightblue" points="77.5001,-118.379 81,-128.379 84.5001,-118.379 77.5001,-118.379"/>
</g>
<!-- Node4 -->
<g id="node4" class="node"><title>Node4</title>
<g id="a_node4"><a xlink:href="../../da/d96/classparser_1_1nodes_1_1_syntax_node.html" target="_top" xlink:title="parser.nodes.SyntaxNode">
<polygon fill="white" stroke="black" points="11,-206.5 11,-225.5 151,-225.5 151,-206.5 11,-206.5"/>
<text text-anchor="middle" x="81" y="-213.5" font-family="Helvetica,sans-Serif" font-size="10.00">parser.nodes.SyntaxNode</text>
</a>
</g>
</g>
<!-- Node4&#45;&gt;Node3 -->
<g id="edge3" class="edge"><title>Node4&#45;&gt;Node3</title>
<path fill="none" stroke="midnightblue" d="M79.4399,-196.382C79.2572,-193.575 79.1003,-190.713 79,-188 78.6386,-178.229 78.6386,-175.771 79,-166 79.2293,-159.8 79.7539,-152.815 80.2083,-147.503"/>
<polygon fill="midnightblue" stroke="midnightblue" points="75.9607,-196.791 80.2083,-206.497 82.9406,-196.26 75.9607,-196.791"/>
</g>
<!-- Node4&#45;&gt;Node3 -->
<g id="edge4" class="edge"><title>Node4&#45;&gt;Node3</title>
<path fill="none" stroke="#9a32cd" stroke-dasharray="5,2" d="M81,-196.224C81,-180.697 81,-159.358 81,-147.616"/>
<polygon fill="#9a32cd" stroke="#9a32cd" points="77.5001,-196.282 81,-206.282 84.5001,-196.282 77.5001,-196.282"/>
<text text-anchor="middle" x="104.5" y="-180" font-family="Helvetica,sans-Serif" font-size="10.00"> nodeOne</text>
<text text-anchor="middle" x="104.5" y="-169" font-family="Helvetica,sans-Serif" font-size="10.00">nodeTwo</text>
</g>
</g>
</svg>
