<?xml version="1.0" encoding="UTF-8" standalone="no"?>
<!DOCTYPE svg PUBLIC "-//W3C//DTD SVG 1.1//EN"
 "http://www.w3.org/Graphics/SVG/1.1/DTD/svg11.dtd">
<!-- Generated by graphviz version 2.36.0 (20140111.2315)
 -->
<!-- Title: model.VariableInt.clone Pages: 1 -->
<svg width="348pt" height="104pt"
 viewBox="0.00 0.00 348.00 104.00" xmlns="http://www.w3.org/2000/svg" xmlns:xlink="http://www.w3.org/1999/xlink">
<g id="graph0" class="graph" transform="scale(1 1) rotate(0) translate(4 100)">
<title>model.VariableInt.clone</title>
<polygon fill="white" stroke="none" points="-4,4 -4,-100 344,-100 344,4 -4,4"/>
<!-- Node1 -->
<g id="node1" class="node"><title>Node1</title>
<polygon fill="#bfbfbf" stroke="black" points="0,-38.5 0,-57.5 128,-57.5 128,-38.5 0,-38.5"/>
<text text-anchor="middle" x="64" y="-45.5" font-family="Helvetica,sans-Serif" font-size="10.00">model.VariableInt.clone</text>
</g>
<!-- Node2 -->
<g id="node2" class="node"><title>Node2</title>
<g id="a_node2"><a xlink:href="../../d4/d08/classmodel_1_1_variable.html#ae75e860c7260b548591d1fbeaecc9a1e" target="_top" xlink:title="model.Variable.getNameProperty">
<polygon fill="white" stroke="black" points="164,-76.5 164,-95.5 340,-95.5 340,-76.5 164,-76.5"/>
<text text-anchor="middle" x="252" y="-83.5" font-family="Helvetica,sans-Serif" font-size="10.00">model.Variable.getNameProperty</text>
</a>
</g>
</g>
<!-- Node1&#45;&gt;Node2 -->
<g id="edge1" class="edge"><title>Node1&#45;&gt;Node2</title>
<path fill="none" stroke="midnightblue" d="M111.936,-57.589C137.033,-62.7165 168.119,-69.0672 194.53,-74.4632"/>
<polygon fill="midnightblue" stroke="midnightblue" points="193.904,-77.9074 204.402,-76.4799 195.305,-71.049 193.904,-77.9074"/>
</g>
<!-- Node3 -->
<g id="node3" class="node"><title>Node3</title>
<g id="a_node3"><a xlink:href="../../d7/ddd/classmodel_1_1_variable_int.html#a11205dc4c17b82cd7b909b156eaf4e38" target="_top" xlink:title="model.VariableInt.getValue">
<polygon fill="white" stroke="black" points="179.5,-38.5 179.5,-57.5 324.5,-57.5 324.5,-38.5 179.5,-38.5"/>
<text text-anchor="middle" x="252" y="-45.5" font-family="Helvetica,sans-Serif" font-size="10.00">model.VariableInt.getValue</text>
</a>
</g>
</g>
<!-- Node1&#45;&gt;Node3 -->
<g id="edge2" class="edge"><title>Node1&#45;&gt;Node3</title>
<path fill="none" stroke="midnightblue" d="M128.231,-48C141.323,-48 155.295,-48 168.947,-48"/>
<polygon fill="midnightblue" stroke="midnightblue" points="169.306,-51.5001 179.306,-48 169.306,-44.5001 169.306,-51.5001"/>
</g>
<!-- Node4 -->
<g id="node4" class="node"><title>Node4</title>
<g id="a_node4"><a xlink:href="../../d7/ddd/classmodel_1_1_variable_int.html#a815ecc23940ef83ce2dbe3b8f96eea43" target="_top" xlink:title="model.VariableInt.VariableInt">
<polygon fill="white" stroke="black" points="175.5,-0.5 175.5,-19.5 328.5,-19.5 328.5,-0.5 175.5,-0.5"/>
<text text-anchor="middle" x="252" y="-7.5" font-family="Helvetica,sans-Serif" font-size="10.00">model.VariableInt.VariableInt</text>
</a>
</g>
</g>
<!-- Node1&#45;&gt;Node4 -->
<g id="edge3" class="edge"><title>Node1&#45;&gt;Node4</title>
<path fill="none" stroke="midnightblue" d="M111.936,-38.411C137.033,-33.2835 168.119,-26.9328 194.53,-21.5368"/>
<polygon fill="midnightblue" stroke="midnightblue" points="195.305,-24.951 204.402,-19.5201 193.904,-18.0926 195.305,-24.951"/>
</g>
</g>
</svg>
