<?xml version="1.0" encoding="UTF-8" standalone="no"?>
<!DOCTYPE svg PUBLIC "-//W3C//DTD SVG 1.1//EN"
 "http://www.w3.org/Graphics/SVG/1.1/DTD/svg11.dtd">
<!-- Generated by graphviz version 2.36.0 (20140111.2315)
 -->
<!-- Title: model.VariablesCollectionUpdate Pages: 1 -->
<svg width="177pt" height="118pt"
 viewBox="0.00 0.00 177.00 118.00" xmlns="http://www.w3.org/2000/svg" xmlns:xlink="http://www.w3.org/1999/xlink">
<g id="graph0" class="graph" transform="scale(1 1) rotate(0) translate(4 114)">
<title>model.VariablesCollectionUpdate</title>
<polygon fill="white" stroke="none" points="-4,4 -4,-114 173,-114 173,4 -4,4"/>
<!-- Node1 -->
<g id="node1" class="node"><title>Node1</title>
<polygon fill="#bfbfbf" stroke="black" points="0,-1 0,-31 140,-31 140,-1 0,-1"/>
<text text-anchor="start" x="8" y="-19" font-family="Helvetica,sans-Serif" font-size="10.00">model.VariablesCollection</text>
<text text-anchor="middle" x="70" y="-8" font-family="Helvetica,sans-Serif" font-size="10.00">Update</text>
</g>
<!-- Node2 -->
<g id="node2" class="node"><title>Node2</title>
<polygon fill="white" stroke="#bfbfbf" points="7.5,-90.5 7.5,-109.5 132.5,-109.5 132.5,-90.5 7.5,-90.5"/>
<text text-anchor="middle" x="70" y="-97.5" font-family="Helvetica,sans-Serif" font-size="10.00">List&lt; StringProperty &gt;</text>
</g>
<!-- Node2&#45;&gt;Node1 -->
<g id="edge1" class="edge"><title>Node2&#45;&gt;Node1</title>
<path fill="none" stroke="#9a32cd" stroke-dasharray="5,2" d="M70,-80.1139C70,-65.2014 70,-44.7195 70,-31.1839"/>
<polygon fill="#9a32cd" stroke="#9a32cd" points="66.5001,-80.2245 70,-90.2246 73.5001,-80.2246 66.5001,-80.2245"/>
<text text-anchor="middle" x="119.5" y="-64" font-family="Helvetica,sans-Serif" font-size="10.00"> myNameProperties</text>
<text text-anchor="middle" x="119.5" y="-53" font-family="Helvetica,sans-Serif" font-size="10.00">myDisplayProperties</text>
</g>
</g>
</svg>
