<?xml version="1.0" encoding="UTF-8" standalone="no"?>
<!DOCTYPE svg PUBLIC "-//W3C//DTD SVG 1.1//EN"
 "http://www.w3.org/Graphics/SVG/1.1/DTD/svg11.dtd">
<!-- Generated by graphviz version 2.36.0 (20140111.2315)
 -->
<!-- Title: parser.commands.Tell Pages: 1 -->
<svg width="317pt" height="176pt"
 viewBox="0.00 0.00 317.00 176.00" xmlns="http://www.w3.org/2000/svg" xmlns:xlink="http://www.w3.org/1999/xlink">
<g id="graph0" class="graph" transform="scale(1 1) rotate(0) translate(4 172)">
<title>parser.commands.Tell</title>
<polygon fill="white" stroke="none" points="-4,4 -4,-172 313,-172 313,4 -4,4"/>
<!-- Node1 -->
<g id="node1" class="node"><title>Node1</title>
<polygon fill="#bfbfbf" stroke="black" points="95.5,-0.5 95.5,-19.5 216.5,-19.5 216.5,-0.5 95.5,-0.5"/>
<text text-anchor="middle" x="156" y="-7.5" font-family="Helvetica,sans-Serif" font-size="10.00">parser.commands.Tell</text>
</g>
<!-- Node2 -->
<g id="node2" class="node"><title>Node2</title>
<g id="a_node2"><a xlink:href="../../d3/d36/classparser_1_1nodes_1_1_unary_node.html" target="_top" xlink:title="parser.nodes.UnaryNode">
<polygon fill="white" stroke="black" points="0,-68.5 0,-87.5 136,-87.5 136,-68.5 0,-68.5"/>
<text text-anchor="middle" x="68" y="-75.5" font-family="Helvetica,sans-Serif" font-size="10.00">parser.nodes.UnaryNode</text>
</a>
</g>
</g>
<!-- Node2&#45;&gt;Node1 -->
<g id="edge1" class="edge"><title>Node2&#45;&gt;Node1</title>
<path fill="none" stroke="midnightblue" d="M87.8719,-62.0961C105.332,-49.0012 130.13,-30.4028 144.493,-19.6305"/>
<polygon fill="midnightblue" stroke="midnightblue" points="85.4045,-59.5716 79.5045,-68.3717 89.6045,-65.1716 85.4045,-59.5716"/>
</g>
<!-- Node3 -->
<g id="node3" class="node"><title>Node3</title>
<g id="a_node3"><a xlink:href="../../da/d96/classparser_1_1nodes_1_1_syntax_node.html" target="_top" xlink:title="parser.nodes.SyntaxNode">
<polygon fill="white" stroke="black" points="8,-142.5 8,-161.5 148,-161.5 148,-142.5 8,-142.5"/>
<text text-anchor="middle" x="78" y="-149.5" font-family="Helvetica,sans-Serif" font-size="10.00">parser.nodes.SyntaxNode</text>
</a>
</g>
</g>
<!-- Node3&#45;&gt;Node2 -->
<g id="edge2" class="edge"><title>Node3&#45;&gt;Node2</title>
<path fill="none" stroke="midnightblue" d="M75.3828,-132.156C73.3767,-117.712 70.7027,-98.4594 69.1849,-87.531"/>
<polygon fill="midnightblue" stroke="midnightblue" points="71.9711,-133.035 76.8136,-142.458 78.9046,-132.071 71.9711,-133.035"/>
</g>
<!-- Node3&#45;&gt;Node2 -->
<g id="edge3" class="edge"><title>Node3&#45;&gt;Node2</title>
<path fill="none" stroke="#9a32cd" stroke-dasharray="5,2" d="M76.2135,-132.156C75.3688,-124.084 74.2667,-114.562 73,-106 72.1069,-99.9637 70.8569,-93.2137 69.8302,-87.9728"/>
<polygon fill="#9a32cd" stroke="#9a32cd" points="72.7547,-132.744 77.2265,-142.349 79.7204,-132.052 72.7547,-132.744"/>
<text text-anchor="middle" x="112.5" y="-109.5" font-family="Helvetica,sans-Serif" font-size="10.00"> referenceNode</text>
</g>
<!-- Node4 -->
<g id="node4" class="node"><title>Node4</title>
<g id="a_node4"><a xlink:href="../../d4/d1c/classparser_1_1nodes_1_1_list_node.html" target="_top" xlink:title="parser.nodes.ListNode">
<polygon fill="white" stroke="black" points="154,-68.5 154,-87.5 278,-87.5 278,-68.5 154,-68.5"/>
<text text-anchor="middle" x="216" y="-75.5" font-family="Helvetica,sans-Serif" font-size="10.00">parser.nodes.ListNode</text>
</a>
</g>
</g>
<!-- Node3&#45;&gt;Node4 -->
<g id="edge5" class="edge"><title>Node3&#45;&gt;Node4</title>
<path fill="none" stroke="midnightblue" d="M109.618,-138.537C123.467,-132.756 139.77,-125.509 154,-118 171.769,-108.623 191.222,-95.9648 203.511,-87.6475"/>
<polygon fill="midnightblue" stroke="midnightblue" points="107.956,-135.435 100.033,-142.469 110.613,-141.912 107.956,-135.435"/>
</g>
<!-- Node4&#45;&gt;Node1 -->
<g id="edge4" class="edge"><title>Node4&#45;&gt;Node1</title>
<path fill="none" stroke="#9a32cd" stroke-dasharray="5,2" d="M201.164,-60.68C189.433,-47.7768 173.507,-30.2575 164.037,-19.8411"/>
<polygon fill="#9a32cd" stroke="#9a32cd" points="198.839,-63.3266 208.156,-68.3717 204.019,-58.6179 198.839,-63.3266"/>
<text text-anchor="middle" x="224" y="-41.5" font-family="Helvetica,sans-Serif" font-size="10.00"> listReference</text>
</g>
<!-- Node5 -->
<g id="node5" class="node"><title>Node5</title>
<polygon fill="white" stroke="#bfbfbf" points="166.5,-137 166.5,-167 309.5,-167 309.5,-137 166.5,-137"/>
<text text-anchor="start" x="174.5" y="-155" font-family="Helvetica,sans-Serif" font-size="10.00">List&lt; parser.nodes.Syntax</text>
<text text-anchor="middle" x="238" y="-144" font-family="Helvetica,sans-Serif" font-size="10.00">Node &gt;</text>
</g>
<!-- Node5&#45;&gt;Node4 -->
<g id="edge6" class="edge"><title>Node5&#45;&gt;Node4</title>
<path fill="none" stroke="#9a32cd" stroke-dasharray="5,2" d="M230.693,-127.087C226.562,-113.568 221.645,-97.4757 218.676,-87.7589"/>
<polygon fill="#9a32cd" stroke="#9a32cd" points="227.384,-128.234 233.654,-136.775 234.078,-126.189 227.384,-128.234"/>
<text text-anchor="middle" x="245.5" y="-109.5" font-family="Helvetica,sans-Serif" font-size="10.00"> myList</text>
</g>
</g>
</svg>
