<?xml version="1.0" encoding="UTF-8" standalone="no"?>
<!DOCTYPE svg PUBLIC "-//W3C//DTD SVG 1.1//EN"
 "http://www.w3.org/Graphics/SVG/1.1/DTD/svg11.dtd">
<!-- Generated by graphviz version 2.36.0 (20140111.2315)
 -->
<!-- Title: view.toolbar.ToolbarItem Pages: 1 -->
<svg width="610pt" height="248pt"
 viewBox="0.00 0.00 610.00 248.00" xmlns="http://www.w3.org/2000/svg" xmlns:xlink="http://www.w3.org/1999/xlink">
<g id="graph0" class="graph" transform="scale(1 1) rotate(0) translate(4 244)">
<title>view.toolbar.ToolbarItem</title>
<polygon fill="white" stroke="none" points="-4,4 -4,-244 606,-244 606,4 -4,4"/>
<!-- Node1 -->
<g id="node1" class="node"><title>Node1</title>
<polygon fill="#bfbfbf" stroke="black" points="78.5,-127.5 78.5,-146.5 209.5,-146.5 209.5,-127.5 78.5,-127.5"/>
<text text-anchor="middle" x="144" y="-134.5" font-family="Helvetica,sans-Serif" font-size="10.00">view.toolbar.ToolbarItem</text>
</g>
<!-- Node3 -->
<g id="node3" class="node"><title>Node3</title>
<g id="a_node3"><a xlink:href="../../da/de9/classview_1_1toolbar_1_1_add_turtle_toolbar_item.html" target="_top" xlink:title="view.toolbar.AddTurtleToolbarItem">
<polygon fill="white" stroke="black" points="246.5,-220.5 246.5,-239.5 421.5,-239.5 421.5,-220.5 246.5,-220.5"/>
<text text-anchor="middle" x="334" y="-227.5" font-family="Helvetica,sans-Serif" font-size="10.00">view.toolbar.AddTurtleToolbarItem</text>
</a>
</g>
</g>
<!-- Node1&#45;&gt;Node3 -->
<g id="edge2" class="edge"><title>Node1&#45;&gt;Node3</title>
<path fill="none" stroke="midnightblue" d="M162.934,-153.435C182.105,-170.126 214.077,-195.518 246,-210 255.456,-214.29 265.922,-217.704 276.221,-220.408"/>
<polygon fill="midnightblue" stroke="midnightblue" points="165.106,-150.683 155.305,-146.66 160.458,-155.917 165.106,-150.683"/>
</g>
<!-- Node4 -->
<g id="node4" class="node"><title>Node4</title>
<g id="a_node4"><a xlink:href="../../dc/d2a/classview_1_1toolbar_1_1_background_color_toolbar_item.html" target="_top" xlink:title="view.toolbar.BackgroundColor\lToolbarItem">
<polygon fill="white" stroke="black" points="255.5,-171 255.5,-201 412.5,-201 412.5,-171 255.5,-171"/>
<text text-anchor="start" x="263.5" y="-189" font-family="Helvetica,sans-Serif" font-size="10.00">view.toolbar.BackgroundColor</text>
<text text-anchor="middle" x="334" y="-178" font-family="Helvetica,sans-Serif" font-size="10.00">ToolbarItem</text>
</a>
</g>
</g>
<!-- Node1&#45;&gt;Node4 -->
<g id="edge3" class="edge"><title>Node1&#45;&gt;Node4</title>
<path fill="none" stroke="midnightblue" d="M191.431,-149.102C216.777,-155.708 248.389,-163.947 275.307,-170.963"/>
<polygon fill="midnightblue" stroke="midnightblue" points="192.254,-145.699 181.695,-146.564 190.489,-152.473 192.254,-145.699"/>
</g>
<!-- Node5 -->
<g id="node5" class="node"><title>Node5</title>
<g id="a_node5"><a xlink:href="../../d3/d76/classview_1_1toolbar_1_1_show_turtles_toolbar_item.html" target="_top" xlink:title="view.toolbar.ShowTurtles\lToolbarItem">
<polygon fill="white" stroke="black" points="268.5,-122 268.5,-152 399.5,-152 399.5,-122 268.5,-122"/>
<text text-anchor="start" x="276.5" y="-140" font-family="Helvetica,sans-Serif" font-size="10.00">view.toolbar.ShowTurtles</text>
<text text-anchor="middle" x="334" y="-129" font-family="Helvetica,sans-Serif" font-size="10.00">ToolbarItem</text>
</a>
</g>
</g>
<!-- Node1&#45;&gt;Node5 -->
<g id="edge4" class="edge"><title>Node1&#45;&gt;Node5</title>
<path fill="none" stroke="midnightblue" d="M220.04,-137C235.974,-137 252.667,-137 268.182,-137"/>
<polygon fill="midnightblue" stroke="midnightblue" points="219.699,-133.5 209.699,-137 219.699,-140.5 219.699,-133.5"/>
</g>
<!-- Node6 -->
<g id="node6" class="node"><title>Node6</title>
<g id="a_node6"><a xlink:href="../../d2/d92/classview_1_1toolbar_1_1_speed_slider_toolbar_item.html" target="_top" xlink:title="view.toolbar.SpeedSlider\lToolbarItem">
<polygon fill="white" stroke="black" points="267.5,-73 267.5,-103 400.5,-103 400.5,-73 267.5,-73"/>
<text text-anchor="start" x="275.5" y="-91" font-family="Helvetica,sans-Serif" font-size="10.00">view.toolbar.SpeedSlider</text>
<text text-anchor="middle" x="334" y="-80" font-family="Helvetica,sans-Serif" font-size="10.00">ToolbarItem</text>
</a>
</g>
</g>
<!-- Node1&#45;&gt;Node6 -->
<g id="edge5" class="edge"><title>Node1&#45;&gt;Node6</title>
<path fill="none" stroke="midnightblue" d="M191.431,-124.898C216.777,-118.292 248.389,-110.053 275.307,-103.037"/>
<polygon fill="midnightblue" stroke="midnightblue" points="190.489,-121.527 181.695,-127.436 192.254,-128.301 190.489,-121.527"/>
</g>
<!-- Node7 -->
<g id="node7" class="node"><title>Node7</title>
<g id="a_node7"><a xlink:href="../../d2/d72/classview_1_1toolbar_1_1_turtle_specific_toolbar_item.html" target="_top" xlink:title="view.toolbar.TurtleSpecific\lToolbarItem">
<polygon fill="white" stroke="black" points="265.5,-24 265.5,-54 402.5,-54 402.5,-24 265.5,-24"/>
<text text-anchor="start" x="273.5" y="-42" font-family="Helvetica,sans-Serif" font-size="10.00">view.toolbar.TurtleSpecific</text>
<text text-anchor="middle" x="334" y="-31" font-family="Helvetica,sans-Serif" font-size="10.00">ToolbarItem</text>
</a>
</g>
</g>
<!-- Node1&#45;&gt;Node7 -->
<g id="edge6" class="edge"><title>Node1&#45;&gt;Node7</title>
<path fill="none" stroke="midnightblue" d="M163.023,-120.608C182.267,-103.907 214.298,-78.343 246,-63 252.911,-59.6554 260.363,-56.7119 267.897,-54.1385"/>
<polygon fill="midnightblue" stroke="midnightblue" points="160.537,-118.133 155.362,-127.378 165.173,-123.379 160.537,-118.133"/>
</g>
<!-- Node2 -->
<g id="node2" class="node"><title>Node2</title>
<polygon fill="white" stroke="#bfbfbf" points="0,-127.5 0,-146.5 42,-146.5 42,-127.5 0,-127.5"/>
<text text-anchor="middle" x="21" y="-134.5" font-family="Helvetica,sans-Serif" font-size="10.00">HBox</text>
</g>
<!-- Node2&#45;&gt;Node1 -->
<g id="edge1" class="edge"><title>Node2&#45;&gt;Node1</title>
<path fill="none" stroke="midnightblue" d="M52.4392,-137C60.3863,-137 69.2611,-137 78.2616,-137"/>
<polygon fill="midnightblue" stroke="midnightblue" points="52.2527,-133.5 42.2527,-137 52.2526,-140.5 52.2527,-133.5"/>
</g>
<!-- Node8 -->
<g id="node8" class="node"><title>Node8</title>
<g id="a_node8"><a xlink:href="../../d5/d89/classview_1_1toolbar_1_1_turtle_image_toolbar_item.html" target="_top" xlink:title="view.toolbar.TurtleImage\lToolbarItem">
<polygon fill="white" stroke="black" points="464.5,-49 464.5,-79 595.5,-79 595.5,-49 464.5,-49"/>
<text text-anchor="start" x="472.5" y="-67" font-family="Helvetica,sans-Serif" font-size="10.00">view.toolbar.TurtleImage</text>
<text text-anchor="middle" x="530" y="-56" font-family="Helvetica,sans-Serif" font-size="10.00">ToolbarItem</text>
</a>
</g>
</g>
<!-- Node7&#45;&gt;Node8 -->
<g id="edge7" class="edge"><title>Node7&#45;&gt;Node8</title>
<path fill="none" stroke="midnightblue" d="M412.561,-48.9949C429.708,-51.2046 447.7,-53.5232 464.274,-55.659"/>
<polygon fill="midnightblue" stroke="midnightblue" points="412.945,-45.5156 402.579,-47.7087 412.05,-52.4582 412.945,-45.5156"/>
</g>
<!-- Node9 -->
<g id="node9" class="node"><title>Node9</title>
<g id="a_node9"><a xlink:href="../../d7/d7b/classview_1_1toolbar_1_1_turtle_pen_color_toolbar_item.html" target="_top" xlink:title="view.toolbar.TurtlePenColor\lToolbarItem">
<polygon fill="white" stroke="black" points="458.5,-0 458.5,-30 601.5,-30 601.5,-0 458.5,-0"/>
<text text-anchor="start" x="466.5" y="-18" font-family="Helvetica,sans-Serif" font-size="10.00">view.toolbar.TurtlePenColor</text>
<text text-anchor="middle" x="530" y="-7" font-family="Helvetica,sans-Serif" font-size="10.00">ToolbarItem</text>
</a>
</g>
</g>
<!-- Node7&#45;&gt;Node9 -->
<g id="edge8" class="edge"><title>Node7&#45;&gt;Node9</title>
<path fill="none" stroke="midnightblue" d="M412.868,-29.3668C427.904,-27.5067 443.579,-25.5676 458.368,-23.7379"/>
<polygon fill="midnightblue" stroke="midnightblue" points="412.074,-25.9383 402.579,-30.6397 412.934,-32.8853 412.074,-25.9383"/>
</g>
</g>
</svg>
