<?xml version="1.0" encoding="UTF-8" standalone="no"?>
<!DOCTYPE svg PUBLIC "-//W3C//DTD SVG 1.1//EN"
 "http://www.w3.org/Graphics/SVG/1.1/DTD/svg11.dtd">
<!-- Generated by graphviz version 2.36.0 (20140111.2315)
 -->
<!-- Title: parser.nodes.UnlimitedNode.UnlimitedNode Pages: 1 -->
<svg width="608pt" height="126pt"
 viewBox="0.00 0.00 608.00 126.00" xmlns="http://www.w3.org/2000/svg" xmlns:xlink="http://www.w3.org/1999/xlink">
<g id="graph0" class="graph" transform="scale(1 1) rotate(0) translate(4 122)">
<title>parser.nodes.UnlimitedNode.UnlimitedNode</title>
<polygon fill="white" stroke="none" points="-4,4 -4,-122 604,-122 604,4 -4,4"/>
<!-- Node1 -->
<g id="node1" class="node"><title>Node1</title>
<polygon fill="#bfbfbf" stroke="black" points="0,-44 0,-74 156,-74 156,-44 0,-44"/>
<text text-anchor="start" x="8" y="-62" font-family="Helvetica,sans-Serif" font-size="10.00">parser.nodes.UnlimitedNode.</text>
<text text-anchor="middle" x="78" y="-51" font-family="Helvetica,sans-Serif" font-size="10.00">UnlimitedNode</text>
</g>
<!-- Node2 -->
<g id="node2" class="node"><title>Node2</title>
<g id="a_node2"><a xlink:href="../../d6/dc9/classparser_1_1nodes_1_1_unlimited_node.html#a321d945b4bf53772c44b304ca0223344" target="_top" xlink:title="parser.nodes.UnlimitedNode.convert\lAndPush">
<polygon fill="white" stroke="black" points="192,-88 192,-118 384,-118 384,-88 192,-88"/>
<text text-anchor="start" x="200" y="-106" font-family="Helvetica,sans-Serif" font-size="10.00">parser.nodes.UnlimitedNode.convert</text>
<text text-anchor="middle" x="288" y="-95" font-family="Helvetica,sans-Serif" font-size="10.00">AndPush</text>
</a>
</g>
</g>
<!-- Node1&#45;&gt;Node2 -->
<g id="edge1" class="edge"><title>Node1&#45;&gt;Node2</title>
<path fill="none" stroke="midnightblue" d="M150,-74.0192C168.056,-77.8388 187.593,-81.9716 206.102,-85.8869"/>
<polygon fill="midnightblue" stroke="midnightblue" points="205.459,-89.3284 215.967,-87.9738 206.908,-82.4799 205.459,-89.3284"/>
</g>
<!-- Node3 -->
<g id="node3" class="node"><title>Node3</title>
<g id="a_node3"><a xlink:href="../../d4/d1c/classparser_1_1nodes_1_1_list_node.html#a06d95a825392910e4f1744c706c658df" target="_top" xlink:title="parser.nodes.ListNode.getSize">
<polygon fill="white" stroke="black" points="206.5,-49.5 206.5,-68.5 369.5,-68.5 369.5,-49.5 206.5,-49.5"/>
<text text-anchor="middle" x="288" y="-56.5" font-family="Helvetica,sans-Serif" font-size="10.00">parser.nodes.ListNode.getSize</text>
</a>
</g>
</g>
<!-- Node1&#45;&gt;Node3 -->
<g id="edge2" class="edge"><title>Node1&#45;&gt;Node3</title>
<path fill="none" stroke="midnightblue" d="M156.156,-59C169.238,-59 182.929,-59 196.321,-59"/>
<polygon fill="midnightblue" stroke="midnightblue" points="196.488,-62.5001 206.488,-59 196.488,-55.5001 196.488,-62.5001"/>
</g>
<!-- Node4 -->
<g id="node4" class="node"><title>Node4</title>
<g id="a_node4"><a xlink:href="../../d6/dc9/classparser_1_1nodes_1_1_unlimited_node.html#aee0583d6e8fed7f937a4cff3f5d2ab7f" target="_top" xlink:title="parser.nodes.UnlimitedNode.push\lAsList">
<polygon fill="white" stroke="black" points="198.5,-0 198.5,-30 377.5,-30 377.5,-0 198.5,-0"/>
<text text-anchor="start" x="206.5" y="-18" font-family="Helvetica,sans-Serif" font-size="10.00">parser.nodes.UnlimitedNode.push</text>
<text text-anchor="middle" x="288" y="-7" font-family="Helvetica,sans-Serif" font-size="10.00">AsList</text>
</a>
</g>
</g>
<!-- Node1&#45;&gt;Node4 -->
<g id="edge3" class="edge"><title>Node1&#45;&gt;Node4</title>
<path fill="none" stroke="midnightblue" d="M150,-43.9808C168.056,-40.1612 187.593,-36.0284 206.102,-32.1131"/>
<polygon fill="midnightblue" stroke="midnightblue" points="206.908,-35.5201 215.967,-30.0262 205.459,-28.6716 206.908,-35.5201"/>
</g>
<!-- Node5 -->
<g id="node5" class="node"><title>Node5</title>
<g id="a_node5"><a xlink:href="../../d9/d05/classparser_1_1nodes_1_1_group_node.html#a0a9e06b70341c5a2f03ac712c325e622" target="_top" xlink:title="parser.nodes.GroupNode.backPop">
<polygon fill="white" stroke="black" points="420,-5.5 420,-24.5 600,-24.5 600,-5.5 420,-5.5"/>
<text text-anchor="middle" x="510" y="-12.5" font-family="Helvetica,sans-Serif" font-size="10.00">parser.nodes.GroupNode.backPop</text>
</a>
</g>
</g>
<!-- Node4&#45;&gt;Node5 -->
<g id="edge4" class="edge"><title>Node4&#45;&gt;Node5</title>
<path fill="none" stroke="midnightblue" d="M377.531,-15C388.118,-15 398.98,-15 409.706,-15"/>
<polygon fill="midnightblue" stroke="midnightblue" points="409.933,-18.5001 419.933,-15 409.933,-11.5001 409.933,-18.5001"/>
</g>
</g>
</svg>
