<?xml version="1.0" encoding="UTF-8" standalone="no"?>
<!DOCTYPE svg PUBLIC "-//W3C//DTD SVG 1.1//EN"
 "http://www.w3.org/Graphics/SVG/1.1/DTD/svg11.dtd">
<!-- Generated by graphviz version 2.36.0 (20140111.2315)
 -->
<!-- Title: parser.nodes.UnlimitedNode.pushAsList Pages: 1 -->
<svg width="380pt" height="38pt"
 viewBox="0.00 0.00 380.00 38.00" xmlns="http://www.w3.org/2000/svg" xmlns:xlink="http://www.w3.org/1999/xlink">
<g id="graph0" class="graph" transform="scale(1 1) rotate(0) translate(4 34)">
<title>parser.nodes.UnlimitedNode.pushAsList</title>
<polygon fill="white" stroke="none" points="-4,4 -4,-34 376,-34 376,4 -4,4"/>
<!-- Node1 -->
<g id="node1" class="node"><title>Node1</title>
<polygon fill="#bfbfbf" stroke="black" points="0.5,-0 0.5,-30 179.5,-30 179.5,-0 0.5,-0"/>
<text text-anchor="start" x="8.5" y="-18" font-family="Helvetica,sans-Serif" font-size="10.00">parser.nodes.UnlimitedNode.push</text>
<text text-anchor="middle" x="90" y="-7" font-family="Helvetica,sans-Serif" font-size="10.00">AsList</text>
</g>
<!-- Node2 -->
<g id="node2" class="node"><title>Node2</title>
<g id="a_node2"><a xlink:href="../../d6/dc9/classparser_1_1nodes_1_1_unlimited_node.html#a4b5d0253fdc5b292e4e201eab16f3727" target="_top" xlink:title="parser.nodes.UnlimitedNode.\lUnlimitedNode">
<polygon fill="white" stroke="black" points="216,-0 216,-30 372,-30 372,-0 216,-0"/>
<text text-anchor="start" x="224" y="-18" font-family="Helvetica,sans-Serif" font-size="10.00">parser.nodes.UnlimitedNode.</text>
<text text-anchor="middle" x="294" y="-7" font-family="Helvetica,sans-Serif" font-size="10.00">UnlimitedNode</text>
</a>
</g>
</g>
<!-- Node1&#45;&gt;Node2 -->
<g id="edge1" class="edge"><title>Node1&#45;&gt;Node2</title>
<path fill="none" stroke="midnightblue" d="M189.838,-15C198.581,-15 207.345,-15 215.869,-15"/>
<polygon fill="midnightblue" stroke="midnightblue" points="189.6,-11.5001 179.6,-15 189.6,-18.5001 189.6,-11.5001"/>
</g>
</g>
</svg>
