<?xml version="1.0" encoding="UTF-8" standalone="no"?>
<!DOCTYPE svg PUBLIC "-//W3C//DTD SVG 1.1//EN"
 "http://www.w3.org/Graphics/SVG/1.1/DTD/svg11.dtd">
<!-- Generated by graphviz version 2.36.0 (20140111.2315)
 -->
<!-- Title: parser.parser.Parser Pages: 1 -->
<!--zoomable 499 -->
<svg id="main" version="1.1" xmlns="http://www.w3.org/2000/svg" xmlns:xlink="http://www.w3.org/1999/xlink" xml:space="preserve" onload="init(evt)">
<style type="text/css"><![CDATA[
.edge:hover path { stroke: red; }
.edge:hover polygon { stroke: red; fill: red; }
]]></style>
<script type="text/javascript"><![CDATA[
var edges = document.getElementsByTagName('g');
if (edges && edges.length) {
  for (var i=0;i<edges.length;i++) {
    if (edges[i].id.substr(0,4)=='edge') {
      edges[i].setAttribute('class','edge');
    }
  }
}
]]></script>
        <defs>
                <circle id="rim" cx="0" cy="0" r="7"/>
                <circle id="rim2" cx="0" cy="0" r="3.5"/>
                <g id="zoomPlus">
                        <use xlink:href="#rim" fill="#404040">
                                <set attributeName="fill" to="#808080" begin="zoomplus.mouseover" end="zoomplus.mouseout"/>
                        </use>
                        <path d="M-4,0h8M0,-4v8" fill="none" stroke="white" stroke-width="1.5" pointer-events="none"/>
                </g>
                <g id="zoomMin">
                        <use xlink:href="#rim" fill="#404040">
                                <set attributeName="fill" to="#808080" begin="zoomminus.mouseover" end="zoomminus.mouseout"/>
                        </use>
                        <path d="M-4,0h8" fill="none" stroke="white" stroke-width="1.5" pointer-events="none"/>
                </g>
                <g id="dirArrow">
                        <path fill="none" stroke="white" stroke-width="1.5" d="M0,-3.0v7 M-2.5,-0.5L0,-3.0L2.5,-0.5"/>
                </g>
               <g id="resetDef">
                       <use xlink:href="#rim2" fill="#404040">
                               <set attributeName="fill" to="#808080" begin="reset.mouseover" end="reset.mouseout"/>
                       </use>
               </g>
        </defs>

<script type="text/javascript">
var viewWidth = 1474;
var viewHeight = 499;
var sectionId = 'dynsection-0';
</script>
<script xlink:href="../../svgpan.js"/>
<svg id="graph" class="graph">
<g id="viewport">
<title>parser.parser.Parser</title>
<polygon fill="white" stroke="none" points="-4,4 -4,-495 1470,-495 1470,4 -4,4"/>
<!-- Node1 -->
<g id="node1" class="node"><title>Node1</title>
<polygon fill="#bfbfbf" stroke="black" points="1352.5,-184.5 1352.5,-203.5 1465.5,-203.5 1465.5,-184.5 1352.5,-184.5"/>
<text text-anchor="middle" x="1409" y="-191.5" font-family="Helvetica,sans-Serif" font-size="10.00">parser.parser.Parser</text>
</g>
<!-- Node2 -->
<g id="node2" class="node"><title>Node2</title>
<g id="a_node2"><a xlink:href="../../d7/dab/classmodel_1_1_state.html" target="_top" xlink:title="model.State">
<polygon fill="white" stroke="black" points="1166,-184.5 1166,-203.5 1242,-203.5 1242,-184.5 1166,-184.5"/>
<text text-anchor="middle" x="1204" y="-191.5" font-family="Helvetica,sans-Serif" font-size="10.00">model.State</text>
</a>
</g>
</g>
<!-- Node2&#45;&gt;Node1 -->
<g id="edge1" class="edge"><title>Node2&#45;&gt;Node1</title>
<path fill="none" stroke="#9a32cd" stroke-dasharray="5,2" d="M1252.4,-194C1282.24,-194 1320.91,-194 1352.23,-194"/>
<polygon fill="#9a32cd" stroke="#9a32cd" points="1252.23,-190.5 1242.23,-194 1252.23,-197.5 1252.23,-190.5"/>
<text text-anchor="middle" x="1297" y="-197" font-family="Helvetica,sans-Serif" font-size="10.00"> myActiveState</text>
</g>
<!-- Node3 -->
<g id="node3" class="node"><title>Node3</title>
<g id="a_node3"><a xlink:href="../../d9/dea/classmodel_1_1_turtle_multiple.html" target="_top" xlink:title="model.TurtleMultiple">
<polygon fill="white" stroke="black" points="936,-269.5 936,-288.5 1048,-288.5 1048,-269.5 936,-269.5"/>
<text text-anchor="middle" x="992" y="-276.5" font-family="Helvetica,sans-Serif" font-size="10.00">model.TurtleMultiple</text>
</a>
</g>
</g>
<!-- Node3&#45;&gt;Node2 -->
<g id="edge2" class="edge"><title>Node3&#45;&gt;Node2</title>
<path fill="none" stroke="#9a32cd" stroke-dasharray="5,2" d="M1038.42,-266.597C1069.86,-257.333 1112.3,-243.462 1148,-227 1162.56,-220.286 1178.14,-210.683 1188.99,-203.567"/>
<polygon fill="#9a32cd" stroke="#9a32cd" points="1037.25,-263.292 1028.62,-269.441 1039.2,-270.015 1037.25,-263.292"/>
<text text-anchor="middle" x="1107" y="-261" font-family="Helvetica,sans-Serif" font-size="10.00"> myTurtleMultiple</text>
</g>
<!-- Node4 -->
<g id="node4" class="node"><title>Node4</title>
<g id="a_node4"><a xlink:href="../../d8/d18/interfacemodel_1_1_turtle.html" target="_top" xlink:title="model.Turtle">
<polygon fill="white" stroke="black" points="361.5,-311.5 361.5,-330.5 436.5,-330.5 436.5,-311.5 361.5,-311.5"/>
<text text-anchor="middle" x="399" y="-318.5" font-family="Helvetica,sans-Serif" font-size="10.00">model.Turtle</text>
</a>
</g>
</g>
<!-- Node4&#45;&gt;Node3 -->
<g id="edge3" class="edge"><title>Node4&#45;&gt;Node3</title>
<path fill="none" stroke="midnightblue" d="M447.044,-318.601C538.074,-313.806 744.63,-302.182 918,-287 923.715,-286.499 929.677,-285.928 935.622,-285.325"/>
<polygon fill="midnightblue" stroke="midnightblue" points="446.587,-315.12 436.783,-319.138 446.953,-322.11 446.587,-315.12"/>
</g>
<!-- Node6 -->
<g id="node6" class="node"><title>Node6</title>
<g id="a_node6"><a xlink:href="../../da/d88/classmodel_1_1_turtle_single.html" target="_top" xlink:title="model.TurtleSingle">
<polygon fill="white" stroke="black" points="665,-343.5 665,-362.5 769,-362.5 769,-343.5 665,-343.5"/>
<text text-anchor="middle" x="717" y="-350.5" font-family="Helvetica,sans-Serif" font-size="10.00">model.TurtleSingle</text>
</a>
</g>
</g>
<!-- Node4&#45;&gt;Node6 -->
<g id="edge6" class="edge"><title>Node4&#45;&gt;Node6</title>
<path fill="none" stroke="midnightblue" d="M446.604,-325.719C504.954,-331.628 604.56,-341.715 664.928,-347.828"/>
<polygon fill="midnightblue" stroke="midnightblue" points="446.86,-322.227 436.558,-324.702 446.154,-329.192 446.86,-322.227"/>
</g>
<!-- Node5 -->
<g id="node5" class="node"><title>Node5</title>
<g id="a_node5"><a xlink:href="../../dc/ddc/interfacemodel_1_1_observable.html" target="_top" xlink:title="model.Observable">
<polygon fill="white" stroke="black" points="41,-260.5 41,-279.5 145,-279.5 145,-260.5 41,-260.5"/>
<text text-anchor="middle" x="93" y="-267.5" font-family="Helvetica,sans-Serif" font-size="10.00">model.Observable</text>
</a>
</g>
</g>
<!-- Node5&#45;&gt;Node4 -->
<g id="edge4" class="edge"><title>Node5&#45;&gt;Node4</title>
<path fill="none" stroke="midnightblue" d="M143.908,-281.735C162.685,-285.927 184.264,-290.479 204,-294 258.567,-303.735 322.296,-312.019 361.398,-316.753"/>
<polygon fill="midnightblue" stroke="midnightblue" points="144.607,-278.305 134.082,-279.518 143.067,-285.133 144.607,-278.305"/>
</g>
<!-- Node16 -->
<g id="node16" class="node"><title>Node16</title>
<g id="a_node16"><a xlink:href="../../df/d15/interfacemodel_1_1_i_variables_collection.html" target="_top" xlink:title="model.IVariablesCollection">
<polygon fill="white" stroke="black" points="484,-235.5 484,-254.5 626,-254.5 626,-235.5 484,-235.5"/>
<text text-anchor="middle" x="555" y="-242.5" font-family="Helvetica,sans-Serif" font-size="10.00">model.IVariablesCollection</text>
</a>
</g>
</g>
<!-- Node5&#45;&gt;Node16 -->
<g id="edge17" class="edge"><title>Node5&#45;&gt;Node16</title>
<path fill="none" stroke="midnightblue" d="M155.163,-271.279C199.331,-271.823 260.389,-271.796 314,-269 371.29,-266.012 435.996,-259.349 483.773,-253.8"/>
<polygon fill="midnightblue" stroke="midnightblue" points="155.207,-267.78 145.16,-271.143 155.112,-274.779 155.207,-267.78"/>
</g>
<!-- Node17 -->
<g id="node17" class="node"><title>Node17</title>
<g id="a_node17"><a xlink:href="../../db/df9/classmodel_1_1_command_history.html" target="_top" xlink:title="model.CommandHistory">
<polygon fill="white" stroke="black" points="332,-68.5 332,-87.5 466,-87.5 466,-68.5 332,-68.5"/>
<text text-anchor="middle" x="399" y="-75.5" font-family="Helvetica,sans-Serif" font-size="10.00">model.CommandHistory</text>
</a>
</g>
</g>
<!-- Node5&#45;&gt;Node17 -->
<g id="edge19" class="edge"><title>Node5&#45;&gt;Node17</title>
<path fill="none" stroke="midnightblue" d="M139.607,-257.678C196.957,-241.286 290.753,-211.205 314,-184 338.24,-155.634 307.423,-130.075 332,-102 337.541,-95.67 344.89,-91.0087 352.67,-87.5765"/>
<polygon fill="midnightblue" stroke="midnightblue" points="138.365,-254.391 129.694,-260.479 140.269,-261.128 138.365,-254.391"/>
</g>
<!-- Node20 -->
<g id="node20" class="node"><title>Node20</title>
<g id="a_node20"><a xlink:href="../../d3/d73/classmodel_1_1_view_options.html" target="_top" xlink:title="model.ViewOptions">
<polygon fill="white" stroke="black" points="345,-185.5 345,-204.5 453,-204.5 453,-185.5 345,-185.5"/>
<text text-anchor="middle" x="399" y="-192.5" font-family="Helvetica,sans-Serif" font-size="10.00">model.ViewOptions</text>
</a>
</g>
</g>
<!-- Node5&#45;&gt;Node20 -->
<g id="edge26" class="edge"><title>Node5&#45;&gt;Node20</title>
<path fill="none" stroke="midnightblue" d="M155.267,-269.43C200.233,-267.427 262.229,-261.321 314,-244 341.379,-234.84 369.66,-216.054 385.423,-204.589"/>
<polygon fill="midnightblue" stroke="midnightblue" points="154.939,-265.94 145.083,-269.827 155.211,-272.935 154.939,-265.94"/>
</g>
<!-- Node6&#45;&gt;Node3 -->
<g id="edge5" class="edge"><title>Node6&#45;&gt;Node3</title>
<path fill="none" stroke="#9a32cd" stroke-dasharray="5,2" d="M779.021,-345.773C819.203,-339.957 872.58,-330.201 918,-315 938.369,-308.183 960.285,-296.77 974.73,-288.622"/>
<polygon fill="#9a32cd" stroke="#9a32cd" points="778.517,-342.309 769.102,-347.167 779.492,-349.241 778.517,-342.309"/>
<text text-anchor="middle" x="863" y="-344" font-family="Helvetica,sans-Serif" font-size="10.00"> lastActingTurtle</text>
</g>
<!-- Node7 -->
<g id="node7" class="node"><title>Node7</title>
<g id="a_node7"><a xlink:href="../../de/dfa/classmodel_1_1_angle.html" target="_top" xlink:title="model.Angle">
<polygon fill="white" stroke="black" points="360.5,-394.5 360.5,-413.5 437.5,-413.5 437.5,-394.5 360.5,-394.5"/>
<text text-anchor="middle" x="399" y="-401.5" font-family="Helvetica,sans-Serif" font-size="10.00">model.Angle</text>
</a>
</g>
</g>
<!-- Node7&#45;&gt;Node6 -->
<g id="edge7" class="edge"><title>Node7&#45;&gt;Node6</title>
<path fill="none" stroke="#9a32cd" stroke-dasharray="5,2" d="M447.553,-402.336C493.596,-400.03 565.172,-394.608 626,-382 648.504,-377.335 673.311,-369.1 691.171,-362.594"/>
<polygon fill="#9a32cd" stroke="#9a32cd" points="447.384,-398.84 437.56,-402.807 447.714,-405.832 447.384,-398.84"/>
<text text-anchor="middle" x="555" y="-403" font-family="Helvetica,sans-Serif" font-size="10.00"> myAngle</text>
</g>
<!-- Node8 -->
<g id="node8" class="node"><title>Node8</title>
<g id="a_node8"><a xlink:href="../../de/ded/classmodel_1_1_pen.html" target="_top" xlink:title="model.Pen">
<polygon fill="white" stroke="black" points="365,-432.5 365,-451.5 433,-451.5 433,-432.5 365,-432.5"/>
<text text-anchor="middle" x="399" y="-439.5" font-family="Helvetica,sans-Serif" font-size="10.00">model.Pen</text>
</a>
</g>
</g>
<!-- Node8&#45;&gt;Node6 -->
<g id="edge8" class="edge"><title>Node8&#45;&gt;Node6</title>
<path fill="none" stroke="#9a32cd" stroke-dasharray="5,2" d="M443.415,-442.913C490.021,-442.514 565.512,-437.841 626,-415 658.128,-402.868 689.815,-376.898 705.625,-362.722"/>
<polygon fill="#9a32cd" stroke="#9a32cd" points="443.348,-439.413 433.356,-442.936 443.364,-446.413 443.348,-439.413"/>
<text text-anchor="middle" x="555" y="-445" font-family="Helvetica,sans-Serif" font-size="10.00"> myPen</text>
</g>
<!-- Node9 -->
<g id="node9" class="node"><title>Node9</title>
<g id="a_node9"><a xlink:href="../../da/d87/interfacemodel_1_1_pen_update.html" target="_top" xlink:title="model.PenUpdate">
<polygon fill="white" stroke="black" points="41.5,-471.5 41.5,-490.5 144.5,-490.5 144.5,-471.5 41.5,-471.5"/>
<text text-anchor="middle" x="93" y="-478.5" font-family="Helvetica,sans-Serif" font-size="10.00">model.PenUpdate</text>
</a>
</g>
</g>
<!-- Node9&#45;&gt;Node8 -->
<g id="edge9" class="edge"><title>Node9&#45;&gt;Node8</title>
<path fill="none" stroke="midnightblue" d="M154.854,-476.023C199.118,-472.065 260.424,-465.889 314,-458 330.89,-455.513 349.557,-452.032 364.995,-448.951"/>
<polygon fill="midnightblue" stroke="midnightblue" points="154.486,-472.541 144.832,-476.907 155.101,-479.514 154.486,-472.541"/>
</g>
<!-- Node10 -->
<g id="node10" class="node"><title>Node10</title>
<polygon fill="white" stroke="#bfbfbf" points="47.5,-433.5 47.5,-452.5 138.5,-452.5 138.5,-433.5 47.5,-433.5"/>
<text text-anchor="middle" x="93" y="-440.5" font-family="Helvetica,sans-Serif" font-size="10.00">DoubleProperty</text>
</g>
<!-- Node10&#45;&gt;Node8 -->
<g id="edge10" class="edge"><title>Node10&#45;&gt;Node8</title>
<path fill="none" stroke="#9a32cd" stroke-dasharray="5,2" d="M148.648,-442.82C211.452,-442.614 312.539,-442.281 364.614,-442.11"/>
<polygon fill="#9a32cd" stroke="#9a32cd" points="148.518,-439.321 138.53,-442.854 148.541,-446.321 148.518,-439.321"/>
<text text-anchor="middle" x="259" y="-446" font-family="Helvetica,sans-Serif" font-size="10.00"> penSize</text>
</g>
<!-- Node11 -->
<g id="node11" class="node"><title>Node11</title>
<polygon fill="white" stroke="#bfbfbf" points="47.5,-382.5 47.5,-401.5 138.5,-401.5 138.5,-382.5 47.5,-382.5"/>
<text text-anchor="middle" x="93" y="-389.5" font-family="Helvetica,sans-Serif" font-size="10.00">IntegerProperty</text>
</g>
<!-- Node11&#45;&gt;Node8 -->
<g id="edge11" class="edge"><title>Node11&#45;&gt;Node8</title>
<path fill="none" stroke="#9a32cd" stroke-dasharray="5,2" d="M148.697,-400.904C193.215,-408.163 257.673,-418.698 314,-428 330.775,-430.77 349.43,-433.877 364.89,-436.459"/>
<polygon fill="#9a32cd" stroke="#9a32cd" points="149.103,-397.424 138.67,-399.27 147.977,-404.333 149.103,-397.424"/>
<text text-anchor="middle" x="259" y="-431" font-family="Helvetica,sans-Serif" font-size="10.00"> penColorID</text>
</g>
<!-- Node11&#45;&gt;Node20 -->
<g id="edge27" class="edge"><title>Node11&#45;&gt;Node20</title>
<path fill="none" stroke="#9a32cd" stroke-dasharray="5,2" d="M148.765,-396.752C197.619,-397.947 268.294,-391.77 314,-353 332.331,-337.451 321.631,-323.686 332,-302 350.076,-264.193 378.163,-222.909 391.077,-204.63"/>
<polygon fill="#9a32cd" stroke="#9a32cd" points="148.806,-393.251 138.688,-396.394 148.558,-400.247 148.806,-393.251"/>
<text text-anchor="middle" x="259" y="-397" font-family="Helvetica,sans-Serif" font-size="10.00"> backgroundIDProperty</text>
</g>
<!-- Node12 -->
<g id="node12" class="node"><title>Node12</title>
<g id="a_node12"><a xlink:href="../../d8/d6a/classmodel_1_1_coordinates.html" target="_top" xlink:title="model.Coordinates">
<polygon fill="white" stroke="black" points="345.5,-349.5 345.5,-368.5 452.5,-368.5 452.5,-349.5 345.5,-349.5"/>
<text text-anchor="middle" x="399" y="-356.5" font-family="Helvetica,sans-Serif" font-size="10.00">model.Coordinates</text>
</a>
</g>
</g>
<!-- Node12&#45;&gt;Node6 -->
<g id="edge12" class="edge"><title>Node12&#45;&gt;Node6</title>
<path fill="none" stroke="#9a32cd" stroke-dasharray="5,2" d="M462.89,-357.806C522.152,-356.681 609.847,-355.016 664.911,-353.97"/>
<polygon fill="#9a32cd" stroke="#9a32cd" points="462.467,-354.313 452.536,-358.002 462.6,-361.312 462.467,-354.313"/>
<text text-anchor="middle" x="555" y="-372" font-family="Helvetica,sans-Serif" font-size="10.00"> myOldCoordinates</text>
<text text-anchor="middle" x="555" y="-361" font-family="Helvetica,sans-Serif" font-size="10.00">myCoordinates</text>
</g>
<!-- Node13 -->
<g id="node13" class="node"><title>Node13</title>
<polygon fill="white" stroke="#bfbfbf" points="66,-331.5 66,-350.5 120,-350.5 120,-331.5 66,-331.5"/>
<text text-anchor="middle" x="93" y="-338.5" font-family="Helvetica,sans-Serif" font-size="10.00">Point2D</text>
</g>
<!-- Node13&#45;&gt;Node12 -->
<g id="edge13" class="edge"><title>Node13&#45;&gt;Node12</title>
<path fill="none" stroke="#9a32cd" stroke-dasharray="5,2" d="M130.302,-339.006C174.012,-337.102 249.588,-335.4 314,-342 328.801,-343.517 344.857,-346.443 358.928,-349.445"/>
<polygon fill="#9a32cd" stroke="#9a32cd" points="129.991,-335.516 120.164,-339.476 130.316,-342.509 129.991,-335.516"/>
<text text-anchor="middle" x="259" y="-345" font-family="Helvetica,sans-Serif" font-size="10.00"> myPoint</text>
</g>
<!-- Node14 -->
<g id="node14" class="node"><title>Node14</title>
<polygon fill="white" stroke="#bfbfbf" points="0.5,-114.5 0.5,-133.5 185.5,-133.5 185.5,-114.5 0.5,-114.5"/>
<text text-anchor="middle" x="93" y="-121.5" font-family="Helvetica,sans-Serif" font-size="10.00">List&lt; view.components.Observer &gt;</text>
</g>
<!-- Node14&#45;&gt;Node6 -->
<g id="edge14" class="edge"><title>Node14&#45;&gt;Node6</title>
<path fill="none" stroke="#9a32cd" stroke-dasharray="5,2" d="M195.882,-129.756C333.492,-139.755 568.238,-165.399 626,-226 643.746,-244.618 630.538,-259.084 644,-281 660.007,-307.059 687.26,-330.778 703.25,-343.42"/>
<polygon fill="#9a32cd" stroke="#9a32cd" points="195.961,-126.253 185.738,-129.035 195.464,-133.235 195.961,-126.253"/>
<text text-anchor="middle" x="399" y="-166" font-family="Helvetica,sans-Serif" font-size="10.00"> myObservers</text>
</g>
<!-- Node14&#45;&gt;Node17 -->
<g id="edge22" class="edge"><title>Node14&#45;&gt;Node17</title>
<path fill="none" stroke="#9a32cd" stroke-dasharray="5,2" d="M140.788,-112.11C160.239,-107.496 183.11,-102.492 204,-99 246.268,-91.9334 294.133,-86.723 331.743,-83.2597"/>
<polygon fill="#9a32cd" stroke="#9a32cd" points="139.86,-108.734 130.957,-114.478 141.499,-115.539 139.86,-108.734"/>
<text text-anchor="middle" x="259" y="-102" font-family="Helvetica,sans-Serif" font-size="10.00"> myObserverList</text>
</g>
<!-- Node14&#45;&gt;Node20 -->
<g id="edge28" class="edge"><title>Node14&#45;&gt;Node20</title>
<path fill="none" stroke="#9a32cd" stroke-dasharray="5,2" d="M158.141,-135.394C202.228,-143.647 261.973,-155.662 314,-169 332.632,-173.777 353.273,-180.15 369.43,-185.391"/>
<polygon fill="#9a32cd" stroke="#9a32cd" points="158.605,-131.921 148.134,-133.535 157.326,-138.803 158.605,-131.921"/>
<text text-anchor="middle" x="259" y="-172" font-family="Helvetica,sans-Serif" font-size="10.00"> myObservers</text>
</g>
<!-- Node15 -->
<g id="node15" class="node"><title>Node15</title>
<polygon fill="white" stroke="#bfbfbf" points="644,-242 644,-272 790,-272 790,-242 644,-242"/>
<text text-anchor="start" x="652" y="-260" font-family="Helvetica,sans-Serif" font-size="10.00">Map&lt; Integer, model.Turtle</text>
<text text-anchor="middle" x="717" y="-249" font-family="Helvetica,sans-Serif" font-size="10.00">Single &gt;</text>
</g>
<!-- Node15&#45;&gt;Node3 -->
<g id="edge15" class="edge"><title>Node15&#45;&gt;Node3</title>
<path fill="none" stroke="#9a32cd" stroke-dasharray="5,2" d="M800.167,-263.622C844.056,-267.158 896.9,-271.417 935.841,-274.555"/>
<polygon fill="#9a32cd" stroke="#9a32cd" points="800.333,-260.124 790.085,-262.809 799.771,-267.101 800.333,-260.124"/>
<text text-anchor="middle" x="863" y="-277" font-family="Helvetica,sans-Serif" font-size="10.00"> myTurtleMap</text>
</g>
<!-- Node16&#45;&gt;Node2 -->
<g id="edge16" class="edge"><title>Node16&#45;&gt;Node2</title>
<path fill="none" stroke="#9a32cd" stroke-dasharray="5,2" d="M626.162,-234.129C632.188,-233.349 638.196,-232.625 644,-232 840.087,-210.885 1076.21,-199.38 1165.96,-195.508"/>
<polygon fill="#9a32cd" stroke="#9a32cd" points="625.484,-230.688 616.038,-235.486 626.414,-237.626 625.484,-230.688"/>
<text text-anchor="middle" x="863" y="-220" font-family="Helvetica,sans-Serif" font-size="10.00"> myVariablesCollection</text>
</g>
<!-- Node17&#45;&gt;Node2 -->
<g id="edge18" class="edge"><title>Node17&#45;&gt;Node2</title>
<path fill="none" stroke="#9a32cd" stroke-dasharray="5,2" d="M476.062,-88.9877C644.119,-113.265 1041.96,-170.736 1165.64,-188.604"/>
<polygon fill="#9a32cd" stroke="#9a32cd" points="476.452,-85.5078 466.054,-87.5421 475.451,-92.4359 476.452,-85.5078"/>
<text text-anchor="middle" x="863" y="-155" font-family="Helvetica,sans-Serif" font-size="10.00"> myCommandHistory</text>
</g>
<!-- Node18 -->
<g id="node18" class="node"><title>Node18</title>
<polygon fill="white" stroke="#bfbfbf" points="21,-0 21,-30 165,-30 165,-0 21,-0"/>
<text text-anchor="start" x="29" y="-18" font-family="Helvetica,sans-Serif" font-size="10.00">List&lt; parser.commands.To</text>
<text text-anchor="middle" x="93" y="-7" font-family="Helvetica,sans-Serif" font-size="10.00">Data &gt;</text>
</g>
<!-- Node18&#45;&gt;Node17 -->
<g id="edge20" class="edge"><title>Node18&#45;&gt;Node17</title>
<path fill="none" stroke="#9a32cd" stroke-dasharray="5,2" d="M175.232,-22.7073C217.096,-27.7104 268.731,-35.4894 314,-47 335.543,-52.4778 359.229,-61.5087 375.942,-68.414"/>
<polygon fill="#9a32cd" stroke="#9a32cd" points="175.422,-19.2059 165.085,-21.5258 174.613,-26.1589 175.422,-19.2059"/>
<text text-anchor="middle" x="259" y="-50" font-family="Helvetica,sans-Serif" font-size="10.00"> myUDCommands</text>
</g>
<!-- Node19 -->
<g id="node19" class="node"><title>Node19</title>
<polygon fill="white" stroke="#bfbfbf" points="13,-49 13,-79 173,-79 173,-49 13,-49"/>
<text text-anchor="start" x="21" y="-67" font-family="Helvetica,sans-Serif" font-size="10.00">List&lt; parser.nodes.Command</text>
<text text-anchor="middle" x="93" y="-56" font-family="Helvetica,sans-Serif" font-size="10.00">Root &gt;</text>
</g>
<!-- Node19&#45;&gt;Node17 -->
<g id="edge21" class="edge"><title>Node19&#45;&gt;Node17</title>
<path fill="none" stroke="#9a32cd" stroke-dasharray="5,2" d="M183.047,-61.3966C223.127,-60.9985 271.001,-61.5941 314,-65 323.856,-65.7807 334.307,-67.0432 344.366,-68.4819"/>
<polygon fill="#9a32cd" stroke="#9a32cd" points="182.989,-57.8969 173.033,-61.5181 183.074,-64.8964 182.989,-57.8969"/>
<text text-anchor="middle" x="259" y="-68" font-family="Helvetica,sans-Serif" font-size="10.00"> myCommandList</text>
</g>
<!-- Node20&#45;&gt;Node2 -->
<g id="edge23" class="edge"><title>Node20&#45;&gt;Node2</title>
<path fill="none" stroke="#9a32cd" stroke-dasharray="5,2" d="M463.415,-194.746C581.826,-194.286 844.611,-193.332 1066,-193 1102.44,-192.945 1111.56,-192.669 1148,-193 1153.73,-193.052 1159.8,-193.135 1165.72,-193.231"/>
<polygon fill="#9a32cd" stroke="#9a32cd" points="463.08,-191.247 453.093,-194.786 463.107,-198.247 463.08,-191.247"/>
<text text-anchor="middle" x="863" y="-197" font-family="Helvetica,sans-Serif" font-size="10.00"> myViewOptions</text>
</g>
<!-- Node21 -->
<g id="node21" class="node"><title>Node21</title>
<g id="a_node21"><a xlink:href="../../d7/d16/interfacemodel_1_1_view_update.html" target="_top" xlink:title="model.ViewUpdate">
<polygon fill="white" stroke="black" points="39.5,-204.5 39.5,-223.5 146.5,-223.5 146.5,-204.5 39.5,-204.5"/>
<text text-anchor="middle" x="93" y="-211.5" font-family="Helvetica,sans-Serif" font-size="10.00">model.ViewUpdate</text>
</a>
</g>
</g>
<!-- Node21&#45;&gt;Node20 -->
<g id="edge24" class="edge"><title>Node21&#45;&gt;Node20</title>
<path fill="none" stroke="midnightblue" d="M156.67,-210.083C212.173,-206.614 292.307,-201.606 344.764,-198.327"/>
<polygon fill="midnightblue" stroke="midnightblue" points="156.368,-206.595 146.606,-210.712 156.805,-213.581 156.368,-206.595"/>
</g>
<!-- Node22 -->
<g id="node22" class="node"><title>Node22</title>
<g id="a_node22"><a xlink:href="../../df/d1e/interfacemodel_1_1_view_initializer.html" target="_top" xlink:title="model.ViewInitializer">
<polygon fill="white" stroke="black" points="36.5,-166.5 36.5,-185.5 149.5,-185.5 149.5,-166.5 36.5,-166.5"/>
<text text-anchor="middle" x="93" y="-173.5" font-family="Helvetica,sans-Serif" font-size="10.00">model.ViewInitializer</text>
</a>
</g>
</g>
<!-- Node22&#45;&gt;Node20 -->
<g id="edge25" class="edge"><title>Node22&#45;&gt;Node20</title>
<path fill="none" stroke="midnightblue" d="M159.825,-180.114C215.219,-183.576 293.417,-188.464 344.887,-191.68"/>
<polygon fill="midnightblue" stroke="midnightblue" points="159.957,-176.616 149.758,-179.485 159.52,-183.602 159.957,-176.616"/>
</g>
</g>
</svg>
        <g id="navigator" transform="translate(0 0)" fill="#404254">
                <rect fill="#f2f5e9" fill-opacity="0.5" stroke="#606060" stroke-width=".5" x="0" y="0" width="60" height="60"/>
                <use id="zoomplus" xlink:href="#zoomPlus" x="17" y="9" onmousedown="handleZoom(evt,'in')"/>
                <use id="zoomminus" xlink:href="#zoomMin" x="42" y="9" onmousedown="handleZoom(evt,'out')"/>
                <use id="reset" xlink:href="#resetDef" x="30" y="36" onmousedown="handleReset()"/>
                <g id="arrowUp" xlink:href="#dirArrow" transform="translate(30 24)" onmousedown="handlePan(0,-1)">
                  <use xlink:href="#rim" fill="#404040">
                        <set attributeName="fill" to="#808080" begin="arrowUp.mouseover" end="arrowUp.mouseout"/>
                  </use>
                  <path fill="none" stroke="white" stroke-width="1.5" d="M0,-3.0v7 M-2.5,-0.5L0,-3.0L2.5,-0.5"/>
                </g>
                <g id="arrowRight" xlink:href="#dirArrow" transform="rotate(90) translate(36 -43)" onmousedown="handlePan(1,0)">
                  <use xlink:href="#rim" fill="#404040">
                        <set attributeName="fill" to="#808080" begin="arrowRight.mouseover" end="arrowRight.mouseout"/>
                  </use>
                  <path fill="none" stroke="white" stroke-width="1.5" d="M0,-3.0v7 M-2.5,-0.5L0,-3.0L2.5,-0.5"/>
                </g>
                <g id="arrowDown" xlink:href="#dirArrow" transform="rotate(180) translate(-30 -48)" onmousedown="handlePan(0,1)">
                  <use xlink:href="#rim" fill="#404040">
                        <set attributeName="fill" to="#808080" begin="arrowDown.mouseover" end="arrowDown.mouseout"/>
                  </use>
                  <path fill="none" stroke="white" stroke-width="1.5" d="M0,-3.0v7 M-2.5,-0.5L0,-3.0L2.5,-0.5"/>
                </g>
                <g id="arrowLeft" xlink:href="#dirArrow" transform="rotate(270) translate(-36 17)" onmousedown="handlePan(-1,0)">
                  <use xlink:href="#rim" fill="#404040">
                        <set attributeName="fill" to="#808080" begin="arrowLeft.mouseover" end="arrowLeft.mouseout"/>
                  </use>
                  <path fill="none" stroke="white" stroke-width="1.5" d="M0,-3.0v7 M-2.5,-0.5L0,-3.0L2.5,-0.5"/>
                </g>
        </g>
        <svg viewBox="0 0 15 15" width="100%" height="30px" preserveAspectRatio="xMaxYMin meet">
         <g id="arrow_out" transform="scale(0.3 0.3)">
          <a xlink:href="classparser_1_1parser_1_1_parser__coll__graph_org.svg" target="_base">
           <rect id="button" ry="5" rx="5" y="6" x="6" height="38" width="38"
                fill="#f2f5e9" fill-opacity="0.5" stroke="#606060" stroke-width="1.0"/>
           <path id="arrow"
             d="M 11.500037,31.436501 C 11.940474,20.09759 22.043105,11.32322 32.158766,21.979434 L 37.068811,17.246167 C 37.068811,17.246167 37.088388,32 37.088388,32 L 22.160133,31.978069 C 22.160133,31.978069 26.997745,27.140456 26.997745,27.140456 C 18.528582,18.264221 13.291696,25.230495 11.500037,31.436501 z"
             style="fill:#404040;"/>
          </a>
         </g>
        </svg>
</svg>
