<?xml version="1.0" encoding="UTF-8" standalone="no"?>
<!DOCTYPE svg PUBLIC "-//W3C//DTD SVG 1.1//EN"
 "http://www.w3.org/Graphics/SVG/1.1/DTD/svg11.dtd">
<!-- Generated by graphviz version 2.36.0 (20140111.2315)
 -->
<!-- Title: parser.parser.ToFactory.getInstance Pages: 1 -->
<svg width="1000pt" height="185pt"
 viewBox="0.00 0.00 1000.00 185.00" xmlns="http://www.w3.org/2000/svg" xmlns:xlink="http://www.w3.org/1999/xlink">
<g id="graph0" class="graph" transform="scale(1 1) rotate(0) translate(4 181)">
<title>parser.parser.ToFactory.getInstance</title>
<polygon fill="white" stroke="none" points="-4,4 -4,-181 996,-181 996,4 -4,4"/>
<!-- Node1 -->
<g id="node1" class="node"><title>Node1</title>
<polygon fill="#bfbfbf" stroke="black" points="0,-76 0,-106 144,-106 144,-76 0,-76"/>
<text text-anchor="start" x="8" y="-94" font-family="Helvetica,sans-Serif" font-size="10.00">parser.parser.ToFactory.get</text>
<text text-anchor="middle" x="72" y="-83" font-family="Helvetica,sans-Serif" font-size="10.00">Instance</text>
</g>
<!-- Node2 -->
<g id="node2" class="node"><title>Node2</title>
<g id="a_node2"><a xlink:href="../../d4/d3a/classparser_1_1parser_1_1_parser.html#a51f4baa200eb0c94b804119b1439a1aa" target="_top" xlink:title="parser.parser.Parser.parse">
<polygon fill="white" stroke="black" points="180,-81.5 180,-100.5 322,-100.5 322,-81.5 180,-81.5"/>
<text text-anchor="middle" x="251" y="-88.5" font-family="Helvetica,sans-Serif" font-size="10.00">parser.parser.Parser.parse</text>
</a>
</g>
</g>
<!-- Node1&#45;&gt;Node2 -->
<g id="edge1" class="edge"><title>Node1&#45;&gt;Node2</title>
<path fill="none" stroke="midnightblue" d="M154.475,-91C162.928,-91 171.468,-91 179.782,-91"/>
<polygon fill="midnightblue" stroke="midnightblue" points="154.228,-87.5001 144.228,-91 154.228,-94.5001 154.228,-87.5001"/>
</g>
<!-- Node3 -->
<g id="node3" class="node"><title>Node3</title>
<g id="a_node3"><a xlink:href="../../d3/d42/classmodel_1_1_model.html#a8a07e7f2040e8a2ab50ec2955504f6c4" target="_top" xlink:title="model.Model.parse">
<polygon fill="white" stroke="black" points="393,-103.5 393,-122.5 501,-122.5 501,-103.5 393,-103.5"/>
<text text-anchor="middle" x="447" y="-110.5" font-family="Helvetica,sans-Serif" font-size="10.00">model.Model.parse</text>
</a>
</g>
</g>
<!-- Node2&#45;&gt;Node3 -->
<g id="edge2" class="edge"><title>Node2&#45;&gt;Node3</title>
<path fill="none" stroke="midnightblue" d="M332,-100.072C352.498,-102.397 374.041,-104.84 392.812,-106.968"/>
<polygon fill="midnightblue" stroke="midnightblue" points="332.369,-96.5917 322.038,-98.9425 331.58,-103.547 332.369,-96.5917"/>
</g>
<!-- Node11 -->
<g id="node11" class="node"><title>Node11</title>
<g id="a_node11"><a xlink:href="../../d5/dc1/classparser_1_1commands_1_1_parser_test.html#a6a3cc2c0d6ca8b502de3cad94a6ad0a5" target="_top" xlink:title="parser.commands.ParserTest.test\lParse">
<polygon fill="white" stroke="black" points="358.5,-54 358.5,-84 535.5,-84 535.5,-54 358.5,-54"/>
<text text-anchor="start" x="366.5" y="-72" font-family="Helvetica,sans-Serif" font-size="10.00">parser.commands.ParserTest.test</text>
<text text-anchor="middle" x="447" y="-61" font-family="Helvetica,sans-Serif" font-size="10.00">Parse</text>
</a>
</g>
</g>
<!-- Node2&#45;&gt;Node11 -->
<g id="edge10" class="edge"><title>Node2&#45;&gt;Node11</title>
<path fill="none" stroke="midnightblue" d="M332.141,-81.9119C340.834,-80.9261 349.714,-79.9191 358.489,-78.924"/>
<polygon fill="midnightblue" stroke="midnightblue" points="331.58,-78.4529 322.038,-83.0575 332.369,-85.4083 331.58,-78.4529"/>
</g>
<!-- Node4 -->
<g id="node4" class="node"><title>Node4</title>
<g id="a_node4"><a xlink:href="../../d3/dbe/classview_1_1_view.html#ab8b25d25b79752feed7b786ed496f642" target="_top" xlink:title="view.View.loadLibrary">
<polygon fill="white" stroke="black" points="610,-147.5 610,-166.5 726,-166.5 726,-147.5 610,-147.5"/>
<text text-anchor="middle" x="668" y="-154.5" font-family="Helvetica,sans-Serif" font-size="10.00">view.View.loadLibrary</text>
</a>
</g>
</g>
<!-- Node3&#45;&gt;Node4 -->
<g id="edge3" class="edge"><title>Node3&#45;&gt;Node4</title>
<path fill="none" stroke="midnightblue" d="M505.736,-124.6C541.235,-131.732 586.161,-140.758 619.573,-147.471"/>
<polygon fill="midnightblue" stroke="midnightblue" points="506.013,-121.086 495.52,-122.547 504.634,-127.949 506.013,-121.086"/>
</g>
<!-- Node5 -->
<g id="node5" class="node"><title>Node5</title>
<g id="a_node5"><a xlink:href="../../da/df5/classview_1_1listwindows_1_1_commands_list_window.html#a3611428a65d6e7a436971f1b237e644e" target="_top" xlink:title="view.listwindows.Commands\lListWindow.parseCommand">
<polygon fill="white" stroke="black" points="593,-98 593,-128 743,-128 743,-98 593,-98"/>
<text text-anchor="start" x="601" y="-116" font-family="Helvetica,sans-Serif" font-size="10.00">view.listwindows.Commands</text>
<text text-anchor="middle" x="668" y="-105" font-family="Helvetica,sans-Serif" font-size="10.00">ListWindow.parseCommand</text>
</a>
</g>
</g>
<!-- Node3&#45;&gt;Node5 -->
<g id="edge4" class="edge"><title>Node3&#45;&gt;Node5</title>
<path fill="none" stroke="midnightblue" d="M511.31,-113C536.831,-113 566.451,-113 592.962,-113"/>
<polygon fill="midnightblue" stroke="midnightblue" points="511.014,-109.5 501.014,-113 511.014,-116.5 511.014,-109.5"/>
</g>
<!-- Node8 -->
<g id="node8" class="node"><title>Node8</title>
<g id="a_node8"><a xlink:href="../../db/d98/classview_1_1components_1_1_command_port.html#a687e2098038140e833e1bac1a759b587" target="_top" xlink:title="view.components.CommandPort.run\lCommand">
<polygon fill="white" stroke="black" points="572.5,-49 572.5,-79 763.5,-79 763.5,-49 572.5,-49"/>
<text text-anchor="start" x="580.5" y="-67" font-family="Helvetica,sans-Serif" font-size="10.00">view.components.CommandPort.run</text>
<text text-anchor="middle" x="668" y="-56" font-family="Helvetica,sans-Serif" font-size="10.00">Command</text>
</a>
</g>
</g>
<!-- Node3&#45;&gt;Node8 -->
<g id="edge7" class="edge"><title>Node3&#45;&gt;Node8</title>
<path fill="none" stroke="midnightblue" d="M500.262,-101.307C530.037,-94.6446 567.667,-86.2251 599.641,-79.0713"/>
<polygon fill="midnightblue" stroke="midnightblue" points="499.48,-97.8951 490.485,-103.494 501.008,-104.726 499.48,-97.8951"/>
</g>
<!-- Node6 -->
<g id="node6" class="node"><title>Node6</title>
<g id="a_node6"><a xlink:href="../../df/d26/classview_1_1listwindows_1_1_commands_history_window.html#af341417d427f8b0548670f1efbb3acac" target="_top" xlink:title="view.listwindows.Commands\lHistoryWindow.setButtonAction">
<polygon fill="white" stroke="black" points="813.5,-147 813.5,-177 978.5,-177 978.5,-147 813.5,-147"/>
<text text-anchor="start" x="821.5" y="-165" font-family="Helvetica,sans-Serif" font-size="10.00">view.listwindows.Commands</text>
<text text-anchor="middle" x="896" y="-154" font-family="Helvetica,sans-Serif" font-size="10.00">HistoryWindow.setButtonAction</text>
</a>
</g>
</g>
<!-- Node5&#45;&gt;Node6 -->
<g id="edge5" class="edge"><title>Node5&#45;&gt;Node6</title>
<path fill="none" stroke="midnightblue" d="M748.263,-130.185C773.535,-135.665 801.286,-141.682 825.788,-146.994"/>
<polygon fill="midnightblue" stroke="midnightblue" points="748.858,-126.733 738.343,-128.035 747.375,-133.574 748.858,-126.733"/>
</g>
<!-- Node7 -->
<g id="node7" class="node"><title>Node7</title>
<g id="a_node7"><a xlink:href="../../d7/dc7/classview_1_1listwindows_1_1_user_defined_commands_window.html#adaf32233789f6a07c42b4e459699bf53" target="_top" xlink:title="view.listwindows.UserDefined\lCommandsWindow.setButtonAction">
<polygon fill="white" stroke="black" points="802.5,-98 802.5,-128 989.5,-128 989.5,-98 802.5,-98"/>
<text text-anchor="start" x="810.5" y="-116" font-family="Helvetica,sans-Serif" font-size="10.00">view.listwindows.UserDefined</text>
<text text-anchor="middle" x="896" y="-105" font-family="Helvetica,sans-Serif" font-size="10.00">CommandsWindow.setButtonAction</text>
</a>
</g>
</g>
<!-- Node5&#45;&gt;Node7 -->
<g id="edge6" class="edge"><title>Node5&#45;&gt;Node7</title>
<path fill="none" stroke="midnightblue" d="M753.348,-113C769.295,-113 786.058,-113 802.247,-113"/>
<polygon fill="midnightblue" stroke="midnightblue" points="753.001,-109.5 743.001,-113 753.001,-116.5 753.001,-109.5"/>
</g>
<!-- Node9 -->
<g id="node9" class="node"><title>Node9</title>
<g id="a_node9"><a xlink:href="../../db/d98/classview_1_1components_1_1_command_port.html#a37ae451233579691839c4a52072c94e9" target="_top" xlink:title="view.components.CommandPort.\lCommandPort">
<polygon fill="white" stroke="black" points="808.5,-49 808.5,-79 983.5,-79 983.5,-49 808.5,-49"/>
<text text-anchor="start" x="816.5" y="-67" font-family="Helvetica,sans-Serif" font-size="10.00">view.components.CommandPort.</text>
<text text-anchor="middle" x="896" y="-56" font-family="Helvetica,sans-Serif" font-size="10.00">CommandPort</text>
</a>
</g>
</g>
<!-- Node8&#45;&gt;Node9 -->
<g id="edge8" class="edge"><title>Node8&#45;&gt;Node9</title>
<path fill="none" stroke="midnightblue" d="M773.702,-64C785.321,-64 797.056,-64 808.415,-64"/>
<polygon fill="midnightblue" stroke="midnightblue" points="773.535,-60.5001 763.535,-64 773.535,-67.5001 773.535,-60.5001"/>
</g>
<!-- Node10 -->
<g id="node10" class="node"><title>Node10</title>
<g id="a_node10"><a xlink:href="../../db/d98/classview_1_1components_1_1_command_port.html#afcdcfbfa864e7438dc0f0a3f1c541294" target="_top" xlink:title="view.components.CommandPort.run\lCommand">
<polygon fill="white" stroke="black" points="800.5,-0 800.5,-30 991.5,-30 991.5,-0 800.5,-0"/>
<text text-anchor="start" x="808.5" y="-18" font-family="Helvetica,sans-Serif" font-size="10.00">view.components.CommandPort.run</text>
<text text-anchor="middle" x="896" y="-7" font-family="Helvetica,sans-Serif" font-size="10.00">Command</text>
</a>
</g>
</g>
<!-- Node8&#45;&gt;Node10 -->
<g id="edge9" class="edge"><title>Node8&#45;&gt;Node10</title>
<path fill="none" stroke="midnightblue" d="M748.263,-46.8146C773.535,-41.3353 801.286,-35.3185 825.788,-30.0062"/>
<polygon fill="midnightblue" stroke="midnightblue" points="747.375,-43.4259 738.343,-48.9654 748.858,-50.2669 747.375,-43.4259"/>
</g>
</g>
</svg>
