<?xml version="1.0" encoding="UTF-8" standalone="no"?>
<!DOCTYPE svg PUBLIC "-//W3C//DTD SVG 1.1//EN"
 "http://www.w3.org/Graphics/SVG/1.1/DTD/svg11.dtd">
<!-- Generated by graphviz version 2.36.0 (20140111.2315)
 -->
<!-- Title: parser.parser.ToFactory.createTo Pages: 1 -->
<svg width="976pt" height="109pt"
 viewBox="0.00 0.00 976.00 109.00" xmlns="http://www.w3.org/2000/svg" xmlns:xlink="http://www.w3.org/1999/xlink">
<g id="graph0" class="graph" transform="scale(1 1) rotate(0) translate(4 105)">
<title>parser.parser.ToFactory.createTo</title>
<polygon fill="white" stroke="none" points="-4,4 -4,-105 972,-105 972,4 -4,4"/>
<!-- Node1 -->
<g id="node1" class="node"><title>Node1</title>
<polygon fill="#bfbfbf" stroke="black" points="0.5,-57.5 0.5,-76.5 169.5,-76.5 169.5,-57.5 0.5,-57.5"/>
<text text-anchor="middle" x="85" y="-64.5" font-family="Helvetica,sans-Serif" font-size="10.00">parser.parser.ToFactory.createTo</text>
</g>
<!-- Node2 -->
<g id="node2" class="node"><title>Node2</title>
<g id="a_node2"><a xlink:href="../../dc/d09/classparser_1_1parser_1_1_to_factory.html#aa6f21d062bb4f3ba4d708d0a5b450a4b" target="_top" xlink:title="parser.parser.ToFactory.isolate\lToDeclaration">
<polygon fill="white" stroke="black" points="206,-52 206,-82 366,-82 366,-52 206,-52"/>
<text text-anchor="start" x="214" y="-70" font-family="Helvetica,sans-Serif" font-size="10.00">parser.parser.ToFactory.isolate</text>
<text text-anchor="middle" x="286" y="-59" font-family="Helvetica,sans-Serif" font-size="10.00">ToDeclaration</text>
</a>
</g>
</g>
<!-- Node1&#45;&gt;Node2 -->
<g id="edge1" class="edge"><title>Node1&#45;&gt;Node2</title>
<path fill="none" stroke="midnightblue" d="M169.529,-67C178.168,-67 186.971,-67 195.67,-67"/>
<polygon fill="midnightblue" stroke="midnightblue" points="195.818,-70.5001 205.818,-67 195.818,-63.5001 195.818,-70.5001"/>
</g>
<!-- Node3 -->
<g id="node3" class="node"><title>Node3</title>
<g id="a_node3"><a xlink:href="../../de/d16/classparser_1_1parser_1_1_regex.html#a9da6d787de06ba7ea76d52326b532bd1" target="_top" xlink:title="parser.parser.Regex.getInstance">
<polygon fill="white" stroke="black" points="402,-76.5 402,-95.5 572,-95.5 572,-76.5 402,-76.5"/>
<text text-anchor="middle" x="487" y="-83.5" font-family="Helvetica,sans-Serif" font-size="10.00">parser.parser.Regex.getInstance</text>
</a>
</g>
</g>
<!-- Node2&#45;&gt;Node3 -->
<g id="edge2" class="edge"><title>Node2&#45;&gt;Node3</title>
<path fill="none" stroke="midnightblue" d="M366.222,-74.5639C374.635,-75.3672 383.251,-76.1898 391.814,-77.0074"/>
<polygon fill="midnightblue" stroke="midnightblue" points="391.54,-80.497 401.827,-77.9634 392.205,-73.5287 391.54,-80.497"/>
</g>
<!-- Node6 -->
<g id="node6" class="node"><title>Node6</title>
<g id="a_node6"><a xlink:href="../../de/d16/classparser_1_1parser_1_1_regex.html#a5d526d752521b953619721c6d3e930bd" target="_top" xlink:title="parser.parser.Regex.getType">
<polygon fill="white" stroke="black" points="411.5,-38.5 411.5,-57.5 562.5,-57.5 562.5,-38.5 411.5,-38.5"/>
<text text-anchor="middle" x="487" y="-45.5" font-family="Helvetica,sans-Serif" font-size="10.00">parser.parser.Regex.getType</text>
</a>
</g>
</g>
<!-- Node2&#45;&gt;Node6 -->
<g id="edge5" class="edge"><title>Node2&#45;&gt;Node6</title>
<path fill="none" stroke="midnightblue" d="M366.222,-59.4361C377.707,-58.3396 389.568,-57.2071 401.158,-56.1005"/>
<polygon fill="midnightblue" stroke="midnightblue" points="401.635,-59.5709 411.257,-55.1362 400.97,-52.6026 401.635,-59.5709"/>
</g>
<!-- Node4 -->
<g id="node4" class="node"><title>Node4</title>
<g id="a_node4"><a xlink:href="../../de/d16/classparser_1_1parser_1_1_regex.html#a1fd187b9f2b45d0707cb10057e80d7ff" target="_top" xlink:title="parser.parser.Regex.Regex">
<polygon fill="white" stroke="black" points="627.5,-76.5 627.5,-95.5 770.5,-95.5 770.5,-76.5 627.5,-76.5"/>
<text text-anchor="middle" x="699" y="-83.5" font-family="Helvetica,sans-Serif" font-size="10.00">parser.parser.Regex.Regex</text>
</a>
</g>
</g>
<!-- Node3&#45;&gt;Node4 -->
<g id="edge3" class="edge"><title>Node3&#45;&gt;Node4</title>
<path fill="none" stroke="midnightblue" d="M572.205,-86C587.039,-86 602.45,-86 617.189,-86"/>
<polygon fill="midnightblue" stroke="midnightblue" points="617.27,-89.5001 627.269,-86 617.269,-82.5001 617.27,-89.5001"/>
</g>
<!-- Node5 -->
<g id="node5" class="node"><title>Node5</title>
<g id="a_node5"><a xlink:href="../../de/d16/classparser_1_1parser_1_1_regex.html#a413da3364c9c07a315222d34d7f0fc56" target="_top" xlink:title="parser.parser.Regex.make\lPatterns">
<polygon fill="white" stroke="black" points="826.5,-71 826.5,-101 967.5,-101 967.5,-71 826.5,-71"/>
<text text-anchor="start" x="834.5" y="-89" font-family="Helvetica,sans-Serif" font-size="10.00">parser.parser.Regex.make</text>
<text text-anchor="middle" x="897" y="-78" font-family="Helvetica,sans-Serif" font-size="10.00">Patterns</text>
</a>
</g>
</g>
<!-- Node4&#45;&gt;Node5 -->
<g id="edge4" class="edge"><title>Node4&#45;&gt;Node5</title>
<path fill="none" stroke="midnightblue" d="M770.76,-86C785.461,-86 801.049,-86 816.053,-86"/>
<polygon fill="midnightblue" stroke="midnightblue" points="816.329,-89.5001 826.329,-86 816.329,-82.5001 816.329,-89.5001"/>
</g>
<!-- Node7 -->
<g id="node7" class="node"><title>Node7</title>
<g id="a_node7"><a xlink:href="../../d7/dda/enumparser_1_1parser_1_1_general_type.html#af35aa06f434667ca22f66abcc181eb30" target="_top" xlink:title="parser.parser.GeneralType.findType">
<polygon fill="white" stroke="black" points="608,-38.5 608,-57.5 790,-57.5 790,-38.5 608,-38.5"/>
<text text-anchor="middle" x="699" y="-45.5" font-family="Helvetica,sans-Serif" font-size="10.00">parser.parser.GeneralType.findType</text>
</a>
</g>
</g>
<!-- Node6&#45;&gt;Node7 -->
<g id="edge6" class="edge"><title>Node6&#45;&gt;Node7</title>
<path fill="none" stroke="midnightblue" d="M562.629,-48C573.936,-48 585.756,-48 597.502,-48"/>
<polygon fill="midnightblue" stroke="midnightblue" points="597.789,-51.5001 607.789,-48 597.789,-44.5001 597.789,-51.5001"/>
</g>
<!-- Node8 -->
<g id="node8" class="node"><title>Node8</title>
<g id="a_node8"><a xlink:href="../../de/d16/classparser_1_1parser_1_1_regex.html#a162d120a60bdb10238c3d31c4f5f6903" target="_top" xlink:title="parser.parser.Regex.match">
<polygon fill="white" stroke="black" points="626.5,-0.5 626.5,-19.5 771.5,-19.5 771.5,-0.5 626.5,-0.5"/>
<text text-anchor="middle" x="699" y="-7.5" font-family="Helvetica,sans-Serif" font-size="10.00">parser.parser.Regex.match</text>
</a>
</g>
</g>
<!-- Node6&#45;&gt;Node8 -->
<g id="edge7" class="edge"><title>Node6&#45;&gt;Node8</title>
<path fill="none" stroke="midnightblue" d="M540.721,-38.46C569.429,-33.2652 605.137,-26.8037 635.27,-21.3511"/>
<polygon fill="midnightblue" stroke="midnightblue" points="636.041,-24.7686 645.258,-19.5439 634.794,-17.8805 636.041,-24.7686"/>
</g>
</g>
</svg>
