<?xml version="1.0" encoding="UTF-8" standalone="no"?>
<!DOCTYPE svg PUBLIC "-//W3C//DTD SVG 1.1//EN"
 "http://www.w3.org/Graphics/SVG/1.1/DTD/svg11.dtd">
<!-- Generated by graphviz version 2.36.0 (20140111.2315)
 -->
<!-- Title: model.TurtleSingleChanger.change Pages: 1 -->
<svg width="760pt" height="38pt"
 viewBox="0.00 0.00 760.00 38.00" xmlns="http://www.w3.org/2000/svg" xmlns:xlink="http://www.w3.org/1999/xlink">
<g id="graph0" class="graph" transform="scale(1 1) rotate(0) translate(4 34)">
<title>model.TurtleSingleChanger.change</title>
<polygon fill="white" stroke="none" points="-4,4 -4,-34 756,-34 756,4 -4,4"/>
<!-- Node1 -->
<g id="node1" class="node"><title>Node1</title>
<polygon fill="#bfbfbf" stroke="black" points="0,-5.5 0,-24.5 182,-24.5 182,-5.5 0,-5.5"/>
<text text-anchor="middle" x="91" y="-12.5" font-family="Helvetica,sans-Serif" font-size="10.00">model.TurtleSingleChanger.change</text>
</g>
<!-- Node2 -->
<g id="node2" class="node"><title>Node2</title>
<g id="a_node2"><a xlink:href="../../da/d88/classmodel_1_1_turtle_single.html#a77c4ca1d42e2a0ea36b7a8e33406f9d9" target="_top" xlink:title="model.TurtleSingle.change">
<polygon fill="white" stroke="black" points="218.5,-5.5 218.5,-24.5 361.5,-24.5 361.5,-5.5 218.5,-5.5"/>
<text text-anchor="middle" x="290" y="-12.5" font-family="Helvetica,sans-Serif" font-size="10.00">model.TurtleSingle.change</text>
</a>
</g>
</g>
<!-- Node1&#45;&gt;Node2 -->
<g id="edge1" class="edge"><title>Node1&#45;&gt;Node2</title>
<path fill="none" stroke="midnightblue" d="M192.422,-15C201.187,-15 209.932,-15 218.378,-15"/>
<polygon fill="midnightblue" stroke="midnightblue" points="192.14,-11.5001 182.14,-15 192.14,-18.5001 192.14,-11.5001"/>
</g>
<!-- Node3 -->
<g id="node3" class="node"><title>Node3</title>
<g id="a_node3"><a xlink:href="../../da/d88/classmodel_1_1_turtle_single.html#a9565e73b577c886fd15470d9b108a573" target="_top" xlink:title="model.TurtleSingle.moveDistance">
<polygon fill="white" stroke="black" points="398,-5.5 398,-24.5 574,-24.5 574,-5.5 398,-5.5"/>
<text text-anchor="middle" x="486" y="-12.5" font-family="Helvetica,sans-Serif" font-size="10.00">model.TurtleSingle.moveDistance</text>
</a>
</g>
</g>
<!-- Node2&#45;&gt;Node3 -->
<g id="edge2" class="edge"><title>Node2&#45;&gt;Node3</title>
<path fill="none" stroke="midnightblue" d="M371.668,-15C380.34,-15 389.191,-15 397.934,-15"/>
<polygon fill="midnightblue" stroke="midnightblue" points="371.587,-11.5001 361.587,-15 371.587,-18.5001 371.587,-11.5001"/>
</g>
<!-- Node4 -->
<g id="node4" class="node"><title>Node4</title>
<g id="a_node4"><a xlink:href="../../d9/dea/classmodel_1_1_turtle_multiple.html#a49086cf96575756ecc4a1070aef50aa7" target="_top" xlink:title="model.TurtleMultiple.move\lDistance">
<polygon fill="white" stroke="black" points="610,-0 610,-30 752,-30 752,-0 610,-0"/>
<text text-anchor="start" x="618" y="-18" font-family="Helvetica,sans-Serif" font-size="10.00">model.TurtleMultiple.move</text>
<text text-anchor="middle" x="681" y="-7" font-family="Helvetica,sans-Serif" font-size="10.00">Distance</text>
</a>
</g>
</g>
<!-- Node3&#45;&gt;Node4 -->
<g id="edge3" class="edge"><title>Node3&#45;&gt;Node4</title>
<path fill="none" stroke="midnightblue" d="M584.327,-15C592.979,-15 601.621,-15 609.977,-15"/>
<polygon fill="midnightblue" stroke="midnightblue" points="584.183,-11.5001 574.183,-15 584.183,-18.5001 584.183,-11.5001"/>
</g>
</g>
</svg>
