<?xml version="1.0" encoding="UTF-8" standalone="no"?>
<!DOCTYPE svg PUBLIC "-//W3C//DTD SVG 1.1//EN"
 "http://www.w3.org/Graphics/SVG/1.1/DTD/svg11.dtd">
<!-- Generated by graphviz version 2.36.0 (20140111.2315)
 -->
<!-- Title: model.Pen Pages: 1 -->
<svg width="328pt" height="96pt"
 viewBox="0.00 0.00 328.00 96.00" xmlns="http://www.w3.org/2000/svg" xmlns:xlink="http://www.w3.org/1999/xlink">
<g id="graph0" class="graph" transform="scale(1 1) rotate(0) translate(4 92)">
<title>model.Pen</title>
<polygon fill="white" stroke="none" points="-4,4 -4,-92 324,-92 324,4 -4,4"/>
<!-- Node1 -->
<g id="node1" class="node"><title>Node1</title>
<polygon fill="#bfbfbf" stroke="black" points="132,-0.5 132,-19.5 200,-19.5 200,-0.5 132,-0.5"/>
<text text-anchor="middle" x="166" y="-7.5" font-family="Helvetica,sans-Serif" font-size="10.00">model.Pen</text>
</g>
<!-- Node2 -->
<g id="node2" class="node"><title>Node2</title>
<g id="a_node2"><a xlink:href="../../da/d87/interfacemodel_1_1_pen_update.html" target="_top" xlink:title="model.PenUpdate">
<polygon fill="white" stroke="black" points="-0.5,-68.5 -0.5,-87.5 102.5,-87.5 102.5,-68.5 -0.5,-68.5"/>
<text text-anchor="middle" x="51" y="-75.5" font-family="Helvetica,sans-Serif" font-size="10.00">model.PenUpdate</text>
</a>
</g>
</g>
<!-- Node2&#45;&gt;Node1 -->
<g id="edge1" class="edge"><title>Node2&#45;&gt;Node1</title>
<path fill="none" stroke="midnightblue" d="M74.8014,-63.3401C97.6906,-50.2036 131.589,-30.7487 150.962,-19.6305"/>
<polygon fill="midnightblue" stroke="midnightblue" points="72.9652,-60.3584 66.0342,-68.3717 76.4496,-66.4296 72.9652,-60.3584"/>
</g>
<!-- Node3 -->
<g id="node3" class="node"><title>Node3</title>
<polygon fill="white" stroke="#bfbfbf" points="120.5,-68.5 120.5,-87.5 211.5,-87.5 211.5,-68.5 120.5,-68.5"/>
<text text-anchor="middle" x="166" y="-75.5" font-family="Helvetica,sans-Serif" font-size="10.00">DoubleProperty</text>
</g>
<!-- Node3&#45;&gt;Node1 -->
<g id="edge2" class="edge"><title>Node3&#45;&gt;Node1</title>
<path fill="none" stroke="#9a32cd" stroke-dasharray="5,2" d="M166,-58.0413C166,-45.4724 166,-29.5631 166,-19.8411"/>
<polygon fill="#9a32cd" stroke="#9a32cd" points="162.5,-58.3716 166,-68.3717 169.5,-58.3717 162.5,-58.3716"/>
<text text-anchor="middle" x="187" y="-41.5" font-family="Helvetica,sans-Serif" font-size="10.00"> penSize</text>
</g>
<!-- Node4 -->
<g id="node4" class="node"><title>Node4</title>
<polygon fill="white" stroke="#bfbfbf" points="229.5,-68.5 229.5,-87.5 320.5,-87.5 320.5,-68.5 229.5,-68.5"/>
<text text-anchor="middle" x="275" y="-75.5" font-family="Helvetica,sans-Serif" font-size="10.00">IntegerProperty</text>
</g>
<!-- Node4&#45;&gt;Node1 -->
<g id="edge3" class="edge"><title>Node4&#45;&gt;Node1</title>
<path fill="none" stroke="#9a32cd" stroke-dasharray="5,2" d="M252.545,-62.9216C240.554,-55.4489 225.519,-46.1506 212,-38 201.69,-31.7845 189.989,-24.919 180.969,-19.6665"/>
<polygon fill="#9a32cd" stroke="#9a32cd" points="250.71,-65.902 261.045,-68.2309 254.418,-59.9649 250.71,-65.902"/>
<text text-anchor="middle" x="259" y="-41.5" font-family="Helvetica,sans-Serif" font-size="10.00"> penColorID</text>
</g>
</g>
</svg>
