<?xml version="1.0" encoding="UTF-8" standalone="no"?>
<!DOCTYPE svg PUBLIC "-//W3C//DTD SVG 1.1//EN"
 "http://www.w3.org/Graphics/SVG/1.1/DTD/svg11.dtd">
<!-- Generated by graphviz version 2.36.0 (20140111.2315)
 -->
<!-- Title: view.dialogs.HelpDialogBox.HelpDialogBox Pages: 1 -->
<svg width="362pt" height="38pt"
 viewBox="0.00 0.00 362.00 38.00" xmlns="http://www.w3.org/2000/svg" xmlns:xlink="http://www.w3.org/1999/xlink">
<g id="graph0" class="graph" transform="scale(1 1) rotate(0) translate(4 34)">
<title>view.dialogs.HelpDialogBox.HelpDialogBox</title>
<polygon fill="white" stroke="none" points="-4,4 -4,-34 358,-34 358,4 -4,4"/>
<!-- Node1 -->
<g id="node1" class="node"><title>Node1</title>
<polygon fill="#bfbfbf" stroke="black" points="0.5,-0 0.5,-30 149.5,-30 149.5,-0 0.5,-0"/>
<text text-anchor="start" x="8.5" y="-18" font-family="Helvetica,sans-Serif" font-size="10.00">view.dialogs.HelpDialogBox.</text>
<text text-anchor="middle" x="75" y="-7" font-family="Helvetica,sans-Serif" font-size="10.00">HelpDialogBox</text>
</g>
<!-- Node2 -->
<g id="node2" class="node"><title>Node2</title>
<g id="a_node2"><a xlink:href="../../dc/d6d/classview_1_1dialogs_1_1_help_dialog_box.html#a901f9c37d44cb119c2f54d73d8e9975e" target="_top" xlink:title="view.dialogs.HelpDialogBox.add\lWebView">
<polygon fill="white" stroke="black" points="186.5,-0 186.5,-30 353.5,-30 353.5,-0 186.5,-0"/>
<text text-anchor="start" x="194.5" y="-18" font-family="Helvetica,sans-Serif" font-size="10.00">view.dialogs.HelpDialogBox.add</text>
<text text-anchor="middle" x="270" y="-7" font-family="Helvetica,sans-Serif" font-size="10.00">WebView</text>
</a>
</g>
</g>
<!-- Node1&#45;&gt;Node2 -->
<g id="edge1" class="edge"><title>Node1&#45;&gt;Node2</title>
<path fill="none" stroke="midnightblue" d="M149.516,-15C158.262,-15 167.275,-15 176.245,-15"/>
<polygon fill="midnightblue" stroke="midnightblue" points="176.338,-18.5001 186.338,-15 176.338,-11.5001 176.338,-18.5001"/>
</g>
</g>
</svg>
