<?xml version="1.0" encoding="UTF-8" standalone="no"?>
<!DOCTYPE svg PUBLIC "-//W3C//DTD SVG 1.1//EN"
 "http://www.w3.org/Graphics/SVG/1.1/DTD/svg11.dtd">
<!-- Generated by graphviz version 2.36.0 (20140111.2315)
 -->
<!-- Title: parser.commands.ToInstance Pages: 1 -->
<svg width="316pt" height="186pt"
 viewBox="0.00 0.00 316.00 186.00" xmlns="http://www.w3.org/2000/svg" xmlns:xlink="http://www.w3.org/1999/xlink">
<g id="graph0" class="graph" transform="scale(1 1) rotate(0) translate(4 182)">
<title>parser.commands.ToInstance</title>
<polygon fill="white" stroke="none" points="-4,4 -4,-182 312,-182 312,4 -4,4"/>
<!-- Node1 -->
<g id="node1" class="node"><title>Node1</title>
<polygon fill="#bfbfbf" stroke="black" points="67.5,-0.5 67.5,-19.5 224.5,-19.5 224.5,-0.5 67.5,-0.5"/>
<text text-anchor="middle" x="146" y="-7.5" font-family="Helvetica,sans-Serif" font-size="10.00">parser.commands.ToInstance</text>
</g>
<!-- Node2 -->
<g id="node2" class="node"><title>Node2</title>
<g id="a_node2"><a xlink:href="../../da/d96/classparser_1_1nodes_1_1_syntax_node.html" target="_top" xlink:title="parser.nodes.SyntaxNode">
<polygon fill="white" stroke="black" points="0,-152.5 0,-171.5 140,-171.5 140,-152.5 0,-152.5"/>
<text text-anchor="middle" x="70" y="-159.5" font-family="Helvetica,sans-Serif" font-size="10.00">parser.nodes.SyntaxNode</text>
</a>
</g>
</g>
<!-- Node2&#45;&gt;Node1 -->
<g id="edge1" class="edge"><title>Node2&#45;&gt;Node1</title>
<path fill="none" stroke="midnightblue" d="M67.3488,-142.467C65.6951,-124.989 65.4219,-98.4899 75,-78 87.2728,-51.7454 114.829,-30.6711 131.775,-19.5709"/>
<polygon fill="midnightblue" stroke="midnightblue" points="63.8851,-142.981 68.5451,-152.496 70.8358,-142.151 63.8851,-142.981"/>
</g>
<!-- Node3 -->
<g id="node3" class="node"><title>Node3</title>
<g id="a_node3"><a xlink:href="../../d4/d1c/classparser_1_1nodes_1_1_list_node.html" target="_top" xlink:title="parser.nodes.ListNode">
<polygon fill="white" stroke="black" points="84,-78.5 84,-97.5 208,-97.5 208,-78.5 84,-78.5"/>
<text text-anchor="middle" x="146" y="-85.5" font-family="Helvetica,sans-Serif" font-size="10.00">parser.nodes.ListNode</text>
</a>
</g>
</g>
<!-- Node2&#45;&gt;Node3 -->
<g id="edge3" class="edge"><title>Node2&#45;&gt;Node3</title>
<path fill="none" stroke="midnightblue" d="M86.3703,-145.491C101.862,-130.815 124.546,-109.325 136.995,-97.531"/>
<polygon fill="midnightblue" stroke="midnightblue" points="83.8691,-143.04 79.0166,-152.458 88.6833,-148.121 83.8691,-143.04"/>
</g>
<!-- Node3&#45;&gt;Node1 -->
<g id="edge2" class="edge"><title>Node3&#45;&gt;Node1</title>
<path fill="none" stroke="#9a32cd" stroke-dasharray="5,2" d="M146,-68.2239C146,-52.6974 146,-31.3582 146,-19.6165"/>
<polygon fill="#9a32cd" stroke="#9a32cd" points="142.5,-68.2818 146,-78.2818 149.5,-68.2819 142.5,-68.2818"/>
<text text-anchor="middle" x="180.5" y="-52" font-family="Helvetica,sans-Serif" font-size="10.00"> commandList</text>
<text text-anchor="middle" x="180.5" y="-41" font-family="Helvetica,sans-Serif" font-size="10.00">varList</text>
</g>
<!-- Node4 -->
<g id="node4" class="node"><title>Node4</title>
<polygon fill="white" stroke="#bfbfbf" points="165.5,-147 165.5,-177 308.5,-177 308.5,-147 165.5,-147"/>
<text text-anchor="start" x="173.5" y="-165" font-family="Helvetica,sans-Serif" font-size="10.00">List&lt; parser.nodes.Syntax</text>
<text text-anchor="middle" x="237" y="-154" font-family="Helvetica,sans-Serif" font-size="10.00">Node &gt;</text>
</g>
<!-- Node4&#45;&gt;Node1 -->
<g id="edge5" class="edge"><title>Node4&#45;&gt;Node1</title>
<path fill="none" stroke="#9a32cd" stroke-dasharray="5,2" d="M240.248,-136.459C242.427,-109.35 241.568,-65.8551 219,-38 212.025,-29.3906 202.028,-23.5264 191.662,-19.5321"/>
<polygon fill="#9a32cd" stroke="#9a32cd" points="236.741,-136.347 239.223,-146.647 243.706,-137.048 236.741,-136.347"/>
<text text-anchor="middle" x="267" y="-85.5" font-family="Helvetica,sans-Serif" font-size="10.00"> paramList</text>
</g>
<!-- Node4&#45;&gt;Node3 -->
<g id="edge4" class="edge"><title>Node4&#45;&gt;Node3</title>
<path fill="none" stroke="#9a32cd" stroke-dasharray="5,2" d="M210.963,-140.583C205.675,-136.426 200.155,-132.077 195,-128 181.867,-117.614 166.802,-105.611 156.883,-97.6939"/>
<polygon fill="#9a32cd" stroke="#9a32cd" points="208.969,-143.468 218.995,-146.893 213.293,-137.963 208.969,-143.468"/>
<text text-anchor="middle" x="212.5" y="-119.5" font-family="Helvetica,sans-Serif" font-size="10.00"> myList</text>
</g>
</g>
</svg>
