<?xml version="1.0" encoding="UTF-8" standalone="no"?>
<!DOCTYPE svg PUBLIC "-//W3C//DTD SVG 1.1//EN"
 "http://www.w3.org/Graphics/SVG/1.1/DTD/svg11.dtd">
<!-- Generated by graphviz version 2.36.0 (20140111.2315)
 -->
<!-- Title: model.Angle.addAngleValue Pages: 1 -->
<svg width="528pt" height="38pt"
 viewBox="0.00 0.00 528.00 38.00" xmlns="http://www.w3.org/2000/svg" xmlns:xlink="http://www.w3.org/1999/xlink">
<g id="graph0" class="graph" transform="scale(1 1) rotate(0) translate(4 34)">
<title>model.Angle.addAngleValue</title>
<polygon fill="white" stroke="none" points="-4,4 -4,-34 524,-34 524,4 -4,4"/>
<!-- Node1 -->
<g id="node1" class="node"><title>Node1</title>
<polygon fill="#bfbfbf" stroke="black" points="0.5,-5.5 0.5,-24.5 151.5,-24.5 151.5,-5.5 0.5,-5.5"/>
<text text-anchor="middle" x="76" y="-12.5" font-family="Helvetica,sans-Serif" font-size="10.00">model.Angle.addAngleValue</text>
</g>
<!-- Node2 -->
<g id="node2" class="node"><title>Node2</title>
<g id="a_node2"><a xlink:href="../../da/d88/classmodel_1_1_turtle_single.html#a03df9ead84cfaec0317ddbcb8a3a465e" target="_top" xlink:title="model.TurtleSingle.addDegree">
<polygon fill="white" stroke="black" points="188.5,-5.5 188.5,-24.5 349.5,-24.5 349.5,-5.5 188.5,-5.5"/>
<text text-anchor="middle" x="269" y="-12.5" font-family="Helvetica,sans-Serif" font-size="10.00">model.TurtleSingle.addDegree</text>
</a>
</g>
</g>
<!-- Node1&#45;&gt;Node2 -->
<g id="edge1" class="edge"><title>Node1&#45;&gt;Node2</title>
<path fill="none" stroke="midnightblue" d="M161.91,-15C170.7,-15 179.61,-15 188.339,-15"/>
<polygon fill="midnightblue" stroke="midnightblue" points="161.666,-11.5001 151.666,-15 161.666,-18.5001 161.666,-11.5001"/>
</g>
<!-- Node3 -->
<g id="node3" class="node"><title>Node3</title>
<g id="a_node3"><a xlink:href="../../d9/dea/classmodel_1_1_turtle_multiple.html#a601396d8123665647fa640e0191ecbe0" target="_top" xlink:title="model.TurtleMultiple.add\lDegree">
<polygon fill="white" stroke="black" points="386.5,-0 386.5,-30 519.5,-30 519.5,-0 386.5,-0"/>
<text text-anchor="start" x="394.5" y="-18" font-family="Helvetica,sans-Serif" font-size="10.00">model.TurtleMultiple.add</text>
<text text-anchor="middle" x="453" y="-7" font-family="Helvetica,sans-Serif" font-size="10.00">Degree</text>
</a>
</g>
</g>
<!-- Node2&#45;&gt;Node3 -->
<g id="edge2" class="edge"><title>Node2&#45;&gt;Node3</title>
<path fill="none" stroke="midnightblue" d="M359.651,-15C368.609,-15 377.584,-15 386.23,-15"/>
<polygon fill="midnightblue" stroke="midnightblue" points="359.563,-11.5001 349.563,-15 359.563,-18.5001 359.563,-11.5001"/>
</g>
</g>
</svg>
