<?xml version="1.0" encoding="UTF-8" standalone="no"?>
<!DOCTYPE svg PUBLIC "-//W3C//DTD SVG 1.1//EN"
 "http://www.w3.org/Graphics/SVG/1.1/DTD/svg11.dtd">
<!-- Generated by graphviz version 2.36.0 (20140111.2315)
 -->
<!-- Title: model.Angle.getAngleValue Pages: 1 -->
<svg width="1590pt" height="279pt"
 viewBox="0.00 0.00 1590.00 279.00" xmlns="http://www.w3.org/2000/svg" xmlns:xlink="http://www.w3.org/1999/xlink">
<g id="graph0" class="graph" transform="scale(1 1) rotate(0) translate(4 275)">
<title>model.Angle.getAngleValue</title>
<polygon fill="white" stroke="none" points="-4,4 -4,-275 1586,-275 1586,4 -4,4"/>
<!-- Node1 -->
<g id="node1" class="node"><title>Node1</title>
<polygon fill="#bfbfbf" stroke="black" points="0.5,-175.5 0.5,-194.5 149.5,-194.5 149.5,-175.5 0.5,-175.5"/>
<text text-anchor="middle" x="75" y="-182.5" font-family="Helvetica,sans-Serif" font-size="10.00">model.Angle.getAngleValue</text>
</g>
<!-- Node2 -->
<g id="node2" class="node"><title>Node2</title>
<g id="a_node2"><a xlink:href="../../de/dfa/classmodel_1_1_angle.html#af9a9f86bf5138aaf930f022dd3632168" target="_top" xlink:title="model.Angle.addAngle">
<polygon fill="white" stroke="black" points="205.5,-251.5 205.5,-270.5 330.5,-270.5 330.5,-251.5 205.5,-251.5"/>
<text text-anchor="middle" x="268" y="-258.5" font-family="Helvetica,sans-Serif" font-size="10.00">model.Angle.addAngle</text>
</a>
</g>
</g>
<!-- Node1&#45;&gt;Node2 -->
<g id="edge1" class="edge"><title>Node1&#45;&gt;Node2</title>
<path fill="none" stroke="midnightblue" d="M100.341,-199.853C122.115,-212.586 155.247,-230.626 186,-242 196.025,-245.708 207.022,-248.859 217.592,-251.467"/>
<polygon fill="midnightblue" stroke="midnightblue" points="101.852,-196.679 91.4655,-194.587 98.2799,-202.699 101.852,-196.679"/>
</g>
<!-- Node3 -->
<g id="node3" class="node"><title>Node3</title>
<g id="a_node3"><a xlink:href="../../de/dfa/classmodel_1_1_angle.html#ac1d95930ce0d3ed73ff3c2c25cc55808" target="_top" xlink:title="model.Angle.Angle">
<polygon fill="white" stroke="black" points="214.5,-213.5 214.5,-232.5 321.5,-232.5 321.5,-213.5 214.5,-213.5"/>
<text text-anchor="middle" x="268" y="-220.5" font-family="Helvetica,sans-Serif" font-size="10.00">model.Angle.Angle</text>
</a>
</g>
</g>
<!-- Node1&#45;&gt;Node3 -->
<g id="edge2" class="edge"><title>Node1&#45;&gt;Node3</title>
<path fill="none" stroke="midnightblue" d="M134.353,-196.61C161.518,-202.014 193.432,-208.364 219.149,-213.48"/>
<polygon fill="midnightblue" stroke="midnightblue" points="134.688,-193.108 124.197,-194.589 133.322,-199.973 134.688,-193.108"/>
</g>
<!-- Node4 -->
<g id="node4" class="node"><title>Node4</title>
<g id="a_node4"><a xlink:href="../../de/dfa/classmodel_1_1_angle.html#a03de1067ae68579ad87f3eb4fd958ccc" target="_top" xlink:title="model.Angle.equals">
<polygon fill="white" stroke="black" points="212.5,-175.5 212.5,-194.5 323.5,-194.5 323.5,-175.5 212.5,-175.5"/>
<text text-anchor="middle" x="268" y="-182.5" font-family="Helvetica,sans-Serif" font-size="10.00">model.Angle.equals</text>
</a>
</g>
</g>
<!-- Node1&#45;&gt;Node4 -->
<g id="edge3" class="edge"><title>Node1&#45;&gt;Node4</title>
<path fill="none" stroke="midnightblue" d="M159.966,-185C177.757,-185 196.091,-185 212.447,-185"/>
<polygon fill="midnightblue" stroke="midnightblue" points="159.572,-181.5 149.572,-185 159.572,-188.5 159.572,-181.5"/>
</g>
<!-- Node6 -->
<g id="node6" class="node"><title>Node6</title>
<g id="a_node6"><a xlink:href="../../dd/ddc/classview_1_1turtle_1_1_turtle_image.html#afd9abc603b052b7c9c14108400109917" target="_top" xlink:title="view.turtle.TurtleImage.process\lUpdate">
<polygon fill="white" stroke="black" points="186,-126 186,-156 350,-156 350,-126 186,-126"/>
<text text-anchor="start" x="194" y="-144" font-family="Helvetica,sans-Serif" font-size="10.00">view.turtle.TurtleImage.process</text>
<text text-anchor="middle" x="268" y="-133" font-family="Helvetica,sans-Serif" font-size="10.00">Update</text>
</a>
</g>
</g>
<!-- Node1&#45;&gt;Node6 -->
<g id="edge5" class="edge"><title>Node1&#45;&gt;Node6</title>
<path fill="none" stroke="midnightblue" d="M127.28,-173.187C150.129,-167.923 177.313,-161.661 201.603,-156.065"/>
<polygon fill="midnightblue" stroke="midnightblue" points="126.403,-169.797 117.444,-175.453 127.975,-176.618 126.403,-169.797"/>
</g>
<!-- Node16 -->
<g id="node16" class="node"><title>Node16</title>
<g id="a_node16"><a xlink:href="../../da/d88/classmodel_1_1_turtle_single.html#a002b91f80521a6ca5cf20a62b7006c34" target="_top" xlink:title="model.TurtleSingle.setHeading">
<polygon fill="white" stroke="black" points="187,-49.5 187,-68.5 349,-68.5 349,-49.5 187,-49.5"/>
<text text-anchor="middle" x="268" y="-56.5" font-family="Helvetica,sans-Serif" font-size="10.00">model.TurtleSingle.setHeading</text>
</a>
</g>
</g>
<!-- Node1&#45;&gt;Node16 -->
<g id="edge17" class="edge"><title>Node1&#45;&gt;Node16</title>
<path fill="none" stroke="midnightblue" d="M99.2196,-169.682C139.146,-143.343 219.68,-90.2164 252.541,-68.5383"/>
<polygon fill="midnightblue" stroke="midnightblue" points="97.0903,-166.894 90.6703,-175.322 100.945,-172.737 97.0903,-166.894"/>
</g>
<!-- Node5 -->
<g id="node5" class="node"><title>Node5</title>
<g id="a_node5"><a xlink:href="../../d5/dc1/classparser_1_1commands_1_1_parser_test.html#a6a3cc2c0d6ca8b502de3cad94a6ad0a5" target="_top" xlink:title="parser.commands.ParserTest.test\lParse">
<polygon fill="white" stroke="black" points="386.5,-219 386.5,-249 563.5,-249 563.5,-219 386.5,-219"/>
<text text-anchor="start" x="394.5" y="-237" font-family="Helvetica,sans-Serif" font-size="10.00">parser.commands.ParserTest.test</text>
<text text-anchor="middle" x="475" y="-226" font-family="Helvetica,sans-Serif" font-size="10.00">Parse</text>
</a>
</g>
</g>
<!-- Node4&#45;&gt;Node5 -->
<g id="edge4" class="edge"><title>Node4&#45;&gt;Node5</title>
<path fill="none" stroke="midnightblue" d="M319.675,-196.829C329.726,-199.192 340.199,-201.665 350,-204 370.253,-208.825 392.351,-214.152 412.209,-218.961"/>
<polygon fill="midnightblue" stroke="midnightblue" points="320.34,-193.39 309.804,-194.513 318.74,-200.205 320.34,-193.39"/>
</g>
<!-- Node7 -->
<g id="node7" class="node"><title>Node7</title>
<g id="a_node7"><a xlink:href="../../dd/ddc/classview_1_1turtle_1_1_turtle_image.html#a68a832da6825e57061dbc49b30098291" target="_top" xlink:title="view.turtle.TurtleImage.pop\lUpdate">
<polygon fill="white" stroke="black" points="403,-170 403,-200 547,-200 547,-170 403,-170"/>
<text text-anchor="start" x="411" y="-188" font-family="Helvetica,sans-Serif" font-size="10.00">view.turtle.TurtleImage.pop</text>
<text text-anchor="middle" x="475" y="-177" font-family="Helvetica,sans-Serif" font-size="10.00">Update</text>
</a>
</g>
</g>
<!-- Node6&#45;&gt;Node7 -->
<g id="edge6" class="edge"><title>Node6&#45;&gt;Node7</title>
<path fill="none" stroke="midnightblue" d="M348.95,-158.16C367.116,-162.059 386.276,-166.171 403.992,-169.974"/>
<polygon fill="midnightblue" stroke="midnightblue" points="349.488,-154.696 338.976,-156.019 348.019,-161.54 349.488,-154.696"/>
</g>
<!-- Node8 -->
<g id="node8" class="node"><title>Node8</title>
<g id="a_node8"><a xlink:href="../../d5/d4b/classview_1_1components_1_1_turtle_window.html#a84744ff6c257318689fc0e014350fb05" target="_top" xlink:title="view.components.TurtleWindow.step\lDebug">
<polygon fill="white" stroke="black" points="612,-170 612,-200 798,-200 798,-170 612,-170"/>
<text text-anchor="start" x="620" y="-188" font-family="Helvetica,sans-Serif" font-size="10.00">view.components.TurtleWindow.step</text>
<text text-anchor="middle" x="705" y="-177" font-family="Helvetica,sans-Serif" font-size="10.00">Debug</text>
</a>
</g>
</g>
<!-- Node7&#45;&gt;Node8 -->
<g id="edge7" class="edge"><title>Node7&#45;&gt;Node8</title>
<path fill="none" stroke="midnightblue" d="M557.46,-185C575.128,-185 593.934,-185 611.977,-185"/>
<polygon fill="midnightblue" stroke="midnightblue" points="557.203,-181.5 547.203,-185 557.203,-188.5 557.203,-181.5"/>
</g>
<!-- Node13 -->
<g id="node13" class="node"><title>Node13</title>
<g id="a_node13"><a xlink:href="../../dd/ddc/classview_1_1turtle_1_1_turtle_image.html#a02651da4da9b4b48bd91656f734ccb03" target="_top" xlink:title="view.turtle.TurtleImage.add\lUpdate">
<polygon fill="white" stroke="black" points="633,-219 633,-249 777,-249 777,-219 633,-219"/>
<text text-anchor="start" x="641" y="-237" font-family="Helvetica,sans-Serif" font-size="10.00">view.turtle.TurtleImage.add</text>
<text text-anchor="middle" x="705" y="-226" font-family="Helvetica,sans-Serif" font-size="10.00">Update</text>
</a>
</g>
</g>
<!-- Node7&#45;&gt;Node13 -->
<g id="edge12" class="edge"><title>Node7&#45;&gt;Node13</title>
<path fill="none" stroke="midnightblue" d="M555.965,-202.185C581.46,-207.665 609.457,-213.682 634.175,-218.994"/>
<polygon fill="midnightblue" stroke="midnightblue" points="556.469,-198.714 545.957,-200.035 554.998,-205.558 556.469,-198.714"/>
</g>
<!-- Node14 -->
<g id="node14" class="node"><title>Node14</title>
<g id="a_node14"><a xlink:href="../../dd/ddc/classview_1_1turtle_1_1_turtle_image.html#a958417ed4561c0b910f80944a5110ec7" target="_top" xlink:title="view.turtle.TurtleImage.animatedMove">
<polygon fill="white" stroke="black" points="606.5,-131.5 606.5,-150.5 803.5,-150.5 803.5,-131.5 606.5,-131.5"/>
<text text-anchor="middle" x="705" y="-138.5" font-family="Helvetica,sans-Serif" font-size="10.00">view.turtle.TurtleImage.animatedMove</text>
</a>
</g>
</g>
<!-- Node7&#45;&gt;Node14 -->
<g id="edge13" class="edge"><title>Node7&#45;&gt;Node14</title>
<path fill="none" stroke="midnightblue" d="M556.938,-168.461C571.274,-165.594 586.069,-162.677 600,-160 616.493,-156.831 634.482,-153.5 650.79,-150.528"/>
<polygon fill="midnightblue" stroke="midnightblue" points="556.218,-165.035 547.102,-170.433 557.595,-171.898 556.218,-165.035"/>
</g>
<!-- Node15 -->
<g id="node15" class="node"><title>Node15</title>
<g id="a_node15"><a xlink:href="../../dd/ddc/classview_1_1turtle_1_1_turtle_image.html#aca0a62f113534161f725da472e1f4d9f" target="_top" xlink:title="view.turtle.TurtleImage.unanimatedMove">
<polygon fill="white" stroke="black" points="600.5,-93.5 600.5,-112.5 809.5,-112.5 809.5,-93.5 600.5,-93.5"/>
<text text-anchor="middle" x="705" y="-100.5" font-family="Helvetica,sans-Serif" font-size="10.00">view.turtle.TurtleImage.unanimatedMove</text>
</a>
</g>
</g>
<!-- Node7&#45;&gt;Node15 -->
<g id="edge15" class="edge"><title>Node7&#45;&gt;Node15</title>
<path fill="none" stroke="midnightblue" d="M509.523,-164.604C533.837,-150.661 567.945,-132.815 600,-122 611.391,-118.157 623.762,-115.036 635.864,-112.521"/>
<polygon fill="midnightblue" stroke="midnightblue" points="507.592,-161.678 500.709,-169.733 511.113,-167.728 507.592,-161.678"/>
</g>
<!-- Node9 -->
<g id="node9" class="node"><title>Node9</title>
<g id="a_node9"><a xlink:href="../../de/d30/classview_1_1components_1_1_s_logo_workspace.html#ad2141a5cca8101b3d22b2cf7b7473281" target="_top" xlink:title="view.components.SLogoWorkspace.run\lDebugger">
<polygon fill="white" stroke="black" points="846,-170 846,-200 1048,-200 1048,-170 846,-170"/>
<text text-anchor="start" x="854" y="-188" font-family="Helvetica,sans-Serif" font-size="10.00">view.components.SLogoWorkspace.run</text>
<text text-anchor="middle" x="947" y="-177" font-family="Helvetica,sans-Serif" font-size="10.00">Debugger</text>
</a>
</g>
</g>
<!-- Node8&#45;&gt;Node9 -->
<g id="edge8" class="edge"><title>Node8&#45;&gt;Node9</title>
<path fill="none" stroke="midnightblue" d="M808.424,-185C820.795,-185 833.421,-185 845.761,-185"/>
<polygon fill="midnightblue" stroke="midnightblue" points="808.104,-181.5 798.104,-185 808.104,-188.5 808.104,-181.5"/>
</g>
<!-- Node10 -->
<g id="node10" class="node"><title>Node10</title>
<g id="a_node10"><a xlink:href="../../d3/dbe/classview_1_1_view.html#af4860035310eeafc92cf78cbbc53290a" target="_top" xlink:title="view.View.runDebugger">
<polygon fill="white" stroke="black" points="1084,-175.5 1084,-194.5 1210,-194.5 1210,-175.5 1084,-175.5"/>
<text text-anchor="middle" x="1147" y="-182.5" font-family="Helvetica,sans-Serif" font-size="10.00">view.View.runDebugger</text>
</a>
</g>
</g>
<!-- Node9&#45;&gt;Node10 -->
<g id="edge9" class="edge"><title>Node9&#45;&gt;Node10</title>
<path fill="none" stroke="midnightblue" d="M1058.42,-185C1067.12,-185 1075.71,-185 1083.9,-185"/>
<polygon fill="midnightblue" stroke="midnightblue" points="1058.16,-181.5 1048.16,-185 1058.16,-188.5 1058.16,-181.5"/>
</g>
<!-- Node11 -->
<g id="node11" class="node"><title>Node11</title>
<g id="a_node11"><a xlink:href="../../d4/d6b/classview_1_1components_1_1_debugger_port.html#a6dd594b7c6572e0f4ef2ab7d8845f2ce" target="_top" xlink:title="view.components.Debugger\lPort.stepDebug">
<polygon fill="white" stroke="black" points="1246.5,-170 1246.5,-200 1395.5,-200 1395.5,-170 1246.5,-170"/>
<text text-anchor="start" x="1254.5" y="-188" font-family="Helvetica,sans-Serif" font-size="10.00">view.components.Debugger</text>
<text text-anchor="middle" x="1321" y="-177" font-family="Helvetica,sans-Serif" font-size="10.00">Port.stepDebug</text>
</a>
</g>
</g>
<!-- Node10&#45;&gt;Node11 -->
<g id="edge10" class="edge"><title>Node10&#45;&gt;Node11</title>
<path fill="none" stroke="midnightblue" d="M1220.13,-185C1228.78,-185 1237.61,-185 1246.28,-185"/>
<polygon fill="midnightblue" stroke="midnightblue" points="1220.1,-181.5 1210.1,-185 1220.1,-188.5 1220.1,-181.5"/>
</g>
<!-- Node12 -->
<g id="node12" class="node"><title>Node12</title>
<g id="a_node12"><a xlink:href="../../d4/d6b/classview_1_1components_1_1_debugger_port.html#a7055f8fe86c7e1078dc9909a7f000b8b" target="_top" xlink:title="view.components.Debugger\lPort.DebuggerPort">
<polygon fill="white" stroke="black" points="1432.5,-170 1432.5,-200 1581.5,-200 1581.5,-170 1432.5,-170"/>
<text text-anchor="start" x="1440.5" y="-188" font-family="Helvetica,sans-Serif" font-size="10.00">view.components.Debugger</text>
<text text-anchor="middle" x="1507" y="-177" font-family="Helvetica,sans-Serif" font-size="10.00">Port.DebuggerPort</text>
</a>
</g>
</g>
<!-- Node11&#45;&gt;Node12 -->
<g id="edge11" class="edge"><title>Node11&#45;&gt;Node12</title>
<path fill="none" stroke="midnightblue" d="M1405.53,-185C1414.46,-185 1423.5,-185 1432.3,-185"/>
<polygon fill="midnightblue" stroke="midnightblue" points="1405.51,-181.5 1395.51,-185 1405.51,-188.5 1405.51,-181.5"/>
</g>
<!-- Node14&#45;&gt;Node6 -->
<g id="edge14" class="edge"><title>Node14&#45;&gt;Node6</title>
<path fill="none" stroke="midnightblue" d="M596.122,-141C519.936,-141 419.452,-141 350.055,-141"/>
<polygon fill="midnightblue" stroke="midnightblue" points="596.232,-144.5 606.232,-141 596.232,-137.5 596.232,-144.5"/>
</g>
<!-- Node15&#45;&gt;Node6 -->
<g id="edge16" class="edge"><title>Node15&#45;&gt;Node6</title>
<path fill="none" stroke="midnightblue" d="M590.265,-112.935C514.846,-119.524 417.687,-128.011 350.055,-133.919"/>
<polygon fill="midnightblue" stroke="midnightblue" points="590.63,-116.417 600.287,-112.06 590.021,-109.444 590.63,-116.417"/>
</g>
<!-- Node17 -->
<g id="node17" class="node"><title>Node17</title>
<g id="a_node17"><a xlink:href="../../d9/dea/classmodel_1_1_turtle_multiple.html#af499d8a2611dcbab8cfc5274395fd043" target="_top" xlink:title="model.TurtleMultiple.set\lHeading">
<polygon fill="white" stroke="black" points="410,-44 410,-74 540,-74 540,-44 410,-44"/>
<text text-anchor="start" x="418" y="-62" font-family="Helvetica,sans-Serif" font-size="10.00">model.TurtleMultiple.set</text>
<text text-anchor="middle" x="475" y="-51" font-family="Helvetica,sans-Serif" font-size="10.00">Heading</text>
</a>
</g>
</g>
<!-- Node16&#45;&gt;Node17 -->
<g id="edge18" class="edge"><title>Node16&#45;&gt;Node17</title>
<path fill="none" stroke="midnightblue" d="M359.594,-59C376.503,-59 393.85,-59 409.761,-59"/>
<polygon fill="midnightblue" stroke="midnightblue" points="359.139,-55.5001 349.139,-59 359.139,-62.5001 359.139,-55.5001"/>
</g>
<!-- Node18 -->
<g id="node18" class="node"><title>Node18</title>
<g id="a_node18"><a xlink:href="../../da/d88/classmodel_1_1_turtle_single.html#a6ad1aa6c71c5e1ba0f347f27941cc276" target="_top" xlink:title="model.TurtleSingle.setTowards">
<polygon fill="white" stroke="black" points="395,-5.5 395,-24.5 555,-24.5 555,-5.5 395,-5.5"/>
<text text-anchor="middle" x="475" y="-12.5" font-family="Helvetica,sans-Serif" font-size="10.00">model.TurtleSingle.setTowards</text>
</a>
</g>
</g>
<!-- Node16&#45;&gt;Node18 -->
<g id="edge19" class="edge"><title>Node16&#45;&gt;Node18</title>
<path fill="none" stroke="midnightblue" d="M323.474,-47.308C356.636,-40.1904 398.463,-31.2128 429.605,-24.5287"/>
<polygon fill="midnightblue" stroke="midnightblue" points="322.525,-43.932 313.482,-49.4527 323.994,-50.7761 322.525,-43.932"/>
</g>
<!-- Node19 -->
<g id="node19" class="node"><title>Node19</title>
<g id="a_node19"><a xlink:href="../../d9/dea/classmodel_1_1_turtle_multiple.html#a03519dd8e6614f4404c6dca3160c9f65" target="_top" xlink:title="model.TurtleMultiple.set\lTowards">
<polygon fill="white" stroke="black" points="640,-0 640,-30 770,-30 770,-0 640,-0"/>
<text text-anchor="start" x="648" y="-18" font-family="Helvetica,sans-Serif" font-size="10.00">model.TurtleMultiple.set</text>
<text text-anchor="middle" x="705" y="-7" font-family="Helvetica,sans-Serif" font-size="10.00">Towards</text>
</a>
</g>
</g>
<!-- Node18&#45;&gt;Node19 -->
<g id="edge20" class="edge"><title>Node18&#45;&gt;Node19</title>
<path fill="none" stroke="midnightblue" d="M565.269,-15C590.123,-15 616.624,-15 639.734,-15"/>
<polygon fill="midnightblue" stroke="midnightblue" points="565.103,-11.5001 555.103,-15 565.103,-18.5001 565.103,-11.5001"/>
</g>
</g>
</svg>
