<?xml version="1.0" encoding="UTF-8" standalone="no"?>
<!DOCTYPE svg PUBLIC "-//W3C//DTD SVG 1.1//EN"
 "http://www.w3.org/Graphics/SVG/1.1/DTD/svg11.dtd">
<!-- Generated by graphviz version 2.36.0 (20140111.2315)
 -->
<!-- Title: model.Angle.modAngleValue Pages: 1 -->
<!--zoomable 177 -->
<svg id="main" version="1.1" xmlns="http://www.w3.org/2000/svg" xmlns:xlink="http://www.w3.org/1999/xlink" xml:space="preserve" onload="init(evt)">
<style type="text/css"><![CDATA[
.edge:hover path { stroke: red; }
.edge:hover polygon { stroke: red; fill: red; }
]]></style>
<script type="text/javascript"><![CDATA[
var edges = document.getElementsByTagName('g');
if (edges && edges.length) {
  for (var i=0;i<edges.length;i++) {
    if (edges[i].id.substr(0,4)=='edge') {
      edges[i].setAttribute('class','edge');
    }
  }
}
]]></script>
        <defs>
                <circle id="rim" cx="0" cy="0" r="7"/>
                <circle id="rim2" cx="0" cy="0" r="3.5"/>
                <g id="zoomPlus">
                        <use xlink:href="#rim" fill="#404040">
                                <set attributeName="fill" to="#808080" begin="zoomplus.mouseover" end="zoomplus.mouseout"/>
                        </use>
                        <path d="M-4,0h8M0,-4v8" fill="none" stroke="white" stroke-width="1.5" pointer-events="none"/>
                </g>
                <g id="zoomMin">
                        <use xlink:href="#rim" fill="#404040">
                                <set attributeName="fill" to="#808080" begin="zoomminus.mouseover" end="zoomminus.mouseout"/>
                        </use>
                        <path d="M-4,0h8" fill="none" stroke="white" stroke-width="1.5" pointer-events="none"/>
                </g>
                <g id="dirArrow">
                        <path fill="none" stroke="white" stroke-width="1.5" d="M0,-3.0v7 M-2.5,-0.5L0,-3.0L2.5,-0.5"/>
                </g>
               <g id="resetDef">
                       <use xlink:href="#rim2" fill="#404040">
                               <set attributeName="fill" to="#808080" begin="reset.mouseover" end="reset.mouseout"/>
                       </use>
               </g>
        </defs>

<script type="text/javascript">
var viewWidth = 912;
var viewHeight = 177;
var sectionId = 'dynsection-9';
</script>
<script xlink:href="../../svgpan.js"/>
<svg id="graph" class="graph">
<g id="viewport">
<title>model.Angle.modAngleValue</title>
<polygon fill="white" stroke="none" points="-4,4 -4,-173 908,-173 908,4 -4,4"/>
<!-- Node1 -->
<g id="node1" class="node"><title>Node1</title>
<polygon fill="#bfbfbf" stroke="black" points="0.5,-92.5 0.5,-111.5 155.5,-111.5 155.5,-92.5 0.5,-92.5"/>
<text text-anchor="middle" x="78" y="-99.5" font-family="Helvetica,sans-Serif" font-size="10.00">model.Angle.modAngleValue</text>
</g>
<!-- Node2 -->
<g id="node2" class="node"><title>Node2</title>
<g id="a_node2"><a xlink:href="../../de/dfa/classmodel_1_1_angle.html#af9a9f86bf5138aaf930f022dd3632168" target="_top" xlink:title="model.Angle.addAngle">
<polygon fill="white" stroke="black" points="205.5,-149.5 205.5,-168.5 330.5,-168.5 330.5,-149.5 205.5,-149.5"/>
<text text-anchor="middle" x="268" y="-156.5" font-family="Helvetica,sans-Serif" font-size="10.00">model.Angle.addAngle</text>
</a>
</g>
</g>
<!-- Node1&#45;&gt;Node2 -->
<g id="edge1" class="edge"><title>Node1&#45;&gt;Node2</title>
<path fill="none" stroke="midnightblue" d="M115.377,-115.019C137.417,-122.71 166.173,-132.398 192,-140 203.21,-143.3 215.463,-146.551 226.755,-149.406"/>
<polygon fill="midnightblue" stroke="midnightblue" points="116.353,-111.653 105.758,-111.641 114.033,-118.257 116.353,-111.653"/>
</g>
<!-- Node3 -->
<g id="node3" class="node"><title>Node3</title>
<g id="a_node3"><a xlink:href="../../de/dfa/classmodel_1_1_angle.html#aef359cf2d8f49b345732939644cd8d29" target="_top" xlink:title="model.Angle.addAngleValue">
<polygon fill="white" stroke="black" points="192.5,-111.5 192.5,-130.5 343.5,-130.5 343.5,-111.5 192.5,-111.5"/>
<text text-anchor="middle" x="268" y="-118.5" font-family="Helvetica,sans-Serif" font-size="10.00">model.Angle.addAngleValue</text>
</a>
</g>
</g>
<!-- Node1&#45;&gt;Node3 -->
<g id="edge2" class="edge"><title>Node1&#45;&gt;Node3</title>
<path fill="none" stroke="midnightblue" d="M165.72,-110.764C174.61,-111.663 183.587,-112.57 192.331,-113.454"/>
<polygon fill="midnightblue" stroke="midnightblue" points="166.039,-107.279 155.738,-109.755 165.335,-114.243 166.039,-107.279"/>
</g>
<!-- Node6 -->
<g id="node6" class="node"><title>Node6</title>
<g id="a_node6"><a xlink:href="../../de/dfa/classmodel_1_1_angle.html#ab1a40ec537419e9c6ce9e0dfecfec609" target="_top" xlink:title="model.Angle.Angle">
<polygon fill="white" stroke="black" points="214.5,-73.5 214.5,-92.5 321.5,-92.5 321.5,-73.5 214.5,-73.5"/>
<text text-anchor="middle" x="268" y="-80.5" font-family="Helvetica,sans-Serif" font-size="10.00">model.Angle.Angle</text>
</a>
</g>
</g>
<!-- Node1&#45;&gt;Node6 -->
<g id="edge5" class="edge"><title>Node1&#45;&gt;Node6</title>
<path fill="none" stroke="midnightblue" d="M165.969,-93.2106C182.49,-91.5409 199.302,-89.8418 214.349,-88.3211"/>
<polygon fill="midnightblue" stroke="midnightblue" points="165.335,-89.7567 155.738,-94.2446 166.039,-96.7212 165.335,-89.7567"/>
</g>
<!-- Node7 -->
<g id="node7" class="node"><title>Node7</title>
<g id="a_node7"><a xlink:href="../../de/dfa/classmodel_1_1_angle.html#abc668dbdb92ee339fea7492cda826061" target="_top" xlink:title="model.Angle.setAngleValue">
<polygon fill="white" stroke="black" points="194,-35.5 194,-54.5 342,-54.5 342,-35.5 194,-35.5"/>
<text text-anchor="middle" x="268" y="-42.5" font-family="Helvetica,sans-Serif" font-size="10.00">model.Angle.setAngleValue</text>
</a>
</g>
</g>
<!-- Node1&#45;&gt;Node7 -->
<g id="edge6" class="edge"><title>Node1&#45;&gt;Node7</title>
<path fill="none" stroke="midnightblue" d="M115.377,-88.9806C137.417,-81.2897 166.173,-71.6021 192,-64 203.21,-60.7003 215.463,-57.449 226.755,-54.5942"/>
<polygon fill="midnightblue" stroke="midnightblue" points="114.033,-85.743 105.758,-92.3591 116.353,-92.3475 114.033,-85.743"/>
</g>
<!-- Node4 -->
<g id="node4" class="node"><title>Node4</title>
<g id="a_node4"><a xlink:href="../../da/d88/classmodel_1_1_turtle_single.html#a03df9ead84cfaec0317ddbcb8a3a465e" target="_top" xlink:title="model.TurtleSingle.addDegree">
<polygon fill="white" stroke="black" points="380.5,-111.5 380.5,-130.5 541.5,-130.5 541.5,-111.5 380.5,-111.5"/>
<text text-anchor="middle" x="461" y="-118.5" font-family="Helvetica,sans-Serif" font-size="10.00">model.TurtleSingle.addDegree</text>
</a>
</g>
</g>
<!-- Node3&#45;&gt;Node4 -->
<g id="edge3" class="edge"><title>Node3&#45;&gt;Node4</title>
<path fill="none" stroke="midnightblue" d="M353.91,-121C362.7,-121 371.61,-121 380.339,-121"/>
<polygon fill="midnightblue" stroke="midnightblue" points="353.666,-117.5 343.666,-121 353.666,-124.5 353.666,-117.5"/>
</g>
<!-- Node5 -->
<g id="node5" class="node"><title>Node5</title>
<g id="a_node5"><a xlink:href="../../d9/dea/classmodel_1_1_turtle_multiple.html#a601396d8123665647fa640e0191ecbe0" target="_top" xlink:title="model.TurtleMultiple.add\lDegree">
<polygon fill="white" stroke="black" points="591.5,-106 591.5,-136 724.5,-136 724.5,-106 591.5,-106"/>
<text text-anchor="start" x="599.5" y="-124" font-family="Helvetica,sans-Serif" font-size="10.00">model.TurtleMultiple.add</text>
<text text-anchor="middle" x="658" y="-113" font-family="Helvetica,sans-Serif" font-size="10.00">Degree</text>
</a>
</g>
</g>
<!-- Node4&#45;&gt;Node5 -->
<g id="edge4" class="edge"><title>Node4&#45;&gt;Node5</title>
<path fill="none" stroke="midnightblue" d="M551.742,-121C565.082,-121 578.618,-121 591.34,-121"/>
<polygon fill="midnightblue" stroke="midnightblue" points="551.595,-117.5 541.595,-121 551.595,-124.5 551.595,-117.5"/>
</g>
<!-- Node8 -->
<g id="node8" class="node"><title>Node8</title>
<g id="a_node8"><a xlink:href="../../da/d88/classmodel_1_1_turtle_single.html#a002b91f80521a6ca5cf20a62b7006c34" target="_top" xlink:title="model.TurtleSingle.setHeading">
<polygon fill="white" stroke="black" points="380,-35.5 380,-54.5 542,-54.5 542,-35.5 380,-35.5"/>
<text text-anchor="middle" x="461" y="-42.5" font-family="Helvetica,sans-Serif" font-size="10.00">model.TurtleSingle.setHeading</text>
</a>
</g>
</g>
<!-- Node7&#45;&gt;Node8 -->
<g id="edge7" class="edge"><title>Node7&#45;&gt;Node8</title>
<path fill="none" stroke="midnightblue" d="M352.235,-45C361.349,-45 370.615,-45 379.693,-45"/>
<polygon fill="midnightblue" stroke="midnightblue" points="352.027,-41.5001 342.026,-45 352.026,-48.5001 352.027,-41.5001"/>
</g>
<!-- Node9 -->
<g id="node9" class="node"><title>Node9</title>
<g id="a_node9"><a xlink:href="../../d9/dea/classmodel_1_1_turtle_multiple.html#af499d8a2611dcbab8cfc5274395fd043" target="_top" xlink:title="model.TurtleMultiple.set\lHeading">
<polygon fill="white" stroke="black" points="593,-44 593,-74 723,-74 723,-44 593,-44"/>
<text text-anchor="start" x="601" y="-62" font-family="Helvetica,sans-Serif" font-size="10.00">model.TurtleMultiple.set</text>
<text text-anchor="middle" x="658" y="-51" font-family="Helvetica,sans-Serif" font-size="10.00">Heading</text>
</a>
</g>
</g>
<!-- Node8&#45;&gt;Node9 -->
<g id="edge8" class="edge"><title>Node8&#45;&gt;Node9</title>
<path fill="none" stroke="midnightblue" d="M552.134,-51.4712C565.904,-52.4598 579.872,-53.4626 592.929,-54.4"/>
<polygon fill="midnightblue" stroke="midnightblue" points="552.383,-47.9801 542.158,-50.7549 551.882,-54.9622 552.383,-47.9801"/>
</g>
<!-- Node10 -->
<g id="node10" class="node"><title>Node10</title>
<g id="a_node10"><a xlink:href="../../da/d88/classmodel_1_1_turtle_single.html#a6ad1aa6c71c5e1ba0f347f27941cc276" target="_top" xlink:title="model.TurtleSingle.setTowards">
<polygon fill="white" stroke="black" points="578,-5.5 578,-24.5 738,-24.5 738,-5.5 578,-5.5"/>
<text text-anchor="middle" x="658" y="-12.5" font-family="Helvetica,sans-Serif" font-size="10.00">model.TurtleSingle.setTowards</text>
</a>
</g>
</g>
<!-- Node8&#45;&gt;Node10 -->
<g id="edge9" class="edge"><title>Node8&#45;&gt;Node10</title>
<path fill="none" stroke="midnightblue" d="M534.001,-33.9229C554.095,-30.8315 575.744,-27.5009 595.194,-24.5086"/>
<polygon fill="midnightblue" stroke="midnightblue" points="533.319,-30.4866 523.967,-35.4666 534.383,-37.4052 533.319,-30.4866"/>
</g>
<!-- Node11 -->
<g id="node11" class="node"><title>Node11</title>
<g id="a_node11"><a xlink:href="../../d9/dea/classmodel_1_1_turtle_multiple.html#a03519dd8e6614f4404c6dca3160c9f65" target="_top" xlink:title="model.TurtleMultiple.set\lTowards">
<polygon fill="white" stroke="black" points="774,-0 774,-30 904,-30 904,-0 774,-0"/>
<text text-anchor="start" x="782" y="-18" font-family="Helvetica,sans-Serif" font-size="10.00">model.TurtleMultiple.set</text>
<text text-anchor="middle" x="839" y="-7" font-family="Helvetica,sans-Serif" font-size="10.00">Towards</text>
</a>
</g>
</g>
<!-- Node10&#45;&gt;Node11 -->
<g id="edge10" class="edge"><title>Node10&#45;&gt;Node11</title>
<path fill="none" stroke="midnightblue" d="M748.189,-15C756.858,-15 765.531,-15 773.882,-15"/>
<polygon fill="midnightblue" stroke="midnightblue" points="748.033,-11.5001 738.033,-15 748.033,-18.5001 748.033,-11.5001"/>
</g>
</g>
</svg>
        <g id="navigator" transform="translate(0 0)" fill="#404254">
                <rect fill="#f2f5e9" fill-opacity="0.5" stroke="#606060" stroke-width=".5" x="0" y="0" width="60" height="60"/>
                <use id="zoomplus" xlink:href="#zoomPlus" x="17" y="9" onmousedown="handleZoom(evt,'in')"/>
                <use id="zoomminus" xlink:href="#zoomMin" x="42" y="9" onmousedown="handleZoom(evt,'out')"/>
                <use id="reset" xlink:href="#resetDef" x="30" y="36" onmousedown="handleReset()"/>
                <g id="arrowUp" xlink:href="#dirArrow" transform="translate(30 24)" onmousedown="handlePan(0,-1)">
                  <use xlink:href="#rim" fill="#404040">
                        <set attributeName="fill" to="#808080" begin="arrowUp.mouseover" end="arrowUp.mouseout"/>
                  </use>
                  <path fill="none" stroke="white" stroke-width="1.5" d="M0,-3.0v7 M-2.5,-0.5L0,-3.0L2.5,-0.5"/>
                </g>
                <g id="arrowRight" xlink:href="#dirArrow" transform="rotate(90) translate(36 -43)" onmousedown="handlePan(1,0)">
                  <use xlink:href="#rim" fill="#404040">
                        <set attributeName="fill" to="#808080" begin="arrowRight.mouseover" end="arrowRight.mouseout"/>
                  </use>
                  <path fill="none" stroke="white" stroke-width="1.5" d="M0,-3.0v7 M-2.5,-0.5L0,-3.0L2.5,-0.5"/>
                </g>
                <g id="arrowDown" xlink:href="#dirArrow" transform="rotate(180) translate(-30 -48)" onmousedown="handlePan(0,1)">
                  <use xlink:href="#rim" fill="#404040">
                        <set attributeName="fill" to="#808080" begin="arrowDown.mouseover" end="arrowDown.mouseout"/>
                  </use>
                  <path fill="none" stroke="white" stroke-width="1.5" d="M0,-3.0v7 M-2.5,-0.5L0,-3.0L2.5,-0.5"/>
                </g>
                <g id="arrowLeft" xlink:href="#dirArrow" transform="rotate(270) translate(-36 17)" onmousedown="handlePan(-1,0)">
                  <use xlink:href="#rim" fill="#404040">
                        <set attributeName="fill" to="#808080" begin="arrowLeft.mouseover" end="arrowLeft.mouseout"/>
                  </use>
                  <path fill="none" stroke="white" stroke-width="1.5" d="M0,-3.0v7 M-2.5,-0.5L0,-3.0L2.5,-0.5"/>
                </g>
        </g>
        <svg viewBox="0 0 15 15" width="100%" height="30px" preserveAspectRatio="xMaxYMin meet">
         <g id="arrow_out" transform="scale(0.3 0.3)">
          <a xlink:href="classmodel_1_1_angle_a33d4e2194b10ee4aa384b74c7f73f3e6_icgraph_org.svg" target="_base">
           <rect id="button" ry="5" rx="5" y="6" x="6" height="38" width="38"
                fill="#f2f5e9" fill-opacity="0.5" stroke="#606060" stroke-width="1.0"/>
           <path id="arrow"
             d="M 11.500037,31.436501 C 11.940474,20.09759 22.043105,11.32322 32.158766,21.979434 L 37.068811,17.246167 C 37.068811,17.246167 37.088388,32 37.088388,32 L 22.160133,31.978069 C 22.160133,31.978069 26.997745,27.140456 26.997745,27.140456 C 18.528582,18.264221 13.291696,25.230495 11.500037,31.436501 z"
             style="fill:#404040;"/>
          </a>
         </g>
        </svg>
</svg>
