<?xml version="1.0" encoding="UTF-8" standalone="no"?>
<!DOCTYPE svg PUBLIC "-//W3C//DTD SVG 1.1//EN"
 "http://www.w3.org/Graphics/SVG/1.1/DTD/svg11.dtd">
<!-- Generated by graphviz version 2.36.0 (20140111.2315)
 -->
<!-- Title: parser.commands.LoopingNode Pages: 1 -->
<svg width="297pt" height="196pt"
 viewBox="0.00 0.00 297.00 196.00" xmlns="http://www.w3.org/2000/svg" xmlns:xlink="http://www.w3.org/1999/xlink">
<g id="graph0" class="graph" transform="scale(1 1) rotate(0) translate(4 192)">
<title>parser.commands.LoopingNode</title>
<polygon fill="white" stroke="none" points="-4,4 -4,-192 293,-192 293,4 -4,4"/>
<!-- Node1 -->
<g id="node1" class="node"><title>Node1</title>
<polygon fill="#bfbfbf" stroke="black" points="66,-56.5 66,-75.5 236,-75.5 236,-56.5 66,-56.5"/>
<text text-anchor="middle" x="151" y="-63.5" font-family="Helvetica,sans-Serif" font-size="10.00">parser.commands.LoopingNode</text>
</g>
<!-- Node4 -->
<g id="node4" class="node"><title>Node4</title>
<g id="a_node4"><a xlink:href="../../d6/dde/classparser_1_1commands_1_1_do_times.html" target="_top" xlink:title="parser.commands.DoTimes">
<polygon fill="white" stroke="black" points="-0.5,-0.5 -0.5,-19.5 148.5,-19.5 148.5,-0.5 -0.5,-0.5"/>
<text text-anchor="middle" x="74" y="-7.5" font-family="Helvetica,sans-Serif" font-size="10.00">parser.commands.DoTimes</text>
</a>
</g>
</g>
<!-- Node1&#45;&gt;Node4 -->
<g id="edge3" class="edge"><title>Node1&#45;&gt;Node4</title>
<path fill="none" stroke="midnightblue" d="M130.099,-50.3422C116.089,-40.5169 98.117,-27.9132 86.3407,-19.6545"/>
<polygon fill="midnightblue" stroke="midnightblue" points="128.432,-53.4477 138.629,-56.324 132.451,-47.7166 128.432,-53.4477"/>
</g>
<!-- Node5 -->
<g id="node5" class="node"><title>Node5</title>
<g id="a_node5"><a xlink:href="../../d3/d16/classparser_1_1commands_1_1_for.html" target="_top" xlink:title="parser.commands.For">
<polygon fill="white" stroke="black" points="167,-0.5 167,-19.5 289,-19.5 289,-0.5 167,-0.5"/>
<text text-anchor="middle" x="228" y="-7.5" font-family="Helvetica,sans-Serif" font-size="10.00">parser.commands.For</text>
</a>
</g>
</g>
<!-- Node1&#45;&gt;Node5 -->
<g id="edge4" class="edge"><title>Node1&#45;&gt;Node5</title>
<path fill="none" stroke="midnightblue" d="M171.901,-50.3422C185.911,-40.5169 203.883,-27.9132 215.659,-19.6545"/>
<polygon fill="midnightblue" stroke="midnightblue" points="169.549,-47.7166 163.371,-56.324 173.568,-53.4477 169.549,-47.7166"/>
</g>
<!-- Node2 -->
<g id="node2" class="node"><title>Node2</title>
<g id="a_node2"><a xlink:href="../../db/d11/classparser_1_1nodes_1_1_binary_node.html" target="_top" xlink:title="parser.nodes.BinaryNode">
<polygon fill="white" stroke="black" points="82.5,-112.5 82.5,-131.5 219.5,-131.5 219.5,-112.5 82.5,-112.5"/>
<text text-anchor="middle" x="151" y="-119.5" font-family="Helvetica,sans-Serif" font-size="10.00">parser.nodes.BinaryNode</text>
</a>
</g>
</g>
<!-- Node2&#45;&gt;Node1 -->
<g id="edge1" class="edge"><title>Node2&#45;&gt;Node1</title>
<path fill="none" stroke="midnightblue" d="M151,-101.805C151,-92.9102 151,-82.7798 151,-75.7511"/>
<polygon fill="midnightblue" stroke="midnightblue" points="147.5,-102.083 151,-112.083 154.5,-102.083 147.5,-102.083"/>
</g>
<!-- Node3 -->
<g id="node3" class="node"><title>Node3</title>
<g id="a_node3"><a xlink:href="../../da/d96/classparser_1_1nodes_1_1_syntax_node.html" target="_top" xlink:title="parser.nodes.SyntaxNode">
<polygon fill="white" stroke="black" points="81,-168.5 81,-187.5 221,-187.5 221,-168.5 81,-168.5"/>
<text text-anchor="middle" x="151" y="-175.5" font-family="Helvetica,sans-Serif" font-size="10.00">parser.nodes.SyntaxNode</text>
</a>
</g>
</g>
<!-- Node3&#45;&gt;Node2 -->
<g id="edge2" class="edge"><title>Node3&#45;&gt;Node2</title>
<path fill="none" stroke="midnightblue" d="M151,-157.805C151,-148.91 151,-138.78 151,-131.751"/>
<polygon fill="midnightblue" stroke="midnightblue" points="147.5,-158.083 151,-168.083 154.5,-158.083 147.5,-158.083"/>
</g>
</g>
</svg>
