<?xml version="1.0" encoding="UTF-8" standalone="no"?>
<!DOCTYPE svg PUBLIC "-//W3C//DTD SVG 1.1//EN"
 "http://www.w3.org/Graphics/SVG/1.1/DTD/svg11.dtd">
<!-- Generated by graphviz version 2.36.0 (20140111.2315)
 -->
<!-- Title: parser.nodes.BinaryNode Pages: 1 -->
<svg width="726pt" height="534pt"
 viewBox="0.00 0.00 726.00 534.00" xmlns="http://www.w3.org/2000/svg" xmlns:xlink="http://www.w3.org/1999/xlink">
<g id="graph0" class="graph" transform="scale(1 1) rotate(0) translate(4 530)">
<title>parser.nodes.BinaryNode</title>
<polygon fill="white" stroke="none" points="-4,4 -4,-530 722,-530 722,4 -4,4"/>
<!-- Node1 -->
<g id="node1" class="node"><title>Node1</title>
<polygon fill="#bfbfbf" stroke="black" points="176.5,-247.5 176.5,-266.5 313.5,-266.5 313.5,-247.5 176.5,-247.5"/>
<text text-anchor="middle" x="245" y="-254.5" font-family="Helvetica,sans-Serif" font-size="10.00">parser.nodes.BinaryNode</text>
</g>
<!-- Node3 -->
<g id="node3" class="node"><title>Node3</title>
<g id="a_node3"><a xlink:href="../../db/dea/classparser_1_1commands_1_1_ask.html" target="_top" xlink:title="parser.commands.Ask">
<polygon fill="white" stroke="black" points="373,-506.5 373,-525.5 497,-525.5 497,-506.5 373,-506.5"/>
<text text-anchor="middle" x="435" y="-513.5" font-family="Helvetica,sans-Serif" font-size="10.00">parser.commands.Ask</text>
</a>
</g>
</g>
<!-- Node1&#45;&gt;Node3 -->
<g id="edge2" class="edge"><title>Node1&#45;&gt;Node3</title>
<path fill="none" stroke="midnightblue" d="M248.586,-276.658C255.706,-322.563 279.952,-437.352 350,-496 356.667,-501.582 364.624,-505.661 372.946,-508.632"/>
<polygon fill="midnightblue" stroke="midnightblue" points="252.02,-275.945 247.128,-266.548 245.092,-276.945 252.02,-275.945"/>
</g>
<!-- Node5 -->
<g id="node5" class="node"><title>Node5</title>
<g id="a_node5"><a xlink:href="../../d2/d7d/classparser_1_1commands_1_1_binary_turtle_command.html" target="_top" xlink:title="parser.commands.BinaryTurtle\lCommand">
<polygon fill="white" stroke="black" points="354,-457 354,-487 516,-487 516,-457 354,-457"/>
<text text-anchor="start" x="362" y="-475" font-family="Helvetica,sans-Serif" font-size="10.00">parser.commands.BinaryTurtle</text>
<text text-anchor="middle" x="435" y="-464" font-family="Helvetica,sans-Serif" font-size="10.00">Command</text>
</a>
</g>
</g>
<!-- Node1&#45;&gt;Node5 -->
<g id="edge4" class="edge"><title>Node1&#45;&gt;Node5</title>
<path fill="none" stroke="midnightblue" d="M251.225,-276.506C262.547,-314.996 293.031,-400.967 350,-447 354.734,-450.825 360.039,-454.065 365.622,-456.81"/>
<polygon fill="midnightblue" stroke="midnightblue" points="254.509,-275.254 248.425,-266.58 247.771,-277.155 254.509,-275.254"/>
</g>
<!-- Node8 -->
<g id="node8" class="node"><title>Node8</title>
<g id="a_node8"><a xlink:href="../../d7/d4f/classparser_1_1commands_1_1_difference.html" target="_top" xlink:title="parser.commands.Difference">
<polygon fill="white" stroke="black" points="357.5,-418.5 357.5,-437.5 512.5,-437.5 512.5,-418.5 357.5,-418.5"/>
<text text-anchor="middle" x="435" y="-425.5" font-family="Helvetica,sans-Serif" font-size="10.00">parser.commands.Difference</text>
</a>
</g>
</g>
<!-- Node1&#45;&gt;Node8 -->
<g id="edge7" class="edge"><title>Node1&#45;&gt;Node8</title>
<path fill="none" stroke="midnightblue" d="M253.459,-276.02C267.289,-308.668 300.116,-375.121 350,-409 355.69,-412.864 362.047,-415.953 368.648,-418.421"/>
<polygon fill="midnightblue" stroke="midnightblue" points="256.668,-274.62 249.639,-266.692 250.19,-277.273 256.668,-274.62"/>
</g>
<!-- Node9 -->
<g id="node9" class="node"><title>Node9</title>
<g id="a_node9"><a xlink:href="../../d2/d28/classparser_1_1commands_1_1_equal.html" target="_top" xlink:title="parser.commands.Equal">
<polygon fill="white" stroke="black" points="368.5,-380.5 368.5,-399.5 501.5,-399.5 501.5,-380.5 368.5,-380.5"/>
<text text-anchor="middle" x="435" y="-387.5" font-family="Helvetica,sans-Serif" font-size="10.00">parser.commands.Equal</text>
</a>
</g>
</g>
<!-- Node1&#45;&gt;Node9 -->
<g id="edge8" class="edge"><title>Node1&#45;&gt;Node9</title>
<path fill="none" stroke="midnightblue" d="M257.312,-275.185C274.212,-300.752 308.545,-346.886 350,-371 356.721,-374.909 364.177,-378.014 371.792,-380.481"/>
<polygon fill="midnightblue" stroke="midnightblue" points="260.252,-273.286 251.893,-266.776 254.367,-277.078 260.252,-273.286"/>
</g>
<!-- Node10 -->
<g id="node10" class="node"><title>Node10</title>
<g id="a_node10"><a xlink:href="../../d7/d90/classparser_1_1commands_1_1_greater_than.html" target="_top" xlink:title="parser.commands.GreaterThan">
<polygon fill="white" stroke="black" points="351.5,-342.5 351.5,-361.5 518.5,-361.5 518.5,-342.5 351.5,-342.5"/>
<text text-anchor="middle" x="435" y="-349.5" font-family="Helvetica,sans-Serif" font-size="10.00">parser.commands.GreaterThan</text>
</a>
</g>
</g>
<!-- Node1&#45;&gt;Node10 -->
<g id="edge9" class="edge"><title>Node1&#45;&gt;Node10</title>
<path fill="none" stroke="midnightblue" d="M263.527,-273.351C283.119,-290.734 316.513,-317.773 350,-333 358.439,-336.837 367.717,-339.93 376.933,-342.414"/>
<polygon fill="midnightblue" stroke="midnightblue" points="265.778,-270.668 256.015,-266.555 261.082,-275.859 265.778,-270.668"/>
</g>
<!-- Node11 -->
<g id="node11" class="node"><title>Node11</title>
<g id="a_node11"><a xlink:href="../../d4/dea/classparser_1_1commands_1_1_if.html" target="_top" xlink:title="parser.commands.If">
<polygon fill="white" stroke="black" points="379,-304.5 379,-323.5 491,-323.5 491,-304.5 379,-304.5"/>
<text text-anchor="middle" x="435" y="-311.5" font-family="Helvetica,sans-Serif" font-size="10.00">parser.commands.If</text>
</a>
</g>
</g>
<!-- Node1&#45;&gt;Node11 -->
<g id="edge10" class="edge"><title>Node1&#45;&gt;Node11</title>
<path fill="none" stroke="midnightblue" d="M279.068,-270.312C299.329,-278.159 325.913,-287.907 350,-295 361.905,-298.506 374.92,-301.735 387.074,-304.499"/>
<polygon fill="midnightblue" stroke="midnightblue" points="280.257,-267.018 269.669,-266.632 277.705,-273.537 280.257,-267.018"/>
</g>
<!-- Node12 -->
<g id="node12" class="node"><title>Node12</title>
<g id="a_node12"><a xlink:href="../../d7/d87/classparser_1_1commands_1_1_less_than.html" target="_top" xlink:title="parser.commands.LessThan">
<polygon fill="white" stroke="black" points="359,-266.5 359,-285.5 511,-285.5 511,-266.5 359,-266.5"/>
<text text-anchor="middle" x="435" y="-273.5" font-family="Helvetica,sans-Serif" font-size="10.00">parser.commands.LessThan</text>
</a>
</g>
</g>
<!-- Node1&#45;&gt;Node12 -->
<g id="edge11" class="edge"><title>Node1&#45;&gt;Node12</title>
<path fill="none" stroke="midnightblue" d="M323.677,-264.85C335.257,-266.021 347.177,-267.225 358.707,-268.391"/>
<polygon fill="midnightblue" stroke="midnightblue" points="323.908,-261.356 313.607,-263.833 323.204,-268.32 323.908,-261.356"/>
</g>
<!-- Node13 -->
<g id="node13" class="node"><title>Node13</title>
<g id="a_node13"><a xlink:href="../../db/dce/classparser_1_1commands_1_1_looping_node.html" target="_top" xlink:title="parser.commands.LoopingNode">
<polygon fill="white" stroke="black" points="350,-228.5 350,-247.5 520,-247.5 520,-228.5 350,-228.5"/>
<text text-anchor="middle" x="435" y="-235.5" font-family="Helvetica,sans-Serif" font-size="10.00">parser.commands.LoopingNode</text>
</a>
</g>
</g>
<!-- Node1&#45;&gt;Node13 -->
<g id="edge12" class="edge"><title>Node1&#45;&gt;Node13</title>
<path fill="none" stroke="midnightblue" d="M323.679,-249.149C332.35,-248.273 341.212,-247.378 349.958,-246.494"/>
<polygon fill="midnightblue" stroke="midnightblue" points="323.204,-245.68 313.607,-250.167 323.908,-252.644 323.204,-245.68"/>
</g>
<!-- Node16 -->
<g id="node16" class="node"><title>Node16</title>
<g id="a_node16"><a xlink:href="../../d2/dce/classparser_1_1commands_1_1_make_variable.html" target="_top" xlink:title="parser.commands.MakeVariable">
<polygon fill="white" stroke="black" points="350,-190.5 350,-209.5 520,-209.5 520,-190.5 350,-190.5"/>
<text text-anchor="middle" x="435" y="-197.5" font-family="Helvetica,sans-Serif" font-size="10.00">parser.commands.MakeVariable</text>
</a>
</g>
</g>
<!-- Node1&#45;&gt;Node16 -->
<g id="edge15" class="edge"><title>Node1&#45;&gt;Node16</title>
<path fill="none" stroke="midnightblue" d="M279.068,-243.688C299.329,-235.841 325.913,-226.093 350,-219 361.905,-215.494 374.92,-212.265 387.074,-209.501"/>
<polygon fill="midnightblue" stroke="midnightblue" points="277.705,-240.463 269.669,-247.368 280.257,-246.982 277.705,-240.463"/>
</g>
<!-- Node17 -->
<g id="node17" class="node"><title>Node17</title>
<g id="a_node17"><a xlink:href="../../df/db7/classparser_1_1commands_1_1_not_equal.html" target="_top" xlink:title="parser.commands.NotEqual">
<polygon fill="white" stroke="black" points="360,-152.5 360,-171.5 510,-171.5 510,-152.5 360,-152.5"/>
<text text-anchor="middle" x="435" y="-159.5" font-family="Helvetica,sans-Serif" font-size="10.00">parser.commands.NotEqual</text>
</a>
</g>
</g>
<!-- Node1&#45;&gt;Node17 -->
<g id="edge16" class="edge"><title>Node1&#45;&gt;Node17</title>
<path fill="none" stroke="midnightblue" d="M263.527,-240.649C283.119,-223.266 316.513,-196.227 350,-181 358.439,-177.163 367.717,-174.07 376.933,-171.586"/>
<polygon fill="midnightblue" stroke="midnightblue" points="261.082,-238.141 256.015,-247.445 265.778,-243.332 261.082,-238.141"/>
</g>
<!-- Node18 -->
<g id="node18" class="node"><title>Node18</title>
<g id="a_node18"><a xlink:href="../../d6/da9/classparser_1_1commands_1_1_power.html" target="_top" xlink:title="parser.commands.Power">
<polygon fill="white" stroke="black" points="367.5,-114.5 367.5,-133.5 502.5,-133.5 502.5,-114.5 367.5,-114.5"/>
<text text-anchor="middle" x="435" y="-121.5" font-family="Helvetica,sans-Serif" font-size="10.00">parser.commands.Power</text>
</a>
</g>
</g>
<!-- Node1&#45;&gt;Node18 -->
<g id="edge17" class="edge"><title>Node1&#45;&gt;Node18</title>
<path fill="none" stroke="midnightblue" d="M257.312,-238.815C274.212,-213.248 308.545,-167.114 350,-143 356.721,-139.091 364.177,-135.986 371.792,-133.519"/>
<polygon fill="midnightblue" stroke="midnightblue" points="254.367,-236.922 251.893,-247.224 260.252,-240.714 254.367,-236.922"/>
</g>
<!-- Node19 -->
<g id="node19" class="node"><title>Node19</title>
<g id="a_node19"><a xlink:href="../../df/db0/classparser_1_1commands_1_1_quotient.html" target="_top" xlink:title="parser.commands.Quotient">
<polygon fill="white" stroke="black" points="361,-76.5 361,-95.5 509,-95.5 509,-76.5 361,-76.5"/>
<text text-anchor="middle" x="435" y="-83.5" font-family="Helvetica,sans-Serif" font-size="10.00">parser.commands.Quotient</text>
</a>
</g>
</g>
<!-- Node1&#45;&gt;Node19 -->
<g id="edge18" class="edge"><title>Node1&#45;&gt;Node19</title>
<path fill="none" stroke="midnightblue" d="M253.459,-237.98C267.289,-205.332 300.116,-138.879 350,-105 355.69,-101.136 362.047,-98.0469 368.648,-95.5794"/>
<polygon fill="midnightblue" stroke="midnightblue" points="250.19,-236.727 249.639,-247.308 256.668,-239.38 250.19,-236.727"/>
</g>
<!-- Node20 -->
<g id="node20" class="node"><title>Node20</title>
<g id="a_node20"><a xlink:href="../../d8/d67/classparser_1_1commands_1_1_remainder.html" target="_top" xlink:title="parser.commands.Remainder">
<polygon fill="white" stroke="black" points="356,-38.5 356,-57.5 514,-57.5 514,-38.5 356,-38.5"/>
<text text-anchor="middle" x="435" y="-45.5" font-family="Helvetica,sans-Serif" font-size="10.00">parser.commands.Remainder</text>
</a>
</g>
</g>
<!-- Node1&#45;&gt;Node20 -->
<g id="edge19" class="edge"><title>Node1&#45;&gt;Node20</title>
<path fill="none" stroke="midnightblue" d="M250.897,-237.414C261.7,-198.455 291.399,-111.199 350,-67 355.133,-63.1285 360.911,-60.0216 366.974,-57.5315"/>
<polygon fill="midnightblue" stroke="midnightblue" points="247.469,-236.686 248.291,-247.249 254.236,-238.478 247.469,-236.686"/>
</g>
<!-- Node21 -->
<g id="node21" class="node"><title>Node21</title>
<g id="a_node21"><a xlink:href="../../d1/de7/classparser_1_1commands_1_1_repeat.html" target="_top" xlink:title="parser.commands.Repeat">
<polygon fill="white" stroke="black" points="365,-0.5 365,-19.5 505,-19.5 505,-0.5 365,-0.5"/>
<text text-anchor="middle" x="435" y="-7.5" font-family="Helvetica,sans-Serif" font-size="10.00">parser.commands.Repeat</text>
</a>
</g>
</g>
<!-- Node1&#45;&gt;Node21 -->
<g id="edge20" class="edge"><title>Node1&#45;&gt;Node21</title>
<path fill="none" stroke="midnightblue" d="M248.996,-237.286C256.848,-192.764 282.302,-84.0415 350,-29 354.756,-25.1328 360.144,-22.0169 365.838,-19.5109"/>
<polygon fill="midnightblue" stroke="midnightblue" points="245.506,-236.939 247.33,-247.375 252.413,-238.079 245.506,-236.939"/>
</g>
<!-- Node2 -->
<g id="node2" class="node"><title>Node2</title>
<g id="a_node2"><a xlink:href="../../da/d96/classparser_1_1nodes_1_1_syntax_node.html" target="_top" xlink:title="parser.nodes.SyntaxNode">
<polygon fill="white" stroke="black" points="0,-247.5 0,-266.5 140,-266.5 140,-247.5 0,-247.5"/>
<text text-anchor="middle" x="70" y="-254.5" font-family="Helvetica,sans-Serif" font-size="10.00">parser.nodes.SyntaxNode</text>
</a>
</g>
</g>
<!-- Node2&#45;&gt;Node1 -->
<g id="edge1" class="edge"><title>Node2&#45;&gt;Node1</title>
<path fill="none" stroke="midnightblue" d="M150.448,-257C159.088,-257 167.823,-257 176.305,-257"/>
<polygon fill="midnightblue" stroke="midnightblue" points="150.369,-253.5 140.369,-257 150.369,-260.5 150.369,-253.5"/>
</g>
<!-- Node4 -->
<g id="node4" class="node"><title>Node4</title>
<g id="a_node4"><a xlink:href="../../d5/d51/classparser_1_1commands_1_1_ask_with.html" target="_top" xlink:title="parser.commands.AskWith">
<polygon fill="white" stroke="black" points="565,-506.5 565,-525.5 709,-525.5 709,-506.5 565,-506.5"/>
<text text-anchor="middle" x="637" y="-513.5" font-family="Helvetica,sans-Serif" font-size="10.00">parser.commands.AskWith</text>
</a>
</g>
</g>
<!-- Node3&#45;&gt;Node4 -->
<g id="edge3" class="edge"><title>Node3&#45;&gt;Node4</title>
<path fill="none" stroke="midnightblue" d="M507.296,-516C525.965,-516 546.091,-516 564.757,-516"/>
<polygon fill="midnightblue" stroke="midnightblue" points="507.093,-512.5 497.093,-516 507.093,-519.5 507.093,-512.5"/>
</g>
<!-- Node6 -->
<g id="node6" class="node"><title>Node6</title>
<g id="a_node6"><a xlink:href="../../df/d76/classparser_1_1commands_1_1_set_position.html" target="_top" xlink:title="parser.commands.SetPosition">
<polygon fill="white" stroke="black" points="556.5,-465.5 556.5,-484.5 717.5,-484.5 717.5,-465.5 556.5,-465.5"/>
<text text-anchor="middle" x="637" y="-472.5" font-family="Helvetica,sans-Serif" font-size="10.00">parser.commands.SetPosition</text>
</a>
</g>
</g>
<!-- Node5&#45;&gt;Node6 -->
<g id="edge5" class="edge"><title>Node5&#45;&gt;Node6</title>
<path fill="none" stroke="midnightblue" d="M526.214,-473.353C536.293,-473.504 546.506,-473.658 556.438,-473.807"/>
<polygon fill="midnightblue" stroke="midnightblue" points="526.247,-469.853 516.195,-473.203 526.142,-476.853 526.247,-469.853"/>
</g>
<!-- Node7 -->
<g id="node7" class="node"><title>Node7</title>
<g id="a_node7"><a xlink:href="../../d7/d12/classparser_1_1commands_1_1_set_towards.html" target="_top" xlink:title="parser.commands.SetTowards">
<polygon fill="white" stroke="black" points="556.5,-427.5 556.5,-446.5 717.5,-446.5 717.5,-427.5 556.5,-427.5"/>
<text text-anchor="middle" x="637" y="-434.5" font-family="Helvetica,sans-Serif" font-size="10.00">parser.commands.SetTowards</text>
</a>
</g>
</g>
<!-- Node5&#45;&gt;Node7 -->
<g id="edge6" class="edge"><title>Node5&#45;&gt;Node7</title>
<path fill="none" stroke="midnightblue" d="M526.305,-456.197C545.168,-452.896 564.495,-449.513 581.568,-446.526"/>
<polygon fill="midnightblue" stroke="midnightblue" points="525.442,-452.794 516.195,-457.966 526.649,-459.69 525.442,-452.794"/>
</g>
<!-- Node14 -->
<g id="node14" class="node"><title>Node14</title>
<g id="a_node14"><a xlink:href="../../d6/dde/classparser_1_1commands_1_1_do_times.html" target="_top" xlink:title="parser.commands.DoTimes">
<polygon fill="white" stroke="black" points="562.5,-247.5 562.5,-266.5 711.5,-266.5 711.5,-247.5 562.5,-247.5"/>
<text text-anchor="middle" x="637" y="-254.5" font-family="Helvetica,sans-Serif" font-size="10.00">parser.commands.DoTimes</text>
</a>
</g>
</g>
<!-- Node13&#45;&gt;Node14 -->
<g id="edge13" class="edge"><title>Node13&#45;&gt;Node14</title>
<path fill="none" stroke="midnightblue" d="M530.457,-246.973C541.16,-247.99 551.947,-249.015 562.327,-250.001"/>
<polygon fill="midnightblue" stroke="midnightblue" points="530.525,-243.464 520.238,-246.003 529.862,-250.433 530.525,-243.464"/>
</g>
<!-- Node15 -->
<g id="node15" class="node"><title>Node15</title>
<g id="a_node15"><a xlink:href="../../d3/d16/classparser_1_1commands_1_1_for.html" target="_top" xlink:title="parser.commands.For">
<polygon fill="white" stroke="black" points="576,-209.5 576,-228.5 698,-228.5 698,-209.5 576,-209.5"/>
<text text-anchor="middle" x="637" y="-216.5" font-family="Helvetica,sans-Serif" font-size="10.00">parser.commands.For</text>
</a>
</g>
</g>
<!-- Node13&#45;&gt;Node15 -->
<g id="edge14" class="edge"><title>Node13&#45;&gt;Node15</title>
<path fill="none" stroke="midnightblue" d="M530.366,-229.035C545.842,-227.565 561.498,-226.078 575.846,-224.715"/>
<polygon fill="midnightblue" stroke="midnightblue" points="529.862,-225.567 520.238,-229.997 530.525,-232.536 529.862,-225.567"/>
</g>
</g>
</svg>
