<?xml version="1.0" encoding="UTF-8" standalone="no"?>
<!DOCTYPE svg PUBLIC "-//W3C//DTD SVG 1.1//EN"
 "http://www.w3.org/Graphics/SVG/1.1/DTD/svg11.dtd">
<!-- Generated by graphviz version 2.36.0 (20140111.2315)
 -->
<!-- Title: view.dialogs.DialogBox.show Pages: 1 -->
<svg width="770pt" height="234pt"
 viewBox="0.00 0.00 770.00 234.00" xmlns="http://www.w3.org/2000/svg" xmlns:xlink="http://www.w3.org/1999/xlink">
<g id="graph0" class="graph" transform="scale(1 1) rotate(0) translate(4 230)">
<title>view.dialogs.DialogBox.show</title>
<polygon fill="white" stroke="none" points="-4,4 -4,-230 766,-230 766,4 -4,4"/>
<!-- Node1 -->
<g id="node1" class="node"><title>Node1</title>
<polygon fill="#bfbfbf" stroke="black" points="0.5,-56.5 0.5,-75.5 151.5,-75.5 151.5,-56.5 0.5,-56.5"/>
<text text-anchor="middle" x="76" y="-63.5" font-family="Helvetica,sans-Serif" font-size="10.00">view.dialogs.DialogBox.show</text>
</g>
<!-- Node2 -->
<g id="node2" class="node"><title>Node2</title>
<g id="a_node2"><a xlink:href="../../d3/dbe/classview_1_1_view.html#a4a0ca8adc68660017e319de54dedcb83" target="_top" xlink:title="view.View.showDialog">
<polygon fill="white" stroke="black" points="188.5,-78.5 188.5,-97.5 305.5,-97.5 305.5,-78.5 188.5,-78.5"/>
<text text-anchor="middle" x="247" y="-85.5" font-family="Helvetica,sans-Serif" font-size="10.00">view.View.showDialog</text>
</a>
</g>
</g>
<!-- Node1&#45;&gt;Node2 -->
<g id="edge1" class="edge"><title>Node1&#45;&gt;Node2</title>
<path fill="none" stroke="midnightblue" d="M160.361,-76.8517C169.804,-78.081 179.267,-79.3128 188.276,-80.4857"/>
<polygon fill="midnightblue" stroke="midnightblue" points="160.511,-73.3418 150.143,-75.5216 159.607,-80.2833 160.511,-73.3418"/>
</g>
<!-- Node10 -->
<g id="node10" class="node"><title>Node10</title>
<g id="a_node10"><a xlink:href="../../d3/dbe/classview_1_1_view.html#aacbd4ae00ce6787a1eacbaed76c8f36f" target="_top" xlink:title="view.View.showHelp">
<polygon fill="white" stroke="black" points="192.5,-35.5 192.5,-54.5 301.5,-54.5 301.5,-35.5 192.5,-35.5"/>
<text text-anchor="middle" x="247" y="-42.5" font-family="Helvetica,sans-Serif" font-size="10.00">view.View.showHelp</text>
</a>
</g>
</g>
<!-- Node1&#45;&gt;Node10 -->
<g id="edge9" class="edge"><title>Node1&#45;&gt;Node10</title>
<path fill="none" stroke="midnightblue" d="M161.617,-55.4855C172.067,-54.187 182.515,-52.8887 192.321,-51.6702"/>
<polygon fill="midnightblue" stroke="midnightblue" points="161.11,-52.0215 151.618,-56.728 161.973,-58.968 161.11,-52.0215"/>
</g>
<!-- Node3 -->
<g id="node3" class="node"><title>Node3</title>
<g id="a_node3"><a xlink:href="../../da/df5/classview_1_1listwindows_1_1_commands_list_window.html#a3611428a65d6e7a436971f1b237e644e" target="_top" xlink:title="view.listwindows.Commands\lListWindow.parseCommand">
<polygon fill="white" stroke="black" points="363,-147 363,-177 513,-177 513,-147 363,-147"/>
<text text-anchor="start" x="371" y="-165" font-family="Helvetica,sans-Serif" font-size="10.00">view.listwindows.Commands</text>
<text text-anchor="middle" x="438" y="-154" font-family="Helvetica,sans-Serif" font-size="10.00">ListWindow.parseCommand</text>
</a>
</g>
</g>
<!-- Node2&#45;&gt;Node3 -->
<g id="edge2" class="edge"><title>Node2&#45;&gt;Node3</title>
<path fill="none" stroke="midnightblue" d="M272.482,-102.696C291.05,-113.36 317.477,-127.519 342,-137 351.544,-140.69 361.833,-144.024 371.993,-146.965"/>
<polygon fill="midnightblue" stroke="midnightblue" points="274.192,-99.6424 263.79,-97.6306 270.667,-105.69 274.192,-99.6424"/>
</g>
<!-- Node6 -->
<g id="node6" class="node"><title>Node6</title>
<g id="a_node6"><a xlink:href="../../db/d98/classview_1_1components_1_1_command_port.html#a687e2098038140e833e1bac1a759b587" target="_top" xlink:title="view.components.CommandPort.run\lCommand">
<polygon fill="white" stroke="black" points="342.5,-98 342.5,-128 533.5,-128 533.5,-98 342.5,-98"/>
<text text-anchor="start" x="350.5" y="-116" font-family="Helvetica,sans-Serif" font-size="10.00">view.components.CommandPort.run</text>
<text text-anchor="middle" x="438" y="-105" font-family="Helvetica,sans-Serif" font-size="10.00">Command</text>
</a>
</g>
</g>
<!-- Node2&#45;&gt;Node6 -->
<g id="edge5" class="edge"><title>Node2&#45;&gt;Node6</title>
<path fill="none" stroke="midnightblue" d="M315.723,-96.958C324.377,-98.1028 333.357,-99.2907 342.34,-100.479"/>
<polygon fill="midnightblue" stroke="midnightblue" points="316.106,-93.4783 305.733,-95.6367 315.188,-100.418 316.106,-93.4783"/>
</g>
<!-- Node9 -->
<g id="node9" class="node"><title>Node9</title>
<g id="a_node9"><a xlink:href="../../d2/d1d/classmodel_1_1_variable_string.html#a10995e85337a47efad5c2591eeda95bd" target="_top" xlink:title="model.VariableString.set\lValue">
<polygon fill="white" stroke="black" points="371,-49 371,-79 505,-79 505,-49 371,-49"/>
<text text-anchor="start" x="379" y="-67" font-family="Helvetica,sans-Serif" font-size="10.00">model.VariableString.set</text>
<text text-anchor="middle" x="438" y="-56" font-family="Helvetica,sans-Serif" font-size="10.00">Value</text>
</a>
</g>
</g>
<!-- Node2&#45;&gt;Node9 -->
<g id="edge8" class="edge"><title>Node2&#45;&gt;Node9</title>
<path fill="none" stroke="midnightblue" d="M316.032,-79.3611C333.826,-77.1015 352.982,-74.669 370.685,-72.4209"/>
<polygon fill="midnightblue" stroke="midnightblue" points="315.213,-75.9369 305.733,-80.6688 316.094,-82.8811 315.213,-75.9369"/>
</g>
<!-- Node4 -->
<g id="node4" class="node"><title>Node4</title>
<g id="a_node4"><a xlink:href="../../df/d26/classview_1_1listwindows_1_1_commands_history_window.html#af341417d427f8b0548670f1efbb3acac" target="_top" xlink:title="view.listwindows.Commands\lHistoryWindow.setButtonAction">
<polygon fill="white" stroke="black" points="583.5,-196 583.5,-226 748.5,-226 748.5,-196 583.5,-196"/>
<text text-anchor="start" x="591.5" y="-214" font-family="Helvetica,sans-Serif" font-size="10.00">view.listwindows.Commands</text>
<text text-anchor="middle" x="666" y="-203" font-family="Helvetica,sans-Serif" font-size="10.00">HistoryWindow.setButtonAction</text>
</a>
</g>
</g>
<!-- Node3&#45;&gt;Node4 -->
<g id="edge3" class="edge"><title>Node3&#45;&gt;Node4</title>
<path fill="none" stroke="midnightblue" d="M518.263,-179.185C543.535,-184.665 571.286,-190.682 595.788,-195.994"/>
<polygon fill="midnightblue" stroke="midnightblue" points="518.858,-175.733 508.343,-177.035 517.375,-182.574 518.858,-175.733"/>
</g>
<!-- Node5 -->
<g id="node5" class="node"><title>Node5</title>
<g id="a_node5"><a xlink:href="../../d7/dc7/classview_1_1listwindows_1_1_user_defined_commands_window.html#adaf32233789f6a07c42b4e459699bf53" target="_top" xlink:title="view.listwindows.UserDefined\lCommandsWindow.setButtonAction">
<polygon fill="white" stroke="black" points="572.5,-147 572.5,-177 759.5,-177 759.5,-147 572.5,-147"/>
<text text-anchor="start" x="580.5" y="-165" font-family="Helvetica,sans-Serif" font-size="10.00">view.listwindows.UserDefined</text>
<text text-anchor="middle" x="666" y="-154" font-family="Helvetica,sans-Serif" font-size="10.00">CommandsWindow.setButtonAction</text>
</a>
</g>
</g>
<!-- Node3&#45;&gt;Node5 -->
<g id="edge4" class="edge"><title>Node3&#45;&gt;Node5</title>
<path fill="none" stroke="midnightblue" d="M523.348,-162C539.295,-162 556.058,-162 572.247,-162"/>
<polygon fill="midnightblue" stroke="midnightblue" points="523.001,-158.5 513.001,-162 523.001,-165.5 523.001,-158.5"/>
</g>
<!-- Node7 -->
<g id="node7" class="node"><title>Node7</title>
<g id="a_node7"><a xlink:href="../../db/d98/classview_1_1components_1_1_command_port.html#a37ae451233579691839c4a52072c94e9" target="_top" xlink:title="view.components.CommandPort.\lCommandPort">
<polygon fill="white" stroke="black" points="578.5,-98 578.5,-128 753.5,-128 753.5,-98 578.5,-98"/>
<text text-anchor="start" x="586.5" y="-116" font-family="Helvetica,sans-Serif" font-size="10.00">view.components.CommandPort.</text>
<text text-anchor="middle" x="666" y="-105" font-family="Helvetica,sans-Serif" font-size="10.00">CommandPort</text>
</a>
</g>
</g>
<!-- Node6&#45;&gt;Node7 -->
<g id="edge6" class="edge"><title>Node6&#45;&gt;Node7</title>
<path fill="none" stroke="midnightblue" d="M543.702,-113C555.321,-113 567.056,-113 578.415,-113"/>
<polygon fill="midnightblue" stroke="midnightblue" points="543.535,-109.5 533.535,-113 543.535,-116.5 543.535,-109.5"/>
</g>
<!-- Node8 -->
<g id="node8" class="node"><title>Node8</title>
<g id="a_node8"><a xlink:href="../../db/d98/classview_1_1components_1_1_command_port.html#afcdcfbfa864e7438dc0f0a3f1c541294" target="_top" xlink:title="view.components.CommandPort.run\lCommand">
<polygon fill="white" stroke="black" points="570.5,-49 570.5,-79 761.5,-79 761.5,-49 570.5,-49"/>
<text text-anchor="start" x="578.5" y="-67" font-family="Helvetica,sans-Serif" font-size="10.00">view.components.CommandPort.run</text>
<text text-anchor="middle" x="666" y="-56" font-family="Helvetica,sans-Serif" font-size="10.00">Command</text>
</a>
</g>
</g>
<!-- Node6&#45;&gt;Node8 -->
<g id="edge7" class="edge"><title>Node6&#45;&gt;Node8</title>
<path fill="none" stroke="midnightblue" d="M518.263,-95.8146C543.535,-90.3353 571.286,-84.3185 595.788,-79.0062"/>
<polygon fill="midnightblue" stroke="midnightblue" points="517.375,-92.4259 508.343,-97.9654 518.858,-99.2669 517.375,-92.4259"/>
</g>
<!-- Node11 -->
<g id="node11" class="node"><title>Node11</title>
<g id="a_node11"><a xlink:href="../../da/da8/classview_1_1components_1_1_s_logo_menu_bar.html#a3cc248b5d32b90a011d060bbac6e778e" target="_top" xlink:title="view.components.SLogoMenu\lBar.makeHelpMenu">
<polygon fill="white" stroke="black" points="359,-0 359,-30 517,-30 517,-0 359,-0"/>
<text text-anchor="start" x="367" y="-18" font-family="Helvetica,sans-Serif" font-size="10.00">view.components.SLogoMenu</text>
<text text-anchor="middle" x="438" y="-7" font-family="Helvetica,sans-Serif" font-size="10.00">Bar.makeHelpMenu</text>
</a>
</g>
</g>
<!-- Node10&#45;&gt;Node11 -->
<g id="edge10" class="edge"><title>Node10&#45;&gt;Node11</title>
<path fill="none" stroke="midnightblue" d="M311.891,-34.8586C326.978,-32.4638 343.232,-29.8839 358.869,-27.4018"/>
<polygon fill="midnightblue" stroke="midnightblue" points="310.982,-31.459 301.654,-36.4834 312.079,-38.3724 310.982,-31.459"/>
</g>
<!-- Node12 -->
<g id="node12" class="node"><title>Node12</title>
<g id="a_node12"><a xlink:href="../../da/da8/classview_1_1components_1_1_s_logo_menu_bar.html#afbe8434fba1476e5cbe7401c6bc158ec" target="_top" xlink:title="view.components.SLogoMenu\lBar.SLogoMenuBar">
<polygon fill="white" stroke="black" points="587,-0 587,-30 745,-30 745,-0 587,-0"/>
<text text-anchor="start" x="595" y="-18" font-family="Helvetica,sans-Serif" font-size="10.00">view.components.SLogoMenu</text>
<text text-anchor="middle" x="666" y="-7" font-family="Helvetica,sans-Serif" font-size="10.00">Bar.SLogoMenuBar</text>
</a>
</g>
</g>
<!-- Node11&#45;&gt;Node12 -->
<g id="edge11" class="edge"><title>Node11&#45;&gt;Node12</title>
<path fill="none" stroke="midnightblue" d="M527.272,-15C546.947,-15 567.673,-15 586.904,-15"/>
<polygon fill="midnightblue" stroke="midnightblue" points="527.093,-11.5001 517.093,-15 527.093,-18.5001 527.093,-11.5001"/>
</g>
</g>
</svg>
