<?xml version="1.0" encoding="UTF-8" standalone="no"?>
<!DOCTYPE svg PUBLIC "-//W3C//DTD SVG 1.1//EN"
 "http://www.w3.org/Graphics/SVG/1.1/DTD/svg11.dtd">
<!-- Generated by graphviz version 2.36.0 (20140111.2315)
 -->
<!-- Title: parser.commands.Tell.execute Pages: 1 -->
<svg width="722pt" height="147pt"
 viewBox="0.00 0.00 722.00 147.00" xmlns="http://www.w3.org/2000/svg" xmlns:xlink="http://www.w3.org/1999/xlink">
<g id="graph0" class="graph" transform="scale(1 1) rotate(0) translate(4 143)">
<title>parser.commands.Tell.execute</title>
<polygon fill="white" stroke="none" points="-4,4 -4,-143 718,-143 718,4 -4,4"/>
<!-- Node1 -->
<g id="node1" class="node"><title>Node1</title>
<polygon fill="#bfbfbf" stroke="black" points="0,-57.5 0,-76.5 162,-76.5 162,-57.5 0,-57.5"/>
<text text-anchor="middle" x="81" y="-64.5" font-family="Helvetica,sans-Serif" font-size="10.00">parser.commands.Tell.execute</text>
</g>
<!-- Node2 -->
<g id="node2" class="node"><title>Node2</title>
<g id="a_node2"><a xlink:href="../../d9/dea/classmodel_1_1_turtle_multiple.html#a5d8a36f60191801dfdcfe491f5b62966" target="_top" xlink:title="model.TurtleMultiple.deactiveAll">
<polygon fill="white" stroke="black" points="205.5,-114.5 205.5,-133.5 372.5,-133.5 372.5,-114.5 205.5,-114.5"/>
<text text-anchor="middle" x="289" y="-121.5" font-family="Helvetica,sans-Serif" font-size="10.00">model.TurtleMultiple.deactiveAll</text>
</a>
</g>
</g>
<!-- Node1&#45;&gt;Node2 -->
<g id="edge1" class="edge"><title>Node1&#45;&gt;Node2</title>
<path fill="none" stroke="midnightblue" d="M108.476,-76.5832C131.829,-84.8167 166.89,-96.647 198,-105 207.601,-107.578 217.854,-110.025 227.875,-112.254"/>
<polygon fill="midnightblue" stroke="midnightblue" points="227.27,-115.704 237.785,-114.406 228.756,-108.863 227.27,-115.704"/>
</g>
<!-- Node5 -->
<g id="node5" class="node"><title>Node5</title>
<g id="a_node5"><a xlink:href="../../da/d96/classparser_1_1nodes_1_1_syntax_node.html#a21b459bd103a7f1f3a1a5f52bb3b3132" target="_top" xlink:title="parser.nodes.SyntaxNode.execute">
<polygon fill="white" stroke="black" points="198,-76.5 198,-95.5 380,-95.5 380,-76.5 198,-76.5"/>
<text text-anchor="middle" x="289" y="-83.5" font-family="Helvetica,sans-Serif" font-size="10.00">parser.nodes.SyntaxNode.execute</text>
</a>
</g>
</g>
<!-- Node1&#45;&gt;Node5 -->
<g id="edge4" class="edge"><title>Node1&#45;&gt;Node5</title>
<path fill="none" stroke="midnightblue" d="M162.235,-74.4003C170.598,-75.1717 179.172,-75.9625 187.722,-76.751"/>
<polygon fill="midnightblue" stroke="midnightblue" points="187.453,-80.241 197.732,-77.6743 188.096,-73.2706 187.453,-80.241"/>
</g>
<!-- Node6 -->
<g id="node6" class="node"><title>Node6</title>
<g id="a_node6"><a xlink:href="../../d4/d1c/classparser_1_1nodes_1_1_list_node.html#a20dc3121f383968aade0535bbe80b015" target="_top" xlink:title="parser.nodes.ListNode.getNode">
<polygon fill="white" stroke="black" points="205,-38.5 205,-57.5 373,-57.5 373,-38.5 205,-38.5"/>
<text text-anchor="middle" x="289" y="-45.5" font-family="Helvetica,sans-Serif" font-size="10.00">parser.nodes.ListNode.getNode</text>
</a>
</g>
</g>
<!-- Node1&#45;&gt;Node6 -->
<g id="edge5" class="edge"><title>Node1&#45;&gt;Node6</title>
<path fill="none" stroke="midnightblue" d="M162.235,-59.5997C172.96,-58.6105 184.032,-57.5893 194.953,-56.582"/>
<polygon fill="midnightblue" stroke="midnightblue" points="195.29,-60.0659 204.926,-55.6621 194.647,-53.0955 195.29,-60.0659"/>
</g>
<!-- Node7 -->
<g id="node7" class="node"><title>Node7</title>
<g id="a_node7"><a xlink:href="../../d4/d1c/classparser_1_1nodes_1_1_list_node.html#a06d95a825392910e4f1744c706c658df" target="_top" xlink:title="parser.nodes.ListNode.getSize">
<polygon fill="white" stroke="black" points="207.5,-0.5 207.5,-19.5 370.5,-19.5 370.5,-0.5 207.5,-0.5"/>
<text text-anchor="middle" x="289" y="-7.5" font-family="Helvetica,sans-Serif" font-size="10.00">parser.nodes.ListNode.getSize</text>
</a>
</g>
</g>
<!-- Node1&#45;&gt;Node7 -->
<g id="edge6" class="edge"><title>Node1&#45;&gt;Node7</title>
<path fill="none" stroke="midnightblue" d="M108.476,-57.4168C131.829,-49.1833 166.89,-37.353 198,-29 207.601,-26.4222 217.854,-23.9746 227.875,-21.7463"/>
<polygon fill="midnightblue" stroke="midnightblue" points="228.756,-25.1367 237.785,-19.5944 227.27,-18.296 228.756,-25.1367"/>
</g>
<!-- Node3 -->
<g id="node3" class="node"><title>Node3</title>
<g id="a_node3"><a xlink:href="../../d9/dea/classmodel_1_1_turtle_multiple.html#a39a093480efa352c2066e4ef8534f26e" target="_top" xlink:title="model.TurtleMultiple.get\lStream">
<polygon fill="white" stroke="black" points="416.5,-109 416.5,-139 547.5,-139 547.5,-109 416.5,-109"/>
<text text-anchor="start" x="424.5" y="-127" font-family="Helvetica,sans-Serif" font-size="10.00">model.TurtleMultiple.get</text>
<text text-anchor="middle" x="482" y="-116" font-family="Helvetica,sans-Serif" font-size="10.00">Stream</text>
</a>
</g>
</g>
<!-- Node2&#45;&gt;Node3 -->
<g id="edge2" class="edge"><title>Node2&#45;&gt;Node3</title>
<path fill="none" stroke="midnightblue" d="M372.665,-124C383.857,-124 395.289,-124 406.331,-124"/>
<polygon fill="midnightblue" stroke="midnightblue" points="406.343,-127.5 416.343,-124 406.343,-120.5 406.343,-127.5"/>
</g>
<!-- Node4 -->
<g id="node4" class="node"><title>Node4</title>
<g id="a_node4"><a xlink:href="../../d9/dea/classmodel_1_1_turtle_multiple.html#a47e5a06bab25ead16ef3098a4257aa4b" target="_top" xlink:title="model.TurtleMultiple.set\lLastTurtle">
<polygon fill="white" stroke="black" points="584,-109 584,-139 714,-139 714,-109 584,-109"/>
<text text-anchor="start" x="592" y="-127" font-family="Helvetica,sans-Serif" font-size="10.00">model.TurtleMultiple.set</text>
<text text-anchor="middle" x="649" y="-116" font-family="Helvetica,sans-Serif" font-size="10.00">LastTurtle</text>
</a>
</g>
</g>
<!-- Node3&#45;&gt;Node4 -->
<g id="edge3" class="edge"><title>Node3&#45;&gt;Node4</title>
<path fill="none" stroke="midnightblue" d="M547.739,-124C556.305,-124 565.138,-124 573.847,-124"/>
<polygon fill="midnightblue" stroke="midnightblue" points="573.989,-127.5 583.989,-124 573.989,-120.5 573.989,-127.5"/>
</g>
</g>
</svg>
