<?xml version="1.0" encoding="UTF-8" standalone="no"?>
<!DOCTYPE svg PUBLIC "-//W3C//DTD SVG 1.1//EN"
 "http://www.w3.org/Graphics/SVG/1.1/DTD/svg11.dtd">
<!-- Generated by graphviz version 2.36.0 (20140111.2315)
 -->
<!-- Title: view.dialogs.MessageDialogBox Pages: 1 -->
<svg width="368pt" height="196pt"
 viewBox="0.00 0.00 368.00 196.00" xmlns="http://www.w3.org/2000/svg" xmlns:xlink="http://www.w3.org/1999/xlink">
<g id="graph0" class="graph" transform="scale(1 1) rotate(0) translate(4 192)">
<title>view.dialogs.MessageDialogBox</title>
<polygon fill="white" stroke="none" points="-4,4 -4,-192 364,-192 364,4 -4,4"/>
<!-- Node1 -->
<g id="node1" class="node"><title>Node1</title>
<polygon fill="#bfbfbf" stroke="black" points="98.5,-112.5 98.5,-131.5 265.5,-131.5 265.5,-112.5 98.5,-112.5"/>
<text text-anchor="middle" x="182" y="-119.5" font-family="Helvetica,sans-Serif" font-size="10.00">view.dialogs.MessageDialogBox</text>
</g>
<!-- Node3 -->
<g id="node3" class="node"><title>Node3</title>
<g id="a_node3"><a xlink:href="../../d0/de5/classview_1_1dialogs_1_1_input_dialog_box.html" target="_top" xlink:title="view.dialogs.InputDialogBox">
<polygon fill="white" stroke="black" points="108,-56.5 108,-75.5 256,-75.5 256,-56.5 108,-56.5"/>
<text text-anchor="middle" x="182" y="-63.5" font-family="Helvetica,sans-Serif" font-size="10.00">view.dialogs.InputDialogBox</text>
</a>
</g>
</g>
<!-- Node1&#45;&gt;Node3 -->
<g id="edge2" class="edge"><title>Node1&#45;&gt;Node3</title>
<path fill="none" stroke="midnightblue" d="M182,-101.805C182,-92.9102 182,-82.7798 182,-75.7511"/>
<polygon fill="midnightblue" stroke="midnightblue" points="178.5,-102.083 182,-112.083 185.5,-102.083 178.5,-102.083"/>
</g>
<!-- Node2 -->
<g id="node2" class="node"><title>Node2</title>
<g id="a_node2"><a xlink:href="../../d2/d9f/classview_1_1dialogs_1_1_dialog_box.html" target="_top" xlink:title="view.dialogs.DialogBox">
<polygon fill="white" stroke="black" points="120,-168.5 120,-187.5 244,-187.5 244,-168.5 120,-168.5"/>
<text text-anchor="middle" x="182" y="-175.5" font-family="Helvetica,sans-Serif" font-size="10.00">view.dialogs.DialogBox</text>
</a>
</g>
</g>
<!-- Node2&#45;&gt;Node1 -->
<g id="edge1" class="edge"><title>Node2&#45;&gt;Node1</title>
<path fill="none" stroke="midnightblue" d="M182,-157.805C182,-148.91 182,-138.78 182,-131.751"/>
<polygon fill="midnightblue" stroke="midnightblue" points="178.5,-158.083 182,-168.083 185.5,-158.083 178.5,-158.083"/>
</g>
<!-- Node4 -->
<g id="node4" class="node"><title>Node4</title>
<g id="a_node4"><a xlink:href="../../d5/d77/classview_1_1dialogs_1_1_languages_dialog_box.html" target="_top" xlink:title="view.dialogs.LanguagesDialogBox">
<polygon fill="white" stroke="black" points="0,-0.5 0,-19.5 176,-19.5 176,-0.5 0,-0.5"/>
<text text-anchor="middle" x="88" y="-7.5" font-family="Helvetica,sans-Serif" font-size="10.00">view.dialogs.LanguagesDialogBox</text>
</a>
</g>
</g>
<!-- Node3&#45;&gt;Node4 -->
<g id="edge3" class="edge"><title>Node3&#45;&gt;Node4</title>
<path fill="none" stroke="midnightblue" d="M157.938,-51.1774C140.641,-41.2407 117.852,-28.1492 103.065,-19.6545"/>
<polygon fill="midnightblue" stroke="midnightblue" points="156.483,-54.3775 166.897,-56.324 159.97,-48.3078 156.483,-54.3775"/>
</g>
<!-- Node5 -->
<g id="node5" class="node"><title>Node5</title>
<g id="a_node5"><a xlink:href="../../da/d22/classview_1_1dialogs_1_1_text_input_dialog_box.html" target="_top" xlink:title="view.dialogs.TextInputDialogBox">
<polygon fill="white" stroke="black" points="193.5,-0.5 193.5,-19.5 360.5,-19.5 360.5,-0.5 193.5,-0.5"/>
<text text-anchor="middle" x="277" y="-7.5" font-family="Helvetica,sans-Serif" font-size="10.00">view.dialogs.TextInputDialogBox</text>
</a>
</g>
</g>
<!-- Node3&#45;&gt;Node5 -->
<g id="edge4" class="edge"><title>Node3&#45;&gt;Node5</title>
<path fill="none" stroke="midnightblue" d="M206.318,-51.1774C223.799,-41.2407 246.83,-28.1492 261.774,-19.6545"/>
<polygon fill="midnightblue" stroke="midnightblue" points="204.227,-48.3395 197.263,-56.324 207.687,-54.425 204.227,-48.3395"/>
</g>
</g>
</svg>
