<?xml version="1.0" encoding="UTF-8" standalone="no"?>
<!DOCTYPE svg PUBLIC "-//W3C//DTD SVG 1.1//EN"
 "http://www.w3.org/Graphics/SVG/1.1/DTD/svg11.dtd">
<!-- Generated by graphviz version 2.36.0 (20140111.2315)
 -->
<!-- Title: parser.commands.SimpleTurtleCommand Pages: 1 -->
<svg width="172pt" height="166pt"
 viewBox="0.00 0.00 172.00 166.00" xmlns="http://www.w3.org/2000/svg" xmlns:xlink="http://www.w3.org/1999/xlink">
<g id="graph0" class="graph" transform="scale(1 1) rotate(0) translate(4 162)">
<title>parser.commands.SimpleTurtleCommand</title>
<polygon fill="white" stroke="none" points="-4,4 -4,-162 168,-162 168,4 -4,4"/>
<!-- Node1 -->
<g id="node1" class="node"><title>Node1</title>
<polygon fill="#bfbfbf" stroke="black" points="-0.5,-1 -0.5,-31 164.5,-31 164.5,-1 -0.5,-1"/>
<text text-anchor="start" x="7.5" y="-19" font-family="Helvetica,sans-Serif" font-size="10.00">parser.commands.SimpleTurtle</text>
<text text-anchor="middle" x="82" y="-8" font-family="Helvetica,sans-Serif" font-size="10.00">Command</text>
</g>
<!-- Node2 -->
<g id="node2" class="node"><title>Node2</title>
<g id="a_node2"><a xlink:href="../../d3/d36/classparser_1_1nodes_1_1_unary_node.html" target="_top" xlink:title="parser.nodes.UnaryNode">
<polygon fill="white" stroke="black" points="14,-70.5 14,-89.5 150,-89.5 150,-70.5 14,-70.5"/>
<text text-anchor="middle" x="82" y="-77.5" font-family="Helvetica,sans-Serif" font-size="10.00">parser.nodes.UnaryNode</text>
</a>
</g>
</g>
<!-- Node2&#45;&gt;Node1 -->
<g id="edge1" class="edge"><title>Node2&#45;&gt;Node1</title>
<path fill="none" stroke="midnightblue" d="M82,-60.1826C82,-50.8859 82,-39.8507 82,-31.263"/>
<polygon fill="midnightblue" stroke="midnightblue" points="78.5001,-60.3791 82,-70.3792 85.5001,-60.3792 78.5001,-60.3791"/>
</g>
<!-- Node3 -->
<g id="node3" class="node"><title>Node3</title>
<g id="a_node3"><a xlink:href="../../da/d96/classparser_1_1nodes_1_1_syntax_node.html" target="_top" xlink:title="parser.nodes.SyntaxNode">
<polygon fill="white" stroke="black" points="12,-138.5 12,-157.5 152,-157.5 152,-138.5 12,-138.5"/>
<text text-anchor="middle" x="82" y="-145.5" font-family="Helvetica,sans-Serif" font-size="10.00">parser.nodes.SyntaxNode</text>
</a>
</g>
</g>
<!-- Node3&#45;&gt;Node2 -->
<g id="edge2" class="edge"><title>Node3&#45;&gt;Node2</title>
<path fill="none" stroke="midnightblue" d="M80.4399,-128.382C80.2572,-125.575 80.1003,-122.713 80,-120 79.6141,-109.566 80.4162,-97.5725 81.1167,-89.6712"/>
<polygon fill="midnightblue" stroke="midnightblue" points="76.9607,-128.791 81.2083,-138.497 83.9406,-128.26 76.9607,-128.791"/>
</g>
<!-- Node3&#45;&gt;Node2 -->
<g id="edge3" class="edge"><title>Node3&#45;&gt;Node2</title>
<path fill="none" stroke="#9a32cd" stroke-dasharray="5,2" d="M82,-128.041C82,-115.472 82,-99.5631 82,-89.8411"/>
<polygon fill="#9a32cd" stroke="#9a32cd" points="78.5001,-128.372 82,-138.372 85.5001,-128.372 78.5001,-128.372"/>
<text text-anchor="middle" x="119.5" y="-111.5" font-family="Helvetica,sans-Serif" font-size="10.00"> referenceNode</text>
</g>
</g>
</svg>
