<?xml version="1.0" encoding="UTF-8" standalone="no"?>
<!DOCTYPE svg PUBLIC "-//W3C//DTD SVG 1.1//EN"
 "http://www.w3.org/Graphics/SVG/1.1/DTD/svg11.dtd">
<!-- Generated by graphviz version 2.36.0 (20140111.2315)
 -->
<!-- Title: model.Coordinates.addCoordinates Pages: 1 -->
<svg width="584pt" height="87pt"
 viewBox="0.00 0.00 584.00 87.00" xmlns="http://www.w3.org/2000/svg" xmlns:xlink="http://www.w3.org/1999/xlink">
<g id="graph0" class="graph" transform="scale(1 1) rotate(0) translate(4 83)">
<title>model.Coordinates.addCoordinates</title>
<polygon fill="white" stroke="none" points="-4,4 -4,-83 580,-83 580,4 -4,4"/>
<!-- Node1 -->
<g id="node1" class="node"><title>Node1</title>
<polygon fill="#bfbfbf" stroke="black" points="0,-29.5 0,-48.5 186,-48.5 186,-29.5 0,-29.5"/>
<text text-anchor="middle" x="93" y="-36.5" font-family="Helvetica,sans-Serif" font-size="10.00">model.Coordinates.addCoordinates</text>
</g>
<!-- Node2 -->
<g id="node2" class="node"><title>Node2</title>
<g id="a_node2"><a xlink:href="../../da/d88/classmodel_1_1_turtle_single.html#a9565e73b577c886fd15470d9b108a573" target="_top" xlink:title="model.TurtleSingle.moveDistance">
<polygon fill="white" stroke="black" points="222,-52.5 222,-71.5 398,-71.5 398,-52.5 222,-52.5"/>
<text text-anchor="middle" x="310" y="-59.5" font-family="Helvetica,sans-Serif" font-size="10.00">model.TurtleSingle.moveDistance</text>
</a>
</g>
</g>
<!-- Node1&#45;&gt;Node2 -->
<g id="edge1" class="edge"><title>Node1&#45;&gt;Node2</title>
<path fill="none" stroke="midnightblue" d="M192.978,-49.5883C202.596,-50.6172 212.306,-51.656 221.796,-52.6712"/>
<polygon fill="midnightblue" stroke="midnightblue" points="193.316,-46.1046 183.001,-48.521 192.572,-53.0649 193.316,-46.1046"/>
</g>
<!-- Node4 -->
<g id="node4" class="node"><title>Node4</title>
<g id="a_node4"><a xlink:href="../../da/d88/classmodel_1_1_turtle_single.html#afd2d49972b498f78ddb54fab9e70f221" target="_top" xlink:title="model.TurtleSingle.moveTo\lPosition">
<polygon fill="white" stroke="black" points="238,-2 238,-32 382,-32 382,-2 238,-2"/>
<text text-anchor="start" x="246" y="-20" font-family="Helvetica,sans-Serif" font-size="10.00">model.TurtleSingle.moveTo</text>
<text text-anchor="middle" x="310" y="-9" font-family="Helvetica,sans-Serif" font-size="10.00">Position</text>
</a>
</g>
</g>
<!-- Node1&#45;&gt;Node4 -->
<g id="edge3" class="edge"><title>Node1&#45;&gt;Node4</title>
<path fill="none" stroke="midnightblue" d="M196.314,-28.5306C210.369,-27.0925 224.542,-25.6422 237.87,-24.2784"/>
<polygon fill="midnightblue" stroke="midnightblue" points="195.707,-25.0744 186.115,-29.5743 196.419,-32.0381 195.707,-25.0744"/>
</g>
<!-- Node3 -->
<g id="node3" class="node"><title>Node3</title>
<g id="a_node3"><a xlink:href="../../d9/dea/classmodel_1_1_turtle_multiple.html#a49086cf96575756ecc4a1070aef50aa7" target="_top" xlink:title="model.TurtleMultiple.move\lDistance">
<polygon fill="white" stroke="black" points="434,-49 434,-79 576,-79 576,-49 434,-49"/>
<text text-anchor="start" x="442" y="-67" font-family="Helvetica,sans-Serif" font-size="10.00">model.TurtleMultiple.move</text>
<text text-anchor="middle" x="505" y="-56" font-family="Helvetica,sans-Serif" font-size="10.00">Distance</text>
</a>
</g>
</g>
<!-- Node2&#45;&gt;Node3 -->
<g id="edge2" class="edge"><title>Node2&#45;&gt;Node3</title>
<path fill="none" stroke="midnightblue" d="M408.327,-63.0086C416.979,-63.0982 425.621,-63.1878 433.977,-63.2744"/>
<polygon fill="midnightblue" stroke="midnightblue" points="408.219,-59.5074 398.183,-62.9035 408.146,-66.507 408.219,-59.5074"/>
</g>
<!-- Node5 -->
<g id="node5" class="node"><title>Node5</title>
<g id="a_node5"><a xlink:href="../../d9/dea/classmodel_1_1_turtle_multiple.html#ab96e6d9114df066c4a1a5fc670742abb" target="_top" xlink:title="model.TurtleMultiple.move\lToPosition">
<polygon fill="white" stroke="black" points="434,-0 434,-30 576,-30 576,-0 434,-0"/>
<text text-anchor="start" x="442" y="-18" font-family="Helvetica,sans-Serif" font-size="10.00">model.TurtleMultiple.move</text>
<text text-anchor="middle" x="505" y="-7" font-family="Helvetica,sans-Serif" font-size="10.00">ToPosition</text>
</a>
</g>
</g>
<!-- Node4&#45;&gt;Node5 -->
<g id="edge4" class="edge"><title>Node4&#45;&gt;Node5</title>
<path fill="none" stroke="midnightblue" d="M392.446,-16.156C406.181,-16.0137 420.332,-15.867 433.75,-15.728"/>
<polygon fill="midnightblue" stroke="midnightblue" points="392.007,-12.6603 382.044,-16.2638 392.08,-19.6599 392.007,-12.6603"/>
</g>
</g>
</svg>
