<?xml version="1.0" encoding="UTF-8" standalone="no"?>
<!DOCTYPE svg PUBLIC "-//W3C//DTD SVG 1.1//EN"
 "http://www.w3.org/Graphics/SVG/1.1/DTD/svg11.dtd">
<!-- Generated by graphviz version 2.36.0 (20140111.2315)
 -->
<!-- Title: model.Coordinates.scale Pages: 1 -->
<svg width="718pt" height="38pt"
 viewBox="0.00 0.00 718.00 38.00" xmlns="http://www.w3.org/2000/svg" xmlns:xlink="http://www.w3.org/1999/xlink">
<g id="graph0" class="graph" transform="scale(1 1) rotate(0) translate(4 34)">
<title>model.Coordinates.scale</title>
<polygon fill="white" stroke="none" points="-4,4 -4,-34 714,-34 714,4 -4,4"/>
<!-- Node1 -->
<g id="node1" class="node"><title>Node1</title>
<polygon fill="#bfbfbf" stroke="black" points="0.5,-5.5 0.5,-24.5 135.5,-24.5 135.5,-5.5 0.5,-5.5"/>
<text text-anchor="middle" x="68" y="-12.5" font-family="Helvetica,sans-Serif" font-size="10.00">model.Coordinates.scale</text>
</g>
<!-- Node2 -->
<g id="node2" class="node"><title>Node2</title>
<g id="a_node2"><a xlink:href="../../da/d88/classmodel_1_1_turtle_single.html#ae716e6ffff8b2fdc3e91b2aac113d361" target="_top" xlink:title="model.TurtleSingle.distance\lToCoordinates">
<polygon fill="white" stroke="black" points="172,-0 172,-30 320,-30 320,-0 172,-0"/>
<text text-anchor="start" x="180" y="-18" font-family="Helvetica,sans-Serif" font-size="10.00">model.TurtleSingle.distance</text>
<text text-anchor="middle" x="246" y="-7" font-family="Helvetica,sans-Serif" font-size="10.00">ToCoordinates</text>
</a>
</g>
</g>
<!-- Node1&#45;&gt;Node2 -->
<g id="edge1" class="edge"><title>Node1&#45;&gt;Node2</title>
<path fill="none" stroke="midnightblue" d="M145.669,-15C154.376,-15 163.234,-15 171.893,-15"/>
<polygon fill="midnightblue" stroke="midnightblue" points="145.538,-11.5001 135.538,-15 145.538,-18.5001 145.538,-11.5001"/>
</g>
<!-- Node3 -->
<g id="node3" class="node"><title>Node3</title>
<g id="a_node3"><a xlink:href="../../da/d88/classmodel_1_1_turtle_single.html#a9565e73b577c886fd15470d9b108a573" target="_top" xlink:title="model.TurtleSingle.moveDistance">
<polygon fill="white" stroke="black" points="356,-5.5 356,-24.5 532,-24.5 532,-5.5 356,-5.5"/>
<text text-anchor="middle" x="444" y="-12.5" font-family="Helvetica,sans-Serif" font-size="10.00">model.TurtleSingle.moveDistance</text>
</a>
</g>
</g>
<!-- Node2&#45;&gt;Node3 -->
<g id="edge2" class="edge"><title>Node2&#45;&gt;Node3</title>
<path fill="none" stroke="midnightblue" d="M330.459,-15C338.892,-15 347.472,-15 355.942,-15"/>
<polygon fill="midnightblue" stroke="midnightblue" points="330.262,-11.5001 320.262,-15 330.262,-18.5001 330.262,-11.5001"/>
</g>
<!-- Node4 -->
<g id="node4" class="node"><title>Node4</title>
<g id="a_node4"><a xlink:href="../../d9/dea/classmodel_1_1_turtle_multiple.html#a49086cf96575756ecc4a1070aef50aa7" target="_top" xlink:title="model.TurtleMultiple.move\lDistance">
<polygon fill="white" stroke="black" points="568,-0 568,-30 710,-30 710,-0 568,-0"/>
<text text-anchor="start" x="576" y="-18" font-family="Helvetica,sans-Serif" font-size="10.00">model.TurtleMultiple.move</text>
<text text-anchor="middle" x="639" y="-7" font-family="Helvetica,sans-Serif" font-size="10.00">Distance</text>
</a>
</g>
</g>
<!-- Node3&#45;&gt;Node4 -->
<g id="edge3" class="edge"><title>Node3&#45;&gt;Node4</title>
<path fill="none" stroke="midnightblue" d="M542.327,-15C550.979,-15 559.621,-15 567.977,-15"/>
<polygon fill="midnightblue" stroke="midnightblue" points="542.183,-11.5001 532.183,-15 542.183,-18.5001 542.183,-11.5001"/>
</g>
</g>
</svg>
