<?xml version="1.0" encoding="UTF-8" standalone="no"?>
<!DOCTYPE svg PUBLIC "-//W3C//DTD SVG 1.1//EN"
 "http://www.w3.org/Graphics/SVG/1.1/DTD/svg11.dtd">
<!-- Generated by graphviz version 2.36.0 (20140111.2315)
 -->
<!-- Title: model.Coordinates.distance Pages: 1 -->
<svg width="518pt" height="38pt"
 viewBox="0.00 0.00 518.00 38.00" xmlns="http://www.w3.org/2000/svg" xmlns:xlink="http://www.w3.org/1999/xlink">
<g id="graph0" class="graph" transform="scale(1 1) rotate(0) translate(4 34)">
<title>model.Coordinates.distance</title>
<polygon fill="white" stroke="none" points="-4,4 -4,-34 514,-34 514,4 -4,4"/>
<!-- Node1 -->
<g id="node1" class="node"><title>Node1</title>
<polygon fill="#bfbfbf" stroke="black" points="0.5,-5.5 0.5,-24.5 151.5,-24.5 151.5,-5.5 0.5,-5.5"/>
<text text-anchor="middle" x="76" y="-12.5" font-family="Helvetica,sans-Serif" font-size="10.00">model.Coordinates.distance</text>
</g>
<!-- Node2 -->
<g id="node2" class="node"><title>Node2</title>
<g id="a_node2"><a xlink:href="../../da/d88/classmodel_1_1_turtle_single.html#afd2d49972b498f78ddb54fab9e70f221" target="_top" xlink:title="model.TurtleSingle.moveTo\lPosition">
<polygon fill="white" stroke="black" points="188,-0 188,-30 332,-30 332,-0 188,-0"/>
<text text-anchor="start" x="196" y="-18" font-family="Helvetica,sans-Serif" font-size="10.00">model.TurtleSingle.moveTo</text>
<text text-anchor="middle" x="260" y="-7" font-family="Helvetica,sans-Serif" font-size="10.00">Position</text>
</a>
</g>
</g>
<!-- Node1&#45;&gt;Node2 -->
<g id="edge1" class="edge"><title>Node1&#45;&gt;Node2</title>
<path fill="none" stroke="midnightblue" d="M161.731,-15C170.448,-15 179.243,-15 187.793,-15"/>
<polygon fill="midnightblue" stroke="midnightblue" points="161.552,-11.5001 151.551,-15 161.551,-18.5001 161.552,-11.5001"/>
</g>
<!-- Node3 -->
<g id="node3" class="node"><title>Node3</title>
<g id="a_node3"><a xlink:href="../../d9/dea/classmodel_1_1_turtle_multiple.html#ab96e6d9114df066c4a1a5fc670742abb" target="_top" xlink:title="model.TurtleMultiple.move\lToPosition">
<polygon fill="white" stroke="black" points="368,-0 368,-30 510,-30 510,-0 368,-0"/>
<text text-anchor="start" x="376" y="-18" font-family="Helvetica,sans-Serif" font-size="10.00">model.TurtleMultiple.move</text>
<text text-anchor="middle" x="439" y="-7" font-family="Helvetica,sans-Serif" font-size="10.00">ToPosition</text>
</a>
</g>
</g>
<!-- Node2&#45;&gt;Node3 -->
<g id="edge2" class="edge"><title>Node2&#45;&gt;Node3</title>
<path fill="none" stroke="midnightblue" d="M342.475,-15C350.928,-15 359.468,-15 367.782,-15"/>
<polygon fill="midnightblue" stroke="midnightblue" points="342.228,-11.5001 332.228,-15 342.228,-18.5001 342.228,-11.5001"/>
</g>
</g>
</svg>
