<?xml version="1.0" encoding="UTF-8" standalone="no"?>
<!DOCTYPE svg PUBLIC "-//W3C//DTD SVG 1.1//EN"
 "http://www.w3.org/Graphics/SVG/1.1/DTD/svg11.dtd">
<!-- Generated by graphviz version 2.36.0 (20140111.2315)
 -->
<!-- Title: model.Coordinates.getX Pages: 1 -->
<svg width="754pt" height="242pt"
 viewBox="0.00 0.00 754.00 242.00" xmlns="http://www.w3.org/2000/svg" xmlns:xlink="http://www.w3.org/1999/xlink">
<g id="graph0" class="graph" transform="scale(1 1) rotate(0) translate(4 238)">
<title>model.Coordinates.getX</title>
<polygon fill="white" stroke="none" points="-4,4 -4,-238 750,-238 750,4 -4,4"/>
<!-- Node1 -->
<g id="node1" class="node"><title>Node1</title>
<polygon fill="#bfbfbf" stroke="black" points="0,-108.5 0,-127.5 132,-127.5 132,-108.5 0,-108.5"/>
<text text-anchor="middle" x="66" y="-115.5" font-family="Helvetica,sans-Serif" font-size="10.00">model.Coordinates.getX</text>
</g>
<!-- Node2 -->
<g id="node2" class="node"><title>Node2</title>
<g id="a_node2"><a xlink:href="../../d8/d6a/classmodel_1_1_coordinates.html#adbb734c55a78cb2067e20a8d4b108735" target="_top" xlink:title="model.Coordinates.addCoordinates">
<polygon fill="white" stroke="black" points="168,-203.5 168,-222.5 354,-222.5 354,-203.5 168,-203.5"/>
<text text-anchor="middle" x="261" y="-210.5" font-family="Helvetica,sans-Serif" font-size="10.00">model.Coordinates.addCoordinates</text>
</a>
</g>
</g>
<!-- Node1&#45;&gt;Node2 -->
<g id="edge1" class="edge"><title>Node1&#45;&gt;Node2</title>
<path fill="none" stroke="midnightblue" d="M85.4134,-134.036C104.754,-150.103 136.661,-174.477 168,-189 181.18,-195.108 196.169,-199.852 210.167,-203.449"/>
<polygon fill="midnightblue" stroke="midnightblue" points="87.5906,-131.293 77.6953,-127.507 83.0699,-136.638 87.5906,-131.293"/>
</g>
<!-- Node5 -->
<g id="node5" class="node"><title>Node5</title>
<g id="a_node5"><a xlink:href="../../da/d88/classmodel_1_1_turtle_single.html#afd2d49972b498f78ddb54fab9e70f221" target="_top" xlink:title="model.TurtleSingle.moveTo\lPosition">
<polygon fill="white" stroke="black" points="407,-156 407,-186 551,-186 551,-156 407,-156"/>
<text text-anchor="start" x="415" y="-174" font-family="Helvetica,sans-Serif" font-size="10.00">model.TurtleSingle.moveTo</text>
<text text-anchor="middle" x="479" y="-163" font-family="Helvetica,sans-Serif" font-size="10.00">Position</text>
</a>
</g>
</g>
<!-- Node1&#45;&gt;Node5 -->
<g id="edge11" class="edge"><title>Node1&#45;&gt;Node5</title>
<path fill="none" stroke="midnightblue" d="M96.3165,-131.813C116.096,-140.431 143.046,-150.835 168,-156 248.597,-172.682 343.381,-174.797 406.727,-173.789"/>
<polygon fill="midnightblue" stroke="midnightblue" points="97.5075,-128.512 86.9492,-127.632 94.6543,-134.904 97.5075,-128.512"/>
</g>
<!-- Node7 -->
<g id="node7" class="node"><title>Node7</title>
<g id="a_node7"><a xlink:href="../../d8/d6a/classmodel_1_1_coordinates.html#a9e502768e2df1d2093106cca8fdfb532" target="_top" xlink:title="model.Coordinates.Coordinates">
<polygon fill="white" stroke="black" points="177,-127.5 177,-146.5 345,-146.5 345,-127.5 177,-127.5"/>
<text text-anchor="middle" x="261" y="-134.5" font-family="Helvetica,sans-Serif" font-size="10.00">model.Coordinates.Coordinates</text>
</a>
</g>
</g>
<!-- Node1&#45;&gt;Node7 -->
<g id="edge6" class="edge"><title>Node1&#45;&gt;Node7</title>
<path fill="none" stroke="midnightblue" d="M142.304,-125.413C153.591,-126.524 165.285,-127.676 176.726,-128.802"/>
<polygon fill="midnightblue" stroke="midnightblue" points="142.367,-121.903 132.072,-124.406 141.681,-128.869 142.367,-121.903"/>
</g>
<!-- Node8 -->
<g id="node8" class="node"><title>Node8</title>
<g id="a_node8"><a xlink:href="../../d8/d6a/classmodel_1_1_coordinates.html#a9cf0ae0b4aa4402e6c58b8087efdac62" target="_top" xlink:title="model.Coordinates.distance">
<polygon fill="white" stroke="black" points="185.5,-89.5 185.5,-108.5 336.5,-108.5 336.5,-89.5 185.5,-89.5"/>
<text text-anchor="middle" x="261" y="-96.5" font-family="Helvetica,sans-Serif" font-size="10.00">model.Coordinates.distance</text>
</a>
</g>
</g>
<!-- Node1&#45;&gt;Node8 -->
<g id="edge7" class="edge"><title>Node1&#45;&gt;Node8</title>
<path fill="none" stroke="midnightblue" d="M142.225,-110.594C156.349,-109.204 171.113,-107.751 185.224,-106.361"/>
<polygon fill="midnightblue" stroke="midnightblue" points="141.681,-107.131 132.072,-111.594 142.367,-114.097 141.681,-107.131"/>
</g>
<!-- Node9 -->
<g id="node9" class="node"><title>Node9</title>
<g id="a_node9"><a xlink:href="../../d8/d6a/classmodel_1_1_coordinates.html#a59a66741ce9eed69af00532c96c78b49" target="_top" xlink:title="model.Coordinates.equals">
<polygon fill="white" stroke="black" points="190,-51.5 190,-70.5 332,-70.5 332,-51.5 190,-51.5"/>
<text text-anchor="middle" x="261" y="-58.5" font-family="Helvetica,sans-Serif" font-size="10.00">model.Coordinates.equals</text>
</a>
</g>
</g>
<!-- Node1&#45;&gt;Node9 -->
<g id="edge9" class="edge"><title>Node1&#45;&gt;Node9</title>
<path fill="none" stroke="midnightblue" d="M98.914,-104.528C118.575,-96.5975 144.446,-86.818 168,-80 180.376,-76.4176 193.875,-73.2368 206.625,-70.551"/>
<polygon fill="midnightblue" stroke="midnightblue" points="97.4546,-101.343 89.5216,-108.366 100.103,-107.823 97.4546,-101.343"/>
</g>
<!-- Node11 -->
<g id="node11" class="node"><title>Node11</title>
<g id="a_node11"><a xlink:href="../../da/d88/classmodel_1_1_turtle_single.html#a6ad1aa6c71c5e1ba0f347f27941cc276" target="_top" xlink:title="model.TurtleSingle.setTowards">
<polygon fill="white" stroke="black" points="181,-10.5 181,-29.5 341,-29.5 341,-10.5 181,-10.5"/>
<text text-anchor="middle" x="261" y="-17.5" font-family="Helvetica,sans-Serif" font-size="10.00">model.TurtleSingle.setTowards</text>
</a>
</g>
</g>
<!-- Node1&#45;&gt;Node11 -->
<g id="edge12" class="edge"><title>Node1&#45;&gt;Node11</title>
<path fill="none" stroke="midnightblue" d="M84.2222,-101.472C103.238,-84.1291 135.484,-57.304 168,-42 179.144,-36.7548 191.655,-32.6947 203.775,-29.5755"/>
<polygon fill="midnightblue" stroke="midnightblue" points="81.6275,-99.1057 76.6917,-108.481 86.3965,-104.23 81.6275,-99.1057"/>
</g>
<!-- Node3 -->
<g id="node3" class="node"><title>Node3</title>
<g id="a_node3"><a xlink:href="../../da/d88/classmodel_1_1_turtle_single.html#a9565e73b577c886fd15470d9b108a573" target="_top" xlink:title="model.TurtleSingle.moveDistance">
<polygon fill="white" stroke="black" points="391,-207.5 391,-226.5 567,-226.5 567,-207.5 391,-207.5"/>
<text text-anchor="middle" x="479" y="-214.5" font-family="Helvetica,sans-Serif" font-size="10.00">model.TurtleSingle.moveDistance</text>
</a>
</g>
</g>
<!-- Node2&#45;&gt;Node3 -->
<g id="edge2" class="edge"><title>Node2&#45;&gt;Node3</title>
<path fill="none" stroke="midnightblue" d="M364.249,-214.893C373.153,-215.058 382.11,-215.224 390.877,-215.387"/>
<polygon fill="midnightblue" stroke="midnightblue" points="364.293,-211.394 354.23,-214.708 364.163,-218.393 364.293,-211.394"/>
</g>
<!-- Node2&#45;&gt;Node5 -->
<g id="edge4" class="edge"><title>Node2&#45;&gt;Node5</title>
<path fill="none" stroke="midnightblue" d="M320.897,-201.548C347.371,-196.4 378.845,-190.28 406.644,-184.875"/>
<polygon fill="midnightblue" stroke="midnightblue" points="320.162,-198.125 311.014,-203.47 321.498,-204.996 320.162,-198.125"/>
</g>
<!-- Node4 -->
<g id="node4" class="node"><title>Node4</title>
<g id="a_node4"><a xlink:href="../../d9/dea/classmodel_1_1_turtle_multiple.html#a49086cf96575756ecc4a1070aef50aa7" target="_top" xlink:title="model.TurtleMultiple.move\lDistance">
<polygon fill="white" stroke="black" points="604,-204 604,-234 746,-234 746,-204 604,-204"/>
<text text-anchor="start" x="612" y="-222" font-family="Helvetica,sans-Serif" font-size="10.00">model.TurtleMultiple.move</text>
<text text-anchor="middle" x="675" y="-211" font-family="Helvetica,sans-Serif" font-size="10.00">Distance</text>
</a>
</g>
</g>
<!-- Node3&#45;&gt;Node4 -->
<g id="edge3" class="edge"><title>Node3&#45;&gt;Node4</title>
<path fill="none" stroke="midnightblue" d="M577.182,-218.002C586.152,-218.094 595.121,-218.187 603.78,-218.276"/>
<polygon fill="midnightblue" stroke="midnightblue" points="577.105,-214.501 567.069,-217.898 577.033,-221.501 577.105,-214.501"/>
</g>
<!-- Node6 -->
<g id="node6" class="node"><title>Node6</title>
<g id="a_node6"><a xlink:href="../../d9/dea/classmodel_1_1_turtle_multiple.html#ab96e6d9114df066c4a1a5fc670742abb" target="_top" xlink:title="model.TurtleMultiple.move\lToPosition">
<polygon fill="white" stroke="black" points="604,-155 604,-185 746,-185 746,-155 604,-155"/>
<text text-anchor="start" x="612" y="-173" font-family="Helvetica,sans-Serif" font-size="10.00">model.TurtleMultiple.move</text>
<text text-anchor="middle" x="675" y="-162" font-family="Helvetica,sans-Serif" font-size="10.00">ToPosition</text>
</a>
</g>
</g>
<!-- Node5&#45;&gt;Node6 -->
<g id="edge5" class="edge"><title>Node5&#45;&gt;Node6</title>
<path fill="none" stroke="midnightblue" d="M561.328,-170.581C575.458,-170.508 590.044,-170.433 603.844,-170.362"/>
<polygon fill="midnightblue" stroke="midnightblue" points="561.119,-167.082 551.137,-170.633 561.155,-174.082 561.119,-167.082"/>
</g>
<!-- Node8&#45;&gt;Node5 -->
<g id="edge8" class="edge"><title>Node8&#45;&gt;Node5</title>
<path fill="none" stroke="midnightblue" d="M327.217,-110.774C336.287,-112.903 345.428,-115.313 354,-118 386.839,-128.295 422.851,-144.242 447.564,-155.956"/>
<polygon fill="midnightblue" stroke="midnightblue" points="327.958,-107.354 317.433,-108.576 326.423,-114.183 327.958,-107.354"/>
</g>
<!-- Node10 -->
<g id="node10" class="node"><title>Node10</title>
<g id="a_node10"><a xlink:href="../../d5/dc1/classparser_1_1commands_1_1_parser_test.html#a6a3cc2c0d6ca8b502de3cad94a6ad0a5" target="_top" xlink:title="parser.commands.ParserTest.test\lParse">
<polygon fill="white" stroke="black" points="390.5,-49 390.5,-79 567.5,-79 567.5,-49 390.5,-49"/>
<text text-anchor="start" x="398.5" y="-67" font-family="Helvetica,sans-Serif" font-size="10.00">parser.commands.ParserTest.test</text>
<text text-anchor="middle" x="479" y="-56" font-family="Helvetica,sans-Serif" font-size="10.00">Parse</text>
</a>
</g>
</g>
<!-- Node9&#45;&gt;Node10 -->
<g id="edge10" class="edge"><title>Node9&#45;&gt;Node10</title>
<path fill="none" stroke="midnightblue" d="M342.307,-62.1154C358.002,-62.3334 374.533,-62.563 390.45,-62.784"/>
<polygon fill="midnightblue" stroke="midnightblue" points="342.177,-58.6133 332.129,-61.974 342.079,-65.6126 342.177,-58.6133"/>
</g>
<!-- Node12 -->
<g id="node12" class="node"><title>Node12</title>
<g id="a_node12"><a xlink:href="../../d9/dea/classmodel_1_1_turtle_multiple.html#a03519dd8e6614f4404c6dca3160c9f65" target="_top" xlink:title="model.TurtleMultiple.set\lTowards">
<polygon fill="white" stroke="black" points="414,-0 414,-30 544,-30 544,-0 414,-0"/>
<text text-anchor="start" x="422" y="-18" font-family="Helvetica,sans-Serif" font-size="10.00">model.TurtleMultiple.set</text>
<text text-anchor="middle" x="479" y="-7" font-family="Helvetica,sans-Serif" font-size="10.00">Towards</text>
</a>
</g>
</g>
<!-- Node11&#45;&gt;Node12 -->
<g id="edge13" class="edge"><title>Node11&#45;&gt;Node12</title>
<path fill="none" stroke="midnightblue" d="M351.419,-17.9301C372.414,-17.4441 394.375,-16.9358 413.999,-16.4815"/>
<polygon fill="midnightblue" stroke="midnightblue" points="351.12,-14.436 341.204,-18.1666 351.282,-21.4341 351.12,-14.436"/>
</g>
</g>
</svg>
