<?xml version="1.0" encoding="UTF-8" standalone="no"?>
<!DOCTYPE svg PUBLIC "-//W3C//DTD SVG 1.1//EN"
 "http://www.w3.org/Graphics/SVG/1.1/DTD/svg11.dtd">
<!-- Generated by graphviz version 2.36.0 (20140111.2315)
 -->
<!-- Title: model.Coordinates.getY Pages: 1 -->
<!--zoomable 329 -->
<svg id="main" version="1.1" xmlns="http://www.w3.org/2000/svg" xmlns:xlink="http://www.w3.org/1999/xlink" xml:space="preserve" onload="init(evt)">
<style type="text/css"><![CDATA[
.edge:hover path { stroke: red; }
.edge:hover polygon { stroke: red; fill: red; }
]]></style>
<script type="text/javascript"><![CDATA[
var edges = document.getElementsByTagName('g');
if (edges && edges.length) {
  for (var i=0;i<edges.length;i++) {
    if (edges[i].id.substr(0,4)=='edge') {
      edges[i].setAttribute('class','edge');
    }
  }
}
]]></script>
        <defs>
                <circle id="rim" cx="0" cy="0" r="7"/>
                <circle id="rim2" cx="0" cy="0" r="3.5"/>
                <g id="zoomPlus">
                        <use xlink:href="#rim" fill="#404040">
                                <set attributeName="fill" to="#808080" begin="zoomplus.mouseover" end="zoomplus.mouseout"/>
                        </use>
                        <path d="M-4,0h8M0,-4v8" fill="none" stroke="white" stroke-width="1.5" pointer-events="none"/>
                </g>
                <g id="zoomMin">
                        <use xlink:href="#rim" fill="#404040">
                                <set attributeName="fill" to="#808080" begin="zoomminus.mouseover" end="zoomminus.mouseout"/>
                        </use>
                        <path d="M-4,0h8" fill="none" stroke="white" stroke-width="1.5" pointer-events="none"/>
                </g>
                <g id="dirArrow">
                        <path fill="none" stroke="white" stroke-width="1.5" d="M0,-3.0v7 M-2.5,-0.5L0,-3.0L2.5,-0.5"/>
                </g>
               <g id="resetDef">
                       <use xlink:href="#rim2" fill="#404040">
                               <set attributeName="fill" to="#808080" begin="reset.mouseover" end="reset.mouseout"/>
                       </use>
               </g>
        </defs>

<script type="text/javascript">
var viewWidth = 1594;
var viewHeight = 329;
var sectionId = 'dynsection-9';
</script>
<script xlink:href="../../svgpan.js"/>
<svg id="graph" class="graph">
<g id="viewport">
<title>model.Coordinates.getY</title>
<polygon fill="white" stroke="none" points="-4,4 -4,-325 1590,-325 1590,4 -4,4"/>
<!-- Node1 -->
<g id="node1" class="node"><title>Node1</title>
<polygon fill="#bfbfbf" stroke="black" points="0.5,-175.5 0.5,-194.5 131.5,-194.5 131.5,-175.5 0.5,-175.5"/>
<text text-anchor="middle" x="66" y="-182.5" font-family="Helvetica,sans-Serif" font-size="10.00">model.Coordinates.getY</text>
</g>
<!-- Node2 -->
<g id="node2" class="node"><title>Node2</title>
<g id="a_node2"><a xlink:href="../../d8/d6a/classmodel_1_1_coordinates.html#adbb734c55a78cb2067e20a8d4b108735" target="_top" xlink:title="model.Coordinates.addCoordinates">
<polygon fill="white" stroke="black" points="168,-289.5 168,-308.5 354,-308.5 354,-289.5 168,-289.5"/>
<text text-anchor="middle" x="261" y="-296.5" font-family="Helvetica,sans-Serif" font-size="10.00">model.Coordinates.addCoordinates</text>
</a>
</g>
</g>
<!-- Node1&#45;&gt;Node2 -->
<g id="edge1" class="edge"><title>Node1&#45;&gt;Node2</title>
<path fill="none" stroke="midnightblue" d="M81.7385,-202.4C99.9552,-222.797 132.877,-256.197 168,-275 179.642,-281.233 192.992,-285.914 205.846,-289.404"/>
<polygon fill="midnightblue" stroke="midnightblue" points="84.2957,-200.007 75.0791,-194.782 79.0255,-204.615 84.2957,-200.007"/>
</g>
<!-- Node5 -->
<g id="node5" class="node"><title>Node5</title>
<g id="a_node5"><a xlink:href="../../da/d88/classmodel_1_1_turtle_single.html#afd2d49972b498f78ddb54fab9e70f221" target="_top" xlink:title="model.TurtleSingle.moveTo\lPosition">
<polygon fill="white" stroke="black" points="407,-243 407,-273 551,-273 551,-243 407,-243"/>
<text text-anchor="start" x="415" y="-261" font-family="Helvetica,sans-Serif" font-size="10.00">model.TurtleSingle.moveTo</text>
<text text-anchor="middle" x="479" y="-250" font-family="Helvetica,sans-Serif" font-size="10.00">Position</text>
</a>
</g>
</g>
<!-- Node1&#45;&gt;Node5 -->
<g id="edge11" class="edge"><title>Node1&#45;&gt;Node5</title>
<path fill="none" stroke="midnightblue" d="M87.678,-200.491C107.236,-214.18 137.987,-233.282 168,-242 247.44,-265.074 343.068,-266.23 406.911,-263.456"/>
<polygon fill="midnightblue" stroke="midnightblue" points="89.6875,-197.625 79.522,-194.64 85.6069,-203.313 89.6875,-197.625"/>
</g>
<!-- Node7 -->
<g id="node7" class="node"><title>Node7</title>
<g id="a_node7"><a xlink:href="../../d8/d6a/classmodel_1_1_coordinates.html#a9e502768e2df1d2093106cca8fdfb532" target="_top" xlink:title="model.Coordinates.Coordinates">
<polygon fill="white" stroke="black" points="177,-213.5 177,-232.5 345,-232.5 345,-213.5 177,-213.5"/>
<text text-anchor="middle" x="261" y="-220.5" font-family="Helvetica,sans-Serif" font-size="10.00">model.Coordinates.Coordinates</text>
</a>
</g>
</g>
<!-- Node1&#45;&gt;Node7 -->
<g id="edge6" class="edge"><title>Node1&#45;&gt;Node7</title>
<path fill="none" stroke="midnightblue" d="M125.602,-196.538C153.129,-201.958 185.548,-208.341 211.648,-213.48"/>
<polygon fill="midnightblue" stroke="midnightblue" points="126.19,-193.087 115.702,-194.589 124.838,-199.955 126.19,-193.087"/>
</g>
<!-- Node8 -->
<g id="node8" class="node"><title>Node8</title>
<g id="a_node8"><a xlink:href="../../d8/d6a/classmodel_1_1_coordinates.html#a9cf0ae0b4aa4402e6c58b8087efdac62" target="_top" xlink:title="model.Coordinates.distance">
<polygon fill="white" stroke="black" points="185.5,-175.5 185.5,-194.5 336.5,-194.5 336.5,-175.5 185.5,-175.5"/>
<text text-anchor="middle" x="261" y="-182.5" font-family="Helvetica,sans-Serif" font-size="10.00">model.Coordinates.distance</text>
</a>
</g>
</g>
<!-- Node1&#45;&gt;Node8 -->
<g id="edge7" class="edge"><title>Node1&#45;&gt;Node8</title>
<path fill="none" stroke="midnightblue" d="M141.771,-185C156.017,-185 170.93,-185 185.178,-185"/>
<polygon fill="midnightblue" stroke="midnightblue" points="141.535,-181.5 131.535,-185 141.534,-188.5 141.535,-181.5"/>
</g>
<!-- Node9 -->
<g id="node9" class="node"><title>Node9</title>
<g id="a_node9"><a xlink:href="../../d8/d6a/classmodel_1_1_coordinates.html#a59a66741ce9eed69af00532c96c78b49" target="_top" xlink:title="model.Coordinates.equals">
<polygon fill="white" stroke="black" points="190,-137.5 190,-156.5 332,-156.5 332,-137.5 190,-137.5"/>
<text text-anchor="middle" x="261" y="-144.5" font-family="Helvetica,sans-Serif" font-size="10.00">model.Coordinates.equals</text>
</a>
</g>
</g>
<!-- Node1&#45;&gt;Node9 -->
<g id="edge9" class="edge"><title>Node1&#45;&gt;Node9</title>
<path fill="none" stroke="midnightblue" d="M125.602,-173.462C153.129,-168.042 185.548,-161.659 211.648,-156.52"/>
<polygon fill="midnightblue" stroke="midnightblue" points="124.838,-170.045 115.702,-175.411 126.19,-176.913 124.838,-170.045"/>
</g>
<!-- Node11 -->
<g id="node11" class="node"><title>Node11</title>
<g id="a_node11"><a xlink:href="../../dd/ddc/classview_1_1turtle_1_1_turtle_image.html#afd9abc603b052b7c9c14108400109917" target="_top" xlink:title="view.turtle.TurtleImage.process\lUpdate">
<polygon fill="white" stroke="black" points="179,-88 179,-118 343,-118 343,-88 179,-88"/>
<text text-anchor="start" x="187" y="-106" font-family="Helvetica,sans-Serif" font-size="10.00">view.turtle.TurtleImage.process</text>
<text text-anchor="middle" x="261" y="-95" font-family="Helvetica,sans-Serif" font-size="10.00">Update</text>
</a>
</g>
</g>
<!-- Node1&#45;&gt;Node11 -->
<g id="edge12" class="edge"><title>Node1&#45;&gt;Node11</title>
<path fill="none" stroke="midnightblue" d="M90.1545,-169.728C110.104,-157.118 140.022,-139.486 168,-128 177.034,-124.291 186.79,-120.964 196.456,-118.04"/>
<polygon fill="midnightblue" stroke="midnightblue" points="88.0006,-166.951 81.4738,-175.297 91.7805,-172.843 88.0006,-166.951"/>
</g>
<!-- Node21 -->
<g id="node21" class="node"><title>Node21</title>
<g id="a_node21"><a xlink:href="../../da/d88/classmodel_1_1_turtle_single.html#a6ad1aa6c71c5e1ba0f347f27941cc276" target="_top" xlink:title="model.TurtleSingle.setTowards">
<polygon fill="white" stroke="black" points="181,-27.5 181,-46.5 341,-46.5 341,-27.5 181,-27.5"/>
<text text-anchor="middle" x="261" y="-34.5" font-family="Helvetica,sans-Serif" font-size="10.00">model.TurtleSingle.setTowards</text>
</a>
</g>
</g>
<!-- Node1&#45;&gt;Node21 -->
<g id="edge24" class="edge"><title>Node1&#45;&gt;Node21</title>
<path fill="none" stroke="midnightblue" d="M80.315,-166.977C98.1449,-143.861 131.758,-103.695 168,-78 187.4,-64.2453 212.153,-53.5337 231.095,-46.5138"/>
<polygon fill="midnightblue" stroke="midnightblue" points="77.3285,-165.123 74.0797,-175.207 82.9081,-169.35 77.3285,-165.123"/>
</g>
<!-- Node3 -->
<g id="node3" class="node"><title>Node3</title>
<g id="a_node3"><a xlink:href="../../da/d88/classmodel_1_1_turtle_single.html#a9565e73b577c886fd15470d9b108a573" target="_top" xlink:title="model.TurtleSingle.moveDistance">
<polygon fill="white" stroke="black" points="391,-294.5 391,-313.5 567,-313.5 567,-294.5 391,-294.5"/>
<text text-anchor="middle" x="479" y="-301.5" font-family="Helvetica,sans-Serif" font-size="10.00">model.TurtleSingle.moveDistance</text>
</a>
</g>
</g>
<!-- Node2&#45;&gt;Node3 -->
<g id="edge2" class="edge"><title>Node2&#45;&gt;Node3</title>
<path fill="none" stroke="midnightblue" d="M364.249,-301.367C373.153,-301.573 382.11,-301.78 390.877,-301.983"/>
<polygon fill="midnightblue" stroke="midnightblue" points="364.308,-297.867 354.23,-301.135 364.146,-304.866 364.308,-297.867"/>
</g>
<!-- Node2&#45;&gt;Node5 -->
<g id="edge4" class="edge"><title>Node2&#45;&gt;Node5</title>
<path fill="none" stroke="midnightblue" d="M321.939,-287.623C348.275,-282.624 379.401,-276.716 406.9,-271.496"/>
<polygon fill="midnightblue" stroke="midnightblue" points="321.27,-284.187 312.098,-289.491 322.575,-291.064 321.27,-284.187"/>
</g>
<!-- Node4 -->
<g id="node4" class="node"><title>Node4</title>
<g id="a_node4"><a xlink:href="../../d9/dea/classmodel_1_1_turtle_multiple.html#a49086cf96575756ecc4a1070aef50aa7" target="_top" xlink:title="model.TurtleMultiple.move\lDistance">
<polygon fill="white" stroke="black" points="638,-291 638,-321 780,-321 780,-291 638,-291"/>
<text text-anchor="start" x="646" y="-309" font-family="Helvetica,sans-Serif" font-size="10.00">model.TurtleMultiple.move</text>
<text text-anchor="middle" x="709" y="-298" font-family="Helvetica,sans-Serif" font-size="10.00">Distance</text>
</a>
</g>
</g>
<!-- Node3&#45;&gt;Node4 -->
<g id="edge3" class="edge"><title>Node3&#45;&gt;Node4</title>
<path fill="none" stroke="midnightblue" d="M577.399,-304.854C597.721,-305.033 618.762,-305.217 637.865,-305.385"/>
<polygon fill="midnightblue" stroke="midnightblue" points="577.203,-301.353 567.173,-304.765 577.142,-308.352 577.203,-301.353"/>
</g>
<!-- Node6 -->
<g id="node6" class="node"><title>Node6</title>
<g id="a_node6"><a xlink:href="../../d9/dea/classmodel_1_1_turtle_multiple.html#ab96e6d9114df066c4a1a5fc670742abb" target="_top" xlink:title="model.TurtleMultiple.move\lToPosition">
<polygon fill="white" stroke="black" points="638,-242 638,-272 780,-272 780,-242 638,-242"/>
<text text-anchor="start" x="646" y="-260" font-family="Helvetica,sans-Serif" font-size="10.00">model.TurtleMultiple.move</text>
<text text-anchor="middle" x="709" y="-249" font-family="Helvetica,sans-Serif" font-size="10.00">ToPosition</text>
</a>
</g>
</g>
<!-- Node5&#45;&gt;Node6 -->
<g id="edge5" class="edge"><title>Node5&#45;&gt;Node6</title>
<path fill="none" stroke="midnightblue" d="M561.376,-257.643C586.336,-257.534 613.575,-257.414 637.728,-257.308"/>
<polygon fill="midnightblue" stroke="midnightblue" points="561.187,-254.144 551.203,-257.688 561.218,-261.144 561.187,-254.144"/>
</g>
<!-- Node8&#45;&gt;Node5 -->
<g id="edge8" class="edge"><title>Node8&#45;&gt;Node5</title>
<path fill="none" stroke="midnightblue" d="M327.234,-196.72C336.301,-198.857 345.438,-201.284 354,-204 387.124,-214.508 423.393,-230.914 448.099,-242.887"/>
<polygon fill="midnightblue" stroke="midnightblue" points="327.977,-193.3 317.452,-194.516 326.438,-200.129 327.977,-193.3"/>
</g>
<!-- Node10 -->
<g id="node10" class="node"><title>Node10</title>
<g id="a_node10"><a xlink:href="../../d5/dc1/classparser_1_1commands_1_1_parser_test.html#a6a3cc2c0d6ca8b502de3cad94a6ad0a5" target="_top" xlink:title="parser.commands.ParserTest.test\lParse">
<polygon fill="white" stroke="black" points="390.5,-176 390.5,-206 567.5,-206 567.5,-176 390.5,-176"/>
<text text-anchor="start" x="398.5" y="-194" font-family="Helvetica,sans-Serif" font-size="10.00">parser.commands.ParserTest.test</text>
<text text-anchor="middle" x="479" y="-183" font-family="Helvetica,sans-Serif" font-size="10.00">Parse</text>
</a>
</g>
</g>
<!-- Node9&#45;&gt;Node10 -->
<g id="edge10" class="edge"><title>Node9&#45;&gt;Node10</title>
<path fill="none" stroke="midnightblue" d="M318.952,-158.601C345.004,-163.908 376.204,-170.264 404.043,-175.935"/>
<polygon fill="midnightblue" stroke="midnightblue" points="319.366,-155.114 308.869,-156.547 317.969,-161.973 319.366,-155.114"/>
</g>
<!-- Node12 -->
<g id="node12" class="node"><title>Node12</title>
<g id="a_node12"><a xlink:href="../../dd/ddc/classview_1_1turtle_1_1_turtle_image.html#a68a832da6825e57061dbc49b30098291" target="_top" xlink:title="view.turtle.TurtleImage.pop\lUpdate">
<polygon fill="white" stroke="black" points="407,-88 407,-118 551,-118 551,-88 407,-88"/>
<text text-anchor="start" x="415" y="-106" font-family="Helvetica,sans-Serif" font-size="10.00">view.turtle.TurtleImage.pop</text>
<text text-anchor="middle" x="479" y="-95" font-family="Helvetica,sans-Serif" font-size="10.00">Update</text>
</a>
</g>
</g>
<!-- Node11&#45;&gt;Node12 -->
<g id="edge13" class="edge"><title>Node11&#45;&gt;Node12</title>
<path fill="none" stroke="midnightblue" d="M353.207,-103C371.116,-103 389.656,-103 406.793,-103"/>
<polygon fill="midnightblue" stroke="midnightblue" points="353.045,-99.5001 343.045,-103 353.045,-106.5 353.045,-99.5001"/>
</g>
<!-- Node13 -->
<g id="node13" class="node"><title>Node13</title>
<g id="a_node13"><a xlink:href="../../d5/d4b/classview_1_1components_1_1_turtle_window.html#a84744ff6c257318689fc0e014350fb05" target="_top" xlink:title="view.components.TurtleWindow.step\lDebug">
<polygon fill="white" stroke="black" points="616,-64 616,-94 802,-94 802,-64 616,-64"/>
<text text-anchor="start" x="624" y="-82" font-family="Helvetica,sans-Serif" font-size="10.00">view.components.TurtleWindow.step</text>
<text text-anchor="middle" x="709" y="-71" font-family="Helvetica,sans-Serif" font-size="10.00">Debug</text>
</a>
</g>
</g>
<!-- Node12&#45;&gt;Node13 -->
<g id="edge14" class="edge"><title>Node12&#45;&gt;Node13</title>
<path fill="none" stroke="midnightblue" d="M561.46,-94.4253C579.128,-92.5655 597.934,-90.5859 615.977,-88.6867"/>
<polygon fill="midnightblue" stroke="midnightblue" points="560.781,-90.9773 551.203,-95.505 561.514,-97.9388 560.781,-90.9773"/>
</g>
<!-- Node18 -->
<g id="node18" class="node"><title>Node18</title>
<g id="a_node18"><a xlink:href="../../dd/ddc/classview_1_1turtle_1_1_turtle_image.html#a02651da4da9b4b48bd91656f734ccb03" target="_top" xlink:title="view.turtle.TurtleImage.add\lUpdate">
<polygon fill="white" stroke="black" points="637,-113 637,-143 781,-143 781,-113 637,-113"/>
<text text-anchor="start" x="645" y="-131" font-family="Helvetica,sans-Serif" font-size="10.00">view.turtle.TurtleImage.add</text>
<text text-anchor="middle" x="709" y="-120" font-family="Helvetica,sans-Serif" font-size="10.00">Update</text>
</a>
</g>
</g>
<!-- Node12&#45;&gt;Node18 -->
<g id="edge19" class="edge"><title>Node12&#45;&gt;Node18</title>
<path fill="none" stroke="midnightblue" d="M561.278,-111.912C585.996,-114.622 612.956,-117.579 636.945,-120.209"/>
<polygon fill="midnightblue" stroke="midnightblue" points="561.525,-108.418 551.203,-110.807 560.762,-115.377 561.525,-108.418"/>
</g>
<!-- Node19 -->
<g id="node19" class="node"><title>Node19</title>
<g id="a_node19"><a xlink:href="../../dd/ddc/classview_1_1turtle_1_1_turtle_image.html#a958417ed4561c0b910f80944a5110ec7" target="_top" xlink:title="view.turtle.TurtleImage.animatedMove">
<polygon fill="white" stroke="black" points="610.5,-25.5 610.5,-44.5 807.5,-44.5 807.5,-25.5 610.5,-25.5"/>
<text text-anchor="middle" x="709" y="-32.5" font-family="Helvetica,sans-Serif" font-size="10.00">view.turtle.TurtleImage.animatedMove</text>
</a>
</g>
</g>
<!-- Node12&#45;&gt;Node19 -->
<g id="edge20" class="edge"><title>Node12&#45;&gt;Node19</title>
<path fill="none" stroke="midnightblue" d="M538.048,-84.6591C548.138,-81.061 558.452,-77.1166 568,-73 584.613,-65.8368 586.903,-59.9166 604,-54 615.101,-50.1584 627.151,-47.0501 638.983,-44.5486"/>
<polygon fill="midnightblue" stroke="midnightblue" points="536.764,-81.3999 528.474,-87.9971 539.069,-88.0097 536.764,-81.3999"/>
</g>
<!-- Node20 -->
<g id="node20" class="node"><title>Node20</title>
<g id="a_node20"><a xlink:href="../../dd/ddc/classview_1_1turtle_1_1_turtle_image.html#aca0a62f113534161f725da472e1f4d9f" target="_top" xlink:title="view.turtle.TurtleImage.unanimatedMove">
<polygon fill="white" stroke="black" points="604.5,-162.5 604.5,-181.5 813.5,-181.5 813.5,-162.5 604.5,-162.5"/>
<text text-anchor="middle" x="709" y="-169.5" font-family="Helvetica,sans-Serif" font-size="10.00">view.turtle.TurtleImage.unanimatedMove</text>
</a>
</g>
</g>
<!-- Node12&#45;&gt;Node20 -->
<g id="edge22" class="edge"><title>Node12&#45;&gt;Node20</title>
<path fill="none" stroke="midnightblue" d="M538.048,-121.341C548.138,-124.939 558.452,-128.883 568,-133 584.613,-140.163 586.931,-146.004 604,-152 616.23,-156.296 629.611,-159.743 642.582,-162.482"/>
<polygon fill="midnightblue" stroke="midnightblue" points="539.069,-117.99 528.474,-118.003 536.764,-124.6 539.069,-117.99"/>
</g>
<!-- Node14 -->
<g id="node14" class="node"><title>Node14</title>
<g id="a_node14"><a xlink:href="../../de/d30/classview_1_1components_1_1_s_logo_workspace.html#ad2141a5cca8101b3d22b2cf7b7473281" target="_top" xlink:title="view.components.SLogoWorkspace.run\lDebugger">
<polygon fill="white" stroke="black" points="850,-64 850,-94 1052,-94 1052,-64 850,-64"/>
<text text-anchor="start" x="858" y="-82" font-family="Helvetica,sans-Serif" font-size="10.00">view.components.SLogoWorkspace.run</text>
<text text-anchor="middle" x="951" y="-71" font-family="Helvetica,sans-Serif" font-size="10.00">Debugger</text>
</a>
</g>
</g>
<!-- Node13&#45;&gt;Node14 -->
<g id="edge15" class="edge"><title>Node13&#45;&gt;Node14</title>
<path fill="none" stroke="midnightblue" d="M812.424,-79C824.795,-79 837.421,-79 849.761,-79"/>
<polygon fill="midnightblue" stroke="midnightblue" points="812.104,-75.5001 802.104,-79 812.104,-82.5001 812.104,-75.5001"/>
</g>
<!-- Node15 -->
<g id="node15" class="node"><title>Node15</title>
<g id="a_node15"><a xlink:href="../../d3/dbe/classview_1_1_view.html#af4860035310eeafc92cf78cbbc53290a" target="_top" xlink:title="view.View.runDebugger">
<polygon fill="white" stroke="black" points="1088,-69.5 1088,-88.5 1214,-88.5 1214,-69.5 1088,-69.5"/>
<text text-anchor="middle" x="1151" y="-76.5" font-family="Helvetica,sans-Serif" font-size="10.00">view.View.runDebugger</text>
</a>
</g>
</g>
<!-- Node14&#45;&gt;Node15 -->
<g id="edge16" class="edge"><title>Node14&#45;&gt;Node15</title>
<path fill="none" stroke="midnightblue" d="M1062.42,-79C1071.12,-79 1079.71,-79 1087.9,-79"/>
<polygon fill="midnightblue" stroke="midnightblue" points="1062.16,-75.5001 1052.16,-79 1062.16,-82.5001 1062.16,-75.5001"/>
</g>
<!-- Node16 -->
<g id="node16" class="node"><title>Node16</title>
<g id="a_node16"><a xlink:href="../../d4/d6b/classview_1_1components_1_1_debugger_port.html#a6dd594b7c6572e0f4ef2ab7d8845f2ce" target="_top" xlink:title="view.components.Debugger\lPort.stepDebug">
<polygon fill="white" stroke="black" points="1250.5,-64 1250.5,-94 1399.5,-94 1399.5,-64 1250.5,-64"/>
<text text-anchor="start" x="1258.5" y="-82" font-family="Helvetica,sans-Serif" font-size="10.00">view.components.Debugger</text>
<text text-anchor="middle" x="1325" y="-71" font-family="Helvetica,sans-Serif" font-size="10.00">Port.stepDebug</text>
</a>
</g>
</g>
<!-- Node15&#45;&gt;Node16 -->
<g id="edge17" class="edge"><title>Node15&#45;&gt;Node16</title>
<path fill="none" stroke="midnightblue" d="M1224.13,-79C1232.78,-79 1241.61,-79 1250.28,-79"/>
<polygon fill="midnightblue" stroke="midnightblue" points="1224.1,-75.5001 1214.1,-79 1224.1,-82.5001 1224.1,-75.5001"/>
</g>
<!-- Node17 -->
<g id="node17" class="node"><title>Node17</title>
<g id="a_node17"><a xlink:href="../../d4/d6b/classview_1_1components_1_1_debugger_port.html#a7055f8fe86c7e1078dc9909a7f000b8b" target="_top" xlink:title="view.components.Debugger\lPort.DebuggerPort">
<polygon fill="white" stroke="black" points="1436.5,-64 1436.5,-94 1585.5,-94 1585.5,-64 1436.5,-64"/>
<text text-anchor="start" x="1444.5" y="-82" font-family="Helvetica,sans-Serif" font-size="10.00">view.components.Debugger</text>
<text text-anchor="middle" x="1511" y="-71" font-family="Helvetica,sans-Serif" font-size="10.00">Port.DebuggerPort</text>
</a>
</g>
</g>
<!-- Node16&#45;&gt;Node17 -->
<g id="edge18" class="edge"><title>Node16&#45;&gt;Node17</title>
<path fill="none" stroke="midnightblue" d="M1409.53,-79C1418.46,-79 1427.5,-79 1436.3,-79"/>
<polygon fill="midnightblue" stroke="midnightblue" points="1409.51,-75.5001 1399.51,-79 1409.51,-82.5001 1409.51,-75.5001"/>
</g>
<!-- Node19&#45;&gt;Node11 -->
<g id="edge21" class="edge"><title>Node19&#45;&gt;Node11</title>
<path fill="none" stroke="midnightblue" d="M617.732,-45.7787C553.962,-53.7416 466.567,-65.3571 390,-78 372.128,-80.951 352.926,-84.499 334.971,-87.9828"/>
<polygon fill="midnightblue" stroke="midnightblue" points="618.266,-49.2393 627.758,-44.5325 617.403,-42.2928 618.266,-49.2393"/>
</g>
<!-- Node20&#45;&gt;Node11 -->
<g id="edge23" class="edge"><title>Node20&#45;&gt;Node11</title>
<path fill="none" stroke="midnightblue" d="M623.893,-161.143C559.698,-152.603 469.122,-140.009 390,-127 373.491,-124.286 355.83,-121.135 339.064,-118.027"/>
<polygon fill="midnightblue" stroke="midnightblue" points="623.59,-164.633 633.963,-162.478 624.51,-157.694 623.59,-164.633"/>
</g>
<!-- Node22 -->
<g id="node22" class="node"><title>Node22</title>
<g id="a_node22"><a xlink:href="../../d9/dea/classmodel_1_1_turtle_multiple.html#a03519dd8e6614f4404c6dca3160c9f65" target="_top" xlink:title="model.TurtleMultiple.set\lTowards">
<polygon fill="white" stroke="black" points="414,-0 414,-30 544,-30 544,-0 414,-0"/>
<text text-anchor="start" x="422" y="-18" font-family="Helvetica,sans-Serif" font-size="10.00">model.TurtleMultiple.set</text>
<text text-anchor="middle" x="479" y="-7" font-family="Helvetica,sans-Serif" font-size="10.00">Towards</text>
</a>
</g>
</g>
<!-- Node21&#45;&gt;Node22 -->
<g id="edge25" class="edge"><title>Node21&#45;&gt;Node22</title>
<path fill="none" stroke="midnightblue" d="M351.419,-27.8925C372.414,-25.7541 394.375,-23.5173 413.999,-21.5186"/>
<polygon fill="midnightblue" stroke="midnightblue" points="350.798,-24.4376 341.204,-28.9329 351.507,-31.4016 350.798,-24.4376"/>
</g>
</g>
</svg>
        <g id="navigator" transform="translate(0 0)" fill="#404254">
                <rect fill="#f2f5e9" fill-opacity="0.5" stroke="#606060" stroke-width=".5" x="0" y="0" width="60" height="60"/>
                <use id="zoomplus" xlink:href="#zoomPlus" x="17" y="9" onmousedown="handleZoom(evt,'in')"/>
                <use id="zoomminus" xlink:href="#zoomMin" x="42" y="9" onmousedown="handleZoom(evt,'out')"/>
                <use id="reset" xlink:href="#resetDef" x="30" y="36" onmousedown="handleReset()"/>
                <g id="arrowUp" xlink:href="#dirArrow" transform="translate(30 24)" onmousedown="handlePan(0,-1)">
                  <use xlink:href="#rim" fill="#404040">
                        <set attributeName="fill" to="#808080" begin="arrowUp.mouseover" end="arrowUp.mouseout"/>
                  </use>
                  <path fill="none" stroke="white" stroke-width="1.5" d="M0,-3.0v7 M-2.5,-0.5L0,-3.0L2.5,-0.5"/>
                </g>
                <g id="arrowRight" xlink:href="#dirArrow" transform="rotate(90) translate(36 -43)" onmousedown="handlePan(1,0)">
                  <use xlink:href="#rim" fill="#404040">
                        <set attributeName="fill" to="#808080" begin="arrowRight.mouseover" end="arrowRight.mouseout"/>
                  </use>
                  <path fill="none" stroke="white" stroke-width="1.5" d="M0,-3.0v7 M-2.5,-0.5L0,-3.0L2.5,-0.5"/>
                </g>
                <g id="arrowDown" xlink:href="#dirArrow" transform="rotate(180) translate(-30 -48)" onmousedown="handlePan(0,1)">
                  <use xlink:href="#rim" fill="#404040">
                        <set attributeName="fill" to="#808080" begin="arrowDown.mouseover" end="arrowDown.mouseout"/>
                  </use>
                  <path fill="none" stroke="white" stroke-width="1.5" d="M0,-3.0v7 M-2.5,-0.5L0,-3.0L2.5,-0.5"/>
                </g>
                <g id="arrowLeft" xlink:href="#dirArrow" transform="rotate(270) translate(-36 17)" onmousedown="handlePan(-1,0)">
                  <use xlink:href="#rim" fill="#404040">
                        <set attributeName="fill" to="#808080" begin="arrowLeft.mouseover" end="arrowLeft.mouseout"/>
                  </use>
                  <path fill="none" stroke="white" stroke-width="1.5" d="M0,-3.0v7 M-2.5,-0.5L0,-3.0L2.5,-0.5"/>
                </g>
        </g>
        <svg viewBox="0 0 15 15" width="100%" height="30px" preserveAspectRatio="xMaxYMin meet">
         <g id="arrow_out" transform="scale(0.3 0.3)">
          <a xlink:href="classmodel_1_1_coordinates_a52f6ed56424da9a52c598f9c94f2c8ff_icgraph_org.svg" target="_base">
           <rect id="button" ry="5" rx="5" y="6" x="6" height="38" width="38"
                fill="#f2f5e9" fill-opacity="0.5" stroke="#606060" stroke-width="1.0"/>
           <path id="arrow"
             d="M 11.500037,31.436501 C 11.940474,20.09759 22.043105,11.32322 32.158766,21.979434 L 37.068811,17.246167 C 37.068811,17.246167 37.088388,32 37.088388,32 L 22.160133,31.978069 C 22.160133,31.978069 26.997745,27.140456 26.997745,27.140456 C 18.528582,18.264221 13.291696,25.230495 11.500037,31.436501 z"
             style="fill:#404040;"/>
          </a>
         </g>
        </svg>
</svg>
