<?xml version="1.0" encoding="UTF-8" standalone="no"?>
<!DOCTYPE svg PUBLIC "-//W3C//DTD SVG 1.1//EN"
 "http://www.w3.org/Graphics/SVG/1.1/DTD/svg11.dtd">
<!-- Generated by graphviz version 2.36.0 (20140111.2315)
 -->
<!-- Title: model.Coordinates.Coordinates Pages: 1 -->
<svg width="344pt" height="66pt"
 viewBox="0.00 0.00 344.00 66.00" xmlns="http://www.w3.org/2000/svg" xmlns:xlink="http://www.w3.org/1999/xlink">
<g id="graph0" class="graph" transform="scale(1 1) rotate(0) translate(4 62)">
<title>model.Coordinates.Coordinates</title>
<polygon fill="white" stroke="none" points="-4,4 -4,-62 340,-62 340,4 -4,4"/>
<!-- Node1 -->
<g id="node1" class="node"><title>Node1</title>
<polygon fill="#bfbfbf" stroke="black" points="0,-19.5 0,-38.5 168,-38.5 168,-19.5 0,-19.5"/>
<text text-anchor="middle" x="84" y="-26.5" font-family="Helvetica,sans-Serif" font-size="10.00">model.Coordinates.Coordinates</text>
</g>
<!-- Node2 -->
<g id="node2" class="node"><title>Node2</title>
<g id="a_node2"><a xlink:href="../../d8/d6a/classmodel_1_1_coordinates.html#af4866826a0da36de7015ac63447db5b1" target="_top" xlink:title="model.Coordinates.getX">
<polygon fill="white" stroke="black" points="204,-38.5 204,-57.5 336,-57.5 336,-38.5 204,-38.5"/>
<text text-anchor="middle" x="270" y="-45.5" font-family="Helvetica,sans-Serif" font-size="10.00">model.Coordinates.getX</text>
</a>
</g>
</g>
<!-- Node1&#45;&gt;Node2 -->
<g id="edge1" class="edge"><title>Node1&#45;&gt;Node2</title>
<path fill="none" stroke="midnightblue" d="M168.118,-37.5828C176.649,-38.4638 185.283,-39.3553 193.723,-40.2268"/>
<polygon fill="midnightblue" stroke="midnightblue" points="193.594,-43.7321 203.901,-41.2778 194.313,-36.7691 193.594,-43.7321"/>
</g>
<!-- Node3 -->
<g id="node3" class="node"><title>Node3</title>
<g id="a_node3"><a xlink:href="../../d8/d6a/classmodel_1_1_coordinates.html#a52f6ed56424da9a52c598f9c94f2c8ff" target="_top" xlink:title="model.Coordinates.getY">
<polygon fill="white" stroke="black" points="204.5,-0.5 204.5,-19.5 335.5,-19.5 335.5,-0.5 204.5,-0.5"/>
<text text-anchor="middle" x="270" y="-7.5" font-family="Helvetica,sans-Serif" font-size="10.00">model.Coordinates.getY</text>
</a>
</g>
</g>
<!-- Node1&#45;&gt;Node3 -->
<g id="edge2" class="edge"><title>Node1&#45;&gt;Node3</title>
<path fill="none" stroke="midnightblue" d="M168.118,-20.4172C176.88,-19.5124 185.75,-18.5965 194.407,-17.7026"/>
<polygon fill="midnightblue" stroke="midnightblue" points="194.864,-21.174 204.452,-16.6653 194.145,-14.211 194.864,-21.174"/>
</g>
</g>
</svg>
