<?xml version="1.0" encoding="UTF-8" standalone="no"?>
<!DOCTYPE svg PUBLIC "-//W3C//DTD SVG 1.1//EN"
 "http://www.w3.org/Graphics/SVG/1.1/DTD/svg11.dtd">
<!-- Generated by graphviz version 2.36.0 (20140111.2315)
 -->
<!-- Title: model.Coordinates.equals Pages: 1 -->
<svg width="318pt" height="66pt"
 viewBox="0.00 0.00 318.00 66.00" xmlns="http://www.w3.org/2000/svg" xmlns:xlink="http://www.w3.org/1999/xlink">
<g id="graph0" class="graph" transform="scale(1 1) rotate(0) translate(4 62)">
<title>model.Coordinates.equals</title>
<polygon fill="white" stroke="none" points="-4,4 -4,-62 314,-62 314,4 -4,4"/>
<!-- Node1 -->
<g id="node1" class="node"><title>Node1</title>
<polygon fill="#bfbfbf" stroke="black" points="0,-19.5 0,-38.5 142,-38.5 142,-19.5 0,-19.5"/>
<text text-anchor="middle" x="71" y="-26.5" font-family="Helvetica,sans-Serif" font-size="10.00">model.Coordinates.equals</text>
</g>
<!-- Node2 -->
<g id="node2" class="node"><title>Node2</title>
<g id="a_node2"><a xlink:href="../../d8/d6a/classmodel_1_1_coordinates.html#af4866826a0da36de7015ac63447db5b1" target="_top" xlink:title="model.Coordinates.getX">
<polygon fill="white" stroke="black" points="178,-38.5 178,-57.5 310,-57.5 310,-38.5 178,-38.5"/>
<text text-anchor="middle" x="244" y="-45.5" font-family="Helvetica,sans-Serif" font-size="10.00">model.Coordinates.getX</text>
</a>
</g>
</g>
<!-- Node1&#45;&gt;Node2 -->
<g id="edge1" class="edge"><title>Node1&#45;&gt;Node2</title>
<path fill="none" stroke="midnightblue" d="M142.046,-36.7828C150.531,-37.7257 159.227,-38.6919 167.783,-39.6426"/>
<polygon fill="midnightblue" stroke="midnightblue" points="167.417,-43.1233 177.742,-40.7492 168.19,-36.1662 167.417,-43.1233"/>
</g>
<!-- Node3 -->
<g id="node3" class="node"><title>Node3</title>
<g id="a_node3"><a xlink:href="../../d8/d6a/classmodel_1_1_coordinates.html#a52f6ed56424da9a52c598f9c94f2c8ff" target="_top" xlink:title="model.Coordinates.getY">
<polygon fill="white" stroke="black" points="178.5,-0.5 178.5,-19.5 309.5,-19.5 309.5,-0.5 178.5,-0.5"/>
<text text-anchor="middle" x="244" y="-7.5" font-family="Helvetica,sans-Serif" font-size="10.00">model.Coordinates.getY</text>
</a>
</g>
</g>
<!-- Node1&#45;&gt;Node3 -->
<g id="edge2" class="edge"><title>Node1&#45;&gt;Node3</title>
<path fill="none" stroke="midnightblue" d="M142.046,-21.2172C150.664,-20.2596 159.499,-19.2779 168.184,-18.3129"/>
<polygon fill="midnightblue" stroke="midnightblue" points="168.737,-21.7731 178.289,-17.1901 167.964,-14.8159 168.737,-21.7731"/>
</g>
</g>
</svg>
