<?xml version="1.0" encoding="UTF-8" standalone="no"?>
<!DOCTYPE svg PUBLIC "-//W3C//DTD SVG 1.1//EN"
 "http://www.w3.org/Graphics/SVG/1.1/DTD/svg11.dtd">
<!-- Generated by graphviz version 2.36.0 (20140111.2315)
 -->
<!-- Title: parser.commands.SetPalette Pages: 1 -->
<svg width="164pt" height="128pt"
 viewBox="0.00 0.00 164.00 128.00" xmlns="http://www.w3.org/2000/svg" xmlns:xlink="http://www.w3.org/1999/xlink">
<g id="graph0" class="graph" transform="scale(1 1) rotate(0) translate(4 124)">
<title>parser.commands.SetPalette</title>
<polygon fill="white" stroke="none" points="-4,4 -4,-124 160,-124 160,4 -4,4"/>
<!-- Node1 -->
<g id="node1" class="node"><title>Node1</title>
<polygon fill="#bfbfbf" stroke="black" points="0,-0.5 0,-19.5 156,-19.5 156,-0.5 0,-0.5"/>
<text text-anchor="middle" x="78" y="-7.5" font-family="Helvetica,sans-Serif" font-size="10.00">parser.commands.SetPalette</text>
</g>
<!-- Node2 -->
<g id="node2" class="node"><title>Node2</title>
<g id="a_node2"><a xlink:href="../../da/d96/classparser_1_1nodes_1_1_syntax_node.html" target="_top" xlink:title="parser.nodes.SyntaxNode">
<polygon fill="white" stroke="black" points="8,-100.5 8,-119.5 148,-119.5 148,-100.5 8,-100.5"/>
<text text-anchor="middle" x="78" y="-107.5" font-family="Helvetica,sans-Serif" font-size="10.00">parser.nodes.SyntaxNode</text>
</a>
</g>
</g>
<!-- Node2&#45;&gt;Node1 -->
<g id="edge1" class="edge"><title>Node2&#45;&gt;Node1</title>
<path fill="none" stroke="midnightblue" d="M76.4399,-90.3825C76.2572,-87.5753 76.1003,-84.7126 76,-82 75.2772,-62.4578 75.2772,-57.5422 76,-38 76.2293,-31.7998 76.7539,-24.8151 77.2083,-19.5033"/>
<polygon fill="midnightblue" stroke="midnightblue" points="72.9607,-90.7906 77.2083,-100.497 79.9406,-90.2602 72.9607,-90.7906"/>
</g>
<!-- Node2&#45;&gt;Node1 -->
<g id="edge2" class="edge"><title>Node2&#45;&gt;Node1</title>
<path fill="none" stroke="#9a32cd" stroke-dasharray="5,2" d="M78,-90.2203C78,-68.9514 78,-35.2197 78,-19.5374"/>
<polygon fill="#9a32cd" stroke="#9a32cd" points="74.5001,-90.3031 78,-100.303 81.5001,-90.3032 74.5001,-90.3031"/>
<text text-anchor="middle" x="104" y="-74" font-family="Helvetica,sans-Serif" font-size="10.00"> nodeFour</text>
<text text-anchor="middle" x="104" y="-63" font-family="Helvetica,sans-Serif" font-size="10.00">nodeThree</text>
<text text-anchor="middle" x="104" y="-52" font-family="Helvetica,sans-Serif" font-size="10.00">nodeOne</text>
<text text-anchor="middle" x="104" y="-41" font-family="Helvetica,sans-Serif" font-size="10.00">nodeTwo</text>
</g>
</g>
</svg>
