<?xml version="1.0" encoding="UTF-8" standalone="no"?>
<!DOCTYPE svg PUBLIC "-//W3C//DTD SVG 1.1//EN"
 "http://www.w3.org/Graphics/SVG/1.1/DTD/svg11.dtd">
<!-- Generated by graphviz version 2.36.0 (20140111.2315)
 -->
<!-- Title: view.components.CommandPort.runCommand Pages: 1 -->
<svg width="1666pt" height="381pt"
 viewBox="0.00 0.00 1666.00 381.00" xmlns="http://www.w3.org/2000/svg" xmlns:xlink="http://www.w3.org/1999/xlink">
<g id="graph0" class="graph" transform="scale(1 1) rotate(0) translate(4 377)">
<title>view.components.CommandPort.runCommand</title>
<polygon fill="white" stroke="none" points="-4,4 -4,-377 1662,-377 1662,4 -4,4"/>
<!-- Node1 -->
<g id="node1" class="node"><title>Node1</title>
<polygon fill="#bfbfbf" stroke="black" points="0.5,-145 0.5,-175 191.5,-175 191.5,-145 0.5,-145"/>
<text text-anchor="start" x="8.5" y="-163" font-family="Helvetica,sans-Serif" font-size="10.00">view.components.CommandPort.run</text>
<text text-anchor="middle" x="96" y="-152" font-family="Helvetica,sans-Serif" font-size="10.00">Command</text>
</g>
<!-- Node2 -->
<g id="node2" class="node"><title>Node2</title>
<g id="a_node2"><a xlink:href="../../db/d98/classview_1_1components_1_1_command_port.html#a687e2098038140e833e1bac1a759b587" target="_top" xlink:title="view.components.CommandPort.run\lCommand">
<polygon fill="white" stroke="black" points="228.5,-145 228.5,-175 419.5,-175 419.5,-145 228.5,-145"/>
<text text-anchor="start" x="236.5" y="-163" font-family="Helvetica,sans-Serif" font-size="10.00">view.components.CommandPort.run</text>
<text text-anchor="middle" x="324" y="-152" font-family="Helvetica,sans-Serif" font-size="10.00">Command</text>
</a>
</g>
</g>
<!-- Node1&#45;&gt;Node2 -->
<g id="edge1" class="edge"><title>Node1&#45;&gt;Node2</title>
<path fill="none" stroke="midnightblue" d="M191.535,-160C200.411,-160 209.443,-160 218.405,-160"/>
<polygon fill="midnightblue" stroke="midnightblue" points="218.481,-163.5 228.48,-160 218.48,-156.5 218.481,-163.5"/>
</g>
<!-- Node3 -->
<g id="node3" class="node"><title>Node3</title>
<g id="a_node3"><a xlink:href="../../d3/d42/classmodel_1_1_model.html#a58696dcb49d5de7290734289922cd126" target="_top" xlink:title="model.Model.getInstance">
<polygon fill="white" stroke="black" points="456.5,-229.5 456.5,-248.5 593.5,-248.5 593.5,-229.5 456.5,-229.5"/>
<text text-anchor="middle" x="525" y="-236.5" font-family="Helvetica,sans-Serif" font-size="10.00">model.Model.getInstance</text>
</a>
</g>
</g>
<!-- Node2&#45;&gt;Node3 -->
<g id="edge2" class="edge"><title>Node2&#45;&gt;Node3</title>
<path fill="none" stroke="midnightblue" d="M362.899,-175.045C399.801,-189.695 455.34,-211.743 490.62,-225.748"/>
<polygon fill="midnightblue" stroke="midnightblue" points="489.415,-229.036 500.001,-229.473 491.998,-222.53 489.415,-229.036"/>
</g>
<!-- Node7 -->
<g id="node7" class="node"><title>Node7</title>
<g id="a_node7"><a xlink:href="../../d3/dbe/classview_1_1_view.html#a6950e4055440ab5672a2453b149f41d0" target="_top" xlink:title="view.View.getInstance">
<polygon fill="white" stroke="black" points="465.5,-169.5 465.5,-188.5 584.5,-188.5 584.5,-169.5 465.5,-169.5"/>
<text text-anchor="middle" x="525" y="-176.5" font-family="Helvetica,sans-Serif" font-size="10.00">view.View.getInstance</text>
</a>
</g>
</g>
<!-- Node2&#45;&gt;Node7 -->
<g id="edge6" class="edge"><title>Node2&#45;&gt;Node7</title>
<path fill="none" stroke="midnightblue" d="M419.546,-169.027C431.646,-170.182 443.844,-171.347 455.421,-172.452"/>
<polygon fill="midnightblue" stroke="midnightblue" points="455.131,-175.94 465.418,-173.407 455.796,-168.972 455.131,-175.94"/>
</g>
<!-- Node8 -->
<g id="node8" class="node"><title>Node8</title>
<g id="a_node8"><a xlink:href="../../d3/d42/classmodel_1_1_model.html#a8a07e7f2040e8a2ab50ec2955504f6c4" target="_top" xlink:title="model.Model.parse">
<polygon fill="white" stroke="black" points="471,-131.5 471,-150.5 579,-150.5 579,-131.5 471,-131.5"/>
<text text-anchor="middle" x="525" y="-138.5" font-family="Helvetica,sans-Serif" font-size="10.00">model.Model.parse</text>
</a>
</g>
</g>
<!-- Node2&#45;&gt;Node8 -->
<g id="edge7" class="edge"><title>Node2&#45;&gt;Node8</title>
<path fill="none" stroke="midnightblue" d="M419.546,-150.973C433.473,-149.643 447.53,-148.301 460.621,-147.051"/>
<polygon fill="midnightblue" stroke="midnightblue" points="461.27,-150.505 470.892,-146.071 460.605,-143.537 461.27,-150.505"/>
</g>
<!-- Node28 -->
<g id="node28" class="node"><title>Node28</title>
<g id="a_node28"><a xlink:href="../../d3/dbe/classview_1_1_view.html#a4a0ca8adc68660017e319de54dedcb83" target="_top" xlink:title="view.View.showDialog">
<polygon fill="white" stroke="black" points="466.5,-71.5 466.5,-90.5 583.5,-90.5 583.5,-71.5 466.5,-71.5"/>
<text text-anchor="middle" x="525" y="-78.5" font-family="Helvetica,sans-Serif" font-size="10.00">view.View.showDialog</text>
</a>
</g>
</g>
<!-- Node2&#45;&gt;Node28 -->
<g id="edge30" class="edge"><title>Node2&#45;&gt;Node28</title>
<path fill="none" stroke="midnightblue" d="M362.899,-144.955C399.801,-130.305 455.34,-108.257 490.62,-94.2515"/>
<polygon fill="midnightblue" stroke="midnightblue" points="491.998,-97.4702 500.001,-90.5274 489.415,-90.9642 491.998,-97.4702"/>
</g>
<!-- Node4 -->
<g id="node4" class="node"><title>Node4</title>
<g id="a_node4"><a xlink:href="../../d3/d42/classmodel_1_1_model.html#af870d64d87a18f6cd1a84a77ff6dc3a1" target="_top" xlink:title="model.Model.Model">
<polygon fill="white" stroke="black" points="672,-295.5 672,-314.5 782,-314.5 782,-295.5 672,-295.5"/>
<text text-anchor="middle" x="727" y="-302.5" font-family="Helvetica,sans-Serif" font-size="10.00">model.Model.Model</text>
</a>
</g>
</g>
<!-- Node3&#45;&gt;Node4 -->
<g id="edge3" class="edge"><title>Node3&#45;&gt;Node4</title>
<path fill="none" stroke="midnightblue" d="M555.082,-248.597C589.989,-260.116 648.651,-279.475 687.344,-292.244"/>
<polygon fill="midnightblue" stroke="midnightblue" points="686.615,-295.688 697.208,-295.499 688.808,-289.041 686.615,-295.688"/>
</g>
<!-- Node5 -->
<g id="node5" class="node"><title>Node5</title>
<g id="a_node5"><a xlink:href="../../d3/d42/classmodel_1_1_model.html#a068261e6e8761ccabf6d227ee17732ea" target="_top" xlink:title="model.Model.setState">
<polygon fill="white" stroke="black" points="899,-345.5 899,-364.5 1021,-364.5 1021,-345.5 899,-345.5"/>
<text text-anchor="middle" x="960" y="-352.5" font-family="Helvetica,sans-Serif" font-size="10.00">model.Model.setState</text>
</a>
</g>
</g>
<!-- Node4&#45;&gt;Node5 -->
<g id="edge4" class="edge"><title>Node4&#45;&gt;Node5</title>
<path fill="none" stroke="midnightblue" d="M771.993,-314.522C809.765,-322.698 864.358,-334.515 904.815,-343.272"/>
<polygon fill="midnightblue" stroke="midnightblue" points="904.264,-346.733 914.778,-345.428 905.745,-339.892 904.264,-346.733"/>
</g>
<!-- Node6 -->
<g id="node6" class="node"><title>Node6</title>
<g id="a_node6"><a xlink:href="../../d4/d3a/classparser_1_1parser_1_1_parser.html#a6e5a4c214fd0af163bdf2f1f5ad84505" target="_top" xlink:title="parser.parser.Parser.set\lActiveState">
<polygon fill="white" stroke="black" points="1132,-342 1132,-372 1262,-372 1262,-342 1132,-342"/>
<text text-anchor="start" x="1140" y="-360" font-family="Helvetica,sans-Serif" font-size="10.00">parser.parser.Parser.set</text>
<text text-anchor="middle" x="1197" y="-349" font-family="Helvetica,sans-Serif" font-size="10.00">ActiveState</text>
</a>
</g>
</g>
<!-- Node5&#45;&gt;Node6 -->
<g id="edge5" class="edge"><title>Node5&#45;&gt;Node6</title>
<path fill="none" stroke="midnightblue" d="M1021.21,-355.512C1051.77,-355.772 1089.17,-356.091 1121.52,-356.366"/>
<polygon fill="midnightblue" stroke="midnightblue" points="1121.8,-359.869 1131.83,-356.454 1121.86,-352.869 1121.8,-359.869"/>
</g>
<!-- Node9 -->
<g id="node9" class="node"><title>Node9</title>
<g id="a_node9"><a xlink:href="../../db/df9/classmodel_1_1_command_history.html#a435edf344accb9115ca6183eb28594df" target="_top" xlink:title="model.CommandHistory.add\lCommand">
<polygon fill="white" stroke="black" points="650.5,-115 650.5,-145 803.5,-145 803.5,-115 650.5,-115"/>
<text text-anchor="start" x="658.5" y="-133" font-family="Helvetica,sans-Serif" font-size="10.00">model.CommandHistory.add</text>
<text text-anchor="middle" x="727" y="-122" font-family="Helvetica,sans-Serif" font-size="10.00">Command</text>
</a>
</g>
</g>
<!-- Node8&#45;&gt;Node9 -->
<g id="edge8" class="edge"><title>Node8&#45;&gt;Node9</title>
<path fill="none" stroke="midnightblue" d="M579.071,-138.081C597.867,-137.047 619.524,-135.856 640.335,-134.712"/>
<polygon fill="midnightblue" stroke="midnightblue" points="640.675,-138.198 650.468,-134.154 640.29,-131.209 640.675,-138.198"/>
</g>
<!-- Node11 -->
<g id="node11" class="node"><title>Node11</title>
<g id="a_node11"><a xlink:href="../../d1/d4b/classparser_1_1nodes_1_1_command_root.html#ad17f6840005e54b498a8857f161cd6b1" target="_top" xlink:title="parser.nodes.CommandRoot.execute">
<polygon fill="white" stroke="black" points="630,-76.5 630,-95.5 824,-95.5 824,-76.5 630,-76.5"/>
<text text-anchor="middle" x="727" y="-83.5" font-family="Helvetica,sans-Serif" font-size="10.00">parser.nodes.CommandRoot.execute</text>
</a>
</g>
</g>
<!-- Node8&#45;&gt;Node11 -->
<g id="edge10" class="edge"><title>Node8&#45;&gt;Node11</title>
<path fill="none" stroke="midnightblue" d="M550.497,-131.446C571.385,-123.56 602.335,-112.487 630,-105 640.005,-102.292 650.692,-99.7961 661.17,-97.5644"/>
<polygon fill="midnightblue" stroke="midnightblue" points="662.037,-100.959 671.121,-95.5075 660.62,-94.1041 662.037,-100.959"/>
</g>
<!-- Node14 -->
<g id="node14" class="node"><title>Node14</title>
<g id="a_node14"><a xlink:href="../../d7/dab/classmodel_1_1_state.html#a494a9cb26df072d500f0b6fa941c2779" target="_top" xlink:title="model.State.getCommandHistory">
<polygon fill="white" stroke="black" points="637.5,-202.5 637.5,-221.5 816.5,-221.5 816.5,-202.5 637.5,-202.5"/>
<text text-anchor="middle" x="727" y="-209.5" font-family="Helvetica,sans-Serif" font-size="10.00">model.State.getCommandHistory</text>
</a>
</g>
</g>
<!-- Node8&#45;&gt;Node14 -->
<g id="edge14" class="edge"><title>Node8&#45;&gt;Node14</title>
<path fill="none" stroke="midnightblue" d="M571.803,-150.601C579.464,-153.097 587.143,-156.189 594,-160 612.973,-170.543 610.635,-183.196 630,-193 634.832,-195.446 639.948,-197.578 645.204,-199.435"/>
<polygon fill="midnightblue" stroke="midnightblue" points="644.193,-202.786 654.784,-202.491 646.321,-196.117 644.193,-202.786"/>
</g>
<!-- Node15 -->
<g id="node15" class="node"><title>Node15</title>
<g id="a_node15"><a xlink:href="../../d4/d3a/classparser_1_1parser_1_1_parser.html#a51f4baa200eb0c94b804119b1439a1aa" target="_top" xlink:title="parser.parser.Parser.parse">
<polygon fill="white" stroke="black" points="656,-164.5 656,-183.5 798,-183.5 798,-164.5 656,-164.5"/>
<text text-anchor="middle" x="727" y="-171.5" font-family="Helvetica,sans-Serif" font-size="10.00">parser.parser.Parser.parse</text>
</a>
</g>
</g>
<!-- Node8&#45;&gt;Node15 -->
<g id="edge15" class="edge"><title>Node8&#45;&gt;Node15</title>
<path fill="none" stroke="midnightblue" d="M579.071,-149.757C603.284,-153.752 632.244,-158.53 658.027,-162.785"/>
<polygon fill="midnightblue" stroke="midnightblue" points="657.672,-166.273 668.109,-164.448 658.812,-159.367 657.672,-166.273"/>
</g>
<!-- Node10 -->
<g id="node10" class="node"><title>Node10</title>
<g id="a_node10"><a xlink:href="../../db/df9/classmodel_1_1_command_history.html#ac471d294d4221291007a86a8764a644d" target="_top" xlink:title="model.CommandHistory.notify\lObservers">
<polygon fill="white" stroke="black" points="879.5,-49 879.5,-79 1040.5,-79 1040.5,-49 879.5,-49"/>
<text text-anchor="start" x="887.5" y="-67" font-family="Helvetica,sans-Serif" font-size="10.00">model.CommandHistory.notify</text>
<text text-anchor="middle" x="960" y="-56" font-family="Helvetica,sans-Serif" font-size="10.00">Observers</text>
</a>
</g>
</g>
<!-- Node9&#45;&gt;Node10 -->
<g id="edge9" class="edge"><title>Node9&#45;&gt;Node10</title>
<path fill="none" stroke="midnightblue" d="M787.253,-114.984C799.432,-111.781 812.151,-108.352 824,-105 840.099,-100.446 843.994,-98.8704 860,-94 872.802,-90.1046 886.537,-85.9354 899.58,-81.9818"/>
<polygon fill="midnightblue" stroke="midnightblue" points="900.836,-85.2585 909.391,-79.0086 898.805,-78.5593 900.836,-85.2585"/>
</g>
<!-- Node12 -->
<g id="node12" class="node"><title>Node12</title>
<g id="a_node12"><a xlink:href="../../d4/d1c/classparser_1_1nodes_1_1_list_node.html#a8f67ed3b41ee000feaf89f783def5697" target="_top" xlink:title="parser.nodes.ListNode.execute\lNodes">
<polygon fill="white" stroke="black" points="877.5,-0 877.5,-30 1042.5,-30 1042.5,-0 877.5,-0"/>
<text text-anchor="start" x="885.5" y="-18" font-family="Helvetica,sans-Serif" font-size="10.00">parser.nodes.ListNode.execute</text>
<text text-anchor="middle" x="960" y="-7" font-family="Helvetica,sans-Serif" font-size="10.00">Nodes</text>
</a>
</g>
</g>
<!-- Node11&#45;&gt;Node12 -->
<g id="edge11" class="edge"><title>Node11&#45;&gt;Node12</title>
<path fill="none" stroke="midnightblue" d="M796.635,-76.4974C806.051,-74.0264 815.422,-70.9156 824,-67 842.44,-58.583 841.743,-47.8064 860,-39 864.098,-37.0233 868.372,-35.2015 872.746,-33.5234"/>
<polygon fill="midnightblue" stroke="midnightblue" points="874.198,-36.7217 882.449,-30.0751 871.854,-30.1258 874.198,-36.7217"/>
</g>
<!-- Node13 -->
<g id="node13" class="node"><title>Node13</title>
<g id="a_node13"><a xlink:href="../../d4/d1c/classparser_1_1nodes_1_1_list_node.html#a82a3418e343a5d6ed112be4b7b2b0282" target="_top" xlink:title="parser.nodes.ListNode.execute">
<polygon fill="white" stroke="black" points="1114.5,-5.5 1114.5,-24.5 1279.5,-24.5 1279.5,-5.5 1114.5,-5.5"/>
<text text-anchor="middle" x="1197" y="-12.5" font-family="Helvetica,sans-Serif" font-size="10.00">parser.nodes.ListNode.execute</text>
</a>
</g>
</g>
<!-- Node12&#45;&gt;Node13 -->
<g id="edge12" class="edge"><title>Node12&#45;&gt;Node13</title>
<path fill="none" stroke="midnightblue" d="M1042.53,-8.53932C1062.38,-8.21051 1083.74,-8.16197 1104.03,-8.39369"/>
<polygon fill="midnightblue" stroke="midnightblue" points="1104.17,-11.8958 1114.21,-8.53513 1104.26,-4.89647 1104.17,-11.8958"/>
</g>
<!-- Node13&#45;&gt;Node12 -->
<g id="edge13" class="edge"><title>Node13&#45;&gt;Node12</title>
<path fill="none" stroke="midnightblue" d="M1114.21,-21.4649C1094.36,-21.7913 1072.99,-21.8374 1052.71,-21.6033"/>
<polygon fill="midnightblue" stroke="midnightblue" points="1052.58,-18.1013 1042.53,-21.4607 1052.48,-25.1006 1052.58,-18.1013"/>
</g>
<!-- Node16 -->
<g id="node16" class="node"><title>Node16</title>
<g id="a_node16"><a xlink:href="../../d2/d66/classparser_1_1parser_1_1_command_factory.html#a0dc44bc9972a4652d98146b5e30a5e72" target="_top" xlink:title="parser.parser.CommandFactory.create\lCommand">
<polygon fill="white" stroke="black" points="860,-137 860,-167 1060,-167 1060,-137 860,-137"/>
<text text-anchor="start" x="868" y="-155" font-family="Helvetica,sans-Serif" font-size="10.00">parser.parser.CommandFactory.create</text>
<text text-anchor="middle" x="960" y="-144" font-family="Helvetica,sans-Serif" font-size="10.00">Command</text>
</a>
</g>
</g>
<!-- Node15&#45;&gt;Node16 -->
<g id="edge16" class="edge"><title>Node15&#45;&gt;Node16</title>
<path fill="none" stroke="midnightblue" d="M798.248,-167.31C814.449,-165.767 832.06,-164.09 849.488,-162.43"/>
<polygon fill="midnightblue" stroke="midnightblue" points="850.094,-165.888 859.717,-161.456 849.43,-158.919 850.094,-165.888"/>
</g>
<!-- Node19 -->
<g id="node19" class="node"><title>Node19</title>
<g id="a_node19"><a xlink:href="../../de/d16/classparser_1_1parser_1_1_regex.html#a9da6d787de06ba7ea76d52326b532bd1" target="_top" xlink:title="parser.parser.Regex.getInstance">
<polygon fill="white" stroke="black" points="1112,-91.5 1112,-110.5 1282,-110.5 1282,-91.5 1112,-91.5"/>
<text text-anchor="middle" x="1197" y="-98.5" font-family="Helvetica,sans-Serif" font-size="10.00">parser.parser.Regex.getInstance</text>
</a>
</g>
</g>
<!-- Node15&#45;&gt;Node19 -->
<g id="edge26" class="edge"><title>Node15&#45;&gt;Node19</title>
<path fill="none" stroke="midnightblue" d="M793.264,-164.44C803.791,-161.761 814.381,-158.347 824,-154 842.225,-145.764 841.285,-134.052 860,-127 937.753,-97.7012 1032.64,-92.9079 1101.73,-94.448"/>
<polygon fill="midnightblue" stroke="midnightblue" points="1101.64,-97.9467 1111.73,-94.719 1101.83,-90.9493 1101.64,-97.9467"/>
</g>
<!-- Node22 -->
<g id="node22" class="node"><title>Node22</title>
<g id="a_node22"><a xlink:href="../../d2/d66/classparser_1_1parser_1_1_command_factory.html#a2c91b8ed8cbfcb588f6e32f7363eefd9" target="_top" xlink:title="parser.parser.CommandFactory.get\lInstance">
<polygon fill="white" stroke="black" points="867.5,-293 867.5,-323 1052.5,-323 1052.5,-293 867.5,-293"/>
<text text-anchor="start" x="875.5" y="-311" font-family="Helvetica,sans-Serif" font-size="10.00">parser.parser.CommandFactory.get</text>
<text text-anchor="middle" x="960" y="-300" font-family="Helvetica,sans-Serif" font-size="10.00">Instance</text>
</a>
</g>
</g>
<!-- Node15&#45;&gt;Node22 -->
<g id="edge22" class="edge"><title>Node15&#45;&gt;Node22</title>
<path fill="none" stroke="midnightblue" d="M798.198,-179.546C807.54,-182.583 816.474,-186.906 824,-193 855.566,-218.56 829.86,-249.772 860,-277 864.824,-281.358 870.255,-285.103 876.027,-288.322"/>
<polygon fill="midnightblue" stroke="midnightblue" points="874.828,-291.634 885.339,-292.959 877.948,-285.368 874.828,-291.634"/>
</g>
<!-- Node24 -->
<g id="node24" class="node"><title>Node24</title>
<g id="a_node24"><a xlink:href="../../dc/d09/classparser_1_1parser_1_1_to_factory.html#ac5256eea6647641f83b40c5a350a1518" target="_top" xlink:title="parser.parser.ToFactory.get\lInstance">
<polygon fill="white" stroke="black" points="888,-238 888,-268 1032,-268 1032,-238 888,-238"/>
<text text-anchor="start" x="896" y="-256" font-family="Helvetica,sans-Serif" font-size="10.00">parser.parser.ToFactory.get</text>
<text text-anchor="middle" x="960" y="-245" font-family="Helvetica,sans-Serif" font-size="10.00">Instance</text>
</a>
</g>
</g>
<!-- Node15&#45;&gt;Node24 -->
<g id="edge24" class="edge"><title>Node15&#45;&gt;Node24</title>
<path fill="none" stroke="midnightblue" d="M792.672,-183.541C803.323,-186.033 814.107,-189.141 824,-193 841.469,-199.815 843.177,-206.717 860,-215 874.226,-222.005 890.087,-228.597 904.871,-234.263"/>
<polygon fill="midnightblue" stroke="midnightblue" points="903.811,-237.603 914.403,-237.846 906.274,-231.051 903.811,-237.603"/>
</g>
<!-- Node26 -->
<g id="node26" class="node"><title>Node26</title>
<g id="a_node26"><a xlink:href="../../de/d16/classparser_1_1parser_1_1_regex.html#a5d526d752521b953619721c6d3e930bd" target="_top" xlink:title="parser.parser.Regex.getType">
<polygon fill="white" stroke="black" points="884.5,-186.5 884.5,-205.5 1035.5,-205.5 1035.5,-186.5 884.5,-186.5"/>
<text text-anchor="middle" x="960" y="-193.5" font-family="Helvetica,sans-Serif" font-size="10.00">parser.parser.Regex.getType</text>
</a>
</g>
</g>
<!-- Node15&#45;&gt;Node26 -->
<g id="edge27" class="edge"><title>Node15&#45;&gt;Node26</title>
<path fill="none" stroke="midnightblue" d="M798.248,-180.69C822.165,-182.968 849.155,-185.539 874.095,-187.914"/>
<polygon fill="midnightblue" stroke="midnightblue" points="873.986,-191.419 884.273,-188.883 874.65,-184.451 873.986,-191.419"/>
</g>
<!-- Node17 -->
<g id="node17" class="node"><title>Node17</title>
<g id="a_node17"><a xlink:href="../../de/d16/classparser_1_1parser_1_1_regex.html#aa4a03f1544e5043ea8da8f12ab4ece23" target="_top" xlink:title="parser.parser.Regex.getCommandType">
<polygon fill="white" stroke="black" points="1096.5,-129.5 1096.5,-148.5 1297.5,-148.5 1297.5,-129.5 1096.5,-129.5"/>
<text text-anchor="middle" x="1197" y="-136.5" font-family="Helvetica,sans-Serif" font-size="10.00">parser.parser.Regex.getCommandType</text>
</a>
</g>
</g>
<!-- Node16&#45;&gt;Node17 -->
<g id="edge17" class="edge"><title>Node16&#45;&gt;Node17</title>
<path fill="none" stroke="midnightblue" d="M1060.32,-146.506C1068.87,-146.033 1077.56,-145.552 1086.19,-145.075"/>
<polygon fill="midnightblue" stroke="midnightblue" points="1086.49,-148.563 1096.28,-144.516 1086.1,-141.574 1086.49,-148.563"/>
</g>
<!-- Node16&#45;&gt;Node19 -->
<g id="edge19" class="edge"><title>Node16&#45;&gt;Node19</title>
<path fill="none" stroke="midnightblue" d="M1022.02,-136.921C1045.14,-131.369 1071.74,-125.178 1096,-120 1108.14,-117.41 1121.14,-114.811 1133.62,-112.403"/>
<polygon fill="midnightblue" stroke="midnightblue" points="1134.33,-115.832 1143.49,-110.517 1133.01,-108.956 1134.33,-115.832"/>
</g>
<!-- Node18 -->
<g id="node18" class="node"><title>Node18</title>
<g id="a_node18"><a xlink:href="../../de/d16/classparser_1_1parser_1_1_regex.html#a162d120a60bdb10238c3d31c4f5f6903" target="_top" xlink:title="parser.parser.Regex.match">
<polygon fill="white" stroke="black" points="1334.5,-167.5 1334.5,-186.5 1479.5,-186.5 1479.5,-167.5 1334.5,-167.5"/>
<text text-anchor="middle" x="1407" y="-174.5" font-family="Helvetica,sans-Serif" font-size="10.00">parser.parser.Regex.match</text>
</a>
</g>
</g>
<!-- Node17&#45;&gt;Node18 -->
<g id="edge18" class="edge"><title>Node17&#45;&gt;Node18</title>
<path fill="none" stroke="midnightblue" d="M1250.22,-148.54C1278.65,-153.735 1314.02,-160.196 1343.87,-165.649"/>
<polygon fill="midnightblue" stroke="midnightblue" points="1343.29,-169.102 1353.76,-167.456 1344.55,-162.216 1343.29,-169.102"/>
</g>
<!-- Node20 -->
<g id="node20" class="node"><title>Node20</title>
<g id="a_node20"><a xlink:href="../../de/d16/classparser_1_1parser_1_1_regex.html#a1fd187b9f2b45d0707cb10057e80d7ff" target="_top" xlink:title="parser.parser.Regex.Regex">
<polygon fill="white" stroke="black" points="1335.5,-91.5 1335.5,-110.5 1478.5,-110.5 1478.5,-91.5 1335.5,-91.5"/>
<text text-anchor="middle" x="1407" y="-98.5" font-family="Helvetica,sans-Serif" font-size="10.00">parser.parser.Regex.Regex</text>
</a>
</g>
</g>
<!-- Node19&#45;&gt;Node20 -->
<g id="edge20" class="edge"><title>Node19&#45;&gt;Node20</title>
<path fill="none" stroke="midnightblue" d="M1282,-101C1296.25,-101 1311.01,-101 1325.17,-101"/>
<polygon fill="midnightblue" stroke="midnightblue" points="1325.36,-104.5 1335.36,-101 1325.36,-97.5001 1325.36,-104.5"/>
</g>
<!-- Node21 -->
<g id="node21" class="node"><title>Node21</title>
<g id="a_node21"><a xlink:href="../../de/d16/classparser_1_1parser_1_1_regex.html#a413da3364c9c07a315222d34d7f0fc56" target="_top" xlink:title="parser.parser.Regex.make\lPatterns">
<polygon fill="white" stroke="black" points="1516.5,-86 1516.5,-116 1657.5,-116 1657.5,-86 1516.5,-86"/>
<text text-anchor="start" x="1524.5" y="-104" font-family="Helvetica,sans-Serif" font-size="10.00">parser.parser.Regex.make</text>
<text text-anchor="middle" x="1587" y="-93" font-family="Helvetica,sans-Serif" font-size="10.00">Patterns</text>
</a>
</g>
</g>
<!-- Node20&#45;&gt;Node21 -->
<g id="edge21" class="edge"><title>Node20&#45;&gt;Node21</title>
<path fill="none" stroke="midnightblue" d="M1478.61,-101C1487.63,-101 1496.92,-101 1506.08,-101"/>
<polygon fill="midnightblue" stroke="midnightblue" points="1506.35,-104.5 1516.35,-101 1506.35,-97.5001 1506.35,-104.5"/>
</g>
<!-- Node23 -->
<g id="node23" class="node"><title>Node23</title>
<g id="a_node23"><a xlink:href="../../d2/d66/classparser_1_1parser_1_1_command_factory.html#ac81b65f58a35eb24a9f92303cf7f491e" target="_top" xlink:title="parser.parser.CommandFactory.\lCommandFactory">
<polygon fill="white" stroke="black" points="1112.5,-293 1112.5,-323 1281.5,-323 1281.5,-293 1112.5,-293"/>
<text text-anchor="start" x="1120.5" y="-311" font-family="Helvetica,sans-Serif" font-size="10.00">parser.parser.CommandFactory.</text>
<text text-anchor="middle" x="1197" y="-300" font-family="Helvetica,sans-Serif" font-size="10.00">CommandFactory</text>
</a>
</g>
</g>
<!-- Node22&#45;&gt;Node23 -->
<g id="edge23" class="edge"><title>Node22&#45;&gt;Node23</title>
<path fill="none" stroke="midnightblue" d="M1052.53,-308C1068.86,-308 1085.89,-308 1102.28,-308"/>
<polygon fill="midnightblue" stroke="midnightblue" points="1102.39,-311.5 1112.39,-308 1102.39,-304.5 1102.39,-311.5"/>
</g>
<!-- Node25 -->
<g id="node25" class="node"><title>Node25</title>
<g id="a_node25"><a xlink:href="../../dc/d09/classparser_1_1parser_1_1_to_factory.html#a432d9b50bd2cbb0a73da7fc68b25bd4c" target="_top" xlink:title="parser.parser.ToFactory.\lToFactory">
<polygon fill="white" stroke="black" points="1133,-244 1133,-274 1261,-274 1261,-244 1133,-244"/>
<text text-anchor="start" x="1141" y="-262" font-family="Helvetica,sans-Serif" font-size="10.00">parser.parser.ToFactory.</text>
<text text-anchor="middle" x="1197" y="-251" font-family="Helvetica,sans-Serif" font-size="10.00">ToFactory</text>
</a>
</g>
</g>
<!-- Node24&#45;&gt;Node25 -->
<g id="edge25" class="edge"><title>Node24&#45;&gt;Node25</title>
<path fill="none" stroke="midnightblue" d="M1032.15,-254.816C1060.79,-255.548 1093.8,-256.391 1122.66,-257.127"/>
<polygon fill="midnightblue" stroke="midnightblue" points="1122.59,-260.627 1132.68,-257.383 1122.77,-253.629 1122.59,-260.627"/>
</g>
<!-- Node26&#45;&gt;Node18 -->
<g id="edge29" class="edge"><title>Node26&#45;&gt;Node18</title>
<path fill="none" stroke="midnightblue" d="M1035.78,-199.719C1104.18,-202.239 1208.09,-203.848 1298,-196 1315.76,-194.45 1334.97,-191.492 1352.2,-188.364"/>
<polygon fill="midnightblue" stroke="midnightblue" points="1352.91,-191.793 1362.09,-186.512 1351.62,-184.913 1352.91,-191.793"/>
</g>
<!-- Node27 -->
<g id="node27" class="node"><title>Node27</title>
<g id="a_node27"><a xlink:href="../../d7/dda/enumparser_1_1parser_1_1_general_type.html#af35aa06f434667ca22f66abcc181eb30" target="_top" xlink:title="parser.parser.GeneralType.findType">
<polygon fill="white" stroke="black" points="1106,-167.5 1106,-186.5 1288,-186.5 1288,-167.5 1106,-167.5"/>
<text text-anchor="middle" x="1197" y="-174.5" font-family="Helvetica,sans-Serif" font-size="10.00">parser.parser.GeneralType.findType</text>
</a>
</g>
</g>
<!-- Node26&#45;&gt;Node27 -->
<g id="edge28" class="edge"><title>Node26&#45;&gt;Node27</title>
<path fill="none" stroke="midnightblue" d="M1035.68,-189.962C1054.76,-188.419 1075.6,-186.735 1095.74,-185.106"/>
<polygon fill="midnightblue" stroke="midnightblue" points="1096.19,-188.581 1105.87,-184.287 1095.62,-181.604 1096.19,-188.581"/>
</g>
<!-- Node29 -->
<g id="node29" class="node"><title>Node29</title>
<g id="a_node29"><a xlink:href="../../d2/d9f/classview_1_1dialogs_1_1_dialog_box.html#a4553f61aafc3f1113c85ac09fa8e8d0f" target="_top" xlink:title="view.dialogs.DialogBox.show">
<polygon fill="white" stroke="black" points="651.5,-38.5 651.5,-57.5 802.5,-57.5 802.5,-38.5 651.5,-38.5"/>
<text text-anchor="middle" x="727" y="-45.5" font-family="Helvetica,sans-Serif" font-size="10.00">view.dialogs.DialogBox.show</text>
</a>
</g>
</g>
<!-- Node28&#45;&gt;Node29 -->
<g id="edge31" class="edge"><title>Node28&#45;&gt;Node29</title>
<path fill="none" stroke="midnightblue" d="M583.58,-71.4993C606.804,-67.6674 633.775,-63.2172 657.959,-59.2268"/>
<polygon fill="midnightblue" stroke="midnightblue" points="658.837,-62.6293 668.134,-57.5479 657.697,-55.7227 658.837,-62.6293"/>
</g>
</g>
</svg>
