<?xml version="1.0" encoding="UTF-8" standalone="no"?>
<!DOCTYPE svg PUBLIC "-//W3C//DTD SVG 1.1//EN"
 "http://www.w3.org/Graphics/SVG/1.1/DTD/svg11.dtd">
<!-- Generated by graphviz version 2.36.0 (20140111.2315)
 -->
<!-- Title: view.components.CommandPort.enterDebugMode Pages: 1 -->
<svg width="1018pt" height="71pt"
 viewBox="0.00 0.00 1018.00 71.00" xmlns="http://www.w3.org/2000/svg" xmlns:xlink="http://www.w3.org/1999/xlink">
<g id="graph0" class="graph" transform="scale(1 1) rotate(0) translate(4 67)">
<title>view.components.CommandPort.enterDebugMode</title>
<polygon fill="white" stroke="none" points="-4,4 -4,-67 1014,-67 1014,4 -4,4"/>
<!-- Node1 -->
<g id="node1" class="node"><title>Node1</title>
<polygon fill="#bfbfbf" stroke="black" points="0,-14 0,-44 200,-44 200,-14 0,-14"/>
<text text-anchor="start" x="8" y="-32" font-family="Helvetica,sans-Serif" font-size="10.00">view.components.CommandPort.enter</text>
<text text-anchor="middle" x="100" y="-21" font-family="Helvetica,sans-Serif" font-size="10.00">DebugMode</text>
</g>
<!-- Node2 -->
<g id="node2" class="node"><title>Node2</title>
<g id="a_node2"><a xlink:href="../../d3/dbe/classview_1_1_view.html#af73241772a154fae88c348f602b25216" target="_top" xlink:title="view.View.addDebuger">
<polygon fill="white" stroke="black" points="236,-38.5 236,-57.5 358,-57.5 358,-38.5 236,-38.5"/>
<text text-anchor="middle" x="297" y="-45.5" font-family="Helvetica,sans-Serif" font-size="10.00">view.View.addDebuger</text>
</a>
</g>
</g>
<!-- Node1&#45;&gt;Node2 -->
<g id="edge1" class="edge"><title>Node1&#45;&gt;Node2</title>
<path fill="none" stroke="midnightblue" d="M200.214,-38.667C208.843,-39.5077 217.453,-40.3467 225.776,-41.1576"/>
<polygon fill="midnightblue" stroke="midnightblue" points="225.474,-44.6447 235.766,-42.1311 226.153,-37.6777 225.474,-44.6447"/>
</g>
<!-- Node6 -->
<g id="node6" class="node"><title>Node6</title>
<g id="a_node6"><a xlink:href="../../d3/dbe/classview_1_1_view.html#a6950e4055440ab5672a2453b149f41d0" target="_top" xlink:title="view.View.getInstance">
<polygon fill="white" stroke="black" points="237.5,-0.5 237.5,-19.5 356.5,-19.5 356.5,-0.5 237.5,-0.5"/>
<text text-anchor="middle" x="297" y="-7.5" font-family="Helvetica,sans-Serif" font-size="10.00">view.View.getInstance</text>
</a>
</g>
</g>
<!-- Node1&#45;&gt;Node6 -->
<g id="edge5" class="edge"><title>Node1&#45;&gt;Node6</title>
<path fill="none" stroke="midnightblue" d="M200.214,-19.333C209.343,-18.4435 218.452,-17.5559 227.221,-16.7015"/>
<polygon fill="midnightblue" stroke="midnightblue" points="227.726,-20.169 237.34,-15.7156 227.047,-13.202 227.726,-20.169"/>
</g>
<!-- Node3 -->
<g id="node3" class="node"><title>Node3</title>
<g id="a_node3"><a xlink:href="../../de/d30/classview_1_1components_1_1_s_logo_workspace.html#a101f8c1f0ab5d6096b14ba2350d145bb" target="_top" xlink:title="view.components.SLogoWorkspace.start\lDebugger">
<polygon fill="white" stroke="black" points="394.5,-33 394.5,-63 603.5,-63 603.5,-33 394.5,-33"/>
<text text-anchor="start" x="402.5" y="-51" font-family="Helvetica,sans-Serif" font-size="10.00">view.components.SLogoWorkspace.start</text>
<text text-anchor="middle" x="499" y="-40" font-family="Helvetica,sans-Serif" font-size="10.00">Debugger</text>
</a>
</g>
</g>
<!-- Node2&#45;&gt;Node3 -->
<g id="edge2" class="edge"><title>Node2&#45;&gt;Node3</title>
<path fill="none" stroke="midnightblue" d="M358.007,-48C366.366,-48 375.173,-48 384.131,-48"/>
<polygon fill="midnightblue" stroke="midnightblue" points="384.293,-51.5001 394.293,-48 384.293,-44.5001 384.293,-51.5001"/>
</g>
<!-- Node4 -->
<g id="node4" class="node"><title>Node4</title>
<g id="a_node4"><a xlink:href="../../d5/d4b/classview_1_1components_1_1_turtle_window.html#a16e7723d456ac7fa532544e477e43728" target="_top" xlink:title="view.components.TurtleWindow.enter\lDebugMode">
<polygon fill="white" stroke="black" points="640.5,-33 640.5,-63 831.5,-63 831.5,-33 640.5,-33"/>
<text text-anchor="start" x="648.5" y="-51" font-family="Helvetica,sans-Serif" font-size="10.00">view.components.TurtleWindow.enter</text>
<text text-anchor="middle" x="736" y="-40" font-family="Helvetica,sans-Serif" font-size="10.00">DebugMode</text>
</a>
</g>
</g>
<!-- Node3&#45;&gt;Node4 -->
<g id="edge3" class="edge"><title>Node3&#45;&gt;Node4</title>
<path fill="none" stroke="midnightblue" d="M603.758,-48C612.508,-48 621.36,-48 630.117,-48"/>
<polygon fill="midnightblue" stroke="midnightblue" points="630.342,-51.5001 640.342,-48 630.342,-44.5001 630.342,-51.5001"/>
</g>
<!-- Node5 -->
<g id="node5" class="node"><title>Node5</title>
<g id="a_node5"><a xlink:href="../../dd/ddc/classview_1_1turtle_1_1_turtle_image.html#a723e55da67cc30beb0210960bbc4403b" target="_top" xlink:title="view.turtle.TurtleImage.set\lDebugMode">
<polygon fill="white" stroke="black" points="868.5,-33 868.5,-63 1009.5,-63 1009.5,-33 868.5,-33"/>
<text text-anchor="start" x="876.5" y="-51" font-family="Helvetica,sans-Serif" font-size="10.00">view.turtle.TurtleImage.set</text>
<text text-anchor="middle" x="939" y="-40" font-family="Helvetica,sans-Serif" font-size="10.00">DebugMode</text>
</a>
</g>
</g>
<!-- Node4&#45;&gt;Node5 -->
<g id="edge4" class="edge"><title>Node4&#45;&gt;Node5</title>
<path fill="none" stroke="midnightblue" d="M831.614,-48C840.543,-48 849.534,-48 858.303,-48"/>
<polygon fill="midnightblue" stroke="midnightblue" points="858.48,-51.5001 868.48,-48 858.48,-44.5001 858.48,-51.5001"/>
</g>
</g>
</svg>
