<?xml version="1.0" encoding="UTF-8" standalone="no"?>
<!DOCTYPE svg PUBLIC "-//W3C//DTD SVG 1.1//EN"
 "http://www.w3.org/Graphics/SVG/1.1/DTD/svg11.dtd">
<!-- Generated by graphviz version 2.36.0 (20140111.2315)
 -->
<!-- Title: view.components.CommandPort.runCommand Pages: 1 -->
<svg width="1438pt" height="381pt"
 viewBox="0.00 0.00 1438.00 381.00" xmlns="http://www.w3.org/2000/svg" xmlns:xlink="http://www.w3.org/1999/xlink">
<g id="graph0" class="graph" transform="scale(1 1) rotate(0) translate(4 377)">
<title>view.components.CommandPort.runCommand</title>
<polygon fill="white" stroke="none" points="-4,4 -4,-377 1434,-377 1434,4 -4,4"/>
<!-- Node1 -->
<g id="node1" class="node"><title>Node1</title>
<polygon fill="#bfbfbf" stroke="black" points="0.5,-145 0.5,-175 191.5,-175 191.5,-145 0.5,-145"/>
<text text-anchor="start" x="8.5" y="-163" font-family="Helvetica,sans-Serif" font-size="10.00">view.components.CommandPort.run</text>
<text text-anchor="middle" x="96" y="-152" font-family="Helvetica,sans-Serif" font-size="10.00">Command</text>
</g>
<!-- Node2 -->
<g id="node2" class="node"><title>Node2</title>
<g id="a_node2"><a xlink:href="../../d3/d42/classmodel_1_1_model.html#a58696dcb49d5de7290734289922cd126" target="_top" xlink:title="model.Model.getInstance">
<polygon fill="white" stroke="black" points="228.5,-229.5 228.5,-248.5 365.5,-248.5 365.5,-229.5 228.5,-229.5"/>
<text text-anchor="middle" x="297" y="-236.5" font-family="Helvetica,sans-Serif" font-size="10.00">model.Model.getInstance</text>
</a>
</g>
</g>
<!-- Node1&#45;&gt;Node2 -->
<g id="edge1" class="edge"><title>Node1&#45;&gt;Node2</title>
<path fill="none" stroke="midnightblue" d="M134.899,-175.045C171.801,-189.695 227.34,-211.743 262.62,-225.748"/>
<polygon fill="midnightblue" stroke="midnightblue" points="261.415,-229.036 272.001,-229.473 263.998,-222.53 261.415,-229.036"/>
</g>
<!-- Node6 -->
<g id="node6" class="node"><title>Node6</title>
<g id="a_node6"><a xlink:href="../../d3/dbe/classview_1_1_view.html#a6950e4055440ab5672a2453b149f41d0" target="_top" xlink:title="view.View.getInstance">
<polygon fill="white" stroke="black" points="237.5,-169.5 237.5,-188.5 356.5,-188.5 356.5,-169.5 237.5,-169.5"/>
<text text-anchor="middle" x="297" y="-176.5" font-family="Helvetica,sans-Serif" font-size="10.00">view.View.getInstance</text>
</a>
</g>
</g>
<!-- Node1&#45;&gt;Node6 -->
<g id="edge5" class="edge"><title>Node1&#45;&gt;Node6</title>
<path fill="none" stroke="midnightblue" d="M191.546,-169.027C203.646,-170.182 215.844,-171.347 227.421,-172.452"/>
<polygon fill="midnightblue" stroke="midnightblue" points="227.131,-175.94 237.418,-173.407 227.796,-168.972 227.131,-175.94"/>
</g>
<!-- Node7 -->
<g id="node7" class="node"><title>Node7</title>
<g id="a_node7"><a xlink:href="../../d3/d42/classmodel_1_1_model.html#a8a07e7f2040e8a2ab50ec2955504f6c4" target="_top" xlink:title="model.Model.parse">
<polygon fill="white" stroke="black" points="243,-131.5 243,-150.5 351,-150.5 351,-131.5 243,-131.5"/>
<text text-anchor="middle" x="297" y="-138.5" font-family="Helvetica,sans-Serif" font-size="10.00">model.Model.parse</text>
</a>
</g>
</g>
<!-- Node1&#45;&gt;Node7 -->
<g id="edge6" class="edge"><title>Node1&#45;&gt;Node7</title>
<path fill="none" stroke="midnightblue" d="M191.546,-150.973C205.473,-149.643 219.53,-148.301 232.621,-147.051"/>
<polygon fill="midnightblue" stroke="midnightblue" points="233.27,-150.505 242.892,-146.071 232.605,-143.537 233.27,-150.505"/>
</g>
<!-- Node27 -->
<g id="node27" class="node"><title>Node27</title>
<g id="a_node27"><a xlink:href="../../d3/dbe/classview_1_1_view.html#a4a0ca8adc68660017e319de54dedcb83" target="_top" xlink:title="view.View.showDialog">
<polygon fill="white" stroke="black" points="238.5,-71.5 238.5,-90.5 355.5,-90.5 355.5,-71.5 238.5,-71.5"/>
<text text-anchor="middle" x="297" y="-78.5" font-family="Helvetica,sans-Serif" font-size="10.00">view.View.showDialog</text>
</a>
</g>
</g>
<!-- Node1&#45;&gt;Node27 -->
<g id="edge29" class="edge"><title>Node1&#45;&gt;Node27</title>
<path fill="none" stroke="midnightblue" d="M134.899,-144.955C171.801,-130.305 227.34,-108.257 262.62,-94.2515"/>
<polygon fill="midnightblue" stroke="midnightblue" points="263.998,-97.4702 272.001,-90.5274 261.415,-90.9642 263.998,-97.4702"/>
</g>
<!-- Node3 -->
<g id="node3" class="node"><title>Node3</title>
<g id="a_node3"><a xlink:href="../../d3/d42/classmodel_1_1_model.html#af870d64d87a18f6cd1a84a77ff6dc3a1" target="_top" xlink:title="model.Model.Model">
<polygon fill="white" stroke="black" points="444,-295.5 444,-314.5 554,-314.5 554,-295.5 444,-295.5"/>
<text text-anchor="middle" x="499" y="-302.5" font-family="Helvetica,sans-Serif" font-size="10.00">model.Model.Model</text>
</a>
</g>
</g>
<!-- Node2&#45;&gt;Node3 -->
<g id="edge2" class="edge"><title>Node2&#45;&gt;Node3</title>
<path fill="none" stroke="midnightblue" d="M327.082,-248.597C361.989,-260.116 420.651,-279.475 459.344,-292.244"/>
<polygon fill="midnightblue" stroke="midnightblue" points="458.615,-295.688 469.208,-295.499 460.808,-289.041 458.615,-295.688"/>
</g>
<!-- Node4 -->
<g id="node4" class="node"><title>Node4</title>
<g id="a_node4"><a xlink:href="../../d3/d42/classmodel_1_1_model.html#a068261e6e8761ccabf6d227ee17732ea" target="_top" xlink:title="model.Model.setState">
<polygon fill="white" stroke="black" points="671,-345.5 671,-364.5 793,-364.5 793,-345.5 671,-345.5"/>
<text text-anchor="middle" x="732" y="-352.5" font-family="Helvetica,sans-Serif" font-size="10.00">model.Model.setState</text>
</a>
</g>
</g>
<!-- Node3&#45;&gt;Node4 -->
<g id="edge3" class="edge"><title>Node3&#45;&gt;Node4</title>
<path fill="none" stroke="midnightblue" d="M543.993,-314.522C581.765,-322.698 636.358,-334.515 676.815,-343.272"/>
<polygon fill="midnightblue" stroke="midnightblue" points="676.264,-346.733 686.778,-345.428 677.745,-339.892 676.264,-346.733"/>
</g>
<!-- Node5 -->
<g id="node5" class="node"><title>Node5</title>
<g id="a_node5"><a xlink:href="../../d4/d3a/classparser_1_1parser_1_1_parser.html#a6e5a4c214fd0af163bdf2f1f5ad84505" target="_top" xlink:title="parser.parser.Parser.set\lActiveState">
<polygon fill="white" stroke="black" points="904,-342 904,-372 1034,-372 1034,-342 904,-342"/>
<text text-anchor="start" x="912" y="-360" font-family="Helvetica,sans-Serif" font-size="10.00">parser.parser.Parser.set</text>
<text text-anchor="middle" x="969" y="-349" font-family="Helvetica,sans-Serif" font-size="10.00">ActiveState</text>
</a>
</g>
</g>
<!-- Node4&#45;&gt;Node5 -->
<g id="edge4" class="edge"><title>Node4&#45;&gt;Node5</title>
<path fill="none" stroke="midnightblue" d="M793.213,-355.512C823.768,-355.772 861.166,-356.091 893.516,-356.366"/>
<polygon fill="midnightblue" stroke="midnightblue" points="893.798,-359.869 903.827,-356.454 893.857,-352.869 893.798,-359.869"/>
</g>
<!-- Node8 -->
<g id="node8" class="node"><title>Node8</title>
<g id="a_node8"><a xlink:href="../../db/df9/classmodel_1_1_command_history.html#a435edf344accb9115ca6183eb28594df" target="_top" xlink:title="model.CommandHistory.add\lCommand">
<polygon fill="white" stroke="black" points="422.5,-115 422.5,-145 575.5,-145 575.5,-115 422.5,-115"/>
<text text-anchor="start" x="430.5" y="-133" font-family="Helvetica,sans-Serif" font-size="10.00">model.CommandHistory.add</text>
<text text-anchor="middle" x="499" y="-122" font-family="Helvetica,sans-Serif" font-size="10.00">Command</text>
</a>
</g>
</g>
<!-- Node7&#45;&gt;Node8 -->
<g id="edge7" class="edge"><title>Node7&#45;&gt;Node8</title>
<path fill="none" stroke="midnightblue" d="M351.071,-138.081C369.867,-137.047 391.524,-135.856 412.335,-134.712"/>
<polygon fill="midnightblue" stroke="midnightblue" points="412.675,-138.198 422.468,-134.154 412.29,-131.209 412.675,-138.198"/>
</g>
<!-- Node10 -->
<g id="node10" class="node"><title>Node10</title>
<g id="a_node10"><a xlink:href="../../d1/d4b/classparser_1_1nodes_1_1_command_root.html#ad17f6840005e54b498a8857f161cd6b1" target="_top" xlink:title="parser.nodes.CommandRoot.execute">
<polygon fill="white" stroke="black" points="402,-76.5 402,-95.5 596,-95.5 596,-76.5 402,-76.5"/>
<text text-anchor="middle" x="499" y="-83.5" font-family="Helvetica,sans-Serif" font-size="10.00">parser.nodes.CommandRoot.execute</text>
</a>
</g>
</g>
<!-- Node7&#45;&gt;Node10 -->
<g id="edge9" class="edge"><title>Node7&#45;&gt;Node10</title>
<path fill="none" stroke="midnightblue" d="M322.497,-131.446C343.385,-123.56 374.335,-112.487 402,-105 412.005,-102.292 422.692,-99.7961 433.17,-97.5644"/>
<polygon fill="midnightblue" stroke="midnightblue" points="434.037,-100.959 443.121,-95.5075 432.62,-94.1041 434.037,-100.959"/>
</g>
<!-- Node13 -->
<g id="node13" class="node"><title>Node13</title>
<g id="a_node13"><a xlink:href="../../d7/dab/classmodel_1_1_state.html#a494a9cb26df072d500f0b6fa941c2779" target="_top" xlink:title="model.State.getCommandHistory">
<polygon fill="white" stroke="black" points="409.5,-202.5 409.5,-221.5 588.5,-221.5 588.5,-202.5 409.5,-202.5"/>
<text text-anchor="middle" x="499" y="-209.5" font-family="Helvetica,sans-Serif" font-size="10.00">model.State.getCommandHistory</text>
</a>
</g>
</g>
<!-- Node7&#45;&gt;Node13 -->
<g id="edge13" class="edge"><title>Node7&#45;&gt;Node13</title>
<path fill="none" stroke="midnightblue" d="M343.803,-150.601C351.464,-153.097 359.143,-156.189 366,-160 384.973,-170.543 382.635,-183.196 402,-193 406.832,-195.446 411.948,-197.578 417.204,-199.435"/>
<polygon fill="midnightblue" stroke="midnightblue" points="416.193,-202.786 426.784,-202.491 418.321,-196.117 416.193,-202.786"/>
</g>
<!-- Node14 -->
<g id="node14" class="node"><title>Node14</title>
<g id="a_node14"><a xlink:href="../../d4/d3a/classparser_1_1parser_1_1_parser.html#a51f4baa200eb0c94b804119b1439a1aa" target="_top" xlink:title="parser.parser.Parser.parse">
<polygon fill="white" stroke="black" points="428,-164.5 428,-183.5 570,-183.5 570,-164.5 428,-164.5"/>
<text text-anchor="middle" x="499" y="-171.5" font-family="Helvetica,sans-Serif" font-size="10.00">parser.parser.Parser.parse</text>
</a>
</g>
</g>
<!-- Node7&#45;&gt;Node14 -->
<g id="edge14" class="edge"><title>Node7&#45;&gt;Node14</title>
<path fill="none" stroke="midnightblue" d="M351.071,-149.757C375.284,-153.752 404.244,-158.53 430.027,-162.785"/>
<polygon fill="midnightblue" stroke="midnightblue" points="429.672,-166.273 440.109,-164.448 430.812,-159.367 429.672,-166.273"/>
</g>
<!-- Node9 -->
<g id="node9" class="node"><title>Node9</title>
<g id="a_node9"><a xlink:href="../../db/df9/classmodel_1_1_command_history.html#ac471d294d4221291007a86a8764a644d" target="_top" xlink:title="model.CommandHistory.notify\lObservers">
<polygon fill="white" stroke="black" points="651.5,-49 651.5,-79 812.5,-79 812.5,-49 651.5,-49"/>
<text text-anchor="start" x="659.5" y="-67" font-family="Helvetica,sans-Serif" font-size="10.00">model.CommandHistory.notify</text>
<text text-anchor="middle" x="732" y="-56" font-family="Helvetica,sans-Serif" font-size="10.00">Observers</text>
</a>
</g>
</g>
<!-- Node8&#45;&gt;Node9 -->
<g id="edge8" class="edge"><title>Node8&#45;&gt;Node9</title>
<path fill="none" stroke="midnightblue" d="M559.253,-114.984C571.432,-111.781 584.151,-108.352 596,-105 612.099,-100.446 615.994,-98.8704 632,-94 644.802,-90.1046 658.537,-85.9354 671.58,-81.9818"/>
<polygon fill="midnightblue" stroke="midnightblue" points="672.836,-85.2585 681.391,-79.0086 670.805,-78.5593 672.836,-85.2585"/>
</g>
<!-- Node11 -->
<g id="node11" class="node"><title>Node11</title>
<g id="a_node11"><a xlink:href="../../d4/d1c/classparser_1_1nodes_1_1_list_node.html#a8f67ed3b41ee000feaf89f783def5697" target="_top" xlink:title="parser.nodes.ListNode.execute\lNodes">
<polygon fill="white" stroke="black" points="649.5,-0 649.5,-30 814.5,-30 814.5,-0 649.5,-0"/>
<text text-anchor="start" x="657.5" y="-18" font-family="Helvetica,sans-Serif" font-size="10.00">parser.nodes.ListNode.execute</text>
<text text-anchor="middle" x="732" y="-7" font-family="Helvetica,sans-Serif" font-size="10.00">Nodes</text>
</a>
</g>
</g>
<!-- Node10&#45;&gt;Node11 -->
<g id="edge10" class="edge"><title>Node10&#45;&gt;Node11</title>
<path fill="none" stroke="midnightblue" d="M568.635,-76.4974C578.051,-74.0264 587.422,-70.9156 596,-67 614.44,-58.583 613.743,-47.8064 632,-39 636.098,-37.0233 640.372,-35.2015 644.746,-33.5234"/>
<polygon fill="midnightblue" stroke="midnightblue" points="646.198,-36.7217 654.449,-30.0751 643.854,-30.1258 646.198,-36.7217"/>
</g>
<!-- Node12 -->
<g id="node12" class="node"><title>Node12</title>
<g id="a_node12"><a xlink:href="../../d4/d1c/classparser_1_1nodes_1_1_list_node.html#a82a3418e343a5d6ed112be4b7b2b0282" target="_top" xlink:title="parser.nodes.ListNode.execute">
<polygon fill="white" stroke="black" points="886.5,-5.5 886.5,-24.5 1051.5,-24.5 1051.5,-5.5 886.5,-5.5"/>
<text text-anchor="middle" x="969" y="-12.5" font-family="Helvetica,sans-Serif" font-size="10.00">parser.nodes.ListNode.execute</text>
</a>
</g>
</g>
<!-- Node11&#45;&gt;Node12 -->
<g id="edge11" class="edge"><title>Node11&#45;&gt;Node12</title>
<path fill="none" stroke="midnightblue" d="M814.532,-8.53932C834.378,-8.21051 855.739,-8.16197 876.033,-8.39369"/>
<polygon fill="midnightblue" stroke="midnightblue" points="876.167,-11.8958 886.214,-8.53513 876.264,-4.89647 876.167,-11.8958"/>
</g>
<!-- Node12&#45;&gt;Node11 -->
<g id="edge12" class="edge"><title>Node12&#45;&gt;Node11</title>
<path fill="none" stroke="midnightblue" d="M886.214,-21.4649C866.355,-21.7913 844.993,-21.8374 824.708,-21.6033"/>
<polygon fill="midnightblue" stroke="midnightblue" points="824.58,-18.1013 814.532,-21.4607 824.482,-25.1006 824.58,-18.1013"/>
</g>
<!-- Node15 -->
<g id="node15" class="node"><title>Node15</title>
<g id="a_node15"><a xlink:href="../../d2/d66/classparser_1_1parser_1_1_command_factory.html#a0dc44bc9972a4652d98146b5e30a5e72" target="_top" xlink:title="parser.parser.CommandFactory.create\lCommand">
<polygon fill="white" stroke="black" points="632,-137 632,-167 832,-167 832,-137 632,-137"/>
<text text-anchor="start" x="640" y="-155" font-family="Helvetica,sans-Serif" font-size="10.00">parser.parser.CommandFactory.create</text>
<text text-anchor="middle" x="732" y="-144" font-family="Helvetica,sans-Serif" font-size="10.00">Command</text>
</a>
</g>
</g>
<!-- Node14&#45;&gt;Node15 -->
<g id="edge15" class="edge"><title>Node14&#45;&gt;Node15</title>
<path fill="none" stroke="midnightblue" d="M570.248,-167.31C586.449,-165.767 604.06,-164.09 621.488,-162.43"/>
<polygon fill="midnightblue" stroke="midnightblue" points="622.094,-165.888 631.717,-161.456 621.43,-158.919 622.094,-165.888"/>
</g>
<!-- Node18 -->
<g id="node18" class="node"><title>Node18</title>
<g id="a_node18"><a xlink:href="../../de/d16/classparser_1_1parser_1_1_regex.html#a9da6d787de06ba7ea76d52326b532bd1" target="_top" xlink:title="parser.parser.Regex.getInstance">
<polygon fill="white" stroke="black" points="884,-91.5 884,-110.5 1054,-110.5 1054,-91.5 884,-91.5"/>
<text text-anchor="middle" x="969" y="-98.5" font-family="Helvetica,sans-Serif" font-size="10.00">parser.parser.Regex.getInstance</text>
</a>
</g>
</g>
<!-- Node14&#45;&gt;Node18 -->
<g id="edge25" class="edge"><title>Node14&#45;&gt;Node18</title>
<path fill="none" stroke="midnightblue" d="M565.264,-164.44C575.791,-161.761 586.381,-158.347 596,-154 614.225,-145.764 613.285,-134.052 632,-127 709.753,-97.7012 804.642,-92.9079 873.726,-94.448"/>
<polygon fill="midnightblue" stroke="midnightblue" points="873.636,-97.9467 883.727,-94.719 873.825,-90.9493 873.636,-97.9467"/>
</g>
<!-- Node21 -->
<g id="node21" class="node"><title>Node21</title>
<g id="a_node21"><a xlink:href="../../d2/d66/classparser_1_1parser_1_1_command_factory.html#a2c91b8ed8cbfcb588f6e32f7363eefd9" target="_top" xlink:title="parser.parser.CommandFactory.get\lInstance">
<polygon fill="white" stroke="black" points="639.5,-293 639.5,-323 824.5,-323 824.5,-293 639.5,-293"/>
<text text-anchor="start" x="647.5" y="-311" font-family="Helvetica,sans-Serif" font-size="10.00">parser.parser.CommandFactory.get</text>
<text text-anchor="middle" x="732" y="-300" font-family="Helvetica,sans-Serif" font-size="10.00">Instance</text>
</a>
</g>
</g>
<!-- Node14&#45;&gt;Node21 -->
<g id="edge21" class="edge"><title>Node14&#45;&gt;Node21</title>
<path fill="none" stroke="midnightblue" d="M570.198,-179.546C579.54,-182.583 588.474,-186.906 596,-193 627.566,-218.56 601.86,-249.772 632,-277 636.824,-281.358 642.255,-285.103 648.027,-288.322"/>
<polygon fill="midnightblue" stroke="midnightblue" points="646.828,-291.634 657.339,-292.959 649.948,-285.368 646.828,-291.634"/>
</g>
<!-- Node23 -->
<g id="node23" class="node"><title>Node23</title>
<g id="a_node23"><a xlink:href="../../dc/d09/classparser_1_1parser_1_1_to_factory.html#ac5256eea6647641f83b40c5a350a1518" target="_top" xlink:title="parser.parser.ToFactory.get\lInstance">
<polygon fill="white" stroke="black" points="660,-238 660,-268 804,-268 804,-238 660,-238"/>
<text text-anchor="start" x="668" y="-256" font-family="Helvetica,sans-Serif" font-size="10.00">parser.parser.ToFactory.get</text>
<text text-anchor="middle" x="732" y="-245" font-family="Helvetica,sans-Serif" font-size="10.00">Instance</text>
</a>
</g>
</g>
<!-- Node14&#45;&gt;Node23 -->
<g id="edge23" class="edge"><title>Node14&#45;&gt;Node23</title>
<path fill="none" stroke="midnightblue" d="M564.672,-183.541C575.323,-186.033 586.107,-189.141 596,-193 613.469,-199.815 615.177,-206.717 632,-215 646.226,-222.005 662.087,-228.597 676.871,-234.263"/>
<polygon fill="midnightblue" stroke="midnightblue" points="675.811,-237.603 686.403,-237.846 678.274,-231.051 675.811,-237.603"/>
</g>
<!-- Node25 -->
<g id="node25" class="node"><title>Node25</title>
<g id="a_node25"><a xlink:href="../../de/d16/classparser_1_1parser_1_1_regex.html#a5d526d752521b953619721c6d3e930bd" target="_top" xlink:title="parser.parser.Regex.getType">
<polygon fill="white" stroke="black" points="656.5,-186.5 656.5,-205.5 807.5,-205.5 807.5,-186.5 656.5,-186.5"/>
<text text-anchor="middle" x="732" y="-193.5" font-family="Helvetica,sans-Serif" font-size="10.00">parser.parser.Regex.getType</text>
</a>
</g>
</g>
<!-- Node14&#45;&gt;Node25 -->
<g id="edge26" class="edge"><title>Node14&#45;&gt;Node25</title>
<path fill="none" stroke="midnightblue" d="M570.248,-180.69C594.165,-182.968 621.155,-185.539 646.095,-187.914"/>
<polygon fill="midnightblue" stroke="midnightblue" points="645.986,-191.419 656.273,-188.883 646.65,-184.451 645.986,-191.419"/>
</g>
<!-- Node16 -->
<g id="node16" class="node"><title>Node16</title>
<g id="a_node16"><a xlink:href="../../de/d16/classparser_1_1parser_1_1_regex.html#aa4a03f1544e5043ea8da8f12ab4ece23" target="_top" xlink:title="parser.parser.Regex.getCommandType">
<polygon fill="white" stroke="black" points="868.5,-129.5 868.5,-148.5 1069.5,-148.5 1069.5,-129.5 868.5,-129.5"/>
<text text-anchor="middle" x="969" y="-136.5" font-family="Helvetica,sans-Serif" font-size="10.00">parser.parser.Regex.getCommandType</text>
</a>
</g>
</g>
<!-- Node15&#45;&gt;Node16 -->
<g id="edge16" class="edge"><title>Node15&#45;&gt;Node16</title>
<path fill="none" stroke="midnightblue" d="M832.321,-146.506C840.874,-146.033 849.559,-145.552 858.189,-145.075"/>
<polygon fill="midnightblue" stroke="midnightblue" points="858.491,-148.563 868.282,-144.516 858.104,-141.574 858.491,-148.563"/>
</g>
<!-- Node15&#45;&gt;Node18 -->
<g id="edge18" class="edge"><title>Node15&#45;&gt;Node18</title>
<path fill="none" stroke="midnightblue" d="M794.024,-136.921C817.144,-131.369 843.737,-125.178 868,-120 880.137,-117.41 893.14,-114.811 905.621,-112.403"/>
<polygon fill="midnightblue" stroke="midnightblue" points="906.327,-115.832 915.492,-110.517 905.013,-108.956 906.327,-115.832"/>
</g>
<!-- Node17 -->
<g id="node17" class="node"><title>Node17</title>
<g id="a_node17"><a xlink:href="../../de/d16/classparser_1_1parser_1_1_regex.html#a162d120a60bdb10238c3d31c4f5f6903" target="_top" xlink:title="parser.parser.Regex.match">
<polygon fill="white" stroke="black" points="1106.5,-167.5 1106.5,-186.5 1251.5,-186.5 1251.5,-167.5 1106.5,-167.5"/>
<text text-anchor="middle" x="1179" y="-174.5" font-family="Helvetica,sans-Serif" font-size="10.00">parser.parser.Regex.match</text>
</a>
</g>
</g>
<!-- Node16&#45;&gt;Node17 -->
<g id="edge17" class="edge"><title>Node16&#45;&gt;Node17</title>
<path fill="none" stroke="midnightblue" d="M1022.22,-148.54C1050.65,-153.735 1086.02,-160.196 1115.87,-165.649"/>
<polygon fill="midnightblue" stroke="midnightblue" points="1115.29,-169.102 1125.76,-167.456 1116.55,-162.216 1115.29,-169.102"/>
</g>
<!-- Node19 -->
<g id="node19" class="node"><title>Node19</title>
<g id="a_node19"><a xlink:href="../../de/d16/classparser_1_1parser_1_1_regex.html#a1fd187b9f2b45d0707cb10057e80d7ff" target="_top" xlink:title="parser.parser.Regex.Regex">
<polygon fill="white" stroke="black" points="1107.5,-91.5 1107.5,-110.5 1250.5,-110.5 1250.5,-91.5 1107.5,-91.5"/>
<text text-anchor="middle" x="1179" y="-98.5" font-family="Helvetica,sans-Serif" font-size="10.00">parser.parser.Regex.Regex</text>
</a>
</g>
</g>
<!-- Node18&#45;&gt;Node19 -->
<g id="edge19" class="edge"><title>Node18&#45;&gt;Node19</title>
<path fill="none" stroke="midnightblue" d="M1054,-101C1068.25,-101 1083.01,-101 1097.17,-101"/>
<polygon fill="midnightblue" stroke="midnightblue" points="1097.36,-104.5 1107.36,-101 1097.36,-97.5001 1097.36,-104.5"/>
</g>
<!-- Node20 -->
<g id="node20" class="node"><title>Node20</title>
<g id="a_node20"><a xlink:href="../../de/d16/classparser_1_1parser_1_1_regex.html#a413da3364c9c07a315222d34d7f0fc56" target="_top" xlink:title="parser.parser.Regex.make\lPatterns">
<polygon fill="white" stroke="black" points="1288.5,-86 1288.5,-116 1429.5,-116 1429.5,-86 1288.5,-86"/>
<text text-anchor="start" x="1296.5" y="-104" font-family="Helvetica,sans-Serif" font-size="10.00">parser.parser.Regex.make</text>
<text text-anchor="middle" x="1359" y="-93" font-family="Helvetica,sans-Serif" font-size="10.00">Patterns</text>
</a>
</g>
</g>
<!-- Node19&#45;&gt;Node20 -->
<g id="edge20" class="edge"><title>Node19&#45;&gt;Node20</title>
<path fill="none" stroke="midnightblue" d="M1250.61,-101C1259.63,-101 1268.92,-101 1278.08,-101"/>
<polygon fill="midnightblue" stroke="midnightblue" points="1278.35,-104.5 1288.35,-101 1278.35,-97.5001 1278.35,-104.5"/>
</g>
<!-- Node22 -->
<g id="node22" class="node"><title>Node22</title>
<g id="a_node22"><a xlink:href="../../d2/d66/classparser_1_1parser_1_1_command_factory.html#ac81b65f58a35eb24a9f92303cf7f491e" target="_top" xlink:title="parser.parser.CommandFactory.\lCommandFactory">
<polygon fill="white" stroke="black" points="884.5,-293 884.5,-323 1053.5,-323 1053.5,-293 884.5,-293"/>
<text text-anchor="start" x="892.5" y="-311" font-family="Helvetica,sans-Serif" font-size="10.00">parser.parser.CommandFactory.</text>
<text text-anchor="middle" x="969" y="-300" font-family="Helvetica,sans-Serif" font-size="10.00">CommandFactory</text>
</a>
</g>
</g>
<!-- Node21&#45;&gt;Node22 -->
<g id="edge22" class="edge"><title>Node21&#45;&gt;Node22</title>
<path fill="none" stroke="midnightblue" d="M824.53,-308C840.859,-308 857.892,-308 874.281,-308"/>
<polygon fill="midnightblue" stroke="midnightblue" points="874.39,-311.5 884.39,-308 874.39,-304.5 874.39,-311.5"/>
</g>
<!-- Node24 -->
<g id="node24" class="node"><title>Node24</title>
<g id="a_node24"><a xlink:href="../../dc/d09/classparser_1_1parser_1_1_to_factory.html#a432d9b50bd2cbb0a73da7fc68b25bd4c" target="_top" xlink:title="parser.parser.ToFactory.\lToFactory">
<polygon fill="white" stroke="black" points="905,-244 905,-274 1033,-274 1033,-244 905,-244"/>
<text text-anchor="start" x="913" y="-262" font-family="Helvetica,sans-Serif" font-size="10.00">parser.parser.ToFactory.</text>
<text text-anchor="middle" x="969" y="-251" font-family="Helvetica,sans-Serif" font-size="10.00">ToFactory</text>
</a>
</g>
</g>
<!-- Node23&#45;&gt;Node24 -->
<g id="edge24" class="edge"><title>Node23&#45;&gt;Node24</title>
<path fill="none" stroke="midnightblue" d="M804.145,-254.816C832.785,-255.548 865.801,-256.391 894.658,-257.127"/>
<polygon fill="midnightblue" stroke="midnightblue" points="894.592,-260.627 904.678,-257.383 894.77,-253.629 894.592,-260.627"/>
</g>
<!-- Node25&#45;&gt;Node17 -->
<g id="edge28" class="edge"><title>Node25&#45;&gt;Node17</title>
<path fill="none" stroke="midnightblue" d="M807.785,-199.719C876.184,-202.239 980.095,-203.848 1070,-196 1087.76,-194.45 1106.97,-191.492 1124.2,-188.364"/>
<polygon fill="midnightblue" stroke="midnightblue" points="1124.91,-191.793 1134.09,-186.512 1123.62,-184.913 1124.91,-191.793"/>
</g>
<!-- Node26 -->
<g id="node26" class="node"><title>Node26</title>
<g id="a_node26"><a xlink:href="../../d7/dda/enumparser_1_1parser_1_1_general_type.html#af35aa06f434667ca22f66abcc181eb30" target="_top" xlink:title="parser.parser.GeneralType.findType">
<polygon fill="white" stroke="black" points="878,-167.5 878,-186.5 1060,-186.5 1060,-167.5 878,-167.5"/>
<text text-anchor="middle" x="969" y="-174.5" font-family="Helvetica,sans-Serif" font-size="10.00">parser.parser.GeneralType.findType</text>
</a>
</g>
</g>
<!-- Node25&#45;&gt;Node26 -->
<g id="edge27" class="edge"><title>Node25&#45;&gt;Node26</title>
<path fill="none" stroke="midnightblue" d="M807.678,-189.962C826.764,-188.419 847.595,-186.735 867.736,-185.106"/>
<polygon fill="midnightblue" stroke="midnightblue" points="868.189,-188.581 877.874,-184.287 867.624,-181.604 868.189,-188.581"/>
</g>
<!-- Node28 -->
<g id="node28" class="node"><title>Node28</title>
<g id="a_node28"><a xlink:href="../../d2/d9f/classview_1_1dialogs_1_1_dialog_box.html#a4553f61aafc3f1113c85ac09fa8e8d0f" target="_top" xlink:title="view.dialogs.DialogBox.show">
<polygon fill="white" stroke="black" points="423.5,-38.5 423.5,-57.5 574.5,-57.5 574.5,-38.5 423.5,-38.5"/>
<text text-anchor="middle" x="499" y="-45.5" font-family="Helvetica,sans-Serif" font-size="10.00">view.dialogs.DialogBox.show</text>
</a>
</g>
</g>
<!-- Node27&#45;&gt;Node28 -->
<g id="edge30" class="edge"><title>Node27&#45;&gt;Node28</title>
<path fill="none" stroke="midnightblue" d="M355.58,-71.4993C378.804,-67.6674 405.775,-63.2172 429.959,-59.2268"/>
<polygon fill="midnightblue" stroke="midnightblue" points="430.837,-62.6293 440.134,-57.5479 429.697,-55.7227 430.837,-62.6293"/>
</g>
</g>
</svg>
