<?xml version="1.0" encoding="UTF-8" standalone="no"?>
<!DOCTYPE svg PUBLIC "-//W3C//DTD SVG 1.1//EN"
 "http://www.w3.org/Graphics/SVG/1.1/DTD/svg11.dtd">
<!-- Generated by graphviz version 2.36.0 (20140111.2315)
 -->
<!-- Title: view.components.CommandPort.CommandPort Pages: 1 -->
<!--zoomable 405 -->
<svg id="main" version="1.1" xmlns="http://www.w3.org/2000/svg" xmlns:xlink="http://www.w3.org/1999/xlink" xml:space="preserve" onload="init(evt)">
<style type="text/css"><![CDATA[
.edge:hover path { stroke: red; }
.edge:hover polygon { stroke: red; fill: red; }
]]></style>
<script type="text/javascript"><![CDATA[
var edges = document.getElementsByTagName('g');
if (edges && edges.length) {
  for (var i=0;i<edges.length;i++) {
    if (edges[i].id.substr(0,4)=='edge') {
      edges[i].setAttribute('class','edge');
    }
  }
}
]]></script>
        <defs>
                <circle id="rim" cx="0" cy="0" r="7"/>
                <circle id="rim2" cx="0" cy="0" r="3.5"/>
                <g id="zoomPlus">
                        <use xlink:href="#rim" fill="#404040">
                                <set attributeName="fill" to="#808080" begin="zoomplus.mouseover" end="zoomplus.mouseout"/>
                        </use>
                        <path d="M-4,0h8M0,-4v8" fill="none" stroke="white" stroke-width="1.5" pointer-events="none"/>
                </g>
                <g id="zoomMin">
                        <use xlink:href="#rim" fill="#404040">
                                <set attributeName="fill" to="#808080" begin="zoomminus.mouseover" end="zoomminus.mouseout"/>
                        </use>
                        <path d="M-4,0h8" fill="none" stroke="white" stroke-width="1.5" pointer-events="none"/>
                </g>
                <g id="dirArrow">
                        <path fill="none" stroke="white" stroke-width="1.5" d="M0,-3.0v7 M-2.5,-0.5L0,-3.0L2.5,-0.5"/>
                </g>
               <g id="resetDef">
                       <use xlink:href="#rim2" fill="#404040">
                               <set attributeName="fill" to="#808080" begin="reset.mouseover" end="reset.mouseout"/>
                       </use>
               </g>
        </defs>

<script type="text/javascript">
var viewWidth = 1674;
var viewHeight = 405;
var sectionId = 'dynsection-2';
</script>
<script xlink:href="../../svgpan.js"/>
<svg id="graph" class="graph">
<g id="viewport">
<title>view.components.CommandPort.CommandPort</title>
<polygon fill="white" stroke="none" points="-4,4 -4,-401 1670,-401 1670,4 -4,4"/>
<!-- Node1 -->
<g id="node1" class="node"><title>Node1</title>
<polygon fill="#bfbfbf" stroke="black" points="0.5,-227 0.5,-257 175.5,-257 175.5,-227 0.5,-227"/>
<text text-anchor="start" x="8.5" y="-245" font-family="Helvetica,sans-Serif" font-size="10.00">view.components.CommandPort.</text>
<text text-anchor="middle" x="88" y="-234" font-family="Helvetica,sans-Serif" font-size="10.00">CommandPort</text>
</g>
<!-- Node2 -->
<g id="node2" class="node"><title>Node2</title>
<g id="a_node2"><a xlink:href="../../db/d98/classview_1_1components_1_1_command_port.html#ac832d9b94d345f3ab1c399427ec46b39" target="_top" xlink:title="view.components.CommandPort.clear\lField">
<polygon fill="white" stroke="black" points="213,-276 213,-306 411,-306 411,-276 213,-276"/>
<text text-anchor="start" x="221" y="-294" font-family="Helvetica,sans-Serif" font-size="10.00">view.components.CommandPort.clear</text>
<text text-anchor="middle" x="312" y="-283" font-family="Helvetica,sans-Serif" font-size="10.00">Field</text>
</a>
</g>
</g>
<!-- Node1&#45;&gt;Node2 -->
<g id="edge1" class="edge"><title>Node1&#45;&gt;Node2</title>
<path fill="none" stroke="midnightblue" d="M157.116,-257.035C181.089,-262.326 208.215,-268.313 232.943,-273.771"/>
<polygon fill="midnightblue" stroke="midnightblue" points="232.493,-277.256 243.013,-275.994 234.002,-270.421 232.493,-277.256"/>
</g>
<!-- Node3 -->
<g id="node3" class="node"><title>Node3</title>
<g id="a_node3"><a xlink:href="../../db/d98/classview_1_1components_1_1_command_port.html#a5963d9acc7cb5497eeda04b2a6666592" target="_top" xlink:title="view.components.CommandPort.enter\lDebugMode">
<polygon fill="white" stroke="black" points="212,-227 212,-257 412,-257 412,-227 212,-227"/>
<text text-anchor="start" x="220" y="-245" font-family="Helvetica,sans-Serif" font-size="10.00">view.components.CommandPort.enter</text>
<text text-anchor="middle" x="312" y="-234" font-family="Helvetica,sans-Serif" font-size="10.00">DebugMode</text>
</a>
</g>
</g>
<!-- Node1&#45;&gt;Node3 -->
<g id="edge2" class="edge"><title>Node1&#45;&gt;Node3</title>
<path fill="none" stroke="midnightblue" d="M175.785,-242C184.263,-242 192.94,-242 201.604,-242"/>
<polygon fill="midnightblue" stroke="midnightblue" points="201.755,-245.5 211.755,-242 201.755,-238.5 201.755,-245.5"/>
</g>
<!-- Node9 -->
<g id="node9" class="node"><title>Node9</title>
<g id="a_node9"><a xlink:href="../../db/d98/classview_1_1components_1_1_command_port.html#a687e2098038140e833e1bac1a759b587" target="_top" xlink:title="view.components.CommandPort.run\lCommand">
<polygon fill="white" stroke="black" points="216.5,-178 216.5,-208 407.5,-208 407.5,-178 216.5,-178"/>
<text text-anchor="start" x="224.5" y="-196" font-family="Helvetica,sans-Serif" font-size="10.00">view.components.CommandPort.run</text>
<text text-anchor="middle" x="312" y="-185" font-family="Helvetica,sans-Serif" font-size="10.00">Command</text>
</a>
</g>
</g>
<!-- Node1&#45;&gt;Node9 -->
<g id="edge8" class="edge"><title>Node1&#45;&gt;Node9</title>
<path fill="none" stroke="midnightblue" d="M157.116,-226.965C181.089,-221.674 208.215,-215.687 232.943,-210.229"/>
<polygon fill="midnightblue" stroke="midnightblue" points="234.002,-213.579 243.013,-208.006 232.493,-206.744 234.002,-213.579"/>
</g>
<!-- Node4 -->
<g id="node4" class="node"><title>Node4</title>
<g id="a_node4"><a xlink:href="../../d3/dbe/classview_1_1_view.html#a6950e4055440ab5672a2453b149f41d0" target="_top" xlink:title="view.View.getInstance">
<polygon fill="white" stroke="black" points="457.5,-229.5 457.5,-248.5 576.5,-248.5 576.5,-229.5 457.5,-229.5"/>
<text text-anchor="middle" x="517" y="-236.5" font-family="Helvetica,sans-Serif" font-size="10.00">view.View.getInstance</text>
</a>
</g>
</g>
<!-- Node3&#45;&gt;Node4 -->
<g id="edge3" class="edge"><title>Node3&#45;&gt;Node4</title>
<path fill="none" stroke="midnightblue" d="M412.121,-240.535C423.988,-240.36 435.898,-240.184 447.202,-240.017"/>
<polygon fill="midnightblue" stroke="midnightblue" points="447.448,-243.514 457.395,-239.866 447.344,-236.514 447.448,-243.514"/>
</g>
<!-- Node5 -->
<g id="node5" class="node"><title>Node5</title>
<g id="a_node5"><a xlink:href="../../d3/dbe/classview_1_1_view.html#af73241772a154fae88c348f602b25216" target="_top" xlink:title="view.View.addDebuger">
<polygon fill="white" stroke="black" points="456,-310.5 456,-329.5 578,-329.5 578,-310.5 456,-310.5"/>
<text text-anchor="middle" x="517" y="-317.5" font-family="Helvetica,sans-Serif" font-size="10.00">view.View.addDebuger</text>
</a>
</g>
</g>
<!-- Node3&#45;&gt;Node5 -->
<g id="edge4" class="edge"><title>Node3&#45;&gt;Node5</title>
<path fill="none" stroke="midnightblue" d="M384.204,-257.064C393.659,-259.702 403.139,-262.681 412,-266 440.417,-276.644 471.025,-293.216 491.624,-305.195"/>
<polygon fill="midnightblue" stroke="midnightblue" points="489.95,-308.271 500.341,-310.338 493.507,-302.242 489.95,-308.271"/>
</g>
<!-- Node6 -->
<g id="node6" class="node"><title>Node6</title>
<g id="a_node6"><a xlink:href="../../de/d30/classview_1_1components_1_1_s_logo_workspace.html#a101f8c1f0ab5d6096b14ba2350d145bb" target="_top" xlink:title="view.components.SLogoWorkspace.start\lDebugger">
<polygon fill="white" stroke="black" points="622.5,-349 622.5,-379 831.5,-379 831.5,-349 622.5,-349"/>
<text text-anchor="start" x="630.5" y="-367" font-family="Helvetica,sans-Serif" font-size="10.00">view.components.SLogoWorkspace.start</text>
<text text-anchor="middle" x="727" y="-356" font-family="Helvetica,sans-Serif" font-size="10.00">Debugger</text>
</a>
</g>
</g>
<!-- Node5&#45;&gt;Node6 -->
<g id="edge5" class="edge"><title>Node5&#45;&gt;Node6</title>
<path fill="none" stroke="midnightblue" d="M563.133,-329.547C586.969,-334.59 616.958,-340.933 644.685,-346.799"/>
<polygon fill="midnightblue" stroke="midnightblue" points="644.274,-350.289 654.782,-348.935 645.723,-343.441 644.274,-350.289"/>
</g>
<!-- Node7 -->
<g id="node7" class="node"><title>Node7</title>
<g id="a_node7"><a xlink:href="../../d5/d4b/classview_1_1components_1_1_turtle_window.html#a16e7723d456ac7fa532544e477e43728" target="_top" xlink:title="view.components.TurtleWindow.enter\lDebugMode">
<polygon fill="white" stroke="black" points="872.5,-367 872.5,-397 1063.5,-397 1063.5,-367 872.5,-367"/>
<text text-anchor="start" x="880.5" y="-385" font-family="Helvetica,sans-Serif" font-size="10.00">view.components.TurtleWindow.enter</text>
<text text-anchor="middle" x="968" y="-374" font-family="Helvetica,sans-Serif" font-size="10.00">DebugMode</text>
</a>
</g>
</g>
<!-- Node6&#45;&gt;Node7 -->
<g id="edge6" class="edge"><title>Node6&#45;&gt;Node7</title>
<path fill="none" stroke="midnightblue" d="M831.786,-371.817C841.896,-372.578 852.158,-373.351 862.277,-374.113"/>
<polygon fill="midnightblue" stroke="midnightblue" points="862.102,-377.61 872.336,-374.871 862.628,-370.629 862.102,-377.61"/>
</g>
<!-- Node8 -->
<g id="node8" class="node"><title>Node8</title>
<g id="a_node8"><a xlink:href="../../dd/ddc/classview_1_1turtle_1_1_turtle_image.html#a723e55da67cc30beb0210960bbc4403b" target="_top" xlink:title="view.turtle.TurtleImage.set\lDebugMode">
<polygon fill="white" stroke="black" points="1134.5,-367 1134.5,-397 1275.5,-397 1275.5,-367 1134.5,-367"/>
<text text-anchor="start" x="1142.5" y="-385" font-family="Helvetica,sans-Serif" font-size="10.00">view.turtle.TurtleImage.set</text>
<text text-anchor="middle" x="1205" y="-374" font-family="Helvetica,sans-Serif" font-size="10.00">DebugMode</text>
</a>
</g>
</g>
<!-- Node7&#45;&gt;Node8 -->
<g id="edge7" class="edge"><title>Node7&#45;&gt;Node8</title>
<path fill="none" stroke="midnightblue" d="M1063.57,-382C1083.66,-382 1104.68,-382 1124.16,-382"/>
<polygon fill="midnightblue" stroke="midnightblue" points="1124.19,-385.5 1134.19,-382 1124.19,-378.5 1124.19,-385.5"/>
</g>
<!-- Node9&#45;&gt;Node4 -->
<g id="edge36" class="edge"><title>Node9&#45;&gt;Node4</title>
<path fill="none" stroke="midnightblue" d="M379.47,-208.062C406.93,-214.285 438.288,-221.39 464.022,-227.222"/>
<polygon fill="midnightblue" stroke="midnightblue" points="463.424,-230.675 473.95,-229.471 464.971,-223.848 463.424,-230.675"/>
</g>
<!-- Node10 -->
<g id="node10" class="node"><title>Node10</title>
<g id="a_node10"><a xlink:href="../../d3/d42/classmodel_1_1_model.html#a58696dcb49d5de7290734289922cd126" target="_top" xlink:title="model.Model.getInstance">
<polygon fill="white" stroke="black" points="448.5,-59.5 448.5,-78.5 585.5,-78.5 585.5,-59.5 448.5,-59.5"/>
<text text-anchor="middle" x="517" y="-66.5" font-family="Helvetica,sans-Serif" font-size="10.00">model.Model.getInstance</text>
</a>
</g>
</g>
<!-- Node9&#45;&gt;Node10 -->
<g id="edge9" class="edge"><title>Node9&#45;&gt;Node10</title>
<path fill="none" stroke="midnightblue" d="M337.892,-177.795C377.098,-153.847 452.762,-107.628 491.637,-83.8817"/>
<polygon fill="midnightblue" stroke="midnightblue" points="493.53,-86.8266 500.24,-78.6269 489.881,-80.8529 493.53,-86.8266"/>
</g>
<!-- Node14 -->
<g id="node14" class="node"><title>Node14</title>
<g id="a_node14"><a xlink:href="../../d3/d42/classmodel_1_1_model.html#a8a07e7f2040e8a2ab50ec2955504f6c4" target="_top" xlink:title="model.Model.parse">
<polygon fill="white" stroke="black" points="463,-186.5 463,-205.5 571,-205.5 571,-186.5 463,-186.5"/>
<text text-anchor="middle" x="517" y="-193.5" font-family="Helvetica,sans-Serif" font-size="10.00">model.Model.parse</text>
</a>
</g>
</g>
<!-- Node9&#45;&gt;Node14 -->
<g id="edge13" class="edge"><title>Node9&#45;&gt;Node14</title>
<path fill="none" stroke="midnightblue" d="M407.665,-194.399C422.97,-194.625 438.482,-194.854 452.803,-195.066"/>
<polygon fill="midnightblue" stroke="midnightblue" points="452.949,-198.568 463,-195.217 453.053,-191.569 452.949,-198.568"/>
</g>
<!-- Node34 -->
<g id="node34" class="node"><title>Node34</title>
<g id="a_node34"><a xlink:href="../../d3/dbe/classview_1_1_view.html#a4a0ca8adc68660017e319de54dedcb83" target="_top" xlink:title="view.View.showDialog">
<polygon fill="white" stroke="black" points="458.5,-123.5 458.5,-142.5 575.5,-142.5 575.5,-123.5 458.5,-123.5"/>
<text text-anchor="middle" x="517" y="-130.5" font-family="Helvetica,sans-Serif" font-size="10.00">view.View.showDialog</text>
</a>
</g>
</g>
<!-- Node9&#45;&gt;Node34 -->
<g id="edge37" class="edge"><title>Node9&#45;&gt;Node34</title>
<path fill="none" stroke="midnightblue" d="M363.963,-177.937C397.876,-167.913 441.894,-154.903 473.833,-145.463"/>
<polygon fill="midnightblue" stroke="midnightblue" points="475.152,-148.723 483.75,-142.532 473.168,-142.01 475.152,-148.723"/>
</g>
<!-- Node11 -->
<g id="node11" class="node"><title>Node11</title>
<g id="a_node11"><a xlink:href="../../d3/d42/classmodel_1_1_model.html#af870d64d87a18f6cd1a84a77ff6dc3a1" target="_top" xlink:title="model.Model.Model">
<polygon fill="white" stroke="black" points="672,-33.5 672,-52.5 782,-52.5 782,-33.5 672,-33.5"/>
<text text-anchor="middle" x="727" y="-40.5" font-family="Helvetica,sans-Serif" font-size="10.00">model.Model.Model</text>
</a>
</g>
</g>
<!-- Node10&#45;&gt;Node11 -->
<g id="edge10" class="edge"><title>Node10&#45;&gt;Node11</title>
<path fill="none" stroke="midnightblue" d="M585.532,-60.5585C610.027,-57.4966 637.613,-54.0483 661.812,-51.0235"/>
<polygon fill="midnightblue" stroke="midnightblue" points="662.468,-54.4688 671.957,-49.7554 661.6,-47.5228 662.468,-54.4688"/>
</g>
<!-- Node12 -->
<g id="node12" class="node"><title>Node12</title>
<g id="a_node12"><a xlink:href="../../d3/d42/classmodel_1_1_model.html#a068261e6e8761ccabf6d227ee17732ea" target="_top" xlink:title="model.Model.setState">
<polygon fill="white" stroke="black" points="907,-5.5 907,-24.5 1029,-24.5 1029,-5.5 907,-5.5"/>
<text text-anchor="middle" x="968" y="-12.5" font-family="Helvetica,sans-Serif" font-size="10.00">model.Model.setState</text>
</a>
</g>
</g>
<!-- Node11&#45;&gt;Node12 -->
<g id="edge11" class="edge"><title>Node11&#45;&gt;Node12</title>
<path fill="none" stroke="midnightblue" d="M782.233,-36.6464C816.097,-32.679 860.048,-27.5299 896.588,-23.2491"/>
<polygon fill="midnightblue" stroke="midnightblue" points="897.158,-26.7063 906.683,-22.0664 896.344,-19.7539 897.158,-26.7063"/>
</g>
<!-- Node13 -->
<g id="node13" class="node"><title>Node13</title>
<g id="a_node13"><a xlink:href="../../d4/d3a/classparser_1_1parser_1_1_parser.html#a6e5a4c214fd0af163bdf2f1f5ad84505" target="_top" xlink:title="parser.parser.Parser.set\lActiveState">
<polygon fill="white" stroke="black" points="1140,-0 1140,-30 1270,-30 1270,-0 1140,-0"/>
<text text-anchor="start" x="1148" y="-18" font-family="Helvetica,sans-Serif" font-size="10.00">parser.parser.Parser.set</text>
<text text-anchor="middle" x="1205" y="-7" font-family="Helvetica,sans-Serif" font-size="10.00">ActiveState</text>
</a>
</g>
</g>
<!-- Node12&#45;&gt;Node13 -->
<g id="edge12" class="edge"><title>Node12&#45;&gt;Node13</title>
<path fill="none" stroke="midnightblue" d="M1029.21,-15C1059.77,-15 1097.17,-15 1129.52,-15"/>
<polygon fill="midnightblue" stroke="midnightblue" points="1129.83,-18.5001 1139.83,-15 1129.83,-11.5001 1129.83,-18.5001"/>
</g>
<!-- Node15 -->
<g id="node15" class="node"><title>Node15</title>
<g id="a_node15"><a xlink:href="../../db/df9/classmodel_1_1_command_history.html#a435edf344accb9115ca6183eb28594df" target="_top" xlink:title="model.CommandHistory.add\lCommand">
<polygon fill="white" stroke="black" points="650.5,-137 650.5,-167 803.5,-167 803.5,-137 650.5,-137"/>
<text text-anchor="start" x="658.5" y="-155" font-family="Helvetica,sans-Serif" font-size="10.00">model.CommandHistory.add</text>
<text text-anchor="middle" x="727" y="-144" font-family="Helvetica,sans-Serif" font-size="10.00">Command</text>
</a>
</g>
</g>
<!-- Node14&#45;&gt;Node15 -->
<g id="edge14" class="edge"><title>Node14&#45;&gt;Node15</title>
<path fill="none" stroke="midnightblue" d="M563.133,-186.453C586.969,-181.41 616.958,-175.067 644.685,-169.201"/>
<polygon fill="midnightblue" stroke="midnightblue" points="645.723,-172.559 654.782,-167.065 644.274,-165.711 645.723,-172.559"/>
</g>
<!-- Node17 -->
<g id="node17" class="node"><title>Node17</title>
<g id="a_node17"><a xlink:href="../../d1/d4b/classparser_1_1nodes_1_1_command_root.html#ad17f6840005e54b498a8857f161cd6b1" target="_top" xlink:title="parser.nodes.CommandRoot.execute">
<polygon fill="white" stroke="black" points="630,-292.5 630,-311.5 824,-311.5 824,-292.5 630,-292.5"/>
<text text-anchor="middle" x="727" y="-299.5" font-family="Helvetica,sans-Serif" font-size="10.00">parser.nodes.CommandRoot.execute</text>
</a>
</g>
</g>
<!-- Node14&#45;&gt;Node17 -->
<g id="edge16" class="edge"><title>Node14&#45;&gt;Node17</title>
<path fill="none" stroke="midnightblue" d="M553.457,-205.511C564.314,-209.202 576.017,-214.008 586,-220 604.61,-231.171 603.978,-240.904 622,-253 643.46,-267.404 669.82,-279.773 690.631,-288.481"/>
<polygon fill="midnightblue" stroke="midnightblue" points="689.479,-291.791 700.06,-292.336 692.129,-285.312 689.479,-291.791"/>
</g>
<!-- Node20 -->
<g id="node20" class="node"><title>Node20</title>
<g id="a_node20"><a xlink:href="../../d7/dab/classmodel_1_1_state.html#a494a9cb26df072d500f0b6fa941c2779" target="_top" xlink:title="model.State.getCommandHistory">
<polygon fill="white" stroke="black" points="637.5,-224.5 637.5,-243.5 816.5,-243.5 816.5,-224.5 637.5,-224.5"/>
<text text-anchor="middle" x="727" y="-231.5" font-family="Helvetica,sans-Serif" font-size="10.00">model.State.getCommandHistory</text>
</a>
</g>
</g>
<!-- Node14&#45;&gt;Node20 -->
<g id="edge20" class="edge"><title>Node14&#45;&gt;Node20</title>
<path fill="none" stroke="midnightblue" d="M570.219,-205.54C598.654,-210.735 634.022,-217.196 663.868,-222.649"/>
<polygon fill="midnightblue" stroke="midnightblue" points="663.294,-226.102 673.76,-224.456 664.552,-219.216 663.294,-226.102"/>
</g>
<!-- Node21 -->
<g id="node21" class="node"><title>Node21</title>
<g id="a_node21"><a xlink:href="../../d4/d3a/classparser_1_1parser_1_1_parser.html#a51f4baa200eb0c94b804119b1439a1aa" target="_top" xlink:title="parser.parser.Parser.parse">
<polygon fill="white" stroke="black" points="656,-186.5 656,-205.5 798,-205.5 798,-186.5 656,-186.5"/>
<text text-anchor="middle" x="727" y="-193.5" font-family="Helvetica,sans-Serif" font-size="10.00">parser.parser.Parser.parse</text>
</a>
</g>
</g>
<!-- Node14&#45;&gt;Node21 -->
<g id="edge21" class="edge"><title>Node14&#45;&gt;Node21</title>
<path fill="none" stroke="midnightblue" d="M571.025,-196C593.664,-196 620.583,-196 645.583,-196"/>
<polygon fill="midnightblue" stroke="midnightblue" points="645.791,-199.5 655.791,-196 645.791,-192.5 645.791,-199.5"/>
</g>
<!-- Node16 -->
<g id="node16" class="node"><title>Node16</title>
<g id="a_node16"><a xlink:href="../../db/df9/classmodel_1_1_command_history.html#ac471d294d4221291007a86a8764a644d" target="_top" xlink:title="model.CommandHistory.notify\lObservers">
<polygon fill="white" stroke="black" points="887.5,-44 887.5,-74 1048.5,-74 1048.5,-44 887.5,-44"/>
<text text-anchor="start" x="895.5" y="-62" font-family="Helvetica,sans-Serif" font-size="10.00">model.CommandHistory.notify</text>
<text text-anchor="middle" x="968" y="-51" font-family="Helvetica,sans-Serif" font-size="10.00">Observers</text>
</a>
</g>
</g>
<!-- Node15&#45;&gt;Node16 -->
<g id="edge15" class="edge"><title>Node15&#45;&gt;Node16</title>
<path fill="none" stroke="midnightblue" d="M803.606,-139.917C813.567,-136.603 823.319,-132.381 832,-127 853.185,-113.87 846.89,-97.2515 868,-84 871.407,-81.861 874.989,-79.9048 878.687,-78.1157"/>
<polygon fill="midnightblue" stroke="midnightblue" points="880.326,-81.2189 888.085,-74.0041 877.52,-74.8057 880.326,-81.2189"/>
</g>
<!-- Node18 -->
<g id="node18" class="node"><title>Node18</title>
<g id="a_node18"><a xlink:href="../../d4/d1c/classparser_1_1nodes_1_1_list_node.html#a8f67ed3b41ee000feaf89f783def5697" target="_top" xlink:title="parser.nodes.ListNode.execute\lNodes">
<polygon fill="white" stroke="black" points="885.5,-318 885.5,-348 1050.5,-348 1050.5,-318 885.5,-318"/>
<text text-anchor="start" x="893.5" y="-336" font-family="Helvetica,sans-Serif" font-size="10.00">parser.nodes.ListNode.execute</text>
<text text-anchor="middle" x="968" y="-325" font-family="Helvetica,sans-Serif" font-size="10.00">Nodes</text>
</a>
</g>
</g>
<!-- Node17&#45;&gt;Node18 -->
<g id="edge17" class="edge"><title>Node17&#45;&gt;Node18</title>
<path fill="none" stroke="midnightblue" d="M801.332,-311.512C824.729,-314.546 850.915,-317.943 875.439,-321.124"/>
<polygon fill="midnightblue" stroke="midnightblue" points="875.102,-324.609 885.469,-322.425 876.002,-317.668 875.102,-324.609"/>
</g>
<!-- Node19 -->
<g id="node19" class="node"><title>Node19</title>
<g id="a_node19"><a xlink:href="../../d4/d1c/classparser_1_1nodes_1_1_list_node.html#a82a3418e343a5d6ed112be4b7b2b0282" target="_top" xlink:title="parser.nodes.ListNode.execute">
<polygon fill="white" stroke="black" points="1122.5,-323.5 1122.5,-342.5 1287.5,-342.5 1287.5,-323.5 1122.5,-323.5"/>
<text text-anchor="middle" x="1205" y="-330.5" font-family="Helvetica,sans-Serif" font-size="10.00">parser.nodes.ListNode.execute</text>
</a>
</g>
</g>
<!-- Node18&#45;&gt;Node19 -->
<g id="edge18" class="edge"><title>Node18&#45;&gt;Node19</title>
<path fill="none" stroke="midnightblue" d="M1050.53,-326.539C1070.38,-326.211 1091.74,-326.162 1112.03,-326.394"/>
<polygon fill="midnightblue" stroke="midnightblue" points="1112.17,-329.896 1122.21,-326.535 1112.26,-322.896 1112.17,-329.896"/>
</g>
<!-- Node19&#45;&gt;Node18 -->
<g id="edge19" class="edge"><title>Node19&#45;&gt;Node18</title>
<path fill="none" stroke="midnightblue" d="M1122.21,-339.465C1102.36,-339.791 1080.99,-339.837 1060.71,-339.603"/>
<polygon fill="midnightblue" stroke="midnightblue" points="1060.58,-336.101 1050.53,-339.461 1060.48,-343.101 1060.58,-336.101"/>
</g>
<!-- Node22 -->
<g id="node22" class="node"><title>Node22</title>
<g id="a_node22"><a xlink:href="../../d2/d66/classparser_1_1parser_1_1_command_factory.html#a0dc44bc9972a4652d98146b5e30a5e72" target="_top" xlink:title="parser.parser.CommandFactory.create\lCommand">
<polygon fill="white" stroke="black" points="868,-181 868,-211 1068,-211 1068,-181 868,-181"/>
<text text-anchor="start" x="876" y="-199" font-family="Helvetica,sans-Serif" font-size="10.00">parser.parser.CommandFactory.create</text>
<text text-anchor="middle" x="968" y="-188" font-family="Helvetica,sans-Serif" font-size="10.00">Command</text>
</a>
</g>
</g>
<!-- Node21&#45;&gt;Node22 -->
<g id="edge22" class="edge"><title>Node21&#45;&gt;Node22</title>
<path fill="none" stroke="midnightblue" d="M798.093,-196C816.71,-196 837.269,-196 857.448,-196"/>
<polygon fill="midnightblue" stroke="midnightblue" points="857.631,-199.5 867.631,-196 857.631,-192.5 857.631,-199.5"/>
</g>
<!-- Node25 -->
<g id="node25" class="node"><title>Node25</title>
<g id="a_node25"><a xlink:href="../../de/d16/classparser_1_1parser_1_1_regex.html#a9da6d787de06ba7ea76d52326b532bd1" target="_top" xlink:title="parser.parser.Regex.getInstance">
<polygon fill="white" stroke="black" points="1120,-222.5 1120,-241.5 1290,-241.5 1290,-222.5 1120,-222.5"/>
<text text-anchor="middle" x="1205" y="-229.5" font-family="Helvetica,sans-Serif" font-size="10.00">parser.parser.Regex.getInstance</text>
</a>
</g>
</g>
<!-- Node21&#45;&gt;Node25 -->
<g id="edge32" class="edge"><title>Node21&#45;&gt;Node25</title>
<path fill="none" stroke="midnightblue" d="M779.381,-205.549C811.999,-211.467 851.136,-218.261 868,-220 949.323,-228.385 1042.24,-231.186 1109.71,-232.005"/>
<polygon fill="midnightblue" stroke="midnightblue" points="1109.86,-235.506 1119.9,-232.116 1109.94,-228.507 1109.86,-235.506"/>
</g>
<!-- Node28 -->
<g id="node28" class="node"><title>Node28</title>
<g id="a_node28"><a xlink:href="../../d2/d66/classparser_1_1parser_1_1_command_factory.html#a2c91b8ed8cbfcb588f6e32f7363eefd9" target="_top" xlink:title="parser.parser.CommandFactory.get\lInstance">
<polygon fill="white" stroke="black" points="875.5,-269 875.5,-299 1060.5,-299 1060.5,-269 875.5,-269"/>
<text text-anchor="start" x="883.5" y="-287" font-family="Helvetica,sans-Serif" font-size="10.00">parser.parser.CommandFactory.get</text>
<text text-anchor="middle" x="968" y="-276" font-family="Helvetica,sans-Serif" font-size="10.00">Instance</text>
</a>
</g>
</g>
<!-- Node21&#45;&gt;Node28 -->
<g id="edge28" class="edge"><title>Node21&#45;&gt;Node28</title>
<path fill="none" stroke="midnightblue" d="M798.109,-202.408C809.88,-205.255 821.628,-209.293 832,-215 852.667,-226.372 848.012,-241.474 868,-254 874.924,-258.339 882.514,-262.084 890.315,-265.308"/>
<polygon fill="midnightblue" stroke="midnightblue" points="889.314,-268.672 899.904,-268.987 891.822,-262.137 889.314,-268.672"/>
</g>
<!-- Node30 -->
<g id="node30" class="node"><title>Node30</title>
<g id="a_node30"><a xlink:href="../../dc/d09/classparser_1_1parser_1_1_to_factory.html#ac5256eea6647641f83b40c5a350a1518" target="_top" xlink:title="parser.parser.ToFactory.get\lInstance">
<polygon fill="white" stroke="black" points="896,-132 896,-162 1040,-162 1040,-132 896,-132"/>
<text text-anchor="start" x="904" y="-150" font-family="Helvetica,sans-Serif" font-size="10.00">parser.parser.ToFactory.get</text>
<text text-anchor="middle" x="968" y="-139" font-family="Helvetica,sans-Serif" font-size="10.00">Instance</text>
</a>
</g>
</g>
<!-- Node21&#45;&gt;Node30 -->
<g id="edge30" class="edge"><title>Node21&#45;&gt;Node30</title>
<path fill="none" stroke="midnightblue" d="M778.825,-186.454C795.755,-183.213 814.704,-179.52 832,-176 850.319,-172.271 870.005,-168.123 888.524,-164.157"/>
<polygon fill="midnightblue" stroke="midnightblue" points="889.34,-167.562 898.382,-162.04 887.87,-160.718 889.34,-167.562"/>
</g>
<!-- Node32 -->
<g id="node32" class="node"><title>Node32</title>
<g id="a_node32"><a xlink:href="../../de/d16/classparser_1_1parser_1_1_regex.html#a5d526d752521b953619721c6d3e930bd" target="_top" xlink:title="parser.parser.Regex.getType">
<polygon fill="white" stroke="black" points="892.5,-93.5 892.5,-112.5 1043.5,-112.5 1043.5,-93.5 892.5,-93.5"/>
<text text-anchor="middle" x="968" y="-100.5" font-family="Helvetica,sans-Serif" font-size="10.00">parser.parser.Regex.getType</text>
</a>
</g>
</g>
<!-- Node21&#45;&gt;Node32 -->
<g id="edge33" class="edge"><title>Node21&#45;&gt;Node32</title>
<path fill="none" stroke="midnightblue" d="M798.123,-190.399C810.084,-187.297 821.892,-182.715 832,-176 856.026,-160.039 843.971,-137.957 868,-122 872.602,-118.944 877.573,-116.353 882.754,-114.159"/>
<polygon fill="midnightblue" stroke="midnightblue" points="884.116,-117.386 892.27,-110.622 881.677,-110.825 884.116,-117.386"/>
</g>
<!-- Node23 -->
<g id="node23" class="node"><title>Node23</title>
<g id="a_node23"><a xlink:href="../../de/d16/classparser_1_1parser_1_1_regex.html#aa4a03f1544e5043ea8da8f12ab4ece23" target="_top" xlink:title="parser.parser.Regex.getCommandType">
<polygon fill="white" stroke="black" points="1104.5,-184.5 1104.5,-203.5 1305.5,-203.5 1305.5,-184.5 1104.5,-184.5"/>
<text text-anchor="middle" x="1205" y="-191.5" font-family="Helvetica,sans-Serif" font-size="10.00">parser.parser.Regex.getCommandType</text>
</a>
</g>
</g>
<!-- Node22&#45;&gt;Node23 -->
<g id="edge23" class="edge"><title>Node22&#45;&gt;Node23</title>
<path fill="none" stroke="midnightblue" d="M1068.32,-195.155C1076.87,-195.082 1085.56,-195.008 1094.19,-194.935"/>
<polygon fill="midnightblue" stroke="midnightblue" points="1094.31,-198.434 1104.28,-194.849 1094.25,-191.434 1094.31,-198.434"/>
</g>
<!-- Node22&#45;&gt;Node25 -->
<g id="edge25" class="edge"><title>Node22&#45;&gt;Node25</title>
<path fill="none" stroke="midnightblue" d="M1066.96,-211.007C1088.61,-214.324 1111.18,-217.781 1131.6,-220.91"/>
<polygon fill="midnightblue" stroke="midnightblue" points="1131.34,-224.41 1141.76,-222.465 1132.4,-217.491 1131.34,-224.41"/>
</g>
<!-- Node24 -->
<g id="node24" class="node"><title>Node24</title>
<g id="a_node24"><a xlink:href="../../de/d16/classparser_1_1parser_1_1_regex.html#a162d120a60bdb10238c3d31c4f5f6903" target="_top" xlink:title="parser.parser.Regex.match">
<polygon fill="white" stroke="black" points="1342.5,-120.5 1342.5,-139.5 1487.5,-139.5 1487.5,-120.5 1342.5,-120.5"/>
<text text-anchor="middle" x="1415" y="-127.5" font-family="Helvetica,sans-Serif" font-size="10.00">parser.parser.Regex.match</text>
</a>
</g>
</g>
<!-- Node23&#45;&gt;Node24 -->
<g id="edge24" class="edge"><title>Node23&#45;&gt;Node24</title>
<path fill="none" stroke="midnightblue" d="M1256.49,-184.477C1272.46,-181.044 1290.09,-176.812 1306,-172 1332.55,-163.969 1361.83,-152.405 1383.2,-143.444"/>
<polygon fill="midnightblue" stroke="midnightblue" points="1384.58,-146.659 1392.42,-139.531 1381.85,-140.215 1384.58,-146.659"/>
</g>
<!-- Node26 -->
<g id="node26" class="node"><title>Node26</title>
<g id="a_node26"><a xlink:href="../../de/d16/classparser_1_1parser_1_1_regex.html#a1fd187b9f2b45d0707cb10057e80d7ff" target="_top" xlink:title="parser.parser.Regex.Regex">
<polygon fill="white" stroke="black" points="1343.5,-222.5 1343.5,-241.5 1486.5,-241.5 1486.5,-222.5 1343.5,-222.5"/>
<text text-anchor="middle" x="1415" y="-229.5" font-family="Helvetica,sans-Serif" font-size="10.00">parser.parser.Regex.Regex</text>
</a>
</g>
</g>
<!-- Node25&#45;&gt;Node26 -->
<g id="edge26" class="edge"><title>Node25&#45;&gt;Node26</title>
<path fill="none" stroke="midnightblue" d="M1290,-232C1304.25,-232 1319.01,-232 1333.17,-232"/>
<polygon fill="midnightblue" stroke="midnightblue" points="1333.36,-235.5 1343.36,-232 1333.36,-228.5 1333.36,-235.5"/>
</g>
<!-- Node27 -->
<g id="node27" class="node"><title>Node27</title>
<g id="a_node27"><a xlink:href="../../de/d16/classparser_1_1parser_1_1_regex.html#a413da3364c9c07a315222d34d7f0fc56" target="_top" xlink:title="parser.parser.Regex.make\lPatterns">
<polygon fill="white" stroke="black" points="1524.5,-217 1524.5,-247 1665.5,-247 1665.5,-217 1524.5,-217"/>
<text text-anchor="start" x="1532.5" y="-235" font-family="Helvetica,sans-Serif" font-size="10.00">parser.parser.Regex.make</text>
<text text-anchor="middle" x="1595" y="-224" font-family="Helvetica,sans-Serif" font-size="10.00">Patterns</text>
</a>
</g>
</g>
<!-- Node26&#45;&gt;Node27 -->
<g id="edge27" class="edge"><title>Node26&#45;&gt;Node27</title>
<path fill="none" stroke="midnightblue" d="M1486.61,-232C1495.63,-232 1504.92,-232 1514.08,-232"/>
<polygon fill="midnightblue" stroke="midnightblue" points="1514.35,-235.5 1524.35,-232 1514.35,-228.5 1514.35,-235.5"/>
</g>
<!-- Node29 -->
<g id="node29" class="node"><title>Node29</title>
<g id="a_node29"><a xlink:href="../../d2/d66/classparser_1_1parser_1_1_command_factory.html#ac81b65f58a35eb24a9f92303cf7f491e" target="_top" xlink:title="parser.parser.CommandFactory.\lCommandFactory">
<polygon fill="white" stroke="black" points="1120.5,-269 1120.5,-299 1289.5,-299 1289.5,-269 1120.5,-269"/>
<text text-anchor="start" x="1128.5" y="-287" font-family="Helvetica,sans-Serif" font-size="10.00">parser.parser.CommandFactory.</text>
<text text-anchor="middle" x="1205" y="-276" font-family="Helvetica,sans-Serif" font-size="10.00">CommandFactory</text>
</a>
</g>
</g>
<!-- Node28&#45;&gt;Node29 -->
<g id="edge29" class="edge"><title>Node28&#45;&gt;Node29</title>
<path fill="none" stroke="midnightblue" d="M1060.53,-284C1076.86,-284 1093.89,-284 1110.28,-284"/>
<polygon fill="midnightblue" stroke="midnightblue" points="1110.39,-287.5 1120.39,-284 1110.39,-280.5 1110.39,-287.5"/>
</g>
<!-- Node31 -->
<g id="node31" class="node"><title>Node31</title>
<g id="a_node31"><a xlink:href="../../dc/d09/classparser_1_1parser_1_1_to_factory.html#a432d9b50bd2cbb0a73da7fc68b25bd4c" target="_top" xlink:title="parser.parser.ToFactory.\lToFactory">
<polygon fill="white" stroke="black" points="1141,-133 1141,-163 1269,-163 1269,-133 1141,-133"/>
<text text-anchor="start" x="1149" y="-151" font-family="Helvetica,sans-Serif" font-size="10.00">parser.parser.ToFactory.</text>
<text text-anchor="middle" x="1205" y="-140" font-family="Helvetica,sans-Serif" font-size="10.00">ToFactory</text>
</a>
</g>
</g>
<!-- Node30&#45;&gt;Node31 -->
<g id="edge31" class="edge"><title>Node30&#45;&gt;Node31</title>
<path fill="none" stroke="midnightblue" d="M1040.15,-147.303C1068.79,-147.425 1101.8,-147.565 1130.66,-147.688"/>
<polygon fill="midnightblue" stroke="midnightblue" points="1130.66,-151.188 1140.68,-147.731 1130.69,-144.188 1130.66,-151.188"/>
</g>
<!-- Node32&#45;&gt;Node24 -->
<g id="edge35" class="edge"><title>Node32&#45;&gt;Node24</title>
<path fill="none" stroke="midnightblue" d="M1014.49,-93.4613C1079.72,-81.38 1203.3,-64.4607 1306,-85 1335.36,-90.8727 1366.72,-104.905 1388.04,-115.751"/>
<polygon fill="midnightblue" stroke="midnightblue" points="1386.6,-118.948 1397.09,-120.47 1389.84,-112.741 1386.6,-118.948"/>
</g>
<!-- Node33 -->
<g id="node33" class="node"><title>Node33</title>
<g id="a_node33"><a xlink:href="../../d7/dda/enumparser_1_1parser_1_1_general_type.html#af35aa06f434667ca22f66abcc181eb30" target="_top" xlink:title="parser.parser.GeneralType.findType">
<polygon fill="white" stroke="black" points="1114,-94.5 1114,-113.5 1296,-113.5 1296,-94.5 1114,-94.5"/>
<text text-anchor="middle" x="1205" y="-101.5" font-family="Helvetica,sans-Serif" font-size="10.00">parser.parser.GeneralType.findType</text>
</a>
</g>
</g>
<!-- Node32&#45;&gt;Node33 -->
<g id="edge34" class="edge"><title>Node32&#45;&gt;Node33</title>
<path fill="none" stroke="midnightblue" d="M1043.68,-103.318C1062.76,-103.399 1083.6,-103.488 1103.74,-103.573"/>
<polygon fill="midnightblue" stroke="midnightblue" points="1103.86,-107.074 1113.87,-103.616 1103.89,-100.074 1103.86,-107.074"/>
</g>
<!-- Node35 -->
<g id="node35" class="node"><title>Node35</title>
<g id="a_node35"><a xlink:href="../../d2/d9f/classview_1_1dialogs_1_1_dialog_box.html#a4553f61aafc3f1113c85ac09fa8e8d0f" target="_top" xlink:title="view.dialogs.DialogBox.show">
<polygon fill="white" stroke="black" points="651.5,-98.5 651.5,-117.5 802.5,-117.5 802.5,-98.5 651.5,-98.5"/>
<text text-anchor="middle" x="727" y="-105.5" font-family="Helvetica,sans-Serif" font-size="10.00">view.dialogs.DialogBox.show</text>
</a>
</g>
</g>
<!-- Node34&#45;&gt;Node35 -->
<g id="edge38" class="edge"><title>Node34&#45;&gt;Node35</title>
<path fill="none" stroke="midnightblue" d="M575.663,-126.069C595.994,-123.626 619.294,-120.825 641.385,-118.17"/>
<polygon fill="midnightblue" stroke="midnightblue" points="641.924,-121.631 651.435,-116.962 641.088,-114.681 641.924,-121.631"/>
</g>
</g>
</svg>
        <g id="navigator" transform="translate(0 0)" fill="#404254">
                <rect fill="#f2f5e9" fill-opacity="0.5" stroke="#606060" stroke-width=".5" x="0" y="0" width="60" height="60"/>
                <use id="zoomplus" xlink:href="#zoomPlus" x="17" y="9" onmousedown="handleZoom(evt,'in')"/>
                <use id="zoomminus" xlink:href="#zoomMin" x="42" y="9" onmousedown="handleZoom(evt,'out')"/>
                <use id="reset" xlink:href="#resetDef" x="30" y="36" onmousedown="handleReset()"/>
                <g id="arrowUp" xlink:href="#dirArrow" transform="translate(30 24)" onmousedown="handlePan(0,-1)">
                  <use xlink:href="#rim" fill="#404040">
                        <set attributeName="fill" to="#808080" begin="arrowUp.mouseover" end="arrowUp.mouseout"/>
                  </use>
                  <path fill="none" stroke="white" stroke-width="1.5" d="M0,-3.0v7 M-2.5,-0.5L0,-3.0L2.5,-0.5"/>
                </g>
                <g id="arrowRight" xlink:href="#dirArrow" transform="rotate(90) translate(36 -43)" onmousedown="handlePan(1,0)">
                  <use xlink:href="#rim" fill="#404040">
                        <set attributeName="fill" to="#808080" begin="arrowRight.mouseover" end="arrowRight.mouseout"/>
                  </use>
                  <path fill="none" stroke="white" stroke-width="1.5" d="M0,-3.0v7 M-2.5,-0.5L0,-3.0L2.5,-0.5"/>
                </g>
                <g id="arrowDown" xlink:href="#dirArrow" transform="rotate(180) translate(-30 -48)" onmousedown="handlePan(0,1)">
                  <use xlink:href="#rim" fill="#404040">
                        <set attributeName="fill" to="#808080" begin="arrowDown.mouseover" end="arrowDown.mouseout"/>
                  </use>
                  <path fill="none" stroke="white" stroke-width="1.5" d="M0,-3.0v7 M-2.5,-0.5L0,-3.0L2.5,-0.5"/>
                </g>
                <g id="arrowLeft" xlink:href="#dirArrow" transform="rotate(270) translate(-36 17)" onmousedown="handlePan(-1,0)">
                  <use xlink:href="#rim" fill="#404040">
                        <set attributeName="fill" to="#808080" begin="arrowLeft.mouseover" end="arrowLeft.mouseout"/>
                  </use>
                  <path fill="none" stroke="white" stroke-width="1.5" d="M0,-3.0v7 M-2.5,-0.5L0,-3.0L2.5,-0.5"/>
                </g>
        </g>
        <svg viewBox="0 0 15 15" width="100%" height="30px" preserveAspectRatio="xMaxYMin meet">
         <g id="arrow_out" transform="scale(0.3 0.3)">
          <a xlink:href="classview_1_1components_1_1_command_port_a37ae451233579691839c4a52072c94e9_cgraph_org.svg" target="_base">
           <rect id="button" ry="5" rx="5" y="6" x="6" height="38" width="38"
                fill="#f2f5e9" fill-opacity="0.5" stroke="#606060" stroke-width="1.0"/>
           <path id="arrow"
             d="M 11.500037,31.436501 C 11.940474,20.09759 22.043105,11.32322 32.158766,21.979434 L 37.068811,17.246167 C 37.068811,17.246167 37.088388,32 37.088388,32 L 22.160133,31.978069 C 22.160133,31.978069 26.997745,27.140456 26.997745,27.140456 C 18.528582,18.264221 13.291696,25.230495 11.500037,31.436501 z"
             style="fill:#404040;"/>
          </a>
         </g>
        </svg>
</svg>
