<?xml version="1.0" encoding="UTF-8" standalone="no"?>
<!DOCTYPE svg PUBLIC "-//W3C//DTD SVG 1.1//EN"
 "http://www.w3.org/Graphics/SVG/1.1/DTD/svg11.dtd">
<!-- Generated by graphviz version 2.36.0 (20140111.2315)
 -->
<!-- Title: view.components.LanguageController.getCommandLanguagesFilePath Pages: 1 -->
<svg width="1148pt" height="126pt"
 viewBox="0.00 0.00 1148.00 126.00" xmlns="http://www.w3.org/2000/svg" xmlns:xlink="http://www.w3.org/1999/xlink">
<g id="graph0" class="graph" transform="scale(1 1) rotate(0) translate(4 122)">
<title>view.components.LanguageController.getCommandLanguagesFilePath</title>
<polygon fill="white" stroke="none" points="-4,4 -4,-122 1144,-122 1144,4 -4,4"/>
<!-- Node1 -->
<g id="node1" class="node"><title>Node1</title>
<polygon fill="#bfbfbf" stroke="black" points="0,-51.5 0,-92.5 184,-92.5 184,-51.5 0,-51.5"/>
<text text-anchor="start" x="8" y="-80.5" font-family="Helvetica,sans-Serif" font-size="10.00">view.components.Language</text>
<text text-anchor="start" x="8" y="-69.5" font-family="Helvetica,sans-Serif" font-size="10.00">Controller.getCommandLanguages</text>
<text text-anchor="middle" x="92" y="-58.5" font-family="Helvetica,sans-Serif" font-size="10.00">FilePath</text>
</g>
<!-- Node2 -->
<g id="node2" class="node"><title>Node2</title>
<g id="a_node2"><a xlink:href="../../de/d16/classparser_1_1parser_1_1_regex.html#a59c7e0d8366fc8c3e94d909f9fc27a14" target="_top" xlink:title="parser.parser.Regex.change\lLanguage">
<polygon fill="white" stroke="black" points="220.5,-57 220.5,-87 369.5,-87 369.5,-57 220.5,-57"/>
<text text-anchor="start" x="228.5" y="-75" font-family="Helvetica,sans-Serif" font-size="10.00">parser.parser.Regex.change</text>
<text text-anchor="middle" x="295" y="-64" font-family="Helvetica,sans-Serif" font-size="10.00">Language</text>
</a>
</g>
</g>
<!-- Node1&#45;&gt;Node2 -->
<g id="edge1" class="edge"><title>Node1&#45;&gt;Node2</title>
<path fill="none" stroke="midnightblue" d="M194.372,-72C203.141,-72 211.901,-72 220.385,-72"/>
<polygon fill="midnightblue" stroke="midnightblue" points="194.09,-68.5001 184.09,-72 194.09,-75.5001 194.09,-68.5001"/>
</g>
<!-- Node3 -->
<g id="node3" class="node"><title>Node3</title>
<g id="a_node3"><a xlink:href="../../d3/dbe/classview_1_1_view.html#ae77f0f711bba491940c5c6c184dcff70" target="_top" xlink:title="view.View.showAndChangeLanguage">
<polygon fill="white" stroke="black" points="406,-83.5 406,-102.5 596,-102.5 596,-83.5 406,-83.5"/>
<text text-anchor="middle" x="501" y="-90.5" font-family="Helvetica,sans-Serif" font-size="10.00">view.View.showAndChangeLanguage</text>
</a>
</g>
</g>
<!-- Node2&#45;&gt;Node3 -->
<g id="edge2" class="edge"><title>Node2&#45;&gt;Node3</title>
<path fill="none" stroke="midnightblue" d="M379.878,-80.6345C389.028,-81.5764 398.38,-82.5391 407.624,-83.4908"/>
<polygon fill="midnightblue" stroke="midnightblue" points="379.955,-77.124 369.649,-79.5815 379.238,-84.0872 379.955,-77.124"/>
</g>
<!-- Node6 -->
<g id="node6" class="node"><title>Node6</title>
<g id="a_node6"><a xlink:href="../../d3/dbe/classview_1_1_view.html#a43a4310c3789a93e0fa6b98b0bb4f8aa" target="_top" xlink:title="view.View.tabChangeUpdate">
<polygon fill="white" stroke="black" points="425.5,-41.5 425.5,-60.5 576.5,-60.5 576.5,-41.5 425.5,-41.5"/>
<text text-anchor="middle" x="501" y="-48.5" font-family="Helvetica,sans-Serif" font-size="10.00">view.View.tabChangeUpdate</text>
</a>
</g>
</g>
<!-- Node2&#45;&gt;Node6 -->
<g id="edge5" class="edge"><title>Node2&#45;&gt;Node6</title>
<path fill="none" stroke="midnightblue" d="M379.976,-63.3554C395.043,-61.8044 410.652,-60.1976 425.431,-58.6762"/>
<polygon fill="midnightblue" stroke="midnightblue" points="379.238,-59.9128 369.649,-64.4185 379.955,-66.876 379.238,-59.9128"/>
</g>
<!-- Node4 -->
<g id="node4" class="node"><title>Node4</title>
<g id="a_node4"><a xlink:href="../../da/da8/classview_1_1components_1_1_s_logo_menu_bar.html#a8e395aa3dd6b23abf4e158d4a2f19d10" target="_top" xlink:title="view.components.SLogoMenu\lBar.makePreferencesMenu">
<polygon fill="white" stroke="black" points="788,-88 788,-118 946,-118 946,-88 788,-88"/>
<text text-anchor="start" x="796" y="-106" font-family="Helvetica,sans-Serif" font-size="10.00">view.components.SLogoMenu</text>
<text text-anchor="middle" x="867" y="-95" font-family="Helvetica,sans-Serif" font-size="10.00">Bar.makePreferencesMenu</text>
</a>
</g>
</g>
<!-- Node3&#45;&gt;Node4 -->
<g id="edge3" class="edge"><title>Node3&#45;&gt;Node4</title>
<path fill="none" stroke="midnightblue" d="M606.476,-95.8702C664.263,-97.4578 734.874,-99.3976 787.846,-100.853"/>
<polygon fill="midnightblue" stroke="midnightblue" points="606.305,-92.3643 596.212,-95.5883 606.113,-99.3616 606.305,-92.3643"/>
</g>
<!-- Node5 -->
<g id="node5" class="node"><title>Node5</title>
<g id="a_node5"><a xlink:href="../../da/da8/classview_1_1components_1_1_s_logo_menu_bar.html#afbe8434fba1476e5cbe7401c6bc158ec" target="_top" xlink:title="view.components.SLogoMenu\lBar.SLogoMenuBar">
<polygon fill="white" stroke="black" points="982,-63 982,-93 1140,-93 1140,-63 982,-63"/>
<text text-anchor="start" x="990" y="-81" font-family="Helvetica,sans-Serif" font-size="10.00">view.components.SLogoMenu</text>
<text text-anchor="middle" x="1061" y="-70" font-family="Helvetica,sans-Serif" font-size="10.00">Bar.SLogoMenuBar</text>
</a>
</g>
</g>
<!-- Node4&#45;&gt;Node5 -->
<g id="edge4" class="edge"><title>Node4&#45;&gt;Node5</title>
<path fill="none" stroke="midnightblue" d="M956.153,-91.5218C964.769,-90.3999 973.47,-89.267 981.975,-88.1594"/>
<polygon fill="midnightblue" stroke="midnightblue" points="955.558,-88.0696 946.094,-92.8315 956.462,-95.011 955.558,-88.0696"/>
</g>
<!-- Node7 -->
<g id="node7" class="node"><title>Node7</title>
<g id="a_node7"><a xlink:href="../../d3/dbe/classview_1_1_view.html#aef53667bcfbe243d64e3416529c35f8f" target="_top" xlink:title="view.View.addNewTab">
<polygon fill="white" stroke="black" points="633.5,-41.5 633.5,-60.5 750.5,-60.5 750.5,-41.5 633.5,-41.5"/>
<text text-anchor="middle" x="692" y="-48.5" font-family="Helvetica,sans-Serif" font-size="10.00">view.View.addNewTab</text>
</a>
</g>
</g>
<!-- Node6&#45;&gt;Node7 -->
<g id="edge6" class="edge"><title>Node6&#45;&gt;Node7</title>
<path fill="none" stroke="midnightblue" d="M586.965,-51C602.695,-51 618.781,-51 633.456,-51"/>
<polygon fill="midnightblue" stroke="midnightblue" points="586.698,-47.5001 576.698,-51 586.698,-54.5001 586.698,-47.5001"/>
</g>
<!-- Node10 -->
<g id="node10" class="node"><title>Node10</title>
<g id="a_node10"><a xlink:href="../../d3/dbe/classview_1_1_view.html#a59bb3de727676a9d3c1630f9e58b9614" target="_top" xlink:title="view.View.addTopBars">
<polygon fill="white" stroke="black" points="632.5,-1.5 632.5,-20.5 751.5,-20.5 751.5,-1.5 632.5,-1.5"/>
<text text-anchor="middle" x="692" y="-8.5" font-family="Helvetica,sans-Serif" font-size="10.00">view.View.addTopBars</text>
</a>
</g>
</g>
<!-- Node6&#45;&gt;Node10 -->
<g id="edge10" class="edge"><title>Node6&#45;&gt;Node10</title>
<path fill="none" stroke="midnightblue" d="M557.392,-39.2767C585.627,-33.3012 619.517,-26.1288 646.099,-20.5028"/>
<polygon fill="midnightblue" stroke="midnightblue" points="556.329,-35.9242 547.27,-41.419 557.778,-42.7725 556.329,-35.9242"/>
</g>
<!-- Node8 -->
<g id="node8" class="node"><title>Node8</title>
<g id="a_node8"><a xlink:href="../../da/da8/classview_1_1components_1_1_s_logo_menu_bar.html#a50a896e8874b794c164559d97c531b78" target="_top" xlink:title="view.components.SLogoMenu\lBar.makeFileMenu">
<polygon fill="white" stroke="black" points="788,-39 788,-69 946,-69 946,-39 788,-39"/>
<text text-anchor="start" x="796" y="-57" font-family="Helvetica,sans-Serif" font-size="10.00">view.components.SLogoMenu</text>
<text text-anchor="middle" x="867" y="-46" font-family="Helvetica,sans-Serif" font-size="10.00">Bar.makeFileMenu</text>
</a>
</g>
</g>
<!-- Node7&#45;&gt;Node8 -->
<g id="edge7" class="edge"><title>Node7&#45;&gt;Node8</title>
<path fill="none" stroke="midnightblue" d="M760.814,-52.176C769.635,-52.3289 778.729,-52.4866 787.703,-52.6423"/>
<polygon fill="midnightblue" stroke="midnightblue" points="760.666,-48.673 750.606,-51.999 760.544,-55.6719 760.666,-48.673"/>
</g>
<!-- Node9 -->
<g id="node9" class="node"><title>Node9</title>
<g id="a_node9"><a xlink:href="../../d3/dbe/classview_1_1_view.html#ab8997f733f923e68829b13b7e9633bc7" target="_top" xlink:title="view.View.View">
<polygon fill="white" stroke="black" points="824.5,-0.5 824.5,-19.5 909.5,-19.5 909.5,-0.5 824.5,-0.5"/>
<text text-anchor="middle" x="867" y="-7.5" font-family="Helvetica,sans-Serif" font-size="10.00">view.View.View</text>
</a>
</g>
</g>
<!-- Node7&#45;&gt;Node9 -->
<g id="edge9" class="edge"><title>Node7&#45;&gt;Node9</title>
<path fill="none" stroke="midnightblue" d="M742.913,-39.1709C769.229,-32.9342 801.084,-25.3847 825.794,-19.5286"/>
<polygon fill="midnightblue" stroke="midnightblue" points="742.048,-35.7789 733.125,-41.4907 743.662,-42.5902 742.048,-35.7789"/>
</g>
<!-- Node8&#45;&gt;Node5 -->
<g id="edge8" class="edge"><title>Node8&#45;&gt;Node5</title>
<path fill="none" stroke="midnightblue" d="M956.153,-65.0191C964.769,-66.0961 973.47,-67.1837 981.975,-68.2469"/>
<polygon fill="midnightblue" stroke="midnightblue" points="956.451,-61.5292 946.094,-63.7617 955.582,-68.4751 956.451,-61.5292"/>
</g>
<!-- Node10&#45;&gt;Node9 -->
<g id="edge11" class="edge"><title>Node10&#45;&gt;Node9</title>
<path fill="none" stroke="midnightblue" d="M761.826,-10.6022C783.008,-10.4797 805.667,-10.3487 824.425,-10.2403"/>
<polygon fill="midnightblue" stroke="midnightblue" points="761.549,-7.1036 751.57,-10.6614 761.59,-14.1035 761.549,-7.1036"/>
</g>
</g>
</svg>
