<?xml version="1.0" encoding="UTF-8" standalone="no"?>
<!DOCTYPE svg PUBLIC "-//W3C//DTD SVG 1.1//EN"
 "http://www.w3.org/Graphics/SVG/1.1/DTD/svg11.dtd">
<!-- Generated by graphviz version 2.36.0 (20140111.2315)
 -->
<!-- Title: view.components.LanguageController.getInstance Pages: 1 -->
<svg width="354pt" height="38pt"
 viewBox="0.00 0.00 354.00 38.00" xmlns="http://www.w3.org/2000/svg" xmlns:xlink="http://www.w3.org/1999/xlink">
<g id="graph0" class="graph" transform="scale(1 1) rotate(0) translate(4 34)">
<title>view.components.LanguageController.getInstance</title>
<polygon fill="white" stroke="none" points="-4,4 -4,-34 350,-34 350,4 -4,4"/>
<!-- Node1 -->
<g id="node1" class="node"><title>Node1</title>
<polygon fill="#bfbfbf" stroke="black" points="0.5,-0 0.5,-30 149.5,-30 149.5,-0 0.5,-0"/>
<text text-anchor="start" x="8.5" y="-18" font-family="Helvetica,sans-Serif" font-size="10.00">view.components.Language</text>
<text text-anchor="middle" x="75" y="-7" font-family="Helvetica,sans-Serif" font-size="10.00">Controller.getInstance</text>
</g>
<!-- Node2 -->
<g id="node2" class="node"><title>Node2</title>
<g id="a_node2"><a xlink:href="../../d7/dd7/classview_1_1components_1_1_language_controller.html#ad2f0fda8d25c8d4a08f59e9f4fd46c12" target="_top" xlink:title="view.components.Language\lController.LanguageController">
<polygon fill="white" stroke="black" points="186.5,-0 186.5,-30 345.5,-30 345.5,-0 186.5,-0"/>
<text text-anchor="start" x="194.5" y="-18" font-family="Helvetica,sans-Serif" font-size="10.00">view.components.Language</text>
<text text-anchor="middle" x="266" y="-7" font-family="Helvetica,sans-Serif" font-size="10.00">Controller.LanguageController</text>
</a>
</g>
</g>
<!-- Node1&#45;&gt;Node2 -->
<g id="edge1" class="edge"><title>Node1&#45;&gt;Node2</title>
<path fill="none" stroke="midnightblue" d="M149.614,-15C158.349,-15 167.335,-15 176.253,-15"/>
<polygon fill="midnightblue" stroke="midnightblue" points="176.275,-18.5001 186.275,-15 176.275,-11.5001 176.275,-18.5001"/>
</g>
</g>
</svg>
