<?xml version="1.0" encoding="UTF-8" standalone="no"?>
<!DOCTYPE svg PUBLIC "-//W3C//DTD SVG 1.1//EN"
 "http://www.w3.org/Graphics/SVG/1.1/DTD/svg11.dtd">
<!-- Generated by graphviz version 2.36.0 (20140111.2315)
 -->
<!-- Title: view.toolbar.SpeedSliderToolbarItem Pages: 1 -->
<svg width="1378pt" height="510pt"
 viewBox="0.00 0.00 1378.00 510.00" xmlns="http://www.w3.org/2000/svg" xmlns:xlink="http://www.w3.org/1999/xlink">
<g id="graph0" class="graph" transform="scale(1 1) rotate(0) translate(4 506)">
<title>view.toolbar.SpeedSliderToolbarItem</title>
<polygon fill="white" stroke="none" points="-4,4 -4,-506 1374,-506 1374,4 -4,4"/>
<!-- Node1 -->
<g id="node1" class="node"><title>Node1</title>
<polygon fill="#bfbfbf" stroke="black" points="1236.5,-402 1236.5,-432 1369.5,-432 1369.5,-402 1236.5,-402"/>
<text text-anchor="start" x="1244.5" y="-420" font-family="Helvetica,sans-Serif" font-size="10.00">view.toolbar.SpeedSlider</text>
<text text-anchor="middle" x="1303" y="-409" font-family="Helvetica,sans-Serif" font-size="10.00">ToolbarItem</text>
</g>
<!-- Node2 -->
<g id="node2" class="node"><title>Node2</title>
<g id="a_node2"><a xlink:href="../../dc/de6/classview_1_1toolbar_1_1_toolbar_item.html" target="_top" xlink:title="view.toolbar.ToolbarItem">
<polygon fill="white" stroke="black" points="1066.5,-407.5 1066.5,-426.5 1197.5,-426.5 1197.5,-407.5 1066.5,-407.5"/>
<text text-anchor="middle" x="1132" y="-414.5" font-family="Helvetica,sans-Serif" font-size="10.00">view.toolbar.ToolbarItem</text>
</a>
</g>
</g>
<!-- Node2&#45;&gt;Node1 -->
<g id="edge1" class="edge"><title>Node2&#45;&gt;Node1</title>
<path fill="none" stroke="midnightblue" d="M1208.05,-417C1217.53,-417 1227.17,-417 1236.48,-417"/>
<polygon fill="midnightblue" stroke="midnightblue" points="1207.86,-413.5 1197.86,-417 1207.86,-420.5 1207.86,-413.5"/>
</g>
<!-- Node3 -->
<g id="node3" class="node"><title>Node3</title>
<polygon fill="white" stroke="#bfbfbf" points="637,-482.5 637,-501.5 679,-501.5 679,-482.5 637,-482.5"/>
<text text-anchor="middle" x="658" y="-489.5" font-family="Helvetica,sans-Serif" font-size="10.00">HBox</text>
</g>
<!-- Node3&#45;&gt;Node2 -->
<g id="edge2" class="edge"><title>Node3&#45;&gt;Node2</title>
<path fill="none" stroke="midnightblue" d="M689.335,-494.013C756.154,-497.438 920.25,-500.295 1048,-457 1071.94,-448.888 1097.94,-435.552 1114.35,-426.531"/>
<polygon fill="midnightblue" stroke="midnightblue" points="689.282,-490.504 679.103,-493.443 688.893,-497.493 689.282,-490.504"/>
</g>
<!-- Node6 -->
<g id="node6" class="node"><title>Node6</title>
<g id="a_node6"><a xlink:href="../../df/dd6/classview_1_1toolbar_1_1_toolbar.html" target="_top" xlink:title="view.toolbar.Toolbar">
<polygon fill="white" stroke="black" points="856.5,-445.5 856.5,-464.5 965.5,-464.5 965.5,-445.5 856.5,-445.5"/>
<text text-anchor="middle" x="911" y="-452.5" font-family="Helvetica,sans-Serif" font-size="10.00">view.toolbar.Toolbar</text>
</a>
</g>
</g>
<!-- Node3&#45;&gt;Node6 -->
<g id="edge22" class="edge"><title>Node3&#45;&gt;Node6</title>
<path fill="none" stroke="#9a32cd" stroke-dasharray="5,2" d="M689.094,-487.564C730.369,-481.479 805.226,-470.445 856.252,-462.923"/>
<polygon fill="#9a32cd" stroke="#9a32cd" points="688.499,-484.114 679.116,-489.035 689.52,-491.039 688.499,-484.114"/>
<text text-anchor="middle" x="798" y="-480" font-family="Helvetica,sans-Serif" font-size="10.00"> myToolbar</text>
</g>
<!-- Node4 -->
<g id="node4" class="node"><title>Node4</title>
<polygon fill="white" stroke="#bfbfbf" points="890,-407.5 890,-426.5 932,-426.5 932,-407.5 890,-407.5"/>
<text text-anchor="middle" x="911" y="-414.5" font-family="Helvetica,sans-Serif" font-size="10.00">Label</text>
</g>
<!-- Node4&#45;&gt;Node2 -->
<g id="edge3" class="edge"><title>Node4&#45;&gt;Node2</title>
<path fill="none" stroke="#9a32cd" stroke-dasharray="5,2" d="M942.229,-417C974.077,-417 1025.2,-417 1066.22,-417"/>
<polygon fill="#9a32cd" stroke="#9a32cd" points="942.21,-413.5 932.21,-417 942.21,-420.5 942.21,-413.5"/>
<text text-anchor="middle" x="1016" y="-420" font-family="Helvetica,sans-Serif" font-size="10.00"> myLabel</text>
</g>
<!-- Node5 -->
<g id="node5" class="node"><title>Node5</title>
<polygon fill="white" stroke="#bfbfbf" points="890,-369.5 890,-388.5 932,-388.5 932,-369.5 890,-369.5"/>
<text text-anchor="middle" x="911" y="-376.5" font-family="Helvetica,sans-Serif" font-size="10.00">Node</text>
</g>
<!-- Node5&#45;&gt;Node2 -->
<g id="edge4" class="edge"><title>Node5&#45;&gt;Node2</title>
<path fill="none" stroke="#9a32cd" stroke-dasharray="5,2" d="M942.476,-384.053C970.05,-388.649 1011.77,-395.662 1048,-402 1057.95,-403.741 1068.57,-405.633 1078.77,-407.468"/>
<polygon fill="#9a32cd" stroke="#9a32cd" points="942.728,-380.547 932.289,-382.358 941.578,-387.452 942.728,-380.547"/>
<text text-anchor="middle" x="1016" y="-405" font-family="Helvetica,sans-Serif" font-size="10.00"> myNode</text>
</g>
<!-- Node6&#45;&gt;Node2 -->
<g id="edge5" class="edge"><title>Node6&#45;&gt;Node2</title>
<path fill="none" stroke="#9a32cd" stroke-dasharray="5,2" d="M975.661,-443.954C1007.47,-438.435 1045.57,-431.824 1076.08,-426.53"/>
<polygon fill="#9a32cd" stroke="#9a32cd" points="974.828,-440.546 965.573,-445.704 976.025,-447.443 974.828,-440.546"/>
<text text-anchor="middle" x="1016" y="-445" font-family="Helvetica,sans-Serif" font-size="10.00"> myToolbar</text>
</g>
<!-- Node7 -->
<g id="node7" class="node"><title>Node7</title>
<polygon fill="white" stroke="#bfbfbf" points="339,-409.5 339,-428.5 385,-428.5 385,-409.5 339,-409.5"/>
<text text-anchor="middle" x="362" y="-416.5" font-family="Helvetica,sans-Serif" font-size="10.00">Group</text>
</g>
<!-- Node7&#45;&gt;Node6 -->
<g id="edge6" class="edge"><title>Node7&#45;&gt;Node6</title>
<path fill="none" stroke="midnightblue" d="M395.464,-423.062C414.768,-425.363 439.753,-428.145 462,-430 604.256,-441.863 772.407,-449.553 856.489,-452.965"/>
<polygon fill="midnightblue" stroke="midnightblue" points="395.725,-419.568 385.377,-421.841 394.885,-426.517 395.725,-419.568"/>
</g>
<!-- Node8 -->
<g id="node8" class="node"><title>Node8</title>
<g id="a_node8"><a xlink:href="../../d5/d4b/classview_1_1components_1_1_turtle_window.html" target="_top" xlink:title="view.components.TurtleWindow">
<polygon fill="white" stroke="black" points="576.5,-243.5 576.5,-262.5 739.5,-262.5 739.5,-243.5 576.5,-243.5"/>
<text text-anchor="middle" x="658" y="-250.5" font-family="Helvetica,sans-Serif" font-size="10.00">view.components.TurtleWindow</text>
</a>
</g>
</g>
<!-- Node7&#45;&gt;Node8 -->
<g id="edge8" class="edge"><title>Node7&#45;&gt;Node8</title>
<path fill="none" stroke="midnightblue" d="M394.963,-424.901C435.812,-430.707 507.296,-434.885 558,-405 614.975,-371.419 645.094,-290.649 654.078,-262.707"/>
<polygon fill="midnightblue" stroke="midnightblue" points="395.442,-421.434 385.026,-423.369 394.376,-428.352 395.442,-421.434"/>
</g>
<!-- Node7&#45;&gt;Node8 -->
<g id="edge20" class="edge"><title>Node7&#45;&gt;Node8</title>
<path fill="none" stroke="#9a32cd" stroke-dasharray="5,2" d="M395.44,-414.852C410.931,-411.837 429.259,-406.697 444,-398 454.018,-392.089 451.814,-384.617 462,-379 500.088,-357.999 520.036,-381.225 558,-360 602.18,-335.299 637.753,-283.886 651.203,-262.574"/>
<polygon fill="#9a32cd" stroke="#9a32cd" points="394.503,-411.462 385.247,-416.617 395.697,-418.359 394.503,-411.462"/>
<text text-anchor="middle" x="510" y="-393" font-family="Helvetica,sans-Serif" font-size="10.00"> myTImages</text>
<text text-anchor="middle" x="510" y="-382" font-family="Helvetica,sans-Serif" font-size="10.00">myLayers</text>
</g>
<!-- Node8&#45;&gt;Node6 -->
<g id="edge7" class="edge"><title>Node8&#45;&gt;Node6</title>
<path fill="none" stroke="#9a32cd" stroke-dasharray="5,2" d="M676.882,-269.483C709.152,-299.252 779.234,-364.002 838,-419 846.034,-426.519 846.605,-430.271 856,-436 862.109,-439.725 869.054,-442.858 875.88,-445.437"/>
<polygon fill="#9a32cd" stroke="#9a32cd" points="679.246,-266.903 669.522,-262.696 674.501,-272.049 679.246,-266.903"/>
<text text-anchor="middle" x="798" y="-422" font-family="Helvetica,sans-Serif" font-size="10.00"> myTurtleWindow</text>
</g>
<!-- Node9 -->
<g id="node9" class="node"><title>Node9</title>
<g id="a_node9"><a xlink:href="../../dd/db2/interfaceview_1_1components_1_1_observer.html" target="_top" xlink:title="view.components.Observer">
<polygon fill="white" stroke="black" points="289,-369.5 289,-388.5 435,-388.5 435,-369.5 289,-369.5"/>
<text text-anchor="middle" x="362" y="-376.5" font-family="Helvetica,sans-Serif" font-size="10.00">view.components.Observer</text>
</a>
</g>
</g>
<!-- Node9&#45;&gt;Node8 -->
<g id="edge9" class="edge"><title>Node9&#45;&gt;Node8</title>
<path fill="none" stroke="midnightblue" d="M426.443,-367.6C474.148,-358.426 535.069,-345.255 558,-334 595.878,-315.409 632.064,-279.796 648.205,-262.669"/>
<polygon fill="midnightblue" stroke="midnightblue" points="425.652,-364.188 416.482,-369.495 426.96,-371.064 425.652,-364.188"/>
</g>
<!-- Node10 -->
<g id="node10" class="node"><title>Node10</title>
<polygon fill="white" stroke="#bfbfbf" points="280,-320 280,-350 444,-350 444,-320 280,-320"/>
<text text-anchor="start" x="288" y="-338" font-family="Helvetica,sans-Serif" font-size="10.00">HashMap&lt; Integer, view.turtle.</text>
<text text-anchor="middle" x="362" y="-327" font-family="Helvetica,sans-Serif" font-size="10.00">TurtleImage &gt;</text>
</g>
<!-- Node10&#45;&gt;Node8 -->
<g id="edge10" class="edge"><title>Node10&#45;&gt;Node8</title>
<path fill="none" stroke="#9a32cd" stroke-dasharray="5,2" d="M454.193,-320.184C487.255,-313.797 524.657,-305.379 558,-295 586.522,-286.121 618.064,-271.935 637.709,-262.543"/>
<polygon fill="#9a32cd" stroke="#9a32cd" points="453.254,-316.8 444.081,-322.101 454.558,-323.677 453.254,-316.8"/>
<text text-anchor="middle" x="510" y="-322" font-family="Helvetica,sans-Serif" font-size="10.00"> myTurtles</text>
</g>
<!-- Node11 -->
<g id="node11" class="node"><title>Node11</title>
<polygon fill="white" stroke="#bfbfbf" points="322,-281.5 322,-300.5 402,-300.5 402,-281.5 322,-281.5"/>
<text text-anchor="middle" x="362" y="-288.5" font-family="Helvetica,sans-Serif" font-size="10.00">ContextMenu</text>
</g>
<!-- Node11&#45;&gt;Node8 -->
<g id="edge11" class="edge"><title>Node11&#45;&gt;Node8</title>
<path fill="none" stroke="#9a32cd" stroke-dasharray="5,2" d="M412.387,-285.171C451.826,-280.456 508.489,-273.547 558,-267 568.669,-265.589 579.978,-264.04 590.989,-262.504"/>
<polygon fill="#9a32cd" stroke="#9a32cd" points="411.759,-281.721 402.244,-286.381 412.588,-288.672 411.759,-281.721"/>
<text text-anchor="middle" x="510" y="-283" font-family="Helvetica,sans-Serif" font-size="10.00"> contextMenu</text>
</g>
<!-- Node12 -->
<g id="node12" class="node"><title>Node12</title>
<g id="a_node12"><a xlink:href="../../d5/d46/classview_1_1components_1_1_palette.html" target="_top" xlink:title="view.components.Palette">
<polygon fill="white" stroke="black" points="294.5,-243.5 294.5,-262.5 429.5,-262.5 429.5,-243.5 294.5,-243.5"/>
<text text-anchor="middle" x="362" y="-250.5" font-family="Helvetica,sans-Serif" font-size="10.00">view.components.Palette</text>
</a>
</g>
</g>
<!-- Node12&#45;&gt;Node8 -->
<g id="edge12" class="edge"><title>Node12&#45;&gt;Node8</title>
<path fill="none" stroke="#9a32cd" stroke-dasharray="5,2" d="M439.888,-253C481.888,-253 533.86,-253 576.423,-253"/>
<polygon fill="#9a32cd" stroke="#9a32cd" points="439.713,-249.5 429.713,-253 439.713,-256.5 439.713,-249.5"/>
<text text-anchor="middle" x="510" y="-256" font-family="Helvetica,sans-Serif" font-size="10.00"> myPalette</text>
</g>
<!-- Node13 -->
<g id="node13" class="node"><title>Node13</title>
<polygon fill="white" stroke="#bfbfbf" points="0.5,-263 0.5,-293 155.5,-293 155.5,-263 0.5,-263"/>
<text text-anchor="start" x="8.5" y="-281" font-family="Helvetica,sans-Serif" font-size="10.00">ArrayList&lt; view.components.</text>
<text text-anchor="middle" x="78" y="-270" font-family="Helvetica,sans-Serif" font-size="10.00">ImageIndex &gt;</text>
</g>
<!-- Node13&#45;&gt;Node12 -->
<g id="edge13" class="edge"><title>Node13&#45;&gt;Node12</title>
<path fill="none" stroke="#9a32cd" stroke-dasharray="5,2" d="M165.769,-270.308C207.183,-266.636 255.961,-262.312 294.4,-258.904"/>
<polygon fill="#9a32cd" stroke="#9a32cd" points="165.337,-266.832 155.685,-271.202 165.955,-273.805 165.337,-266.832"/>
<text text-anchor="middle" x="218" y="-273" font-family="Helvetica,sans-Serif" font-size="10.00"> myImagePalettes</text>
</g>
<!-- Node14 -->
<g id="node14" class="node"><title>Node14</title>
<polygon fill="white" stroke="#bfbfbf" points="0.5,-214 0.5,-244 155.5,-244 155.5,-214 0.5,-214"/>
<text text-anchor="start" x="8.5" y="-232" font-family="Helvetica,sans-Serif" font-size="10.00">ArrayList&lt; view.components.</text>
<text text-anchor="middle" x="78" y="-221" font-family="Helvetica,sans-Serif" font-size="10.00">ColorIndex &gt;</text>
</g>
<!-- Node14&#45;&gt;Node12 -->
<g id="edge14" class="edge"><title>Node14&#45;&gt;Node12</title>
<path fill="none" stroke="#9a32cd" stroke-dasharray="5,2" d="M165.769,-236.385C207.183,-239.909 255.961,-244.061 294.4,-247.332"/>
<polygon fill="#9a32cd" stroke="#9a32cd" points="165.946,-232.887 155.685,-235.526 165.352,-239.862 165.946,-232.887"/>
<text text-anchor="middle" x="218" y="-248" font-family="Helvetica,sans-Serif" font-size="10.00"> myColorPalettes</text>
</g>
<!-- Node15 -->
<g id="node15" class="node"><title>Node15</title>
<polygon fill="white" stroke="#bfbfbf" points="316.5,-205.5 316.5,-224.5 407.5,-224.5 407.5,-205.5 316.5,-205.5"/>
<text text-anchor="middle" x="362" y="-212.5" font-family="Helvetica,sans-Serif" font-size="10.00">IntegerProperty</text>
</g>
<!-- Node15&#45;&gt;Node8 -->
<g id="edge15" class="edge"><title>Node15&#45;&gt;Node8</title>
<path fill="none" stroke="#9a32cd" stroke-dasharray="5,2" d="M417.704,-220.964C456.825,-225.349 510.706,-231.63 558,-238 570.404,-239.671 583.662,-241.588 596.312,-243.482"/>
<polygon fill="#9a32cd" stroke="#9a32cd" points="417.911,-217.466 407.585,-219.836 417.135,-224.423 417.911,-217.466"/>
<text text-anchor="middle" x="510" y="-241" font-family="Helvetica,sans-Serif" font-size="10.00"> bgColorID</text>
</g>
<!-- Node16 -->
<g id="node16" class="node"><title>Node16</title>
<polygon fill="white" stroke="#bfbfbf" points="314,-167.5 314,-186.5 410,-186.5 410,-167.5 314,-167.5"/>
<text text-anchor="middle" x="362" y="-174.5" font-family="Helvetica,sans-Serif" font-size="10.00">GraphicsContext</text>
</g>
<!-- Node16&#45;&gt;Node8 -->
<g id="edge16" class="edge"><title>Node16&#45;&gt;Node8</title>
<path fill="none" stroke="#9a32cd" stroke-dasharray="5,2" d="M420.075,-183.945C459.354,-189.523 512.455,-198.651 558,-212 586.385,-220.32 617.7,-234.121 637.356,-243.385"/>
<polygon fill="#9a32cd" stroke="#9a32cd" points="420.532,-180.475 410.146,-182.569 419.57,-187.409 420.532,-180.475"/>
<text text-anchor="middle" x="510" y="-215" font-family="Helvetica,sans-Serif" font-size="10.00"> mainGC</text>
</g>
<!-- Node17 -->
<g id="node17" class="node"><title>Node17</title>
<polygon fill="white" stroke="#bfbfbf" points="340.5,-129.5 340.5,-148.5 383.5,-148.5 383.5,-129.5 340.5,-129.5"/>
<text text-anchor="middle" x="362" y="-136.5" font-family="Helvetica,sans-Serif" font-size="10.00">Menu</text>
</g>
<!-- Node17&#45;&gt;Node8 -->
<g id="edge17" class="edge"><title>Node17&#45;&gt;Node8</title>
<path fill="none" stroke="#9a32cd" stroke-dasharray="5,2" d="M393.859,-137.671C433.64,-137.147 504.101,-140.307 558,-165 598.559,-183.581 634.499,-224.537 649.529,-243.285"/>
<polygon fill="#9a32cd" stroke="#9a32cd" points="393.648,-134.175 383.727,-137.895 393.802,-141.173 393.648,-134.175"/>
<text text-anchor="middle" x="510" y="-179" font-family="Helvetica,sans-Serif" font-size="10.00"> imagePalettes</text>
<text text-anchor="middle" x="510" y="-168" font-family="Helvetica,sans-Serif" font-size="10.00">colorPalettes</text>
</g>
<!-- Node18 -->
<g id="node18" class="node"><title>Node18</title>
<polygon fill="white" stroke="#bfbfbf" points="324,-88.5 324,-107.5 400,-107.5 400,-88.5 324,-88.5"/>
<text text-anchor="middle" x="362" y="-95.5" font-family="Helvetica,sans-Serif" font-size="10.00">ToggleGroup</text>
</g>
<!-- Node18&#45;&gt;Node8 -->
<g id="edge18" class="edge"><title>Node18&#45;&gt;Node8</title>
<path fill="none" stroke="#9a32cd" stroke-dasharray="5,2" d="M410.332,-91.8786C451.968,-88.8246 512.812,-90.2142 558,-116 610.759,-146.106 642.925,-217.099 653.306,-243.173"/>
<polygon fill="#9a32cd" stroke="#9a32cd" points="409.851,-88.4067 400.182,-92.7386 410.442,-95.3817 409.851,-88.4067"/>
<text text-anchor="middle" x="510" y="-130" font-family="Helvetica,sans-Serif" font-size="10.00"> imagePaletteGroup</text>
<text text-anchor="middle" x="510" y="-119" font-family="Helvetica,sans-Serif" font-size="10.00">colorPaletteGroup</text>
</g>
<!-- Node19 -->
<g id="node19" class="node"><title>Node19</title>
<polygon fill="white" stroke="#bfbfbf" points="284.5,-39 284.5,-69 439.5,-69 439.5,-39 284.5,-39"/>
<text text-anchor="start" x="292.5" y="-57" font-family="Helvetica,sans-Serif" font-size="10.00">HashMap&lt; Integer, Graphics</text>
<text text-anchor="middle" x="362" y="-46" font-family="Helvetica,sans-Serif" font-size="10.00">Context &gt;</text>
</g>
<!-- Node19&#45;&gt;Node8 -->
<g id="edge19" class="edge"><title>Node19&#45;&gt;Node8</title>
<path fill="none" stroke="#9a32cd" stroke-dasharray="5,2" d="M449.896,-47.594C485.965,-48.9539 526.627,-56.0893 558,-77 620.136,-118.415 647.409,-212.754 654.818,-243.277"/>
<polygon fill="#9a32cd" stroke="#9a32cd" points="449.936,-44.0941 439.856,-47.357 449.771,-51.0921 449.936,-44.0941"/>
<text text-anchor="middle" x="510" y="-80" font-family="Helvetica,sans-Serif" font-size="10.00"> gc</text>
</g>
<!-- Node20 -->
<g id="node20" class="node"><title>Node20</title>
<polygon fill="white" stroke="#bfbfbf" points="336,-0.5 336,-19.5 388,-19.5 388,-0.5 336,-0.5"/>
<text text-anchor="middle" x="362" y="-7.5" font-family="Helvetica,sans-Serif" font-size="10.00">Canvas</text>
</g>
<!-- Node20&#45;&gt;Node8 -->
<g id="edge21" class="edge"><title>Node20&#45;&gt;Node8</title>
<path fill="none" stroke="#9a32cd" stroke-dasharray="5,2" d="M398.357,-4.67737C440.557,-0.327725 511.271,0.383122 558,-34 630.929,-87.661 651.354,-207.706 655.885,-243.037"/>
<polygon fill="#9a32cd" stroke="#9a32cd" points="397.807,-1.2176 388.275,-5.84247 398.61,-8.17132 397.807,-1.2176"/>
<text text-anchor="middle" x="510" y="-37" font-family="Helvetica,sans-Serif" font-size="10.00"> mainCanvas</text>
</g>
<!-- Node21 -->
<g id="node21" class="node"><title>Node21</title>
<polygon fill="white" stroke="#bfbfbf" points="890.5,-331.5 890.5,-350.5 931.5,-350.5 931.5,-331.5 890.5,-331.5"/>
<text text-anchor="middle" x="911" y="-338.5" font-family="Helvetica,sans-Serif" font-size="10.00">Color</text>
</g>
<!-- Node21&#45;&gt;Node2 -->
<g id="edge23" class="edge"><title>Node21&#45;&gt;Node2</title>
<path fill="none" stroke="#9a32cd" stroke-dasharray="5,2" d="M941.649,-347.136C969.542,-353.307 1012.25,-363.789 1048,-377 1071.41,-385.648 1097.11,-398.61 1113.61,-407.417"/>
<polygon fill="#9a32cd" stroke="#9a32cd" points="942.244,-343.683 931.73,-344.985 940.761,-350.524 942.244,-343.683"/>
<text text-anchor="middle" x="1016" y="-380" font-family="Helvetica,sans-Serif" font-size="10.00"> ITEM_COLOR</text>
</g>
</g>
</svg>
