<?xml version="1.0" encoding="UTF-8" standalone="no"?>
<!DOCTYPE svg PUBLIC "-//W3C//DTD SVG 1.1//EN"
 "http://www.w3.org/Graphics/SVG/1.1/DTD/svg11.dtd">
<!-- Generated by graphviz version 2.36.0 (20140111.2315)
 -->
<!-- Title: view.toolbar.TurtleSpecificToolbarItem.getUserInput Pages: 1 -->
<svg width="564pt" height="97pt"
 viewBox="0.00 0.00 564.00 97.00" xmlns="http://www.w3.org/2000/svg" xmlns:xlink="http://www.w3.org/1999/xlink">
<g id="graph0" class="graph" transform="scale(1 1) rotate(0) translate(4 93)">
<title>view.toolbar.TurtleSpecificToolbarItem.getUserInput</title>
<polygon fill="white" stroke="none" points="-4,4 -4,-93 560,-93 560,4 -4,4"/>
<!-- Node1 -->
<g id="node1" class="node"><title>Node1</title>
<polygon fill="#bfbfbf" stroke="black" points="0.5,-25 0.5,-55 137.5,-55 137.5,-25 0.5,-25"/>
<text text-anchor="start" x="8.5" y="-43" font-family="Helvetica,sans-Serif" font-size="10.00">view.toolbar.TurtleSpecific</text>
<text text-anchor="middle" x="69" y="-32" font-family="Helvetica,sans-Serif" font-size="10.00">ToolbarItem.getUserInput</text>
</g>
<!-- Node2 -->
<g id="node2" class="node"><title>Node2</title>
<g id="a_node2"><a xlink:href="../../d2/d72/classview_1_1toolbar_1_1_turtle_specific_toolbar_item.html#aff87aa6f38bcdb6418b027d88c6bd90c" target="_top" xlink:title="view.toolbar.TurtleSpecific\lToolbarItem.getAvailableTurtles">
<polygon fill="white" stroke="black" points="174,-25 174,-55 338,-55 338,-25 174,-25"/>
<text text-anchor="start" x="182" y="-43" font-family="Helvetica,sans-Serif" font-size="10.00">view.toolbar.TurtleSpecific</text>
<text text-anchor="middle" x="256" y="-32" font-family="Helvetica,sans-Serif" font-size="10.00">ToolbarItem.getAvailableTurtles</text>
</a>
</g>
</g>
<!-- Node1&#45;&gt;Node2 -->
<g id="edge1" class="edge"><title>Node1&#45;&gt;Node2</title>
<path fill="none" stroke="midnightblue" d="M137.575,-40C146.032,-40 154.79,-40 163.535,-40"/>
<polygon fill="midnightblue" stroke="midnightblue" points="163.777,-43.5001 173.777,-40 163.777,-36.5001 163.777,-43.5001"/>
</g>
<!-- Node3 -->
<g id="node3" class="node"><title>Node3</title>
<g id="a_node3"><a xlink:href="../../d5/d4b/classview_1_1components_1_1_turtle_window.html#a56c45ccd42635856219886f438d1a12c" target="_top" xlink:title="view.components.TurtleWindow.get\lAvailableTurtles">
<polygon fill="white" stroke="black" points="374.5,-59 374.5,-89 555.5,-89 555.5,-59 374.5,-59"/>
<text text-anchor="start" x="382.5" y="-77" font-family="Helvetica,sans-Serif" font-size="10.00">view.components.TurtleWindow.get</text>
<text text-anchor="middle" x="465" y="-66" font-family="Helvetica,sans-Serif" font-size="10.00">AvailableTurtles</text>
</a>
</g>
</g>
<!-- Node1&#45;&gt;Node3 -->
<g id="edge4" class="edge"><title>Node1&#45;&gt;Node3</title>
<path fill="none" stroke="midnightblue" d="M126.043,-55.0106C141.475,-58.5739 158.292,-61.9362 174,-64 236.891,-72.2628 308.072,-74.8166 364.173,-75.2785"/>
<polygon fill="midnightblue" stroke="midnightblue" points="364.446,-78.7802 374.468,-75.3413 364.489,-71.7803 364.446,-78.7802"/>
</g>
<!-- Node4 -->
<g id="node4" class="node"><title>Node4</title>
<g id="a_node4"><a xlink:href="../../df/dd6/classview_1_1toolbar_1_1_toolbar.html#af475087a1d6bd9a705ed213f676f3339" target="_top" xlink:title="view.toolbar.Toolbar.get\lTurtleWindow">
<polygon fill="white" stroke="black" points="401.5,-0 401.5,-30 528.5,-30 528.5,-0 401.5,-0"/>
<text text-anchor="start" x="409.5" y="-18" font-family="Helvetica,sans-Serif" font-size="10.00">view.toolbar.Toolbar.get</text>
<text text-anchor="middle" x="465" y="-7" font-family="Helvetica,sans-Serif" font-size="10.00">TurtleWindow</text>
</a>
</g>
</g>
<!-- Node1&#45;&gt;Node4 -->
<g id="edge5" class="edge"><title>Node1&#45;&gt;Node4</title>
<path fill="none" stroke="midnightblue" d="M121.938,-24.9726C138.435,-20.8874 156.85,-17.0324 174,-15 247.46,-6.29463 332.125,-7.58196 390.934,-10.2592"/>
<polygon fill="midnightblue" stroke="midnightblue" points="391.083,-13.7703 401.24,-10.7546 391.419,-6.77836 391.083,-13.7703"/>
</g>
<!-- Node2&#45;&gt;Node3 -->
<g id="edge2" class="edge"><title>Node2&#45;&gt;Node3</title>
<path fill="none" stroke="midnightblue" d="M338.218,-53.3401C346.859,-54.7594 355.717,-56.2144 364.537,-57.663"/>
<polygon fill="midnightblue" stroke="midnightblue" points="364.028,-61.1264 374.464,-59.2935 365.163,-54.2189 364.028,-61.1264"/>
</g>
<!-- Node2&#45;&gt;Node4 -->
<g id="edge3" class="edge"><title>Node2&#45;&gt;Node4</title>
<path fill="none" stroke="midnightblue" d="M338.218,-30.1911C355.734,-28.0756 374.144,-25.8521 391.311,-23.7789"/>
<polygon fill="midnightblue" stroke="midnightblue" points="391.75,-27.2514 401.258,-22.5776 390.91,-20.3019 391.75,-27.2514"/>
</g>
</g>
</svg>
