<?xml version="1.0" encoding="UTF-8" standalone="no"?>
<!DOCTYPE svg PUBLIC "-//W3C//DTD SVG 1.1//EN"
 "http://www.w3.org/Graphics/SVG/1.1/DTD/svg11.dtd">
<!-- Generated by graphviz version 2.36.0 (20140111.2315)
 -->
<!-- Title: view.toolbar.TurtleSpecificToolbarItem.changeTurtleProperties Pages: 1 -->
<svg width="582pt" height="87pt"
 viewBox="0.00 0.00 582.00 87.00" xmlns="http://www.w3.org/2000/svg" xmlns:xlink="http://www.w3.org/1999/xlink">
<g id="graph0" class="graph" transform="scale(1 1) rotate(0) translate(4 83)">
<title>view.toolbar.TurtleSpecificToolbarItem.changeTurtleProperties</title>
<polygon fill="white" stroke="none" points="-4,4 -4,-83 578,-83 578,4 -4,4"/>
<!-- Node1 -->
<g id="node1" class="node"><title>Node1</title>
<polygon fill="#bfbfbf" stroke="black" points="0.5,-24 0.5,-54 185.5,-54 185.5,-24 0.5,-24"/>
<text text-anchor="start" x="8.5" y="-42" font-family="Helvetica,sans-Serif" font-size="10.00">view.toolbar.TurtleSpecific</text>
<text text-anchor="middle" x="93" y="-31" font-family="Helvetica,sans-Serif" font-size="10.00">ToolbarItem.changeTurtleProperties</text>
</g>
<!-- Node2 -->
<g id="node2" class="node"><title>Node2</title>
<g id="a_node2"><a xlink:href="../../d2/d72/classview_1_1toolbar_1_1_turtle_specific_toolbar_item.html#a681453ed9b710bab03151e682b577843" target="_top" xlink:title="view.toolbar.TurtleSpecific\lToolbarItem.getAndModifyTurtles">
<polygon fill="white" stroke="black" points="222.5,-24 222.5,-54 393.5,-54 393.5,-24 222.5,-24"/>
<text text-anchor="start" x="230.5" y="-42" font-family="Helvetica,sans-Serif" font-size="10.00">view.toolbar.TurtleSpecific</text>
<text text-anchor="middle" x="308" y="-31" font-family="Helvetica,sans-Serif" font-size="10.00">ToolbarItem.getAndModifyTurtles</text>
</a>
</g>
</g>
<!-- Node1&#45;&gt;Node2 -->
<g id="edge1" class="edge"><title>Node1&#45;&gt;Node2</title>
<path fill="none" stroke="midnightblue" d="M195.603,-39C204.521,-39 213.484,-39 222.243,-39"/>
<polygon fill="midnightblue" stroke="midnightblue" points="195.567,-35.5001 185.567,-39 195.567,-42.5001 195.567,-35.5001"/>
</g>
<!-- Node3 -->
<g id="node3" class="node"><title>Node3</title>
<g id="a_node3"><a xlink:href="../../d5/d89/classview_1_1toolbar_1_1_turtle_image_toolbar_item.html#ac34cf24ff2eb07189d3d9a56ccf6abf5" target="_top" xlink:title="view.toolbar.TurtleImage\lToolbarItem.createNode">
<polygon fill="white" stroke="black" points="436.5,-49 436.5,-79 567.5,-79 567.5,-49 436.5,-49"/>
<text text-anchor="start" x="444.5" y="-67" font-family="Helvetica,sans-Serif" font-size="10.00">view.toolbar.TurtleImage</text>
<text text-anchor="middle" x="502" y="-56" font-family="Helvetica,sans-Serif" font-size="10.00">ToolbarItem.createNode</text>
</a>
</g>
</g>
<!-- Node2&#45;&gt;Node3 -->
<g id="edge2" class="edge"><title>Node2&#45;&gt;Node3</title>
<path fill="none" stroke="midnightblue" d="M403.842,-51.3492C414.83,-52.7799 425.838,-54.2133 436.29,-55.5743"/>
<polygon fill="midnightblue" stroke="midnightblue" points="404.141,-47.8587 393.773,-50.0381 403.237,-54.8001 404.141,-47.8587"/>
</g>
<!-- Node4 -->
<g id="node4" class="node"><title>Node4</title>
<g id="a_node4"><a xlink:href="../../d7/d7b/classview_1_1toolbar_1_1_turtle_pen_color_toolbar_item.html#a7445747077b71eb93827e3ce5e6c1eb2" target="_top" xlink:title="view.toolbar.TurtlePenColor\lToolbarItem.createNode">
<polygon fill="white" stroke="black" points="430.5,-0 430.5,-30 573.5,-30 573.5,-0 430.5,-0"/>
<text text-anchor="start" x="438.5" y="-18" font-family="Helvetica,sans-Serif" font-size="10.00">view.toolbar.TurtlePenColor</text>
<text text-anchor="middle" x="502" y="-7" font-family="Helvetica,sans-Serif" font-size="10.00">ToolbarItem.createNode</text>
</a>
</g>
</g>
<!-- Node2&#45;&gt;Node4 -->
<g id="edge3" class="edge"><title>Node2&#45;&gt;Node4</title>
<path fill="none" stroke="midnightblue" d="M403.865,-27.1418C412.824,-26.022 421.796,-24.9005 430.469,-23.8164"/>
<polygon fill="midnightblue" stroke="midnightblue" points="403.262,-23.69 393.773,-28.4034 404.13,-30.6359 403.262,-23.69"/>
</g>
</g>
</svg>
