<?xml version="1.0" encoding="UTF-8" standalone="no"?>
<!DOCTYPE svg PUBLIC "-//W3C//DTD SVG 1.1//EN"
 "http://www.w3.org/Graphics/SVG/1.1/DTD/svg11.dtd">
<!-- Generated by graphviz version 2.36.0 (20140111.2315)
 -->
<!-- Title: view.toolbar.TurtleSpecificToolbarItem.getAndModifyTurtles Pages: 1 -->
<svg width="360pt" height="87pt"
 viewBox="0.00 0.00 360.00 87.00" xmlns="http://www.w3.org/2000/svg" xmlns:xlink="http://www.w3.org/1999/xlink">
<g id="graph0" class="graph" transform="scale(1 1) rotate(0) translate(4 83)">
<title>view.toolbar.TurtleSpecificToolbarItem.getAndModifyTurtles</title>
<polygon fill="white" stroke="none" points="-4,4 -4,-83 356,-83 356,4 -4,4"/>
<!-- Node1 -->
<g id="node1" class="node"><title>Node1</title>
<polygon fill="#bfbfbf" stroke="black" points="0.5,-24 0.5,-54 171.5,-54 171.5,-24 0.5,-24"/>
<text text-anchor="start" x="8.5" y="-42" font-family="Helvetica,sans-Serif" font-size="10.00">view.toolbar.TurtleSpecific</text>
<text text-anchor="middle" x="86" y="-31" font-family="Helvetica,sans-Serif" font-size="10.00">ToolbarItem.getAndModifyTurtles</text>
</g>
<!-- Node2 -->
<g id="node2" class="node"><title>Node2</title>
<g id="a_node2"><a xlink:href="../../d7/d7b/classview_1_1toolbar_1_1_turtle_pen_color_toolbar_item.html#a7445747077b71eb93827e3ce5e6c1eb2" target="_top" xlink:title="view.toolbar.TurtlePenColor\lToolbarItem.createNode">
<polygon fill="white" stroke="black" points="208.5,-49 208.5,-79 351.5,-79 351.5,-49 208.5,-49"/>
<text text-anchor="start" x="216.5" y="-67" font-family="Helvetica,sans-Serif" font-size="10.00">view.toolbar.TurtlePenColor</text>
<text text-anchor="middle" x="280" y="-56" font-family="Helvetica,sans-Serif" font-size="10.00">ToolbarItem.createNode</text>
</a>
</g>
</g>
<!-- Node1&#45;&gt;Node2 -->
<g id="edge1" class="edge"><title>Node1&#45;&gt;Node2</title>
<path fill="none" stroke="midnightblue" d="M181.865,-51.3523C190.824,-52.5188 199.796,-53.687 208.469,-54.8163"/>
<polygon fill="midnightblue" stroke="midnightblue" points="182.141,-47.8587 171.773,-50.0381 181.237,-54.8001 182.141,-47.8587"/>
</g>
<!-- Node3 -->
<g id="node3" class="node"><title>Node3</title>
<g id="a_node3"><a xlink:href="../../d5/d89/classview_1_1toolbar_1_1_turtle_image_toolbar_item.html#ac34cf24ff2eb07189d3d9a56ccf6abf5" target="_top" xlink:title="view.toolbar.TurtleImage\lToolbarItem.createNode">
<polygon fill="white" stroke="black" points="214.5,-0 214.5,-30 345.5,-30 345.5,-0 214.5,-0"/>
<text text-anchor="start" x="222.5" y="-18" font-family="Helvetica,sans-Serif" font-size="10.00">view.toolbar.TurtleImage</text>
<text text-anchor="middle" x="280" y="-7" font-family="Helvetica,sans-Serif" font-size="10.00">ToolbarItem.createNode</text>
</a>
</g>
</g>
<!-- Node1&#45;&gt;Node3 -->
<g id="edge2" class="edge"><title>Node1&#45;&gt;Node3</title>
<path fill="none" stroke="midnightblue" d="M181.842,-27.1448C192.83,-25.7713 203.838,-24.3953 214.29,-23.0887"/>
<polygon fill="midnightblue" stroke="midnightblue" points="181.262,-23.69 171.773,-28.4034 182.13,-30.6359 181.262,-23.69"/>
</g>
</g>
</svg>
