<?xml version="1.0" encoding="UTF-8" standalone="no"?>
<!DOCTYPE svg PUBLIC "-//W3C//DTD SVG 1.1//EN"
 "http://www.w3.org/Graphics/SVG/1.1/DTD/svg11.dtd">
<!-- Generated by graphviz version 2.36.0 (20140111.2315)
 -->
<!-- Title: view.dialogs.DialogBox Pages: 1 -->
<svg width="214pt" height="96pt"
 viewBox="0.00 0.00 214.00 96.00" xmlns="http://www.w3.org/2000/svg" xmlns:xlink="http://www.w3.org/1999/xlink">
<g id="graph0" class="graph" transform="scale(1 1) rotate(0) translate(4 92)">
<title>view.dialogs.DialogBox</title>
<polygon fill="white" stroke="none" points="-4,4 -4,-92 210,-92 210,4 -4,4"/>
<!-- Node1 -->
<g id="node1" class="node"><title>Node1</title>
<polygon fill="#bfbfbf" stroke="black" points="30,-0.5 30,-19.5 154,-19.5 154,-0.5 30,-0.5"/>
<text text-anchor="middle" x="92" y="-7.5" font-family="Helvetica,sans-Serif" font-size="10.00">view.dialogs.DialogBox</text>
</g>
<!-- Node2 -->
<g id="node2" class="node"><title>Node2</title>
<polygon fill="white" stroke="#bfbfbf" points="-0.5,-68.5 -0.5,-87.5 44.5,-87.5 44.5,-68.5 -0.5,-68.5"/>
<text text-anchor="middle" x="22" y="-75.5" font-family="Helvetica,sans-Serif" font-size="10.00">Stage</text>
</g>
<!-- Node2&#45;&gt;Node1 -->
<g id="edge1" class="edge"><title>Node2&#45;&gt;Node1</title>
<path fill="none" stroke="#9a32cd" stroke-dasharray="5,2" d="M28.0812,-58.7309C31.1201,-51.6295 35.3718,-43.8203 41,-38 48.6607,-30.0778 59.1541,-23.9787 68.6316,-19.5987"/>
<polygon fill="#9a32cd" stroke="#9a32cd" points="24.7211,-57.7227 24.4777,-68.3148 31.2733,-60.1864 24.7211,-57.7227"/>
<text text-anchor="middle" x="64.5" y="-41.5" font-family="Helvetica,sans-Serif" font-size="10.00"> myStage</text>
</g>
<!-- Node3 -->
<g id="node3" class="node"><title>Node3</title>
<polygon fill="white" stroke="#bfbfbf" points="68.5,-68.5 68.5,-87.5 115.5,-87.5 115.5,-68.5 68.5,-68.5"/>
<text text-anchor="middle" x="92" y="-75.5" font-family="Helvetica,sans-Serif" font-size="10.00">Scene</text>
</g>
<!-- Node3&#45;&gt;Node1 -->
<g id="edge2" class="edge"><title>Node3&#45;&gt;Node1</title>
<path fill="none" stroke="#9a32cd" stroke-dasharray="5,2" d="M92,-58.0413C92,-45.4724 92,-29.5631 92,-19.8411"/>
<polygon fill="#9a32cd" stroke="#9a32cd" points="88.5001,-58.3716 92,-68.3717 95.5001,-58.3717 88.5001,-58.3716"/>
<text text-anchor="middle" x="116.5" y="-41.5" font-family="Helvetica,sans-Serif" font-size="10.00"> myScene</text>
</g>
<!-- Node4 -->
<g id="node4" class="node"><title>Node4</title>
<polygon fill="white" stroke="#bfbfbf" points="134,-68.5 134,-87.5 206,-87.5 206,-68.5 134,-68.5"/>
<text text-anchor="middle" x="170" y="-75.5" font-family="Helvetica,sans-Serif" font-size="10.00">BorderPane</text>
</g>
<!-- Node4&#45;&gt;Node1 -->
<g id="edge3" class="edge"><title>Node4&#45;&gt;Node1</title>
<path fill="none" stroke="#9a32cd" stroke-dasharray="5,2" d="M161.279,-59.2088C157.095,-51.9746 151.557,-43.9388 145,-38 136.351,-30.1666 125.011,-23.9879 115.041,-19.5295"/>
<polygon fill="#9a32cd" stroke="#9a32cd" points="158.329,-61.117 166.114,-68.3044 164.511,-57.8316 158.329,-61.117"/>
<text text-anchor="middle" x="176" y="-41.5" font-family="Helvetica,sans-Serif" font-size="10.00"> myPane</text>
</g>
</g>
</svg>
