<?xml version="1.0" encoding="UTF-8" standalone="no"?>
<!DOCTYPE svg PUBLIC "-//W3C//DTD SVG 1.1//EN"
 "http://www.w3.org/Graphics/SVG/1.1/DTD/svg11.dtd">
<!-- Generated by graphviz version 2.36.0 (20140111.2315)
 -->
<!-- Title: view.listwindows.CommandsHistoryWindow.setButtonAction Pages: 1 -->
<svg width="1598pt" height="381pt"
 viewBox="0.00 0.00 1598.00 381.00" xmlns="http://www.w3.org/2000/svg" xmlns:xlink="http://www.w3.org/1999/xlink">
<g id="graph0" class="graph" transform="scale(1 1) rotate(0) translate(4 377)">
<title>view.listwindows.CommandsHistoryWindow.setButtonAction</title>
<polygon fill="white" stroke="none" points="-4,4 -4,-377 1594,-377 1594,4 -4,4"/>
<!-- Node1 -->
<g id="node1" class="node"><title>Node1</title>
<polygon fill="#bfbfbf" stroke="black" points="0.5,-116 0.5,-146 165.5,-146 165.5,-116 0.5,-116"/>
<text text-anchor="start" x="8.5" y="-134" font-family="Helvetica,sans-Serif" font-size="10.00">view.listwindows.Commands</text>
<text text-anchor="middle" x="83" y="-123" font-family="Helvetica,sans-Serif" font-size="10.00">HistoryWindow.setButtonAction</text>
</g>
<!-- Node2 -->
<g id="node2" class="node"><title>Node2</title>
<g id="a_node2"><a xlink:href="../../da/df5/classview_1_1listwindows_1_1_commands_list_window.html#a3611428a65d6e7a436971f1b237e644e" target="_top" xlink:title="view.listwindows.Commands\lListWindow.parseCommand">
<polygon fill="white" stroke="black" points="202,-116 202,-146 352,-146 352,-116 202,-116"/>
<text text-anchor="start" x="210" y="-134" font-family="Helvetica,sans-Serif" font-size="10.00">view.listwindows.Commands</text>
<text text-anchor="middle" x="277" y="-123" font-family="Helvetica,sans-Serif" font-size="10.00">ListWindow.parseCommand</text>
</a>
</g>
</g>
<!-- Node1&#45;&gt;Node2 -->
<g id="edge1" class="edge"><title>Node1&#45;&gt;Node2</title>
<path fill="none" stroke="midnightblue" d="M165.704,-131C174.36,-131 183.175,-131 191.859,-131"/>
<polygon fill="midnightblue" stroke="midnightblue" points="191.975,-134.5 201.975,-131 191.975,-127.5 191.975,-134.5"/>
</g>
<!-- Node3 -->
<g id="node3" class="node"><title>Node3</title>
<g id="a_node3"><a xlink:href="../../d3/d42/classmodel_1_1_model.html#a58696dcb49d5de7290734289922cd126" target="_top" xlink:title="model.Model.getInstance">
<polygon fill="white" stroke="black" points="388.5,-219.5 388.5,-238.5 525.5,-238.5 525.5,-219.5 388.5,-219.5"/>
<text text-anchor="middle" x="457" y="-226.5" font-family="Helvetica,sans-Serif" font-size="10.00">model.Model.getInstance</text>
</a>
</g>
</g>
<!-- Node2&#45;&gt;Node3 -->
<g id="edge2" class="edge"><title>Node2&#45;&gt;Node3</title>
<path fill="none" stroke="midnightblue" d="M305.422,-146.098C339.151,-164.667 396.022,-195.978 429.379,-214.343"/>
<polygon fill="midnightblue" stroke="midnightblue" points="428.076,-217.622 438.525,-219.379 431.453,-211.49 428.076,-217.622"/>
</g>
<!-- Node7 -->
<g id="node7" class="node"><title>Node7</title>
<g id="a_node7"><a xlink:href="../../d3/d42/classmodel_1_1_model.html#a8a07e7f2040e8a2ab50ec2955504f6c4" target="_top" xlink:title="model.Model.parse">
<polygon fill="white" stroke="black" points="403,-140.5 403,-159.5 511,-159.5 511,-140.5 403,-140.5"/>
<text text-anchor="middle" x="457" y="-147.5" font-family="Helvetica,sans-Serif" font-size="10.00">model.Model.parse</text>
</a>
</g>
</g>
<!-- Node2&#45;&gt;Node7 -->
<g id="edge6" class="edge"><title>Node2&#45;&gt;Node7</title>
<path fill="none" stroke="midnightblue" d="M352.199,-138.92C365.597,-140.35 379.456,-141.83 392.514,-143.223"/>
<polygon fill="midnightblue" stroke="midnightblue" points="392.476,-146.739 402.791,-144.32 393.219,-139.779 392.476,-146.739"/>
</g>
<!-- Node27 -->
<g id="node27" class="node"><title>Node27</title>
<g id="a_node27"><a xlink:href="../../d3/dbe/classview_1_1_view.html#a6950e4055440ab5672a2453b149f41d0" target="_top" xlink:title="view.View.getInstance">
<polygon fill="white" stroke="black" points="397.5,-102.5 397.5,-121.5 516.5,-121.5 516.5,-102.5 397.5,-102.5"/>
<text text-anchor="middle" x="457" y="-109.5" font-family="Helvetica,sans-Serif" font-size="10.00">view.View.getInstance</text>
</a>
</g>
</g>
<!-- Node2&#45;&gt;Node27 -->
<g id="edge29" class="edge"><title>Node2&#45;&gt;Node27</title>
<path fill="none" stroke="midnightblue" d="M352.199,-123.08C363.856,-121.836 375.862,-120.554 387.386,-119.324"/>
<polygon fill="midnightblue" stroke="midnightblue" points="387.796,-122.8 397.368,-118.258 387.053,-115.84 387.796,-122.8"/>
</g>
<!-- Node28 -->
<g id="node28" class="node"><title>Node28</title>
<g id="a_node28"><a xlink:href="../../d3/dbe/classview_1_1_view.html#a4a0ca8adc68660017e319de54dedcb83" target="_top" xlink:title="view.View.showDialog">
<polygon fill="white" stroke="black" points="398.5,-61.5 398.5,-80.5 515.5,-80.5 515.5,-61.5 398.5,-61.5"/>
<text text-anchor="middle" x="457" y="-68.5" font-family="Helvetica,sans-Serif" font-size="10.00">view.View.showDialog</text>
</a>
</g>
</g>
<!-- Node2&#45;&gt;Node28 -->
<g id="edge30" class="edge"><title>Node2&#45;&gt;Node28</title>
<path fill="none" stroke="midnightblue" d="M321.032,-115.914C341.316,-108.86 365.869,-100.402 388,-93 397.258,-89.9037 407.247,-86.6328 416.645,-83.587"/>
<polygon fill="midnightblue" stroke="midnightblue" points="417.728,-86.9153 426.168,-80.5112 415.576,-80.2541 417.728,-86.9153"/>
</g>
<!-- Node4 -->
<g id="node4" class="node"><title>Node4</title>
<g id="a_node4"><a xlink:href="../../d3/d42/classmodel_1_1_model.html#af870d64d87a18f6cd1a84a77ff6dc3a1" target="_top" xlink:title="model.Model.Model">
<polygon fill="white" stroke="black" points="604,-295.5 604,-314.5 714,-314.5 714,-295.5 604,-295.5"/>
<text text-anchor="middle" x="659" y="-302.5" font-family="Helvetica,sans-Serif" font-size="10.00">model.Model.Model</text>
</a>
</g>
</g>
<!-- Node3&#45;&gt;Node4 -->
<g id="edge3" class="edge"><title>Node3&#45;&gt;Node4</title>
<path fill="none" stroke="midnightblue" d="M483.33,-238.625C518.795,-252.102 583.373,-276.642 623.291,-291.811"/>
<polygon fill="midnightblue" stroke="midnightblue" points="622.284,-295.172 632.876,-295.453 624.771,-288.629 622.284,-295.172"/>
</g>
<!-- Node5 -->
<g id="node5" class="node"><title>Node5</title>
<g id="a_node5"><a xlink:href="../../d3/d42/classmodel_1_1_model.html#a068261e6e8761ccabf6d227ee17732ea" target="_top" xlink:title="model.Model.setState">
<polygon fill="white" stroke="black" points="831,-345.5 831,-364.5 953,-364.5 953,-345.5 831,-345.5"/>
<text text-anchor="middle" x="892" y="-352.5" font-family="Helvetica,sans-Serif" font-size="10.00">model.Model.setState</text>
</a>
</g>
</g>
<!-- Node4&#45;&gt;Node5 -->
<g id="edge4" class="edge"><title>Node4&#45;&gt;Node5</title>
<path fill="none" stroke="midnightblue" d="M703.993,-314.522C741.765,-322.698 796.358,-334.515 836.815,-343.272"/>
<polygon fill="midnightblue" stroke="midnightblue" points="836.264,-346.733 846.778,-345.428 837.745,-339.892 836.264,-346.733"/>
</g>
<!-- Node6 -->
<g id="node6" class="node"><title>Node6</title>
<g id="a_node6"><a xlink:href="../../d4/d3a/classparser_1_1parser_1_1_parser.html#a6e5a4c214fd0af163bdf2f1f5ad84505" target="_top" xlink:title="parser.parser.Parser.set\lActiveState">
<polygon fill="white" stroke="black" points="1064,-342 1064,-372 1194,-372 1194,-342 1064,-342"/>
<text text-anchor="start" x="1072" y="-360" font-family="Helvetica,sans-Serif" font-size="10.00">parser.parser.Parser.set</text>
<text text-anchor="middle" x="1129" y="-349" font-family="Helvetica,sans-Serif" font-size="10.00">ActiveState</text>
</a>
</g>
</g>
<!-- Node5&#45;&gt;Node6 -->
<g id="edge5" class="edge"><title>Node5&#45;&gt;Node6</title>
<path fill="none" stroke="midnightblue" d="M953.213,-355.512C983.768,-355.772 1021.17,-356.091 1053.52,-356.366"/>
<polygon fill="midnightblue" stroke="midnightblue" points="1053.8,-359.869 1063.83,-356.454 1053.86,-352.869 1053.8,-359.869"/>
</g>
<!-- Node8 -->
<g id="node8" class="node"><title>Node8</title>
<g id="a_node8"><a xlink:href="../../db/df9/classmodel_1_1_command_history.html#a435edf344accb9115ca6183eb28594df" target="_top" xlink:title="model.CommandHistory.add\lCommand">
<polygon fill="white" stroke="black" points="582.5,-115 582.5,-145 735.5,-145 735.5,-115 582.5,-115"/>
<text text-anchor="start" x="590.5" y="-133" font-family="Helvetica,sans-Serif" font-size="10.00">model.CommandHistory.add</text>
<text text-anchor="middle" x="659" y="-122" font-family="Helvetica,sans-Serif" font-size="10.00">Command</text>
</a>
</g>
</g>
<!-- Node7&#45;&gt;Node8 -->
<g id="edge7" class="edge"><title>Node7&#45;&gt;Node8</title>
<path fill="none" stroke="midnightblue" d="M511.071,-144.693C529.867,-142.813 551.524,-140.648 572.335,-138.566"/>
<polygon fill="midnightblue" stroke="midnightblue" points="572.866,-142.031 582.468,-137.553 572.169,-135.066 572.866,-142.031"/>
</g>
<!-- Node10 -->
<g id="node10" class="node"><title>Node10</title>
<g id="a_node10"><a xlink:href="../../d1/d4b/classparser_1_1nodes_1_1_command_root.html#ad17f6840005e54b498a8857f161cd6b1" target="_top" xlink:title="parser.nodes.CommandRoot.execute">
<polygon fill="white" stroke="black" points="562,-76.5 562,-95.5 756,-95.5 756,-76.5 562,-76.5"/>
<text text-anchor="middle" x="659" y="-83.5" font-family="Helvetica,sans-Serif" font-size="10.00">parser.nodes.CommandRoot.execute</text>
</a>
</g>
</g>
<!-- Node7&#45;&gt;Node10 -->
<g id="edge9" class="edge"><title>Node7&#45;&gt;Node10</title>
<path fill="none" stroke="midnightblue" d="M500.926,-140.492C509.438,-137.921 518.16,-134.777 526,-131 543.781,-122.434 543.903,-112.875 562,-105 567.879,-102.442 574.11,-100.225 580.462,-98.3047"/>
<polygon fill="midnightblue" stroke="midnightblue" points="581.807,-101.564 590.511,-95.5241 579.94,-94.8178 581.807,-101.564"/>
</g>
<!-- Node13 -->
<g id="node13" class="node"><title>Node13</title>
<g id="a_node13"><a xlink:href="../../d7/dab/classmodel_1_1_state.html#a494a9cb26df072d500f0b6fa941c2779" target="_top" xlink:title="model.State.getCommandHistory">
<polygon fill="white" stroke="black" points="569.5,-202.5 569.5,-221.5 748.5,-221.5 748.5,-202.5 569.5,-202.5"/>
<text text-anchor="middle" x="659" y="-209.5" font-family="Helvetica,sans-Serif" font-size="10.00">model.State.getCommandHistory</text>
</a>
</g>
</g>
<!-- Node7&#45;&gt;Node13 -->
<g id="edge13" class="edge"><title>Node7&#45;&gt;Node13</title>
<path fill="none" stroke="midnightblue" d="M477.897,-159.607C498.519,-169.233 531.891,-183.893 562,-193 571.052,-195.738 580.707,-198.184 590.274,-200.335"/>
<polygon fill="midnightblue" stroke="midnightblue" points="589.67,-203.785 600.182,-202.469 591.144,-196.942 589.67,-203.785"/>
</g>
<!-- Node14 -->
<g id="node14" class="node"><title>Node14</title>
<g id="a_node14"><a xlink:href="../../d4/d3a/classparser_1_1parser_1_1_parser.html#a51f4baa200eb0c94b804119b1439a1aa" target="_top" xlink:title="parser.parser.Parser.parse">
<polygon fill="white" stroke="black" points="588,-164.5 588,-183.5 730,-183.5 730,-164.5 588,-164.5"/>
<text text-anchor="middle" x="659" y="-171.5" font-family="Helvetica,sans-Serif" font-size="10.00">parser.parser.Parser.parse</text>
</a>
</g>
</g>
<!-- Node7&#45;&gt;Node14 -->
<g id="edge14" class="edge"><title>Node7&#45;&gt;Node14</title>
<path fill="none" stroke="midnightblue" d="M511.071,-156.369C531.443,-158.813 555.176,-161.661 577.55,-164.346"/>
<polygon fill="midnightblue" stroke="midnightblue" points="577.371,-167.85 587.717,-165.566 578.205,-160.899 577.371,-167.85"/>
</g>
<!-- Node9 -->
<g id="node9" class="node"><title>Node9</title>
<g id="a_node9"><a xlink:href="../../db/df9/classmodel_1_1_command_history.html#ac471d294d4221291007a86a8764a644d" target="_top" xlink:title="model.CommandHistory.notify\lObservers">
<polygon fill="white" stroke="black" points="811.5,-49 811.5,-79 972.5,-79 972.5,-49 811.5,-49"/>
<text text-anchor="start" x="819.5" y="-67" font-family="Helvetica,sans-Serif" font-size="10.00">model.CommandHistory.notify</text>
<text text-anchor="middle" x="892" y="-56" font-family="Helvetica,sans-Serif" font-size="10.00">Observers</text>
</a>
</g>
</g>
<!-- Node8&#45;&gt;Node9 -->
<g id="edge8" class="edge"><title>Node8&#45;&gt;Node9</title>
<path fill="none" stroke="midnightblue" d="M719.253,-114.984C731.432,-111.781 744.151,-108.352 756,-105 772.099,-100.446 775.994,-98.8704 792,-94 804.802,-90.1046 818.537,-85.9354 831.58,-81.9818"/>
<polygon fill="midnightblue" stroke="midnightblue" points="832.836,-85.2585 841.391,-79.0086 830.805,-78.5593 832.836,-85.2585"/>
</g>
<!-- Node11 -->
<g id="node11" class="node"><title>Node11</title>
<g id="a_node11"><a xlink:href="../../d4/d1c/classparser_1_1nodes_1_1_list_node.html#a8f67ed3b41ee000feaf89f783def5697" target="_top" xlink:title="parser.nodes.ListNode.execute\lNodes">
<polygon fill="white" stroke="black" points="809.5,-0 809.5,-30 974.5,-30 974.5,-0 809.5,-0"/>
<text text-anchor="start" x="817.5" y="-18" font-family="Helvetica,sans-Serif" font-size="10.00">parser.nodes.ListNode.execute</text>
<text text-anchor="middle" x="892" y="-7" font-family="Helvetica,sans-Serif" font-size="10.00">Nodes</text>
</a>
</g>
</g>
<!-- Node10&#45;&gt;Node11 -->
<g id="edge10" class="edge"><title>Node10&#45;&gt;Node11</title>
<path fill="none" stroke="midnightblue" d="M728.635,-76.4974C738.051,-74.0264 747.422,-70.9156 756,-67 774.44,-58.583 773.743,-47.8064 792,-39 796.098,-37.0233 800.372,-35.2015 804.746,-33.5234"/>
<polygon fill="midnightblue" stroke="midnightblue" points="806.198,-36.7217 814.449,-30.0751 803.854,-30.1258 806.198,-36.7217"/>
</g>
<!-- Node12 -->
<g id="node12" class="node"><title>Node12</title>
<g id="a_node12"><a xlink:href="../../d4/d1c/classparser_1_1nodes_1_1_list_node.html#a82a3418e343a5d6ed112be4b7b2b0282" target="_top" xlink:title="parser.nodes.ListNode.execute">
<polygon fill="white" stroke="black" points="1046.5,-5.5 1046.5,-24.5 1211.5,-24.5 1211.5,-5.5 1046.5,-5.5"/>
<text text-anchor="middle" x="1129" y="-12.5" font-family="Helvetica,sans-Serif" font-size="10.00">parser.nodes.ListNode.execute</text>
</a>
</g>
</g>
<!-- Node11&#45;&gt;Node12 -->
<g id="edge11" class="edge"><title>Node11&#45;&gt;Node12</title>
<path fill="none" stroke="midnightblue" d="M974.532,-8.53932C994.378,-8.21051 1015.74,-8.16197 1036.03,-8.39369"/>
<polygon fill="midnightblue" stroke="midnightblue" points="1036.17,-11.8958 1046.21,-8.53513 1036.26,-4.89647 1036.17,-11.8958"/>
</g>
<!-- Node12&#45;&gt;Node11 -->
<g id="edge12" class="edge"><title>Node12&#45;&gt;Node11</title>
<path fill="none" stroke="midnightblue" d="M1046.21,-21.4649C1026.36,-21.7913 1004.99,-21.8374 984.708,-21.6033"/>
<polygon fill="midnightblue" stroke="midnightblue" points="984.58,-18.1013 974.532,-21.4607 984.482,-25.1006 984.58,-18.1013"/>
</g>
<!-- Node15 -->
<g id="node15" class="node"><title>Node15</title>
<g id="a_node15"><a xlink:href="../../d2/d66/classparser_1_1parser_1_1_command_factory.html#a0dc44bc9972a4652d98146b5e30a5e72" target="_top" xlink:title="parser.parser.CommandFactory.create\lCommand">
<polygon fill="white" stroke="black" points="792,-137 792,-167 992,-167 992,-137 792,-137"/>
<text text-anchor="start" x="800" y="-155" font-family="Helvetica,sans-Serif" font-size="10.00">parser.parser.CommandFactory.create</text>
<text text-anchor="middle" x="892" y="-144" font-family="Helvetica,sans-Serif" font-size="10.00">Command</text>
</a>
</g>
</g>
<!-- Node14&#45;&gt;Node15 -->
<g id="edge15" class="edge"><title>Node14&#45;&gt;Node15</title>
<path fill="none" stroke="midnightblue" d="M730.248,-167.31C746.449,-165.767 764.06,-164.09 781.488,-162.43"/>
<polygon fill="midnightblue" stroke="midnightblue" points="782.094,-165.888 791.717,-161.456 781.43,-158.919 782.094,-165.888"/>
</g>
<!-- Node18 -->
<g id="node18" class="node"><title>Node18</title>
<g id="a_node18"><a xlink:href="../../de/d16/classparser_1_1parser_1_1_regex.html#a9da6d787de06ba7ea76d52326b532bd1" target="_top" xlink:title="parser.parser.Regex.getInstance">
<polygon fill="white" stroke="black" points="1044,-91.5 1044,-110.5 1214,-110.5 1214,-91.5 1044,-91.5"/>
<text text-anchor="middle" x="1129" y="-98.5" font-family="Helvetica,sans-Serif" font-size="10.00">parser.parser.Regex.getInstance</text>
</a>
</g>
</g>
<!-- Node14&#45;&gt;Node18 -->
<g id="edge25" class="edge"><title>Node14&#45;&gt;Node18</title>
<path fill="none" stroke="midnightblue" d="M725.264,-164.44C735.791,-161.761 746.381,-158.347 756,-154 774.225,-145.764 773.285,-134.052 792,-127 869.753,-97.7012 964.642,-92.9079 1033.73,-94.448"/>
<polygon fill="midnightblue" stroke="midnightblue" points="1033.64,-97.9467 1043.73,-94.719 1033.83,-90.9493 1033.64,-97.9467"/>
</g>
<!-- Node21 -->
<g id="node21" class="node"><title>Node21</title>
<g id="a_node21"><a xlink:href="../../d2/d66/classparser_1_1parser_1_1_command_factory.html#a2c91b8ed8cbfcb588f6e32f7363eefd9" target="_top" xlink:title="parser.parser.CommandFactory.get\lInstance">
<polygon fill="white" stroke="black" points="799.5,-293 799.5,-323 984.5,-323 984.5,-293 799.5,-293"/>
<text text-anchor="start" x="807.5" y="-311" font-family="Helvetica,sans-Serif" font-size="10.00">parser.parser.CommandFactory.get</text>
<text text-anchor="middle" x="892" y="-300" font-family="Helvetica,sans-Serif" font-size="10.00">Instance</text>
</a>
</g>
</g>
<!-- Node14&#45;&gt;Node21 -->
<g id="edge21" class="edge"><title>Node14&#45;&gt;Node21</title>
<path fill="none" stroke="midnightblue" d="M730.198,-179.546C739.54,-182.583 748.474,-186.906 756,-193 787.566,-218.56 761.86,-249.772 792,-277 796.824,-281.358 802.255,-285.103 808.027,-288.322"/>
<polygon fill="midnightblue" stroke="midnightblue" points="806.828,-291.634 817.339,-292.959 809.948,-285.368 806.828,-291.634"/>
</g>
<!-- Node23 -->
<g id="node23" class="node"><title>Node23</title>
<g id="a_node23"><a xlink:href="../../dc/d09/classparser_1_1parser_1_1_to_factory.html#ac5256eea6647641f83b40c5a350a1518" target="_top" xlink:title="parser.parser.ToFactory.get\lInstance">
<polygon fill="white" stroke="black" points="820,-238 820,-268 964,-268 964,-238 820,-238"/>
<text text-anchor="start" x="828" y="-256" font-family="Helvetica,sans-Serif" font-size="10.00">parser.parser.ToFactory.get</text>
<text text-anchor="middle" x="892" y="-245" font-family="Helvetica,sans-Serif" font-size="10.00">Instance</text>
</a>
</g>
</g>
<!-- Node14&#45;&gt;Node23 -->
<g id="edge23" class="edge"><title>Node14&#45;&gt;Node23</title>
<path fill="none" stroke="midnightblue" d="M724.672,-183.541C735.323,-186.033 746.107,-189.141 756,-193 773.469,-199.815 775.177,-206.717 792,-215 806.226,-222.005 822.087,-228.597 836.871,-234.263"/>
<polygon fill="midnightblue" stroke="midnightblue" points="835.811,-237.603 846.403,-237.846 838.274,-231.051 835.811,-237.603"/>
</g>
<!-- Node25 -->
<g id="node25" class="node"><title>Node25</title>
<g id="a_node25"><a xlink:href="../../de/d16/classparser_1_1parser_1_1_regex.html#a5d526d752521b953619721c6d3e930bd" target="_top" xlink:title="parser.parser.Regex.getType">
<polygon fill="white" stroke="black" points="816.5,-186.5 816.5,-205.5 967.5,-205.5 967.5,-186.5 816.5,-186.5"/>
<text text-anchor="middle" x="892" y="-193.5" font-family="Helvetica,sans-Serif" font-size="10.00">parser.parser.Regex.getType</text>
</a>
</g>
</g>
<!-- Node14&#45;&gt;Node25 -->
<g id="edge26" class="edge"><title>Node14&#45;&gt;Node25</title>
<path fill="none" stroke="midnightblue" d="M730.248,-180.69C754.165,-182.968 781.155,-185.539 806.095,-187.914"/>
<polygon fill="midnightblue" stroke="midnightblue" points="805.986,-191.419 816.273,-188.883 806.65,-184.451 805.986,-191.419"/>
</g>
<!-- Node16 -->
<g id="node16" class="node"><title>Node16</title>
<g id="a_node16"><a xlink:href="../../de/d16/classparser_1_1parser_1_1_regex.html#aa4a03f1544e5043ea8da8f12ab4ece23" target="_top" xlink:title="parser.parser.Regex.getCommandType">
<polygon fill="white" stroke="black" points="1028.5,-129.5 1028.5,-148.5 1229.5,-148.5 1229.5,-129.5 1028.5,-129.5"/>
<text text-anchor="middle" x="1129" y="-136.5" font-family="Helvetica,sans-Serif" font-size="10.00">parser.parser.Regex.getCommandType</text>
</a>
</g>
</g>
<!-- Node15&#45;&gt;Node16 -->
<g id="edge16" class="edge"><title>Node15&#45;&gt;Node16</title>
<path fill="none" stroke="midnightblue" d="M992.321,-146.506C1000.87,-146.033 1009.56,-145.552 1018.19,-145.075"/>
<polygon fill="midnightblue" stroke="midnightblue" points="1018.49,-148.563 1028.28,-144.516 1018.1,-141.574 1018.49,-148.563"/>
</g>
<!-- Node15&#45;&gt;Node18 -->
<g id="edge18" class="edge"><title>Node15&#45;&gt;Node18</title>
<path fill="none" stroke="midnightblue" d="M954.024,-136.921C977.144,-131.369 1003.74,-125.178 1028,-120 1040.14,-117.41 1053.14,-114.811 1065.62,-112.403"/>
<polygon fill="midnightblue" stroke="midnightblue" points="1066.33,-115.832 1075.49,-110.517 1065.01,-108.956 1066.33,-115.832"/>
</g>
<!-- Node17 -->
<g id="node17" class="node"><title>Node17</title>
<g id="a_node17"><a xlink:href="../../de/d16/classparser_1_1parser_1_1_regex.html#a162d120a60bdb10238c3d31c4f5f6903" target="_top" xlink:title="parser.parser.Regex.match">
<polygon fill="white" stroke="black" points="1266.5,-167.5 1266.5,-186.5 1411.5,-186.5 1411.5,-167.5 1266.5,-167.5"/>
<text text-anchor="middle" x="1339" y="-174.5" font-family="Helvetica,sans-Serif" font-size="10.00">parser.parser.Regex.match</text>
</a>
</g>
</g>
<!-- Node16&#45;&gt;Node17 -->
<g id="edge17" class="edge"><title>Node16&#45;&gt;Node17</title>
<path fill="none" stroke="midnightblue" d="M1182.22,-148.54C1210.65,-153.735 1246.02,-160.196 1275.87,-165.649"/>
<polygon fill="midnightblue" stroke="midnightblue" points="1275.29,-169.102 1285.76,-167.456 1276.55,-162.216 1275.29,-169.102"/>
</g>
<!-- Node19 -->
<g id="node19" class="node"><title>Node19</title>
<g id="a_node19"><a xlink:href="../../de/d16/classparser_1_1parser_1_1_regex.html#a1fd187b9f2b45d0707cb10057e80d7ff" target="_top" xlink:title="parser.parser.Regex.Regex">
<polygon fill="white" stroke="black" points="1267.5,-91.5 1267.5,-110.5 1410.5,-110.5 1410.5,-91.5 1267.5,-91.5"/>
<text text-anchor="middle" x="1339" y="-98.5" font-family="Helvetica,sans-Serif" font-size="10.00">parser.parser.Regex.Regex</text>
</a>
</g>
</g>
<!-- Node18&#45;&gt;Node19 -->
<g id="edge19" class="edge"><title>Node18&#45;&gt;Node19</title>
<path fill="none" stroke="midnightblue" d="M1214,-101C1228.25,-101 1243.01,-101 1257.17,-101"/>
<polygon fill="midnightblue" stroke="midnightblue" points="1257.36,-104.5 1267.36,-101 1257.36,-97.5001 1257.36,-104.5"/>
</g>
<!-- Node20 -->
<g id="node20" class="node"><title>Node20</title>
<g id="a_node20"><a xlink:href="../../de/d16/classparser_1_1parser_1_1_regex.html#a413da3364c9c07a315222d34d7f0fc56" target="_top" xlink:title="parser.parser.Regex.make\lPatterns">
<polygon fill="white" stroke="black" points="1448.5,-86 1448.5,-116 1589.5,-116 1589.5,-86 1448.5,-86"/>
<text text-anchor="start" x="1456.5" y="-104" font-family="Helvetica,sans-Serif" font-size="10.00">parser.parser.Regex.make</text>
<text text-anchor="middle" x="1519" y="-93" font-family="Helvetica,sans-Serif" font-size="10.00">Patterns</text>
</a>
</g>
</g>
<!-- Node19&#45;&gt;Node20 -->
<g id="edge20" class="edge"><title>Node19&#45;&gt;Node20</title>
<path fill="none" stroke="midnightblue" d="M1410.61,-101C1419.63,-101 1428.92,-101 1438.08,-101"/>
<polygon fill="midnightblue" stroke="midnightblue" points="1438.35,-104.5 1448.35,-101 1438.35,-97.5001 1438.35,-104.5"/>
</g>
<!-- Node22 -->
<g id="node22" class="node"><title>Node22</title>
<g id="a_node22"><a xlink:href="../../d2/d66/classparser_1_1parser_1_1_command_factory.html#ac81b65f58a35eb24a9f92303cf7f491e" target="_top" xlink:title="parser.parser.CommandFactory.\lCommandFactory">
<polygon fill="white" stroke="black" points="1044.5,-293 1044.5,-323 1213.5,-323 1213.5,-293 1044.5,-293"/>
<text text-anchor="start" x="1052.5" y="-311" font-family="Helvetica,sans-Serif" font-size="10.00">parser.parser.CommandFactory.</text>
<text text-anchor="middle" x="1129" y="-300" font-family="Helvetica,sans-Serif" font-size="10.00">CommandFactory</text>
</a>
</g>
</g>
<!-- Node21&#45;&gt;Node22 -->
<g id="edge22" class="edge"><title>Node21&#45;&gt;Node22</title>
<path fill="none" stroke="midnightblue" d="M984.53,-308C1000.86,-308 1017.89,-308 1034.28,-308"/>
<polygon fill="midnightblue" stroke="midnightblue" points="1034.39,-311.5 1044.39,-308 1034.39,-304.5 1034.39,-311.5"/>
</g>
<!-- Node24 -->
<g id="node24" class="node"><title>Node24</title>
<g id="a_node24"><a xlink:href="../../dc/d09/classparser_1_1parser_1_1_to_factory.html#a432d9b50bd2cbb0a73da7fc68b25bd4c" target="_top" xlink:title="parser.parser.ToFactory.\lToFactory">
<polygon fill="white" stroke="black" points="1065,-244 1065,-274 1193,-274 1193,-244 1065,-244"/>
<text text-anchor="start" x="1073" y="-262" font-family="Helvetica,sans-Serif" font-size="10.00">parser.parser.ToFactory.</text>
<text text-anchor="middle" x="1129" y="-251" font-family="Helvetica,sans-Serif" font-size="10.00">ToFactory</text>
</a>
</g>
</g>
<!-- Node23&#45;&gt;Node24 -->
<g id="edge24" class="edge"><title>Node23&#45;&gt;Node24</title>
<path fill="none" stroke="midnightblue" d="M964.145,-254.816C992.785,-255.548 1025.8,-256.391 1054.66,-257.127"/>
<polygon fill="midnightblue" stroke="midnightblue" points="1054.59,-260.627 1064.68,-257.383 1054.77,-253.629 1054.59,-260.627"/>
</g>
<!-- Node25&#45;&gt;Node17 -->
<g id="edge28" class="edge"><title>Node25&#45;&gt;Node17</title>
<path fill="none" stroke="midnightblue" d="M967.785,-199.719C1036.18,-202.239 1140.09,-203.848 1230,-196 1247.76,-194.45 1266.97,-191.492 1284.2,-188.364"/>
<polygon fill="midnightblue" stroke="midnightblue" points="1284.91,-191.793 1294.09,-186.512 1283.62,-184.913 1284.91,-191.793"/>
</g>
<!-- Node26 -->
<g id="node26" class="node"><title>Node26</title>
<g id="a_node26"><a xlink:href="../../d7/dda/enumparser_1_1parser_1_1_general_type.html#af35aa06f434667ca22f66abcc181eb30" target="_top" xlink:title="parser.parser.GeneralType.findType">
<polygon fill="white" stroke="black" points="1038,-167.5 1038,-186.5 1220,-186.5 1220,-167.5 1038,-167.5"/>
<text text-anchor="middle" x="1129" y="-174.5" font-family="Helvetica,sans-Serif" font-size="10.00">parser.parser.GeneralType.findType</text>
</a>
</g>
</g>
<!-- Node25&#45;&gt;Node26 -->
<g id="edge27" class="edge"><title>Node25&#45;&gt;Node26</title>
<path fill="none" stroke="midnightblue" d="M967.678,-189.962C986.764,-188.419 1007.6,-186.735 1027.74,-185.106"/>
<polygon fill="midnightblue" stroke="midnightblue" points="1028.19,-188.581 1037.87,-184.287 1027.62,-181.604 1028.19,-188.581"/>
</g>
<!-- Node29 -->
<g id="node29" class="node"><title>Node29</title>
<g id="a_node29"><a xlink:href="../../d2/d9f/classview_1_1dialogs_1_1_dialog_box.html#a4553f61aafc3f1113c85ac09fa8e8d0f" target="_top" xlink:title="view.dialogs.DialogBox.show">
<polygon fill="white" stroke="black" points="583.5,-38.5 583.5,-57.5 734.5,-57.5 734.5,-38.5 583.5,-38.5"/>
<text text-anchor="middle" x="659" y="-45.5" font-family="Helvetica,sans-Serif" font-size="10.00">view.dialogs.DialogBox.show</text>
</a>
</g>
</g>
<!-- Node28&#45;&gt;Node29 -->
<g id="edge31" class="edge"><title>Node28&#45;&gt;Node29</title>
<path fill="none" stroke="midnightblue" d="M515.58,-64.3783C533.563,-62.3102 553.793,-59.9838 573.236,-57.7478"/>
<polygon fill="midnightblue" stroke="midnightblue" points="573.781,-61.2083 583.316,-56.5887 572.981,-54.2542 573.781,-61.2083"/>
</g>
</g>
</svg>
