<?xml version="1.0" encoding="UTF-8" standalone="no"?>
<!DOCTYPE svg PUBLIC "-//W3C//DTD SVG 1.1//EN"
 "http://www.w3.org/Graphics/SVG/1.1/DTD/svg11.dtd">
<!-- Generated by graphviz version 2.36.0 (20140111.2315)
 -->
<!-- Title: view.components.SLogoMenuBar Pages: 1 -->
<!--zoomable 395 -->
<svg id="main" version="1.1" xmlns="http://www.w3.org/2000/svg" xmlns:xlink="http://www.w3.org/1999/xlink" xml:space="preserve" onload="init(evt)">
<style type="text/css"><![CDATA[
.edge:hover path { stroke: red; }
.edge:hover polygon { stroke: red; fill: red; }
]]></style>
<script type="text/javascript"><![CDATA[
var edges = document.getElementsByTagName('g');
if (edges && edges.length) {
  for (var i=0;i<edges.length;i++) {
    if (edges[i].id.substr(0,4)=='edge') {
      edges[i].setAttribute('class','edge');
    }
  }
}
]]></script>
        <defs>
                <circle id="rim" cx="0" cy="0" r="7"/>
                <circle id="rim2" cx="0" cy="0" r="3.5"/>
                <g id="zoomPlus">
                        <use xlink:href="#rim" fill="#404040">
                                <set attributeName="fill" to="#808080" begin="zoomplus.mouseover" end="zoomplus.mouseout"/>
                        </use>
                        <path d="M-4,0h8M0,-4v8" fill="none" stroke="white" stroke-width="1.5" pointer-events="none"/>
                </g>
                <g id="zoomMin">
                        <use xlink:href="#rim" fill="#404040">
                                <set attributeName="fill" to="#808080" begin="zoomminus.mouseover" end="zoomminus.mouseout"/>
                        </use>
                        <path d="M-4,0h8" fill="none" stroke="white" stroke-width="1.5" pointer-events="none"/>
                </g>
                <g id="dirArrow">
                        <path fill="none" stroke="white" stroke-width="1.5" d="M0,-3.0v7 M-2.5,-0.5L0,-3.0L2.5,-0.5"/>
                </g>
               <g id="resetDef">
                       <use xlink:href="#rim2" fill="#404040">
                               <set attributeName="fill" to="#808080" begin="reset.mouseover" end="reset.mouseout"/>
                       </use>
               </g>
        </defs>

<script type="text/javascript">
var viewWidth = 1388;
var viewHeight = 395;
var sectionId = 'dynsection-1';
</script>
<script xlink:href="../../svgpan.js"/>
<svg id="graph" class="graph">
<g id="viewport">
<title>view.components.SLogoMenuBar</title>
<polygon fill="white" stroke="none" points="-4,4 -4,-391.015 1384,-391.015 1384,4 -4,4"/>
<!-- Node1 -->
<g id="node1" class="node"><title>Node1</title>
<polygon fill="#bfbfbf" stroke="black" points="1016.5,-347.515 1016.5,-366.515 1191.5,-366.515 1191.5,-347.515 1016.5,-347.515"/>
<text text-anchor="middle" x="1104" y="-354.515" font-family="Helvetica,sans-Serif" font-size="10.00">view.components.SLogoMenuBar</text>
</g>
<!-- Node3 -->
<g id="node3" class="node"><title>Node3</title>
<g id="a_node3"><a xlink:href="../../d3/dbe/classview_1_1_view.html" target="_top" xlink:title="view.View">
<polygon fill="white" stroke="black" points="1318.5,-214.515 1318.5,-233.515 1379.5,-233.515 1379.5,-214.515 1318.5,-214.515"/>
<text text-anchor="middle" x="1349" y="-221.515" font-family="Helvetica,sans-Serif" font-size="10.00">view.View</text>
</a>
</g>
</g>
<!-- Node1&#45;&gt;Node3 -->
<g id="edge17" class="edge"><title>Node1&#45;&gt;Node3</title>
<path fill="none" stroke="#9a32cd" stroke-dasharray="5,2" d="M1170.27,-345.706C1224.86,-336.024 1294.69,-323.031 1300,-319.015 1328.88,-297.162 1341.68,-253.084 1346.09,-233.623"/>
<polygon fill="#9a32cd" stroke="#9a32cd" points="1169.51,-342.286 1160.27,-347.472 1170.72,-349.179 1169.51,-342.286"/>
<text text-anchor="middle" x="1255" y="-341.015" font-family="Helvetica,sans-Serif" font-size="10.00"> myMenuBar</text>
</g>
<!-- Node2 -->
<g id="node2" class="node"><title>Node2</title>
<polygon fill="white" stroke="#bfbfbf" points="778.5,-357.515 778.5,-376.515 837.5,-376.515 837.5,-357.515 778.5,-357.515"/>
<text text-anchor="middle" x="808" y="-364.515" font-family="Helvetica,sans-Serif" font-size="10.00">MenuBar</text>
</g>
<!-- Node2&#45;&gt;Node1 -->
<g id="edge1" class="edge"><title>Node2&#45;&gt;Node1</title>
<path fill="none" stroke="midnightblue" d="M847.979,-365.689C890.711,-364.236 960.622,-361.858 1016.45,-359.959"/>
<polygon fill="midnightblue" stroke="midnightblue" points="847.6,-362.2 837.725,-366.038 847.838,-369.196 847.6,-362.2"/>
</g>
<!-- Node3&#45;&gt;Node1 -->
<g id="edge2" class="edge"><title>Node3&#45;&gt;Node1</title>
<path fill="none" stroke="#9a32cd" stroke-dasharray="5,2" d="M1347.17,-243.876C1344.75,-273.34 1335.43,-327.852 1300,-353.015 1251.96,-387.131 1179.14,-376.718 1137.42,-366.548"/>
<polygon fill="#9a32cd" stroke="#9a32cd" points="1350.68,-243.794 1347.82,-233.594 1343.69,-243.355 1350.68,-243.794"/>
<text text-anchor="middle" x="1255" y="-379.015" font-family="Helvetica,sans-Serif" font-size="10.00"> myView</text>
</g>
<!-- Node3&#45;&gt;Node3 -->
<g id="edge18" class="edge"><title>Node3&#45;&gt;Node3</title>
<path fill="none" stroke="#9a32cd" stroke-dasharray="5,2" d="M1331.59,-243.415C1332.76,-248.33 1338.56,-252.015 1349,-252.015 1365.71,-252.015 1370.54,-242.58 1363.49,-233.772"/>
<polygon fill="#9a32cd" stroke="#9a32cd" points="1334.97,-244.357 1334.51,-233.772 1328.27,-242.33 1334.97,-244.357"/>
<text text-anchor="middle" x="1349" y="-255.015" font-family="Helvetica,sans-Serif" font-size="10.00"> instance</text>
</g>
<!-- Node4 -->
<g id="node4" class="node"><title>Node4</title>
<polygon fill="white" stroke="#bfbfbf" points="13.5,-217.515 13.5,-236.515 58.5,-236.515 58.5,-217.515 13.5,-217.515"/>
<text text-anchor="middle" x="36" y="-224.515" font-family="Helvetica,sans-Serif" font-size="10.00">Stage</text>
</g>
<!-- Node4&#45;&gt;Node3 -->
<g id="edge3" class="edge"><title>Node4&#45;&gt;Node3</title>
<path fill="none" stroke="#9a32cd" stroke-dasharray="5,2" d="M68.4992,-236.847C104.51,-247.199 165.408,-262.015 219,-262.015 219,-262.015 219,-262.015 1105,-262.015 1182.71,-262.015 1272.75,-242.809 1318.31,-231.705"/>
<polygon fill="#9a32cd" stroke="#9a32cd" points="69.1749,-233.397 58.5934,-233.93 67.1976,-240.112 69.1749,-233.397"/>
<text text-anchor="middle" x="643" y="-265.015" font-family="Helvetica,sans-Serif" font-size="10.00"> myStage</text>
</g>
<!-- Node8 -->
<g id="node8" class="node"><title>Node8</title>
<g id="a_node8"><a xlink:href="../../d2/d9f/classview_1_1dialogs_1_1_dialog_box.html" target="_top" xlink:title="view.dialogs.DialogBox">
<polygon fill="white" stroke="black" points="158,-138.515 158,-157.515 282,-157.515 282,-138.515 158,-138.515"/>
<text text-anchor="middle" x="220" y="-145.515" font-family="Helvetica,sans-Serif" font-size="10.00">view.dialogs.DialogBox</text>
</a>
</g>
</g>
<!-- Node4&#45;&gt;Node8 -->
<g id="edge8" class="edge"><title>Node4&#45;&gt;Node8</title>
<path fill="none" stroke="#9a32cd" stroke-dasharray="5,2" d="M67.8041,-213.644C104.407,-197.756 164.573,-171.64 196.868,-157.622"/>
<polygon fill="#9a32cd" stroke="#9a32cd" points="66.372,-210.45 58.5925,-217.642 69.1592,-216.871 66.372,-210.45"/>
<text text-anchor="middle" x="115" y="-206.015" font-family="Helvetica,sans-Serif" font-size="10.00"> myStage</text>
</g>
<!-- Node5 -->
<g id="node5" class="node"><title>Node5</title>
<g id="a_node5"><a xlink:href="../../d5/d77/classview_1_1dialogs_1_1_languages_dialog_box.html" target="_top" xlink:title="view.dialogs.LanguagesDialogBox">
<polygon fill="white" stroke="black" points="1016,-150.515 1016,-169.515 1192,-169.515 1192,-150.515 1016,-150.515"/>
<text text-anchor="middle" x="1104" y="-157.515" font-family="Helvetica,sans-Serif" font-size="10.00">view.dialogs.LanguagesDialogBox</text>
</a>
</g>
</g>
<!-- Node5&#45;&gt;Node3 -->
<g id="edge4" class="edge"><title>Node5&#45;&gt;Node3</title>
<path fill="none" stroke="#9a32cd" stroke-dasharray="5,2" d="M1187.86,-171.264C1223.05,-177.397 1264.14,-186.379 1300,-199.015 1311.34,-203.012 1323.34,-209.262 1332.51,-214.513"/>
<polygon fill="#9a32cd" stroke="#9a32cd" points="1188.06,-167.749 1177.62,-169.53 1186.89,-174.651 1188.06,-167.749"/>
<text text-anchor="middle" x="1255" y="-202.015" font-family="Helvetica,sans-Serif" font-size="10.00"> myLanguagesBox</text>
</g>
<!-- Node6 -->
<g id="node6" class="node"><title>Node6</title>
<g id="a_node6"><a xlink:href="../../d0/de5/classview_1_1dialogs_1_1_input_dialog_box.html" target="_top" xlink:title="view.dialogs.InputDialogBox">
<polygon fill="white" stroke="black" points="734,-100.515 734,-119.515 882,-119.515 882,-100.515 734,-100.515"/>
<text text-anchor="middle" x="808" y="-107.515" font-family="Helvetica,sans-Serif" font-size="10.00">view.dialogs.InputDialogBox</text>
</a>
</g>
</g>
<!-- Node6&#45;&gt;Node5 -->
<g id="edge5" class="edge"><title>Node6&#45;&gt;Node5</title>
<path fill="none" stroke="midnightblue" d="M875.052,-121.248C926.708,-130.033 997.742,-142.114 1046.72,-150.443"/>
<polygon fill="midnightblue" stroke="midnightblue" points="875.436,-117.764 864.991,-119.537 874.263,-124.665 875.436,-117.764"/>
</g>
<!-- Node7 -->
<g id="node7" class="node"><title>Node7</title>
<g id="a_node7"><a xlink:href="../../d2/dee/classview_1_1dialogs_1_1_message_dialog_box.html" target="_top" xlink:title="view.dialogs.MessageDialogBox">
<polygon fill="white" stroke="black" points="384.5,-100.515 384.5,-119.515 551.5,-119.515 551.5,-100.515 384.5,-100.515"/>
<text text-anchor="middle" x="468" y="-107.515" font-family="Helvetica,sans-Serif" font-size="10.00">view.dialogs.MessageDialogBox</text>
</a>
</g>
</g>
<!-- Node7&#45;&gt;Node6 -->
<g id="edge6" class="edge"><title>Node7&#45;&gt;Node6</title>
<path fill="none" stroke="midnightblue" d="M561.981,-110.015C616.129,-110.015 683.429,-110.015 733.788,-110.015"/>
<polygon fill="midnightblue" stroke="midnightblue" points="561.684,-106.515 551.684,-110.015 561.684,-113.515 561.684,-106.515"/>
</g>
<!-- Node8&#45;&gt;Node7 -->
<g id="edge7" class="edge"><title>Node8&#45;&gt;Node7</title>
<path fill="none" stroke="midnightblue" d="M292.028,-137.043C327.862,-131.508 370.907,-124.859 405.336,-119.54"/>
<polygon fill="midnightblue" stroke="midnightblue" points="291.474,-133.587 282.125,-138.573 292.542,-140.505 291.474,-133.587"/>
</g>
<!-- Node14 -->
<g id="node14" class="node"><title>Node14</title>
<g id="a_node14"><a xlink:href="../../dc/d6d/classview_1_1dialogs_1_1_help_dialog_box.html" target="_top" xlink:title="view.dialogs.HelpDialogBox">
<polygon fill="white" stroke="black" points="570,-201.515 570,-220.515 716,-220.515 716,-201.515 570,-201.515"/>
<text text-anchor="middle" x="643" y="-208.515" font-family="Helvetica,sans-Serif" font-size="10.00">view.dialogs.HelpDialogBox</text>
</a>
</g>
</g>
<!-- Node8&#45;&gt;Node14 -->
<g id="edge15" class="edge"><title>Node8&#45;&gt;Node14</title>
<path fill="none" stroke="midnightblue" d="M292.224,-158.673C372.368,-170.666 501.374,-189.971 578.296,-201.482"/>
<polygon fill="midnightblue" stroke="midnightblue" points="292.625,-155.194 282.217,-157.176 291.589,-162.117 292.625,-155.194"/>
</g>
<!-- Node9 -->
<g id="node9" class="node"><title>Node9</title>
<polygon fill="white" stroke="#bfbfbf" points="12.5,-73.5151 12.5,-92.5151 59.5,-92.5151 59.5,-73.5151 12.5,-73.5151"/>
<text text-anchor="middle" x="36" y="-80.5151" font-family="Helvetica,sans-Serif" font-size="10.00">Scene</text>
</g>
<!-- Node9&#45;&gt;Node3 -->
<g id="edge16" class="edge"><title>Node9&#45;&gt;Node3</title>
<path fill="none" stroke="#9a32cd" stroke-dasharray="5,2" d="M69.7148,-79.8448C106.119,-76.5954 166.708,-72.0151 219,-72.0151 219,-72.0151 219,-72.0151 644,-72.0151 889.479,-72.0151 952.196,-88.5397 1192,-141.015 1240.67,-151.664 1257.61,-144.853 1300,-171.015 1318.17,-182.228 1333.59,-202.299 1341.76,-214.263"/>
<polygon fill="#9a32cd" stroke="#9a32cd" points="69.3123,-76.3669 59.6723,-80.7625 69.9494,-83.3379 69.3123,-76.3669"/>
<text text-anchor="middle" x="643" y="-75.0151" font-family="Helvetica,sans-Serif" font-size="10.00"> myScene</text>
</g>
<!-- Node9&#45;&gt;Node8 -->
<g id="edge9" class="edge"><title>Node9&#45;&gt;Node8</title>
<path fill="none" stroke="#9a32cd" stroke-dasharray="5,2" d="M69.0254,-95.8046C93.3032,-105.35 127.568,-118.502 158,-129.015 167.331,-132.238 177.547,-135.517 186.904,-138.423"/>
<polygon fill="#9a32cd" stroke="#9a32cd" points="70.1821,-92.4984 59.5955,-92.0809 67.6111,-99.0091 70.1821,-92.4984"/>
<text text-anchor="middle" x="115" y="-124.015" font-family="Helvetica,sans-Serif" font-size="10.00"> myScene</text>
</g>
<!-- Node10 -->
<g id="node10" class="node"><title>Node10</title>
<polygon fill="white" stroke="#bfbfbf" points="0,-24.5151 0,-43.5151 72,-43.5151 72,-24.5151 0,-24.5151"/>
<text text-anchor="middle" x="36" y="-31.5151" font-family="Helvetica,sans-Serif" font-size="10.00">BorderPane</text>
</g>
<!-- Node10&#45;&gt;Node3 -->
<g id="edge21" class="edge"><title>Node10&#45;&gt;Node3</title>
<path fill="none" stroke="#9a32cd" stroke-dasharray="5,2" d="M81.9772,-25.5245C118.7,-19.3305 172.016,-12.0151 219,-12.0151 219,-12.0151 219,-12.0151 1105,-12.0151 1192.12,-12.0151 1234.16,25.0382 1300,-32.0151 1328.3,-56.541 1343.21,-178.527 1347.01,-214.201"/>
<polygon fill="#9a32cd" stroke="#9a32cd" points="81.3367,-22.0833 72.0786,-27.2348 82.5286,-28.9811 81.3367,-22.0833"/>
<text text-anchor="middle" x="643" y="-15.0151" font-family="Helvetica,sans-Serif" font-size="10.00"> myBorderPane</text>
</g>
<!-- Node10&#45;&gt;Node8 -->
<g id="edge10" class="edge"><title>Node10&#45;&gt;Node8</title>
<path fill="none" stroke="#9a32cd" stroke-dasharray="5,2" d="M74.5404,-47.4916C95.9536,-56.7342 122.023,-70.8188 140,-90.0151 153.049,-103.949 143.65,-116.425 158,-129.015 162.419,-132.892 167.623,-135.978 173.097,-138.435"/>
<polygon fill="#9a32cd" stroke="#9a32cd" points="75.6543,-44.165 65.0753,-43.5848 72.9834,-50.6355 75.6543,-44.165"/>
<text text-anchor="middle" x="115" y="-93.0151" font-family="Helvetica,sans-Serif" font-size="10.00"> myPane</text>
</g>
<!-- Node11 -->
<g id="node11" class="node"><title>Node11</title>
<polygon fill="white" stroke="#bfbfbf" points="197.5,-100.515 197.5,-119.515 242.5,-119.515 242.5,-100.515 197.5,-100.515"/>
<text text-anchor="middle" x="220" y="-107.515" font-family="Helvetica,sans-Serif" font-size="10.00">Insets</text>
</g>
<!-- Node11&#45;&gt;Node7 -->
<g id="edge11" class="edge"><title>Node11&#45;&gt;Node7</title>
<path fill="none" stroke="#9a32cd" stroke-dasharray="5,2" d="M252.841,-110.015C285.957,-110.015 339.167,-110.015 384.262,-110.015"/>
<polygon fill="#9a32cd" stroke="#9a32cd" points="252.831,-106.515 242.831,-110.015 252.831,-113.515 252.831,-106.515"/>
<text text-anchor="middle" x="333" y="-113.015" font-family="Helvetica,sans-Serif" font-size="10.00"> TEXT_INSETS</text>
</g>
<!-- Node12 -->
<g id="node12" class="node"><title>Node12</title>
<polygon fill="white" stroke="#bfbfbf" points="749,-176.515 749,-195.515 867,-195.515 867,-176.515 749,-176.515"/>
<text text-anchor="middle" x="808" y="-183.515" font-family="Helvetica,sans-Serif" font-size="10.00">ChoiceBox&lt; String &gt;</text>
</g>
<!-- Node12&#45;&gt;Node5 -->
<g id="edge12" class="edge"><title>Node12&#45;&gt;Node5</title>
<path fill="none" stroke="#9a32cd" stroke-dasharray="5,2" d="M877.305,-179.974C918.545,-176.327 971.504,-171.644 1015.76,-167.731"/>
<polygon fill="#9a32cd" stroke="#9a32cd" points="876.738,-176.511 867.085,-180.878 877.354,-183.484 876.738,-176.511"/>
<text text-anchor="middle" x="949" y="-180.015" font-family="Helvetica,sans-Serif" font-size="10.00"> langChoiceBox</text>
</g>
<!-- Node13 -->
<g id="node13" class="node"><title>Node13</title>
<polygon fill="white" stroke="#bfbfbf" points="766,-138.515 766,-157.515 850,-157.515 850,-138.515 766,-138.515"/>
<text text-anchor="middle" x="808" y="-145.515" font-family="Helvetica,sans-Serif" font-size="10.00">List&lt; String &gt;</text>
</g>
<!-- Node13&#45;&gt;Node5 -->
<g id="edge13" class="edge"><title>Node13&#45;&gt;Node5</title>
<path fill="none" stroke="#9a32cd" stroke-dasharray="5,2" d="M860.617,-148.822C898.621,-149.553 951.545,-150.853 998,-153.015 1003.84,-153.287 1009.86,-153.6 1015.93,-153.94"/>
<polygon fill="#9a32cd" stroke="#9a32cd" points="860.374,-145.317 850.311,-148.631 860.244,-152.316 860.374,-145.317"/>
<text text-anchor="middle" x="949" y="-156.015" font-family="Helvetica,sans-Serif" font-size="10.00"> availableLanguages</text>
</g>
<!-- Node14&#45;&gt;Node3 -->
<g id="edge14" class="edge"><title>Node14&#45;&gt;Node3</title>
<path fill="none" stroke="#9a32cd" stroke-dasharray="5,2" d="M726.078,-212.531C882.574,-215.421 1217.07,-221.597 1318.34,-223.467"/>
<polygon fill="#9a32cd" stroke="#9a32cd" points="726.095,-209.031 716.032,-212.345 725.966,-216.029 726.095,-209.031"/>
<text text-anchor="middle" x="949" y="-220.015" font-family="Helvetica,sans-Serif" font-size="10.00"> myHelpBox</text>
</g>
<!-- Node15 -->
<g id="node15" class="node"><title>Node15</title>
<polygon fill="white" stroke="#bfbfbf" points="1076,-40.5151 1076,-59.5151 1132,-59.5151 1132,-40.5151 1076,-40.5151"/>
<text text-anchor="middle" x="1104" y="-47.5151" font-family="Helvetica,sans-Serif" font-size="10.00">TabPane</text>
</g>
<!-- Node15&#45;&gt;Node3 -->
<g id="edge19" class="edge"><title>Node15&#45;&gt;Node3</title>
<path fill="none" stroke="#9a32cd" stroke-dasharray="5,2" d="M1142.04,-41.0447C1184.9,-33.004 1255.3,-27.3214 1300,-63.0151 1348.09,-101.416 1349.52,-185.888 1348.53,-214.399"/>
<polygon fill="#9a32cd" stroke="#9a32cd" points="1141.14,-37.6552 1132.03,-43.0599 1142.52,-44.5175 1141.14,-37.6552"/>
<text text-anchor="middle" x="1255" y="-66.0151" font-family="Helvetica,sans-Serif" font-size="10.00"> myTabPane</text>
</g>
<!-- Node16 -->
<g id="node16" class="node"><title>Node16</title>
<polygon fill="white" stroke="#bfbfbf" points="787.5,-309.515 787.5,-328.515 828.5,-328.515 828.5,-309.515 787.5,-309.515"/>
<text text-anchor="middle" x="808" y="-316.515" font-family="Helvetica,sans-Serif" font-size="10.00">Color</text>
</g>
<!-- Node16&#45;&gt;Node1 -->
<g id="edge22" class="edge"><title>Node16&#45;&gt;Node1</title>
<path fill="none" stroke="#9a32cd" stroke-dasharray="5,2" d="M838.864,-322.875C883.235,-328.61 967.941,-339.558 1029.5,-347.515"/>
<polygon fill="#9a32cd" stroke="#9a32cd" points="839.113,-319.378 828.747,-321.567 838.216,-326.32 839.113,-319.378"/>
<text text-anchor="middle" x="949" y="-345.015" font-family="Helvetica,sans-Serif" font-size="10.00"> BAR_COLOR</text>
</g>
<!-- Node16&#45;&gt;Node3 -->
<g id="edge20" class="edge"><title>Node16&#45;&gt;Node3</title>
<path fill="none" stroke="#9a32cd" stroke-dasharray="5,2" d="M838.896,-319.182C932.44,-319.276 1218.17,-316.188 1300,-276.015 1319.19,-266.594 1334.47,-245.957 1342.29,-233.703"/>
<polygon fill="#9a32cd" stroke="#9a32cd" points="838.722,-315.682 828.714,-319.158 838.705,-322.682 838.722,-315.682"/>
<text text-anchor="middle" x="1104" y="-318.015" font-family="Helvetica,sans-Serif" font-size="10.00"> BACKGROUND_COLOR</text>
</g>
</g>
</svg>
        <g id="navigator" transform="translate(0 0)" fill="#404254">
                <rect fill="#f2f5e9" fill-opacity="0.5" stroke="#606060" stroke-width=".5" x="0" y="0" width="60" height="60"/>
                <use id="zoomplus" xlink:href="#zoomPlus" x="17" y="9" onmousedown="handleZoom(evt,'in')"/>
                <use id="zoomminus" xlink:href="#zoomMin" x="42" y="9" onmousedown="handleZoom(evt,'out')"/>
                <use id="reset" xlink:href="#resetDef" x="30" y="36" onmousedown="handleReset()"/>
                <g id="arrowUp" xlink:href="#dirArrow" transform="translate(30 24)" onmousedown="handlePan(0,-1)">
                  <use xlink:href="#rim" fill="#404040">
                        <set attributeName="fill" to="#808080" begin="arrowUp.mouseover" end="arrowUp.mouseout"/>
                  </use>
                  <path fill="none" stroke="white" stroke-width="1.5" d="M0,-3.0v7 M-2.5,-0.5L0,-3.0L2.5,-0.5"/>
                </g>
                <g id="arrowRight" xlink:href="#dirArrow" transform="rotate(90) translate(36 -43)" onmousedown="handlePan(1,0)">
                  <use xlink:href="#rim" fill="#404040">
                        <set attributeName="fill" to="#808080" begin="arrowRight.mouseover" end="arrowRight.mouseout"/>
                  </use>
                  <path fill="none" stroke="white" stroke-width="1.5" d="M0,-3.0v7 M-2.5,-0.5L0,-3.0L2.5,-0.5"/>
                </g>
                <g id="arrowDown" xlink:href="#dirArrow" transform="rotate(180) translate(-30 -48)" onmousedown="handlePan(0,1)">
                  <use xlink:href="#rim" fill="#404040">
                        <set attributeName="fill" to="#808080" begin="arrowDown.mouseover" end="arrowDown.mouseout"/>
                  </use>
                  <path fill="none" stroke="white" stroke-width="1.5" d="M0,-3.0v7 M-2.5,-0.5L0,-3.0L2.5,-0.5"/>
                </g>
                <g id="arrowLeft" xlink:href="#dirArrow" transform="rotate(270) translate(-36 17)" onmousedown="handlePan(-1,0)">
                  <use xlink:href="#rim" fill="#404040">
                        <set attributeName="fill" to="#808080" begin="arrowLeft.mouseover" end="arrowLeft.mouseout"/>
                  </use>
                  <path fill="none" stroke="white" stroke-width="1.5" d="M0,-3.0v7 M-2.5,-0.5L0,-3.0L2.5,-0.5"/>
                </g>
        </g>
        <svg viewBox="0 0 15 15" width="100%" height="30px" preserveAspectRatio="xMaxYMin meet">
         <g id="arrow_out" transform="scale(0.3 0.3)">
          <a xlink:href="classview_1_1components_1_1_s_logo_menu_bar__coll__graph_org.svg" target="_base">
           <rect id="button" ry="5" rx="5" y="6" x="6" height="38" width="38"
                fill="#f2f5e9" fill-opacity="0.5" stroke="#606060" stroke-width="1.0"/>
           <path id="arrow"
             d="M 11.500037,31.436501 C 11.940474,20.09759 22.043105,11.32322 32.158766,21.979434 L 37.068811,17.246167 C 37.068811,17.246167 37.088388,32 37.088388,32 L 22.160133,31.978069 C 22.160133,31.978069 26.997745,27.140456 26.997745,27.140456 C 18.528582,18.264221 13.291696,25.230495 11.500037,31.436501 z"
             style="fill:#404040;"/>
          </a>
         </g>
        </svg>
</svg>
