<?xml version="1.0" encoding="UTF-8" standalone="no"?>
<!DOCTYPE svg PUBLIC "-//W3C//DTD SVG 1.1//EN"
 "http://www.w3.org/Graphics/SVG/1.1/DTD/svg11.dtd">
<!-- Generated by graphviz version 2.36.0 (20140111.2315)
 -->
<!-- Title: view.toolbar.AddTurtleToolbarItem.createNode Pages: 1 -->
<svg width="382pt" height="87pt"
 viewBox="0.00 0.00 382.00 87.00" xmlns="http://www.w3.org/2000/svg" xmlns:xlink="http://www.w3.org/1999/xlink">
<g id="graph0" class="graph" transform="scale(1 1) rotate(0) translate(4 83)">
<title>view.toolbar.AddTurtleToolbarItem.createNode</title>
<polygon fill="white" stroke="none" points="-4,4 -4,-83 378,-83 378,4 -4,4"/>
<!-- Node1 -->
<g id="node1" class="node"><title>Node1</title>
<polygon fill="#bfbfbf" stroke="black" points="0.5,-24 0.5,-54 153.5,-54 153.5,-24 0.5,-24"/>
<text text-anchor="start" x="8.5" y="-42" font-family="Helvetica,sans-Serif" font-size="10.00">view.toolbar.AddTurtleToolbar</text>
<text text-anchor="middle" x="77" y="-31" font-family="Helvetica,sans-Serif" font-size="10.00">Item.createNode</text>
</g>
<!-- Node2 -->
<g id="node2" class="node"><title>Node2</title>
<g id="a_node2"><a xlink:href="../../d5/d4b/classview_1_1components_1_1_turtle_window.html#a1a607039481873f2affd1fc050225ffb" target="_top" xlink:title="view.components.TurtleWindow.add\lTurtle">
<polygon fill="white" stroke="black" points="190.5,-49 190.5,-79 373.5,-79 373.5,-49 190.5,-49"/>
<text text-anchor="start" x="198.5" y="-67" font-family="Helvetica,sans-Serif" font-size="10.00">view.components.TurtleWindow.add</text>
<text text-anchor="middle" x="282" y="-56" font-family="Helvetica,sans-Serif" font-size="10.00">Turtle</text>
</a>
</g>
</g>
<!-- Node1&#45;&gt;Node2 -->
<g id="edge1" class="edge"><title>Node1&#45;&gt;Node2</title>
<path fill="none" stroke="midnightblue" d="M153.59,-48.3091C162.271,-49.3782 171.224,-50.4808 180.17,-51.5825"/>
<polygon fill="midnightblue" stroke="midnightblue" points="179.899,-55.0755 190.252,-52.8242 180.755,-48.128 179.899,-55.0755"/>
</g>
<!-- Node3 -->
<g id="node3" class="node"><title>Node3</title>
<g id="a_node3"><a xlink:href="../../df/dd6/classview_1_1toolbar_1_1_toolbar.html#af475087a1d6bd9a705ed213f676f3339" target="_top" xlink:title="view.toolbar.Toolbar.get\lTurtleWindow">
<polygon fill="white" stroke="black" points="218.5,-0 218.5,-30 345.5,-30 345.5,-0 218.5,-0"/>
<text text-anchor="start" x="226.5" y="-18" font-family="Helvetica,sans-Serif" font-size="10.00">view.toolbar.Toolbar.get</text>
<text text-anchor="middle" x="282" y="-7" font-family="Helvetica,sans-Serif" font-size="10.00">TurtleWindow</text>
</a>
</g>
</g>
<!-- Node1&#45;&gt;Node3 -->
<g id="edge2" class="edge"><title>Node1&#45;&gt;Node3</title>
<path fill="none" stroke="midnightblue" d="M153.59,-30.0633C171.4,-27.9577 190.35,-25.7172 208.041,-23.6257"/>
<polygon fill="midnightblue" stroke="midnightblue" points="208.774,-27.0635 218.294,-22.4135 207.952,-20.1119 208.774,-27.0635"/>
</g>
</g>
</svg>
