<?xml version="1.0" encoding="UTF-8" standalone="no"?>
<!DOCTYPE svg PUBLIC "-//W3C//DTD SVG 1.1//EN"
 "http://www.w3.org/Graphics/SVG/1.1/DTD/svg11.dtd">
<!-- Generated by graphviz version 2.36.0 (20140111.2315)
 -->
<!-- Title: view.components.CommandPort Pages: 1 -->
<svg width="272pt" height="106pt"
 viewBox="0.00 0.00 272.00 106.00" xmlns="http://www.w3.org/2000/svg" xmlns:xlink="http://www.w3.org/1999/xlink">
<g id="graph0" class="graph" transform="scale(1 1) rotate(0) translate(4 102)">
<title>view.components.CommandPort</title>
<polygon fill="white" stroke="none" points="-4,4 -4,-102 268,-102 268,4 -4,4"/>
<!-- Node1 -->
<g id="node1" class="node"><title>Node1</title>
<polygon fill="#bfbfbf" stroke="black" points="26,-0.5 26,-19.5 198,-19.5 198,-0.5 26,-0.5"/>
<text text-anchor="middle" x="112" y="-7.5" font-family="Helvetica,sans-Serif" font-size="10.00">view.components.CommandPort</text>
</g>
<!-- Node2 -->
<g id="node2" class="node"><title>Node2</title>
<polygon fill="white" stroke="#bfbfbf" points="0,-78.5 0,-97.5 66,-97.5 66,-78.5 0,-78.5"/>
<text text-anchor="middle" x="33" y="-85.5" font-family="Helvetica,sans-Serif" font-size="10.00">ScrollPane</text>
</g>
<!-- Node2&#45;&gt;Node1 -->
<g id="edge1" class="edge"><title>Node2&#45;&gt;Node1</title>
<path fill="none" stroke="midnightblue" d="M49.3155,-71.3041C65.5956,-55.6422 90.0087,-32.1562 103.043,-19.6165"/>
<polygon fill="midnightblue" stroke="midnightblue" points="46.8424,-68.8266 42.0623,-78.2818 51.6954,-73.8712 46.8424,-68.8266"/>
</g>
<!-- Node3 -->
<g id="node3" class="node"><title>Node3</title>
<polygon fill="white" stroke="#bfbfbf" points="84,-78.5 84,-97.5 140,-97.5 140,-78.5 84,-78.5"/>
<text text-anchor="middle" x="112" y="-85.5" font-family="Helvetica,sans-Serif" font-size="10.00">TextField</text>
</g>
<!-- Node3&#45;&gt;Node1 -->
<g id="edge2" class="edge"><title>Node3&#45;&gt;Node1</title>
<path fill="none" stroke="#9a32cd" stroke-dasharray="5,2" d="M112,-68.2239C112,-52.6974 112,-31.3582 112,-19.6165"/>
<polygon fill="#9a32cd" stroke="#9a32cd" points="108.5,-68.2818 112,-78.2818 115.5,-68.2819 108.5,-68.2818"/>
<text text-anchor="middle" x="141" y="-46.5" font-family="Helvetica,sans-Serif" font-size="10.00"> myTextField</text>
</g>
<!-- Node4 -->
<g id="node4" class="node"><title>Node4</title>
<polygon fill="white" stroke="#bfbfbf" points="168.5,-78.5 168.5,-97.5 217.5,-97.5 217.5,-78.5 168.5,-78.5"/>
<text text-anchor="middle" x="193" y="-85.5" font-family="Helvetica,sans-Serif" font-size="10.00">Button</text>
</g>
<!-- Node4&#45;&gt;Node1 -->
<g id="edge3" class="edge"><title>Node4&#45;&gt;Node1</title>
<path fill="none" stroke="#9a32cd" stroke-dasharray="5,2" d="M188.172,-68.4509C184.764,-58.3979 179.299,-46.3586 171,-38 162.825,-29.7663 151.678,-23.7874 141.273,-19.5818"/>
<polygon fill="#9a32cd" stroke="#9a32cd" points="184.898,-69.7208 191.099,-78.3116 191.608,-67.729 184.898,-69.7208"/>
<text text-anchor="middle" x="224.5" y="-52" font-family="Helvetica,sans-Serif" font-size="10.00"> myRunButton</text>
<text text-anchor="middle" x="224.5" y="-41" font-family="Helvetica,sans-Serif" font-size="10.00">myDebugButton</text>
</g>
</g>
</svg>
