<?xml version="1.0" encoding="UTF-8" standalone="no"?>
<!DOCTYPE svg PUBLIC "-//W3C//DTD SVG 1.1//EN"
 "http://www.w3.org/Graphics/SVG/1.1/DTD/svg11.dtd">
<!-- Generated by graphviz version 2.36.0 (20140111.2315)
 -->
<!-- Title: model.VariableString.clone Pages: 1 -->
<svg width="366pt" height="126pt"
 viewBox="0.00 0.00 366.00 126.00" xmlns="http://www.w3.org/2000/svg" xmlns:xlink="http://www.w3.org/1999/xlink">
<g id="graph0" class="graph" transform="scale(1 1) rotate(0) translate(4 122)">
<title>model.VariableString.clone</title>
<polygon fill="white" stroke="none" points="-4,4 -4,-122 362,-122 362,4 -4,4"/>
<!-- Node1 -->
<g id="node1" class="node"><title>Node1</title>
<polygon fill="#bfbfbf" stroke="black" points="0.5,-54.5 0.5,-73.5 145.5,-73.5 145.5,-54.5 0.5,-54.5"/>
<text text-anchor="middle" x="73" y="-61.5" font-family="Helvetica,sans-Serif" font-size="10.00">model.VariableString.clone</text>
</g>
<!-- Node2 -->
<g id="node2" class="node"><title>Node2</title>
<g id="a_node2"><a xlink:href="../../d4/d08/classmodel_1_1_variable.html#ae75e860c7260b548591d1fbeaecc9a1e" target="_top" xlink:title="model.Variable.getNameProperty">
<polygon fill="white" stroke="black" points="182,-98.5 182,-117.5 358,-117.5 358,-98.5 182,-98.5"/>
<text text-anchor="middle" x="270" y="-105.5" font-family="Helvetica,sans-Serif" font-size="10.00">model.Variable.getNameProperty</text>
</a>
</g>
</g>
<!-- Node1&#45;&gt;Node2 -->
<g id="edge1" class="edge"><title>Node1&#45;&gt;Node2</title>
<path fill="none" stroke="midnightblue" d="M116.312,-73.5473C145.826,-80.2069 185.4,-89.1363 216.863,-96.2358"/>
<polygon fill="midnightblue" stroke="midnightblue" points="216.245,-99.6843 226.77,-98.4713 217.786,-92.856 216.245,-99.6843"/>
</g>
<!-- Node3 -->
<g id="node3" class="node"><title>Node3</title>
<g id="a_node3"><a xlink:href="../../d2/d1d/classmodel_1_1_variable_string.html#abaa0027ac759695706df2fc974d8882c" target="_top" xlink:title="model.VariableString.get\lValue">
<polygon fill="white" stroke="black" points="202.5,-49 202.5,-79 337.5,-79 337.5,-49 202.5,-49"/>
<text text-anchor="start" x="210.5" y="-67" font-family="Helvetica,sans-Serif" font-size="10.00">model.VariableString.get</text>
<text text-anchor="middle" x="270" y="-56" font-family="Helvetica,sans-Serif" font-size="10.00">Value</text>
</a>
</g>
</g>
<!-- Node1&#45;&gt;Node3 -->
<g id="edge2" class="edge"><title>Node1&#45;&gt;Node3</title>
<path fill="none" stroke="midnightblue" d="M145.504,-64C160.751,-64 176.913,-64 192.345,-64"/>
<polygon fill="midnightblue" stroke="midnightblue" points="192.363,-67.5001 202.363,-64 192.363,-60.5001 192.363,-67.5001"/>
</g>
<!-- Node4 -->
<g id="node4" class="node"><title>Node4</title>
<g id="a_node4"><a xlink:href="../../d2/d1d/classmodel_1_1_variable_string.html#a8cc7306ab2916285b709ef82969f16b3" target="_top" xlink:title="model.VariableString.Variable\lString">
<polygon fill="white" stroke="black" points="191,-0 191,-30 349,-30 349,-0 191,-0"/>
<text text-anchor="start" x="199" y="-18" font-family="Helvetica,sans-Serif" font-size="10.00">model.VariableString.Variable</text>
<text text-anchor="middle" x="270" y="-7" font-family="Helvetica,sans-Serif" font-size="10.00">String</text>
</a>
</g>
</g>
<!-- Node1&#45;&gt;Node4 -->
<g id="edge3" class="edge"><title>Node1&#45;&gt;Node4</title>
<path fill="none" stroke="midnightblue" d="M112.061,-54.436C136.856,-48.2053 169.945,-39.8906 199.347,-32.5026"/>
<polygon fill="midnightblue" stroke="midnightblue" points="200.314,-35.8686 209.159,-30.037 198.608,-29.0796 200.314,-35.8686"/>
</g>
</g>
</svg>
