<?xml version="1.0" encoding="UTF-8" standalone="no"?>
<!DOCTYPE svg PUBLIC "-//W3C//DTD SVG 1.1//EN"
 "http://www.w3.org/Graphics/SVG/1.1/DTD/svg11.dtd">
<!-- Generated by graphviz version 2.36.0 (20140111.2315)
 -->
<!-- Title: view.components.SLogoWorkspace Pages: 1 -->
<svg width="1794pt" height="1139pt"
 viewBox="0.00 0.00 1794.00 1139.00" xmlns="http://www.w3.org/2000/svg" xmlns:xlink="http://www.w3.org/1999/xlink">
<g id="graph0" class="graph" transform="scale(1 1) rotate(0) translate(4 1135)">
<title>view.components.SLogoWorkspace</title>
<polygon fill="white" stroke="none" points="-4,4 -4,-1135 1790,-1135 1790,4 -4,4"/>
<!-- Node1 -->
<g id="node1" class="node"><title>Node1</title>
<polygon fill="#bfbfbf" stroke="black" points="1602.5,-645.5 1602.5,-664.5 1785.5,-664.5 1785.5,-645.5 1602.5,-645.5"/>
<text text-anchor="middle" x="1694" y="-652.5" font-family="Helvetica,sans-Serif" font-size="10.00">view.components.SLogoWorkspace</text>
</g>
<!-- Node2 -->
<g id="node2" class="node"><title>Node2</title>
<polygon fill="white" stroke="#bfbfbf" points="1349,-1044.5 1349,-1063.5 1381,-1063.5 1381,-1044.5 1349,-1044.5"/>
<text text-anchor="middle" x="1365" y="-1051.5" font-family="Helvetica,sans-Serif" font-size="10.00">Tab</text>
</g>
<!-- Node2&#45;&gt;Node1 -->
<g id="edge1" class="edge"><title>Node2&#45;&gt;Node1</title>
<path fill="none" stroke="midnightblue" d="M1391.06,-1059.34C1435.51,-1067.23 1528.66,-1076.5 1584,-1030 1643.56,-979.953 1683.93,-718.257 1691.65,-664.614"/>
<polygon fill="midnightblue" stroke="midnightblue" points="1391.59,-1055.87 1381.11,-1057.44 1390.28,-1062.75 1391.59,-1055.87"/>
</g>
<!-- Node3 -->
<g id="node3" class="node"><title>Node3</title>
<polygon fill="white" stroke="#bfbfbf" points="447.5,-564.5 447.5,-583.5 488.5,-583.5 488.5,-564.5 447.5,-564.5"/>
<text text-anchor="middle" x="468" y="-571.5" font-family="Helvetica,sans-Serif" font-size="10.00">VBox</text>
</g>
<!-- Node3&#45;&gt;Node1 -->
<g id="edge2" class="edge"><title>Node3&#45;&gt;Node1</title>
<path fill="none" stroke="#9a32cd" stroke-dasharray="5,2" d="M498.815,-571.39C518.91,-569.764 546.027,-567.83 570,-567 609.088,-565.647 618.896,-566.28 658,-567 1070.8,-574.602 1174.15,-591.181 1584,-641 1595.65,-642.416 1607.99,-643.959 1620.02,-645.488"/>
<polygon fill="#9a32cd" stroke="#9a32cd" points="498.395,-567.912 488.719,-572.228 498.975,-574.888 498.395,-567.912"/>
<text text-anchor="middle" x="1064" y="-594" font-family="Helvetica,sans-Serif" font-size="10.00"> myListWindows</text>
</g>
<!-- Node6 -->
<g id="node6" class="node"><title>Node6</title>
<g id="a_node6"><a xlink:href="../../da/d76/classview_1_1listwindows_1_1_list_window.html" target="_top" xlink:title="view.listwindows.ListWindow">
<polygon fill="white" stroke="black" points="689,-633.5 689,-652.5 835,-652.5 835,-633.5 689,-633.5"/>
<text text-anchor="middle" x="762" y="-640.5" font-family="Helvetica,sans-Serif" font-size="10.00">view.listwindows.ListWindow</text>
</a>
</g>
</g>
<!-- Node3&#45;&gt;Node6 -->
<g id="edge7" class="edge"><title>Node3&#45;&gt;Node6</title>
<path fill="none" stroke="#9a32cd" stroke-dasharray="5,2" d="M498.712,-568.672C537.884,-563.215 607.715,-559.023 658,-587 669.964,-593.657 665.086,-603.733 676,-612 688.897,-621.769 705.176,-628.695 720.027,-633.485"/>
<polygon fill="#9a32cd" stroke="#9a32cd" points="498.112,-565.223 488.749,-570.182 499.161,-572.144 498.112,-565.223"/>
<text text-anchor="middle" x="614" y="-590" font-family="Helvetica,sans-Serif" font-size="10.00"> myList</text>
</g>
<!-- Node20 -->
<g id="node20" class="node"><title>Node20</title>
<g id="a_node20"><a xlink:href="../../d4/d6b/classview_1_1components_1_1_debugger_port.html" target="_top" xlink:title="view.components.DebuggerPort">
<polygon fill="white" stroke="black" points="677.5,-716.5 677.5,-735.5 846.5,-735.5 846.5,-716.5 677.5,-716.5"/>
<text text-anchor="middle" x="762" y="-723.5" font-family="Helvetica,sans-Serif" font-size="10.00">view.components.DebuggerPort</text>
</a>
</g>
</g>
<!-- Node3&#45;&gt;Node20 -->
<g id="edge23" class="edge"><title>Node3&#45;&gt;Node20</title>
<path fill="none" stroke="#9a32cd" stroke-dasharray="5,2" d="M498.466,-582.997C536.598,-595.237 604.489,-619.078 658,-649 660.424,-650.355 721.318,-696.132 748.315,-716.449"/>
<polygon fill="#9a32cd" stroke="#9a32cd" points="499.126,-579.535 488.536,-579.857 497.015,-586.21 499.126,-579.535"/>
<text text-anchor="middle" x="614" y="-652" font-family="Helvetica,sans-Serif" font-size="10.00"> vb</text>
</g>
<!-- Node4 -->
<g id="node4" class="node"><title>Node4</title>
<g id="a_node4"><a xlink:href="../../d7/dc7/classview_1_1listwindows_1_1_user_defined_commands_window.html" target="_top" xlink:title="view.listwindows.UserDefined\lCommandsWindow">
<polygon fill="white" stroke="black" points="1288,-755 1288,-785 1442,-785 1442,-755 1288,-755"/>
<text text-anchor="start" x="1296" y="-773" font-family="Helvetica,sans-Serif" font-size="10.00">view.listwindows.UserDefined</text>
<text text-anchor="middle" x="1365" y="-762" font-family="Helvetica,sans-Serif" font-size="10.00">CommandsWindow</text>
</a>
</g>
</g>
<!-- Node4&#45;&gt;Node1 -->
<g id="edge3" class="edge"><title>Node4&#45;&gt;Node1</title>
<path fill="none" stroke="#9a32cd" stroke-dasharray="5,2" d="M1452.25,-768.477C1493.47,-765.191 1542.71,-757.436 1584,-740 1626.67,-721.984 1666.95,-682.821 1684.2,-664.636"/>
<polygon fill="#9a32cd" stroke="#9a32cd" points="1451.95,-764.989 1442.23,-769.201 1452.45,-771.971 1451.95,-764.989"/>
<text text-anchor="middle" x="1522" y="-771" font-family="Helvetica,sans-Serif" font-size="10.00"> myUDCommandsWindow</text>
</g>
<!-- Node5 -->
<g id="node5" class="node"><title>Node5</title>
<g id="a_node5"><a xlink:href="../../da/df5/classview_1_1listwindows_1_1_commands_list_window.html" target="_top" xlink:title="view.listwindows.Commands\lListWindow">
<polygon fill="white" stroke="black" points="989,-661 989,-691 1139,-691 1139,-661 989,-661"/>
<text text-anchor="start" x="997" y="-679" font-family="Helvetica,sans-Serif" font-size="10.00">view.listwindows.Commands</text>
<text text-anchor="middle" x="1064" y="-668" font-family="Helvetica,sans-Serif" font-size="10.00">ListWindow</text>
</a>
</g>
</g>
<!-- Node5&#45;&gt;Node4 -->
<g id="edge4" class="edge"><title>Node5&#45;&gt;Node4</title>
<path fill="none" stroke="midnightblue" d="M1149.11,-680.345C1187.05,-684.403 1231.8,-692.174 1270,-707 1299.3,-718.375 1328.7,-740.14 1346.62,-754.865"/>
<polygon fill="midnightblue" stroke="midnightblue" points="1149.41,-676.858 1139.12,-679.344 1148.72,-683.823 1149.41,-676.858"/>
</g>
<!-- Node35 -->
<g id="node35" class="node"><title>Node35</title>
<g id="a_node35"><a xlink:href="../../df/d26/classview_1_1listwindows_1_1_commands_history_window.html" target="_top" xlink:title="view.listwindows.Commands\lHistoryWindow">
<polygon fill="white" stroke="black" points="1290,-666 1290,-696 1440,-696 1440,-666 1290,-666"/>
<text text-anchor="start" x="1298" y="-684" font-family="Helvetica,sans-Serif" font-size="10.00">view.listwindows.Commands</text>
<text text-anchor="middle" x="1365" y="-673" font-family="Helvetica,sans-Serif" font-size="10.00">HistoryWindow</text>
</a>
</g>
</g>
<!-- Node5&#45;&gt;Node35 -->
<g id="edge45" class="edge"><title>Node5&#45;&gt;Node35</title>
<path fill="none" stroke="midnightblue" d="M1149.44,-677.412C1193.63,-678.151 1247.25,-679.048 1289.83,-679.76"/>
<polygon fill="midnightblue" stroke="midnightblue" points="1149.35,-673.91 1139.29,-677.242 1149.23,-680.909 1149.35,-673.91"/>
</g>
<!-- Node6&#45;&gt;Node5 -->
<g id="edge5" class="edge"><title>Node6&#45;&gt;Node5</title>
<path fill="none" stroke="midnightblue" d="M845.235,-652.046C890.108,-656.982 945.224,-663.045 988.779,-667.836"/>
<polygon fill="midnightblue" stroke="midnightblue" points="845.562,-648.561 835.239,-650.946 844.797,-655.519 845.562,-648.561"/>
</g>
<!-- Node22 -->
<g id="node22" class="node"><title>Node22</title>
<g id="a_node22"><a xlink:href="../../de/d8c/classview_1_1listwindows_1_1_variables_window.html" target="_top" xlink:title="view.listwindows.Variables\lWindow">
<polygon fill="white" stroke="black" points="995,-612 995,-642 1133,-642 1133,-612 995,-612"/>
<text text-anchor="start" x="1003" y="-630" font-family="Helvetica,sans-Serif" font-size="10.00">view.listwindows.Variables</text>
<text text-anchor="middle" x="1064" y="-619" font-family="Helvetica,sans-Serif" font-size="10.00">Window</text>
</a>
</g>
</g>
<!-- Node6&#45;&gt;Node22 -->
<g id="edge27" class="edge"><title>Node6&#45;&gt;Node22</title>
<path fill="none" stroke="midnightblue" d="M845.396,-638.606C892.401,-636.099 950.607,-632.994 994.99,-630.627"/>
<polygon fill="midnightblue" stroke="midnightblue" points="845.039,-635.12 835.239,-639.147 845.411,-642.11 845.039,-635.12"/>
</g>
<!-- Node7 -->
<g id="node7" class="node"><title>Node7</title>
<polygon fill="white" stroke="#bfbfbf" points="445,-449.5 445,-468.5 491,-468.5 491,-449.5 445,-449.5"/>
<text text-anchor="middle" x="468" y="-456.5" font-family="Helvetica,sans-Serif" font-size="10.00">Group</text>
</g>
<!-- Node7&#45;&gt;Node6 -->
<g id="edge6" class="edge"><title>Node7&#45;&gt;Node6</title>
<path fill="none" stroke="midnightblue" d="M495.774,-473.571C547.867,-501.926 657.814,-561.784 658,-562 673.372,-579.931 659.334,-595.265 676,-612 685.976,-622.017 699.443,-628.822 712.713,-633.436"/>
<polygon fill="midnightblue" stroke="midnightblue" points="497.216,-470.372 486.759,-468.665 493.87,-476.52 497.216,-470.372"/>
</g>
<!-- Node23 -->
<g id="node23" class="node"><title>Node23</title>
<g id="a_node23"><a xlink:href="../../d5/d4b/classview_1_1components_1_1_turtle_window.html" target="_top" xlink:title="view.components.TurtleWindow">
<polygon fill="white" stroke="black" points="982.5,-290.5 982.5,-309.5 1145.5,-309.5 1145.5,-290.5 982.5,-290.5"/>
<text text-anchor="middle" x="1064" y="-297.5" font-family="Helvetica,sans-Serif" font-size="10.00">view.components.TurtleWindow</text>
</a>
</g>
</g>
<!-- Node7&#45;&gt;Node23 -->
<g id="edge30" class="edge"><title>Node7&#45;&gt;Node23</title>
<path fill="none" stroke="midnightblue" d="M483.797,-441.742C515.032,-406.807 591.788,-328.609 676,-300 792.736,-260.341 940.96,-277.537 1015.55,-290.458"/>
<polygon fill="midnightblue" stroke="midnightblue" points="481.158,-439.442 477.182,-449.262 486.414,-444.065 481.158,-439.442"/>
</g>
<!-- Node7&#45;&gt;Node23 -->
<g id="edge42" class="edge"><title>Node7&#45;&gt;Node23</title>
<path fill="none" stroke="#9a32cd" stroke-dasharray="5,2" d="M501.062,-453.415C603.502,-435.471 918.731,-379.444 962,-362 996.158,-348.229 1031.93,-323.404 1050.36,-309.716"/>
<polygon fill="#9a32cd" stroke="#9a32cd" points="500.254,-450.003 491.007,-455.174 501.46,-456.899 500.254,-450.003"/>
<text text-anchor="middle" x="762" y="-436" font-family="Helvetica,sans-Serif" font-size="10.00"> myTImages</text>
<text text-anchor="middle" x="762" y="-425" font-family="Helvetica,sans-Serif" font-size="10.00">myLayers</text>
</g>
<!-- Node36 -->
<g id="node36" class="node"><title>Node36</title>
<g id="a_node36"><a xlink:href="../../df/dd6/classview_1_1toolbar_1_1_toolbar.html" target="_top" xlink:title="view.toolbar.Toolbar">
<polygon fill="white" stroke="black" points="1310.5,-488.5 1310.5,-507.5 1419.5,-507.5 1419.5,-488.5 1310.5,-488.5"/>
<text text-anchor="middle" x="1365" y="-495.5" font-family="Helvetica,sans-Serif" font-size="10.00">view.toolbar.Toolbar</text>
</a>
</g>
</g>
<!-- Node7&#45;&gt;Node36 -->
<g id="edge47" class="edge"><title>Node7&#45;&gt;Node36</title>
<path fill="none" stroke="midnightblue" d="M501.415,-463.932C542.083,-469.884 614.015,-479.637 676,-484 911.965,-500.608 1194.49,-499.9 1310.39,-498.727"/>
<polygon fill="midnightblue" stroke="midnightblue" points="501.696,-460.435 491.291,-462.434 500.671,-467.36 501.696,-460.435"/>
</g>
<!-- Node8 -->
<g id="node8" class="node"><title>Node8</title>
<polygon fill="white" stroke="#bfbfbf" points="435,-763.5 435,-782.5 501,-782.5 501,-763.5 435,-763.5"/>
<text text-anchor="middle" x="468" y="-770.5" font-family="Helvetica,sans-Serif" font-size="10.00">ScrollPane</text>
</g>
<!-- Node8&#45;&gt;Node6 -->
<g id="edge8" class="edge"><title>Node8&#45;&gt;Node6</title>
<path fill="none" stroke="#9a32cd" stroke-dasharray="5,2" d="M510.933,-761.519C529.068,-756.624 550.551,-750.919 570,-746 608.982,-736.14 622.904,-744.623 658,-725 667.875,-719.479 667.46,-714.421 676,-707 699.843,-686.281 729.759,-664.686 746.996,-652.629"/>
<polygon fill="#9a32cd" stroke="#9a32cd" points="509.975,-758.152 501.237,-764.145 511.805,-764.909 509.975,-758.152"/>
<text text-anchor="middle" x="614" y="-749" font-family="Helvetica,sans-Serif" font-size="10.00"> myScrollPane</text>
</g>
<!-- Node8&#45;&gt;Node20 -->
<g id="edge22" class="edge"><title>Node8&#45;&gt;Node20</title>
<path fill="none" stroke="midnightblue" d="M511.4,-772.709C549.955,-771.772 608.255,-768.67 658,-759 685.648,-753.625 716.259,-743.219 736.867,-735.524"/>
<polygon fill="midnightblue" stroke="midnightblue" points="510.999,-769.216 501.073,-772.919 511.142,-776.215 510.999,-769.216"/>
</g>
<!-- Node38 -->
<g id="node38" class="node"><title>Node38</title>
<g id="a_node38"><a xlink:href="../../db/d98/classview_1_1components_1_1_command_port.html" target="_top" xlink:title="view.components.CommandPort">
<polygon fill="white" stroke="black" points="676,-857.5 676,-876.5 848,-876.5 848,-857.5 676,-857.5"/>
<text text-anchor="middle" x="762" y="-864.5" font-family="Helvetica,sans-Serif" font-size="10.00">view.components.CommandPort</text>
</a>
</g>
</g>
<!-- Node8&#45;&gt;Node38 -->
<g id="edge51" class="edge"><title>Node8&#45;&gt;Node38</title>
<path fill="none" stroke="midnightblue" d="M491.66,-788.257C511.513,-800.953 541.56,-818.576 570,-829 606.824,-842.497 649.492,-851.564 685.148,-857.446"/>
<polygon fill="midnightblue" stroke="midnightblue" points="493.331,-785.169 483.041,-782.645 489.511,-791.035 493.331,-785.169"/>
</g>
<!-- Node9 -->
<g id="node9" class="node"><title>Node9</title>
<polygon fill="white" stroke="#bfbfbf" points="447,-686.5 447,-705.5 489,-705.5 489,-686.5 447,-686.5"/>
<text text-anchor="middle" x="468" y="-693.5" font-family="Helvetica,sans-Serif" font-size="10.00">Label</text>
</g>
<!-- Node9&#45;&gt;Node6 -->
<g id="edge9" class="edge"><title>Node9&#45;&gt;Node6</title>
<path fill="none" stroke="#9a32cd" stroke-dasharray="5,2" d="M499.107,-690.535C548.482,-681.573 647.277,-663.641 708.409,-652.546"/>
<polygon fill="#9a32cd" stroke="#9a32cd" points="498.284,-687.127 489.07,-692.357 499.535,-694.015 498.284,-687.127"/>
<text text-anchor="middle" x="614" y="-681" font-family="Helvetica,sans-Serif" font-size="10.00"> myLabel</text>
</g>
<!-- Node9&#45;&gt;Node20 -->
<g id="edge25" class="edge"><title>Node9&#45;&gt;Node20</title>
<path fill="none" stroke="#9a32cd" stroke-dasharray="5,2" d="M499.361,-698.693C536.716,-702.053 602.063,-708.079 658,-714 665.34,-714.777 672.971,-715.613 680.612,-716.469"/>
<polygon fill="#9a32cd" stroke="#9a32cd" points="499.426,-695.185 489.153,-697.779 498.801,-702.157 499.426,-695.185"/>
<text text-anchor="middle" x="614" y="-717" font-family="Helvetica,sans-Serif" font-size="10.00"> currentCommand</text>
</g>
<!-- Node10 -->
<g id="node10" class="node"><title>Node10</title>
<polygon fill="white" stroke="#bfbfbf" points="0,-1006.5 0,-1025.5 72,-1025.5 72,-1006.5 0,-1006.5"/>
<text text-anchor="middle" x="36" y="-1013.5" font-family="Helvetica,sans-Serif" font-size="10.00">BorderPane</text>
</g>
<!-- Node10&#45;&gt;Node1 -->
<g id="edge56" class="edge"><title>Node10&#45;&gt;Node1</title>
<path fill="none" stroke="#9a32cd" stroke-dasharray="5,2" d="M82.6328,-1016C119.443,-1016 172.555,-1016 219,-1016 219,-1016 219,-1016 1366,-1016 1561.34,-1016 1670.4,-722.065 1689.84,-664.656"/>
<polygon fill="#9a32cd" stroke="#9a32cd" points="82.2305,-1012.5 72.2305,-1016 82.2304,-1019.5 82.2305,-1012.5"/>
<text text-anchor="middle" x="762" y="-1019" font-family="Helvetica,sans-Serif" font-size="10.00"> myBorderPane</text>
</g>
<!-- Node10&#45;&gt;Node6 -->
<g id="edge10" class="edge"><title>Node10&#45;&gt;Node6</title>
<path fill="none" stroke="#9a32cd" stroke-dasharray="5,2" d="M49.8311,-998.18C91.3295,-941.883 228.285,-766.297 384,-677 491.454,-615.379 534.545,-615.88 658,-626 676.244,-627.495 696.125,-630.457 713.511,-633.495"/>
<polygon fill="#9a32cd" stroke="#9a32cd" points="46.8718,-996.298 43.8012,-1006.44 52.5251,-1000.43 46.8718,-996.298"/>
<text text-anchor="middle" x="333" y="-738" font-family="Helvetica,sans-Serif" font-size="10.00"> myPane</text>
</g>
<!-- Node15 -->
<g id="node15" class="node"><title>Node15</title>
<g id="a_node15"><a xlink:href="../../d2/d9f/classview_1_1dialogs_1_1_dialog_box.html" target="_top" xlink:title="view.dialogs.DialogBox">
<polygon fill="white" stroke="black" points="158,-1063.5 158,-1082.5 282,-1082.5 282,-1063.5 158,-1063.5"/>
<text text-anchor="middle" x="220" y="-1070.5" font-family="Helvetica,sans-Serif" font-size="10.00">view.dialogs.DialogBox</text>
</a>
</g>
</g>
<!-- Node10&#45;&gt;Node15 -->
<g id="edge18" class="edge"><title>Node10&#45;&gt;Node15</title>
<path fill="none" stroke="#9a32cd" stroke-dasharray="5,2" d="M77.4097,-1028.66C110.959,-1039.16 157.955,-1053.88 188.438,-1063.43"/>
<polygon fill="#9a32cd" stroke="#9a32cd" points="78.0517,-1025.19 67.4627,-1025.54 75.9596,-1031.87 78.0517,-1025.19"/>
<text text-anchor="middle" x="115" y="-1051" font-family="Helvetica,sans-Serif" font-size="10.00"> myPane</text>
</g>
<!-- Node11 -->
<g id="node11" class="node"><title>Node11</title>
<g id="a_node11"><a xlink:href="../../dd/db2/interfaceview_1_1components_1_1_observer.html" target="_top" xlink:title="view.components.Observer">
<polygon fill="white" stroke="black" points="689,-583.5 689,-602.5 835,-602.5 835,-583.5 689,-583.5"/>
<text text-anchor="middle" x="762" y="-590.5" font-family="Helvetica,sans-Serif" font-size="10.00">view.components.Observer</text>
</a>
</g>
</g>
<!-- Node11&#45;&gt;Node5 -->
<g id="edge11" class="edge"><title>Node11&#45;&gt;Node5</title>
<path fill="none" stroke="midnightblue" d="M807.3,-605.256C860.885,-620.082 951.063,-645.031 1008.76,-660.993"/>
<polygon fill="midnightblue" stroke="midnightblue" points="807.985,-601.814 797.414,-602.521 806.118,-608.561 807.985,-601.814"/>
</g>
<!-- Node11&#45;&gt;Node22 -->
<g id="edge28" class="edge"><title>Node11&#45;&gt;Node22</title>
<path fill="none" stroke="midnightblue" d="M845.494,-596.483C881.392,-598.596 923.882,-601.905 962,-607 972.631,-608.421 983.826,-610.274 994.738,-612.279"/>
<polygon fill="midnightblue" stroke="midnightblue" points="845.249,-592.963 835.066,-595.891 844.852,-599.952 845.249,-592.963"/>
</g>
<!-- Node11&#45;&gt;Node23 -->
<g id="edge31" class="edge"><title>Node11&#45;&gt;Node23</title>
<path fill="none" stroke="midnightblue" d="M797.139,-579.481C839.874,-561.205 913.357,-525.158 962,-476 1014.28,-423.162 1048.99,-337.861 1059.58,-309.505"/>
<polygon fill="midnightblue" stroke="midnightblue" points="795.605,-576.329 787.739,-583.426 798.314,-582.783 795.605,-576.329"/>
</g>
<!-- Node12 -->
<g id="node12" class="node"><title>Node12</title>
<g id="a_node12"><a xlink:href="../../da/d22/classview_1_1dialogs_1_1_text_input_dialog_box.html" target="_top" xlink:title="view.dialogs.TextInputDialogBox">
<polygon fill="white" stroke="black" points="980.5,-913.5 980.5,-932.5 1147.5,-932.5 1147.5,-913.5 980.5,-913.5"/>
<text text-anchor="middle" x="1064" y="-920.5" font-family="Helvetica,sans-Serif" font-size="10.00">view.dialogs.TextInputDialogBox</text>
</a>
</g>
</g>
<!-- Node12&#45;&gt;Node4 -->
<g id="edge12" class="edge"><title>Node12&#45;&gt;Node4</title>
<path fill="none" stroke="#9a32cd" stroke-dasharray="5,2" d="M1076.87,-904.93C1093.72,-880.786 1126.91,-838.446 1166,-816 1203.03,-794.736 1249.29,-783.297 1287.78,-777.145"/>
<polygon fill="#9a32cd" stroke="#9a32cd" points="1073.97,-902.977 1071.24,-913.213 1079.75,-906.915 1073.97,-902.977"/>
<text text-anchor="middle" x="1218" y="-819" font-family="Helvetica,sans-Serif" font-size="10.00"> myParamPromptBox</text>
</g>
<!-- Node13 -->
<g id="node13" class="node"><title>Node13</title>
<g id="a_node13"><a xlink:href="../../d0/de5/classview_1_1dialogs_1_1_input_dialog_box.html" target="_top" xlink:title="view.dialogs.InputDialogBox">
<polygon fill="white" stroke="black" points="688,-913.5 688,-932.5 836,-932.5 836,-913.5 688,-913.5"/>
<text text-anchor="middle" x="762" y="-920.5" font-family="Helvetica,sans-Serif" font-size="10.00">view.dialogs.InputDialogBox</text>
</a>
</g>
</g>
<!-- Node13&#45;&gt;Node12 -->
<g id="edge13" class="edge"><title>Node13&#45;&gt;Node12</title>
<path fill="none" stroke="midnightblue" d="M846.17,-923C888.026,-923 938.607,-923 980.385,-923"/>
<polygon fill="midnightblue" stroke="midnightblue" points="846.005,-919.5 836.005,-923 846.005,-926.5 846.005,-919.5"/>
</g>
<!-- Node14 -->
<g id="node14" class="node"><title>Node14</title>
<g id="a_node14"><a xlink:href="../../d2/dee/classview_1_1dialogs_1_1_message_dialog_box.html" target="_top" xlink:title="view.dialogs.MessageDialogBox">
<polygon fill="white" stroke="black" points="384.5,-926.5 384.5,-945.5 551.5,-945.5 551.5,-926.5 384.5,-926.5"/>
<text text-anchor="middle" x="468" y="-933.5" font-family="Helvetica,sans-Serif" font-size="10.00">view.dialogs.MessageDialogBox</text>
</a>
</g>
</g>
<!-- Node14&#45;&gt;Node13 -->
<g id="edge14" class="edge"><title>Node14&#45;&gt;Node13</title>
<path fill="none" stroke="midnightblue" d="M562.076,-936.018C592.654,-935.625 626.797,-934.759 658,-933 667.686,-932.454 677.869,-931.693 687.908,-930.833"/>
<polygon fill="midnightblue" stroke="midnightblue" points="561.812,-932.521 551.852,-936.134 561.891,-939.52 561.812,-932.521"/>
</g>
<!-- Node15&#45;&gt;Node14 -->
<g id="edge15" class="edge"><title>Node15&#45;&gt;Node14</title>
<path fill="none" stroke="midnightblue" d="M238.605,-1056.49C266.959,-1030.82 325.506,-981.531 384,-955 392.481,-951.153 401.815,-948.049 411.068,-945.555"/>
<polygon fill="midnightblue" stroke="midnightblue" points="236.122,-1054.02 231.119,-1063.35 240.854,-1059.17 236.122,-1054.02"/>
</g>
<!-- Node16 -->
<g id="node16" class="node"><title>Node16</title>
<polygon fill="white" stroke="#bfbfbf" points="13.5,-1111.5 13.5,-1130.5 58.5,-1130.5 58.5,-1111.5 13.5,-1111.5"/>
<text text-anchor="middle" x="36" y="-1118.5" font-family="Helvetica,sans-Serif" font-size="10.00">Stage</text>
</g>
<!-- Node16&#45;&gt;Node15 -->
<g id="edge16" class="edge"><title>Node16&#45;&gt;Node15</title>
<path fill="none" stroke="#9a32cd" stroke-dasharray="5,2" d="M68.7886,-1113.68C89.1951,-1108.88 116.23,-1102.34 140,-1096 155.734,-1091.8 173.121,-1086.78 187.569,-1082.5"/>
<polygon fill="#9a32cd" stroke="#9a32cd" points="67.7151,-1110.33 58.774,-1116.02 69.3081,-1117.15 67.7151,-1110.33"/>
<text text-anchor="middle" x="115" y="-1111" font-family="Helvetica,sans-Serif" font-size="10.00"> myStage</text>
</g>
<!-- Node17 -->
<g id="node17" class="node"><title>Node17</title>
<polygon fill="white" stroke="#bfbfbf" points="12.5,-1073.5 12.5,-1092.5 59.5,-1092.5 59.5,-1073.5 12.5,-1073.5"/>
<text text-anchor="middle" x="36" y="-1080.5" font-family="Helvetica,sans-Serif" font-size="10.00">Scene</text>
</g>
<!-- Node17&#45;&gt;Node15 -->
<g id="edge17" class="edge"><title>Node17&#45;&gt;Node15</title>
<path fill="none" stroke="#9a32cd" stroke-dasharray="5,2" d="M69.8394,-1081.2C94.2438,-1079.85 128.254,-1077.99 157.637,-1076.37"/>
<polygon fill="#9a32cd" stroke="#9a32cd" points="69.4753,-1077.71 59.6824,-1081.75 69.8594,-1084.7 69.4753,-1077.71"/>
<text text-anchor="middle" x="115" y="-1084" font-family="Helvetica,sans-Serif" font-size="10.00"> myScene</text>
</g>
<!-- Node18 -->
<g id="node18" class="node"><title>Node18</title>
<polygon fill="white" stroke="#bfbfbf" points="197.5,-926.5 197.5,-945.5 242.5,-945.5 242.5,-926.5 197.5,-926.5"/>
<text text-anchor="middle" x="220" y="-933.5" font-family="Helvetica,sans-Serif" font-size="10.00">Insets</text>
</g>
<!-- Node18&#45;&gt;Node14 -->
<g id="edge19" class="edge"><title>Node18&#45;&gt;Node14</title>
<path fill="none" stroke="#9a32cd" stroke-dasharray="5,2" d="M252.841,-936C285.957,-936 339.167,-936 384.262,-936"/>
<polygon fill="#9a32cd" stroke="#9a32cd" points="252.831,-932.5 242.831,-936 252.831,-939.5 252.831,-932.5"/>
<text text-anchor="middle" x="333" y="-939" font-family="Helvetica,sans-Serif" font-size="10.00"> TEXT_INSETS</text>
</g>
<!-- Node19 -->
<g id="node19" class="node"><title>Node19</title>
<polygon fill="white" stroke="#bfbfbf" points="440,-964.5 440,-983.5 496,-983.5 496,-964.5 440,-964.5"/>
<text text-anchor="middle" x="468" y="-971.5" font-family="Helvetica,sans-Serif" font-size="10.00">TextField</text>
</g>
<!-- Node19&#45;&gt;Node12 -->
<g id="edge20" class="edge"><title>Node19&#45;&gt;Node12</title>
<path fill="none" stroke="#9a32cd" stroke-dasharray="5,2" d="M506.147,-972.012C588.413,-967.433 792.139,-955.129 962,-937 973.882,-935.732 986.519,-934.159 998.688,-932.531"/>
<polygon fill="#9a32cd" stroke="#9a32cd" points="505.834,-968.523 496.042,-972.569 506.22,-975.513 505.834,-968.523"/>
<text text-anchor="middle" x="762" y="-965" font-family="Helvetica,sans-Serif" font-size="10.00"> myTextField</text>
</g>
<!-- Node19&#45;&gt;Node38 -->
<g id="edge52" class="edge"><title>Node19&#45;&gt;Node38</title>
<path fill="none" stroke="#9a32cd" stroke-dasharray="5,2" d="M506.357,-967.054C520.789,-963.954 537.329,-959.888 552,-955 560.306,-952.233 561.962,-950.469 570,-947 630.24,-921.001 701.659,-891.414 737.704,-876.568"/>
<polygon fill="#9a32cd" stroke="#9a32cd" points="505.362,-963.685 496.278,-969.137 506.779,-970.54 505.362,-963.685"/>
<text text-anchor="middle" x="614" y="-950" font-family="Helvetica,sans-Serif" font-size="10.00"> myTextField</text>
</g>
<!-- Node20&#45;&gt;Node1 -->
<g id="edge21" class="edge"><title>Node20&#45;&gt;Node1</title>
<path fill="none" stroke="#9a32cd" stroke-dasharray="5,2" d="M856.748,-725.507C987.852,-724.269 1233.34,-719.957 1442,-705 1505.35,-700.459 1521.85,-702.071 1584,-689 1613.1,-682.881 1645.52,-672.259 1667.38,-664.513"/>
<polygon fill="#9a32cd" stroke="#9a32cd" points="856.705,-722.007 846.737,-725.597 856.769,-729.007 856.705,-722.007"/>
<text text-anchor="middle" x="1218" y="-722" font-family="Helvetica,sans-Serif" font-size="10.00"> myDebugPort</text>
</g>
<!-- Node21 -->
<g id="node21" class="node"><title>Node21</title>
<polygon fill="white" stroke="#bfbfbf" points="443.5,-834.5 443.5,-853.5 492.5,-853.5 492.5,-834.5 443.5,-834.5"/>
<text text-anchor="middle" x="468" y="-841.5" font-family="Helvetica,sans-Serif" font-size="10.00">Button</text>
</g>
<!-- Node21&#45;&gt;Node20 -->
<g id="edge24" class="edge"><title>Node21&#45;&gt;Node20</title>
<path fill="none" stroke="#9a32cd" stroke-dasharray="5,2" d="M502.273,-834.153C540.457,-822.489 604.678,-801.748 658,-779 689.261,-765.664 724.136,-746.838 744.229,-735.582"/>
<polygon fill="#9a32cd" stroke="#9a32cd" points="501.242,-830.809 492.686,-837.058 503.272,-837.508 501.242,-830.809"/>
<text text-anchor="middle" x="614" y="-826" font-family="Helvetica,sans-Serif" font-size="10.00"> stepCommand</text>
<text text-anchor="middle" x="614" y="-815" font-family="Helvetica,sans-Serif" font-size="10.00">exitDebug</text>
</g>
<!-- Node21&#45;&gt;Node38 -->
<g id="edge53" class="edge"><title>Node21&#45;&gt;Node38</title>
<path fill="none" stroke="#9a32cd" stroke-dasharray="5,2" d="M502.645,-847.592C522.276,-849.623 547.525,-852.123 570,-854 604.612,-856.891 642.792,-859.588 675.861,-861.767"/>
<polygon fill="#9a32cd" stroke="#9a32cd" points="502.963,-844.107 492.654,-846.549 502.236,-851.069 502.963,-844.107"/>
<text text-anchor="middle" x="614" y="-875" font-family="Helvetica,sans-Serif" font-size="10.00"> myRunButton</text>
<text text-anchor="middle" x="614" y="-864" font-family="Helvetica,sans-Serif" font-size="10.00">myDebugButton</text>
</g>
<!-- Node22&#45;&gt;Node1 -->
<g id="edge26" class="edge"><title>Node22&#45;&gt;Node1</title>
<path fill="none" stroke="#9a32cd" stroke-dasharray="5,2" d="M1143.38,-630.495C1260.08,-635.698 1478.95,-645.456 1602.36,-650.959"/>
<polygon fill="#9a32cd" stroke="#9a32cd" points="1143.25,-626.985 1133.1,-630.036 1142.94,-633.978 1143.25,-626.985"/>
<text text-anchor="middle" x="1365" y="-647" font-family="Helvetica,sans-Serif" font-size="10.00"> myVariablesWindow</text>
</g>
<!-- Node23&#45;&gt;Node1 -->
<g id="edge29" class="edge"><title>Node23&#45;&gt;Node1</title>
<path fill="none" stroke="#9a32cd" stroke-dasharray="5,2" d="M1090.17,-314.76C1130.7,-338.034 1213.43,-383.532 1288,-412 1415.31,-460.606 1473.3,-412.523 1584,-492 1642.07,-533.693 1678.22,-616.668 1689.33,-645.141"/>
<polygon fill="#9a32cd" stroke="#9a32cd" points="1091.67,-311.586 1081.26,-309.611 1088.17,-317.646 1091.67,-311.586"/>
<text text-anchor="middle" x="1365" y="-444" font-family="Helvetica,sans-Serif" font-size="10.00"> myTurtleWindow</text>
</g>
<!-- Node23&#45;&gt;Node36 -->
<g id="edge48" class="edge"><title>Node23&#45;&gt;Node36</title>
<path fill="none" stroke="#9a32cd" stroke-dasharray="5,2" d="M1072.32,-319.212C1085.69,-351.611 1117.28,-416.815 1166,-450 1205.13,-476.648 1224,-461.803 1270,-473 1289.69,-477.793 1311.57,-483.586 1329.27,-488.388"/>
<polygon fill="#9a32cd" stroke="#9a32cd" points="1075.43,-317.573 1068.48,-309.576 1068.93,-320.162 1075.43,-317.573"/>
<text text-anchor="middle" x="1218" y="-476" font-family="Helvetica,sans-Serif" font-size="10.00"> myTurtleWindow</text>
</g>
<!-- Node24 -->
<g id="node24" class="node"><title>Node24</title>
<polygon fill="white" stroke="#bfbfbf" points="680,-348 680,-378 844,-378 844,-348 680,-348"/>
<text text-anchor="start" x="688" y="-366" font-family="Helvetica,sans-Serif" font-size="10.00">HashMap&lt; Integer, view.turtle.</text>
<text text-anchor="middle" x="762" y="-355" font-family="Helvetica,sans-Serif" font-size="10.00">TurtleImage &gt;</text>
</g>
<!-- Node24&#45;&gt;Node23 -->
<g id="edge32" class="edge"><title>Node24&#45;&gt;Node23</title>
<path fill="none" stroke="#9a32cd" stroke-dasharray="5,2" d="M854.119,-348.871C888.121,-343.101 926.965,-335.918 962,-328 985.428,-322.705 1011.55,-315.426 1031.36,-309.617"/>
<polygon fill="#9a32cd" stroke="#9a32cd" points="853.482,-345.429 844.2,-350.537 854.642,-352.332 853.482,-345.429"/>
<text text-anchor="middle" x="914" y="-350" font-family="Helvetica,sans-Serif" font-size="10.00"> myTurtles</text>
</g>
<!-- Node25 -->
<g id="node25" class="node"><title>Node25</title>
<polygon fill="white" stroke="#bfbfbf" points="722,-309.5 722,-328.5 802,-328.5 802,-309.5 722,-309.5"/>
<text text-anchor="middle" x="762" y="-316.5" font-family="Helvetica,sans-Serif" font-size="10.00">ContextMenu</text>
</g>
<!-- Node25&#45;&gt;Node23 -->
<g id="edge33" class="edge"><title>Node25&#45;&gt;Node23</title>
<path fill="none" stroke="#9a32cd" stroke-dasharray="5,2" d="M812.257,-315.88C858.355,-312.961 928.058,-308.546 982.282,-305.112"/>
<polygon fill="#9a32cd" stroke="#9a32cd" points="811.979,-312.391 802.22,-316.516 812.421,-319.377 811.979,-312.391"/>
<text text-anchor="middle" x="914" y="-316" font-family="Helvetica,sans-Serif" font-size="10.00"> contextMenu</text>
</g>
<!-- Node26 -->
<g id="node26" class="node"><title>Node26</title>
<g id="a_node26"><a xlink:href="../../d5/d46/classview_1_1components_1_1_palette.html" target="_top" xlink:title="view.components.Palette">
<polygon fill="white" stroke="black" points="694.5,-29.5 694.5,-48.5 829.5,-48.5 829.5,-29.5 694.5,-29.5"/>
<text text-anchor="middle" x="762" y="-36.5" font-family="Helvetica,sans-Serif" font-size="10.00">view.components.Palette</text>
</a>
</g>
</g>
<!-- Node26&#45;&gt;Node23 -->
<g id="edge34" class="edge"><title>Node26&#45;&gt;Node23</title>
<path fill="none" stroke="#9a32cd" stroke-dasharray="5,2" d="M829.594,-28.6442C871.441,-25.8169 924.42,-29.3955 962,-57 1043,-116.503 1059.37,-253.197 1062.38,-290.465"/>
<polygon fill="#9a32cd" stroke="#9a32cd" points="829.169,-25.1671 819.485,-29.4643 829.735,-32.1442 829.169,-25.1671"/>
<text text-anchor="middle" x="914" y="-60" font-family="Helvetica,sans-Serif" font-size="10.00"> myPalette</text>
</g>
<!-- Node27 -->
<g id="node27" class="node"><title>Node27</title>
<polygon fill="white" stroke="#bfbfbf" points="390.5,-0 390.5,-30 545.5,-30 545.5,-0 390.5,-0"/>
<text text-anchor="start" x="398.5" y="-18" font-family="Helvetica,sans-Serif" font-size="10.00">ArrayList&lt; view.components.</text>
<text text-anchor="middle" x="468" y="-7" font-family="Helvetica,sans-Serif" font-size="10.00">ImageIndex &gt;</text>
</g>
<!-- Node27&#45;&gt;Node26 -->
<g id="edge35" class="edge"><title>Node27&#45;&gt;Node26</title>
<path fill="none" stroke="#9a32cd" stroke-dasharray="5,2" d="M555.899,-22.1424C600.18,-25.7819 653.188,-30.1387 694.221,-33.5113"/>
<polygon fill="#9a32cd" stroke="#9a32cd" points="555.973,-18.6367 545.72,-21.3057 555.399,-25.6132 555.973,-18.6367"/>
<text text-anchor="middle" x="614" y="-33" font-family="Helvetica,sans-Serif" font-size="10.00"> myImagePalettes</text>
</g>
<!-- Node28 -->
<g id="node28" class="node"><title>Node28</title>
<polygon fill="white" stroke="#bfbfbf" points="390.5,-49 390.5,-79 545.5,-79 545.5,-49 390.5,-49"/>
<text text-anchor="start" x="398.5" y="-67" font-family="Helvetica,sans-Serif" font-size="10.00">ArrayList&lt; view.components.</text>
<text text-anchor="middle" x="468" y="-56" font-family="Helvetica,sans-Serif" font-size="10.00">ColorIndex &gt;</text>
</g>
<!-- Node28&#45;&gt;Node26 -->
<g id="edge36" class="edge"><title>Node28&#45;&gt;Node26</title>
<path fill="none" stroke="#9a32cd" stroke-dasharray="5,2" d="M555.899,-56.56C600.18,-52.7688 653.188,-48.2305 694.221,-44.7174"/>
<polygon fill="#9a32cd" stroke="#9a32cd" points="555.385,-53.0912 545.72,-57.4315 555.982,-60.0657 555.385,-53.0912"/>
<text text-anchor="middle" x="614" y="-59" font-family="Helvetica,sans-Serif" font-size="10.00"> myColorPalettes</text>
</g>
<!-- Node29 -->
<g id="node29" class="node"><title>Node29</title>
<polygon fill="white" stroke="#bfbfbf" points="716.5,-233.5 716.5,-252.5 807.5,-252.5 807.5,-233.5 716.5,-233.5"/>
<text text-anchor="middle" x="762" y="-240.5" font-family="Helvetica,sans-Serif" font-size="10.00">IntegerProperty</text>
</g>
<!-- Node29&#45;&gt;Node23 -->
<g id="edge37" class="edge"><title>Node29&#45;&gt;Node23</title>
<path fill="none" stroke="#9a32cd" stroke-dasharray="5,2" d="M817.709,-241.541C858.12,-241.67 914.18,-244.397 962,-256 993.04,-263.532 1026.56,-279.961 1046.12,-290.475"/>
<polygon fill="#9a32cd" stroke="#9a32cd" points="817.52,-238.041 807.527,-241.562 817.534,-245.041 817.52,-238.041"/>
<text text-anchor="middle" x="914" y="-259" font-family="Helvetica,sans-Serif" font-size="10.00"> bgColorID</text>
</g>
<!-- Node30 -->
<g id="node30" class="node"><title>Node30</title>
<polygon fill="white" stroke="#bfbfbf" points="714,-195.5 714,-214.5 810,-214.5 810,-195.5 714,-195.5"/>
<text text-anchor="middle" x="762" y="-202.5" font-family="Helvetica,sans-Serif" font-size="10.00">GraphicsContext</text>
</g>
<!-- Node30&#45;&gt;Node23 -->
<g id="edge38" class="edge"><title>Node30&#45;&gt;Node23</title>
<path fill="none" stroke="#9a32cd" stroke-dasharray="5,2" d="M820.422,-204.564C861.165,-205.996 916.474,-211.532 962,-229 999.421,-243.358 1036.06,-274.624 1053.1,-290.436"/>
<polygon fill="#9a32cd" stroke="#9a32cd" points="820.487,-201.064 810.393,-204.283 820.291,-208.061 820.487,-201.064"/>
<text text-anchor="middle" x="914" y="-232" font-family="Helvetica,sans-Serif" font-size="10.00"> mainGC</text>
</g>
<!-- Node31 -->
<g id="node31" class="node"><title>Node31</title>
<polygon fill="white" stroke="#bfbfbf" points="740.5,-157.5 740.5,-176.5 783.5,-176.5 783.5,-157.5 740.5,-157.5"/>
<text text-anchor="middle" x="762" y="-164.5" font-family="Helvetica,sans-Serif" font-size="10.00">Menu</text>
</g>
<!-- Node31&#45;&gt;Node23 -->
<g id="edge39" class="edge"><title>Node31&#45;&gt;Node23</title>
<path fill="none" stroke="#9a32cd" stroke-dasharray="5,2" d="M793.685,-162.35C834.505,-157.658 907.814,-154.54 962,-182 1011.07,-206.867 1046.07,-267.033 1058.26,-290.45"/>
<polygon fill="#9a32cd" stroke="#9a32cd" points="793.041,-158.903 783.556,-163.625 793.915,-165.848 793.041,-158.903"/>
<text text-anchor="middle" x="914" y="-196" font-family="Helvetica,sans-Serif" font-size="10.00"> imagePalettes</text>
<text text-anchor="middle" x="914" y="-185" font-family="Helvetica,sans-Serif" font-size="10.00">colorPalettes</text>
</g>
<!-- Node32 -->
<g id="node32" class="node"><title>Node32</title>
<polygon fill="white" stroke="#bfbfbf" points="724,-117.5 724,-136.5 800,-136.5 800,-117.5 724,-117.5"/>
<text text-anchor="middle" x="762" y="-124.5" font-family="Helvetica,sans-Serif" font-size="10.00">ToggleGroup</text>
</g>
<!-- Node32&#45;&gt;Node23 -->
<g id="edge40" class="edge"><title>Node32&#45;&gt;Node23</title>
<path fill="none" stroke="#9a32cd" stroke-dasharray="5,2" d="M810.488,-116.674C853.149,-110.043 915.974,-107.052 962,-134 1023.72,-170.135 1052.48,-260.263 1060.54,-290.177"/>
<polygon fill="#9a32cd" stroke="#9a32cd" points="809.65,-113.265 800.368,-118.373 810.809,-120.168 809.65,-113.265"/>
<text text-anchor="middle" x="914" y="-148" font-family="Helvetica,sans-Serif" font-size="10.00"> imagePaletteGroup</text>
<text text-anchor="middle" x="914" y="-137" font-family="Helvetica,sans-Serif" font-size="10.00">colorPaletteGroup</text>
</g>
<!-- Node33 -->
<g id="node33" class="node"><title>Node33</title>
<polygon fill="white" stroke="#bfbfbf" points="684.5,-68 684.5,-98 839.5,-98 839.5,-68 684.5,-68"/>
<text text-anchor="start" x="692.5" y="-86" font-family="Helvetica,sans-Serif" font-size="10.00">HashMap&lt; Integer, Graphics</text>
<text text-anchor="middle" x="762" y="-75" font-family="Helvetica,sans-Serif" font-size="10.00">Context &gt;</text>
</g>
<!-- Node33&#45;&gt;Node23 -->
<g id="edge41" class="edge"><title>Node33&#45;&gt;Node23</title>
<path fill="none" stroke="#9a32cd" stroke-dasharray="5,2" d="M850.049,-71.3765C887.341,-70.7554 929.658,-76.2895 962,-98 1032.32,-145.203 1055.88,-256.557 1061.52,-290.203"/>
<polygon fill="#9a32cd" stroke="#9a32cd" points="849.56,-67.8902 839.677,-71.7066 849.783,-74.8866 849.56,-67.8902"/>
<text text-anchor="middle" x="914" y="-101" font-family="Helvetica,sans-Serif" font-size="10.00"> gc</text>
</g>
<!-- Node34 -->
<g id="node34" class="node"><title>Node34</title>
<polygon fill="white" stroke="#bfbfbf" points="736,-455.5 736,-474.5 788,-474.5 788,-455.5 736,-455.5"/>
<text text-anchor="middle" x="762" y="-462.5" font-family="Helvetica,sans-Serif" font-size="10.00">Canvas</text>
</g>
<!-- Node34&#45;&gt;Node23 -->
<g id="edge43" class="edge"><title>Node34&#45;&gt;Node23</title>
<path fill="none" stroke="#9a32cd" stroke-dasharray="5,2" d="M798.259,-465.976C840.22,-465.562 911.004,-459.76 962,-429 1011.93,-398.883 1046.66,-334.279 1058.52,-309.734"/>
<polygon fill="#9a32cd" stroke="#9a32cd" points="798.242,-462.476 788.242,-465.977 798.243,-469.476 798.242,-462.476"/>
<text text-anchor="middle" x="914" y="-464" font-family="Helvetica,sans-Serif" font-size="10.00"> mainCanvas</text>
</g>
<!-- Node35&#45;&gt;Node1 -->
<g id="edge44" class="edge"><title>Node35&#45;&gt;Node1</title>
<path fill="none" stroke="#9a32cd" stroke-dasharray="5,2" d="M1450.28,-674.299C1496.91,-670.591 1554.89,-665.982 1602.48,-662.197"/>
<polygon fill="#9a32cd" stroke="#9a32cd" points="1449.89,-670.819 1440.2,-675.1 1450.45,-677.796 1449.89,-670.819"/>
<text text-anchor="middle" x="1522" y="-677" font-family="Helvetica,sans-Serif" font-size="10.00"> myCommandHistWindow</text>
</g>
<!-- Node36&#45;&gt;Node1 -->
<g id="edge46" class="edge"><title>Node36&#45;&gt;Node1</title>
<path fill="none" stroke="#9a32cd" stroke-dasharray="5,2" d="M1429.99,-494.302C1475.54,-494.408 1536.8,-500.305 1584,-526 1637.05,-554.877 1675.3,-620.81 1688.22,-645.464"/>
<polygon fill="#9a32cd" stroke="#9a32cd" points="1429.91,-490.803 1419.94,-494.372 1429.96,-497.802 1429.91,-490.803"/>
<text text-anchor="middle" x="1522" y="-529" font-family="Helvetica,sans-Serif" font-size="10.00"> myToolbar</text>
</g>
<!-- Node37 -->
<g id="node37" class="node"><title>Node37</title>
<polygon fill="white" stroke="#bfbfbf" points="1043,-526.5 1043,-545.5 1085,-545.5 1085,-526.5 1043,-526.5"/>
<text text-anchor="middle" x="1064" y="-533.5" font-family="Helvetica,sans-Serif" font-size="10.00">HBox</text>
</g>
<!-- Node37&#45;&gt;Node1 -->
<g id="edge55" class="edge"><title>Node37&#45;&gt;Node1</title>
<path fill="none" stroke="#9a32cd" stroke-dasharray="5,2" d="M1095.2,-537.368C1199.13,-542.208 1538.12,-559.137 1584,-576 1625.9,-591.4 1665.95,-627.796 1683.59,-645.286"/>
<polygon fill="#9a32cd" stroke="#9a32cd" points="1095.23,-533.866 1085.07,-536.9 1094.9,-540.858 1095.23,-533.866"/>
<text text-anchor="middle" x="1365" y="-561" font-family="Helvetica,sans-Serif" font-size="10.00"> myUDListWindows</text>
</g>
<!-- Node37&#45;&gt;Node36 -->
<g id="edge49" class="edge"><title>Node37&#45;&gt;Node36</title>
<path fill="none" stroke="#9a32cd" stroke-dasharray="5,2" d="M1095.31,-532.147C1145.72,-525.742 1247.41,-512.817 1310.22,-504.835"/>
<polygon fill="#9a32cd" stroke="#9a32cd" points="1094.56,-528.715 1085.08,-533.448 1095.44,-535.659 1094.56,-528.715"/>
<text text-anchor="middle" x="1218" y="-526" font-family="Helvetica,sans-Serif" font-size="10.00"> myToolbar</text>
</g>
<!-- Node38&#45;&gt;Node1 -->
<g id="edge50" class="edge"><title>Node38&#45;&gt;Node1</title>
<path fill="none" stroke="#9a32cd" stroke-dasharray="5,2" d="M837.734,-877.737C989.128,-895.729 1338.48,-917.864 1584,-783 1636.44,-754.192 1674.79,-689.442 1687.99,-664.786"/>
<polygon fill="#9a32cd" stroke="#9a32cd" points="837.965,-874.239 827.615,-876.505 837.119,-881.188 837.965,-874.239"/>
<text text-anchor="middle" x="1218" y="-891" font-family="Helvetica,sans-Serif" font-size="10.00"> myCommandPort</text>
</g>
<!-- Node39 -->
<g id="node39" class="node"><title>Node39</title>
<polygon fill="white" stroke="#bfbfbf" points="1344.5,-383.5 1344.5,-402.5 1385.5,-402.5 1385.5,-383.5 1344.5,-383.5"/>
<text text-anchor="middle" x="1365" y="-390.5" font-family="Helvetica,sans-Serif" font-size="10.00">Color</text>
</g>
<!-- Node39&#45;&gt;Node1 -->
<g id="edge54" class="edge"><title>Node39&#45;&gt;Node1</title>
<path fill="none" stroke="#9a32cd" stroke-dasharray="5,2" d="M1395.73,-387.2C1440.92,-380.134 1527.6,-373.65 1584,-414 1665.97,-472.651 1687.51,-607.901 1691.98,-645.276"/>
<polygon fill="#9a32cd" stroke="#9a32cd" points="1394.97,-383.777 1385.69,-388.887 1396.14,-390.68 1394.97,-383.777"/>
<text text-anchor="middle" x="1522" y="-417" font-family="Helvetica,sans-Serif" font-size="10.00"> BACKGROUND_COLOR</text>
</g>
</g>
</svg>
