<?xml version="1.0" encoding="UTF-8" standalone="no"?>
<!DOCTYPE svg PUBLIC "-//W3C//DTD SVG 1.1//EN"
 "http://www.w3.org/Graphics/SVG/1.1/DTD/svg11.dtd">
<!-- Generated by graphviz version 2.36.0 (20140111.2315)
 -->
<!-- Title: parser.commands.Sum Pages: 1 -->
<svg width="160pt" height="164pt"
 viewBox="0.00 0.00 160.00 164.00" xmlns="http://www.w3.org/2000/svg" xmlns:xlink="http://www.w3.org/1999/xlink">
<g id="graph0" class="graph" transform="scale(1 1) rotate(0) translate(4 160)">
<title>parser.commands.Sum</title>
<polygon fill="white" stroke="none" points="-4,4 -4,-160 156,-160 156,4 -4,4"/>
<!-- Node1 -->
<g id="node1" class="node"><title>Node1</title>
<polygon fill="#bfbfbf" stroke="black" points="11.5,-0.5 11.5,-19.5 140.5,-19.5 140.5,-0.5 11.5,-0.5"/>
<text text-anchor="middle" x="76" y="-7.5" font-family="Helvetica,sans-Serif" font-size="10.00">parser.commands.Sum</text>
</g>
<!-- Node2 -->
<g id="node2" class="node"><title>Node2</title>
<g id="a_node2"><a xlink:href="../../d6/dc9/classparser_1_1nodes_1_1_unlimited_node.html" target="_top" xlink:title="parser.nodes.UnlimitedNode">
<polygon fill="white" stroke="black" points="-0.5,-58.5 -0.5,-77.5 152.5,-77.5 152.5,-58.5 -0.5,-58.5"/>
<text text-anchor="middle" x="76" y="-65.5" font-family="Helvetica,sans-Serif" font-size="10.00">parser.nodes.UnlimitedNode</text>
</a>
</g>
</g>
<!-- Node2&#45;&gt;Node1 -->
<g id="edge1" class="edge"><title>Node2&#45;&gt;Node1</title>
<path fill="none" stroke="midnightblue" d="M76,-47.953C76,-38.2875 76,-27.0312 76,-19.5052"/>
<polygon fill="midnightblue" stroke="midnightblue" points="72.5001,-48.25 76,-58.25 79.5001,-48.25 72.5001,-48.25"/>
</g>
<!-- Node3 -->
<g id="node3" class="node"><title>Node3</title>
<g id="a_node3"><a xlink:href="../../da/d96/classparser_1_1nodes_1_1_syntax_node.html" target="_top" xlink:title="parser.nodes.SyntaxNode">
<polygon fill="white" stroke="black" points="6,-136.5 6,-155.5 146,-155.5 146,-136.5 6,-136.5"/>
<text text-anchor="middle" x="76" y="-143.5" font-family="Helvetica,sans-Serif" font-size="10.00">parser.nodes.SyntaxNode</text>
</a>
</g>
</g>
<!-- Node3&#45;&gt;Node2 -->
<g id="edge2" class="edge"><title>Node3&#45;&gt;Node2</title>
<path fill="none" stroke="midnightblue" d="M74.4399,-126.382C74.2572,-123.575 74.1003,-120.713 74,-118 73.6386,-108.229 73.6386,-105.771 74,-96 74.2293,-89.7998 74.7539,-82.8151 75.2083,-77.5033"/>
<polygon fill="midnightblue" stroke="midnightblue" points="70.9607,-126.791 75.2083,-136.497 77.9406,-126.26 70.9607,-126.791"/>
</g>
<!-- Node3&#45;&gt;Node2 -->
<g id="edge3" class="edge"><title>Node3&#45;&gt;Node2</title>
<path fill="none" stroke="#9a32cd" stroke-dasharray="5,2" d="M76,-126.224C76,-110.697 76,-89.3582 76,-77.6165"/>
<polygon fill="#9a32cd" stroke="#9a32cd" points="72.5001,-126.282 76,-136.282 79.5001,-126.282 72.5001,-126.282"/>
<text text-anchor="middle" x="99.5" y="-110" font-family="Helvetica,sans-Serif" font-size="10.00"> nodeOne</text>
<text text-anchor="middle" x="99.5" y="-99" font-family="Helvetica,sans-Serif" font-size="10.00">nodeTwo</text>
</g>
</g>
</svg>
